<svg xmlns="http://www.w3.org/2000/svg" xmlns:xlink="http://www.w3.org/1999/xlink" width="675.43" height="449.588" viewBox="0 0 675.43 449.588"><defs><style>.a{fill:url(#a);}.b,.d,.k{fill:#bbdbf9;}.b{stroke:#384883;}.aa,.b,.c,.d,.h,.j,.m,.n,.p,.q,.r,.s,.t,.z{stroke-linecap:round;stroke-linejoin:round;}.c,.h,.l{fill:#fff;}.c{stroke:#384783;}.aa,.d,.t{stroke:#fff;}.e,.f{fill:#384783;}.e{opacity:0.44;}.aa,.g,.j,.m,.n,.z{fill:none;}.g{stroke:#53547f;stroke-miterlimit:10;stroke-width:5px;}.h,.m,.p,.q,.r,.s,.z{stroke:#100052;}.i{fill:#626f9b;}.j{stroke:#707070;stroke-width:10px;}.k{font-size:36px;}.k,.l{font-family:RedHatDisplay-Regular, Red Hat Display;}.l{font-size:37px;}.m{stroke-width:3.297px;}.n{stroke:#e7827e;stroke-width:7px;}.o{opacity:0.33;mix-blend-mode:multiply;isolation:isolate;fill:url(#b);}.p,.w{fill:#feca84;}.q,.y{fill:#685545;}.r,.s{fill:#2a7195;}.r{stroke-width:1.175px;}.s{stroke-width:1.222px;}.t,.v{fill:#12073c;}.u{fill:url(#c);}.x{fill:#100052;}</style><linearGradient id="a" x1="0.178" y1="0.52" x2="1.173" y2="0.52" gradientUnits="objectBoundingBox"><stop offset="0" stop-color="#2a7195"/><stop offset="1" stop-color="#99cbcf"/></linearGradient><linearGradient id="b" y1="0.5" x2="1" y2="0.5" gradientUnits="objectBoundingBox"><stop offset="0" stop-color="#6599b3"/><stop offset="1" stop-color="#45496b"/></linearGradient><linearGradient id="c" y1="0.5" x2="1" y2="0.5" gradientUnits="objectBoundingBox"><stop offset="0" stop-color="#b9bdab"/><stop offset="1" stop-color="#769cae"/></linearGradient></defs><g transform="translate(-449.685 -163.332)"><g transform="translate(449.685 221.304)"><path class="a" d="M1020.645,522.145c21.887-64.41,26.592-169.76-26.5-220.44-63.2-60.327-132.584-40.238-207.493-20.412-68.553,18.144-131-39.939-201.432-29.717-66.792,9.695-119.4,75.536-131.217,139.271-7.747,41.8-4.907,85.533,7.277,126.208,9.515,31.765,25.547,83.2,65.016,85.9,75.971,5.19,151.82-4.276,227.7-6.56,36.507-1.1,72.311.209,108.314,5.013,32.122,4.285,70.067,12.749,99.926-3.855C991.071,581.517,1010.231,552.792,1020.645,522.145Z" transform="translate(-449.685 -250.36)"/><g transform="translate(34.587 74.496)"><path class="b" d="M503.945,653.217H870l26.391-285.2-354.527.084Z" transform="translate(-503.945 -367.514)"/><g transform="translate(38.689)"><path class="c" d="M957.854,652.934H591.8l-27.157-285.7H921.769Z" transform="translate(-564.64 -367.231)"/><path class="b" d="M929.882,431.467H570.746l-6.106-64.236H921.769Z" transform="translate(-564.64 -367.231)"/><path class="c" d="M959.727,697.071H597.219L591.192,636.9l361.686,1.247Z" transform="translate(-574.267 -465.006)"/><path class="c" d="M939.34,514.814l-359.96,1.848L573.6,461.537H932.611Z" transform="translate(-567.891 -401.424)"/><g transform="translate(106.391 115.238)"><path class="d" d="M781.79,605.153l-44.307-.482-5.936-56.225,45.164-.429Z" transform="translate(-731.547 -548.018)"/></g><g transform="translate(53.62 59.787)"><path class="d" d="M699,518.161l-44.307-.482-5.936-56.225,45.164-.429Z" transform="translate(-648.76 -461.025)"/></g><g transform="translate(67.612 173.411)"><path class="d" d="M720.953,696.416l-44.307-.482-5.936-56.225,45.164-.429Z" transform="translate(-670.711 -639.28)"/></g><g transform="translate(198.66 174.849)"><path class="d" d="M926.544,698.672l-44.307-.482L876.3,641.966l45.164-.429Z" transform="translate(-876.302 -641.537)"/></g><g transform="translate(241.856 174.849)"><path class="d" d="M994.31,698.672,950,698.191l-5.936-56.225,45.164-.429Z" transform="translate(-944.068 -641.537)"/></g><g transform="translate(229.209 59.787)"><path class="d" d="M974.469,518.161l-44.307-.482-5.936-56.225,45.164-.429Z" transform="translate(-924.227 -461.025)"/></g><g transform="translate(184.91 59.787)"><path class="d" d="M903.244,518.161l-42.782-.482-5.731-56.225,43.61-.429Z" transform="translate(-854.731 -461.025)"/></g><g transform="translate(24.242 231.418)"><path class="d" d="M652.913,782.245l-44.307-.438-5.936-51.133,45.164-.39Z" transform="translate(-602.671 -730.284)"/></g><line class="c" x2="23.392" y2="225.59" transform="translate(53.61 60.113)"/><line class="c" x2="23.392" y2="225.59" transform="translate(100.63 60.113)"/><line class="c" x2="23.392" y2="225.59" transform="translate(145.839 60.113)"/><line class="c" x2="23.392" y2="225.59" transform="translate(184.91 60.113)"/><line class="c" x2="23.392" y2="225.59" transform="translate(230.938 60.113)"/><line class="c" x2="23.392" y2="225.59" transform="translate(273.621 60.113)"/><line class="c" x2="23.392" y2="225.59" transform="translate(316.043 60.113)"/></g><path class="e" d="M1136.632,745.412c-4.954,7.57-14.489,16.128-22.816,23.809-15.487,14.283-30.1,19.081-39.681,20.832,0,0,11.9-14.881,11.9-35.713,0-.039,0-.029,0,0C1086.124,756.168,1115.8,757.316,1136.632,745.412Z" transform="translate(-710.682 -504.351)"/><path class="f" d="M1138.324,745.412a127.106,127.106,0,0,1-19.84,23.809C1103,783.5,1088.387,788.3,1078.8,790.053c0,0,11.9-14.881,11.9-35.713,0-.039,0-.029,0,0C1090.792,756.168,1117.492,757.316,1138.324,745.412Z" transform="translate(-712.375 -504.351)"/></g></g><g transform="translate(542.767 268.889)"><path class="g" d="M595.714,354.334a34.143,34.143,0,1,1,51.141,34.237" transform="translate(-595.714 -325.013)"/><path class="g" d="M678.252,354.334a34.143,34.143,0,1,1,51.141,34.237" transform="translate(-625.64 -325.013)"/><path class="g" d="M760.888,354.334a34.143,34.143,0,1,1,51.141,34.237" transform="translate(-655.602 -325.013)"/><path class="g" d="M861.859,354.334A34.143,34.143,0,1,1,913,388.57" transform="translate(-692.212 -325.013)"/><path class="g" d="M927.573,354.334a34.143,34.143,0,1,1,51.141,34.237" transform="translate(-716.038 -325.013)"/><path class="g" d="M1007.159,354.334A34.143,34.143,0,1,1,1058.3,388.57" transform="translate(-744.894 -325.013)"/></g><g transform="translate(841.883 170.222)"><g transform="translate(0 66.262)"><path class="h" d="M1212.482,456.372l-111.067-1.109-36.442,12.072,18.289-23.491-12.073-169.668,146.251,22.788Z" transform="translate(-1064.972 -274.175)"/><line class="h" x2="96.983" y2="12.847" transform="translate(40.587 54.452)"/><line class="h" x2="96.36" y2="12.031" transform="translate(41.034 63.688)"/><line class="h" x2="94.539" y2="9.696" transform="translate(42.339 98.195)"/><line class="h" x2="93.362" y2="8.23" transform="translate(43.182 115.617)"/><line class="h" x2="93.947" y2="8.954" transform="translate(42.763 106.962)"/><path class="i" d="M1110.058,362.073a3.674,3.674,0,0,1-4.19,4.085,5.758,5.758,0,0,1-4.762-5.237,3.676,3.676,0,0,1,4.222-4.112A5.76,5.76,0,0,1,1110.058,362.073Z" transform="translate(-1078.07 -304.123)"/><path class="i" d="M1113.309,431.005a3.649,3.649,0,0,1-4.081,3.991,5.325,5.325,0,0,1-4.624-4.852,3.65,3.65,0,0,1,4.111-4.017A5.327,5.327,0,0,1,1113.309,431.005Z" transform="translate(-1079.339 -329.261)"/></g><path class="h" d="M1321.624,255.411l-134.148-22.777-20.628,5.012,11.684-17.922-1.085-49.5,148.281,32.868Z" transform="translate(-1101.91 -170.222)"/><path class="h" d="M1376.912,480.463l-92.544-2.741-20.031,6.762,9.286-17.107,1.621-74.8,109.521,11.634Z" transform="translate(-1137.257 -250.843)"/><line class="h" x2="122.504" y2="25.181" transform="translate(90.059 21.832)"/><line class="h" x2="121.022" y2="22.821" transform="translate(90.304 41.509)"/><line class="h" x2="84.387" y2="8.043" transform="translate(150.96 155.062)"/><line class="h" x2="81.853" y2="4.386" transform="translate(149.523 200.668)"/><line class="h" x2="81.445" y2="3.821" transform="translate(149.293 207.971)"/><path class="h" d="M1308,446.777a3.46,3.46,0,0,0,1.574-3.681,3.312,3.312,0,0,0-2.916-2.665c-1.592-.055-2.921,1.283-3.754,2.761a12.29,12.29,0,0,0-1.542,5.762c-.028,1.495.2,3.056-.3,4.425s-2.162,2.344-3.242,1.407a16.172,16.172,0,0,1,7.68-3.67,4.149,4.149,0,0,1-.655,3,29.223,29.223,0,0,1,4.646-4.659,1.183,1.183,0,0,1,.761-.347c1.046.068.529,2.039,1.16,2.972a1.524,1.524,0,0,0,2.074.174,9.607,9.607,0,0,1,1.933-1.256,3.659,3.659,0,0,1,2.651.527c1.724.867,3.35,1.934,4.992,2.944a6.4,6.4,0,0,0,2.151.975,6.872,6.872,0,0,0,2.334-.149,33.1,33.1,0,0,1,8.8-.295c1.549.156,2.565-1.652,4.006-1.017,1.088.479,1.476,2.445,2.641,2.382a1.882,1.882,0,0,0,.909-.4,32.1,32.1,0,0,0,6.806-6.342c1.21.458,1.421,3.257,2.625,3.709l1.011.38c4.222,1.584,7.235,4.312,10.866-.065,1.384-1.669,2.817-3.622,4.763-3.937a15.049,15.049,0,0,1-3.344,12.463c-.35-.672.264-1.72.946-1.613,3.634.573,8.781-2.852,12.4-2.564" transform="translate(-1149.398 -268.193)"/></g><g transform="translate(1054.447 170.222)"><path class="j" d="M1398.444,189.945l8.694,14.7,55.084-34.423" transform="translate(-1398.444 -170.222)"/></g><text class="k" transform="translate(604.601 455.259) rotate(-4.601)"><tspan x="0" y="0">1</tspan></text><text class="k" transform="translate(692.126 455.259) rotate(-4.601)"><tspan x="0" y="0">3</tspan></text><text class="l" transform="matrix(1, -0.018, 0.018, 1, 649.511, 455.662)"><tspan x="0" y="0">2</tspan></text><g transform="translate(636.118 474.45)"><ellipse class="m" cx="22.562" cy="17.783" rx="22.562" ry="17.783" transform="translate(0 2.462)"/><path class="n" d="M756.5,661.219l9.216,14.009L805.9,647.5" transform="translate(-747.362 -647.5)"/></g><path class="o" d="M940.67,469.81c2.042-4.741-3.217-9.549-8.221-10.811s-10.711-1.06-14.663-4.379c-1.606-1.349-2.754-3.169-4.311-4.574a11.764,11.764,0,0,0-15.739.53c-1.413,1.46-2.409,3.273-3.746,4.8-3.8,4.348-10.041,6.108-13.462,10.759s-3.133,11.266-.759,16.545,6.508,9.531,10.558,13.666l6.295,6.425a3.482,3.482,0,0,0,1.6,1.107c2.436.554,4.031-4.019,6.356-3.106,1.66,1.681.957,4.688-.762,6.31s-4.1,2.271-6.33,3.06a42.091,42.091,0,0,0-27.223,35.116c-.8,8.991,1.367,17.944,3.247,26.772a287.307,287.307,0,0,1,6.087,41.825c.471,7.529.543,15.086,1.3,22.593,2.244,22.383,9.879,45.879,24.128,63.538,3.371,4.178,7.873,8.971,12.835,11.286,5.728,2.671,14.019,1.4,20.226,1.327,15.976-.2,31.914-1.455,47.833-2.724,19.831-1.581,39.69-3.19,59.6-3.295,19.053-.1,37.141,2.947,55.955,4.521a653.808,653.808,0,0,0,117.476-.769c3.615-.35,10.915.465,12.01-3.212-21.764-3.427-44.156-.912-66.11-5.349-9.541-1.928-18.917-4.614-28.458-6.544-32.38-6.548-65.874-4.248-98.7-7.972a59.7,59.7,0,0,1-12.465-2.422c-5.034-1.7-9.575-4.571-14.154-7.268a200.218,200.218,0,0,0-39.811-18.238c-6-1.941-14.511-2.227-19.946-5.091-5.476-2.886-9.057-11.985-10.649-17.516-2.242-7.785-2.477-16-2.195-24.1a196.675,196.675,0,0,1,6.41-43.38c1.711-6.469,3.761-12.893,4.479-19.545a50,50,0,0,0-4.988-27.607c-2.937-5.853-7.142-11.5-7.229-18.049-.076-5.678,2.982-10.845,4.964-16.166S944.69,473.82,940.67,469.81Z" transform="translate(-152.43 -100.455)"/><g transform="translate(724.439 328.053)"><path class="p" d="M1051.309,659.678q-5.921-.682-11.827-1.49a21.554,21.554,0,0,1-13.03-6.409c-8.826-9.568-15.925-20.57-22.978-31.512-1.371-2.128-2.8-4.436-2.7-6.965a12.973,12.973,0,0,1-1.989-6.14c-.491-10.467-2.119-22.843,4.119-31.974.757-1.107,2.363-3.847,4.027-3.557,1.6.28,2.2,3.143,3,4.313,1.611,2.364,3.235,4.635,4.611,7.154,2.515,4.6,4.641,9.637,7.116,14.117,4.467,8.086,8.241,16.314,12.019,24.768,1.582,3.541,3.253,6.262,6.933,7.58a77.955,77.955,0,0,1,12.591,6.1,122.464,122.464,0,0,1,14.264,9.651c2.086,1.636,5.712,3.354,6.88,5.861,2.037,4.377-4.943,8.441-8.292,9.079C1061.194,661.18,1056.157,660.237,1051.309,659.678Z" transform="translate(-923.329 -473.587)"/><path class="q" d="M1358.872,814.445c2.163,5.734-3.659,14.308-9.507,14.9-7.026.713-17.185-2.946-24.044-4.6-17.534-4.22-34.449-10.592-51.3-16.926-6.788-2.551-12.231-8.675-6.8-15.747,4.169-5.43,14.53-5.249,20.594-4.707,15.269,1.364,28.276,5.24,42.176,11.423,5.917,2.632,11.685,5.527,17.4,8.532C1350.977,809.209,1357.3,810.276,1358.872,814.445Z" transform="translate(-1020.054 -551.722)"/><path class="r" d="M1436.136,799.056a37.474,37.474,0,0,0,2.054-4.094c2.5-5.9,3.465-13.077-5.962-12.712-11.472.445-14.833,15.482-22.118,21.154-2.684,2.09-6.322,2.752-8.814,5.068-2.41,2.239-2.741,5.094-3.844,7.984-.908,2.379-2.484,4.745-3.282,7.209a3.986,3.986,0,0,0-.136,2.824c.493,1.093,1.76,1.566,2.9,1.93a53.88,53.88,0,0,0,21.35,1.9,2.22,2.22,0,0,0,.932-.243c1.367-.834,2.58-3.946,3.394-5.256q2.1-3.384,4.092-6.839C1430.25,811.825,1432.635,805.1,1436.136,799.056Z" transform="translate(-1066.762 -549.955)"/><path class="q" d="M1372.119,798.26c2.163,5.734-3.659,14.309-9.507,14.9-7.026.713-17.185-2.946-24.044-4.6-17.534-4.22-34.449-10.592-51.3-16.926-6.788-2.551-12.231-8.675-6.8-15.748,4.169-5.43,14.53-5.249,20.594-4.707,15.269,1.364,28.276,5.241,42.176,11.423,5.917,2.631,11.684,5.526,17.4,8.532C1364.224,793.024,1370.544,794.091,1372.119,798.26Z" transform="translate(-1024.856 -545.854)"/><path class="s" d="M1446.611,801.39c4.208-3.521,7.735-7.473,9.439-12.293,1.565-4.424-1.374-10.142-6.246-10.662-3.889-.414-9.072,3.363-12.107,5.374-3.8,2.52-7.412,5.478-11.544,7.457-4.106,1.968-8.242,1.037-12.091,2.334-3.4,1.147-3.668,4.713-5.359,7.337-2.77,4.3-7.052,8.133-10.406,12-2.344,2.7,21.577,10.069,23,10.44a1.345,1.345,0,0,0,.708.053,1.359,1.359,0,0,0,.577-.439c3.757-4.136,7.381-9.363,11.707-12.886C1438.133,806.977,1442.742,804.627,1446.611,801.39Z" transform="translate(-1068.325 -548.565)"/><path class="t" d="M1174.76,783.771c8.366,1.779,16.77,3.434,25.108,5.339,7.528,1.72,11.181,2.884,16.057-4.689,10.141-15.748-3.343-23.477-16.2-28.284-17.738-6.631-35-14.949-52.387-22.447-13.213-5.7-26.663-13.021-40.436-17.1-11.266-3.336-22.83-8.093-34.818-8.2-15.559-.136-30.705,4.474-45.891,7.867-17.922,4-36.179,6.4-54,10.868-6.447,1.617-12.942,3.043-19.269,5.1-7.511,2.446-10.3,5.982-15.406,11.956a35.391,35.391,0,0,0-4.139,5.541,24.343,24.343,0,0,0-2.425,6.767c-3.49,16.061,4.4,27.105,19.106,33.353a49.888,49.888,0,0,0,29.488,3.326c8.553-1.8,16.56-6.18,24.714-9.218,18.482-6.887,38.082-11.112,57.116-16.213,8.179-2.192,17.124-4.031,25.614-4.058,8.737-.028,18.34,4.2,26.883,6.351C1134.051,775.116,1154.409,779.444,1174.76,783.771Z" transform="translate(-898.637 -523.179)"/><g transform="translate(100.224 123.015)"><path class="u" d="M1040.407,721.673H1089.7l2.956-10.411-54.7,3.477Z" transform="translate(-1037.956 -647.237)"/><path class="u" d="M1037.956,710.545l58.824-10.78s58.007-.166,57.19,0-55.283,10.78-55.283,10.78Z" transform="translate(-1037.956 -643.041)"/><path class="u" d="M1212.136,610.833c-.817-.3-61.819,3.933-62.636,3.025-.252-.28-2.38,6.441-5.2,15.857a19.04,19.04,0,0,1,17.015.043c14.177,7.159,21.428,28.427,38.32,30.443C1204.542,641.885,1212.71,611.046,1212.136,610.833Z" transform="translate(-1076.514 -610.818)"/><path class="u" d="M1152.19,639.378a19.04,19.04,0,0,0-17.015-.043c-6.3,21.038-16.043,55.539-16.043,55.539l67.81-11.8s1.493-5.507,3.568-13.255C1173.618,667.8,1166.367,646.536,1152.19,639.378Z" transform="translate(-1067.388 -620.437)"/></g><path class="v" d="M1157.435,795.256q17.343,3.688,34.686,7.376c8.612,1.831,17.282-.106,19.616-10.232,3.866-16.776-21.513-21.263-32.8-26.129l-48.931-21.1c-13.214-5.7-26.663-13.021-40.436-17.1-11.266-3.337-22.831-8.093-34.817-8.2-15.56-.136-30.705,4.474-45.891,7.866-17.923,4-36.179,6.4-54,10.868-6.446,1.618-12.942,3.044-19.268,5.1-11.442,3.727-21.449,9.733-20.966,23.3.259,7.291,3.26,14.17,6.26,20.821,10.424,23.115,37.6,18.58,56.929,11.945,22.382-7.694,43.24-17.611,65.351-25.763,7.125-2.627,14.8-6.857,22.221-6.421a9.159,9.159,0,0,1,2.65.686c10.22,3.849,17.87,10.559,28.508,13.238C1116.726,786.6,1137.084,790.929,1157.435,795.256Z" transform="translate(-893.011 -527.343)"/><path class="w" d="M925.1,545.893c2.965-.112,5.973.033,8.872-.015,2.467-.041,4.936-.082,7.4.078a45.556,45.556,0,0,1,8.976,1.494c3.155.857,5.326,2.441,8,4.3a32.128,32.128,0,0,1,4.2,3.274,25.294,25.294,0,0,1,6.906,12.349c1.011,5.182,1.358,10.56,3.226,15.54a64.264,64.264,0,0,1,3.2,9.552c.954,4.67.662,11.612-1.3,16.022-1.817,4.074-4.644,6.843-5.507,11.548a31.528,31.528,0,0,0-.267,7.872,67.081,67.081,0,0,0,4.224,19.155c2.349,6.175,6.476,11.761,6.792,18.567.409,8.795-12.321,11.222-18.891,14.412L934.02,693.1c-6.678,3.243-21.027,12.588-28.709,8.742-2.235-1.119-3.521-3.495-4.512-5.789-3.49-8.083-5.036-16.847-6.555-25.518-.591-3.378-.4-6.874-.673-10.32-.64-8.155-.868-16.337-.941-24.515-.086-9.626.239-19.71-.813-29.267-1-9.1-2.219-19.032-4.531-27.9-1.483-5.685.259-11.748,3.271-16.667,2.867-4.684,9.523-6.811,14.243-9.38a64.689,64.689,0,0,1,13.547-5.66A29.311,29.311,0,0,1,925.1,545.893Z" transform="translate(-882.908 -464.243)"/><g transform="translate(6.306 0)"><path class="q" d="M965.781,568.152a10.545,10.545,0,0,0,5.1-11.919c-1.309-5.827-7.348-9.538-12.724-11.02a34.6,34.6,0,0,0-10.662-.848c-6.341.268-18.525,1-20.122,8.827a11.057,11.057,0,0,0,1.962,8.365,19,19,0,0,0,9.712,6.844c8.213,2.8,18.6,4.412,26.455-.089Z" transform="translate(-903.878 -463.685)"/><path class="q" d="M938.739,535.842a89.052,89.052,0,0,0,2.425-12.035c.516-4.044-.337-8.512-.37-12.595a11.34,11.34,0,0,1,.995-5.66,4.644,4.644,0,0,1,3.7-2.4,13.868,13.868,0,0,0,4.045-.713,19.255,19.255,0,0,1,7.726-.6c4.171.439,10.32,2.942,11.708,7.4,1.075,3.458.062,7.338-1.012,10.647-1.332,4.1-2.7,7.817-2.991,12.23a3.43,3.43,0,0,0,.793,2.955" transform="translate(-908.064 -448.238)"/><path class="x" d="M900.44,463.966a5.436,5.436,0,0,0-.4,6.568c-3.021-.426-6.9-.418-8.17,2.355-1.056,2.3.506,4.892,2,6.935-1.74.139-3.013,1.87-3.216,3.6a10.5,10.5,0,0,0,1.065,5.066c1.068,2.636,3.221,5.7,5.97,4.976a11.939,11.939,0,0,0,22.4-.352,15.043,15.043,0,0,0,8.791-7.2,9.789,9.789,0,0,0-1.128-10.609c-2.648-2.984-6.866-2.668-9.132-6.123-1.411-2.153-1.334-4.747-3.375-6.6-2.72-2.463-7.39-2.558-8.632,1.48A4.393,4.393,0,0,0,900.44,463.966Z" transform="translate(-890.616 -433.432)"/><path class="q" d="M976.291,487.808c-1.333,5.372-2.3,13.749-8.014,16.4-2.677,1.242-8.149.027-10.947-.61a30.824,30.824,0,0,1-10.059-4.294,28.192,28.192,0,0,1-10.337-11.852,30.664,30.664,0,0,1-2.686-13.47,27.125,27.125,0,0,1,1.713-8.461c2.981-8.6,8.573-16.749,16.843-20.567,7.65-3.532,14.709-1.5,19.174,5.577C979.123,461.872,979.412,475.238,976.291,487.808Z" transform="translate(-906.435 -427.048)"/><path class="x" d="M941.015,456.446a7.807,7.807,0,0,1-3.454,4.371c-1.2.785-2.563,2.114-4.009,2.3-1.534.2-4.727-1.105-5.778.493a6.65,6.65,0,0,0-.588,3.426c.054,1.613.558,3.184.639,4.8.25,5.006-6.708,4.153-7.753.26a3.3,3.3,0,0,0-.638-1.638,2.854,2.854,0,0,0-1.223-.527c-4.217-1.23-5.926-7.4-2.944-10.624-2.562-.882-3.167-4.946-.974-6.537a8.481,8.481,0,0,1,2.888-13.944c-2-.081-3.175-2.541-2.708-4.484s2-3.415,3.471-4.77a3.048,3.048,0,0,1,1.543-.934c.6-.085,1.318.371,1.251.978a9.2,9.2,0,0,1,8.666-7.485c1.889-.028,4.043.819,4.558,2.637a1.347,1.347,0,1,1,2.315-1.33,10.637,10.637,0,0,1,13.259-4.841c2.017.874,3.908,3.007,3.15,5.071a8.441,8.441,0,0,1,13.519,3.753c2.948-1.544,6.88.229,8.373,3.2s.92,6.656-.688,9.57a5.284,5.284,0,0,1,5.193,4.426,7.132,7.132,0,0,1-2.789,6.554,11.931,11.931,0,0,1-2.559,1.638c.55,2.931.2,8.428-3.437,9.4a22.173,22.173,0,0,0-1.786-3.795,14.522,14.522,0,0,1-1.7-3.026,9.355,9.355,0,0,1,.419-7.759c-4.111.435-7.914-4.055-6.807-8.039a5.829,5.829,0,0,1-5.929-.193c-1.531-1-3.259-3.608-2.319-5.46a7.025,7.025,0,0,1,.895,2.9,5.321,5.321,0,0,1-.743,3.495,6.154,6.154,0,0,1-1.7,1.624c-1.683,1.149-2.579,1.021-2.6,3.2C947.993,449.846,946.766,455.883,941.015,456.446Z" transform="translate(-898.288 -417.829)"/><path class="q" d="M936.028,488.333c-1.936-2.56-6.328-4.225-8.591-1.1-1.546,2.134-1.1,5.609-.2,7.907,1.268,3.25,4.483,5.268,7.214,2.2" transform="translate(-903.597 -442.377)"/><path class="y" d="M955.174,531.488a10.864,10.864,0,0,1-9.886-3.978c-2.045-2.656-1.7-8.152-.825-11.325,1.014-3.658,3.376-4.679,6.359-4.3,4.815.618,9.049,4.883,9.842,10.84.317,2.38-.067,5.031-1.508,6.724A6.346,6.346,0,0,1,955.174,531.488Z" transform="translate(-909.888 -451.906)"/></g><path class="z" d="M1005.869,579.356l7.372,12.582c2.349,4.008,4.821,6.244,5.911,10.995a24.346,24.346,0,0,1-2.578,17.27c-3.049,5.43-6.794,9.541-5.308,16.309" transform="translate(-926.098 -476.395)"/><path class="w" d="M932.651,651.023q-6.179-27.806-14.294-55.136c-3.412-11.49-4.618-26.4-18.266-30.045a11.692,11.692,0,0,0-8.276.539c-3.38,1.73-6.735,4.6-8.264,8.1-2.506,5.725-3.123,12.135-2.71,18.371.5,7.532,2.367,15.548,3.695,23.06,1.767,10,5.124,19.6,7.1,29.444a132.086,132.086,0,0,0,10.01,30.306" transform="translate(-880.723 -471.314)"/><g transform="translate(91.117 178.126)"><path class="q" d="M1064.284,698.618c2.479-.11,4.946-.372,7.412-.308a46.256,46.256,0,0,1,8.039.886,23.3,23.3,0,0,1,12.726,7.926c.233.286.47.674.3,1s-.623.34-.972.248a2.139,2.139,0,0,0-1.057-.167" transform="translate(-1038.395 -697.647)"/><path class="q" d="M1056.635,697.735a194.477,194.477,0,0,1,19.487,2.641,18.4,18.4,0,0,1,3.573.933,14.193,14.193,0,0,1,4.93,3.209,42.04,42.04,0,0,0,3.176,3.1c.718.632,2.819,1.727,1.868,2.846-.722.849-2.558.915-3.55.746a8.82,8.82,0,0,1-3.64-1.7c-1.774-1.3-3.4-2.951-5.519-3.552a29.218,29.218,0,0,0-3.212-.5,10.989,10.989,0,0,1-3.58-1.265c-.214-.12-.394-.042-.639-.038l-3.044.047" transform="translate(-1035.621 -697.442)"/><path class="q" d="M1069.669,706.815c2.972.377,6.287-.34,9.127.927,1.678.749,2.647,2.129,3.763,3.52a19.109,19.109,0,0,1,2.664,3.955.889.889,0,0,1,.075.8.785.785,0,0,1-.438.3c-2.615.908-4.685-2.229-6.678-3.346a7.221,7.221,0,0,0-2.749-.745,28.223,28.223,0,0,0-7.18.083" transform="translate(-1039.834 -700.735)"/><path class="q" d="M1054.952,708.565a10.011,10.011,0,0,1-3,.278,21.25,21.25,0,0,0-3.735.956,47.888,47.888,0,0,1-17.571,1.369,10.9,10.9,0,0,1-4.765-1.365c-1.121-.717-2.353-2.2-2.2-3.632a9.657,9.657,0,0,1,1.683-3.584,11.328,11.328,0,0,1,2.558-2.677,13.584,13.584,0,0,1,6.06-2.356,35.158,35.158,0,0,1,6.553-.228q2.3.078,4.595.215c2.268.136,4.526.474,6.776.668a7.9,7.9,0,0,1,1.871.5" transform="translate(-1023.669 -697.276)"/></g><path class="p" d="M914.7,609.595c.337,3.78,9.811,42.735,7.358,43.032,15.037-1.824,29.194.773,43.855,3.8,6.516,1.345,12.984,3.072,19.464,4.592a4.783,4.783,0,0,1,2.951,1.495,4.415,4.415,0,0,1,.642,1.922c.657,4.169-1.323,8.226-2.355,12.282a3.893,3.893,0,0,1-3.911,3.635,182.838,182.838,0,0,1-53.816,1.938c-8.738-.957-17.713-2.471-25.111-7.22-6.282-4.034-8.352-13.979-10.683-20.531-2.306-6.485-4.749-12.571-6.379-19.255-1.4-5.76-3.552-10.869-4.331-16.806a94.228,94.228,0,0,1-.483-20.019" transform="translate(-881.034 -483.321)"/><path class="z" d="M974.589,651.31a35.49,35.49,0,0,1-25.107,8.851" transform="translate(-905.653 -502.484)"/><path class="v" d="M1261.578,766.566c10.674,4.582,21.549,8.7,31.679,14.443,9,5.1,17.593,12.047,27.84,14.507,2.9.7,6.55.748,8.225-1.726,2.613-3.86,5.465-7.331,7.909-11.508,3.978-6.8,5.607-8.921-2.3-12.152-13.131-5.363-26.539-10.145-39.918-14.846q-39.656-13.933-80.243-25" transform="translate(-1001.839 -531.118)"/><path class="v" d="M1300.132,791.522a79.139,79.139,0,0,0,23.539,7.876,1.541,1.541,0,0,0,1.954-.717c3.878-5.435,8.228-10.627,11.606-16.4,3.978-6.8,5.607-8.921-2.3-12.152-13.131-5.363-26.539-10.145-39.918-14.846q-39.656-13.933-80.243-25" transform="translate(-1001.839 -531.118)"/><path class="aa" d="M1310.886,788.648a49.212,49.212,0,0,1-6.006,8.737c-13.221-3.255-25.213-10.145-37.006-16.952C1249.29,769.706,1231.3,758,1213.519,746c-8.023-5.416-15.312-11.071-24.379-14.726-8.9-3.587-18.244-5.862-27.449-8.489" transform="translate(-982.595 -528.398)"/><path class="aa" d="M991.729,747.522a298.3,298.3,0,0,1,48.712-19.705c16.313-4.981,30.781-8.185,48.009-7.381" transform="translate(-920.971 -527.502)"/></g></g></svg>