<svg xmlns="http://www.w3.org/2000/svg" xmlns:xlink="http://www.w3.org/1999/xlink" width="636.003" height="488.842" viewBox="0 0 636.003 488.842"><defs><style>.a,.al,.am,.an,.l{fill:none;}.b{fill:url(#a);}.c{fill:url(#b);}.d{fill:url(#c);}.e{fill:url(#d);}.f{clip-path:url(#e);}.g{fill:url(#f);}.h{fill:url(#g);}.i,.y{fill:#feca84;}.j{fill:#685545;}.ab,.aj,.al,.am,.j,.l,.r,.w,.x,.y{stroke:#100052;}.ab,.aj,.an,.j,.l,.r,.w,.x,.y{stroke-linecap:round;stroke-linejoin:round;}.ap,.k{fill:#100052;}.m{clip-path:url(#h);}.n{fill:url(#i);}.o{fill:url(#j);}.p{fill:url(#k);}.q{fill:#ffefd1;}.ag,.r{fill:#fff;}.s{fill:url(#l);}.t{fill:url(#m);}.u{fill:url(#n);}.v{fill:url(#o);}.w{fill:#f6aacb;}.w,.x{stroke-width:0.841px;}.x{fill:#c15f8e;}.z{fill:url(#p);}.aa{fill:url(#q);}.ab{fill:#4fa5ad;}.ab,.aj{stroke-width:1.498px;}.ac{fill:#33888c;}.ad{fill:#d4f0f5;}.ae{opacity:0.4;}.af{clip-path:url(#s);}.ah{fill:#a6dce6;}.ai{opacity:0.54;}.aj{fill:#bedee1;}.ak{fill:#2ea8bc;opacity:0.28;}.al,.am{stroke-miterlimit:10;}.am{stroke-width:1.08px;}.an{stroke:#f37968;stroke-width:5px;}.ao{fill:url(#y);}.ap{font-size:9px;font-family:Source Sans Pro, Source Sans Pro;}</style><linearGradient id="a" x1="0.713" y1="-0.573" x2="0.336" y2="1.476" gradientUnits="objectBoundingBox"><stop offset="0" stop-color="#ff9077"/><stop offset="1" stop-color="#e9645a"/></linearGradient><linearGradient id="b" x1="0.516" y1="0.293" x2="0.373" y2="1.104" xlink:href="#a"/><linearGradient id="c" x1="0.394" y1="0.026" x2="0.814" y2="1.383" gradientUnits="objectBoundingBox"><stop offset="0" stop-color="#2a7195"/><stop offset="1" stop-color="#060c39"/></linearGradient><linearGradient id="d" x1="0.522" y1="0.69" x2="0.277" y2="-0.955" xlink:href="#c"/><clipPath id="e"><path class="a" d="M638.75,411.564a41.689,41.689,0,0,0-5.485-7.073c-10-10.209-24.628-15.1-38.415-17.366a148.211,148.211,0,0,0-57.205,1.928c-19.173,4.435-31.284,12.822-46.594,24.543-20.657,15.818-34.239,30.046-39.555,56.168-3.412,16.766-7.453,34.812-15.6,49.9-6.874,12.727-18.555,21.486-24.8,34.9-15.942,34.242-15.582,83.2,5.646,117.09,23.063,36.821,66.183,48.548,105.875,50.522,42.988,2.138,81.955-7.165,87.064-8.45,24.728-6.218,64.023-16.7,93.449-53.641,31.752-39.857,31.365-84.6,31.069-97.172-.249-10.6-1.853-78.674-40.816-100.059-10.307-5.657-22.749-7.784-36.587-21.446C647.943,432.678,644.791,421.178,638.75,411.564Z" transform="translate(-399.884 -385.213)"/></clipPath><linearGradient id="f" x1="0.188" y1="0.617" x2="1.013" y2="0.397" gradientUnits="objectBoundingBox"><stop offset="0" stop-color="#4fa5ad"/><stop offset="1" stop-color="#99cbcf"/></linearGradient><linearGradient id="g" x1="0.488" y1="-0.033" x2="0.442" y2="0.621" xlink:href="#f"/><clipPath id="h"><path class="a" d="M856.249,275.2c-1.754-5.64-10.885-35,4.742-60.857,22.813-37.742,77.576-33.573,87.73-32.8,7.873.6,18.739,1.529,31.219,7.508,31.581,15.131,42,47.506,43.865,53.745,2.348,7.861,4.141,13.869,3.557,22.129-2.083,29.457-31.975,53.136-58.881,60.067-13.8,3.554-25.468,2.359-44.655.4-17.6-1.8-26.85-2.749-37.134-8.657C865.352,304.468,858.236,281.586,856.249,275.2Z" transform="translate(-852.006 -181.018)"/></clipPath><linearGradient id="i" x1="0.354" y1="0.71" x2="1.892" y2="-1.144" gradientUnits="objectBoundingBox"><stop offset="0" stop-color="#fff"/><stop offset="1" stop-color="#bbdbf9"/></linearGradient><linearGradient id="j" x1="0.462" y1="1.292" x2="0.509" y2="0.208" xlink:href="#i"/><linearGradient id="k" x1="0" y1="0.5" x2="1" y2="0.5" xlink:href="#f"/><linearGradient id="l" x1="0.325" y1="0.472" x2="3.218" y2="1.484" xlink:href="#i"/><linearGradient id="m" x1="-0.143" y1="0.152" x2="0.65" y2="0.547" xlink:href="#i"/><linearGradient id="n" x1="0.002" y1="1.221" x2="2.354" y2="-1.69" xlink:href="#i"/><linearGradient id="o" x1="-0.177" y1="1.067" x2="0.481" y2="0.456" xlink:href="#i"/><linearGradient id="p" x1="0.206" y1="-0.291" x2="4.232" y2="14.188" xlink:href="#i"/><linearGradient id="q" x1="0" y1="0.5" x2="1" y2="0.5" xlink:href="#i"/><clipPath id="s"><rect class="a" width="14.982" height="12.881" transform="translate(12.881 0) rotate(90)"/></clipPath><linearGradient id="y" x1="0.002" y1="0.5" x2="1.002" y2="0.5" xlink:href="#a"/></defs><g transform="translate(-399.884 -165.881)"><g transform="translate(399.884 165.881)"><g transform="translate(184.749 51.096)"><path class="b" d="M701.841,266.215c5.032-1.562,7.981-7.46,13.186-8.155,6.593,5.553,11.451,15.789,21.515,14.4a4.15,4.15,0,0,0,2.6-2.255,35.147,35.147,0,0,0,1.8-3.321c-2.4-12.252-12.655-21.461-24.947-21.461a24.96,24.96,0,0,0-20.036,10.3c.235,1.714.523,3.421.851,5.111C697.156,263.092,697.677,267.256,701.841,266.215Z" transform="translate(-690.519 -245.424)"/><path class="c" d="M736.116,275.941a4.15,4.15,0,0,1-2.6,2.255c-10.063,1.388-14.921-8.849-21.515-14.4-5.205.694-8.155,6.593-13.186,8.155-4.164,1.041-4.685-3.123-5.032-5.379-.327-1.689-.615-3.4-.851-5.111a27.827,27.827,0,0,0-5.44,16.644c0,14.882,11.406,26.946,25.476,26.946s25.476-12.064,25.476-26.946a28.569,28.569,0,0,0-.529-5.484A35.151,35.151,0,0,1,736.116,275.941Z" transform="translate(-687.491 -251.159)"/></g><g transform="translate(71.399 65.994)"><path class="d" d="M839.526,529.825c-24.47,37.287-48.939,68.748-79.235,100.209-19.809,18.643-46.609,30.3-73.409,31.461C651.926,662.66,616.969,654.5,589,630.033,563.564,607.953,540.5,583.3,522.412,556c-15.59,34.787-15.272,80.3,1.652,116.147,26.162,55.414,85.019,72.973,111.272,80.8,124.493,37.14,313.239-15.629,349.714-144.389,15.091-53.273-.272-104.053-14.423-135.5C920.071,474.625,868.725,483.29,839.526,529.825Z" transform="translate(-511.035 -341.731)"/><path class="e" d="M811.23,269.185c-56.145-4.568-119.619,18.632-153.662,62.259-23.161,29.68-22.684,55.98-59.61,88.753-26.8,23.784-36.214,18.067-52.987,37.091a101.066,101.066,0,0,0-16.224,25.594c18.088,27.3,41.151,51.957,66.591,74.038,27.965,24.47,62.922,32.626,97.879,31.461,26.8-1.165,53.6-12.818,73.409-31.461,30.3-31.461,54.765-62.922,79.235-100.209,29.2-46.534,80.545-55.2,131.1-56.77a244.181,244.181,0,0,0-16.045-30.081C951.328,354.681,901.977,276.568,811.23,269.185Z" transform="translate(-517.369 -268.617)"/></g><g transform="translate(0 112.772)"><g transform="translate(0 28.119)"><g class="f"><g transform="translate(0.825 -26.017)"><path class="g" d="M460.23,637.078c37.344-57.65,81.9-130.9,13.968-186.472a301.858,301.858,0,0,0-30.778-22.036c-13.129,33.756,17.276,56.067,2.065,98.048-8.585,23.693-20.443,22.58-32.455,46.417-17.2,34.139-16.419,83.134,7.117,117.217,25.571,37.029,72.923,49.107,116.443,51.4a734.064,734.064,0,0,1-66.212-48.387C444,672.179,449.965,653.775,460.23,637.078Z" transform="translate(-401.169 -374.702)"/><path class="h" d="M757.466,650.964c34.483-39.631,33.7-84.4,33.28-96.989-.358-10.612-2.657-78.741-45.531-100.45-11.342-5.743-24.995-7.97-40.271-21.751-12.931-11.667-17.842-23.329-21.127-29.373-19.135-35.2-85.206-67.6-143.552-54.861-5.984,1.307-58.429,13.45-73.2,50.715-.044.109-.075.216-.118.324a301.859,301.859,0,0,1,30.778,22.036c67.933,55.572,23.376,128.822-13.968,186.472-10.266,16.7-16.231,35.1,10.149,56.184a734.055,734.055,0,0,0,66.212,48.387c47.132,2.481,89.767-6.517,95.356-7.762C682.524,697.871,725.509,687.692,757.466,650.964Z" transform="translate(-424.693 -344.712)"/></g><path class="i" d="M614.292,807.46a143.2,143.2,0,0,0,68.882-8.242c15.365-5.933,31.336-15.185,28.153-33.578a322.357,322.357,0,0,0-9.273-38.976c-3.444-11.308-8.867-21.63-9.039-33.475-.36-24.671,1.036-49.566,7.776-73.418,4.1-14.506,4.071-34.975-3.354-48.643-6.055-11.143-25.417-8.913-35.091-16.473-2.845-2.224-22.987,3.31-27.168,3.821-8.48,1.036-16.979,1.934-25.493,2.647-11.3.945-25.448-3.938-35.916,1.938-10.726,6.02-6.787,16.572-7.12,27.079a175.477,175.477,0,0,1-4.873,35.884c-1.383,5.686-3.058,11.34-3.535,17.177-.808,9.9,3.186,20.658,6.045,29.961,3.6,11.712,5.174,21.767,4.286,34.138a264.8,264.8,0,0,1-10.955,58.641c-2.044,6.663-4.208,14.425-.229,20.146,1.844,2.651,4.734,4.355,7.583,5.878A141.565,141.565,0,0,0,614.292,807.46Z" transform="translate(-455.417 -445.624)"/></g></g><g transform="translate(93.717)"><path class="j" d="M698.157,567.26c4.457,11.669-10.706,22.3-19.568,25.276a67.99,67.99,0,0,1-34.19,1.943,65.308,65.308,0,0,1-38.3-23.864c-2.059-2.67-1.381-8.369.425-11.132a6.068,6.068,0,0,1,2.147-1.872c4.184-2.41,9-2.488,13.611-3.273,6.138-1.047,11.329-6.232,17.632-7.977q1.213-.336,2.436-.621a59.149,59.149,0,0,1,21.08-1.074c12.048,1.572,22.238,13.143,32.515,20.232A5.36,5.36,0,0,1,698.157,567.26Z" transform="translate(-566.897 -413.945)"/><path class="j" d="M642.217,538.966c1.28-8.989,2.446-18.214,3-27.319.53-8.709-3.278-21.088,4.569-27.446a14.612,14.612,0,0,1,6.137-2.5c14.8-3.328,24.22-.114,35.4,10.061,2.449,2.23,5.016,4.783,5.4,8.072.341,2.887-1.084,5.644-2.209,8.325-4.661,11.1-5.174,24.806-3.208,36.532" transform="translate(-580.268 -391.148)"/><path class="k" d="M555.288,370.533c-1.83,3.7-.37,8.5,2.831,11.1-5.235.9-11.656,2.973-12.294,8.245-.53,4.373,3.438,7.841,7,10.435-2.81,1.154-4,4.7-3.418,7.681s2.512,5.5,4.457,7.833c3.171,3.8,8.371,7.747,12.542,5.079a20.786,20.786,0,0,0,36.955-12.488c5.422-4.052,9.776-9.914,10.748-16.613.937-6.459-1.774-13.592-7.507-16.989-5.977-3.541-12.8-.775-18.394-5.3-3.485-2.82-4.734-7.16-9.1-9.141-5.818-2.639-13.61-.315-13.524,7.04C561.967,365.589,557.173,366.727,555.288,370.533Z" transform="translate(-545.777 -347.836)"/><path class="j" d="M713.976,444.409c.556,16.325-.99,39.687-21.768,38.49-17.941-1.034-31.3-4.249-43.83-18.165a53.373,53.373,0,0,1-11.611-20.9,47.218,47.218,0,0,1-1.655-14.939c.371-15.85,5.314-32.324,17-43.047,10.807-9.92,23.588-10.309,34.752-.94C705.037,400.158,713.187,421.222,713.976,444.409Z" transform="translate(-577.719 -354.562)"/><path class="k" d="M638.26,408.994a13.593,13.593,0,0,1-3.4,9.082c-1.565,1.937-3.126,4.868-5.423,5.95-2.436,1.148-8.425.68-9.318,3.887-.484,1.741.261,4.357.845,5.992.946,2.647,2.617,4.983,3.607,7.613,3.076,8.166-8.915,10.451-12.715,4.551-.561-.871-.994-1.927-1.928-2.377a4.969,4.969,0,0,0-2.307-.225c-7.646.2-13.757-9.117-10.526-16.049-4.716-.1-7.879-6.517-5.088-10.321a14.765,14.765,0,0,1-2.622-24.653c-3.351.926-6.615-2.527-6.872-5.995s1.51-6.727,3.221-9.753a5.311,5.311,0,0,1,2.061-2.368c.958-.462,2.383-.085,2.6.956a16.025,16.025,0,0,1,10.391-17.015c3.117-1.05,7.139-.79,8.958,1.951a2.346,2.346,0,1,1,3.131-3.435c1.363-8.931,10.42-15.963,19.41-15.072,3.807.378,8.078,2.911,7.916,6.733a14.7,14.7,0,0,1,24.408-.961c4.068-4.125,11.529-3.275,15.585.862s5.062,10.546,3.944,16.232c4.044-1.572,8.971.726,10.961,4.58s1.287,8.752-1.14,12.348a20.827,20.827,0,0,1-3.372,4.074c2.469,4.568,4.808,13.867-.705,17.4-1.927-2.038-2.669-3.568-4.978-5.343a25.222,25.222,0,0,1-4.419-4.117,16.282,16.282,0,0,1-3.426-13.086c-6.585,2.906-15.276-2.519-15.557-9.711a10.144,10.144,0,0,1-9.932,2.831c-3.071-.848-7.32-4.25-6.745-7.82a12.247,12.247,0,0,1,3.027,4.339,9.263,9.263,0,0,1,.624,6.189,10.715,10.715,0,0,1-1.959,3.6c-2.179,2.8-3.733,3.063-2.608,6.683C646.322,394.344,647.5,405,638.26,408.994Z" transform="translate(-558.906 -341.438)"/><path class="j" d="M640.329,472.794c-4.57-3.215-12.735-3.642-14.827,2.74-1.429,4.36,1.158,9.883,3.866,13.218,3.828,4.714,10.232,6.351,13.127-.189" transform="translate(-574.144 -387.6)"/><path class="l" d="M578.477,413.619c.05.142.3.01.264-.137s-.2-.217-.343-.26c-3.328-.987-7.026.917-8.942,3.811a3.725,3.725,0,0,0-.737,1.927,1.647,1.647,0,0,0,1.05,1.637c.669.194,1.5-.409,1.357-1.092a1.159,1.159,0,0,0-1.21-.81,2.813,2.813,0,0,0-1.44.607,11.287,11.287,0,0,0-4.5,11.09.963.963,0,0,0,.3.626c.192.139.54.058.557-.179" transform="translate(-552.222 -367.017)"/></g><g transform="translate(167.185 117.756)"><path class="j" d="M727.843,566.195c-1.473-2.082-1.668-4.785-1.705-7.335a92.412,92.412,0,0,1,4.286-29.185c.515-1.629.863-3.843-.638-4.659a2.85,2.85,0,0,0-1.665-.234c-5.783.622-6.949,7.137-8.461,11.639a101.723,101.723,0,0,0-3.707,14.659c-.416,2.35-.61,4.761-1.084,7.091-.317,1.558-1.26,3.833-.443,5.391" transform="translate(-679.444 -524.754)"/><path class="j" d="M718.791,619.726l3.107-28.632a7.451,7.451,0,0,0-2.724-8.142l-6.223-5.9c-3.5-3.322-7.622-6.878-12.437-6.521-4.187.31-7.664,3.69-9.235,7.583s-1.57,8.227-1.316,12.418a115.066,115.066,0,0,0,6.472,31.658" transform="translate(-670.766 -541.116)"/><path class="j" d="M689.194,564.579a18.026,18.026,0,0,0-6.833-1.4c-2.726-.207-5.422-1-8.114-1.443a2.96,2.96,0,0,0-1.847.1,2.12,2.12,0,0,0-.914,1.077,4.036,4.036,0,0,0,1.038,4.377,5.542,5.542,0,0,0,4.444,1.326" transform="translate(-664.106 -537.946)"/><path class="j" d="M696.181,570.834c-2.844-1.006-5.375-2.771-8.227-3.754a32.216,32.216,0,0,0-4.2-1.037c-1.4-.281-3.118.817-4.473,1.247q-2.825.9-5.677,1.7c-3.548,1.01-7.121,1.932-10.705,2.8a5.152,5.152,0,0,0-1.984.785,1.742,1.742,0,0,0-.691,1.885,2.57,2.57,0,0,0,1.309,1.19c2.476,1.357,5.2,2.76,7.984,2.277,2.835-.491,5.443-2.9,8.213-2.122" transform="translate(-660.149 -539.505)"/><path class="j" d="M694.891,575.32l-4.741.05c-3.295.035-6.75,2.081-9.6,3.6a32.875,32.875,0,0,0-6.444,4.712,18.047,18.047,0,0,0-3.608,4.091,7.439,7.439,0,0,0-1.056,5.245,3.244,3.244,0,0,0,1.655,2.363,3.377,3.377,0,0,0,3.619-1.1c.928-.974,1.524-2.22,2.408-3.235a14.765,14.765,0,0,1,3.354-2.607,19.019,19.019,0,0,1,4.094-2.146" transform="translate(-663.426 -542.838)"/><path class="j" d="M703.375,585.625c-3.993-1.242-7.065.717-10.413,2.643a10.04,10.04,0,0,0-2.216,1.585c-1.475,1.5-1.958,3.691-2.377,5.755-.11.54-.188,1.188.219,1.56a1.248,1.248,0,0,0,.762.276c1.441.1,2.682-.92,3.833-1.793a25.816,25.816,0,0,1,4.915-2.93,9.025,9.025,0,0,1,3.256-.932,3.964,3.964,0,0,1,3.1,1.12" transform="translate(-670.21 -546.385)"/></g><g transform="translate(192.982 296.458)"><path class="j" d="M708.759,818.792c11.4-4.967,21.267-17.477,35.006-15.665a17.094,17.094,0,0,1,5.885,2.359c3.238,1.795,6.886,4.216,7.054,7.914.11,2.428-1.389,4.63-3.046,6.408-6.878,7.388-15.253,14.241-25.075,17.171-9.075,2.707-20.717,3.056-28.276-3.405" transform="translate(-700.308 -802.949)"/><path class="j" d="M769.925,804.176a21.776,21.776,0,0,1,13.135,5.418,17.461,17.461,0,0,1,5.7,10.476,17.712,17.712,0,0,1-9.574,17.84,3.645,3.645,0,0,1-1.477.444c-1.571.033-2.625-1.793-2.473-3.357a11.667,11.667,0,0,1,1.854-4.293c2.011-3.649,4-11.18-2.033-12.314" transform="translate(-725.205 -803.388)"/><path class="j" d="M776.486,814.569a10.243,10.243,0,0,1,4.4,7.533,16.059,16.059,0,0,1-1.328,6.995,38.4,38.4,0,0,1-6.738,11.23,9,9,0,0,1-4.062,3.051c-1.65.478-3.728-.124-4.382-1.713a4.292,4.292,0,0,1,.026-2.8c.768-2.658,2.61-4.868,3.7-7.413.746-1.751,1.343-4.443.291-6.176-1.366-2.251-3.643-3.885-4.97-6.283" transform="translate(-722.877 -807.105)"/></g><path class="i" d="M506.552,717.438a506.1,506.1,0,0,1,9.112-82.846c5.184-26.677,4.922-52.51,34.8-63.533a12.494,12.494,0,0,1,6.289-1.014c4.463.748,7.044,5.362,8.841,9.515a211.281,211.281,0,0,1,16.966,72.589c.934,16.25-7.087,33.1-11.14,48.775a2.545,2.545,0,0,0,2.417,3.723c12.671,3.065,25.428,5.788,38.019,9.179,10.374,2.794,23.273,5.046,28.443,15.67,2.726,5.6,3.252,12.022,3.058,18.25-.1,3.318-.449,6.785-2.257,9.571a6.4,6.4,0,0,1-3.184,2.7,9.269,9.269,0,0,1-4.648-.078c-6.036-1.141-12.036-2.036-18.061-2.977-25.837-3.974-51.334-10.538-76.906-15.938C526.972,738.626,506.142,732.618,506.552,717.438Z" transform="translate(-438.03 -423.159)"/><path class="i" d="M753.934,698.946c-7.331-27.354-16.312-54.425-24.326-81.642-.5-1.687-1.07-3.492-2.385-4.52-1.411-1.1-3.295-1.019-5.023-.889-8.721.652-19.295,2.76-22.221,11.807-1.116,3.449-.793,7.234-.456,10.875,1.82,19.66,3.991,39.323,7.776,58.714,2.926,14.988,5.091,39.479,17.592,49.774,5.134,4.229,12.774,4.706,18.835,1.966,16.312-7.372,22.383-33.44,26.977-48.819a271.821,271.821,0,0,0,11.376-78.069c-.015-10.248-.84-21.208-6.586-29.282-7-9.838-24.376-17.134-35.948-18.835,2.526,16.014-.364,31.693-2.449,47.77-3.559,27.44-9.54,54.2-13.074,81.64" transform="translate(-506.932 -423.189)"/><path class="l" d="M726.178,636.236c-5.483-4.755-16.466-.755-21.192,3.233-2.64,2.227-5.545,5.239-6.772,8.536-.6,1.609.079,3.948.278,5.574l1.256,10.25,2.513,20.5,5.078,41.429c1.217,9.937,2.658,20.427,8.873,28.275" transform="translate(-506.491 -446.095)"/><path class="l" d="M579.916,634.5c.312,13.1-5.955,25.318-9.41,37.954a54.728,54.728,0,0,0,1.316,32.971c1.322,3.51,3.271,7.1,6.651,8.726" transform="translate(-460.217 -446.249)"/><path class="l" d="M547.673,757.492c12-1.593,20.927,1.235,32,5.312,17.767,6.54,35.519,13.274,53.669,18.984,8.91,2.8,18.673,7.375,22.1,16.859,2.833,7.833,4.21,18.416.732,26.232-2.106,4.732-5.107,3.1-9.3,2.5" transform="translate(-452.739 -490.073)"/><path class="l" d="M662.078,858.827c-28.7-5.555-58.871-7.306-86.647-16.431" transform="translate(-462.666 -520.599)"/><path class="l" d="M740.408,636.471a336.728,336.728,0,0,1,28.984,72.865" transform="translate(-521.667 -446.952)"/></g><g transform="translate(290.427)"><g transform="translate(0 9.723)"><g class="m"><path class="n" d="M899.324,306.366c-8.42-12.63,3.508-22.453,12.63-30.873.7-.7,0-2.105-.7-2.806-19.026-9.513-38.048-19.744-51.975-35.02-13.188,25.061-4.709,52.372-3.024,57.79,1.987,6.39,9.1,29.272,30.441,41.531,10.285,5.908,19.533,6.855,37.134,8.657,16.606,1.7,27.583,2.821,39.18.788C938.214,341.725,915.687,330.429,899.324,306.366Z" transform="translate(-852.01 -201.277)"/><path class="o" d="M1031.407,264.922c.585-8.26-1.209-14.268-3.557-22.13-1.862-6.238-12.283-38.613-43.864-53.744-12.48-5.979-23.346-6.909-31.219-7.508-10.154-.773-64.917-4.942-87.73,32.8-.615,1.017-1.178,2.041-1.718,3.067,13.927,15.276,32.949,25.508,51.975,35.02.7.7,1.4,2.105.7,2.807-9.122,8.42-21.05,18.243-12.63,30.873,16.363,24.063,38.889,35.358,63.685,40.066,1.8-.316,3.619-.705,5.475-1.183C999.432,318.057,1029.324,294.379,1031.407,264.922Z" transform="translate(-856.052 -181.018)"/><path class="j" d="M1034.677,325.224c1.562,5.736,2.458,12.748,5.911,17.608,3.96,5.573,10.081,10.316,15.015,15.016,7.8,7.431,11.829,15.588,16.644,25.185a19.216,19.216,0,0,1,2.16,5.921c.526,3.882-1.3,7.808-4.039,10.605-5.16,5.264-13.217,6.881-20.5,5.727s-13.942-4.728-20.191-8.638c-8.276-5.178-16.2-11.133-22.345-18.722-3.177-3.924-5.838-8.238-8.909-12.244a74.721,74.721,0,0,0-14.328-14.2" transform="translate(-899.246 -232.591)"/></g></g><path class="j" d="M978.416,323.59A65.771,65.771,0,0,1,945.8,302.78c-6.651-7.863-12.245-14.891-20.049-21.6-4.617-3.969-3.748-8.948-4.448-14.616-.69-5.584-1.725-11.229-1.042-16.869,1.1-9.048,5.866-19.2,13.518-24.295,9.124-6.081,17.329-8.457,27.87-4.36,6.9,2.682,12.785,6.78,19.057,10.6,6.014,3.661,7.525,6.192,10.221,13.03,5.029,12.755,14.16,22.648,17.179,36.574" transform="translate(-876.335 -184.877)"/><path class="j" d="M957.548,210.561c.31,0,.323.533.047.674a1.065,1.065,0,0,1-.891-.11L931.035,199.7a21.894,21.894,0,0,0-7.612-2.325c-2.665-.138-5.563.9-6.892,3.215-6.143,10.7,28.1,25.074,35.351,27.969" transform="translate(-874.82 -177.14)"/><g transform="translate(46.827)"><path class="p" d="M987.319,274.907l-49.883,3.16a6.448,6.448,0,0,1-6.845-6.055l-5.676-95.957a6.449,6.449,0,0,1,6-6.815L979.63,165.9a6.449,6.449,0,0,1,6.875,5.976l6.839,96.141A6.45,6.45,0,0,1,987.319,274.907Z" transform="translate(-924.904 -165.881)"/><path class="q" d="M991.222,269.348l-51.4,3.053-5.264-83.438,50.314-3.238Z" transform="translate(-928.358 -172.978)"/><circle class="r" cx="4.032" cy="4.032" r="4.032" transform="translate(34.228 99.423)"/></g><path class="j" d="M1048.863,298.333c-2.553-14.389-2.617-29.512-4.136-44.078-.682-6.543-4.831-13.367-8.356-18.739-2.78-4.236-8-17.373-13.786-18.508-6.657-1.3-6.671,6.478-6.034,10.987a27.663,27.663,0,0,0,2.2,8.249c1.452,2.882,3.836,5.143,5.385,7.959,2.047,3.719,1.23,5.15.085,9.079-1.618,5.557-2.562,11.634-1.607,17.4,1,6.048,1.541,15.915,5.775,20.642" transform="translate(-910.758 -184.114)"/><path class="j" d="M916.485,297.843a16.433,16.433,0,0,0-5.758,6.832,10.129,10.129,0,0,0,.267,8.738c2.349,4.159,7.618,5.5,12.337,6.237a13.22,13.22,0,0,0,5.24.085,4.742,4.742,0,0,0,3.645-3.416c.451-2.413-1.63-4.511-3.627-5.939a45.176,45.176,0,0,0-8.231-4.667,1.063,1.063,0,0,1,1.337-.886" transform="translate(-872.7 -213.075)"/><path class="j" d="M911.95,271.1a10.773,10.773,0,0,0-2.312,11.216c1.414,3.624,4.711,6.176,8.137,8.019a12.449,12.449,0,0,0,4.709,1.649,5.352,5.352,0,0,0,4.553-1.625c1.938-2.284.811-5.892-1.143-8.161s-4.62-3.927-6.192-6.476c-.758-1.229-1.084-3.119.135-3.893" transform="translate(-872.372 -203.51)"/><path class="j" d="M920.637,244.7c-5.452.675-13.554.433-13.834,7.453-.214,5.38,4.64,11.637,9.8,12.976a17.351,17.351,0,0,0,3.9.4c2.964.081,6.535-.164,7.968-2.76,1.529-2.77-.587-6.207-3.121-8.1a17.891,17.891,0,0,0-6.731-3.107" transform="translate(-871.601 -194.07)"/></g><g transform="translate(392.055 328.693)"><path class="s" d="M1017.391,744.9c17.971,8.985,41.659,8.985,58-4.085,8.985-7.351,12.253-19.6,8.169-31.04,20.421,11.436,50.645,7.352,58.814-16.337a39.661,39.661,0,0,0,1.736-7.068c-16.276-8.336-32.664-8.593-43.061-8.75-11.043-.167-27.42-.415-45.42,8.342-19.9,9.682-46.388,32.61-45.383,62a52.612,52.612,0,0,0,3.133,15.883C1017.659,758.117,1020.151,751.8,1017.391,744.9Z" transform="translate(-1010.215 -677.574)"/><path class="t" d="M1176.959,724.236c-3.631-13.689-14.834-22.044-21.319-26.881a68.624,68.624,0,0,0-9.774-6.081,39.66,39.66,0,0,1-1.736,7.068c-8.168,23.689-38.392,27.773-58.814,16.337,4.084,11.436.816,23.689-8.169,31.04-16.337,13.07-40.026,13.07-58,4.085,2.76,6.9.267,13.213-4.016,18.947a48.729,48.729,0,0,0,7.027,12.955c23.654,31.021,86.943,33.634,124.209,4.635C1161.85,774.3,1183.415,748.567,1176.959,724.236Z" transform="translate(-1011.974 -682.474)"/></g><g transform="translate(448.808 139.118)"><path class="u" d="M1175.558,522.658c3.663-6.41,4.578-13.736,1.832-20.146-8.242-17.4-26.556-15.567-42.123-18.314,2.747-10.073,7.326-20.146,3.663-30.218a29.877,29.877,0,0,0-11.059-13.58c-11.555,6.052-20.547,13.88-25.253,23.353a40.029,40.029,0,0,0,2.008,38.737c17.776,27.734,74.724,34.464,120.051,25.15C1208.867,521.58,1191.851,517.77,1175.558,522.658Z" transform="translate(-1098.565 -403.176)"/><path class="v" d="M1293.383,447.484c-25.438-35.626-105.615-38.143-149.2-15.313a29.878,29.878,0,0,1,11.059,13.58c3.663,10.072-.915,20.145-3.663,30.218,15.567,2.747,33.881.916,42.123,18.314,2.747,6.41,1.831,13.736-1.832,20.146,16.293-4.888,33.309-1.077,49.118,4.982,27.949-5.743,51.482-17.583,58.681-34.373C1307.219,467.436,1294.7,449.333,1293.383,447.484Z" transform="translate(-1114.881 -394.948)"/><g transform="translate(52.679 0)"><g transform="translate(0 38.486)"><path class="w" d="M1263.206,456.735q.383.338.757.687a30.874,30.874,0,0,1,6.416,7.854c1.793,3.428,1.718,7.224,1.4,10.994q-.067.795-.161,1.589a50.864,50.864,0,0,1-5.891,18.545,21.582,21.582,0,0,1-3.716,5.184c-6.979,6.8-18.877,9.4-28.27,9.4-22.374,0-40.511-14.693-40.511-32.818a27.705,27.705,0,0,1,3.259-12.919,23.345,23.345,0,0,1,5-6.221,38.125,38.125,0,0,1,11.359-6.924C1228.233,446.183,1250.148,445.26,1263.206,456.735Z" transform="translate(-1185.098 -444.316)"/><path class="w" d="M1311.756,483.357a13.963,13.963,0,0,0,7.712-2.45c.533-.365,2.326-2.465,2.848-2.428.89.064.827,1.653.761,2.268-.677,6.323-6.206,11.845-12.061,13.721" transform="translate(-1227.224 -455.28)"/><path class="w" d="M1215.406,456.221c1.03-2.7,1.01-5.676,1.091-8.569.062-2.219-.507-6.706,2.906-4.847,4.978,2.711,6.077,8.4,4.557,13.535" transform="translate(-1193.03 -442.364)"/><path class="w" d="M1191.539,482.512c-3.768-1.213-10.3-1.689-10.846,3.446-.714,6.674,1.808,12.866,5.66,18.156a6.273,6.273,0,0,0,2.529,2.318,5.32,5.32,0,0,0,2.118.3c2.422-.057,3.468-.784,5.271-2.209" transform="translate(-1180.573 -456.438)"/><path class="w" d="M1223.541,534.771a96.855,96.855,0,0,0-.114,10.611c.035.807.172,1.76.892,2.126a2.336,2.336,0,0,0,1.085.165l9.941-.083a.593.593,0,0,0,.709-.578,65.3,65.3,0,0,0,1.766-10.957" transform="translate(-1195.865 -475.412)"/><path class="w" d="M1264.739,535.015q.937,5.056,2.154,10.054a1.749,1.749,0,0,0,.4.877,1.6,1.6,0,0,0,.759.348,17.874,17.874,0,0,0,4.953.247l7.22-.311a.694.694,0,0,0,.8-.74c.831-4.964.135-10.259,1.21-15.114" transform="translate(-1210.674 -473.84)"/><circle class="w" cx="2.569" cy="2.569" r="2.569" transform="translate(16.462 23.199)"/><path class="x" d="M1266.488,457.723a9.526,9.526,0,0,1-3.422-.33,40.264,40.264,0,0,0-17.278.059c-1.24.3-2.969,1.09-3.845-.218-.96-1.433,1.258-2.254,2.413-2.55a29.935,29.935,0,0,1,5.205-.7,64.276,64.276,0,0,1,7.215-.26,30.589,30.589,0,0,1,6.018.677c.974.24,5.862,1.584,4.421,2.973A1.466,1.466,0,0,1,1266.488,457.723Z" transform="translate(-1202.437 -446.418)"/><path class="w" d="M1284.784,506.383a28.729,28.729,0,0,1-13.193,11.469" transform="translate(-1213.124 -465.26)"/><path class="w" d="M1222.994,449.675a9.808,9.808,0,0,1,.833,6.921" transform="translate(-1195.744 -444.979)"/></g><g transform="translate(34.797)"><ellipse class="y" cx="9.485" cy="11.656" rx="9.485" ry="11.656" transform="translate(2.433 10.445) rotate(-33.407)"/><ellipse class="y" cx="9.485" cy="11.656" rx="9.485" ry="11.656" transform="translate(0 12.05) rotate(-33.407)"/></g></g></g><g transform="translate(259.778 121.697)"><path class="z" d="M840.941,366.838a16.837,16.837,0,0,0-2.514-6.448c-2.55-3.281-6.293-4.664-10.331-4.97-6.106-.464-16.447.85-20.931,5.795-2.814,3.1-.673,4.775-1.353,8.04-.264,1.267-.523,2.48-.737,3.638A46.431,46.431,0,0,1,840.941,366.838Z" transform="translate(-804.573 -355.333)"/><path class="aa" d="M804.8,378.574c-1.2,6.506-.915,11.263,8.458,13.842,3.931,1.081,6.726-.8,10.419-.412a9.486,9.486,0,0,1,1.1.186c4.333.991,7.917,4.68,12.586,1.747,4.426-2.78,4.942-13.75,3.3-21.417A46.431,46.431,0,0,0,804.8,378.574Z" transform="translate(-804.293 -361.015)"/></g><path class="aa" d="M777.221,423.231c-1.7-1.1-2.742-3.111-2.445-6.311.579-6.232,11.862-7.667,15.764-3.65C796.963,419.883,783.12,427.043,777.221,423.231Z" transform="translate(-533.941 -253.55)"/></g><g transform="translate(823.17 480.88)"><path class="ab" d="M1148.234,782.048h-58.853v-104.1l58.853,7.847Z" transform="translate(-1069.759 -664.014)"/><g transform="translate(27.803 52.166)"><rect class="ac" width="17.347" height="15.148" transform="translate(15.148 0) rotate(90)"/><rect class="ad" width="14.982" height="12.881" transform="translate(14.015 1.183) rotate(90)"/><g class="ae" transform="translate(1.134 1.183)"><g class="af" transform="translate(0 0)"><g transform="translate(-8.575 -6.755)"><rect class="ag" width="29.369" height="7.246" transform="translate(0 15.894) rotate(-32.763)"/><rect class="ag" width="29.369" height="4.503" transform="matrix(0.841, -0.541, 0.541, 0.841, 7.007, 22.901)"/></g></g></g><rect class="ac" width="0.996" height="15.148" transform="translate(8.072 16.248) rotate(180)"/></g><g transform="translate(55.146 52.166)"><rect class="ac" width="17.347" height="15.148" transform="translate(15.148 0) rotate(90)"/><rect class="ad" width="14.982" height="12.881" transform="translate(14.015 1.183) rotate(90)"/><g class="ae" transform="translate(1.133 1.183)"><g class="af" transform="translate(0 0)"><g transform="translate(-8.575 -6.755)"><rect class="ag" width="29.369" height="7.246" transform="matrix(0.841, -0.541, 0.541, 0.841, 0, 15.894)"/><rect class="ag" width="29.369" height="4.503" transform="matrix(0.841, -0.541, 0.541, 0.841, 7.007, 22.901)"/></g></g></g><rect class="ac" width="0.996" height="15.148" transform="translate(8.072 16.248) rotate(180)"/></g><g transform="translate(27.744 76.23)"><rect class="ac" width="17.347" height="15.148" transform="translate(15.148 0) rotate(90)"/><rect class="ad" width="14.982" height="12.881" transform="translate(14.015 1.183) rotate(90)"/><g class="ae" transform="translate(1.134 1.183)"><g class="af" transform="translate(0 0)"><g transform="translate(-8.575 -6.755)"><rect class="ag" width="29.369" height="7.246" transform="translate(0 15.894) rotate(-32.763)"/><rect class="ag" width="29.369" height="4.503" transform="matrix(0.841, -0.541, 0.541, 0.841, 7.007, 22.901)"/></g></g></g><rect class="ac" width="0.996" height="15.148" transform="translate(8.072 16.248) rotate(180)"/></g><g transform="translate(55.087 76.23)"><rect class="ac" width="17.347" height="15.148" transform="translate(15.148 0) rotate(90)"/><rect class="ad" width="14.982" height="12.881" transform="translate(14.015 1.183) rotate(90)"/><g class="ae" transform="translate(1.133 1.183)"><g class="af" transform="translate(0 0)"><g transform="translate(-8.575 -6.755)"><rect class="ag" width="29.369" height="7.246" transform="matrix(0.841, -0.541, 0.541, 0.841, 0, 15.894)"/><rect class="ag" width="29.369" height="4.503" transform="matrix(0.841, -0.541, 0.541, 0.841, 7.007, 22.901)"/></g></g></g><rect class="ac" width="0.996" height="15.148" transform="translate(8.072 16.248) rotate(180)"/></g><g transform="translate(55.087 29.565)"><rect class="ac" width="17.347" height="15.148" transform="translate(15.148 0) rotate(90)"/><rect class="ad" width="14.982" height="12.881" transform="translate(14.015 1.183) rotate(90)"/><g class="ae" transform="translate(1.133 1.183)"><g class="af" transform="translate(0)"><g transform="translate(-8.575 -6.755)"><rect class="ag" width="29.369" height="7.246" transform="matrix(0.841, -0.541, 0.541, 0.841, 0, 15.894)"/><rect class="ag" width="29.369" height="4.503" transform="matrix(0.841, -0.541, 0.541, 0.841, 7.007, 22.901)"/></g></g></g><rect class="ac" width="0.996" height="15.148" transform="translate(8.072 16.248) rotate(180)"/></g><g transform="translate(27.744 29.565)"><rect class="ac" width="17.347" height="15.148" transform="translate(15.148 0) rotate(90)"/><rect class="ad" width="14.982" height="12.881" transform="translate(14.015 1.183) rotate(90)"/><g class="ae" transform="translate(1.133 1.183)"><g class="af" transform="translate(0 0)"><g transform="translate(-8.575 -6.755)"><rect class="ag" width="29.369" height="7.246" transform="matrix(0.841, -0.541, 0.541, 0.841, 0, 15.894)"/><rect class="ag" width="29.369" height="4.503" transform="matrix(0.841, -0.541, 0.541, 0.841, 7.008, 22.901)"/></g></g></g><rect class="ac" width="0.996" height="15.148" transform="translate(8.072 16.248) rotate(180)"/></g><path class="ah" d="M1155.034,838.309a4.24,4.24,0,0,1,1.132-3.85,3.942,3.942,0,0,1,3.785-.97,1.96,1.96,0,0,0,.807.143c.5-.073.806-.588,1.072-1.032a7.261,7.261,0,0,1,5.007-3.66,4.623,4.623,0,0,1,5.016,3.06,3.969,3.969,0,0,1,5.712,1.926,5.37,5.37,0,0,1,6.113,4.386" transform="translate(-1093.206 -717.999)"/><path class="ah" d="M1058.926,837.256a4.242,4.242,0,0,1,1.133-3.85,3.94,3.94,0,0,1,3.786-.97,1.956,1.956,0,0,0,.807.143c.5-.073.8-.588,1.071-1.032a7.267,7.267,0,0,1,5.007-3.66,4.624,4.624,0,0,1,5.016,3.06,3.969,3.969,0,0,1,5.712,1.927,5.369,5.369,0,0,1,6.113,4.386" transform="translate(-1058.834 -717.623)"/><g transform="translate(43.48 95.759)"><g class="ai" transform="translate(0)"><rect class="aj" width="21.773" height="11.621" transform="translate(11.621 0) rotate(90)"/></g><rect class="aj" width="1.144" height="3.27" transform="translate(8.634 8.991)"/><g transform="translate(0)"><rect class="aj" width="21.773" height="11.621" transform="translate(11.621 0) rotate(90)"/></g></g><rect class="ak" width="58.853" height="2.411" transform="translate(19.622 22.397)"/><g transform="translate(14.368)"><path class="aj" d="M1149.11,677.632H1081.2l6.072-21.377h55.763Z" transform="translate(-1081.202 -656.255)"/></g></g><circle class="al" cx="10.713" cy="10.713" r="10.713" transform="translate(910.379 530.32)"/><line class="am" x2="16.973" transform="translate(893.405 539.653)"/><path class="an" d="M1193.5,745l5.139,5.3,18.95-15.577" transform="translate(-283.825 -203.439)"/><rect class="ao" width="37.739" height="11.495" transform="translate(750.093 189.92) rotate(-3.008)"/><text class="ap" transform="matrix(0.999, -0.049, 0.049, 0.999, 753.655, 197.527)"><tspan x="0" y="0">- </tspan></text><line class="l" y1="2.462" x2="42.446" transform="translate(749.89 211.351)"/><line class="l" y1="2.462" x2="42.446" transform="translate(749.89 219.504)"/><line class="l" y1="2.462" x2="42.446" transform="translate(749.89 227.657)"/><line class="l" y1="0.973" x2="16.772" transform="translate(749.89 237.299)"/><rect class="k" width="3.64" height="7.753" transform="translate(760.554 191.244) rotate(-3.008)"/><rect class="k" width="3.64" height="7.753" transform="translate(767.123 190.894) rotate(-3.008)"/><rect class="k" width="3.64" height="7.753" transform="translate(772.8 190.629) rotate(-3.008)"/><rect class="k" width="3.64" height="7.753" transform="translate(777.829 190.365) rotate(-3.008)"/><path class="k" d="M969.613,215.985a.456.456,0,0,1-.57-.64.58.58,0,0,1,.865-.089.99.99,0,0,1,.242.926,1.166,1.166,0,0,1-.347.649.778.778,0,0,1-.694.189.271.271,0,0,1-.121-.058c-.11-.1-.037-.3.086-.383s.28-.11.411-.184.234-.243.156-.371" transform="translate(-203.512 -17.604)"/></g></svg>