<svg xmlns="http://www.w3.org/2000/svg" xmlns:xlink="http://www.w3.org/1999/xlink" width="706.655" height="432.804" viewBox="0 0 706.655 432.804"><defs><style>.a,.an,.m,.o,.t,.x{fill:none;}.b{clip-path:url(#a);}.c{fill:url(#b);}.d{fill:url(#c);}.am,.e,.n{fill:#feca84;}.ai,.ak,.al,.am,.an,.e,.j,.l,.m,.o,.p,.q,.r,.t,.w,.x,.y{stroke:#100052;stroke-linecap:round;stroke-linejoin:round;}.e{stroke-width:1.716px;}.f{fill:url(#d);}.g{fill:url(#e);}.h{fill:url(#f);}.i{fill:url(#g);}.j,.l,.p,.w{fill:#685545;}.j,.o{stroke-width:2.056px;}.k,.q{fill:#100052;}.l,.m{stroke-width:2.186px;}.p,.x{stroke-width:2.241px;}.q,.r,.t{stroke-width:1.154px;}.r,.v{fill:#fff;}.s{fill:url(#h);}.u{fill:#bbdbf9;}.w{stroke-width:1.882px;}.y{fill:#4fa5ad;}.ai,.y{stroke-width:2.23px;}.z{fill:#33888c;}.aa{fill:#d4f0f5;}.ab{opacity:0.4;}.ac{clip-path:url(#k);}.ad{clip-path:url(#l);}.ae{clip-path:url(#m);}.af{clip-path:url(#n);}.ag{fill:#a6dce6;}.ah{opacity:0.54;}.ai{fill:#bedee1;}.aj{fill:#2ea8bc;opacity:0.28;}.ak{fill:#f6aacb;}.ak,.al{stroke-width:0.461px;}.al{fill:#c15f8e;}.am{stroke-width:0.548px;}.an{stroke-width:1.409px;}</style><clipPath id="a"><path class="a" d="M898.717,257.553c-84.546-15.224-127.34-88.735-220.468-77.265-61.287,7.548-96.391,42.862-136.985,79.316-8.872,7.967-18,15.987-27.729,23.785-62.831,50.372-125.916,99.188-89.3,190.716,27.928,69.8,97.7,115.238,169.746,128.658,50.176,9.346,116.416,10.3,166.488,8.178,35.81-1.517,63.815-11.7,101.554-10.04,34.966,1.536,63.533,3.4,95.572-15.69,49.506-29.5,74.907-77.775,79.86-128.424C1046.018,369.25,993.488,274.619,898.717,257.553Z" transform="translate(-413.427 -179.079)"/></clipPath><linearGradient id="b" y1="0.5" x2="1" y2="0.5" gradientUnits="objectBoundingBox"><stop offset="0" stop-color="#2a7195"/><stop offset="1" stop-color="#060c39"/></linearGradient><linearGradient id="c" x1="0.5" y1="0.559" x2="0.5" y2="1.417" xlink:href="#b"/><linearGradient id="d" x1="0.302" y1="0.881" x2="0.695" y2="0.094" gradientUnits="objectBoundingBox"><stop offset="0" stop-color="#fff"/><stop offset="1" stop-color="#bbdbf9"/></linearGradient><linearGradient id="e" x1="-0.047" y1="0.984" x2="0.947" y2="0.168" xlink:href="#d"/><linearGradient id="f" x1="0.79" y1="-0.367" x2="0.005" y2="1.914" xlink:href="#b"/><linearGradient id="g" x1="0.487" y1="0.494" x2="0.359" y2="1.008" xlink:href="#b"/><linearGradient id="h" y1="0.5" x2="1" y2="0.5" gradientUnits="objectBoundingBox"><stop offset="0" stop-color="#ff9077"/><stop offset="1" stop-color="#e9645a"/></linearGradient><clipPath id="k"><rect class="a" width="21.551" height="18.53" transform="translate(18.529 0) rotate(90)"/></clipPath><clipPath id="l"><rect class="a" width="21.551" height="18.53" transform="translate(18.53 0) rotate(90)"/></clipPath><clipPath id="m"><rect class="a" width="21.551" height="18.53" transform="translate(18.529) rotate(90)"/></clipPath><clipPath id="n"><rect class="a" width="21.551" height="18.53" transform="translate(18.53) rotate(90)"/></clipPath></defs><g transform="translate(-413.427 -179.079)"><g transform="translate(413.427 179.079)"><g class="b"><g transform="translate(68.423 98.732)"><path class="c" d="M770.322,650.839c-79.812-26.12-90.454-118.993-128.667-185.261a177.9,177.9,0,0,0-18.352-26.3c-6.914,6.209-14.031,12.46-21.611,18.537-48.968,39.258-98.135,77.3-69.593,148.637,21.766,54.4,76.143,89.812,132.293,100.272,39.105,7.284,90.73,8.026,129.754,6.373,27.909-1.182,49.736-9.116,79.148-7.824,27.251,1.2,49.515,2.651,74.485-12.229,38.583-22.993,58.38-60.616,62.24-100.088-25.748,9.361-51.248,19.582-77.17,30.315C881.091,645.035,825.464,668.737,770.322,650.839Z" transform="translate(-523.671 -376.516)"/><path class="d" d="M962.785,399.317c-65.892-11.865-99.244-69.156-171.825-60.217-47.765,5.883-75.124,33.405-106.761,61.816a177.9,177.9,0,0,1,18.352,26.3c38.213,66.269,48.854,159.141,128.667,185.261,55.143,17.9,110.77-5.8,162.527-27.572,25.922-10.733,51.422-20.954,77.17-30.315C1077.586,486.369,1036.646,412.617,962.785,399.317Z" transform="translate(-584.568 -338.157)"/><path class="e" d="M739.349,766.3c30.519,5.836,65.473,4.94,93.625-9.27,2.831-1.429,5.7-3.057,7.559-5.624,3.834-5.281,2.3-12.587.569-18.881-5.547-20.214-18.73-53.988-10.328-74.751,4.181-10.333,11.422-17.339,13.264-29.171,1.836-11.792.431-23.9-1.263-35.615-1.573-10.885-3.425-21.87-3.162-32.907.239-10.005,3.585-17.09-.736-26.469-5.361-11.634-25.026-10.674-34.275-18.938-2.72-2.43-23.39,1.807-27.639,2.044-8.616.48-17.243.82-25.872.973-11.452.2-25.389-5.663-36.332-.436-11.212,5.355-7.943,16.252-8.978,26.822a177.286,177.286,0,0,1-7.3,35.846c-1.772,5.639-3.836,11.227-4.706,17.08-1.473,9.924,1.838,21.034,4.1,30.6,2.849,12.046,3.767,22.285,2.049,34.7-2.125,15.346-4.467,30.639-6.3,45.965-.616,5.16-1.232,10.324-2.157,15.437C685.4,757.278,713.2,761.3,739.349,766.3Z" transform="translate(-587.006 -404.834)"/></g></g><path class="f" d="M1250.344,441.192a3.224,3.224,0,0,0-2.483-1.241c0-7.448-1.241-15.516-7.448-20.481-33.515-29.791-85.65-31.032-125.371-14.9,4.965-19.861-1.241-40.342-13.034-57.1a88.941,88.941,0,0,0-41.138-31c-10.4,9.714-18.685,20.829-22.575,33.331-5.454,17.527-1.725,35.116,11.779,47.5,16.884,15.48,25.537,17.865,34.918,40.857,13.737,33.667,38.537,47.5,76.194,45.854,34.787-1.52,61.594-24.172,92.052-38.035A7.272,7.272,0,0,0,1250.344,441.192Z" transform="translate(-649.555 -231.201)"/><path class="g" d="M1323.92,284.5c-29.391-8.737-49.283-38.035-78.091-51.066-36.755-16.627-74.646-4.091-109.581,11.368-18.8,8.319-42.493,20.743-60.1,37.186a88.941,88.941,0,0,1,41.138,31c11.792,16.758,18,37.239,13.034,57.1,39.722-16.137,91.856-14.9,125.371,14.9,6.206,4.965,7.448,13.034,7.448,20.481a3.224,3.224,0,0,1,2.483,1.241,7.272,7.272,0,0,1,2.9,4.791q3.32-1.511,6.7-2.873c37.492-15,70.533-2.037,90.451-47.981C1382.951,320.766,1359.564,295.092,1323.92,284.5Z" transform="translate(-664.829 -196.709)"/><path class="e" d="M951.847,652.106c.57,6.483.973,13.076-.346,19.45-4.67,22.566-25.363,34.405-47.346,30.317-7.326-1.363-14.11-5.506-17.067-12.579-1.134-2.711-2.486-7.06-2.469-9.986.024-4.256,4.163-8.117,6.255-11.517,2.9-4.723,4.173-10.243,5.354-15.66,2.647-12.13,3.871-24.466,6.094-36.541a78.229,78.229,0,0,0-2.226-36.126c-.973-3.256-2.563-6.28-3.626-9.455-1-2.99-.975-6.477-1.172-9.651a102.091,102.091,0,0,1,.6-21.252c1.3-8.764,13.365-4.018,18.195-1.79A33.271,33.271,0,0,1,931.2,555.309c3.563,9.254,6.008,19.469,8.6,29.051A387.065,387.065,0,0,1,951.847,652.106Z" transform="translate(-592.174 -313.726)"/><g transform="translate(58.196 378.116)"><path class="h" d="M526.271,813.308c3.207-1.2,6.254-4.41,9.7-3.047,2.165.882,4.49,3.127,6.9,1.123a23.749,23.749,0,0,0,2.9-2.743,18.789,18.789,0,0,0,.142-2.31c0-9.956-7.809-18.026-17.442-18.026a17.037,17.037,0,0,0-11.17,4.183,3.791,3.791,0,0,1,.875,1.337,23.143,23.143,0,0,1,1.444,5.613c.4,2.807-.962,5.292-1.043,8.019A5.821,5.821,0,0,0,526.271,813.308Z" transform="translate(-511.026 -788.305)"/><path class="i" d="M515.783,801.993a23.143,23.143,0,0,0-1.444-5.613,3.79,3.79,0,0,0-.875-1.337,18.23,18.23,0,0,0-6.272,13.844c0,9.955,7.809,18.026,17.442,18.026a17.654,17.654,0,0,0,17.3-15.715,23.752,23.752,0,0,1-2.9,2.743c-2.405,2-4.731-.241-6.9-1.123-3.448-1.363-6.5,1.845-9.7,3.047a5.821,5.821,0,0,1-7.7-5.853C514.821,807.286,516.184,804.8,515.783,801.993Z" transform="translate(-507.193 -790.861)"/></g><g transform="translate(194.093 64.138)"><path class="j" d="M822.817,466.714c.441-3.317-1.434-6.456-3.275-9.25-8.4-12.749-16.817-18.245-32.137-18.681a14.762,14.762,0,0,0-6.632.92c-9.267,4.266-8.629,17.333-11.321,25.725-1.64,5.112-3.5,10.211-5.45,15.255-15.458,4.369-27.581,17.265-12.1,32.187,7.163,6.9,15.508,12.828,25,15.794s20.25,2.725,28.966-2.07c7.41-4.076,14.011-12.712,14.566-21.429.465-7.3-4.43-11.419-10.1-14.959a57.919,57.919,0,0,1,8.242-15.894C820.348,471.969,822.43,469.626,822.817,466.714Z" transform="translate(-733.196 -341.729)"/><path class="k" d="M750.429,284.261c-3.441,2.349-4.531,7.3-3,11.177-5.055-1.8-11.736-3.149-14.907,1.179-2.63,3.589-.852,8.607,1,12.653-3.046-.374-5.85,2.159-6.811,5.073s-.51,6.087.049,9.1c.911,4.918,3.539,10.964,8.533,10.68a21,21,0,0,0,38.725,7.289c6.78-.886,13.515-3.893,17.686-9.312,4.022-5.225,5.164-12.849,1.8-18.677-3.512-6.076-10.891-7.017-13.576-13.769-1.674-4.207-.626-8.649-3.491-12.553-3.818-5.2-11.831-7.013-15.4-.492C758.758,283.212,753.972,281.843,750.429,284.261Z" transform="translate(-726.152 -282.42)"/><path class="j" d="M849.321,430.921c-7.589,14.652-20.511,34.461-38.216,23.125-15.289-9.788-25.467-19.231-29.612-37.685a53.925,53.925,0,0,1,.119-24.156,47.688,47.688,0,0,1,5.935-13.975c8.169-13.775,20.674-25.838,36.268-29.5,14.427-3.389,25.875,2.594,31.071,16.368C863.345,387.525,860.1,410.108,849.321,430.921Z" transform="translate(-746.647 -307.222)"/><path class="k" d="M798.26,364.84a13.732,13.732,0,0,1-7.491,6.314c-2.337.931-5.161,2.74-7.72,2.557-2.713-.194-7.756-3.571-10.13-1.187-1.289,1.293-1.926,3.965-2.221,5.7-.477,2.8-.161,5.683-.59,8.49-1.333,8.713-13.022,4.793-13.449-2.284-.063-1.045.078-2.189-.522-3.047a5.025,5.025,0,0,0-1.92-1.34c-6.833-3.607-7.6-14.836-1.328-19.343-4.1-2.424-3.715-9.639.626-11.607A14.915,14.915,0,0,1,763.4,326.08c-3.41-.843-4.575-5.5-3.086-8.68s4.658-5.177,7.662-7a5.366,5.366,0,0,1,2.987-1.066c1.072.067,2.141,1.1,1.812,2.127a16.187,16.187,0,0,1,17.571-9.843c3.265.618,6.678,2.836,6.923,6.15a2.37,2.37,0,1,1,4.457-1.476c5.62-7.191,17.076-8.9,24.552-3.669,3.167,2.216,5.673,6.56,3.64,9.847a14.845,14.845,0,0,1,21.971,11.232c5.624-1.621,11.774,2.82,13.3,8.471s-.761,11.793-4.558,16.247c4.338.617,7.542,5.079,7.387,9.458s-3.2,8.345-7.114,10.31a21.031,21.031,0,0,1-4.986,1.919c-.086,5.244-2.627,14.592-9.233,14.979-.688-2.748-.585-4.463-1.74-7.168a25.447,25.447,0,0,1-1.855-5.812,16.448,16.448,0,0,1,3.457-13.22c-7.237-.7-12.206-9.778-8.9-16.25a10.249,10.249,0,0,1-10.148-2.421c-2.285-2.266-4.344-7.365-2.071-10.225a12.356,12.356,0,0,1,.518,5.319,9.355,9.355,0,0,1-2.512,5.76,10.829,10.829,0,0,1-3.5,2.2c-3.3,1.388-4.8.851-5.6,4.6C812.609,355.928,808.367,365.9,798.26,364.84Z" transform="translate(-734.669 -288.932)"/><path class="l" d="M784.949,415.07c-2.434-5.092-9.414-9.51-14.414-4.924-3.415,3.133-3.87,9.277-3.135,13.554,1.038,6.045,5.867,10.656,11.654,6.329" transform="translate(-741.685 -330.144)"/><path class="m" d="M757.034,331.13c-.026.15.258.156.3.01s-.068-.289-.173-.4c-2.443-2.516-6.642-2.669-9.762-1.069A3.77,3.77,0,0,0,745.8,331a1.664,1.664,0,0,0,.114,1.961,1.084,1.084,0,0,0,1.736-.29,1.17,1.17,0,0,0-.664-1.311,2.843,2.843,0,0,0-1.57-.178,11.4,11.4,0,0,0-9.448,7.542.97.97,0,0,0-.044.7c.1.219.447.318.579.118" transform="translate(-729.839 -299.949)"/></g><path class="n" d="M626.973,664.912c-1.213-8.6.484-17.683,1.781-26.518a511.716,511.716,0,0,1,11.483-56.122c3.916-14.851,7.242-30.455,15.148-43.82,3.815-6.448,8.724-12.5,15.428-16.1,5.115-2.747,18.988-7.013,23.282-1.2,6.576,8.906,5.907,27.75,7.716,38.411,2.518,14.836,4.82,29.766,4.691,44.857-.12,14.163-6.541,27.263-11.489,40.221-4.648,12.172-9.809,24.331-18.956,33.938a28.618,28.618,0,0,1-7.86,6.1c-11.337,5.611-27.62,5.364-35.505-5.39A31.076,31.076,0,0,1,626.973,664.912Z" transform="translate(-494.277 -307.743)"/><path class="o" d="M710.9,599.417A98.483,98.483,0,0,0,697.24,633.45c-1.755,8.934-1.761,17.877,1.872,26.345,1.654,3.855,5.291,6.977,6.825,10.584,2.034,4.781,1.515,11.019,1.22,16.154" transform="translate(-520.657 -338.535)"/><path class="p" d="M936.7,735.8a37.546,37.546,0,0,1,7.029,10.311c.631,1.36,1.186,2.98.484,4.3-.635,1.2-2.061,1.7-3.358,2.093-11.259,3.438-26.055,11.786-37.435,6.1-7.634-5-7.355-14.288-3.392-21.534,4.42-8.082,15.081-11.483,23.964-9.045A28.276,28.276,0,0,1,936.7,735.8Z" transform="translate(-596.983 -387.03)"/><path class="e" d="M635.25,652.482a131.081,131.081,0,0,1,23.7,11.6c1.891,1.176,2.838,2.872,4.352,4.338,1.579,1.53,3.649,2.628,5.287,4.134a29.448,29.448,0,0,1,7.191,10.367c2.373,5.6,4.482,11.658,8.19,16.555,3.091,4.084,6.115,7.517,6.762,12.9,1.367,11.38-7.6,22.733-14.889,30.782a4.254,4.254,0,0,1-6.064-.131c-4.754-4.986-9.165-9.892-14.9-13.842a328.116,328.116,0,0,1-34.321-27.171c-6.2-5.617-12.289-11.62-16.054-19.086a16.907,16.907,0,0,1-2.062-6.817,20.941,20.941,0,0,1,1.359-7.124c2.683-8.414,5.879-16.654,9.185-24.84,5.258-13.018,11.378-26.623,14.685-40.26a154.428,154.428,0,0,1,7.084-21.91c2.787-6.831,4.995-14.3,8.366-20.813" transform="translate(-485.124 -324.025)"/><g transform="translate(124.866 316.122)"><g transform="translate(141.098)"><path class="j" d="M886.26,743.932a71.345,71.345,0,0,1-16.875,11.025,10.328,10.328,0,0,0-3.427,2.144,3.217,3.217,0,0,0-.616,3.736c.907,1.427,2.95,1.438,4.634,1.276q13.308-1.28,26.537-3.27a6.742,6.742,0,0,0,2.155-.576c2.173-1.138,2.458-4.1,2.321-6.545-.172-3.052-1.663-3.393-2.831-5.706-.98-1.941.5-3.343.858-5.239a2.812,2.812,0,0,0-2.808-3.181,7.937,7.937,0,0,0-5.6-9.549,1.659,1.659,0,0,1-1.715-1.59,7.869,7.869,0,0,0-5.27-5.446c-1.8-.534-3.723-1.109-5.487-1.6-2.868-.8-4.757,3.23-7,4.4a10.689,10.689,0,0,0-5.937,7.768" transform="translate(-850.686 -700.137)"/><path class="j" d="M858.4,731.829a2.633,2.633,0,0,0-2.566-1.087,6.858,6.858,0,0,0-2.707,1.1,39.8,39.8,0,0,0-10.191,8.819,4.207,4.207,0,0,0-.906,1.517c-.363,1.352.586,2.683,1.535,3.713a35.594,35.594,0,0,0,4.05,3.758c.813.644.819.3,1.856.325" transform="translate(-841.952 -704.467)"/><g transform="translate(1.111)"><path class="q" d="M845.393,791.272l-.343-.272a2.064,2.064,0,0,0-.388-.263c-.19-.091-.667-.269-.768.135a4.927,4.927,0,0,0-.061.812l-.091,1.273,1.652-1.712-1.494-.508a2.235,2.235,0,0,0,.444.046.965.965,0,0,1,.591.273" transform="translate(-843.743 -727.189)"/><path class="r" d="M843.942,790.752l.029-.006,0,.04-.034-.011c0,.01-.017.007-.015,0A.03.03,0,0,1,843.942,790.752Z" transform="translate(-843.81 -727.237)"/><path class="s" d="M874.375,693.294l-24.493,54.951h0a.816.816,0,0,0-.369-.665,1.034,1.034,0,0,0-.868-.023,1.559,1.559,0,0,0-.891-1.157,1.756,1.756,0,0,1-2.455-.55,2.823,2.823,0,0,0-.489-.069L869.227,691c.873-1.957,2.732-3.032,4.154-2.4S875.248,691.337,874.375,693.294Z" transform="translate(-844.147 -688.419)"/><path class="r" d="M849.574,783.307h0l-3.8,3.939a1.486,1.486,0,0,1-.2.205c-.12.073-.058.056-.163-.01a5.145,5.145,0,0,0-.419-.323,1.344,1.344,0,0,0-.248-.1,1.491,1.491,0,0,0-.636-.049.851.851,0,0,0-.108.016l.426-5.978.074-.168a2.822,2.822,0,0,1,.489.069,1.756,1.756,0,0,0,2.455.55,1.559,1.559,0,0,1,.891,1.157,1.034,1.034,0,0,1,.868.023A.816.816,0,0,1,849.574,783.307Z" transform="translate(-843.841 -723.48)"/><path class="t" d="M844.74,780.838l-.112-.007" transform="translate(-844.079 -723.476)"/><path class="t" d="M852.977,784.813h0a.983.983,0,0,1,0,.176" transform="translate(-847.244 -724.986)"/></g><path class="j" d="M870.662,730.83c-3.515,6.346-9.056,11.288-14.583,15.987-1.622,1.38-3.428,3.309-2.752,5.33a3.6,3.6,0,0,0,3.3,2.18,9.247,9.247,0,0,0,4.044-1.007c5.841-2.543,12.045-6.54,15.785-11.83" transform="translate(-846.212 -704.508)"/><path class="j" d="M878.994,746.171A93.954,93.954,0,0,1,865.8,756.724a15.706,15.706,0,0,0-4.173,3.45,4.81,4.81,0,0,0-.652,5.1,4.621,4.621,0,0,0,4.167,2.038,11.474,11.474,0,0,0,4.625-1.41,48.026,48.026,0,0,0,15.58-12.176" transform="translate(-848.989 -710.328)"/></g><g transform="translate(0 8.264)"><path class="c" d="M744.376,767.634c-3.561-1.519-6.351-3.918-9.626-5.975q-7.873-4.944-15.84-9.733c-10.859-6.491-21.914-12.666-33.294-18.183a259.671,259.671,0,0,0-37.15-14.812,197.79,197.79,0,0,0-19.729-4.978c-4.984-.981-9.268.07-14.124-.549,2.345,3.032,4.523,6.244,6.884,9.282,1.619,2.083,5.124,8.116,8.054,8.487,2.524.321,100.517,50.326,114.168,57.3a103.51,103.51,0,0,1,9.446-17.226C750.292,771.337,746.844,768.687,744.376,767.634Z" transform="translate(-614.613 -706.162)"/><path class="c" d="M922.777,751.6c-8.762.765-17.8,3.178-26.378,5.336A170.763,170.763,0,0,0,862.73,769.3c-4.114,2.024-8.082,4.261-12.026,6.539-5.624,3.249-11.2,6.583-17.067,9.5a3.738,3.738,0,0,1-1.56.367,103.512,103.512,0,0,0-9.446,17.226l1.589.812s31.817-30.764,94.434-16.749c.989.221,6.306-5.982,7.039-6.678l14.217-13.487c2.168-2.056,10.559-7.64,11.175-10.6C951.957,752.043,926.946,751.238,922.777,751.6Z" transform="translate(-693.525 -720.622)"/><path class="u" d="M960.421,753.326l-4.4-7.862s-49.755-7.52-117.789,33.5c0,0-.246-.184-.7-.519-1.445,2.155-2.845,4.341-4.17,6.575C837.909,782.9,919.3,745.353,960.421,753.326Z" transform="translate(-697.596 -718.118)"/><path class="v" d="M651.858,701.735l-6.431,9.571,116.434,57.426.208-.1c1.325-2.234,2.724-4.419,4.17-6.575C758.775,756.546,692.385,708.18,651.858,701.735Z" transform="translate(-626.302 -701.735)"/></g><g transform="translate(62.331 73.15)"><path class="w" d="M827.7,833.04c4.207.775,8.031-.913,11.046-3.741a124.875,124.875,0,0,0,9.223-9.056c1.56-1.8,5.03-4.979,5.378-7.413.505-3.531-3.135-2.389-5.007-1.351a45.732,45.732,0,0,0-6.652,4.495" transform="translate(-757.779 -807.859)"/><path class="w" d="M779.393,835.429c2.85-.28,5.7.333,8.541.69a56.463,56.463,0,0,0,16.426-.533c4.227-.729,6.434-6.843,8.414-10.268,1.116-1.931,4.385-5.951,3.939-8.287-1-5.266-10.374,4.009-11.781,5.161-.927.758-1.735,2.076-2.78,2.636-2.625,1.409-9.15-1.673-11.757-2.419q-7.964-2.279-15.992-4.324c-3.857-.982-7.749-1.55-11.594-.52-1.27.34-1.606.03-2.812.554" transform="translate(-732.096 -809.75)"/><path class="w" d="M765.954,832.416c-2.167-.1-4.494-.547-6.621-.467-2.555.1-5.123,1.442-7.641,1.882-4.01.7-8.117-.051-12.109-.845-4.793-.954-9.581-1.969-14.282-3.312-3.4-.971-8.75-1.785-9.924-5.722a13.2,13.2,0,0,1-.184-5.034,22.977,22.977,0,0,1,1.008-5.505c1.086-3.072,4.049-7,7.514-6.745a84.294,84.294,0,0,1,13.587,2.047,18.512,18.512,0,0,0,5.489.259c3.3-.506,6.513-1.307,9.838-1.694,3.222-.375,5.582-1.638,8.971-.6a3.59,3.59,0,0,1,1.976,1.218,2.778,2.778,0,0,1,.419,1.792,6.016,6.016,0,0,1-2.666,4.132c-3.926,2.914-9.035,2.668-12.857,5.925" transform="translate(-715.041 -806.281)"/></g></g><path class="e" d="M905.757,602.25a207.493,207.493,0,0,1,7.278,35.763c1.563,13.819-.942,27.667-11.181,37.8" transform="translate(-598.712 -339.609)"/><path class="x" d="M917.523,704.64l.245.4-1.1-5.465a1.146,1.146,0,0,1,.027-.775" transform="translate(-604.312 -376.235)"/><path class="e" d="M710.437,825.877c5.476,1.89,8.863-1.042,11.626-5.465a88.718,88.718,0,0,0,5.69-10.667c2.448-5.455,6.166-17.08,1.345-22.28-3.669-3.956-8.267-5.806-13.184-7.883" transform="translate(-526.098 -406.88)"/><path class="n" d="M898.546,531.117a8.261,8.261,0,0,1,3.824,3.577c3.238,7.636-2.842,15.37-5.229,22.2-2.918,8.344-3.649,18.839-.849,27.271.822,2.476,1.974,5.177.953,7.578-1.147,2.7-4.77,3.662-7.514,2.63s-4.678-3.533-5.993-6.154c-6.236-12.436-9.772-30.838-8.437-44.667.386-4,1.111-11.376,4.726-13.968S893.066,528.133,898.546,531.117Z" transform="translate(-588.532 -311.496)"/><path class="x" d="M908.661,726.368c1.522-9.084,8.648-14.309,17.829-14.112,5.271.114,10.358,1.851,15.308,3.666" transform="translate(-601.294 -381.338)"/><path class="x" d="M914.612,712.621c.632-11.681,10.881-18.806,22.177-14.88" transform="translate(-603.552 -375.422)"/><g transform="translate(460.226 26.556)"><path class="y" d="M1285.087,403.909h-84.659V254.168l84.659,11.288Z" transform="translate(-1172.201 -234.12)"/><g transform="translate(39.995 75.039)"><rect class="z" width="24.953" height="21.791" transform="translate(21.791 0) rotate(90)"/><rect class="aa" width="21.551" height="18.53" transform="translate(20.16 1.701) rotate(90)"/><g class="ab" transform="translate(1.631 1.701)"><g class="ac"><g transform="translate(-12.335 -9.717)"><rect class="v" width="42.247" height="10.423" transform="translate(0 22.863) rotate(-32.763)"/><rect class="v" width="42.247" height="6.477" transform="matrix(0.841, -0.541, 0.541, 0.841, 10.08, 32.943)"/></g></g></g><rect class="z" width="1.433" height="21.791" transform="translate(11.612 23.372) rotate(180)"/></g><g transform="translate(79.326 75.039)"><rect class="z" width="24.953" height="21.791" transform="translate(21.791 0) rotate(90)"/><rect class="aa" width="21.551" height="18.53" transform="translate(20.16 1.701) rotate(90)"/><g class="ab" transform="translate(1.631 1.701)"><g class="ad"><g transform="translate(-12.335 -9.717)"><rect class="v" width="42.247" height="10.423" transform="matrix(0.841, -0.541, 0.541, 0.841, 0, 22.863)"/><rect class="v" width="42.247" height="6.477" transform="matrix(0.841, -0.541, 0.541, 0.841, 10.08, 32.943)"/></g></g></g><rect class="z" width="1.433" height="21.791" transform="translate(11.612 23.372) rotate(180)"/></g><g transform="translate(39.91 109.656)"><rect class="z" width="24.953" height="21.791" transform="translate(21.791 0) rotate(90)"/><rect class="aa" width="21.551" height="18.53" transform="translate(20.16 1.701) rotate(90)"/><g class="ab" transform="translate(1.631 1.701)"><g class="ae"><g transform="translate(-12.335 -9.717)"><rect class="v" width="42.247" height="10.423" transform="translate(0 22.863) rotate(-32.763)"/><rect class="v" width="42.247" height="6.477" transform="matrix(0.841, -0.541, 0.541, 0.841, 10.08, 32.943)"/></g></g></g><rect class="z" width="1.433" height="21.791" transform="translate(11.612 23.372) rotate(180)"/></g><g transform="translate(79.241 109.656)"><rect class="z" width="24.953" height="21.791" transform="translate(21.791) rotate(90)"/><rect class="aa" width="21.551" height="18.53" transform="translate(20.16 1.701) rotate(90)"/><g class="ab" transform="translate(1.631 1.701)"><g class="af"><g transform="translate(-12.335 -9.717)"><rect class="v" width="42.247" height="10.423" transform="matrix(0.841, -0.541, 0.541, 0.841, 0, 22.863)"/><rect class="v" width="42.247" height="6.477" transform="matrix(0.841, -0.541, 0.541, 0.841, 10.08, 32.943)"/></g></g></g><rect class="z" width="1.433" height="21.791" transform="translate(11.612 23.372) rotate(180)"/></g><g transform="translate(79.241 42.529)"><rect class="z" width="24.953" height="21.791" transform="translate(21.791 0) rotate(90)"/><rect class="aa" width="21.551" height="18.53" transform="translate(20.16 1.701) rotate(90)"/><g class="ab" transform="translate(1.631 1.701)"><g class="af"><g transform="translate(-12.335 -9.717)"><rect class="v" width="42.247" height="10.423" transform="matrix(0.841, -0.541, 0.541, 0.841, 0, 22.863)"/><rect class="v" width="42.247" height="6.477" transform="matrix(0.841, -0.541, 0.541, 0.841, 10.08, 32.943)"/></g></g></g><rect class="z" width="1.433" height="21.791" transform="translate(11.612 23.372) rotate(180)"/></g><g transform="translate(39.91 42.529)"><rect class="z" width="24.953" height="21.791" transform="translate(21.791 0) rotate(90)"/><rect class="aa" width="21.551" height="18.53" transform="translate(20.16 1.701) rotate(90)"/><g class="ab" transform="translate(1.631 1.701)"><g class="af"><g transform="translate(-12.335 -9.717)"><rect class="v" width="42.247" height="10.423" transform="matrix(0.841, -0.541, 0.541, 0.841, 0, 22.863)"/><rect class="v" width="42.247" height="6.477" transform="matrix(0.841, -0.541, 0.541, 0.841, 10.08, 32.943)"/></g></g></g><rect class="z" width="1.433" height="21.791" transform="translate(11.612 23.372) rotate(180)"/></g><path class="ag" d="M1298.167,492.436a6.1,6.1,0,0,1,1.628-5.537,5.668,5.668,0,0,1,5.445-1.395,2.822,2.822,0,0,0,1.162.206c.721-.1,1.158-.847,1.542-1.486,1.6-2.668,4.185-4.864,7.2-5.264s6.363,1.39,7.216,4.4a5.709,5.709,0,0,1,8.216,2.771,7.724,7.724,0,0,1,8.793,6.31" transform="translate(-1209.229 -319.374)"/><path class="ag" d="M1155.081,490.87a6.1,6.1,0,0,1,1.629-5.538,5.67,5.67,0,0,1,5.445-1.395,2.818,2.818,0,0,0,1.161.206c.721-.1,1.158-.847,1.542-1.485,1.6-2.668,4.186-4.865,7.2-5.264s6.363,1.39,7.215,4.4a5.708,5.708,0,0,1,8.216,2.771,7.724,7.724,0,0,1,8.793,6.309" transform="translate(-1154.949 -318.78)"/><g transform="translate(62.545 137.748)"><g class="ah"><rect class="ai" width="31.32" height="16.717" transform="translate(16.717) rotate(90)"/></g><rect class="ai" width="1.646" height="4.703" transform="translate(12.42 12.934)"/><rect class="ai" width="31.32" height="16.717" transform="translate(16.717) rotate(90)"/></g><rect class="aj" width="84.659" height="3.469" transform="translate(28.226 32.218)"/><g transform="translate(20.668)"><path class="ai" d="M1285.935,252.617H1188.25l8.735-30.751H1277.2Z" transform="translate(-1188.25 -221.866)"/></g></g><g transform="translate(556.755 147.04)"><g transform="translate(0 20.37)"><path class="ak" d="M1354.45,456.519q.2.179.4.364a16.329,16.329,0,0,1,3.4,4.158,10.333,10.333,0,0,1,.74,5.819q-.036.421-.085.841a26.919,26.919,0,0,1-3.118,9.816,11.424,11.424,0,0,1-1.967,2.744c-3.694,3.6-9.991,4.973-14.963,4.973-11.841,0-21.441-7.777-21.441-17.371a14.663,14.663,0,0,1,1.725-6.837,12.355,12.355,0,0,1,2.648-3.293,20.191,20.191,0,0,1,6.012-3.665C1335.94,450.935,1347.539,450.446,1354.45,456.519Z" transform="translate(-1313.109 -449.946)"/><path class="ak" d="M1382.329,471.178a7.386,7.386,0,0,0,4.081-1.3c.282-.192,1.231-1.3,1.507-1.285.471.034.438.875.4,1.2-.359,3.347-3.285,6.269-6.384,7.262" transform="translate(-1337.587 -456.317)"/><path class="ak" d="M1329.561,456.146a13.722,13.722,0,0,0,.577-4.535c.033-1.175-.268-3.549,1.538-2.566,2.635,1.435,3.217,4.448,2.412,7.164" transform="translate(-1317.718 -448.812)"/><path class="ak" d="M1316.284,470.79c-1.994-.642-5.449-.894-5.74,1.824a13.848,13.848,0,0,0,3,9.61,3.327,3.327,0,0,0,1.339,1.227,2.808,2.808,0,0,0,1.121.158,3.987,3.987,0,0,0,2.79-1.169" transform="translate(-1310.48 -456.99)"/><path class="ak" d="M1334.014,499.433a51.218,51.218,0,0,0-.06,5.616c.019.427.091.932.472,1.125a1.229,1.229,0,0,0,.574.087l5.262-.043a.314.314,0,0,0,.375-.305,34.542,34.542,0,0,0,.935-5.8" transform="translate(-1319.366 -468.015)"/><path class="ak" d="M1356.586,499.481q.5,2.676,1.14,5.321a.925.925,0,0,0,.211.465.846.846,0,0,0,.4.184,9.471,9.471,0,0,0,2.621.131l3.821-.165a.367.367,0,0,0,.426-.392c.44-2.627.071-5.429.641-8" transform="translate(-1327.97 -467.102)"/><circle class="ak" cx="1.36" cy="1.36" r="1.36" transform="translate(8.713 12.279)"/><path class="al" d="M1357.085,457.151a5.047,5.047,0,0,1-1.812-.174,21.314,21.314,0,0,0-9.145.031c-.657.156-1.572.577-2.036-.115-.508-.758.667-1.193,1.277-1.349a15.823,15.823,0,0,1,2.755-.37,34.1,34.1,0,0,1,3.819-.137,16.174,16.174,0,0,1,3.185.358c.516.127,3.1.839,2.34,1.574A.773.773,0,0,1,1357.085,457.151Z" transform="translate(-1323.184 -451.168)"/><path class="ak" d="M1367.323,483.882a15.2,15.2,0,0,1-6.984,6.07" transform="translate(-1329.394 -462.116)"/><path class="ak" d="M1333.718,452.817a5.19,5.19,0,0,1,.441,3.664" transform="translate(-1319.295 -450.332)"/></g><g transform="translate(18.417)"><ellipse class="am" cx="5.02" cy="6.17" rx="5.02" ry="6.17" transform="translate(1.288 5.528) rotate(-33.407)"/><ellipse class="am" cx="5.02" cy="6.17" rx="5.02" ry="6.17" transform="translate(0 6.378) rotate(-33.407)"/></g></g></g><path class="an" d="M1286.315,280.639a10.921,10.921,0,0,0-9.153,4.513,19.715,19.715,0,0,0-3.558,9.884c-.713,6.359.886,13.608,6.224,17.137a18.376,18.376,0,0,0,8.391,2.574,23,23,0,0,0,8.568-.533,12.461,12.461,0,0,0,6.981-4.779,14.364,14.364,0,0,0,2.144-7.1,22.62,22.62,0,0,0-5.892-17,18.986,18.986,0,0,0-16.834-5.681,10.056,10.056,0,0,0-4.555,1.927" transform="translate(-326.248 -38.043)"/><path class="n" d="M1317.87,279.811l4.948-6.035,1.9,3.018Z" transform="translate(-343.101 -35.923)"/><path class="n" d="M1319.167,284.667h5.586l-.621,2.276Z" transform="translate(-343.593 -40.055)"/></g></svg>