<svg xmlns="http://www.w3.org/2000/svg" xmlns:xlink="http://www.w3.org/1999/xlink" width="625.491" height="529.981" viewBox="0 0 625.491 529.981"><defs><style>.a{fill:url(#a);}.b{clip-path:url(#e);}.c{fill:url(#f);}.d{fill:url(#g);}.e{fill:url(#h);}.f{fill:url(#i);}.g{fill:url(#j);}.h{fill:url(#k);}.i,.x{fill:none;}.i,.j,.k,.n,.s{stroke:#100052;}.i,.j,.k,.n,.q,.s,.t,.x{stroke-linecap:round;stroke-linejoin:round;}.j,.m{fill:#feca84;}.k,.l{fill:#100052;}.n{fill:#685545;}.o{fill:url(#l);}.p{fill:url(#m);}.q{fill:#f6aacb;stroke:#f6aacb;}.r{fill:#ce71ad;}.s,.u{fill:#fff;}.t,.z{fill:#bbdbf9;}.t{stroke:#bbdbf9;}.v{fill:#8ab1c5;}.w{fill:#c6d9e2;}.x{stroke:#fff;}.y{fill:url(#n);}.aa{fill:url(#o);}.ab{fill:url(#p);}.ac{fill:url(#q);}.ad{fill:url(#r);}.ae{fill:url(#s);}.af{fill:url(#t);}</style><linearGradient id="a" y1="0.5" x2="1" y2="0.5" gradientUnits="objectBoundingBox"><stop offset="0" stop-color="#ff9077"/><stop offset="1" stop-color="#e9645a"/></linearGradient><clipPath id="e"><path class="a" d="M824.245,559.991c-94.682-4.047-174.819,10.149-226.078-29.723a112.79,112.79,0,0,1-15.311-14.411c-40-46.025-27.9-113.372-26.12-122.5,15.83-81.354,89.651-119.6,99.077-124.3,16.439-8.184,12.881-2.975,56.744-19.816,56.114-21.544,67.836-32.335,99.979-41.432,10.118-2.863,49.167-13.175,89.169-8.106,72.471,9.182,138.114,67.582,166.63,137.808,28.232,69.527,17.459,144.213-10.809,194.552-5.916,10.535-8.973,15.979-15.311,22.518C1002.294,595.77,943.961,565.107,824.245,559.991Z" transform="translate(-553.643 -198.329)"/></clipPath><linearGradient id="f" x1="0.592" y1="1.217" x2="0.386" y2="-0.385" xlink:href="#a"/><linearGradient id="g" x1="0.456" y1="1.265" x2="0.536" y2="0.097" xlink:href="#a"/><linearGradient id="h" x1="1.276" y1="0.591" x2="0.037" y2="0.294" xlink:href="#a"/><linearGradient id="i" x1="0.515" y1="-2.337" x2="0.497" y2="1.052" xlink:href="#a"/><linearGradient id="j" x1="0.092" y1="0.058" x2="1.106" y2="1.157" xlink:href="#a"/><linearGradient id="k" x1="-0.38" y1="-0.682" x2="6.632" y2="8.737" xlink:href="#a"/><linearGradient id="l" x1="0.467" y1="-0.523" x2="0.552" y2="3.387" gradientUnits="objectBoundingBox"><stop offset="0" stop-color="#6599b3"/><stop offset="1" stop-color="#45496b"/></linearGradient><linearGradient id="m" x1="0.531" y1="-4.32" x2="0.393" y2="17.366" xlink:href="#l"/><linearGradient id="n" x1="-0.949" y1="-0.229" x2="-0.141" y2="-0.229" xlink:href="#a"/><linearGradient id="o" x1="-12.042" y1="-15.579" x2="-12.432" y2="-13.689" gradientUnits="objectBoundingBox"><stop offset="0" stop-color="#2a7195"/><stop offset="1" stop-color="#060c39"/></linearGradient><linearGradient id="p" x1="-10.307" y1="-9.345" x2="-10.449" y2="-8.574" xlink:href="#o"/><linearGradient id="q" x1="0.713" y1="-0.573" x2="0.336" y2="1.476" gradientUnits="objectBoundingBox"><stop offset="0" stop-color="#faebd8"/><stop offset="1" stop-color="#ffb83f"/></linearGradient><linearGradient id="r" x1="0.516" y1="0.293" x2="0.373" y2="1.104" xlink:href="#q"/><linearGradient id="s" x1="0.124" y1="0.484" x2="0.87" y2="0.484" xlink:href="#l"/><linearGradient id="t" x1="-0.224" y1="0.509" x2="0.522" y2="0.509" xlink:href="#l"/></defs><g transform="translate(-507.634 -143.904)"><g transform="translate(507.634 514.998)"><path class="a" d="M520.56,745.151c2.2-.825,4.29-3.025,6.655-2.09,1.485.6,3.079,2.145,4.729.77a16.362,16.362,0,0,0,1.989-1.882,12.9,12.9,0,0,0,.1-1.584A12.169,12.169,0,0,0,522.067,728a11.684,11.684,0,0,0-7.662,2.869,2.6,2.6,0,0,1,.6.917,15.882,15.882,0,0,1,.99,3.85c.275,1.925-.66,3.63-.715,5.5A3.993,3.993,0,0,0,520.56,745.151Z" transform="translate(-510.103 -728.001)"/><path class="a" d="M513.526,737.283a15.88,15.88,0,0,0-.99-3.85,2.6,2.6,0,0,0-.6-.917,12.5,12.5,0,0,0-4.3,9.5,11.948,11.948,0,0,0,23.831,1.584,16.362,16.362,0,0,1-1.989,1.882c-1.65,1.375-3.245-.165-4.729-.77-2.365-.935-4.455,1.265-6.655,2.09a3.993,3.993,0,0,1-5.28-4.015C512.866,740.913,513.8,739.208,513.526,737.283Z" transform="translate(-507.634 -729.647)"/></g><g transform="translate(536.865 178.482)"><path class="a" d="M824.245,559.991c-94.682-4.047-174.819,10.149-226.078-29.723a112.79,112.79,0,0,1-15.311-14.411c-40-46.025-27.9-113.372-26.12-122.5,15.83-81.354,89.651-119.6,99.077-124.3,16.439-8.184,12.881-2.975,56.744-19.816,56.114-21.544,67.836-32.335,99.979-41.432,10.118-2.863,49.167-13.175,89.169-8.106,72.471,9.182,138.114,67.582,166.63,137.808,28.232,69.527,17.459,144.213-10.809,194.552-5.916,10.535-8.973,15.979-15.311,22.518C1002.294,595.77,943.961,565.107,824.245,559.991Z" transform="translate(-553.643 -198.329)"/><g class="b"><g transform="translate(-19.418 -37.753)"><g transform="translate(1.725)"><path class="c" d="M784.53,471.69c-37.892,6.316-74.635,3.445-111.378-8.038-42.484-13.2-75.208-39.613-110.8-67.171q-4.692-3.619-9.395-7.221l-27.162,155.83h481.452V373.817c-12.339,2.711-24.786,8.853-34.407,14.053C910.834,420.021,855.719,460.782,784.53,471.69Z" transform="translate(-525.793 -224.571)"/><path class="d" d="M597.25,138.906,568.545,303.6q4.7,3.6,9.395,7.22c35.595,27.557,68.319,53.967,110.8,67.171,36.743,11.482,73.486,14.353,111.378,8.038,71.189-10.908,126.3-51.669,188.308-83.82,9.621-5.2,22.068-11.343,34.407-14.053V138.906Z" transform="translate(-541.383 -138.906)"/><path class="e" d="M1438.482,138.906h-154.89V459.427l154.89,75.358Z" transform="translate(-802.14 -138.906)"/></g><path class="f" d="M523.078,639.552l483.177.757,154.89,77.047-580.474,3.86Z" transform="translate(-523.078 -321.477)"/></g></g></g><g transform="translate(608.128 306.342)"><rect class="g" width="90.185" height="151.308" transform="translate(0)"/><circle class="h" cx="3.97" cy="3.97" r="3.97" transform="translate(78.201 75.654)"/></g><path class="i" d="M1032.321,550.288c2.118,9.9,1.651,19.287.325,29.174-.714,5.328-1.478,10.7-3.372,15.734-3.4,9.034-9.72,13.087-18.247,16.7" transform="translate(-183.573 -148.196)"/><path class="j" d="M1059.494,468.043c3.1,8.724,2.446,18.827,2.172,27.785a233.232,233.232,0,0,0,2.048,38.76,4.159,4.159,0,0,1-.279,2.84,4.019,4.019,0,0,1-1.8,1.291,89.406,89.406,0,0,1-30.129,7.849c-3.814-18.873-4.3-38.239-4.773-57.492-.246-9.974-.907-19.939-.95-29.918-.022-4.9-1.581-21.008,7.421-15.125,7.911,5.17,20.344,11.822,24.75,20.43A29.652,29.652,0,0,1,1059.494,468.043Z" transform="translate(-188.912 -108.983)"/><path class="k" d="M1029.706,512.611c-.024-6.291-.52-12.844,1.587-18.89,1.856-5.329,4.227-8.442,9.348-11,4.461-2.229,10.844-.968,15.271,1.252a15.354,15.354,0,0,1,7.952,10.093c.783,3.363.4,6.872.039,10.306-3.387,32.64-3.6,65.512-4.4,98.317-.176,7.264-.4,14.661-2.781,21.526a8.375,8.375,0,0,1-2.7,4.272,9.266,9.266,0,0,1-4.3,1.292,248.513,248.513,0,0,1-67.557-.755c16.54-6.581,28.524-21.7,35.225-38.2s8.781-34.44,10.6-52.147A245.515,245.515,0,0,0,1029.706,512.611Z" transform="translate(-173.05 -123.13)"/><path class="l" d="M853.65,339.729c-1.015,4.18,1.572,8.732,5.425,10.644-5.119,2.116-11.177,5.7-10.617,11.208.464,4.571,5.3,7.19,9.513,9.012-2.594,1.818-2.994,5.7-1.717,8.6s3.817,5.02,6.331,6.947c4.1,3.142,10.293,5.963,13.926,2.292a21.678,21.678,0,0,0,34.735-21.178c4.587-5.366,7.673-12.329,7.126-19.366-.527-6.787-4.921-13.423-11.534-15.564-6.893-2.232-13.2,2.147-19.929-1.175-4.191-2.07-6.458-6.2-11.354-7.213-6.525-1.351-13.92,2.8-12.146,10.264C859.312,333.167,854.695,335.425,853.65,339.729Z" transform="translate(-124.276 -65.56)"/><path class="m" d="M946.047,445.223c.365,29.155-.468,59.975-4.588,88.729-.877,6.123-2.2,12.492-6.169,17.24-4.962,5.943-11.53,6.98-14.627,14.456-4.125,9.955-5.832,20.716-3.983,31.388.518,2.994,3.766,9.215,3.241,11.937-.427,2.219-2.91,3.568-4.755,5.413-5.369,5.369-9.5,11.186-16.391,14.868-5.017,2.679-10.64,4.008-16.249,4.954-37.139,6.257-69.215,1.807-103.271-15.13C772.4,615.67,760.2,609.634,762.2,600.8c1.79-7.909,11.38-18.05,15.622-25.116,10.2-16.988,19.836-35.063,22.305-55.013,1.053-8.507-1.736-18.115-2.484-26.625a182.621,182.621,0,0,1-.457-27.85q.134-2.06.325-4.118c1.36-14.587,4.606-35.631,14.361-47.314,8.477-10.153,27.819-3.9,39.261-9.647,3.365-1.691,22.826,8.1,27,9.479q12.691,4.2,25.529,7.937C918.493,426.828,945.776,423.547,946.047,445.223Z" transform="translate(-92.752 -95.188)"/><path class="n" d="M962.4,434.192c-6.275,5.677-19.624,5.393-27.488,3.835-17.428-3.451-34.488-38.428-34.488-38.428a156.749,156.749,0,0,0,15.354-3.825,20.872,20.872,0,0,0,10.273-7.481c4.126,2.264,10.041-1.477,15.029,1.112,4.217,2.189,7.364,5.946,10.394,9.607,5.327,6.435,18.708,22.975,12.915,32.768A10.361,10.361,0,0,1,962.4,434.192Z" transform="translate(-143.239 -89.121)"/><path class="n" d="M1014.175,363.83c-7.559,15.266-20.526,35.956-39.016,24.587-15.966-9.818-26.648-19.374-31.273-38.347a55.67,55.67,0,0,1-.33-24.937A49.232,49.232,0,0,1,949.42,310.6c8.175-14.372,20.857-27.059,36.886-31.132,14.828-3.769,26.758,2.193,32.38,16.314C1027.839,318.772,1024.912,342.145,1014.175,363.83Z" transform="translate(-158.512 -49.032)"/><path class="l" d="M961.149,297.536a14.177,14.177,0,0,1-7.614,6.658c-2.4,1.005-5.277,2.926-7.922,2.784-2.8-.15-8.072-3.54-10.478-1.036-1.306,1.36-1.914,4.129-2.185,5.92-.44,2.9-.059,5.87-.45,8.775-1.212,9.02-13.353,5.191-13.927-2.106-.085-1.077.039-2.261-.6-3.136a5.181,5.181,0,0,0-2.008-1.347c-7.121-3.595-8.127-15.172-1.733-19.942-4.281-2.425-4.015-9.88.428-11.994a15.4,15.4,0,0,1,9.778-23.936c-3.535-.806-4.825-5.59-3.348-8.9s4.712-5.431,7.78-7.365a5.543,5.543,0,0,1,3.063-1.156c1.108.049,2.231,1.1,1.91,2.161a16.714,16.714,0,0,1,17.952-10.49c3.382.578,6.946,2.8,7.262,6.219a2.447,2.447,0,1,1,4.574-1.607c5.667-7.528,17.46-9.51,25.275-4.247,3.31,2.229,5.98,6.665,3.943,10.1a15.326,15.326,0,0,1,22.89,11.182c5.775-1.778,12.207,2.69,13.887,8.494s-.565,12.188-4.4,16.857c4.49.555,7.88,5.1,7.8,9.625s-3.144,8.673-7.151,10.775a21.714,21.714,0,0,1-5.111,2.075c.01,5.415-2.438,15.111-9.25,15.635-.762-2.825-.687-4.6-1.93-7.367a26.275,26.275,0,0,1-2.024-5.965,16.983,16.983,0,0,1,3.321-13.711c-7.484-.586-12.783-9.864-9.487-16.608a10.581,10.581,0,0,1-10.52-2.309c-2.4-2.3-4.622-7.521-2.33-10.516a12.772,12.772,0,0,1,.635,5.481,9.663,9.663,0,0,1-2.486,5.993,11.174,11.174,0,0,1-3.576,2.334c-3.385,1.494-4.942.969-5.7,4.849C975.794,288.067,971.6,298.438,961.149,297.536Z" transform="translate(-146.725 -31.338)"/><path class="n" d="M947.233,347.692c-2.607-5.211-9.9-9.64-14.97-4.812-3.468,3.3-3.822,9.649-2.984,14.049,1.186,6.221,6.257,10.89,12.149,6.316" transform="translate(-153.622 -71.804)"/><path class="i" d="M1085.981,338.213a5.251,5.251,0,0,1,3.626,1.033,6.289,6.289,0,0,1,2.975,5.513c-.207,2.181-2.4,4.14-4.528,3.608.427-.587,1.345-.092,1.851.429a5.173,5.173,0,0,1,1.535,2.357c.422,1.918-1.585,5.817-3.711,5.907-.049-.152.024-.256.182-.3" transform="translate(-210.906 -70.844)"/><g transform="translate(513.283 508.274)"><path class="o" d="M516.526,783.6l73.237-66.182h461.055l85.55,66.182Z" transform="translate(-516.526 -717.418)"/><rect class="p" width="619.842" height="13.798" transform="translate(0 66.182)"/></g><path class="n" d="M874.282,609.223a95.419,95.419,0,0,1-10.573-37.564,13.055,13.055,0,0,0-9.845-11.624c-5.424-1.436-11.149-.022-16.58,1.39-7.347,1.91-15.423,4.343-19.338,10.847-3.131,5.2-2.759,11.757-1.64,17.723,3.658,19.527,14.015,37.058,24.416,53.984,3.879,6.312,8,12.825,14.284,16.757s15.366,4.428,20.52-.895" transform="translate(-112.268 -151.532)"/><g transform="translate(746.631 362.462)"><path class="n" d="M884.668,649.15c3.185,5.951,11.525,7.461,17.82,5.025s10.964-7.753,15.221-12.991A371.171,371.171,0,0,0,961.7,572.941c3.032-6.073,5.665-12.317,8.581-18.439,1.8-3.789,6.528-8.83,6.3-13.081-.492-9.165-14.778-12.938-21.744-10.163-11.041,4.4-18.1,16.324-26.214,24.381q-23.112,22.961-44.812,47.287" transform="translate(-883.813 -503.393)"/><path class="n" d="M982.171,521.361c6.755-13.172,19.633-21.9,31.986-30.056,1.576-1.041,3.435-2.128,5.241-1.578,1.393.424,2.318,1.71,3.129,2.921q8.035,12,14.909,24.733a5.44,5.44,0,0,1,.919,3.019,4.877,4.877,0,0,1-1.609,2.769c-4.679,4.757-11.111,6.874-17.312,8.842-3,.952-6.4,1.615-9.215,3.049-3.27,1.665-3.8,3.74-5.394,7.2" transform="translate(-919.681 -488.519)"/><path class="n" d="M1046.642,498.8c-.01-.13-.1.116.029.156a6.127,6.127,0,0,0,3.208-.163,105.976,105.976,0,0,1,16.031-2.851c2.83-.212,5.679-.6,8.477-.869,3.236-.315,6.3.147,9.49-.869a4.334,4.334,0,0,0,1.6-.806,1.805,1.805,0,0,0,.649-1.6,2.549,2.549,0,0,0-1.475-1.589,14.923,14.923,0,0,0-4.922-1.66c-.893-.135-1.8-.189-2.7-.243-4.57-.27-9.041-.451-13.611-.371-3.259.057-6.518-.011-9.777-.027-6.377-.032-12.839.126-19.026,1.828" transform="translate(-938.804 -487.911)"/><path class="n" d="M1048.573,502.9c6.728-.116,13.463-.3,20.188.025a99.616,99.616,0,0,1,13.98,1.839,56.734,56.734,0,0,1,6.694,1.389c1.368.44,4.473,1.5,4.62,3.278.175,2.131-1.928,3.077-3.618,3.478-1.97.467-3.921,1.018-5.9,1.434-1.905.4-3.812.473-5.676.952a32.732,32.732,0,0,1-7.826.991c-6.456.065-12.771-.651-19.232.347" transform="translate(-943.896 -493.321)"/><path class="n" d="M1056.02,530.268l-1.086.573c3.4-1.8,11.512.227,15.307.353a98.208,98.208,0,0,1,10.505,1.145,2.68,2.68,0,0,1,1.953.944,2.209,2.209,0,0,1-.01,2.061c-1.552,3.52-8.677,5.109-12.125,5.8-5.98,1.19-12.115,1.442-18.041,2.934" transform="translate(-945.337 -503.297)"/><path class="n" d="M1050.053,527.607c13.28.194,26.856.345,39.455-3.856a6.439,6.439,0,0,0,2.645-1.4,2.369,2.369,0,0,0,.534-2.757,3.528,3.528,0,0,0-2.694-1.262,246.88,246.88,0,0,0-38.8-2.4" transform="translate(-944.436 -498.116)"/></g><g transform="translate(1018.897 506.176)"><path class="q" d="M1353.493,714.115l-41.138,19.436s20.308,27.263,37.458,24.132c4.793-.875,9.339-4.124,13.127-11.006l57.155-17.464S1366.288,739.969,1353.493,714.115Z" transform="translate(-1312.355 -714.115)"/><path class="r" d="M1441.594,737.879s-5.578,38.521-70.281,28.47c0,0,4.38-.084,13.126-11.006Z" transform="translate(-1333.855 -722.781)"/></g><g transform="translate(869.031 356.279)"><path class="n" d="M1250.128,493.638c1.433,1.2.542,3.474.449,5.342-.086,1.745.646,3.41,1.056,5.109a18.1,18.1,0,0,1-1.52,11.72,39.358,39.358,0,0,1-6.948,9.778,1.685,1.685,0,0,1-.974.651c-.6.067-1.072-.5-1.4-1.009-7.111-11.023-8.179-24.926-6.935-37.984.231-2.417.612-5.005,2.273-6.776,2.752-2.935,9.451-2.658,11.276,1.281.886,1.911.4,4.342.113,6.323-.179,1.253-.828,3.1.031,4.2C1248.141,493.025,1249.4,493.028,1250.128,493.638Z" transform="translate(-1133.7 -478.296)"/><g transform="translate(0 0.602)"><path class="k" d="M1121.433,735.8c2.95.124,6.109.2,8.6-1.381a5.2,5.2,0,0,0,2.032-2.225,8.038,8.038,0,0,0,.033-4.771c-.469-2.363-.987-4.825-2.495-6.7a10.041,10.041,0,0,0-7.961-3.32,26.2,26.2,0,0,0-8.654,2,23.992,23.992,0,0,0-7.728,4.055c-1.942,1.7-3.346,3.94-5.275,5.652a13.943,13.943,0,0,1-9.692,3.361c3.6,2.5,7.888,1.846,12.034,2.224C1108.684,735.275,1115.061,735.536,1121.433,735.8Z" transform="translate(-1081.512 -566.019)"/><path class="s" d="M1082.448,480.48a32.724,32.724,0,0,1-5.979.225c3.011.333,6.065,5.966,7.3,8.4,1.936,3.831,1.263,9.561,1.333,13.712l.2,11.811-3.565,61.629c-1.005,8.158-1.823,16.344-2.517,24.534-1.026,12.107-4.506,28.867,1.569,40.07,2.65,4.887,7.138,6.416,12.4,6.327,8.928-.152,13.142-20.284,23.076-7.473,5.885,7.589-1.135,18.139.95,26.531,1.138,4.581-.6,6.379,4.393,8.772s7.458,1.644,7.253,10.494c-.147,6.337-3.06,12.015-4.24,18.143s1.815,11.129,2.232,17c.317,4.466-.55,9.374-.608,13.919-.108,8.419-.243,16.843-.7,25.252-.421,7.66-1.843,24.552-1.843,24.552s72.6,10.6,85.367,7.766c15.511-3.445,36.79-.609,42.467.353s23.76,3.135,23.76,3.135.441-58.038,2.278-75.053,3.907-20.235,1.641-28.689c-2.349-8.769-13.81-7.942-20.906-10.14a20.8,20.8,0,0,1-4.5-1.788,10.628,10.628,0,0,1-5.052-9.917,29.6,29.6,0,0,1,1.319-5.3,44.7,44.7,0,0,0,1.543-12.707c-.026-3.084.508-9.065-.844-11.837-1.719-3.524-9.175-2.316-12.831-2.3-7.235.041-57.206-3.384-64.439-3.218q-15.838.366-31.68.871l41.029-1.068-.443-26.3s2.186-101.59.994-109.355c-1.016-6.624-5.868-15.351-12-18.5a13.123,13.123,0,0,0-6.216-1.2c-11.164.159-22.292,1.182-33.475,1.189-9.763.005-19.56.276-29.319-.046A173.914,173.914,0,0,0,1082.448,480.48Z" transform="translate(-1076.469 -479.127)"/></g><path class="n" d="M1239.6,483.174c-.321-4.336-4.623-5.132-8.376-4.977l-6.773.28c-2.745.114-16.724-.052-12.02,5.74,2.459,3.026,5.87,1.764,9.14,2.172a87.565,87.565,0,0,0,13.264.672l-.739.029" transform="translate(-1125.699 -478.179)"/><path class="n" d="M1240.451,498.017a11.081,11.081,0,0,0-.872-4.75c-2.2-4.268-8.639-2.044-12.236-1.5-4.782.725-9.613,1.677-13.936,3.94-1.279.669-4.375,2.089-4.462,3.76-.124,2.395,3.743,3.4,5.478,3.4,1.785-.007,3.254-.736,4.938-1.072a40.15,40.15,0,0,1,5.058-.33,52.846,52.846,0,0,0,11.08-1.738" transform="translate(-1124.778 -482.746)"/><path class="n" d="M1239.95,514.382c-.154-.1.071.239-.1.309q-3.74,1.561-7.541,2.968c-2.807,1.039-5.737,2.03-8.723,1.817-1.5-.107-3.211-.732-3.647-2.175a3.064,3.064,0,0,1,.793-2.819,9.03,9.03,0,0,1,2.48-1.765c2.7-1.492,5.513-2.755,8.174-4.31,2.481-1.45,4.471-3.161,6.818-4.82,2.135-1.508,7.875-3.349,7.413,1.523" transform="translate(-1128.754 -486.85)"/><path class="n" d="M1249.409,528.025a10.9,10.9,0,0,1-3.615,2.656c-2.041,1.1-7.828,3.964-9.816,1.723-1.54-1.737,1.869-5.3,3.046-6.392,1.827-1.69,11.549-8.942,12.315-3.314" transform="translate(-1134.494 -493.646)"/></g><path class="j" d="M862.123,458.756c1.243,16.13-.138,32.728-.238,48.6-.069,10.961-.553,21.485,3.3,32.078a18.529,18.529,0,0,1,1.473,5.5c.159,4.044-2.656,7.493-4.6,11.045-5.558,10.174-5.73,22.559-4.074,33.761a99.935,99.935,0,0,0,4.2,17.293c.548,1.626,2.867,5.464,2.138,7.141-1.074,2.468-6.6,2.776-8.778,2.334-3.529-.715-6.613-4.229-5.838-7.745a2.056,2.056,0,0,0,.086-.926c-.13-.523-.69-.795-1.181-1.018-5.075-2.3-7.435-6.619-11.358-10.184a79.947,79.947,0,0,1-11.416-13.271,132.9,132.9,0,0,1-17.352-33.678c-4.8-14.069-5.9-29.087-6.965-43.914-1.9-26.426-6.858-65.222,16.762-84.409a34.16,34.16,0,0,1,15.651-7.112,19.886,19.886,0,0,1,10.961.787" transform="translate(-106.53 -98.439)"/><path class="j" d="M1034.394,565.883a89.785,89.785,0,0,1-3.906,33.556c-1.313,4.162-3.029,8.375-6.221,11.351a28.155,28.155,0,0,1-7.326,4.5q-3.947,1.872-7.956,3.613" transform="translate(-182.828 -153.883)"/><path class="j" d="M893.057,619.674a18.559,18.559,0,0,0,1.18-5.065c.147-1.672-.209-5.1-2.112-5.654a4.946,4.946,0,0,0-3,.293c-5.7,2.019-9.522,7.276-12.975,12.245" transform="translate(-134.388 -169.544)"/><path class="t" d="M1007.111,814.144q-17.015-.516-33.951-1.341c1.274,5.965-.461,11.443-.315,17.813,22.145-.286,44.406-.011,66.6-.012.135,0,2.522.067,2.512,0a65.877,65.877,0,0,0-4.862-18.01A285.38,285.38,0,0,1,1007.111,814.144Z" transform="translate(-169.646 -243.852)"/><path class="u" d="M1029.122,790.383a38.248,38.248,0,0,0-5.667-8.905l-11.732-13.728-13.728-16.062H950.972c4.158,11.076,10.026,23.6,13.946,37.8.1.371.191.74.269,1.108q16.926.8,33.951,1.341A285.4,285.4,0,0,0,1029.122,790.383Z" transform="translate(-161.672 -221.641)"/><g transform="translate(591.517 515.143)"><g transform="translate(0)"><path class="v" d="M668.221,743.73c-10.531,13.245-28.557,31.823-28.557,31.823l138.386-2.831c-2.4-1.893-4.614-3.752-6.658-5.569C736.265,767.252,701.191,757.535,668.221,743.73Z" transform="translate(-639.664 -733.882)"/><path class="w" d="M764.2,729.819c-7.036,4.476-72.819-1.59-72.819-1.59a60.294,60.294,0,0,1-6.774,9.848c32.97,13.805,68.044,23.522,103.171,23.423C767.564,743.531,764.2,729.819,764.2,729.819Z" transform="translate(-656.055 -728.229)"/></g><line class="x" x2="47.595" transform="translate(49.698 10.688)"/><line class="x" x2="66.637" transform="translate(42.568 16.121)"/></g><g transform="translate(521.749 520.493)"><path class="q" d="M576.084,736.65s-28.7,14.747-46.233,13.153c0,0,13.551,17.935,35.073,25.11,0,0,17.138-1.594,24.312-9.566l60.183-23.117S606.375,762.955,576.084,736.65Z" transform="translate(-529.851 -736.65)"/><path class="r" d="M585.056,778.115s39.059,18.733,84.495-32.682l-60.183,23.116S597.411,779.71,585.056,778.115Z" transform="translate(-549.983 -739.853)"/></g><g transform="translate(720.19 512.479)"><path class="k" d="M899.03,812.607l-.4.124a1.992,1.992,0,0,0-.415.165c-.173.1-.569.381-.306.677a4.657,4.657,0,0,0,.607.483l.953.754s-.2-.968-.461-2.218l-1.2.9c.117-.073.173-.228.274-.325a.919.919,0,0,1,.532-.318" transform="translate(-862.476 -756.33)"/><path class="s" d="M897.744,814l.011-.026.03.024-.027.02c.008.006,0,.017-.011.01A.028.028,0,0,1,897.744,814Z" transform="translate(-862.451 -756.835)"/><path class="y" d="M847.476,726.074l30.113,48.743v0a.779.779,0,0,0-.722-.067.988.988,0,0,0-.483.67A1.485,1.485,0,0,0,875,775.5a1.674,1.674,0,0,1-1.749,1.638,2.626,2.626,0,0,0-.316.348l-30.02-48.594c-1.072-1.736-.921-3.775.341-4.555S846.4,724.338,847.476,726.074Z" transform="translate(-842.195 -724.037)"/><path class="u" d="M895.23,803.894v0q.532,2.551,1.062,5.1a1.4,1.4,0,0,1,.056.266c-.008.133.012.075-.1.123a4.881,4.881,0,0,0-.479.156,1.312,1.312,0,0,0-.21.143,1.43,1.43,0,0,0-.379.474.787.787,0,0,0-.045.093l-4.476-3.541-.093-.149a2.623,2.623,0,0,1,.316-.348,1.674,1.674,0,0,0,1.749-1.638,1.485,1.485,0,0,1,1.388-.081.988.988,0,0,1,.483-.67A.779.779,0,0,1,895.23,803.894Z" transform="translate(-859.836 -753.112)"/></g><line class="i" x2="21.888" transform="translate(905.416 513.341)"/><g transform="translate(876.767 395.187)"><line class="i" x2="52.003" transform="translate(1.358)"/><line class="i" x2="58.664" transform="translate(1.819 6.5)"/><line class="i" x2="53.453" transform="translate(0 17.334)"/><line class="i" x1="49.199" transform="translate(75.486 132.175)"/><path class="i" d="M1144.571,629.23h0Z" transform="translate(-1109.039 -572.171)"/><line class="i" x1="57.854" transform="translate(39.158 74.394)"/><line class="i" x2="75.612" transform="translate(42.634 220.292)"/><line class="i" x2="68.888" transform="translate(41.992 225.107)"/><line class="i" x2="85.584" transform="translate(41.992 229.581)"/><line class="i" x2="62.305" transform="translate(66.235 160.095)"/></g><line class="i" x2="43.668" transform="translate(802.387 559.623)"/><line class="i" x2="42.151" transform="translate(801.424 556.092)"/><line class="i" x2="28.907" transform="translate(795.645 538.437)"/><line class="i" x2="36.685" transform="translate(795.966 540.684)"/><path class="z" d="M978.544,317.292l1.8,11.916c.323,2.139.609,4.484-.522,6.329s-4.308,2.428-5.33.522a4.7,4.7,0,0,1-.06-3.215q2-9.092,4.005-18.182" transform="translate(-170.134 -62.27)"/><path class="z" d="M1032.742,505.017l1.4,9.288c.252,1.667.474,3.495-.407,4.933s-3.358,1.892-4.155.407a3.662,3.662,0,0,1-.046-2.506l3.122-14.173" transform="translate(-190.25 -130.939)"/><g transform="translate(646.056 154.051)"><path class="aa" d="M740.5,177.241c4.7-.867,7.992-5.864,12.755-5.93,5.343,5.71,8.62,15.454,17.836,15.284a3.764,3.764,0,0,0,2.586-1.752,31.92,31.92,0,0,0,1.977-2.8c-.842-11.294-9.1-20.693-20.17-22.014a22.648,22.648,0,0,0-19.157,7.129c.028,1.57.1,3.139.217,4.7C736.612,173.925,736.633,177.731,740.5,177.241Z" transform="translate(-729.452 -159.875)"/><path class="ab" d="M769.73,189.024a3.764,3.764,0,0,1-2.586,1.752c-9.215.17-12.492-9.574-17.836-15.284-4.764.066-8.055,5.064-12.755,5.93-3.864.49-3.885-3.316-3.956-5.386-.113-1.557-.189-3.126-.217-4.7a25.25,25.25,0,0,0-6.687,14.41c-1.6,13.407,7.381,25.5,20.057,27.011S770,204.63,771.594,191.224a25.929,25.929,0,0,0,.113-5A31.921,31.921,0,0,1,769.73,189.024Z" transform="translate(-725.508 -164.056)"/></g><g transform="translate(849.172 599.433)"><path class="ac" d="M1059.807,881.909c5.084-1.578,8.065-7.539,13.325-8.24,6.662,5.61,11.571,15.955,21.74,14.552a4.193,4.193,0,0,0,2.63-2.279,35.618,35.618,0,0,0,1.816-3.356c-2.421-12.38-12.787-21.686-25.208-21.686a25.22,25.22,0,0,0-20.246,10.41c.238,1.733.529,3.457.859,5.164C1055.073,878.753,1055.6,882.961,1059.807,881.909Z" transform="translate(-1048.366 -860.9)"/><path class="ad" d="M1094.345,891.917a4.193,4.193,0,0,1-2.63,2.279c-10.168,1.4-15.078-8.942-21.74-14.552-5.26.7-8.24,6.662-13.325,8.24-4.208,1.051-4.734-3.156-5.085-5.435-.33-1.707-.621-3.431-.859-5.164a28.116,28.116,0,0,0-5.5,16.818c0,15.038,11.526,27.228,25.743,27.228S1096.7,909.14,1096.7,894.1a28.834,28.834,0,0,0-.534-5.542A35.554,35.554,0,0,1,1094.345,891.917Z" transform="translate(-1045.211 -866.875)"/></g><path class="i" d="M921.388,278.587l-2.617-5.691a13.343,13.343,0,0,0-2.809-4.442,4.544,4.544,0,0,0-4.87-1.044,4.925,4.925,0,0,0-1.835,1.734,4.67,4.67,0,0,0-.884,3.848c.4,1.3,2.006,2.248,3.189,1.574a2.214,2.214,0,0,0,.545-3.086,3.266,3.266,0,0,0-3.127-1.2,4.446,4.446,0,0,0-3.572,5.152" transform="translate(-145.024 -44.915)"/><path class="ae" d="M1153.468,231.092l-37.775,41.046,14.553,1.195-18.546,34.2,37.577-40.122-14.928-.68Z" transform="translate(-220.285 -31.795)"/><path class="af" d="M1153.468,143.9l-37.775,41.046,14.553,1.195-18.546,34.2,37.577-40.121-14.928-.68Z" transform="translate(-220.285 0)"/><path class="i" d="M985.456,447.445a25.254,25.254,0,0,0-2.5,7.654" transform="translate(-173.335 -110.693)"/></g></svg>