<svg xmlns="http://www.w3.org/2000/svg" xmlns:xlink="http://www.w3.org/1999/xlink" width="526.2" height="433.271" viewBox="0 0 526.2 433.271"><defs><style>.a,.j{fill:none;}.b{clip-path:url(#a);}.c{fill:url(#b);}.d{fill:url(#c);}.e,.k{fill:#feca84;}.f{fill:url(#d);}.g{fill:url(#e);}.h{fill:#685545;}.h,.j,.k{stroke:#100052;}.h,.j,.k,.p{stroke-linecap:round;stroke-linejoin:round;}.i{fill:#100052;}.l{fill:url(#f);}.m{fill:url(#g);}.n{fill:url(#h);}.o{fill:#e6e7e8;}.p{fill:#bbdbf9;stroke:#bbdbf9;}</style><clipPath id="a"><path class="a" d="M1010.988,494.93c-1.6-28.762-11.639-55.9-20.111-85.05-16.055-55.24-1.618-115.045-63.679-145.533-48.681-23.915-120.541.317-163.777,28.642a114.8,114.8,0,0,0-34.758,36.459c-4.4,7.189-9.4,15.44-12.19,23.4a20.728,20.728,0,0,0-.812,3.007c-7.689,19.131-13.156,39.748-19.476,60.015-13.67,43.841-47.808,90.945-26.32,136.439,18.884,39.983,62.241,58.017,102.241,68.4,86.46,22.454,205.354,20.92,234.384-83.285A129.272,129.272,0,0,0,1010.988,494.93Z" transform="translate(-662.94 -254.612)"/></clipPath><linearGradient id="b" x1="0.226" y1="1.395" x2="-0.073" y2="2.32" gradientUnits="objectBoundingBox"><stop offset="0" stop-color="#ff9077"/><stop offset="1" stop-color="#e9645a"/></linearGradient><linearGradient id="c" x1="0.659" y1="-0.028" x2="0.327" y2="1.327" xlink:href="#b"/><linearGradient id="d" x1="0.477" y1="-0.841" x2="0.555" y2="5.503" gradientUnits="objectBoundingBox"><stop offset="0" stop-color="#6599b3"/><stop offset="1" stop-color="#45496b"/></linearGradient><linearGradient id="e" x1="0.628" y1="8.221" x2="0.479" y2="-0.779" xlink:href="#d"/><linearGradient id="f" x1="0.79" y1="-0.367" x2="0.005" y2="1.914" gradientUnits="objectBoundingBox"><stop offset="0" stop-color="#2a7195"/><stop offset="1" stop-color="#060c39"/></linearGradient><linearGradient id="g" x1="0.487" y1="0.494" x2="0.359" y2="1.008" xlink:href="#f"/><linearGradient id="h" x1="0.517" y1="1.252" x2="0.481" y2="-0.104" gradientUnits="objectBoundingBox"><stop offset="0" stop-color="#fff"/><stop offset="1" stop-color="#bbdbf9"/></linearGradient></defs><g transform="translate(-623.1 -153.947)"><g transform="translate(623.1 153.947)"><g transform="translate(21.984 55.546)"><g class="b"><g transform="translate(-0.001)"><path class="c" d="M744.57,577.05a28.87,28.87,0,0,1-1.16-2.874c-2.032-5.946-2.1-12.357-2.161-18.64q-.284-28.761-1.023-57.515c-.333-12.966-1.259-25.463-7.005-37.282-1.682-3.462-17.674-22.441-17.527-22.808-7.707,19.155-13.181,39.806-19.511,60.1-13.67,43.841-47.807,90.945-26.32,136.439,18.885,39.982,62.241,58.017,102.241,68.4,86.46,22.454,205.354,20.92,234.384-83.286a129.256,129.256,0,0,0,4.5-42.5c-36.276,7.071-69.736,18.747-107.524,26.094-29.843,5.9-60.866,12.154-91.414,8.822C791.229,609.74,754.647,598.643,744.57,577.05Z" transform="translate(-662.938 -336.777)"/><path class="d" d="M969.75,264.348c-48.681-23.915-120.542.317-163.777,28.642a114.8,114.8,0,0,0-34.758,36.459c-4.4,7.189-9.4,15.44-12.191,23.4-3.207,9.137.981,15.625,4.649,24.294,4.587,10.84,9.215,21.818,11,33.452,3.451,22.442-3.878,45.844,1.658,67.864,7.642,30.4,35.545,42.462,63.195,48.905,34.941,8.143,71.993.478,106.485-6.34,37.788-7.348,71.248-19.024,107.524-26.094-1.6-28.762-11.639-55.9-20.111-85.05C1017.373,354.641,1031.81,294.836,969.75,264.348Z" transform="translate(-705.492 -254.612)"/></g><path class="e" d="M840.83,751.729a31.019,31.019,0,0,1-7.3-6.183c-11.926-13.981,3.005-29.178-.239-44.948-1.277-6.207-5.367-11.542-6.985-17.725a68.852,68.852,0,0,1-1.633-22c.986-14.544,4.882-28.059,1.541-42.393-3.151-13.518-1.541-30.043,1.2-43.573,1.067-5.272,1.954-12.949,5.509-17.1,4.487-5.242,13.989-7.35,20.045-10.123,9.261-4.239,16.23-9.524,26.075-12.51q16.508-5.007,33.054-9.89a29.293,29.293,0,0,1,6.452-1.383c11.143-.675,21.8,6.079,30.633,12.032q19.722,13.286,39.135,27.024l.865.613c5.221,3.7,10.592,7.6,13.707,13.192,3.8,6.816,3.671,15.061,3.316,22.856q-1.453,31.908-5.681,63.609c-1.037,7.772-1.366,15.942-5.6,22.8-3.744,6.069-11.691,9.3-14.582,16-4.066,9.422,2.868,16.383,3.215,25.123.356,8.956-4.035,17.525-10.905,23.976-4.566,4.287-10.345,7.06-16.228,9.21-30.214,11.041-63.834,6.876-95.047-.9C854.288,757.662,846.948,755.534,840.83,751.729Z" transform="translate(-735.33 -375.285)"/><g transform="translate(-174.078 318.226)"><path class="f" d="M347.463,899.68l78.832-68.355H922.567l92.084,68.355Z" transform="translate(-347.463 -831.325)"/><rect class="g" width="667.188" height="14.251" transform="translate(0 68.355)"/></g><path class="h" d="M921.429,563.19a36.818,36.818,0,0,0,60.523,6.448c7.6-8.951,10.194-23.122,3.015-32.414-12.217.72-24.217-5.252-36.373-3.834C936.764,534.771,913.408,548.214,921.429,563.19Z" transform="translate(-778.061 -379.464)"/><g transform="translate(98.446 22.406)"><path class="i" d="M1031.966,474.251c4.253-11.758,3.838-15.834,16.732-20.111,4.078-1.353,8.424-2.429,12.643-1.613,4.585.886,7.282,4.384,9.438,8.094,1.639-3.815,5.357-5.53,9.359-5.664,11.6-.391,22.939,8.776,13.349,20.206a9.345,9.345,0,0,1,9.6-.349c4.4,2.686,4.064,9.98,2.139,14.162-.648,1.408-6.326,7.721-8.3,6.182,5.025,3.911,10.642,9.734,8.335,15.669-1.913,4.923-8.07,6.347-13.3,7.076,2.318,2.809,1.573,7.233-.73,10.054s-5.766,4.4-9.142,5.762c-5.5,2.228-13.231,3.456-16.133-1.723a24.923,24.923,0,0,1-32.011-34.1C1030.494,490.543,1029.206,481.883,1031.966,474.251Z" transform="translate(-926.115 -365.598)"/><path class="h" d="M908.895,476.872c-2.547-2.111-6.747-.312-8.2,2.662s-.94,6.495-.258,9.731a14.9,14.9,0,0,0,2.468,6.332c2.4,3.021,6.547,3.875,10.346,4.528" transform="translate(-867.534 -376.225)"/><path class="h" d="M1068.665,477.341c3.175-3.58,8-7.3,11.577-1.828,2.77,4.236-1.045,14.394-3.178,18.367-2.3,4.291-6.684,7.824-11.551,7.665l-.345-2.986" transform="translate(-941.667 -374.784)"/><path class="h" d="M996.6,397.937a88.689,88.689,0,0,1,9.208,39.433c.045,15.14-7.285,33.444-16.719,45.3-11.673,14.666-34.721,36.551-52.577,17.411-17.832-19.115-23.854-44.3-18.681-69.3,4.5-21.74,18.7-40.837,40.053-48.292C974.495,376.69,988.753,382.325,996.6,397.937Z" transform="translate(-874.832 -333.334)"/><path class="i" d="M946.192,328.615c-4.09-1.909-8.54-3.33-13.047-3.065a14.767,14.767,0,0,0-11.224,6.046c-.444-5.566,1.689-14.887-.891-19.966-3.466-6.824-13.921-7.154-20.181-5-3.934,1.354-5.923,3.547-7.977,6.953-.37.614-4.2,8.391-4.238,8.314-1.373-3.081-3.852-3.131-6.529-1.1-3.318,2.519-6.806,5.269-8.166,9.207s.594,9.291,4.724,9.861a17.7,17.7,0,0,0-8.807,28.391c-4.878,2.864-4.438,11.43.708,13.779-13.657,12.172,5.275,25.41,15.526,29.17,2.34-4.161.5-9.256,3.784-13.2,4.023-4.826,10.659-6.632,14.156-12.232a11.259,11.259,0,0,0,.568-1.025c1.743-3.575.907-9.911,3.126-12.761,5.057-6.5,18.821-1.761,25.471-8.621,3.182-3.283,6.285-13.644,10.445-11.694,3.593,1.684,3.834,10.838,7.835,13.653,5.732,4.033,12.609-2.207,18.488,1.616,5.411,3.522,3.542,8.152,4.984,13.72a28.755,28.755,0,0,0,10,15.4c5.725,4.452,14.227,2.88,17.018-4.239,1.971-5.03.436-11.2,1.666-16.4,1.141-4.834,3.285-8.389,1.48-13.768-.428-1.274-6.685-10.748-8.892-7.527,3.927-5.73,5.86-13.266,3.355-19.746s-10.317-10.955-16.754-8.341a17.62,17.62,0,0,0-27.334-10.52c3.666-7.612-7.118-16.387-13.427-18.254-5.954-1.762-12.794,2.568-17.131,6.345a21.648,21.648,0,0,0-17.191-8.391c-9.145.106-28.24,14.948-18.823,25.517-1.126-1.751-2.27-.477-4.483-.744a9.726,9.726,0,0,0-4.141.632,19.041,19.041,0,0,0-9.009,5.593c-2.271,2.772-3.279,6.771-1.825,10.046s5.734,5.229,8.9,3.553" transform="translate(-852.297 -295.218)"/><path class="j" d="M1150.415,555.4a6.032,6.032,0,0,1,4.256.821,7.229,7.229,0,0,1,3.958,6.016c-.019,2.519-2.338,4.982-4.825,4.586.431-.716,1.531-.241,2.163.306a5.955,5.955,0,0,1,1.993,2.546c.675,2.155-1.234,6.821-3.66,7.138-.072-.17,0-.3.178-.368" transform="translate(-979.876 -411.782)"/><path class="j" d="M1084.957,320.792c-.012.18.323.152.356-.026s-.116-.333-.254-.449c-3.2-2.666-8.172-2.323-11.656-.045a4.477,4.477,0,0,0-1.725,1.773,1.974,1.974,0,0,0,.38,2.3,1.286,1.286,0,0,0,2.013-.558,1.39,1.39,0,0,0-.948-1.466,3.375,3.375,0,0,0-1.874-.014,13.53,13.53,0,0,0-10.212,10.08,1.151,1.151,0,0,0,.035.833c.145.245.567.32.7.067" transform="translate(-939.788 -305.626)"/><path class="j" d="M841.615,384.7a8.286,8.286,0,0,1,10.915-9.891c.614.23,1.3.916.881,1.419-1.141.055-2.73-.325-2.616-1.461a1.629,1.629,0,0,1,.412-.84,5.762,5.762,0,0,1,4.22-1.87,17.079,17.079,0,0,1,4.691.661l-.941-1.425" transform="translate(-841.351 -329.314)"/></g><path class="k" d="M1083.19,598.16c4.269-.04,8.395,1.633,12.024,3.88a39.278,39.278,0,0,1,13.624,14.319c10.6,19.189,4.351,42.631-2.731,61.754a201.446,201.446,0,0,1-34.16,58.978c-4.913,5.885-10.57,11.744-17.969,13.75-14.255,3.865-30.864-1.461-37.294-15.306a21.255,21.255,0,0,1-2.134-10.789c.3-3.25,2.784-5.81,3.933-8.765,1.556-4,2.171-7.972,4.262-11.834,3.115-5.753,8.426-11.237,10.341-17.277,2.215-6.988,2.237-15.207,4.015-22.425,3.444-13.983,8.091-31.143,17.266-42.47C1061.545,613.112,1070.163,598.283,1083.19,598.16Z" transform="translate(-820.502 -408.593)"/><g transform="translate(196.324 83.615)"><path class="h" d="M1053.827,721.795c-7.373,3.1-18.907,2.993-25.612-1.954-5.543-4.09-7.394-11.469-8.3-18.3-5.207-39.028,11.155-77.52,26.79-112.481,3.186-7.124,6.815-14.017,10.129-21.074,2.052-4.367,3.087-12.242,7.03-15.14,8.5-6.247,22.276,3.7,24.891,11.912,4.46,14.011-.681,32.61-2.227,46.936-2.239,20.742-4.933,42.016-10.11,62.263-1.641,6.418-4.408,12.815-9.416,17.153" transform="translate(-1018.819 -471.019)"/><path class="h" d="M1110.818,524.182c1.686-13.508-.832-28.452-1.238-42.1-.211-7.108,2.35-25.408-10.334-21.974-7.609,2.06-15.573,3.018-22.845,6.229-11.275,4.977-3.754,10.676-1.4,18.4,3.059,10.035-2.311,33.625,7.031,40.224" transform="translate(-1041.871 -430.142)"/><path class="h" d="M1072.141,441.988c-3.64-5.091-6.12-11.009-9.553-16.294a14.131,14.131,0,0,0-1.881-2.476c-1.71-1.671-4.124-2.357-6.431-2.985-5.41-1.47-9.264-2.7-13.441-6.592-2.232-2.082-6.141-6.647-.753-7.441,2.7-.4,5.938,1.532,8.477,2.258q7.791,2.228,15.691,4.049a19.068,19.068,0,0,1,5.609,1.905,18.5,18.5,0,0,1,4.078,3.722l17.332,19.337" transform="translate(-1027.083 -406.146)"/><path class="h" d="M1069.91,443.774c-6.945-3.408-13.865-6.886-21-9.875a126.142,126.142,0,0,0-15.352-5.126,71.423,71.423,0,0,0-7.577-1.977c-1.617-.258-5.314-.786-6.256.816-1.128,1.917.641,3.838,2.22,5.043,1.842,1.405,3.626,2.879,5.5,4.243,1.8,1.31,3.754,2.314,5.48,3.678a41.475,41.475,0,0,0,7.7,4.769c6.685,3.227,13.568,5.649,19.845,9.756.808.529.6.053,1.275.748" transform="translate(-1019.016 -415.27)"/><path class="h" d="M1065.01,465.523l.844,1.137c-2.646-3.565-12.084-5.405-16.093-7.133a111.416,111.416,0,0,0-11.493-3.944,3.067,3.067,0,0,0-2.5.039,2.613,2.613,0,0,0-1.015,2.18c-.137,4.474,6.482,9.645,9.725,12.059,5.626,4.188,11.88,7.461,17.3,11.942" transform="translate(-1025.912 -428.193)"/><path class="h" d="M1060.33,465.428c-13.9-6.325-28.084-12.836-39.277-23.061a7.609,7.609,0,0,1-2.114-2.648,2.393,2.393,0,0,1,.7-2.918c.949-.591,2.252-.254,3.375.106a306.079,306.079,0,0,1,41.44,16.718" transform="translate(-1018.733 -419.742)"/></g><path class="k" d="M857.192,706.363c2.809.9,4.554,3.918,4.684,6.865.2,4.442-3.581,13.039-6.016,16.89-7.248,11.465-23.612,14.781-36.211,9.755-15.8-6.3-23.394-22.127-31.674-35.748-9.894-16.28-15.26-34.857-20.368-53.063-3.145-11.209-4.832-20.937-2.531-32.349,1.934-9.589,6.572-19.253,15.014-24.2,5.743-3.362,10.013-7.144,16.6-8.116" transform="translate(-708.241 -403.323)"/><g transform="translate(79.844 75.459)"><path class="h" d="M844.752,708.011c7.382,3.075,18.915,2.939,25.606-2.027,5.531-4.105,7.361-11.49,8.253-18.321,5.1-39.043-11.376-77.488-27.11-112.4-3.206-7.115-6.854-14-10.188-21.045-2.064-4.361-3.121-12.233-7.073-15.12-8.521-6.223-22.266,3.761-24.857,11.983-4.42,14.024.774,32.609,2.361,46.929,2.3,20.736,5.052,42,10.287,62.233,1.659,6.415,4.445,12.8,9.465,17.127" transform="translate(-807.64 -456.706)"/><path class="h" d="M812.692,508.692c-.049-13.613,4.247-28.145,6.29-41.646,1.064-7.03.722-25.506,12.9-20.571,7.306,2.959,15.1,4.869,21.931,8.93,10.595,6.3,2.443,11.05-.822,18.43-4.244,9.595-1.748,33.659-11.816,39.086" transform="translate(-809.904 -415.695)"/><path class="h" d="M849.662,425.121c-.113-.141,0,.192.152.159a5.876,5.876,0,0,0,2.974-2.192c4.132-4.7,8.31-9.413,13.236-13.269,4-3.133,17.483-9.415,16.019-16.277-.789-3.7-6.088-1.791-8.563-.759a29.078,29.078,0,0,0-2.806,1.414c-4.641,2.552-9.113,5.144-13.474,8.1-3.108,2.1-6.318,4.066-9.486,6.086-7.662,4.887-13.928,10.011-17.642,18.264" transform="translate(-817.694 -391.365)"/><path class="h" d="M863.508,449.123c6.734-3.293,13.852-4.892,20.877-7.289a42.657,42.657,0,0,0,8.226-3.78c1.882-1.133,3.939-1.893,5.891-2.966,2.031-1.116,3.985-2.348,5.986-3.509,1.717-.995,3.712-2.662,2.844-4.64-.726-1.653-4.45-1.542-6.081-1.468a73.4,73.4,0,0,0-7.746,1.091,129.909,129.909,0,0,0-15.84,3.3c-5.013,1.427-9.956,3.082-14.88,4.783a29.581,29.581,0,0,0-12.155,7.332" transform="translate(-826.908 -406.635)"/><path class="h" d="M880.4,465.838l-1.031.855c3.234-2.682,12.623-3.982,16.8-5.253,3.738-1.138,7.984-2.06,11.77-2.876a3.578,3.578,0,0,1,2.384.055,1.457,1.457,0,0,1,.54,1.667c-.753,3.4-8.1,7.263-11.681,9.063-6.207,3.123-12.835,5.546-18.9,8.894" transform="translate(-839.79 -421.405)"/><path class="h" d="M870.911,460.855c14.543-4.648,29.4-9.437,42.025-17.385a8.507,8.507,0,0,0,2.512-2.089,1.663,1.663,0,0,0-.156-2.419c-.811-.521-2.129-.295-3.278-.043a382.556,382.556,0,0,0-42.986,12.1" transform="translate(-835.155 -412.557)"/></g><path class="k" d="M890.986,744.6q-.356-.212-.738-.4c-3.525-1.753-7.586-2.037-11.523-2.051a71.85,71.85,0,0,0-25.145,4.035,49.036,49.036,0,0,0-16.566,10.038c-4.985,4.671-5.918,9.917-4.731,16.623a68.607,68.607,0,0,0,11.361,26.947c5.419,7.89,18.088,7.6,26.719,6.07,12.009-2.126,23.346-9.42,26.654-21.723,1.809-6.724,1.5-13.815,1.064-20.765C897.671,756.784,897.2,748.284,890.986,744.6Z" transform="translate(-738.634 -473.127)"/><path class="k" d="M1077.442,760.937a13.123,13.123,0,0,0,.09-8.455c-1.168-3.028-3.325-5.552-5.443-8.01a35.564,35.564,0,0,0-6.64-6.471,29.641,29.641,0,0,0-6.838-3.231c-13.987-4.978-27.565-5.268-41.321.174a10.623,10.623,0,0,0-3.967,2.388,11.3,11.3,0,0,0-2.05,3.668,87.412,87.412,0,0,0-5.789,24.633c-.625,7.281-1.751,15.891.771,22.888,5.175,14.355,29.291,22.4,42.687,16.235,7.905-3.64,11.87-10.468,16.45-17.383a74.741,74.741,0,0,0,8.134-16.317C1074.623,767.956,1076.427,764.457,1077.442,760.937Z" transform="translate(-816.112 -468.11)"/><path class="e" d="M1079.857,813.835c-8.031,14.139-17.521,27.32-34.971,26.7-5.635-.2-26.006-6.133-20.864-15.284,2.8-4.985,27.118-.707,33.749-3.631,4.8-2.117,8.44-6.735,11.844-10.555,3.907-4.384,7.043-8.91,13.543-8.842,3.195.033,1.108,3.317.361,4.505C1082.089,809,1081.172,811.518,1079.857,813.835Z" transform="translate(-824.41 -500.054)"/><path class="e" d="M841.271,816.765a18.9,18.9,0,0,0,6.407,7.542c4.96,3.733,11,6.261,17.2,6.236a29.866,29.866,0,0,0,9.871-1.908c1.436-.513,2.746-.947,4.231-1.352,4.337-1.184,8.757-5.5,11.53-8.957,3.243-4.046,5.217-9.088,4.466-14.322-.872-6.07-5.431-11.2-10.959-13.857s-11.9-3.094-18-2.448c-7.1.752-16.775,3.236-22.347,8.119C838.65,800.222,838.964,811.184,841.271,816.765Z" transform="translate(-742.15 -493.428)"/></g></g><g transform="translate(0 285.533)"><path class="l" d="M653.286,708.52c4.76-1.786,9.283-6.545,14.4-4.523,3.213,1.309,6.665,4.641,10.235,1.666a35.289,35.289,0,0,0,4.3-4.071,27.89,27.89,0,0,0,.211-3.429c0-14.776-11.59-26.754-25.887-26.754a25.284,25.284,0,0,0-16.579,6.207,5.628,5.628,0,0,1,1.3,1.985,34.3,34.3,0,0,1,2.143,8.33c.595,4.165-1.428,7.854-1.547,11.9C641.624,705.9,647.455,710.662,653.286,708.52Z" transform="translate(-630.661 -671.41)"/><path class="m" d="M635.849,692.974a34.3,34.3,0,0,0-2.143-8.33,5.629,5.629,0,0,0-1.3-1.985,27.057,27.057,0,0,0-9.308,20.547c0,14.775,11.59,26.753,25.887,26.753,13.173,0,24.047-10.168,25.676-23.324a35.281,35.281,0,0,1-4.3,4.071c-3.57,2.975-7.022-.357-10.235-1.666-5.117-2.023-9.639,2.737-14.4,4.522-5.831,2.142-11.662-2.618-11.424-8.687C634.421,700.828,636.443,697.139,635.849,692.974Z" transform="translate(-623.1 -676.452)"/></g><g transform="translate(294.784)"><path class="n" d="M1240.56,159.261q1.554-.8,3.259-1.51c19.49-8.083,38.988-3.066,51.972,12.986a108.725,108.725,0,0,1,12.541,19.416c3.451-8.027,14.665-10.328,22.512-6.486s12.688,11.986,15.648,20.207c10.715-2.71,22.956,3.4,27.234,13.588.885,2.111,1.531,4.458,3.247,5.974a19.268,19.268,0,0,0,3.508,2.074c6.468,3.623,9.192,11.969,7.983,19.282s-5.627,13.7-10.609,19.191c-10.477,11.545-26.477,20.666-41.265,15.728-6.953,8.96-17.719,14.284-28.724,17.02-16.205,4.029-35.66,1.945-46.055-11.124a81.33,81.33,0,0,1-60.4,2.809c-3.01-1.061-6.1-2.413-8.015-4.969s-2.115-6.643.364-8.653c-12.335,2.788-24.63-6.095-31.268-16.858-3.033-4.918-5.339-10.512-5.159-16.286s3.286-11.7,8.593-13.989c-4.675-7.728-2.78-17.871,1.442-25.855,4.487-8.484,11.676-15.809,20.712-19.045,9.593-3.437,18.683-.938,27.129,3.852C1222.984,175.788,1228.484,165.488,1240.56,159.261Z" transform="translate(-1157.328 -153.947)"/></g><g transform="translate(284.534 115.52)"><path class="o" d="M1160.722,364.654a22.47,22.47,0,0,1,4.093,2.8c.808.678,1.519.715,2.472,1.378,1.873,1.3,3.463,3.035,3.019,5.536a4.783,4.783,0,0,1,3.575,1.465,2.617,2.617,0,0,1-.109,3.577,12.06,12.06,0,0,0-1.151.8,3.87,3.87,0,0,0-.619,1.063,7.169,7.169,0,0,1-10.407,2.867,8.309,8.309,0,0,1-12.153-1.159c-1.735,1.13-4.091.6-5.878-.448a3.291,3.291,0,0,1-1.467-1.424,1.381,1.381,0,0,1,.552-1.789c-4.186,1.8-4.952-6.976-2.522-8.9a6.657,6.657,0,0,1,2.517-1.043c1.27-.331,2.944-.506,3.589.637C1146.177,362.658,1155.88,362.161,1160.722,364.654Z" transform="translate(-1138.753 -363.301)"/><path class="p" d="M1175.709,382.446c.012-.067.022-.135.03-.2a7.16,7.16,0,0,0-6.127.207,3.28,3.28,0,0,0-1.261,4.6c-.074-.148-.371-.222-.371-.3-2-2.671-4.3-5.489-7.715-5.192-2.6.222-4.155,2.745-5.045,5.118a8.864,8.864,0,0,0-.074,2.819c-.074-.52-.519-.816-.964-1.113v-.222a1.8,1.8,0,0,0-.891,0c-.3.148-.593.148-.89.3a1.444,1.444,0,0,0-.816.668,11.816,11.816,0,0,0-1.116,2.182,4.971,4.971,0,0,0,4.376-.248,8.418,8.418,0,0,0,5.823,3.239c1.739.166,2.993-.438,4.6-.893,2.035-.578,1.431-.614,3.524-.341,2.742.358,4.4.286,6.932-1.154,2.707-1.537,6.108-8.7.693-9.409A6.883,6.883,0,0,0,1175.709,382.446Z" transform="translate(-1144.005 -371.475)"/></g></g><path class="p" d="M1125.643,399.45c-1.776,2.012-.634,5.355,1.438,7.062a4.589,4.589,0,0,0,4.455,1.1,4.05,4.05,0,0,0,1.946-1.886,6.08,6.08,0,0,0,.728-2.765,5.553,5.553,0,0,0-4.479-5.545c-2.575-.353-5.284,1.926-5.087,4.518" transform="translate(-224.791 -109.109)"/></g></svg>