<svg xmlns="http://www.w3.org/2000/svg" xmlns:xlink="http://www.w3.org/1999/xlink" width="542.255" height="467.027" viewBox="0 0 542.255 467.027"><defs><style>.a{fill:url(#a);}.b{fill:url(#b);}.c{fill:url(#c);}.d{fill:url(#d);}.e{fill:url(#e);}.f{fill:url(#f);}.g{fill:url(#g);}.h{fill:url(#h);}.i{fill:url(#i);}.j{fill:url(#j);}.k{fill:url(#k);}.l{fill:url(#l);}.m{fill:url(#m);}.n{fill:url(#n);}.o{fill:#fff;}.p,.t{fill:#2a7195;}.p,.r,.s,.t,.v,.x,.y{stroke:#100052;stroke-linecap:round;stroke-linejoin:round;}.p{stroke-width:1.175px;}.q{fill:#0a052b;}.r,.s,.v,.x{fill:#685545;}.r{stroke-width:1.644px;}.s{stroke-width:1.841px;}.t{stroke-width:1.222px;}.u{fill:#12073c;}.v{stroke-width:1.553px;}.w{fill:#100052;}.x{stroke-width:1.651px;}.y{fill:#feca84;stroke-width:1.716px;}.z{fill:url(#o);}.aa{fill:url(#p);}.ab{fill:url(#q);}.ac{fill:url(#r);}.ad{fill:url(#s);}</style><linearGradient id="a" x1="0.079" y1="0.494" x2="0.542" y2="0.507" gradientUnits="objectBoundingBox"><stop offset="0" stop-color="#4fa5ad"/><stop offset="1" stop-color="#99cbcf"/></linearGradient><linearGradient id="b" x1="0.156" y1="0.947" x2="0.37" y2="0.633" xlink:href="#a"/><linearGradient id="c" x1="0" y1="0.5" x2="1" y2="0.5" xlink:href="#a"/><linearGradient id="d" x1="0.6" y1="-0.305" x2="0.289" y2="2.015" xlink:href="#a"/><linearGradient id="e" x1="0.713" y1="-0.573" x2="0.336" y2="1.476" gradientUnits="objectBoundingBox"><stop offset="0" stop-color="#ff9077"/><stop offset="1" stop-color="#e9645a"/></linearGradient><linearGradient id="f" x1="0.516" y1="0.293" x2="0.373" y2="1.104" xlink:href="#e"/><linearGradient id="g" x1="0.79" y1="-0.367" x2="0.005" y2="1.914" gradientUnits="objectBoundingBox"><stop offset="0" stop-color="#2a7195"/><stop offset="1" stop-color="#060c39"/></linearGradient><linearGradient id="h" x1="0.487" y1="0.494" x2="0.359" y2="1.008" xlink:href="#g"/><linearGradient id="i" x1="-12.391" y1="8.229" x2="-12.418" y2="10.264" xlink:href="#e"/><linearGradient id="j" x1="-13.036" y1="10.011" x2="-11.872" y2="10.011" xlink:href="#e"/><linearGradient id="k" x1="-54.514" y1="96.403" x2="-54.451" y2="97.086" xlink:href="#e"/><linearGradient id="l" x1="-39.791" y1="32.197" x2="-39.071" y2="33.118" xlink:href="#e"/><linearGradient id="m" x1="-40.742" y1="25.424" x2="-41.638" y2="38.345" xlink:href="#e"/><linearGradient id="n" x1="-57.096" y1="33.512" x2="-55.704" y2="33.512" xlink:href="#e"/><linearGradient id="o" x1="-13.798" y1="0.481" x2="-12.448" y2="0.234" xlink:href="#g"/><linearGradient id="p" x1="-22.001" y1="0.375" x2="-18.965" y2="-1.07" xlink:href="#g"/><linearGradient id="q" x1="-13.059" y1="0.537" x2="-10.911" y2="0.914" xlink:href="#g"/><linearGradient id="r" x1="-20.033" y1="-1.15" x2="-15.771" y2="1.055" xlink:href="#g"/><linearGradient id="s" x1="15.4" y1="4.42" x2="16.065" y2="4.42" gradientUnits="objectBoundingBox"><stop offset="0" stop-color="#faebd8"/><stop offset="1" stop-color="#ffb83f"/></linearGradient></defs><g transform="translate(-489.066 -186.048)"><g transform="translate(489.066 186.048)"><path class="a" d="M581.967,515.176c1.935,26.107,12.257,50.874,32.256,68.279a111.435,111.435,0,0,0,43.223,24.1c104.509,30.792,209.018-7.363,313.527-3.347,14.772.535,29.613,1.2,44.478,2.088a149.361,149.361,0,0,0,10.863-15.567c36.274-59.74,19.379-124.985,16.212-137.219q-1.335-5.153-2.922-10.063c-31.583,30.477-57.454,66.552-98.3,81.1-41.288,15.4-90.317,12.049-124.508-18.074-42.578-38.156-65.8-88.361-93.542-138.566-14.838-25.437-33.546-46.858-58.706-60.246q-13.462-7.226-27.04-13.9a245.768,245.768,0,0,0-79.08,72.134,270.692,270.692,0,0,0-18.948,31.669C572.122,428.289,578.242,472.661,581.967,515.176Z" transform="translate(-506.955 -224.274)"/><path class="b" d="M953.084,661.308c-104.509-4.016-209.018,34.139-313.527,3.347a111.434,111.434,0,0,1-43.223-24.1c-20-17.4-30.321-42.172-32.256-68.279-3.725-42.515-9.845-86.886-42.493-117.611-35.879,70.115-48.181,163.79-5.127,220.314,12.081,15.86,25.186,24.42,34.542,30.412,58.432,37.423,100.662,9.586,216.675,11.948,84.811,1.726,98.877,17.349,146.543,1.086,17.3-5.9,54.905-19.336,83.343-55.031C982.7,662.51,967.856,661.843,953.084,661.308Z" transform="translate(-489.066 -281.376)"/><path class="c" d="M991.266,301.581c-25.944-19.546-61.133-46.058-110.954-57.565-58.54-13.521-129.237-4.46-188.885,29.963q13.584,6.659,27.04,13.9c25.16,13.388,43.868,34.809,58.706,60.246,27.74,50.205,50.964,100.41,93.542,138.566,34.191,30.122,83.22,33.469,124.508,18.074,40.851-14.551,66.723-50.626,98.305-81.1C1074.423,364.239,1029.237,330.189,991.266,301.581Z" transform="translate(-560.88 -204.491)"/><path class="d" d="M654.858,831.009c4.458-5.483,12.7-7.643,20.4-9.245a447.041,447.041,0,0,1,75.758-9.067c12.617-.43,25.418-.317,37.721,2.29,10.3,2.181,20,6.058,30.133,8.746a134.514,134.514,0,0,0,63.493,1.184c8.753-1.988,17.175-4.865,25.907-6.914,20.835-4.889,43.784-4.635,64.411,1.6,15.14,4.579,47.023,17.139,39.6,34.5-2.7,6.317-9.377,10.96-16.79,13.431s-15.553,3.021-23.566,3.169a178.292,178.292,0,0,1-38.074-2.977c-14.276-2.846-27.835-7.952-42.053-11.01-31.353-6.742-64.56-3.181-95.177,4.865-18.5,4.861-36.589,11.371-55.916,13.112-27.092,2.44-67.286-.79-84.069-21.844C651.472,846.374,649.7,837.349,654.858,831.009Z" transform="translate(-546.805 -408.367)"/><g transform="translate(92.98 16.237)"><path class="e" d="M646.248,230.176c4.589-1.424,7.278-6.8,12.025-7.436,6.013,5.063,10.443,14.4,19.62,13.133a3.785,3.785,0,0,0,2.373-2.057,32.284,32.284,0,0,0,1.639-3.029c-2.184-11.172-11.54-19.57-22.75-19.57a22.762,22.762,0,0,0-18.272,9.394c.214,1.564.477,3.12.776,4.66C641.976,227.329,642.451,231.126,646.248,230.176Z" transform="translate(-635.924 -211.217)"/><path class="f" d="M677.538,238.984a3.785,3.785,0,0,1-2.373,2.057c-9.177,1.266-13.607-8.07-19.62-13.133-4.747.633-7.436,6.012-12.025,7.436-3.8.95-4.272-2.848-4.589-4.9-.3-1.541-.561-3.1-.775-4.66a25.376,25.376,0,0,0-4.96,15.178c0,13.571,10.4,24.573,23.232,24.573s23.232-11,23.232-24.573a26.078,26.078,0,0,0-.482-5A32.3,32.3,0,0,1,677.538,238.984Z" transform="translate(-633.195 -216.385)"/></g><g transform="translate(458.89 384.959)"><path class="g" d="M1218.541,807.044c3.113-1.168,6.07-4.281,9.417-2.958,2.1.856,4.359,3.035,6.693,1.09a23.059,23.059,0,0,0,2.814-2.662,18.241,18.241,0,0,0,.138-2.242c0-9.663-7.579-17.5-16.93-17.5a16.535,16.535,0,0,0-10.842,4.059,3.69,3.69,0,0,1,.849,1.3,22.478,22.478,0,0,1,1.4,5.448c.389,2.724-.933,5.137-1.011,7.783A5.65,5.65,0,0,0,1218.541,807.044Z" transform="translate(-1203.743 -782.774)"/><path class="h" d="M1208.732,795.812a22.477,22.477,0,0,0-1.4-5.448,3.691,3.691,0,0,0-.849-1.3,17.7,17.7,0,0,0-6.088,13.438c0,9.663,7.58,17.5,16.93,17.5a17.135,17.135,0,0,0,16.792-15.255,23.063,23.063,0,0,1-2.814,2.663c-2.335,1.946-4.592-.234-6.693-1.09-3.347-1.323-6.3,1.79-9.417,2.958a5.65,5.65,0,0,1-7.472-5.682C1207.8,800.949,1209.12,798.536,1208.732,795.812Z" transform="translate(-1200.394 -785.007)"/></g><g transform="translate(103.642 53.395)"><g transform="translate(219.722)"><g transform="translate(18.282 9.71)"><path class="i" d="M1059.364,283.866c2.686.524,25.779,5.443,35.511,27.1,4.734,10.535,9.045,31.124-3.068,42.655-11.383,10.837-33.833,10.4-50.131-4.994-1.932,2.917-3.32,5.242-5.856,7.641l-17.166-12.99,14.669-21.618c.95-1.4,2.125-2.939,3.793-3.073,1.379-.112,2.614.794,3.653,1.71,2.878,2.537,5.383,5.525,8.519,7.729s7.186,3.564,10.822,2.315c5.081-1.746,7.461-8.178,6.209-13.437s-9.529-12.6-9.529-12.6l-1.364-1.429S1057.412,289.219,1059.364,283.866Z" transform="translate(-1018.654 -283.866)"/></g><g transform="translate(0)"><path class="j" d="M1061.994,268.815c2.685.525,25.78,5.443,35.511,27.1,4.735,10.535,9.044,31.124-3.069,42.655-11.382,10.836-33.833,10.4-50.13-4.994-1.933,2.917-3.321,5.242-5.857,7.641l-17.166-12.99c4.89-7.206,18.462-24.691,18.462-24.691s9.037,7.235,12.173,9.439,7.186,3.564,10.821,2.315c5.082-1.746,7.461-8.178,6.208-13.437s-9.528-12.6-9.528-12.6l-1.429-1.434S1060.041,274.169,1061.994,268.815Z" transform="translate(-1001.305 -268.815)"/><path class="k" d="M1018.317,404.391l-19.072-5.209a12.314,12.314,0,0,1,19.072,5.209Z" transform="translate(-993.484 -314.148)"/><path class="l" d="M1018.063,406.136l-2.007,7.347a12.42,12.42,0,1,1-23.96-6.544l2.007-7.347Z" transform="translate(-990.786 -315.225)"/><ellipse class="m" cx="12.587" cy="12.419" rx="12.587" ry="12.419" transform="matrix(0.263, -0.965, 0.965, 0.263, 0, 96.506)"/></g><path class="n" d="M1018.654,370.615l1.7-9.709,16.771,12.787-1.3,9.912Z" transform="translate(-1000.371 -301.496)"/><path class="o" d="M1054.341,384.247" transform="translate(-1013.036 -309.78)"/><path class="o" d="M1056.971,369.2" transform="translate(-1013.97 -304.439)"/></g><g transform="translate(0 16.243)"><g transform="translate(28.08 212.046)"><path class="p" d="M1123.687,834.01c9.3-1.708,17.042-2.577,9.617-13.537-3.376-4.985-11.44-5.047-17.1-6.6-11.174-3.073-24.007-6.753-34.671-10.319-6.112-2.044-11.71-5.183-17.375-3.489-20.945,6.263-9.558,20.662-1.936,33.185a6.756,6.756,0,0,0,2,2.328,4.44,4.44,0,0,0,2.466.853c16.817,1.335,33.263-1.244,50.124-1.939A48.257,48.257,0,0,0,1123.687,834.01Z" transform="translate(-820.634 -685.462)"/><path class="q" d="M824.676,707.414c5.842-10.789,12.7-21.613,19.37-32.1,2.5,2.84,6.335,6.636,8.483,9.4,7.034,9.054,13.013,17.768,20.163,26.389,9.076,10.943,17.978,21.524,28.326,31.467,4.325,4.155,10.722,12.842,16.6,14.6,4.958,1.484,13.422-3.776,17.816-5.887a53.078,53.078,0,0,0,10.605-6.175c2.688-2.173,6.889-6.414,6.5-10.181s-4.155-8.961-5.8-12.391c-3.827-7.979-7.857-15.865-12.246-23.552a222.5,222.5,0,0,0-31.8-43.391c-14.075-14.777-24.075-28.739-47.945-32.08-35.643-4.991-62.253,13.219-89.386,37.108-6.87,6.049-23.735,20.379-31.3,26.976-7.25,6.318-15.445,9.578-21.188,15.12-12.3,11.877-17.6,25.688-19.132,41.955-.646,6.865-1.214,12.908,2.233,19.051,9.156,16.313,18.007,28.81,39.058,28.516,24.822-.347,34.328-15.555,50.116-34.427,10.94-13.077,27.167-30.49,37.17-46.11C823.031,710.582,823.848,708.943,824.676,707.414Z" transform="translate(-693.25 -622.686)"/></g><path class="r" d="M988.46,614.289c-6.875,7.694-3.92,23.21-.828,31.306a15.609,15.609,0,0,0,3.594,6.009c3.892,3.631,10.375,3.108,14.783.123,7.4-5.007,11.373-14.6,10.311-23.318-.7-5.774-4.64-11.088-9.077-14.687-3.5-2.838-8.257-4.514-12.582-3.252A13,13,0,0,0,988.46,614.289Z" transform="translate(-768.446 -406.153)"/><g transform="translate(16.197 187.407)"><path class="s" d="M1048.575,782.771c-2.829,7.663-14.249,11.687-21.158,7.579-8.3-4.935-13.415-15.316-18.486-22.413-12.964-18.139-22.7-35.754-33.661-55.287-4.413-7.867-4.729-17.309,6.231-20.664,8.414-2.575,17.609,4.507,22.978,9.65,13.52,12.951,22.41,26.752,30.283,43.3,3.351,7.043,6.035,14.382,8.963,21.935C1045.561,771.609,1050.633,777.2,1048.575,782.771Z" transform="translate(-780.431 -622.447)"/><path class="t" d="M1103.795,865.817a41.037,41.037,0,0,0,6.033.528c9.293-.055,16.858-1.491,12.373-12.9-2.04-5.189-9-6.822-13.5-9.3-8.881-4.888-16.818-9.12-24.658-15.93-1.913-1.661-5.456-6.685-8.588-6.619-3.512.074-4.522,3.872-6.9,5.9-5.609,4.789-11.708,7.155-19.194,6.605-.716,7.95.434,15.25,2.043,23.011a2.714,2.714,0,0,0,.713,1.521,2.389,2.389,0,0,0,1.224.483c3.6.719,7.149,1.575,10.747,2.239C1077.285,863.79,1090.377,864.066,1103.795,865.817Z" transform="translate(-807.667 -668.637)"/><path class="u" d="M820.363,671.529a173.036,173.036,0,0,1,13.019-30.593,103.428,103.428,0,0,1,7.812,11.878c5.877,10.858,11.608,20.857,18.147,30.8a403.534,403.534,0,0,0,26.412,36.114c4.965,5.994,9.9,11.6,15.224,17.487,5.02,5.551,8.8,5.228,15.312.8,4.8-3.26,11.077-7.659,16.206-11.121a8.283,8.283,0,0,0,3.191-3.213,7.363,7.363,0,0,0,.241-4.067c-6.483-35.569-22.617-67.9-44.594-96.668-12.7-16.629-24.21-32.072-47.073-37.156-47.275-10.512-91.171,45.554-119.329,76.885-5.675,6.316-11.129,12.928-17.672,18.318-9.3,7.657-21.259,12.56-27.394,23.5a37.012,37.012,0,0,0-2.1,33.035c5.3,12.35,12.366,24.3,24.493,30.59,11.186,5.8,23.284,7.83,35.662,4.6,25.94-6.778,40.058-25.105,53.642-49.285,7.105-12.647,21.034-33.208,27.609-48.3C819.643,674.042,819.9,672.967,820.363,671.529Z" transform="translate(-674.829 -584.493)"/></g><path class="r" d="M705.328,449.947c2.571-7.634,5.1-15.493,7.124-23.342,1.939-7.508,1.148-18.892,8.365-23.207a10.943,10.943,0,0,1,5.211-1.223c12.1-.585,18.855,3.689,25.762,14.305,1.514,2.327,3.062,4.953,2.787,7.881-.241,2.57-1.832,4.751-3.177,6.911-5.57,8.943-8.372,20.811-8.9,31.34" transform="translate(-669.456 -332.366)"/><path class="v" d="M774.317,390.766a82.285,82.285,0,0,1-6.425,16.736c-1.233,2.395-2.8,4.924-5.366,5.749a10.909,10.909,0,0,1-4.719.1c-13.478-1.719-23.918-10.022-34.353-18.061a12.117,12.117,0,0,1-3.318-3.369c-2.431-4.251-2.2-10.044-2.474-14.764-.358-6.273-1.372-11.852.84-17.981,4.269-11.829,12.135-22.976,23.622-28.1,10.626-4.742,20.339-1.816,26.378,8.041,6.5,9.73,9.074,22.242,8.536,33.791A85.694,85.694,0,0,1,774.317,390.766Z" transform="translate(-673.639 -306.363)"/><path class="w" d="M663.645,352.447c-2.307,2.32-2.418,6.3-.665,9.063-4.164-.641-9.516-.7-11.323,3.108-1.5,3.156.612,6.764,2.638,9.612-2.4.161-4.194,2.528-4.5,4.918s.5,4.769,1.381,7.014c1.428,3.659,4.347,7.935,8.156,6.978a16.488,16.488,0,0,0,30.942-.09c5.1-1.683,9.85-5,12.267-9.79,2.331-4.623,2.088-10.671-1.37-14.67-3.6-4.168-9.434-3.806-12.5-8.617-1.911-3-1.758-6.578-4.544-9.167-3.712-3.449-10.159-3.664-11.946,1.891A6.067,6.067,0,0,0,663.645,352.447Z" transform="translate(-649.722 -313.281)"/><path class="w" d="M733.637,347.425a10.278,10.278,0,0,1-3.654,1.127c-1.526.15-2.779-.655-4.2-.621-1.745.041-1.52,1.325-2.25,2.559a8.853,8.853,0,0,1-2.978,2.721c-1.666,1.062-3.577,2.875-5.578,3.11-2.121.25-6.508-1.61-7.988.579-.8,1.188-.9,3.342-.872,4.72.045,2.229.714,4.407.8,6.635.257,6.917-9.336,5.617-10.71.223a4.541,4.541,0,0,0-.852-2.273,3.936,3.936,0,0,0-1.679-.75c-5.8-1.774-8.053-10.321-3.877-14.722-3.522-1.264-4.287-6.887-1.23-9.045a11.712,11.712,0,0,1,4.234-19.2c-2.754-.147-4.34-3.566-3.66-6.239s2.829-4.68,4.878-6.525a4.213,4.213,0,0,1,2.146-1.262c.837-.106,1.815.536,1.711,1.373a12.712,12.712,0,0,1,12.1-10.183c2.609,0,5.568,1.2,6.247,3.722a1.861,1.861,0,1,1,3.22-1.8,14.689,14.689,0,0,1,18.394-6.451c2.77,1.242,5.344,4.222,4.26,7.058a11.657,11.657,0,0,1,18.6,5.422c4.1-2.08,9.5.438,11.506,4.571s1.153,9.208-1.119,13.2c3.437-.164,6.566,2.8,7.092,6.2a9.849,9.849,0,0,1-3.966,9,16.542,16.542,0,0,1-3.562,2.216,17.812,17.812,0,0,1-.188,7.048c-.3,1.263-1.841,4.622-3.606,4.372a1.781,1.781,0,0,1-1.095-.922,47.464,47.464,0,0,1-2.991-5.191,7.446,7.446,0,0,1-1.058-4.5c.183-1.015,1.354-2.885.7-3.9-.385-.6-1.707-.694-2.339-1.14a6.806,6.806,0,0,1-2.276-3.231c-.555-1.455-.272-4.832-2.032-5.387-1.786-.563-2.58,2.01-3.412,3.124a21.56,21.56,0,0,1-9.7,7.312,7.975,7.975,0,0,0-2.056.946,8.129,8.129,0,0,0-1.325,1.406A18.724,18.724,0,0,1,733.637,347.425Z" transform="translate(-662.311 -293.993)"/><path class="x" d="M736.106,379.176c-1.646-4.115-6.89-7.932-11.042-4.6-2.837,2.281-3.508,7.072-3.15,10.46.5,4.79,4.053,8.65,8.808,5.556" transform="translate(-675.31 -322.14)"/><path class="y" d="M733.532,476.942a19.724,19.724,0,0,0-4.486-5.32c-5.7-4.4-18.061-2.876-24.94-2.357-12.876.97-21.308,5.723-28.956,16.049-7.979,10.773-13.391,23.289-16.934,36.169-4.4,16-6.025,32.633-7.141,49.195-1.6,23.74-2.106,47.692.785,71.356a205.365,205.365,0,0,0,7.211,34.911,166.155,166.155,0,0,0,6.08,16.75c1.15,2.7,1.414,4.493,4.095,5.345,2.636.837,6.605-.216,9.174-.9a35.484,35.484,0,0,0,3.4-1.107c18.49-7,32.335-24.162,43.782-39.511,6.537-9.39,13.633-18.255,19.052-28.392a123.313,123.313,0,0,0,6.775-15.9c1.813-4.939,1.19-8.274.371-13.573-1.357-8.771.25-13.278,5.469-20.105,4.9-6.413,7.779-12.787,6.255-21.062-1.382-7.5-5.332-14.229-8.416-21.205-6.4-14.487-9.185-30.215-14.821-44.975C738.654,488.025,736.5,481.777,733.532,476.942Z" transform="translate(-649.743 -355.952)"/><path class="y" d="M934.364,558.02c-4.486-5.952-6.85-13.34-11.651-19.041-8.859-10.52-23.8-13.071-37.446-14.749-16.557-2.035-33.277-2.759-49.7-5.86-6-1.134-11.775-4.585-17.69-5.422-6.532-.924-14.729,1.039-21.335,1.5-3.619.252-7.622.684-10.044,3.385a8.845,8.845,0,0,0-2.052,6.054c.141,8.106,8.283,13.466,15.632,16.888,20,9.312,41.363,15.422,62.974,19.85" transform="translate(-697.534 -371.609)"/><path class="y" d="M669.207,508.488c2.776-11.075,7.523-23.142,17.422-31.418,9.048-7.563,19.924-6.489,30.823-7.162,14.469-.893,25.1.206,36.3,9.384a478.143,478.143,0,0,0,47.612,34.7c28.6,18.044,64.765,10.1,94.91,24.385a8.021,8.021,0,0,1,3.3,2.365c2.753,3.923-1.447,12.755-3.153,16.307a23.2,23.2,0,0,1-3.821,6.034c-10.621,11.228-29.868,6.707-43.163,5.036-17.616-2.214-34.769-6.66-51.973-10.6-30.16-6.916-52.593-20.724-76.811-39.174" transform="translate(-656.637 -356.332)"/><g transform="translate(203.748 170.353)"><path class="r" d="M997.478,626.8c-.926,3.358-4.792,5.667-7.5,7.505a24.713,24.713,0,0,1-11.479,4.141,3.427,3.427,0,0,0-2.389.828,2.263,2.263,0,0,0,.362,2.891c1.605,1.693,4.327,1.418,6.625,1.013a38.562,38.562,0,0,0,7.342-1.8,32.793,32.793,0,0,0,7.882-4.794c2.485-1.9,5.089-3.44,6.265-6.467" transform="translate(-969.165 -582.453)"/><path class="r" d="M985.1,618.4c.285,1.953-.95,4.938-2.105,6.444-1.285,1.677-4.215,2.508-6.168,2.971-2.37.562-4.218,2.282-6.367,3.531-1.7.99-3.415,1.29-4.358,3.25a2.464,2.464,0,0,0-.292,1.162c.216,4.636,17-1.134,19.479-2.042a13.666,13.666,0,0,0,4.584-2.464c2.589-2.345,3.681-6.505,7.015-7.546" transform="translate(-965.644 -579.473)"/><path class="r" d="M980.685,603.935a42.643,42.643,0,0,1,.552,11.107,3.361,3.361,0,0,1-.379,1.517,3.312,3.312,0,0,1-2.142,1.215c-3.281.811-6.965,1.1-9.367,3.481a2.782,2.782,0,0,0-.973,1.913,2.326,2.326,0,0,0,1.721,2.011,6.4,6.4,0,0,0,2.8.05,68.8,68.8,0,0,0,11.925-2.746,4.856,4.856,0,0,0,2.147-1.149,5.008,5.008,0,0,0,.875-1.606l2.635-6.673" transform="translate(-966.555 -574.339)"/><path class="r" d="M980.344,591.561c-.08-1.809-.275-7.206-3.487-5.182-1.419.894-2.3,3.41-3.372,4.717a12.32,12.32,0,0,1-4.885,3.819,1.943,1.943,0,0,1-1.074.178,1.765,1.765,0,0,1-1.016-.775,5.364,5.364,0,0,1-.939-2.739c-.21-2.976,1.531-5.845,2.386-8.612.787-2.548,1.117-5.624,2.46-7.932,1.288-2.213,3.643-3.589,5.2-5.619a18.092,18.092,0,0,0,2.7-5.951c.569-1.915,1.424-2.577,3.315-3.506,6.751-3.318,18.326-2.8,20.839,5.625a81.726,81.726,0,0,1,2.955,12.78c.595,4.582-.134,9.161-.963,13.664-1.02,5.542-1.508,10.777-4.254,15.8" transform="translate(-965.553 -558.058)"/></g><path class="y" d="M764.934,646.76a137.03,137.03,0,0,0,35-11.971c-8.048,15.211-22.276,28.392-37.411,36.58" transform="translate(-689.751 -414.935)"/></g></g><g transform="translate(261.26)"><path class="z" d="M919.082,281.4c.065-2.447,2.716,7.165,9.146-9.008,3.479-8.752,7.34-17.348,10.955-26.045,4.676-11.25,24.873-47.117,11.5-56.767-16.432-11.856-20.067,38.132-21.132,45.9C927.332,251.659,921.3,265.216,919.082,281.4Z" transform="translate(-902.931 -186.658)"/><circle class="aa" cx="10.529" cy="10.529" r="10.529" transform="translate(3.173 109.701)"/><path class="ab" d="M919.767,279.935a.537.537,0,0,0,.287.032c.488-.068.76-.585.952-1.038,2.351-5.533,4.333-11.089,6.665-16.611q1.867-4.417,3.711-8.841.958-2.294,1.913-4.589c.319-.766,2-3.524,1.772-4.262,4.676-11.25,24.873-47.117,11.5-56.768C930.133,176,926.5,225.99,925.433,233.762c-1.184,8.26-2.266,16.536-3.4,24.8l-1.7,12.4C920.21,271.88,918.339,279.336,919.767,279.935Z" transform="translate(-902.985 -186.048)"/><circle class="ac" cx="10.529" cy="10.529" r="10.529" transform="translate(0 106.318)"/></g><path class="ad" d="M990.773,285.668l-49.444,46.919,17.643,2.659-25.435,40.161L982.663,329.6l-18.143-2.063Z" transform="translate(-646.801 -221.401)"/></g></g></svg>