<svg xmlns="http://www.w3.org/2000/svg" xmlns:xlink="http://www.w3.org/1999/xlink" width="552.993" height="504.526" viewBox="0 0 552.993 504.526"><defs><style>.a,.aa,.ab,.ae,.af,.ag,.i,.v{fill:none;}.b{clip-path:url(#a);}.c{fill:url(#b);}.d{fill:url(#c);}.e{fill:url(#d);}.f{fill:url(#e);}.g{fill:url(#j);}.h,.i{stroke:#707070;stroke-width:2.994px;}.aa,.ab,.ad,.ae,.af,.ag,.h,.i,.n,.o,.s,.u,.v,.w,.x,.y,.z{stroke-linecap:round;stroke-linejoin:round;}.h{fill:url(#v);}.j{fill:url(#w);}.k{fill:url(#x);}.l{fill:url(#y);}.m{fill:url(#z);}.n,.s,.u{fill:#685545;}.aa,.ad,.ae,.af,.ag,.n,.o,.p,.s,.u,.v,.w,.x,.z{stroke:#100052;}.af,.n{stroke-width:0.89px;}.o,.r{fill:#feca84;}.ag,.o,.s{stroke-width:0.97px;}.p,.w,.x{fill:#2a7195;}.p{stroke-miterlimit:10;}.q{fill:#12073c;}.ad,.t{fill:#100052;}.u,.v{stroke-width:0.946px;}.w{stroke-width:1.127px;}.x{stroke-width:1.222px;}.ac,.y{fill:#4fa5ad;}.y{stroke:#060c39;stroke-width:1.091px;}.z{fill:#fff;stroke-width:1.058px;}.aa,.ab{stroke-width:0.716px;}.ab{stroke:#fff;}.ad{stroke-width:2.077px;}.ae{stroke-width:1.432px;}.ah{fill:url(#aa);}.ai{fill:url(#ab);}.aj{fill:url(#ac);}.ak{fill:url(#ad);}.al{fill:url(#ae);}.am{fill:url(#af);}.an{fill:url(#ag);}.ao{fill:url(#ah);}.ap{fill:url(#ai);}.aq{fill:url(#aj);}.ar{fill:url(#ak);}.as{fill:url(#al);}.at{fill:url(#am);}.au{fill:url(#an);}</style><clipPath id="a"><path class="a" d="M955.916,297.607c-.641-1.548-1.3-3.085-1.987-4.6-15.548-34.269-45.708-47.462-80.437-56.446-23.769-6.149-38.582-17.129-55.931-31.253-2.587-2.106-5.231-4.283-7.969-6.524-12.284-10.052-27.032-16.441-42.127-21.018-41.843-12.688-88-12.506-130.617-3.981-47.1,9.422-92.055,30.54-127.2,63.612-7,6.585-77.381,74.907-78.448,164.286a168.87,168.87,0,0,0,5.212,43.81c17.985,70.706,75.353,107.773,93.778,119.678,129.621,83.752,286.608,4.271,294.728,0,24.557-12.919,130.5-68.649,142.9-171.478C971.632,362.068,968.214,327.313,955.916,297.607Z" transform="translate(-431.192 -167.752)"/></clipPath><linearGradient id="b" x1="0.77" y1="0.986" x2="0.605" y2="0.561" gradientUnits="objectBoundingBox"><stop offset="0" stop-color="#fff"/><stop offset="1" stop-color="#bbdbf9"/></linearGradient><linearGradient id="c" x1="0.72" y1="1.244" x2="0.447" y2="0.386" xlink:href="#b"/><linearGradient id="d" y1="0.5" x2="1" y2="0.5" gradientUnits="objectBoundingBox"><stop offset="0" stop-color="#b9bdab"/><stop offset="1" stop-color="#769cae"/></linearGradient><linearGradient id="e" x1="0.359" y1="0.386" x2="0.674" y2="0.713" gradientUnits="objectBoundingBox"><stop offset="0" stop-color="#b9bdab"/><stop offset="0.597" stop-color="#91a9ad"/><stop offset="1" stop-color="#769cae"/></linearGradient><linearGradient id="j" y1="0.5" x2="1" y2="0.5" gradientUnits="objectBoundingBox"><stop offset="0" stop-color="#4fa5ad"/><stop offset="1" stop-color="#99cbcf"/></linearGradient><linearGradient id="v" y1="0.5" x2="1" y2="0.5" gradientUnits="objectBoundingBox"><stop offset="0" stop-color="#faebd8"/><stop offset="1" stop-color="#ffb83f"/></linearGradient><linearGradient id="w" x1="0.713" y1="-0.573" x2="0.336" y2="1.476" xlink:href="#v"/><linearGradient id="x" x1="0.516" y1="0.293" x2="0.373" y2="1.104" xlink:href="#v"/><linearGradient id="y" x1="0.713" y1="-0.573" x2="0.336" y2="1.476" gradientUnits="objectBoundingBox"><stop offset="0" stop-color="#ff9077"/><stop offset="1" stop-color="#e9645a"/></linearGradient><linearGradient id="z" x1="0.516" y1="0.293" x2="0.373" y2="1.104" xlink:href="#y"/><linearGradient id="aa" y1="0.5" x2="1" y2="0.5" gradientUnits="objectBoundingBox"><stop offset="0" stop-color="#2a7195"/><stop offset="1" stop-color="#060c39"/></linearGradient><linearGradient id="ab" x1="0.754" y1="1.146" x2="0.425" y2="0.283" xlink:href="#aa"/><linearGradient id="ac" x1="0.97" y1="0.918" x2="1.96" y2="0.918" xlink:href="#b"/><linearGradient id="ad" x1="0.39" y1="0.781" x2="1.38" y2="0.781" xlink:href="#b"/><linearGradient id="ae" x1="0.211" y1="0.943" x2="1.201" y2="0.943" xlink:href="#b"/><linearGradient id="af" x1="-0.369" y1="0.806" x2="0.622" y2="0.806" xlink:href="#b"/><linearGradient id="ag" x1="0.663" y1="0.632" x2="1.653" y2="0.632" xlink:href="#b"/><linearGradient id="ah" x1="0.014" y1="0.511" x2="1.005" y2="0.511" xlink:href="#b"/><linearGradient id="ai" x1="0.637" y1="0.336" x2="1.627" y2="0.336" xlink:href="#b"/><linearGradient id="aj" x1="-0.023" y1="0.299" x2="0.967" y2="0.299" xlink:href="#b"/><linearGradient id="ak" x1="-0.966" y1="0.249" x2="0.024" y2="0.249" xlink:href="#b"/><linearGradient id="al" x1="0.719" y1="0.158" x2="1.709" y2="0.158" xlink:href="#b"/><linearGradient id="am" x1="0.296" y1="0.023" x2="1.286" y2="0.023" xlink:href="#b"/><linearGradient id="an" x1="-0.268" y1="0.109" x2="0.723" y2="0.109" xlink:href="#b"/></defs><g transform="translate(-403.057 -69.75)"><g transform="translate(403.057 69.75)"><g transform="translate(14.886 51.852)"><g class="b"><g transform="translate(3.104 1.101)"><path class="c" d="M857.6,460.444c-31.746,33.333-52.91,70.9-89.947,99.471-29.63,22.751-59.788,38.624-95.238,48.148-67.725,17.46-133.333-2.645-189.418-47.619a521.433,521.433,0,0,1-45.928-41.115,168.873,168.873,0,0,0,5.212,43.81c17.985,70.705,75.353,107.773,93.778,119.677,129.621,83.753,286.608,4.271,294.728,0,24.557-12.918,130.5-68.648,142.9-171.478,3.813-31.618.394-66.373-11.9-96.08C923.648,419.171,884.82,431.766,857.6,460.444Z" transform="translate(-437.058 -285.404)"/><path class="d" d="M879.369,238.637c-23.769-6.149-38.582-17.128-55.931-31.253-2.587-2.107-5.231-4.284-7.969-6.524-12.284-10.053-27.032-16.441-42.127-21.018-41.843-12.688-88-12.506-130.616-3.982-47.1,9.423-92.056,30.54-127.2,63.612-7,6.585-77.381,74.907-78.448,164.285a521.437,521.437,0,0,0,45.928,41.115c56.085,44.974,121.693,65.079,189.418,47.619,35.45-9.524,65.608-25.4,95.238-48.148,37.037-28.571,58.2-66.137,89.947-99.471,27.219-28.678,66.048-41.273,104.181-45.185-.641-1.547-1.3-3.085-1.987-4.6C944.258,260.815,914.1,247.622,879.369,238.637Z" transform="translate(-437.069 -169.832)"/></g><g transform="translate(131.649 324.466)"><path class="e" d="M933.093,790.042l-.492,18.547h114.615l-1.55-27.594h-2.209C1008.418,789.7,971.376,792.2,933.093,790.042Z" transform="translate(-798.955 -780.994)"/><path class="f" d="M1035.346,780.994l1.447,25.768H995.758l.71,26.764H954.64l-.087,27.82H911.9l-1.218,37.184h218.769l-13.565-117.536Z" transform="translate(-788.634 -780.994)"/><path class="e" d="M933.53,790.042c38.283,2.162,75.326-.341,110.365-9.048H933.77Z" transform="translate(-799.392 -780.994)"/><path class="e" d="M853.507,833.147l-1.614,28.738H968.884l-.762-28.738Z" transform="translate(-760.95 -805.553)"/><path class="e" d="M767.77,917.417H887.237l.093-29.955H770.34Z" transform="translate(-721.336 -831.13)"/><path class="e" d="M802.059,975.326H680.009l3.607-31.25H803.083Z" transform="translate(-680.009 -857.79)"/></g><g transform="translate(405.701 273.204)"><path class="g" d="M1220,827.249a51.335,51.335,0,0,0-3.171-27.639c-1.978-4.706-5.511-8.911-10.216-10.894a8.763,8.763,0,0,0-4.7-.776,4.661,4.661,0,0,0-3.689,2.755,6.321,6.321,0,0,0,.335,4.312c2.2,6.058,7.086,10.667,11.538,15.329s8.81,10.03,9.474,16.442" transform="translate(-1197.968 -732.968)"/><path class="g" d="M1250.005,793.633c2.176-5.162,7.558-17.692,14.76-15.908,8.79,2.177,2.96,11.707-.292,16.311-2.415,3.419-16.691,21.326-19.669,20.549C1240.46,813.451,1248.966,796.1,1250.005,793.633Z" transform="translate(-1219.445 -728.111)"/><path class="g" d="M1254.538,744.669c1.69-3.612,3.468-7.343,6.519-9.912,5.1-4.3,8.1,3.938,7.925,8.143-.185,4.478-3.855,7.925-7.255,10.844l-8.191,7.032c-1.863,1.6-3.026.75-4.9,1.058C1248.284,755.913,1252.117,749.847,1254.538,744.669Z" transform="translate(-1221.817 -707.391)"/><path class="g" d="M1261.686,696.5a17.739,17.739,0,0,1-1.156,3.381c-1.526,3.293-5.373,7.948-9.37,7.773a17.23,17.23,0,0,0-1.493-6.831c-1.248-3.286-1.833-7.084-.3-10.247a13.157,13.157,0,0,1,2.83-3.643,9.55,9.55,0,0,1,4.367-2.7c3.306-.731,5.509,2.008,5.675,5.032A25.507,25.507,0,0,1,1261.686,696.5Z" transform="translate(-1221.739 -684.108)"/><path class="g" d="M1230.167,753.845a22.645,22.645,0,0,0,.764-7.105c.012-9.053-.039-18.421-3.74-26.684a9.476,9.476,0,0,0-3.132-4.228c-4.977-3.277-7.584,2.6-7.647,6.746a25.167,25.167,0,0,0,1.668,8.37,89.485,89.485,0,0,0,5.582,12.992c1.574,2.988,6.123,7.714,6.312,10.946a36.73,36.73,0,0,0-.05-8.3" transform="translate(-1206.652 -698.595)"/><path class="g" d="M1240.279,758.847c.842-9.386,1.686-18.783,3.239-28.078.583-3.487,1.741-7.541,5.077-8.71q-3.829,26.512-5.155,53.305c-.443,8.952.6,17.606.77,26.545q.17,8.818.893,17.614c.241,2.93.593,5.847.86,8.773a6.617,6.617,0,0,1-.186,3.147c-3.937-.561-5.286-13.384-5.827-16.632C1236.853,796.234,1238.6,777.5,1240.279,758.847Z" transform="translate(-1216.935 -701.979)"/><g transform="translate(52.314 40.141)"><path class="g" d="M1326.748,865.567a36.2,36.2,0,0,1,4.832-19.016,14.12,14.12,0,0,1,8.171-6.647,6.179,6.179,0,0,1,3.358-.1,3.289,3.289,0,0,1,2.317,2.275,4.456,4.456,0,0,1-.643,2.982c-2.114,4.025-5.962,6.784-9.514,9.621s-7.106,6.176-8.178,10.594" transform="translate(-1310.923 -797.478)"/><path class="g" d="M1309.428,837.988c-1.032-3.814-3.608-13.08-8.809-12.515-6.35.689-3.177,7.9-1.34,11.427,1.365,2.619,9.646,16.485,11.8,16.223C1314.223,852.743,1309.921,839.81,1309.428,837.988Z" transform="translate(-1296.842 -790.807)"/><path class="g" d="M1316,803.767c-.839-2.685-1.729-5.461-3.618-7.544-2.5-2.758-4.173.259-4.043,2.908.229,4.7,3.1,8.793,5.865,12.6,1.525,2.1,4.369,6.289,4.314,1.478C1318.484,810.059,1316.928,806.729,1316,803.767Z" transform="translate(-1302.253 -776.53)"/><path class="g" d="M1318.266,769.32a15.966,15.966,0,0,0,1.914,4.936c.606,1.016,2.557,3.868,4.063,3.435,1.314-.378,1.807-3.938,1.932-5.03a17.264,17.264,0,0,0-2.46-10.489c-2.541-4.268-5.315-1.686-5.711,2.374A15.937,15.937,0,0,0,1318.266,769.32Z" transform="translate(-1306.772 -759.975)"/><path class="g" d="M1331.43,811.142c-1.411-7.561,1.332-16.554,3.551-23.731.537-1.737,1.223-3.593,2.761-4.562a4.085,4.085,0,0,1,5.98,2.162c.538,1.94-1,4.149-1.842,5.832-2.72,5.432-5.781,10.72-8.665,16.068a11.157,11.157,0,0,0-1.747,5.063,25.31,25.31,0,0,1,.819-5.889" transform="translate(-1312.947 -770.472)"/><path class="g" d="M1322.1,815.426c.3-6.64.6-13.287.394-19.93-.077-2.493-.5-5.435-2.724-6.568q.167,18.891-1.443,37.742c-.538,6.3-2.084,12.248-3.051,18.479q-.953,6.147-2.291,12.225c-.446,2.025-.968,4.03-1.432,6.05a4.667,4.667,0,0,0-.168,2.218c2.8-.02,4.961-8.854,5.646-11.073C1320.958,841.88,1321.508,828.618,1322.1,815.426Z" transform="translate(-1303.655 -773.609)"/></g></g></g></g><g transform="translate(411.807 57.199)"><circle class="h" cx="32.013" cy="32.013" r="32.013" transform="translate(34.809 31.491)"/><path class="i" d="M1383.928,262.175c-.005-.2-.354.059-.2.191s.384.02.549-.095l11.725-8.09" transform="translate(-1276.643 -213.798)"/><path class="i" d="M1401.582,325.57a104.014,104.014,0,0,1,17.141-4.965" transform="translate(-1285.07 -245.077)"/><path class="i" d="M1361.582,391.88a88.175,88.175,0,0,1,11.676,19.43" transform="translate(-1266.234 -278.64)"/><path class="i" d="M1276.288,385.754a50.677,50.677,0,0,0-4.255,19.129" transform="translate(-1224.065 -275.755)"/><path class="i" d="M1216.312,339.436a45.462,45.462,0,0,0-15.45,10.734" transform="translate(-1190.551 -253.944)"/><path class="i" d="M1201.836,290.565a49.191,49.191,0,0,0-20.462-2.583" transform="translate(-1181.374 -229.629)"/><path class="i" d="M1244.96,198.013a110.557,110.557,0,0,0-14.419-20.157" transform="translate(-1204.527 -177.856)"/><path class="i" d="M1334.175,199.753c2.082-4.447,2.951-9.348,3.8-14.183l.515-2.932" transform="translate(-1253.328 -180.108)"/><g transform="translate(32.591 23.344)"><path class="j" d="M1264.692,249.916c6.762-2.1,10.725-10.026,17.72-10.959,8.86,7.461,15.388,21.217,28.911,19.352a5.576,5.576,0,0,0,3.5-3.031,47.178,47.178,0,0,0,2.415-4.462c-3.219-16.463-17-28.839-33.524-28.839a33.54,33.54,0,0,0-26.925,13.844c.316,2.3.7,4.6,1.143,6.867C1258.4,245.719,1259.1,251.315,1264.692,249.916Z" transform="translate(-1249.478 -221.977)"/><path class="k" d="M1308.315,267.6a5.577,5.577,0,0,1-3.5,3.031c-13.523,1.865-20.052-11.891-28.911-19.352-6.995.933-10.958,8.86-17.72,10.959-5.6,1.4-6.3-4.2-6.761-7.228-.44-2.27-.827-4.563-1.143-6.867a37.388,37.388,0,0,0-7.31,22.366c0,20,15.327,36.209,34.235,36.209s34.234-16.212,34.234-36.209a38.354,38.354,0,0,0-.711-7.37A47.181,47.181,0,0,1,1308.315,267.6Z" transform="translate(-1242.972 -234.298)"/></g></g><g transform="translate(0 207.597)"><path class="l" d="M415.766,478.457c3.956-1.227,6.276-5.866,10.368-6.412,5.184,4.366,9,12.414,16.916,11.323a3.264,3.264,0,0,0,2.047-1.773,27.713,27.713,0,0,0,1.413-2.611c-1.884-9.633-9.95-16.875-19.615-16.875a19.625,19.625,0,0,0-15.754,8.1c.185,1.348.412,2.69.669,4.018C412.082,476,412.492,479.275,415.766,478.457Z" transform="translate(-406.864 -462.109)"/><path class="m" d="M441.29,488.8a3.264,3.264,0,0,1-2.047,1.774c-7.913,1.091-11.732-6.958-16.916-11.323-4.093.546-6.412,5.184-10.368,6.412-3.274.819-3.684-2.456-3.956-4.229-.257-1.328-.484-2.67-.669-4.018a21.878,21.878,0,0,0-4.277,13.086c0,11.7,8.968,21.187,20.031,21.187s20.031-9.486,20.031-21.187a22.436,22.436,0,0,0-.416-4.312A27.705,27.705,0,0,1,441.29,488.8Z" transform="translate(-403.057 -469.319)"/></g><g transform="translate(99.845 98.526)"><path class="n" d="M865.443,519.542c-1.021,4.8-1.8,9.136-.776,13.858a17.877,17.877,0,0,1-2.158,13.778,14.629,14.629,0,0,1-12.887,6.621,3.739,3.739,0,0,1-1.994-.59,4.013,4.013,0,0,1-1.184-3.228c-.128-5.077,1.47-10.021,3.05-14.848l5.573-17.032" transform="translate(-711.69 -379.405)"/><path class="o" d="M886.394,389.974a93.766,93.766,0,0,0-2.487,10.847c-.412,3.379-2.084,6.75-3.065,10.034-2.161,7.234-3.772,14.617-5.38,21.989-1.1,5.038-2.24,10.045-3.25,15.1q-.723,3.619-1.353,7.256c-.21,1.213-.16,4.721-1.371,5.464-2.6,1.6-6.538,1.163-9.317.255a5.412,5.412,0,0,1-2.067-1.1,4.464,4.464,0,0,1-1.223-3.442,24.378,24.378,0,0,1,.831-3.789c.306-1.55.384-3.187.576-4.757.529-4.314,1.285-8.578,1.9-12.875.4-2.78,1.341-5.433,1.787-8.191q.821-5.091,1.644-10.183c.538-3.326,1.075-6.653,1.51-9.994a86.721,86.721,0,0,1,2.991-14.271c1.778-5.886,4.373-14.187,9.828-17.656" transform="translate(-716.605 -311.861)"/><path class="p" d="M863.151,867.6c-4.077-.065-8.5-1.356-5.856-6.744,1.2-2.45,4.741-3.258,6.9-4.324,4.259-2.1,8.6-4.157,12.283-7.313,2.112-1.809,4.392-3.6,7.062-4.1,9.872-1.843,7.157,11.37,5.679,17.194a3.5,3.5,0,0,1-.6,1.413,3.006,3.006,0,0,1-1,.708c-6.424,3.207-14.612,2.271-21.552,3.023A24,24,0,0,1,863.151,867.6Z" transform="translate(-716.426 -533.316)"/><path class="p" d="M965.5,874.171c-4.077-.065-8.5-1.355-5.856-6.743,1.2-2.45,4.741-3.258,6.9-4.324,4.259-2.1,8.6-4.156,12.283-7.313,2.112-1.809,4.392-3.6,7.062-4.1,9.872-1.843,7.157,11.37,5.679,17.194a3.5,3.5,0,0,1-.6,1.413,3.011,3.011,0,0,1-1,.708c-6.423,3.207-14.612,2.271-21.551,3.023A23.9,23.9,0,0,1,965.5,874.171Z" transform="translate(-764.625 -536.411)"/><path class="q" d="M975.926,695.9a20.134,20.134,0,0,1-6.425-2.488,2.787,2.787,0,0,1-.75-.587,3,3,0,0,1-.508-1.439,722.326,722.326,0,0,1-9.494-82.849q-1.712-34.071-4.379-68.078-.663-8.449-1.365-16.894c-.3-3.722-1.57-7.7.268-11.029,4.926-8.928,15.824-14.88,25.531-14.244a102.656,102.656,0,0,1,10.132,32.7c3.224,23.74-3.978,47.882-5.388,71.539a236.209,236.209,0,0,0,6.8,72.032q.536,2.106,1.11,4.2c1.018,3.71,3.233,8.466.818,11.786-2.117,2.911-6.073,4.8-9.521,5.43A18.214,18.214,0,0,1,975.926,695.9Z" transform="translate(-761.539 -370.053)"/><path class="q" d="M900.549,681.969c.368,4.953,1.834,10.387.276,15.269-2.28,7.146-11.567,6.392-17.664,5.714-1.818-.2-3.836-.659-4.822-2.2a6.139,6.139,0,0,1-.758-2.585c-.568-4.522.322-8.936-.453-13.36-.943-5.385-1.575-10.846-2.35-16.258q-2.28-15.926-4.47-31.865c-2.018-14.681,1.835-30.446,4.727-44.823,2.757-13.706,6.88-27.061,9.432-40.817,1.021-5.5.449-13.245,3.6-17.754a17.532,17.532,0,0,1,12.322-7.088c4.167-.4,8.628-.706,12.694.576,10.839,3.419,9.635,16.651,7.244,25.979a187.532,187.532,0,0,1-12.755,34.828c-4.666,9.681-6.8,20.662-9.028,31.246-1.385,6.568-1.07,12.7-.968,19.376C897.816,652.862,899.465,667.389,900.549,681.969Z" transform="translate(-722.666 -383.057)"/><g transform="translate(146.438)"><path class="r" d="M896.927,421.718a63.387,63.387,0,0,0,.052-7.642c-.1-1.509-.14-2.788-1.209-3.9-.9-.931-2.093-1.542-3.034-2.428-2.663-2.507-5.164-5.6-5.761-9.317a23.308,23.308,0,0,1,.12-6.2c.586-5.374-.921-11.339-1.243-16.784-.136-2.312-.936-3.039-.241-5.318a18.4,18.4,0,0,1,2.824-4.923,30.236,30.236,0,0,1,8.31-7.792c0-.638,4.232-2.281,4.845-2.543a43.266,43.266,0,0,1,5.08-1.762,13.3,13.3,0,0,1,4-.948c1.9.028,3.831.26,5.732.389a68.777,68.777,0,0,1,14.352,1.994,11.424,11.424,0,0,1,7,4.957c4.253,5.976,3.923,11.8,3.463,18.862q-.451,6.94-.842,13.883c-.231,4.228-1.149,8.293-1.181,12.516a10.138,10.138,0,0,0,.232,2.594,11.585,11.585,0,0,0,1.331,2.867c1.165,2.006,2.3,4.03,3.362,6.091.952,1.845,1.557,3.884,2.655,5.629a36.673,36.673,0,0,1,4.5,9.163,4.777,4.777,0,0,1,.252,1.633c-.181,2.7-2.6,5.4-4.312,7.259a30.249,30.249,0,0,1-5.37,4.755,34.4,34.4,0,0,1-9.421,3.9c-3.558,1.073-7.131,2.149-10.749,2.986-7.688,1.779-23.463,4.068-25-7.506a36.961,36.961,0,0,1-.075-7.756c.193-2.462-.025-4.858,0-7.329C896.626,426.6,896.8,424.161,896.927,421.718Z" transform="translate(-876.442 -301.263)"/><path class="s" d="M925.96,363.971a9.29,9.29,0,0,1-1.024.82,22.949,22.949,0,0,1-6.352,3.039c-4.386,1.33-9.786,1.049-10.88-4.326-.861-4.231,3.926-9.469,7.4-11.356a22.059,22.059,0,0,1,7.479-2.45q.463-.064.93-.11c2.672-.261,5.516.842,6.287,3.629a7.5,7.5,0,0,1-.243,4.318A14.486,14.486,0,0,1,925.96,363.971Z" transform="translate(-886.93 -300.035)"/><path class="n" d="M927.233,340.743c-1.649-2.956-3.291-6.01-4.7-9.1-1.351-2.959-1.684-7.777-5.266-8.938a5.452,5.452,0,0,0-2.471-.049c-5.6.825-8.443,3.2-10.969,8.242a5.254,5.254,0,0,0-.8,3.532,6.374,6.374,0,0,0,1.884,2.6,25.58,25.58,0,0,1,6.009,12.283" transform="translate(-884.733 -287.312)"/><path class="t" d="M930.505,256.773a3.529,3.529,0,0,1,1.024,4.147c1.879-.626,4.354-1.076,5.493.545.944,1.344.251,3.183-.463,4.662a2.554,2.554,0,0,1,2.476,1.923,6.82,6.82,0,0,1-.085,3.359c-.372,1.808-1.387,4.02-3.227,3.878a7.751,7.751,0,0,1-14.345,2.4,9.766,9.766,0,0,1-6.458-3.567,6.355,6.355,0,0,1-.525-6.906c1.341-2.216,4.071-2.509,5.112-4.981.649-1.54.295-3.187,1.381-4.607,1.447-1.892,4.418-2.5,5.685-.068A2.852,2.852,0,0,1,930.505,256.773Z" transform="translate(-889.757 -255.964)"/><path class="n" d="M886.018,314.207c2.693,5.463,7.315,12.868,13.933,8.816,5.714-3.5,9.54-6.91,11.206-13.689a19.9,19.9,0,0,0,.134-8.915,17.6,17.6,0,0,0-2.087-5.2c-2.913-5.144-7.439-9.688-13.167-11.154-5.3-1.357-9.568.767-11.587,5.811C881.163,298.089,882.194,306.447,886.018,314.207Z" transform="translate(-875.099 -269.007)"/><path class="t" d="M894.225,287.052a5.068,5.068,0,0,0,2.718,2.386,7.3,7.3,0,0,0,2.83,1c1-.052,2.888-1.26,3.747-.363a4.315,4.315,0,0,1,.778,2.118c.155,1.037.017,2.1.155,3.138.427,3.225,4.77,1.865,4.98-.744a2.135,2.135,0,0,1,.215-1.121,1.855,1.855,0,0,1,.719-.48,4.428,4.428,0,0,0,.633-7.128,2.552,2.552,0,0,0-.145-4.288,5.505,5.505,0,0,0-3.48-8.563c1.265-.286,1.729-2,1.2-3.18a6.664,6.664,0,0,0-2.776-2.638,1.978,1.978,0,0,0-1.094-.415c-.4.017-.8.392-.685.771a5.975,5.975,0,0,0-6.411-3.762c-1.21.2-2.485,1-2.6,2.218a.874.874,0,1,0-1.634-.577,6.9,6.9,0,0,0-9.034-1.535c-1.185.795-2.142,2.379-1.416,3.607a5.48,5.48,0,0,0-8.191,3.983c-2.063-.64-4.366.953-4.97,3.028a6.8,6.8,0,0,0,1.562,6.029,3.431,3.431,0,0,0-2.8,3.436,4.63,4.63,0,0,0,2.55,3.857,7.769,7.769,0,0,0,1.826.745c-.007,1.936.862,5.4,3.3,5.6a14.469,14.469,0,0,1,.695-2.632,9.391,9.391,0,0,0,.728-2.131,6.072,6.072,0,0,0-1.178-4.9,4.344,4.344,0,0,0,3.4-5.931,3.783,3.783,0,0,0,3.762-.819c.86-.819,1.658-2.686.84-3.758a4.563,4.563,0,0,0-.23,1.959,3.45,3.45,0,0,0,.885,2.144,4,4,0,0,0,1.277.837c1.21.536,1.767.349,2.034,1.737C889,283.657,890.488,287.368,894.225,287.052Z" transform="translate(-868.531 -259.201)"/><path class="u" d="M931.145,312.991c.935-1.861,3.544-3.44,5.355-1.711,1.238,1.181,1.36,3.452,1.058,5.025-.428,2.223-2.244,3.889-4.348,2.25" transform="translate(-898.016 -281.662)"/><path class="v" d="M943,277.127c.008.056-.1.056-.111,0s.027-.106.067-.146a3.136,3.136,0,0,1,3.61-.322,1.393,1.393,0,0,1,.581.5.614.614,0,0,1-.057.723.4.4,0,0,1-.639-.12.432.432,0,0,1,.255-.479,1.048,1.048,0,0,1,.58-.055,4.21,4.21,0,0,1,3.431,2.853.359.359,0,0,1,.011.259c-.038.079-.167.114-.214.039" transform="translate(-903.545 -265.513)"/></g><g transform="translate(0 67.259)"><g transform="translate(52.131 146.275)"><path class="w" d="M838.325,934.056a8.058,8.058,0,0,0,3.649-1.072,2.934,2.934,0,0,0,1.243-3.683c-.68-1.39-2.088-1.684-3.454-2.013-4-.965-8-1.722-12.013-2.646a22.9,22.9,0,0,1-6.783-2.445c-1.9-1.147-3.268-2.659-5.612-2.607s-4.486,1.044-6.637,1.876a2.344,2.344,0,0,0-1.045.709,3.27,3.27,0,0,0-.64,1.94c-.161,2.733-.151,5.267,1.981,7.211.978.891,2.225.924,3.449,1.088a170.6,170.6,0,0,0,25.318,1.679A4.11,4.11,0,0,0,838.325,934.056Z" transform="translate(-745.237 -782)"/><path class="q" d="M750.157,778.091c-.173-8.816-.224-25.94-2.16-35.133-1.411-6.694-4.808-8.773-8.453-11.778-13.879-11.444-27.322-21.442-40.147-33.537-2.45-2.311-5.058-4.313-6.532-7.385-6.006-12.512-1.034-22.616,10.141-29.486,3.728-2.292,6.748-1.062,10.208,1.133,11.4,7.233,20.172,13.51,29.732,23.925,10.038,10.936,17.464,16.074,27.961,31.39,5.143,7.5,9.716,56.725,7.353,69.189-.812,4.287,1.754,10.133-1.006,13.54-2.558,3.157-6.095,3.75-9.537,4.451-5.357,1.09-9.56.625-14.687-.467a2.42,2.42,0,0,1-1.7-1.037,2.479,2.479,0,0,1-.449-1.649C750.634,792.3,750.363,788.551,750.157,778.091Z" transform="translate(-690.292 -659.544)"/></g><g transform="translate(0 139.278)"><path class="x" d="M626.441,991.937c-.017-.006-.04-.008-.059-.014a36.369,36.369,0,0,1-9.6-4.568,20.051,20.051,0,0,1-5.308-5.868c-1.369-2.221-1.91-4.687-4.047-6.3s-5.713-2.309-7.684.264c-2.334,3.046-2.508,8.332-3.176,12.013-.308,1.7-.731,3.062-.265,4.578,1.739,5.658,8.914,4.971,13.45,5.6,5.893.815,10.861,1.452,16.55,1.7,1.966.087,4.018-.041,5.006-1.87.739-1.367-.052-2.819-1.092-3.769A10.813,10.813,0,0,0,626.441,991.937Z" transform="translate(-593.804 -800.505)"/><path class="q" d="M602.482,754.733c1.87-13.665,3.192-27.417,5.613-41.009,1.5-10.114,3.181-20.321,4.673-30.421,1.288-8.722,1.627-18.135,4.213-26.387,1.692-5.4,4.323-9.017,9.672-10.088,7.036-1.408,12.677.321,19.391,2.6,5.867,1.987,10.729,4.059,12.541,10.917,1.494,5.651.324,11.613-1.378,17.563-13.305,46.531-31.895,91.411-39.46,139.534-.858,5.46-1.426,11.253-7.2,13.172s-11.1-.549-16.547-2.219a3.279,3.279,0,0,1-1.906-1.475,3.636,3.636,0,0,1-.306-2.1c.65-18.342,4.579-36.095,8.088-54.06C600.894,765.525,601.752,760.069,602.482,754.733Z" transform="translate(-591.764 -646.32)"/></g><path class="y" d="M756.527,515.995a43.952,43.952,0,0,0-2.577-4.272c-1.348-1.863-2.346-3.871-4.251-4.987-12.053-7.053-11.063,11.783-9.716,17.761,2.924,12.971,8.871,22.389,17.074,31.959a19.425,19.425,0,0,0,10.415,6.658c3.37.792,6.614-.03,9.859-.951a91.639,91.639,0,0,0,22.986-10.142,15.576,15.576,0,0,0,5.443-4.836,7.184,7.184,0,0,0,.495-7.287c-1.587-2.812-4.526-3.544-7.5-2.8s-4.388,3.174-7.1,4.554c-3.912,1.993-5.606,4.914-11.037,5.1C772.845,547.011,760.1,522.9,756.527,515.995Z" transform="translate(-661.196 -440.578)"/><path class="y" d="M632.022,542.525c5.947,7.468,15.213,10.212,21.795,3.336,10.023-10.469,4.587-23.019,7.778-35.227,1.929-7.38,4.295-13.439,2.714-21.016-.572-2.743-1.769-5.524-4.236-7.068a9.24,9.24,0,0,0-8.23-.666c-20.223,6.979-23.763,32.754-23.567,51.362a11.267,11.267,0,0,0,.741,4.515A19.892,19.892,0,0,0,632.022,542.525Z" transform="translate(-608.953 -429.301)"/><g transform="translate(138.283 83.023)"><path class="z" d="M853.813,558.523c.16-3.387.355-6.778.608-10.158a2.45,2.45,0,0,1,.274-1.107.664.664,0,0,1,.914-.238,1.062,1.062,0,0,1,.4.7,7.309,7.309,0,0,1,.2,2.623" transform="translate(-853.446 -543.26)"/><path class="z" d="M853.119,564a65.116,65.116,0,0,1,1.778-8.115,2.071,2.071,0,0,1,.431-.9,1.574,1.574,0,0,1,.794-.422c1.942-.512,3.643-.816,5.419.36a4.575,4.575,0,0,1,1.815,3.553,13.631,13.631,0,0,1-.015,5.571,10.069,10.069,0,0,1-1.095,2.243,44,44,0,0,1-2.819,4.043" transform="translate(-853.119 -546.645)"/><path class="z" d="M856.692,549.111a19.788,19.788,0,0,1,3.047-5.3,17.845,17.845,0,0,1,2.309-2.164,7.04,7.04,0,0,1,2.509-1.618.966.966,0,0,1,.859.209.583.583,0,0,1,.148.62,1.517,1.517,0,0,1-.328.558,43.492,43.492,0,0,0-4.931,7.452" transform="translate(-854.802 -539.998)"/><path class="z" d="M861.078,550.006a41.728,41.728,0,0,1,3.046-5.107,11.626,11.626,0,0,1,4.565-4.066,2.354,2.354,0,0,1,1.1-.187.929.929,0,0,1,.81.629c.045.305-.111.43-.252.612-1.229,1.589-2.57,2.988-3.725,4.649A11.779,11.779,0,0,0,864.519,552" transform="translate(-856.867 -540.3)"/><path class="z" d="M865.275,552.946a22.726,22.726,0,0,1,5.48-7.743,2.755,2.755,0,0,1,1.8-.737.8.8,0,0,1,.761.325c.207.31-.043.7-.308,1.009a28.985,28.985,0,0,0-4.828,8.353,1.3,1.3,0,0,0-.095,1.006" transform="translate(-858.843 -542.102)"/><path class="z" d="M868.551,556.346a20.335,20.335,0,0,1,3.974-6.842,2.253,2.253,0,0,1,1.128-.659,1.1,1.1,0,0,1,1.169.533c.122.364-.058.529-.2.771a36.983,36.983,0,0,0-3.823,8.94" transform="translate(-860.386 -544.154)"/></g><path class="aa" d="M680.434,498.259a255.73,255.73,0,0,0-15.72,23.992" transform="translate(-626.116 -437.32)"/><path class="ab" d="M682.844,713.256a206.753,206.753,0,0,0,17.782,13.69" transform="translate(-634.653 -538.562)"/><path class="a" d="M650.7,651.684c7.479-2.2,16.769-.68,24.063.385,15.586,2.277,30.569,5.027,42.589,15.561" transform="translate(-619.517 -509.038)"/><path class="ac" d="M659.009,483.38c-3.447,1.416-5.526,3.342-7.958,6.871-4.671,6.779-9.583,16.57-9.766,25.027-.229,10.593,5.725,18.835,5.7,29.158-.017,6.2-2.717,11.933-5.137,17.579-2.514,5.866-6.932,10.635-8.413,17.092-1.207,5.262,6.5,8.924,10.445,10.818a60.1,60.1,0,0,0,13.372,4.566,65.935,65.935,0,0,0,20.56,1.708,84.626,84.626,0,0,0,15.373-2.415c3.431-.932,8.735-2.477,9.38-6.788a3.628,3.628,0,0,0-.5-1.892,107.9,107.9,0,0,1-7.488-27.411,53.717,53.717,0,0,1-.161-10.68c.165-2.42-.251-5.26,1.662-7.087.887-.847,2.114-1.089,2.861-2.078a8.376,8.376,0,0,0,1.54-5.163c.091-11.751-.288-22.854-4.016-34.289-3.41-10.459-14.191-15.865-24.575-16.676C666.94,481.332,663.429,481.564,659.009,483.38Z" transform="translate(-611.326 -429.456)"/><path class="z" d="M755.7,430.48c.058-.2.124-.351.183-.519,1.609-4.6,3.242-9.057,3.341-13.969a9.4,9.4,0,0,0-1.234-5.436c-2.4-3.754-6.284-5.245-10.477-6.457-2.543-.735-4.854-1.586-7.671-1.543-6.233.1-10.985,3.623-13.761,9.122a21.107,21.107,0,0,0-2.021,11.534c.286,3.2,1.634,5.088,3.112,7.823a25.51,25.51,0,0,0,14.857,12.693c1.9.655,4.093,1.257,6.059.524C753.8,442.124,754.217,435.683,755.7,430.48Z" transform="translate(-654.016 -392.253)"/><path class="z" d="M730.5,467.971c.732-2.244,2.1-5.185.467-7.3-3.476-4.508-8.9-1.99-13.245.354-1.078.582-1.392.4-2.1,2.126-1.506,3.669-6.034,7.645-9.187,10.62.795,2.224,1.771,2.725,5.13,3.248s11.48-.095,15.708-1.1C728.337,473.293,729.643,470.6,730.5,467.971Z" transform="translate(-645.761 -418.444)"/><path class="ad" d="M643.814,460.354c-1.66-1.437-7.32-11.693-8.67-14.161-.9-1.646-3.41-7.438-2.422-7.78,19.239-6.676,24.389-29.052,35.538-43.4,12.606-16.227,35.824-16.171,46.266,1.867,7.7,13.295-3.631,18.368-12.142,27.122-7.773,7.994-8.625,20.172-10.059,30.753-.417,3.08-.442,6.152-2.229,8.629C681.057,475.906,654.638,469.72,643.814,460.354Z" transform="translate(-610.944 -383.084)"/><path class="ae" d="M654.28,560.975c1.615,5.089,3.547,9.95,3.7,15.405.168,5.968-2.245,11.813-3.186,17.679" transform="translate(-621.203 -466.853)"/><path class="ae" d="M748.285,570.989c.9,1.283,1.746,2.581,2.7,3.825,2.982,3.872,6.205,7.525,9.488,11.146" transform="translate(-665.469 -471.569)"/></g><g transform="translate(138.851 148.809)"><path class="n" d="M884.987,537.213l-8.7,10.844a5.03,5.03,0,0,0-.7,6.517c.528,1.3,1.181,2.721,2.484,3.233a4.733,4.733,0,0,0,3.171-.209,11.075,11.075,0,0,0,4.914-2.9,15.219,15.219,0,0,0,2.03-3.3q2.575-5.06,5.617-9.862" transform="translate(-863.873 -537.213)"/><path class="n" d="M882.4,571.977c.06.017.02-.119-.021-.071a30.729,30.729,0,0,1-6.005,5.233,4.067,4.067,0,0,1-1.409.678,4.342,4.342,0,0,1-1.441-.035,11.661,11.661,0,0,1-2.775-.612,19.131,19.131,0,0,0,3.331-3.774" transform="translate(-861.99 -553.545)"/><path class="n" d="M874.939,568.849l.383-.165q-1.584,1.346-3.192,2.663a11.128,11.128,0,0,1-2.259,1.551,11.4,11.4,0,0,1-3.743.809,2.3,2.3,0,0,1-1.737-.29c2.685-3.4,5.174-6.948,7.859-10.345" transform="translate(-858.995 -549.39)"/><path class="n" d="M866.251,558.264a35.057,35.057,0,0,0-4.642,6.88,8.36,8.36,0,0,1-2.321,3.1,14.282,14.282,0,0,1-1.633.834,7.935,7.935,0,0,0-3.3,3.148.854.854,0,0,0-.154.579c.086.4.608.478,1.012.459,6.034-.279,11.392-5.055,13.95-10.251" transform="translate(-854.192 -547.126)"/><path class="n" d="M874.621,542.077c-1.571.5-2.767,1.939-3.954,3.011-1.407,1.272-2.516,2.751-4.36,3.565-1.313.579-2.744.7-3.97,1.52-1.011.678-1.8,1.6-3.018,1.926-.819.216-2.258.377-2.769,1.162-.583.9.148,1.474.987,1.738a6.922,6.922,0,0,0,3.8-.126c.676-.181,2.508-1.545,2.842-.421a1.253,1.253,0,0,1-.424,1.207" transform="translate(-855.203 -539.503)"/><path class="af" d="M869.9,565.413a2.294,2.294,0,0,1,.429-1.414,3.873,3.873,0,0,1-1.163,2.765" transform="translate(-861.243 -549.826)"/></g><path class="o" d="M930.939,355.62c5.545,1.454,11.533,3.766,15.433,8.151,4.737,5.326,2.935,14.371.861,20.5-.645,1.9-.963,3.906-1.609,5.812a107.651,107.651,0,0,1-4.77,11.44,252.726,252.726,0,0,1-26.972,44.465c-1.544,2.039-12.507,17.777-14.878,15.08-.7-.8-9.365-6.951-9.36-8.012,0-.7,8.3-11.559,8.632-12.18l14.692-27.865c2.733-5.184,5.709-10.236,8.421-15.432a96,96,0,0,0,5.605-14.016" transform="translate(-732.036 -302.892)"/><path class="ag" d="M888.829,410.294l.58,12.151c.154,3.213.363,6.6,2.145,9.28a17.9,17.9,0,0,0,2.716,2.985l4.35,4.112" transform="translate(-731.652 -328.638)"/></g><g transform="translate(27.527)"><path class="ah" d="M535.12,70.587c9.431-2.814,19.521,2.221,23.21,4.061,15.492,7.731,20.507,23,21.616,26.731,6.322-2.031,13.465.161,18.9,3.713,10.181,6.65,16.157,18.223,15.253,29.542A25.1,25.1,0,0,1,625.681,141a21.269,21.269,0,0,1,6.224,14.1c.567,9.04-4.8,15.492-6.412,17.373-6.853,7.989-16.564,10.134-24.945,11.986a75.122,75.122,0,0,1-27.655.8c-11.22,11.71-32.077,14.689-46.75,6.679-2.478-1.353-5.033-4.128-3.358-6.26-8.314,5.253-19.709,3.252-29.233.094-3.171-1.052-6.4-2.271-8.73-4.484s-3.515-5.678-1.979-8.4c-9.237,1.484-18.118-4.612-22.952-11.875-3.409-5.122-5.494-11.168-4.6-17.089A17,17,0,0,1,466.7,130.347c-5.508-4.224-3.886-12.284-.591-18.091,3.65-6.434,9.035-12.37,16.349-15.306s16.742-2.24,22.3,2.96c.69-6.174,3.136-17.476,12.917-23.807,7.321-4.739,17.346-5.784,17.444-5.515.078.213-5.759,2.161-5.769,2.141S533.017,71.215,535.12,70.587Z" transform="translate(-455.083 -69.75)"/><path class="ai" d="M633.382,189.105a24.936,24.936,0,0,0-6.224-15.606,24.41,24.41,0,0,0-11.579-7.043,37.775,37.775,0,0,0-7.375-24.862,18.7,18.7,0,0,0-8.748-2.357c-.292,0-.584.875-.875.875-4.083-.292-7,1.75-7.874,5.249s.292,7.291-.583,10.79a5.794,5.794,0,0,1-2.333,0c-8.166-4.666-16.039-9.332-24.788-12.54-4.958-2.041-9.915-2.333-14.873-2.916-14.873-1.458-31.2,1.458-41.411,13.706-4.083,4.957-4.958,11.373-3.5,17.5,2.041,7.29,6.124,13.706,6.707,21.288h1.167c-.584,0-1.458.292-2.041,0-1.458-.583-2.333-1.458-4.375-2.041-.875-.292-1.75-1.167-2.625-1.458a7.762,7.762,0,0,1-3.5-.875,11.048,11.048,0,0,0-4.374,0c-1.167.584-2.333.584-3.5,1.167-2.333,1.167-4.375,3.5-3.5,6.707-1.458-.292-.292-2.333-1.75-2.625-.583,0-1.167.292-1.75,0-4.958-2.916-11.082-6.124-16.914-4.666-1.167.292-2.916-.292-4.374.292v.875c-.875.292-1.75-.292-2.625,0v.875a2.115,2.115,0,0,0-.554.075,37.588,37.588,0,0,0,2.155,4.139c4.834,8.041,13.715,14.789,22.952,13.147-1.536,3.01-.348,6.845,1.979,9.3s5.559,3.8,8.73,4.964c9.524,3.5,20.92,5.712,29.233-.1-1.676,2.361.879,5.433,3.357,6.931,14.674,8.869,35.53,5.57,46.75-7.395a68.031,68.031,0,0,0,27.656-.881c8.381-2.05,18.092-4.425,24.945-13.27C628.585,206.257,633.949,199.114,633.382,189.105Z" transform="translate(-457.029 -102.472)"/><g transform="translate(143.6 106.256)"><path class="aj" d="M756.476,274.634c.321,1.57.548,3.171.8,4.651a5.708,5.708,0,0,1-.182,3.543c-.546,1.073-2.1,1.693-3,.883-2.675-2.436-.191-10.486,1.051-13.138A12.581,12.581,0,0,1,756.476,274.634Z" transform="translate(-738.927 -270.574)"/><path class="ak" d="M730.058,317.87c.322,1.571.548,3.171.8,4.651a5.716,5.716,0,0,1-.181,3.543c-.547,1.073-2.1,1.694-3,.883-2.675-2.435-.19-10.486,1.051-13.138A12.586,12.586,0,0,1,730.058,317.87Z" transform="translate(-726.487 -290.934)"/></g><g transform="translate(148.129 134.813)"><path class="al" d="M765.036,328.607c.321,1.571.548,3.171.8,4.651a5.717,5.717,0,0,1-.181,3.543c-.547,1.073-2.1,1.694-3,.883-2.675-2.435-.19-10.486,1.051-13.138A12.585,12.585,0,0,1,765.036,328.607Z" transform="translate(-747.487 -324.547)"/><path class="am" d="M738.619,371.844c.321,1.57.548,3.171.8,4.651a5.708,5.708,0,0,1-.182,3.543c-.546,1.073-2.1,1.693-3,.883-2.675-2.436-.191-10.486,1.051-13.138A12.594,12.594,0,0,1,738.619,371.844Z" transform="translate(-735.047 -344.907)"/></g><g transform="translate(114.151 119.791)"><path class="an" d="M697.289,300.215c.321,1.57.548,3.171.8,4.651a5.709,5.709,0,0,1-.182,3.543c-.547,1.073-2.1,1.693-3,.883-2.675-2.436-.19-10.487,1.051-13.138A12.579,12.579,0,0,1,697.289,300.215Z" transform="translate(-681.607 -296.155)"/><path class="ao" d="M674.4,348.19c.321,1.57.548,3.171.8,4.651a5.716,5.716,0,0,1-.181,3.543c-.547,1.073-2.1,1.694-3,.883-2.675-2.435-.19-10.486,1.051-13.138A12.584,12.584,0,0,1,674.4,348.19Z" transform="translate(-670.829 -318.746)"/></g><g transform="translate(86.996 122.77)"><path class="ap" d="M634.641,305.846c.321,1.57.548,3.171.8,4.651a5.716,5.716,0,0,1-.182,3.543c-.547,1.073-2.1,1.694-3,.883-2.675-2.435-.19-10.486,1.051-13.138A12.586,12.586,0,0,1,634.641,305.846Z" transform="translate(-624.951 -301.786)"/><path class="aq" d="M629.5,353.615c.322,1.57.548,3.171.8,4.651a5.717,5.717,0,0,1-.182,3.543c-.547,1.073-2.1,1.694-3,.883-2.675-2.435-.191-10.486,1.051-13.138A12.585,12.585,0,0,1,629.5,353.615Z" transform="translate(-622.53 -324.28)"/><path class="ar" d="M623.078,421.726c.322,1.57.548,3.171.8,4.651a5.715,5.715,0,0,1-.182,3.543c-.547,1.073-2.1,1.694-3,.883-2.675-2.435-.19-10.486,1.051-13.138A12.586,12.586,0,0,1,623.078,421.726Z" transform="translate(-619.506 -356.354)"/></g><g transform="translate(58.716 120.868)"><path class="as" d="M596.545,302.252c.322,1.57.548,3.171.8,4.651a5.717,5.717,0,0,1-.181,3.543c-.547,1.073-2.1,1.694-3,.883-2.675-2.435-.19-10.486,1.051-13.138A12.585,12.585,0,0,1,596.545,302.252Z" transform="translate(-578.732 -298.192)"/><path class="at" d="M569.628,334.3c.322,1.57.548,3.171.8,4.651a5.716,5.716,0,0,1-.181,3.543c-.547,1.073-2.1,1.693-3,.883-2.675-2.436-.19-10.486,1.051-13.138A12.581,12.581,0,0,1,569.628,334.3Z" transform="translate(-566.057 -313.285)"/><path class="au" d="M590.347,373.514c.321,1.571.548,3.171.8,4.651a5.713,5.713,0,0,1-.181,3.543c-.547,1.073-2.1,1.694-3,.883-2.675-2.435-.19-10.486,1.051-13.138A12.587,12.587,0,0,1,590.347,373.514Z" transform="translate(-575.813 -331.749)"/></g></g></g></g></svg>