<svg xmlns="http://www.w3.org/2000/svg" xmlns:xlink="http://www.w3.org/1999/xlink" width="577.937" height="538.733" viewBox="0 0 577.937 538.733"><defs><style>.a,.i,.v,.w{fill:none;}.b{fill:url(#a);}.c{fill:url(#b);}.d{clip-path:url(#c);}.e{fill:url(#d);}.f,.m{fill:#feca84;}.g{fill:#100052;}.h,.l{fill:#685545;}.h,.i,.m{stroke:#100052;}.h,.i,.m,.n,.v,.w{stroke-linecap:round;stroke-linejoin:round;}.j{fill:url(#e);}.k{fill:url(#f);}.n{fill:#fff;}.n,.w{stroke:#231f20;}.o{fill:url(#g);}.p{fill:url(#h);}.q{fill:url(#i);}.r{fill:#68878e;}.s{fill:#d2e7f9;}.s,.t{stroke:#bbdbf9;stroke-miterlimit:10;stroke-width:0.221px;}.t{fill:#adc7db;}.u{fill:#c6d0f4;}.v{stroke:#d2e7f9;stroke-width:1.106px;}.x{fill:#bbdbf9;}.y{fill:url(#j);}.z{fill:url(#k);}</style><linearGradient id="a" x1="0.501" y1="0.534" x2="0.494" y2="0.241" gradientUnits="objectBoundingBox"><stop offset="0" stop-color="#6599b3"/><stop offset="1" stop-color="#45496b"/></linearGradient><linearGradient id="b" x1="0.525" y1="0.497" x2="0.622" y2="-0.452" xlink:href="#a"/><clipPath id="c"><path class="a" d="M1049.08,387.95c-17.228-77.093-57.287-124.142-126.619-164.407-65.255-37.9-155.608-49.227-228.03-25.015-62.514,20.9-115.06,68.565-143.132,126.947-14.412,29.974-21.482,62.668-35.428,92.868-14.276,30.912-32.852,60.636-37.306,95.017-10.077,77.782,56.063,103.531,119.818,119.957,32.788,8.448,63.309,22.819,97.833,17.543,32.12-4.909,59.763-20.12,92.921-20.024,74.721.218,143.722,20.774,202.843-37.986C1049.366,535.815,1066.261,464.834,1049.08,387.95Z" transform="translate(-477.541 -185.779)"/></clipPath><linearGradient id="d" x1="-0.492" y1="-1.3" x2="0.765" y2="0.956" gradientUnits="objectBoundingBox"><stop offset="0" stop-color="#2a7195"/><stop offset="1" stop-color="#060c39"/></linearGradient><linearGradient id="e" x1="0.488" y1="1.399" x2="0.524" y2="0.171" xlink:href="#a"/><linearGradient id="f" x1="0.491" y1="1.936" x2="0.527" y2="-3.952" xlink:href="#a"/><linearGradient id="g" x1="0.129" y1="-0.402" x2="0.7" y2="0.87" gradientUnits="objectBoundingBox"><stop offset="0" stop-color="#ff9077"/><stop offset="1" stop-color="#e9645a"/></linearGradient><linearGradient id="h" x1="0" y1="0.5" x2="1" y2="0.5" xlink:href="#g"/><linearGradient id="i" y1="0.5" x2="1" y2="0.5" gradientUnits="objectBoundingBox"><stop offset="0" stop-color="#b9bdab"/><stop offset="1" stop-color="#769cae"/></linearGradient><linearGradient id="j" x1="0.556" y1="0.513" x2="0.664" y2="0.207" xlink:href="#g"/><linearGradient id="k" x1="0.395" y1="0.857" x2="0.473" y2="0.473" xlink:href="#g"/></defs><g transform="translate(-477.541 -137.162)"><g transform="translate(477.541 169.215)"><g transform="translate(0 0)"><path class="b" d="M570.146,507.666c-26.427,5.468-51.172,11.781-74.884,20.346-7.752,16.788-14.29,34.013-16.7,52.6-10.077,77.782,56.063,103.531,119.818,119.957,32.788,8.448,63.309,22.819,97.833,17.543,32.12-4.909,59.763-20.12,92.921-20.024,74.721.218,143.722,20.774,202.843-37.986,57.387-57.035,74.282-128.017,57.1-204.9-6.14-27.476-15.183-51.133-27.414-72.03-49.087,35.969-109.005,58.289-170,71.75C754.75,476.02,667.722,487.887,570.146,507.666Z" transform="translate(-477.541 -253.03)"/><path class="c" d="M931.618,223.544c-65.255-37.9-155.608-49.227-228.03-25.015-62.514,20.9-115.06,68.565-143.132,126.947-14.412,29.974-21.482,62.668-35.428,92.867-6.558,14.2-14.021,28.152-20.608,42.418,23.712-8.565,48.457-14.878,74.884-20.346,97.577-19.779,184.6-31.646,281.521-52.744,60.994-13.461,120.912-35.782,170-71.75C1008.735,278.185,976.24,249.458,931.618,223.544Z" transform="translate(-486.698 -185.779)"/><g class="d"><g transform="translate(-107.87 36.856)"><path class="e" d="M908.957,668.258H733.409a22.787,22.787,0,0,1-22.71-20.914L698.3,497a22.787,22.787,0,0,1,23.889-24.63L919.76,482.609a22.788,22.788,0,0,1,21.555,24.319l-9.624,140.1A22.788,22.788,0,0,1,908.957,668.258Z" transform="translate(-444.855 -320.267)"/><path class="f" d="M953.672,594.943c.51-12.541-3.54-25.444-2.672-37.615.568-7.979,3.807-16.253,5.023-24.224,1.953-12.8,9.025-27.555-2.7-37.545-9.7-8.264-24.5-5.68-36.011-3.987a359.994,359.994,0,0,1-51.2,4.123c-14.457.051-27.457-5.057-42.143-6.724-12.862-1.459-25.512-.747-38.62-2.507-13.328-1.785-6.161,26.074-4.868,32.08,4.246,19.73-.5,37.1-4.014,56.985-1.562,8.842-3.129,17.832-2.119,26.753,1.259,11.131,6.035,21.408,7.9,32.338,2.737,16.059.107,36.518-2.687,52.565-1.8,10.35-4.47,21.4-.246,31.015,8.5,19.344,38.35,18.749,56.263,21.056,22.331,2.877,45.99,6.348,68.614,2.209,11.376-2.081,22.755-6.288,31.323-14.309,9.885-9.254,8.725-23.488,7.137-35.968-1.872-14.7-4.5-29.546-3.462-44.424.884-12.645,9-20.905,11.922-32.862A96.49,96.49,0,0,0,953.672,594.943Z" transform="translate(-470.684 -325.05)"/><path class="g" d="M781.69,386.677c-.558,4.97,3.094,9.843,7.817,11.484-5.595,3.19-12.058,8.209-10.6,14.484,1.2,5.2,7.163,7.518,12.294,9-2.725,2.477-2.619,7.014-.72,10.17s5.138,5.232,8.32,7.087c5.188,3.024,12.747,5.37,16.4.6a25.208,25.208,0,0,0,36.966-29.519c4.506-6.862,7.045-15.345,5.383-23.383-1.6-7.751-7.643-14.763-15.585-16.264-8.279-1.565-14.915,4.41-23.161,1.564-5.139-1.774-8.358-6.206-14.155-6.658-7.724-.6-15.647,5.269-12.507,13.619C787.26,378.279,782.265,381.559,781.69,386.677Z" transform="translate(-472.274 -283.766)"/><g transform="translate(360.668 120.342)"><path class="h" d="M928.1,477.945c-.018.1-.037.2-.054.3-1.6,9.079,4.953,16.417.214,24.223-4.61,7.595-16.442,8.416-24.25,7.821-7.373-.562-14.81-2.116-21.211-5.816-9.044-5.229-17.092-15.1-20.894-24.754-.8-2.041-1.435-4.441-.342-6.342,1.033-1.8,3.218-2.491,5.045-3.472,9.064-4.865,9.552-18.594,8.724-27.493-.237-2.555-3.83-11.157-2.993-13.005,2.46-5.431,11.88-5.338,16.736-5.123,10.762.477,37.078,6.214,43.875,15.6C941.327,451.447,930.341,466.009,928.1,477.945Z" transform="translate(-860.974 -424.21)"/><path class="i" d="M878.839,479.857a58.655,58.655,0,0,0-2.241,21.381" transform="translate(-866.234 -443.169)"/></g><path class="h" d="M955.663,390.593c-6.483,18.718-18.411,44.485-41.4,34.079-19.855-8.986-33.578-18.445-41.693-39.653a64.728,64.728,0,0,1-4.034-28.717,57.255,57.255,0,0,1,4.635-17.628c7.324-17.777,20.1-34.268,37.988-41.316,16.553-6.519,31.188-1.39,39.741,14.075C964.824,336.616,964.871,364.006,955.663,390.593Z" transform="translate(-502.813 -259.708)"/><path class="g" d="M886.589,322.546a16.486,16.486,0,0,1-7.808,8.8c-2.615,1.51-5.658,4.148-8.73,4.372-3.257.238-9.832-2.9-12.239.34-1.307,1.76-1.6,5.044-1.653,7.149-.083,3.407.791,6.78.766,10.188-.077,10.582-14.642,7.945-16.373-.388-.256-1.23-.286-2.615-1.147-3.531a6.017,6.017,0,0,0-2.513-1.259c-8.741-3.1-11.6-16.312-4.921-22.75-5.294-2.17-6.079-10.809-1.263-13.9a17.907,17.907,0,0,1,7.773-29.044c-4.2-.412-6.386-5.741-5.166-9.778s4.639-6.955,7.894-9.635a6.451,6.451,0,0,1,3.365-1.782c1.285-.105,2.734.942,2.52,2.214a19.434,19.434,0,0,1,19.173-14.731c3.986.171,8.423,2.216,9.288,6.11a2.845,2.845,0,1,1,5.04-2.524c5.434-9.514,18.747-13.528,28.534-8.6,4.145,2.086,7.875,6.813,6.027,11.07A17.821,17.821,0,0,1,943.2,264.41c6.4-2.9,14.475,1.315,17.264,7.764s1.134,14.142-2.608,20.09c5.261-.017,9.837,4.73,10.41,9.959s-2.356,10.466-6.669,13.478A25.239,25.239,0,0,1,956,318.842c.805,6.246-.6,17.789-8.38,19.391-1.292-3.146-1.466-5.2-3.306-8.216a30.545,30.545,0,0,1-3.209-6.584,19.746,19.746,0,0,1,1.823-16.3c-8.719.42-16.192-9.507-13.377-17.769a12.3,12.3,0,0,1-12.474-1.122c-3.106-2.3-6.433-8-4.227-11.79a14.859,14.859,0,0,1,1.536,6.23,11.235,11.235,0,0,1-1.99,7.277,13,13,0,0,1-3.783,3.217c-3.686,2.219-5.559,1.841-5.864,6.428C902.1,309.477,898.78,322.055,886.589,322.546Z" transform="translate(-488.429 -241.681)"/><path class="h" d="M872.931,382.523c-3.771-5.629-12.827-9.67-17.974-3.358-3.516,4.312-3,11.69-1.383,16.643,2.279,7,8.812,11.646,14.94,5.506" transform="translate(-497.361 -287.431)"/><g transform="translate(0 336.028)"><path class="j" d="M313.929,848.031l88.751-96.677H961.4l103.671,96.677Z" transform="translate(-313.929 -751.354)"/><rect class="k" width="751.14" height="20.156" transform="translate(0 96.677)"/></g><path class="h" d="M1150.7,712.659c1.791.554,2.543,2.8,2.951,4.773a66.488,66.488,0,0,1-.074,26.94,6.393,6.393,0,0,1-1.067,2.751,5.765,5.765,0,0,1-3.13,1.638L1112.69,758.9a1.846,1.846,0,0,1-1.657-.074,2.229,2.229,0,0,1-.514-1.794,134.782,134.782,0,0,1,4.055-31.279c1-3.978,2.532-8.354,6-10.077,3.2-1.593,7.053-.353,10.429-.477C1136.783,714.983,1145.143,710.943,1150.7,712.659Z" transform="translate(-585.326 -401.998)"/><path class="l" d="M899.613,474.024a4.835,4.835,0,0,1-1.265.695c-2.372.852-5.072-.652-6.416-2.785-3.375-5.359-5.232-14.435-4.472-20.632.713-5.812,5.99-13.137,11.623-6.979,3.37,3.684,4.673,8.819,5.114,13.793.448,5.048,0,10.528-3.164,14.489A8.014,8.014,0,0,1,899.613,474.024Z" transform="translate(-509.273 -309.925)"/><path class="f" d="M566.1,641.275c-1.2-7.693,1.163-15.6,5.068-22.34,16.492-28.448,48.925-50.716,71.566-74.3,15.723-16.377,31.513-34.453,49.651-48.346,13.341-10.219,37.286-14.256,49.638.165,9.628,11.242-1.127,27.34-8.477,37.386-15.232,20.821-34.361,38.347-53.757,55.193-9.522,8.27-18.878,17.906-29.161,25.181-8.819,6.24-16.792,10.694-23.064,20.2" transform="translate(-399.736 -325.287)"/><path class="f" d="M1079.756,528.834q22.017,20.98,43.565,42.444c6.622,6.592,14.853,10.633,20.673,17.828,6.82,8.432,13.1,17.916,14.633,28.883,3.635,25.938-35.929,13.1-47.838,7.165-13.356-6.662-24.918-16.4-35.876-26.53a497.636,497.636,0,0,1-39.385-40.819c-6.573-7.64-12.953-15.538-17.765-24.393-3.552-6.537-6.264-14.113-4.48-21.336,1.808-7.32,8.307-13.067,15.675-14.66C1048.339,493.226,1067.412,517.071,1079.756,528.834Z" transform="translate(-552.006 -328.643)"/><path class="i" d="M1161.309,677.437c-.253.082.159.462.32.25s.014-.51-.125-.736c-2.827-4.6-1.859-10.851,1.312-15.224s8.156-7.109,13.277-8.827" transform="translate(-602.127 -381.783)"/><path class="m" d="M1142.2,609.882c-7.232,1.6-14.735,3.109-21.312,6.665-6.452,3.488-11.989,6.205-13.443,13.9-1.423,7.529-1.963,16.507-.625,24.1,1.227,6.964,4.836,13.85,10.979,17.35,4.417,2.517,9.673,3.063,14.757,3.13,12.224.161,24.328-2.517,35.938-6.021,3.892-1.175,7.822-2.5,11.058-4.862,5.8-4.236,8.639-11.441,8.51-18.377s-2.915-13.623-6.65-19.591c-25.186-40.249-57.325-76.8-92.084-109.123-17.625-16.392-41.033-27.961-65.751-26.981" transform="translate(-555.707 -326.285)"/><path class="i" d="M1037.8,571.156c.487,8.69-2.981,16.891-3.3,25.5-.382,10.279,2.492,20.3,2.4,30.484-.105,11.206-4.125,22.818-10.013,32.251-1.8,2.88-3.974,5.751-7.1,7.068" transform="translate(-554.409 -353.933)"/><g transform="translate(418.257 245.859)"><path class="h" d="M1085.487,721c3.126-2.642,6.475-4.8,9.488-7.717,2.217-2.149,4.446-4.456,7.344-5.523,2.769-1.019,5.086.106,7.828.415,2.354.264,4.713-.084,7.052.461,4.593,1.069,7.908,4.5,6.869,9.441-.564,2.683-2.967,4.837-4.806,6.681-1.162,1.167-3.278,2.588-3.234,4.4.03,1.25,1.342,2.236,1.625,3.438.557,2.37-2.139,4.045-3.691,5.921-1.449,1.752-1.983,4.059-2.877,6.15-2.053,4.8-6.113,8.554-10.709,11.039-9.3,5.028-17.288,2.933-25.986-2.049a7.014,7.014,0,0,1-3.123-2.861c-2.245-4.9,1.334-10.962,3.8-15.026C1078.113,730.748,1080.9,724.869,1085.487,721Z" transform="translate(-989.969 -646.189)"/><path class="n" d="M1043.275,711.845a30.877,30.877,0,0,0,6.595-4.9c10.276-10.019,15.418-25.21,23.212-37.082,7.961-12.125,18.766-21.131,33.8-21.838-15.126-10.932-55-33.43-55-33.43s-12.089,8.9-16.912,14.424c-9.205,10.549-16.733,24.711-29.384,31.584-6.744,3.665-14.782,4.772-21.214,8.968-6.209,4.049-22.033,22.323-24.854,26.074-3.811,5.071-8.113,9.6-11.19,15.258,10.345.9,64.451,18.49,64.451,18.49s11.711-9.842,18.462-12.814C1034.149,715.293,1042.282,712.395,1043.275,711.845Z" transform="translate(-948.324 -614.59)"/><path class="h" d="M1135.142,713.883c3.042-4.772-.825-8.952-4.859-11.712L1123,697.19c-2.951-2.019-17.4-13.076-17-3.374.208,5.071,4.748,6.41,7.84,9.383a113.959,113.959,0,0,0,13.309,11.029l-.794-.546" transform="translate(-1002.04 -640.242)"/><path class="h" d="M1122.994,732.239a14.406,14.406,0,0,0,2.789-5.632c1.025-6.167-7.418-8.858-11.594-11.091-5.551-2.967-11.331-5.736-17.6-6.743-1.855-.3-6.19-1.228-7.581.447-1.994,2.4,1.252,6.464,3.067,7.808,1.867,1.382,3.966,1.766,5.986,2.726a52.17,52.17,0,0,1,5.531,3.594,68.816,68.816,0,0,0,12.909,6.815" transform="translate(-996.041 -646.499)"/><path class="h" d="M1107.266,751c-.083-.223-.112.3-.343.247q-5.116-1.284-10.176-2.776c-3.737-1.1-7.563-2.35-10.511-4.9-1.485-1.282-2.78-3.264-2.11-5.108a3.988,3.988,0,0,1,3.022-2.322,11.764,11.764,0,0,1,3.961.09c3.973.543,7.894,1.419,11.881,1.869,3.717.42,7.124.185,10.863.284,3.4.09,10.821,2.639,6.546,7.36" transform="translate(-994.53 -655.955)"/><path class="h" d="M1108.11,768.644a14.182,14.182,0,0,1-5.838-.045c-2.981-.447-11.25-1.961-11.578-5.845-.254-3.012,6.078-4.076,8.154-4.295,3.222-.34,19.007-.333,15.423,6.133" transform="translate(-996.827 -663.567)"/></g><path class="h" d="M716.156,708.531Q714.729,720,713.3,731.462c-.476,3.831-1.02,11.519-3.879,14.513-1.325,1.388-3.533,1.249-5.445,1.09-13.984-1.161-32.644,4.354-45.737-1.891-10.583-5.048-10.731-20.081-7.523-29.5,1.467-4.308,4.114-8.446,8.169-10.511,5.3-2.7,11.68-1.342,17.462.076,2.106.517,4.115.849,6.189,1.537,4.5,1.491,8.548,3.643,13.448,3.587C701.963,710.29,710.47,710.371,716.156,708.531Z" transform="translate(-428.049 -399.059)"/><path class="m" d="M607.475,617.379a65.751,65.751,0,0,1,41.891,15.358c-8.014,3.256-15.863,7.872-20.6,15.109s-5.553,17.562-.051,24.237c-1.533,3.349-6.265,3.238-9.882,2.547a424.631,424.631,0,0,1-46.993-11.786c-3.769-1.177-7.6-2.449-10.731-4.86-27.693-21.345,11.838-61.573,26.915-77.226,17.061-17.714,34.146-35.45,52.593-51.716,8.756-7.72,17.806-15.1,26.9-22.418,12.054-9.7,27.216-24.035,43.705-20.521" transform="translate(-394.872 -324.77)"/><path class="h" d="M739.585,705.159a5.366,5.366,0,0,1,1.855-1.8c2.215-1.536,4.465-3.752,7.193-3.964,3.489-.271,10.128-.752,12.637,2.322,1.633,2,1.385,4.8,2.424,7.1a28.277,28.277,0,0,0,4.825,7.966c3.092,3.292,8,6.182,7.457,10.666-.245,2.033-1.642,3.713-2.979,5.264l-4.113,4.771a8.982,8.982,0,0,1-7.064,3.9l-19.545,3.166a36.289,36.289,0,0,1-8.752.7,18.216,18.216,0,0,1-8.916-3.227" transform="translate(-453.846 -397.556)"/><path class="h" d="M735.032,763.155c3.448-.552,7.106-1.094,10.574-1.312,3.089-.194,6.989.771,9.948,1.693,3.249,1.012,5.751,2.2,9.175,2.234,3.823.042,17.057.466,12.64-6.776-1.377-2.257-5.254-3.7-7.576-4.615-2.925-1.154-5.962-2.008-8.843-3.278" transform="translate(-457.398 -415.24)"/><path class="o" d="M814.312,688.508c13.919-1.392,27.253-7.46,41.476-8.38l-1.444-2.865a7.52,7.52,0,0,0-6.763-3.958H789.775c-5.222,0-8.823,4.788-6.955,9.247l.522,1.247A79.194,79.194,0,0,0,814.312,688.508Z" transform="translate(-473.509 -388.735)"/><path class="p" d="M865.888,702.633l-9.572-18.979c-14.223.92-27.557,6.989-41.476,8.38a79.193,79.193,0,0,1-30.97-4.709l8.626,20.6a7.461,7.461,0,0,0,6.954,4.375h59.676C864.56,712.3,868.164,707.146,865.888,702.633Z" transform="translate(-474.037 -392.261)"/><path class="i" d="M780.661,569.134c.569,14.464-3.13,27.07-4.372,41.267a112.6,112.6,0,0,0,4.537,42.961" transform="translate(-471.308 -353.244)"/><path class="h" d="M743.969,701.936a80.2,80.2,0,0,1,15.846-20.62,4.828,4.828,0,0,1,4.757-1.716,82.36,82.36,0,0,1,19.465,4.184c3.032,1.047,6.36,1.895,8.949,3.86,1.673,1.27,3.341,2.545,5.018,3.809,1.265.954,3.926,2.509,4.142,4.278.237,1.945-2.425,3.994-4.023,4.522-2.931.969-4.614-.033-7.161-1.105-2.9-1.222-5.885-2.227-8.763-3.532-2.96-1.342-5.782-1.137-8.968-.806-2.213.23-4.522-.328-6.8-.216" transform="translate(-460.443 -390.857)"/><path class="h" d="M792.734,742.733c1.694,2.568.4,6.294-2.115,8.069s-5.816,1.987-8.872,1.631c-5.852-.68-11.327-3.163-16.611-5.768-3.153-1.554-6.337-3.2-8.812-5.7" transform="translate(-464.652 -411.786)"/><path class="h" d="M771.175,706.493c7.506,2.975,14.578,6.928,21.625,10.868l6.954,3.888c2.513,1.4,5.312,3.215,5.665,6.073.406,3.282-2.933,6.055-6.229,6.313s-6.445-1.249-9.407-2.718L763.6,717.934" transform="translate(-467.13 -400.042)"/><path class="i" d="M952.819,708.2A56.9,56.9,0,0,0,927.8,709c-5.222,1.358-10.759,3.462-15.827,1.61" transform="translate(-517.683 -400.275)"/><path class="i" d="M1032.358,348c3.341-.2,6.96,1.37,8.351,4.415s-.37,7.346-3.678,7.854a2.774,2.774,0,0,1-2.625-.825,2.359,2.359,0,0,1,.2-2.883,3.734,3.734,0,0,1,2.8-1.164c3.493-.044,6.273,3.757,5.73,7.209s-3.763,6.1-7.217,6.629" transform="translate(-558.697 -277.896)"/><path class="i" d="M827.879,315.548c-1.3-1-.964-3.039-1.648-4.529-1.133-2.469-4.979-2.577-6.927-.683s-2.3,4.921-1.912,7.61a1.625,1.625,0,0,0,.508,1.136c.565.41,1.419-.073,1.641-.735a3.386,3.386,0,0,0-.195-2.048,4.9,4.9,0,0,0-6.706,7.052" transform="translate(-483.478 -264.626)"/></g></g></g><g transform="translate(360.966 416.222)"><path class="q" d="M1082.733,862.419l65.78-3.7-60.606-41.636-62.867,2.179Z" transform="translate(-1025.04 -817.087)"/><path class="r" d="M1080.516,871.182l67.012-3.449.985-7.884-65.78,3.7-57.693-43.153v8.132Z" transform="translate(-1025.04 -818.213)"/><path class="s" d="M1089.526,860.956l55.025-2.147,17.481,12.323-54.895,2.307Z" transform="translate(-1047.01 -831.302)"/><g transform="translate(14.99 1.487)"><path class="s" d="M1047.776,823.182c.461.17,16.818,15.244,16.818,15.244l48.225-4.279-17.975-12.98Z" transform="translate(-1047.776 -819.964)"/><path class="t" d="M1065.246,839.2c-.024.359-.093.72-.137,1.076-.075.6.071,2.454-.776,2.535-.712.068-1.372-.93-1.851-1.334l-6.123-5.159c-2.226-1.875-4.456-3.755-6.5-5.826-.446-.452-.916-.881-1.363-1.332a2.127,2.127,0,0,1-.55-.653,5.518,5.518,0,0,1-.1-.86,3.2,3.2,0,0,1,0-.595q.053-.766.106-1.534c.018-.252-.07-.891.212-.98.234-.074.63.378.78.5q.931.764,1.854,1.538,1.878,1.574,3.736,3.172c2.466,2.108,4.925,4.224,7.448,6.263,1.026.829,2.052,1.659,3,2.577.281.273.291.121.264.579Z" transform="translate(-1047.795 -821.11)"/><path class="t" d="M1072.78,848.77l50.575-4.048-2.017-3.869-47.578,3.388Z" transform="translate(-1056.295 -826.671)"/><path class="u" d="M1060.495,823.265s16.544,15.156,16.817,15.132Z" transform="translate(-1052.109 -820.679)"/><line class="a" x1="17.701" y1="14.404" transform="translate(16.578 1.969)"/><line class="a" x1="17.701" y1="14.404" transform="translate(25.801 1.726)"/><line class="a" x1="17.701" y1="14.404" transform="translate(35.634)"/><line class="a" y1="4.256" x2="45.945" transform="translate(8.758 6.109)"/></g><g transform="translate(21.89 4.158)"><path class="t" d="M1058.242,824.644c.378.131,13.531,11,13.531,11l40.281-1.557-14.981-10.516Z" transform="translate(-1058.242 -823.454)"/><path class="v" d="M1068.86,824.9s13.307,10.933,13.533,10.924Z" transform="translate(-1061.86 -823.908)"/><line class="v" x1="14.292" y1="10.447" transform="translate(13.84 0.807)"/><line class="v" x1="14.292" y1="10.447" transform="translate(21.526 0.906)"/><line class="v" x1="14.292" y1="10.447" transform="translate(29.765)"/><line class="v" y1="1.607" x2="38.382" transform="translate(7.07 4.765)"/></g></g><g transform="translate(118.874 401.789)"><path class="n" d="M657.844,811.353c5.071,1.175,116.989-16.158,116.989-16.158l64.622,74.974L692.463,899.586Z" transform="translate(-657.844 -795.196)"/><line class="w" y1="14.039" x2="86.538" transform="translate(20.291 12.352)"/><line class="w" y1="14.978" x2="92.322" transform="translate(26.65 26.278)"/><line class="w" y1="14.974" x2="92.302" transform="translate(33.028 35.182)"/><line class="w" y1="19.5" x2="120.2" transform="translate(39.882 60.742)"/><line class="w" y1="18.095" x2="111.535" transform="translate(34.246 51.734)"/></g><path class="x" d="M908.867,413.581a67.156,67.156,0,0,1-.215,7.819c-.487,6.281-8.264,10.882-9.636,2.555-.843-5.116,1.276-11.155,3.138-15.858,1.206-3.047,2.581-7.672,4.876-3.244A21.612,21.612,0,0,1,908.867,413.581Z" transform="translate(-621.073 -259.794)"/></g><path class="y" d="M1040.9,215.673l24.749-78.511,25.065,18.7Z" transform="translate(-191.935)"/><path class="z" d="M1048.434,242.775l44.519-52.063,13.106,22.48Z" transform="translate(-194.503 -18.245)"/><g transform="translate(908.711 616.924)"><path d="M1172.834,869.3l-.38-.476,2.436-.111.347.473Z" transform="translate(-1145.467 -866.162)"/><path d="M1169.108,870.415h.019l.725-.463.533.436-.906.565-.7.039-4.212-4.716.911-.036Z" transform="translate(-1142.779 -865.32)"/><path d="M1159.3,864.845a13.314,13.314,0,0,0,1.241,2l-.972.123a8.213,8.213,0,0,1-.929-2.051Z" transform="translate(-1140.762 -864.845)"/><path d="M1154.783,866.578l.452.444-.2.569c-.491,1.295-.6,1.95.159,2.647a3.086,3.086,0,0,0,2.239.8,1.169,1.169,0,0,0,.978-.441l.7.4a1.674,1.674,0,0,1-1.342.529,4.98,4.98,0,0,1-3.392-1.16c-.969-.854-.851-1.617-.48-2.705l.163-.408-.017-.017-3.255.133-.689-.6Z" transform="translate(-1137.85 -865.435)"/><path d="M1145.868,866.919l.526.45-.14.578c-.354,1.313-.391,1.977.488,2.681a3.635,3.635,0,0,0,2.43.8,1.082,1.082,0,0,0,.967-.447l.777.4c-.157.276-.581.495-1.335.537a5.866,5.866,0,0,1-3.676-1.168,2.236,2.236,0,0,1-.831-2.74l.121-.414-.02-.017-3.384.138-.795-.612Z" transform="translate(-1134.749 -865.552)"/><path d="M1136.594,867.273l.605.456-.074.586c-.207,1.331-.163,2,.842,2.716a4.287,4.287,0,0,0,2.634.808c.624-.034.866-.266.953-.454l.859.406c-.129.279-.545.5-1.326.545a6.9,6.9,0,0,1-3.979-1.177,2.459,2.459,0,0,1-1.209-2.776l.074-.42-.022-.017-3.521.144-.909-.621Z" transform="translate(-1131.521 -865.672)"/></g></g></svg>