<svg xmlns="http://www.w3.org/2000/svg" xmlns:xlink="http://www.w3.org/1999/xlink" width="489.975" height="449.507" viewBox="0 0 489.975 449.507"><defs><style>.a,.l,.m,.p{fill:none;}.b{fill:url(#a);}.c{fill:url(#b);}.d{clip-path:url(#c);}.e,.h,.k{fill:#bb6737;}.f,.j{fill:#4fa5ad;}.g{fill:#408d91;}.h,.i,.j,.k,.l,.m,.n,.o{stroke:#060c39;}.h,.i,.j,.m,.n,.o{stroke-miterlimit:10;}.i,.o{fill:#060c39;}.k,.l,.p{stroke-linecap:round;stroke-linejoin:round;}.n{fill:#fff;stroke-width:0.917px;}.o{stroke-width:0.957px;}.p{stroke:#fff;stroke-width:3px;}.q{fill:url(#d);}.r{fill:url(#e);}.s{fill:url(#f);}.t{fill:url(#g);}.u{fill:url(#h);}.v{fill:url(#i);}</style><linearGradient id="a" y1="0.5" x2="1" y2="0.5" gradientUnits="objectBoundingBox"><stop offset="0" stop-color="#ff9077"/><stop offset="1" stop-color="#e9645a"/></linearGradient><linearGradient id="b" x1="1.795" y1="0.273" x2="0.768" y2="0.456" xlink:href="#a"/><clipPath id="c"><path class="a" d="M941.956,259.1a102.377,102.377,0,0,0-32.573-19.725c-39.758-15.443-98.627-20.727-141.212-21.933-35.308-1-82.62,11.326-120.783,42.173a171.19,171.19,0,0,0-41.4,48.563c-19.637,34.488-27.884,76.478-24.044,116.454,1.9,19.8,8.3,34.333,16.116,47.949,9.109,15.866,20.148,30.487,28.252,50.754,7.953,19.89,12.227,42.056,25.294,58.647,44.89,57,125.856,78.4,192,53.644,17.79-6.658,44.835-18.517,66.024-34.26,14.12-10.49,25.642-22.7,30.087-36.258,4.431-13.508,4.25-28.175,6.885-42.2,9.151-48.709,48.28-85.141,48.671-136.71C995.612,342.018,973.512,288.21,941.956,259.1Z" transform="translate(-581.027 -217.388)"/></clipPath><linearGradient id="d" x1="0.79" y1="-0.367" x2="0.005" y2="1.914" xlink:href="#a"/><linearGradient id="e" x1="0.487" y1="0.494" x2="0.359" y2="1.008" xlink:href="#a"/><linearGradient id="f" x1="0.713" y1="-0.573" x2="0.336" y2="1.476" gradientUnits="objectBoundingBox"><stop offset="0" stop-color="#faebd8"/><stop offset="1" stop-color="#ffb83f"/></linearGradient><linearGradient id="g" x1="0.516" y1="0.293" x2="0.373" y2="1.104" xlink:href="#f"/><linearGradient id="h" x1="-7.8" y1="-15.601" x2="-8.191" y2="-13.711" gradientUnits="objectBoundingBox"><stop offset="0" stop-color="#2a7195"/><stop offset="1" stop-color="#060c39"/></linearGradient><linearGradient id="i" x1="-6.701" y1="-9.359" x2="-6.843" y2="-8.588" xlink:href="#h"/></defs><g transform="translate(-581.027 -184.612)"><path class="b" d="M720.725,390.973c-1.406-46.382-32.141-89.348-73.338-108.557a171.191,171.191,0,0,0-41.4,48.563c-19.637,34.488-27.884,76.478-24.044,116.453,1.9,19.8,8.3,34.334,16.116,47.949,9.109,15.866,20.148,30.487,28.252,50.754,7.953,19.89,12.227,42.056,25.294,58.647,44.89,56.995,125.856,78.4,192,53.644,17.79-6.658,44.835-18.517,66.024-34.26-46.677-10.8-90.871-29.151-131.62-58.753C720.725,523.573,722.656,453.411,720.725,390.973Z" transform="translate(0 -34.848)"/><path class="c" d="M976.454,564.533c4.431-13.508,4.25-28.175,6.885-42.2,9.151-48.709,48.28-85.141,48.671-136.71.335-44.183-21.765-97.99-53.321-127.1A102.377,102.377,0,0,0,946.116,238.8c-39.758-15.443-98.627-20.727-141.212-21.933-35.308-1-82.62,11.325-120.784,42.173,41.2,19.21,71.932,62.175,73.338,108.557,1.931,62.438,0,132.6,57.288,174.44,40.749,29.6,84.943,47.95,131.62,58.753C960.487,590.3,972.009,578.086,976.454,564.533Z" transform="translate(-36.733 -11.473)"/><g transform="translate(581.027 205.71)"><g class="d"><g transform="translate(100.926 44.716)"><path class="a" d="M962.785,351.587c1.083,4.338.5,8.89-.14,13.312q-3.768,26.138-9.724,51.917c-1.537,6.652-3.314,13.543-7.8,18.767a23.541,23.541,0,0,1-21.445,7.6,23.1,23.1,0,0,1-17.428-14.38" transform="translate(-797.832 -309.92)"/><path class="e" d="M1012.741,666.351c-.181,8.786-.359,17.615.839,26.321.607,4.411,1.786,9.144,5.283,11.9,2.279,1.8,5.225,2.478,8.088,2.953a79.006,79.006,0,0,0,13.87,1.058,9.767,9.767,0,0,0,4.135-.691,10.166,10.166,0,0,0,2.915-2.436c2.194-2.374,4.389-4.89,5.4-7.962,1.311-4,.434-8.34-.361-12.472q-1.692-8.791-2.83-17.678c-.861-6.734-1.807-14.163-6.882-18.672s-12.639-4.577-19.435-4.153c-3.97.247-9.7,1.072-10.664,5.7C1012.047,655.23,1012.846,661.24,1012.741,666.351Z" transform="translate(-835.708 -414.234)"/><path class="f" d="M833.608,751.416c21.985,1.459,44.154,1.625,65.684-2.738a157.7,157.7,0,0,0,33.5-10.8,8.406,8.406,0,0,0,3.586-2.472c1.106-1.56,1.006-3.62.863-5.512-2.72-35.917-2.183-71.269-5.807-107.274q-1.946-19.334-4.5-38.6c-1.084-8.179.2-15.9-1.51-24.059a115.7,115.7,0,0,0-6.245-20.993c-5.8-13.855-15.518-25.714-29.739-31.916-5.389-2.349-11.255-3.428-17.077-4.366-10.138-1.633-19.183-3.035-29.529-2.283-14.812,1.077-28.416,5.5-42.511,9.753-11.991,3.62-18.672,14.457-22.738,25.828-8.341,23.332-8.406,48.85-5.551,73.462s8.513,48.837,11.325,73.454c2.322,20.331,2.925,41.683,12.9,59.55,4.275,7.657,19.685,7.6,27.613,8.243Q828.733,751.088,833.608,751.416Z" transform="translate(-749.406 -362.871)"/><rect class="g" width="34.015" height="9.012" rx="4.506" transform="translate(138.212 217.843)"/><path class="h" d="M871.405,434.729l.855,25.248c.239,7.038,2.176,16.3.406,23.129-1.981,7.646-1.6,14.021,1.8,21.065,3.964,8.212,10.533,14.838,16.966,21.149,3.188,3.127,6.5,6.309,10.634,8s9.323,1.581,12.6-1.453c1.923-1.781,2.954-4.3,3.927-6.733l9.551-23.886c2.5-6.248-4.96-15.566-11.033-16.654a12.1,12.1,0,0,1-3.058-.684c-4.808-2.251-1.994-13.606-1.706-17.617l-.25,2.861" transform="translate(-785.417 -339.544)"/><path class="i" d="M848.318,363.9c-4.548-13.106-6.709-27.334-5.126-40.932,1.119-9.608,5.527-15.924,15.92-16.826,6.669-.579,14.743,1.061,18.166,7.255,7.206,13.043,3.769,27.795-1.5,40.841-2.785,6.893-6.2,13.517-9.363,20.247-1.456,3.1-3.573,13.844-8.7,11.841-3.1-1.212-4.347-10.159-5.6-12.922C850.717,370.326,849.444,367.149,848.318,363.9Z" transform="translate(-775.181 -293.69)"/><path class="h" d="M870.659,394.472c-3.625-11.753-6.51-23.959-5.617-36.2,1.6-21.911,17.757-38.835,39.054-44.214,11.976-3.025,26.485-.742,36.617,6.477,9.91,7.06,6.848,18.2,4.139,28.075-3.056,11.14.639,23.691-.25,35.264-.944,12.293-3.061,19.884-10.107,30.317-2.358,3.493-3.483,10.663-7.424,12.857-16.383,9.125-33.2-6.683-41.547-18.655" transform="translate(-783.092 -296.084)"/><path class="i" d="M946.934,320.9C954,318.271,962,313.55,961.892,306.161l-13.957,2.33a21.98,21.98,0,0,0,12.334-17.366,72.977,72.977,0,0,1-16.228,5.346,14.99,14.99,0,0,0,6.622-8.988,50.09,50.09,0,0,1-12.067,2.5c-7.91.642-16.939-.238-22.663,5.133l2.775-8.067c-5.726,2.7-13.018,1.906-19.047.707-9.978-1.984-14.514-.789-23.065,4.473a11.829,11.829,0,0,0-4.707,4.438c-1.49,3.018-.388,6.647,1.24,9.6C886.346,330.206,924.643,329.194,946.934,320.9Z" transform="translate(-785.34 -286.856)"/><path class="i" d="M871.525,368.78a22.073,22.073,0,0,1-6.087,5.6c-3.244,1.874-7.558,2.408-10.731.421a12.651,12.651,0,0,1-4.488-5.9c-5.446-12.425-2.047-25.683,6.885-35.657,6.58-7.347,23.147-19.763,28.055-4.722,4.552,13.948-4.071,27.152-11.917,37.985C872.687,367.267,872.118,368.033,871.525,368.78Z" transform="translate(-776.935 -299.17)"/><path class="h" d="M867.019,415.606a8.922,8.922,0,0,1-5.864-5.433c-5.294-12.866,4.882-30.215,17.043-14.93" transform="translate(-781.254 -323.345)"/><path class="f" d="M855.8,503.226l45.413,61.8,17.7-49.715,12.2,3.971-26.665,65.548L844.7,510.854Z" transform="translate(-775.904 -363.951)"/><path class="h" d="M1015.354,696.523s-25.774-2.16-85.2,17.982L925.667,739.8c16.076,1.851,32.7.624,48.811-.523q17.355-1.235,34.6-3.62c8.879-1.227,17.691-2.735,21.558-12.017,1.928-4.629,2.167-9.778,2.035-14.791-.281-10.759-2.132-21.407-3.98-32.01q-1.257-7.212-2.513-14.423a48.768,48.768,0,0,0-2.911-11.285c-2.889-6.6-8.636-10.618-15.494-12.016-4.1-.836-7.234.536-10.734,2.707-5.83,3.618-10.786,9-14.729,14.576" transform="translate(-804.752 -412.28)"/><path class="j" d="M978.959,528.168a210.09,210.09,0,0,1,31.744,12.108c5.113,2.441,10.284,5.22,13.733,9.641,2.83,3.628,4.277,8.078,5.672,12.431l10.077,31.437c1.667,5.2,6.025,13.168,6.038,18.528.014,5.571-6.484,10.69-10.7,13.366-11.417,7.246-16.3,6.016-29.751,6.914" transform="translate(-823.74 -372.838)"/><g transform="translate(65.859 301.613)"><path class="k" d="M850.295,780.02c-7.9,13.551,7.887,13.695,17.915,14.419a19.737,19.737,0,0,0,4.555-.043,20.579,20.579,0,0,0,4.315-1.356c8.17-3.255,15.31-9.138,23.724-11.769,3.309-1.034,4.892-.905,7.028-3.991a19.419,19.419,0,0,0,3.311-10.478c.143-6.338-2.592-8.882-8.6-10.766a20.763,20.763,0,0,0-6.494-.6c-7.534.1-15.128.232-22.566,1.522a57.522,57.522,0,0,0-10.745,2.861c-4.028,1.54-4.486,2.976-7.178,5.941" transform="translate(-842.992 -755.424)"/><path class="k" d="M846.229,779a19.277,19.277,0,0,0-1.49,5.186,6.507,6.507,0,0,0,1.475,5.048c1.471,1.578,3.784,2.041,5.935,2.419l8.565,1.507" transform="translate(-841.763 -763.824)"/><path class="k" d="M857.775,757.609a50.57,50.57,0,0,0-11.235-1.842,4.714,4.714,0,0,0-1.625.118,3.275,3.275,0,0,0-2.064,3c-.251,4.416,3.535,5.748,7.138,6.381l8.566,1.507" transform="translate(-841.098 -755.54)"/><path class="k" d="M857.749,769.926c-3.669-.5-8.788-1.065-12.456-1.569a5.52,5.52,0,0,0-3.747.369,3.462,3.462,0,0,0-1.412,2.981,9.255,9.255,0,0,0,.857,3.3,5.14,5.14,0,0,0,1.157,1.932,5.53,5.53,0,0,0,2.153,1.034c3.2,1,9.2,2.377,12.4,3.377" transform="translate(-840.134 -759.98)"/></g><path class="h" d="M800.5,652.013s52.93,57.606,74.259,62.758c0,0,29.073,9.657,28.107-101.057.01,1.609-1.609-54.714-1.609-54.714l-30.886,2.12s-.419,63.44-9.365,79.59l-29.246-32.145Z" transform="translate(-760.153 -383.823)"/><g transform="translate(110.218 104.26)"><path class="k" d="M943.218,528.068c-.2.31-.409.608-.637.893,5.328-5.482,7.155-14.175,8.217-21.448,1.179-8.079,6.931-19.962,1.5-27.075a4.6,4.6,0,0,0-1.817-6.1c-1.884-1.006-3-.818-4.964-1.662-.3.533-1.229.062-1.27-.543a3.71,3.71,0,0,1,.637-1.686c1.091-2.363-1.208-5.2-3.835-5.567s-5.188,1-7.239,2.648a24.56,24.56,0,0,0-3.039,2.9c.446-.588.958-2.509,1.4-3.1,1.618-2.134,3.319-4.814,2.272-7.265-2.405-.228-5.773-1.025-7.777.293" transform="translate(-915.327 -452.671)"/><path class="k" d="M958.281,491.2c3.209.328,8.44-2.169,10.908.548a8.021,8.021,0,0,1,1.606,3.273c1.6,5.629,1.122,11.6.628,17.421a7.052,7.052,0,0,1-1.155,3.957c-2.447,3.014-6.134-1.343-7.054-3.582a12.047,12.047,0,0,1-.334-8.427" transform="translate(-926.591 -463.662)"/><path class="k" d="M939.608,518.822c-.584,4.477.164,15.5-4.2,17.852A19.537,19.537,0,0,1,920.234,538a36.536,36.536,0,0,1-5.592-2.555,10.092,10.092,0,0,1-3.021-2.116,8.568,8.568,0,0,1-1.6-3.448c-2.787-10.279,1.244-20.805,1.883-31.167.879-14.254,1.939-28.5,3-42.738a5.282,5.282,0,0,1,1.2-3.6,5.508,5.508,0,0,1,3.062-1.1q10.248-1.479,20.573-2.374c1.885-.164,4.087-.191,5.3,1.229,1.354,1.587.537,4.169-1.132,5.438s-3.878,1.573-5.976,1.834l-12.077,1.5" transform="translate(-909.049 -448.828)"/><path class="l" d="M935.8,471.157l-4.085,2.446a7.436,7.436,0,0,0-3.53,4.99" transform="translate(-915.868 -456.784)"/></g><path class="j" d="M782.75,521.282c-4.364,2.547-9.364,3.894-13.912,6.309-7.856,4.17-20.688,6.651-25.5,14.388-6.518,10.481-6.4,25.647-4.046,37.232,4.919,24.233,19.954,44.285,35.691,62.673,9.144,10.683,13.776,9.306,25.872,2.18a91.844,91.844,0,0,0,26.758-23.846,33.388,33.388,0,0,0,5.9-10.867c-8.681-10.632-16.938-23.616-20.969-36.736" transform="translate(-737.82 -370.384)"/><path class="m" d="M892.233,678.544c-.986,3.854-3.276,7.22-5.124,10.742a50.8,50.8,0,0,0-5.663,19.8" transform="translate(-788.995 -426.418)"/><path class="e" d="M909.72,556.612c-.185.8-.111,2.411-.25,3.219a17.14,17.14,0,0,0,.265,3.5A23.954,23.954,0,0,0,914.8,577.74a19.948,19.948,0,0,0,11.269,6.809,3.183,3.183,0,0,0,2-.055,3.435,3.435,0,0,0,.838-.634l2.815-2.622a9.433,9.433,0,0,0,2.854-4.009l3.468-7.659a15.163,15.163,0,0,0,1.608-5.538c.16-1.157.073-2.508.233-3.665,0-1.263-.044-2.472-.108-3.755a18.736,18.736,0,0,0-.342-4.51c-.649-2.234-2.3-3.817-3.966-5.346a29.573,29.573,0,0,0-5.984-4.5,12.171,12.171,0,0,0-9.312-1.249c-2.507.813-5.985,3.057-7.335,5.442C911.055,549.6,910.519,553.158,909.72,556.612Z" transform="translate(-798.961 -377.251)"/><path class="m" d="M1011.361,621.034a250.113,250.113,0,0,1,6.878,52.438" transform="translate(-835.285 -405.927)"/></g></g><path class="n" d="M1054.175,275.719,1046.767,304a1.363,1.363,0,0,0,2.339,1.249l17.089-19.3h161.214a9.065,9.065,0,0,0,9.065-9.065V228.1a9.053,9.053,0,0,0-9.053-9.054h-166.1a7.656,7.656,0,0,0-7.655,7.736Z" transform="translate(-746.957 -217.98)"/><g transform="translate(369.567 29.607)"><ellipse class="o" cx="6.176" cy="6.032" rx="6.176" ry="6.032"/><ellipse class="o" cx="6.176" cy="6.032" rx="6.176" ry="6.032" transform="translate(24.703)"/><ellipse class="o" cx="6.176" cy="6.032" rx="6.176" ry="6.032" transform="translate(49.407)"/></g><path class="m" d="M848.618,646.017c-5.37,9.886-13.614,17.994-22.833,24.442s-19.429,11.332-29.725,15.866" transform="translate(-657.646 -370.112)"/><path class="m" d="M1059.8,646.954c-1.275,4.241-4.754,7.453-8.441,9.9a46.448,46.448,0,0,1-28.823,7.581" transform="translate(-738.341 -370.446)"/></g><path class="p" d="M1255.349,404.512c10.734,47.068-.531,98.487-30.046,137.143" transform="translate(-229.562 -78.352)"/><g transform="translate(962.2 472.774)"><path class="q" d="M1205.327,675.211c5.506-2.065,10.737-7.571,16.657-5.231,3.717,1.514,7.709,5.368,11.839,1.927a40.964,40.964,0,0,0,4.978-4.709,32.265,32.265,0,0,0,.244-3.967c0-17.092-13.407-30.947-29.945-30.947a29.245,29.245,0,0,0-19.177,7.18,6.511,6.511,0,0,1,1.5,2.3,39.722,39.722,0,0,1,2.478,9.637c.688,4.818-1.652,9.085-1.789,13.765C1191.836,672.183,1198.582,677.689,1205.327,675.211Z" transform="translate(-1179.154 -632.284)"/><path class="r" d="M1187.941,655.371a39.722,39.722,0,0,0-2.478-9.637,6.512,6.512,0,0,0-1.5-2.3,31.3,31.3,0,0,0-10.768,23.767c0,17.092,13.407,30.947,29.944,30.947,15.238,0,27.817-11.762,29.7-26.98a40.958,40.958,0,0,1-4.978,4.709c-4.13,3.441-8.122-.413-11.839-1.927-5.919-2.34-11.151,3.166-16.657,5.231-6.745,2.478-13.49-3.029-13.215-10.049C1186.289,664.456,1188.629,660.189,1187.941,655.371Z" transform="translate(-1173.194 -636.259)"/></g><g transform="translate(629.102 184.612)"><path class="s" d="M678.7,217.949c8.068-2.5,12.8-11.963,21.143-13.076,10.572,8.9,18.361,25.316,34.5,23.091,1.67-.279,3.339-1.948,4.173-3.617a56.5,56.5,0,0,0,2.882-5.325c-3.841-19.644-20.29-34.41-40-34.41a40.019,40.019,0,0,0-32.127,16.518c.377,2.749.839,5.485,1.364,8.194C671.184,212.941,672.019,219.618,678.7,217.949Z" transform="translate(-660.542 -184.612)"/><path class="t" d="M733.68,233.491c-.834,1.669-2.5,3.338-4.173,3.617-16.135,2.225-23.925-14.188-34.5-23.091-8.346,1.113-13.075,10.572-21.143,13.076-6.676,1.669-7.511-5.008-8.067-8.625-.525-2.709-.987-5.445-1.364-8.194a44.614,44.614,0,0,0-8.722,26.686c0,23.861,18.289,43.2,40.849,43.2s40.848-19.344,40.848-43.2a45.829,45.829,0,0,0-.848-8.794A56.5,56.5,0,0,1,733.68,233.491Z" transform="translate(-655.714 -193.756)"/></g><g transform="translate(594.471 574.625)"><path class="u" d="M616.958,808.108c4.763-.878,8.1-5.941,12.923-6.008,5.413,5.785,8.734,15.657,18.07,15.485a3.813,3.813,0,0,0,2.62-1.775,32.4,32.4,0,0,0,2-2.836c-.854-11.443-9.215-20.966-20.435-22.3a22.945,22.945,0,0,0-19.409,7.223c.028,1.591.106,3.179.22,4.757C613.022,804.747,613.043,808.6,616.958,808.108Z" transform="translate(-605.767 -790.513)"/><path class="v" d="M646.718,819.895a3.814,3.814,0,0,1-2.62,1.775c-9.337.172-12.657-9.7-18.07-15.485-4.827.067-8.161,5.13-12.923,6.008-3.914.5-3.936-3.361-4.008-5.457-.115-1.578-.192-3.166-.22-4.757a25.576,25.576,0,0,0-6.776,14.6c-1.619,13.583,7.479,25.835,20.321,27.367s24.565-8.239,26.185-21.822a26.274,26.274,0,0,0,.115-5.063A32.416,32.416,0,0,1,646.718,819.895Z" transform="translate(-601.913 -794.598)"/></g></g></svg>