<svg xmlns="http://www.w3.org/2000/svg" xmlns:xlink="http://www.w3.org/1999/xlink" width="487.055" height="505.484" viewBox="0 0 487.055 505.484"><defs><style>.a,.p{fill:none;}.b{fill:url(#a);}.c{fill:url(#b);}.d{fill:url(#c);}.e{fill:url(#d);}.f{fill:url(#e);}.g{fill:url(#f);}.h{clip-path:url(#g);}.i{fill:#398084;stroke-miterlimit:10;stroke-width:1.073px;}.i,.k,.l,.n,.o,.p{stroke:#060c39;}.j,.l{fill:#bb6737;}.k,.m,.o{fill:#4fa5ad;}.k,.l,.n,.o,.p{stroke-linecap:round;stroke-linejoin:round;}.k{stroke-width:1.062px;}.n{fill:#060c39;}.q{fill:#408d91;}</style><linearGradient id="a" x1="0.79" y1="-0.367" x2="0.005" y2="1.914" gradientUnits="objectBoundingBox"><stop offset="0" stop-color="#ff9077"/><stop offset="1" stop-color="#e9645a"/></linearGradient><linearGradient id="b" x1="0.487" y1="0.494" x2="0.359" y2="1.008" xlink:href="#a"/><linearGradient id="c" x1="-1.987" y1="-8.479" x2="-2.378" y2="-6.59" gradientUnits="objectBoundingBox"><stop offset="0" stop-color="#2a7195"/><stop offset="1" stop-color="#060c39"/></linearGradient><linearGradient id="d" x1="-1.761" y1="-4.782" x2="-1.903" y2="-4.011" xlink:href="#c"/><linearGradient id="e" x1="0.283" y1="-0.029" x2="0.928" y2="1.165" gradientUnits="objectBoundingBox"><stop offset="0" stop-color="#faebd8"/><stop offset="1" stop-color="#ffb83f"/></linearGradient><linearGradient id="f" x1="1.189" y1="-1.151" x2="-0.061" y2="1.87" xlink:href="#e"/><clipPath id="g"><path class="a" d="M1129.762,519.768c1.761-48.605-18.348-90.994-25.311-138.98-2.726-18.78-3.02-39-13.767-54.638-7.77-11.309-19.993-18.6-31.829-25.546-21.837-12.807-44.016-25.76-68.484-32.251-15.715-4.169-32.014-5.569-48.218-6.892-35.941-2.934-72.964-5.455-107.314,5.52C785.682,282.688,748.744,324.1,723,368.828c-22.192,38.564-37.756,80.385-57.3,120.262-18.1,36.943-27.52,72.925-20.633,114.653,8.015,48.559,33.927,82.1,49.243,98.486,77.8,83.223,196,59.413,202.765,57.932,26.656-5.831,71.616-15.667,98.486-52.139,14.148-19.206,15.309-34.977,37.656-57.933,21.7-22.293,30.959-18.052,52.14-37.656,24.893-23.041,40.951-50.541,43.9-84.58Q1129.62,523.78,1129.762,519.768Z" transform="translate(-642.816 -258.941)"/></clipPath></defs><g transform="translate(-642.816 -258.941)"><g transform="translate(1045.069 661.841)"><path class="b" d="M1181.333,806.715c3.411-1.279,6.651-4.69,10.319-3.241,2.3.938,4.775,3.326,7.333,1.194a25.361,25.361,0,0,0,3.084-2.917,20,20,0,0,0,.151-2.458c0-10.587-8.3-19.17-18.549-19.17a18.115,18.115,0,0,0-11.879,4.448,4.024,4.024,0,0,1,.93,1.422,24.606,24.606,0,0,1,1.535,5.97c.426,2.984-1.023,5.628-1.109,8.527A6.19,6.19,0,0,0,1181.333,806.715Z" transform="translate(-1165.12 -780.124)"/><path class="c" d="M1172.3,793.269a24.594,24.594,0,0,0-1.535-5.97,4.022,4.022,0,0,0-.93-1.422,19.386,19.386,0,0,0-6.67,14.722c0,10.588,8.3,19.171,18.549,19.171a18.775,18.775,0,0,0,18.4-16.713,25.384,25.384,0,0,1-3.084,2.917c-2.558,2.131-5.031-.256-7.333-1.194-3.667-1.449-6.907,1.961-10.319,3.241a6.19,6.19,0,0,1-8.186-6.225C1171.274,798.9,1172.723,796.253,1172.3,793.269Z" transform="translate(-1163.162 -781.43)"/></g><g transform="translate(691.86 320.563)"><path class="d" d="M724.294,362.632c6.49-1.2,11.034-8.1,17.611-8.188,7.378,7.884,11.9,21.337,24.625,21.1a5.2,5.2,0,0,0,3.572-2.42,44.28,44.28,0,0,0,2.728-3.864c-1.163-15.594-12.557-28.571-27.848-30.394a31.268,31.268,0,0,0-26.45,9.843c.039,2.167.144,4.333.3,6.483C718.929,358.052,718.959,363.309,724.294,362.632Z" transform="translate(-709.044 -338.654)"/><path class="e" d="M767.316,376.08a5.2,5.2,0,0,1-3.572,2.42c-12.723.233-17.247-13.22-24.625-21.1-6.577.091-11.121,6.991-17.611,8.188-5.334.677-5.364-4.58-5.462-7.437-.156-2.15-.261-4.316-.3-6.483a34.856,34.856,0,0,0-9.234,19.9c-2.207,18.511,10.192,35.208,27.692,37.294s33.478-11.228,35.685-29.738a35.839,35.839,0,0,0,.155-6.9A44.263,44.263,0,0,1,767.316,376.08Z" transform="translate(-706.258 -341.607)"/></g><path class="f" d="M884.251,617.58c-17.78,9.277-36.333,17.007-56.433,18.553-67.91,7.063-120.549-30.164-172.672-70.359-10.009,27.248-15.406,59.224-9.607,94.364,8.015,48.559,33.927,82.1,49.243,98.486,77.8,83.223,196,59.413,202.764,57.932,26.656-5.831,71.616-15.667,98.486-52.14,14.148-19.2,15.309-34.977,37.656-57.932,21.7-22.294,30.959-18.052,52.14-37.656,7.483-6.927,48.653-45.033,43.449-92.692-3.364-30.8-24.666-52.49-39.061-65.579-11.021,4.757-21.757,10.217-32.031,15.8C999.435,558.055,943,586.658,884.251,617.58Z" transform="translate(-0.077 -57.104)"/><path class="g" d="M1022.226,437.6c-30.836-18.1-44.6-27.477-52.139-31.864-50.706-29.49-168-35.438-249.111,37.657-4.815,4.339-42.924,39.784-62.809,93.918,52.124,40.195,104.762,77.422,172.672,70.359,20.1-1.546,38.652-9.277,56.433-18.553,58.752-30.922,115.184-59.525,173.936-91.22,10.274-5.587,21.009-11.048,32.03-15.8-1.553-1.412-3.028-2.727-4.389-3.94C1074.645,465.5,1067.9,464.4,1022.226,437.6Z" transform="translate(-3.484 -28.644)"/><g transform="translate(642.816 258.941)"><g class="h"><g transform="translate(13.284 22.09)"><path class="i" d="M694.811,669.884s44.966,38.935,71.894,31.567c0,0-33.37-57.57-72.538-31.567" transform="translate(-667.754 -372.764)"/><g transform="translate(269.009 183.464)"><path class="j" d="M1070.657,704.561l37.622-47.641s-44.322-53.6-45.571-68.028S1096.425,559,1096.425,559c17.007,17.56,33.282,35.933,47.835,55.593,4.968,6.71,9.735,13.576,14.154,20.661,4.055,6.5,10.213,14.693,9.326,22.639a27.286,27.286,0,0,1-3.909,10.59c-10.113,17.284-29.776,27.174-45.938,38.03q-14.809,9.947-29.688,19.789c-2.543,1.68-3.038,3.467-5.425,5.363" transform="translate(-1020.396 -532.594)"/><path class="k" d="M1007.984,525.075c1.674.06,5.394-.305,6.823-.22,10.206.605,20.138.413,29.894,1.838,10.45,1.527,22.265,5.541,30.958,11.665,10.633,7.492,19.837,19.734,29.074,28.943,6,5.978,12.165,12.195,16.133,19.783,4.955,9.476,3.4,15.512-3.1,23.754a60.332,60.332,0,0,1-40.839,22.429,11.3,11.3,0,0,1-5.195-.367,11.674,11.674,0,0,1-3.8-2.774,83.954,83.954,0,0,1-17.045-23.951" transform="translate(-1007.984 -524.841)"/><g transform="translate(25.093 171.968)"><path class="l" d="M1083.157,802.2c.007-.013,0,.048,0,.063-.406,3.255-2.089,6.64-4.931,8.191a13.355,13.355,0,0,1-11.6.676c-4.47-1.606-7.656-4.467-10.934-7.7a50.4,50.4,0,0,1-10.875-14.717c-2.249-4.943-4.392-9.5-4.372-14.949.016-4.474,1.767-8.272,3.549-12.442a22.858,22.858,0,0,1,13.381-12.7c7.07-2.561,12.5-1.5,17.778,3.789,3.044,3.05,4.394,6.981,5.9,11.123,2.179,5.987.673,12.737-3.057,17.772-3.333,4.5-12.975,7.335-10,14.114.428.976,1.338,1.417,2.05,2.06a11.02,11.02,0,0,0,3.183,2,10.826,10.826,0,0,0,3.2.469c1.317.131,2.757-.257,3.978-.092,3.988.537,3.194,3.966.427,5.733a6.921,6.921,0,0,1-4.681.851c-8.159-.928-13.888-4.3-19.137-10.608" transform="translate(-1040.444 -747.295)"/></g><path class="j" d="M1074.271,745.1c2.839-1.5,6.283.026,9.057,1.648,2.27,1.327,4.568,2.793,6.034,4.977s1.895,5.274.343,7.4c-.339.465-.76.87-1.062,1.359-.815,1.321-.637,2.994-.566,4.544s-.091,3.317-1.306,4.283a3.523,3.523,0,0,1-3.558.276,7.553,7.553,0,0,1-2.8-2.435c-3.148-4.1-2.886-8.04-3.977-12.738C1075.767,751.542,1069.914,747.407,1074.271,745.1Z" transform="translate(-1022.665 -574.689)"/></g><g transform="translate(90.805 180.912)"><path class="m" d="M951.859,828.592c13.4-2.256,30.4-1.031,42.917-6.7,13.43-6.082,16.812-24.457,17.145-37.629q1.194-47.306-1.083-94.614c-1.4-29.039-6.051-58.149-5.915-87.267.05-10.885-2.274-19.172-4.157-29.4-1.912-10.386,2.315-16.7-6.36-25.207a155.993,155.993,0,0,0-19.563-16.487c-3.292-2.309-6.753-5.566-10.52-7.051-3.661-1.443-8.568-1.3-12.48-1.593-8.989-.681-18.01-.735-27.02-.792l-46.855-.293c-5.165-.032-10.334-.065-15.49.257-5.077.316-10.125.975-15.169,1.633l-10.854,1.416c-4.942.645-10.308.84-15.054,2.238a84.078,84.078,0,0,0-10.091,3.954,80.1,80.1,0,0,0-18.529,11.077c-11.226,9.23-17.469,22.353-14.637,36.963,6.544,33.763,26.511,62.992,35.587,95.845,10.5,38.009,15.235,77.313,19.818,116.383,1.027,8.746,2.138,17.781,6.6,25.378,9.467,16.113,29.441,14.229,45.22,15.729C907.589,834.547,929.927,832.284,951.859,828.592Z" transform="translate(-777.462 -521.54)"/></g><g transform="translate(104.295 374.04)"><path class="l" d="M809.78,807.145a60.3,60.3,0,0,1-7.665,2.307c-2.267.526-4.7.98-6.4,2.57-1.837,1.718-.185,4.011,1.59,5.074,2.069,1.239,4.658,1.107,7.052.814,9.888-1.211,19.793-4.713,26.97-11.622a3.512,3.512,0,0,0,1.381-2.47c-.062-1.483-1.771-2.269-3.227-2.557-4.51-.892-9.028.549-12.913,2.736A49.453,49.453,0,0,1,809.78,807.145Z" transform="translate(-794.914 -778.091)"/><path class="l" d="M817.447,818.214a60.192,60.192,0,0,1-7.665,2.308c-2.267.525-4.7.979-6.4,2.57-1.837,1.718-.186,4.012,1.59,5.075,2.069,1.238,4.658,1.107,7.052.813,9.888-1.211,19.793-4.713,26.97-11.621a3.512,3.512,0,0,0,1.381-2.47c-.062-1.484-1.771-2.269-3.227-2.557-4.51-.892-9.028.549-12.913,2.736A49.316,49.316,0,0,1,817.447,818.214Z" transform="translate(-796.654 -780.603)"/><path class="l" d="M852.15,818.872a46.328,46.328,0,0,1-34.378,18.933,3.736,3.736,0,0,1-1.564-.139c-1.486-.574-1.647-2.791-.695-4.067s2.556-1.848,4.054-2.39a99.154,99.154,0,0,0,22.95-11.9" transform="translate(-799.454 -782.148)"/><path class="l" d="M815.829,802.691c.239.78.515,1.563.834,2.358a18.855,18.855,0,0,0,1.654,3.428c1.545,2.333,4.252,3.6,6.695,4.767a45.137,45.137,0,0,0,8.039,3.057c5.516,1.432,11.333,1.06,15.875-2.682,7.052-5.81,9.054-16.52,5.749-24.838-3.347-8.425-11.491-14.765-20.179-16.984-9.022-2.3-15.708,5.027-19.073,12.578-1.313,2.949-1.172,6.314-1.006,9.539A35.414,35.414,0,0,0,815.829,802.691Z" transform="translate(-799.316 -771.366)"/></g><path class="l" d="M913.114,449.994c2.477,17.571,5.118,35.127,7.19,52.747a2.338,2.338,0,0,1-.289,1.82,2.164,2.164,0,0,1-1.541.562c-3.055.207-6.318-.5-9.06.866-.44.219-.9.563-.927,1.054a1.565,1.565,0,0,0,.3.846c11.369,19.2,25.081,38.07,44.7,48.7,8.269-12.8,16.7-25.995,19.759-40.927.445-2.174.761-4.5-.045-6.563a5.082,5.082,0,0,0-3.123-3.013c-1.239-.344-2.695.087-3.839-.666-.57-.374-.516-.969-.545-1.6-.06-1.279-.07-2.562-.07-3.842,0-5.581.5-11.208.3-16.784l.077,3.514" transform="translate(-716.394 -324.391)"/><g transform="translate(165.83)"><path class="a" d="M1009.46,352.081c1.939,5.112,1.932,10.728,1.842,16.194q-.529,32.312-3.705,64.506c-.82,8.309-1.889,16.941-6.425,23.951a27.222,27.222,0,0,1-47.149-2.507" transform="translate(-892.558 -302.169)"/><path class="n" d="M886.773,393.158c-7.373-15.252-12.083-32.219-12.257-48.973-.122-11.837,4.156-20.16,16.353-22.787,7.826-1.686,17.654-.884,22.649,6.137,10.518,14.784,8.666,33.212,4.379,49.838-2.265,8.785-5.32,17.336-8.056,25.978-1.26,3.982-2.151,17.346-8.536,15.667-3.864-1.016-6.691-11.7-8.594-14.873C890.588,400.607,888.6,396.935,886.773,393.158Z" transform="translate(-874.514 -295.036)"/><path class="l" d="M914.437,424.788c-6.075-13.745-11.34-28.148-12.127-43.155-1.407-26.856,15.213-49.8,39.671-59.47,13.754-5.44,31.315-4.8,44.427,2.473,12.823,7.117,10.871,21.106,9.147,33.5-1.947,13.984,4.333,28.688,5.024,42.879.734,15.074-.633,24.608-7.421,38.321-2.27,4.591-2.524,13.467-6.869,16.714-18.065,13.5-40.4-3.227-52.114-16.542" transform="translate(-880.803 -294.561)"/><path class="n" d="M991.749,328.664c7.993-4.238,16.766-11.15,15.525-20.112l-16.209,4.886a26.886,26.886,0,0,0,12.015-22.914,85.865,85.865,0,0,1-18.449,8.887,18.333,18.333,0,0,0,6.5-11.9,58.677,58.677,0,0,1-13.94,4.818c-9.289,1.947-20.136,2.208-26.118,9.576l2.076-10.21c-6.388,4.118-15.159,4.234-22.494,3.666-12.139-.94-17.341,1.18-26.694,8.833-2.046,1.674-4.069,3.581-4.916,6.085-1.313,3.885.543,8.132,2.92,11.475C921.26,348.9,966.55,342.024,991.749,328.664Z" transform="translate(-879.982 -287.516)"/><path class="n" d="M914.221,392.261a26.633,26.633,0,0,1-6.378,7.695c-3.568,2.755-8.6,4.039-12.67,2.093-2.748-1.316-4.681-3.879-6.216-6.511-8.336-14.292-6.3-30.9,2.791-44.334,6.7-9.9,24.484-27.422,32.578-9.871,7.505,16.276-.735,33.587-8.41,47.9C915.372,390.25,914.813,391.265,914.221,392.261Z" transform="translate(-876.597 -298.032)"/><path class="l" d="M910.89,437.2c-3.323-.39-6.157-2.809-7.778-5.737-8.224-14.85,1.235-37.427,17.97-20.65" transform="translate(-880.32 -314.15)"/></g><g transform="translate(0 250.862)"><path class="l" d="M716.852,612.026c-18.58,32.205-36.732,64.671-54.824,97.09a13.039,13.039,0,0,0-2.021,5.59c-.458,9.828,18.767,17.421,26.081,21.38a266.981,266.981,0,0,0,34.241,15.4,365.419,365.419,0,0,0,40.688,12.307q10.334,2.519,20.773,4.573c2.444.485,7.581,2.531,9.95,1.889,2.666-.723,2.7-2.277,3.463-5.074a60.147,60.147,0,0,0,1.9-16.076c-.023-4.624.721-9.959-3.641-12.7-17.834-11.218-37.672-20.144-56.339-30.035a27.077,27.077,0,0,1-5.608-3.291c-2.673-2.4-.88-4.106.736-6.836a175.492,175.492,0,0,1,11.276-16.161l25.935-34.367" transform="translate(-660 -612.026)"/></g><path class="o" d="M807.608,529.572s-24.48-3.069-50.248,13.68c0,0-41.23,47.72-62.359,96.269,0,0,36.591-11.233,71.894,31.567-1.32-1.135,17.78-30.174,20.357-41" transform="translate(-667.943 -342.401)"/></g><path class="j" d="M823.171,805.333c2.64,2.253,6.157,4.305,9.415,3.108,3.284-1.206,4.614-5.061,5.418-8.466a48.063,48.063,0,0,0,1.637-12.221,20.153,20.153,0,0,0-3.653-11.608,11.206,11.206,0,0,0-4.731-3.8c-2.426-.953-5.129-.77-7.728-.573-2.328.176-4.934.493-6.388,2.32a7.639,7.639,0,0,0-1.29,4.342,34.212,34.212,0,0,0,1.707,13.047,6.247,6.247,0,0,1,.365,4.271c-.411,1.221-1.655,2.076-1.417,3.526C816.877,801.537,821.477,803.887,823.171,805.333Z" transform="translate(-682.071 -375.293)"/><path class="p" d="M1121.942,684.113a68.331,68.331,0,0,1,18.61-6.024" transform="translate(-751.554 -354.067)"/><path class="p" d="M703.857,653.872c24.314-6.14,51.771,2.654,67.994,21.775,2.062,2.43,4.028,5.209,4.208,8.39" transform="translate(-656.669 -348.132)"/><path class="p" d="M1135.746,602.5c-.148,3.969-1.868,7.723-4,11.075-5.537,8.7-13.936,15.306-23.089,20.057s-19.1,7.773-29.046,10.487" transform="translate(-741.947 -336.911)"/></g></g><rect class="q" width="40.851" height="10.823" rx="4.797" transform="translate(917.544 546.37) rotate(-3.759)"/></g></svg>