<svg xmlns="http://www.w3.org/2000/svg" xmlns:xlink="http://www.w3.org/1999/xlink" width="625.491" height="539.663" viewBox="0 0 625.491 539.663"><defs><style>.a,.aa,.ab,.h,.r,.y{fill:none;}.b{clip-path:url(#a);}.c{fill:url(#b);}.d{fill:url(#c);}.e,.j,.l,.m{fill:#bb6737;}.e,.f,.h,.i,.j,.k,.l{stroke:#060c39;}.aa,.ab,.e,.f,.h,.i,.j,.k,.l,.q,.r,.w,.x,.y{stroke-linecap:round;stroke-linejoin:round;}.e{stroke-width:0.885px;}.f,.g{fill:#4fa5ad;}.f,.h{stroke-width:1.209px;}.i,.k{fill:#060c39;}.i{stroke-width:1.256px;}.j{stroke-width:0.905px;}.k{stroke-width:1.371px;}.l{stroke-width:0.996px;}.n{fill:url(#d);}.o{fill:url(#f);}.p{fill:url(#g);}.q,.w,.x{fill:#fff;}.q,.r,.w,.x{stroke:#100052;}.q{stroke-width:1.544px;}.r{stroke-width:1.451px;}.s{fill:url(#h);}.t{fill:url(#i);}.u{fill:url(#j);}.v{fill:url(#k);}.w{stroke-width:1.277px;}.x{stroke-width:1.429px;}.y{stroke:#fff;stroke-width:3px;}.z{fill:url(#l);}.aa,.ab{stroke:#707070;}.aa{stroke-width:7px;}.ab{stroke-width:5.93px;}.ac{fill:#f68f78;}.ad{fill:url(#m);}.ae{fill:url(#n);}.af{fill:url(#q);}.ag{fill:url(#r);}.ah{fill:url(#t);}.ai{fill:url(#u);}.aj{fill:#408d91;}</style><clipPath id="a"><path class="a" d="M3373.357,549.783c-8.423,17.792-41.994,85.94-123.382,122.4-104.554,46.837-232.462,16.493-304.963-54.643-52.181-51.2-64.017-112.108-69.839-142.071-7.4-38.091-22.461-115.586,20.952-177.043,67.459-95.5,237.922-98.217,346.865-54.643,27.724,11.088,95.717,38.284,132.694,107.1C3424.505,441.74,3380.922,533.8,3373.357,549.783Z" transform="translate(-2866.528 -216.68)"/></clipPath><linearGradient id="b" x1="0.444" y1="0.154" x2="0.797" y2="1.323" gradientUnits="objectBoundingBox"><stop offset="0" stop-color="#faebd8"/><stop offset="1" stop-color="#ffb83f"/></linearGradient><linearGradient id="c" x1="0" y1="0.5" x2="1" y2="0.5" xlink:href="#b"/><linearGradient id="d" y1="0.5" x2="1" y2="0.5" gradientUnits="objectBoundingBox"><stop offset="0" stop-color="#fff"/><stop offset="1" stop-color="#bbdbf9"/></linearGradient><linearGradient id="f" x1="0.693" y1="0.937" x2="0.261" y2="-0.301" xlink:href="#d"/><linearGradient id="g" x1="0.906" y1="1.694" x2="0.318" y2="0.084" xlink:href="#d"/><linearGradient id="h" x1="1.499" y1="0.067" x2="0.401" y2="0.616" xlink:href="#d"/><linearGradient id="i" x1="0.989" y1="0.047" x2="-1.12" y2="2.558" xlink:href="#d"/><linearGradient id="j" x1="0.069" y1="0.85" x2="1.462" y2="-0.29" xlink:href="#d"/><linearGradient id="k" x1="-0.11" y1="1.223" x2="0.766" y2="0.192" xlink:href="#d"/><linearGradient id="l" x1="0.435" y1="1.48" x2="0.5" y2="0.503" gradientUnits="objectBoundingBox"><stop offset="0" stop-color="#2a7195"/><stop offset="1" stop-color="#99cbcf"/></linearGradient><linearGradient id="m" y1="0.5" x2="1" y2="0.5" gradientUnits="objectBoundingBox"><stop offset="0" stop-color="#2a7195"/><stop offset="1" stop-color="#060c39"/></linearGradient><linearGradient id="n" y1="0.5" x2="1" y2="0.5" gradientUnits="objectBoundingBox"><stop offset="0" stop-color="#ff9077"/><stop offset="1" stop-color="#e9645a"/></linearGradient><linearGradient id="q" x1="0.42" y1="0.446" x2="1.3" y2="1.163" xlink:href="#m"/><linearGradient id="r" x1="1.198" y1="-0.015" x2="-0.182" y2="1.098" gradientUnits="objectBoundingBox"><stop offset="0" stop-color="#2a7195"/><stop offset="0.173" stop-color="#26668b"/><stop offset="0.469" stop-color="#1c4b72"/><stop offset="0.85" stop-color="#0c1f4a"/><stop offset="1" stop-color="#060c39"/></linearGradient><linearGradient id="t" x1="0.54" y1="0.638" x2="0.898" y2="-0.536" xlink:href="#n"/><linearGradient id="u" x1="0.442" y1="0.244" x2="0.647" y2="1.07" xlink:href="#n"/></defs><g transform="translate(-2804.716 -130.001)"><g transform="translate(2804.716 130.001)"><g transform="translate(41.058 57.576)"><g class="b"><path class="c" d="M3139.594,589.905c-25.792-1.474-50.479-8.843-73.692-21.37-14.37-7.738-26.16-18.423-37.951-30.214-10.686-11.053-18.792-23.581-29.477-34.635-28.74-30.582-65.586-48.268-103.537-63.375a174.138,174.138,0,0,0-21.741-6.8c-8.632,44.86-.072,88.915,4.956,114.79,5.822,29.963,17.658,90.872,69.838,142.072,72.5,71.137,200.409,101.479,304.963,54.643,81.388-36.459,114.958-104.607,123.382-122.4,4.292-9.065,20.169-42.609,24.2-86.526-28.357,13.141-57.422,23.233-88.5,32.079C3255.29,584.379,3198.179,593.59,3139.594,589.905Z" transform="translate(-2867.528 -289.48)"/><path class="d" d="M3380.528,350.927c-36.977-68.815-104.969-96.011-132.694-107.1-108.944-43.575-279.406-40.857-346.865,54.643-13.924,19.711-21.833,41.072-25.908,62.254a174.138,174.138,0,0,1,21.741,6.8c37.952,15.106,74.8,32.793,103.538,63.375,10.685,11.054,18.791,23.582,29.476,34.635,11.791,11.791,23.581,22.476,37.951,30.214,23.213,12.527,47.9,19.9,73.692,21.37,58.585,3.685,115.7-5.527,172.438-21.739,31.082-8.846,60.147-18.938,88.5-32.079C3405.477,429.794,3401.657,390.248,3380.528,350.927Z" transform="translate(-2869.393 -216.695)"/><path class="e" d="M3453.107,828.387c2.139,4.855,4.589,9.61,5.9,14.778s1.358,10.94-1.162,15.59c-3.549,6.55-14.143,12.68-21.4,10.13-8.551-3.005-14.033-10.641-18.229-18.269a167.428,167.428,0,0,1-15.713-40.055c-2.635-10.548-4.234-21.322-5.83-32.076-.939-6.33-1.878-12.781-.863-19.1s4.313-12.6,9.954-15.623c6.626-3.55,14.786-1.924,21.889.539a21.173,21.173,0,0,1,6.122,2.975c5.813,4.491,4.3,12.7,4.954,19.14.919,9.02,2.107,18.018,3.827,26.923A163.8,163.8,0,0,0,3453.107,828.387Z" transform="translate(-3044.086 -392.958)"/><g transform="translate(196.128 254.436)"><path class="f" d="M3362.982,599.723c15,3.481,30.87,6.262,42.464,17.147,5.843,5.485,8.322,13.567,10.57,21.26l12.9,44.168c1.523,5.216,7.286,16.4,6.292,21.631-.85,4.476-9.895,9.121-13.557,11.221a85.927,85.927,0,0,1-10.132,4.959c-4.1,1.683-8.325,3.047-12.544,4.408-2.912.94-11.936,5.531-14.615,4.231-2.452-1.19-5.011-11.735-6.049-14.354q-5.693-14.366-10.48-29.069a2.739,2.739,0,0,1,2.971.08" transform="translate(-3229.34 -599.723)"/><path class="g" d="M3322.474,747.595c-7.3,41.195-16.167,86.318-5.584,127.715-13.4,4.908-29.846,5.609-43.986,7.115-14.243,1.516-28.535,2.514-42.821,3.512-10.324.721-20.712,1.442-31,.359a114.587,114.587,0,0,1-22.133-4.808c-9.571-2.991-10.025-6.552-11.092-16.213a218.548,218.548,0,0,1-.8-31.666c.452-12.877,1.816-26.019,1.346-38.883-.5-13.665-2.594-27.5-4.612-41.013" transform="translate(-3161.79 -649.371)"/><path class="h" d="M3422.455,854.987a77.964,77.964,0,0,1,4.113-7.876c4.491-7.523,11.253-10.473,20.084-8.775" transform="translate(-3249.309 -679.681)"/></g></g></g><g transform="translate(170.055 171.343)"><path class="f" d="M3166.106,601.9a135.1,135.1,0,0,0-24.706,8.981c-8.545,3.955-15.23,8.445-20.048,16.467-5.4,9-8.29,19.069-12.438,28.643-11.691,26.982-21.179,60.814-19.969,90.377.3,7.375,1.889,15.76,8.221,19.555,4.392,2.633,10.114,2.244,14.757.086s8.382-5.863,11.729-9.739c9.82-11.375,17.042-24.713,24.183-37.935" transform="translate(-3070.167 -459.784)"/><path class="g" d="M3257.623,778.078c9.359-1.612,18.568-4,27.063-8.174,9.285-4.565,17.77-11.5,22.965-20.56,5.617-9.792,6.4-22.575,8.457-33.508,5.649-30.013,15.087-62.276,1.86-91.567-4.255-9.421-10.88-24.191-21.84-27.057-8.52-2.229-18.18-1.828-26.916-2.971-16.542-2.163-33.3-2.215-49.961-1.419-20.511.98-34.643,3.407-48.6,19.393-8.889,10.184-12.325,17.51-12.959,30.954-.969,20.525,3.538,40.69,3.212,61.028-.281,17.538,8.27,31.552,17.932,45.916,6.024,8.955,12.409,18.107,21.59,23.781,13.577,8.388,30.74,7.707,46.577,5.731C3250.547,779.182,3254.1,778.685,3257.623,778.078Z" transform="translate(-3093.238 -456.578)"/><g transform="translate(102.143)"><path class="i" d="M3222.99,425.115c-.779-13.286,12.2-24.175,23.561-29.117,9.438-4.105,19.805-5.4,30-5.859,14.007-.628,26.748,4.773,31.416,18.457,4.147,12.157,3.828,25.972,2.161,38.558-1.76,13.3-4.044,30.523-16.525,38.468-6.855,4.364-15.472,4.538-23.6,4.575l-14.795.067c-17.106.078-26.9-12.629-30.609-28.11-2.1-8.8-1.523-17.253-1.118-26.114A104.266,104.266,0,0,0,3222.99,425.115Z" transform="translate(-3217.339 -388.669)"/><path class="j" d="M3246.054,548.955c.091,4.96-.229,9.918-.409,14.872-.117,3.186.335,6.644-.919,9.668a3.428,3.428,0,0,1-2.74,2.45c-1.04.224-3.281.153-4.121.737-1.005.7.274,2.883.665,3.78a52.914,52.914,0,0,0,4.7,8.043c7.369,11.054,15.269,22.587,27.158,28.518a3.5,3.5,0,0,0,2.013.515,3.676,3.676,0,0,0,1.981-1.354l14.211-15.348a132.583,132.583,0,0,0,9.543-11.122,53.105,53.105,0,0,0,3.932-6.092c.519-.951,3.315-4.939,2.572-5.99-.4-.564-3.059-.351-3.721-.4a14.156,14.156,0,0,1-3.679-.609,1.117,1.117,0,0,1-.417-.222,1.129,1.129,0,0,1-.25-.476c-.836-2.6-.524-5.8-.447-8.506.083-2.9.307-5.8.469-8.694a121.266,121.266,0,0,0,.043-17.625" transform="translate(-3222.217 -439.372)"/><path class="j" d="M3284.942,421.231c-3.482.294-6.853.859-9.573,1.247l-20.677,2.953a160.793,160.793,0,0,1-18.061,1.87c-6.957.2-7.545,1.886-9.493,8.85-3.069,10.976-1.457,22.743,1.135,33.64,4.857,20.416,6.844,52.948,31.02,60.853,10.26,3.354,19.467-.078,26.217-8.312a72.993,72.993,0,0,0,13.834-25.823c3.723-13.041,4.9-26.562,7.315-39.86.826-4.539,1.586-9.17,1-13.745-.786-6.1-2.217-15.629-7.425-19.218C3296.3,420.98,3290.483,420.762,3284.942,421.231Z" transform="translate(-3218.18 -399.059)"/><path class="i" d="M3323.82,414.976c-20.241-6.355-6.129,19.263-2.5,25.968a88.429,88.429,0,0,1,9.92,30.943c10.463-7.581,8.641-28,7.412-39.365C3337.649,423.29,3333.012,417.863,3323.82,414.976Z" transform="translate(-3247.621 -396.688)"/><path class="i" d="M3223.135,470.9c-4.739-7.8-8.374-16.531-8.624-25.651-.221-8.091,2.54-16.72,8.6-22.308,5.369-4.955,17.184-6.85,19.755,2.438,1.665,6.017-5.4,12.54-8.224,17.15C3229.354,451.165,3225.907,461.209,3223.135,470.9Z" transform="translate(-3214.499 -398.315)"/><path class="j" d="M3343.35,486.66c.674-4.3,5.807-4.793,7.853-1.391a13.032,13.032,0,0,1,1.195,9.673,24.154,24.154,0,0,1-4.519,8.835c-1.142,1.5-2.537,3.014-4.393,3.339s-4.069-1.258-3.638-3.093" transform="translate(-3256.566 -419.875)"/><path class="j" d="M3225.106,490.605c-.754-4.287-5.895-4.684-7.877-1.244a13.032,13.032,0,0,0-1.015,9.693,24.148,24.148,0,0,0,4.683,8.749c1.169,1.479,2.592,2.967,4.455,3.258s4.045-1.335,3.579-3.16" transform="translate(-3214.912 -421.225)"/><path class="k" d="M3226.219,420.323c-5.253-3.279-11-8.656-10.122-15.714l10.679,3.732c-4.966-3.8-8.023-10.853-7.784-17.943a52.126,52.126,0,0,0,12.132,6.864,15.025,15.025,0,0,1-4.215-9.312,34.137,34.137,0,0,0,9.181,3.693c6.125,1.467,13.292,1.6,17.2,7.353l-1.3-8.017c4.193,3.2,9.99,3.226,14.841,2.729,8.029-.824,11.453.809,17.581,6.764a10.81,10.81,0,0,1,3.207,4.753c.841,3.048-.415,6.4-2.008,9.046C3272.665,435.753,3242.781,430.659,3226.219,420.323Z" transform="translate(-3215.005 -387.951)"/></g><g transform="translate(0 69.003)"><g transform="translate(18.464)"><path class="l" d="M3135.5,493.061a3.551,3.551,0,0,0-5.148-.234,6.273,6.273,0,0,0-1.568,3.11c-1.125,3.956-1.523,8-2.426,12.055a117.227,117.227,0,0,0-2.367,13.761,94.135,94.135,0,0,0-.508,13.634c.126,2.678.8,5.448,3.525,6.229,6.311,1.151,6.912-11.128,7.271-14.178,1.16-9.827,1.651-17.444,2.532-26.663a17.073,17.073,0,0,0,.054-3.977,10.541,10.541,0,0,0-1.237-3.548A.843.843,0,0,0,3135.5,493.061Z" transform="translate(-3100.235 -491.832)"/><path class="l" d="M3127.144,590.594a13.182,13.182,0,0,1-2.6,4.771c-.8.889-1.828,1.473-2.628,2.341a15.068,15.068,0,0,0-2.937,4.538c-1.206,2.964-1.975,6.034-3.011,9.049-.8,2.323-3.062,2.805-5.419,3.344a20.811,20.811,0,0,1-15.359-2.408,12.419,12.419,0,0,1-5.1-5.527c-1.037-2.5.14-4.43.863-6.894a30.966,30.966,0,0,0,1.47-6.941c.33-5.957-1.215-11.464-2.011-17.32a90.176,90.176,0,0,1-.416-19.54,6.98,6.98,0,0,1,1.462-4.234,6.2,6.2,0,0,1,2.636-1.5c2.988-1.05,5.877-1.16,8.981-1.4,3.555-.273,7.044-1.08,10.647-.625a29.264,29.264,0,0,1,11.458,3.635c5.838,3.652,6.061,7.869,5.331,14.146-.9,7.776-1.222,15.464-2.933,23.1A14.87,14.87,0,0,1,3127.144,590.594Z" transform="translate(-3088.902 -510.728)"/><path class="l" d="M3122.38,544.776a23.144,23.144,0,0,1,1.019,6.118,8.252,8.252,0,0,1-1.94,5.655,3.314,3.314,0,0,1-5.532-.274,9.736,9.736,0,0,1-1.328-3.064,113.723,113.723,0,0,1-3.689-18.37,2,2,0,0,1,.107-1.226c1.611-2.7,6.449-3.7,8.326-.838C3121.617,536.24,3121.344,541,3122.38,544.776Z" transform="translate(-3096.026 -505.002)"/><path class="l" d="M3110.834,554.2a8.6,8.6,0,0,1-.145,4.177,3.018,3.018,0,0,1-3.027,2.28,3.318,3.318,0,0,1-2.26-1.3,15.633,15.633,0,0,1-2.494-3.568,46.7,46.7,0,0,1-4.709-13.525,11.691,11.691,0,0,1,0-5.528c.554-1.664,1.441-3.934,3.51-3.926C3110.058,532.834,3110.205,548.2,3110.834,554.2Z" transform="translate(-3091.659 -505.589)"/><path class="l" d="M3098.667,560.2a2.443,2.443,0,0,1-.5,1.521,1.881,1.881,0,0,1-2.207.379,4.437,4.437,0,0,1-1.787-1.6,35.3,35.3,0,0,1-4.363-9.026,16.481,16.481,0,0,1-1.222-7.161c.292-2.436,1.952-4.314,4.467-3.563,1.7.506,2.189,2.215,2.843,3.77A33.509,33.509,0,0,1,3098.667,560.2Z" transform="translate(-3088.524 -508.199)"/><g transform="translate(19.735 28.907)"><path class="l" d="M3132.769,592.314c5.305-6.556,7.805-13.53,9.022-21.788.606-4.12.283-7.933.136-12.047a15.552,15.552,0,0,0-.787-5.26c-.662-1.594-2.054-2.668-3.2-3.791a155.274,155.274,0,0,0-16.372-13.828.812.812,0,0,0-.65-.242,1.229,1.229,0,0,0-.871.564c-1.452,2.583-2.444,5.219-1.345,8.08s3.806,4.188,5.668,6.348c.754.874,1.621,1.6,1.748,2.694.387,3.313-.873,6.276-1.046,9.533" transform="translate(-3118.233 -535.351)"/></g><path class="l" d="M3113.185,591.263a5.123,5.123,0,0,0-.573-3.036,20.712,20.712,0,0,0-9.26-9.293" transform="translate(-3093.502 -521.077)"/></g><path class="l" d="M3074.486,780.557c5.408,7.345,14.73,6.173,22.011,2.557,7.956-3.95,12.029-12.01,13.658-20.646a66.694,66.694,0,0,0,.754-12.989q-.371-40.507-3.619-80.919c-.881-10.96-1.93-21.959-1.428-32.965.122-2.674.494-5.324.656-7.99.206-3.378.682-3.121-2.617-4.194-4.606-1.5-10.181-1.5-14.947-1.028-8.746.86-11.14,11.664-12.382,18.939q-6.346,37.181-12.692,74.362c-1.948,11.414-3.868,23.063-2.889,34.678C3062.022,762.606,3067.362,770.881,3074.486,780.557Z" transform="translate(-3060.727 -535.572)"/><path class="m" d="M3090.251,624.311a17.489,17.489,0,0,0-.791,3.879,17.944,17.944,0,0,0-.046,2.26,14.071,14.071,0,0,1-.171,1.673,6.033,6.033,0,0,0,1.295,4.1c1.816,2.2,4.652,3.379,7.3,4.24,3.708,1.206,7.962,2.007,11.35.077,2.317-1.32,3.8-3.691,5.193-5.966a15.028,15.028,0,0,0,1.663-3.305c.541-1.746.433-3.64.96-5.39.632-2.1,2.16-3.946,2.241-6.135a6.1,6.1,0,0,0-2.233-4.67,11.977,11.977,0,0,0-4.767-2.332c-7.081-1.942-15.661,1-19.821,7.129A17.631,17.631,0,0,0,3090.251,624.311Z" transform="translate(-3070.297 -532.227)"/></g><path class="h" d="M3165.039,767.215q-.987-35.148-4.391-70.173" transform="translate(-3094.275 -491.728)"/></g><g transform="translate(461.632 293.752)"><path class="n" d="M3525.456,703.853c-1.105-4.79,1.105-8.474,2.579-12.159,5.9-12.9,14-23.95,22.107-36.109a34.562,34.562,0,0,1,2.211-5.527,28.16,28.16,0,0,0,3.316-3.316c13.058-23.292,8.875-49.287.406-72.484l-.419.063c-28.721,4.6-49.589,16.414-54.687,46.157-4.71,27.485,3.625,63.142,23.3,86.346.027-.254.051-.507.083-.761C3524.351,705.327,3525.456,704.59,3525.456,703.853Z" transform="translate(-3499.683 -572.913)"/><path class="n" d="M3651.651,610.187q-2.018-2.193-4.154-4.26c-10.558-10.217-23.077-18.221-36.344-24.447-6.667-3.129-13.734-6.332-20.859-8.264-6.813-1.847-14.861-.719-21.792.363,8.47,23.2,12.652,49.192-.406,72.484a28.1,28.1,0,0,1-3.316,3.317,34.553,34.553,0,0,0-2.21,5.526c-8.107,12.159-16.213,23.213-22.108,36.109-1.474,3.685-3.684,7.369-2.579,12.159,0,.737-1.1,1.474-1.1,2.211-.032.253-.057.507-.083.761a74.365,74.365,0,0,0,12.768,11.988c20.93,15.3,51.254,23.913,71.518,19.776,16.9-3.45,31.556-13.538,41.587-27.69a73.357,73.357,0,0,0,13.4-42.984C3675.7,646.087,3666.014,625.8,3651.651,610.187Z" transform="translate(-3512.109 -572.232)"/></g><g transform="translate(85.705)"><path class="o" d="M3039.752,288.859c-27.266,5.527-48.268,19.16-69.27,36.477A113.592,113.592,0,0,0,2957.33,338.1c30.808,34.619,100.3,31.867,142.122-.035,25.458-19.421,43.26-51.631,46.8-82.384-14.953,10.02-29.895,17.059-47.545,21.389C3078.44,281.49,3060.385,284.438,3039.752,288.859Z" transform="translate(-2941.662 -172.198)"/><path class="p" d="M3128.583,163.879c-13.506-21.18-36.522-27.915-44-30.1-52.455-15.351-118.8,17.61-141.251,71.784-4.211,10.158-20.549,54.047,2.315,85.677a59.212,59.212,0,0,0,3.76,4.666,113.611,113.611,0,0,1,13.151-12.763c21-17.318,42-30.95,69.27-36.477,20.634-4.421,38.688-7.369,58.954-11.79,17.65-4.33,32.592-11.369,47.545-21.389C3140.4,195.5,3137.6,178.014,3128.583,163.879Z" transform="translate(-2933.741 -130.001)"/><path class="q" d="M3014.836,312.69l91.293-3.573-2.761-117.542-91.324,2.358Z" transform="translate(-2960.031 -150.674)"/><line class="r" x1="59.704" y2="2.106" transform="translate(72.769 96.937)"/><line class="r" x1="59.481" y2="2.196" transform="translate(72.552 100.358)"/><line class="r" x1="60.636" y2="1.952" transform="translate(71.15 66.77)"/><line class="r" x1="60.758" y2="1.964" transform="translate(70.877 63.652)"/><line class="r" x1="60.88" y2="1.977" transform="translate(70.603 60.52)"/><line class="r" x1="61.003" y2="1.989" transform="translate(70.327 57.376)"/><line class="r" x1="60.081" y2="1.896" transform="translate(72.394 93.576)"/><path class="r" d="M3050.566,313.635" transform="translate(-2972.965 -191.656)"/><path class="r" d="M3138.627,307.325" transform="translate(-3002.531 -189.538)"/><path class="r" d="M3051.982,324.878" transform="translate(-2973.44 -195.431)"/><path class="r" d="M3139.591,318.643" transform="translate(-3002.855 -193.338)"/><path class="r" d="M3053.8,339.33" transform="translate(-2974.052 -200.283)"/><path class="r" d="M3140.831,333.19" transform="translate(-3003.272 -198.222)"/><path class="r" d="M3045.762,284.851" transform="translate(-2971.352 -181.992)"/><path class="r" d="M3136.3,280.062" transform="translate(-3001.751 -180.384)"/><path class="r" d="M3051.334,319.731" transform="translate(-2973.223 -193.703)"/><path class="r" d="M3139.15,313.461" transform="translate(-3002.707 -191.598)"/><circle class="r" cx="2.404" cy="2.404" r="2.404" transform="translate(61.886 61.257)"/><line class="r" x1="60.636" y2="1.952" transform="translate(72.503 130.355)"/><line class="r" x1="60.758" y2="1.964" transform="translate(72.23 127.236)"/><line class="r" x1="60.88" y2="1.977" transform="translate(71.955 124.105)"/><line class="r" x1="61.003" y2="1.989" transform="translate(71.679 120.961)"/><circle class="r" cx="2.404" cy="2.404" r="2.404" transform="translate(63.238 124.841)"/><circle class="r" cx="2.404" cy="2.404" r="2.404" transform="translate(61.886 94.605)"/></g><g transform="translate(0 237.783)"><path class="s" d="M2875.763,578.715c-5.527-21.37,1.474-41.636,8.843-61.532,3.813-9.644,8.3-19.153,10.74-29.106-19.732-1.269-41.347,9.335-54.474,20.161-33.815,27.886-51.649,90.483-18.6,124.644,25.725,26.593,75.728,29.176,100.46,5.582a46.913,46.913,0,0,0,9.112-12.041,252.934,252.934,0,0,0-25.863-14.546C2891.607,605.244,2879.816,593.822,2875.763,578.715Z" transform="translate(-2804.716 -487.973)"/><path class="t" d="M2973.737,566.214c-1.245-27.349-2.718-59.684-25.4-72.808a40.959,40.959,0,0,0-18.08-5.277c-2.436,9.953-6.928,19.462-10.74,29.106-7.369,19.9-14.37,40.162-8.843,61.532,4.053,15.107,15.844,26.53,30.214,33.161a252.893,252.893,0,0,1,25.863,14.546C2975.712,609.6,2974.727,587.952,2973.737,566.214Z" transform="translate(-2839.623 -488.025)"/></g><g transform="translate(389.85 15.712)"><path class="u" d="M3479.594,371.989c-6.633-7-9.212-17.686-9.212-27.266a7.814,7.814,0,0,1,1.105-2.579c0-1.842-.368-3.685,0-5.527a20.866,20.866,0,0,0,1.106-6.633c0-.737.737-1.473,1.1-2.211,2.58-17.686-9.212-32.055-22.845-41.636-17.725-12.525-36.209-20.349-55.547-26.49a113.084,113.084,0,0,0-3.684,27.337c-.39,50.084,36.151,97.339,86.127,107.659A113.272,113.272,0,0,0,3528.728,393c-10.393-4.376-21.03-7.682-31.816-11.434C3490.648,378.99,3484.015,376.779,3479.594,371.989Z" transform="translate(-3391.62 -189.242)"/><path class="v" d="M3596.842,301.639c10.126-32.319-8.424-62.855-16.747-76.557-22.087-36.359-76.537-86.727-129.19-66.988-28.157,10.556-46.387,37.634-53.734,65.967,19.338,6.142,37.823,13.965,55.547,26.49,13.633,9.58,25.424,23.95,22.845,41.636-.368.737-1.1,1.474-1.1,2.211a20.867,20.867,0,0,1-1.106,6.633c-.368,1.842,0,3.685,0,5.527a7.815,7.815,0,0,0-1.105,2.579c0,9.58,2.579,20.266,9.212,27.266,4.421,4.79,11.054,7,17.317,9.58,10.787,3.752,21.423,7.058,31.816,11.434C3561.454,349.4,3588.211,329.178,3596.842,301.639Z" transform="translate(-3393.483 -153.655)"/><g transform="translate(25.481 54.207)"><g transform="translate(67.334 32.154)"><path class="w" d="M3533.385,311.458l63.27-6.012,8.855,2.306-5.65-6.808-1.642-17.277-66.869,6.354Z" transform="translate(-3531.348 -283.668)"/><line class="w" x1="56.015" y2="5.322" transform="translate(5.771 7.013)"/><line class="w" x1="56.015" y2="5.322" transform="translate(6.437 14.015)"/></g><path class="x" d="M3510.015,259.246l-70.791,6.726-9.245,4.4,4.775-8.671-1.837-19.331,74.819-7.109Z" transform="translate(-3429.979 -235.261)"/><line class="x" y1="5.955" x2="62.675" transform="translate(10.001 7.789)"/><line class="x" y1="5.955" x2="62.675" transform="translate(10.745 15.623)"/><g transform="translate(13.642 70.054)"><path class="x" d="M3530.553,364.71l-70.792,6.726-9.244,4.4,4.775-8.671-1.837-19.331,74.819-7.109Z" transform="translate(-3450.518 -340.725)"/><line class="x" y1="5.955" x2="62.675" transform="translate(10.001 7.789)"/><line class="x" y1="5.955" x2="62.675" transform="translate(10.745 15.623)"/></g></g></g><path class="y" d="M3038.061,898.76a171.323,171.323,0,0,1-99.258-80.844" transform="translate(-2849.736 -360.968)"/><path class="y" d="M3707.656,520.178a410.645,410.645,0,0,0-11.927-121.786" transform="translate(-3103.874 -220.113)"/></g><circle class="z" cx="27.21" cy="27.21" r="27.21" transform="translate(3336.318 293.631)"/><path class="aa" d="M3628.8,399.962l11.535,12.755,43.175-36.193" transform="translate(-276.685 -82.77)"/><path class="ab" d="M3138.627,212.921l4.675,5.169,18.289-15.332" transform="translate(-112.111 -24.428)"/><path class="ab" d="M3138.627,265.843l4.675,5.169,18.289-15.332" transform="translate(-112.111 -42.197)"/><path class="ab" d="M3140.832,310.11l4.675,5.169,18.289-15.332" transform="translate(-112.851 -57.059)"/><path class="ac" d="M2854.867,639.088l73.531,2.31a168.266,168.266,0,0,0,5.812-27.52c-.138,1.1-45.255-1.265-49.537-1.023C2872.02,613.573,2863.395,630.429,2854.867,639.088Z" transform="translate(-16.838 -162.112)"/><path class="ad" d="M2821.593,632.95l73.532,2.31a168.313,168.313,0,0,0,5.812-27.52c-.138,1.1-45.256-1.265-49.536-1.023C2838.745,607.435,2830.119,624.291,2821.593,632.95Z" transform="translate(-5.667 -160.052)"/><path class="ae" d="M2876.328,626.693l73.531,2.31a168.265,168.265,0,0,0,5.812-27.52c-.137,1.1-45.255-1.265-49.537-1.023C2893.481,601.178,2884.855,618.034,2876.328,626.693Z" transform="translate(-24.044 -157.951)"/><path class="g" d="M2843.983,617.59l73.531,2.31a168.29,168.29,0,0,0,5.813-27.52c-.138,1.1-45.256-1.265-49.537-1.023C2861.136,592.075,2852.51,608.931,2843.983,617.59Z" transform="translate(-13.184 -154.894)"/><path class="ae" d="M2821.593,606.714l73.532,2.309a168.306,168.306,0,0,0,5.812-27.519c-.138,1.1-45.256-1.265-49.536-1.023C2838.745,581.2,2830.119,598.055,2821.593,606.714Z" transform="translate(-5.667 -151.243)"/><path class="ad" d="M3627.136,672.463l-8.005,35.028,67.379,1.915V675.144Z" transform="translate(-273.44 -182.132)"/><path class="af" d="M3634.2,663.755l-8.005,35.028,67.379,1.915V666.436Z" transform="translate(-275.812 -179.208)"/><path class="ag" d="M3627.136,659.515l-8.005,35.028,67.379,1.915V662.2Z" transform="translate(-273.44 -177.784)"/><path class="ae" d="M3534.308,649.309l-18.2,31.025,64.625,1.837L3587.2,649.6Z" transform="translate(-238.849 -174.358)"/><path class="ah" d="M3529.469,642.893l-18.2,31.025,64.625,1.837,6.466-32.569Z" transform="translate(-237.225 -172.203)"/><path class="ai" d="M3526.756,636.113l-18.2,31.025,64.625,1.837,6.466-32.569Z" transform="translate(-236.314 -169.927)"/><path class="h" d="M3390.539,777.883a101.7,101.7,0,0,1-7.8-31.9" transform="translate(-194.073 -206.815)"/><rect class="aj" width="31.915" height="8.455" rx="4.228" transform="translate(3145.971 504.329) rotate(2.683)"/></g></svg>