<svg xmlns="http://www.w3.org/2000/svg" xmlns:xlink="http://www.w3.org/1999/xlink" width="489.613" height="516.188" viewBox="0 0 489.613 516.188"><defs><style>.a,.k,.m{fill:none;}.b{clip-path:url(#a);}.c{fill:url(#b);}.d{fill:url(#c);}.e{fill:url(#d);}.f,.h{fill:#4fa5ad;}.g,.j{fill:#bb6737;}.g,.h,.i,.k,.l{stroke:#060c39;}.g,.h,.i,.k,.l,.m{stroke-linecap:round;stroke-linejoin:round;}.i{fill:#060c39;}.l{fill:#195972;}.m{stroke:#fff;}.n{fill:url(#e);}.o{fill:url(#f);}.p{fill:url(#g);}.q{fill:url(#h);}.r{fill:url(#i);}.s{fill:url(#j);}</style><clipPath id="a"><path class="a" d="M826.468,630.768c-82-.2-159.937-53.7-184.784-132.7-31.836-101.222,34-210.9,128.977-243.072,65.646-22.239,147.605-8.261,200.908,48.366,62.1,65.972,64.1,167.309,18.6,238.112C955.279,595.768,893.208,630.931,826.468,630.768Z" transform="translate(-633.576 -244.935)"/></clipPath><linearGradient id="b" x1="0.153" y1="1.084" x2="0.703" y2="0.354" gradientUnits="objectBoundingBox"><stop offset="0" stop-color="#ff9077"/><stop offset="1" stop-color="#e9645a"/></linearGradient><linearGradient id="c" x1="0.53" y1="0.505" x2="0.577" y2="0.221" xlink:href="#b"/><linearGradient id="d" x1="0" y1="0.5" x2="1" y2="0.5" xlink:href="#b"/><linearGradient id="e" x1="0.79" y1="-0.367" x2="0.005" y2="1.914" gradientUnits="objectBoundingBox"><stop offset="0" stop-color="#2a7195"/><stop offset="1" stop-color="#060c39"/></linearGradient><linearGradient id="f" x1="0.487" y1="0.494" x2="0.359" y2="1.008" xlink:href="#e"/><linearGradient id="g" x1="0.713" y1="-0.573" x2="0.336" y2="1.476" gradientUnits="objectBoundingBox"><stop offset="0" stop-color="#faebd8"/><stop offset="1" stop-color="#ffb83f"/></linearGradient><linearGradient id="h" x1="0.516" y1="0.293" x2="0.373" y2="1.104" xlink:href="#g"/><linearGradient id="i" x1="-12.058" y1="-15.55" x2="-12.449" y2="-13.66" xlink:href="#b"/><linearGradient id="j" x1="-10.321" y1="-9.326" x2="-10.463" y2="-8.555" xlink:href="#b"/></defs><g transform="translate(-609.694 -150.528)"><g transform="translate(625.721 212.73)"><g transform="translate(0.138 1.702)"><g class="b"><path class="c" d="M745.812,569.356c-34.522-27.076-48.06-70.4-39.937-113.72,12.861-62.952,44-113.72,65.66-171.257,2.735-7.658,3.257-17.082-2-23.99-94.366,32.658-159.56,141.854-127.85,242.674,24.847,79,102.787,132.5,184.784,132.7A194.845,194.845,0,0,0,947.279,593.6a337.529,337.529,0,0,1-59.317,9.6C838.548,606.586,786.426,600.493,745.812,569.356Z" transform="translate(-633.576 -249.928)"/><path class="d" d="M975.53,504.8c-17.6-9.477-27.753-27.753-29.107-46.706-2.708-54.829,10.153-111.689-13.538-163.811-8.123-17.6-18.276-32.491-33.845-45.353-.673-.539-1.352-1.063-2.028-1.595A196.941,196.941,0,0,0,804.078,255c-.378.127-.751.267-1.128.4,5.257,6.908,4.735,16.332,2,23.99-21.661,57.537-52.8,108.3-65.66,171.257-8.123,43.322,5.415,86.644,39.937,113.72,40.614,31.138,92.736,37.23,142.15,33.845a337.536,337.536,0,0,0,59.316-9.6,191.615,191.615,0,0,0,59.415-79.084A79.015,79.015,0,0,1,975.53,504.8Z" transform="translate(-666.992 -244.937)"/><path class="e" d="M1081.359,304.507c-29.69-31.542-68.272-49.845-107.972-56.034.675.532,1.354,1.056,2.028,1.595,15.569,12.861,25.722,27.753,33.845,45.353,23.692,52.122,10.831,108.982,13.538,163.811,1.354,18.953,11.507,37.23,29.107,46.706a79.015,79.015,0,0,0,64.579,4.73C1143.667,443.643,1134.605,361.075,1081.359,304.507Z" transform="translate(-743.367 -246.078)"/><path class="f" d="M866.748,502.065q-2.716-.143-5.435-.218-8.017-.211-16.033.267A194.755,194.755,0,0,0,819.3,504.95c-6.188,1.224-12.952,5.9-18.038,9.456A80.192,80.192,0,0,0,774.631,546.4c-8.9,19.127-.619,38,2.392,57.477q6.193,40.076,15.54,79.576c2.9,12.263,3.32,20.146,13.839,28.087,8.412,6.351,18.687,10.16,29.006,11.975,14.658,2.578,29.706,1.386,44.482-.4,18.4-2.228,37.015-5.474,53.568-13.814,14.656-7.851,30.516-19.661,32.139-37.083,2.05-22.016,3.425-44.438,5.911-66.614,1.234-11.009,2.465-22.175.744-33.118a73.247,73.247,0,0,0-4.906-16.868A94.715,94.715,0,0,0,941.4,520.234a60.547,60.547,0,0,0-18.051-10.965c-7.789-2.885-16.154-3.669-24.363-4.439l-13.324-1.249C879.367,502.99,873.064,502.4,866.748,502.065Z" transform="translate(-677.857 -327.921)"/></g></g><path class="a" d="M1010.432,308.362c1.776,5.584,1.44,11.593,1.026,17.438q-2.452,34.55-7.732,68.821c-1.363,8.844-3.01,18.021-8.274,25.257a29.178,29.178,0,0,1-50.315-5.436" transform="translate(-734.101 -263.725)"/><path class="g" d="M1050.6,377.464l64.577,65.374-66.144,21.919,29.591,62.34S1173.844,470.628,1177,462.5c1.365-3.51,2.708-6.534,2.26-10.417-1.235-10.7-10.678-20.573-17.493-28.1-14.027-15.5-30.511-27.763-47.456-39.834-17.651-12.574-35.714-24.575-54.244-35.816" transform="translate(-767.67 -276.64)"/><path class="h" d="M999.938,507.285c17.31.966,37.312-3.555,56-8.864,4.593-1.305,12.215-6.194,16.852-5.865,4.922.35,9.037,7.151,11.56,10.855,9.322,13.686,17.667,28.573,21.142,44.916,2.075,9.754-3.283,10.464-11.207,14.93-8.376,4.721-16.814,9.332-25.161,14.1-11.825,6.76-26.21,11.949-32.548,24.163" transform="translate(-751.807 -323.233)"/><path class="g" d="M889.482,417.951c.2,6.06,1,12.092.976,18.162-.024,6.226-.236,12.4.141,18.624.279,4.6,1.236,9.477-1.987,13.194-3.182,3.67-7.628,4.539-11.628,6.864,1.566,3.031,1.532,7.275,3.083,10.592,1.739,3.717,3.933,7.207,5.529,10.993.919,2.179,1.626,4.443,2.535,6.626A38.861,38.861,0,0,0,903.5,521.014c6.148,3.788,14.2,5.719,20.542,2.26,3.693-2.015,6.31-5.606,8.031-9.445s2.653-7.973,3.771-12.029a132.11,132.11,0,0,1,5.52-15.971c.805-1.922,3-4.976,2.371-6.909-.581-1.786-2.888-2.442-3.326-4.485a21.7,21.7,0,0,1-.038-5.932l.344-5.233c.094-1.435.022-3.138.91-4.359" transform="translate(-712.081 -299.133)"/><path class="i" d="M867.048,338.8c-7-16.755-11.051-35.188-10.258-53.128.56-12.676,5.625-21.334,18.832-23.433,8.475-1.348,18.946.085,23.882,7.891,10.395,16.437,7.336,36.051,1.777,53.595-2.937,9.27-6.705,18.243-10.138,27.333-1.582,4.188-3.315,18.439-10.051,16.269-4.076-1.313-6.477-12.915-8.329-16.421C870.7,347,868.781,342.95,867.048,338.8Z" transform="translate(-705.525 -248.679)"/><path class="g" d="M1023,339.3a101.7,101.7,0,0,0,11.266,8.736c1.752,1.24,4.153,3.961,6.4,2.669,1.744-1,2.7-3.688,3.563-5.393,2.46-4.887,6.867-11.647,7.143-17.111a5.514,5.514,0,0,0-.374-2.756,6.816,6.816,0,0,0-1.717-1.9c-11.65-10.379-14.474-29.625-11.914-43.752a46.422,46.422,0,0,0-10.04-13.688c-.717-.708-1.726-1.444-2.64-1.021a2.547,2.547,0,0,0-.942.95,96.359,96.359,0,0,0-13.231,28.327,34.281,34.281,0,0,0-1.579,9.856,36.6,36.6,0,0,0,2.038,10.171q1.809,5.763,4.083,11.367c1.1,2.7,1.677,6.029,3.37,8.388A35.987,35.987,0,0,0,1023,339.3Z" transform="translate(-754.714 -249.7)"/><path class="g" d="M891.024,379.7c-5.35-14.144-9.852-28.906-9.819-44.028.058-27.063,18.016-49.2,43.123-57.582,14.118-4.712,31.729-3.111,44.506,4.92,12.495,7.855,9.766,21.8,7.354,34.161-2.722,13.946,2.781,29.064,2.7,43.361-.089,15.188-1.985,24.692-9.557,38.1-2.534,4.489-3.275,13.394-7.818,16.418-18.892,12.574-40.423-5.457-51.459-19.479" transform="translate(-713.445 -253.094)"/><path class="i" d="M974.642,283.8c8.264-3.82,17.458-10.285,16.7-19.357l-16.555,4.021A27.059,27.059,0,0,0,988.12,246.1a86.414,86.414,0,0,1-19.026,7.918,18.442,18.442,0,0,0,7.185-11.6,59.062,59.062,0,0,1-14.272,4.076c-9.44,1.447-20.354,1.115-26.769,8.19q1.323-5.073,2.645-10.145c-6.644,3.787-15.465,3.423-22.8,2.45-12.146-1.61-17.49.236-27.308,7.412-2.147,1.57-4.285,3.375-5.272,5.844-1.533,3.833.1,8.2,2.3,11.69C902.7,300.264,948.589,295.843,974.642,283.8Z" transform="translate(-713.669 -242.42)"/><path class="i" d="M890.3,348.332a26.805,26.805,0,0,1-6.831,7.383c-3.735,2.573-8.868,3.587-12.846,1.408-2.689-1.473-4.491-4.155-5.889-6.883-7.593-14.818-4.639-31.4,5.234-44.395,7.273-9.576,26.106-26.211,33.276-8.132,6.649,16.766-2.58,33.709-11.077,47.674C891.569,346.376,890.951,347.365,890.3,348.332Z" transform="translate(-706.739 -257.68)"/><path class="g" d="M887.013,403.017c-3.318-.573-6.033-3.16-7.5-6.19-7.449-15.374,3.293-37.541,19.19-19.764" transform="translate(-712.118 -283.794)"/><g transform="translate(137.461 0.993)"><path class="g" d="M865.49,294.313a2.483,2.483,0,0,1-.082-.55,4.517,4.517,0,0,1,.814-2.381c1.818-3.158,3.769-6.242,5.452-9.473a65.266,65.266,0,0,0,7.053-23.758c.365-3.747,1.542-5.729,4.573-7.966,2.679-1.979,5.783-3.267,8.669-4.9,1.7-.96,3.746-1.905,5.516-1.086a4.1,4.1,0,0,1,2.119,3.808,8.71,8.71,0,0,1-1.493,4.3c-2.17,3.554-5.348,6.364-7.981,9.591-5.916,7.25-8.93,16.387-13.632,24.477a22.5,22.5,0,0,1-5.581,6.881C869.835,294.075,866.1,296.532,865.49,294.313Z" transform="translate(-845.801 -243.886)"/><path class="g" d="M844.268,318.447A300.687,300.687,0,0,0,867,265.157c1.329-4.311,2.54-8.825,6.641-11.138,3.839-2.164,8.1-2.363,12.351-3.1l6.911-1.2,13.82-2.406a1.11,1.11,0,0,1,.657.02.959.959,0,0,1,.439.615,4.5,4.5,0,0,1-1.2,4.224,13.257,13.257,0,0,1-3.774,2.583" transform="translate(-838.972 -244.978)"/><path class="g" d="M887.532,265.969c.737-3.771,4.948-5.6,8.6-6.79a238.964,238.964,0,0,1,32.561-8.625,1.66,1.66,0,0,1,1.161.081,1.532,1.532,0,0,1,.556.86,9.675,9.675,0,0,1-5.689,11.75" transform="translate(-852.95 -246.02)"/><path class="g" d="M888.57,278.5c1.734-4.6,5.639-8.134,10.016-10.378s9.238-3.346,14.059-4.325q8.821-1.793,17.725-3.139a2.558,2.558,0,0,1,1.7.136,1.894,1.894,0,0,1,.747,1.027,4.844,4.844,0,0,1-1.354,4.787,13.4,13.4,0,0,1-4.447,2.7c-9.762,4.235-20.3,7.59-27.978,14.959" transform="translate(-853.285 -249.279)"/><path class="g" d="M885.287,286.6c3.265-3,8.685-5.166,12.807-6.754a118.752,118.752,0,0,1,15.477-4.411,1.669,1.669,0,0,1,1.461.114,1.455,1.455,0,0,1,.31,1.357c-.367,2.289-2.1,4.087-3.8,5.668-4.838,4.509-10.7,7.831-15.5,12.247-4.39,4.037-7.354,9.886-9.791,15.232-3.431,7.525-6.125,15.408-10.242,22.579-5.564,9.693-14.67,17.8-25.8,20.2" transform="translate(-840.892 -254.046)"/><path class="j" d="M877.127,293.173c2.8-.287,5.983,1.117,6.759,3.818.594,2.067-.323,4.233-1.22,6.187L872.785,324.7c-3.783,8.238-7.592,16.523-12.738,23.986-2.184,3.169-4.69,6.252-8.043,8.139s-7.73,2.362-10.994.326c-3.379-2.108-4.845-6.449-4.523-10.419s2.132-7.654,4.077-11.13a47.444,47.444,0,0,1,4.874-7.367c2.068-2.471,4.537-4.594,6.492-7.155a69.528,69.528,0,0,0,4.534-7.443,69.172,69.172,0,0,1,9.563-12.786C869.265,297.424,872.04,293.7,877.127,293.173Z" transform="translate(-836.444 -259.799)"/></g><path class="f" d="M870.46,501.8,909.3,544.411l28.144-37.886,9.537,3.758-35,69.947-55.3-74.008,16.4-4.1" transform="translate(-705.525 -326.224)"/><path class="k" d="M1090.056,498.272S1117.92,522.7,1123.4,565.11" transform="translate(-780.924 -325.084)"/><line class="g" x2="10.782" y2="11.216" transform="translate(341.239 159.757)"/><path class="j" d="M1046.52,367.2c-.008-4.713,1.979-9.24,4.651-13.122a8.357,8.357,0,0,1,1.536-1.8,9.427,9.427,0,0,1,4.405-1.588c.97-.174,1.577-1.3,2.538-1.08,1.69.39,3.975,2.461,5.4,3.829a15.109,15.109,0,0,1,2.656,3.12,16.956,16.956,0,0,1,1.53,4.045c1.185,4.182,2.383,8.455,2.18,12.8a6.855,6.855,0,0,1-.423,2.308,7.19,7.19,0,0,1-1.642,2.23,9.414,9.414,0,0,1-4.19,2.748,11.246,11.246,0,0,1-3.185.183c-3.882-.147-8.174.278-11.125-2.486S1046.527,371.27,1046.52,367.2Z" transform="translate(-766.857 -277.044)"/><path class="k" d="M1034.516,344.041a24.037,24.037,0,0,1-1.434-18" transform="translate(-762.155 -269.436)"/><path class="l" d="M674.333,498.554s11.273-50.021,55.276-45.317C729.609,453.236,710.886,494.041,674.333,498.554Z" transform="translate(-646.606 -310.433)"/><path class="g" d="M790.436,373.664,703.462,422.2l49.753,31.341-39.38,51.01a244.717,244.717,0,0,1-58.226-50.156,178,178,0,0,1-13.924-18.6,89.851,89.851,0,0,1-6.839-11.456c-2.5-5.486-1.953-14.045,2.688-18.409,2.232-2.1,5.97-3.542,8.7-5.01,2.681-1.444,5.44-2.748,8.1-4.233a359.262,359.262,0,0,1,41.317-19.51,536.808,536.808,0,0,1,80.481-24.752" transform="translate(-633.371 -277.961)"/><path class="h" d="M674,498.885S720.482,553.828,746.2,558c0,0,48.721-6.38,44.781-69.076l-36.759-21.063-19.242-11.026c-1.089-.624-3.755-2.891-5.031-2.886-1.724.006-3.865,6.267-4.992,8.1a90.273,90.273,0,0,1-6.719,9.3c-5.7,7.07-11.985,13.78-19.5,18.882s-16.359,8.538-25.44,8.559" transform="translate(-646.274 -310.764)"/><path class="f" d="M827.144,507.245c2.106,1.861,2.666,4.876,3.051,7.659,1.807,13.059,2.5,26.411.128,39.38-1.971,10.8-6.382,21.656-14.86,28.633s-21.663,8.941-30.47,2.383a7.273,7.273,0,0,1-2.185-2.316,15.6,15.6,0,0,1-.969-3.4c-.728-2.741-2.545-5.039-3.883-7.539-3.864-7.221-3.605-16.09-1.1-23.889s7.039-14.761,11.565-21.588c2.5-3.773,5.072-7.6,8.6-10.437,4.892-3.934,11.063-5.51,17.122-6.586C817.884,508.88,823.818,504.306,827.144,507.245Z" transform="translate(-679.133 -327.668)"/><path class="k" d="M743.4,463.509a116.321,116.321,0,0,1-22.517,29.785c-9.538,9.1-21.389,16.819-34.561,17.387" transform="translate(-650.478 -313.853)"/><path class="m" d="M1218.205,571.858c-10.351,65.461-51.9,125.282-109.62,157.843" transform="translate(-786.91 -348.859)"/></g><g transform="translate(1027.901 463.187)"><path class="n" d="M1264.848,663.6c6.566-2.462,12.8-9.027,19.86-6.237,4.432,1.805,9.191,6.4,14.115,2.3a48.7,48.7,0,0,0,5.935-5.615,38.475,38.475,0,0,0,.291-4.729c0-20.379-15.985-36.9-35.7-36.9a34.872,34.872,0,0,0-22.865,8.561,7.774,7.774,0,0,1,1.79,2.737,47.335,47.335,0,0,1,2.954,11.489c.821,5.744-1.969,10.833-2.133,16.413C1248.763,659.993,1256.806,666.559,1264.848,663.6Z" transform="translate(-1233.643 -612.422)"/><path class="o" d="M1245.1,639.3a47.348,47.348,0,0,0-2.954-11.489,7.775,7.775,0,0,0-1.79-2.737,37.318,37.318,0,0,0-12.838,28.338c0,20.378,15.985,36.9,35.7,36.9,18.167,0,33.166-14.024,35.412-32.169a48.709,48.709,0,0,1-5.935,5.615c-4.924,4.1-9.683-.493-14.115-2.3-7.058-2.79-13.3,3.775-19.86,6.237-8.042,2.955-16.085-3.611-15.756-11.982C1243.128,650.128,1245.919,645.04,1245.1,639.3Z" transform="translate(-1227.515 -616.508)"/></g><g transform="translate(609.694 594.659)"><path class="p" d="M628.3,834.447c6.728-2.088,10.672-9.976,17.632-10.9,8.815,7.424,15.312,21.111,28.767,19.256a5.55,5.55,0,0,0,3.48-3.016,47.143,47.143,0,0,0,2.4-4.44c-3.2-16.381-16.92-28.7-33.357-28.7a33.375,33.375,0,0,0-26.791,13.775c.315,2.292.7,4.575,1.137,6.833C622.04,830.271,622.736,835.839,628.3,834.447Z" transform="translate(-613.166 -806.647)"/><path class="q" d="M674.711,846.358a5.55,5.55,0,0,1-3.48,3.016c-13.456,1.855-19.952-11.832-28.767-19.256-6.96.928-10.9,8.816-17.632,10.9-5.568,1.392-6.264-4.176-6.728-7.191-.437-2.259-.822-4.541-1.137-6.833a37.205,37.205,0,0,0-7.273,22.254c0,19.9,15.251,36.029,34.064,36.029s34.064-16.131,34.064-36.029a38.257,38.257,0,0,0-.707-7.334A47.122,47.122,0,0,1,674.711,846.358Z" transform="translate(-609.694 -813.222)"/></g><g transform="translate(681.535 150.528)"><path class="r" d="M731.088,169.031c5.008-.923,8.514-6.248,13.59-6.318,5.693,6.084,9.184,16.466,19,16.285a4.011,4.011,0,0,0,2.756-1.868,34,34,0,0,0,2.106-2.982c-.9-12.033-9.691-22.047-21.49-23.453a24.128,24.128,0,0,0-20.411,7.595c.03,1.673.111,3.344.232,5C726.949,165.5,726.972,169.553,731.088,169.031Z" transform="translate(-719.32 -150.528)"/><path class="s" d="M762.942,180.834a4.011,4.011,0,0,1-2.756,1.868c-9.818.181-13.31-10.2-19-16.285-5.076.07-8.582,5.4-13.59,6.318-4.116.523-4.139-3.533-4.214-5.738-.12-1.659-.2-3.33-.231-5a26.9,26.9,0,0,0-7.126,15.353c-1.7,14.284,7.865,27.169,21.37,28.779s25.833-8.664,27.536-22.948a27.644,27.644,0,0,0,.12-5.325A34.013,34.013,0,0,1,762.942,180.834Z" transform="translate(-715.825 -154.233)"/></g></g></svg>