<svg xmlns="http://www.w3.org/2000/svg" xmlns:xlink="http://www.w3.org/1999/xlink" width="578.056" height="432.491" viewBox="0 0 578.056 432.491"><defs><style>.a,.ac,.ae{fill:none;}.b{clip-path:url(#a);}.c{fill:url(#b);}.d{fill:url(#c);}.e{fill:url(#d);}.f{fill:#0a1743;}.g,.r{fill:#1a456d;}.h{fill:url(#e);}.i{fill:url(#f);}.j{fill:url(#g);}.k{fill:url(#h);}.l{fill:#a5cde5;}.aa,.ae,.l,.m,.s,.t,.u,.w,.x{stroke:#060c39;}.ab,.ac,.ae,.l,.m,.s,.u,.x,.y{stroke-linecap:round;stroke-linejoin:round;}.m{fill:#8a9ba8;}.n{fill:url(#i);}.o{fill:url(#j);}.p{fill:url(#k);}.q{fill:url(#l);}.ab,.ac,.r,.y{stroke:#100052;}.aa,.r,.t,.w{stroke-miterlimit:10;}.s{fill:#bb6737;}.aa,.t,.v{fill:#4fa5ad;}.u,.z{fill:#2a7195;}.w{fill:#398084;stroke-width:1.121px;}.x{fill:#060c39;}.y{fill:#100052;}.aa{stroke-width:1.097px;}.ab{fill:#fff;}.ad{fill:#408d91;}</style><clipPath id="a"><path class="a" d="M616.044,322.073c48.9-24.465,71.836-56.667,132.42-52.544,61.708,4.2,119.524,30.068,179.7,41.7,51.321,9.92,59.607,52.439,91.062,89.689,39.491,46.766,24.137,88.843-5.252,134.024-14.27,21.937-9.146,41.392-16.234,63.913-7.575,24.07-28.867,36.7-51.37,45.347-42.686,16.407-86.087,14.856-130.615,11.4-59.281-4.6-117.732,3.608-176.814,1.294-28.763-1.126-59.75-4.21-87.086-13.683-37.47-12.985-31.3-24.788-41.6-57.225-11.015-34.7-44.805-42.988-45.309-84.954-.419-34.862,17.236-44.326,41.011-63.706,26.382-21.506,24.258-45.634,39.545-71.959C560.042,340.329,591.86,334.172,616.044,322.073Z" transform="translate(-464.937 -269.17)"/></clipPath><linearGradient id="b" x1="0.605" y1="0.973" x2="0.004" y2="-1.165" gradientUnits="objectBoundingBox"><stop offset="0" stop-color="#2a7195"/><stop offset="1" stop-color="#060c39"/></linearGradient><linearGradient id="c" x1="0.409" y1="0.907" x2="0.676" y2="-0.265" xlink:href="#b"/><linearGradient id="d" x1="0.837" y1="2.207" x2="0.307" y2="-0.171" xlink:href="#b"/><linearGradient id="e" x1="0.367" y1="0.746" x2="1.237" y2="-1.004" gradientUnits="objectBoundingBox"><stop offset="0" stop-color="#ff9077"/><stop offset="1" stop-color="#e9645a"/></linearGradient><linearGradient id="f" x1="0" y1="0.5" x2="1" y2="0.5" xlink:href="#e"/><linearGradient id="g" x1="0.713" y1="-0.573" x2="0.336" y2="1.476" gradientUnits="objectBoundingBox"><stop offset="0" stop-color="#faebd8"/><stop offset="1" stop-color="#ffb83f"/></linearGradient><linearGradient id="h" x1="0.516" y1="0.293" x2="0.373" y2="1.104" xlink:href="#g"/><linearGradient id="i" x1="0.391" y1="0.773" x2="0.867" y2="-0.424" xlink:href="#b"/><linearGradient id="j" x1="0.705" y1="1.872" x2="0.363" y2="-0.415" gradientUnits="objectBoundingBox"><stop offset="0" stop-color="#6599b3"/><stop offset="1" stop-color="#45496b"/></linearGradient><linearGradient id="k" x1="0.985" y1="1.316" x2="0.132" y2="-0.12" xlink:href="#j"/><linearGradient id="l" x1="0.091" y1="-1.46" x2="0.959" y2="2.697" xlink:href="#j"/></defs><g transform="translate(-464.937 -225.995)"><g transform="translate(464.937 254.947)"><g class="b" transform="translate(0 0)"><g transform="translate(-0.69 0.221)"><path class="c" d="M845.826,741.25c-75.339-22-142.01-60.671-220.015-68.671-41.1-3.786-80.454,5.591-118.4,19.944,6.573,7.851,12.68,16.42,16.311,27.859,10.3,32.436,4.132,44.239,41.6,57.225,27.337,9.473,58.323,12.556,87.086,13.682,59.082,2.314,117.533-5.9,176.814-1.294,44.528,3.456,87.929,5.007,130.615-11.4,15.6-6,30.617-13.91,40.887-26.22C947.6,761.264,896.714,755.7,845.826,741.25Z" transform="translate(-478.402 -403.561)"/><path class="d" d="M994,447.062c-65.338,8.667-125.342,30-190.013,36-80.672,7.334-162.011,2.667-234.683-40-10-5.685-19.569-11.671-28.837-17.881-11.146,23.386-11.725,44.946-35.55,64.366-23.775,19.38-41.43,28.843-41.012,63.706.339,28.131,15.632,41.131,29,57.1,37.95-14.353,77.3-23.73,118.4-19.944,78.005,8,144.677,46.67,220.015,68.672,50.888,14.45,101.777,20.013,154.9,11.124a55.627,55.627,0,0,0,10.483-19.127c7.088-22.522,1.965-41.977,16.234-63.914,29.39-45.181,44.743-87.258,5.252-134.024q-2.725-3.228-5.229-6.5A94.926,94.926,0,0,0,994,447.062Z" transform="translate(-463.902 -321.387)"/><path class="e" d="M965.407,311.561c-60.178-11.633-117.994-37.5-179.7-41.7-60.585-4.124-83.525,28.079-132.421,52.544-24.184,12.1-56,18.256-70.543,43.3-1.481,2.552-2.8,5.082-3.995,7.593,9.269,6.21,18.836,12.2,28.837,17.881,72.672,42.67,154.011,47.337,234.683,40,64.671-6,124.675-27.335,190.013-36a94.923,94.923,0,0,1,18.959-.428C1023.916,359.2,1013.763,320.908,965.407,311.561Z" transform="translate(-502.178 -269.501)"/></g><g transform="translate(486.057 194.338)"><path class="f" d="M1248.416,611.3v-8.553c0-.917-.686-11.857-.6-11.924a21.059,21.059,0,0,1,5.148-3.106,1.018,1.018,0,0,0,.553-.4,1.438,1.438,0,0,0,.129-.569l1.432-16.039c-1.281.091-5.454.838-6.46-.227s-.2-4.521-.2-5.937l-45.884-3.883c-.715,1.484.084,6.144.026,7.909-.072,2.2.009,2.49-1.8,3.182q-3.354,1.28-6.784,2.232c.041-.011.479,13.014.5,13.722-.009-.3,6.262-.065,7.15.963,1.441,1.666.851,5.436.91,7.56.14,5.013,0,10.059,0,15.076h-5.906l2.918,4.823h2.987v24.916l-2.987-.2v21.7h2.987v10.447c-5.17,2.223-9.59,7.012-.357,10.4.115.042.239.071.357.111v7.645h45.884v-7.727h2.94V672.192h-2.94v-9.647h5.889V644.459l-5.889-.389V616.123h5.889V611.3Z" transform="translate(-1193.971 -560.657)"/><line class="f" x1="28.703" y1="0.598" transform="translate(25.1 29.211)"/><line class="f" x2="34.683" y2="1.196" transform="translate(7.759 9.478)"/><path class="f" d="M1205.609,635.863h32.29" transform="translate(-1197.85 -585.722)"/><line class="f" x2="40.064" transform="translate(7.161 80.637)"/><line class="f" x1="44.25" y1="1.196" transform="translate(9.553 99.773)"/><path class="f" d="M1206.505,726.151l.6-.6,44.25.6" transform="translate(-1198.148 -615.615)"/></g><g transform="translate(64.502 221.112)"><path class="g" d="M607.844,632.315l-.818-5.784c-.086-.608-1.635-7.683-1.575-7.727a15.315,15.315,0,0,1,3.809-1.979.495.495,0,0,0,.446-.609l-.4-9.657c-.972.055-4.109.5-4.97-.121s-.522-2.616-.636-3.426l-35.369-2.2c-.536.848.146,3.543.124,4.576-.028,1.3.041,1.471-1.385,1.885q-2.65.771-5.387,1.351c.033-.007.393,8.04.411,8.489-.007-.189,5.134-.074,5.873.575,1.205,1.056.775,3.5.855,4.885.193,3.326.152,6.749.231,10.224l-5.08.063,2.563,3.384,2.594-.036.425,18.825-2.744-.1.268,18.245,2.883-.081.214,9.465c-5.1,2.247-9.535,6.968-.139,9.933.118.037.245.061.365.1l.172,7.637,46.62-1.812-1.067-7.545,2.874-.1-1.555-10.446-2.8.089-1.208-8.543,5.473-.155-2.343-14.973-5.3-.192-2.953-20.881,4.942-.069-.523-3.347Z" transform="translate(-561.683 -600.815)"/><line class="g" x1="23.155" y1="0.218" transform="translate(20.552 17.547)"/><line class="g" x2="27.169" y2="0.643" transform="translate(6.14 5.503)"/><path class="g" d="M571.694,648.107l.513-.007,26.9-.332" transform="translate(-565.02 -616.464)"/><line class="g" y1="0.771" x2="36.262" transform="translate(6.591 53.682)"/><line class="g" x1="41.859" y2="0.121" transform="translate(9.188 70.278)"/><path class="g" d="M574.063,720.265l.575-.569,42.828-.791" transform="translate(-565.809 -640.173)"/></g><g transform="translate(-16.983 114.974)"><path class="f" d="M470.114,472.213c.742-4.776-10.827-13.95-9.293-21.834,2.61-13.412,7.93-8.97,17.5-2.836,15.816,10.138,36.985,24.359,47.309,40.444,4.621,7.2,6.524,44.975,13.017,47.355a11.914,11.914,0,0,0-6.233-.581c-2.076.367,3.7,9.914,3.863,10.217,1.749,3.224,2,5.154,1.652,9.522-.705,8.733-1.719,17.422-2.79,26.166-.361,2.95-1.7,12.309-1.7,12.309a39.692,39.692,0,0,1-5.044.6l-8.547-.163-28.256-.538-52.131-.992s2.226-66.955,3.552-87.153q14.871,6.593,28.321,12.562l-.879-10.423,5.564-.3a26.631,26.631,0,0,1,.233-12.274,10.018,10.018,0,0,1-6.04-3.439A61.672,61.672,0,0,1,470.114,472.213Z" transform="translate(-439.464 -441.619)"/><line class="f" x1="53.117" y1="10.925" transform="translate(39.709 84.649)"/><path class="f" d="M440.088,606.32c1.64.659,3.16,2.077,4.823,2.271l82,9.609" transform="translate(-439.672 -496.512)"/><line class="f" x1="63.646" y1="4.285" transform="translate(31.83 133.318)"/><line class="f" x2="56.898" y2="20.076" transform="translate(32.739 29.858)"/></g><g transform="translate(-6.99 220.83)"><path class="f" d="M538.389,656.992l.923-9.845c.1-1.069.157-13.923.3-14.014a49.246,49.246,0,0,1,9.107-4.426,2.281,2.281,0,0,0,1-.567,1.6,1.6,0,0,0,.293-.711l4.589-20.254c-2.268.326-9.656,1.951-11.274.765s.2-5.73.368-7.548l-75.9,2.781c-1.147,1.92.027,7.426-.093,9.549-.149,2.633-.027,2.967-2.846,4.047q-5.181,1.985-10.4,3.57c.062-.019.715,14.879.746,15.676-.013-.334,9.419-.811,10.752.251,2.159,1.721,1.2,6.038,1.261,8.408.131,5.544-.156,11.086-.233,16.514l-8.667.509,4.222,4.888,4.373-.24-.362,25.72-4.243-.046-.193,21.157,4.141-.082-.139,9.847c-7.076,2.143-13.036,6.58-.619,9.578.155.038.325.063.483.1l-.1,6.9h64.773l.686-7.315,4.407-.023,1.081-10.9-4.47.058.9-9.569,9.091-.181,1.953-18.676-9.266-.1,2.847-30.357,9.659-.531.575-5.5Z" transform="translate(-454.453 -600.391)"/><line class="f" x1="46.712" y2="2.859" transform="translate(38.428 32.319)"/><line class="f" y1="3.765" x2="55.997" transform="translate(11.936 10.559)"/><path class="f" d="M471.477,689.412l.883-.052,48.528-2.871" transform="translate(-460.127 -629.086)"/><line class="f" y1="2.106" x2="59.469" transform="translate(10.097 89.893)"/><line class="f" x1="64.693" y2="0.18" transform="translate(13.21 110.469)"/><path class="f" d="M471.554,781.246l.832-.571,63.884-.315" transform="translate(-460.153 -660.372)"/></g></g></g><g transform="translate(933.294 288.222)"><path class="h" d="M1195.074,356.694c4.825-1.809,9.409-6.634,14.6-4.584,3.257,1.327,6.755,4.7,10.374,1.689a35.869,35.869,0,0,0,4.362-4.126,28.377,28.377,0,0,0,.214-3.476c0-14.977-11.748-27.118-26.24-27.118a25.626,25.626,0,0,0-16.8,6.292,5.7,5.7,0,0,1,1.315,2.011,34.808,34.808,0,0,1,2.172,8.444c.6,4.222-1.448,7.961-1.568,12.062C1183.252,354.041,1189.163,358.866,1195.074,356.694Z" transform="translate(-1172.14 -319.079)"/><path class="i" d="M1180.345,338.971a34.8,34.8,0,0,0-2.172-8.444,5.7,5.7,0,0,0-1.315-2.011,27.424,27.424,0,0,0-9.435,20.826c0,14.977,11.747,27.118,26.24,27.118,13.352,0,24.374-10.307,26.026-23.642a35.874,35.874,0,0,1-4.362,4.126c-3.619,3.016-7.117-.362-10.374-1.689-5.187-2.051-9.771,2.774-14.6,4.584-5.911,2.172-11.822-2.654-11.58-8.806C1178.9,346.933,1180.948,343.193,1180.345,338.971Z" transform="translate(-1167.423 -322.224)"/></g><g transform="translate(503.549 594.712)"><path class="j" d="M534.071,795.4c4.021-1.248,6.378-5.962,10.538-6.516,5.269,4.437,9.151,12.617,17.193,11.508a3.316,3.316,0,0,0,2.08-1.8,28.048,28.048,0,0,0,1.437-2.654c-1.915-9.791-10.113-17.151-19.937-17.151a19.945,19.945,0,0,0-16.012,8.233c.188,1.37.418,2.734.679,4.084C530.328,792.9,530.744,796.229,534.071,795.4Z" transform="translate(-525.024 -778.782)"/><path class="k" d="M561.71,802.7a3.316,3.316,0,0,1-2.08,1.8c-8.042,1.109-11.924-7.071-17.193-11.508-4.16.554-6.517,5.268-10.538,6.516-3.328.832-3.744-2.5-4.021-4.3-.261-1.35-.491-2.714-.679-4.084a22.235,22.235,0,0,0-4.347,13.3c0,11.893,9.115,21.534,20.359,21.534s20.359-9.641,20.359-21.534a22.821,22.821,0,0,0-.422-4.383A28.031,28.031,0,0,1,561.71,802.7Z" transform="translate(-522.851 -782.898)"/></g><g transform="translate(596.303 356.902)"><rect class="l" width="10.945" height="54.726" transform="translate(0 34.949)"/><path class="l" d="M853.61,435.936l-50.43-2.7V422.092l50.43,3.723Z" transform="translate(-709.035 -422.092)"/><rect class="l" width="10.945" height="47.886" transform="translate(10.945 41.79)"/><path class="l" d="M867.389,436.778l-48.621-2.6V423.243l48.621,3.589Z" transform="translate(-714.23 -422.476)"/><path class="l" d="M835.992,477.1H783.2V465.687l52.792,1.073Z" transform="translate(-702.376 -436.622)"/><path class="l" d="M858.836,477.279H809.1V466.214l49.74,1.011Z" transform="translate(-711.007 -436.797)"/><path class="l" d="M858.836,451.816l-49.74-1.652V439.1l49.74,2.663Z" transform="translate(-711.007 -427.761)"/><path class="l" d="M844.141,465.838l-51.693-.749V453.8l51.693,1.8Z" transform="translate(-705.459 -432.66)"/><path class="l" d="M868.149,466.37l-48.523-.7V454.745l48.523,1.69Z" transform="translate(-714.516 -432.975)"/><path class="l" d="M863.795,450.789,814.7,449.08V438.091l49.09,2.707Z" transform="translate(-712.876 -427.424)"/><g transform="translate(92.693 61.872)"><rect class="l" width="53.644" height="25.573" transform="translate(4.881 2.07)"/><rect class="l" width="64.278" height="7.364"/><rect class="l" width="11.628" height="1.938" rx="0.969" transform="translate(26.744 10.853)"/></g><g transform="translate(92.275 39.804)"><rect class="l" width="53.644" height="25.573" transform="translate(4.881 2.07)"/><rect class="l" width="64.278" height="7.364"/><rect class="l" width="11.628" height="1.938" rx="0.969" transform="translate(26.744 10.853)"/></g><path class="l" d="M750.091,460.637l38.407,3.876v28.853H750.091Z" transform="translate(-691.341 -434.939)"/><path class="l" d="M788.958,525.737H742.533v-20.23l46.425-2.983Z" transform="translate(-688.823 -448.899)"/><rect class="l" width="27.218" height="19.085" transform="translate(26.493 57.119)"/><g transform="translate(17.288 75.797)"><path class="l" d="M752.34,549.588H687.9l5.8-13.808H752.34Z" transform="translate(-687.903 -535.78)"/><path class="l" d="M785.8,549.588H721.359L725.4,535.78h60.4Z" transform="translate(-699.053 -535.78)"/><circle class="l" cx="2.907" cy="2.907" r="2.907" transform="translate(30.609 4.786)"/></g></g><g transform="translate(854.657 365.611)"><rect class="m" width="12.001" height="48.003" transform="translate(51.4)"/><rect class="m" width="12.001" height="42.003" transform="translate(63.4 6)"/><g transform="translate(0 19.52)"><path class="m" d="M1103.934,474.394l-47.467,1.725-5.785,22.366,54.129.055Z" transform="translate(-1049.878 -467.752)"/><path class="m" d="M1106.775,477.5l-57.061,2.074-.237-6.533,56.823-8.607Z" transform="translate(-1049.476 -464.432)"/></g><g transform="translate(11.702 46.893)"><path class="m" d="M1109.524,517.491h-42.5l2.494-9.54,21.9-2.461Z" transform="translate(-1067.028 -505.49)"/><path class="m" d="M1143.613,517.491h-40v-12h42.309Z" transform="translate(-1079.22 -505.49)"/><circle class="m" cx="3.235" cy="3.235" r="3.235" transform="translate(29.441 2.211)"/></g><g transform="translate(1.606 58.894)"><path class="m" d="M1142.331,546.116l-54.067,2.374,4.548-25h55.583Z" transform="translate(-1064.01 -523.49)"/><path class="m" d="M1080.687,523.49h-26.275l-2.527,18.432,24.254,6.569Z" transform="translate(-1051.885 -523.49)"/></g></g><g transform="translate(923.68 480.443)"><path class="g" d="M1194.628,646.108v-6.539c0-.7-.525-9.065-.461-9.116a16.1,16.1,0,0,1,3.936-2.375.777.777,0,0,0,.423-.309,1.107,1.107,0,0,0,.1-.434l1.094-12.263c-.979.07-4.17.641-4.939-.173s-.151-3.457-.151-4.539l-35.08-2.969c-.546,1.134.065,4.7.021,6.046-.055,1.681.007,1.9-1.379,2.432q-2.564.979-5.186,1.707c.031-.009.366,9.949.382,10.49-.007-.227,4.788-.049,5.467.736,1.1,1.273.65,4.156.7,5.78.107,3.832,0,7.69,0,11.525h-4.514l2.231,3.688h2.283v19.049l-2.283-.151v16.594h2.283v7.987c-3.952,1.7-7.332,5.361-.272,7.95.087.032.183.055.272.085v5.845h35.08v-5.907h2.248v-8.585h-2.248v-7.375h4.5V671.46l-4.5-.3V649.8h4.5v-3.688Z" transform="translate(-1153.004 -607.391)"/><line class="g" x1="21.944" y1="0.457" transform="translate(19.19 22.333)"/><line class="g" x2="26.515" y2="0.914" transform="translate(5.932 7.246)"/><path class="g" d="M1161.9,664.887h24.687" transform="translate(-1155.969 -626.554)"/><line class="g" x2="30.63" transform="translate(5.475 61.649)"/><line class="g" x1="33.83" y1="0.914" transform="translate(7.303 76.278)"/><path class="g" d="M1162.587,733.914l.457-.457,33.83.457" transform="translate(-1156.198 -649.407)"/></g><rect class="n" width="312.497" height="130.917" transform="translate(623.741 452.476)"/><rect class="o" width="12.531" height="135.53" transform="translate(660.39 453.847)"/><rect class="p" width="12.531" height="135.53" transform="translate(620.51 453.847)"/><g transform="translate(639.24 501.585)"><path class="g" d="M779.5,728.2H738.238c-1.909,0-6.421-.486-6.421-.486s-1.5-6.628-1.9-8.731c-1.187-6.272-2.312-12.562-3.031-18.909-.361-3.192.032-4.555,2.45-6.654.226-.2,7.99-6.186,5.331-6.758a28.475,28.475,0,0,0-8.295-.543l.869-12.157a12.808,12.808,0,0,1,5.489.309l.547-1.974a6.941,6.941,0,0,1,2.652.195l-.461-3.768a13.428,13.428,0,0,0-3.477-.757l.224-10.441a11.217,11.217,0,0,1,3.29-.2l.015-5.956a56.722,56.722,0,0,0-8.824-.389q.287-5.145.112-10.3c15.5-2.65,32.028-1.158,47.747-1.158,9.251,0,18.553-.289,27.8,0,4.476.14,6.982-1.024,9.053,3.376,2.557,5.434-3.1,13.084-8.1,14.558a24.6,24.6,0,0,1-.651,11.08,9.794,9.794,0,0,1-5.562.991,10.838,10.838,0,0,1-.153,7.44L801.961,678l-1.1,6.05q11.922-1.7,23.842-3.39c.4,11.229.081,47.543.081,47.543Z" transform="translate(-726.374 -639.101)"/><line class="g" x2="47.727" transform="translate(7.632 12.925)"/><line class="g" x2="58.676" transform="translate(8.39 49.307)"/><path class="g" d="M833.074,740.094c-1.263.25-2.469.922-3.757.922H748.543" transform="translate(-733.763 -672.761)"/><line class="g" x2="68.977" transform="translate(3.842 78.867)"/><line class="g" x1="61.394" transform="translate(13.696 17.473)"/></g><rect class="q" width="353.609" height="15.945" transform="translate(590.129 444.503)"/><g transform="translate(818.776 526.878)"><g transform="translate(0 0)"><rect class="r" width="15.001" height="64.504" transform="translate(15.001)"/><rect class="r" width="15.001" height="64.504"/><circle class="r" cx="3.79" cy="3.79" r="3.79" transform="translate(3.711 47.872)"/><circle class="r" cx="3.79" cy="3.79" r="3.79" transform="translate(18.712 47.872)"/></g><g transform="translate(19.714 23.345)"><g transform="translate(10.351 12.942)"><path class="r" d="M1083.25,748.408h-42.5l2.494-13.469,21.9-3.475Z" transform="translate(-1040.754 -731.464)"/><path class="r" d="M1117.339,748.408h-40V731.464h42.309Z" transform="translate(-1052.946 -731.464)"/><ellipse class="r" cx="3.235" cy="4.567" rx="3.235" ry="4.567" transform="translate(29.441 3.121)"/></g><g transform="translate(34.741)"><path class="r" d="M1141.786,728.176l-38.527,1.692,3.241-17.815h39.607Z" transform="translate(-1085.976 -712.053)"/><path class="r" d="M1097.86,712.053h-18.723l-1.8,13.134,17.283,4.681Z" transform="translate(-1077.336 -712.053)"/></g><g transform="translate(0 30.328)"><path class="r" d="M1078.284,770.68h-53.056l6.316-13.138h46.74Z" transform="translate(-1025.228 -757.542)"/><path class="r" d="M1118.073,770.68h-53.056l3.537-13.138h49.519Z" transform="translate(-1038.489 -757.542)"/></g></g></g><g transform="translate(686.578 226.495)"><path class="s" d="M962.507,243.51c-11.038-10.4-15.356-11.239-18.108-8.551-2.454,2.4-2.749,6.313-1.895,9.635,1.306,5.082,8.641,7.559,13.2,8.823,1.541.428,1.615,1.167,3.044,1.885" transform="translate(-845.601 -228.881)"/><path class="s" d="M968.295,246.238s29.109,10.455,42.776,22.733c0,0,14,13.778-27.835,43.78L968.9,293.416l21.3-14.573L966.2,259.155" transform="translate(-853.644 -233.075)"/><path class="t" d="M955.95,350.9a100.179,100.179,0,0,0,12.325-9.038c4.087-3.4,10.95-7.474,10.63-13.328a19.738,19.738,0,0,0-11.8-17.021,5.546,5.546,0,0,0-4.569-.393,26.028,26.028,0,0,0-4.786,2.841,95.546,95.546,0,0,1-11.984,7.293,9.058,9.058,0,0,1-4.77,1.363" transform="translate(-845.241 -254.584)"/><path class="u" d="M891.024,852.021a5.9,5.9,0,0,1-1.243,2.556,6.325,6.325,0,0,1-2.97,1.579,21.693,21.693,0,0,1-15.9-1.6c-1.134-.593-2.323-1.444-2.51-2.711a4.532,4.532,0,0,1,.414-2.187l6.348-17.213c.809-2.195,1.689-4.493,3.477-6a12.018,12.018,0,0,1,3.426-1.853,7.894,7.894,0,0,1,4.054-.752C894.121,825.119,892.363,846.93,891.024,852.021Z" transform="translate(-821.039 -425.564)"/><path class="v" d="M906.131,442.358c4.958-.834,11.251-.381,15.881-2.478,4.969-2.251,6.221-9.05,6.344-13.924q.442-17.5-.4-35.01c-.517-10.745-2.239-21.517-2.189-32.292a43.055,43.055,0,0,0-1.439-10.325c-.4-1.62.228-3.047.437-4.694a15.221,15.221,0,0,0-.13-6.374,30.077,30.077,0,0,0-2.593-5.617,9.48,9.48,0,0,0-1.207-1.818,8.654,8.654,0,0,0-2.826-1.845,9,9,0,0,0-6.558-.8,15.3,15.3,0,0,1-6.9.339c-1.263-.219-2.308-.865-3.582-.94-1.529-.089-3.058.121-4.586.133a128.835,128.835,0,0,0-33.452,4.65q-4.439,1.233-8.782,2.786c-2.546.911-6.012,1.711-8.2,3.316-3.714,2.72-4.923,8.329-4.1,12.573,2.422,12.494,9.81,23.31,13.168,35.466,3.886,14.064,5.638,28.609,7.334,43.066.379,3.237.791,6.58,2.441,9.391,3.5,5.962,10.894,5.264,16.733,5.82C889.75,444.562,898.016,443.724,906.131,442.358Z" transform="translate(-812.117 -259.844)"/><path class="u" d="M986.52,828.073a95.262,95.262,0,0,0,16.874,8.064c3.2,1.159,9.043.842,11.357,3.69,4.291,5.281-6.18,7.918-9.847,8.562-5.5.966-11.165.419-16.67-.543A112.353,112.353,0,0,1,969.846,843a4.019,4.019,0,0,1-2.083-1.29,3.962,3.962,0,0,1-.529-1.759,70.481,70.481,0,0,1-.6-9.674,4.117,4.117,0,0,1,.356-1.979c1-1.8,4.1-1.516,4.99-3.375C977.66,823.647,981.542,825.06,986.52,828.073Z" transform="translate(-853.787 -425.786)"/><path class="t" d="M916.876,513.3q-5.588,108.872-19.533,217.152c-7.3.949-20.354,2.638-27.182-.852-6.9-3.528-2.1-17.162-1.527-22.724q1.638-15.96,2.924-31.952c2.059-25.6,4.672-51.693,3.234-77.353-1.49-26.577-3.506-53.126-4.869-79.71" transform="translate(-820.406 -322.083)"/><path class="w" d="M830.787,403.85a18.044,18.044,0,0,0-5.345-4.076,34.005,34.005,0,0,0-14.944-3.938,9.318,9.318,0,0,0-3.083.3,3.3,3.3,0,0,0-2.188,1.844c-.427,1.206.3,2.492,1.16,3.5,2.029,2.362,4.884,4.036,7.737,5.579,4.614,2.5,9.6,4.828,14.992,4.992,1.907.057,4.41-.573,4.289-2.66A11.19,11.19,0,0,0,830.787,403.85Z" transform="translate(-799.951 -282.931)"/><path class="t" d="M963.475,513.3c5.018,30.807,6.742,62.246,8.456,93.583l2.439,44.6c1.312,23.986,1.318,47.765,2.864,71.7a4.175,4.175,0,0,1-.262,2.226c-1.833,3.392-8.058,4.443-11.042,4.74a64.683,64.683,0,0,1-13.254-.205,1.339,1.339,0,0,1-1.01-.417,1.912,1.912,0,0,1-.263-1c-2.064-27.276-2.358-54.653-4.97-81.862-2.628-27.385-6.767-54.548-8.961-81.992q-1.765-22.089-3.59-44.17l2.543.567" transform="translate(-842.872 -322.083)"/><path class="s" d="M896.812,298.468l1.669,11.845c.287,2.038,1.135,4.084.829,6.172a2.627,2.627,0,0,1-1.565,2.221,13.7,13.7,0,0,1-2.506.419q-1.449.244-2.886.565c.059-.013,1.354,2.225,1.508,2.438a27.933,27.933,0,0,0,1.969,2.181,16.8,16.8,0,0,1,1.075,1.786c1.755,2.553,4.257,4.507,5.881,7.1,1.734,2.768,4.292,4.25,7.231,5.646a12.319,12.319,0,0,0,4.552,1.429,4.582,4.582,0,0,0,4.166-1.893c1.354-2.2.249-5.97.844-8.533a38.531,38.531,0,0,0,1.427-6.748,24.678,24.678,0,0,0-.04-3.518c-.065-.753,0-1.143-.731-1.486a11.3,11.3,0,0,0-2.968-.966c-.833-.133-1.233-.081-1.481-.967a6.65,6.65,0,0,1-.1-2.184c.09-1.362.391-2.689.555-4.04" transform="translate(-829.031 -250.483)"/><g transform="translate(55.373)"><path class="a" d="M936.62,253.822a16.076,16.076,0,0,1,1.192,5.912q.829,11.929.678,23.9c-.039,3.089-.159,6.306-1.609,9.033a10.074,10.074,0,0,1-17.463.57" transform="translate(-893.424 -235.603)"/><path class="x" d="M886.574,271.9a43.284,43.284,0,0,1-6.07-17.667c-.42-4.36.893-7.565,5.307-8.919,2.832-.87,6.48-.885,8.545,1.545,4.346,5.117,4.247,11.97,3.193,18.235-.557,3.311-1.412,6.56-2.147,9.833-.339,1.508-.243,6.463-2.651,6.046-1.456-.252-2.837-4.1-3.639-5.211C888.217,274.522,887.367,273.232,886.574,271.9Z" transform="translate(-880.43 -232.588)"/><path class="s" d="M899.967,281.828c-2.675-4.875-5.073-10.019-5.838-15.526-1.37-9.856,4.031-18.84,12.742-23.182a20.062,20.062,0,0,1,16.458-.5c4.953,2.217,4.676,7.437,4.433,12.06-.274,5.217,2.507,10.439,3.211,15.649.749,5.534.547,9.092-1.521,14.363-.691,1.764-.5,5.045-2,6.379-6.232,5.55-15,.091-19.737-4.447" transform="translate(-884.925 -231.36)"/><path class="x" d="M924.543,241.645c2.813-1.815,5.828-4.642,5.087-7.907l-5.821,2.315a9.951,9.951,0,0,0,3.7-8.829,31.763,31.763,0,0,1-6.52,3.861,6.784,6.784,0,0,0,2.02-4.592,21.718,21.718,0,0,1-4.987,2.218c-3.363,1.011-7.354,1.451-9.326,4.358l.442-3.83c-2.224,1.72-5.454,2.041-8.177,2.064-4.505.037-6.356.984-9.562,4.1a5.283,5.283,0,0,0-1.62,2.4c-.361,1.474.458,2.981,1.44,4.138C899.2,251.338,915.677,247.37,924.543,241.645Z" transform="translate(-883.518 -226.495)"/><path class="x" d="M897.579,271.316a9.844,9.844,0,0,1-2.107,3.039,4.635,4.635,0,0,1-4.6,1.173,5.722,5.722,0,0,1-2.5-2.2c-3.526-5.005-3.3-11.193-.375-16.433,2.156-3.86,8.158-10.885,11.7-4.672,3.283,5.762.793,12.406-1.583,17.928C897.94,270.539,897.766,270.931,897.579,271.316Z" transform="translate(-882.207 -234.247)"/><path class="s" d="M898.671,292.416a3.985,3.985,0,0,1-3.05-1.868c-3.5-5.214-.73-13.838,5.971-8.183" transform="translate(-884.986 -244.499)"/></g><path class="t" d="M929.3,503.463c-21.035,6.569-41.073,5.412-62.282,1.38a1.859,1.859,0,0,1-1.8-2.621c3.811-24.794.059-53.812-1.375-78.98" transform="translate(-819.528 -292.069)"/><path class="s" d="M809.8,393.265s-14.5,27.3-12.167,30.4c.011.026.023.051.035.076a9.027,9.027,0,0,0,1.413,1.971,25.426,25.426,0,0,0,4.679,3.992,56.169,56.169,0,0,0,9.581,5.149,114.882,114.882,0,0,0,16.12,5.44c3.646.969,7.325,1.811,11.023,2.559,2.109.427,4.232.773,6.342,1.192a34.847,34.847,0,0,0,6.629.129,18.441,18.441,0,0,0,2.213-.092c.509-.063,1.01-.167,1.511-.272a6.663,6.663,0,0,0,1.609-.481,5.913,5.913,0,0,0,2.289-2.485c.613-1.053,1.147-2.15,1.682-3.245.636-1.3,1.273-2.61,1.893-3.922a12.452,12.452,0,0,0,1.485-4.78c.013-.37-.064-.825-.413-.948a.892.892,0,0,0-.675.123c-1.687.843-2.974,2.364-4.7,3.132a8.238,8.238,0,0,1-4.955.378,47.271,47.271,0,0,1-6.609-2.264c-5.384-1.949-10.763-3.912-16.122-5.931-2.257-.851-4.515-1.706-6.751-2.612-.737-.3-2.474-.681-2.976-1.37-.667-.915,7.9-15.807,7.9-15.807Z" transform="translate(-797.376 -282.077)"/><path class="y" d="M899.036,435.6a14.108,14.108,0,0,1,.283-2.52c2.841-13.72,14.735-15.842,24.183-6.934,6.182,5.83,6.659,15.054,6.752,23.365L930.426,465c.049,4.4-.651,8.767-.161,13.166a3.088,3.088,0,0,1-.035,1.378,2.707,2.707,0,0,1-1.091,1.2,16.984,16.984,0,0,1-9.835,2.734,41.3,41.3,0,0,1-7.225-.711c-2.282-.424-4.065-1.643-6.312-2.177,4.2-6.854,3.954-14.783.688-21.828C903.152,451.635,898.845,443.6,899.036,435.6Z" transform="translate(-831.256 -291.251)"/><g transform="translate(59.914 141.566)"><path class="s" d="M892.652,448.008a1.934,1.934,0,0,1,.671-.649,5.856,5.856,0,0,1,2.6-1.432c1.261-.1,3.66-.272,4.566.839.59.723.5,1.733.875,2.565a10.218,10.218,0,0,0,1.743,2.878c1.117,1.189,2.89,2.234,2.695,3.854a3.79,3.79,0,0,1-1.077,1.9l-1.486,1.723a3.241,3.241,0,0,1-2.552,1.408l-7.062,1.144a13.114,13.114,0,0,1-3.162.252,6.573,6.573,0,0,1-3.221-1.166" transform="translate(-887.241 -441.171)"/><path class="s" d="M890.965,468.754c1.245-.2,2.568-.395,3.821-.473a10.98,10.98,0,0,1,3.594.611,10.957,10.957,0,0,0,3.316.807c1.381.015,6.162.168,4.567-2.448-.5-.816-1.9-1.336-2.738-1.668-1.057-.417-2.154-.725-3.195-1.185" transform="translate(-888.482 -447.352)"/><path class="s" d="M894.158,446.923a28.984,28.984,0,0,1,5.726-7.451,1.746,1.746,0,0,1,1.719-.62,29.767,29.767,0,0,1,7.032,1.511,11.313,11.313,0,0,1,3.234,1.395c.6.459,1.207.919,1.813,1.376.457.345,1.419.907,1.5,1.546.086.7-.876,1.443-1.453,1.634a3.191,3.191,0,0,1-2.588-.4c-1.049-.441-2.126-.8-3.166-1.276a5.9,5.9,0,0,0-3.24-.291c-.8.083-1.634-.119-2.457-.078" transform="translate(-889.547 -438.83)"/><path class="s" d="M911.728,461.416a2.252,2.252,0,0,1-.764,2.915,4.618,4.618,0,0,1-3.206.589,18.727,18.727,0,0,1-6-2.084,11.525,11.525,0,0,1-3.184-2.06" transform="translate(-891.018 -446.145)"/><path class="s" d="M903.909,448.461a66.133,66.133,0,0,1,7.813,3.927l2.512,1.4c.908.507,1.919,1.161,2.047,2.194.146,1.185-1.06,2.187-2.251,2.281a6.709,6.709,0,0,1-3.4-.982l-9.461-4.691" transform="translate(-891.884 -442.04)"/></g><path class="z" d="M953.711,473.311l-.561,17.135a29.963,29.963,0,0,0,19.145.6c-2.923-16.046-4.972-32.236-7.021-48.417" transform="translate(-849.293 -298.53)"/><g transform="translate(5.124 77.619)"><path class="aa" d="M845.933,370.9l-7.577,12.526-3.68,6.084c-.464.767-.911,2.462-1.828,2.872-1.16.52-1.2-.4-1.622-1.273a13.209,13.209,0,0,0-4.612-5.134,29.427,29.427,0,0,0-7.786-3.437,28.307,28.307,0,0,0-4.074-1.007,21.641,21.641,0,0,0-4.766-.153c-1.243.085-2.755.623-3.956.149-1.949-.769-.474-2.435.195-3.608q1.755-3.082,3.686-6.068c2.648-4.094,5.52-8.054,8.507-11.932,4.592-5.963,8.335-13.336,15.352-17" transform="translate(-805.061 -342.916)"/></g><path class="ab" d="M977.5,565.166l20.192-9.909c-2.145,1.053-13.614-20.185-14.673-22.416a99.18,99.18,0,0,1-8.567-28.331c-2.755-19.163,5.438-37.631,3.413-57.091a58.023,58.023,0,0,0-6.23-21.234c-2.9-5.462-6.9-11.644-13.924-12.373a27.468,27.468,0,0,0-5.227.125l-20.571,1.8c-6.071.532-12.99.119-18.381,3.171,4.237.548,5.805,3.42,8.083,6.6a33.974,33.974,0,0,1,5.534,12.5c2.573,11.75-.781,25.366-1.691,37.3-1.43,18.76-4.64,34.942.475,53.868a102.886,102.886,0,0,0,27.975,47.564Z" transform="translate(-836.089 -288.898)"/><g transform="translate(87.681 136.198)"><line class="ac" y1="2.054" x2="30.71"/><line class="ac" y1="2.317" x2="34.643" transform="translate(0.142 3.397)"/><line class="ac" y1="2.111" x2="31.566" transform="translate(0.225 9.713)"/><path class="ac" d="M954.5,479.232l36.681-2.454Z" transform="translate(-937.423 -446.109)"/><line class="ac" x1="34.165" y2="2.285" transform="translate(20.241 40.41)"/></g><path class="v" d="M890.547,328.949l19.759,19.243,7.732-20.287a22.709,22.709,0,0,1,2.858.385c.507.189-4.307,24.954-4.307,24.954l-10.849,3.36-19.979-26.757Z" transform="translate(-826.833 -260.293)"/><rect class="ad" width="17.616" height="4.667" rx="2.333" transform="translate(89.072 91.644)"/></g><path class="ae" d="M957.686,248.071a16.347,16.347,0,0,1-3.1-3.86,8.186,8.186,0,0,1-1.063-4.778" transform="translate(-162.825 -4.312)"/><path class="ae" d="M1001.351,294.148a40.323,40.323,0,0,0,4.3,3.6" transform="translate(-178.78 -22.548)"/></g></svg>