<svg xmlns="http://www.w3.org/2000/svg" xmlns:xlink="http://www.w3.org/1999/xlink" width="455.065" height="370.19" viewBox="0 0 455.065 370.19"><defs><style>.a,.aa,.n,.q,.z{fill:none;}.b{fill:url(#a);}.c{fill:url(#b);}.d{clip-path:url(#c);}.e{fill:url(#d);}.f{fill:url(#e);}.g{fill:url(#f);}.h{fill:url(#g);}.i{fill:url(#h);}.j,.o{fill:#398084;}.aa,.j,.k,.m,.n,.o,.p,.q,.r{stroke:#060c39;}.j,.n,.o{stroke-miterlimit:10;}.j,.n{stroke-width:1.121px;}.k,.m,.r,.s{fill:#bb6737;}.aa,.k,.m,.p,.q,.r,.z{stroke-linecap:round;stroke-linejoin:round;}.k{stroke-width:0.925px;}.l{fill:#4fa5ad;}.o{stroke-width:1.073px;}.p{fill:#060c39;}.aa,.r{stroke-width:0.93px;}.t{fill:#408d91;}.u{fill:url(#i);}.v{fill:url(#j);}.w{fill:url(#k);}.x{fill:url(#l);}.y{fill:url(#m);}.z{stroke:#fff;stroke-width:3px;}</style><linearGradient id="a" x1="-5.676" y1="-17.565" x2="-6.067" y2="-15.675" gradientUnits="objectBoundingBox"><stop offset="0" stop-color="#2a7195"/><stop offset="1" stop-color="#060c39"/></linearGradient><linearGradient id="b" x1="-4.896" y1="-10.621" x2="-5.039" y2="-9.85" xlink:href="#a"/><clipPath id="c"><path class="a" d="M537.526-1189.059c10.911-43.894,22.627-91.021,66.464-123.864,31.458-23.569,64.363-28.473,77.037-30.211,19.161-2.627,57.942-7.944,90.633,13.6,9.364,6.17,18.831,17.708,37.764,40.785,24.147,29.432,24.766,35.865,40.785,52.868,25.756,27.34,33.953,21.107,51.358,40.785,22.186,25.083,41.947,72.61,22.659,113.291-14.956,31.543-45.994,43.374-51.359,45.316-21.964,7.952-31.049,1.306-74.016-1.511-20.785-1.363-77.844-5.1-138.97,10.574-16.256,4.17-20.679,6.6-33.232,7.553-25.381,1.919-62.956-3.825-84.59-25.679C509.922-1078.02,524.045-1134.832,537.526-1189.059Z" transform="translate(-522.503 1345.687)"/></clipPath><linearGradient id="d" x1="0.344" y1="0.12" x2="0.679" y2="1.375" xlink:href="#a"/><linearGradient id="e" x1="0.851" y1="1.784" x2="0.148" y2="-0.66" xlink:href="#a"/><linearGradient id="f" x1="0.726" y1="1.294" x2="-0.013" y2="-1.305" gradientUnits="objectBoundingBox"><stop offset="0" stop-color="#6599b3"/><stop offset="1" stop-color="#45496b"/></linearGradient><linearGradient id="g" x1="0.79" y1="-0.367" x2="0.005" y2="1.914" gradientUnits="objectBoundingBox"><stop offset="0" stop-color="#ff9077"/><stop offset="1" stop-color="#e9645a"/></linearGradient><linearGradient id="h" x1="0.487" y1="0.494" x2="0.359" y2="1.008" xlink:href="#g"/><linearGradient id="i" x1="0.488" y1="1.253" x2="0.5" y2="0.499" gradientUnits="objectBoundingBox"><stop offset="0" stop-color="#b9bdab"/><stop offset="1" stop-color="#769cae"/></linearGradient><linearGradient id="j" x1="0" y1="0.5" x2="1" y2="0.5" xlink:href="#i"/><linearGradient id="k" x1="0.484" y1="0.003" x2="0.787" y2="1.453" xlink:href="#i"/><linearGradient id="l" x1="0.713" y1="-0.573" x2="0.336" y2="1.476" gradientUnits="objectBoundingBox"><stop offset="0" stop-color="#faebd8"/><stop offset="1" stop-color="#ffb83f"/></linearGradient><linearGradient id="m" x1="0.516" y1="0.293" x2="0.373" y2="1.104" xlink:href="#l"/></defs><g transform="translate(-498.357 1414.783)"><g transform="translate(498.357 -1414.783)"><g transform="translate(355.34 93.561)"><path class="b" d="M1245.479-1208.5c3.586-.661,6.1-4.474,9.731-4.524,4.076,4.356,6.576,11.79,13.607,11.66a2.871,2.871,0,0,0,1.973-1.337,24.366,24.366,0,0,0,1.508-2.135c-.643-8.617-6.939-15.787-15.387-16.794a17.277,17.277,0,0,0-14.615,5.439c.021,1.2.079,2.394.166,3.582C1242.515-1211.034,1242.531-1208.129,1245.479-1208.5Z" transform="translate(-1237.052 1221.752)"/><path class="c" d="M1265.216-1196.8a2.872,2.872,0,0,1-1.973,1.337c-7.03.13-9.531-7.3-13.607-11.66-3.635.05-6.145,3.863-9.731,4.524-2.947.374-2.964-2.531-3.018-4.109-.086-1.188-.144-2.384-.166-3.582a19.259,19.259,0,0,0-5.1,10.993c-1.219,10.228,5.632,19.454,15.3,20.607s18.5-6.2,19.717-16.432a19.794,19.794,0,0,0,.086-3.813A24.466,24.466,0,0,1,1265.216-1196.8Z" transform="translate(-1231.478 1215.844)"/></g><g transform="translate(11.703 33.49)"><g class="d"><path class="e" d="M878.39-1227.636c-16.019-17-16.638-23.437-40.785-52.869-18.933-23.077-28.4-34.615-37.763-40.785-32.69-21.539-71.471-16.222-90.633-13.6-12.675,1.738-45.58,6.642-77.037,30.211-30.552,22.89-45.5,52.719-55.449,83.556,29.2,30.951,61.8,58.789,105.184,61.384,36.837,1.939,72.7-7.755,108.572-18.418A662.181,662.181,0,0,1,909.71-1202.92C901.634-1207.6,892.736-1212.408,878.39-1227.636Z" transform="translate(-550.443 1341.436)"/><path class="f" d="M653.725-1040.779c-43.381-2.6-75.983-30.434-105.184-61.384-4.326,13.408-7.709,27.007-11.015,40.309-13.48,54.227-27.6,111.039,4.531,143.5,21.634,21.854,59.209,27.6,84.59,25.679,12.553-.949,16.976-3.383,33.232-7.553,61.126-15.678,118.185-11.937,138.97-10.574,42.967,2.817,52.052,9.463,74.016,1.51,5.365-1.942,36.4-13.773,51.358-45.316,19.289-40.681-.472-88.207-22.658-113.291-7.711-8.717-13.615-12.35-20.038-16.069A662.18,662.18,0,0,0,762.3-1059.2C726.429-1048.534,690.562-1038.84,653.725-1040.779Z" transform="translate(-522.503 1220.198)"/><rect class="g" width="432.129" height="99.131" transform="translate(-10.568 235.168)"/></g></g><g transform="translate(60.111)"><path class="h" d="M649.227-1384.142c3.93-1.474,7.664-5.4,11.89-3.734,2.653,1.081,5.5,3.832,8.45,1.376a29.192,29.192,0,0,0,3.553-3.361,23.03,23.03,0,0,0,.175-2.832c0-12.2-9.57-22.09-21.375-22.09a20.878,20.878,0,0,0-13.689,5.125,4.651,4.651,0,0,1,1.072,1.639,28.352,28.352,0,0,1,1.769,6.878c.491,3.439-1.179,6.485-1.278,9.826A7.133,7.133,0,0,0,649.227-1384.142Z" transform="translate(-630.546 1414.783)"/><path class="i" d="M632.9-1395.692a28.349,28.349,0,0,0-1.769-6.878,4.648,4.648,0,0,0-1.072-1.639,22.341,22.341,0,0,0-7.685,16.965c0,12.2,9.569,22.09,21.374,22.09,10.877,0,19.855-8.4,21.2-19.258a29.215,29.215,0,0,1-3.553,3.361c-2.948,2.456-5.8-.295-8.45-1.376-4.225-1.671-7.959,2.26-11.89,3.734a7.133,7.133,0,0,1-9.433-7.173C631.722-1389.207,633.392-1392.253,632.9-1395.692Z" transform="translate(-622.375 1409.334)"/></g><g transform="translate(79.006 23.61)"><path class="j" d="M697.662-973.574c-4.7-.991-9.566-.655-14.343-.174a32.36,32.36,0,0,0-6.345,1.1c-6.18,1.912-10.818,7.152-13.877,12.851a32.441,32.441,0,0,0,25.942,10.647c6.433-.419,12.569-2.766,18.534-5.209a15.106,15.106,0,0,0,3.828-2.023,7.925,7.925,0,0,0,2.847-5.746c.149-2.609-1.268-3.437-3.231-4.933A33.88,33.88,0,0,0,697.662-973.574Z" transform="translate(-662.254 1164.146)"/><path class="k" d="M672.965-975.75l-.973,32.311,33.69,1.618,2.787-33.929-34.9.72" transform="translate(-666.838 1164.937)"/><path class="l" d="M811.209-975.163c0,1.151-35.01,5.722-38.662,6.755a14.4,14.4,0,0,1-5.678.808c-3.86-.5-6.707-4.11-7.633-7.89s-.354-7.741.075-11.608a154.816,154.816,0,0,0-1.629-45.146c-2.133-11.539-8.2-20.584-10.519-32.076-2.61-12.922-4.885-25.937-8.683-38.581-1.981-6.6-2.056-12.04-2.746-18.584-.7-6.644-4.4-9.716-.658-16.433,7.549-13.563,17.818-26.188,32.683-31.509,6.451-2.308,12.967-4.685,19.7-6.035a128.29,128.29,0,0,1,20.387-2.144q5.4-.2,10.8-.181c14.583.063,44.9.659,45.106,21.795a81.588,81.588,0,0,1-.693,12.264c-4.212,29.659-2.455,60.426.971,90.374,1.744,15.247,3.828,30.458,5.854,45.669.8,6.013,3.129,11.13-1.713,16.081-4.076,4.167-10.753,4.777-15.93,6.857C839.136-979.482,825.178-976.853,811.209-975.163Z" transform="translate(-698.497 1269.049)"/><path class="m" d="M800.99-1232.953c6.528,6.723,16.437,14.257,20.208,23.075,3.37,7.883,2.537,16.99-.206,24.923a48.613,48.613,0,0,1-5.826,11.58c-2.3,3.354-5.446,5.773-7.44,9.257a2.948,2.948,0,0,1-1.5,1.544c-.924.276-1.841-.394-2.569-1.026a183.828,183.828,0,0,1-17.749-17.653,32.156,32.156,0,0,1-7.5-21.011" transform="translate(-721.672 1297.475)"/><path class="l" d="M720.554-1085.559c3,5.911,2.246,12.947,1.418,19.524l-3.3,26.226a4,4,0,0,1-.9,2.465c-2.38,2.293-5.753-3.763-6.729-5.082a21.561,21.561,0,0,0-7.916-6.263,33.057,33.057,0,0,0-22.54-2.392,33.058,33.058,0,0,0-18.689,12.824c-1.286-7.21-.017-14.508,1.174-21.636.995-5.95.644-11.369,1.024-17.332.663-10.4,2.954-22.093,11.784-28.749,11-8.293,20.034-19.04,34.232-21.585" transform="translate(-661.358 1243.166)"/><path class="n" d="M662.025-980.135c3.486-7.851,12.187-12.545,20.768-12.943s16.971,2.914,24.234,7.5" transform="translate(-661.702 1173.883)"/><path class="k" d="M669.118-1005.225c-.468-4.473,1.09-9.759,1.647-14.116l4.627-36.187c1.509-11.805,3.018-23.614,5-35.386.846-5.026,1.865-21.1,4.6-25.663,2.183-3.641,8.236,5.326,12.625,5.269,3.886-.05,5.273-10.565,6.526-7.316,1.4,3.632,3.206,18.922,3.881,22.748,3.18,18.035,6.347,36.124,7.263,54.449a176.813,176.813,0,0,1-.641,27.7c-.872,8.133-4.018,14.534-8.307,21.929-4.6,7.924-13.495,18.186-23.823,10.2a20.813,20.813,0,0,1-4.753-5.853c-2.983-4.835-6.388-10.012-8.135-15.337A11.758,11.758,0,0,1,669.118-1005.225Z" transform="translate(-665.312 1238.882)"/><path class="o" d="M1048.578-1105.017a59.277,59.277,0,0,0-7.223,11.041,27.114,27.114,0,0,0-2.352,5.406,23.54,23.54,0,0,0,2.138,17.89c1.727-.17,5.656-.544,7.279-1.212,1.882-.775,3.5-3.191,4.719-4.736a45.789,45.789,0,0,0,7.243-13.368,62.255,62.255,0,0,0,3.112-22.381,67.785,67.785,0,0,0-7.241,2.162c-2.25,1-4.974,2.31-6.694,4.118Q1049.06-1105.572,1048.578-1105.017Z" transform="translate(-855.515 1235.35)"/><g transform="translate(15.62)"><path class="a" d="M717.266-1261.532c.2,3.453,1.65,6.695,3.111,9.83q8.635,18.53,18.771,36.311c2.616,4.589,5.459,9.3,9.886,12.18a17.574,17.574,0,0,0,17.234.9,17.574,17.574,0,0,0,9.359-14.5" transform="translate(-705.788 1312.202)"/><path class="p" d="M756.269-1359.776q.9.481,1.756,1.026c12.979,8.246,9.5,25.06,11.577,38.386.854,5.487,1.536,11.088.691,16.576-2.683,17.431-20.068,25.284-36.3,25.286H733.7c-6.425-.039-11.62-.75-16.22-5.443-8.965-9.145-19.573-19.46-21.371-32.573a41.522,41.522,0,0,1-.193-6.191c.037-2.539-.613-5.382,1.1-7.522a6.066,6.066,0,0,1,2.418-1.749c1.464-.633,1.393-.036,1.821-1.732.532-2.111.765-4.283,1.366-6.386a21.118,21.118,0,0,1,6.155-10.18,55.232,55.232,0,0,1,15.6-10.3,40.675,40.675,0,0,1,19.718-2.814c6.666.71,12.306,2.594,17.889-2.68a13.051,13.051,0,0,1-.889,3.887,4.41,4.41,0,0,1-2.874,2.58,9.085,9.085,0,0,0,6.84.527,4.7,4.7,0,0,1-3.946,3.487" transform="translate(-694.741 1366.072)"/><path class="m" d="M732.6-1244.227c5.57,7,14.741,12.861,21.612,18.216a15,15,0,0,0,5.62,3.172c8.014,1.843,18.553-5.6,20.69-13.114,1.713-6.021,2.351-12.719,2.925-18.937,1.2-13.051.522-26.562-4.592-38.787-6.111-15.878-21.626-24.846-38.251-24.129-9.348.4-19.33,5.3-25.031,12.885-9.511,12.658-1.378,29.788,5.473,41.622,3.331,5.753,6.712,12.337,10.514,17.692Q732.052-1244.911,732.6-1244.227Z" transform="translate(-702.681 1341.221)"/><path class="p" d="M745.226-1300.8c8.09-.219,13.66-4.928,20,1.826l4.194,4.468c1.545,1.646,3.145,3.388,3.719,5.572l.838-10.706a31.165,31.165,0,0,0,.06-6.22c-.279-2.253-2.063-4.4-2.238-6.457-.355-4.161,3.778-6.783,2.2-11.68-1.367-4.237-5.289-7.173-9.386-8.916-5.611-2.389-13.8-3.382-19.163.282-3.132,2.141-2.185,5.514-6.71,6.016-7.13.791-13.285-5.392-20.044-5.277a14.354,14.354,0,0,0-11.329,6.027c-14.983,21.435,21.568,25.068,34.429,25.1C742.922-1300.764,744.071-1300.769,745.226-1300.8Z" transform="translate(-698.858 1350.086)"/><path class="p" d="M824.265-1300.751c3.608,3.023,9.735,11.047,12.452,4.188,1.623-4.1-1.5-11.4-2.039-15.645-.839-6.662-2.089-13.615-5.4-19.551-3.2-5.748-12.31-9.008-15.02-.453C810.457-1320.206,815.188-1308.357,824.265-1300.751Z" transform="translate(-755.089 1351.316)"/><path class="m" d="M851.555-1243.693a6.813,6.813,0,0,0,4.791-3.8c4.873-9.57-1.605-23.636-11.817-12.66" transform="translate(-771.367 1313.553)"/><path class="q" d="M716.723-1334.589a1.968,1.968,0,0,0-.952-.434,13.889,13.889,0,0,0-12.675,3.5" transform="translate(-698.486 1350.255)"/><path class="q" d="M697.657-1263.516a12.3,12.3,0,0,0-3.844,11.442" transform="translate(-693.585 1313.224)"/></g><path class="r" d="M1013.1-1129.8c7.566,5.384,14.5,11.754,21.423,17.925,8.3,7.406,16.626,14.82,23.776,23.35a22.924,22.924,0,0,1,2.644,3.678,23.016,23.016,0,0,1,2,5.822c2.377,10.116,5.451,20.171,7.9,30.372l7.144,29.784c1.2,5.014,2.821,10.1,3.643,15.188.734,4.545-4.019,4.388-7.248,6.326-2.466,1.481-6.3,6.4-7.6,3.687-1.666-3.48-27.5-50.108-36.806-69.56-7.537-15.759-51.294-37.741-62.544-43.968" transform="translate(-819.077 1244.319)"/><g transform="translate(245.671 234.541)"><path class="r" d="M1214.507-844.472c-1.677-4.3-5.355-7.364-8.261-10.575-2.381-2.631-5.541-4.381-8.24-6.526a120.3,120.3,0,0,1-10.281-9.783c-3.56-3.6-2.541-9.792-7.191-10.793-1.566-.337-8.125,2.239-9.584,2.979a5.058,5.058,0,0,0-2.731,4.185,9.556,9.556,0,0,0,.5,2.919c.842,3.03,1.9,6.457,1.9,9.677,0,3.078.023,5.184,2.983,6.676" transform="translate(-1168.215 882.179)"/><path class="r" d="M1238.8-827.473a28.638,28.638,0,0,1,2.88,3.684c.473.654,1.912,3.176,2.715,1.487a2.975,2.975,0,0,0,.017-1.887q-.3-1.362-.737-2.68a26.074,26.074,0,0,0-8.165-12.167,30.608,30.608,0,0,0-2.714-1.613c-1.226-.809-2.432-1.66-3.661-2.463-2.459-1.606-4.948-3.15-7.437-4.693a20.1,20.1,0,0,1-4.8-3.5" transform="translate(-1193.299 866.269)"/><path class="r" d="M1238.18-833.324a46.658,46.658,0,0,1,5.237,4.3,41.4,41.4,0,0,1,4.6,5.685,45.377,45.377,0,0,1,6.2,13.741,2.355,2.355,0,0,1,.113.9c-.115.845-1.437,1.064-2.029.987a5.089,5.089,0,0,1-2.565-1.486,45.484,45.484,0,0,1-4.116-4.366,8.317,8.317,0,0,1-2.218-4.43" transform="translate(-1204.269 857.004)"/><path class="r" d="M1226.44-830.877c4.339,2.739,6.968,4.405,9.474,9.414l4.727,9.452c.9,1.79,1.739,4.24.495,5.726-1.022,1.222-2.872.834-4.005-.251a20.352,20.352,0,0,1-3.1-4.272c-1.084-1.884-2.2-3.744-3.375-5.553a56.553,56.553,0,0,0-7.81-9.789" transform="translate(-1196.368 855.743)"/><path class="r" d="M1185.715-826.4a17.78,17.78,0,0,1,4.991,1.027c1.54.48,2.961,2.2,4.191,3.34a100.215,100.215,0,0,1,7.167,7.355c1.968,2.237,3.309,5.221,5.571,7.166a3.71,3.71,0,0,0,2.054,1.007,1.932,1.932,0,0,0,1.909-1.11c.524-1.181-.184-2.557-.806-3.673-2.006-3.6-3.08-7.685-4.808-11.445-1.68-3.656-4.118-4.4-7.359-6.149" transform="translate(-1177.233 854.716)"/><path class="r" d="M1180.238-831.85l1,6.338a22.976,22.976,0,0,1,.422,5.081,7.242,7.242,0,0,1-1.753,4.564,2.469,2.469,0,0,1-1.95.87,2.868,2.868,0,0,1-1.8-1.24,7.807,7.807,0,0,1-1.54-4.306,14.5,14.5,0,0,0-.912-4.377c-.713-2.005-1.738-3.963-1.949-6.11-.228-2.312.827-4.123,2.242-5.858" transform="translate(-1170.024 858.84)"/></g><g transform="translate(17.115 55.915)"><path class="m" d="M713.564-1216.867c-3.646,2.888-7.438,5.966-9.211,10.265a26.277,26.277,0,0,0-1.46,6.122q-.867,5.71-1.522,11.45a34.439,34.439,0,0,1-.891,6.472c-.665,2.119-2.1,3.438-2.544,5.655a64.636,64.636,0,0,0-1.233,14.4c.042,1.649-.341,4.932.742,6.245,1.1,1.337,3.845,1.567,5.4,1.806,3.617.558,7.008-.547,10.565-.847,2.472-.208,4.676-.911,5.018-3.872.718-6.224-.874-12.807.321-18.931.648-3.32,2.571-6.715,4.2-9.681a49.718,49.718,0,0,1,8-10.509c.414-.443.973-.778,1.353-1.25" transform="translate(-696.669 1233.271)"/><path class="m" d="M746.583-1221.515a1.364,1.364,0,0,1-1.123-.382c1.988-3.079,4.649-5.65,7.142-8.335,2.138-2.3,3.946-5.1,6.25-7.219,1.508-1.39,4.56-6.283,7.189-4.1,2.818,2.339-2.084,7.966-3.382,9.958-1.956,3-3.661,6.288-5.864,9.109-1.91,2.447-3.25,5.286-5.312,7.659" transform="translate(-721.812 1246.276)"/><path class="m" d="M717.053-1227.461q5.592-5.67,10.621-11.861c1-1.231,6.747-8.844,1.12-8.391a5.483,5.483,0,0,0-2.247.86,69.22,69.22,0,0,0-8.215,5.9c-4.8,3.819-8.264,8.059-12.076,12.839-1.507,1.89-2.026,4.721-2.646,6.994-.9,3.3-1.343,6.8-1.977,10.161q-1.919,10.173-3.608,20.39" transform="translate(-697.368 1249.176)"/><path class="m" d="M729.819-1227.027c2.408-3.709,5.577-6.726,8.644-9.852,3.561-3.631,7.154-7.235,10.537-11.034a7.7,7.7,0,0,1,3.595-2.721c1.482-.366,3.379.617,3.318,2.143a3.706,3.706,0,0,1-.8,1.844,222.035,222.035,0,0,1-18.912,24.161" transform="translate(-713.752 1250.71)"/><path class="m" d="M743.168-1197.935a1.971,1.971,0,0,1,.859-1.456c2.785-2.528,5.6-5.028,8.357-7.585,2.135-1.979,4.194-4.32,7.121-5.081,1.638-.426,2.877,1.04,2.392,2.8-.826,3-5.16,6.259-7.108,8.643q-4.026,4.928-7.569,10.225a35.807,35.807,0,0,0-4.243,7.293q-1.726,4.56-3.458,9.117a13.516,13.516,0,0,1-3.063,5.382,4.809,4.809,0,0,1-3.636,1.378" transform="translate(-715.299 1230.83)"/></g><path class="s" d="M697.694-1111.947a33.221,33.221,0,0,0,.836,13.208c1.939,6.786,22.155-3.029,22.155-3.029l-1.071-10.906s-.436-5.652-1.454-6.456S697.694-1111.947,697.694-1111.947Z" transform="translate(-679.921 1238.851)"/><path class="l" d="M947.132-1125.892s36.029,12.633,42.815,22.319c0,0-1.6-36.62,21.334-42.067-7.646-6.272-14.935-13.271-23.622-17.909-15.53-8.291-25.279-12.034-48.868-12.675" transform="translate(-804.321 1268.243)"/><path class="s" d="M1165.7-875.3a2.072,2.072,0,0,0,.343.917,47.131,47.131,0,0,1,2.341,4.735,1.876,1.876,0,0,0,1.209,1.058,2.328,2.328,0,0,0,1.767-.768l2.968-2.494a22.642,22.642,0,0,1,2.82-2.13c.688-.414,1.421-.758,2.066-1.236a7.913,7.913,0,0,0,2.119-2.647c.906-1.611,1.511-2.642,1.038-4.537-.635-2.546-1.066-5.438-3.942-6.223a8.154,8.154,0,0,0-5.38.544,20.873,20.873,0,0,0-2.657,1.5c-1.274.8-2.551,1.6-3.823,2.4a4.839,4.839,0,0,0-1.929,1.671c-.63,1.267-.168,2.717.251,3.971.231.691.5,1.374.662,2.086C1165.643-876.041,1165.643-875.666,1165.7-875.3Z" transform="translate(-920.54 1120.165)"/><rect class="t" width="29.984" height="7.944" rx="3.972" transform="matrix(0.99, -0.141, 0.141, 0.99, 110.963, 153.015)"/></g><g transform="translate(139.815 234.488)"><g transform="translate(0 1.28)"><rect class="u" width="178.959" height="105.082" rx="39.421" transform="translate(0 8.053)"/><path class="v" d="M792.823-928.357a10.752,10.752,0,0,0-6.006,9.534v83.454a11.1,11.1,0,0,0,11.37,10.814h156.22a11.1,11.1,0,0,0,11.369-10.814v-35.763c-47.646-2.651-92.195-19.212-134.714-44.269A99.481,99.481,0,0,0,792.823-928.357Z" transform="translate(-786.817 928.357)"/></g><path class="w" d="M960.793-931H804.572a11.783,11.783,0,0,0-5.363,1.28,99.478,99.478,0,0,1,38.24,12.957c42.519,25.057,87.068,41.617,134.714,44.269v-47.692A11.1,11.1,0,0,0,960.793-931Z" transform="translate(-793.203 930.997)"/></g><g transform="translate(0 305.283)"><path class="x" d="M517.023-762.246c5.492-1.7,8.71-8.142,14.391-8.9,7.2,6.06,12.5,17.231,23.48,15.717a4.529,4.529,0,0,0,2.84-2.462,38.384,38.384,0,0,0,1.962-3.624c-2.614-13.371-13.81-23.421-27.226-23.421A27.241,27.241,0,0,0,510.6-773.693c.257,1.871.571,3.734.928,5.577C511.911-765.654,512.479-761.109,517.023-762.246Z" transform="translate(-504.668 784.936)"/><path class="y" d="M551.424-745.938a4.529,4.529,0,0,1-2.84,2.462c-10.983,1.515-16.285-9.657-23.48-15.717-5.681.758-8.9,7.2-14.391,8.9-4.544,1.136-5.112-3.408-5.491-5.87-.357-1.844-.671-3.706-.928-5.577a30.369,30.369,0,0,0-5.936,18.164c0,16.241,12.447,29.407,27.8,29.407s27.8-13.166,27.8-29.407a31.157,31.157,0,0,0-.577-5.985A38.4,38.4,0,0,1,551.424-745.938Z" transform="translate(-498.357 772.983)"/></g><path class="z" d="M541.932-1194.5" transform="translate(-520.811 1301.271)"/><path class="z" d="M1345.8-1019.081a146.491,146.491,0,0,1,14.932,114.043c-8.276,28.914-28.832,57.129-58.4,62.6" transform="translate(-912.646 1210.876)"/></g><path class="n" d="M967.427-1066.124c6.465,3.065,14.015,4.439,20.48,7.5" transform="translate(-241.714 -179.666)"/><path class="n" d="M1056.321-1121.246s-24.273,4.239-24.452,39.38" transform="translate(-274.922 -151.261)"/><path class="aa" d="M1102.577-1005.384a36.808,36.808,0,0,1,8.958-8.529" transform="translate(-311.358 -206.57)"/></g></svg>