<svg xmlns="http://www.w3.org/2000/svg" xmlns:xlink="http://www.w3.org/1999/xlink" width="471.373" height="532.688" viewBox="0 0 471.373 532.688"><defs><style>.a{fill:url(#a);}.b{fill:#cecece;}.c{fill:#fff;stroke-width:1.626px;}.c,.d,.e,.g,.i,.j,.l,.m,.q,.s,.t,.u,.x,.y,.z{stroke:#100052;}.c,.d,.e,.f,.g,.i,.j,.m,.q,.s,.t,.u,.x,.y,.z{stroke-miterlimit:10;}.d,.g,.k,.x,.y,.z{fill:#e28b3d;}.d{stroke-width:0.413px;}.e,.i,.j,.n{fill:#100052;}.e,.f{stroke-width:1.481px;}.f,.m,.o,.p,.t{fill:none;}.f,.o,.p{stroke:#fff;}.g{stroke-width:0.505px;}.h{fill:#f68f78;}.i{stroke-width:0.169px;}.j{stroke-width:0.177px;}.l{fill:#a5a5a5;stroke-width:0.659px;}.l,.o,.p{stroke-linecap:round;stroke-linejoin:round;}.m{stroke-width:0.45px;}.o{stroke-width:1.178px;}.p{stroke-width:0.877px;}.q,.s,.u{fill:#685545;}.q{stroke-width:0.031px;}.r{fill:#2a7195;}.s{stroke-width:0.183px;}.t,.u{stroke-width:0.212px;}.v{fill:url(#b);}.w{fill:url(#c);}.x{stroke-width:0.445px;}.y{stroke-width:0.432px;}.z{stroke-width:0.381px;}.aa{fill:url(#d);}.ab{fill:url(#e);}</style><linearGradient id="a" x1="-4.516" y1="3.272" x2="-3.709" y2="3.272" gradientUnits="objectBoundingBox"><stop offset="0" stop-color="#faebd8"/><stop offset="1" stop-color="#ffb83f"/></linearGradient><linearGradient id="b" x1="0.713" y1="-0.573" x2="0.336" y2="1.476" gradientUnits="objectBoundingBox"><stop offset="0" stop-color="#ff9077"/><stop offset="1" stop-color="#e9645a"/></linearGradient><linearGradient id="c" x1="0.516" y1="0.293" x2="0.373" y2="1.104" xlink:href="#b"/><linearGradient id="d" y1="0.5" x2="1" y2="0.5" gradientUnits="objectBoundingBox"><stop offset="0" stop-color="#2a7195"/><stop offset="0.333" stop-color="#296e92"/><stop offset="0.513" stop-color="#26668b"/><stop offset="0.657" stop-color="#21597f"/><stop offset="0.781" stop-color="#1a456d"/><stop offset="0.891" stop-color="#112c57"/><stop offset="0.992" stop-color="#060e3b"/><stop offset="1" stop-color="#060c39"/></linearGradient><linearGradient id="e" y1="0.5" x2="1" y2="0.5" gradientUnits="objectBoundingBox"><stop offset="0" stop-color="#2a7195"/><stop offset="1" stop-color="#060c39"/></linearGradient></defs><g transform="translate(-642.006 -139.085)"><g transform="translate(642.006 139.085)"><path class="a" d="M663.507,332.334c-5.738-34.408-9.564-70.183-1.961-103.751,12.049-53.2,56.591-75.182,106.725-83.346,54.241-8.832,111.952-10.458,164.718,10.806,36.13,14.56,68.25,39.278,95.521,68.057,46.666,49.249,81.124,116.188,73.126,181.345-2.125,17.314-7.156,33.944-13.006,50.111-13.223,36.539-30.988,71.562-56.382,100.128-21.4,24.075-48.158,42.837-78.933,53.063-12.483,4.147-22.938,11.126-36.021,13.69a152.64,152.64,0,0,1-48.744,1.806C738.58,607.54,677.316,415.136,663.507,332.334Z" transform="translate(-647.552 -139.085)"/><g transform="translate(89.29 46.26)"><ellipse class="b" cx="117.496" cy="16.201" rx="117.496" ry="16.201" transform="translate(0 454.027)"/><path class="c" d="M1029.377,924.988c4.433-.17,9.193-.741,11.381-3.254a7.217,7.217,0,0,0,1.606-3.383c1.011-4.29,1.438-8.344-3.45-10.356-3.256-1.34-7.661-4.088-11.185-2.377-3.382,1.643-5.907,4.163-9.825,5.4-7.469,2.368-16,3.159-22.042,8.647a5.326,5.326,0,0,0-2.087,3.639c-.029,3.217,4.829,2.381,6.88,2.427q10.959.246,21.908-.554C1024.349,925.05,1026.808,925.086,1029.377,924.988Z" transform="translate(-858.864 -463.126)"/><path class="c" d="M1081.124,931.228a57.469,57.469,0,0,0,5.736-1.964,8.381,8.381,0,0,0,4.566-3.726,7.4,7.4,0,0,0,.79-3.687c.006-4.395-.456-8.506-5.671-9.343a38.979,38.979,0,0,0-13.107.271c-4.553.96-7.311,5.043-10.791,7.736a79.71,79.71,0,0,1-14.337,8.284c-1.42.686-2.979,1.517-3.466,3.017a3.829,3.829,0,0,0,1.706,4.129,8.341,8.341,0,0,0,4.584,1.152,42.813,42.813,0,0,0,10.065-1.449C1067.825,934.15,1074.613,933.079,1081.124,931.228Z" transform="translate(-877.333 -465.667)"/><path class="d" d="M814.372,354.423a7.393,7.393,0,0,1,3.126,2.389c.929,1.023,2.182,2.164,2.31,3.632a1.342,1.342,0,0,1-.259,1.007,1.658,1.658,0,0,1-1.258.451,4.8,4.8,0,0,1-2.589-.879,7.5,7.5,0,0,1-1.851-1.744c-.463-.635-1.033-1.126-1.516-1.752a2.747,2.747,0,0,1-.628-1.663,1.671,1.671,0,0,1,.863-1.488,2.219,2.219,0,0,1,1.544-.029C814.2,354.369,814.288,354.4,814.372,354.423Z" transform="translate(-792.838 -263.363)"/><path class="e" d="M1092.2,754.852a58.567,58.567,0,0,1-.52,6.006c-.776,4.43-.47,9.056-3.441,12.852-8.281,10.581-21.193,9.862-32.607,4.6a3.815,3.815,0,0,1-1.746-1.446,5.618,5.618,0,0,1-.41-3.908,215.035,215.035,0,0,0,1.068-50.931c-.488-4.657-1.876-8.7-2.122-13.3-.334-6.249-.282-12.524-.66-18.768q-1.092-18.056-3.267-36.014c-2.853-23.55-7-46.834-10.534-70.292-2.029-13.453-3.942-26.981-3.269-40.65.142-2.891.537-5.815,2.305-8.184a12.791,12.791,0,0,1,5.73-4.055c9.414-3.773,18.288-4.732,28.569-6.458,6.252-1.05,14.562-6.3,21.151-2.065,4.956,3.183,5.238,11.776,6.564,17.506,2.691,11.631.671,23.636-2.186,34.951s-2.944,21.972-3.233,33.357c-.658,25.961-.537,52.047-1.074,77.956C1092.04,709.032,1093.82,731.9,1092.2,754.852Z" transform="translate(-873.651 -323.702)"/><path class="e" d="M1056.861,746.912c-.207,4.444-.323,8.9-.542,13.3-.229,4.619-.365,9.6-4.04,12.784s-8.287,2.621-12.752,1.675c-3.853-.816-7.526-2.676-9.077-6.433a10.492,10.492,0,0,1-.276-5.026c2.793-32.89,4.191-65.926,3-98.909-1.146-31.774-5.351-63.213-5.351-95.039,0-6.172.785-12.546.486-18.767-.19-3.956-1.724-7.32-1.864-11.419-.262-7.627,1.227-16.364,9.867-18.511,7.242-1.8,15.7-5.756,22.868-1.683,10.319,5.863,7.09,18.984,6.16,29.109-1.912,20.784-5.362,41.292-8.1,61.94-1.11,8.364-2.954,16.485-2.577,24.984.4,9,2.723,17.747,3.748,26.715,1.4,12.283,1.2,24.62.692,36.972C1058.44,714.711,1057.609,730.829,1056.861,746.912Z" transform="translate(-870.701 -322.432)"/><path class="f" d="M1034.392,565.441c4.009,14.6,3.437,25.958,5.624,41.447,1.917,13.571,2.13,30.144,3.44,44.877,1.159,13.039,2.41,27.051,5,40.152,5.677,28.675,13.159,56.828,12.383,86.322" transform="translate(-873.593 -339.96)"/><g transform="translate(13.61 78.971)"><g transform="translate(0 18.247)"><path class="g" d="M924.636,400.347a92.435,92.435,0,0,1-14.231,1.367c-16.9,4.974-42.711.869-57.185-4.235s-10.014-2.1-14.393-11.693c-3.814-8.358,4.158-2.511,7.81-3.707,14.676,7.194,36.816,5.351,50.64,2.83s18.711-2.512,30.373-4.439c5-.827,8.286-2.4,12.729-4.026,4.846-1.77,7.563-.335,10.43,3.643,2.456,3.407,3.671,7.433.073,10.564-4.364,3.8-10.258,5.678-15.712,7.488A58.682,58.682,0,0,1,924.636,400.347Z" transform="translate(-815.916 -368.368)"/><path class="g" d="M840.423,395.175c-2.794-.011-5.541.644-8.325-.026-5.089-1.225-9.161-2.772-11.549-7.773-1.41-2.954-.525-5.892,1.808-8.1.938-.888,2.416-.72,3.45-1.545.63-.5,1.1-1.372,2.033-1.476a7.665,7.665,0,0,1,4.8.985,24.394,24.394,0,0,1,4.783,3.729" transform="translate(-809.408 -368.55)"/><path class="g" d="M844.074,381.058c-1.875-1.978-3.867-4.106-5.62-6.2a29.862,29.862,0,0,0-5.235-4.394c-3.2-1.989-5.186-3.6-7.9-5.526-1.36-.966-2.433-1.224-2.788.7-.2,1.11.989,2.414,1.785,3.3,1.186,1.315,2.587,2.7,3.863,3.954" transform="translate(-810.364 -364.199)"/><path class="g" d="M803.455,385.867a73.986,73.986,0,0,0,16,10.244l-1.466-3.263c-4.7-2.711-9.169-5.748-13.626-8.834C804.044,384.625,803.739,385.24,803.455,385.867Z" transform="translate(-803.455 -371.385)"/><path class="g" d="M804.546,383.22a94.621,94.621,0,0,0,14.813,9.249l-1.264-4.482c-4.042-2.235-8.328-4.713-12.195-7.279C805.431,381.539,804.974,382.373,804.546,383.22Z" transform="translate(-803.851 -370.186)"/><path class="g" d="M820.554,382.275c-3.964-2.038-8.091-4.228-11.92-6.648-.593.878-1.156,1.7-1.559,2.4-.2.348-.394.7-.589,1.046.6.4,1.214.8,1.878,1.213,4.062,2.529,8.574,4.816,12.887,7Z" transform="translate(-804.554 -368.343)"/><path class="g" d="M812.573,372.129c-.365-.239-.707-.482-1.043-.729-.532.952-1.154,1.887-1.745,2.761a134.146,134.146,0,0,0,11.642,7.386l1.7-3.6A97.054,97.054,0,0,1,812.573,372.129Z" transform="translate(-805.75 -366.81)"/></g><path class="h" d="M1008.485,380.732c3.3-4.817,6.758-9.17,9.2-14.574a34.808,34.808,0,0,0,3.394-16.97c-.243-3.716-1.814-7.3-2.911-10.855a3.888,3.888,0,0,0-1.152-2.036,3.932,3.932,0,0,0-4.311-.167c-5.63,2.7-10.261,6.779-15.224,10.334-7.275,5.212-14.792,7.775-23.4,9.76a4.824,4.824,0,0,0-2.779,1.249,2.99,2.99,0,0,0-.65,1.438,113.836,113.836,0,0,0-2.943,31.68c15.973.514,31.6,6.879,42.846-9.261,6.142-8.816,12.076-27.07,3.35-36.675-5.352-5.892-12.7,1.405-17.906,4a108.042,108.042,0,0,1-13.413,5.53c-.263.09-.507.151-.769.238" transform="translate(-862.971 -335.569)"/></g><path class="h" d="M1060.518,477.476c-18.2,1.311-41.833,3.985-42.18-20.021-.207-14.353,2.985-28.141-.149-42.016-2.587-11.452-8.219-21.156-9.222-32.821-.534-6.216,1.381-12,3.062-18.03.818-2.939,2.974-5.214,4.205-8.266s2.164-6.353,3.9-9.551c3.612-6.658,8.613-13.374,15.7-16.52,2.592-1.151,5.818.86,7.973-.228,2.968-1.5,1.823-4.829,5.367-5.381a6.467,6.467,0,0,1,4.153,1.122,23.05,23.05,0,0,1,6.938,6.323c7.887,11.074,13.214,22.174,13.9,35.856.723,14.4-2.353,27.877-1.291,42.373,1.237,16.884,11.954,31.732,13.595,48.679C1088.172,476.558,1073.541,476.538,1060.518,477.476Z" transform="translate(-864.34 -252.619)"/><path class="i" d="M1054.9,281.3c-10.474,5.322-21.734,10.935-31.375.823-6.82-7.155-11.247-15.156-14.541-24.3-2.767-7.681-3.259-16.258-3.741-24.486-.43-7.341,6.461-13.292,12.237-16.413,4.955-2.678,10.121-1.56,15.034-3.528,4.669-1.87,8.105-2.534,12.871-.39a28.863,28.863,0,0,1,9.854,7.531c10.144,11.868,13.548,26.5,12.514,41.923C1067.163,271.307,1063.161,277.1,1054.9,281.3Z" transform="translate(-863.017 -211.666)"/><path class="g" d="M1055.817,333.108c-.2.16-.376.27-.618.43-3.955,2.618-11.622,6.113-10.321-1.935.52-3.217,2.643-5.987,2.556-9.36-.094-3.664-1.012-7.893-.9-11.355.18-5.833,2.867-5.52,7.744-4.889a5.855,5.855,0,0,1,3.474,1.314,10.21,10.21,0,0,1,2.923,5.019c1.315,4.517,4.083,9.224,2.226,14.133C1061.739,329.525,1058.277,331.161,1055.817,333.108Z" transform="translate(-877.342 -245.757)"/><path class="g" d="M1028.844,221.329a20.679,20.679,0,0,1,14.025,9.218c3.948,6.339,3.27,13.647,4.148,21.119a34.4,34.4,0,0,1-7.705,26.047,16.748,16.748,0,0,1-4.985,3.947c-2.757,1.571-5.628,3.616-8.911,3.059-9.8-1.665-13.805-11.031-17-19.277a59.679,59.679,0,0,1-4.237-25.366c.381-6.934,2.071-11.7,7.96-15.513A23.13,23.13,0,0,1,1028.844,221.329Z" transform="translate(-862.603 -215.023)"/><path class="j" d="M1003.576,245.025a17.992,17.992,0,0,1-4.331.758,3.624,3.624,0,0,1-1.705-.186,3.306,3.306,0,0,1-1.456-1.12,10.574,10.574,0,0,1-1.694-9.084,25.386,25.386,0,0,1,7.886-13.173c6.4-5.483,13.038-9.119,21.606-8.2a4.621,4.621,0,0,1,3.4,1.822,3.31,3.31,0,0,1,.149,3.095,9.689,9.689,0,0,1-1.769,2.683,87.448,87.448,0,0,0-6.161,7.565c-2.368,3.631-3.975,7.316-7.078,10.46A22.466,22.466,0,0,1,1003.576,245.025Z" transform="translate(-858.948 -212.467)"/><path class="j" d="M1069.268,241.591c-2.664-5.564-5.293-10.5-10.18-14.8-14.221-12.5-47.7-22.24-51.452,5.251-1.022,7.488,6.451,14,12.412,17.4,3.7,2.107,7.361,1.9,11.258,2.3,2.634.273,4.5-.515,6.148,2.424,7.274,12.959-7.406,21.255,9.556,30.258,4.985,2.646,10.911,1.306,16.077-.3a17.975,17.975,0,0,0,8.688-5.182c4.806-5.7,5.2-12.878,3.386-20.038A92.057,92.057,0,0,0,1069.268,241.591Z" transform="translate(-863.856 -212.647)"/><path class="k" d="M1050.216,272.262a4.522,4.522,0,0,1,1.45-2.721c2.191-1.631,4.634-.833,6.072,1.415a7.027,7.027,0,0,1,.333,6.175,3.1,3.1,0,0,1-1.355,1.768,1.49,1.49,0,0,1-1.961-.391" transform="translate(-879.331 -232.341)"/><path class="l" d="M929.732,407.728" transform="translate(-835.639 -282.766)"/><g transform="translate(150.49 98.724)"><g transform="translate(0 7.163)"><path class="g" d="M1072.379,434.285c-.677,4.472-1.321,8.742-2.535,13.695-.942,16.4-9.657,39.958-15.489,52.967s-2.623,8.909-11.166,11.841c-7.442,2.555-2.313-4.918-3.386-7.993,6.252-14.3,9.041-36.2,10.233-49.812s2.757-18.59,3.917-29.248c.806-7.406.253-11.014-1.129-17.428-.955-4.434-2.961-7.414-4.494-11.444-.682-1.794-1.387-3.41-2.135-5.145-2-4.632-3.432-8.083.62-11.968a6.285,6.285,0,0,1,4.523-1.929c5.522.6,8.4,4.1,10.7,8.875,2.749,5.693,5.127,11.5,7.609,17.285a49.816,49.816,0,0,1,3.769,19.83A63.866,63.866,0,0,1,1072.379,434.285Z" transform="translate(-1025.779 -377.801)"/><g transform="translate(0 124.272)"><path class="g" d="M1049.185,578.089c.1,2.628.781,5.085.182,7.737-1.094,4.848-2.425,8.813-7.41,10.817a6.907,6.907,0,0,1-8.066-2c-.84-.974-.643-2.417-1.505-3.432-.525-.618-1.381-1.089-1.528-2.01a7.093,7.093,0,0,1,.935-4.727,20.84,20.84,0,0,1,3.626-4.6" transform="translate(-1022.767 -574.706)"/><path class="g" d="M1035.273,572.781c-1.993,1.658-3.979,3.4-6.021,5.052a28.166,28.166,0,0,0-4.385,5.227,83.54,83.54,0,0,1-5.453,7.674c-.983,1.31-1.438,2.49.568,2.81,1.157.185,2.537-1.007,3.457-1.807,1.37-1.192,2.73-2.58,4.022-3.868" transform="translate(-1018.348 -572.781)"/><path class="g" d="M1049.778,600.079a55.8,55.8,0,0,1-11.191,16.116,1.188,1.188,0,0,1-1.242.219c-.424-.11.171.128-.159-.072a.753.753,0,0,1-.311-1.061,119.643,119.643,0,0,0,9.748-13.877" transform="translate(-1024.939 -582.68)"/><path class="g" d="M1045.309,600.709a67.237,67.237,0,0,1-12.357,17.417,1.027,1.027,0,0,1-1.291.235c-.412-.235.25.672-.242-.222s-.782-1.1.208-2.317a95.231,95.231,0,0,0,9.334-14.077" transform="translate(-1022.841 -582.909)"/><path class="g" d="M1039.161,598.644a91.542,91.542,0,0,1-7.182,12.516,57.68,57.68,0,0,1-4.206,5.325c-1.156,1.294-1.906,2.655-3.938,1.663-.766-.373-1.219-1.334-.2-2.51a79.6,79.6,0,0,0,10.644-16.519" transform="translate(-1019.968 -582.16)"/><path class="g" d="M1029.766,597.15a61.476,61.476,0,0,1-6.038,10.46,44,44,0,0,1-3.911,4.458c-.913.947-2.208,1.979-1.277,3.453a1.6,1.6,0,0,0,2.219.323,72.536,72.536,0,0,0,12.552-16.905" transform="translate(-1018.217 -581.618)"/></g></g><g transform="translate(16.18)"><path class="h" d="M1049.563,420.023a5.1,5.1,0,0,0,.4,2.385,4.325,4.325,0,0,0,2.108,1.74,133.879,133.879,0,0,0,19.4,6.985,11.6,11.6,0,0,0,2.727.127c.584-.648,1.306-.9,1.754-1.715a34.752,34.752,0,0,0,4.382-14.5,117.218,117.218,0,0,0-.748-22.982c-.552-4.639-1.313-10-3.586-14.03-4.4-7.794-11.808-13.493-20.617-10.8s-12.88,10-11.523,18.667C1045.661,397.414,1049.513,408.264,1049.563,420.023Z" transform="translate(-1043.604 -366.561)"/><path class="m" d="M1049.105,423.456a14.742,14.742,0,0,0,.667-5.667,101.918,101.918,0,0,0-1.509-14.016c-1.007-4.97-3.085-9.509-3.354-14.741-.127-2.467.5-4.245,1.336-7.045.593-1.984,1.792-5.9,3.118-7.88" transform="translate(-1044.071 -369.297)"/><path class="m" d="M1082.079,440.991c2.316,1.315,4.515,1.159,7.045.1a82.849,82.849,0,0,0,4.28-12.112c2.165-12.525,1.7-21.374-1.6-32.859" transform="translate(-1057.557 -377.279)"/></g></g><path class="m" d="M808.054,237.815v-.172" transform="translate(-791.513 -221.086)"/><path class="m" d="M1018.347,366.256c-6.147,12.81-12.424,29.418-6.746,43.266" transform="translate(-864.522 -267.727)"/></g><g transform="translate(83.117 48.992)"><path class="c" d="M809.138,927.667a11.778,11.778,0,0,0-.057,3.5c.19,1.259-.2,2.814,1.209,3.908,5.644,4.384,15.906,1.213,22.113.131,3.167-.553,5.005-1,5.895-3.672.557-1.672-.82-2.788-1.356-4.238-2.143-5.811-.95-12.012-2.511-17.966a5.044,5.044,0,0,0-2.068-2.9,5.345,5.345,0,0,0-2.558-.7c-6.63-.39-10.34.753-14.245,6.291A34.532,34.532,0,0,0,809.138,927.667Z" transform="translate(-785.672 -466.072)"/><path class="c" d="M937.541,926.76a11.234,11.234,0,0,1,2.321,2.819,3.363,3.363,0,0,1-.084,3.493,4.334,4.334,0,0,1-2.47,1.521c-8.121,2.461-15.682,3.365-22.819-1.906a12.871,12.871,0,0,1-3.029-3.54c-2-3.029-3.941-5.732-4.576-9.527-.947-5.665.784-11.707,7.044-13.255,3.008-.743,7.032-.862,9.907.3s2.607,3.082,3.859,5.745A53.251,53.251,0,0,0,937.541,926.76Z" transform="translate(-821.092 -466.121)"/><g transform="translate(22.86 175.723)"><path class="n" d="M834.251,492.36c-12.365-3.291-19.411,5.43-20.131,16.836s-2.21,30.741-2.1,39.536c.329,25.3-3.83,46.994-3.742,70.321.124,32.9,1.752,64.466,2.311,97.069.138,8.019.344,15.548.371,23.594.014,4.186.006,8-.08,12.377-.054,2.736-.688,6.21.284,9.051,3.722,3.187,7.241,5.989,12.258,6.815,6.517,1.075,13.871.959,16.3-6.41,3.25-9.879,2.87-21.5,3.892-31.679,2.361-23.506,3.4-46.847,3.714-70.33.359-27.289.5-54.516,5.86-81.355,1.8-9.013,3.843-17.676,4.846-26.879.836-7.668-.5-15.025-1.791-22.715-.931-5.556-2.511-10.194-2.671-16.326s.78-14.994-6.042-18.4C843.132,491.666,839.359,493.72,834.251,492.36Z" transform="translate(-808.281 -491.658)"/></g><path class="n" d="M895.755,490.574c12.12-.256,18.9,4.436,19.975,17.261,1.192,14.2,4.708,28.513,4.479,42.832-.275,17.247-1.843,34.793-2,51.99-.314,34.4.906,70.194,3.426,103.734,1.208,16.1,1.32,25.88,2.567,41.253.453,5.588.625,12.745-4.518,16.666-4.605,3.511-11.285,2.171-16.353,2.454-5.987.335-9.328-.488-13.765-4.078-2.456-42.429-5.282-84.357-8.047-126.856s-5.593-85.532-5.439-128.26C876.126,494.9,883.926,490.824,895.755,490.574Z" transform="translate(-810.006 -315.539)"/><path class="o" d="M887.819,762.5c2.425,28.121,3.6,56.314,5.4,84.477" transform="translate(-814.265 -414.154)"/><path class="p" d="M893.618,559.56c-2.776,2.27-5.318,3.261-8.921,2.879" transform="translate(-813.133 -340.56)"/><path class="p" d="M882.914,561.6c-1.25,12.864-1.914,25.666-5.011,38.259" transform="translate(-810.669 -341.301)"/><path class="n" d="M860.511,284.05a34.3,34.3,0,0,1-16.65-9.658c-3.789-3.769-5.577-8.8-7.5-13.782-.766-1.986-.351-4.8-1.435-6.713s-3.468-2.4-2.518-4.95c.15-.4.53-.685.744-1.085a9.152,9.152,0,0,0,.686-2.983,2.746,2.746,0,0,1,1.679-2.357,6.032,6.032,0,0,1,2.261-7.619,6.313,6.313,0,0,1,4.813-6.742,5.664,5.664,0,0,1,5.915-4.5c.356-1.62,1.6-2.02,3.077-2.2.658-.08,1.055.485,1.674.326,3.286-.846,5.158-3.484,8.762-3.324a3.614,3.614,0,0,1,5.712-1.709,6.5,6.5,0,0,1,7.263.669,6.115,6.115,0,0,1,7.837,1.43c.314.342.412.69.862.937a3.416,3.416,0,0,0,1.491.17c3.05.186,5.454,1.81,5.713,5.01a4.232,4.232,0,0,1,5.58,5.371c1.953-.983,3.8.3,4.67,2.117s.778,3.909,1.6,5.716c.971,2.138,2.823,3.827,2.8,6.271-.013,1.237-.752,2.263-.344,3.482.25.747.908,1.029,1.3,1.712,1.487,2.595.258,5.182-.3,7.94s.062,5.776-1.073,8.453a37.229,37.229,0,0,1-4.677,7.749,24.435,24.435,0,0,1-11.765,8.179C879.262,285.326,870.27,286.4,860.511,284.05Z" transform="translate(-794.091 -215.952)"/><path class="n" d="M875.645,239.764c-4.229-1.847-8.251-3.792-12.869-3.22-6.265.777-10.893,5.233-17.1,6.541-2.9.611-6.428-.4-9.3,1.06-2.583,1.314-3.311,4.774-4.553,7.2-.991,1.932-1.927,3.681-3.8,4.8-1.525.909-3.231.792-4.832,1.6a6.724,6.724,0,0,0-3.8,6.081c-.022.6.161,1.1-.147,1.66-.516.942-1.481.908-2.4,1.361A6.036,6.036,0,0,0,814,275.538a6.532,6.532,0,0,0-4.274,4.147c-.7,2.328.661,3.693.9,5.807s-1.331,3.611-1.621,5.615a4.376,4.376,0,0,0,2.2,4.832c.594.3,1.163.2,1.721.6.934.674.882,1.7,1.477,2.679,1.859,3.056,5.316,3.305,7.978,1a6.272,6.272,0,0,0,4.713,3.7,6.927,6.927,0,0,0,5.818-2.049c2.238,1.559,4.164,3.191,6.873,3.989a8.556,8.556,0,0,0,7.678-1.26c2.346,1.811,4.344,3.748,7.335,4.487a7.476,7.476,0,0,0,7.861-2.522,28.385,28.385,0,0,0,8.945,4.178c1.883.477,3.961.462,5.25-1.108.677-.825.687-2,1.77-2.338.621-.194,1.069.17,1.616.394a7.863,7.863,0,0,0,5.491.652,5.047,5.047,0,0,0,3.589-4.008,4.523,4.523,0,0,0,4.91-1.168c1.361-1.316,1.859-2.975,2.6-4.679a7.623,7.623,0,0,0,2.437-.955,4.755,4.755,0,0,0,1.768-2.941,13.485,13.485,0,0,0,.173-7.284c-.229-.7-.662-1.064-.9-1.709-.85-2.315-.156-4.459.268-6.794a21.723,21.723,0,0,0-.934-12.522c-1.1-2.675-2.854-4.8-3.88-7.478-.429-1.119-.588-2.232-1.1-3.368a26.032,26.032,0,0,0-7.021-8.719A47.7,47.7,0,0,0,875.645,239.764Z" transform="translate(-785.659 -223.383)"/><g transform="translate(90.367 90.708)"><path class="q" d="M936.663,415.27c.54,4.146,1.086,7.446,2.152,12.325,2.656,14.5,8.18,40.951,10.611,52.413s1.534,9.346-2.489,13.126c-3.5,3.292-5.966-3.223-7.264-5.134-5.392-14.915-13.262-35.84-17.736-49.041s-4.153-17.491-5.467-28.363c-.913-7.555-.824-12.58-1.336-19.531-.354-4.8-.362-8.808-.636-13.448-.122-2.064.164-3.982.007-6-.419-5.377-1.261-9.818,4.365-12.323a9.818,9.818,0,0,1,5.139-.962c5.745.86,7.005,5.475,7.613,10.492.725,5.983.255,11.7,1.462,17.458,1.347,6.42,1.7,12.7,2.393,19.155C935.839,408.793,936.221,411.871,936.663,415.27Z" transform="translate(-914.198 -358.271)"/><g transform="translate(23.821 123.658)"><path class="q" d="M964.259,552.288c1.75,1.72,3.723,3.22,4.91,5.441,2.167,4.061,3.9,8.258.75,12.3-1.863,2.39-4.752,4.272-7.816,3.15-1.231-.451-1.851-1.623-3.212-1.867a5.352,5.352,0,0,1-2.5-.645c-1.412-1.071-1.795-2.432-2.189-4.2a16.672,16.672,0,0,1,.005-5.676" transform="translate(-952.437 -552.288)"/><path class="q" d="M953.548,555.894c-.522,2.382-1.1,4.585-1.655,7.043a27.564,27.564,0,0,0-.179,6.971,32.771,32.771,0,0,1,.2,8.933c-.109,1.583.243,3.148,2.067,2.039,1.052-.639,1.565-2.489,1.869-3.693a48.674,48.674,0,0,0,.874-5.387" transform="translate(-951.573 -553.596)"/><path class="q" d="M980.529,569.7a38.5,38.5,0,0,1,.842,18.717,1.267,1.267,0,0,1-.881.919c-.332.091.2-.045-.118.028s-.924-.2-.914-.652c.124-5.521.381-10.851-.663-16.281" transform="translate(-961.445 -558.602)"/><path class="q" d="M977.293,572.207a45.535,45.535,0,0,1,.719,20.6,1.15,1.15,0,0,1-.924.981c-.436.056.466.08-.2.014s-1.359-.286-1.262-1.829a68.917,68.917,0,0,0-1.146-16.545" transform="translate(-959.882 -559.512)"/><path class="q" d="M971.5,573.567a64.591,64.591,0,0,1,1.94,13.768,55.434,55.434,0,0,1-.12,6.609c-.139,1.66.014,3.405-2.077,3.9-.788.185-1.947-.222-1.757-1.792a51.952,51.952,0,0,0-1.571-19.358" transform="translate(-957.499 -560.005)"/><path class="q" d="M963.11,578.9a45.052,45.052,0,0,1,1.633,11.654,34.884,34.884,0,0,1-.389,5.764c-.189,1.287-1.005,3.23.885,3.692a1.81,1.81,0,0,0,2.068-1.208c1.557-7.229,1.162-13.386-.285-20.538" transform="translate(-955.757 -561.707)"/></g></g><path class="r" d="M935.761,361.037c-1.473-2.912-2.529-5.613-4.182-8.449-1.78-3.055-3.221-6.178-6.279-8.373-3.465-2.486-7.5-2.969-11.753-2.812a3.232,3.232,0,0,0-2.245.87,7.66,7.66,0,0,0-2.209,5.117,115.391,115.391,0,0,0,7.514,46.024c.857,2.307,1.59,5.4,3.791,7.027s5.881,1.6,8.283,1.225c5.674-.892,11.247-2.755,14.812-6.833,4.362-4.989,2.75-8.252.975-13.85-1.49-4.7-3.943-9.581-5.872-14.147C937.737,364.8,936.713,362.919,935.761,361.037Z" transform="translate(-821.942 -261.436)"/><path class="r" d="M887.812,370.825c2.2,4.527,6.307,9.528,5.493,15.54-.717,5.293-4.587,9.838-6.33,15.021-2.91,8.65-.328,16.526,1.92,25.026,2.767,10.464,6.49,19.888,8.874,30.568,4.394,19.681-19.325,22.087-33.413,22.365-19.2.379-37.771-.667-53.989-11.653a3.618,3.618,0,0,1-1.555-1.582c-3.1-6.38,2.453-18.063,4.057-23.373,2.908-9.634,5.774-16.609,7.312-25.575,2.395-13.967-.674-27.24-.887-41.1a86.17,86.17,0,0,1,4.048-26.994c1.216-4.015,3.142-8.289,6.342-11.054,3.787-3.27,8.785-4.107,13.391-4.446,5.935-.437,11.493.426,17.068,1.148a74.783,74.783,0,0,1,8.72,1.618c4.935,1.264,9.219,1.523,11.386,6.561C884.184,352.033,883.232,361.406,887.812,370.825Z" transform="translate(-785.279 -258.56)"/><g transform="translate(0 91.562)"><path class="s" d="M809.433,361.6c-.883.4-1.6.281-2.461,1.236-8.388,9.279-6.794,19.8-8.408,32.422-1.307,10.219-.734,5.223-3.228,22.379-1.737,11.95-9.245,54.233-11.31,67.129s-1.519,13.636,3.668,16.542c4.518,2.531,6.488-7.7,7.787-12.057,4.24-14.226,10.59-35.42,14.753-48.871s6.056-19.486,7.689-31.362c1.061-7.708,1.056-12.834,2.373-20.61,1.2-7.09,7.43-23.132-.192-28.123-2.371-1.553-4.767.031-7.156.226A10.823,10.823,0,0,0,809.433,361.6Z" transform="translate(-776.219 -359.611)"/><g transform="translate(0 127.664)"><path class="s" d="M780.573,559.914c-1.54,2.1-3.323,4.129-4.226,6.615-1.652,4.545-3.082,9.367.482,13.327,1.854,2.06,5.616,4.108,8.087,2.092,2.031-1.657,2.455-4.69,3.839-6.805a60.138,60.138,0,0,0,3.7-6.475" transform="translate(-773.213 -559.914)"/><path class="s" d="M799.14,561.281c.3,2.66,1.025,5.131,1.268,7.886a32.269,32.269,0,0,1-.738,7.563,37.587,37.587,0,0,0-1.54,9.2,7.117,7.117,0,0,1-.219,1.946,1.815,1.815,0,0,1-1.246,1.339,1.5,1.5,0,0,1-1.571-.732,4.311,4.311,0,0,1-.644-1.815,49.989,49.989,0,0,1-.475-8.485" transform="translate(-780.232 -560.41)"/><path class="s" d="M774.078,580.065a46.771,46.771,0,0,0-1,20.292,1.2,1.2,0,0,0,.849.957c.346.095-.211-.031.124.026a.83.83,0,0,0,.9-.751c-.078-5.954-.258-11.764.794-17.638" transform="translate(-772.414 -567.222)"/><path class="s" d="M776.8,582.6a55.054,55.054,0,0,0-.391,22.3,1.086,1.086,0,0,0,.915.995c.454.038-.484.138.2,0s1.316-.432,1.2-2.077a83.624,83.624,0,0,1,.867-17.93" transform="translate(-773.518 -568.14)"/><path class="s" d="M780.645,585.1a78.9,78.9,0,0,0-1.4,15.026,64.476,64.476,0,0,0,.347,7.1c.2,1.727-.015,3.648,2.17,4.016.823.138,1.878-.448,1.636-2.11a62.771,62.771,0,0,1,.853-20.981" transform="translate(-774.891 -569.046)"/><path class="s" d="M790.053,587.839a55.076,55.076,0,0,0-2.413,12.554,42.8,42.8,0,0,0-.031,6.234c.087,1.38.8,3.51-1.126,3.977a1.654,1.654,0,0,1-1.921-1.359c-.989-7.83-.156-14.611,1.728-22.2" transform="translate(-776.668 -569.753)"/></g></g><g transform="translate(11.605 76.636)"><path class="r" d="M807.175,394.774c-5.746-1.614-10.979-2.636-15.516-7.43-3.707-3.916,3.57-14.13,5.514-17.963,3.7-7.3,6.646-14.043,10.626-20.858,1.445-2.474,2.852-5.155,4.879-7.1,5.469-5.236,13.725-7.024,20.049-3.138,6.745,4.144,5.812,9.712,4.567,16.527-1.558,8.526-4.586,16.686-7.2,25.22-1.061,3.464-1.609,8.778-3.8,11.925-1.751,2.517-5.052,2.986-7.76,3.225C814.647,395.528,810.932,395.829,807.175,394.774Z" transform="translate(-790.622 -336.193)"/></g><path class="t" d="M898.665,444.586c-10.685.665-21.363,1.449-32.058,1.934" transform="translate(-806.573 -298.865)"/><g transform="translate(43.614 6.563)"><path class="u" d="M865.97,339.65c1.489,4.837,2.673,10.13,7.071,13.116,5.421,3.681,11.357,3.005,15.993-1.311s6.047-10.291,5.464-16.2c-.64-6.495-5.2-9.523-8.1-15.068-2.774-5.295-3.555-12.2-4.934-18.041-.889-3.765-1.709-7.013-4.407-9.731-2.294-2.31-5.88-3.751-8.846-2.707-5.838,2.055-2.878,6.226-1.841,10.355,1.732,6.9,1.508,12.8.668,19.7-.69,5.669-1.748,11.307-1.441,17.11A11.761,11.761,0,0,0,865.97,339.65Z" transform="translate(-849.493 -249.135)"/><path class="u" d="M859.326,275.677c.729.814,1.339,1.637,2.047,2.491,4.482,5.415,8.365,10.213,15.009,13.267a13.818,13.818,0,0,0,10.695.591c3.531-1.4,5.893-5.386,7.409-8.539,1.742-3.622,3.633-6.767,4.152-10.557,1.05-7.66,1.54-14.532-2-21.724-5.142-10.462-13.995-17.993-26.034-18.019s-18.407,7.634-22.057,18.176c-1.7,4.919-.372,9.59,1.481,14.105S856.212,272.2,859.326,275.677Z" transform="translate(-843.354 -228.766)"/><path class="n" d="M848.651,266.092a10.706,10.706,0,0,0,8.182-3.981c.929-1.127,1.319-2.3,2.585-2.875s2.327-.087,3.635-.087a7.708,7.708,0,0,0,6.486-3.369c.819-1.124,1.039-2.528,2.235-3.245,2.865-1.718,6.14.565,9.084-.815,1.828-.856,2.249-3.173,4.122-4.078s4.355-.028,6.178-1.206c1.381-.893,1.726-2.748,3.167-3.611.99-.592,2.145-.344,3.135-1.119a2.768,2.768,0,0,0,.557-3.467,6.231,6.231,0,0,0-2.877-2.516c-1.844-.881-3.691-.694-5.555-1.617-2.182-1.081-3.206-3-5.714-3.976-14.6-5.7-24.686-6.287-36.35,6.264-3.384,3.641-7.465,11.089-6.546,16.892.751,4.744,1.229,9.127,5.378,12.147A3.871,3.871,0,0,0,848.651,266.092Z" transform="translate(-840.844 -226.249)"/><path class="n" d="M908.973,246.912c.656,1.335.323,2.976.766,4.433a4.283,4.283,0,0,0,2.72,3.24c.595.178,1.183,0,1.679.365,1.469,1.073.611,3.311,2.071,4.368.87.629,1.974-.038,2.862-.391s2.1-.63,2.73.22c.424.575.335,1.474,1.121,1.523.256.016.41-.161.563-.344a7.919,7.919,0,0,0,1.43-8.518c-.647-1.553-1.8-2.551-2.7-3.877a20.9,20.9,0,0,1-2.827-5.843,12.877,12.877,0,0,0-.859-2.47,7.507,7.507,0,0,0-1.312-1.679,47.147,47.147,0,0,0-4.341-4.047c-2.334-1.866-4.919-3.521-7.959-2.885-1.808.379-3.026,1.728-4.143,3-.832.945-1.885,2.064-1.705,3.367C899.8,242.744,906.714,242.313,908.973,246.912Z" transform="translate(-861.949 -227.924)"/><path class="u" d="M860.916,280.469a2.608,2.608,0,0,0-3.019-1.8c-3.2.834-4.873,3.193-4,6.289,1.087,3.862,3.7,5.492,6.834,7.554.956.628,2.14-.123,3.09-.368" transform="translate(-845.493 -245.234)"/></g><path class="r" d="M880.227,348.94c-1.7,4.166-4.449,6.956-6.312,10.859-4.945-7.355-9.6-15.036-14.618-22.237-1.444-2.073-3.672-1.285-5.624-2.355a26.037,26.037,0,0,0-3.461,9.2c-.568,3.728-1.075,7.168-.547,10.7a50.177,50.177,0,0,0,6.69,18.883c1.478,2.5,2.757,4.653,5.552,6.071,6.258,3.178,12.239,2.5,18.69-.289a30.843,30.843,0,0,0,8.766-6.167,27.327,27.327,0,0,0,7.783-13.685c1-5.082-.4-8.578-2.579-12.74s-5.966-6.152-9.267-9.2a5.648,5.648,0,0,0-3.071-1.466c-1.263-.01-1.008-.959-1.345.694C880.179,340.663,881.589,345.6,880.227,348.94Z" transform="translate(-800.348 -259.199)"/><path class="t" d="M926.4,381.4c2.239,5.871,4.583,11.606,6.384,17.657a25.7,25.7,0,0,1,1,11.955c-.283,1.644-1.317,3.021-2.1,4.494-1.482,2.778-3.175,5.518-4.69,8.288" transform="translate(-828.256 -275.952)"/><path class="t" d="M835.168,398.921c-.7,4.4-1.482,8.709-.421,13.093.7,2.878,2.222,5.213,3.677,7.706a28.566,28.566,0,0,0,3.882,5.456,10.565,10.565,0,0,0,5.764,3.122" transform="translate(-794.83 -282.305)"/></g><g transform="translate(0 42.196)"><path class="v" d="M654.34,223.076c4.3-1.336,6.828-6.383,11.281-6.976,5.641,4.75,9.8,13.508,18.407,12.321a3.551,3.551,0,0,0,2.227-1.93,30.174,30.174,0,0,0,1.538-2.841c-2.05-10.481-10.826-18.36-21.344-18.36a21.354,21.354,0,0,0-17.142,8.813c.2,1.467.448,2.927.728,4.372C650.332,220.4,650.778,223.967,654.34,223.076Z" transform="translate(-644.654 -205.289)"/><path class="w" d="M683.607,231.505a3.551,3.551,0,0,1-2.227,1.93c-8.609,1.187-12.766-7.57-18.407-12.321-4.453.593-6.976,5.641-11.281,6.976-3.563.891-4.008-2.672-4.3-4.6-.28-1.446-.526-2.906-.728-4.372a23.8,23.8,0,0,0-4.654,14.239c0,12.732,9.759,23.053,21.8,23.053s21.8-10.321,21.8-23.053a24.479,24.479,0,0,0-.452-4.692A30.16,30.16,0,0,1,683.607,231.505Z" transform="translate(-642.006 -210.304)"/></g><path class="x" d="M804.464,386.274a2.54,2.54,0,0,0,.757.133,1.732,1.732,0,0,0,.648-.1,1.239,1.239,0,0,0,.456-1.9c-1.192-1.843-3.606-6.66-5.432-3.086a2.567,2.567,0,0,0,.819,3.194A8.532,8.532,0,0,0,804.464,386.274Z" transform="translate(-699.526 -226.462)"/><path class="y" d="M809.714,380.643a6.768,6.768,0,0,0,1.115.067c.692-.018.746-.484.571-1.054-.732-2.386-2.821-4.075-4.9-5.462-.534-.358-1.66-1.188-2.333-.8s-.839,1.545-.912,2.226A2.479,2.479,0,0,0,804.378,378,11.356,11.356,0,0,0,809.714,380.643Z" transform="translate(-700.477 -224.02)"/><path class="y" d="M814.82,373.2a3.531,3.531,0,0,0-.383-1,6.81,6.81,0,0,0-1.207-1.38c-1.47-1.4-3-3.17-4.848-4.084-2.12-1.051-3.5,1.488-2.642,3.505.561,1.324,2.087,1.689,3.221,2.38a14.087,14.087,0,0,0,4,2.006c.521.122,1.509.133,1.805-.435A1.539,1.539,0,0,0,814.82,373.2Z" transform="translate(-701.29 -221.551)"/><path class="z" d="M817.227,366.027a2.945,2.945,0,0,0-.335-.867,5.849,5.849,0,0,0-1.071-1.191,19.022,19.022,0,0,0-4.31-3.515c-1.891-.9-3.142,1.319-2.391,3.066.493,1.147,1.857,1.453,2.866,2.046a12.516,12.516,0,0,0,3.569,1.715c.466.1,1.35.1,1.619-.391A1.3,1.3,0,0,0,817.227,366.027Z" transform="translate(-702.529 -219.288)"/></g><g transform="translate(1084.871 547.843)"><path class="aa" d="M1345.61,784.929a18.891,18.891,0,0,1,1.179,4.587c.328,2.293-.786,4.324-.852,6.553a4.757,4.757,0,0,0,6.29,4.783c2.621-.983,5.112-3.6,7.929-2.49,1.769.721,3.67,2.556,5.635.918a19.5,19.5,0,0,0,2.37-2.242,15.382,15.382,0,0,0,.116-1.888,14.5,14.5,0,0,0-14.254-14.731,13.92,13.92,0,0,0-9.129,3.418A3.1,3.1,0,0,1,1345.61,784.929Z" transform="translate(-1339.77 -780.419)"/><path class="ab" d="M1362.876,801.225c-1.965,1.638-3.866-.2-5.635-.918-2.817-1.114-5.307,1.507-7.929,2.49a4.757,4.757,0,0,1-6.29-4.783c.066-2.228,1.179-4.259.852-6.553a18.89,18.89,0,0,0-1.179-4.587,3.1,3.1,0,0,0-.715-1.092,14.9,14.9,0,0,0-5.125,11.313,14.234,14.234,0,0,0,28.392,1.888A19.505,19.505,0,0,1,1362.876,801.225Z" transform="translate(-1336.854 -782.364)"/></g></g></svg>