<svg xmlns="http://www.w3.org/2000/svg" xmlns:xlink="http://www.w3.org/1999/xlink" width="655.212" height="551.459" viewBox="0 0 655.212 551.459"><defs><style>.a,.p{fill:none;}.b{fill:url(#a);}.c{clip-path:url(#b);}.d{fill:url(#c);}.e{opacity:0.3;mix-blend-mode:multiply;isolation:isolate;fill:url(#d);}.f{fill:url(#e);}.g{fill:url(#f);}.h{fill:url(#g);}.i{fill:url(#h);}.j{fill:url(#i);}.k{fill:url(#j);}.l{fill:url(#k);}.m{fill:url(#l);}.n{fill:url(#m);}.o{fill:#f68f78;}.p,.q,.r,.t{stroke:#100052;stroke-miterlimit:10;}.p,.q{stroke-width:1.047px;}.q,.s{fill:#e28b3d;}.r,.t{fill:#100052;}.r{stroke-width:0.366px;}.t{stroke-width:0.356px;}.u{fill:url(#n);}.v{fill:url(#o);}.w{fill:url(#q);}</style><linearGradient id="a" y1="0.5" x2="1" y2="0.5" gradientUnits="objectBoundingBox"><stop offset="0" stop-color="#faebd8"/><stop offset="1" stop-color="#ffb83f"/></linearGradient><clipPath id="b"><path class="a" d="M727.776,116.9c13.5-6.158,27.066-12.185,41.094-17,24.87-8.53,50.92-13.147,77.018-16.344,24.242-2.968,48.881-4.73,73.032-1.089,27.756,4.184,54.563,15.706,75.8,34.065s36.673,43.644,41.941,71.215c6.175,32.318-1.665,66.067-15.917,95.723-10.61,22.077-24.649,42.256-39.411,61.722-12.411,16.366-21.9,33.83-33.465,50.85a528.652,528.652,0,0,1-78.688,91.122c-87.756,81.022-202.433,133.369-321.749,143.012-44.075,3.562-92.333.263-126.011-28.394-69.051-58.758-28.751-173.635,4.2-240.683,25.258-51.387,61.138-97.259,105.638-133.369A403.606,403.606,0,0,1,603.036,181.3c12.1-6.138,25.14-10.528,35.794-18.806,12.678-9.851,25.967-16.767,40.676-23.5l43.023-19.7Q725.152,118.095,727.776,116.9Z" transform="translate(-383.578 -80.422)"/></clipPath><linearGradient id="c" x1="0.614" y1="-0.635" x2="-0.313" y2="-1.295" gradientUnits="objectBoundingBox"><stop offset="0" stop-color="#6599b3"/><stop offset="1" stop-color="#45496b"/></linearGradient><linearGradient id="d" x1="-0.511" y1="-1.636" x2="-0.752" y2="-1.933" gradientUnits="objectBoundingBox"><stop offset="0" stop-color="#311944"/><stop offset="1" stop-color="#893976"/></linearGradient><linearGradient id="e" x1="-0.115" y1="-1.177" x2="-0.48" y2="0.155" gradientUnits="objectBoundingBox"><stop offset="0" stop-color="#4fa5ad"/><stop offset="1" stop-color="#99cbcf"/></linearGradient><linearGradient id="f" x1="0.444" y1="-1.683" x2="-0.385" y2="-2.798" xlink:href="#c"/><linearGradient id="g" x1="-0.119" y1="-2.793" x2="-0.531" y2="-0.516" xlink:href="#e"/><linearGradient id="h" x1="0.397" y1="-2.466" x2="-0.373" y2="-3.97" xlink:href="#c"/><linearGradient id="i" x1="-0.106" y1="-4.237" x2="-0.49" y2="-1.157" xlink:href="#e"/><linearGradient id="j" x1="0.342" y1="-4.421" x2="-0.402" y2="-6.848" xlink:href="#c"/><linearGradient id="k" x1="-0.092" y1="-7.745" x2="-0.446" y2="-2.719" xlink:href="#e"/><linearGradient id="l" x1="0.456" y1="-5.441" x2="-0.382" y2="-9.479" xlink:href="#c"/><linearGradient id="m" x1="-0.087" y1="-11.351" x2="-0.408" y2="-4.428" xlink:href="#e"/><linearGradient id="n" x1="0.538" y1="0.354" x2="0.334" y2="1.011" xlink:href="#a"/><linearGradient id="o" x1="0.487" y1="0.494" x2="0.359" y2="1.008" xlink:href="#a"/><linearGradient id="q" x1="0.487" y1="0.494" x2="0.359" y2="1.008" xlink:href="#a"/></defs><g transform="translate(-383.578 -80.422)"><path class="b" d="M737.067,166.616c54.445-9.981,113.731-11.717,156.569,7.88,55.562,25.418,105.316,83.039,100.088,146.6-2.309,28.083-15.016,54.234-29.411,78.457C877.389,545.818,717.025,645.827,547.431,659.533c-44.075,3.562-92.333.263-126.011-28.394-69.051-58.758-28.751-173.635,4.2-240.683C472.679,294.718,551.3,225.79,652.682,189.282A544.585,544.585,0,0,1,737.067,166.616Z" transform="translate(0 -28.819)"/><g transform="translate(383.578 80.422)"><g class="c"><g transform="translate(109.886 54.495)"><g transform="translate(408.214)"><path class="d" d="M1293.23,289.187l-11.173-122.444-30.592,3.45c-2.562-.686-7.528,2.765-8.757,6.323l-42.573,122.969c-1.319,3.814.5,8.259,3.379,8.292l11.453-.406L1209.12,595.9c-.1,5.14,2.637,8.888,6.112,8.372l27.262,8.639c3.292-.5,34.447-21.81,34.547-26.768l5.861-289.223,6.936.092C1292.467,297.043,1294.281,292.856,1293.23,289.187Z" transform="translate(-1199.696 -166.438)"/><path class="e" d="M1250.672,387.183l-30.287.686-5.847,288.525c-.1,5.14,2.637,8.888,6.112,8.372l27.262,8.639c1.355-.2,7.449-3.948,14.147-8.622Z" transform="translate(-1205.115 -246.936)"/><path class="f" d="M1342.3,299.587,1305.27,169.761c-1.249-4.378-5.261-4.732-6.691-.575l-44.358,128.989c-1.3,3.794.489,8.215,3.342,8.248l7.443.087-6.048,298.454c-.1,5.115,2.611,8.841,6.053,8.323l55.2-8.317c3.232-.487,5.925-4.881,6.025-9.815l5.833-287.86,6.871.08C1341.549,307.406,1343.346,303.236,1342.3,299.587Z" transform="translate(-1219.449 -166.263)"/></g><g transform="translate(327.908 196.619)"><path class="g" d="M1108.046,739.884l-28.474-9.406c-3.618.537-6.477-3.17-6.373-8.283l4.776-235.682c.1-5.113,3.123-9.313,6.732-9.38l61.486-1.151c3.377-.063,31.907,2.661,31.907,2.661L1147.524,711.5C1147.424,716.422,1108.046,739.884,1108.046,739.884Z" transform="translate(-1073.197 -475.98)"/><path class="h" d="M1189.309,731.929l-61.06,9.2c-3.583.54-6.414-3.146-6.311-8.234l4.916-242.595c.1-5.088,3.094-9.269,6.668-9.338l60.9-1.169c3.345-.064,5.967,3.856,5.868,8.756l-4.734,233.595C1195.454,727.044,1192.663,731.423,1189.309,731.929Z" transform="translate(-1090.994 -477.372)"/></g><g transform="translate(229.351 277.778)"><path class="i" d="M955.013,801.15,924.976,791.7c-3.983.592-7.134-3.276-7.026-8.641l4.26-165.126c.109-5.364,3.43-9.9,7.4-10.136l67.605-3.97c3.707-.218,34.643,6.082,34.643,6.082l-32.234,161.4C999.525,776.463,958.771,800.583,955.013,801.15Z" transform="translate(-917.948 -603.822)"/><path class="j" d="M1042.238,793.287l-67.091,10.108c-3.944.594-7.064-3.25-6.956-8.589L971.643,624.4c.109-5.339,3.4-9.858,7.335-10.093l66.968-3.994c3.672-.219,6.555,3.764,6.452,8.895l-3.32,163.787C1048.974,788.125,1045.917,792.732,1042.238,793.287Z" transform="translate(-936.294 -606.189)"/></g><g transform="translate(120.58 368.437)"><path class="k" d="M782.524,867.926l-28.13-8.035c-4.4.654-7.9-3.388-7.781-9.03l1.739-85.813c.114-5.642,3.787-10.571,8.187-11.006l74.723-7.387c4.09-.4,32.246,4.552,32.246,4.552l-26.715,86.677C836.684,843.3,786.677,867.3,782.524,867.926Z" transform="translate(-746.611 -746.631)"/><path class="l" d="M880.3,860.749l-74.062,11.159c-4.361.657-7.817-3.36-7.7-8.975l1.839-90.752c.114-5.614,3.751-10.521,8.107-10.957l73.987-7.4c4.05-.406,7.233,3.633,7.124,9.019l-1.764,87.051C887.72,855.279,884.356,860.138,880.3,860.749Z" transform="translate(-765.571 -749.247)"/></g><path class="m" d="M649.683,823.889l-82.956,9.648c-3.541.412-6.648,3.3-8.146,7.116a13.633,13.633,0,0,0-.95,4.692l-.955,47.155a14.768,14.768,0,0,0,8.586,13.38l29.076,8.3c4.608-.693,62.226-26.458,62.341-32.153l14.152-21.588,14.508-30.873S654.215,823.362,649.683,823.889Z" transform="translate(-556.672 -406.394)"/><path class="n" d="M701.128,906.391l-82.18,12.382c-4.849.73-8.7-3.475-8.577-9.4l1.108-54.7c.12-5.92,4.16-11.185,9.006-11.756l82.125-9.672c4.487-.529,8.018,3.638,7.9,9.305l-1.061,52.35C709.337,900.574,705.617,905.714,701.128,906.391Z" transform="translate(-576.279 -409.808)"/></g><g transform="translate(86.645 201.838)"><g transform="translate(3.719 149.51)"><path class="o" d="M619.039,913.318c16.434.947,31.32-2.99,38.5-19.563a55.659,55.659,0,0,0,3.151-11.662c1.375-7.1,1.456-13.951,2.179-21.148.874-8.7,1.345-17.41,2.222-26.109,1.763-17.5,5.858-34.844,8.784-52.261,1.932-11.493,4.095-22.941,6.377-34.369,1.932-9.672-1.512-18.544-6.426-27.049-2.617-4.529-7.045-8.363-10.278-12.393-10.18-12.687-20.461-25.277-30.982-37.618-11.314-13.273-23.4-27.492-38.92-34.506-20.518-9.27-56.766,5.78-64.842,29.429-4.72,13.822-2.622,29.3-.917,44.056,2.366,20.484,3.529,41.088,4.406,61.684.847,19.9,3.44,40.341-.91,59.785-1.588,7.1-3.845,14.251-3.115,21.556a41.322,41.322,0,0,0,1.993,8.648c6.3,19.322,15.044,32.049,32.274,40.157a152.326,152.326,0,0,0,23.671,9.07C597.395,914.148,607.9,912.677,619.039,913.318Z" transform="translate(-525.922 -633.87)"/><path class="p" d="M745.458,841.573c-.071-.637-1.066-.145-1.354.428a313.736,313.736,0,0,0-21.93,56.969" transform="translate(-597.586 -709.606)"/></g><g transform="translate(127.014 48.503)"><path class="q" d="M798.327,698.192c-13-11.3-27.712-30.331-44.41-35.582-16.368-5.147-32.718,1.431-33.732,20.012-.378,6.93,1.491,13.833,4.345,20.16,11.671,25.87,37.823,45.329,65.4,51.036,7.961,1.647,16.421,2.2,24.075-.542,6.859-2.455,16.195-8.83,19.7-15.457,3.561-6.729,5.368-17.061,5.94-24.62,1.821-24.068.407-48.208-.581-72.279-.5-12.207-.9-24.425-.725-36.643.069-4.637-.548-8.752.3-13.319.823-4.443,2.369-9.446.217-13.768-2-4.011-6.935-7.369-11.076-8.708-14.7-4.756-18.9,12-19.263,22.789-1.1,32.306-6.358,68.5-18.377,98.642-.252.634-4.074-2.1-3.511-2.479s1.3.105,1.8.569C793.927,693.1,792.826,693.089,798.327,698.192Z" transform="translate(-720.137 -508.681)"/><path class="q" d="M888.949,579.169c6.013-4.381,9.987-11.3,12.191-18.221,2.226-6.989,8.843-15.963,3.4-23.032-2.847-3.7-5.894-7.7-10.025-9.811-2.383-1.219-3.639-.387-6.122-.345-2.407.04-4.778-.59-7.192-.253-9.05,1.264-10.856,8.643-13.389,15.878-3.036,8.674-6.6,17.886-7.518,27.029" transform="translate(-771.317 -493.987)"/><g transform="translate(96.136)"><path class="q" d="M871.571,525.2c1.583-5.352,3.537-9.6,5.528-15.211a162.594,162.594,0,0,1,7.416-18.181c2.018-4.171,8.6-19.028,15.9-16.826,1.337.4,1.166,1.721,1.126,2.76a7.128,7.128,0,0,1-1.142,3,103.262,103.262,0,0,0-7.313,15,74.675,74.675,0,0,0-3.214,13.861" transform="translate(-871.571 -474.762)"/></g><path class="q" d="M897.338,528.554c1.705-2.438,3.408-7.2,6.378-8.263,1.278-.458,8.987,2.177,7.955,3.636a51.906,51.906,0,0,0-5.213,9.027,2.358,2.358,0,0,1,.2-.809" transform="translate(-784.844 -491.368)"/><path class="q" d="M909.6,537.076a12.866,12.866,0,0,1,6.419-9.293,2.385,2.385,0,0,1,1.265-.389,2.621,2.621,0,0,1,1.152.465c1.864,1.126,3.987,2.758,3.691,4.915a5.416,5.416,0,0,1-.674,1.756q-1.5,2.835-3.261,5.523a1.368,1.368,0,0,1-.651.623c-.291.094-.686-.117-.646-.42" transform="translate(-789.321 -493.981)"/><path class="q" d="M918.507,542.791a25.03,25.03,0,0,1,5.183-6.283,2.036,2.036,0,0,1,1.5-.677,2.106,2.106,0,0,1,1.093.67,12.14,12.14,0,0,1,3.391,4.388c1.35,3.716-.987,6.778-2.491,9.968" transform="translate(-792.575 -497.059)"/></g><path class="o" d="M751.516,700.826c-4.31,4.668-9.53,8.385-14.708,12.068-14.928,10.614-30.365,21.462-48.216,25.562-6.091,1.4-12.5,1.969-18.571.48-9.907-2.429-17.884-10.184-22.661-19.2s-6.738-19.233-8.05-29.349c-1.362-10.5-4.106-22.747.289-32.543,4.622-10.3,12.11-18.933,22.869-23.051,18.189-6.963,43.489-4,55.414,12.643C730.206,664.637,733.337,687.893,751.516,700.826Z" transform="translate(-562.839 -483.415)"/><path class="q" d="M614.424,424.9a45.267,45.267,0,0,0-19.381,28.657c-3,14.415,5.667,28.562,8.988,42.592,4.393,17.867,18.54,34.122,35.442,41.08a46.837,46.837,0,0,0,12.538,2.729c6.563.76,13.525,1.235,19.479-1.63,17.776-8.553,17.255-31.137,17.131-47.868a112.641,112.641,0,0,0-11.926-49.677c-6.2-12.291-13.429-20.88-27.646-23.046C637.508,415.975,624.244,418.481,614.424,424.9Z" transform="translate(-547.216 -405.235)"/><path class="r" d="M671.558,437.145a37.508,37.508,0,0,0,8-4.234,8.816,8.816,0,0,0,2.553-2.432,7.587,7.587,0,0,0,.973-3.61c.36-6.517-3.535-12.681-8.657-16.727-8.192-6.47-19.378-10.953-29.691-11.357-16.1-.631-34.854,1.08-45.685,14.1-1.742,2.094-3.494,4.559-3.205,7.268a7.286,7.286,0,0,0,3.792,5.232,21.535,21.535,0,0,0,6.338,2.1c6.526,1.433,13.551,2.25,19.772,4.452,8.387,2.968,15.479,6.952,24.585,7.87A46.434,46.434,0,0,0,671.558,437.145Z" transform="translate(-547.725 -398.475)"/><path class="r" d="M577.47,502.916c3.154-13.907,8.241-27.491,13.252-40.892,4.26-11.395-2.19-18.543,1.145-29.659,2.9-9.667,7.155-22,15.938-27.921,10.9-7.348,27.644-6.894,39.981-4.572,16.447,3.1,26.973,11.219,29.579,28.507,1.077,7.15-.46,15.082-5.691,20.072a8.7,8.7,0,0,0-2.084,2.387,8.577,8.577,0,0,0-.433,3.61c-.061,6.36-3.659,13.693-5.021,20.025-1.922,8.935-15.782,11.143-9.316,21.7,4.793,7.826,13.349,10.526,17.259,19.731a33.645,33.645,0,0,1-1.778,29.887,21.52,21.52,0,0,1-7.6,7.882c-4.142,2.343-9.331,1.979-13.8,3.661-6.444,2.423-12.064,6.672-18.78,8.438-18.373,4.83-41.274,1.378-50.82-15.048-4.284-7.371-5.2-16.232-4.936-24.753A121.293,121.293,0,0,1,577.47,502.916Z" transform="translate(-539.875 -398.36)"/><path class="s" d="M700.579,522.989a8.893,8.893,0,0,0-5.713-2.487c-5.338-.4-8.793,4.843-8.268,9.931.44,4.271,3.426,8.016,7.186,10.09a6.777,6.777,0,0,0,4.385,1.031,3.155,3.155,0,0,0,2.7-3.174" transform="translate(-580.856 -442.954)"/><path class="t" d="M549.8,409.838c-13.529,10.889-21.449,28.272-24.258,46-3.543,22.348-5.5,53.605,4.146,74.557a95.191,95.191,0,0,0,26.175,34.084,66.923,66.923,0,0,0,17.995,10.46c17.984,6.809,58.115,4.017,59.794-22.852.719-11.509-3.87-22.663-9.623-32.437-7.852-13.337-15.947-23.409-19.234-38.883-3.194-15.038-3.974-30.763-.783-45.9,1.7-8.04,6.023-20.543,2.368-28.482-2.611-5.672-4.551-3.827-9.15-2.559-6.443,1.776-12.553.821-19.006-1.012C568.347,400,557.886,403.332,549.8,409.838Z" transform="translate(-521.003 -399.619)"/><path class="r" d="M530.828,563.549c2.413,2.489,5.267,4.741,8.647,5.508s7.358-.293,9.2-3.23c1.573-2.512,1.306-5.711,1.034-8.662a268.241,268.241,0,0,1,5.651-84.5c1.894-8.249.988-30.529-12.395-20.713-16.24,11.911-18.521,37.856-21.134,56.26C519.358,525.623,517.448,549.746,530.828,563.549Z" transform="translate(-520.063 -417.034)"/><path class="p" d="M715.185,780.064l-7.881,3.149a5.131,5.131,0,0,1-3.217.528A5.02,5.02,0,0,1,701.9,782.1a134.507,134.507,0,0,1-21.819-32.356" transform="translate(-578.496 -526.674)"/></g></g></g><g transform="translate(864.2 457.268)"><path class="u" d="M1164.292,686.163a50.827,50.827,0,0,1,3.172,12.333c.881,6.167-2.115,11.629-2.291,17.619-.352,8.985,8.281,16.033,16.915,12.862,7.047-2.643,13.742-9.69,21.319-6.695,4.757,1.938,9.867,6.872,15.152,2.466a52.32,52.32,0,0,0,6.37-6.027,41.317,41.317,0,0,0,.313-5.077c0-21.875-17.159-39.609-38.326-39.609a37.434,37.434,0,0,0-24.545,9.19A8.337,8.337,0,0,1,1164.292,686.163Z" transform="translate(-1148.588 -674.035)"/><path class="v" d="M1210.631,730.035c-5.286,4.405-10.4-.528-15.152-2.466-7.577-3-14.272,4.052-21.319,6.7-8.634,3.172-17.267-3.876-16.915-12.862.176-5.99,3.172-11.452,2.29-17.619a50.822,50.822,0,0,0-3.172-12.333,8.336,8.336,0,0,0-1.922-2.939,40.059,40.059,0,0,0-13.782,30.419c0,21.876,17.16,39.609,38.327,39.609,19.5,0,35.6-15.054,38.014-34.532A52.329,52.329,0,0,1,1210.631,730.035Z" transform="translate(-1140.661 -679.321)"/></g><g transform="translate(431.763 208.769)"><path class="u" d="M474.887,290.5a33.133,33.133,0,0,1,2.068,8.041c.574,4.021-1.379,7.582-1.494,11.488-.23,5.86,5.4,10.454,11.028,8.387,4.6-1.724,8.961-6.318,13.9-4.366,3.1,1.264,6.433,4.481,9.88,1.609a34.109,34.109,0,0,0,4.154-3.93,26.99,26.99,0,0,0,.2-3.311c0-14.263-11.188-25.826-24.99-25.826a24.409,24.409,0,0,0-16,5.992A5.428,5.428,0,0,1,474.887,290.5Z" transform="translate(-464.649 -282.596)"/><path class="w" d="M505.1,319.11c-3.446,2.872-6.778-.345-9.88-1.609-4.94-1.953-9.305,2.642-13.9,4.366-5.629,2.068-11.258-2.527-11.028-8.387.115-3.906,2.068-7.467,1.494-11.488a33.132,33.132,0,0,0-2.068-8.041,5.429,5.429,0,0,0-1.253-1.916,26.122,26.122,0,0,0-8.985,19.834c0,14.263,11.188,25.826,24.99,25.826,12.716,0,23.214-9.816,24.786-22.516A34.116,34.116,0,0,1,505.1,319.11Z" transform="translate(-459.48 -286.043)"/></g></g></svg>