<svg xmlns="http://www.w3.org/2000/svg" xmlns:xlink="http://www.w3.org/1999/xlink" width="508.919" height="514.252" viewBox="0 0 508.919 514.252"><defs><style>.a,.ai,.j,.s,.z{fill:none;}.b{fill:url(#a);}.c{fill:url(#b);}.d{fill:url(#c);}.e{fill:url(#d);}.f{fill:url(#e);}.g{fill:url(#f);}.h{fill:url(#g);}.i{fill:url(#h);}.aa,.ab,.ac,.ad,.ae,.af,.ag,.ah,.ai,.j,.l,.m,.o,.p,.q,.t,.u,.v,.w,.x,.y,.z{stroke:#100052;}.aa,.ab,.ac,.ad,.ae,.af,.ah,.ai,.j,.l,.m,.o,.p,.q,.s,.t,.u,.v,.w,.x,.z{stroke-miterlimit:10;}.j{stroke-width:0.689px;}.k{clip-path:url(#i);}.aa,.ab,.ad,.af,.l,.m,.o,.q{fill:#100052;}.l{stroke-width:1.863px;}.m{stroke-width:1.725px;}.n{fill:#f68f78;}.o{stroke-width:0.242px;}.ac,.ae,.ah,.p,.r,.t,.u,.v,.w,.x{fill:#e28b3d;}.p{stroke-width:0.721px;}.q{stroke-width:0.252px;}.s{stroke:#707070;}.t{stroke-width:0.342px;}.u{stroke-width:0.353px;}.v{stroke-width:0.313px;}.w{stroke-width:0.324px;}.x{stroke-width:0.33px;}.ag,.y{fill:#a5a5a5;stroke-linecap:round;stroke-linejoin:round;}.y{stroke-width:0.94px;}.z{stroke-width:0.643px;}.aa{stroke-width:1.997px;}.ab{stroke-width:1.849px;}.ac{stroke-width:0.367px;}.ad{stroke-width:0.259px;}.ae{stroke-width:0.773px;}.af{stroke-width:0.27px;}.ag{stroke-width:1.007px;}.ah{stroke-width:0.341px;}.ai{stroke-width:0.575px;}.aj{fill:#cecece;}.ak{fill:url(#l);}.al{fill:url(#n);}</style><linearGradient id="a" x1="0.713" y1="-0.573" x2="0.336" y2="1.476" gradientUnits="objectBoundingBox"><stop offset="0" stop-color="#ff9077"/><stop offset="1" stop-color="#e9645a"/></linearGradient><linearGradient id="b" x1="0.516" y1="0.293" x2="0.373" y2="1.104" xlink:href="#a"/><linearGradient id="c" x1="0.538" y1="0.354" x2="0.334" y2="1.011" gradientUnits="objectBoundingBox"><stop offset="0" stop-color="#faebd8"/><stop offset="1" stop-color="#ffb83f"/></linearGradient><linearGradient id="d" x1="0.487" y1="0.494" x2="0.359" y2="1.008" xlink:href="#c"/><linearGradient id="e" y1="0.5" x2="1" y2="0.5" gradientUnits="objectBoundingBox"><stop offset="0" stop-color="#2a7195"/><stop offset="1" stop-color="#060c39"/></linearGradient><linearGradient id="f" x1="0.409" y1="0.777" x2="0.577" y2="-0.248" xlink:href="#e"/><linearGradient id="g" x1="0.421" y1="0.104" x2="0.577" y2="1.206" gradientUnits="objectBoundingBox"><stop offset="0" stop-color="#4fa5ad"/><stop offset="1" stop-color="#99cbcf"/></linearGradient><linearGradient id="h" x1="-0.339" y1="1.01" x2="0.755" y2="0.385" xlink:href="#g"/><clipPath id="i"><path class="a" d="M812.221,142.273C739.283,162.126,692.1,193.944,652.076,261.95c-28.223,47.952-66.668,112.453-80.6,166.4C527.262,599.573,656.1,680.338,824.064,631.614c134.63-39.054,223.907-157.466,223.861-292.779-.019-56.674-9.956-121.776-56.823-159.219-39.03-31.182-107.361-48.474-178.88-37.344" transform="translate(-562.702 -138.885)"/></clipPath><linearGradient id="l" x1="0.591" y1="0.599" x2="-1.169" y2="1.548" xlink:href="#e"/><linearGradient id="n" x1="0.487" y1="1.099" x2="0.504" y2="-0.199" xlink:href="#e"/></defs><g transform="translate(-561.484 -130.913)"><g transform="translate(561.484 130.913)"><g transform="translate(90.948)"><path class="b" d="M706.93,144.328c3.246-1.008,5.149-4.814,8.508-5.262,4.254,3.582,7.388,10.187,13.881,9.292A2.678,2.678,0,0,0,731,146.9a22.832,22.832,0,0,0,1.16-2.143c-1.546-7.905-8.165-13.848-16.1-13.848a16.1,16.1,0,0,0-12.928,6.647c.152,1.106.338,2.207.549,3.3C703.907,142.313,704.242,145,706.93,144.328Z" transform="translate(-699.624 -130.913)"/><path class="c" d="M729.246,150.224a2.678,2.678,0,0,1-1.68,1.455c-6.493.9-9.628-5.709-13.882-9.292-3.359.448-5.262,4.254-8.508,5.262-2.687.671-3.023-2.015-3.247-3.471-.211-1.09-.4-2.191-.549-3.3a17.953,17.953,0,0,0-3.51,10.739c0,9.6,7.359,17.386,16.438,17.386s16.438-7.784,16.438-17.386a18.424,18.424,0,0,0-.341-3.539A22.845,22.845,0,0,1,729.246,150.224Z" transform="translate(-697.871 -134.234)"/></g><g transform="translate(436.673 429.47)"><path class="d" d="M1231.418,783.056a33.965,33.965,0,0,1,2.118,8.24c.589,4.12-1.412,7.769-1.53,11.772-.235,6,5.533,10.712,11.3,8.594,4.708-1.766,9.182-6.475,14.244-4.474,3.178,1.295,6.592,4.591,10.124,1.648a34.919,34.919,0,0,0,4.256-4.027,27.642,27.642,0,0,0,.209-3.392c0-14.616-11.465-26.463-25.607-26.463a25.012,25.012,0,0,0-16.4,6.139A5.574,5.574,0,0,1,1231.418,783.056Z" transform="translate(-1220.926 -774.953)"/><path class="e" d="M1263.075,811.9c-3.531,2.943-6.946-.353-10.124-1.648-5.062-2-9.535,2.708-14.244,4.474-5.768,2.119-11.536-2.59-11.3-8.594.118-4,2.119-7.652,1.53-11.772a33.965,33.965,0,0,0-2.119-8.24,5.573,5.573,0,0,0-1.284-1.963,26.765,26.765,0,0,0-9.208,20.324c0,14.616,11.465,26.463,25.607,26.463,13.031,0,23.787-10.058,25.4-23.071A34.911,34.911,0,0,1,1263.075,811.9Z" transform="translate(-1216.326 -778.02)"/></g><g transform="translate(378.963 67.619)"><path class="f" d="M1165.968,361.466c14.827,26.165,47.1,18.316,68.031,1.744a103.627,103.627,0,0,0,15.507-15.871l10.234-115.025-129.957,23.549v74.45a27.108,27.108,0,0,1,3.914-2.864C1153.756,316.112,1157.245,347.511,1165.968,361.466Z" transform="translate(-1129.783 -232.315)"/><path class="g" d="M1234,409.532c-20.933,16.572-53.2,24.421-68.031-1.744-8.722-13.955-12.211-45.354-32.271-34.015a27.1,27.1,0,0,0-3.914,2.864V452.2l108.152,71.52,11.571-130.061A103.628,103.628,0,0,1,1234,409.532Z" transform="translate(-1129.783 -278.637)"/></g><path class="h" d="M1040.068,182.9c-39.03-31.181-107.36-48.474-178.88-37.344q-15.044,4.1-28.671,8.933a139.219,139.219,0,0,1,23.995,48.754c6,22.672,14.67,42.678,17.338,65.35,5.335,52.013,4.668,102.693-10.669,153.373-8,26.007-18.671,49.346-31.341,73.352C801.651,551.7,764.65,604.194,712.115,638.669c44.234,14.53,100,13.9,160.914-3.774,134.63-39.054,223.906-157.466,223.861-292.779C1096.871,285.442,1086.935,220.339,1040.068,182.9Z" transform="translate(-611.669 -134.662)"/><path class="i" d="M781.654,501.47c12.67-24.006,23.339-47.345,31.341-73.352,15.337-50.68,16-101.359,10.669-153.373-2.667-22.672-11.336-42.678-17.338-65.35a139.218,139.218,0,0,0-23.995-48.754c-57.1,20.357-96.952,52.09-131.474,110.745-28.224,47.952-66.668,112.453-80.6,166.4-28.18,109.127,13.936,181.5,91.671,207.04C714.465,610.349,751.467,557.858,781.654,501.47Z" transform="translate(-561.484 -140.817)"/><path class="j" d="M827.2,552.161s-22.986,24.312-20.215,60.853" transform="translate(-643.199 -271.257)"/><g transform="translate(0.813 5.316)"><g class="k"><g transform="translate(265.279 62.192)"><path class="l" d="M977.417,1005.416q0,3.471.1,6.943c.154,5.189.548,10.553,3.592,15.087,8.485,12.64,33.387,12.866,48.273,6.883a7.625,7.625,0,0,0,2.693-1.582c1.216-1.276,1.08-2.991.908-4.542a164.975,164.975,0,0,1,4.292-59.2c1.377-5.365,4-9.949,4.9-15.3,1.224-7.271,2.011-14.579,3.226-21.854,2.343-14.026,5.175-28.012,8.175-41.978,5.913-27.521,12.524-54.975,17.549-82.583,2.881-15.833,5.593-31.834,3.864-47.636-.365-3.342-1.025-6.848-3.7-9.41-2.2-2.1-5.484-3.3-8.746-4.278-13.714-4.1-28.186-3.911-42.55-5.245-8.736-.811-23.52-5.748-31.962-1.189-6.349,3.428-7.13,14.462-9.14,20.862-4.08,12.992-.635,27.706,4.311,40.047,4.869,12.149,4.645,24.772,4.9,37.712.575,29.512-1.219,59.078-3.007,88.616C983.5,953.026,977.4,979.112,977.417,1005.416Z" transform="translate(-966.037 -400.556)"/><path class="m" d="M1044.5,958.093l-.857,13.263c-.3,4.641-.283,9.851,4.6,12.967,4.713,3.008,12.291,2.921,18.91,2.007,5.711-.788,12.064-2.513,14.178-6.18a8.98,8.98,0,0,0,.818-5c-1.039-33.113,3.5-66.344,7.909-99.483,4.25-31.925,11.936-63.924,11.232-95.993-.136-6.219-1.452-12.556-1.138-18.77.2-3.952,2.243-7.532,2.568-11.47.6-7.328-2.568-16.98-15.2-17.983-10.583-.84-24.069-4.133-34.5-.088-15.012,5.822-9.712,19.73-8.114,29.672,3.279,20.409,8.681,40.523,12.381,60.862,1.5,8.239,4.161,16.292,2.966,24.77-1.266,8.98-5.106,17.786-7.619,26.666-3.44,12.162-4.243,24.487-5.037,36.759Z" transform="translate(-987.895 -397.811)"/><path class="n" d="M1024.062,684.994c26.433.651,64.446,2.867,61.692-32.632-1.646-21.224-5.75-44.12-3.86-65.384,1.559-17.551,6.96-36.535,4.862-54.167-1.118-9.4-5.313-18.114-9.617-26.54-2.1-4.105-6.029-7.007-8.55-11.2-2.565-4.27-4.837-8.608-7.9-12.569-6.384-8.251-16.47-17.148-27.13-19.022-3.9-.685-9.056,2.435-12,1.68-4.06-1.04-3.262-6.9-8.8-6.539a11.62,11.62,0,0,0-5.958,2.525,33.937,33.937,0,0,0-8.91,10.353c-9.885,16.854-14.334,34.922-11.138,54.343,3.364,20.438,11.99,39.915,13.133,60.739,1.331,24.255-14.072,48.272-16.392,72.565C981.078,684.32,1005.144,684.529,1024.062,684.994Z" transform="translate(-968.114 -307.595)"/><path class="o" d="M998.391,404.361c15.463,4.231,36.335,10.391,47.326-4.8A102.539,102.539,0,0,0,1062.7,363.5c2.564-10.883,1.5-24.531,1.438-35.807-.059-10.06-12.581-19.12-21.334-22.677-7.51-3.052-15.371-.153-22.774-2.621-7.035-2.346-12.141-2.729-19.1,1.329-5.351,3.122-9.642,7.781-13.387,12.716-13.894,18.31-15.478,41.731-11.674,63.431C978.053,392.317,986.2,401.026,998.391,404.361Z" transform="translate(-965.039 -254.968)"/><path class="p" d="M1039.509,468.951q.5.234.965.465c5.055,2.528,20.288,5.151,15.037-5.221-2.1-4.146-5.4-7.388-5.98-12.191-.63-5.218-.189-10.5-.852-15.722-1.118-8.792-5.4-7.148-12.437-5.318a10.355,10.355,0,0,0-4.907,2.432c-1.832,1.786-2.935,4.712-3.392,7.623-.976,6.206-4.469,14.522-.556,20.345C1029.828,465,1035.454,467.052,1039.509,468.951Z" transform="translate(-982.193 -297.903)"/><path class="p" d="M1040.236,311.748a32.76,32.76,0,0,0-19.352,15.88c-5.056,9.38-1.959,20.98-2.548,31.4a45.033,45.033,0,0,0,16.112,35.8,33.923,33.923,0,0,0,8.134,4.478c4.4,1.88,9.127,3.645,13.847,2.885,14.093-2.267,18.389-18.039,21.752-29.67a81.507,81.507,0,0,0,1.971-36.915c-1.764-9.8-5.009-17.252-14.424-21.686A37.225,37.225,0,0,0,1040.236,311.748Z" transform="translate(-979.646 -258.226)"/><path class="q" d="M1085.906,343.634a27.13,27.13,0,0,0,6.536.435,6.391,6.391,0,0,0,2.5-.527,5.49,5.49,0,0,0,1.971-1.854c2.7-3.876,2.643-9.152,1.028-13.589a38.819,38.819,0,0,0-13.965-18.279c-9.672-6.508-21.872-12.584-33.488-8.686-1.868.627-3.884,1.48-4.736,3.257a5.272,5.272,0,0,0,.346,4.663,15.593,15.593,0,0,0,3.1,3.7c3.474,3.362,7.489,6.536,10.482,10.257,4.036,5.015,6.888,10.164,12.146,14.191A33.6,33.6,0,0,0,1085.906,343.634Z" transform="translate(-988.781 -254.724)"/><path class="q" d="M966.728,348.481c2.811-8.591,6.756-16.678,12.546-23.309,16.846-19.295,69.185-40.766,77.752-.432,2.33,10.985-7.533,22.084-15.876,27.468-5.174,3.339-10.33,4.233-16.308,4.782-4.041.371-6.324.593-8.777,4.134-10.818,15.618,16.371,31.679-8.309,44.961-7.253,3.9-15.945,4.4-24.072,3.059-4.969-.823-9.951-2.362-13.913-5.471-8.288-6.5-10.3-18.419-8.791-28.845A158.256,158.256,0,0,1,966.728,348.481Z" transform="translate(-960.519 -255.382)"/><path class="r" d="M1045.409,383.2a7.555,7.555,0,0,0-3.02-4.344c-3.68-2.669-8.513-.423-10.4,3.487a11.549,11.549,0,0,0,.692,10.5,5.752,5.752,0,0,0,2.709,2.7,2.679,2.679,0,0,0,3.37-1.088" transform="translate(-984.009 -280.639)"/><path class="f" d="M1163.968,361.3c14.827,26.165,47.1,18.316,68.031,1.744a103.615,103.615,0,0,0,15.507-15.871l10.234-115.025L1127.783,255.7v74.451a27.185,27.185,0,0,1,3.914-2.864C1151.757,315.946,1155.245,347.345,1163.968,361.3Z" transform="translate(-1016.245 -232.149)"/><path class="g" d="M1232,409.366c-20.933,16.572-53.2,24.421-68.031-1.744-8.722-13.955-12.21-45.354-32.271-34.015a27.187,27.187,0,0,0-3.914,2.864v75.566l108.152,71.52L1247.506,393.5A103.617,103.617,0,0,1,1232,409.366Z" transform="translate(-1016.245 -278.471)"/><line class="s" x2="72.901" y2="37.497" transform="translate(127.892 163.868)"/><path class="t" d="M1120.362,611.526a26.986,26.986,0,0,0,19.644-5.054c14.763-10.405,24.2-29.7,30.1-46.128,2.611-7.269,6.2-13.918,9.164-20.988,2.232-5.333,5.169-8.221.142-12.319-4.288-3.5-10.514-7.606-15.039-3.078-4.738,4.741-8.079,12.423-12.082,17.9a290.087,290.087,0,0,1-27.34,32.2c-1.784,1.814-7.666-.08-9.727-1.377-3.823-2.4-6.36-6.621-9.474-9.8-5.7-5.82-10.943-13.729-17.308-18.717-4.666-3.656-15.115-6.542-20.668-4.434-8.429,3.2-17.6,10.567-16.906,20.7.449,6.51,5.477,12.224,9.87,16.6,12.38,12.322,28.448,21.22,43.865,29.143A48.1,48.1,0,0,0,1120.362,611.526Z" transform="translate(-990.607 -328.704)"/><line class="s" x2="61.546" y2="20.872" transform="translate(132.124 146.241)"/><path class="u" d="M1218.036,510.92c-.008.1.864-1.72.856-1.62a94.907,94.907,0,0,1,4.769-13.974c.958-2.3,1.964-4.586,2.971-6.87.779-1.765,1.783-3.045,2.2-4.89a8.355,8.355,0,0,1,1.7-3.464,5.713,5.713,0,0,1,2.172-1.318,33.078,33.078,0,0,0,3.989-1.821,7.67,7.67,0,0,1,3.29-1.083,7.478,7.478,0,0,1,6.125,2.52c1.968,2.2,2.871,5.41,4.141,8.261a19.919,19.919,0,0,1,1.644,4.278,17.485,17.485,0,0,1,.069,6.661,7.28,7.28,0,0,1-2.505,4.23,51.71,51.71,0,0,0-4.285,5.53q-3.232,4.267-6.391,8.612c-.814,1.121-1.1,2.7-1.859,3.827" transform="translate(-1046.314 -313.344)"/><path class="v" d="M1261.258,510.538c3.006-3.231,5.027-6.839,7.875-10.186,1.226-1.442,4.37-7.178.435-7.945a.832.832,0,0,0-.609.217l-4.184,2.962" transform="translate(-1060.714 -318.855)"/><path class="w" d="M1263.7,486.894a21.377,21.377,0,0,1,5.2-3.716c1.168-.569,2.207-1.148,3.015.306a4.654,4.654,0,0,1,.456,1.778c.373,3.346-1.346,4.042-4.114,5.609-1.308.74-3.556,2.207-3.505,2.221" transform="translate(-1061.526 -315.58)"/><path class="v" d="M1259.639,477.721c2.521-1.513,7.7-9,10.492-4.008a5.132,5.132,0,0,1,.629,3.35c-.117,1.844-7.495,6.536-8.2,7.163" transform="translate(-1060.174 -312.064)"/><path class="x" d="M1245.413,468.237c1.12-.954,9.8-7.644,11.764-9.17q5.769-4.486,11.594-8.906a5.831,5.831,0,0,1,1.828-1.063,1.682,1.682,0,0,1,2.294,2.087c-.724,3.668-5.21,6.642-7.752,9.185q-4.923,4.927-9.664,10.023" transform="translate(-1055.435 -304.396)"/><path class="y" d="M1246.755,538.555" transform="translate(-1055.882 -334.232)"/><g transform="translate(44.547 180.86)"><path class="n" d="M1104.938,563.611a8.1,8.1,0,0,1,1.5,3.49,6.2,6.2,0,0,1-1.407,4.022,133.426,133.426,0,0,1-20.115,23.531,18.214,18.214,0,0,1-3.505,2.1,15.453,15.453,0,0,1-3.456-.824c-6.374-3-11.795-8.958-16.952-14.862q-11.143-12.758-21.85-26.115c-4.324-5.393-8.745-11.156-10.755-18.193-3.888-13.613,3.229-27.766,13.389-31.757,9.905-3.89,25.845-1.084,33.229,10.975C1084.821,531.991,1094.848,547.829,1104.938,563.611Z" transform="translate(-1027.322 -503.37)"/><path class="z" d="M1119.49,564.313c-2.438-1.78-4.213-4.427-5.932-7.014l-12.689-19.094c-4.456-6.705-8.006-14.59-13.571-20.455a37.881,37.881,0,0,0-9.288-6.588c-2.359-1.316-9.7-6.047-12.375-6.419" transform="translate(-1040.086 -503.828)"/><path class="z" d="M1092.152,612.563c0,3.122-8.874,5.583-8.874,5.583s-14.406-11.728-16.095-13.4c-12.447-12.328-27.118-28.829-29.413-36.789" transform="translate(-1030.803 -524.888)"/></g><path class="z" d="M1434.126,330.784v-.257" transform="translate(-1118.307 -264.925)"/></g><g transform="translate(84.339 -840.192)"><g transform="translate(0 972.669)"><path class="aa" d="M900.979,1094.492a42.392,42.392,0,0,1-1.132,7.328c-1.687,5.545-.914,10.882-6.266,15.26-14.917,12.2-36.175,6.971-52.459-1.184a7.46,7.46,0,0,1-2.713-2.132c-1.136-1.558-.788-3.275-.415-4.913a213.862,213.862,0,0,0,4.64-63.1c-.424-5.8-2.233-11.184-2.237-16.956-.005-7.843.724-15.676.752-23.493.054-15.07-.1-30.286-1.263-45.259-2.295-29.5-6.731-58.515-10.831-87.786-2.352-16.786-4.883-33-3.385-50.06.317-3.608.994-7.137,3.982-9.918,2.449-2.28,5.706-3.581,9.361-4.5,15.363-3.878,29.816-4.36,46.238-5.738,9.988-.838,24.071-6.393,34.119-.846,7.557,4.172,8.093,14.952,10.145,22.448,4.165,15.216.17,29.7-5.085,43.763s-6.162,27.545-7.685,41.96c-3.474,32.873-6.179,66.244-9.941,98.867C903.463,1037.227,904.661,1065.731,900.979,1094.492Z" transform="translate(-734.503 -491.208)"/><path class="ab" d="M855.35,1036.694c-.567,4.8-.836,9.148-1.6,14.25s-1.468,10.351-7.461,12.805-13.908.85-20.125-1.016c-5.364-1.61-11.433-4.036-13.952-8.782-1.1-2.066-.433-3.663-.1-5.415a545.113,545.113,0,0,0,9.158-104.649c-.156-33.76-6.284-66.914-5.178-100.7.214-6.552,1.632-12.775,1.42-19.662-.134-4.38-2.834-7.03-2.749-12.331.157-9.865,3.924-17.286,16.546-18.637,10.578-1.132,25.584-4.279,36.769-.061,16.1,6.07,11.328,19.565,9.35,31.067-4.058,23.611-9.593,43.5-15.356,65.7-2.335,8.992-5.329,17.077-5.1,26.418.247,9.893,3.561,19.344,4.787,29.141,1.679,13.417.784,26.6-.511,39.974C859.562,1002.225,857.4,1019.306,855.35,1036.694Z" transform="translate(-729.966 -488.411)"/><g transform="translate(34.116 129.078)"><path class="ac" d="M782.193,569.069l-9.909,14.28,4.154-39.261s8.924-19.616-7.024-10.6c0,0-32.8,41.5-28.725,81.325,0,0,2.055,18.313,20.889,14.847a10.486,10.486,0,0,0,5.949-3.339L810.244,596.3,787.726,564.92Z" transform="translate(-740.339 -531.117)"/><path class="ac" d="M785.536,616.968s.636-2.78,2.383-11.216" transform="translate(-755.397 -555.982)"/></g><path class="n" d="M798.81,557.73a10.368,10.368,0,0,0-3.025,3.84,8.561,8.561,0,0,0-.1,4.2,49.8,49.8,0,0,0,12.793,25.746,12.865,12.865,0,0,0,5.589,3.978,13.924,13.924,0,0,0,5.979.081,52.359,52.359,0,0,0,18.5-6.452,21.082,21.082,0,0,0,7.377-6.426c1.811-2.844,2.326-6.2,2.567-9.486.65-8.878-.477-17.775-1.636-26.619-.471-3.59-.21-24.977-3.268-26.368-3.348-1.523-19.348,14.8-22.315,17.378Q809.866,547.51,798.81,557.73Z" transform="translate(-724.592 -398.377)"/><path class="n" d="M876.957,743.116c-29.3.316-67.482,3.1-66.784-35.113.417-22.848,5.549-45.9,3.011-68.742-2.1-18.849-7.481-37.037-6.309-55.877.624-10.039,4.694-18.315,8.632-27.35,1.919-4.4,5.721-7.461,8.05-11.837s3.85-8.834,6.878-13.23c6.306-9.156,13.835-17.544,24.678-21.65,3.965-1.5,9.368,1.378,12.777-.122,4.7-2.067,2.733-7.1,8.261-7.873a11.365,11.365,0,0,1,6.73,1.737,40.344,40.344,0,0,1,11.674,9.773c13.617,16.97,20.877,35.835,19.138,57.528-1.83,22.83-10.465,43.511-11.455,66.708-1.152,27.021,15.849,51.61,18.037,78.446C922.543,743.325,897.922,742.89,876.957,743.116Z" transform="translate(-728.335 -392.092)"/><path class="ac" d="M793.224,718.7c-.533-.271-1.029-.538-1.465-.777-2.681-1.467-5.131-2.284-6.475-5.029-2.216-4.525-1.254-9.743.022-14.388,1.2-4.384,4.552-6.891,8.72-8.488,2.456-.942,5.56-2.151,8.236-1.658,3.259.6,3.708,5.141,4.251,7.976a34.847,34.847,0,0,1-2.824,21.7c-.981,2,.579,2.7-1.682,2.721A28.693,28.693,0,0,1,793.224,718.7Z" transform="translate(-720.756 -454.388)"/><path class="ad" d="M884.059,443.222c-16.6,8.254-33.973,14.93-50.9,2.3-11.977-8.937-19.906-20-26.517-33.069-5.554-10.979-7.361-23.579-8.878-36.143-1.354-11.21,9.368-21.848,18.3-27.395,7.661-4.758,16.13-3.881,23.79-7.6,7.279-3.534,12.677-5.1,20.613-2.4a46.88,46.88,0,0,1,16.659,10.407c17.957,16.892,25.4,40.055,25.465,63.982C902.628,427.03,897.149,436.715,884.059,443.222Z" transform="translate(-725.316 -337.55)"/><path class="ae" d="M887.845,515.035a8.342,8.342,0,0,1-.962.6c-6.055,3.3-18.73,7.733-16.419-3.693.924-4.568,3.772-8.291,3.409-13.111-.394-5.237-2.411-10.893-2.647-16.022-.4-8.64,4.6-8.2,12.007-7.49a11,11,0,0,1,5.78,1.754,15.834,15.834,0,0,1,5.314,7.357c2.524,6.65,7.585,13.748,4.707,21.178C897.24,510.243,891.679,512.261,887.845,515.035Z" transform="translate(-749.483 -383.335)"/><path class="ae" d="M834.671,354.591c9.338.979,17.6,5.011,23.391,12.462,7.138,9.188,7.151,20.713,9.6,31.957a46.7,46.7,0,0,1-8.988,39.785c-2.137,2.757-4.777,4.338-7.633,5.962-4.4,2.5-9.182,5.427-14.437,5.1-15.687-.97-23.573-13.294-29.982-25.445-6.578-12.472-9.711-23.769-9.874-37.193-.131-10.754,2.462-18.625,11.439-25.266A38.924,38.924,0,0,1,834.671,354.591Z" transform="translate(-725.016 -343.166)"/><path class="af" d="M797.257,394.709a30.019,30.019,0,0,1-6.9,1.785,6.233,6.233,0,0,1-2.767-.041,5.056,5.056,0,0,1-2.464-1.5,15.337,15.337,0,0,1-3.637-13.687c1.78-8.251,5.329-15.663,11.536-21.659,9.688-9.36,20.049-16.163,33.985-15.872a7.145,7.145,0,0,1,5.6,2.4c1.13,1.36,1,3.227.476,4.854a16.023,16.023,0,0,1-2.649,4.472c-3.1,4.155-6.7,8.318-9.282,12.737-3.477,5.958-5.483,11.87-10.2,17.09A38.557,38.557,0,0,1,797.257,394.709Z" transform="translate(-719.807 -339.609)"/><path class="af" d="M902.161,381.287c-5.017-8.464-9.808-15.8-18.409-21.949-25.026-17.886-78.981-27.736-82.612,15.521-.988,11.782,12.092,20.471,22.086,24.654,6.2,2.594,12.313,1.79,18.611,1.9,4.256.073,7.187-1.48,10.362,2.817,14,18.954-9,31.363,19.3,44.387,8.316,3.828,17.184,2.267,25.466-.421,5.066-1.644,9.671-3.944,13.128-8.377,7.231-9.271,7.483-20.779,3.707-31.846C910.666,398.789,907.178,389.751,902.161,381.287Z" transform="translate(-726.462 -339.739)"/><path class="r" d="M868.357,429.034c.792-1.77,1.79-3.561,3.7-4.432,4.812-2.2,9.383.174,11.525,4.835,1.8,3.913.8,7.877-1.236,11.442a5.444,5.444,0,0,1-3.195,2.669,3.246,3.246,0,0,1-3.754-1.494" transform="translate(-748.874 -366.277)"/><path class="ac" d="M869.209,712.895c-5.937,1.616-12.867.665-18.7-.1a117.325,117.325,0,0,1-46.824-16.452c-5.587-3.444-10.107-7.881-9.3-14.91a9.171,9.171,0,0,1,3.151-5.368c2.217-1.86,5.408-1.823,8.3-1.688,10.978.511,19.8,3.764,30.771,2.958,5-.367,10.443-1.092,12.688-6.092,2.054-4.591,2.07-9.156,3.056-13.934,1.806-8.751,1.515-17.475,4.467-26.223,2.164-6.414,8.449-14.283,15.25-16.241,10.321-2.971,21.065-2.137,27.3,6.829,4.008,5.762,2.839,13.687,1.37,20.288-2.032,9.128-5.489,17.551-8.952,26.188-3.483,8.688-6.235,17.837-9.332,26.712-1.955,5.6-4.688,14.454-10.535,17.066A18.607,18.607,0,0,1,869.209,712.895Z" transform="translate(-724.199 -429.422)"/><path class="r" d="M767.96,553.687l13.4,5.6.543,1.5-1.426,7.729s-.592,12.642-10.913,13.95c0,0-18.806-2.131-1.6-28.782" transform="translate(-713.008 -409.559)"/><path class="r" d="M789.085,713.541c.059.548.135,1.1.2,1.651a8.394,8.394,0,0,0,1.852,4.826,10.165,10.165,0,0,0,1.845,1.445l1.059.706a17.918,17.918,0,0,0,4.441,2.387,6.044,6.044,0,0,0,4.9-.355c1.878-1.138,2.311-3.118,2.929-5.049a13.626,13.626,0,0,0,.078-6.94,14.348,14.348,0,0,0-3.241-6.811,8.544,8.544,0,0,0-6.778-2.905,6.784,6.784,0,0,0-3.274,1.172,10.256,10.256,0,0,0-4.034,7.157A11.6,11.6,0,0,0,789.085,713.541Z" transform="translate(-722.432 -459.128)"/><path class="ag" d="M689.178,589.623" transform="translate(-689.178 -421.531)"/><g transform="translate(124.072 149.733)"><path class="n" d="M876.892,650.266a7.8,7.8,0,0,0,.667,3.826,6.3,6.3,0,0,0,3.56,2.637,162.535,162.535,0,0,0,31.791,8.425,17.728,17.728,0,0,0,4.39-.2c.928-1.026,1.931-1.574,2.629-2.872,3.943-7.315,5.511-15,6.627-23.245,1.609-11.882,3.273-24.19,3.828-36.206.336-7.28.681-15.737-2.181-22.29-5.537-12.678-18.352-21.325-32.082-17.208s-21.255,15.631-20.869,29.684C875.766,611.467,877.752,631.283,876.892,650.266Z" transform="translate(-875.239 -562.092)"/><path class="j" d="M875.515,655.136a27.808,27.808,0,0,0,1.391-9.394c.1-7.951.186-15.647.049-23.633-.144-8.412-1.586-16.478-.589-25.09.469-4.059,1.9-6.956,3.8-11.38,1.352-3.136,3.488-9.638,5.961-12.7" transform="translate(-875.331 -565.707)"/><path class="j" d="M923.526,679.274c3.209,2.058,7.686.934,11.3-.654,1.4-4.092,5.865-17.891,6.411-20.4,4.021-18.476,7.509-33.794,4.2-51.131" transform="translate(-891.326 -577.085)"/></g><g transform="translate(53.186 99.4)"><path class="ah" d="M840.623,534.137c-1.008-.3-1.725.074-2.691-.019-1.41,2.517-2.875,4.993-4.318,7.488a10.325,10.325,0,0,1,3.635-1.273,19.771,19.771,0,0,0,3.638-1.287,3.084,3.084,0,0,0,1.939-2.8C842.826,534.951,841.631,534.439,840.623,534.137Z" transform="translate(-790.485 -502.406)"/><path class="ah" d="M793.04,551.329c.756.345-.119,2.461.586,2.621,1.213.275-.342,1.331,1.14.862,2.675-.849,6.781-4.17,9.158-5.611,1.726-1.047,2.843-1.122,4.212-1.79s3.546-.886,3.712-2.453c.495-4.673-6.554-4.715-9.64-4.062-4.348.918-7.051,3.212-9.571,6.673-.9,1.232-1.768,3.414.351,3.836.091.018.269.077.3.043s-.311-.261-.336-.191S793.007,551.314,793.04,551.329Z" transform="translate(-776.512 -504.598)"/><path class="ah" d="M768.937,533.688c3.353-6.2,6.32-14.056,11.069-20.271,2.059-2.695,6.856-8.448,9.64-9.977s2.543-.2,5.1-2.781,6-7.709,9.981-10.211,12.6-4.318,16.453-3.724,2.713,2.5.248,4.247-8.35,1.881-12,4.536a31.9,31.9,0,0,0-6.817,8.055c2.747.794,7.545-.349,9.785,2.09s3.483,8.005,4.062,11.147-1.759,5.318-3.1,7.683a5.258,5.258,0,0,1-2,2.861,9.176,9.176,0,0,1-3.277,1.884,19.151,19.151,0,0,1-3.214,1.566c-1.133.367-3.82,1.269-4.48-.108s2.471-3,3.365-3.65c.113-.92-.589-1.837-1.011-2.593-1.924.2-3.84.507-5.745.817-2.755.343-4.182,3.946-5.41,6.095-1.745,3.052-3.615,5.676-6.953,7.086a41.29,41.29,0,0,0-1.4,6.774" transform="translate(-768.937 -486.612)"/><path class="ah" d="M806.37,518.851c1.722,1.113.6.915,3.156,1.734s10.974.583,13.212,3.572,1.69,7.972,2.91,11.424c1.072-.921,2.749-1.989,3.538-3.211,1-1.554.431-3.18-.043-4.753" transform="translate(-781.408 -497.353)"/><path class="ah" d="M804.921,526.809c1.393,1.272,1.025,1.964,3.157,2.919s8.007,1.842,9.944,3.377,1.583,4.44,2.013,6.048-.028,2.071.071,3.5" transform="translate(-780.926 -500.004)"/></g></g><path class="ai" d="M1085.237,449.26v-.227" transform="translate(-821.13 597.977)"/><ellipse class="aj" cx="132.389" cy="11.744" rx="132.389" ry="11.744" transform="translate(71.458)"/></g><path class="j" d="M823.03,565.648s-23.211,18.209-16.774,60" transform="translate(-643.469 -281.067)"/></g></g><g transform="translate(204.726 267.54)"><path class="ak" d="M1000.8,591.559c-29.654,6.106-41.865,34.016-65.414,47.1-6.978,4.361-19.188,0-28.782-6.106-8.722-5.233-21.8,4.361-22.677,13.083q-.11.588-.223,1.173l9.919,93.152h129.956l6.719-145.138C1021.286,590.894,1011.543,589.224,1000.8,591.559Z" transform="translate(-873.561 -551.567)"/><path class="f" d="M901.535,613.106c9.594,6.106,21.8,10.467,28.782,6.106,23.549-13.083,35.76-40.993,65.414-47.1,10.745-2.335,20.488-.665,29.5,3.263l2-43.255H868.494l10.141,95.24q.112-.585.223-1.173C879.73,617.467,892.813,607.872,901.535,613.106Z" transform="translate(-868.494 -532.121)"/></g><path class="al" d="M670.606,522.145c-22.677,6.106-34.888-19.188-53.2-28.782-6.977-3.489-18.315-4.361-20.06,2.617-1.606,4.359-3.454,8.719-5.337,13.109l5.784,64.448,88.091,42.738,9.6-134.338C691.566,497.882,687.094,517.434,670.606,522.145Z" transform="translate(-571.652 -247.861)"/><path class="f" d="M573.212,313.242l12.532,139.644c1.882-4.39,3.73-8.75,5.337-13.109,1.745-6.978,13.083-6.106,20.06-2.617,18.316,9.594,30.527,34.888,53.2,28.782,16.488-4.711,20.96-24.263,24.87-40.208l6.1-85.455Z" transform="translate(-565.391 -191.658)"/></g><line class="s" y1="10.002" x2="83.017" transform="translate(955.466 234.534)"/><line class="s" x2="78.918" transform="translate(955.466 262.174)"/><line class="s" x2="75.584" y2="5.335" transform="translate(955.466 282.179)"/><line class="s" x2="75.584" y2="10.669" transform="translate(955.466 302.851)"/><line class="s" x2="68.668" y2="13.827" transform="translate(959.699 325.524)"/></g></svg>