<svg xmlns="http://www.w3.org/2000/svg" xmlns:xlink="http://www.w3.org/1999/xlink" width="669.681" height="405.907" viewBox="0 0 669.681 405.907"><defs><style>.a,.n,.q{fill:none;}.b{fill:url(#a);}.c{fill:url(#b);}.d{fill:url(#c);}.e{fill:url(#d);}.f{fill:url(#e);}.g{fill:url(#f);}.h{clip-path:url(#g);}.i{fill:#f68f78;}.j,.l{fill:#e28b3d;}.j,.k,.m,.n{stroke:#100052;}.j,.k,.m,.n,.q{stroke-miterlimit:10;}.j,.n{stroke-width:1.188px;}.k,.m{fill:#100052;}.k{stroke-width:0.416px;}.m{stroke-width:0.404px;}.o{fill:#fff;}.p{fill:url(#h);}.q{stroke:#fdffff;stroke-width:5px;}.r{fill:url(#j);}</style><linearGradient id="a" y1="0.5" x2="1" y2="0.5" gradientUnits="objectBoundingBox"><stop offset="0" stop-color="#faebd8"/><stop offset="1" stop-color="#ffb83f"/></linearGradient><linearGradient id="b" x1="0.117" y1="-0.087" x2="0.772" y2="0.791" gradientUnits="objectBoundingBox"><stop offset="0" stop-color="#4fa5ad"/><stop offset="1" stop-color="#99cbcf"/></linearGradient><linearGradient id="c" x1="0.735" y1="1.27" x2="0.357" y2="0.273" xlink:href="#b"/><linearGradient id="d" x1="1.116" y1="-0.73" x2="0.429" y2="0.596" xlink:href="#b"/><linearGradient id="e" x1="-0.025" y1="-0.45" x2="0.802" y2="0.93" xlink:href="#b"/><linearGradient id="f" x1="0.219" y1="-4.054" x2="0.677" y2="3.668" xlink:href="#b"/><clipPath id="g"><path class="a" d="M679.292,166.844c43.314-5.657,88.35,6.461,126.106,28.245C846.847,219,882.914,261.7,878.992,309.4c-1.779,21.637-11.57,41.786-22.661,60.449C789.358,482.545,665.8,559.6,535.132,570.16c-33.96,2.745-71.141.2-97.089-21.877-24.747-21.058-33.847-56.207-30.8-88.559C413.517,392.98,484.37,372.791,518.5,322.5c14.482-21.34,20.1-47.418,32.066-70.262,21.816-41.636,63.915-69.421,108.543-81.4A155.536,155.536,0,0,1,679.292,166.844Z" transform="translate(-406.674 -165.459)"/></clipPath><linearGradient id="h" y1="0.5" x2="1" y2="0.5" gradientUnits="objectBoundingBox"><stop offset="0" stop-color="#2a7195"/><stop offset="1" stop-color="#060c39"/></linearGradient><linearGradient id="j" y1="0.5" x2="1" y2="0.5" gradientUnits="objectBoundingBox"><stop offset="0" stop-color="#2a7195"/><stop offset="0.333" stop-color="#296e92"/><stop offset="0.513" stop-color="#26668b"/><stop offset="0.657" stop-color="#21597f"/><stop offset="0.781" stop-color="#1a456d"/><stop offset="0.891" stop-color="#112c57"/><stop offset="0.992" stop-color="#060e3b"/><stop offset="1" stop-color="#060c39"/></linearGradient></defs><g transform="translate(-308.375 -164.831)"><path class="b" d="M679.164,165.581c43.7-3.843,88.236,7.264,126.232,29.186,41.451,23.915,77.519,66.617,73.6,114.311-1.779,21.637-11.57,41.786-22.661,60.449-66.973,112.7-190.53,189.752-321.2,200.312-33.96,2.745-71.141.2-97.089-21.877C413.3,526.9,404.2,491.755,407.239,459.4c2.649-28.158,16.033-58.073,42.258-68.665,20.5-8.281,43.576-2.973,65.547-.484,43.482,4.926,89.46-2.477,125.636-27.1,14.082-9.584,27.215-23,29.417-39.894,2.308-17.711-8.325-35.125-22.643-45.806-22-16.409-96.07-19.42-74.553-59.83C591.357,182.965,643.381,168.728,679.164,165.581Z" transform="translate(-50.218)"/><path class="c" d="M409.979,285.414a50.1,50.1,0,0,1,4.891-10.272c9.486-14,12.716-29.257,17.777-43.836-10.131,6.934-12.65,10.5-23.146,2.958-8.584-6.171-18.621-9.5-29.111-6-12.266,4.1-21.016,16.93-20.348,29.845-7.8-4.725-18.051-4.132-26.207-.057s-14.434,11.2-19.23,18.957c-4.031,6.519-7.241,14.131-5.933,21.684s8.7,14.39,16.162,12.657c-12.238,8.014-15.71,26.741-7.158,38.61,8.3,11.526,26.334,14.341,37.877,6.184a65.137,65.137,0,0,1,7.47-10.569C380.632,326.011,399.708,308.892,409.979,285.414Z" transform="translate(0 -31.68)"/><path class="d" d="M567.262,277.368c-1.288-6.662-6.982-11.785-13.3-14.271s-13.242-2.791-20.022-3.065a32.766,32.766,0,0,0-50.654-31.548c-.473.315-.924.622-1.367.924-5.061,14.579-8.291,29.833-17.777,43.836a50.1,50.1,0,0,0-4.891,10.272c-10.272,23.478-29.348,40.6-46.956,60.163a65.137,65.137,0,0,0-7.47,10.569c.343-.242.682-.492,1.013-.753,10.7,7,23.05,12.336,35.833,11.925s25.893-7.647,30.4-19.616a41.244,41.244,0,0,0,64.768-35.367c6.029,2.059,12.928.095,17.9-3.893s8.236-9.74,10.526-15.685C566.918,286.559,568.136,281.891,567.262,277.368Z" transform="translate(-49.276 -29.782)"/><path class="e" d="M1367.588,310.744c8.315-14.674,4.4-31.793-4.891-45-3.913-6.359-8.8-11.739-15.163-14.674-15.191-6.963-31.2-12.077-47.5-13.5-.035.843-.034,1.688.01,2.535a22.9,22.9,0,0,0-7.906-2.93,96.175,96.175,0,0,0-12.517.671,31.374,31.374,0,0,0-5.784,2.2c-8.157,4.075-14.434,11.2-19.23,18.956-4.031,6.519-7.24,14.131-5.933,21.684s8.7,14.39,16.162,12.658c-12.238,8.014-15.71,26.741-7.158,38.61s27.415,14.5,38.89,5.43c10.7,7,23.05,12.336,35.833,11.926a37.612,37.612,0,0,0,17.842-5.2c6.595-8.2,11.07-18.537,15.39-27.989C1366.61,314.168,1366.61,311.722,1367.588,310.744Z" transform="translate(-480.221 -36.956)"/><path class="f" d="M1511.94,229.773c-1.288-6.662-6.982-11.785-13.3-14.271s-13.242-2.791-20.022-3.065a32.766,32.766,0,0,0-50.654-31.548c-11.3,7.528-13.559,11.758-24.513,3.883-8.584-6.172-18.621-9.5-29.111-6-11.463,3.828-19.852,15.286-20.358,27.31,16.3,1.421,32.31,6.536,47.5,13.5,6.359,2.935,11.25,8.315,15.163,14.674,9.293,13.206,13.206,30.326,4.891,45-.978.978-.978,3.424-1.956,5.38-4.321,9.452-8.8,19.794-15.391,27.989a28.867,28.867,0,0,0,12.555-14.417,41.244,41.244,0,0,0,64.768-35.367c6.029,2.058,12.928.094,17.9-3.893s8.236-9.74,10.526-15.685C1511.6,238.964,1512.815,234.3,1511.94,229.773Z" transform="translate(-534.175 -5.467)"/><path class="g" d="M1324.77,236.764a28.832,28.832,0,0,0-12.517.671A96.175,96.175,0,0,1,1324.77,236.764Z" transform="translate(-512.855 -36.544)"/><g transform="translate(356.456 165.138)"><g class="h" transform="translate(0 0)"><g transform="translate(-46.595 65.198)"><g transform="translate(161.876)"><path class="i" d="M768.009,775.9c-14.924-.295-26.523-4.162-32.4-19.1a41.408,41.408,0,0,1-2.093-10.263c-.771-6.181-.553-12.255-.762-18.455-.252-7.5-.138-15.058-.4-22.564-.525-15.1-3.05-29.937-4.706-44.943-1.094-9.9-2.772-19.506-4.05-29.505-1.081-8.462,1.947-15.733,6.393-22.977,2.367-3.858,6.241-7.043,9.225-10.444,9.4-10.706,18.14-21.391,27.8-31.952,10.389-11.359,19-23.5,34.069-30.246,19.915-8.911,49.759,5.751,56.71,26.787,4.062,12.295,2.082,25.9.3,38.84-2.469,17.963-4.257,36.316-6.005,54.5-1.688,17.574-5.239,35.359-2.825,53.059.881,6.461,2.248,12.756,1.337,19.194a33.062,33.062,0,0,1-2.2,7.526c-6.22,15.3-14.974,27.206-30.459,33.627A111.006,111.006,0,0,1,796.87,775.6C786.959,777.543,778.126,776.1,768.009,775.9Z" transform="translate(-683.75 -418.317)"/><path class="j" d="M670.407,694.363c.007,24.456-14.192,121.884-25.789,136.7s24.547,22.457,38.5-2.033,32.723-122.495,36.373-157.74C701.037,666.9,682.566,679.792,670.407,694.363Z" transform="translate(-642.36 -488.627)"/><path class="i" d="M675.144,655.908c3.215,8.209,14.169,11.789,21.424,15.055,10.681,4.808,21.808,8.953,33.575,9.916,5.492.449,10.99.238,16.16-2.047,8.439-3.73,14.123-10.685,17.256-19.283s3.4-17.247,3.216-26.3c-.188-9.392.338-19.643-5-27.73-5.616-8.5-13.139-14.362-23.213-16.343-12.571-2.473-26.895-.28-37.058,7.9-12.227,9.84-12.3,26.349-20.494,39.117-3.368,5.251-7.6,10.86-6.6,17.019A13.106,13.106,0,0,0,675.144,655.908Z" transform="translate(-658.656 -446.632)"/><g transform="translate(48.053)"><path class="j" d="M803.3,326.7a42.233,42.233,0,0,1,18.973,25.341c3.369,13.264-2.679,25.926-5.489,38.753-3.587,16.37-14.7,30.011-30.488,35.994s-34.818,3.714-41.976-13.409a36.778,36.778,0,0,1-1.765-6.718c-4.332-20.54-1.24-45,7.11-64.03,4.884-11.129,10.7-18.533,23-21.177A42.542,42.542,0,0,1,803.3,326.7Z" transform="translate(-740.602 -309.896)"/><path class="k" d="M758.471,334.05a32.645,32.645,0,0,1-7.19-3.442,6.916,6.916,0,0,1-2.333-2.052,5.939,5.939,0,0,1-1.027-3.123,18.343,18.343,0,0,1,6.864-14.852c7.373-6.065,15.813-10.137,25.3-11.038,14.818-1.405,30.1.009,41.031,11,1.758,1.768,3.194,3.918,3.18,6.437-.012,2.068-1.418,3.648-3.081,4.732a17.647,17.647,0,0,1-5.57,2.022c-5.728,1.39-11.928,2.338-17.364,4.4-7.329,2.782-13.391,6.446-21.251,7.592A42.58,42.58,0,0,1,758.471,334.05Z" transform="translate(-744.34 -298.926)"/><path class="k" d="M836.264,392.5c-2.962-12.728-8.636-25.741-13.323-37.464-3.985-9.967.253-17.364-3.25-27.228-3.047-8.578-7.253-19.028-15.565-24.241-10.311-6.467-23.95-5.361-35.013-2.765-14.75,3.461-23.176,10.791-24.408,25.864-1.514,18.523,15.143,16.477,23.32,29.3,3.37,5.285,4.044,11.949,4.147,18.189a20.794,20.794,0,0,1-1.337,8.4c-4.93,11.557-11.4,21.41-11.009,34.521.125,4.255.647,8.615,3.143,12.819,4.758,8.015,18.029,14.437,26.181,16.9,16.548,4.991,35.223,3.861,45.3-10.887,4.522-6.619,4.69-14.421,4.754-22.159C839.262,406.661,837.878,399.435,836.264,392.5Z" transform="translate(-742.649 -298.753)"/><path class="l" d="M795.4,441.118a8.34,8.34,0,0,1,5.384-2.335c5.337.09,8.54,4.269,8.374,9.468-.14,4.365-2.925,7.378-6.384,9.685a5.736,5.736,0,0,1-4.163.971,3.2,3.2,0,0,1-2.719-2.99" transform="translate(-768.595 -370.29)"/><path class="m" d="M866.339,307.57c13.162,10.513,20.247,24.967,23.845,41.873,4.537,21.316,7.564,48.235-1.579,68.819a73.725,73.725,0,0,1-23.758,29.994,48.268,48.268,0,0,1-16.284,8.425c-17.943,5.466-49.655.765-51.42-22.537-.756-9.982,3.882-19.418,8.523-27.907,6.335-11.584,13.643-20.922,15.649-34.593a97.417,97.417,0,0,0-2.374-40.952c-2.069-7.192-6.223-17.479-3.365-24.766,2.042-5.206,3.718-3.619,7.981-2.817,5.97,1.124,11.018-.058,17.121-1.331C850.021,299.828,858.474,301.288,866.339,307.57Z" transform="translate(-769.446 -299.887)"/><path class="k" d="M953.877,460.921a14.13,14.13,0,0,1-7.722,4.653,7.116,7.116,0,0,1-7.835-3.213c-1.4-2.373-1.055-5.087-.776-7.828,2.666-26.214-.139-52.459-7.311-77.8-2.141-7.564-3.539-27.35,9.7-18.5,16.071,10.742,18.56,33.942,21.5,51.742C964.213,426.82,966.25,447.392,953.877,460.921Z" transform="translate(-836.774 -328)"/></g><path class="n" d="M768.659,741.674c2.406.552,4.8,1.135,7.209,1.67a4.581,4.581,0,0,0,2.845.022,4.223,4.223,0,0,0,1.725-1.657,119.559,119.559,0,0,0,14.972-30.436" transform="translate(-706.883 -509.499)"/></g><path class="o" d="M354.535,712.811c-7.822,2.715-11.756,9.633-12.234,17.685a17.277,17.277,0,0,0-15.65.076c-5.109,2.614-8.584,6.586-11.55,11.344-2.493,4-4.3,8.185-3.5,12.978a8.869,8.869,0,0,0,9.516,7.63c-6.749,5.925-9.634,15.15-3.995,22.975s15.3,8.009,23.061,3.482c6.946,3.829,13.392,7.3,21.573,6.979A20.626,20.626,0,0,0,380,784.365c8.4,4.517,17.186,5.941,25.9,1.183s12.271-12.908,13-22.428a12.154,12.154,0,0,0,10.662-2.405,21.624,21.624,0,0,0,6.328-9.39c1.022-2.627,1.8-5.263,1.16-8.088-.945-4.16-4.043-6.909-7.906-8.51s-7.928-1.56-12-1.932c.256-7.765-2.428-14.843-9.17-19.071s-14.707-3.64-21.072.216c-6.91,4.186-7.544,6.755-14.873,2.312C366.274,712.77,361.224,710.489,354.535,712.811Z" transform="translate(-311.411 -509.253)"/><path class="o" d="M1085.571,572.527c-9.585,2.425-16.073,8-17.165,17.771a32.6,32.6,0,0,0-21.639.027,37.5,37.5,0,0,0-16.029,11.315c-3.539,4.156-6.112,7.572-4.88,13.109s7.892,7.946,13.167,7.569c-9.2,5.361-13.95,14.2-5.708,22.863s22.228,8.09,32.218,3.608c9.592,3.958,19.471,7.277,29.831,6.974s19.194-3.339,25.491-11.639c10.953,5.117,24.843,5.711,35.8,1.333s16.934-11.335,18.219-22.579a22.1,22.1,0,0,0,14.71-2.344,22.344,22.344,0,0,0,8.81-9.4c1.487-2.807,2.662-4.971,1.607-8.157-1.553-4.692-6.087-7.063-11.036-8.506s-11.266-1.633-16.525-1.875c.02-9.181-4.141-15.224-12.925-19.182s-20.411-3.662-29.184.279c-9.524,4.278-10.786,6.716-20.648,2.286C1101.953,572.513,1093.768,570.454,1085.571,572.527Z" transform="translate(-676.244 -437.628)"/></g></g></g><g transform="translate(628.855 202.793)"><path class="p" d="M1043.819,267.4l-36.44-24.953v14.075a49.391,49.391,0,0,0-30.063,83.249l18.32-12.545c-1.128-1.128-10.4-8.049-10.4-21.632a27.792,27.792,0,0,1,22.142-27.175V292.35Z" transform="translate(-963.583 -242.443)"/><path class="q" d="M1043.819,267.4l-36.44-24.953v14.075a49.391,49.391,0,0,0-30.063,83.249l18.32-12.545c-1.128-1.128-10.4-8.049-10.4-21.632a27.792,27.792,0,0,1,22.142-27.175V292.35Z" transform="translate(-963.583 -242.443)"/><g transform="translate(18.56 28.971)"><path class="p" d="M1081.764,335.85a49.264,49.264,0,0,0-13.733-34.176l-18.319,12.545a27.729,27.729,0,0,1-11.744,48.806V349.091l-36.44,24.953L1037.968,399V384.923A49.4,49.4,0,0,0,1081.764,335.85Z" transform="translate(-1001.528 -301.674)"/><path class="q" d="M1081.764,335.85a49.264,49.264,0,0,0-13.733-34.176l-18.319,12.545a27.729,27.729,0,0,1-11.744,48.806V349.091l-36.44,24.953L1037.968,399V384.923A49.4,49.4,0,0,0,1081.764,335.85Z" transform="translate(-1001.528 -301.674)"/></g></g><g transform="translate(674.536 466.274)"><path class="r" d="M1075.259,788.487a30.872,30.872,0,0,1,1.926,7.492c.535,3.746-1.284,7.064-1.391,10.7-.214,5.459,5.03,9.739,10.274,7.813,4.281-1.606,8.348-5.887,12.95-4.067,2.89,1.177,5.993,4.174,9.2,1.5a31.8,31.8,0,0,0,3.87-3.661,25.174,25.174,0,0,0,.19-3.084c0-13.288-10.424-24.06-23.281-24.06a22.74,22.74,0,0,0-14.91,5.582A5.072,5.072,0,0,1,1075.259,788.487Z" transform="translate(-1065.72 -781.12)"/><path class="p" d="M1099.479,817.756c-3.211,2.676-6.314-.321-9.2-1.5-4.6-1.82-8.669,2.461-12.95,4.067-5.244,1.926-10.489-2.355-10.275-7.813.107-3.639,1.926-6.956,1.391-10.7a30.877,30.877,0,0,0-1.926-7.492,5.071,5.071,0,0,0-1.168-1.785,24.335,24.335,0,0,0-8.371,18.478c0,13.289,10.423,24.061,23.281,24.061,11.847,0,21.627-9.145,23.092-20.976A31.772,31.772,0,0,1,1099.479,817.756Z" transform="translate(-1056.976 -786.95)"/></g><g transform="translate(341.811 360.215)"><path class="r" d="M387.525,568.635a18.24,18.24,0,0,1,1.137,4.422c.316,2.211-.758,4.169-.821,6.317a4.586,4.586,0,0,0,6.065,4.612c2.527-.948,4.928-3.474,7.645-2.4,1.706.7,3.538,2.464,5.433.885a18.773,18.773,0,0,0,2.285-2.161,14.9,14.9,0,0,0,.112-1.82,13.978,13.978,0,0,0-13.743-14.2,13.421,13.421,0,0,0-8.8,3.3A2.983,2.983,0,0,1,387.525,568.635Z" transform="translate(-381.894 -564.286)"/><path class="p" d="M401.822,585.912c-1.895,1.579-3.727-.19-5.433-.885-2.717-1.074-5.117,1.453-7.645,2.4a4.586,4.586,0,0,1-6.065-4.611c.063-2.148,1.137-4.107.821-6.318a18.243,18.243,0,0,0-1.137-4.422,2.984,2.984,0,0,0-.689-1.054,14.363,14.363,0,0,0-4.942,10.907,13.724,13.724,0,0,0,27.373,1.82A18.777,18.777,0,0,1,401.822,585.912Z" transform="translate(-376.733 -567.728)"/></g></g></svg>