<svg xmlns="http://www.w3.org/2000/svg" xmlns:xlink="http://www.w3.org/1999/xlink" width="522.001" height="479.636" viewBox="0 0 522.001 479.636"><defs><style>.a,.ad,.ae,.af,.an,.ao,.p,.x{fill:none;}.b{fill:#d2e7f9;stroke:#bbdbf9;stroke-width:0.348px;}.aa,.ab,.ac,.ad,.ae,.af,.ag,.ah,.ai,.aj,.an,.ao,.b,.h,.i,.j,.l,.m,.n,.o,.p,.s,.u,.v,.w,.x,.y,.z{stroke-linecap:round;stroke-linejoin:round;}.c{clip-path:url(#a);}.d{fill:url(#b);}.e{fill:url(#c);}.f{fill:url(#d);}.g{fill:url(#e);}.ag,.aj,.h,.m,.s,.v{fill:#100052;}.aa,.ab,.ac,.ad,.ae,.af,.ag,.ah,.ai,.aj,.an,.ao,.h,.i,.j,.l,.m,.n,.o,.p,.s,.u,.v,.w,.x,.y,.z{stroke:#100052;}.h{stroke-width:0.347px;}.ah,.ai,.ak,.i,.j,.l,.n,.o{fill:#e28b3d;}.i{stroke-width:0.704px;}.j{stroke-width:1.141px;}.k{fill:#f68f78;}.l,.p{stroke-width:1.177px;}.m{stroke-width:0.335px;}.n{stroke-width:1.046px;}.o{stroke-width:1.225px;}.q{clip-path:url(#f);}.aa,.ab,.ac,.r,.u,.w,.y,.z{fill:#fff;}.s{stroke-width:3.286px;}.t{fill:#2a7195;}.ad,.u{stroke-width:1.106px;}.v{stroke-width:3.648px;}.w,.x{stroke-width:0.92px;}.y{stroke-width:1.159px;}.z{stroke-width:1.225px;}.aa{stroke-width:1.235px;}.ab{stroke-width:1.217px;}.ac,.an{stroke-width:1.065px;}.ae{stroke-width:0.758px;}.af{stroke-width:0.57px;}.ag{stroke-width:0.191px;}.ah{stroke-width:0.263px;}.ai{stroke-width:1.105px;}.aj{stroke-width:0.199px;}.al{fill:url(#g);}.am{fill:url(#h);}.ao{stroke-width:2px;}</style><clipPath id="a"><path class="a" d="M729.925,316.889c3.466-6.941,4.444-8.867,5.876-11.577,17.543-33.22,32.849-61.72,61.026-74.793,18.44-8.555,36.478-7.717,45.775-7.284,76.862,3.572,130.7,84.282,143.194,103.019,9.728,14.584,67.922,105.061,34.038,213.322-10.25,32.75-23.208,74.154-66.157,102.1C883.49,687.352,777.8,667.951,745.8,651.437a83.651,83.651,0,0,0-19.553-7.807c-26.458-6.716-39.845,4.343-64.832,3.9-28.364-.5-49.557-15.425-59.48-22.414-6.505-4.582-28.78-20.86-40.34-48.821C542.432,529.94,559.871,469.193,600.816,448c23.753-12.292,31.287,2.5,55.165-9.365C677.4,427.993,683.1,410.656,729.925,316.889Z" transform="translate(-553.819 -222.988)"/></clipPath><linearGradient id="b" x1="0.252" y1="0.346" x2="0.71" y2="0.707" gradientUnits="objectBoundingBox"><stop offset="0" stop-color="#4fa5ad"/><stop offset="1" stop-color="#99cbcf"/></linearGradient><linearGradient id="c" x1="0.291" y1="0.284" x2="0.634" y2="0.676" xlink:href="#b"/><linearGradient id="d" x1="0.433" y1="-0.617" x2="0.522" y2="0.733" gradientUnits="objectBoundingBox"><stop offset="0" stop-color="#6599b3"/><stop offset="1" stop-color="#45496b"/></linearGradient><linearGradient id="e" x1="0.634" y1="-0.443" x2="0.438" y2="0.938" xlink:href="#d"/><clipPath id="f"><path class="a" d="M624.537,168.967c9.827-1.713,20.454-2.228,29.466,1.609,5.758,2.45,10.425,6.5,14.5,10.827,15.2,16.122,23.478,37.137,22.861,58.041,29.566-7.874,64.536,5.237,78.445,29.411,6.072,10.553,8.325,22.973,4.972,34.42a40.452,40.452,0,0,1-25.122,26.151c12.928,8.473,16.714,24.817,12.28,38.418s-15.629,24.761-28.025,33.824C725.1,408.108,715.22,413.864,704,416s-24,.06-31.864-7.263c-6.944,11.845-17.021,23.239-31.367,27.638s-33.233-1.016-37.656-13.755c-14.467,12.85-39.378,15.375-56.813,5.759s-25.6-30.388-18.626-47.371c-18.042-.015-35.244-9.845-43.931-23.7s-9.165-31.11-2.763-45.887c3.18-7.339,8.715-14.668,17.3-16.922-9.01-7.33-10.794-19.285-9.625-30.009,2.165-19.851,13.154-38.668,29.508-52.437,19.648-16.542,40.591-25.042,65.045-11.159-1.665-.946,15.692-19.906,17.46-21.517C608.182,172.531,614.053,170.794,624.537,168.967Z" transform="translate(-476.641 -167.669)"/></clipPath><linearGradient id="g" x1="0.538" y1="0.354" x2="0.334" y2="1.011" gradientUnits="objectBoundingBox"><stop offset="0" stop-color="#faebd8"/><stop offset="1" stop-color="#ffb83f"/></linearGradient><linearGradient id="h" x1="0.487" y1="0.494" x2="0.359" y2="1.008" xlink:href="#g"/></defs><g transform="translate(-476.641 -167.669)"><path class="b" d="M632.272,558.408a4.392,4.392,0,0,0-.371.45c.133.247.259.5.371.766Z" transform="translate(-63.735 -160.399)"/><g transform="translate(522.137 200.28)"><g class="c" transform="translate(0 0)"><path class="d" d="M735.97,544.312c39.307-45.385,55.111-100.9,82.261-152.771,4.457-8.509,7.7-16.614,12.157-24.719,9.726-19.045,22.288-35.255,40.118-48.222,24.719-17.425,49.843-23.5,78.614-29.582a64.6,64.6,0,0,1,7.494-1.132C931.069,258.995,891.5,225.508,842.6,223.236c-9.3-.432-27.336-1.271-45.775,7.284-28.177,13.072-43.483,41.573-61.026,74.793-1.431,2.709-2.409,4.635-5.876,11.577-46.823,93.767-52.522,111.1-73.944,121.75-23.878,11.867-31.411-2.927-55.165,9.365C559.871,469.193,542.432,529.94,561.6,576.3c7.042,17.032,18.06,29.729,27.067,38.089C644.338,608.107,697.962,587.849,735.97,544.312Z" transform="translate(-553.819 -222.988)"/><path class="e" d="M1010.062,371.447a346.835,346.835,0,0,0-29.181-38.368,64.621,64.621,0,0,0-7.494,1.132c-28.771,6.078-53.9,12.157-78.614,29.582-17.83,12.967-30.392,29.177-40.118,48.222-4.458,8.1-7.7,16.209-12.157,24.719C815.348,488.6,799.544,544.119,760.237,589.5c-38.008,43.537-91.632,63.795-147.3,70.076a125.213,125.213,0,0,0,13.274,10.732c9.923,6.988,31.116,21.915,59.48,22.414,24.987.439,38.374-10.62,64.832-3.9a83.66,83.66,0,0,1,19.552,7.807c31.993,16.514,137.687,35.915,207.873-9.758,42.948-27.948,55.907-69.352,66.157-102.1C1077.983,476.508,1019.789,386.032,1010.062,371.447Z" transform="translate(-578.085 -268.181)"/><g transform="translate(149.032 136.703)"><g transform="translate(161.854 222.672)"><path class="f" d="M1301.7,896.793c0,20.83-49.331,37.715-110.186,37.715s-110.186-16.886-110.186-37.715c0-5.584-1.427-22.08,4.936-26.848,17.371-13.017,60.711-10.867,105.25-10.867,48.868,0,94.384,1.017,108.811,16.093C1303.865,878.869,1301.7,892.691,1301.7,896.793Z" transform="translate(-1081.193 -843.425)"/><ellipse class="g" cx="110.186" cy="37.716" rx="110.186" ry="37.716" transform="translate(0.137)"/></g><path class="h" d="M1027.323,454.926c25.842,1.714,60.316,45.369,47.161,73.377-1.68,3.576-3.782,7.2-3.683,11.18a31.332,31.332,0,0,0,1.034,5.706l0,.02c3.23,15.2-11.189,23.867-23.21,28.581-26.175,10.263-66.893,3.992-82.048-23.336-5.078-9.156-6.265-21.026-1.927-30.721,3.648-8.154,10.936-14.72,11.935-23.664.463-4.142-.512-8.433.577-12.448C981.368,468.121,1013.963,454.042,1027.323,454.926Z" transform="translate(-870.406 -454.886)"/><path class="i" d="M1000.027,553.166c-.318-3.35-4.234-5.034-6.543-2.811-2.624,2.526-2.4,7.741-1.786,10.959s4.127,7.211,7.514,3.808" transform="translate(-882.439 -493.662)"/><path class="j" d="M1144.561,849.032a24.979,24.979,0,0,0,7.722-10.833,44.852,44.852,0,0,0,1.977-6.576,14.45,14.45,0,0,0,.631-3.031c-.013-1.135-.329-2.412-.432-3.568-.086-.978-.342-1.937-.447-2.913a22.152,22.152,0,0,1,0-3.265,121.585,121.585,0,0,0-.581-14.507l-.369-4.614a7.275,7.275,0,0,0-.578-3.321c-.54-.87-1.137-1.734-1.7-2.6a29.6,29.6,0,0,0-4.326-5.249,24.77,24.77,0,0,0-11.893-6.466c-6.766-1.434-13.787.214-20.5,1.854l-12.722,3.11c-2.523.617-5.123,1.268-7.189,2.768-12.376,8.991-1.249,32.866,3.916,42.917C1105.609,847.4,1128.383,861.54,1144.561,849.032Z" transform="translate(-922.35 -588.98)"/><path class="k" d="M969.668,645.551c16.649,2.053,50.281,7.576,54.082,27.951,1.947,10.429-4.85,20.185-12.956,25.741-11.4,7.812-14.219,10.528-13.177,24.82,1.622,22.246-19.478,36.466-20.155,58.287-.557,17.941,15.35,48.085,3.47,64.645-12.283,17.123-46.807,10.972-63.746,8.773a293.371,293.371,0,0,1-35.968-7.466c-9.087-2.352-20.648-3.531-28.047-9.866-15.589-13.347,1.5-40.3,9.033-53.641,13.847-24.544,20.225-45.679,21.676-73.951a357.054,357.054,0,0,1,5.127-46.311c2.029-11.055,4.244-21.989,15.931-26.36,13.246-4.955,31.536.461,45.055,2.021,13.544,1.562,28.938,2.09,40.475,10.289" transform="translate(-823.13 -529.287)"/><path class="l" d="M806.633,886.6c-.013-2.35.037-4.7.087-7.048.411-19.1-.479-38.224,2.324-57.131a176.717,176.717,0,0,1,9.616-37.588q7.076-18.459,14.153-36.917c3.594-9.374,5.253-20.21,16.269-23.187a20.119,20.119,0,0,1,10.857.577,24.2,24.2,0,0,1,10.15,5.581c8.075,7.876,7.017,21.37,2.36,31.644-9.413,20.764-23.256,39.277-25.467,62.75-2.821,29.962-4.856,60.739-14.523,89.457-6.937,20.607-22.815-5.735-24.707-15.183A67.774,67.774,0,0,1,806.633,886.6Z" transform="translate(-806.63 -565.449)"/><path class="k" d="M871.232,659.313A132.164,132.164,0,0,0,851.34,683.78c-4.175,6.411-8.094,14.206-4.787,21.034,1.416,2.923,4.01,5.242,6.743,7.257,9.153,6.747,21.251,10.83,32.485,13.656a6.541,6.541,0,0,0,3.865.17,5.536,5.536,0,0,0,2.665-3.038l6.046-12.149c5.955-11.964,33.834-61,11.874-70.234-9.388-3.947-26.5,8.552-32.94,13.62Q874.13,656.579,871.232,659.313Z" transform="translate(-822.511 -530.76)"/><path class="l" d="M1027.884,660.689c-8.8-1.309-16.72-7.4-16.713-16.884,0-8.051,4.884-15.693,8.644-22.5,1.355-2.451,3.321-4.582,5.72-5.376,4.607-1.524,11.367,2.261,15.514,4.187a10.345,10.345,0,0,1,6.9,11.789c-.456,5.787-.575,13.147-2.343,18.648-2.142,6.666-8.693,10.531-15.589,10.33A18.262,18.262,0,0,1,1027.884,660.689Z" transform="translate(-890.595 -520.85)"/><path class="l" d="M1066.626,482.472a40.7,40.7,0,0,1,15.1,26.589c1.86,13.094-6.189,25.46-9.686,37.943-4.709,16.807-23.645,35.513-41.8,31.972-9.268-1.807-15.921-9.4-20.3-17.762-6.494-12.4-6.913-23.693-5.608-37.622.78-8.32-1.6-15.945,2.254-23.944,3.407-7.062,7.8-13.09,14.186-17.43C1033.95,473.265,1053.139,472.1,1066.626,482.472Z" transform="translate(-887.54 -463.181)"/><path class="m" d="M1082.341,465.59a31.8,31.8,0,0,0-9.536-1.79c-5.887-.14-20.973-2.623-22.239,6.1-2.435,16.764,10.494,33.267,21.027,45.12,8.736,9.83,19.845,14.359,33.036,12.763,5.089-.615,10.149-3,13.066-7.211,4.937-7.136,2.465-17.021-1.7-24.633C1109.563,484.189,1096.486,470.435,1082.341,465.59Z" transform="translate(-906.644 -458.368)"/><path class="k" d="M1126.161,746.063a13.145,13.145,0,0,1-.49,5.961c-.958,2.327-3.147,3.889-5.314,5.165a54.1,54.1,0,0,1-35.538,6.762,6.491,6.491,0,0,1-3.073-1.075,6.3,6.3,0,0,1-1.852-3.346,55.873,55.873,0,0,1-1.739-15.739A133.964,133.964,0,0,1,1084,705.319c2.888-9.442,7.819-19.539,17.153-22.757C1134.458,671.081,1125.03,730.313,1126.161,746.063Z" transform="translate(-918.091 -547.746)"/><path class="m" d="M1021.918,467.356c-5.845.466-11.192,1.074-15.486,5.29a71.938,71.938,0,0,0-13.083,18.534c-3.882,7.781-9.357,25.058,1.743,29.5,3.249,1.3,6.952.333,10.164-1.054,15.165-6.549,24.53-20.986,27.573-36.776C1034.453,474.413,1031.885,466.562,1021.918,467.356Z" transform="translate(-881.296 -459.982)"/><path class="n" d="M1127.684,775.739c-3.243-5.522-4.576-11.65-6.261-17.689a156.4,156.4,0,0,1-4.014-18.764c-1.551-10.3-1.733-20.691-2.244-31.074-.211-4.286-.542-8.567-.67-12.857-.129-4.36-.021-8.746.1-13.106q.064-2.35.164-4.7c.025-.591-.106-1.355.279-1.833a3.348,3.348,0,0,1,1.505-.771,14.762,14.762,0,0,1,3.607-.883,13.877,13.877,0,0,1,2.668.019c2.866.271,5.943.894,8.262,2.593a21.385,21.385,0,0,1,5.093,5.76c2.593,4,4.24,8.382,6.444,12.553a222.047,222.047,0,0,1,11.714,26.058,208.716,208.716,0,0,1,10.853,41.492c1.941,12.7,3.017,27.561-6.377,38.784" transform="translate(-932.986 -544.835)"/><g transform="translate(163.292 81.156)"><path class="o" d="M1102.384,648.266c-.141-1.958.425-5.065-.247-6.839-.5-1.332-2.121-1.951-2.952-3.011a18.251,18.251,0,0,1-3.42-9c-.281-2.575-.161-5.685-1.178-8.073-.743-1.745-2.1-1.865-3.553-2.347a14.955,14.955,0,0,1-4.316-2.523,6.58,6.58,0,0,1-1.992-2.2c-1.082-2.2,1.313-5.3,2.22-7.267a47.741,47.741,0,0,1,4.4-7.915,23.878,23.878,0,0,1,4.466-4.762c2.006-1.6,3.085-2.468,5.4-1.082q8.332,4.977,16.426,10.4a10.658,10.658,0,0,1,2.539,2.125c2.4,3.027,1.164,9.348.994,13.013a93.029,93.029,0,0,0,1.13,19.571c1.222,7.32,4.025,13.723,6.618,20.609" transform="translate(-1083.969 -592.557)"/><path class="o" d="M1105.836,606.8a68.015,68.015,0,0,0-6.443-2.721,10.235,10.235,0,0,0-3.022-1.027c-4.033-.111-6.4,2.581-7.02,6.786" transform="translate(-1085.98 -596.866)"/><path class="o" d="M1099.141,615.666a14.487,14.487,0,0,0-6.932-2.349c-2.791-.194-5.485.042-6.307,3.5-.061.258-.4,3.012-.34,3.025a.286.286,0,0,0,.332-.166" transform="translate(-1084.422 -601.059)"/><path class="o" d="M1100.532,627.2c-3.687-2.424-8.8-5.736-13.3-4.3a5.252,5.252,0,0,0-3.6,5.082c-.069,2.382,2.157,4.722,3.9,6.087a5.584,5.584,0,0,0,4.837,1.253,2.256,2.256,0,0,0,1.56-1.244c.44-1.127-.422-2.348-1.341-3.056a8.66,8.66,0,0,0-2.7-1.409.191.191,0,0,1,.266-.1" transform="translate(-1083.633 -604.872)"/></g><path class="a" d="M882.483,801.678q-13.764,36.57-24.461,74.2c-2.6,9.134-4.854,19.679.484,27.532" transform="translate(-826.59 -597.245)"/><path class="p" d="M1006.438,833.444a9.325,9.325,0,0,1-4.739-.541c-14.013-4.126-28.556-7.962-43.06-6.226,7.557,6.055,17.408,8.55,25.3,14.166.741.527,1.525,1.542.917,2.217a29.846,29.846,0,0,1-10.071-2.074" transform="translate(-869.03 -607.332)"/><path class="p" d="M920.551,751.282c3.558.18,5.743-3.726,7.095-7.023,6.131-14.955,11.238-29.982,16.358-45.438" transform="translate(-853.395 -555.022)"/><path class="p" d="M1089.954,800.634a56.144,56.144,0,0,0,6.717-43.727" transform="translate(-922.935 -578.866)"/></g></g></g><g transform="translate(476.641 167.669)"><g class="q"><g transform="translate(0.118 0.747)"><path class="b" d="M550.384,416.764c0,3.348.992-4,1.07-4.26a22.688,22.688,0,0,1,3.793-7.593,14.163,14.163,0,0,1,6.419-4.748c2.027-.662,5.336.474,6.583-1.184-1.936-3.6-6.319-5.611-9.231-8.346a108.645,108.645,0,0,1-8.483-9.454c-3.767-4.5-7.447-10.553-10.179-14.664-6.721-10.108-9.993-15.355-11.8-27.758-2.143-14.689-5.707-38.137,16.548-36.736,23.065,1.452,36.58,36.862,44.591,54.768,0-9.308-4.588-17.745-4.071-27.567a73.478,73.478,0,0,1,5.287-23.086c5.6-14.687,11.794-28.44,26.486-36.278,13.8-7.363,30.567-6.532,44.751-.729,16.755,6.855,25.869,19.838,38.174,32.144,0-7.822,8.114-23.137,13.129-30.581,7.886-11.706,21.4-23.03,36.485-20.81-17.067-10.708-38.939-14.494-58.484-9.288.983-33.31-22.043-74.657-59.346-71.487-12.875,1.093-24.363,4.336-33.552,13.7-1.371,1.4-16.467,18.551-15.258,19.238-27.083-15.375-55.422-1.061-74.418,20.281-14.938,16.784-32.982,55.041-10.51,73.323-20.624,5.415-24.874,35.7-19.253,52.746,6.695,20.309,27.59,33.742,48.649,33.76-8.935,21.752,6.89,45.214,28.136,51.238C552.593,428.448,549.873,422.9,550.384,416.764Z" transform="translate(-476.842 -168.937)"/><path class="r" d="M804.469,325.915c-3.918-6.809-12.088-17.6-19.961-20.122-8.147-2.609-18.272,3.047-24.413,7.754-7.2,5.517-12.568,12.817-16.608,20.879-1.566,3.124-6.315,20.326-8.593,20.326q-.607,1.824,1.216,1.216-1.824-.608-1.216,1.216c-12.346-12.346-21.352-25.261-38.174-32.144-14.185-5.8-30.949-6.634-44.751.729-14.709,7.847-20.873,21.568-26.486,36.278-2.906,7.616-4.872,14.6-5.287,23.086-.48,9.811,4.071,18.267,4.071,27.567-7.091-15.85-31.516-72.636-57.349-51.477-7.953,6.514-5.9,18.932-4.651,27.823q.363,2.588.771,5.17c.343,2.175.707,4.347,1.118,6.51.279,1.466.525,2.947.916,4.389a17.045,17.045,0,0,0,1.638,3.7c.414.752.842,1.5,1.231,2.264.56,1.1,1.111,2.192,1.76,3.245q1.059,1.719,2.11,3.442,1.637,2.673,3.288,5.338c1,1.6,2,3.2,3.04,4.774.688,1.045,1.381,2.1,2.167,3.074,3.285,4.073,6.5,8.257,10.073,12.239,2.933,3.266,12.816,9.343,12.816,12.461-.964-2.314-9.477,1.439-11.525,3.151-4.167,3.484-6.235,9.855-6.711,15.084,0-3.259.664,5.619.76,5.977a19.453,19.453,0,0,0,2.887,6.585c3.975,4.9,10.627,4.843,16.932,4.78,11.535-.114,23.507-3.8,32.235-11.552,4.615,13.291,22.5,17.065,34.733,14.506C687.742,491,699.224,478.715,706.8,465.8c38.336,35.69,126.938-46.919,77.521-79.311C809.617,377.465,817.337,348.279,804.469,325.915Z" transform="translate(-511.418 -224.846)"/><g transform="translate(15.213 70.908)"><path class="s" d="M690.5,339.585a32.347,32.347,0,0,1-6.633-9.485c-3.068-7.329-2.619-15.937.078-23.264,2.725-7.4,8.517-13.78,15.944-16.385a22.021,22.021,0,0,1,19.348,2.362c5.668,3.866,10.592,8.011,12.852,14.645,2.225,6.53,4.155,13.318,3.836,20.195-.652,14.09-14.968,23.03-28.335,21.088C701.167,347.808,695,344.2,690.5,339.585Z" transform="translate(-576.164 -289.222)"/><g transform="translate(86.811 67.335)"><path class="t" d="M665.089,420.91c-6.75,7.4-11.289,16.987-14.664,26.835a6.664,6.664,0,0,0-.505,2.581,5.717,5.717,0,0,0,1.533,3.109c8.5,10.4,21.392,15.2,34.086,15.949s25.4-2.118,37.941-4.974c4.929-1.123,9.919-2.268,14.476-4.731,8.377-4.526,14.554-13.117,19.143-22.219a31.566,31.566,0,0,0,3.146-8.983c.5-3.043-.964-5.647-2.627-8.051-4.112-5.946-10.491-8.542-16.48-11.934-7.589-4.3-14.265-6.367-22.822-4.136-5.385,1.4-10.561,3.971-16.058,4.763-6.078.875-12.128-.8-18.184.372C676.94,410.866,670.281,415.219,665.089,420.91Z" transform="translate(-649.911 -403.445)"/></g><path class="t" d="M772.081,540.561c-1.4,7.389-11.292,11.3-17.951,12.134-5.571.7-10.716,2.318-16.244,3.417q-6.03,1.2-12.13,1.941c-6.43.781-13.31,2.187-19.869.89-3.486-.689-8.334-2.351-10.211-5.863-1.577-2.953-2.021-7.633-2.317-10.924-1.577-17.476-.545-35.237-3.657-52.482-1.549-8.584-2.76-16.566,6.185-20.54,9.106-4.046,18.546-7.594,28.378-8.577a46.044,46.044,0,0,1,17.769,1.527c3.507,1.052,10.572,2.876,12.813,6.121,3.569,5.166,4.839,14.266,6.418,20.365,1.932,7.46,3.572,15,5.213,22.535l5.512,25.317A10.271,10.271,0,0,1,772.081,540.561Z" transform="translate(-578.99 -359.45)"/><path class="u" d="M728.544,389.2c3.648-1.513,8.943-3.732,12.408-.644,3.441,3.066,4.379,12.009,1.794,16.084-3.156,4.976-10.327,5.813-15.734,3.762-4.17-1.582-6.068-7.074-6.2-11.248C720.669,392.944,725.049,390.646,728.544,389.2Z" transform="translate(-592.203 -329.359)"/><path class="u" d="M691.2,333.085a36.176,36.176,0,0,0,3.183,12.848c1.147,2.5,5.136,10.885,14.17,15.292,2.614,1.275,6.246,3.047,10.987,2.445,7.865-1,12.372-7.718,13.3-9.18,3.12-4.93,3.252-9.713,3.466-17.438.225-8.144.36-13.032-2.028-18.66-.91-2.146-6.8-15.265-19.663-16.515-11-1.069-18.32,7.395-18.791,7.958C687.541,319.743,691,332.379,691.2,333.085Z" transform="translate(-579.687 -294.378)"/><path class="v" d="M697.959,316.919c-3.711.03-8.045-1.017-9.556-4.6-1.389-3.3.326-7.128,2.427-9.977,7.133-9.676,19.987-14.747,30.981-10.837,3.78,1.345,7.874,4.546,6.74,9.361-.818,3.472-4.255,3.926-6.651,5.884C714.614,312.7,707.479,316.841,697.959,316.919Z" transform="translate(-578.695 -289.613)"/><path class="v" d="M750.843,317.673a10.344,10.344,0,0,0,6.072,2.861,5.1,5.1,0,0,0,5.2-3.661,8.413,8.413,0,0,0-.418-4.078c-2.11-7.5-5.413-15.234-11.751-19.272-6.314-4.022-9.833,3.124-8.484,9.1C742.714,308.179,746.718,314.148,750.843,317.673Z" transform="translate(-600.564 -290.507)"/><path class="v" d="M687.922,338.528a3.749,3.749,0,0,1-2.73,1.4,4.5,4.5,0,0,1-2.891-1.32c-3.083-2.754-4.078-7.365-4.024-11.634.05-3.993,1.52-14.225,6.476-14.834,7.019-.861,6.6,11.542,6.011,15.925q-.392,2.911-.979,5.788a12.069,12.069,0,0,1-1.332,3.953A5.329,5.329,0,0,1,687.922,338.528Z" transform="translate(-574.744 -298.613)"/><path class="u" d="M690.78,360.126a2.645,2.645,0,0,0-2.369-.536,3.727,3.727,0,0,0-2.389,3.5,8.1,8.1,0,0,0,1.3,4.338,6.987,6.987,0,0,0,1.388,1.807,4.065,4.065,0,0,0,4.75.38" transform="translate(-577.922 -318.072)"/><path class="u" d="M766.438,340.13a2.749,2.749,0,0,1,2.05-1.366,3.541,3.541,0,0,1,3.381,2.413,8.228,8.228,0,0,1,.19,4.547,7.323,7.323,0,0,1-.716,2.2,4.169,4.169,0,0,1-4.336,2.087" transform="translate(-610.935 -309.553)"/><path class="w" d="M593.474,469.4a6.337,6.337,0,0,1-5.525,1.577,9.219,9.219,0,0,1-4.38-3.318c-3.881-4.59-5.96-9.842-8.887-15.009-3.071-5.422-5-11.914-6.64-17.985-1.293-4.785-5.493-16.672,1.232-19.571,2.416-1.041,5.813,2.289,7.266,3.992a44.747,44.747,0,0,1,4.621,7.129,46.718,46.718,0,0,0,4.857,6.258,50.2,50.2,0,0,1,11.649,22.144,16.564,16.564,0,0,1,.71,6.881,12.773,12.773,0,0,1-2.349,5.156A13.748,13.748,0,0,1,593.474,469.4Z" transform="translate(-528.473 -340.812)"/><path class="x" d="M519.324,491.7" transform="translate(-509.494 -372.339)"/><g transform="translate(24.191 43.035)"><path class="y" d="M576.345,413.115c-1.613-5.406-3.41-10.749-5.206-16.09-.657-1.952-1.553-4.157-3.43-4.748a5.947,5.947,0,0,0-2.675,0l-4.441.672c-1.961.3-4.1.693-5.39,2.285-1.427,1.763-1.307,4.387-.819,6.651,1.376,6.378,4.957,11.937,8.465,17.325.638.98,1.569,2.089,2.661,1.8" transform="translate(-547.94 -374.496)"/><path class="z" d="M564,382.464c-3.576-5.631-5.446-12.068-8.046-18.207a4.084,4.084,0,0,0-.972-1.576c-.95-.81-1.724-.137-2.135.834-1.363,3.217.479,6.479,1.578,9.4,1.519,4.045,2.616,8.951,5,12.518" transform="translate(-547.247 -362.263)"/><path class="aa" d="M557.178,388.849c-1.248-1.678-2.7-3.075-3.868-4.914-1.4-2.2-2.72-4.47-4.054-6.721-.858-1.449-2.937-4.028-4.054-1.4-1.084,2.555,1.342,5.739,2.493,7.88a79.937,79.937,0,0,0,4.9,7.961" transform="translate(-544.196 -367.338)"/><path class="y" d="M553.808,398.178l-5.943-8.349a5.821,5.821,0,0,0-2.73-2.482,1.206,1.206,0,0,0-.875.012c-.578.284-.634,1.125-.536,1.791a18.279,18.279,0,0,0,1.611,4.811A120.692,120.692,0,0,0,554.2,410.2" transform="translate(-543.686 -372.505)"/><path class="ab" d="M572.214,381.688l-.315-8.663c-.075-2.062-.15-4.127-.384-6.174a9.339,9.339,0,0,0-1.031-3.736,1.562,1.562,0,0,0-1.159-.891c-.933-.047-1.382,1.114-1.49,2.015-.673,5.649.155,11.286-.545,16.954" transform="translate(-553.375 -362.224)"/><path class="r" d="M561.361,391.864a3.885,3.885,0,0,1,4.407,1.488,6.278,6.278,0,0,1,.871,4.985,10.6,10.6,0,0,1-2.406,4.516,7.382,7.382,0,0,1-2.417,2,3.387,3.387,0,0,1-2.991.036,4.559,4.559,0,0,1-1.278-1.121c-1.639-1.942-2.651-4.769-1.721-7.18a8.614,8.614,0,0,1,3.493-3.783c1.245-.841,2.887-1.6,4.122-.739" transform="translate(-548.524 -374.301)"/><path class="y" d="M583.108,402c-.831-5.8-1.554-11.764-.871-17.588a1.608,1.608,0,0,0-1.908-.922,3.6,3.6,0,0,0-1.836,1.385,10.643,10.643,0,0,0-2.014,8.472" transform="translate(-557.07 -370.932)"/></g><path class="x" d="M559.306,546.088" transform="translate(-525.907 -394.666)"/><path class="t" d="M601.375,455.453l-18.6-31.955a6.5,6.5,0,0,0-2.453-2.8c-1.82-.88-5.054,1.339-6.533,2.321-4.628,3.072-9.563,6.747-7.459,12.892,2.933,8.568,6.326,17.065,9.755,25.418a117.412,117.412,0,0,0,10.247,19.532c3.339,5.12,6.582,12.908,12.359,15.345,6.214,2.62,15.944-2.529,21.769-4.845,9.983-3.97,18.041-13.918,22.315-24.108,2.489-5.935,4.381-14.674.824-20.653-1.539-2.587-5.4-4.464-7.917-5.739a34.337,34.337,0,0,0-9.443-3.183,3.5,3.5,0,0,0-1.493-.04,4.036,4.036,0,0,0-2.037,1.853c-4.667,6.784-9.594,13.362-14.519,19.938-1.444,1.928-2.607,3.257-4.151.6Z" transform="translate(-528.586 -343.111)"/><g transform="translate(110.584 108.768)"><path class="ac" d="M732.245,490.322c-1.889-.59-3.852-.637-5.726-1.175a30.526,30.526,0,0,1-5.774-2.615c-3.634-1.945-7.083-4.257-10.75-6.137-4.985-2.555-10.017-5.209-15.483-6.427a6.234,6.234,0,0,0-2.252-.2,2.483,2.483,0,0,0-1.866,1.216,1,1,0,0,0-.1.838,1.164,1.164,0,0,0,.4.437c4.143,3.188,8.806,5.146,12.765,8.717,1.961,1.768,1.051,3.611.959,6.064a9.893,9.893,0,0,0,1.842,6.123,15.952,15.952,0,0,0,4.851,4.039c6.162,3.729,12.221,6.253,19.467,6.046" transform="translate(-690.24 -473.732)"/><path class="ac" d="M714.674,493.17a8.688,8.688,0,0,0-2.491-1.262,2.874,2.874,0,0,0-2.63.5,4.9,4.9,0,0,0-1.18,3.042,2.357,2.357,0,0,0-.006.95,2.069,2.069,0,0,0,.913,1.062,16.105,16.105,0,0,0,4.085,2.069" transform="translate(-697.662 -481.147)"/><path class="ac" d="M714.857,501.523a23.076,23.076,0,0,0-4.589-.887,2.141,2.141,0,0,0-1.735.379,1.874,1.874,0,0,0-.474,1.1,3.631,3.631,0,0,0,1.438,3.378,6.37,6.37,0,0,0,1.8.772l3.614,1.125" transform="translate(-697.542 -484.765)"/><path class="ac" d="M716.383,508.674a12.729,12.729,0,0,0-4.246-.417,2.128,2.128,0,0,0-1.422.5,1.675,1.675,0,0,0-.414,1.217,2.907,2.907,0,0,0,1.25,2.174,6.317,6.317,0,0,0,2.313.941,30.732,30.732,0,0,1,7.111,2.891" transform="translate(-698.474 -487.891)"/></g><path class="t" d="M815.73,449.636a65.944,65.944,0,0,1,5.383,9.645c3.507,8.061,2.769,18.732-1.407,26.361-4.9,8.95-15.365,8.176-23.872,7.254a130.894,130.894,0,0,1-22.206-4.339c-3.574-1.03-7.279-1.366-10.852-2.552a92.03,92.03,0,0,1-9.886-4c-2.5-1.166-7.406-1.638-7.447-5.543a23.856,23.856,0,0,1,2.569-11.011,2.973,2.973,0,0,1,3.455-2.2c9.369.59,18.7,1.838,28.054,2.395,2.433.145,5.55,1.253,7.892.146,1.537-.727,1.231-1.373.251-2.462a47.816,47.816,0,0,1-3.532-4.534c-4.913-6.967-9.911-13.96-13.475-21.833-2.615-5.778-8.98-15.21-6.508-22,4.392-12.062,20.355-4.388,26.934,1.084a71.488,71.488,0,0,1,16.5,20.8C810,441.309,812.972,445.4,815.73,449.636Z" transform="translate(-602.316 -338.208)"/><path class="x" d="M755.334,499.946c10.689,2.9,25.187,1.95,36.14,3.361" transform="translate(-606.377 -375.725)"/><path class="x" d="M802.893,480.538q-5.282-8.8-9.883-18.03" transform="translate(-621.843 -360.356)"/><path class="x" d="M689.729,474.044c.9,10.907.429,21.273,1.945,32.638" transform="translate(-579.446 -365.092)"/><path class="ad" d="M745.839,528.121c11.938,9.631,30.32,9.878,44.819,14" transform="translate(-602.479 -387.29)"/><path class="x" d="M824.912,508.486a11.04,11.04,0,0,0-9.972-4.533,12.617,12.617,0,0,1,10.383-3.777" transform="translate(-630.845 -375.784)"/><g transform="translate(0 14.821)"><path class="w" d="M538.842,382.47c-2.808-.945-5.707-1.563-8.489-2.4-4.406-1.333-8.489-4.424-12.67-6.352-4.59-2.117-9.938-3.953-15.033-3.232,2-8.913,5.916-17.789,8.834-26.462,1.992-5.919,3.278-11.319,6.771-16.69.876-1.346,10.668-14.017,12.045-12.9,7.411,6.026,16.95,12.821,26.366,15.125-1.655,4.6-3.144,9.306-4.706,13.95C551.009,346.331,538.881,382.4,538.842,382.47Z" transform="translate(-502.649 -314.363)"/><line class="x" x1="23.954" y1="8.06" transform="translate(19.026 17.797)"/><line class="x" x1="23.954" y1="8.06" transform="translate(18.029 20.761)"/><line class="x" x1="23.954" y1="8.06" transform="translate(17.174 23.302)"/><line class="x" x1="23.954" y1="8.06" transform="translate(9.836 45.11)"/><line class="x" x1="23.954" y1="8.06" transform="translate(8.642 48.658)"/><line class="x" x1="23.954" y1="8.06" transform="translate(7.876 50.935)"/><line class="x" x1="23.954" y1="8.06" transform="translate(20.058 14.731)"/><g transform="translate(28.689 41.135)"><line class="ae" x2="2.776" y2="7.209" transform="translate(2.627)"/><line class="af" x1="7.209" y2="2.776" transform="translate(0 2.17)"/></g></g></g><g transform="translate(183.837 101.024)"><path class="k" d="M877.037,562.211c-1.293,8.943-4.726,11.057-12.213,11.761-14.371,1.353-28.872-.542-42.922-4.395a9.945,9.945,0,0,1-4.046-1.833c-2.925-2.523-3.137-7.547-2.975-11.85a336.045,336.045,0,0,1,7.882-59.543c1.778-8.071,3.9-16.282,8.258-22.808s11.571-12.776,18.728-13.4c11.974-1.045,22.251,18.182,25.31,29.628a134.2,134.2,0,0,1,4.226,35.717C879.181,537.431,878.739,550.44,877.037,562.211Z" transform="translate(-799.429 -389.484)"/><path class="ag" d="M846.476,419.112c-11.2.407-26.379,1.262-31.428-10.83a71.666,71.666,0,0,1-5.789-27.247c0-7.814,2.9-16.929,4.744-24.589,1.648-6.835,11.615-11,18.138-12.018,5.6-.877,10.481,2.353,15.912,1.856,5.161-.472,8.7.084,12.778,3.956a33.124,33.124,0,0,1,7.075,10.79c6.526,14.677,3.861,30.863-2.2,45.018C862.237,414.168,855.3,418.791,846.476,419.112Z" transform="translate(-797.137 -341.938)"/><path class="ah" d="M847.2,464.15c-2.97.187-8.784.984-9.519-3.4a6.375,6.375,0,0,1,.808-3.318c2.434-6.034.81-12.9,1.729-19.336.875-6.131,3.846-4.938,8.747-3.583a7.228,7.228,0,0,1,3.4,1.752,9.671,9.671,0,0,1,2.289,5.362c.571,4.029,1.563,9.089,1.334,13.106a9.712,9.712,0,0,1-7.53,9.257A9.148,9.148,0,0,1,847.2,464.15Z" transform="translate(-808.791 -378.531)"/><path class="ai" d="M842.158,351.018a22.89,22.89,0,0,1,10.627,13.9c1.941,7.188-2.02,14.585-3.284,21.765a31.47,31.47,0,0,1-16.682,21.781,23.694,23.694,0,0,1-6.249,1.746c-3.291.577-6.791,1.021-9.881-.25-9.225-3.795-9.627-15.21-10.057-23.66a56.957,56.957,0,0,1,4.559-25.429c2.767-6.387,6.164-10.936,13.278-12.448A26.016,26.016,0,0,1,842.158,351.018Z" transform="translate(-796.028 -343.418)"/><path class="aj" d="M809.806,366.145a18.981,18.981,0,0,1-4.517-.749,4.46,4.46,0,0,1-1.614-.758,3.835,3.835,0,0,1-1.045-1.576c-1.217-3.068-.336-6.649,1.473-9.41a27.134,27.134,0,0,1,12.421-10.2c7.62-2.881,16.89-5.065,24.171-.557,1.171.725,2.406,1.627,2.7,2.972a3.685,3.685,0,0,1-.981,3.117,10.894,10.894,0,0,1-2.7,2.023c-2.9,1.733-6.139,3.25-8.77,5.3-3.547,2.767-6.31,5.814-10.531,7.713A23.485,23.485,0,0,1,809.806,366.145Z" transform="translate(-794.185 -340.309)"/><path class="ai" d="M812.2,596.818a23.327,23.327,0,0,1-1.628,5.561c-3.329,7.16-10.09,5.562-15.575,2.982-5.578-2.624-4.958-15.082-4.59-21.05l2.685-43.491c.313-5.064-.733-10.925,4.106-12.891,3.831-1.557,8.6-.875,12.5-.008,3.23.717,7.876,2.38,8.954,6.367,1.118,4.134-.259,11.649-.519,16.008a193.392,193.392,0,0,1-2.987,24.228c-1.285,6.821-1.444,13.313-2.567,20.094C812.46,595.349,812.338,596.086,812.2,596.818Z" transform="translate(-789.306 -416.946)"/><path class="k" d="M818.894,513.21a83.3,83.3,0,0,1,5.328-15.451c1.643-3.79,2.792-7.411,5.036-10.866,2.429-3.74,4.9-7.712,6.946-11.686a4.6,4.6,0,0,0,.693-2.866c-1.317-7-13.975-3.753-17.788-2.433A43.134,43.134,0,0,0,796.345,489.2c-4.164,7.44-6.227,15.866-7.649,24.273a167.188,167.188,0,0,0,26.6,3.166,3.924,3.924,0,0,0,1.859-.234C818.291,515.858,818.629,514.44,818.894,513.21Z" transform="translate(-788.696 -392.725)"/><path class="aj" d="M875.34,386.065c-.246-.957-.529-1.885-.848-2.775-1.731-4.833-4.987-9.219-6.464-14.058-1.507-4.935-2.442-9.5-5.351-13.979-2.962-4.56-8.544-12.2-14.1-13.746-7.957-2.211-24.6,4.219-28.138,11.746-3.341,7.1,1.6,16.228,6.411,21.224,2.987,3.1,6.351,4.531,10.331,5.86,2.69.9,4.207,1.414,5.31,4.216,2.479,6.3-4.353,11.7-5.3,17.647-1.111,6.973,1.651,15.168,7.065,19.726,8.9,7.488,20.529,3.249,26.675-5.514C876.571,408.376,877.819,395.71,875.34,386.065Z" transform="translate(-801.279 -340.62)"/><path class="ak" d="M854.791,409.406a4.5,4.5,0,0,1,2.342-2.107c2.5-1.045,4.993.914,5.557,3.439a6.879,6.879,0,0,1-1.83,5.991,3.429,3.429,0,0,1-1.938,1.2,1.6,1.6,0,0,1-1.806-1.089" transform="translate(-815.828 -367.691)"/></g><path class="x" d="M849.123,510.232l-8.673,22.1" transform="translate(-626.104 -309.039)"/></g></g></g><g transform="translate(924.032 243.747)"><path class="al" d="M1259.34,308.116a47.728,47.728,0,0,1,2.979,11.583c.828,5.792-1.986,10.922-2.151,16.548-.331,8.439,7.777,15.059,15.886,12.08,6.619-2.482,12.907-9.1,20.023-6.288,4.468,1.82,9.267,6.454,14.231,2.317a49.172,49.172,0,0,0,5.984-5.661,38.789,38.789,0,0,0,.293-4.769c0-20.545-16.115-37.2-36-37.2a35.155,35.155,0,0,0-23.052,8.631A7.827,7.827,0,0,1,1259.34,308.116Z" transform="translate(-1244.591 -296.725)"/><path class="am" d="M1301.293,350.366c-4.964,4.137-9.763-.5-14.231-2.317-7.116-2.813-13.4,3.806-20.023,6.288-8.109,2.979-16.216-3.641-15.886-12.08.166-5.626,2.979-10.756,2.151-16.548a47.712,47.712,0,0,0-2.979-11.583,7.818,7.818,0,0,0-1.8-2.759,37.622,37.622,0,0,0-12.943,28.569c0,20.545,16.116,37.2,36,37.2,18.317,0,33.438-14.139,35.7-32.432A49.179,49.179,0,0,1,1301.293,350.366Z" transform="translate(-1235.578 -302.736)"/></g><path class="an" d="M815.611,431a6.105,6.105,0,0,1,4.992,2.74" transform="translate(-139.148 -108.097)"/><path class="ao" d="M1042.884,623.1a16.783,16.783,0,0,1,15.244,3.576" transform="translate(-232.444 -186.729)"/><path class="an" d="M740.905,391.357c-.132-.018-.647-1.023-.762-1.176a10.139,10.139,0,0,0-.96-1.1,7.42,7.42,0,0,0-2.31-1.748,5.853,5.853,0,0,0-3.966-.056,7.009,7.009,0,0,0-2.373,1.245,7.377,7.377,0,0,0-2.34,3.352C732.217,390.4,736.66,390.771,740.905,391.357Z" transform="translate(-103.263 -90.016)"/></g></svg>