<svg xmlns="http://www.w3.org/2000/svg" xmlns:xlink="http://www.w3.org/1999/xlink" width="369.903" height="378.614" viewBox="0 0 369.903 378.614">
  <defs>
    <clipPath id="clip-path">
      <path id="Path_6" data-name="Path 6" d="M706.8,535.988c-23.14,11.972-83.9-30.027-108.058-86.447-33.51-78.252,14.587-158.067,19.733-166.315,39.826-63.859,126.513-120.01,210.478-94.9,6.923,2.07,82.84,26.177,104.3,101.48,16.217,56.906-5.4,119.4-43.223,148.462-20.521,15.77-51.015,25.7-53.936,26.628-26.253,8.383-34.068,4.772-62.258,15.575-16.468,6.31-32.252,12.55-46.363,27.33C712.875,523.084,715.233,531.624,706.8,535.988Z" transform="translate(-586.957 -182.201)" fill="none"/>
    </clipPath>
    <linearGradient id="linear-gradient" x1="0.591" y1="-0.207" x2="0.357" y2="1.212" gradientUnits="objectBoundingBox">
      <stop offset="0" stop-color="#2a7195"/>
      <stop offset="1" stop-color="#99cbcf"/>
    </linearGradient>
    <linearGradient id="linear-gradient-2" x1="0.7" y1="1.084" x2="0.361" y2="0.429" xlink:href="#linear-gradient"/>
    <linearGradient id="linear-gradient-3" x1="0.538" y1="0.354" x2="0.334" y2="1.011" gradientUnits="objectBoundingBox">
      <stop offset="0" stop-color="#faebd8"/>
      <stop offset="1" stop-color="#ffb83f"/>
    </linearGradient>
    <linearGradient id="linear-gradient-4" x1="0.487" y1="0.494" x2="0.359" y2="1.008" xlink:href="#linear-gradient-3"/>
    <linearGradient id="linear-gradient-5" x1="0.36" y1="0.053" x2="0.631" y2="0.919" xlink:href="#linear-gradient-3"/>
    <linearGradient id="linear-gradient-6" x1="0.463" y1="-0.081" x2="0.54" y2="1.139" gradientUnits="objectBoundingBox">
      <stop offset="0" stop-color="#2a7195"/>
      <stop offset="0.333" stop-color="#296e92"/>
      <stop offset="0.513" stop-color="#26668b"/>
      <stop offset="0.657" stop-color="#21597f"/>
      <stop offset="0.781" stop-color="#1a456d"/>
      <stop offset="0.891" stop-color="#112c57"/>
      <stop offset="0.992" stop-color="#060e3b"/>
      <stop offset="1" stop-color="#060c39"/>
    </linearGradient>
    <linearGradient id="linear-gradient-7" x1="0.45" y1="0.077" x2="0.537" y2="0.819" gradientUnits="objectBoundingBox">
      <stop offset="0" stop-color="#ff9077"/>
      <stop offset="1" stop-color="#e9645a"/>
    </linearGradient>
  </defs>
  <g id="gloria1" transform="translate(9.425 -52.802)">
    <g id="Group_9" data-name="Group 9" transform="translate(-9.001 53.217)">
      <g id="Group_2" data-name="Group 2" transform="translate(17.734 22.362)">
        <g id="Group_1" data-name="Group 1" clip-path="url(#clip-path)">
          <path id="Path_2" data-name="Path 2" d="M831.363,470.874c-61.414,6.563-120.953,12.658-178.617,34.223-24.109,8.948-44.264,22.9-62,40.19a144.475,144.475,0,0,0,10.007,35.188c24.161,56.42,84.918,98.418,108.058,86.447,8.436-4.364,6.079-12.9,20.672-28.19,14.111-14.78,29.9-21.02,46.363-27.33,28.19-10.8,36-7.192,62.258-15.575,2.921-.932,33.414-10.858,53.936-26.628,36.063-27.713,57.4-85.827,45.238-140.506-4.3,3.67-8.909,7.075-13.555,10.3C894.652,458.216,864.18,467.124,831.363,470.874Z" transform="translate(-588.968 -313.135)" fill="url(#linear-gradient)"/>
          <path id="Path_3" data-name="Path 3" d="M828.952,188.324c-83.964-25.108-170.651,31.044-210.478,94.9-4.371,7.007-39.735,65.66-29.739,131.127,17.74-17.286,37.9-31.242,62-40.19C708.4,352.6,767.941,346.5,829.355,339.94c32.817-3.75,63.289-12.658,92.356-31.879,4.645-3.226,9.254-6.631,13.555-10.3q-.888-3.991-2.015-7.956C911.791,214.5,835.875,190.394,828.952,188.324Z" transform="translate(-586.96 -182.201)" fill="url(#linear-gradient-2)"/>
          <path id="Path_4" data-name="Path 4" d="M972.179,710.313c-10.4,1.325-20.028-.519-25.323-10.731a35.463,35.463,0,0,1-2.515-7.27c-1.187-4.45-1.54-8.8-2.316-13.338-.939-5.492-1.622-11-2.562-16.489-1.892-11.042-5.257-21.877-7.884-32.812-1.733-7.216-3.612-14.393-5.565-21.552-1.654-6.059.143-11.846,2.89-17.466,1.463-2.993,4.107-5.623,5.984-8.326,5.908-8.508,11.884-16.958,18.023-25.262,6.6-8.93,13.652-18.5,23.2-23.636,12.626-6.793,36.316,1.171,42.488,15.838,3.607,8.573,2.956,18.495,2.523,27.947-.6,13.117-.431,26.257-.081,39.379.339,12.68-.408,25.779,3.213,37.939,1.322,4.439,3.07,8.884,2.929,13.557a26.283,26.283,0,0,1-.885,5.581c-3.148,12.552-8.145,21.022-18.733,26.932a96.927,96.927,0,0,1-14.637,6.8C985.965,709.886,979.228,709.415,972.179,710.313Z" transform="translate(-766.724 -367.467)" fill="#f68f78"/>
          <path id="Path_5" data-name="Path 5" d="M937.149,718.578c.017-.408.671-.139.879.212a199.735,199.735,0,0,1,16.441,35.224" transform="translate(-772.975 -467.009)" fill="none" stroke="#100052" stroke-linecap="round" stroke-linejoin="round" stroke-width="0.902"/>
        </g>
      </g>
      <g id="Group_3" data-name="Group 3" transform="translate(254.083 310.375)">
        <path id="Path_7" data-name="Path 7" d="M1106.14,802.373a24.4,24.4,0,0,1,1.523,5.922c.423,2.961-1.015,5.583-1.1,8.46a6.141,6.141,0,0,0,8.122,6.176c3.384-1.269,6.6-4.653,10.237-3.215,2.284.931,4.737,3.3,7.275,1.185a25.127,25.127,0,0,0,3.059-2.894,19.778,19.778,0,0,0,.15-2.438c0-10.5-8.239-19.019-18.4-19.019a17.973,17.973,0,0,0-11.786,4.413,4,4,0,0,1,.92,1.41Z" transform="translate(-1098.601 -796.549)" fill="url(#linear-gradient-3)"/>
        <path id="Path_8" data-name="Path 8" d="M1124.7,825.9c-2.538,2.115-4.991-.254-7.275-1.185-3.638-1.438-6.853,1.946-10.237,3.215a6.141,6.141,0,0,1-8.122-6.176c.084-2.877,1.523-5.5,1.1-8.46a24.4,24.4,0,0,0-1.523-5.922,4,4,0,0,0-.923-1.411,19.233,19.233,0,0,0-6.617,14.606c0,10.5,8.239,19.019,18.4,19.019a18.626,18.626,0,0,0,18.253-16.581,25.157,25.157,0,0,1-3.056,2.895Z" transform="translate(-1091.103 -801.549)" fill="url(#linear-gradient-4)"/>
      </g>
      <path id="Path_9" data-name="Path 9" d="M832.4,411.448c-.215,1.2-.431,2.4-.61,3.6a8.225,8.225,0,0,0,.61-3.6Z" transform="translate(-699.278 -281.613)" fill="#d2e7f9" stroke="#bbdbf9" stroke-linecap="round" stroke-linejoin="round" stroke-width="0.897"/>
      <path id="Path_10" data-name="Path 10" d="M854.582,333.032c-.182-3.431-.871-13.631-8.2-22.641-.365-.478-.744-.954-1.146-1.427a33.691,33.691,0,0,0-15.49-10.278c1.038-18.461-7.275-37.241-21.341-48.081a34.585,34.585,0,0,0-16.365-7.217,52.2,52.2,0,0,0-15.95,11.332,128.011,128.011,0,0,0-35.4,67.456,8.226,8.226,0,0,1-.61,3.6c.179-1.2.4-2.4.61-3.6a9.612,9.612,0,0,0-4.5-7.107c-8.76-9.733-23.361-13.627-35.041-5.84s-13.627,22.388-12.654,36.015c-4.867-3.893-8.761-2.92-12.654.973-8.76,5.84-13.627,14.6-15.574,25.308A87.366,87.366,0,0,0,659.13,382.7c.723.3,1.449.6,2.173.884,12.8,5.012,28.027,8.249,39.507.769-.317,1.963.7,4.062,2.217,5.824a14.662,14.662,0,0,0,3.806,3.574c20.5,13.206,49.636,8.294,65.311-11.01a89.347,89.347,0,0,0,38.635-1.311c11.708-3.053,25.275-6.59,34.849-19.76C847.879,358.571,855.374,347.934,854.582,333.032Z" transform="translate(-607.559 -192.34)" fill="#fff"/>
      <path id="Path_11" data-name="Path 11" d="M617.4,288.378c3.893-3.893,7.787-4.867,12.654-.973-.974-13.627.973-28.228,12.654-36.015s26.281-3.893,35.041,5.84a9.612,9.612,0,0,1,4.5,7.107,128.01,128.01,0,0,1,35.4-67.456A52.2,52.2,0,0,1,733.6,185.548a20.854,20.854,0,0,0-10.043,1.1c-1.549-6.149-8.555-31.324-30.2-44.068-5.153-3.034-19.249-11.334-32.424-6.7-.137-.443-14.142,1.279-24.369,9.091-13.664,10.438-17.081,29.071-18.046,39.249-7.767-8.573-20.939-9.721-31.156-4.88s-17.741,14.628-22.84,25.233c-4.6,9.575-6.869,22.862.826,29.826-8.731,3.238-14.691,12.6-15.939,22.366a42.936,42.936,0,0,0,3.06,21.117,2.991,2.991,0,0,0-.3.065,57.667,57.667,0,0,0,3.011,6.163,48.747,48.747,0,0,0,4.533,6.671c6.845,8.861,16.779,15.326,27.128,13.9-1.451,4.2.082,9.208,2.958,12.591.274.375.559.739.863,1.081,2.719,3.052,6.324,4.951,10.023,6.508a87.378,87.378,0,0,1,1.132-11.179C603.777,302.979,608.643,294.218,617.4,288.378Z" transform="translate(-549.13 -134.502)" fill="#d2e7f9" stroke="#bbdbf9" stroke-linecap="round" stroke-linejoin="round" stroke-width="0.897"/>
      <g id="Group_6" data-name="Group 6" transform="translate(113.845 91.459)">
        <g id="Group_4" data-name="Group 4" transform="translate(0 27.194)">
          <path id="Path_12" data-name="Path 12" d="M823.754,542.5c8.9-6.41,19.337-17.622,30.231-19.98,10.679-2.312,20.664,2.81,20.226,14.652a27.854,27.854,0,0,1-3.928,12.531c-8.905,15.725-26.621,26.544-44.44,28.559-5.144.581-10.541.439-15.235-1.744-4.207-1.956-9.755-6.542-11.594-10.948-1.867-4.474-2.412-11.131-2.335-15.958.246-15.368,2.546-30.593,4.573-45.8,1.028-7.711,1.994-15.436,2.591-23.194.226-2.945.856-5.518.586-8.464-.263-2.865-.953-6.127.663-8.743,1.5-2.427,4.826-4.27,7.53-4.878,9.6-2.16,11.284,8.709,10.89,15.572-1.18,20.55.047,43.805,5.915,63.62.123.416,2.705-1.092,2.37-1.368s-.829-.009-1.172.256C826.839,539.532,827.539,539.587,823.754,542.5Z" transform="translate(-794.467 -425.13)" fill="#e28b3d" stroke="#100052" stroke-linecap="round" stroke-linejoin="round" stroke-width="0.902"/>
          <path id="Path_13" data-name="Path 13" d="M803.591,454.571c-3.558-3.128-5.675-7.746-6.671-12.264-1.005-4.562-4.678-10.637-.815-14.8,2.021-2.179,4.185-4.538,6.928-5.638,1.583-.635,2.33-.034,3.9.137,1.524.165,3.065-.1,4.575.257,5.665,1.329,6.381,6.113,7.567,10.848.666,2.662,1.23,5.351,1.647,8.063.4,2.617,1.1,5.179,1.432,7.8" transform="translate(-793.247 -405.649)" fill="#e28b3d" stroke="#100052" stroke-linecap="round" stroke-linejoin="round" stroke-width="0.902"/>
          <path id="Path_14" data-name="Path 14" d="M825.679,411.56c-.458-1.735-1.075-3.28-1.424-5.043q-.542-2.745-1.208-5.465c-.247-1.007-.506-2.012-.85-2.99-1.215-3.447-4-7.888-7.612-9.152a24.872,24.872,0,0,0-3.614-1.265c-1.83-.34-2.842,1.09-1.718,2.81a5.255,5.255,0,0,0,1.967,1.618,8.851,8.851,0,0,1,3.421,2.885c2.1,3.007.944,6.721,1.25,10.081" transform="translate(-800.9 -387.596)" fill="#e28b3d" stroke="#100052" stroke-linecap="round" stroke-linejoin="round" stroke-width="0.902"/>
          <path id="Path_15" data-name="Path 15" d="M816.9,421.232c-.94-1.645-1.743-4.762-3.564-5.611-.784-.365-5.826.858-5.256,1.843a33.054,33.054,0,0,1,2.781,6.028,1.5,1.5,0,0,0-.078-.525" transform="translate(-800.501 -402.447)" fill="#e28b3d" stroke="#100052" stroke-linecap="round" stroke-linejoin="round" stroke-width="0.902"/>
          <path id="Path_16" data-name="Path 16" d="M806.959,427.229a8.194,8.194,0,0,0-3.531-6.266,1.52,1.52,0,0,0-.78-.32,1.674,1.674,0,0,0-.757.228c-1.247.6-2.689,1.517-2.626,2.9a3.447,3.447,0,0,0,.325,1.153q.788,1.885,1.747,3.692a.87.87,0,0,0,.376.433c.18.077.443-.034.434-.229" transform="translate(-795.844 -405.15)" fill="#e28b3d" stroke="#100052" stroke-linecap="round" stroke-linejoin="round" stroke-width="0.902"/>
          <path id="Path_17" data-name="Path 17" d="M799.344,432.116a15.92,15.92,0,0,0-2.921-4.286,1.293,1.293,0,0,0-.91-.516,1.338,1.338,0,0,0-.732.362,7.729,7.729,0,0,0-2.406,2.585c-1.072,2.278.232,4.355,1,6.465" transform="translate(-791.969 -408.693)" fill="#e28b3d" stroke="#100052" stroke-linecap="round" stroke-linejoin="round" stroke-width="0.902"/>
        </g>
        <path id="Path_18" data-name="Path 18" d="M879.35,566.582a58.657,58.657,0,0,0,8.625,8.508c8.848,7.6,18.007,15.376,29.088,19.015a25.73,25.73,0,0,0,11.748,1.385c6.423-.965,11.933-5.418,15.486-10.855s5.392-11.8,6.812-18.143c1.474-6.577,3.927-14.186,1.71-20.653-2.331-6.8-6.578-12.71-13.161-15.947-11.129-5.473-27.344-5.064-35.875,4.794C894.969,544.872,891.63,559.438,879.35,566.582Z" transform="translate(-838.385 -434.118)" fill="#f68f78"/>
        <g id="Group_5" data-name="Group 5" transform="translate(77.864)">
          <path id="Path_19" data-name="Path 19" d="M1009.69,352.247a28.825,28.825,0,0,1,10.623,19.3c1.066,9.316-5.255,17.782-8.177,26.486a39.628,39.628,0,0,1-24.864,23.988,29.813,29.813,0,0,1-8.109,1c-4.206.1-8.648,0-12.257-2.167-10.775-6.458-9.131-20.749-8.079-31.351a71.73,71.73,0,0,1,10.449-30.8c4.645-7.434,9.73-12.46,18.872-13.006A32.76,32.76,0,0,1,1009.69,352.247Z" transform="translate(-958.057 -338.114)" fill="#e28b3d" stroke="#100052" stroke-linecap="round" stroke-linejoin="round" stroke-width="0.902"/>
          <path id="Path_20" data-name="Path 20" d="M981.626,352.586a23.88,23.88,0,0,1-4.828-3.15,5.619,5.619,0,0,1-1.478-1.691,4.832,4.832,0,0,1-.407-2.346c.151-4.153,2.979-7.836,6.463-10.1a34.161,34.161,0,0,1,19.488-5.475c10.245.536,22.039,2.713,28.15,11.6.983,1.429,1.951,3.1,1.61,4.8a4.64,4.64,0,0,1-2.709,3.1,13.719,13.719,0,0,1-4.142.963c-4.221.529-8.724.639-12.8,1.673-5.491,1.394-10.22,3.509-16.048,3.561a29.571,29.571,0,0,1-13.3-2.935Z" transform="translate(-967.008 -329.694)" fill="#100052" stroke="#100052" stroke-linecap="round" stroke-linejoin="round" stroke-width="0.316"/>
          <path id="Path_21" data-name="Path 21" d="M1025.98,399.278c-1.191-9-3.627-17.912-6.025-26.7-2.038-7.473,2.467-11.631,1-18.874-1.277-6.3-3.257-14.365-8.482-18.632-6.482-5.293-17.129-5.98-25.087-5.225-10.609,1.006-17.757,5.545-20.415,16.357-1.1,4.471-.586,9.59,2.442,13.059a5.544,5.544,0,0,1,1.182,1.635,5.463,5.463,0,0,1,.064,2.314c-.331,4.037,1.524,8.9,2.019,12.99.7,5.778,9.36,7.984,4.645,14.3-3.494,4.684-9.077,5.9-12.092,11.507a21.426,21.426,0,0,0-.611,19.056,13.7,13.7,0,0,0,4.361,5.441c2.49,1.727,5.8,1.8,8.539,3.124,3.946,1.912,7.263,4.933,11.419,6.443,11.37,4.132,26.093,3.274,33.1-6.586,3.145-4.425,4.244-9.99,4.57-15.41A77.235,77.235,0,0,0,1025.98,399.278Z" transform="translate(-960.509 -329.59)" fill="#100052" stroke="#100052" stroke-linecap="round" stroke-linejoin="round" stroke-width="0.316"/>
          <path id="Path_22" data-name="Path 22" d="M988.4,433.468a5.665,5.665,0,0,1,3.767-1.244c3.408.059,5.294,3.583,4.666,6.778a8.663,8.663,0,0,1-5.144,5.981,4.317,4.317,0,0,1-2.841.4,2.009,2.009,0,0,1-1.53-2.17" transform="translate(-973.583 -384.107)" fill="#e28b3d"/>
          <path id="Path_23" data-name="Path 23" d="M1051.68,342.976c7.946,7.692,11.956,19.176,12.707,30.579.947,14.377.367,34.312-6.966,47.038a60.615,60.615,0,0,1-18.58,20.09,42.6,42.6,0,0,1-12.02,5.586c-11.8,3.272-37.086-.833-36.588-17.969.214-7.34,3.773-14.146,7.99-20.009,5.755-8,11.474-13.917,14.458-23.538a70.823,70.823,0,0,0,3.167-29.063c-.607-5.2-2.624-13.378.156-18.2,1.985-3.444,3.108-2.162,5.951-1.09,3.982,1.5,7.912,1.251,12.111.464C1040.49,335.659,1046.93,338.38,1051.68,342.976Z" transform="translate(-975.145 -332.597)" fill="#100052" stroke="#100052" stroke-linecap="round" stroke-linejoin="round" stroke-width="0.307"/>
          <path id="Path_24" data-name="Path 24" d="M1115.22,455.171a11.546,11.546,0,0,1-5.8,2.99,5.513,5.513,0,0,1-5.645-2.584c-.851-1.684-.5-3.7-.151-5.553a170.821,170.821,0,0,0,1.332-53.913c-.721-5.341,1.149-19.417,9.064-12.414,9.6,8.5,9.543,25.083,10.129,36.9C1124.7,431.788,1124.51,447.2,1115.22,455.171Z" transform="translate(-1035.181 -357.315)" fill="#100052" stroke="#100052" stroke-linecap="round" stroke-linejoin="round" stroke-width="0.316"/>
        </g>
        <path id="Path_25" data-name="Path 25" d="M945.206,647.789l4.814,2.456a3.264,3.264,0,0,0,2.009.522,3.2,3.2,0,0,0,1.482-.912,85.649,85.649,0,0,0,15.718-19.249" transform="translate(-873.367 -489.486)" fill="none" stroke="#100052" stroke-linecap="round" stroke-linejoin="round" stroke-width="0.902"/>
      </g>
      <ellipse id="Ellipse_1" data-name="Ellipse 1" cx="26.57" cy="26.571" rx="26.57" ry="26.571" transform="translate(137.857 74.901)" fill="url(#linear-gradient-5)"/>
      <g id="Group_7" data-name="Group 7" transform="translate(52.976 116.007)">
        <ellipse id="Ellipse_2" data-name="Ellipse 2" cx="26.57" cy="26.571" rx="26.57" ry="26.571" transform="translate(0 0)" fill="url(#linear-gradient-6)"/>
        <path id="Path_26" data-name="Path 26" d="M721.467,460.606a8.6,8.6,0,0,0-11.617,1.8" transform="translate(-687.479 -422.936)" fill="none" stroke="#fff" stroke-linecap="round" stroke-linejoin="round" stroke-width="1"/>
      </g>
      <g id="Group_8" data-name="Group 8" transform="translate(75.219 39.008)">
        <ellipse id="Ellipse_3" data-name="Ellipse 3" cx="26.57" cy="26.571" rx="26.57" ry="26.571" transform="translate(0 0)" fill="url(#linear-gradient-7)"/>
        <path id="Path_27" data-name="Path 27" d="M751.482,292.817a3.2,3.2,0,0,0,1.688.123c3.673-.435,7.163-1.618,10.862-.589,2.959.836,5.754,2.806,3.559-3.2-1.294-3.539-4.107-7.064-8.283-6.367-3.684.615-7.16,4.8-8.427,8.109a1.6,1.6,0,0,0,.211,1.638,1.273,1.273,0,0,0,.39.286Z" transform="translate(-731.448 -252.23)" fill="#fff"/>
      </g>
      <path id="Path_28" data-name="Path 28" d="M900.684,373.944a3,3,0,0,0-1.39-.079c-3.022.335-5.889,1.206-8.94.487-2.441-.585-4.752-1.986-2.914,2.321,1.083,2.539,3.418,5.06,6.852,4.534,3.03-.464,5.871-3.5,6.9-5.884a.969.969,0,0,0-.5-1.379Z" transform="translate(-728.485 -261.541)" fill="#fff"/>
    </g>
  </g>
</svg>
