<svg xmlns="http://www.w3.org/2000/svg" xmlns:xlink="http://www.w3.org/1999/xlink" width="423.586" height="564.688" viewBox="0 0 423.586 564.688"><defs><style>.a{fill:url(#a);}.b{fill:url(#b);}.c{opacity:0.57;mix-blend-mode:multiply;isolation:isolate;fill:url(#c);}.d{fill:#fff;stroke-width:0.551px;}.d,.e,.f,.g,.j,.m,.n{stroke:#100052;}.d,.e,.f,.g,.i,.j,.l,.m,.n{stroke-linecap:round;stroke-linejoin:round;}.e,.f,.j{fill:#100052;}.e{stroke-width:0.166px;}.f{stroke-width:0.176px;}.g,.k{fill:#e28b3d;}.g,.m{stroke-width:0.473px;}.h{fill:#f68f78;}.i{fill:#d2e7f9;stroke:#bbdbf9;stroke-width:0.471px;}.j{stroke-width:0.159px;}.l,.m,.n{fill:none;}.l{stroke:#fff;stroke-width:0.446px;}.n{stroke-width:3px;}.o{fill:url(#d);}.p{fill:url(#e);}.q{fill:url(#f);}.r{fill:url(#g);}</style><linearGradient id="a" x1="0.319" y1="-0.292" x2="0.655" y2="0.83" gradientUnits="objectBoundingBox"><stop offset="0" stop-color="#faebd8"/><stop offset="1" stop-color="#ffb83f"/></linearGradient><linearGradient id="b" x1="1.204" y1="1.368" x2="0.312" y2="0.45" xlink:href="#a"/><linearGradient id="c" x1="0" y1="0.5" x2="1" y2="0.5" xlink:href="#a"/><linearGradient id="d" y1="0.5" x2="1" y2="0.5" gradientUnits="objectBoundingBox"><stop offset="0" stop-color="#2a7195"/><stop offset="0.333" stop-color="#296e92"/><stop offset="0.513" stop-color="#26668b"/><stop offset="0.657" stop-color="#21597f"/><stop offset="0.781" stop-color="#1a456d"/><stop offset="0.891" stop-color="#112c57"/><stop offset="0.992" stop-color="#060e3b"/><stop offset="1" stop-color="#060c39"/></linearGradient><linearGradient id="e" y1="0.5" x2="1" y2="0.5" gradientUnits="objectBoundingBox"><stop offset="0" stop-color="#2a7195"/><stop offset="1" stop-color="#060c39"/></linearGradient><linearGradient id="f" x1="0.713" y1="-0.573" x2="0.336" y2="1.476" gradientUnits="objectBoundingBox"><stop offset="0" stop-color="#ff9077"/><stop offset="1" stop-color="#e9645a"/></linearGradient><linearGradient id="g" x1="0.516" y1="0.293" x2="0.373" y2="1.104" xlink:href="#f"/></defs><g transform="translate(-599.361 -95.977)"><g transform="translate(603.628 96.19)"><path class="a" d="M756.459,729.43c-52.8,14.4-99.261,37.8-142.555,67.143.233.864.477,1.725.746,2.582C637.31,871.311,735.2,894.439,750.6,898.078c114.688,27.1,254.158-32.987,277.13-119.838,1.832-6.925.944-19.18-2.063-39.011C935.185,713.693,846.072,705.283,756.459,729.43Z" transform="translate(-609.361 -340.167)"/><path class="b" d="M951.282,296.855c-18.4-33.165-32.506-48.97-52.288-54.032-24.078-6.16-47.194,5.992-65.86,17.949C757.376,309.3,711.374,382.528,689.839,418.862c-58.672,98.988-88.6,149.493-77.436,190.887,43.294-29.344,89.754-52.743,142.555-67.143,89.614-24.147,178.727-15.737,269.208,9.8-2.263-14.921-5.726-34.13-10.137-58.6C999.051,410.738,982.546,353.208,951.282,296.855Z" transform="translate(-607.86 -153.342)"/><ellipse class="c" cx="79.615" cy="9.699" rx="79.615" ry="9.699" transform="translate(132.822 502.204)"/><path class="d" d="M1015.607,901.757c-1.348,5.389-6.129,10.351-9.724,14.12-2.092,2.194-4.293,4.611-7.109,5.882-3.268,1.474-12.327,2.169-9.924-3.881,2.267-5.706,7.162-9.892,9.914-15.352,2.278-4.52,4.18-10.159,9.625-11.838,5.4-1.666,7.547,3.423,7.584,8.109A11.793,11.793,0,0,1,1015.607,901.757Z" transform="translate(-757.012 -409.266)"/><path class="d" d="M902.7,923.154c-2.8,5.533-9.687,5-15.214,4.83q-6.962-.207-13.9-.954c-1.538-.166-10.719-.12-8.842-3.59a4.357,4.357,0,0,1,2.447-1.685c4.422-1.707,8.822-3.678,13.339-5.1,4.459-1.406,9.08-2.306,13.405-4.125,1.529-.643,5.864-3.888,7.513-3.349,1.932.631,2.262,6.266,2.336,7.94a13.236,13.236,0,0,1-.346,4.083A10.43,10.43,0,0,1,902.7,923.154Z" transform="translate(-708.148 -416.659)"/><path class="e" d="M974.238,764.222a117.746,117.746,0,0,0-3.942-15.328c-3-9.628-7.514-18.727-12.449-27.494-9.4-16.7-22.5-32.781-27.277-51.55-6.121-24.038-.7-44.977-.316-69.041a14.127,14.127,0,0,0-1.046-6.565c-1.131-2.27-3.28-3.831-5.378-5.257-9.908-6.736-25.235-14.106-37.189-8.268-9.613,4.695-9.142,12.81-8.656,22.2,1.455,28.1,11.313,54.021,20.409,80.048,4.137,11.838,10.74,23.192,17.292,33.846,6.9,11.217,12.375,23.473,18.3,35.28,4.316,8.605,7.8,17.488,13.17,25.511a3.215,3.215,0,0,0,1.087,1.152,3.116,3.116,0,0,0,1.1.267,53.821,53.821,0,0,0,23.863-2.734,2.209,2.209,0,0,0,1.819-2.6A52.085,52.085,0,0,0,974.238,764.222Z" transform="translate(-713.382 -286.363)"/><path class="f" d="M865.792,675.547c.661,4.048,1.424,8.015,2.3,11.872,6.53,28.719,12.686,55.878,13.118,85.965a13.638,13.638,0,0,0,.622,4.761c3.616,9.132,25.26,3.18,26.85-5.655.655-3.643-.07-7.363-.587-11.006-4.319-30.465,3.467-62.231-4.465-92.153-1.485-5.6-3.515-10.988-5.164-16.528-6.754-22.687-6.4-46.621-11.162-69.785-1.042-5.066-2.369-10.236-5.309-14.194-6.235-8.391-15.193-5.943-17.882,4.167-2.222,8.354-1.553,18.98-1.82,27.525C861.545,624.4,861.855,651.424,865.792,675.547Z" transform="translate(-707.152 -280.509)"/><g transform="translate(115.413 89.678)"><path class="g" d="M857.426,375.934a11.747,11.747,0,0,0-2.814-4.534c-6.706-7.687-13.968-14.622-21.176-21.751-5.994-5.929-7.265-12.9-10.39-20.663-3.7-9.19-8.952-18.492-11.538-28.106-.917-3.41-1.986-6.9-5.552-8.229a5.191,5.191,0,0,0-6.976,3.836c-1.342,5.238.435,12.049,1.324,17.159l3.913,22.491a89.168,89.168,0,0,0,7.712,22.916c3.7,7.716,11.695,14.563,17.481,20.549,3.815,3.946,11.64,12.749,17.788,11.637,4.963-.9,10.715-9.063,10.4-14.234A5.677,5.677,0,0,0,857.426,375.934Z" transform="translate(-797.542 -263.177)"/><path class="g" d="M798.357,296.7a99.553,99.553,0,0,1-1.293-14.274c0-2.951-.769-8.31,1.886-9.991a14.117,14.117,0,0,1,5.516-2.493c1.147-.142,1.533.382,2.533.766a25.038,25.038,0,0,1,2.953.961,7.35,7.35,0,0,1,2.48,2.539,4.867,4.867,0,0,1,.694,1.359,5.189,5.189,0,0,1,.091,1.771,26.66,26.66,0,0,1-1.986,8.324,6.18,6.18,0,0,0-.674,3.464,13.276,13.276,0,0,0,.866,3.738" transform="translate(-796.937 -254.353)"/><path class="g" d="M800.291,269.594a28.475,28.475,0,0,1,.966-8.236c.339-1.094,1.142-4.419-.978-3.538-.737.307-1.121,1.336-1.445,2.028-1.19,2.542-1.128,5.751-1.557,8.484a16.166,16.166,0,0,0-.279,4.6" transform="translate(-796.922 -249.528)"/><path class="g" d="M806.325,265.526a34.645,34.645,0,0,1,.551-11.444,10.214,10.214,0,0,1,1.173-2.963c.417-.7.842-1.75-.187-1.893-1.12-.155-2.065,1.029-2.592,1.936-2.4,4.133-2.736,8.814-2.67,13.438a11.575,11.575,0,0,0,.113,1.74c.01.055.025.117.072.141s.119-.042.084-.084" transform="translate(-799.158 -246.192)"/><path class="g" d="M811.622,260.826l.3-6.226a7.634,7.634,0,0,1,.943-3.787,16.881,16.881,0,0,0,1.819-4.431,3.025,3.025,0,0,0-.016-1.718.934.934,0,0,0-1.074-.4c-.926.244-1.372,1.5-1.864,2.363q-.917,1.608-1.786,3.25a13.362,13.362,0,0,0-1.28,3.035,13.085,13.085,0,0,0-.282,1.968c-.116,1.333-.1,2.658-.193,3.987a17.158,17.158,0,0,0,.2,3.153.342.342,0,0,0,.056.186.088.088,0,0,0,.148-.024" transform="translate(-801.355 -244.227)"/><path class="g" d="M813.519,263.2a18.709,18.709,0,0,1,.271-6.151,24.179,24.179,0,0,1,1.394-4.719c.376-.72.681-1.486,1.063-2.205.369-.7,1.761-3.443,2.605-2.25.769,1.086-.251,3.254-.6,4.416a21.8,21.8,0,0,0-.97,6.234c.016,2.164.821,4.531,1.267,6.641.039.182.168.414.329.33" transform="translate(-803.416 -245.548)"/><path class="g" d="M818.987,285.942c1.14-2.1,2.639-3.974,3.727-6.1.72-1.41,1.076-2.906,1.661-4.361a31.552,31.552,0,0,1,1.871-4.526c.381-.652,1.237-2.724.594-3.376a1.111,1.111,0,0,0-1.1-.132,5.636,5.636,0,0,0-3.469,3.046c-.244.52-.253,1.594-.868,1.624-.675.033-.87-1.107-1.011-1.6-.493-1.726-.572-3.56-.973-5.31" transform="translate(-805.62 -252.495)"/></g><path class="h" d="M860.679,395.714a3.463,3.463,0,0,0-1.857-.9,3.421,3.421,0,0,0-2.249,1.135A97.224,97.224,0,0,0,843,410.809a5.887,5.887,0,0,0-1.273,2.507,5.134,5.134,0,0,0,.331,2.355c1.419,4.282,4.491,7.786,7.541,11.109q6.593,7.182,13.527,14.039c2.8,2.768,5.8,5.59,9.579,6.693,7.312,2.134,15.3-3.359,17.84-10.541,2.473-7,1.493-17.9-4.848-22.516C877.278,408.331,868.963,402.046,860.679,395.714Z" transform="translate(-699.158 -213.913)"/><path class="i" d="M773.815,191.538a26.3,26.3,0,0,0-5.559-15.345c-.248-.324-.5-.647-.777-.967a22.832,22.832,0,0,0-10.5-6.966c.7-12.511-4.93-25.238-14.463-32.585-5.148-3.968-11.911-6.417-17.9-4.148-1.05-4.168-5.8-21.229-20.465-29.866-3.492-2.056-13.046-7.681-21.974-4.537-.093-.3-9.585.866-16.516,6.161-9.261,7.074-11.576,19.7-12.23,26.6-5.264-5.81-14.19-6.589-21.115-3.308s-12.023,9.913-15.479,17.1c-3.119,6.489-4.655,15.494.56,20.214-5.917,2.194-9.957,8.541-10.8,15.157a29.1,29.1,0,0,0,2.073,14.311c-.068.013-.136.025-.2.044a38.973,38.973,0,0,0,2.04,4.176,33.1,33.1,0,0,0,3.072,4.522c4.639,6.005,11.371,10.386,18.385,9.422-.984,2.847.056,6.24,2,8.534.187.254.379.5.585.732,2.2,2.473,5.263,3.835,8.266,5.01,8.677,3.4,18.994,5.59,26.774.521a5.121,5.121,0,0,0,1.5,3.947,9.929,9.929,0,0,0,2.579,2.423c13.893,8.95,33.639,5.62,44.262-7.462a60.546,60.546,0,0,0,26.184-.889c7.935-2.069,17.129-4.466,23.617-13.391A30.447,30.447,0,0,0,773.815,191.538Z" transform="translate(-606.405 -96.19)"/><path class="h" d="M886.788,541.427a96.359,96.359,0,0,1-15.122-4.567c-6.038-2.44-15.272-7.383-18.142-13.677-2.551-5.594-.316-13.086-.424-19.058l-.35-19.175c-.153-8.348-.336-16.87-3.159-24.728-3.535-9.834-5.414-16.807,1.7-25.034,5.9-6.818,12.241-16.207,20.533-20.22,8.806-4.262,19.782.856,26.57,6.465,2.888,2.386,5.639,5.113,7.12,8.553,2.464,5.723,1.018,12.26.255,18.444-3.2,25.929,9.318,51.313,11.663,77.064.316,3.473.494,7.134-1.009,10.281-1.917,4.012-6.294,6.4-10.691,7.058C900.4,543.626,893.467,542.871,886.788,541.427Z" transform="translate(-701.033 -221.235)"/><path class="j" d="M896.568,375.768c-9.1-2.942-21.523-6.689-22.042-17.86a61.155,61.155,0,0,1,3.312-23.541c2.277-6.267,7.265-12.731,10.983-18.334,3.317-5,12.525-5.428,18.054-4.343,4.744.931,7.719,4.946,12.219,6.134,4.276,1.129,6.949,2.606,9.092,6.9a28.262,28.262,0,0,1,2.524,10.718c.949,13.676-5.914,25.878-14.9,35.461A17.773,17.773,0,0,1,896.568,375.768Z" transform="translate(-712.073 -180.95)"/><path class="g" d="M888.064,406.9c-2.437-.717-7.332-1.776-6.641-5.508a5.447,5.447,0,0,1,1.617-2.425c3.713-4.128,4.414-10.1,7.031-15,2.492-4.662,4.526-2.837,8.061-.32a6.177,6.177,0,0,1,2.217,2.4,8.26,8.26,0,0,1,.27,4.969c-.719,3.4-1.4,7.745-2.757,10.9a8.288,8.288,0,0,1-8.74,5.226A7.778,7.778,0,0,1,888.064,406.9Z" transform="translate(-714.795 -208.499)"/><path class="g" d="M913.3,319.311a19.535,19.535,0,0,1,4.466,14.246c-.543,6.332-5.878,11.107-8.988,16.5a26.856,26.856,0,0,1-19.737,12.6,20.2,20.2,0,0,1-5.521-.423c-2.807-.5-5.745-1.164-7.852-3.085-6.29-5.736-3.28-15.008-1.158-21.91a48.624,48.624,0,0,1,11.079-19.062c4.084-4.314,8.136-6.97,14.283-6.106A22.2,22.2,0,0,1,913.3,319.311Z" transform="translate(-711.065 -181.226)"/><path class="e" d="M887.9,323a16.155,16.155,0,0,1-3.4-1.919A3.805,3.805,0,0,1,883.426,320a3.271,3.271,0,0,1-.378-1.569c-.08-2.815,1.672-5.43,3.928-7.116a23.157,23.157,0,0,1,12.94-4.557c6.952-.086,15.024.869,19.546,6.609a4.477,4.477,0,0,1,1.3,3.173,3.144,3.144,0,0,1-1.7,2.213,9.284,9.284,0,0,1-2.759.833,72.432,72.432,0,0,0-8.581,1.693c-3.653,1.183-6.758,2.82-10.7,3.111A20.026,20.026,0,0,1,887.9,323Z" transform="translate(-715.461 -179.198)"/><path class="e" d="M937.876,356.8a138.435,138.435,0,0,0-5.245-17.794c-1.707-4.964,1.159-7.974-.151-12.808-1.139-4.2-2.833-9.572-6.552-12.229-5.736-4.1-20.957-3.8-25.994,1.206-4.752,4.72-3.458,13.479-1.055,18.893,1.49,3.356,3.77,5.487,6.574,7.715,1.894,1.505,2.961,2.362,3.028,4.931.159,6.135-6.966,8.181-10.127,12.214-3.684,4.7-1.023,11.454,2.4,15.731a27.088,27.088,0,0,0,13.681,8.651c7.87,2.3,17.789,1.071,22.1-5.9,1.933-3.13,2.432-6.942,2.415-10.622A52.347,52.347,0,0,0,937.876,356.8Z" transform="translate(-720.795 -180.925)"/><path class="k" d="M914.107,365.184a3.84,3.84,0,0,1,2.493-1.007c2.308-.109,3.738,2.191,3.452,4.38a5.87,5.87,0,0,1-3.217,4.27,2.926,2.926,0,0,1-1.9.394,1.362,1.362,0,0,1-1.13-1.4" transform="translate(-727.581 -201.833)"/><g transform="translate(78.557 97.966)"><path class="g" d="M820.2,375.541A11.742,11.742,0,0,0,816.4,371.8c-8.334-5.882-17.032-10.9-25.722-16.122-7.228-4.341-10.111-10.811-14.985-17.616-5.768-8.053-13.074-15.847-17.862-24.577-1.7-3.1-3.563-6.236-7.341-6.681a5.191,5.191,0,0,0-5.87,5.378c-.065,5.407,3.274,11.6,5.347,16.358l9.126,20.926A89.164,89.164,0,0,0,772,369.907c5.424,6.621,14.809,11.382,21.848,15.827,4.641,2.931,14.326,9.633,20.036,7.1,4.609-2.047,8.266-11.341,6.735-16.29A5.666,5.666,0,0,0,820.2,375.541Z" transform="translate(-739.445 -277.168)"/><path class="g" d="M744.111,312.232a99.451,99.451,0,0,1-4.635-13.562c-.7-2.867-2.713-7.892-.532-10.154a14.1,14.1,0,0,1,4.769-3.728c1.081-.41,1.579.008,2.642.144a25.2,25.2,0,0,1,3.1.236,7.344,7.344,0,0,1,3.011,1.88,4.827,4.827,0,0,1,1,1.156,5.176,5.176,0,0,1,.508,1.7,26.651,26.651,0,0,1,.041,8.558,6.185,6.185,0,0,0,.166,3.524,13.24,13.24,0,0,0,1.727,3.427" transform="translate(-736.821 -268.435)"/><path class="g" d="M739.994,286.068a28.445,28.445,0,0,1-1.01-8.23c.07-1.143.063-4.563-1.788-3.206-.643.472-.773,1.564-.924,2.312-.554,2.751.265,5.855.495,8.612a16.159,16.159,0,0,0,.819,4.539" transform="translate(-736.082 -264.377)"/><path class="g" d="M745,280.509a34.672,34.672,0,0,1-2.172-11.249,10.238,10.238,0,0,1,.439-3.157c.239-.783.4-1.9-.629-1.794-1.125.114-1.763,1.488-2.06,2.494-1.356,4.583-.573,9.212.585,13.688a11.51,11.51,0,0,0,.522,1.664c.022.051.051.108.1.12s.105-.069.062-.1" transform="translate(-737.571 -260.428)"/><path class="g" d="M749.158,274.6l-1.182-6.121a10.154,10.154,0,0,1-.244-1.908,10.04,10.04,0,0,1,.263-1.995,16.893,16.893,0,0,0,.718-4.736,3.027,3.027,0,0,0-.422-1.665.935.935,0,0,0-1.139-.134c-.841.456-.978,1.779-1.252,2.736q-.51,1.779-.966,3.58a13.339,13.339,0,0,0-.525,3.252,12.968,12.968,0,0,0,.191,1.979c.2,1.323.532,2.606.755,3.919a17.113,17.113,0,0,0,.941,3.016.332.332,0,0,0,.1.168.088.088,0,0,0,.138-.058" transform="translate(-739.365 -257.907)"/><path class="g" d="M751.615,276.579a18.7,18.7,0,0,1-1.193-6.041,24.177,24.177,0,0,1,.237-4.915c.2-.788.31-1.605.511-2.394.194-.764.9-3.762,2-2.8,1,.873.526,3.222.462,4.433a21.8,21.8,0,0,0,.532,6.287c.528,2.1,1.871,4.208,2.8,6.152.081.168.261.363.4.243" transform="translate(-741.732 -258.826)"/><path class="g" d="M760.879,298.089c.61-2.311,1.623-4.486,2.176-6.813.366-1.54.357-3.078.581-4.631a31.594,31.594,0,0,1,.747-4.84c.216-.723.558-2.94-.221-3.421a1.113,1.113,0,0,0-1.1.132,5.634,5.634,0,0,0-2.649,3.781c-.114.562.131,1.608-.46,1.783-.648.192-1.107-.869-1.361-1.317-.887-1.561-1.4-3.323-2.2-4.929" transform="translate(-744.087 -265.763)"/></g><path class="h" d="M839.493,399.578a4.765,4.765,0,0,0-2.4-.431,3.956,3.956,0,0,0-2.278,1.636,93.839,93.839,0,0,0-11.495,17.645,5.143,5.143,0,0,0-.765,2.738,4.707,4.707,0,0,0,1.044,2.209c2.844,3.824,7.375,6.5,11.832,9.009Q845.067,437.8,855,442.822c4.011,2.027,8.268,4.059,12.943,4.236,9.044.343,16.726-6.885,17.635-14.464.886-7.389-3.312-17.748-11.931-20.729C862.209,407.907,850.839,403.769,839.493,399.578Z" transform="translate(-691.61 -215.606)"/><path class="l" d="M883.624,623.916c1.654,21.714,8.978,42.94,14.482,63.866,4.466,16.984,13.568,32.872,21.459,48.565" transform="translate(-715.689 -304.227)"/><path class="m" d="M849.818,397.944a16.4,16.4,0,0,0,5.266,2.847l13.8,5.4a62.745,62.745,0,0,0,10.461,3.4" transform="translate(-702.362 -215.146)"/><path class="m" d="M845.905,453.9c6.762,4.142,18.193,10.238,26.205,10.565" transform="translate(-700.819 -237.204)"/><path class="m" d="M874.429,514.823a63.647,63.647,0,0,0,18.786,39.25" transform="translate(-712.064 -261.221)"/><path class="m" d="M853.63,499.14a288.743,288.743,0,0,0,12.517,36.089" transform="translate(-703.864 -255.039)"/><path class="n" d="M704.343,184.96a30.615,30.615,0,0,1,24.191-14.734c1.608-.091,3.466.063,4.428,1.355,1.225,1.644.23,3.973-.895,5.688a46.871,46.871,0,0,1-28.946,19.882c-.9.194-2.057.251-2.5-.552,3.079-4.468,8.245-6.959,13.252-9.049,7.3-3.048,15.124-5.71,22.974-4.732,1.119.139,2.385.463,2.889,1.473a3.192,3.192,0,0,1-.331,2.81c-1.45,2.811-4.087,4.8-6.722,6.544a93.863,93.863,0,0,1-28.635,12.711A182.554,182.554,0,0,1,739.306,195c1.464-.312,3.5-.283,3.872,1.166-9.525,7.552-21.17,11.824-32.6,15.975l7.366-1.321a1.624,1.624,0,0,1,1.2.094c.34.229.363.876-.036.972" transform="translate(-643.546 -125.368)"/></g><g transform="translate(916.102 227.405)"><path class="o" d="M1153.531,328.185a64.5,64.5,0,0,1,4.025,15.652c1.118,7.826-2.683,14.758-2.906,22.36-.448,11.4,10.509,20.348,21.465,16.323,8.944-3.354,17.441-12.3,27.056-8.5,6.037,2.46,12.521,8.72,19.229,3.131a66.466,66.466,0,0,0,8.085-7.649,52.452,52.452,0,0,0,.4-6.444c0-27.761-21.776-50.267-48.639-50.267a47.507,47.507,0,0,0-31.15,11.663A10.584,10.584,0,0,1,1153.531,328.185Z" transform="translate(-1133.602 -312.794)"/><path class="p" d="M1211.018,384.743c-6.708,5.59-13.193-.671-19.229-3.131-9.615-3.8-18.112,5.143-27.056,8.5-10.956,4.025-21.913-4.919-21.465-16.323.224-7.6,4.024-14.534,2.907-22.359a64.5,64.5,0,0,0-4.025-15.652,10.581,10.581,0,0,0-2.439-3.729,50.837,50.837,0,0,0-17.49,38.6c0,27.762,21.777,50.267,48.639,50.267,24.751,0,45.183-19.105,48.243-43.824A66.475,66.475,0,0,1,1211.018,384.743Z" transform="translate(-1122.221 -320.383)"/></g><g transform="translate(599.361 521.737)"><path class="q" d="M621.734,829.962c7.575-2.35,12.016-11.232,19.852-12.277,9.926,8.359,17.239,23.77,32.389,21.68a6.245,6.245,0,0,0,3.918-3.4,52.974,52.974,0,0,0,2.706-5c-3.606-18.444-19.05-32.309-37.557-32.309a37.576,37.576,0,0,0-30.164,15.509c.354,2.581.788,5.15,1.281,7.693C614.682,825.261,615.466,831.53,621.734,829.962Z" transform="translate(-604.69 -798.662)"/><path class="r" d="M672.565,846.063a6.246,6.246,0,0,1-3.918,3.4c-15.15,2.09-22.464-13.322-32.389-21.68-7.836,1.045-12.277,9.926-19.852,12.277-6.269,1.567-7.053-4.7-7.575-8.1-.493-2.543-.926-5.112-1.281-7.694a41.892,41.892,0,0,0-8.189,25.057c0,22.4,17.172,40.566,38.353,40.566s38.353-18.162,38.353-40.566a42.972,42.972,0,0,0-.8-8.257A52.988,52.988,0,0,1,672.565,846.063Z" transform="translate(-599.361 -808.755)"/></g></g></svg>