<svg xmlns="http://www.w3.org/2000/svg" xmlns:xlink="http://www.w3.org/1999/xlink" width="406.33" height="506" viewBox="0 0 406.33 506">
  <defs>
    <linearGradient id="linear-gradient" x1="0.287" y1="-0.573" x2="0.664" y2="1.476" gradientUnits="objectBoundingBox">
      <stop offset="0" stop-color="#ff9077"/>
      <stop offset="1" stop-color="#e9645a"/>
    </linearGradient>
    <linearGradient id="linear-gradient-2" x1="0.484" y1="0.293" x2="0.627" y2="1.104" xlink:href="#linear-gradient"/>
    <clipPath id="clip-path">
      <path id="Path_15037" data-name="Path 15037" d="M1184.979-771.612a51.987,51.987,0,0,1,6.84-8.82c12.467-12.731,30.71-18.834,47.9-21.653a184.806,184.806,0,0,1,71.332,2.4c23.908,5.53,39.011,15.988,58.1,30.606,25.759,19.724,49.457,124.468,72.486,187.641,16.133,44.251,46.651,91.893,20.18,134.154-28.759,45.914-82.527,60.537-132.022,63-53.6,2.665-102.2-8.935-108.566-10.537-30.834-7.754-79.834-20.827-116.526-66.888-39.594-49.7-39.111-105.489-38.742-121.171.311-13.221,2.31-98.1,50.9-124.77,12.853-7.054,28.367-9.706,45.624-26.743C1173.515-745.282,1177.447-759.623,1184.979-771.612Z" transform="translate(-1065.891 804.47)" fill="none"/>
    </clipPath>
    <linearGradient id="linear-gradient-3" x1="1.672" y1="0.586" x2="0.847" y2="0.366" gradientUnits="objectBoundingBox">
      <stop offset="0" stop-color="#4fa5ad"/>
      <stop offset="1" stop-color="#99cbcf"/>
    </linearGradient>
    <linearGradient id="linear-gradient-4" x1="0.871" y1="-0.06" x2="0.917" y2="0.594" xlink:href="#linear-gradient-3"/>
  </defs>
  <g id="Group_17540" data-name="Group 17540" transform="translate(0)">
    <g id="Group_17389" data-name="Group 17389" transform="translate(316.828 0)">
      <path id="Path_15031" data-name="Path 15031" d="M1147-863.549c-7.527-2.336-11.938-11.159-19.724-12.2-9.861,8.3-17.128,23.616-32.18,21.54a6.2,6.2,0,0,1-3.892-3.374,52.627,52.627,0,0,1-2.689-4.967c3.582-18.325,18.927-32.1,37.314-32.1a37.333,37.333,0,0,1,29.969,15.409c-.352,2.564-.783,5.117-1.272,7.643C1154-868.221,1153.226-861.992,1147-863.549Z" transform="translate(-1087.722 894.647)" fill="url(#linear-gradient)"/>
      <path id="Path_15032" data-name="Path 15032" d="M1083.4-856.722a6.2,6.2,0,0,0,3.892,3.374c15.052,2.076,22.318-13.235,32.18-21.54,7.786,1.038,12.2,9.861,19.724,12.2,6.228,1.557,7.006-4.672,7.526-8.046.489-2.526.921-5.079,1.272-7.643a41.617,41.617,0,0,1,8.136,24.894c0,22.259-17.059,40.3-38.1,40.3s-38.1-18.044-38.1-40.3a42.718,42.718,0,0,1,.791-8.2A52.6,52.6,0,0,0,1083.4-856.722Z" transform="translate(-1079.924 893.788)" fill="url(#linear-gradient-2)"/>
    </g>
    <g id="Group_17397" data-name="Group 17397" transform="translate(0 54.508)">
      <g id="Group_17392" data-name="Group 17392" transform="translate(0 30.909)">
        <g id="Group_17391" data-name="Group 17391" clip-path="url(#clip-path)">
          <g id="Group_17390" data-name="Group 17390" transform="translate(-40.671 -32.442)">
            <path id="Path_15033" data-name="Path 15033" d="M1150.988-507.8c-46.567-71.887-102.129-163.226-17.418-232.524a376.38,376.38,0,0,1,38.378-27.478c16.371,42.091-21.544,69.913-2.576,122.263,10.705,29.544,25.492,28.156,40.471,57.881,21.451,42.57,20.474,103.664-8.875,146.165-31.886,46.173-90.933,61.234-145.2,64.091a915.357,915.357,0,0,0,82.564-60.338C1171.228-464.034,1163.788-486.983,1150.988-507.8Z" transform="translate(-768.048 834.977)" fill="url(#linear-gradient-3)"/>
            <path id="Path_15034" data-name="Path 15034" d="M1153.023-456.834c-43-49.418-42.028-105.247-41.5-120.942.446-13.233,3.313-98.188,56.776-125.257,14.143-7.161,31.167-9.938,50.216-27.124,16.125-14.548,22.249-29.089,26.346-36.626,23.86-43.9,106.248-84.293,179-68.41,7.461,1.629,72.858,16.772,91.28,63.239.054.136.093.269.146.405a376.367,376.367,0,0,0-38.379,27.478c-84.71,69.3-29.149,160.636,17.418,232.524,12.8,20.821,20.239,43.77-12.656,70.06a915.343,915.343,0,0,1-82.564,60.338c-58.772,3.095-111.937-8.127-118.907-9.68C1246.473-398.343,1192.873-411.035,1153.023-456.834Z" transform="translate(-1111.392 838.72)" fill="url(#linear-gradient-4)"/>
          </g>
          <path id="Path_15035" data-name="Path 15035" d="M1329.108-806.7c11,13.946,14.688,31.909,15.6,49.307s-.638,34.9,1.292,52.222c2.335,20.96,2.4,50.278,14.293,68.079-20.055-2.1-32.74-6.66-52.878-5.469-13.69.81-27.425.166-41.125-.478-24.063-1.132-48.567-2.346-71.156-10.3-2.414-.85-4.958-1.9-6.326-3.968a10.487,10.487,0,0,1-1.305-5.566c-.219-7.212,16.5-125.135,21.221-134.659,5.809-11.711,19.071-22.638,31.1-28.743,14.836-7.533,33.02-7.6,48.954-4.125,7.483,1.634,14.951,3.626,21.752,7.009C1318.621-819.368,1323.752-813.494,1329.108-806.7Z" transform="translate(-1069.156 805.956)" fill="#100052"/>
          <path id="Path_15036" data-name="Path 15036" d="M1307.5-345.733a178.571,178.571,0,0,1-85.894-10.277c-19.159-7.4-39.074-18.936-35.105-41.871a402.014,402.014,0,0,1,11.562-48.6c4.3-14.1,11.056-26.972,11.271-41.741.448-30.765-1.291-61.808-9.7-91.549-5.112-18.089-5.076-43.613,4.184-60.657,7.549-13.895,31.694-11.113,43.757-20.54,3.548-2.773,28.664,4.127,33.878,4.764,10.574,1.292,19.094-6.8,29.258-3.6,14.018,4.406,39.643,3.769,52.7,11.1,13.375,7.508,3.083,18.889,3.5,31.991a218.827,218.827,0,0,0,6.078,44.746c1.724,7.089,3.813,14.14,4.407,21.419,1.008,12.343-3.973,25.76-7.539,37.36-4.489,14.6-6.451,27.142-5.344,42.569a330.282,330.282,0,0,0,13.661,73.123c2.549,8.308,5.247,17.988.285,25.121-2.3,3.306-5.9,5.431-9.454,7.331A176.576,176.576,0,0,1,1307.5-345.733Z" transform="translate(-1088.666 796.93)" fill="#feca84"/>
        </g>
      </g>
      <g id="Group_17394" data-name="Group 17394" transform="translate(130.068)">
        <path id="Path_15038" data-name="Path 15038" d="M1228.995-641.26c-5.557,14.551,13.349,27.809,24.4,31.519a84.787,84.787,0,0,0,42.635,2.423,81.432,81.432,0,0,0,47.759-29.758c2.568-3.328,1.722-10.435-.529-13.88a7.558,7.558,0,0,0-2.678-2.335c-5.216-3-11.225-3.1-16.972-4.081-7.654-1.305-14.127-7.771-21.987-9.948q-1.513-.419-3.038-.775a73.764,73.764,0,0,0-26.286-1.338c-15.022,1.96-27.73,16.389-40.545,25.229A6.675,6.675,0,0,0,1228.995-641.26Z" transform="translate(-1222.654 828.284)" fill="#b27344" stroke="#100052" stroke-linecap="round" stroke-linejoin="round" stroke-width="0.846"/>
        <path id="Path_15039" data-name="Path 15039" d="M1327.641-650.959c-1.6-11.209-3.051-22.712-3.744-34.067-.66-10.86,4.087-26.295-5.7-34.224-2.159-1.75-4.939-2.512-7.651-3.122-18.459-4.15-30.2-.143-44.138,12.545-3.054,2.781-6.255,5.965-6.738,10.066-.424,3.6,1.352,7.039,2.755,10.381,5.811,13.837,6.451,30.931,4,45.555" transform="translate(-1234.873 831.129)" fill="#b27344" stroke="#100052" stroke-linecap="round" stroke-linejoin="round" stroke-width="0.846"/>
        <g id="Group_17393" data-name="Group 17393">
          <path id="Path_15040" data-name="Path 15040" d="M1253.69-727.812c-.693,20.357,1.235,49.487,27.145,47.994,22.372-1.289,39.034-5.3,54.654-22.65a66.56,66.56,0,0,0,14.478-26.067,58.9,58.9,0,0,0,2.064-18.628c-.462-19.763-6.627-40.307-21.194-53.678-13.476-12.371-29.414-12.855-43.334-1.173C1264.837-782.992,1254.674-756.727,1253.69-727.812Z" transform="translate(-1253.582 835.695)" fill="#b27344" stroke="#100052" stroke-linecap="round" stroke-linejoin="round" stroke-width="0.846"/>
          <path id="Path_15041" data-name="Path 15041" d="M1266.492-755.5l.329.154c2.812,1.313,5.278,3.414,8.018,4.959,3.476,1.958,7.176,3.562,10.371,5.951a18.979,18.979,0,0,1,7.217,10.048c1.68,6.365-2.432,12.186-4.595,17.932-3.465,9.2,8.244,11.317,14.569,8.932,27.142-10.232,45.746-42.274,39.691-70.817-3.559-16.776-12.491-32.993-26.28-43.192-10.237-7.571-23.857-11.575-36.332-14.165-13.355-2.773-26.188-1.311-39.075,3.35a47.95,47.95,0,0,0-6.346,2.729,62.282,62.282,0,0,0-10.924,8.085c-5.8,4.987-9.142,11.077-11.871,18.155q-1.794,4.653-3.308,9.409c-1.133,3.557-2.157,7.241-1.919,10.966.165,2.571,1.324,6.721,3.515,8.337,2.832,2.088,6.255-3.344,7.933-5.43,4.19-5.208,8.459-10.353,12.859-15.386q3.3-3.774,6.7-7.457c1.536-1.661,3.644-5.177,6.271-4.947,3.064.268,1.8,5.4,1.848,7.379a74.33,74.33,0,0,0,.976,10.34,73.464,73.464,0,0,0,6.216,19.764,35.569,35.569,0,0,0,6.533,9.848A25.571,25.571,0,0,0,1266.492-755.5Z" transform="translate(-1199.694 837.102)" fill="#100052"/>
          <path id="Path_15042" data-name="Path 15042" d="M1247.831-729.492c5.7-4.009,15.881-4.542,18.489,3.417,1.782,5.437-1.443,12.324-4.82,16.482-4.773,5.878-12.758,7.92-16.369-.235" transform="translate(-1160.344 831.572)" fill="#b27344" stroke="#100052" stroke-linecap="round" stroke-linejoin="round" stroke-width="0.846"/>
        </g>
      </g>
      <g id="Group_17395" data-name="Group 17395" transform="translate(134.908 145.606)">
        <path id="Path_15043" data-name="Path 15043" d="M1316.552-634.709c11.986-11.656,16.122-28.984,20.1-43.4.446-2.086,1.541-5.91,3.644-5.177,7.32,2.556,4.061,13.594,2.687,19.654-2.594,11.087-4.213,20.443-9.76,30.882" transform="translate(-1310.912 683.382)" fill="#b27344" stroke="#100052" stroke-linecap="round" stroke-linejoin="round" stroke-width="0.846"/>
        <path id="Path_15044" data-name="Path 15044" d="M1322.526-582.371l-12.655-33.609c-.788-2.093-1.59-4.317-1.178-6.516a12.354,12.354,0,0,1,1.934-4.163l5.68-9.061c3.2-5.1,7.065-10.675,12.991-11.743,5.152-.927,10.4,2.073,13.51,6.285s4.455,9.447,5.45,14.585c2.565,13.23,2.1,32.758.88,46.178" transform="translate(-1308.581 681.495)" fill="#b27344" stroke="#100052" stroke-linecap="round" stroke-linejoin="round" stroke-width="0.846"/>
        <path id="Path_15045" data-name="Path 15045" d="M1291.067-643.5c4.481-3.276,8.218-7.592,13.513-9.649,4.138-.772,8.87.718,13.173.406,5.447.406,11.077-.447,16.438.385,4.98,2.887-5.932,9.139-8.724,9.139-3.577.288-7.475-1.811-10.578-.009" transform="translate(-1277.344 681.798)" fill="#b27344" stroke="#100052" stroke-linecap="round" stroke-linejoin="round" stroke-width="0.846"/>
        <path id="Path_15046" data-name="Path 15046" d="M1291.273-642.941c3.343-2.606,10.273-1.226,17.4-1.361,13.937-.264,28.709,1,17.381,7.975-2.4,1.48-14.638,3.11-24.13,1.747" transform="translate(-1272.142 681.332)" fill="#b27344" stroke="#100052" stroke-linecap="round" stroke-linejoin="round" stroke-width="0.846"/>
        <path id="Path_15047" data-name="Path 15047" d="M1304.157-633.9c7.068-3.675,13.735-.861,25.137.909,3.179.494-1.966,7.88-10.3,6.985-5.219-.561-11.109-2.346-13.88,1.238,0,0,8.417,9.016,7.566,24.464" transform="translate(-1284.512 680.865)" fill="#b27344" stroke="#100052" stroke-linecap="round" stroke-linejoin="round" stroke-width="0.846"/>
      </g>
      <g id="Group_17396" data-name="Group 17396" transform="translate(96.881 365.518)">
        <path id="Path_15048" data-name="Path 15048" d="M1368.529-431.46c-14.221-6.194-26.519-21.793-43.652-19.534a21.326,21.326,0,0,0-7.339,2.942c-4.037,2.238-8.586,5.257-8.8,9.868-.138,3.028,1.733,5.773,3.8,7.991,8.577,9.213,19.02,17.758,31.268,21.412,11.316,3.376,25.833,3.811,35.259-4.245" transform="translate(-1299.642 451.215)" fill="#b27344" stroke="#100052" stroke-linecap="round" stroke-linejoin="round" stroke-width="0.846"/>
        <path id="Path_15049" data-name="Path 15049" d="M1391.265-450.178a27.151,27.151,0,0,0-16.378,6.757,21.77,21.77,0,0,0-7.1,13.063,22.086,22.086,0,0,0,11.94,22.245,4.527,4.527,0,0,0,1.842.554c1.959.041,3.274-2.235,3.083-4.186s-1.366-3.637-2.311-5.354c-2.508-4.549-4.987-13.941,2.535-15.354" transform="translate(-1367.605 451.16)" fill="#b27344" stroke="#100052" stroke-linecap="round" stroke-linejoin="round" stroke-width="0.846"/>
        <path id="Path_15050" data-name="Path 15050" d="M1367.622-441.389a12.775,12.775,0,0,0-5.48,9.394,20.016,20.016,0,0,0,1.656,8.722,47.883,47.883,0,0,0,8.4,14,11.236,11.236,0,0,0,5.064,3.8c2.058.595,4.649-.155,5.466-2.136a5.351,5.351,0,0,0-.032-3.49c-.958-3.314-3.255-6.07-4.609-9.244-.931-2.182-1.674-5.539-.363-7.7,1.7-2.808,4.543-4.845,6.2-7.834" transform="translate(-1355.048 450.696)" fill="#b27344" stroke="#100052" stroke-linecap="round" stroke-linejoin="round" stroke-width="0.846"/>
      </g>
      <path id="Path_15051" data-name="Path 15051" d="M1315.519-464.334a631.012,631.012,0,0,0-11.362-103.306c-6.465-33.264-6.138-65.478-43.4-79.223-2.513-.927-5.2-1.708-7.842-1.265-5.565.932-8.784,6.687-11.026,11.865a263.444,263.444,0,0,0-21.156,90.515c-1.164,20.264,8.837,41.269,13.891,60.821a4.207,4.207,0,0,1,.061,2.83c-.529,1.114-1.876,1.523-3.075,1.813-15.8,3.821-31.708,7.217-47.408,11.445-12.936,3.485-29.021,6.293-35.466,19.54-3.4,6.985-4.056,14.992-3.814,22.756.129,4.138.56,8.461,2.813,11.935a7.994,7.994,0,0,0,3.971,3.364,11.547,11.547,0,0,0,5.8-.1c7.527-1.423,15.009-2.538,22.523-3.712,32.218-4.956,64.011-13.141,95.9-19.874C1290.056-437.913,1316.03-445.4,1315.519-464.334Z" transform="translate(-984.017 827.134)" fill="#feca84"/>
      <path id="Path_15052" data-name="Path 15052" d="M1342.334-487.426c9.142-34.109,21.926-67.322,31.919-101.26.619-2.1,1.359-4.4,3-5.679,1.759-1.374,5.417-3.033,7.543-2.646,10.224,1.864,21.541,6,25.552,16.567,1.605,4.227.254,8.211-.167,12.752-2.27,24.515-4.976,49.035-9.7,73.214-3.648,18.689-6.347,49.23-21.937,62.067-6.4,5.272-15.929,5.867-23.487,2.451-20.339-9.193-27.912-41.7-33.641-60.876a338.99,338.99,0,0,1-14.185-97.349c.019-12.78,1.047-26.446,8.212-36.514,8.731-12.268,30.4-21.365,44.826-23.486-3.149,19.968.454,39.519,3.054,59.567,4.439,34.217,11.9,67.59,16.3,101.8" transform="translate(-1233.391 827.13)" fill="#feca84"/>
      <path id="Path_15053" data-name="Path 15053" d="M1306.758-591.327c6.837-5.93,20.532-.941,26.426,4.032,3.292,2.776,6.914,6.532,8.443,10.644.747,2.006-.1,4.924-.347,6.951l-1.567,12.782-3.134,25.564-6.332,51.661c-1.518,12.391-3.314,25.471-11.064,35.257" transform="translate(-1163.754 824.271)" fill="none" stroke="#100052" stroke-linecap="round" stroke-linejoin="round" stroke-width="0.846"/>
      <path id="Path_15054" data-name="Path 15054" d="M1197.355-593.66c-.389,16.33,7.425,31.571,11.733,47.328a68.236,68.236,0,0,1-1.64,41.113c-1.648,4.376-4.079,8.855-8.294,10.881" transform="translate(-929.67 824.252)" fill="none" stroke="#100052" stroke-linecap="round" stroke-linejoin="round" stroke-width="0.846"/>
      <path id="Path_15055" data-name="Path 15055" d="M1317.54-489.474c-14.966-1.986-26.095,1.54-39.907,6.624-22.155,8.156-44.292,16.553-66.924,23.674-11.11,3.5-23.283,9.2-27.562,21.022-3.533,9.768-5.249,22.964-.912,32.711,2.626,5.9,6.368,3.868,11.6,3.115" transform="translate(-1018.973 818.782)" fill="none" stroke="#100052" stroke-linecap="round" stroke-linejoin="round" stroke-width="0.846"/>
      <path id="Path_15056" data-name="Path 15056" d="M1203.133-397.368c35.792-6.928,73.41-9.111,108.045-20.489" transform="translate(-1034.847 814.972)" fill="none" stroke="#100052" stroke-linecap="round" stroke-linejoin="round" stroke-width="0.846"/>
      <path id="Path_15057" data-name="Path 15057" d="M1378.786-592a419.955,419.955,0,0,0-36.142,90.86" transform="translate(-1234.601 824.164)" fill="none" stroke="#100052" stroke-linecap="round" stroke-linejoin="round" stroke-width="0.846"/>
    </g>
    <path id="Path_15058" data-name="Path 15058" d="M1283.145-768.309a32.988,32.988,0,0,1,21,7.459c.125.1.311.207.434.1s-.191-.282-.156-.124" transform="translate(-1104.062 887.978)" fill="none" stroke="#100052" stroke-linecap="round" stroke-linejoin="round" stroke-width="4.657"/>
    <path id="Path_15059" data-name="Path 15059" d="M1347.586-774.106a24.037,24.037,0,0,0-18.663-2.771c-.138.035-.322.044-.361-.1s.271-.163.171-.04" transform="translate(-1190.06 888.471)" fill="none" stroke="#100052" stroke-linecap="round" stroke-linejoin="round" stroke-width="4.657"/>
    <path id="Path_15060" data-name="Path 15060" d="M1330.929-722.659c-1.38-.332-3.524-1.052-4.479-2.174-.932-1.092-.838-3.169-.363-4.414a3.208,3.208,0,0,0-1.371,2.765,6.243,6.243,0,0,0,.18,1.064,8.507,8.507,0,0,0,2.86,5.054c2.143,1.48,5.071.69,7.412-.294,1.671-.7,3.545-1.521,4.569-2.962C1337.092-724.029,1334.224-721.865,1330.929-722.659Z" transform="translate(-1178.568 885.916)" fill="#e2a383" opacity="0.44" style="mix-blend-mode: multiply;isolation: isolate"/>
    <ellipse id="Ellipse_343" data-name="Ellipse 343" cx="4.208" cy="3.5" rx="4.208" ry="3.5" transform="translate(145.728 134.72) rotate(-173.608)" fill="#100052"/>
    <ellipse id="Ellipse_344" data-name="Ellipse 344" cx="4.208" cy="3.503" rx="4.208" ry="3.503" transform="translate(184.284 141.436) rotate(-173.608)" fill="#100052"/>
    <path id="Path_15061" data-name="Path 15061" d="M1322.277-706.041a199.446,199.446,0,0,1,25.142,2.7c.539.1.53.636-.011.621a163.4,163.4,0,0,1-25.154-2.7C1321.7-705.525,1321.723-706.069,1322.277-706.041Z" transform="translate(-1183.938 884.692)" fill="#100052"/>
    <path id="Path_15062" data-name="Path 15062" d="M1341.754-697.884a32.309,32.309,0,0,1-6.993-.951" transform="translate(-1190.102 884.311)" fill="none" stroke="#e2a383" stroke-linecap="round" stroke-linejoin="round" stroke-width="1.691" opacity="0.44" style="mix-blend-mode: multiply;isolation: isolate"/>
  </g>
</svg>
