<svg xmlns="http://www.w3.org/2000/svg" xmlns:xlink="http://www.w3.org/1999/xlink" width="637.819" height="586" viewBox="0 0 637.819 586">
  <defs>
    <linearGradient id="linear-gradient" x1="0.381" y1="0.091" x2="0.804" y2="1.369" gradientUnits="objectBoundingBox">
      <stop offset="0" stop-color="#2a7195"/>
      <stop offset="1" stop-color="#060c39"/>
    </linearGradient>
    <linearGradient id="linear-gradient-2" x1="0.521" y1="0.697" x2="0.272" y2="-0.908" xlink:href="#linear-gradient"/>
    <clipPath id="clip-path">
      <path id="Path_15193" data-name="Path 15193" d="M782.349,508.177a40.754,40.754,0,0,0-5.364-6.917c-9.777-9.984-24.085-14.772-37.569-16.983a144.956,144.956,0,0,0-55.946,1.885c-18.751,4.337-30.6,12.54-45.568,24-20.2,15.469-33.486,29.385-38.685,54.931-3.337,16.4-7.288,34.046-15.259,48.8-6.723,12.446-18.147,21.013-24.257,34.137-15.591,33.489-15.239,81.368,5.522,114.513,22.556,36.01,64.726,47.479,103.545,49.41,42.041,2.091,80.152-7.007,85.148-8.264,24.183-6.082,62.613-16.335,91.392-52.46,31.052-38.98,30.675-82.735,30.385-95.034-.244-10.369-1.812-76.943-39.918-97.857-10.08-5.532-22.248-7.613-35.782-20.974C791.341,528.828,788.257,517.58,782.349,508.177Z" transform="translate(-548.741 -482.407)" fill="none"/>
    </clipPath>
    <linearGradient id="linear-gradient-3" x1="-2.243" y1="0.53" x2="-1.417" y2="0.31" gradientUnits="objectBoundingBox">
      <stop offset="0" stop-color="#4fa5ad"/>
      <stop offset="1" stop-color="#99cbcf"/>
    </linearGradient>
    <linearGradient id="linear-gradient-4" x1="-0.528" y1="-0.108" x2="-0.574" y2="0.546" xlink:href="#linear-gradient-3"/>
    <linearGradient id="linear-gradient-5" x1="0.763" y1="-0.578" x2="4.933" y2="10.122" gradientUnits="objectBoundingBox">
      <stop offset="0" stop-color="#fff"/>
      <stop offset="1" stop-color="#bbdbf9"/>
    </linearGradient>
    <linearGradient id="linear-gradient-6" x1="0.445" y1="0.214" x2="1.445" y2="0.214" xlink:href="#linear-gradient-5"/>
    <linearGradient id="linear-gradient-7" x1="0.554" y1="-0.683" x2="1.585" y2="-0.683" xlink:href="#linear-gradient-5"/>
    <clipPath id="clip-path-2">
      <path id="Path_15250" data-name="Path 15250" d="M1116.2,580.042c-2.149-27.876,17.276-62.433,35.934-82.018,11.313-11.875,25.964-21.044,42.589-22.659,18.948-1.841,29.7,1.506,47.095-8.31,31.171-17.6,68.272-5.041,96.1,14.684,23.089,16.365,52.217,44.63,53.219,74.482,2.084,62.074-60.968,98.393-115.5,101.39-31.919,1.754-70.48,9.4-100.409-3.863C1145.917,640.76,1118.764,613.313,1116.2,580.042Z" transform="translate(-1116.033 -458.659)" fill="none"/>
    </clipPath>
    <linearGradient id="linear-gradient-8" x1="0.88" y1="0.121" x2="-0.391" y2="1.178" xlink:href="#linear-gradient-3"/>
    <linearGradient id="linear-gradient-9" x1="0.491" y1="1.065" x2="0.5" y2="0.34" xlink:href="#linear-gradient-3"/>
    <linearGradient id="linear-gradient-10" x1="0.839" y1="-0.525" x2="0.199" y2="1.283" xlink:href="#linear-gradient-3"/>
    <linearGradient id="linear-gradient-11" x1="0.468" y1="-0.103" x2="0.542" y2="1.283" gradientUnits="objectBoundingBox">
      <stop offset="0" stop-color="#b9bdab"/>
      <stop offset="1" stop-color="#769cae"/>
    </linearGradient>
    <linearGradient id="linear-gradient-12" x1="0.454" y1="-0.03" x2="0.56" y2="1.188" xlink:href="#linear-gradient-11"/>
    <linearGradient id="linear-gradient-13" x1="0.496" y1="-4.471" x2="0.505" y2="7.564" xlink:href="#linear-gradient-11"/>
    <linearGradient id="linear-gradient-14" x1="0.538" y1="0.354" x2="0.334" y2="1.011" gradientUnits="objectBoundingBox">
      <stop offset="0" stop-color="#faebd8"/>
      <stop offset="1" stop-color="#ffb83f"/>
    </linearGradient>
    <linearGradient id="linear-gradient-15" x1="0.487" y1="0.494" x2="0.359" y2="1.008" xlink:href="#linear-gradient-14"/>
    <linearGradient id="linear-gradient-16" x1="1.01" y1="1.054" x2="0.241" y2="0.258" xlink:href="#linear-gradient-3"/>
    <clipPath id="clip-path-3">
      <path id="Path_15286" data-name="Path 15286" d="M1008.718,286.457a21.427,21.427,0,0,0-5.6-2.11c-8.035-1.768-16.4,1.76-24.562.767-13.067-1.59-22.354-14.881-23.263-28.013-.671-9.682,2.267-19.141,6.408-27.782,4.93-10.286,5.807-11.413-.339-21.285a21.07,21.07,0,0,1-1.847-18.148c2.245-6.074,8.4-7.489,11.064-12.25,1.859-3.324.518-9.373.821-13.167.627-7.852,2.344-16.021,6.866-22.623a29.249,29.249,0,0,1,17.166-11.712c2.578-.668,26.326-.893,25.937.134,8.4-22.149,24.876-39.811,50.092-37.564a74.487,74.487,0,0,1,17.266,3.869c7.715,2.622,12.353-.478,20.281-1.58a59.242,59.242,0,0,1,42.708,10.494c4.41,3.228,8.5,7.3,10.2,12.491,2.534,7.735-.586,16.742,3.016,24.041,3.019,6.12,9.8,9.177,15.424,13.049,7.468,5.146,13.518,12.559,16.238,21.211s1.892,18.531-2.964,26.192c-3.232,5.1-8.127,9.187-10.295,14.821-2.419,6.287-1,13.393,1.279,19.732s5.406,12.454,6.448,19.11c2.308,14.743-6.167,29.331-17.28,39.292-6.684,5.992-18.923,11.639-27.286,14.892a57.3,57.3,0,0,1-35.6,1.841c-7.574-2.018-14.656-6.766-22.157-8.475-8.279-1.886-15.99,3.794-23.339,6.548a38.042,38.042,0,0,1-35.776-5.3C1022.259,299.288,1016.6,290.713,1008.718,286.457Z" transform="translate(-955.202 -92.512)" fill="none"/>
    </clipPath>
    <linearGradient id="linear-gradient-17" x1="0.399" y1="-0.171" x2="0.704" y2="1.166" gradientUnits="objectBoundingBox">
      <stop offset="0" stop-color="#ff9077"/>
      <stop offset="1" stop-color="#e9645a"/>
    </linearGradient>
    <linearGradient id="linear-gradient-18" x1="0.047" y1="-0.304" x2="0.916" y2="0.936" xlink:href="#linear-gradient-17"/>
    <linearGradient id="linear-gradient-19" x1="-3.829" y1="-5.979" x2="0.98" y2="1.214" xlink:href="#linear-gradient-17"/>
    <linearGradient id="linear-gradient-20" x1="-2.382" y1="-3.834" x2="0.146" y2="-0.006" xlink:href="#linear-gradient-17"/>
    <linearGradient id="linear-gradient-21" x1="0.244" y1="-0.417" x2="0.742" y2="1.367" xlink:href="#linear-gradient-17"/>
    <linearGradient id="linear-gradient-22" x1="-22.538" y1="-58.517" x2="-21.599" y2="-58.517" xlink:href="#linear-gradient-17"/>
    <linearGradient id="linear-gradient-23" x1="0.713" y1="-0.573" x2="0.336" y2="1.476" xlink:href="#linear-gradient-17"/>
    <linearGradient id="linear-gradient-24" x1="0.516" y1="0.293" x2="0.373" y2="1.104" xlink:href="#linear-gradient-17"/>
  </defs>
  <g id="Group_17489" data-name="Group 17489" transform="translate(-548.741 -81.751)">
    <g id="Group_17453" data-name="Group 17453" transform="translate(578.329 135.177)">
      <path id="Path_15187" data-name="Path 15187" d="M957.723,448.42c-24.467,43.849-49.405,81.155-80.886,118.931-20.739,22.536-49.894,37.785-79.9,41.258-39.161,4.132-79.075-2.2-112.455-27.425-30.352-22.742-58.242-48.565-80.76-77.764-14.7,40.324-10.666,91.406,11.235,130.3,33.854,60.115,101.366,75.081,131.481,81.756,142.8,31.655,350.5-42.846,381.058-190.385,12.645-61.042-8.708-116.827-27.139-151C1043.714,379.929,986.753,393.807,957.723,448.42Z" transform="translate(-595.024 -240.623)" fill="url(#linear-gradient)"/>
      <path id="Path_15188" data-name="Path 15188" d="M908.6,165.33c-63.417-.6-132.824,30.583-167.53,82.325-23.612,35.2-20.952,64.7-59.773,104.481-28.172,28.872-39.209,23.213-56.507,45.931a113.78,113.78,0,0,0-16.152,30.051c22.517,29.2,50.407,55.023,80.76,77.764,33.38,25.22,73.294,31.557,112.455,27.425,30-3.473,59.156-18.722,79.9-41.258,31.481-37.776,56.419-75.082,80.886-118.931,29.03-54.614,85.992-68.492,142.639-74.337a274.95,274.95,0,0,0-20.447-32.484C1072.83,250.027,1011.1,166.292,908.6,165.33Z" transform="translate(-599.934 -165.322)" fill="url(#linear-gradient-2)"/>
    </g>
    <g id="Group_17461" data-name="Group 17461" transform="translate(548.741 302.517)">
      <g id="Group_17456" data-name="Group 17456" transform="translate(0 35.371)">
        <g id="Group_17455" data-name="Group 17455" clip-path="url(#clip-path)">
          <g id="Group_17454" data-name="Group 17454" transform="translate(0.807 -25.444)">
            <path id="Path_15189" data-name="Path 15189" d="M607.764,728.932c36.522-56.381,80.1-128.018,13.661-182.368a295.242,295.242,0,0,0-30.1-21.551c-12.84,33.013,16.9,54.832,2.02,95.89-8.4,23.171-19.993,22.083-31.741,45.4-16.824,33.387-16.058,81.3,6.961,114.637,25.008,36.214,71.318,48.026,113.88,50.266a717.976,717.976,0,0,1-64.755-47.323C591.891,763.261,597.725,745.263,607.764,728.932Z" transform="translate(-550.003 -472.331)" fill="url(#linear-gradient-3)"/>
            <path id="Path_15190" data-name="Path 15190" d="M898.769,742.119c33.724-38.759,32.962-82.545,32.547-94.855-.35-10.378-2.6-77.008-44.529-98.239-11.093-5.616-24.445-7.794-39.385-21.272-12.648-11.41-17.45-22.815-20.663-28.726-18.714-34.427-83.33-66.111-140.392-53.653-5.851,1.277-57.143,13.154-71.591,49.6-.042.107-.073.212-.114.318a295.248,295.248,0,0,1,30.1,21.551c66.438,54.35,22.861,125.987-13.661,182.368-10.04,16.33-15.874,34.329,9.926,54.948a717.986,717.986,0,0,0,64.755,47.323c46.1,2.427,87.792-6.374,93.258-7.592C825.475,787.994,867.514,778.039,898.769,742.119Z" transform="translate(-573.318 -442.607)" fill="url(#linear-gradient-4)"/>
          </g>
          <path id="Path_15191" data-name="Path 15191" d="M724.256,470.019c-8.625,10.938-11.521,25.026-12.235,38.672s.5,27.371-1.013,40.958a104.8,104.8,0,0,1-17.037,46.421c15.729-1.646,31.5,1.75,47.3,2.684,10.738.635,21.509.13,32.254-.375,18.873-.887,38.091-1.84,55.807-8.079,1.894-.667,3.889-1.488,4.962-3.112a8.233,8.233,0,0,0,1.024-4.366c.171-5.656-12.939-98.142-16.645-105.613-4.556-9.185-14.956-17.755-24.388-22.543-11.636-5.908-25.9-5.963-38.394-3.235a73.059,73.059,0,0,0-17.06,5.5C732.482,460.087,728.456,464.693,724.256,470.019Z" transform="translate(-601.126 -470.605)" fill="#100052"/>
          <path id="Path_15192" data-name="Path 15192" d="M759.159,896.154a140.055,140.055,0,0,0,67.366-8.06c15.026-5.8,30.646-14.852,27.533-32.839a315.461,315.461,0,0,0-9.068-38.119c-3.369-11.058-8.671-21.154-8.84-32.738-.352-24.128,1.013-48.475,7.606-71.8,4.01-14.187,3.981-34.2-3.281-47.573-5.921-10.9-24.857-8.716-34.318-16.11-2.783-2.175-22.481,3.237-26.57,3.737-8.294,1.013-16.606,1.892-24.932,2.589-11.05.925-24.888-3.852-35.125,1.895-10.49,5.889-6.637,16.207-6.963,26.483a171.628,171.628,0,0,1-4.766,35.094c-1.353,5.56-2.99,11.09-3.457,16.8-.79,9.682,3.117,20.2,5.913,29.3,3.521,11.454,5.06,21.288,4.191,33.387a258.978,258.978,0,0,1-10.714,57.35c-2,6.516-4.116,14.108-.224,19.7,1.8,2.592,4.63,4.26,7.415,5.749A138.458,138.458,0,0,0,759.159,896.154Z" transform="translate(-603.78 -542.282)" fill="#feca84"/>
        </g>
      </g>
      <g id="Group_17458" data-name="Group 17458" transform="translate(112.416 11.129)">
        <path id="Path_15194" data-name="Path 15194" d="M841.411,661.194c4.359,11.412-10.47,21.811-19.137,24.72a66.486,66.486,0,0,1-33.438,1.9,63.87,63.87,0,0,1-37.458-23.339c-2.014-2.611-1.351-8.184.415-10.887a5.928,5.928,0,0,1,2.1-1.83c4.091-2.357,8.8-2.433,13.311-3.2,6-1.024,11.08-6.095,17.244-7.8q1.186-.329,2.383-.607a57.855,57.855,0,0,1,20.615-1.05c11.782,1.537,21.749,12.854,31.8,19.787A5.239,5.239,0,0,1,841.411,661.194Z" transform="translate(-733.802 -514.511)" fill="#b27344" stroke="#100052" stroke-linecap="round" stroke-linejoin="round" stroke-width="0.983"/>
        <path id="Path_15195" data-name="Path 15195" d="M786.878,633.224c1.252-8.792,2.392-17.813,2.936-26.718.518-8.517-3.205-20.623,4.469-26.842a14.3,14.3,0,0,1,6-2.448c14.477-3.255,23.687-.112,34.617,9.839,2.4,2.181,4.905,4.678,5.284,7.895.334,2.823-1.059,5.52-2.161,8.141-4.558,10.852-5.059,24.259-3.137,35.728" transform="translate(-747.054 -491.917)" fill="#b27344" stroke="#100052" stroke-linecap="round" stroke-linejoin="round" stroke-width="0.983"/>
        <g id="Group_17457" data-name="Group 17457">
          <path id="Path_15196" data-name="Path 15196" d="M857.025,540.267c.543,15.966-.969,38.813-21.29,37.642-17.547-1.011-30.615-4.155-42.865-17.765A52.194,52.194,0,0,1,781.515,539.7a46.178,46.178,0,0,1-1.619-14.609c.363-15.5,5.2-31.613,16.622-42.1,10.569-9.7,23.069-10.082,33.987-.92C848.282,496.989,856.253,517.59,857.025,540.267Z" transform="translate(-744.527 -455.655)" fill="#b27344" stroke="#100052" stroke-linecap="round" stroke-linejoin="round" stroke-width="0.983"/>
          <path id="Path_15197" data-name="Path 15197" d="M784.777,508.483l-.258.121c-2.206,1.03-4.139,2.677-6.289,3.889-2.727,1.536-5.628,2.793-8.134,4.667a14.888,14.888,0,0,0-5.66,7.881c-1.318,4.992,1.907,9.557,3.6,14.063,2.718,7.216-6.465,8.876-11.427,7.006-21.287-8.025-35.878-33.156-31.13-55.541,2.791-13.158,9.8-25.877,20.612-33.876,8.029-5.938,18.711-9.078,28.5-11.11,10.474-2.176,20.54-1.028,30.646,2.628a37.626,37.626,0,0,1,4.978,2.14,48.876,48.876,0,0,1,8.568,6.341c4.549,3.912,7.17,8.688,9.31,14.24q1.408,3.65,2.595,7.379a23.705,23.705,0,0,1,1.5,8.6c-.129,2.016-1.038,5.272-2.757,6.539-2.222,1.638-4.905-2.622-6.222-4.259-3.286-4.084-6.635-8.12-10.084-12.067q-2.586-2.96-5.252-5.849c-1.2-1.3-2.858-4.061-4.919-3.881-2.4.21-1.413,4.237-1.449,5.788a58.247,58.247,0,0,1-.765,8.109,57.64,57.64,0,0,1-4.875,15.5,27.924,27.924,0,0,1-5.124,7.723A20.056,20.056,0,0,1,784.777,508.483Z" transform="translate(-724.584 -444.486)" fill="#100052"/>
          <path id="Path_15198" data-name="Path 15198" d="M784.951,568.462c-4.469-3.145-12.455-3.562-14.5,2.679-1.4,4.264,1.133,9.666,3.781,12.927,3.744,4.61,10.006,6.211,12.838-.184" transform="translate(-740.985 -488.4)" fill="#b27344" stroke="#100052" stroke-linecap="round" stroke-linejoin="round" stroke-width="0.983"/>
        </g>
      </g>
      <g id="Group_17459" data-name="Group 17459" transform="translate(163.505 123.035)">
        <path id="Path_15199" data-name="Path 15199" d="M870.958,660.061c-1.44-2.036-1.631-4.68-1.667-7.174a90.378,90.378,0,0,1,4.191-28.542c.5-1.592.845-3.758-.623-4.556a2.783,2.783,0,0,0-1.628-.229c-5.655.607-6.8,6.98-8.275,11.383a99.426,99.426,0,0,0-3.625,14.336c-.407,2.3-.6,4.656-1.06,6.935-.309,1.524-1.232,3.749-.433,5.272" transform="translate(-823.624 -619.533)" fill="#b27344" stroke="#100052" stroke-linecap="round" stroke-linejoin="round" stroke-width="0.983"/>
        <path id="Path_15200" data-name="Path 15200" d="M861.991,712.629l3.037-28a7.285,7.285,0,0,0-2.663-7.962l-6.086-5.771c-3.427-3.249-7.455-6.726-12.164-6.378-4.095.3-7.5,3.609-9.032,7.416s-1.536,8.046-1.287,12.144a112.552,112.552,0,0,0,6.33,30.961" transform="translate(-815.023 -635.749)" fill="#b27344" stroke="#100052" stroke-linecap="round" stroke-linejoin="round" stroke-width="0.983"/>
        <path id="Path_15201" data-name="Path 15201" d="M832.958,658.654a17.64,17.64,0,0,0-6.683-1.369c-2.666-.2-5.3-.973-7.935-1.41a2.9,2.9,0,0,0-1.807.1,2.07,2.07,0,0,0-.894,1.053,3.946,3.946,0,0,0,1.015,4.281,5.421,5.421,0,0,0,4.346,1.3" transform="translate(-808.421 -632.607)" fill="#b27344" stroke="#100052" stroke-linecap="round" stroke-linejoin="round" stroke-width="0.983"/>
        <path id="Path_15202" data-name="Path 15202" d="M839.739,664.791c-2.782-.984-5.257-2.71-8.046-3.671a31.594,31.594,0,0,0-4.1-1.015c-1.372-.274-3.049.8-4.374,1.22q-2.763.876-5.552,1.667c-3.469.988-6.964,1.89-10.47,2.74a5.036,5.036,0,0,0-1.94.767,1.706,1.706,0,0,0-.676,1.844,2.517,2.517,0,0,0,1.281,1.164c2.422,1.327,5.088,2.7,7.809,2.226,2.773-.481,5.323-2.837,8.032-2.076" transform="translate(-804.499 -634.152)" fill="#b27344" stroke="#100052" stroke-linecap="round" stroke-linejoin="round" stroke-width="0.983"/>
        <path id="Path_15203" data-name="Path 15203" d="M838.52,669.223l-4.637.049c-3.222.034-6.6,2.034-9.391,3.519a32.232,32.232,0,0,0-6.3,4.609,17.691,17.691,0,0,0-3.528,4,7.278,7.278,0,0,0-1.033,5.13,3.172,3.172,0,0,0,1.619,2.311,3.3,3.3,0,0,0,3.539-1.08c.908-.953,1.491-2.172,2.355-3.164a14.44,14.44,0,0,1,3.281-2.55,18.589,18.589,0,0,1,4-2.1" transform="translate(-807.747 -637.456)" fill="#b27344" stroke="#100052" stroke-linecap="round" stroke-linejoin="round" stroke-width="0.983"/>
        <path id="Path_15204" data-name="Path 15204" d="M846.907,679.347c-3.9-1.215-6.91.7-10.183,2.585a9.818,9.818,0,0,0-2.167,1.55c-1.443,1.471-1.915,3.61-2.326,5.628a1.611,1.611,0,0,0,.214,1.526,1.219,1.219,0,0,0,.745.269c1.409.1,2.622-.9,3.749-1.753a25.288,25.288,0,0,1,4.806-2.866,8.824,8.824,0,0,1,3.184-.911,3.877,3.877,0,0,1,3.035,1.1" transform="translate(-814.471 -640.971)" fill="#b27344" stroke="#100052" stroke-linecap="round" stroke-linejoin="round" stroke-width="0.983"/>
      </g>
      <g id="Group_17460" data-name="Group 17460" transform="translate(188.735 297.804)">
        <path id="Path_15205" data-name="Path 15205" d="M852.228,908.406c11.154-4.858,20.8-17.093,34.237-15.321a16.724,16.724,0,0,1,5.755,2.308c3.167,1.755,6.734,4.123,6.9,7.739.108,2.374-1.359,4.528-2.978,6.267-6.727,7.225-14.917,13.928-24.523,16.794-8.875,2.647-20.261,2.989-27.654-3.33" transform="translate(-843.964 -892.911)" fill="#b27344" stroke="#100052" stroke-linecap="round" stroke-linejoin="round" stroke-width="0.983"/>
        <path id="Path_15206" data-name="Path 15206" d="M912.376,894.116a21.3,21.3,0,0,1,12.845,5.3,17.076,17.076,0,0,1,5.57,10.245,17.321,17.321,0,0,1-9.364,17.447,3.56,3.56,0,0,1-1.444.435c-1.537.032-2.568-1.753-2.418-3.283a11.412,11.412,0,0,1,1.813-4.2c1.967-3.569,3.911-10.934-1.989-12.042" transform="translate(-868.641 -893.345)" fill="#b27344" stroke="#100052" stroke-linecap="round" stroke-linejoin="round" stroke-width="0.983"/>
        <path id="Path_15207" data-name="Path 15207" d="M918.762,904.33a10.016,10.016,0,0,1,4.3,7.367,15.7,15.7,0,0,1-1.3,6.84,37.564,37.564,0,0,1-6.589,10.982A8.8,8.8,0,0,1,911.2,932.5c-1.614.467-3.645-.121-4.286-1.675a4.194,4.194,0,0,1,.026-2.737c.751-2.6,2.552-4.761,3.615-7.25.73-1.712,1.313-4.345.284-6.039-1.335-2.2-3.563-3.8-4.86-6.144" transform="translate(-866.333 -897.03)" fill="#b27344" stroke="#100052" stroke-linecap="round" stroke-linejoin="round" stroke-width="0.983"/>
      </g>
      <path id="Path_15208" data-name="Path 15208" d="M653.561,808.188a494.981,494.981,0,0,1,8.912-81.024c5.07-26.089,4.814-51.355,34.035-62.134a12.209,12.209,0,0,1,6.151-.992c4.364.731,6.889,5.245,8.647,9.306A206.646,206.646,0,0,1,727.9,744.334c.913,15.893-6.931,32.367-10.9,47.7a2.489,2.489,0,0,0,2.364,3.641c12.393,3,24.869,5.66,37.183,8.977,10.146,2.732,22.761,4.935,27.816,15.325,2.666,5.479,3.181,11.758,2.991,17.848-.1,3.246-.439,6.637-2.206,9.361a6.263,6.263,0,0,1-3.115,2.638,9.053,9.053,0,0,1-4.545-.076c-5.9-1.116-11.771-1.991-17.664-2.911-25.268-3.888-50.2-10.306-75.212-15.588C673.532,828.909,653.161,823.033,653.561,808.188Z" transform="translate(-586.548 -512.515)" fill="#feca84"/>
      <path id="Path_15209" data-name="Path 15209" d="M896.4,790.1c-7.17-26.753-15.952-53.228-23.79-79.845-.486-1.651-1.047-3.416-2.333-4.421-1.38-1.078-3.222-1-4.912-.869-8.529.639-18.87,2.7-21.732,11.548-1.092,3.374-.776,7.074-.446,10.637,1.78,19.227,3.9,38.457,7.6,57.422,2.861,14.658,4.979,38.61,17.206,48.678,5.021,4.135,12.492,4.6,18.42,1.923,15.953-7.21,21.891-32.7,26.384-47.745a265.84,265.84,0,0,0,11.126-76.351c-.015-10.023-.821-20.741-6.441-28.638-6.848-9.622-23.84-16.757-35.157-18.421,2.47,15.662-.356,31-2.4,46.719-3.481,26.836-9.33,53.01-12.787,79.843" transform="translate(-654.838 -512.545)" fill="#feca84"/>
      <path id="Path_15210" data-name="Path 15210" d="M869.254,729.073c-5.362-4.651-16.1-.738-20.726,3.162-2.582,2.178-5.422,5.123-6.623,8.348-.586,1.574.077,3.861.272,5.451l1.229,10.025,2.457,20.05,4.966,40.517c1.191,9.718,2.6,19.977,8.678,27.653" transform="translate(-654.401 -535.247)" fill="none" stroke="#100052" stroke-linecap="round" stroke-linejoin="round" stroke-width="0.983"/>
      <path id="Path_15211" data-name="Path 15211" d="M725.6,727.381c.306,12.808-5.823,24.761-9.2,37.119a53.521,53.521,0,0,0,1.287,32.245c1.293,3.432,3.2,6.945,6.5,8.534" transform="translate(-608.538 -535.399)" fill="none" stroke="#100052" stroke-linecap="round" stroke-linejoin="round" stroke-width="0.983"/>
      <path id="Path_15212" data-name="Path 15212" d="M693.971,848.239c11.738-1.558,20.466,1.208,31.3,5.195,17.377,6.4,34.738,12.982,52.488,18.567,8.714,2.742,18.262,7.212,21.618,16.488,2.771,7.661,4.117,18.011.715,25.655-2.06,4.628-4.994,3.033-9.1,2.443" transform="translate(-601.126 -578.834)" fill="none" stroke="#100052" stroke-linecap="round" stroke-linejoin="round" stroke-width="0.983"/>
      <path id="Path_15213" data-name="Path 15213" d="M805.989,947.744c-28.072-5.433-57.576-7.145-84.74-16.069" transform="translate(-610.965 -609.089)" fill="none" stroke="#100052" stroke-linecap="round" stroke-linejoin="round" stroke-width="0.983"/>
      <path id="Path_15214" data-name="Path 15214" d="M883.37,729.315a329.369,329.369,0,0,1,28.346,71.262" transform="translate(-669.443 -536.097)" fill="none" stroke="#100052" stroke-linecap="round" stroke-linejoin="round" stroke-width="0.983"/>
      <path id="Path_15215" data-name="Path 15215" d="M826.338,525.051a27.015,27.015,0,0,0-17.193,6.108c-.1.084-.255.17-.355.082s.157-.231.127-.1" transform="translate(-642.533 -462.418)" fill="none" stroke="#100052" stroke-linecap="round" stroke-linejoin="round" stroke-width="5.65"/>
      <path id="Path_15216" data-name="Path 15216" d="M863.865,516.621a19.682,19.682,0,0,1,15.282-2.268c.114.028.264.036.3-.085s-.222-.134-.14-.033" transform="translate(-662.408 -458.331)" fill="none" stroke="#100052" stroke-linecap="round" stroke-linejoin="round" stroke-width="5.65"/>
      <path id="Path_15217" data-name="Path 15217" d="M866.41,571.624a7.706,7.706,0,0,0,3.669-1.781,4,4,0,0,0,.3-3.614,2.624,2.624,0,0,1,1.123,2.264,5.105,5.105,0,0,1-.147.871,6.961,6.961,0,0,1-2.342,4.138c-1.756,1.212-4.153.566-6.07-.24a8.474,8.474,0,0,1-3.741-2.425C861.365,570.5,863.713,572.275,866.41,571.624Z" transform="translate(-660.724 -477.271)" fill="#e2a383" opacity="0.44" style="mix-blend-mode: multiply;isolation: isolate"/>
      <ellipse id="Ellipse_361" data-name="Ellipse 361" cx="3.446" cy="2.866" rx="3.446" ry="2.866" transform="translate(210.48 69.262) rotate(-6.392)" fill="#100052"/>
      <ellipse id="Ellipse_362" data-name="Ellipse 362" cx="3.446" cy="2.868" rx="3.446" ry="2.868" transform="translate(178.908 74.756) rotate(-6.392)" fill="#100052"/>
      <path id="Path_15218" data-name="Path 15218" d="M860.324,598.774c9.724-4.912,12.538-3.5,16.7-3.424.37.007.168-.742-.2-.779-3.028-.3-6.387-2.558-16.709,3.424C859.778,598.188,859.991,598.942,860.324,598.774Z" transform="translate(-660.993 -487.253)" fill="#100052"/>
      <path id="Path_15219" data-name="Path 15219" d="M986.809,435.619a18.592,18.592,0,0,0-4.7-6.038c-3.735-2.672-8.137-2.957-12.51-2.009-6.614,1.434-17.154,6.086-20.345,12.738-2,4.175.793,5.27,1.1,8.943.12,1.425.227,2.792.366,4.086A51.316,51.316,0,0,1,986.809,435.619Z" transform="translate(-692.951 -427.079)" fill="url(#linear-gradient-5)"/>
      <path id="Path_15220" data-name="Path 15220" d="M951.957,458.159c.782,7.269,2.582,12.219,13.324,12,4.5-.093,6.872-2.972,10.906-3.72a10.347,10.347,0,0,1,1.224-.15c4.9-.317,9.862,2.462,13.883-2.117,3.812-4.34.9-16.124-3.253-23.728A51.316,51.316,0,0,0,951.957,458.159Z" transform="translate(-694.183 -431.898)" fill="url(#linear-gradient-6)"/>
      <path id="Path_15221" data-name="Path 15221" d="M936.147,518.126c-2.149-.628-3.885-2.431-4.579-5.915-1.352-6.784,10.148-11.86,15.548-8.836C956,508.356,943.6,520.3,936.147,518.126Z" transform="translate(-686.789 -454.277)" fill="url(#linear-gradient-7)"/>
    </g>
    <g id="Group_17467" data-name="Group 17467" transform="translate(911.408 322.706)">
      <g id="Group_17466" data-name="Group 17466" clip-path="url(#clip-path-2)">
        <path id="Path_15222" data-name="Path 15222" d="M1339.886,481.739c-27.829-19.725-64.93-32.279-96.1-14.684-17.39,9.816-28.147,6.469-47.095,8.31-16.624,1.616-31.276,10.784-42.589,22.659-13.034,13.681-26.439,34.667-32.606,55.578.82.315,1.644.621,2.477.912,75.948,26.751,148.205-16.911,220.464-39.05,8.4-2.571,16.992-5.047,25.675-7.048A183.562,183.562,0,0,0,1339.886,481.739Z" transform="translate(-1118.003 -458.659)" fill="url(#linear-gradient-8)"/>
        <path id="Path_15223" data-name="Path 15223" d="M1197.028,612.464c-27.6,3.524-54.086,1.154-80.784-6.3a60.09,60.09,0,0,0-.045,9.378c2.567,33.271,29.72,60.718,59.026,73.706,29.928,13.264,68.49,5.617,100.409,3.863,54.534-3,117.587-39.317,115.5-101.39-.4-12.03-5.379-23.8-12.683-34.639-17.528,1.629-34.488,7.133-50.746,13.869C1284.967,588.48,1243.457,606.621,1197.028,612.464Z" transform="translate(-1116.034 -494.162)" fill="url(#linear-gradient-9)"/>
        <path id="Path_15224" data-name="Path 15224" d="M1342.583,543.54c-72.258,22.139-144.516,65.8-220.463,39.05-.832-.291-1.656-.6-2.477-.912a84.3,84.3,0,0,0-3.283,17.061c26.7,7.452,53.181,9.821,80.784,6.3,46.429-5.843,87.94-23.984,130.679-41.51,16.258-6.736,33.218-12.24,50.746-13.869a123.325,123.325,0,0,0-10.311-13.165C1359.575,538.492,1350.983,540.968,1342.583,543.54Z" transform="translate(-1116.151 -486.734)" fill="url(#linear-gradient-10)"/>
        <path id="Path_15225" data-name="Path 15225" d="M1306.92,693.249" transform="translate(-1184.887 -543.277)" fill="#2a7195"/>
        <line id="Line_403" data-name="Line 403" x1="5.313" y2="25.49" transform="translate(60.722 154.747)" fill="none" stroke="#195770" stroke-linecap="round" stroke-width="0.481"/>
        <path id="Path_15226" data-name="Path 15226" d="M1290.624,600.316" transform="translate(-1179.009 -509.755)" fill="#685545" stroke="#352e28" stroke-width="0.481"/>
        <path id="Path_15227" data-name="Path 15227" d="M1321.607,707.744l.545,10.918h-9.313l-.849-5.883Z" transform="translate(-1186.715 -548.505)" fill="#d3b39b" stroke="#352e28" stroke-width="0.481"/>
        <g id="Group_17463" data-name="Group 17463" transform="translate(42.056 67.117)">
          <path id="Path_15228" data-name="Path 15228" d="M1214.876,649.264c.66,3.427,3.515,6.276,6.611,7.785a16.794,16.794,0,0,0,10.346,1.235,7.507,7.507,0,0,0,2.543-.859,9.235,9.235,0,0,0,1.613-1.347q2.685-2.612,5.371-5.226c.8-.772,1.139-1.01,1.284-2.121.079-.605.153-1.211.231-1.817l-6.593-7.9c-3.6,3.315-6.936,1.847-6.02-1.789a48.634,48.634,0,0,1-16.053,3.941c.181,2.385.376,4.77.543,7.158A7.815,7.815,0,0,0,1214.876,649.264Z" transform="translate(-1193.501 -590.184)" fill="#100052"/>
          <path id="Path_15229" data-name="Path 15229" d="M1186.535,694.34c-2.976,9.755-4.82,19.357-4.712,28.654.061,5.189,6.236,8.113,10.071,10.421a85.575,85.575,0,0,0,16.147,7.553c4.96,1.715,10.25,2.982,15.435,2.163a6.743,6.743,0,0,0,2.2-.66c1.844-1.011,2.155-1.733.756-2.954-.907-.791-1.84-1.555-2.758-2.333l-7.582-6.413-11.03-9.327-.024-.02,5.642-27.71-18.232-6.261Z" transform="translate(-1181.818 -608.302)" fill="#685545" stroke="#100052" stroke-width="0.102"/>
          <path id="Path_15230" data-name="Path 15230" d="M1197.09,739.64c7.78.855,14.653,2.987,19.58,7.857" transform="translate(-1187.326 -627.127)" fill="none" stroke="#100052" stroke-width="0.243"/>
          <path id="Path_15231" data-name="Path 15231" d="M1305.546,628.991c-1.4-1.2-3.1-2.153-3.989-3.783a4.137,4.137,0,0,1-.492-3.1c.373-1.337,1.448-1.761,2.19-2.775,3.516-4.808,2.279-10.318-2.623-16.37a11.3,11.3,0,0,1-.688,4.831c-1.32,2.375-4.374,1.371-6.726.577,2.9,9.008-2.659,23.27-6.089,30.047a15.4,15.4,0,0,1,2.21-.254c.889-.152,1.771-.349,2.648-.557.8-.191,1.6-.4,2.4-.6a8.676,8.676,0,0,1,2.317-.595,9.692,9.692,0,0,1,1.818.736,10.468,10.468,0,0,0,2.336.493,7.189,7.189,0,0,0,4.931-1.16,4.443,4.443,0,0,0,1.8-4.533A5.886,5.886,0,0,0,1305.546,628.991Z" transform="translate(-1219.804 -577.828)" fill="#100052"/>
          <g id="Group_17462" data-name="Group 17462" transform="translate(1.266 55.296)">
            <path id="Path_15232" data-name="Path 15232" d="M1229.6,655.231a3.228,3.228,0,0,0-.007-.444c-.075-.8-.428-.714-1.283-.9a39.439,39.439,0,0,0-9.34-.482c-2.674.073-5.352.15-8.013.439-2.4.26-4.715,1.015-7.1,1.269a5.874,5.874,0,0,0-4.279,2.037c-1.647,1.716-2.948,3.726-4.549,5.482-3.281,3.6-5.341,8.341-7.721,12.629-1.486,2.679-3,5.431-3.463,8.459a1.812,1.812,0,0,0,.027.906,1.857,1.857,0,0,0,.516.664,34.271,34.271,0,0,0,10.254,6.137,32.7,32.7,0,0,0,4.975,1.962c1.49.352,3.663.541,3.579,2.385a24.914,24.914,0,0,1-1.178,7.058c-.55,1.5-1.563,4.232-.559,5.748,3.24,4.893,12.919,10.574,22.79,16.278,17.78,9.963,33.057,9.715,46.014,0l-4.124-31.905c6.018-3.32,11.658-6.7,12.372-10.853l-3.733-20.627a12.866,12.866,0,0,0-4.005-7.334c-3.823-3.416-9.21-4.1-15.052-3.993.129,2.111-1.746,3.484-3.438,4.32a18.073,18.073,0,0,1-2.224.9c-.517.174-2.02.334-2.31.77s0,2.006-.078,2.576a11.268,11.268,0,0,1-.64,2.558,6.125,6.125,0,0,1-.9,1.663c-1.447,1.814-4.065,2.114-6.385,2.054a19.837,19.837,0,0,1-5.1-.7,6.86,6.86,0,0,1-2.739-1.415,6.3,6.3,0,0,1-1.257-1.691,10.143,10.143,0,0,1-1.176-4.262C1229.443,656.374,1229.572,655.787,1229.6,655.231Z" transform="translate(-1183.799 -650.139)" fill="#2a7195"/>
            <line id="Line_404" data-name="Line 404" x2="3.473" y2="16.568" transform="translate(78.865 26.249)" fill="none" stroke="#100052" stroke-width="0.481"/>
          </g>
          <path id="Path_15233" data-name="Path 15233" d="M1257.142,647.5a1.191,1.191,0,0,0-.676.647c-1.309,2.592-1.16,7.161-.862,10.023a8.313,8.313,0,0,0,1.658,4.725,6.173,6.173,0,0,0,1.719,1.253,14.3,14.3,0,0,0,10.969,1.082,3.968,3.968,0,0,0,1.75-.949,5.946,5.946,0,0,0,1.2-3.257q.447-2.927.673-5.892a16.145,16.145,0,0,0,.172-2.967c-.1-.788-.026-.577-.572-.875a17.069,17.069,0,0,0-3.924-.974l-5.366-1.331-4.779-1.187A3.892,3.892,0,0,0,1257.142,647.5Z" transform="translate(-1208.36 -593.869)" fill="#685545" stroke="#100052" stroke-width="0.102"/>
          <path id="Path_15234" data-name="Path 15234" d="M1244.652,622.312c3.262,5.545,8.862,9.41,16.485,11.822a10.982,10.982,0,0,0,5.818.231c8.991-2.107,10.4-6.678,10.679-21.1.006-.3,0-.612-.022-.915a35.142,35.142,0,0,0-6.047-16.914l-17.8-6.077-14.975,29.518C1235.03,621.844,1242.915,627.994,1244.652,622.312Z" transform="translate(-1202.006 -572.92)" fill="#685545" stroke="#100052" stroke-width="0.102"/>
          <path id="Path_15235" data-name="Path 15235" d="M1271.39,593.614a11.3,11.3,0,0,0,.688-4.831,50.321,50.321,0,0,0-4.974-5.226,50.812,50.812,0,0,0-4.222-9.99,14.229,14.229,0,0,0-3.025-4.013,30.867,30.867,0,0,0-4.2-2.813c-.744-.434-1.495-.86-2.275-1.226-6.654-3.122-14.977-1.886-21.67.426-4.178,1.443-8.052,3.279-10.937,6.753-4.235,5.1-5.093,11.925-5.9,18.272a8.632,8.632,0,0,1-3.078,5.632c-5.208,4.228-5,9.4-.042,15.392l.2,2.634a48.635,48.635,0,0,0,16.053-3.941c.008-.035.015-.068.025-.1,14.4-8.481,18.609-18.649,16.6-29.844,4.314,3.976,9.866,6.173,16.82,6.353,1.369,2.784,3.031,5.531,3.9,8.216C1267.707,596.1,1270.07,595.989,1271.39,593.614Z" transform="translate(-1191.249 -563.644)" fill="#100052"/>
        </g>
        <g id="Group_17464" data-name="Group 17464" transform="translate(126.993 23.53)">
          <path id="Path_15236" data-name="Path 15236" d="M1386.17,558.619a16.241,16.241,0,0,0,4.894,5.305,21.463,21.463,0,0,1,3.246,2.624,4.983,4.983,0,0,1,1.461,3.784,6.112,6.112,0,0,1-1.818,3.295A21.007,21.007,0,0,1,1375,579.9a6.678,6.678,0,0,1-2.968-1.162,2.886,2.886,0,0,1-1.142-2.824,4.838,4.838,0,0,1,1.429-2.038,24.974,24.974,0,0,0,6.009-10.348c.517-1.779.836-3.617,1.471-5.358.437-1.2,2.459-5.954,4.07-5.842C1385.3,552.43,1385.6,557.526,1386.17,558.619Z" transform="translate(-1334.933 -515.976)" fill="#b27344" stroke="#100052" stroke-linecap="round" stroke-linejoin="round" stroke-width="0.502"/>
          <path id="Path_15237" data-name="Path 15237" d="M1413.673,534.213a30.093,30.093,0,0,1-7.418,9.768,19.86,19.86,0,0,1-12.64,5.023q-.283.491-.607,1.009l3.59,5.161,5.118,7.356a8.96,8.96,0,0,0,1.4,1.81,10.37,10.37,0,0,0,4.141,1.974c4.917,1.338,10.1,1.24,15.138,2.012,1.835.282,3.756.673,5.509.059a4.227,4.227,0,0,0,2.549-5.515l-2.214-5.043a39.646,39.646,0,0,0-1.785-3.714c-1.235-2.172-2.87-4.1-4.1-6.273-.539-.956-1-1.956-1.53-2.914-.6-1.084-1.3-2.112-2-3.139l-2.79-4.11C1415.809,537.339,1413.526,534.508,1413.673,534.213Z" transform="translate(-1342.932 -509.442)" fill="#100052" stroke="#100052" stroke-width="0.502"/>
          <path id="Path_15238" data-name="Path 15238" d="M1318.026,551.58c2.78,7.519,7.164,14.861,6.108,22.591-3.664,9.931-4.6,20.438,0,32.114.115-6.218.954-12.59,3.5-18.317a27.215,27.215,0,0,1,4.32-6.865c1.608-1.842,4.067-4.084,6.428-4.846.494-.159,1.1-.344,1.206-.852-1.336-.814-.428-2.294-.958-3.744a10.637,10.637,0,0,0-1.934-2.964q-2.5-3.057-4.8-6.263c-.825-1.148-1.552-3.049-2.665-3.8-1.2-.818-2.915-1.214-4.224-1.9a30.15,30.15,0,0,1-3.843-2.387C1320.334,553.732,1318.392,552.569,1318.026,551.58Z" transform="translate(-1315.886 -515.706)" fill="#100052" stroke="#100052" stroke-width="0.502"/>
          <path id="Path_15239" data-name="Path 15239" d="M1428.82,671.511c-16.944,33.916-47.361,33.686-67.969,29.54l-4.7-6.331-12.6-16.963c-5.5-7.4-8.556-16.255-10.513-25.232q-1.124-5.154-2.24-10.31A152.86,152.86,0,0,1,1327.367,622a57.331,57.331,0,0,1,.529-14.4c.633-3.611,1.164-7.459,2.594-10.845a26.356,26.356,0,0,1,5.6-8.361,29.142,29.142,0,0,1,4.292-3.527c1.094-.742,3.505-2.743,4.846-2.743h7.6c1.644,0,3.1,1.36,4.234,2.438,1.485,1.419,2.557,2.381,4.7,2.794a15.134,15.134,0,0,0,10.687-2.061,14.768,14.768,0,0,0,4.242-3.793,7.524,7.524,0,0,0,1.265-2.5c.321-1.289-.87-2.8-.006-3.818.817-.959,4.116-.607,5.18-.669l14.25-.829c6.455-.375,11.98,1.148,15.911,6.591a44.143,44.143,0,0,1,4.975,10.217l3.19,8.3c1.885,4.9,3.889,9.795,4.983,14.914s3.136,9.729,3.521,15.079a14.8,14.8,0,0,1-.3,4.99c-.857,3.108-3.311,5.477-5.683,7.66-1.355,1.247-2.716,2.489-4.131,3.668-.968.807-4.585,2.618-4.983,3.661s2.159,4.04,2.8,5.057q1.826,2.89,3.653,5.779Z" transform="translate(-1319.176 -523.66)" fill="#feca84"/>
          <path id="Path_15240" data-name="Path 15240" d="M1360.6,636.357c-1.633,18.312,1.457,36.679,4.537,54.8" transform="translate(-1331.08 -546.285)" fill="none" stroke="#100052" stroke-width="0.502"/>
          <path id="Path_15241" data-name="Path 15241" d="M1372.335,543.329a9.437,9.437,0,0,0,5.4-11.9c-1.086-3.083-2.117-5.276-4.838-7.271-2.414-1.77-5.159-3.081-7.384-5.109-1.811-1.651-3.188-3.755-5.114-5.269-3.958-3.112-9.675-3.182-14.373-1.371a21.345,21.345,0,0,0-11.305,10.282c-3.055,6.124-2.88,14.474-.914,20.872A46.4,46.4,0,0,0,1339,554.826c2.057,3.232,4.667,6.323,8.213,7.776a13.677,13.677,0,0,0,12.269-1.382,18.455,18.455,0,0,0,6.49-7.458c1.552-3.131,3.224-5.842,3.872-9.38" transform="translate(-1321.062 -501.144)" fill="#b27344" stroke="#100052" stroke-linecap="round" stroke-linejoin="round" stroke-width="0.502"/>
          <path id="Path_15242" data-name="Path 15242" d="M1367.814,534.259l-.042.06a12.221,12.221,0,0,1-2.218,2.292c-.352.291-.32.488-.056.8s1.915,3.379,3.032,3.886a.515.515,0,0,0,.4-.192c.346-1.054.526-2.156.848-3.217a6,6,0,0,1,1.648-2.841,4.054,4.054,0,0,1,1.181-.742,3.544,3.544,0,0,0,1.008-.626c.775-.618,1.552-1.234,2.319-1.863a44.113,44.113,0,0,0,4.327-3.971,31.949,31.949,0,0,0,5.164-7.611c-10.372-14.366-26.691-27.428-45.43-24.305a33.032,33.032,0,0,0-22.8,15.252,20.859,20.859,0,0,0-2.416,11.985c.189,2.039.592,6.618,2.047,8.171,2.872,3.065,6.668,6.446,10.846,7.469.529-3.581-.066-6.615,3.028-9.425,2.213-2.011,5.228-2.855,7.768-4.433a15.466,15.466,0,0,0,6.779-9.345c1.307.129,1.935,1.618,2.409,2.842a22.428,22.428,0,0,0,6.569,9.12,5.947,5.947,0,0,0,2.682,1.448c2.72.467,2.392-1.975,3.555-3.491a7.528,7.528,0,0,1,2.731-2.076,4.17,4.17,0,0,1,2.115-.54,3.308,3.308,0,0,1,2.892,2.032,11.309,11.309,0,0,1,.658,3.2,13.227,13.227,0,0,1,.132,3.259A6.552,6.552,0,0,1,1367.814,534.259Z" transform="translate(-1314.681 -495.465)" fill="#100052" stroke="#100052" stroke-width="0.502"/>
          <path id="Path_15243" data-name="Path 15243" d="M1314.678,675.365l49.559-34.856,8.52,34.856-47.508,25.561Z" transform="translate(-1314.678 -547.783)" fill="#fff"/>
          <path id="Path_15244" data-name="Path 15244" d="M1434.4,675.978s9.74,1.444,12.293,12.762C1446.692,688.74,1435.6,687.293,1434.4,675.978Z" transform="translate(-1357.862 -560.577)" fill="#eab371" stroke="#100052" stroke-width="0.502"/>
          <path id="Path_15245" data-name="Path 15245" d="M1408.332,678.422a11.866,11.866,0,0,1-2.739-2.278l-3.28-3.163a2.829,2.829,0,0,0-1.963-.792h-5.8c-2.073,0-3.053.067-4.458,1.582a20.76,20.76,0,0,1-4.833,4.093,3.036,3.036,0,0,0-.994.736.9.9,0,0,0-.016,1.142,1.219,1.219,0,0,0,.906.24c3.521-.082,6.155-1.415,8.9-3.478l-9.485,7.627a1.309,1.309,0,0,0,1.349,2.2l8.975-3.6-9.829,4c-.651.317-.394,2.1.325,2.011,3.363.437,7.535-.285,12.022-1.457l-4.911,1.066c-.772.309-.479,1.83.352,1.83l4.639.356a3.681,3.681,0,0,1,2.321,1.068l.765.765a4.732,4.732,0,0,0,4.111,1.343,29.907,29.907,0,0,0,3.841-.912c.894-.272,1.776-.582,2.648-.921a7.245,7.245,0,0,1,1.232-.468,5.225,5.225,0,0,0,1.214-.539c2.853-1.378,5.8-2.547,8.772-3.642a7.719,7.719,0,0,0,3.306-2.2c1.07-1.289,1.394-2.429.338-3.839a17.873,17.873,0,0,0-5.44-5.121c-.924-.511-2.134.311-3,.761a34.9,34.9,0,0,1-3.236,1.7A7.463,7.463,0,0,1,1408.332,678.422Z" transform="translate(-1339.702 -559.21)" fill="#b27344" stroke="#100052" stroke-linecap="round" stroke-linejoin="round" stroke-width="0.502"/>
          <path id="Path_15246" data-name="Path 15246" d="M1453.628,688.308c7.739-2.847,15.683-9.375,19.088-13.527" transform="translate(-1364.798 -560.145)" fill="none" stroke="#100052" stroke-width="0.481"/>
          <path id="Path_15247" data-name="Path 15247" d="M1434.4,654.572l5.488-4.512c3.078-2.53,6.357-5.389,7.079-9.307.612-3.319-.767-6.645-2.115-9.738q-3.134-7.191-6.268-14.382" transform="translate(-1357.862 -539.171)" fill="none" stroke="#100052" stroke-width="0.502"/>
          <path id="Path_15248" data-name="Path 15248" d="M1453.628,695.94" transform="translate(-1364.798 -567.777)" fill="#feca84" stroke="#100052" stroke-width="0.251"/>
        </g>
        <g id="Group_17465" data-name="Group 17465" transform="translate(82.651 154.899)">
          <rect id="Rectangle_6516" data-name="Rectangle 6516" width="87.795" height="53.574" transform="translate(0 0.808)" fill="url(#linear-gradient-11)"/>
          <circle id="Ellipse_363" data-name="Ellipse 363" cx="6.715" cy="6.715" r="6.715" transform="translate(37.183 15.616)" fill="url(#linear-gradient-12)"/>
          <path id="Path_15249" data-name="Path 15249" d="M1245.317,701.764l4.9-.808h80.15l2.742.808Z" transform="translate(-1245.317 -700.956)" fill="url(#linear-gradient-13)"/>
        </g>
      </g>
    </g>
    <line id="Line_405" data-name="Line 405" x1="3.665" y2="13.878" transform="translate(954.986 465.374)" fill="none" stroke="#100052" stroke-width="0.411"/>
    <path id="Path_15251" data-name="Path 15251" d="M1189.579,703.531s-4.338,10.307,9.858,12.8" transform="translate(-230.928 -224.279)" fill="none" stroke="#100052" stroke-width="0.411"/>
    <path id="Path_15252" data-name="Path 15252" d="M1360.259,668.18a12.28,12.28,0,0,1,1.567,6.977" transform="translate(-292.719 -211.528)" fill="none" stroke="#100052" stroke-width="0.208"/>
    <g id="Group_17468" data-name="Group 17468" transform="translate(1108.754 291.151)">
      <path id="Path_15253" data-name="Path 15253" d="M1438.06,416.187a28.878,28.878,0,0,1,1.8,7c.5,3.5-1.2,6.6-1.3,10.006a7.264,7.264,0,0,0,9.606,7.3c4-1.5,7.8-5.5,12.108-3.8,2.7,1.1,5.6,3.9,8.6,1.4a29.675,29.675,0,0,0,3.618-3.423,23.453,23.453,0,0,0,.177-2.884c0-12.423-9.745-22.494-21.766-22.494a21.26,21.26,0,0,0-13.94,5.219A4.736,4.736,0,0,1,1438.06,416.187Z" transform="translate(-1429.142 -409.3)" fill="url(#linear-gradient-14)"/>
      <path id="Path_15254" data-name="Path 15254" d="M1464.463,441.045c-3,2.5-5.9-.3-8.6-1.4-4.3-1.7-8.106,2.3-12.108,3.8a7.264,7.264,0,0,1-9.606-7.3c.1-3.4,1.8-6.5,1.3-10.006a28.862,28.862,0,0,0-1.8-7,4.734,4.734,0,0,0-1.091-1.669,22.75,22.75,0,0,0-7.827,17.276c0,12.424,9.745,22.495,21.767,22.495,11.076,0,20.219-8.549,21.589-19.611A29.66,29.66,0,0,1,1464.463,441.045Z" transform="translate(-1424.726 -412.244)" fill="url(#linear-gradient-15)"/>
    </g>
    <path id="Path_15255" data-name="Path 15255" d="M1008.718,286.523a21.425,21.425,0,0,0-5.6-2.11c-8.035-1.768-16.4,1.76-24.562.767-13.067-1.589-22.354-14.881-23.263-28.013-.671-9.682,2.267-19.141,6.408-27.782,4.93-10.286,5.807-11.413-.339-21.285a21.07,21.07,0,0,1-1.847-18.148c2.245-6.074,8.4-7.489,11.064-12.25,1.859-3.324.518-9.373.821-13.166.627-7.853,2.344-16.021,6.866-22.624A29.245,29.245,0,0,1,995.436,130.2c2.578-.669,26.326-.893,25.937.134,8.4-22.149,24.876-39.811,50.092-37.564a74.487,74.487,0,0,1,17.266,3.869c7.715,2.622,12.353-.478,20.281-1.58a59.242,59.242,0,0,1,42.708,10.494c4.41,3.228,8.5,7.3,10.2,12.491,2.534,7.734-.586,16.742,3.016,24.041,3.019,6.119,9.8,9.176,15.424,13.049,7.468,5.146,13.518,12.559,16.238,21.211s1.892,18.532-2.964,26.193c-3.232,5.1-8.127,9.187-10.295,14.821-2.419,6.287-1,13.393,1.279,19.733s5.406,12.453,6.448,19.109c2.308,14.743-6.167,29.331-17.28,39.292-6.684,5.992-18.923,11.638-27.286,14.891a57.3,57.3,0,0,1-35.6,1.842c-7.574-2.019-14.656-6.766-22.157-8.476-8.279-1.886-15.99,3.794-23.339,6.548a38.041,38.041,0,0,1-35.776-5.3C1022.259,299.354,1016.6,290.779,1008.718,286.523Z" transform="translate(-146.612 -3.905)" fill="url(#linear-gradient-16)"/>
    <g id="Group_17469" data-name="Group 17469" transform="translate(903.206 230.118)">
      <path id="Path_15256" data-name="Path 15256" d="M1103.616,313.842c.068,0,.155-.04.189.04.027.061-.044.1-.1.1-.168.009-.337.008-.506.011C1103.316,313.874,1103.508,313.972,1103.616,313.842Z" transform="translate(-1103.203 -313.831)" fill="#c1e6f6"/>
      <path id="Path_15257" data-name="Path 15257" d="M1143.643,321.589c-.307.05-.632-.085-.928.086-.618.058-1.219-.159-1.837-.119A14.376,14.376,0,0,1,1143.643,321.589Z" transform="translate(-1116.792 -316.597)" fill="#e9eced"/>
    </g>
    <g id="Group_17485" data-name="Group 17485" transform="translate(808.589 88.63)">
      <g id="Group_17484" data-name="Group 17484" clip-path="url(#clip-path-3)">
        <g id="Group_17483" data-name="Group 17483" transform="translate(-15.688 38.013)">
          <g id="Group_17470" data-name="Group 17470" transform="translate(0 130.108)">
            <path id="Path_15258" data-name="Path 15258" d="M930.663,365.219l27.3-9.729,65.206,3.066,47.267,1.8-38.361,10.884Z" transform="translate(-930.663 -355.49)" fill="#685545" stroke="#000" stroke-width="0.75"/>
            <path id="Path_15259" data-name="Path 15259" d="M930.663,370.709v14.838l100.972,5.291.441-14.11Z" transform="translate(-930.663 -360.979)" fill="#685545" stroke="#000" stroke-width="0.75"/>
            <path id="Path_15260" data-name="Path 15260" d="M1127.407,363.1v10.884l-38.8,14.11.441-14.11Z" transform="translate(-987.633 -358.235)" fill="#685545" stroke="#000" stroke-width="0.75"/>
            <path id="Path_15261" data-name="Path 15261" d="M930.663,393.919v16.314l8.378,7.5,1.764-22.138Z" transform="translate(-930.663 -369.352)" fill="#685545" stroke="#000" stroke-width="0.75"/>
            <path id="Path_15262" data-name="Path 15262" d="M996.555,397.385l-.436,31.736h9.906V397.881Z" transform="translate(-954.273 -370.602)" fill="#685545" stroke="#000" stroke-width="0.75"/>
            <path id="Path_15263" data-name="Path 15263" d="M1075.486,401.709l-1.079,36.156h9.518l1.931-37.018Z" transform="translate(-982.512 -371.85)" fill="#685545" stroke="#000" stroke-width="0.75"/>
            <path id="Path_15264" data-name="Path 15264" d="M1133.478,384.784l-.9,37.62,9.18-2.756V382.228Z" transform="translate(-1003.493 -365.135)" fill="#685545" stroke="#000" stroke-width="0.75"/>
          </g>
          <g id="Group_17482" data-name="Group 17482" transform="translate(33.507 105.845)">
            <g id="Group_17471" data-name="Group 17471" transform="translate(13.718 11.026)">
              <path id="Path_15265" data-name="Path 15265" d="M1030.369,334.785h-25.835l12.917,2.756Z" transform="translate(-1004.534 -334.785)" fill="#fff"/>
            </g>
            <g id="Group_17473" data-name="Group 17473" transform="translate(2.583)">
              <g id="Group_17472" data-name="Group 17472">
                <path id="Path_15266" data-name="Path 15266" d="M1002.9,350.3l-4.935-.856h.889l-.606-.075v-3.231l17.206-.529-17.206-.557v-.038l9.455-1.69h-9.455l1.588-4.446-1.588-2.066v-9.767h12.294l-12.2-1.234,1.1-1.823-1.187-.938v-1.886h17.206l-17.206-1.114v-.394l-5.477-1.057-5.481-1.061v2.118l4.951,2.1-4.951-1.183v2.646l.666,1.219-.842,1.248v.876l.1-.047,8.466,1.97-8.562-.494v1.2l5.376,1.209-5.288.132v2.133l1.238,1.463-1.149,1.527v6.443l3.2.734-3.2-.137v3.633l5.782,1.5v0l-5.782-1.106v2.816l6.573,1.2,4.386.9V350.3Zm-12.113-10.889-2.684-2.045,10.145,1.977Z" transform="translate(-987.116 -317.538)" fill="#d3d2d1"/>
              </g>
            </g>
            <g id="Group_17474" data-name="Group 17474" transform="translate(28.957 27.475)">
              <path id="Path_15267" data-name="Path 15267" d="M1028.37,360.516l17.453,1.807,11.522-1.264v-.543Z" transform="translate(-1028.37 -360.516)" fill="#fff"/>
            </g>
            <g id="Group_17475" data-name="Group 17475" transform="translate(14.905 20.737)">
              <path id="Path_15268" data-name="Path 15268" d="M1016.812,351.783l23.508-1.807H1006.39Z" transform="translate(-1006.39 -349.976)" fill="#fff"/>
            </g>
            <g id="Group_17476" data-name="Group 17476" transform="translate(49.281 13.159)">
              <path id="Path_15269" data-name="Path 15269" d="M1060.162,338.122l8.651.773v-.773Z" transform="translate(-1060.162 -338.122)" fill="#fff"/>
            </g>
            <g id="Group_17477" data-name="Group 17477" transform="translate(14.905 6.423)">
              <path id="Path_15270" data-name="Path 15270" d="M1012.715,328.682l16.437-1.1H1006.39Z" transform="translate(-1006.39 -327.585)" fill="#fff"/>
            </g>
            <g id="Group_17478" data-name="Group 17478" transform="translate(13.435 31.906)">
              <path id="Path_15271" data-name="Path 15271" d="M1004.091,367.446l4.935.856,1.39.241,16.437-1.1h-22.762Z" transform="translate(-1004.091 -367.446)" fill="#fff"/>
            </g>
            <g id="Group_17479" data-name="Group 17479" transform="translate(0 8.972)">
              <path id="Path_15272" data-name="Path 15272" d="M994.221,333.542l-8.466-1.97-.1.048-2.583,1.279,2.583.149Z" transform="translate(-983.076 -331.573)" fill="#fff"/>
            </g>
            <g id="Group_17480" data-name="Group 17480" transform="translate(3.573 19.828)">
              <path id="Path_15273" data-name="Path 15273" d="M998.81,350.53l-10.145-1.976,2.685,2.045Z" transform="translate(-988.665 -348.553)" fill="#fff"/>
            </g>
            <g id="Group_17481" data-name="Group 17481" transform="translate(13.718 2.118)">
              <path id="Path_15274" data-name="Path 15274" d="M1004.534,320.851v.394l17.206,1.114h-17.206v1.886l1.187.938-1.1,1.823,12.2,1.234h-12.294v1.518h25.835l-12.918,2.757-12.918-2.757v8.249l1.588,2.066-1.588,4.446h9.455l-9.455,1.69v.038l17.206.557-17.206.529v3.231l.606.075h21.873l-16.437,1.1-1.39-.241h-4.652v1.346h44.214v-4.249h0v-1.841l-11.522,1.263-17.453-1.807h28.975V335.05h0v-2.385l-8.65-.773h8.65v-7.065q-.057-1.988-.1-3.976Zm7.512,5.4-6.325-1.1h22.762Zm27.6,13.217-23.507,1.807-10.422-1.807Z" transform="translate(-1004.534 -320.851)" fill="#e8e8e8"/>
            </g>
            <path id="Path_15275" data-name="Path 15275" d="M1042.469,319.656l-18.283-2.118H987.392l10.959,2.513Z" transform="translate(-984.633 -317.538)" fill="#f7f7f7"/>
          </g>
          <path id="Path_15276" data-name="Path 15276" d="M1064.7,247.741a30.146,30.146,0,0,1-16.427,9.921l38.555,35.4,14.633-7.573C1091.8,271.955,1079.345,259.443,1064.7,247.741Z" transform="translate(-973.084 -186.516)" fill="#fefefe"/>
          <path id="Path_15277" data-name="Path 15277" d="M1082.553,297.68l-5.034-13.948a3.8,3.8,0,0,0-1.881-2.161c-.8-.385-1.446-.338-1.719.757l-.594,2.537-13.628-8.23c-1.39-.252-1.871.272-1.828,1.243a3.032,3.032,0,0,0,1.248,2.25l7.4,5.584-7.735-5.692c-1.861-.231-2.4.959-1.677,1.952l7.155,7.623-6.592-7.27a2.21,2.21,0,0,0-.942.023c-.375.121-.4.638-.146,1.46a5.96,5.96,0,0,0,1.364,2.3l3.918,4.21-2.945-2.67c-.16,1.578,1.024,3.88,2.342,6.254a9.105,9.105,0,0,0,2.415,2.8l16.827,12.9Z" transform="translate(-976.023 -196.916)" fill="#b27344" stroke="#100052" stroke-linecap="round" stroke-linejoin="round" stroke-width="0.75"/>
          <path id="Path_15278" data-name="Path 15278" d="M1207.621,220.345c-10.294,1.97-20.765,2.966-28.061-6.484-5.162-6.686-7.8-13.912-9.412-22.033-1.355-6.821-.425-13.956.658-21.027.967-6.309,8.421-10.472,14.125-12.134,4.894-1.427,9.372.338,14.107-.523,4.5-.818,7.677-.848,11.588,1.824a26.5,26.5,0,0,1,7.488,8.2c7.21,11.925,7.742,25.668,4.142,38.7C1220.192,214.351,1215.737,218.791,1207.621,220.345Z" transform="translate(-1016.803 -154.022)" fill="#100052" stroke="#100052" stroke-width="0.75"/>
          <path id="Path_15279" data-name="Path 15279" d="M1204.106,255.058a5.053,5.053,0,0,1-.653.194c-4.035.931-12.081,1.448-8.9-4.787,1.272-2.493,3.52-4.186,4.088-7.032.617-3.092.364-6.69,1.055-9.694,1.166-5.061,3.985-4,8.154-2.394a6.6,6.6,0,0,1,3.06,1.948,9.508,9.508,0,0,1,1.886,5.112c.387,4.254,2.167,9.176-.7,13.008C1210.313,253.8,1206.772,254.073,1204.106,255.058Z" transform="translate(-1025.587 -180.123)" fill="#b27344" stroke="#100052" stroke-linecap="round" stroke-linejoin="round" stroke-width="0.75"/>
          <path id="Path_15280" data-name="Path 15280" d="M1157.594,383.325l-8.294,51.965,57.11-2.16,13.94-14.241-10.657-34.65Z" transform="translate(-1009.526 -235.422)" fill="#100052" stroke="#100052" stroke-width="0.75"/>
          <path id="Path_15281" data-name="Path 15281" d="M1200.742,250.323a7.513,7.513,0,0,1-2.1,1.05,19.537,19.537,0,0,1-5.966.35c-3.466-.2-6.035-1.821-9.412-.552a20.644,20.644,0,0,0-6.615,4.405,38.622,38.622,0,0,0-6.482,7.843c-4.878,7.9-11.977,15.11-11.576,24.98.313,7.674,3.6,14.539,3.429,22.377-.2,8.921-2.552,17.653-4.908,26.2-1.044,3.787-4.373,10.284-3.868,14.065.513,3.848,6.286,7.015,9.324,8.515,9.422,4.784,20.354,7,30.722,4.963,7.31-1.438,14.044-4.889,20.667-8.3,1.773-.914,3.679-1.965,4.452-3.8.744-1.767.237-3.782-.252-5.635a214.181,214.181,0,0,1-5.97-76.069c.506-5,3.84-15.1-1.873-18.26-1.651-.914-4.473-3.3-6.332-3.486C1202.9,248.859,1201.839,249.615,1200.742,250.323Z" transform="translate(-1010.93 -186.954)" fill="#feca84"/>
          <path id="Path_15282" data-name="Path 15282" d="M1175.271,254.673c-13.657-8.283-22.222-3.214-27.93,9.349l-7.44,36.326-25.23-7.384-15.571-4.558c-.8-.234-1.6-.47-2.4-.7-2.2-.637-2.691.274-3.824,2.193-2.282,3.869-3.7,9.307-2.561,13.776.538,2.1,3.514,2.432,5.412,3.239l15.082,6.412,22.705,9.653c11.308,1.517,20.987-1,26.909-12.818,7.4-12.416,13.666-27.072,18.91-43.731" transform="translate(-988.105 -187.556)" fill="#feca84" stroke="#100052" stroke-width="0.75"/>
          <path id="Path_15283" data-name="Path 15283" d="M1203.556,154a18.712,18.712,0,0,1,10.841,10.339c2.49,6.087.746,12.363.372,18.858a26.4,26.4,0,0,1-10.94,20.3,13.367,13.367,0,0,1-5.061,2.086c-2.773.692-6.94,2-9.751,1.02-8.393-2.912-9.7-11.257-11.341-18.846a43.982,43.982,0,0,1,.276-21.75c1.563-5.874,4.171-9.766,10.068-12.017A22,22,0,0,1,1203.556,154Z" transform="translate(-1019.319 -152.191)" fill="#b27344" stroke="#100052" stroke-linecap="round" stroke-linejoin="round" stroke-width="0.75"/>
          <path id="Path_15284" data-name="Path 15284" d="M1227.94,181.333a109.363,109.363,0,0,0-2.654-11.07c-1.837-6.172-4.132-11.376-10.168-13.938-6.6-2.8-12.292-4.932-19.661-4.212-5.174.505-10.725,1.548-15.286,4.155-1.988,1.136-4.441,3.079-5.1,5.408-.862,3.045,1.848,7.934,3.564,10.29a16.923,16.923,0,0,0,9.035,6.391,67.117,67.117,0,0,0,7.491,1.128c4.24.667,7.39,2.479,8.582,6.752,1.385,4.971-.646,9.921-1.424,14.8-1.038,6.508.306,12.92,2.544,18.961,1.974,5.329,3.56,10.444,9.183,13.044,5.188,2.4,12.242.738,14.968-4.286,1.515-2.791,1.59-6.112,1.6-9.288C1230.668,206.717,1230.28,193.833,1227.94,181.333Z" transform="translate(-1018.762 -151.972)" fill="#100052" stroke="#100052" stroke-width="0.75"/>
          <path id="Path_15285" data-name="Path 15285" d="M1210.243,194.608a4.563,4.563,0,0,1,2.707-1.865c2.977-.469,5.122,1.532,5.583,4.418.387,2.422-.769,4.443-2.43,6.088a3.105,3.105,0,0,1-2.162.975,1.849,1.849,0,0,1-1.83-1.394" transform="translate(-1031.509 -166.654)" fill="#b27344" stroke="#100052" stroke-linecap="round" stroke-linejoin="round" stroke-width="0.75"/>
        </g>
      </g>
    </g>
    <g id="Group_17488" data-name="Group 17488" transform="translate(852.068 81.751)">
      <g id="Group_17486" data-name="Group 17486" transform="translate(5.645 4.598)">
        <path id="Path_15287" data-name="Path 15287" d="M1032.042,102.175c1.308-1.541,12.814-14.65,30.283-13.106,8.5.752,23.325,5.407,26.384,17.376,2.875,11.248-5.509,25.561-21.315,30.507a28.852,28.852,0,0,1,2.81,6.533l-14.569,6.374L1047,132.6c-.559-1.117-1.127-2.429-.611-3.554a3.872,3.872,0,0,1,2.421-1.737c2.675-.94,5.5-1.475,8.057-2.7s4.891-3.345,5.4-6.139c.709-3.9-2.578-7.76-6.419-8.852s-11.563,1.591-11.563,1.591l-1.413.363S1034.788,105.366,1032.042,102.175Z" transform="translate(-1032.042 -88.944)" fill="url(#linear-gradient-17)"/>
      </g>
      <g id="Group_17487" data-name="Group 17487">
        <path id="Path_15288" data-name="Path 15288" d="M1023.212,94.982c1.307-1.541,12.814-14.65,30.283-13.106,8.5.752,23.325,5.407,26.384,17.376,2.876,11.248-5.509,25.561-21.315,30.507a28.891,28.891,0,0,1,2.81,6.533l-14.569,6.374c-2.879-5.752-9.249-20.812-9.249-20.812s7.925-3.212,10.478-4.438,4.891-3.345,5.4-6.139c.71-3.905-2.577-7.761-6.419-8.853s-11.564,1.592-11.564,1.592l-1.44.4S1025.958,98.174,1023.212,94.982Z" transform="translate(-1023.212 -81.751)" fill="url(#linear-gradient-18)"/>
        <path id="Path_15289" data-name="Path 15289" d="M1088.106,189.507l-10.242,10.412a9.1,9.1,0,0,1,10.242-10.412Z" transform="translate(-1042.888 -120.589)" fill="url(#linear-gradient-19)"/>
        <path id="Path_15290" data-name="Path 15290" d="M1088.737,187.467l4.011,3.946a9.175,9.175,0,1,1-12.868,13.08l-4.011-3.946Z" transform="translate(-1042.206 -119.883)" fill="url(#linear-gradient-20)"/>
        <ellipse id="Ellipse_364" data-name="Ellipse 364" cx="9.174" cy="9.298" rx="9.174" ry="9.298" transform="matrix(0.701, -0.713, 0.713, 0.701, 27.033, 74.143)" fill="url(#linear-gradient-21)"/>
      </g>
      <path id="Path_15291" data-name="Path 15291" d="M1065.774,178.106l-5.635-4.59,14.269-6.182,5.907,4.409Z" transform="translate(-1036.532 -112.621)" fill="url(#linear-gradient-22)"/>
    </g>
    <path id="Path_15292" data-name="Path 15292" d="M1167.785,172.228" transform="translate(-223.292 -32.636)" fill="#fff"/>
    <path id="Path_15293" data-name="Path 15293" d="M1160.2,166.054" transform="translate(-220.558 -30.409)" fill="#fff"/>
    <path id="Path_15294" data-name="Path 15294" d="M660.476,266.661c6.62-2.055,10.5-9.816,17.349-10.729,8.674,7.3,15.066,20.773,28.305,18.946a5.459,5.459,0,0,0,3.424-2.967,46.46,46.46,0,0,0,2.365-4.37c-3.151-16.119-16.648-28.234-32.821-28.234a32.839,32.839,0,0,0-26.361,13.554c.309,2.255.689,4.5,1.119,6.723C654.313,262.553,655,268.031,660.476,266.661Z" transform="translate(-37.512 -56.832)" fill="url(#linear-gradient-23)"/>
    <path id="Path_15295" data-name="Path 15295" d="M705.517,279.559a5.459,5.459,0,0,1-3.424,2.967c-13.24,1.826-19.631-11.642-28.305-18.946-6.848.913-10.729,8.674-17.349,10.729-5.479,1.369-6.163-4.109-6.62-7.076-.43-2.223-.81-4.468-1.119-6.723a36.611,36.611,0,0,0-7.156,21.9c0,19.578,15.006,35.45,33.517,35.45s33.517-15.872,33.517-35.45a37.569,37.569,0,0,0-.7-7.216A46.46,46.46,0,0,1,705.517,279.559Z" transform="translate(-33.474 -64.479)" fill="url(#linear-gradient-24)"/>
  </g>
</svg>
