<svg xmlns="http://www.w3.org/2000/svg" xmlns:xlink="http://www.w3.org/1999/xlink" width="616.072" height="457.043" viewBox="0 0 616.072 457.043">
  <defs>
    <linearGradient id="linear-gradient" y1="0.5" x2="1" y2="0.5" gradientUnits="objectBoundingBox">
      <stop offset="0" stop-color="#ff9077"/>
      <stop offset="1" stop-color="#e9645a"/>
    </linearGradient>
    <linearGradient id="linear-gradient-2" x1="0.444" y1="0.147" x2="0.517" y2="0.659" xlink:href="#linear-gradient"/>
    <linearGradient id="linear-gradient-3" y1="0.5" x2="1" y2="0.5" gradientUnits="objectBoundingBox">
      <stop offset="0" stop-color="#2a7195"/>
      <stop offset="1" stop-color="#060c39"/>
    </linearGradient>
    <linearGradient id="linear-gradient-4" x1="0.283" y1="0.931" x2="0.76" y2="-0.213" xlink:href="#linear-gradient-3"/>
    <linearGradient id="linear-gradient-5" x1="-4.757" y1="28.136" x2="-4.723" y2="28.135" gradientUnits="objectBoundingBox">
      <stop offset="0" stop-color="#6599b3"/>
      <stop offset="1" stop-color="#45496b"/>
    </linearGradient>
    <linearGradient id="linear-gradient-6" x1="-4.955" y1="29.598" x2="-4.938" y2="29.598" gradientUnits="objectBoundingBox">
      <stop offset="0" stop-color="#fff"/>
      <stop offset="1" stop-color="#bbdbf9"/>
    </linearGradient>
    <linearGradient id="linear-gradient-7" x1="-110.673" y1="640.232" x2="-110.429" y2="640.219" xlink:href="#linear-gradient-3"/>
    <linearGradient id="linear-gradient-8" x1="-1.567" y1="72.363" x2="-1.561" y2="72.363" xlink:href="#linear-gradient-3"/>
    <linearGradient id="linear-gradient-9" x1="-1.562" y1="177.92" x2="-1.562" y2="177.736" xlink:href="#linear-gradient-3"/>
    <linearGradient id="linear-gradient-10" x1="-15.236" y1="58.645" x2="-15.238" y2="58.587" gradientUnits="objectBoundingBox">
      <stop offset="0" stop-color="#4fa5ad"/>
      <stop offset="1" stop-color="#99cbcf"/>
    </linearGradient>
    <linearGradient id="linear-gradient-11" x1="-13.512" y1="36.679" x2="-13.51" y2="36.642" xlink:href="#linear-gradient-10"/>
    <linearGradient id="linear-gradient-12" x1="-14.554" y1="407.459" x2="-14.623" y2="410.278" xlink:href="#linear-gradient-10"/>
    <linearGradient id="linear-gradient-13" x1="-3.33" y1="90.804" x2="-3.319" y2="90.804" gradientUnits="objectBoundingBox">
      <stop offset="0" stop-color="#faebd8"/>
      <stop offset="1" stop-color="#ffb83f"/>
    </linearGradient>
    <linearGradient id="linear-gradient-14" x1="-3.329" y1="263.554" x2="-3.319" y2="263.554" xlink:href="#linear-gradient-13"/>
  </defs>
  <g id="Group_17520" data-name="Group 17520" transform="translate(4213.33 1937.065)">
    <path id="Path_15298" data-name="Path 15298" d="M-4144.093-1762.074a83.768,83.768,0,0,1-26.7-22.193A160.008,160.008,0,0,0-4193.707-1760c-63.294,83.841,41.268,105.169,105.06,109.27,32.927,2.116,73.168-1.115,104.389,11.717,38.089,15.653,30.6,49.011,57.944,73.565,55.745,50.055,146.335,41.978,192.221-16.815,41.374-53.013-16.135-102.907,21.3-135.789C-3858.824-1708.565-4008.779-1691.956-4144.093-1762.074Z" transform="translate(0 52.487)" fill="url(#linear-gradient)"/>
    <path id="Path_15299" data-name="Path 15299" d="M-3620.065-1802.081c2.478-33.452-23.022-82.67-55.206-99.048-31.384-15.971-80.1,14.989-112.248,20.629-46.1,8.089-72,8.022-115.619-7.292-32.266-11.329-70.718-27.24-105.394-27.043-47.848.271-43.292,25.031-56.7,63.021-20.918,59.286-74.835,76.178-116.439,112.4a83.778,83.778,0,0,0,26.7,22.193c135.314,70.117,285.269,53.509,431.3,44.019a62.779,62.779,0,0,1,10.906-7.567C-3627.174-1728.523-3623.483-1756.1-3620.065-1802.081Z" transform="translate(10.878 7.635)" fill="url(#linear-gradient-2)"/>
    <path id="Path_15300" data-name="Path 15300" d="M-4080.936-1776.645a335.815,335.815,0,0,1-37.616-16.048c-79.185,44.573-83.027,71.841-86.777,116.495-2.806,33.426,22.229,82.886,54.253,99.572,31.23,16.271,298.445,16.767,333.119,16.9,38.966.152,43.337-16.27,51.052-42.818C-3828.24-1719.178-3966.452-1736.709-4080.936-1776.645Z" transform="translate(2.676 49.592)" fill="url(#linear-gradient-3)"/>
    <path id="Path_15301" data-name="Path 15301" d="M-3746.252-1816.44c-32.9-2.432-73.175.413-104.278-12.716-37.946-16.021-30.131-49.3-57.242-74.121-55.265-50.587-145.927-43.377-192.366,14.973-45.232,56.827,24.938,111.125-33.579,143.041-2.427,1.323-4.779,2.629-7.076,3.923a335.734,335.734,0,0,0,37.617,16.048c114.483,39.936,252.7,57.467,314.03,174.1,1.758-6.051,3.69-12.629,6.245-19.657,25.74-70.783,98.256-80.261,140.657-135.323C-3578.15-1789.4-3682.5-1811.73-3746.252-1816.44Z" transform="translate(24.916 0)" fill="url(#linear-gradient-4)"/>
    <path id="Path_15302" data-name="Path 15302" d="M-3885.521-1903.132c-55.265-50.586-145.927-43.378-192.367,14.973-45.231,56.827,24.939,111.125-33.579,143.041-86.047,46.931-90,74.468-93.853,120.419-2.144,25.537,9.633,52.6,24.544,72.716,19.133,25.814,45.879,35.544,77.208,39.093,10.829,1.227,21.743,1.459,32.637,1.691,17.275.368,34.58.73,51.815-.5,14.156-1.011,28.228-3.1,42.4-3.9,41.273-2.333,82.247,6.282,123.264,11.393,15.556,1.937,26.4-1.205,41-4.268,10.431-2.187,20.138-1.255,28.981-8.55,14.785-12.192,16.663-36.753,22.82-53.678,25.74-70.783,98.255-80.261,140.656-135.323,64.094-83.233-40.252-105.56-104.007-110.271-32.9-2.432-73.176.412-104.278-12.716C-3866.224-1845.033-3858.409-1878.316-3885.521-1903.132Z" transform="translate(2.664 0.05)" fill="none"/>
    <path id="Path_15303" data-name="Path 15303" d="M-4041.339-1762.615c-2.466,10.516-6.375,20.636-10.587,30.582a18.307,18.307,0,0,0-1.7,5.559,12.093,12.093,0,0,0,2.007,7.195c4.6,7.436,13.721,10.486,22.166,12.742a372.846,372.846,0,0,0,61.031,11.258c8.752.829,17.66,1.287,26.272-.488s17-6,22.251-13.051c-6.759-5.255-8.387-14.663-9.171-23.187a315.4,315.4,0,0,1,.787-65.314c1.521-13.072,3.848-26.444.8-39.248a25.891,25.891,0,0,0-4.091-9.539c-2.193-2.952-5.241-5.134-8.237-7.267-5.538-3.943-11.162-7.932-17.543-10.275-5.618-2.062-11.628-2.778-17.59-3.286-10.035-.853-20.216-1.15-30.1.754a53.743,53.743,0,0,0-21.029,8.621c-5.765,4.1-6.245,9.125-7.44,15.9-2.956,16.763-2.828,33.847-3.976,50.779A175.283,175.283,0,0,1-4041.339-1762.615Z" transform="translate(54.85 23.862)" fill="#100052"/>
    <path id="Path_12173" data-name="Path 12173" d="M-4010.613-1916.407" transform="translate(69.634 7.096)" fill="#100052"/>
    <path id="Path_12143" data-name="Path 12143" d="M-3925.581-1568.738c25.752,72.463,11.733-158.883-16.627-196.526-22.2-29.47-78.706-5.866-78.706-5.866Z" transform="translate(66.095 53.926)" fill="#feca84" stroke="#100052" stroke-width="0.823"/>
    <g id="Group_17195" data-name="Group 17195" transform="translate(-3867.796 -1652.671)">
      <g id="Group_17194" data-name="Group 17194">
        <path id="Path_12144" data-name="Path 12144" d="M-3956.142-1659.387l22.708,8.668,71.155-65.377v-2.931l-21.022-6.356Z" transform="translate(3956.142 1725.384)" fill="url(#linear-gradient-5)"/>
        <path id="Path_12145" data-name="Path 12145" d="M-3953.623-1657.455l19.834,5.866,70.648-65.508-20.044-5.376Z" transform="translate(3957.007 1726.384)" fill="url(#linear-gradient-6)"/>
      </g>
      <path id="Path_12146" data-name="Path 12146" d="M-3900.135-1720.612c-3.867,2.469-.4,4.048,2.5,2.887a2.881,2.881,0,0,0,1.781-1.709,1.286,1.286,0,0,0-.386-1.278A3.426,3.426,0,0,0-3900.135-1720.612Z" transform="translate(3974.79 1726.798)" fill="url(#linear-gradient-7)"/>
      <path id="Path_12147" data-name="Path 12147" d="M-3900.067-1720.114c-2.2,1.405-.226,2.3,1.421,1.642a1.637,1.637,0,0,0,1.021-.971.732.732,0,0,0-.218-.728A1.951,1.951,0,0,0-3900.067-1720.114Z" transform="translate(3975.068 1727.065)" fill="#fff"/>
    </g>
    <path id="Path_12149" data-name="Path 12149" d="M-3962.153-1778.238s-30.309-8.8-56.219,0-46.931,25.421-46.931,25.421,37.642,118.306,40.576,149.594-16.307,54.691-16.307,54.691l130.7-6.288s-5.866-88,0-110.484-5.378-42.531-19.067-61.109S-3962.153-1778.238-3962.153-1778.238Z" transform="translate(50.848 53.214)" fill="#feca84"/>
    <path id="Path_12150" data-name="Path 12150" d="M-3962.153-1778.238s-30.309-8.8-56.219,0-46.931,25.421-46.931,25.421,37.642,118.306,40.576,149.594-16.307,54.691-16.307,54.691l130.7-6.288s-5.866-88,0-110.484-5.378-42.531-19.067-61.109S-3962.153-1778.238-3962.153-1778.238Z" transform="translate(50.848 53.214)" fill="none" stroke="#100052" stroke-linecap="round" stroke-linejoin="round" stroke-width="1.086"/>
    <g id="Group_17197" data-name="Group 17197" transform="translate(-3911.241 -1630.853)">
      <path id="Path_12157" data-name="Path 12157" d="M-3937.756-1663.117c3.079.614,6.4,1.333,9.512.551,2.967-.743,5.587-3.333,7.793-5.339q7.558-6.868,14.438-14.439c.882-.971,3.615-4.281,1.178-5.081-1.046-.344-2.524.628-3.375,1.108a73.942,73.942,0,0,0-6.818,4.839c-3.045,2.212-5.663,4.6-9.233,5.766-4.667,1.524-9.757,2.334-14.529,3.481" transform="translate(4005.546 1716.581)" fill="#b27344" stroke="#100052" stroke-linecap="round" stroke-linejoin="round" stroke-width="0.823"/>
      <path id="Path_12158" data-name="Path 12158" d="M-3922.5-1660.144a77.806,77.806,0,0,1-26.252-.469c-6.666-1.35-16.948-7.74-15.51-16.088.574-3.335,4.717-7.518,6.658-10.354,1.458-2.123,2.729-5.1,4.951-5.949,2.963-1.117,11.117,1.26,14.453,1.634l16.5,1.846" transform="translate(3996.747 1714.587)" fill="#b27344" stroke="#100052" stroke-linecap="round" stroke-linejoin="round" stroke-width="0.823"/>
      <path id="Path_12159" data-name="Path 12159" d="M-3939.167-1663.85c-1.458,6.64-7.584,8.221-11.918,13.209-5.075,5.833-10.134,11.766-15.394,17.432-4.028,4.34-13.01,4.889-18.007,1.448-5.48-3.772-4.289-11.1-2.458-16.514,10.388-11.04,22.93-26.931,34.092-37.083" transform="translate(3988.479 1717.315)" fill="#b27344" stroke="#100052" stroke-linecap="round" stroke-linejoin="round" stroke-width="0.823"/>
      <path id="Path_12160" data-name="Path 12160" d="M-3956.869-1686.477c4.389-3.863,8.386-7.532,13.756-10.1,4.577-2.187,9.4-3.814,14.043-5.844a54.489,54.489,0,0,0,6.731-3.434c1.032-.631,4.646-4.2,5.767-3.063a2.281,2.281,0,0,1,.509,1.49,12.9,12.9,0,0,1-3.733,9.559c-5.21,5.479-13.854,6.563-18.187,13.185" transform="translate(3999.336 1709.145)" fill="#b27344" stroke="#100052" stroke-linecap="round" stroke-linejoin="round" stroke-width="0.823"/>
      <path id="Path_12161" data-name="Path 12161" d="M-3937.22-1668.371c4.595,1.5,10.094-.211,14.729-2.281a29.7,29.7,0,0,0,5.954-3.908l4.786-3.725a77.658,77.658,0,0,0,6.966-5.873c1.593-1.574,4.467-3.963,4.561-6.376.08-2.026-1.515-1.717-3.036-1.2-3.743,1.278-7.509,4.029-10.888,5.98-7.322,4.239-13.253,4.207-21.562,5.175" transform="translate(4006.086 1714.993)" fill="#b27344" stroke="#100052" stroke-linecap="round" stroke-linejoin="round" stroke-width="0.823"/>
      <path id="Path_12162" data-name="Path 12162" d="M-3937.22-1674.695c4.043,1.321,7.876,2.78,11.813.62q6.385-3.5,12.51-7.453c4.138-2.663,8.75-5.334,10.33-10.317.95-2.989.346-3.813-2.653-2.79-3.743,1.279-7.51,4.029-10.888,5.98-7.322,4.238-11.823,4.185-20.127,5.154" transform="translate(4006.086 1713.985)" fill="#b27344" stroke="#100052" stroke-linecap="round" stroke-linejoin="round" stroke-width="0.823"/>
      <path id="Path_12163" data-name="Path 12163" d="M-3943.3-1691.305" transform="translate(4003.997 1715.272)" fill="#b27344" stroke="#100052" stroke-linecap="round" stroke-linejoin="round" stroke-width="0.823"/>
      <path id="Path_12164" data-name="Path 12164" d="M-3944.5-1688.476a72.126,72.126,0,0,0,18.735-1.376c6.363-1.114,12.878-.518,19.241-2.012,4.715-1.107,7.663-4.833,11.958-6.263,3.209-1.07,5.551-.164,3.825,3.188-3.449,6.689-11.578,9.762-18.2,12.328a56.638,56.638,0,0,1-23.5,4.216" transform="translate(4003.586 1712.783)" fill="#b27344" stroke="#100052" stroke-linecap="round" stroke-linejoin="round" stroke-width="0.823"/>
    </g>
    <g id="Group_17198" data-name="Group 17198" transform="translate(-4036.151 -1701.549)">
      <path id="Path_12165" data-name="Path 12165" d="M-3994.249-1616.094c-20.272-40.253-15.878-87.412-33.447-126.174-5.756-12.7-16.383-25.04-33.762-16.865-18.346,8.629-19.033,41.142-19.889,57.9-1.458,28.682,12.336,134.192,45.859,145.7C-3990.828-1540.22-3987.364-1589.474-3994.249-1616.094Z" transform="translate(4081.452 1761.765)" fill="#feca84" stroke="#100052" stroke-width="0.823"/>
      <path id="Path_12166" data-name="Path 12166" d="M-3994.249-1616.094c-20.272-40.253-15.878-87.412-33.447-126.174-5.756-12.7-16.383-25.04-33.762-16.865-18.346,8.629-19.033,41.142-19.889,57.9-1.458,28.682,12.336,134.192,45.859,145.7C-3990.828-1540.22-3987.364-1589.474-3994.249-1616.094Z" transform="translate(4081.452 1761.765)" fill="#feca84" stroke="#100052" stroke-width="0.823"/>
      <path id="Path_12167" data-name="Path 12167" d="M-4036.071-1629.695s83.107-48.4,94.353-50.842,22,7.822,27.375,19.066-9.772,20.044-24.442,29.822-68.547,49.841-82.671,50.341-27.324-1.944-33.19-12.21S-4051.715-1620.406-4036.071-1629.695Z" transform="translate(4090.031 1789.542)" fill="#feca84" stroke="#100052" stroke-width="0.823"/>
      <path id="Path_12168" data-name="Path 12168" d="M-4036.726-1629.695s83.107-48.4,94.353-50.842,22,7.822,27.375,19.066-9.771,20.044-24.442,29.822-80.908,74.551-115.129,41.8" transform="translate(4090.686 1789.542)" fill="#feca84" stroke="#100052" stroke-width="0.823"/>
    </g>
    <g id="table" transform="translate(-3890.772 -1570.542)">
      <g id="Group_17207" data-name="Group 17207" transform="translate(0 41.064)">
        <path id="Path_12186" data-name="Path 12186" d="M-3964.419-1605.821h247.8a8.852,8.852,0,0,0,8.825-8.825h0a52.671,52.671,0,0,1-10.647-12.452,8.837,8.837,0,0,0-7.473-4.143l-214.552-2.447a8.8,8.8,0,0,0-5.881,2.26,84.553,84.553,0,0,1-23.117,15.168l-3.781,1.612A8.85,8.85,0,0,0-3964.419-1605.821Z" transform="translate(3973.244 1633.688)" fill="url(#linear-gradient-8)"/>
        <rect id="Rectangle_6465" data-name="Rectangle 6465" width="265.455" height="11.733" rx="4.366" transform="translate(0 16.134)" fill="url(#linear-gradient-9)"/>
      </g>
      <g id="Group_17208" data-name="Group 17208" transform="translate(153.504)">
        <path id="Path_12187" data-name="Path 12187" d="M-3839.676-1656.612c-10.664,0-19.31,7.771-19.31,17.355s8.646,17.355,19.31,17.355,19.312-7.771,19.312-17.355S-3829.01-1656.612-3839.676-1656.612Zm3.424,30.309c-8.113,0-14.687-5.91-14.687-13.2s6.577-13.2,14.688-13.2,14.686,5.91,14.686,13.2-6.575,13.2-14.686,13.2Z" transform="translate(3858.986 1666.878)" fill="url(#linear-gradient-10)"/>
        <path id="Path_12188" data-name="Path 12188" d="M-3843.371-1660.35c.175-2.166,6.76-3.9,21.95-3.9s22.753,1.247,22.929,3.412a.591.591,0,0,1-.041.263l-2.334,45.753c.426,8.051-41.543,8.051-41.118,0l-1.349-45.262A.587.587,0,0,1-3843.371-1660.35Z" transform="translate(3864.35 1664.253)" fill="url(#linear-gradient-11)"/>
        <path id="Path_12189" data-name="Path 12189" d="M-3800.278-1660.68c.042.566-1.166,1.1-3.275,1.54h0q-1.312.276-3.063.505c-2.532.329-5.687.576-9.214.7h-.185c-1.643.055-3.365.085-5.14.085-.69,0-1.375,0-2.042-.014a83.257,83.257,0,0,1-16.313-1.458c-1.641-.407-2.562-.876-2.527-1.369.023-.336.488-.658,1.313-.958,2.582-.926,8.7-1.619,16.111-1.786l.539-.011c.4-.009.8-.015,1.2-.018q.845-.01,1.706-.01a100.65,100.65,0,0,1,17.16,1.209,18.565,18.565,0,0,1,2.189.539C-3800.853-1661.394-3800.3-1661.047-3800.278-1660.68Z" transform="translate(3864.808 1664.517)" fill="url(#linear-gradient-12)"/>
      </g>
    </g>
    <g id="Group_17229" data-name="Group 17229" transform="translate(-3863.873 -1554.412)">
      <path id="Path_12265" data-name="Path 12265" d="M-3818.881-1616.455l-12.5-22.451h-100.341l-21.17,22.451,62.794-5.721a3.472,3.472,0,0,0,3.349,3.591,3.469,3.469,0,0,0,.86-.077c4.276-.438,4.208-3.514,4.208-3.514Z" transform="translate(3953.336 1656.83)" fill="url(#linear-gradient-13)"/>
      <path id="Path_12266" data-name="Path 12266" d="M-3950.356-1628.415l4.41-4.674s40.495-11.315,59.194,5.789C-3886.751-1627.3-3911.543-1637.326-3950.356-1628.415Z" transform="translate(3954.204 1657.568)" fill="#dfe4d5"/>
      <path id="Path_12267" data-name="Path 12267" d="M-3952.731-1624.094l3.184-3.713s31.828-6.543,51.26-1.888-50.37,6.1-50.37,6.1Z" transform="translate(3953.389 1659.42)" fill="#dfe4d5"/>
      <path id="Path_12268" data-name="Path 12268" d="M-3839.413-1628.415l-4.409-4.674s-40.5-11.315-59.193,5.789C-3903.015-1627.3-3878.224-1637.326-3839.413-1628.415Z" transform="translate(3970.467 1657.568)" fill="#dfe4d5"/>
      <path id="Path_12269" data-name="Path 12269" d="M-3838.51-1624.094l-3.185-3.713s-31.826-6.543-51.258-1.888,50.37,6.1,50.37,6.1Z" transform="translate(3972.75 1659.42)" fill="#dfe4d5"/>
      <g id="Group_17228" data-name="Group 17228">
        <g id="Group_17227" data-name="Group 17227" transform="translate(0 20.176)">
          <path id="Path_12270" data-name="Path 12270" d="M-3836.227-1623.179c-14.648-3.685-43.449-6.173-43.449-6.173,17.439-.528,35.568,3.048,42.906,4.7a24.792,24.792,0,0,0-2.643-4.7s-42.439-11.23-63.6,1.115l3.976,3.355,63.477,5.127A14.02,14.02,0,0,0-3836.227-1623.179Z" transform="translate(3970.467 1638.33)" fill="#dfe4d5"/>
          <path id="Path_12271" data-name="Path 12271" d="M-3841.209-1630.89v-2.308c-49.626-11.8-61.811,6.06-61.811,6.06C-3882.5-1643.8-3841.209-1630.89-3841.209-1630.89Z" transform="translate(3970.466 1637.23)" fill="#dfe4d5"/>
          <path id="Path_12272" data-name="Path 12272" d="M-3949.373-1629.353a24.865,24.865,0,0,0-2.642,4.7c7.34-1.652,25.466-5.226,42.907-4.7,0,0-28.8,2.49-43.45,6.173a14,14,0,0,0-.664,3.423l63.478-5.127,3.976-3.355C-3906.927-1640.579-3949.373-1629.353-3949.373-1629.353Z" transform="translate(3953.221 1638.33)" fill="#dfe4d5"/>
          <path id="Path_12273" data-name="Path 12273" d="M-3949.021-1633.2v2.308s41.292-12.919,61.811,3.752C-3887.211-1627.138-3899.393-1645-3949.021-1633.2Z" transform="translate(3954.664 1637.23)" fill="#dfe4d5"/>
        </g>
        <path id="Path_12274" data-name="Path 12274" d="M-3841.943-1647.1s-25.651-11.553-45.268-.055c-19.617-11.5-45.267.055-45.267.055l-16.544,19.054c49.628-11.8,61.811,6.062,61.811,6.062s12.183-17.862,61.809-6.062Z" transform="translate(3954.664 1652.247)" fill="#eff3f3"/>
        <path id="Path_12275" data-name="Path 12275" d="M-3901.463-1629.719l-6.05,5.143,1.711,1.841,4.338-4.033,3.976,3.438,1.832-1.516Z" transform="translate(3968.922 1659.986)" fill="#ffbd50"/>
      </g>
      <path id="Path_12276" data-name="Path 12276" d="M-3900.553-1634.308l-1.968-.412c-.629-.125-1.382-.317-2.263-.465l-2.961-.453c-1.078-.206-2.274-.253-3.527-.379l-1.93-.171c-.659-.05-1.337-.044-2.024-.071l-2.094-.058c-.706-.013-1.422-.062-2.145-.016l-4.375.156c-.729,0-1.459.078-2.188.145l-2.171.189-2.137.187c-.353.032-.7.058-1.051.1l-1.027.147-3.927.534c-1.247.172-2.435.3-3.509.523l-5.23.922-1.988.337,1.968-.419,5.2-1.079c1.072-.243,2.258-.4,3.5-.6l3.927-.595,1.032-.146c.347-.042.7-.068,1.052-.1l2.145-.2,2.181-.205c.729-.069,1.459-.145,2.2-.157l4.4-.129c.729-.04,1.445.013,2.159.031l2.106.074c.69.033,1.373.024,2.035.093l1.937.21c1.258.146,2.455.226,3.538.453l2.957.535c.875.177,1.619.394,2.243.539Z" transform="translate(3955.334 1657.574)" fill="#c4b7b7"/>
      <path id="Path_12277" data-name="Path 12277" d="M-3899.042-1627.806s.212-.054.615-.138.995-.2,1.75-.318,1.691-.242,2.756-.372c1.071-.1,2.277-.246,3.6-.312.663-.038,1.351-.1,2.064-.12l2.211-.079c.758-.036,1.538-.026,2.333-.038s1.612-.017,2.44,0l2.522.064,1.285.034,1.3.067c1.737.089,3.5.171,5.261.329l2.635.223c.876.078,1.75.188,2.606.281,1.727.194,3.426.365,5.06.611s3.219.437,4.712.678l4.2.714c.651.113,1.276.211,1.864.323l1.671.337,2.717.548,2.365.486-2.384-.4-2.733-.473-1.68-.292-1.87-.291-4.209-.642c-1.5-.214-3.082-.394-4.715-.618s-3.329-.4-5.051-.583c-.861-.086-1.728-.192-2.6-.265l-2.626-.208c-1.749-.168-3.51-.258-5.24-.357l-1.294-.074-1.279-.042-2.516-.077c-.826-.027-1.637-.009-2.432-.023s-1.572-.027-2.334,0l-2.2.04c-.713.013-1.4.059-2.058.086s-1.293.062-1.9.107-1.167.077-1.706.121c-1.068.1-2,.191-2.761.293s-1.36.189-1.768.258S-3899.042-1627.806-3899.042-1627.806Z" transform="translate(3971.831 1660.166)" fill="#c4b7b7"/>
      <path id="Path_12278" data-name="Path 12278" d="M-3880.478-1626.36l-1.2-.091-.359,1.01c-.075.215-.834,1.275-3.849,1.275s-3.775-1.062-3.851-1.275l-.358-1.01-1.2.091-61.6,5.629,1.627,2.464,59.224-5.413c.893,1.35,2.82,2.114,6.153,2.114s5.259-.763,6.153-2.114l59.222,5.413,1.628-2.464Z" transform="translate(3953.336 1661.108)" fill="url(#linear-gradient-14)"/>
    </g>
    <path id="Path_12283" data-name="Path 12283" d="M-3827.386-1660.519a7.018,7.018,0,0,1-2.757-5.5,14.885,14.885,0,0,1,1.331-6.183,35,35,0,0,1,2.357-4.728,18.475,18.475,0,0,0,1.714-3.208c1.142-3.2-.052-6.762-1.7-9.735" transform="translate(131.625 84.912)" fill="none" stroke="#707070" stroke-width="2.613"/>
    <path id="Path_12284" data-name="Path 12284" d="M-3830.4-1660.813a6.091,6.091,0,0,1-4.18-7.264,19.045,19.045,0,0,1,.991-2.383,10.008,10.008,0,0,0,.92-5.412,5.835,5.835,0,0,0-3-4.423" transform="translate(129.728 88.201)" fill="none" stroke="#707070" stroke-width="2.613"/>
    <path id="Path_12285" data-name="Path 12285" d="M-3820.946-1656.879a9.335,9.335,0,0,1-4.341-8.633c.542-5.885,6.418-9.845,8.349-15.433a12.376,12.376,0,0,0-2.12-11.691" transform="translate(133.285 83.962)" fill="none" stroke="#707070" stroke-width="2.613"/>
    <path id="Path_15304" data-name="Path 15304" d="M-3954.837-1787.1c.535-4.02-1.737-7.825-3.969-11.21-10.181-15.45-20.381-22.11-38.948-22.639-2.729-.078-19.711-2.668-19.037-.024,3.627,14.23-4.156,52.8-6.523,58.915-18.734,5.295-15.227,17.628,3.39,35.863,68.429,67.027,54.878-15.169,49.962-32.436a70.178,70.178,0,0,1,9.987-19.262C-3957.829-1780.729-3955.306-1783.569-3954.837-1787.1Z" transform="translate(61.001 39.471)" fill="#b27344" stroke="#100052" stroke-linecap="round" stroke-linejoin="round" stroke-width="0.823"/>
    <path id="Path_15305" data-name="Path 15305" d="M-3947.213-1769.97c-8.617,16.638-23.292,39.133-43.4,26.261-17.362-11.116-28.919-21.84-33.628-42.8a61.233,61.233,0,0,1,.136-27.43,54.158,54.158,0,0,1,6.739-15.871c9.276-15.642,23.479-29.341,41.187-33.5,16.383-3.848,29.383,2.946,35.284,18.589C-3931.287-1819.25-3934.973-1793.6-3947.213-1769.97Z" transform="translate(64.442 24.973)" fill="#b27344" stroke="#100052" stroke-linecap="round" stroke-linejoin="round" stroke-width="0.771"/>
    <path id="Path_15306" data-name="Path 15306" d="M-3986.068-1815.213a69.381,69.381,0,0,1-12.241,4.517c-3.673.971-7.428,1.645-11.031,2.848a14.113,14.113,0,0,0-5.659,3.132c-4.77,4.8-.575,16.025-7.764,18.4s-9.239-5.862-11.2-10.94a90.485,90.485,0,0,1-4.576-48.4c1.41-7.811,3.294-14.411,8.527-20.4,5.183-5.934,12.282-9.87,19.405-13.008,12.144-5.347,25.47-8.9,38.641-7.307,12.643,1.533,24.337,7.732,34.368,15.579a49.209,49.209,0,0,1,10.606,10.687c6.543,9.589,7.3,21.942,6.677,33.534-.513,9.565-1.926,19.536-6.776,27.962-1.988,3.455-4.065,6.943-6.716,2.182-1.47-2.641-1.869-5.805-2.617-8.692-1.327-5.134-2.172-10.377-3.354-15.544a54.318,54.318,0,0,0-5.722-15.512,28.927,28.927,0,0,0-5.1-6.509c-1.452-1.362-5.548-3.186-4.248-5.809-.5,5.8-4.655,11.494-8.329,15.772A70.327,70.327,0,0,1-3986.068-1815.213Z" transform="translate(59.551 17.28)" fill="#100052"/>
    <path id="Path_15307" data-name="Path 15307" d="M-4014.135-1822.216c-3.546-7.494-12.119-13.366-17.04-5.694-3.361,5.241-2.909,14.718-1.408,21.179,2.124,9.133,8.3,15.581,14.147,8.2" transform="translate(61.697 36.259)" fill="#b27344" stroke="#100052" stroke-linecap="round" stroke-linejoin="round" stroke-width="0.771"/>
    <path id="Path_15308" data-name="Path 15308" d="M-4008.287-1831.728c7.681-4.788,17.3-3.227,23.811-1.412" transform="translate(70.433 35.09)" fill="none" stroke="#100052" stroke-linecap="round" stroke-linejoin="round" stroke-width="3.293"/>
    <path id="Path_15309" data-name="Path 15309" d="M-3971.472-1831.4c8.531-3.02,17.592.578,23.556,3.754" transform="translate(83.079 35.904)" fill="none" stroke="#100052" stroke-linecap="round" stroke-linejoin="round" stroke-width="3.293"/>
    <ellipse id="Ellipse_389" data-name="Ellipse 389" cx="2.857" cy="4.48" rx="2.857" ry="4.48" transform="translate(-3929.379 -1782.035) rotate(-84.561)" fill="#100052"/>
    <ellipse id="Ellipse_390" data-name="Ellipse 390" cx="2.857" cy="4.48" rx="2.857" ry="4.48" transform="translate(-3888.438 -1779.147) rotate(-84.561)" fill="#100052"/>
    <path id="Path_15310" data-name="Path 15310" d="M-3983.657-1802.437a9.558,9.558,0,0,0,2.381.156,4.688,4.688,0,0,0,3.416-1.448c.3-.367.532-.821.961-1.017a5.338,5.338,0,0,1-1.414,4.165c-2.606,2.753-7.316,1.677-9.684-.86-.434-.464-3.065-4.051-1.443-4.259.323-.04,1.292,1.16,1.588,1.387a10.022,10.022,0,0,0,2.012,1.19A10.089,10.089,0,0,0-3983.657-1802.437Z" transform="translate(76.728 45.124)" fill="#e2a383" opacity="0.44" style="mix-blend-mode: multiply;isolation: isolate"/>
    <path id="Path_15311" data-name="Path 15311" d="M-3996.088-1793.221c5.305-.317,16.714-.666,24.362,1.5a.281.281,0,0,1-.083.555c-4.615-.165-16.3-.644-24.277-1.492A.281.281,0,0,1-3996.088-1793.221Z" transform="translate(74.528 49.33)" fill="#100052"/>
  </g>
</svg>
