<svg xmlns="http://www.w3.org/2000/svg" xmlns:xlink="http://www.w3.org/1999/xlink" width="628.517" height="599.511" viewBox="0 0 628.517 599.511">
  <defs>
    <linearGradient id="linear-gradient" x1="0.713" y1="-0.573" x2="0.336" y2="1.476" gradientUnits="objectBoundingBox">
      <stop offset="0" stop-color="#ff9077"/>
      <stop offset="1" stop-color="#e9645a"/>
    </linearGradient>
    <linearGradient id="linear-gradient-2" x1="0.516" y1="0.293" x2="0.373" y2="1.104" xlink:href="#linear-gradient"/>
    <linearGradient id="linear-gradient-3" x1="0.394" y1="0.026" x2="0.814" y2="1.383" gradientUnits="objectBoundingBox">
      <stop offset="0" stop-color="#2a7195"/>
      <stop offset="1" stop-color="#060c39"/>
    </linearGradient>
    <linearGradient id="linear-gradient-4" x1="0.522" y1="0.69" x2="0.277" y2="-0.955" xlink:href="#linear-gradient-3"/>
    <clipPath id="clip-path">
      <path id="Path_12471" data-name="Path 12471" d="M783.413,425.267a47.525,47.525,0,0,0-6.249-8.059c-11.391-11.632-28.061-17.21-43.77-19.786a168.864,168.864,0,0,0-65.177,2.2c-21.846,5.053-35.646,14.609-53.088,27.965-23.536,18.021-39.011,34.233-45.069,64-3.888,19.1-8.491,39.664-17.776,56.855-7.832,14.5-21.141,24.48-28.26,39.77-18.163,39.016-17.754,94.8,6.433,133.409,26.278,41.953,75.407,55.314,120.631,57.563,48.978,2.436,93.377-8.164,99.2-9.627,28.174-7.085,72.946-19.031,106.473-61.117,36.177-45.412,35.736-96.387,35.4-110.716-.284-12.08-2.111-89.639-46.5-114-11.744-6.445-25.919-8.868-41.687-24.435C793.887,449.325,790.3,436.221,783.413,425.267Z" transform="translate(-511.255 -395.244)" fill="none"/>
    </clipPath>
    <linearGradient id="linear-gradient-5" x1="-0.361" y1="0.597" x2="0.464" y2="0.377" gradientUnits="objectBoundingBox">
      <stop offset="0" stop-color="#4fa5ad"/>
      <stop offset="1" stop-color="#99cbcf"/>
    </linearGradient>
    <linearGradient id="linear-gradient-6" x1="0.258" y1="-0.05" x2="0.212" y2="0.604" xlink:href="#linear-gradient-5"/>
    <linearGradient id="linear-gradient-7" x1="0.206" y1="-0.291" x2="4.232" y2="14.187" gradientUnits="objectBoundingBox">
      <stop offset="0" stop-color="#fff"/>
      <stop offset="1" stop-color="#bbdbf9"/>
    </linearGradient>
    <linearGradient id="linear-gradient-8" x1="0" y1="0.5" x2="1" y2="0.5" xlink:href="#linear-gradient-7"/>
    <clipPath id="clip-path-2">
      <path id="Path_12523" data-name="Path 12523" d="M1206.3,361.056c-.969-17.372-7.03-33.764-12.147-51.371-9.7-33.366-.978-69.488-38.463-87.9-29.4-14.445-72.808.191-98.923,17.3a69.346,69.346,0,0,0-20.995,22.021c-2.657,4.343-5.675,9.326-7.363,14.135a12.427,12.427,0,0,0-.49,1.816c-4.644,11.555-7.947,24.008-11.764,36.25-8.256,26.48-28.876,54.932-15.9,82.41,11.407,24.15,37.595,35.042,61.755,41.318,52.223,13.562,124.036,12.635,141.57-50.306A78.059,78.059,0,0,0,1206.3,361.056Z" transform="translate(-996.081 -215.902)" fill="none"/>
    </clipPath>
    <linearGradient id="linear-gradient-10" x1="0.226" y1="1.395" x2="-0.073" y2="2.32" xlink:href="#linear-gradient-7"/>
    <linearGradient id="linear-gradient-11" x1="0.659" y1="-0.028" x2="0.327" y2="1.327" xlink:href="#linear-gradient-7"/>
    <linearGradient id="linear-gradient-12" x1="0.477" y1="-0.841" x2="0.555" y2="5.503" gradientUnits="objectBoundingBox">
      <stop offset="0" stop-color="#6599b3"/>
      <stop offset="1" stop-color="#45496b"/>
    </linearGradient>
    <linearGradient id="linear-gradient-13" x1="0.628" y1="8.221" x2="0.479" y2="-0.779" xlink:href="#linear-gradient-12"/>
    <linearGradient id="linear-gradient-14" x1="0.363" y1="0.544" x2="1.246" y2="0.544" xlink:href="#linear-gradient"/>
    <linearGradient id="linear-gradient-15" x1="1.276" y1="0.165" x2="1.821" y2="0.165" xlink:href="#linear-gradient"/>
  </defs>
  <g id="Group_17313" data-name="Group 17313" transform="translate(-511.255 -117.794)">
    <g id="Group_17292" data-name="Group 17292" transform="translate(707.67 205.986)">
      <path id="Path_12463" data-name="Path 12463" d="M797.816,266.706c6.877-2.134,10.907-10.2,18.021-11.145,9.011,7.588,15.65,21.578,29.4,19.681a5.67,5.67,0,0,0,3.556-3.083,48.178,48.178,0,0,0,2.457-4.538c-3.274-16.744-17.294-29.33-34.095-29.33a34.111,34.111,0,0,0-27.383,14.079c.321,2.343.716,4.675,1.162,6.984C791.414,262.438,792.125,268.129,797.816,266.706Z" transform="translate(-782.343 -238.292)" fill="url(#linear-gradient)"/>
      <path id="Path_12464" data-name="Path 12464" d="M846.075,277.318a5.67,5.67,0,0,1-3.556,3.083c-13.754,1.9-20.393-12.094-29.4-19.681-7.114.949-11.145,9.01-18.021,11.145-5.691,1.423-6.4-4.268-6.877-7.351-.446-2.308-.841-4.641-1.162-6.984a38.026,38.026,0,0,0-7.434,22.746c0,20.339,15.588,36.826,34.817,36.826s34.817-16.487,34.817-36.826a39.064,39.064,0,0,0-.722-7.5A48.194,48.194,0,0,1,846.075,277.318Z" transform="translate(-779.62 -243.45)" fill="url(#linear-gradient-2)"/>
    </g>
    <g id="Group_17293" data-name="Group 17293" transform="translate(592.605 235.522)">
      <path id="Path_12465" data-name="Path 12465" d="M996.681,547.768C968.8,590.252,940.921,626.1,906.4,661.943c-22.569,21.243-53.1,34.518-83.64,35.846-39.829,1.328-79.658-7.966-111.521-35.846-28.986-25.158-55.263-53.247-75.872-84.357-17.762,39.636-17.4,91.49,1.882,132.334,29.808,63.137,96.868,83.143,126.781,92.067,141.845,42.317,356.9-17.807,398.455-164.513,17.194-60.7-.31-118.555-16.433-154.389C1088.451,484.875,1029.948,494.748,996.681,547.768Z" transform="translate(-622.406 -333.459)" fill="url(#linear-gradient-3)"/>
      <path id="Path_12466" data-name="Path 12466" d="M961.972,279.3c-63.97-5.2-136.291,21.229-175.079,70.937-26.388,33.818-25.845,63.783-67.918,101.124-30.532,27.1-41.261,20.585-60.372,42.26a115.133,115.133,0,0,0-18.485,29.16c20.609,31.109,46.887,59.2,75.873,84.357,31.863,27.88,71.692,37.174,111.521,35.846,30.535-1.328,61.071-14.6,83.64-35.846,34.518-35.846,62.4-71.691,90.278-114.175,33.267-53.02,91.77-62.893,149.374-64.682A278.131,278.131,0,0,0,1132.522,394C1121.6,376.707,1065.367,287.707,961.972,279.3Z" transform="translate(-627.154 -278.648)" fill="url(#linear-gradient-4)"/>
    </g>
    <g id="Group_17301" data-name="Group 17301" transform="translate(511.255 292.615)">
      <g id="Group_17296" data-name="Group 17296" transform="translate(0 28.243)">
        <g id="Group_17295" data-name="Group 17295" clip-path="url(#clip-path)">
          <g id="Group_17294" data-name="Group 17294" transform="translate(0.94 -29.643)">
            <path id="Path_12467" data-name="Path 12467" d="M579.832,676.17c42.549-65.684,93.316-149.143,15.916-212.461A344.081,344.081,0,0,0,560.681,438.6c-14.958,38.46,19.684,63.88,2.353,111.714-9.782,26.994-23.292,25.726-36.979,52.887-19.6,38.9-18.708,94.719,8.11,133.554,29.135,42.189,83.087,55.95,132.671,58.561A836.624,836.624,0,0,1,591.4,740.185C561.339,716.163,568.137,695.2,579.832,676.17Z" transform="translate(-512.539 -377.226)" fill="url(#linear-gradient-5)"/>
            <path id="Path_12468" data-name="Path 12468" d="M909.329,703.679c39.29-45.154,38.4-96.166,37.917-110.507-.407-12.09-3.026-89.716-51.877-114.45-12.923-6.543-28.479-9.081-45.884-24.783-14.734-13.293-20.329-26.579-24.073-33.467-21.8-40.108-97.081-77.02-163.559-62.507-6.817,1.489-66.572,15.325-83.4,57.783-.049.124-.085.246-.133.37a344.105,344.105,0,0,1,35.067,25.107c77.4,63.318,26.633,146.777-15.916,212.461-11.7,19.025-18.493,39.993,11.563,64.015a836.62,836.62,0,0,0,75.441,55.132c53.7,2.827,102.279-7.427,108.647-8.845C823.942,757.123,872.917,745.526,909.329,703.679Z" transform="translate(-530.174 -354.743)" fill="url(#linear-gradient-6)"/>
          </g>
          <path id="Path_12469" data-name="Path 12469" d="M694.326,385.636c-10.048,12.742-13.421,29.155-14.254,45.052s.583,31.888-1.181,47.717a122.089,122.089,0,0,1-19.848,54.081c18.325-1.918,36.7,2.038,55.1,3.127,12.51.74,25.059.151,37.577-.438,21.987-1.033,44.377-2.143,65.016-9.411,2.207-.776,4.53-1.733,5.781-3.626a9.583,9.583,0,0,0,1.194-5.086c.2-6.589-15.074-114.337-19.391-123.04-5.308-10.7-17.425-20.685-28.413-26.264-13.556-6.882-30.171-6.947-44.73-3.769-6.838,1.493-13.662,3.313-19.875,6.4C703.909,374.064,699.22,379.43,694.326,385.636Z" transform="translate(-550.878 -386.318)" fill="#100052"/>
          <path id="Path_12470" data-name="Path 12470" d="M733.9,852.8a163.175,163.175,0,0,0,78.482-9.39c17.506-6.76,35.7-17.3,32.077-38.259A367.448,367.448,0,0,0,833.9,760.742c-3.925-12.883-10.1-24.645-10.3-38.14-.409-28.109,1.18-56.474,8.861-83.65,4.672-16.528,4.638-39.849-3.823-55.423-6.9-12.7-28.959-10.154-39.981-18.769-3.241-2.534-26.191,3.771-30.955,4.353-9.662,1.18-19.346,2.2-29.046,3.016-12.874,1.077-28.995-4.488-40.922,2.207-12.221,6.859-7.732,18.881-8.112,30.854a199.935,199.935,0,0,1-5.552,40.885c-1.576,6.477-3.484,12.92-4.028,19.571-.921,11.279,3.631,23.538,6.889,34.137,4.1,13.345,5.9,24.8,4.883,38.9a301.716,301.716,0,0,1-12.482,66.814c-2.329,7.591-4.8,16.435-.261,22.954,2.1,3.021,5.394,4.963,8.639,6.7A161.324,161.324,0,0,0,733.9,852.8Z" transform="translate(-552.886 -440.532)" fill="#feca84"/>
        </g>
      </g>
      <g id="Group_17298" data-name="Group 17298" transform="translate(130.966)">
        <path id="Path_12472" data-name="Path 12472" d="M822.535,580.509c5.078,13.295-12.2,25.41-22.3,28.8a77.451,77.451,0,0,1-38.956,2.214,74.405,74.405,0,0,1-43.639-27.19c-2.346-3.042-1.574-9.534.483-12.684a6.9,6.9,0,0,1,2.447-2.132c4.768-2.745,10.257-2.834,15.508-3.729,6.995-1.193,12.908-7.1,20.091-9.09q1.382-.382,2.775-.707a67.4,67.4,0,0,1,24.018-1.224c13.727,1.791,25.337,14.975,37.047,23.052A6.106,6.106,0,0,1,822.535,580.509Z" transform="translate(-697.169 -409.621)" fill="#b27344" stroke="#100052" stroke-linecap="round" stroke-linejoin="round" stroke-width="1"/>
        <path id="Path_12473" data-name="Path 12473" d="M753.588,557.155c1.459-10.241,2.787-20.752,3.42-31.127.6-9.923-3.735-24.026,5.205-31.271a16.656,16.656,0,0,1,6.992-2.853c16.866-3.792,27.6-.13,40.329,11.463,2.791,2.541,5.715,5.45,6.157,9.2.388,3.289-1.235,6.431-2.518,9.485-5.31,12.643-5.894,28.263-3.655,41.623" transform="translate(-707.192 -392.531)" fill="#b27344" stroke="#100052" stroke-linecap="round" stroke-linejoin="round" stroke-width="1"/>
        <g id="Group_17297" data-name="Group 17297">
          <path id="Path_12474" data-name="Path 12474" d="M836.343,463.679c.633,18.6-1.129,45.218-24.8,43.854-20.443-1.178-35.667-4.841-49.939-20.7a60.819,60.819,0,0,1-13.228-23.818A53.8,53.8,0,0,1,746.486,446c.422-18.059,6.055-36.83,19.364-49.047,12.314-11.3,26.877-11.745,39.6-1.071C826.157,413.259,835.443,437.259,836.343,463.679Z" transform="translate(-705.281 -365.103)" fill="#b27344" stroke="#100052" stroke-linecap="round" stroke-linejoin="round" stroke-width="1"/>
          <path id="Path_12475" data-name="Path 12475" d="M760.322,431.213l-.3.141c-2.569,1.2-4.822,3.12-7.326,4.53-3.176,1.789-6.556,3.255-9.475,5.438a17.338,17.338,0,0,0-6.6,9.182c-1.535,5.816,2.222,11.135,4.2,16.384,3.165,8.406-7.533,10.341-13.312,8.162-24.8-9.349-41.8-38.627-36.267-64.707,3.252-15.329,11.414-30.147,24.013-39.465,9.353-6.919,21.8-10.577,33.2-12.944,12.2-2.534,23.929-1.2,35.7,3.062a43.885,43.885,0,0,1,5.8,2.494,56.9,56.9,0,0,1,9.982,7.388c5.3,4.557,8.353,10.121,10.847,16.589q1.639,4.252,3.023,8.6c1.035,3.25,1.97,6.616,1.753,10.02-.15,2.349-1.21,6.141-3.212,7.617-2.588,1.908-5.715-3.056-7.249-4.962-3.829-4.758-7.73-9.459-11.749-14.058q-3.013-3.448-6.12-6.815c-1.4-1.517-3.329-4.731-5.73-4.52-2.8.245-1.646,4.936-1.689,6.742a67.625,67.625,0,0,1-6.57,27.507,32.515,32.515,0,0,1-5.97,9A23.358,23.358,0,0,1,760.322,431.213Z" transform="translate(-690.196 -356.656)" fill="#100052"/>
          <path id="Path_12476" data-name="Path 12476" d="M753.823,483.143c-5.207-3.663-14.51-4.15-16.893,3.122-1.628,4.968,1.32,11.261,4.4,15.06,4.361,5.371,11.657,7.236,14.957-.215" transform="translate(-702.602 -389.871)" fill="#b27344" stroke="#100052" stroke-linecap="round" stroke-linejoin="round" stroke-width="1"/>
        </g>
      </g>
      <g id="Group_17299" data-name="Group 17299" transform="translate(204.588 133.043)">
        <path id="Path_12477" data-name="Path 12477" d="M846.83,582.909c-10.951-10.651-14.73-26.483-18.365-39.659-.408-1.906-1.408-5.4-3.329-4.73-6.689,2.335-3.711,12.42-2.456,17.958,2.371,10.13,3.85,18.679,8.918,28.217" transform="translate(-798.867 -538.435)" fill="#b27344" stroke="#100052" stroke-linecap="round" stroke-linejoin="round" stroke-width="1"/>
        <path id="Path_12478" data-name="Path 12478" d="M836.714,640.341l11.563-30.71c.72-1.912,1.453-3.945,1.077-5.954a11.3,11.3,0,0,0-1.768-3.8L842.4,591.6c-2.922-4.661-6.456-9.754-11.87-10.729-4.708-.848-9.505,1.893-12.345,5.742s-4.07,8.631-4.981,13.327c-2.344,12.088-1.919,29.931-.8,42.193" transform="translate(-796.34 -549.77)" fill="#b27344" stroke="#100052" stroke-linecap="round" stroke-linejoin="round" stroke-width="1"/>
        <path id="Path_12479" data-name="Path 12479" d="M831.365,582.946c-4.1-2.992-7.509-6.936-12.347-8.816-3.782-.706-8.106.657-12.037.371-4.977.372-10.121-.408-15.02.351-4.551,2.638,5.42,8.35,7.971,8.35,3.268.263,6.831-1.655,9.665-.008" transform="translate(-790.787 -547.95)" fill="#b27344" stroke="#100052" stroke-linecap="round" stroke-linejoin="round" stroke-width="1"/>
        <path id="Path_12480" data-name="Path 12480" d="M826.488,585.826c-3.054-2.381-9.387-1.12-15.9-1.243-12.734-.242-26.233.91-15.881,7.286,2.2,1.353,13.375,2.841,22.049,1.6" transform="translate(-790.852 -550.747)" fill="#b27344" stroke="#100052" stroke-linecap="round" stroke-linejoin="round" stroke-width="1"/>
        <path id="Path_12481" data-name="Path 12481" d="M830.1,596.462c-6.458-3.358-12.55-.787-22.968.831-2.9.451,1.8,7.2,9.411,6.382,4.768-.512,10.151-2.144,12.682,1.132,0,0-7.691,8.237-6.913,22.353" transform="translate(-794.937 -553.552)" fill="#b27344" stroke="#100052" stroke-linecap="round" stroke-linejoin="round" stroke-width="1"/>
      </g>
      <g id="Group_17300" data-name="Group 17300" transform="translate(219.879 333.982)">
        <path id="Path_12482" data-name="Path 12482" d="M821.307,831.032c12.994-5.66,24.232-19.913,39.886-17.848a19.469,19.469,0,0,1,6.706,2.688c3.69,2.044,7.846,4.8,8.038,9.016.125,2.767-1.583,5.275-3.47,7.3-7.837,8.418-17.38,16.226-28.57,19.564-10.339,3.084-23.6,3.482-32.217-3.88" transform="translate(-811.679 -812.981)" fill="#b27344" stroke="#100052" stroke-linecap="round" stroke-linejoin="round" stroke-width="1"/>
        <path id="Path_12483" data-name="Path 12483" d="M881.3,814.207a24.808,24.808,0,0,1,14.965,6.174,19.888,19.888,0,0,1,6.49,11.936,20.18,20.18,0,0,1-10.91,20.326,4.146,4.146,0,0,1-1.683.506c-1.79.037-2.991-2.043-2.818-3.824s1.248-3.324,2.112-4.892c2.292-4.157,4.557-12.739-2.316-14.03" transform="translate(-830.344 -813.31)" fill="#b27344" stroke="#100052" stroke-linecap="round" stroke-linejoin="round" stroke-width="1"/>
        <path id="Path_12484" data-name="Path 12484" d="M889.679,824.6a11.671,11.671,0,0,1,5.007,8.584,18.273,18.273,0,0,1-1.513,7.969,43.733,43.733,0,0,1-7.676,12.8,10.264,10.264,0,0,1-4.628,3.477c-1.88.544-4.247-.142-4.993-1.952a4.888,4.888,0,0,1,.029-3.189c.875-3.028,2.974-5.546,4.211-8.446.851-2,1.53-5.062.332-7.036-1.556-2.565-4.151-4.426-5.663-7.158" transform="translate(-828.598 -816.096)" fill="#b27344" stroke="#100052" stroke-linecap="round" stroke-linejoin="round" stroke-width="1"/>
      </g>
      <path id="Path_12485" data-name="Path 12485" d="M617.923,748.026a576.629,576.629,0,0,1,10.383-94.393c5.906-30.394,5.608-59.829,39.652-72.388a14.235,14.235,0,0,1,7.166-1.156c5.084.852,8.025,6.111,10.074,10.842a240.719,240.719,0,0,1,19.331,82.705c1.063,18.515-8.074,37.709-12.693,55.573a3.846,3.846,0,0,0-.056,2.586c.483,1.017,1.715,1.391,2.81,1.656,14.437,3.491,28.972,6.594,43.318,10.458,11.82,3.184,26.517,5.75,32.407,17.854,3.105,6.382,3.706,13.7,3.484,20.793-.118,3.781-.512,7.731-2.57,10.9a7.3,7.3,0,0,1-3.628,3.073,10.553,10.553,0,0,1-5.3-.089c-6.877-1.3-13.713-2.319-20.579-3.392-29.437-4.529-58.488-12.007-87.624-18.16C641.189,772.167,617.456,765.322,617.923,748.026Z" transform="translate(-539.851 -416.528)" fill="#feca84"/>
      <path id="Path_12486" data-name="Path 12486" d="M872.753,726.946c-8.352-31.166-20.034-61.514-29.165-92.524-.566-1.923-1.243-4.017-2.742-5.188-1.608-1.256-4.951-2.772-6.892-2.417-9.343,1.7-19.682,5.486-23.348,15.138-1.466,3.862-.232,7.5.152,11.652,2.074,22.4,4.547,44.8,8.86,66.9,3.334,17.076,5.8,44.981,20.044,56.712,5.85,4.817,14.554,5.361,21.46,2.24,18.586-8.4,25.5-38.1,30.738-55.624a309.75,309.75,0,0,0,12.962-88.95c-.018-11.677-.957-24.164-7.5-33.363-7.978-11.21-27.774-19.522-40.959-21.46,2.879,18.245-.415,36.109-2.79,54.427-4.055,31.264-10.87,61.758-14.9,93.019" transform="translate(-591.326 -416.551)" fill="#feca84"/>
      <path id="Path_12487" data-name="Path 12487" d="M841.481,646.568c-6.247-5.418-18.761-.86-24.147,3.684-3.007,2.537-6.317,5.969-7.715,9.725-.683,1.833.09,4.5.317,6.351l1.432,11.679,2.862,23.358,5.786,47.2c1.388,11.322,3.029,23.273,10.11,32.216" transform="translate(-591.174 -433.722)" fill="none" stroke="#100052" stroke-linecap="round" stroke-linejoin="round" stroke-width="1"/>
      <path id="Path_12488" data-name="Path 12488" d="M692.867,644.535c.355,14.921-6.785,28.847-10.721,43.243a62.356,62.356,0,0,0,1.5,37.566c1.505,4,3.727,8.092,7.578,9.942" transform="translate(-556.484 -433.838)" fill="none" stroke="#100052" stroke-linecap="round" stroke-linejoin="round" stroke-width="1"/>
      <path id="Path_12489" data-name="Path 12489" d="M659.044,767.587c13.675-1.815,23.844,1.407,36.464,6.052,20.243,7.452,40.47,15.124,61.149,21.631,10.151,3.194,21.275,8.4,25.184,19.209,3.228,8.925,4.8,20.983.834,29.888-2.4,5.391-5.819,3.534-10.6,2.846" transform="translate(-550.878 -466.691)" fill="none" stroke="#100052" stroke-linecap="round" stroke-linejoin="round" stroke-width="1"/>
      <path id="Path_12490" data-name="Path 12490" d="M785.526,871.149c-32.7-6.33-67.077-8.325-98.724-18.722" transform="translate(-558.32 -489.575)" fill="none" stroke="#100052" stroke-linecap="round" stroke-linejoin="round" stroke-width="1"/>
      <path id="Path_12491" data-name="Path 12491" d="M851.779,646.5a383.664,383.664,0,0,1,33.024,83.02" transform="translate(-602.552 -434.366)" fill="none" stroke="#100052" stroke-linecap="round" stroke-linejoin="round" stroke-width="1"/>
    </g>
    <g id="Group_17302" data-name="Group 17302" transform="translate(808.62 303.673)">
      <path id="Path_12492" data-name="Path 12492" d="M963.286,386.161c-.735-3.443-1.816-6.357-3.146-8.068-3.191-4.105-7.874-5.835-12.926-6.22-7.64-.58-20.58,1.064-26.19,7.252-3.521,3.883-.842,5.974-1.694,10.06-.331,1.585-.655,3.1-.922,4.552A58.094,58.094,0,0,1,963.286,386.161Z" transform="translate(-917.78 -371.764)" fill="url(#linear-gradient-7)"/>
      <path id="Path_12493" data-name="Path 12493" d="M918.178,398.415c-1.5,8.14-1.145,14.093,10.584,17.319,4.918,1.353,8.416-1.006,13.036-.514a11.644,11.644,0,0,1,1.377.232c5.422,1.239,9.906,5.856,15.749,2.186,5.538-3.479,6.183-17.205,4.132-26.8A58.1,58.1,0,0,0,918.178,398.415Z" transform="translate(-917.55 -376.443)" fill="url(#linear-gradient-8)"/>
    </g>
    <path id="Path_12494" data-name="Path 12494" d="M888.2,448.2c-2.128-1.375-3.43-3.892-3.059-7.9.724-7.8,14.842-9.593,19.725-4.567C912.9,444.012,895.582,452.97,888.2,448.2Z" transform="translate(-100.225 -84.486)" fill="url(#linear-gradient-8)"/>
    <line id="Line_401" data-name="Line 401" y1="1.109" x2="19.109" transform="translate(910.042 241.703)" fill="none" stroke="#100052" stroke-linecap="round" stroke-linejoin="round" stroke-width="1"/>
    <g id="Group_17312" data-name="Group 17312" transform="translate(866.096 189.598)">
      <g id="Group_17311" data-name="Group 17311" transform="translate(0)">
        <g id="Group_17309" data-name="Group 17309">
          <g id="Group_17308" data-name="Group 17308" clip-path="url(#clip-path-2)">
            <g id="Group_17303" data-name="Group 17303" transform="translate(-0.001)">
              <path id="Path_12495" data-name="Path 12495" d="M1045.385,383.41a17.539,17.539,0,0,1-.7-1.736c-1.228-3.591-1.268-7.463-1.306-11.259q-.171-17.371-.618-34.739c-.2-7.832-.761-15.38-4.231-22.519-1.017-2.091-10.676-13.555-10.586-13.776-4.656,11.571-7.962,24.043-11.785,36.3-8.257,26.48-28.877,54.932-15.9,82.41,11.406,24.15,37.594,35.042,61.755,41.318,52.223,13.562,124.035,12.635,141.57-50.306a78.089,78.089,0,0,0,2.717-25.67c-21.911,4.271-42.121,11.324-64.946,15.762-18.026,3.563-36.764,7.341-55.215,5.328C1073.568,403.156,1051.473,396.453,1045.385,383.41Z" transform="translate(-996.079 -238.283)" fill="url(#linear-gradient-10)"/>
              <path id="Path_12496" data-name="Path 12496" d="M1167.285,221.782c-29.4-14.445-72.809.191-98.922,17.3a69.339,69.339,0,0,0-20.994,22.022c-2.658,4.342-5.676,9.326-7.364,14.134-1.937,5.519.593,9.437,2.808,14.674,2.771,6.548,5.566,13.178,6.646,20.205,2.084,13.555-2.342,27.69,1,40.99,4.616,18.363,21.47,25.648,38.17,29.54,21.1,4.918,43.484.288,64.318-3.83,22.825-4.437,43.035-11.49,64.946-15.761-.969-17.372-7.03-33.764-12.147-51.371C1196.051,276.32,1204.77,240.2,1167.285,221.782Z" transform="translate(-1007.671 -215.902)" fill="url(#linear-gradient-11)"/>
            </g>
            <path id="Path_12497" data-name="Path 12497" d="M1079.066,329.114l-1.768,7.724a2.433,2.433,0,0,0,2.416,3.487l18.445,3.969c6.036,1.3,12.078,2.6,18.192,3.461,17.283,2.439,34.847,1.352,52.267.259a1.015,1.015,0,0,0,1.211-1.135c1.26-16.644-.973-29.156-.67-45.844.159-8.789,1.984-27.557-2.641-35.033-4.563-7.376-11.413-6.505-19.887-8.354s-17.259-1.4-25.92-.946c-8.727.459-16.782-2.049-21.326,7.251a216.543,216.543,0,0,0-14.773,41.193C1082.728,313.117,1080.712,321.09,1079.066,329.114Z" transform="translate(-1017.806 -226.733)" fill="#100052"/>
            <path id="Path_12498" data-name="Path 12498" d="M1079.523,476.149a18.731,18.731,0,0,1-4.411-3.735c-7.2-8.444,1.815-17.624-.145-27.149-.771-3.749-3.242-6.972-4.219-10.706a41.6,41.6,0,0,1-.987-13.29c.6-8.785,2.949-16.948.931-25.606-1.9-8.166-.93-18.147.724-26.319.645-3.185,1.18-7.822,3.327-10.33,2.71-3.166,8.449-4.44,12.108-6.114,5.594-2.56,9.8-5.753,15.749-7.556q9.972-3.025,19.966-5.974a17.649,17.649,0,0,1,3.9-.836c6.731-.408,13.165,3.671,18.5,7.268q11.913,8.024,23.639,16.323l.522.37c3.154,2.234,6.4,4.593,8.28,7.969,2.3,4.117,2.217,9.1,2,13.8q-.877,19.273-3.431,38.421c-.626,4.694-.825,9.63-3.381,13.774-2.261,3.665-7.062,5.62-8.807,9.662-2.456,5.691,1.732,9.9,1.942,15.175.215,5.409-2.437,10.585-6.587,14.482a28.229,28.229,0,0,1-9.8,5.562c-18.25,6.669-38.557,4.154-57.41-.544C1087.651,479.733,1083.217,478.448,1079.523,476.149Z" transform="translate(-1015.799 -248.772)" fill="#feca84"/>
            <g id="Group_17304" data-name="Group 17304" transform="translate(-105.146 192.212)">
              <path id="Path_12499" data-name="Path 12499" d="M852.418,519.813l47.615-41.287h299.754l55.62,41.287Z" transform="translate(-852.418 -478.525)" fill="url(#linear-gradient-12)"/>
              <rect id="Rectangle_6478" data-name="Rectangle 6478" width="402.989" height="8.608" transform="translate(0 41.287)" fill="url(#linear-gradient-13)"/>
            </g>
            <path id="Path_12500" data-name="Path 12500" d="M1114.035,360.883a22.239,22.239,0,0,0,36.557,3.9c4.591-5.407,6.158-13.966,1.82-19.579-7.379.435-14.627-3.173-21.969-2.316C1123.3,343.718,1109.191,351.837,1114.035,360.883Z" transform="translate(-1027.439 -249.911)" fill="#b27344" stroke="#100052" stroke-linecap="round" stroke-linejoin="round" stroke-width="0.75"/>
            <g id="Group_17305" data-name="Group 17305" transform="translate(73.41 18.764)">
              <path id="Path_12501" data-name="Path 12501" d="M1109.44,317.251c-1.538-1.275-4.075-.188-4.951,1.608s-.567,3.923-.156,5.878a9,9,0,0,0,1.491,3.825c1.447,1.824,3.954,2.34,6.25,2.734" transform="translate(-1098.405 -261.69)" fill="#b27344" stroke="#100052" stroke-linecap="round" stroke-linejoin="round" stroke-width="0.75"/>
              <path id="Path_12502" data-name="Path 12502" d="M1181.358,318.011c1.918-2.162,4.831-4.41,6.993-1.1,1.673,2.558-.631,8.694-1.92,11.094-1.391,2.591-4.037,4.725-6.976,4.629l-.209-1.8" transform="translate(-1118.599 -261.297)" fill="#b27344" stroke="#100052" stroke-linecap="round" stroke-linejoin="round" stroke-width="0.75"/>
              <path id="Path_12503" data-name="Path 12503" d="M1160,283.8a53.568,53.568,0,0,1,5.562,23.818c.027,9.145-4.4,20.2-10.1,27.36-7.05,8.859-20.972,22.078-31.757,10.517-10.77-11.546-14.407-26.757-11.283-41.856,2.717-13.131,11.3-24.666,24.193-29.17C1146.642,270.963,1155.255,274.367,1160,283.8Z" transform="translate(-1100.393 -250.006)" fill="#b27344" stroke="#100052" stroke-linecap="round" stroke-linejoin="round" stroke-width="0.75"/>
              <path id="Path_12504" data-name="Path 12504" d="M1160.489,297.7c2.942,2.357,8.455,1.58,10.994-1.078,2.616-2.737,2.286-9.2,2.863-12.848,1.651-10.453-.449-22.179-8.392-29.7-4.454-4.219-10.241-6.728-16.039-8.734a68.466,68.466,0,0,0-15.144-3.656c-12.47-1.313-26.156,6.783-32.174,18.8-4.38,8.751-6.724,13.74-6.123,23.5.223,3.617.353,11.493,2.806,14.378,2.5,2.939,7.724-.09,10.885-1.729a112.946,112.946,0,0,0,28.016-20.567c1.288-1.293,4.551-6.332,6.23-6.651,2.62-.5,3.467,3.487,4.362,5.4l8.379,17.907A13.292,13.292,0,0,0,1160.489,297.7Z" transform="translate(-1096.382 -241.54)" fill="#100052"/>
            </g>
            <path id="Path_12505" data-name="Path 12505" d="M1197.666,372.347a13.809,13.809,0,0,1,7.263,2.344,23.725,23.725,0,0,1,8.229,8.649c6.4,11.59,2.628,25.749-1.65,37.3a121.689,121.689,0,0,1-20.633,35.623c-2.967,3.555-6.384,7.094-10.853,8.306-8.61,2.335-18.642-.883-22.525-9.245a12.841,12.841,0,0,1-1.29-6.517c.18-1.963,1.682-3.509,2.376-5.294.94-2.416,1.312-4.815,2.574-7.148,1.882-3.476,5.09-6.788,6.246-10.436,1.338-4.221,1.351-9.185,2.425-13.545,2.081-8.446,4.887-18.811,10.429-25.653C1184.592,381.378,1189.8,372.421,1197.666,372.347Z" transform="translate(-1039 -257.845)" fill="#feca84" stroke="#100052" stroke-linecap="round" stroke-linejoin="round" stroke-width="0.75"/>
            <g id="Group_17306" data-name="Group 17306" transform="translate(118.582 50.505)">
              <path id="Path_12506" data-name="Path 12506" d="M1179.27,454.05c-4.453,1.87-11.42,1.808-15.47-1.18-3.348-2.47-4.466-6.927-5.016-11.052-3.145-23.573,6.738-46.823,16.182-67.939,1.925-4.3,4.116-8.467,6.119-12.729,1.238-2.638,1.864-7.394,4.246-9.144,5.136-3.774,13.455,2.233,15.035,7.195,2.694,8.463-.411,19.7-1.345,28.35-1.352,12.529-2.98,25.378-6.106,37.607-.992,3.878-2.663,7.741-5.688,10.361" transform="translate(-1158.124 -302.578)" fill="#b27344" stroke="#100052" stroke-linecap="round" stroke-linejoin="round" stroke-width="0.75"/>
              <path id="Path_12507" data-name="Path 12507" d="M1206.048,348.245c1.018-8.16-.5-17.186-.747-25.43-.127-4.293,1.419-15.346-6.242-13.272-4.6,1.244-9.406,1.823-13.8,3.762-6.81,3.007-2.267,6.449-.845,11.112,1.848,6.061-1.4,20.31,4.247,24.3" transform="translate(-1164.404 -291.443)" fill="#b27344" stroke="#100052" stroke-linecap="round" stroke-linejoin="round" stroke-width="0.75"/>
              <path id="Path_12508" data-name="Path 12508" d="M1187.591,306.556c-2.2-3.075-3.7-6.649-5.77-9.842a6.417,6.417,0,0,0-5.02-3.3c-3.268-.889-5.6-1.628-8.119-3.982-1.348-1.257-3.709-4.014-.455-4.495,1.632-.24,3.587.925,5.12,1.364q4.706,1.346,9.478,2.445a11.525,11.525,0,0,1,3.388,1.151,11.2,11.2,0,0,1,2.463,2.248l10.468,11.68" transform="translate(-1160.376 -284.907)" fill="#b27344" stroke="#100052" stroke-linecap="round" stroke-linejoin="round" stroke-width="0.75"/>
              <path id="Path_12509" data-name="Path 12509" d="M1188.919,304.609c-4.2-2.058-8.375-4.159-12.687-5.964a76.26,76.26,0,0,0-9.273-3.1,43.354,43.354,0,0,0-4.577-1.194c-.976-.155-3.209-.474-3.779.493-.681,1.159.387,2.319,1.342,3.046,1.112.849,2.19,1.739,3.324,2.562,1.089.792,2.267,1.4,3.31,2.222a25.058,25.058,0,0,0,4.651,2.881c4.038,1.949,8.195,3.412,11.986,5.892.488.319.365.032.771.452" transform="translate(-1158.178 -287.392)" fill="#b27344" stroke="#100052" stroke-linecap="round" stroke-linejoin="round" stroke-width="0.75"/>
              <path id="Path_12510" data-name="Path 12510" d="M1183.673,313.461l.509.687c-1.6-2.153-7.3-3.265-9.72-4.308a67.282,67.282,0,0,0-6.942-2.382,1.853,1.853,0,0,0-1.511.023,1.578,1.578,0,0,0-.613,1.317c-.083,2.7,3.915,5.826,5.874,7.284,3.4,2.529,7.176,4.506,10.45,7.213" transform="translate(-1160.057 -290.913)" fill="#b27344" stroke="#100052" stroke-linecap="round" stroke-linejoin="round" stroke-width="0.75"/>
              <path id="Path_12511" data-name="Path 12511" d="M1183.226,316.206c-8.394-3.82-16.962-7.754-23.724-13.929a4.6,4.6,0,0,1-1.276-1.6,1.445,1.445,0,0,1,.422-1.762,2.527,2.527,0,0,1,2.038.064,184.725,184.725,0,0,1,25.029,10.1" transform="translate(-1158.101 -288.61)" fill="#b27344" stroke="#100052" stroke-linecap="round" stroke-linejoin="round" stroke-width="0.75"/>
            </g>
            <path id="Path_12512" data-name="Path 12512" d="M1098.389,439.45a4.509,4.509,0,0,1,2.829,4.146c.119,2.683-2.163,7.877-3.633,10.2-4.378,6.925-14.263,8.928-21.872,5.893-9.542-3.807-14.131-13.365-19.131-21.592-5.976-9.833-9.218-21.054-12.3-32.05-1.9-6.771-2.919-12.646-1.529-19.539,1.167-5.792,3.97-11.628,9.068-14.614,3.468-2.031,6.048-4.315,10.025-4.9" transform="translate(-1008.42 -256.41)" fill="#feca84" stroke="#100052" stroke-linecap="round" stroke-linejoin="round" stroke-width="0.75"/>
            <g id="Group_17307" data-name="Group 17307" transform="translate(48.227 45.578)">
              <path id="Path_12513" data-name="Path 12513" d="M1084.39,447.766c4.459,1.858,11.425,1.776,15.466-1.224,3.341-2.48,4.446-6.941,4.985-11.066,3.078-23.582-6.871-46.8-16.375-67.894-1.937-4.3-4.14-8.455-6.155-12.712-1.246-2.634-1.885-7.389-4.272-9.133-5.147-3.758-13.449,2.272-15.013,7.238-2.67,8.471.467,19.7,1.426,28.346,1.388,12.524,3.051,25.369,6.213,37.589,1,3.875,2.684,7.733,5.717,10.345" transform="translate(-1061.974 -295.975)" fill="#b27344" stroke="#100052" stroke-linecap="round" stroke-linejoin="round" stroke-width="0.75"/>
              <path id="Path_12514" data-name="Path 12514" d="M1064.274,340.975c-.029-8.223,2.565-17,3.8-25.154.642-4.247.437-15.406,7.793-12.426,4.413,1.788,9.119,2.941,13.246,5.394,6.4,3.8,1.476,6.674-.5,11.132-2.563,5.8-1.056,20.331-7.137,23.609" transform="translate(-1062.59 -284.803)" fill="#b27344" stroke="#100052" stroke-linecap="round" stroke-linejoin="round" stroke-width="0.75"/>
              <path id="Path_12515" data-name="Path 12515" d="M1084.021,298.565c-.068-.086,0,.116.092.1a3.555,3.555,0,0,0,1.8-1.324,61.041,61.041,0,0,1,7.995-8.015c2.417-1.892,10.56-5.687,9.675-9.831-.476-2.232-3.677-1.082-5.172-.459a17.582,17.582,0,0,0-1.7.854c-2.8,1.541-5.5,3.108-8.138,4.89-1.877,1.271-3.816,2.456-5.729,3.676-4.629,2.952-8.413,6.046-10.656,11.032" transform="translate(-1064.712 -278.176)" fill="#b27344" stroke="#100052" stroke-linecap="round" stroke-linejoin="round" stroke-width="0.75"/>
              <path id="Path_12516" data-name="Path 12516" d="M1089.329,308c4.068-1.989,8.367-2.955,12.61-4.4a25.713,25.713,0,0,0,4.968-2.283c1.137-.684,2.379-1.143,3.558-1.791,1.227-.674,2.407-1.419,3.616-2.12,1.036-.6,2.242-1.608,1.718-2.8-.438-1-2.687-.932-3.673-.887a44.259,44.259,0,0,0-4.679.659,78.546,78.546,0,0,0-9.567,1.991c-3.028.862-6.013,1.862-8.988,2.89a17.862,17.862,0,0,0-7.342,4.428" transform="translate(-1067.222 -282.336)" fill="#b27344" stroke="#100052" stroke-linecap="round" stroke-linejoin="round" stroke-width="0.75"/>
              <path id="Path_12517" data-name="Path 12517" d="M1095.261,313.2l-.623.517c1.954-1.62,7.624-2.405,10.146-3.173,2.258-.687,4.822-1.244,7.11-1.738a2.161,2.161,0,0,1,1.44.033.882.882,0,0,1,.326,1.007c-.455,2.054-4.894,4.387-7.055,5.474-3.75,1.887-7.752,3.35-11.418,5.373" transform="translate(-1070.731 -286.359)" fill="#b27344" stroke="#100052" stroke-linecap="round" stroke-linejoin="round" stroke-width="0.75"/>
              <path id="Path_12518" data-name="Path 12518" d="M1091.066,313.121c8.784-2.808,17.757-5.7,25.383-10.5a5.122,5.122,0,0,0,1.517-1.262,1,1,0,0,0-.094-1.461,2.856,2.856,0,0,0-1.98-.026,230.951,230.951,0,0,0-25.965,7.31" transform="translate(-1069.468 -283.949)" fill="#b27344" stroke="#100052" stroke-linecap="round" stroke-linejoin="round" stroke-width="0.75"/>
            </g>
            <path id="Path_12519" data-name="Path 12519" d="M1108.722,439.4c-.143-.085-.292-.166-.446-.242a15.661,15.661,0,0,0-6.96-1.239,43.412,43.412,0,0,0-15.187,2.437,29.609,29.609,0,0,0-10.006,6.063c-3.011,2.821-3.575,5.991-2.858,10.041a41.44,41.44,0,0,0,6.863,16.277c3.273,4.765,10.926,4.589,16.138,3.667,7.254-1.284,14.1-5.69,16.1-13.121,1.092-4.061.9-8.345.643-12.542C1112.759,446.757,1112.472,441.622,1108.722,439.4Z" transform="translate(-1016.699 -275.424)" fill="#feca84" stroke="#100052" stroke-linecap="round" stroke-linejoin="round" stroke-width="0.75"/>
            <path id="Path_12520" data-name="Path 12520" d="M1195.65,450.929a7.927,7.927,0,0,0,.055-5.107,17.211,17.211,0,0,0-3.288-4.838,21.5,21.5,0,0,0-4.011-3.909,17.906,17.906,0,0,0-4.13-1.951c-8.448-3.007-16.65-3.182-24.958.105a6.42,6.42,0,0,0-2.4,1.442,6.836,6.836,0,0,0-1.239,2.215,52.822,52.822,0,0,0-3.5,14.879c-.378,4.4-1.058,9.6.466,13.825,3.126,8.671,17.693,13.532,25.783,9.806,4.775-2.2,7.17-6.323,9.936-10.5a45.174,45.174,0,0,0,4.913-9.855C1193.947,455.168,1195.037,453.055,1195.65,450.929Z" transform="translate(-1037.804 -274.058)" fill="#feca84" stroke="#100052" stroke-linecap="round" stroke-linejoin="round" stroke-width="0.75"/>
            <path id="Path_12521" data-name="Path 12521" d="M1194.357,472.287c-4.85,8.54-10.583,16.5-21.122,16.125-3.4-.121-15.708-3.7-12.6-9.231,1.692-3.011,16.38-.427,20.385-2.193,2.9-1.279,5.1-4.069,7.154-6.376,2.36-2.648,4.254-5.382,8.18-5.341,1.929.02.669,2,.217,2.721C1195.705,469.366,1195.151,470.888,1194.357,472.287Z" transform="translate(-1040.064 -282.759)" fill="#feca84"/>
            <path id="Path_12522" data-name="Path 12522" d="M1077.527,476.254a11.407,11.407,0,0,0,3.87,4.555,17.469,17.469,0,0,0,10.391,3.767,18.032,18.032,0,0,0,5.962-1.152c.868-.31,1.659-.572,2.556-.817,2.62-.715,5.29-3.32,6.964-5.41a11.347,11.347,0,0,0,2.7-8.65,11.544,11.544,0,0,0-6.62-8.37,20.216,20.216,0,0,0-10.87-1.478c-4.287.454-10.132,1.955-13.5,4.9C1075.944,466.262,1076.133,472.883,1077.527,476.254Z" transform="translate(-1017.657 -280.954)" fill="#feca84"/>
          </g>
        </g>
        <g id="Group_17310" data-name="Group 17310" transform="translate(158.583 20.167)">
          <path id="Path_12524" data-name="Path 12524" d="M1241.391,245.221a29.291,29.291,0,0,1,5.335,3.651c1.052.883,1.979.932,3.221,1.8,2.441,1.7,4.514,3.956,3.935,7.216a6.233,6.233,0,0,1,4.661,1.91,3.411,3.411,0,0,1-.142,4.663,15.762,15.762,0,0,0-1.5,1.044,5.063,5.063,0,0,0-.807,1.386,9.345,9.345,0,0,1-13.565,3.736,10.83,10.83,0,0,1-15.84-1.511c-2.262,1.473-5.332.779-7.662-.583a4.292,4.292,0,0,1-1.911-1.856,1.8,1.8,0,0,1,.72-2.331c-5.456,2.347-6.455-9.093-3.287-11.6a8.691,8.691,0,0,1,3.281-1.36c1.656-.431,3.837-.659,4.678.831C1222.432,242.618,1235.079,241.971,1241.391,245.221Z" transform="translate(-1212.756 -243.456)" fill="#e6e7e8"/>
          <path id="Path_12525" data-name="Path 12525" d="M1257.167,262.561q.023-.132.04-.263c-2.619-.933-5.316-1.2-7.986.269a4.276,4.276,0,0,0-1.644,5.995c-.1-.194-.483-.291-.483-.387-2.611-3.481-5.609-7.155-10.056-6.769-3.384.291-5.415,3.578-6.575,6.672-.387,1.063-.1,2.417-.1,3.674-.1-.676-.676-1.063-1.257-1.45v-.291a2.358,2.358,0,0,0-1.16,0c-.387.194-.774.194-1.161.387a1.877,1.877,0,0,0-1.063.87,15.4,15.4,0,0,0-1.454,2.843,6.476,6.476,0,0,0,5.7-.324,10.97,10.97,0,0,0,7.589,4.222c2.267.217,3.9-.57,5.99-1.163,2.652-.753,1.865-.8,4.593-.445,3.574.466,5.729.372,9.035-1.5,3.528-2,7.962-11.333.9-12.264A9.032,9.032,0,0,0,1257.167,262.561Z" transform="translate(-1215.843 -248.261)" fill="#bbdbf9" stroke="#bbdbf9" stroke-linecap="round" stroke-linejoin="round" stroke-width="0.983"/>
        </g>
      </g>
      <path id="Path_12526" data-name="Path 12526" d="M1138.963,301.449a20.417,20.417,0,0,1-13.008,2.052" transform="translate(-1030.901 -238.837)" fill="none" stroke="#100052" stroke-linecap="round" stroke-linejoin="round" stroke-width="4"/>
      <ellipse id="Ellipse_312" data-name="Ellipse 312" cx="1.891" cy="2.965" rx="1.891" ry="2.965" transform="translate(96.599 73.907) rotate(-81.631)" fill="#100052"/>
      <ellipse id="Ellipse_313" data-name="Ellipse 313" cx="1.891" cy="2.965" rx="1.891" ry="2.965" transform="translate(123.557 77.201) rotate(-81.631)" fill="#100052"/>
      <path id="Path_12527" data-name="Path 12527" d="M1145.7,339.379a6.32,6.32,0,0,0,1.568.184,3.1,3.1,0,0,0,2.307-.842c.208-.232.379-.524.67-.639a3.537,3.537,0,0,1-1.076,2.7c-1.814,1.73-4.892.861-6.37-.9-.271-.321-1.889-2.78-.81-2.863.215-.016.815.809,1,.969a6.566,6.566,0,0,0,1.29.856A6.667,6.667,0,0,0,1145.7,339.379Z" transform="translate(-1035.101 -248.376)" fill="#e2a383" opacity="0.44" style="mix-blend-mode: multiply;isolation: isolate"/>
      <path id="Path_12528" data-name="Path 12528" d="M1149.445,355.085s-5.642-4.928-15.065-1.724C1134.38,353.36,1142.9,352.827,1149.445,355.085Z" transform="translate(-1033.159 -252.465)" fill="#100052"/>
    </g>
    <path id="Path_12529" data-name="Path 12529" d="M1188.751,205.627l14.948-57.194,4.246,30.008,19.443-60.646L1211.1,154.5l-6.679-25.225Z" transform="translate(-181.641)" fill="url(#linear-gradient-14)"/>
    <path id="Path_12530" data-name="Path 12530" d="M1207.03,220.384l20.828-33.836-3.156,20.124,24.4-35.174-17.673,20.4.654-17.527Z" transform="translate(-186.542 -14.398)" fill="url(#linear-gradient-15)"/>
    <path id="Path_12531" data-name="Path 12531" d="M801.027,438.006a30.144,30.144,0,0,0-19.185,6.815c-.114.094-.285.19-.4.092s.175-.258.143-.113" transform="translate(-72.433 -85.851)" fill="none" stroke="#100052" stroke-linecap="round" stroke-linejoin="round" stroke-width="5.507"/>
    <path id="Path_12532" data-name="Path 12532" d="M835.123,430.2a21.961,21.961,0,0,1,17.052-2.532c.127.031.295.04.33-.1s-.247-.149-.156-.037" transform="translate(-86.831 -82.89)" fill="none" stroke="#100052" stroke-linecap="round" stroke-linejoin="round" stroke-width="5.507"/>
    <path id="Path_12533" data-name="Path 12533" d="M838.623,490.218a8.6,8.6,0,0,0,4.093-1.986c.851-1,.766-2.9.331-4.033a2.932,2.932,0,0,1,1.253,2.527,5.789,5.789,0,0,1-.165.971,7.771,7.771,0,0,1-2.614,4.618c-1.959,1.352-4.634.631-6.773-.269-1.526-.642-3.239-1.39-4.175-2.707C832.992,488.966,835.612,490.943,838.623,490.218Z" transform="translate(-85.611 -98.235)" fill="#e2a383" opacity="0.44" style="mix-blend-mode: multiply;isolation: isolate"/>
    <ellipse id="Ellipse_314" data-name="Ellipse 314" cx="3.845" cy="3.198" rx="3.845" ry="3.198" transform="translate(758.36 359.552) rotate(-6.392)" fill="#100052"/>
    <ellipse id="Ellipse_315" data-name="Ellipse 315" cx="3.845" cy="3.2" rx="3.845" ry="3.2" transform="translate(723.13 365.683) rotate(-6.392)" fill="#100052"/>
    <path id="Path_12534" data-name="Path 12534" d="M850.529,511.64a182.263,182.263,0,0,0-22.973,2.471c-.492.094-.483.581.011.567a149.071,149.071,0,0,0,22.984-2.471C851.052,512.112,851.034,511.614,850.529,511.64Z" transform="translate(-84.705 -105.592)" fill="#100052"/>
    <path id="Path_12535" data-name="Path 12535" d="M842.457,521.031a29.583,29.583,0,0,0,6.389-.869" transform="translate(-88.797 -107.877)" fill="none" stroke="#e2a383" stroke-linecap="round" stroke-linejoin="round" stroke-width="2" opacity="0.44" style="mix-blend-mode: multiply;isolation: isolate"/>
  </g>
</svg>
