<svg xmlns="http://www.w3.org/2000/svg" xmlns:xlink="http://www.w3.org/1999/xlink" width="665.01" height="526.448" viewBox="0 0 665.01 526.448">
  <defs>
    <linearGradient id="linear-gradient" x1="0.079" y1="0.494" x2="0.542" y2="0.507" gradientUnits="objectBoundingBox">
      <stop offset="0" stop-color="#4fa5ad"/>
      <stop offset="1" stop-color="#99cbcf"/>
    </linearGradient>
    <linearGradient id="linear-gradient-2" x1="0.169" y1="0.94" x2="0.359" y2="0.706" xlink:href="#linear-gradient"/>
    <linearGradient id="linear-gradient-3" x1="0" y1="0.5" x2="1" y2="0.5" xlink:href="#linear-gradient"/>
    <linearGradient id="linear-gradient-4" x1="0.449" y1="-8.97" x2="0.136" y2="-5.886" xlink:href="#linear-gradient"/>
    <linearGradient id="linear-gradient-5" x1="0.709" y1="-0.561" x2="0.338" y2="1.456" gradientUnits="objectBoundingBox">
      <stop offset="0" stop-color="#ff9077"/>
      <stop offset="1" stop-color="#e9645a"/>
    </linearGradient>
    <linearGradient id="linear-gradient-6" x1="0.514" y1="0.294" x2="0.371" y2="1.107" xlink:href="#linear-gradient-5"/>
    <linearGradient id="linear-gradient-7" x1="0.785" y1="-0.358" x2="0.007" y2="1.908" gradientUnits="objectBoundingBox">
      <stop offset="0" stop-color="#2a7195"/>
      <stop offset="1" stop-color="#060c39"/>
    </linearGradient>
    <linearGradient id="linear-gradient-8" x1="0.488" y1="0.49" x2="0.362" y2="1" xlink:href="#linear-gradient-7"/>
    <linearGradient id="linear-gradient-9" x1="-11.624" y1="-11.349" x2="-11.652" y2="-9.32" xlink:href="#linear-gradient-5"/>
    <linearGradient id="linear-gradient-10" x1="-12.268" y1="-9.571" x2="-11.108" y2="-9.571" xlink:href="#linear-gradient-5"/>
    <linearGradient id="linear-gradient-11" x1="-51.075" y1="-97.474" x2="-51.012" y2="-96.793" xlink:href="#linear-gradient-5"/>
    <linearGradient id="linear-gradient-12" x1="-37.665" y1="-33.065" x2="-36.936" y2="-32.142" xlink:href="#linear-gradient-5"/>
    <linearGradient id="linear-gradient-13" x1="-38.447" y1="-35.52" x2="-39.333" y2="-22.821" xlink:href="#linear-gradient-5"/>
    <linearGradient id="linear-gradient-14" x1="-53.545" y1="-33.224" x2="-52.154" y2="-33.224" xlink:href="#linear-gradient-5"/>
    <linearGradient id="linear-gradient-15" x1="-216.175" y1="12.229" x2="-214.825" y2="11.983" xlink:href="#linear-gradient-7"/>
    <linearGradient id="linear-gradient-16" x1="-367.957" y1="53.447" x2="-364.911" y2="51.981" xlink:href="#linear-gradient-7"/>
    <linearGradient id="linear-gradient-17" x1="-0.333" y1="0.973" x2="1.289" y2="-0.25" xlink:href="#linear-gradient-7"/>
    <linearGradient id="linear-gradient-18" x1="0.129" y1="1.228" x2="0.798" y2="-0.085" xlink:href="#linear-gradient-7"/>
  </defs>
  <g id="Group_17374" data-name="Group 17374" transform="translate(-537.784 -178.85)">
    <path id="Path_14955" data-name="Path 14955" d="M686.179,539.357c27.385,205.92,358.712,77.8,496.526,104.37,54.571-63.855,37.677-162.8,27.665-186.533-64.019,77.281-162.269,147.028-255.221,72.192-86.286-72.518-91.8-201.617-205.359-243.642-46.394,26.212-87.485,68.925-112.283,118.9C674.9,439.836,681.912,490.66,686.179,539.357Z" transform="translate(-26.034 -27.906)" fill="url(#linear-gradient)"/>
    <path id="Path_14956" data-name="Path 14956" d="M673.043,581.37c-4.261-48.7-11.27-99.529-48.667-134.722-49.432,95.3-59.96,233.129,33.693,287.191C725,776.7,773.37,744.819,906.255,747.523c97.145,1.977,113.256,19.872,167.855,1.244C1093.931,742,704.923,778.152,673.043,581.37Z" transform="translate(-12.903 -69.912)" fill="url(#linear-gradient-2)"/>
    <path id="Path_14957" data-name="Path 14957" d="M1132.9,303.079c-82.728-76.564-234.025-99.879-343.446-31.616C903,313.47,908.548,442.607,994.823,515.108c92.9,74.8,191.223,5.111,255.215-72.2C1228.155,374.85,1176.4,335.847,1132.9,303.079Z" transform="translate(-65.703 -13.624)" fill="url(#linear-gradient-3)"/>
    <path id="Path_14958" data-name="Path 14958" d="M741.376,832.322c19.324-14.267,124.489-17.381,153.042-12.145,34.72,8.526,71.314,16.766,107.316,9.9,33.178-7.36,69.024-12.3,103.322-3.4,17.393,4.188,54.061,15.549,45.8,30.561-7.353,12.157-29.479,14.03-45.975,13.905-31.689,1.145-61.644-6.95-91.916-13.254-59.368-11.932-115.417,7.259-172.724,13.618C809.727,874.7,722.556,865.506,741.376,832.322Z" transform="translate(-52.463 -166.803)" fill="url(#linear-gradient-4)"/>
    <g id="Group_17372" data-name="Group 17372" transform="translate(537.784 425.558)">
      <path id="Path_14959" data-name="Path 14959" d="M556.259,541.539c7.045-2.186,11.175-10.446,18.463-11.418,8.788,8.358,27.433,33.6,36.285,12.356-4.587-30.27-45.686-40.853-62.984-15.624C549.624,531.825,547.651,542.943,556.259,541.539Z" transform="translate(-540.457 -512.717)" fill="url(#linear-gradient-5)"/>
      <path id="Path_14960" data-name="Path 14960" d="M605.817,552.12c-11.9,12.1-25.292-9.977-33.768-17.006-7.288.972-11.418,9.232-18.463,11.418-8.609,1.4-6.634-9.71-8.236-14.686-18.24,22.612-1.4,62.059,28.055,61.031,22.439.374,39.731-22.779,34.929-45.407A49.3,49.3,0,0,1,605.817,552.12Z" transform="translate(-537.784 -517.711)" fill="url(#linear-gradient-6)"/>
    </g>
    <g id="Group_17373" data-name="Group 17373" transform="translate(1149.82 540.609)">
      <path id="Path_14961" data-name="Path 14961" d="M1392.805,706.042c20.046-13.464,16.7,7.252,29.343-7.024,3.768-23.52-25.366-40.285-42.847-24.312,4.992,6.626,3.321,15.1,1.919,22.527C1380.979,703.387,1386.892,708.213,1392.805,706.042Z" transform="translate(-1369.507 -668.415)" fill="url(#linear-gradient-7)"/>
      <path id="Path_14962" data-name="Path 14962" d="M1379.329,687.388c-.626-3.5-1.134-7.613-3.489-10.46-34.239,35.785,31.386,73.9,42.847,24.312-5.036,6.167-8.237,6.522-14.742,2.438-5.189-2.051-9.775,2.776-14.6,4.587-5.913,2.172-11.826-2.655-11.584-8.81C1377.881,695.352,1379.932,691.611,1379.329,687.388Z" transform="translate(-1366.047 -670.637)" fill="url(#linear-gradient-8)"/>
    </g>
    <path id="Path_14963" data-name="Path 14963" d="M1126.584,235.054c52.209,9.54,42.576,96.189-15.1,55.287a33.342,33.342,0,0,1-5,6.523l-14.655-11.09,12.523-18.456c1.384-2.669,4.25-3.534,6.358-1.163,4.5,4.128,9.682,10.692,16.512,8.575,4.338-1.49,6.37-6.982,5.3-11.472-1.946-5.946-8.119-10.392-9.3-11.98C1123.223,251.277,1124.917,239.624,1126.584,235.054Z" transform="translate(-144.639 -14.673)" fill="url(#linear-gradient-9)"/>
    <path id="Path_14964" data-name="Path 14964" d="M1128.544,223.836c52.21,9.54,42.576,96.19-15.1,55.287a33.363,33.363,0,0,1-5,6.524l-14.655-11.091c4.174-6.152,15.762-21.08,15.762-21.08,2.919,1.766,13.376,12.962,19.63,10.035,4.339-1.49,6.37-6.982,5.3-11.472-1.977-5.969-8.092-10.4-9.356-11.986C1125.126,240.053,1126.877,228.407,1128.544,223.836Z" transform="translate(-145.151 -11.744)" fill="url(#linear-gradient-10)"/>
    <path id="Path_14965" data-name="Path 14965" d="M1093.643,325.75l-16.283-4.447C1082.468,316.933,1091.465,319.391,1093.643,325.75Z" transform="translate(-140.863 -36.613)" fill="url(#linear-gradient-11)"/>
    <path id="Path_14966" data-name="Path 14966" d="M1094.324,326.9c-1.383,7.87-5.342,16.169-14.773,13.846-9.3-2.793-8.492-11.956-5.682-19.433Z" transform="translate(-139.456 -37.191)" fill="url(#linear-gradient-12)"/>
    <path id="Path_14967" data-name="Path 14967" d="M1094.839,324.141c-3.765,13.541-24.1,7.986-20.455-5.588C1078.148,305.013,1098.482,310.568,1094.839,324.141Z" transform="translate(-139.972 -34.437)" fill="url(#linear-gradient-13)"/>
    <path id="Path_14968" data-name="Path 14968" d="M1091.828,300.765l1.448-8.289,14.318,10.917-1.111,8.463Z" transform="translate(-144.639 -29.663)" fill="url(#linear-gradient-14)"/>
    <path id="Path_14969" data-name="Path 14969" d="M1118.427,309.873" transform="translate(-151.583 -34.205)" fill="#fff"/>
    <path id="Path_14970" data-name="Path 14970" d="M1120.387,298.655" transform="translate(-152.095 -31.276)" fill="#fff"/>
    <path id="Path_14971" data-name="Path 14971" d="M1232.116,831c10.653-1.957,19.52-2.952,11.015-15.507-3.868-5.709-13.105-5.781-19.588-7.564-12.8-3.52-27.5-7.734-39.714-11.819-7-2.341-13.413-5.937-19.9-4-23.991,7.174-10.947,23.667-2.217,38.012C1165.793,839.557,1219.563,830.477,1232.116,831Z" transform="translate(-159.886 -159.954)" fill="#2a7195" stroke="#100052" stroke-linecap="round" stroke-linejoin="round" stroke-width="1"/>
    <path id="Path_14972" data-name="Path 14972" d="M941.826,711.873c6.691-12.359,14.552-24.757,22.186-36.769,22.746,25.316,40.215,53.783,65.259,77.037,14.991,15.959,17.9,22.88,39.42,9.982,7.73-3.819,18.819-9.1,19.594-18.733-.444-4.3-4.76-10.264-6.645-14.194-13.167-27.724-29.146-54.41-50.456-76.679-41.612-59.073-110.679-40.863-157.3,5.764-16.593,15.119-41.761,35.8-60.126,48.213-17.471,16.8-28.056,47.233-19.357,69.879,10.489,18.686,20.628,33,44.74,32.663,28.431-.4,39.321-17.817,57.4-39.433C910.179,752.961,930.673,732.21,941.826,711.873Z" transform="translate(-66.182 -113.93)" fill="#0a052b"/>
    <path id="Path_14973" data-name="Path 14973" d="M1084.116,585c-10.893,12.933-2.946,57.616,20.1,42.884C1132.459,607.531,1104.139,566.2,1084.116,585Z" transform="translate(-141.368 -104.782)" fill="#b27344" stroke="#100052" stroke-linecap="round" stroke-linejoin="round" stroke-width="1"/>
    <path id="Path_14974" data-name="Path 14974" d="M1157.686,788.034c-3.24,8.777-16.32,13.387-24.235,8.682-9.509-5.652-15.366-17.544-21.175-25.673-14.85-20.778-26-40.954-38.557-63.326-5.055-9.011-5.417-19.827,7.137-23.669,9.638-2.951,20.17,5.161,26.32,11.053,22.1,20.944,34.67,46.579,44.953,74.722C1154.233,775.249,1160.043,781.652,1157.686,788.034Z" transform="translate(-139.054 -131.724)" fill="#685545" stroke="#100052" stroke-linecap="round" stroke-linejoin="round" stroke-width="1"/>
    <path id="Path_14975" data-name="Path 14975" d="M1209.8,864.23c10.514,1.281,28.043,2,21.081-14.174-2.337-5.945-10.31-7.815-15.462-10.65-10.172-5.6-19.263-10.446-28.244-18.247-2.19-1.9-6.249-7.658-9.836-7.582-4.023.086-5.18,4.435-7.9,6.761-6.425,5.485-13.412,8.2-21.985,7.566-.525,9.515.007,19.167,3.155,28.1C1169.88,861.631,1189.848,861.684,1209.8,864.23Z" transform="translate(-159.114 -165.702)" fill="#2a7195" stroke="#100052" stroke-linecap="round" stroke-linejoin="round" stroke-width="1"/>
    <path id="Path_14976" data-name="Path 14976" d="M939.49,676.276A198.171,198.171,0,0,1,954.4,641.233c19.781,30.724,35.966,62.7,59.989,90.246,5.685,6.866,11.338,13.288,17.436,20.031,5.749,6.358,10.081,5.988,17.539.919,6.483-5.22,16.672-9.809,22.219-16.418-4.58-50.743-51.66-144.044-104.719-157.949-66.759-11.936-114.4,70.058-156.929,109.05-24.022,15.548-46.215,32.91-33.781,64.755,9.724,28.49,38.711,48.623,68.9,40.3,29.711-7.763,45.883-28.756,61.442-56.452C915.194,719.693,932.833,695.543,939.49,676.276Z" transform="translate(-61.298 -103.912)" fill="#12073c"/>
    <path id="Path_14977" data-name="Path 14977" d="M803.361,448.841c2.945-8.745,5.836-17.746,8.16-26.737,2.221-8.6,1.315-21.64,9.581-26.583,14.816-4.743,27.138,1.445,35.476,14.986,10.44,13.191-10.234,20.149-10.641,52.841" transform="translate(-69.332 -56.151)" fill="#b27344" stroke="#100052" stroke-linecap="round" stroke-linejoin="round" stroke-width="1"/>
    <path id="Path_14978" data-name="Path 14978" d="M881.594,392.743c-1.8.023-2.022,2.028-2.367,3.687-2.5,7.262-4.907,17.364-12.063,21.193-17.346,1.355-31.652-10.747-44.755-20.577-6.846-4.336-6.238-13.681-6.635-20.77-.411-7.185-1.572-13.577.962-20.6,14.9-41.246,57.73-50.328,66.1.1,1.327,7.789-2.712,15.24.415,22.614C887.716,388.91,889.9,392.637,881.594,392.743Z" transform="translate(-72.409 -37.18)" fill="#b27344" stroke="#100052" stroke-linecap="round" stroke-linejoin="round" stroke-width="1"/>
    <path id="Path_14979" data-name="Path 14979" d="M832.079,361.959c-2.879,7.7-10.257-11.613-15.411-4.109-1.855,2.968-2.059,6.63-2.665,10.078-2.647,13.121-8.281,10.4-14.223.936-9.622-13.259-10.3-31.745-2.524-46.035,9.911-25.615,64.65-30.84,81.167-10.906,8.115,11.567,8.53,28.341-1.44,38.955.254-.276-1.185-3.837-1.335-4.338-1.889-4-1.3-10.335-4.951-12.965C867.875,343.644,840.919,338.319,832.079,361.959Z" transform="translate(-66.35 -31.565)" fill="#100052"/>
    <path id="Path_14980" data-name="Path 14980" d="M834.563,368.527c-3.1-5.078-10.106-8.7-13.676-2.978-5,7.635,2.319,30.061,11.247,19.983" transform="translate(-73.483 -47.979)" fill="#b27344" stroke="#100052" stroke-linecap="round" stroke-linejoin="round" stroke-width="1.101"/>
    <path id="Path_14981" data-name="Path 14981" d="M843.679,470.128c-5.7-12.189-22.663-9.645-33.706-8.793-74.882,5.63-68.385,185.808-51.585,237.88,2.45,5.9,6.2,23.38,11.655,25.31,38.711-.734,67.21-51.046,86.378-80.077,5.057-10.774,11.331-21.463,8.183-33.768-4.989-18.968,18.023-28.19,13.429-47.154-1.583-8.591-6.107-16.3-9.639-24.289C858.455,516.414,855.886,492.332,843.679,470.128Z" transform="translate(-54.766 -73.534)" fill="#feca84" stroke="#100052" stroke-linecap="round" stroke-linejoin="round" stroke-width="1"/>
    <path id="Path_14982" data-name="Path 14982" d="M880.565,425.71a61.47,61.47,0,0,0,12.508,2.767" transform="translate(-89.487 -64.445)" fill="none" stroke="#100052" stroke-linecap="round" stroke-linejoin="round" stroke-width="2"/>
    <path id="Path_14983" data-name="Path 14983" d="M894.633,385.579c.053,3.636-5.658,3.636-5.6,0C888.975,381.943,894.687,381.943,894.633,385.579Z" transform="translate(-91.696 -53.257)" fill="#100052"/>
    <path id="Path_14984" data-name="Path 14984" d="M893.753,372.576a21.93,21.93,0,0,0-15.384,4.462" transform="translate(-88.914 -50.549)" fill="none" stroke="#100052" stroke-linecap="round" stroke-linejoin="round" stroke-width="4"/>
    <path id="Path_14985" data-name="Path 14985" d="M1054.191,556.593c-5.139-6.817-7.846-15.281-13.345-21.811-25.418-24.627-67.569-15.307-99.814-23.609-6.877-1.3-13.489-5.249-20.264-6.208-7.482-1.059-16.871,1.189-24.437,1.717-6.759-.064-14.359,3.065-13.855,10.812,2.854,24.839,68.6,36.326,90.038,42.08" transform="translate(-89.98 -85.063)" fill="#feca84" stroke="#100052" stroke-linecap="round" stroke-linejoin="round" stroke-width="1"/>
    <path id="Path_14986" data-name="Path 14986" d="M767.239,506.117c3.18-12.686,8.617-26.509,19.956-35.987,10.364-8.663,22.821-7.433,35.305-8.2,16.574-1.023,28.756.237,41.574,10.749a547.549,547.549,0,0,0,54.537,39.74c32.76,20.669,73.133,17.536,107.661,33.9,5.018,8.389,3.283,18.838-3.194,25.886-12.164,12.861-34.169,4.128-49.4,2.214C920.019,566.852,868.131,552.9,826.169,517.4" transform="translate(-59.902 -73.824)" fill="#feca84" stroke="#100052" stroke-linecap="round" stroke-linejoin="round" stroke-width="1"/>
    <path id="Path_14987" data-name="Path 14987" d="M1098.764,618.781c-3.707,7.74-13.52,12.257-21.736,13.341a3.921,3.921,0,0,0-2.738.947c-1.961,8.21,12.306,3.744,16.412,2.415,6.017-3.064,12.923-6.811,16.2-12.9" transform="translate(-140.013 -114.849)" fill="#b27344" stroke="#100052" stroke-linecap="round" stroke-linejoin="round" stroke-width="1"/>
    <path id="Path_14988" data-name="Path 14988" d="M1085.941,610.384c.261,11.194-10.234,9.231-16.769,14.83-2.214,1.2-5.114,2.062-5.327,5.055,2.135,5.746,23.861-2.205,27.563-5.161,2.965-2.688,4.216-7.452,8.035-8.644" transform="translate(-137.334 -112.657)" fill="#b27344" stroke="#100052" stroke-linecap="round" stroke-linejoin="round" stroke-width="1"/>
    <path id="Path_14989" data-name="Path 14989" d="M1080.526,595.917c2.581,21.985.244,11.533-12.985,19.838a2.511,2.511,0,0,0,.857,4.5,41.19,41.19,0,0,0,19.331-4.4c1.8-2.891,2.615-6.372,4.02-9.484" transform="translate(-138.023 -108.88)" fill="#b27344" stroke="#100052" stroke-linecap="round" stroke-linejoin="round" stroke-width="1"/>
    <path id="Path_14990" data-name="Path 14990" d="M1080.6,588.652c-.092-2.072-.315-8.255-3.995-5.936-1.625,1.024-1.4,2.408-2.631,3.905-1.771,1.836-6.734,7.837-9.22,5.189-2.764-4.094,1.776-6.96,3.047-11.029,1.006-6.7,3.008-12.161,8.1-16.523,3.054-3.392,1.332-10.032,6.183-11.8,7.732-3.8,12.48-.294,16.37,9,6.609,15.78,11.344,30.715,4.909,45.835" transform="translate(-137.344 -97.139)" fill="#b27344" stroke="#100052" stroke-linecap="round" stroke-linejoin="round" stroke-width="1"/>
    <path id="Path_14991" data-name="Path 14991" d="M863.318,640.483A156.952,156.952,0,0,0,903.4,626.771c-9.218,17.422-25.515,32.521-42.851,41.9" transform="translate(-84.262 -116.935)" fill="#feca84" stroke="#100052" stroke-linecap="round" stroke-linejoin="round" stroke-width="1"/>
    <path id="Path_14992" data-name="Path 14992" d="M764.886,324.583c-13.713,17.04-13.028,40.556-19.739,60.611-5.9,19.625-16.361,38.007-21.964,57.731-1.951,6.868-8.08,20.794-4.605,27.526,3.566,6.908,12.854,14.21,20.65,14.064,22.914,1.839,41.191-7.859,46.479-31.249,7.836-25.8,10.506-52.67,6.1-79.233a194.549,194.549,0,0,1,.12-30.287c.488-7.189-1.407-16.235.63-23.043,2.29-11.844,20.058-9.22,14.578-14.827C795.849,300.483,773.059,317.109,764.886,324.583Z" transform="translate(-46.925 -32.886)" fill="#100052"/>
    <path id="Path_14993" data-name="Path 14993" d="M1017.114,286.994c.075-2.8,3.112,8.207,10.476-10.319,3.986-10.024,8.408-19.871,12.548-29.832,5.356-12.886,28.491-53.969,13.171-65.024-18.823-13.58-22.986,43.678-24.206,52.58C1026.564,252.932,1019.654,268.461,1017.114,286.994Z" transform="translate(-125.134 -0.234)" fill="url(#linear-gradient-15)"/>
    <path id="Path_14994" data-name="Path 14994" d="M997.527,363.75c4.957,15.061,27.478,8.071,23.037-7.148C1015.608,341.542,993.086,348.532,997.527,363.75Z" transform="translate(-119.871 -44.217)" fill="url(#linear-gradient-16)"/>
    <path id="Path_14995" data-name="Path 14995" d="M1017.877,285.786c.711.228,1.176-.546,1.42-1.152,2.693-6.339,4.962-12.7,7.635-19.027,2.58-6.7,6.1-13.624,8.471-20.267,5.356-12.886,28.49-53.968,13.171-65.023-24.614-13.3-23.747,67.842-28.1,80.988q-.97,7.1-1.944,14.207C1018.385,276.558,1016.242,285.1,1017.877,285.786Z" transform="translate(-125.174 0)" fill="url(#linear-gradient-17)"/>
    <path id="Path_14996" data-name="Path 14996" d="M992.608,358.506c4.957,15.061,27.478,8.071,23.037-7.149C1010.689,336.3,988.167,343.288,992.608,358.506Z" transform="translate(-118.587 -42.848)" fill="url(#linear-gradient-18)"/>
  </g>
</svg>
