<svg xmlns="http://www.w3.org/2000/svg" xmlns:xlink="http://www.w3.org/1999/xlink" width="591.287" height="424.795" viewBox="0 0 591.287 424.795">
  <defs>
    <linearGradient id="linear-gradient" y1="0.5" x2="1" y2="0.5" gradientUnits="objectBoundingBox">
      <stop offset="0" stop-color="#4fa5ad"/>
      <stop offset="1" stop-color="#99cbcf"/>
    </linearGradient>
    <clipPath id="clip-path">
      <path id="Path_15023" data-name="Path 15023" d="M535.025,214.188c-47.06,17.247-86.039,54.157-110.107,107.332-21.511,47.525-26.543,103.495-8.029,152.265C431.208,511.5,460.28,543.7,497,560.652c43.649,20.154,84.73-8.471,131.39-3.741,25.543,2.589,49.74,12.243,74.363,19.509,43.708,12.9,90.284,18.363,135.071,9.949s87.667-31.6,114.844-68.179c44.489-59.881,57.822-157.733,28.481-225.407-22.044-50.844-74.165-132.19-140.636-100.046-18.847,9.115-35.455,22.716-55.075,30.022-40.764,15.178-85.8.794-127.64-11.106C614.09,199.219,572.056,200.616,535.025,214.188Z" transform="translate(-405.499 -185.432)" fill="none"/>
    </clipPath>
    <linearGradient id="linear-gradient-2" x1="-48.028" y1="2.763" x2="-46.678" y2="2.517" gradientUnits="objectBoundingBox">
      <stop offset="0" stop-color="#2a7195"/>
      <stop offset="1" stop-color="#060c39"/>
    </linearGradient>
    <linearGradient id="linear-gradient-3" x1="-80.693" y1="10.593" x2="-77.656" y2="9.148" xlink:href="#linear-gradient-2"/>
    <linearGradient id="linear-gradient-4" x1="1.192" y1="-0.051" x2="-0.291" y2="0.874" xlink:href="#linear-gradient-2"/>
    <linearGradient id="linear-gradient-5" x1="1.623" y1="-0.758" x2="-0.903" y2="2.072" xlink:href="#linear-gradient-2"/>
    <linearGradient id="linear-gradient-6" x1="2.496" y1="-0.291" x2="6.522" y2="14.187" gradientUnits="objectBoundingBox">
      <stop offset="0" stop-color="#fff"/>
      <stop offset="1" stop-color="#bbdbf9"/>
    </linearGradient>
    <linearGradient id="linear-gradient-7" x1="2.216" y1="0.5" x2="3.216" y2="0.5" xlink:href="#linear-gradient-6"/>
    <linearGradient id="linear-gradient-8" x1="1.417" y1="0.5" x2="2.417" y2="0.5" xlink:href="#linear-gradient-6"/>
    <linearGradient id="linear-gradient-9" x1="0.713" y1="-0.573" x2="0.336" y2="1.476" gradientUnits="objectBoundingBox">
      <stop offset="0" stop-color="#ff9077"/>
      <stop offset="1" stop-color="#e9645a"/>
    </linearGradient>
    <linearGradient id="linear-gradient-10" x1="0.516" y1="0.293" x2="0.373" y2="1.104" xlink:href="#linear-gradient-9"/>
  </defs>
  <g id="Group_17386" data-name="Group 17386" transform="translate(-405.499 -149.656)">
    <g id="Group_17375" data-name="Group 17375" transform="translate(405.499 169.486)">
      <path id="Path_14997" data-name="Path 14997" d="M535.025,214.188c-47.06,17.247-86.039,54.157-110.107,107.332-21.511,47.525-26.543,103.495-8.029,152.265C431.208,511.5,460.28,543.7,497,560.652c43.649,20.154,84.73-8.471,131.39-3.741,25.543,2.589,49.74,12.243,74.363,19.509,43.708,12.9,90.284,18.363,135.071,9.949s87.667-31.6,114.844-68.179c44.489-59.881,57.822-157.733,28.481-225.407-22.044-50.844-74.165-132.19-140.636-100.046-18.847,9.115-35.455,22.716-55.075,30.022-40.764,15.178-85.8.794-127.64-11.106C614.09,199.219,572.056,200.616,535.025,214.188Z" transform="translate(-405.499 -185.432)" fill="url(#linear-gradient)"/>
    </g>
    <g id="Group_17383" data-name="Group 17383" transform="translate(405.499 169.486)">
      <g id="Group_17382" data-name="Group 17382" transform="translate(0 0)" clip-path="url(#clip-path)">
        <g id="Group_17381" data-name="Group 17381" transform="translate(104.769 86.716)">
          <g id="Group_17380" data-name="Group 17380">
            <g id="Group_17379" data-name="Group 17379" transform="translate(76.034)">
              <g id="Group_17376" data-name="Group 17376">
                <path id="Path_14998" data-name="Path 14998" d="M839.981,356.237a77.463,77.463,0,0,0-19.217,6.339c-7.4,3.571-14.169,8.292-20.905,12.992-6.055,4.224-9.481,15.055-11.209,22.069-2.088,8.474-2.483,17.253-3,25.929-.3,5.073-.8,10.109-1.392,15.125-2.376,19.973-3.874,39.027-8.958,58.293-2.228,8.446-3.763,17.723-.147,25.674,2.475,5.445,7.1,9.605,11.929,13.133,28.543,20.846,66.448,24.024,101.6,20.352,13.589-1.419,27.436-3.869,39.2-10.824,6.17-3.649,11.915-8.936,13.611-15.9,1.065-4.372.433-8.956-.207-13.411-5.443-37.905-10.093-76.471-19.692-113.521-3.773-14.563-10.2-28.618-20.959-39.361-5.838-5.829-13.224-10.313-21.347-11.754" transform="translate(-750.097 -346.109)" fill="#100052" stroke="#100052" stroke-width="0.714"/>
                <path id="Path_14999" data-name="Path 14999" d="M741.6,941.307c-1.583-2.393-1.636-5.854-.955-12.34,2.161-20.6,3.431-36.774,1.437-57.692a394.463,394.463,0,0,1-1.442-60.452c1.13-20.428,3.406-41.149,3.406-61.6.617-11.158,1.221-22.485-1.223-33.39-1.662-7.415-4.695-14.444-6.895-21.718a99.8,99.8,0,0,1-4.026-21.891c-.725-10.333.237-21.019,4.7-30.366,11.852-24.821,33.47-14.881,55.793-12.535a7.934,7.934,0,0,1,3.947,1.16c1.265.93,3.345-1.165,3.893.306,3.1,8.307,4.985,16.8,13.765,20.84a39.91,39.91,0,0,0,28.653,1.439c5.6-1.8,10.908-4.748,14.722-9.305,4.96-5.926,3.94-10.37,6.324-17.078,9.3.095,19.728.481,28.887,2.1,6.879,1.214,16.873,2.253,22.439,6.923,4.211,3.534,7.2,10.972,9.485,15.9a88.151,88.151,0,0,1,7.613,32.021c.288,5.014.835,10.837-.556,15.628-1.53,5.272-4.836,10.521-7.053,15.56-9.222,20.954-17.4,42.784-19.477,65.755-1.211,13.409,1.415,26.382,1.124,39.648a166.267,166.267,0,0,0,2.994,36.4,270.652,270.652,0,0,0,12.222,43c2.283,6.074,8.083,13.52,3.883,18.81-3.975,5.007-9.845,8.922-14.731,12.985-45.743,38-104.018,38.182-157.062,16.533C746.947,945.285,743.346,943.944,741.6,941.307Z" transform="translate(-731.686 -468.236)" fill="#feca84"/>
                <path id="Path_15000" data-name="Path 15000" d="M906.2,565.568a54.9,54.9,0,0,1,1.554,9.318c.438,4.423.21,16.491,4.932,18.761a9.1,9.1,0,0,0,3.273.7c4.337.334,7.6-.368,7.905,5.187.441,8.063-7.768,19.348-14.019,23.8a34.344,34.344,0,0,1-8.3,4.115c-11.192,4.059-23.755,5.141-35,1.239a38.976,38.976,0,0,1-19.17-14.9,42.141,42.141,0,0,1-5.168-11.149c-1.427-4.462-2.061-6.536,3.439-7.908l5.553-1.386a16.764,16.764,0,0,0,5.455-2.062c3.915-2.653,3.385-8.732,3.651-12.886.3-4.754.687-9.712,3.285-13.853,2.333-3.719,6.149-6.256,10.074-8.224,9.754-4.89,23.726-7.656,30.2,3.551A24.5,24.5,0,0,1,906.2,565.568Z" transform="translate(-780.505 -435.556)" fill="#b27344" stroke="#100052" stroke-linecap="round" stroke-linejoin="round" stroke-width="1"/>
                <path id="Path_15001" data-name="Path 15001" d="M825.328,418.464c-6.334,28.569,4.263,68.765,23.229,90.9,7.247,8.458,18.416,17.3,29.5,16.189,6.8-.681,14.911-6.568,20.461-10.493,6.231-4.406,10.986-11.394,14.723-18.031,6.646-11.8,7.84-24.737,10.164-37.74,1.227-6.863-.04-15.077-.291-22.043a194.345,194.345,0,0,0-1.979-22.925" transform="translate(-772.604 -374.165)" fill="#b27344" stroke="#100052" stroke-linecap="round" stroke-linejoin="round" stroke-width="0.947"/>
                <path id="Path_15002" data-name="Path 15002" d="M913.28,410.647c6.979,1.011,11-9.625,11.209-15.765.514-15.218-4.978-33.188-18.171-41.747-6.38-4.139-13.735-6.537-21.137-8.28-16.914-3.983-35.228-4.637-51.2,2.21-11.1,4.759-20.782,13.631-25.724,24.735-4.877,10.957-8.722,25.323-4.106,36.872,12.509,31.3,65.988-6.382,80.921-18.666,1.617-1.33,3.956-2.73,5.6-1.435a4.805,4.805,0,0,1,1.123,1.544,52.634,52.634,0,0,0,18.095,19.2A8.781,8.781,0,0,0,913.28,410.647Z" transform="translate(-763.059 -341.878)" fill="#100052" stroke="#100052" stroke-width="0.714"/>
                <path id="Path_15003" data-name="Path 15003" d="M1001.2,466.326c3.282-4.262,7.519-4.546,11.344-.7,3.62,3.638,4.479,9.445,2.97,14.35s-5.071,8.966-9.186,12.033c-2.076,1.546-4.955,2.89-7.123,1.475" transform="translate(-850.923 -395.829)" fill="#b27344" stroke="#100052" stroke-linecap="round" stroke-linejoin="round" stroke-width="0.947"/>
                <path id="Path_15004" data-name="Path 15004" d="M823.04,477.177c-3.69-3.913-7.935-3.774-11.357.432-3.239,3.981-3.514,9.845-1.524,14.575s5.94,8.415,10.341,11.056c2.219,1.332,5.219,2.382,7.234.758" transform="translate(-766.102 -400.919)" fill="#b27344" stroke="#100052" stroke-linecap="round" stroke-linejoin="round" stroke-width="0.947"/>
              </g>
              <path id="Path_15005" data-name="Path 15005" d="M1074.527,785l-14.121-23.835c-11.359-19.173-26.16-40.441-30.629-62.541-2.413-11.933-4.391-24.869-.077-36.62,1.793-4.884,5.765-12.88,10.515-15.526,5.709-3.18,12.346,2.745,15.913,7.028,10.2,12.249,15.872,27.34,22.872,41.466,7.544,15.225,18.217,27.736,24.667,43.624a124.521,124.521,0,0,1,8.353,32.9c.838,7.471.872,12.983-3.257,19.317a45.079,45.079,0,0,1-6.248,8.152,15.16,15.16,0,0,1-9.043,4.481C1083.74,804.211,1078.6,791.876,1074.527,785Z" transform="translate(-863.381 -477.239)" fill="#feca84"/>
              <g id="Group_17378" data-name="Group 17378" transform="translate(240.955 83.174)">
                <path id="Path_15006" data-name="Path 15006" d="M1210.246,492.169a3.251,3.251,0,0,1,4.189,2.073,6.85,6.85,0,0,1-.066,3.1c-.675,3.486-2.334,6.55-3.309,9.926q-1.616,5.6-3.229,11.2a91.243,91.243,0,0,1-3.818,11.347c-.947,2.166-2.753,4.631-4.92,4.136-5.391,0-2.173-12.088-1.6-14.482,1.841-7.715,5.216-14.611,8.495-21.891a16.712,16.712,0,0,1,1.666-3.1,8.382,8.382,0,0,1,2.424-2.21C1210.13,492.228,1210.187,492.2,1210.246,492.169Z" transform="translate(-1179.598 -491.933)" fill="#b27344" stroke="#100052" stroke-linecap="round" stroke-linejoin="round" stroke-width="1"/>
                <path id="Path_15007" data-name="Path 15007" d="M1167.53,580.728a10.636,10.636,0,0,0,.724,4.794c.426.954,1.058,1.8,1.513,2.744a13.549,13.549,0,0,1,1.113,4.687c.928,10.05-2.2,20.064-2.054,30.156a3.848,3.848,0,0,0,2.893,4.152,35.173,35.173,0,0,0,13.654,3.393,5.938,5.938,0,0,0,2.832-.385,5.846,5.846,0,0,0,2.418-2.829c4.316-8.557,4.04-18.584,4.53-28.155a29.009,29.009,0,0,1,.808-6.19c1.393-5.09,4.479-9.088,6.95-13.666a73.321,73.321,0,0,0,6.364-16.084,6.138,6.138,0,0,0,.1-3.991,6.355,6.355,0,0,0-1.755-2.073c-2.276-2.014-4.465-2.7-7.054-3.934-2.965-1.419-5.435-3.023-8.709-3.839a26.664,26.664,0,0,0-10.8-.633c-6.412,1.073-7.619,4.8-8.787,10.268-1.448,6.772-4.035,13.284-4.654,20.228C1167.581,579.819,1167.549,580.273,1167.53,580.728Z" transform="translate(-1166.894 -517.179)" fill="#b27344" stroke="#100052" stroke-linecap="round" stroke-linejoin="round" stroke-width="1"/>
                <path id="Path_15008" data-name="Path 15008" d="M1205.086,545.253a21.849,21.849,0,0,0-2.735,4.722,7.358,7.358,0,0,0-.128,5.341,3.427,3.427,0,0,0,1.906,2,3.284,3.284,0,0,0,2.836-.516,9.089,9.089,0,0,0,2.058-2.148,92.05,92.05,0,0,0,8.808-14.114,2.154,2.154,0,0,0,.312-1.021c-.111-2.78-4.676-4.737-6.777-3.2C1208.823,538.172,1206.864,542.7,1205.086,545.253Z" transform="translate(-1182.166 -511.474)" fill="#b27344" stroke="#100052" stroke-linecap="round" stroke-linejoin="round" stroke-width="1"/>
                <path id="Path_15009" data-name="Path 15009" d="M1212.681,557.5a7.837,7.837,0,0,0-1.155,3.442,2.834,2.834,0,0,0,1.853,2.849,3.438,3.438,0,0,0,2.3-.4,15.1,15.1,0,0,0,3.191-2.2,37.93,37.93,0,0,0,8.161-9.8,11.781,11.781,0,0,0,1.75-4.622,5.023,5.023,0,0,0-1.66-4.472C1221.835,538.185,1214.456,554.146,1212.681,557.5Z" transform="translate(-1186.51 -514.08)" fill="#b27344" stroke="#100052" stroke-linecap="round" stroke-linejoin="round" stroke-width="1"/>
                <path id="Path_15010" data-name="Path 15010" d="M1225.3,568.552a2.482,2.482,0,0,0-.062,1.42,1.734,1.734,0,0,0,1.749,1.009,4.242,4.242,0,0,0,1.992-.787,28.824,28.824,0,0,0,6.449-6.141,14.655,14.655,0,0,0,3.278-5.583c.49-1.976-.27-4.358-2.658-4.424-1.609-.044-2.518,1.249-3.554,2.308A26.753,26.753,0,0,0,1225.3,568.552Z" transform="translate(-1192.583 -519.617)" fill="#b27344" stroke="#100052" stroke-linecap="round" stroke-linejoin="round" stroke-width="1"/>
                <g id="Group_17377" data-name="Group 17377" transform="translate(0 26.03)">
                  <path id="Path_15011" data-name="Path 15011" d="M1168.543,582.653c-2.947-7.061-2.468-13.889-.906-21.031a56.65,56.65,0,0,1,3.624-10.1,14.648,14.648,0,0,1,2.284-4.2c1.046-1.131,2.572-1.575,3.875-2.176a106.923,106.923,0,0,1,18-6.18.818.818,0,0,1,.615-.019,1.045,1.045,0,0,1,.564.7c.552,2.571.443,5.039-1.362,7.069s-4.53,2.278-6.776,3.463a5.025,5.025,0,0,0-2.314,1.7c-1.465,2.6-1.071,5.525-2.036,8.276" transform="translate(-1166.395 -538.895)" fill="#b27344" stroke="#100052" stroke-linecap="round" stroke-linejoin="round" stroke-width="1"/>
                </g>
                <path id="Path_15012" data-name="Path 15012" d="M1200.941,596.383a4.262,4.262,0,0,1,1.4-2.362,16.874,16.874,0,0,1,10.612-4.867" transform="translate(-1181.792 -535.265)" fill="#b27344" stroke="#100052" stroke-linecap="round" stroke-linejoin="round" stroke-width="1"/>
              </g>
              <path id="Path_15013" data-name="Path 15013" d="M1144.629,611.764a7.625,7.625,0,0,0-2.039,1.6c-3.661,4.051-4.827,11.191-6.639,16.193a184.385,184.385,0,0,0-5.675,20.085q-3.022,12.655-5.9,25.344c-6.516,28.657-12.622,58.276-7.589,87.23,1.258,7.241,4.078,14.5,6.665,21.372,3.579,9.5,10.345,9.711,18.166,4.5,16.44-10.957,19.792-30.265,21.883-48.893l6.582-46.115,7.846-54.97c.645-4.519,3.118-10.864.733-14.748-2.4-3.911-9.087-6.365-13.022-8.24a52.272,52.272,0,0,0-6.437-2.723C1154.828,610.993,1148.783,609.514,1144.629,611.764Z" transform="translate(-902.502 -461.652)" fill="#feca84" stroke="#100052" stroke-width="1.383"/>
              <path id="Path_15014" data-name="Path 15014" d="M1102.375,801.5c-1.546,5.369-1.439,11.208-1.05,17.047.393,5.879-.5,10.171,2.052,15.934l9.411,21.278c1.4,3.171,3.26,6.73,6.648,7.466,2.711.589,5.533-.986,7.186-3.214a19.526,19.526,0,0,0,2.94-7.715,120.3,120.3,0,0,0,2-36.932,153.389,153.389,0,0,0-3.213-18.2c-1.189-5.335-2.459-8.474-8.567-8.762l-3.525-.166a13.009,13.009,0,0,0-2.989.09c-2.4.447-4.347,2.2-5.958,4.035A23.48,23.48,0,0,0,1102.375,801.5Z" transform="translate(-896.327 -540.808)" fill="#feca84"/>
            </g>
            <path id="Path_15015" data-name="Path 15015" d="M596.195,730.775a24.367,24.367,0,0,0-1.329,4.408c-2.361,12.1,7.664,26.079,14.752,34.777,13.214,16.214,29.137,29.886,43.245,45.273,7.765,8.47,22.375,40.968,36.16,32.13a252.729,252.729,0,0,0,24.911-18.216c1.641-1.361,3.33-2.834,4.071-4.832,1.712-4.612-2.226-9.222-5.747-12.657a301.658,301.658,0,0,1-54.2-71.594l33.5-27.541c10.255-8.43,20.671-17.038,27.964-28.131s11.116-25.255,6.918-37.849a32.827,32.827,0,0,0-11.788-15.791c-6.509-4.794-12.984-5.555-20.955-4.416-5.57.8-11.534,2.946-15.417,7.113-4.184,4.491-7.592,9.642-11.658,14.235q-25.434,28.727-50.864,57.46C609.507,712.2,600.02,721.257,596.195,730.775Z" transform="translate(-594.514 -468.456)" fill="#feca84"/>
          </g>
          <path id="Path_15016" data-name="Path 15016" d="M1042.788,789.466c1.637,9.826,1.149,20.205-2.839,29.334s-11.761,16.849-21.383,19.428" transform="translate(-783.517 -541.372)" fill="none" stroke="#100052" stroke-width="1.462"/>
          <path id="Path_15017" data-name="Path 15017" d="M757.512,759.972c-1.9,9.405-4.155,20.335-1.973,29.845a57.953,57.953,0,0,0,6.746,15.839c2.693,4.656,5.938,9.377,10.847,11.576" transform="translate(-665.884 -528.226)" fill="none" stroke="#100052" stroke-width="1.462"/>
        </g>
        <path id="Path_15018" data-name="Path 15018" d="M857.1,468.272c7.111-5.35,16.67-4.648,23.2-3.428" transform="translate(-606.783 -309.584)" fill="none" stroke="#100052" stroke-linecap="round" stroke-linejoin="round" stroke-width="7.848"/>
        <path id="Path_15019" data-name="Path 15019" d="M946.346,462.96c8.1-3.692,17.28-.945,23.394,1.653" transform="translate(-646.559 -308.33)" fill="none" stroke="#100052" stroke-linecap="round" stroke-linejoin="round" stroke-width="7.848"/>
        <ellipse id="Ellipse_339" data-name="Ellipse 339" cx="3.495" cy="4.405" rx="3.495" ry="4.405" transform="translate(305.398 168.988) rotate(-89.573)" fill="#100052"/>
        <ellipse id="Ellipse_340" data-name="Ellipse 340" cx="3.495" cy="4.405" rx="3.495" ry="4.405" transform="translate(260.316 168.988) rotate(-89.573)" fill="#100052"/>
        <path id="Path_15020" data-name="Path 15020" d="M915.236,530.93a10.477,10.477,0,0,0,2.482-.068,5.044,5.044,0,0,0,3.419-1.738,3.155,3.155,0,0,1,.911-1.085,5.094,5.094,0,0,1-1.117,4.212c-2.47,2.939-7.445,2.324-10.11.059-.488-.415-3.518-3.683-1.852-4.039.331-.07,1.436,1.016,1.762,1.21a10.51,10.51,0,0,0,2.185.979A10.853,10.853,0,0,0,915.236,530.93Z" transform="translate(-629.679 -338.135)" fill="#e2a383" opacity="0.44" style="mix-blend-mode: multiply;isolation: isolate"/>
        <path id="Path_15021" data-name="Path 15021" d="M923.2,559.851c-5.169.767-16.314,2.089-23.99.625a.277.277,0,0,1,.033-.552c4.536-.234,16.017-.769,23.908-.625A.277.277,0,0,1,923.2,559.851Z" transform="translate(-625.442 -352.058)" fill="#100052"/>
        <path id="Path_15022" data-name="Path 15022" d="M916.2,570.688a13.073,13.073,0,0,0,6.3-.058" transform="translate(-633.12 -357.118)" fill="none" stroke="#e2a383" stroke-linecap="round" stroke-linejoin="round" stroke-width="2.666" opacity="0.44" style="mix-blend-mode: multiply;isolation: isolate"/>
      </g>
    </g>
    <path id="Path_15024" data-name="Path 15024" d="M1230.946,268.158c.082-3.033,3.366,8.879,11.333-11.163,4.311-10.846,9.1-21.5,13.575-32.274,5.794-13.941,30.822-58.387,14.248-70.346-20.363-14.692-24.867,47.253-26.187,56.884C1241.169,231.308,1233.693,248.108,1230.946,268.158Z" transform="translate(-367.909 -1.104)" fill="url(#linear-gradient-2)"/>
    <circle id="Ellipse_341" data-name="Ellipse 341" cx="13.048" cy="13.048" r="13.048" transform="translate(846.956 285.596)" fill="url(#linear-gradient-3)"/>
    <path id="Path_15025" data-name="Path 15025" d="M1231.826,266a.669.669,0,0,0,.356.039c.6-.084.942-.724,1.18-1.286,2.914-6.857,5.368-13.741,8.26-20.584q2.312-5.473,4.6-10.956,1.187-2.843,2.37-5.687c.4-.95,2.48-4.368,2.2-5.282,5.794-13.941,30.823-58.386,14.249-70.346-20.364-14.691-24.868,47.253-26.187,56.884-1.468,10.236-2.808,20.491-4.212,30.736l-2.106,15.368C1232.375,256.017,1230.056,265.257,1231.826,266Z" transform="translate(-368.006)" fill="url(#linear-gradient-4)"/>
    <circle id="Ellipse_342" data-name="Ellipse 342" cx="13.048" cy="13.048" r="13.048" transform="translate(843.023 281.404)" fill="url(#linear-gradient-5)"/>
    <g id="Group_17384" data-name="Group 17384" transform="translate(521.683 225.024)">
      <path id="Path_15026" data-name="Path 15026" d="M617.413,302.815c.878-4.11,2.168-7.589,3.755-9.632,3.81-4.9,9.4-6.966,15.432-7.424,9.12-.693,24.567,1.27,31.265,8.656,4.2,4.636,1,7.132,2.021,12.01.395,1.892.783,3.7,1.1,5.434A69.354,69.354,0,0,0,617.413,302.815Z" transform="translate(-616.135 -285.629)" fill="url(#linear-gradient-6)"/>
      <path id="Path_15027" data-name="Path 15027" d="M669.96,324.118c1.789,9.717,1.367,16.823-12.635,20.675-5.871,1.615-10.047-1.2-15.562-.615a13.862,13.862,0,0,0-1.643.278c-6.473,1.479-11.826,6.99-18.8,2.609-6.611-4.153-7.382-20.539-4.934-31.991A69.354,69.354,0,0,1,669.96,324.118Z" transform="translate(-615.108 -297.888)" fill="url(#linear-gradient-7)"/>
    </g>
    <path id="Path_15028" data-name="Path 15028" d="M741.884,400.269c2.541-1.642,4.1-4.647,3.652-9.427-.864-9.309-17.719-11.451-23.547-5.452C712.395,395.268,733.073,405.962,741.884,400.269Z" transform="translate(-139.955 -103.568)" fill="url(#linear-gradient-8)"/>
    <g id="Group_17385" data-name="Group 17385" transform="translate(918.136 494.879)">
      <path id="Path_15029" data-name="Path 15029" d="M1343.894,790.414c4.342-1.347,6.887-6.437,11.379-7.037,5.689,4.791,9.881,13.624,18.565,12.427a3.581,3.581,0,0,0,2.245-1.946,30.346,30.346,0,0,0,1.551-2.866c-2.067-10.572-10.92-18.518-21.527-18.518a21.537,21.537,0,0,0-17.289,8.889c.2,1.479.452,2.952.734,4.41C1339.851,787.719,1340.3,791.313,1343.894,790.414Z" transform="translate(-1334.124 -772.474)" fill="url(#linear-gradient-9)"/>
      <path id="Path_15030" data-name="Path 15030" d="M1372.308,801.006a3.581,3.581,0,0,1-2.245,1.946c-8.684,1.2-12.876-7.635-18.565-12.427-4.492.6-7.037,5.689-11.379,7.037-3.594.9-4.042-2.695-4.342-4.641-.282-1.458-.531-2.931-.734-4.41a24.012,24.012,0,0,0-4.694,14.362c0,12.841,9.842,23.251,21.983,23.251s21.983-10.41,21.983-23.251a24.644,24.644,0,0,0-.456-4.733A30.318,30.318,0,0,1,1372.308,801.006Z" transform="translate(-1330.35 -779.622)" fill="url(#linear-gradient-10)"/>
    </g>
  </g>
</svg>
