<svg xmlns="http://www.w3.org/2000/svg" xmlns:xlink="http://www.w3.org/1999/xlink" width="706.822" height="489.513" viewBox="0 0 706.822 489.513">
  <defs>
    <clipPath id="clip-path">
      <path id="Path_14911" data-name="Path 14911" d="M946.008,228.751c-95.624-17.218-144.025-100.361-249.356-87.388-69.316,8.537-109.021,48.478-154.934,89.709-10.033,9.01-20.362,18.082-31.362,26.9-71.063,56.972-142.415,112.184-101,215.7,31.587,78.947,110.5,130.337,191.987,145.516,56.751,10.571,131.669,11.648,188.3,9.25,40.5-1.715,72.177-13.23,114.86-11.355,39.548,1.737,71.858,3.848,108.094-17.746,55.993-33.368,84.722-87.966,90.324-145.251C1112.61,355.083,1053.2,248.053,946.008,228.751Z" transform="translate(-397.131 -139.995)" fill="none"/>
    </clipPath>
    <linearGradient id="linear-gradient" y1="0.5" x2="1" y2="0.5" gradientUnits="objectBoundingBox">
      <stop offset="0" stop-color="#2a7195"/>
      <stop offset="1" stop-color="#060c39"/>
    </linearGradient>
    <linearGradient id="linear-gradient-2" x1="0.5" y1="0.559" x2="0.5" y2="1.417" xlink:href="#linear-gradient"/>
    <linearGradient id="linear-gradient-3" x1="0.79" y1="-0.367" x2="0.005" y2="1.914" gradientUnits="objectBoundingBox">
      <stop offset="0" stop-color="#ff9077"/>
      <stop offset="1" stop-color="#e9645a"/>
    </linearGradient>
    <linearGradient id="linear-gradient-4" x1="0.487" y1="0.494" x2="0.359" y2="1.008" xlink:href="#linear-gradient-3"/>
    <linearGradient id="linear-gradient-5" x1="0" y1="0.5" x2="1" y2="0.5" xlink:href="#linear-gradient-3"/>
    <linearGradient id="linear-gradient-8" x1="0.951" y1="2.162" x2="-0.467" y2="-2.268" gradientUnits="objectBoundingBox">
      <stop offset="0" stop-color="#fff"/>
      <stop offset="1" stop-color="#bbdbf9"/>
    </linearGradient>
    <linearGradient id="linear-gradient-9" x1="0" y1="0.5" x2="1" y2="0.5" xlink:href="#linear-gradient-8"/>
  </defs>
  <g id="Group_17371" data-name="Group 17371" transform="translate(-397.131 -139.995)">
    <g id="Group_17370" data-name="Group 17370" transform="translate(397.131 139.995)">
      <g id="Group_17369" data-name="Group 17369" clip-path="url(#clip-path)">
        <path id="Path_14907" data-name="Path 14907" d="M797.615,666.077C707.346,636.535,695.31,531.493,652.089,456.542a201.171,201.171,0,0,0-20.757-29.75c-7.819,7.023-15.869,14.092-24.442,20.965-55.385,44.4-110.993,87.433-78.712,168.113C552.8,677.4,614.3,717.45,677.806,729.28c44.229,8.238,102.618,9.078,146.756,7.209,31.566-1.337,56.252-10.311,89.518-8.849,30.822,1.353,56,3,84.245-13.831,43.638-26.006,66.029-68.558,70.395-113.2-29.122,10.588-57.963,22.148-87.281,34.288C922.9,659.513,859.984,686.32,797.615,666.077Z" transform="translate(-441.259 -244.142)" fill="url(#linear-gradient)"/>
        <path id="Path_14908" data-name="Path 14908" d="M1010.674,384.51c-74.526-13.42-112.248-78.218-194.339-68.108-54.023,6.654-84.967,37.782-120.75,69.916a201.16,201.16,0,0,1,20.757,29.75C759.563,491.019,771.6,596.061,861.869,625.6c62.368,20.243,125.284-6.565,183.822-31.184,29.319-12.14,58.159-23.7,87.281-34.288C1140.518,482.969,1094.213,399.553,1010.674,384.51Z" transform="translate(-505.512 -203.668)" fill="url(#linear-gradient-2)"/>
        <path id="Path_14909" data-name="Path 14909" d="M837.365,422.373c-2.761,11.767-7.135,23.093-11.849,34.224a20.486,20.486,0,0,0-1.9,6.221,13.515,13.515,0,0,0,2.246,8.053c5.141,8.321,15.354,11.734,24.8,14.259a417.36,417.36,0,0,0,68.3,12.6c9.8.927,19.764,1.439,29.4-.546s19.019-6.718,24.9-14.605c-7.564-5.88-9.387-16.409-10.265-25.95a352.972,352.972,0,0,1,.881-73.092c1.7-14.628,4.307-29.593.9-43.921a28.941,28.941,0,0,0-4.577-10.674c-2.455-3.3-5.865-5.746-9.219-8.133-6.2-4.413-12.491-8.876-19.633-11.5-6.285-2.308-13.012-3.109-19.683-3.677-11.229-.955-22.622-1.287-33.688.843a60.121,60.121,0,0,0-23.532,9.649c-6.452,4.591-6.99,10.211-8.327,17.793-3.307,18.758-3.164,37.877-4.449,56.826A196.371,196.371,0,0,1,837.365,422.373Z" transform="translate(-551.994 -199.875)" fill="#100052"/>
        <path id="Path_14910" data-name="Path 14910" d="M844.854,794.515c34.517,6.6,74.052,5.588,105.893-10.484,3.2-1.617,6.442-3.458,8.549-6.361,4.337-5.972,2.6-14.237.644-21.355-6.274-22.863-21.184-61.062-11.681-84.546,4.729-11.687,12.919-19.61,15-32.993,2.076-13.337.488-27.026-1.429-40.281-1.779-12.311-3.875-24.736-3.576-37.219.27-11.316,4.055-19.329-.832-29.937-6.064-13.159-28.306-12.072-38.766-21.42-3.077-2.749-26.456,2.044-31.261,2.312-9.745.543-19.5.929-29.263,1.1-12.953.228-28.715-6.4-41.092-.493-12.681,6.057-8.984,18.382-10.154,30.336a200.5,200.5,0,0,1-8.255,40.543c-2,6.377-4.339,12.7-5.322,19.317-1.666,11.225,2.079,23.791,4.638,34.612,3.223,13.624,4.262,25.205,2.318,39.242-2.4,17.356-5.053,34.654-7.122,51.988-.7,5.836-1.394,11.676-2.44,17.459C783.832,784.312,815.278,788.859,844.854,794.515Z" transform="translate(-539.706 -274.021)" fill="#feca84" stroke="#100052" stroke-linecap="round" stroke-linejoin="round" stroke-width="1"/>
      </g>
    </g>
    <path id="Path_14912" data-name="Path 14912" d="M1079.61,664.782c.646,7.333,1.1,14.79-.391,22-5.282,25.522-28.686,38.914-53.549,34.289-8.286-1.541-15.959-6.227-19.3-14.227-1.282-3.066-2.811-7.985-2.793-11.293.028-4.815,4.71-9.181,7.074-13.027,3.285-5.341,4.72-11.585,6.057-17.712,2.994-13.719,4.378-27.672,6.893-41.328a88.482,88.482,0,0,0-2.518-40.859c-1.1-3.683-2.9-7.1-4.1-10.694-1.132-3.382-1.1-7.326-1.326-10.916a115.45,115.45,0,0,1,.678-24.036c1.465-9.911,15.116-4.544,20.579-2.024a37.627,37.627,0,0,1,19.349,20.35c4.03,10.466,6.8,22.02,9.726,32.858A437.725,437.725,0,0,1,1079.61,664.782Z" transform="translate(-220.223 -142.07)" fill="#feca84" stroke="#100052" stroke-linecap="round" stroke-linejoin="round" stroke-width="1"/>
    <path id="Path_14913" data-name="Path 14913" d="M527.179,782.095c5.107-1.915,9.958-7.022,15.448-4.852,3.447,1.4,7.149,4.979,10.979,1.787a37.883,37.883,0,0,0,4.617-4.367,29.972,29.972,0,0,0,.226-3.679c0-15.852-12.434-28.7-27.772-28.7a27.124,27.124,0,0,0-17.786,6.66,6.03,6.03,0,0,1,1.392,2.129,36.8,36.8,0,0,1,2.3,8.937c.638,4.468-1.532,8.426-1.66,12.767C514.668,779.286,520.923,784.393,527.179,782.095Z" transform="translate(-42.037 -218.714)" fill="url(#linear-gradient-3)"/>
    <path id="Path_14914" data-name="Path 14914" d="M510.889,763.805a36.79,36.79,0,0,0-2.3-8.937,6.031,6.031,0,0,0-1.392-2.129,29.028,29.028,0,0,0-9.986,22.042c0,15.852,12.433,28.7,27.772,28.7,14.132,0,25.8-10.909,27.546-25.022a37.9,37.9,0,0,1-4.617,4.367c-3.83,3.192-7.533-.383-10.979-1.787-5.49-2.17-10.341,2.937-15.448,4.852-6.256,2.3-12.512-2.809-12.257-9.32C509.356,772.231,511.527,768.273,510.889,763.805Z" transform="translate(-36.343 -222.511)" fill="url(#linear-gradient-4)"/>
    <path id="Path_14915" data-name="Path 14915" d="M937.7,457.842c.5-3.751-1.622-7.3-3.7-10.462-9.5-14.42-19.021-20.635-36.348-21.128a16.716,16.716,0,0,0-7.5,1.04c-10.481,4.826-9.76,19.6-12.8,29.1-1.856,5.783-3.956,11.549-6.165,17.254-17.484,4.941-31.195,19.527-13.682,36.4,8.1,7.807,17.539,14.509,28.278,17.863s22.9,3.082,32.762-2.341c8.38-4.611,15.847-14.378,16.475-24.237.526-8.256-5.011-12.915-11.428-16.919a65.531,65.531,0,0,1,9.321-17.977C934.909,463.785,937.264,461.134,937.7,457.842Z" transform="translate(-164.227 -103.943)" fill="#b27344" stroke="#100052" stroke-linecap="round" stroke-linejoin="round" stroke-width="1"/>
    <path id="Path_14916" data-name="Path 14916" d="M966.657,419.977c-8.583,16.572-23.2,38.976-43.224,26.155-17.293-11.071-28.8-21.751-33.493-42.623a60.991,60.991,0,0,1,.135-27.321,53.931,53.931,0,0,1,6.712-15.806c9.24-15.58,23.384-29.223,41.021-33.366,16.317-3.833,29.265,2.933,35.142,18.513C982.519,370.9,978.848,396.438,966.657,419.977Z" transform="translate(-178.419 -67.533)" fill="#b27344" stroke="#100052" stroke-linecap="round" stroke-linejoin="round" stroke-width="1"/>
    <path id="Path_14917" data-name="Path 14917" d="M912.229,350.165a69.068,69.068,0,0,1-12.192,4.5c-3.657.967-7.4,1.638-10.987,2.838a14.04,14.04,0,0,0-5.636,3.118c-4.751,4.777-.574,15.961-7.733,18.322s-9.2-5.837-11.156-10.9a90.122,90.122,0,0,1-4.557-48.2c1.406-7.78,3.281-14.352,8.493-20.318,5.162-5.91,12.233-9.83,19.328-12.954,12.094-5.327,25.366-8.869,38.485-7.278,12.592,1.527,24.238,7.7,34.228,15.516a49,49,0,0,1,10.564,10.645c6.517,9.55,7.27,21.853,6.651,33.4-.511,9.526-1.918,19.457-6.75,27.85-1.981,3.44-4.048,6.914-6.688,2.172-1.464-2.631-1.862-5.781-2.607-8.657-1.323-5.113-2.165-10.334-3.34-15.481a54.092,54.092,0,0,0-5.7-15.449,28.846,28.846,0,0,0-5.076-6.484c-1.448-1.357-5.526-3.173-4.232-5.787-.495,5.778-4.636,11.448-8.294,15.71A70.052,70.052,0,0,1,912.229,350.165Z" transform="translate(-167.559 -50.444)" fill="#100052"/>
    <path id="Path_14918" data-name="Path 14918" d="M894.227,400.309c-2.753-5.76-10.647-10.755-16.3-5.569-3.863,3.544-4.378,10.493-3.547,15.33,1.174,6.837,6.636,12.052,13.181,7.159" transform="translate(-173.183 -91.719)" fill="#b27344" stroke="#100052" stroke-linecap="round" stroke-linejoin="round" stroke-width="1"/>
    <path id="Path_14919" data-name="Path 14919" d="M719.6,679.72c-1.372-9.727.546-20,2.014-29.992A578.605,578.605,0,0,1,734.6,586.253c4.429-16.8,8.191-34.446,17.133-49.562,4.314-7.293,9.867-14.143,17.449-18.215,5.785-3.107,21.476-7.931,26.332-1.356,7.439,10.073,6.681,31.386,8.728,43.444,2.847,16.781,5.451,33.666,5.306,50.736-.137,16.018-7.4,30.835-13,45.49-5.257,13.766-11.094,27.519-21.441,38.384a32.378,32.378,0,0,1-8.89,6.9c-12.823,6.346-31.238,6.067-40.157-6.1A35.141,35.141,0,0,1,719.6,679.72Z" transform="translate(-116.929 -135.757)" fill="#feca84"/>
    <path id="Path_14920" data-name="Path 14920" d="M812.524,603.307A111.375,111.375,0,0,0,797.071,641.8c-1.984,10.1-1.991,20.219,2.118,29.8,1.87,4.36,5.984,7.891,7.719,11.971,2.3,5.407,1.713,12.462,1.38,18.27" transform="translate(-144.763 -168.247)" fill="none" stroke="#100052" stroke-linecap="round" stroke-linejoin="round" stroke-width="1"/>
    <path id="Path_14921" data-name="Path 14921" d="M1062.114,753.883a42.46,42.46,0,0,1,7.95,11.662c.714,1.538,1.341,3.37.547,4.868-.718,1.354-2.331,1.919-3.8,2.366-12.735,3.889-29.469,13.33-42.34,6.9-8.634-5.656-8.319-16.16-3.837-24.356,5-9.141,17.058-12.987,27.1-10.23A31.986,31.986,0,0,1,1062.114,753.883Z" transform="translate(-225.297 -219.415)" fill="#b27344" stroke="#100052" stroke-linecap="round" stroke-linejoin="round" stroke-width="1"/>
    <path id="Path_14922" data-name="Path 14922" d="M729.656,664.426a148.3,148.3,0,0,1,26.8,13.122c2.139,1.33,3.21,3.248,4.922,4.907,1.786,1.731,4.128,2.972,5.979,4.676a33.3,33.3,0,0,1,8.134,11.725c2.684,6.335,5.069,13.185,9.262,18.724,3.5,4.619,6.916,8.5,7.649,14.592,1.546,12.87-8.593,25.711-16.84,34.815a4.811,4.811,0,0,1-6.859-.148c-5.376-5.641-10.366-11.188-16.855-15.655a371.26,371.26,0,0,1-38.819-30.732c-7.007-6.352-13.9-13.142-18.157-21.586a19.124,19.124,0,0,1-2.332-7.711,23.678,23.678,0,0,1,1.537-8.056c3.035-9.517,6.649-18.836,10.388-28.1,5.947-14.724,12.868-30.111,16.609-45.534a174.627,174.627,0,0,1,8.012-24.78c3.151-7.726,5.649-16.179,9.461-23.54" transform="translate(-107.271 -152.937)" fill="#feca84" stroke="#100052" stroke-linecap="round" stroke-linejoin="round" stroke-width="1"/>
    <path id="Path_14923" data-name="Path 14923" d="M1005.995,763.306a80.686,80.686,0,0,1-19.086,12.469,11.674,11.674,0,0,0-3.876,2.426,3.64,3.64,0,0,0-.7,4.226c1.027,1.614,3.337,1.627,5.241,1.443q15.054-1.448,30.015-3.7a7.619,7.619,0,0,0,2.437-.651c2.458-1.288,2.781-4.633,2.625-7.4-.195-3.452-1.881-3.838-3.2-6.454-1.108-2.2.562-3.781.971-5.925a3.181,3.181,0,0,0-3.177-3.6,8.977,8.977,0,0,0-6.338-10.8,1.876,1.876,0,0,1-1.94-1.8,8.9,8.9,0,0,0-5.96-6.159c-2.039-.6-4.211-1.255-6.206-1.809-3.243-.9-5.381,3.652-7.912,4.982a12.088,12.088,0,0,0-6.715,8.786" transform="translate(-212.36 -216.235)" fill="#b27344" stroke="#100052" stroke-linecap="round" stroke-linejoin="round" stroke-width="1"/>
    <path id="Path_14924" data-name="Path 14924" d="M975.149,749.287a2.979,2.979,0,0,0-2.9-1.23,7.766,7.766,0,0,0-3.062,1.248,45.03,45.03,0,0,0-11.526,9.974,4.766,4.766,0,0,0-1.025,1.716c-.411,1.53.663,3.035,1.737,4.2a40.243,40.243,0,0,0,4.582,4.251c.919.729.926.339,2.1.367" transform="translate(-203.145 -220.803)" fill="#b27344" stroke="#100052" stroke-linecap="round" stroke-linejoin="round" stroke-width="1"/>
    <path id="Path_14925" data-name="Path 14925" d="M960.386,814.795l-.388-.308a2.369,2.369,0,0,0-.439-.3c-.215-.1-.755-.3-.869.153a5.533,5.533,0,0,0-.069.918l-.1,1.44,1.869-1.937-1.69-.574a2.511,2.511,0,0,0,.5.052,1.088,1.088,0,0,1,.667.309" transform="translate(-203.862 -244.778)" fill="#100052" stroke="#100052" stroke-linecap="round" stroke-linejoin="round" stroke-width="1"/>
    <path id="Path_14926" data-name="Path 14926" d="M958.739,814.2l.033-.006,0,.045-.038-.013c0,.012-.019.009-.017,0A.035.035,0,0,1,958.739,814.2Z" transform="translate(-203.932 -244.829)" fill="#fff" stroke="#100052" stroke-linecap="round" stroke-linejoin="round" stroke-width="1"/>
    <path id="Path_14927" data-name="Path 14927" d="M993.134,706.921l-27.7,62.151h0a.924.924,0,0,0-.417-.753,1.171,1.171,0,0,0-.981-.026,1.765,1.765,0,0,0-1.008-1.308,1.988,1.988,0,0,1-2.777-.622,3.172,3.172,0,0,0-.553-.078l27.619-61.961c.987-2.214,3.089-3.429,4.7-2.712S994.121,704.708,993.134,706.921Z" transform="translate(-204.288 -203.871)" fill="url(#linear-gradient-5)"/>
    <path id="Path_14928" data-name="Path 14928" d="M965.106,806.068h0q-2.148,2.228-4.3,4.455a1.652,1.652,0,0,1-.224.232c-.136.082-.066.063-.185-.011a5.746,5.746,0,0,0-.474-.365,1.521,1.521,0,0,0-.28-.11,1.674,1.674,0,0,0-.718-.055.951.951,0,0,0-.122.018l.482-6.761.083-.19a3.172,3.172,0,0,1,.553.078,1.988,1.988,0,0,0,2.777.622,1.764,1.764,0,0,1,1.008,1.308,1.172,1.172,0,0,1,.981.026A.924.924,0,0,1,965.106,806.068Z" transform="translate(-203.965 -240.865)" fill="#fff" stroke="#100052" stroke-linecap="round" stroke-linejoin="round" stroke-width="1"/>
    <path id="Path_14929" data-name="Path 14929" d="M959.62,803.276l-.127-.008" transform="translate(-204.215 -240.86)" fill="none" stroke="#100052" stroke-linecap="round" stroke-linejoin="round" stroke-width="1"/>
    <path id="Path_14930" data-name="Path 14930" d="M968.7,807.657h0a1.11,1.11,0,0,1,0,.2" transform="translate(-207.556 -242.454)" fill="none" stroke="#100052" stroke-linecap="round" stroke-linejoin="round" stroke-width="1"/>
    <path id="Path_14931" data-name="Path 14931" d="M988.693,748.155c-3.976,7.177-10.243,12.767-16.494,18.082-1.836,1.561-3.877,3.743-3.112,6.028a4.065,4.065,0,0,0,3.733,2.466,10.448,10.448,0,0,0,4.574-1.139c6.606-2.875,13.624-7.4,17.853-13.379" transform="translate(-207.639 -220.847)" fill="#b27344" stroke="#100052" stroke-linecap="round" stroke-linejoin="round" stroke-width="1"/>
    <path id="Path_14932" data-name="Path 14932" d="M997.906,765.064A106.31,106.31,0,0,1,982.985,777a17.74,17.74,0,0,0-4.719,3.9c-1.223,1.649-1.761,3.989-.738,5.768a5.23,5.23,0,0,0,4.714,2.305,12.967,12.967,0,0,0,5.23-1.6,54.294,54.294,0,0,0,17.621-13.771" transform="translate(-210.569 -226.987)" fill="#b27344" stroke="#100052" stroke-linecap="round" stroke-linejoin="round" stroke-width="1"/>
    <path id="Path_14933" data-name="Path 14933" d="M861.207,789.228c-43.613-26.39-131.9-63.185-131.9-63.185l2.026,21.949s113.687,56.919,129.128,64.8a117.134,117.134,0,0,1,10.683-19.483C867.9,793.417,864,790.419,861.207,789.228Z" transform="translate(-120.627 -212.817)" fill="url(#linear-gradient)"/>
    <path id="Path_14934" data-name="Path 14934" d="M1048.517,771.052c-9.91.865-20.138,3.594-29.835,6.036A193.139,193.139,0,0,0,980.6,791.07c-4.653,2.289-9.141,4.819-13.6,7.4-6.361,3.675-12.665,7.445-19.3,10.743a4.207,4.207,0,0,1-1.765.415,117.145,117.145,0,0,0-10.683,19.483l1.8.918s35.986-34.794,106.808-18.943c1.118.25,7.131-6.766,7.961-7.553l16.08-15.254c2.452-2.326,11.942-8.641,12.64-11.992C1081.519,771.552,1053.231,770.64,1048.517,771.052Z" transform="translate(-195.411 -229.129)" fill="url(#linear-gradient)"/>
    <path id="Path_14935" data-name="Path 14935" d="M1090.783,773.192l-4.976-8.892s-56.275-8.505-133.223,37.887c0,0-.279-.208-.792-.587-1.635,2.438-3.218,4.91-4.715,7.436C952.219,806.64,1044.276,764.174,1090.783,773.192Z" transform="translate(-199.707 -226.487)" fill="#bbdbf9"/>
    <path id="Path_14936" data-name="Path 14936" d="M747.2,716.086l-7.274,10.825,131.69,64.95.236-.11c1.5-2.526,3.081-5,4.715-7.436C868.127,778.079,793.038,723.376,747.2,716.086Z" transform="translate(-124.482 -209.201)" fill="#fff"/>
    <path id="Path_14937" data-name="Path 14937" d="M940.836,861.465c4.758.876,9.083-1.033,12.494-4.231a141.271,141.271,0,0,0,10.432-10.243c1.765-2.035,5.689-5.631,6.083-8.384.571-3.994-3.545-2.7-5.664-1.528a51.652,51.652,0,0,0-7.524,5.084" transform="translate(-197.44 -252.712)" fill="#b27344" stroke="#100052" stroke-linecap="round" stroke-linejoin="round" stroke-width="1"/>
    <path id="Path_14938" data-name="Path 14938" d="M888.148,864.024c3.223-.317,6.446.376,9.659.779a63.839,63.839,0,0,0,18.579-.6c4.781-.824,7.277-7.74,9.516-11.613,1.262-2.184,4.96-6.73,4.456-9.374-1.135-5.955-11.733,4.536-13.324,5.837-1.048.858-1.962,2.347-3.144,2.982-2.969,1.593-10.348-1.892-13.3-2.736q-9.007-2.577-18.087-4.891c-4.363-1.112-8.765-1.754-13.114-.588-1.435.385-1.816.034-3.179.627" transform="translate(-170.341 -254.707)" fill="#b27344" stroke="#100052" stroke-linecap="round" stroke-linejoin="round" stroke-width="1"/>
    <path id="Path_14939" data-name="Path 14939" d="M874.242,860.879c-2.451-.115-5.083-.618-7.489-.529-2.889.108-5.795,1.632-8.642,2.13-4.535.794-9.18-.057-13.7-.956-5.422-1.078-10.836-2.227-16.154-3.746-3.845-1.1-9.9-2.019-11.225-6.472a14.941,14.941,0,0,1-.208-5.694,26.034,26.034,0,0,1,1.14-6.227c1.229-3.475,4.58-7.914,8.5-7.628a95.3,95.3,0,0,1,15.367,2.315,20.938,20.938,0,0,0,6.208.294c3.738-.573,7.366-1.478,11.127-1.917,3.645-.425,6.314-1.853,10.146-.674a4.065,4.065,0,0,1,2.235,1.378,3.138,3.138,0,0,1,.474,2.027,6.8,6.8,0,0,1-3.015,4.674c-4.441,3.3-10.22,3.017-14.542,6.7" transform="translate(-152.347 -251.047)" fill="#b27344" stroke="#100052" stroke-linecap="round" stroke-linejoin="round" stroke-width="1"/>
    <path id="Path_14940" data-name="Path 14940" d="M1026.985,606.429a234.6,234.6,0,0,1,8.231,40.449c1.768,15.63-1.065,31.292-12.646,42.749" transform="translate(-227.122 -169.38)" fill="#feca84" stroke="#100052" stroke-linecap="round" stroke-linejoin="round" stroke-width="1"/>
    <path id="Path_14941" data-name="Path 14941" d="M1039.867,719.455l.276.45-1.239-6.181a1.293,1.293,0,0,1,.03-.876" transform="translate(-233.031 -208.025)" fill="none" stroke="#100052" stroke-linecap="round" stroke-linejoin="round" stroke-width="1"/>
    <path id="Path_14942" data-name="Path 14942" d="M811.584,854.252c6.193,2.137,10.025-1.178,13.149-6.181a100.342,100.342,0,0,0,6.435-12.065c2.768-6.169,6.974-19.317,1.521-25.2-4.149-4.475-9.35-6.566-14.911-8.917" transform="translate(-150.504 -240.36)" fill="#feca84" stroke="#100052" stroke-linecap="round" stroke-linejoin="round" stroke-width="1"/>
    <path id="Path_14943" data-name="Path 14943" d="M1031.159,533.532a9.34,9.34,0,0,1,4.325,4.046c3.663,8.636-3.214,17.384-5.914,25.1-3.3,9.437-4.128,21.307-.961,30.844.93,2.8,2.232,5.855,1.078,8.571-1.3,3.052-5.4,4.141-8.5,2.973s-5.292-4-6.778-6.961c-7.054-14.065-11.053-34.878-9.542-50.519.436-4.519,1.257-12.867,5.345-15.8S1024.961,530.157,1031.159,533.532Z" transform="translate(-220.578 -141.686)" fill="#feca84"/>
    <path id="Path_14944" data-name="Path 14944" d="M1030.074,743.644c1.721-10.275,9.781-16.185,20.164-15.96,5.962.128,11.715,2.093,17.314,4.145" transform="translate(-229.846 -213.41)" fill="none" stroke="#100052" stroke-linecap="round" stroke-linejoin="round" stroke-width="1"/>
    <path id="Path_14945" data-name="Path 14945" d="M1036.632,728.544c.716-13.212,12.307-21.27,25.083-16.829" transform="translate(-232.227 -207.168)" fill="none" stroke="#100052" stroke-linecap="round" stroke-linejoin="round" stroke-width="1"/>
    <path id="Path_14946" data-name="Path 14946" d="M1214.847,223.053c-1.473-6.891-3.636-12.727-6.3-16.153-6.388-8.219-15.766-11.684-25.88-12.452-15.3-1.162-41.2,2.13-52.435,14.518-7.049,7.775-1.684,11.961-3.39,20.141-.662,3.173-1.312,6.211-1.846,9.113C1150.4,221.651,1184.243,215.366,1214.847,223.053Z" transform="translate(-264.317 -19.695)" fill="url(#linear-gradient-8)"/>
    <path id="Path_14947" data-name="Path 14947" d="M1124.281,252.8c-3,16.3-2.293,28.214,21.189,34.674,9.846,2.709,16.85-2.015,26.1-1.031a23.6,23.6,0,0,1,2.756.466c10.856,2.481,19.833,11.724,31.53,4.376,11.088-6.965,12.38-34.447,8.275-53.652C1183.526,229.946,1149.687,236.231,1124.281,252.8Z" transform="translate(-263.599 -34.275)" fill="url(#linear-gradient-9)"/>
    <path id="Path_14948" data-name="Path 14948" d="M1087.639,414.078c-2.093-1.352-3.372-3.826-3.007-7.763.711-7.666,14.591-9.431,19.391-4.49C1111.924,409.96,1094.9,418.766,1087.639,414.078Z" transform="translate(-249.636 -94.074)" fill="url(#linear-gradient-9)"/>
    <path id="Path_14949" data-name="Path 14949" d="M1110.227,362.256c-4.262-2.753-6.869-7.793-6.125-15.81,1.449-15.612,29.715-19.206,39.49-9.145C1159.683,353.869,1125,371.8,1110.227,362.256Z" transform="translate(-256.683 -69.6)" fill="url(#linear-gradient-9)"/>
    <path id="Path_14950" data-name="Path 14950" d="M925.106,391.014c7.649-4.769,17.233-3.214,23.715-1.406" transform="translate(-191.728 -90.004)" fill="none" stroke="#100052" stroke-linecap="round" stroke-linejoin="round" stroke-width="6.919"/>
    <path id="Path_14951" data-name="Path 14951" d="M1002.456,393.956c8.5-3.009,17.521.576,23.46,3.738" transform="translate(-219.817 -91.811)" fill="none" stroke="#100052" stroke-linecap="round" stroke-linejoin="round" stroke-width="6.919"/>
    <ellipse id="Ellipse_337" data-name="Ellipse 337" cx="2.845" cy="4.462" rx="2.845" ry="4.462" transform="translate(741.819 315.555) rotate(-84.561)" fill="#100052"/>
    <ellipse id="Ellipse_338" data-name="Ellipse 338" cx="2.845" cy="4.462" rx="2.845" ry="4.462" transform="translate(782.595 318.432) rotate(-84.561)" fill="#100052"/>
    <path id="Path_14952" data-name="Path 14952" d="M969.887,452.466a9.487,9.487,0,0,0,2.371.156,4.666,4.666,0,0,0,3.4-1.443c.3-.364.53-.817.957-1.012a5.32,5.32,0,0,1-1.408,4.148c-2.595,2.741-7.288,1.67-9.645-.856-.432-.462-3.053-4.034-1.437-4.242.321-.041,1.286,1.154,1.581,1.379a10.021,10.021,0,0,0,4.178,1.869Z" transform="translate(-205.709 -112.29)" fill="#e2a383" opacity="0.44" style="mix-blend-mode: multiply;isolation: isolate"/>
    <path id="Path_14953" data-name="Path 14953" d="M950.433,475.178c5.284-.317,16.648-.665,24.264,1.491a.28.28,0,0,1-.083.553c-4.6-.164-16.23-.641-24.18-1.484A.28.28,0,0,1,950.433,475.178Z" transform="translate(-200.826 -121.632)" fill="#100052"/>
    <path id="Path_14954" data-name="Path 14954" d="M964.6,485.125a13.242,13.242,0,0,0,6.361.5" transform="translate(-206.072 -125.33)" fill="none" stroke="#e2a383" stroke-linecap="round" stroke-linejoin="round" stroke-width="2.35" opacity="0.44" style="mix-blend-mode: multiply;isolation: isolate"/>
  </g>
</svg>
