<svg xmlns="http://www.w3.org/2000/svg" xmlns:xlink="http://www.w3.org/1999/xlink" width="428.973" height="534.197" viewBox="0 0 428.973 534.197">
  <defs>
    <linearGradient id="linear-gradient" x1="0.713" y1="-0.573" x2="0.336" y2="1.476" gradientUnits="objectBoundingBox">
      <stop offset="0" stop-color="#ff9077"/>
      <stop offset="1" stop-color="#e9645a"/>
    </linearGradient>
    <linearGradient id="linear-gradient-2" x1="0.516" y1="0.293" x2="0.373" y2="1.104" xlink:href="#linear-gradient"/>
    <clipPath id="clip-path">
      <path id="Path_15037" data-name="Path 15037" d="M1369.138-769.781a54.886,54.886,0,0,0-7.221-9.312c-13.161-13.44-32.421-19.884-50.572-22.86a195.1,195.1,0,0,0-75.307,2.537c-25.24,5.838-41.185,16.879-61.338,32.311-27.195,20.823-52.213,131.4-76.526,198.1-17.032,46.717-49.251,97.014-21.3,141.63,30.362,48.473,87.126,63.911,139.379,66.51,56.591,2.814,107.89-9.433,114.616-11.124,32.552-8.186,84.283-21.988,123.02-70.615,41.8-52.47,41.291-111.367,40.9-127.923-.328-13.958-2.439-103.571-53.732-131.723-13.569-7.447-29.948-10.247-48.166-28.233C1381.241-741.984,1377.09-757.124,1369.138-769.781Z" fill="none"/>
    </clipPath>
    <linearGradient id="linear-gradient-3" x1="-0.672" y1="0.586" x2="0.153" y2="0.366" gradientUnits="objectBoundingBox">
      <stop offset="0" stop-color="#4fa5ad"/>
      <stop offset="1" stop-color="#99cbcf"/>
    </linearGradient>
    <linearGradient id="linear-gradient-4" x1="0.129" y1="-0.06" x2="0.083" y2="0.594" xlink:href="#linear-gradient-3"/>
  </defs>
  <g id="Group_17398" data-name="Group 17398" transform="translate(-1065.891 894.647)">
    <g id="Group_17389" data-name="Group 17389">
      <path id="Path_15031" data-name="Path 15031" d="M1097.8-861.816c7.946-2.466,12.6-11.781,20.823-12.877,10.411,8.767,18.082,24.932,33.973,22.74,1.644-.274,3.288-1.918,4.109-3.562a55.513,55.513,0,0,0,2.839-5.244c-3.782-19.346-19.982-33.888-39.393-33.888a39.413,39.413,0,0,0-31.639,16.268c.371,2.707.827,5.4,1.343,8.069C1090.4-866.748,1091.226-860.172,1097.8-861.816Z" fill="url(#linear-gradient)"/>
      <path id="Path_15032" data-name="Path 15032" d="M1156.706-855.515c-.821,1.644-2.465,3.288-4.109,3.562-15.891,2.192-23.562-13.973-33.973-22.74-8.22,1.1-12.877,10.411-20.823,12.877-6.575,1.644-7.4-4.932-7.945-8.494-.516-2.667-.972-5.362-1.343-8.069a43.937,43.937,0,0,0-8.589,26.281c0,23.5,18.01,42.549,40.228,42.549s40.228-19.05,40.228-42.549a45.1,45.1,0,0,0-.835-8.661A55.513,55.513,0,0,1,1156.706-855.515Z" fill="url(#linear-gradient-2)"/>
    </g>
    <g id="Group_17397" data-name="Group 17397">
      <g id="Group_17392" data-name="Group 17392">
        <g id="Group_17391" data-name="Group 17391" clip-path="url(#clip-path)">
          <g id="Group_17390" data-name="Group 17390">
            <path id="Path_15033" data-name="Path 15033" d="M1133.52-493.315c49.162-75.893,107.82-172.322,18.389-245.481a397.352,397.352,0,0,0-40.517-29.009c-17.283,44.437,22.744,73.809,2.719,129.076-11.3,31.19-26.912,29.725-42.726,61.106-22.646,44.942-21.615,109.441,9.37,154.31,33.663,48.746,96,64.646,153.291,67.662a966.356,966.356,0,0,1-87.165-63.7C1112.153-447.106,1120.007-471.334,1133.52-493.315Z" fill="url(#linear-gradient-3)"/>
            <path id="Path_15034" data-name="Path 15034" d="M1493.849-435.553c45.4-52.172,44.37-111.112,43.811-127.682-.471-13.97-3.5-103.659-59.94-132.237-14.931-7.56-32.9-10.492-53.014-28.635-17.024-15.359-23.489-30.71-27.814-38.667-25.19-46.342-112.169-88.99-188.979-72.222-7.877,1.72-76.918,17.707-96.367,66.763-.057.144-.1.284-.154.428a397.352,397.352,0,0,1,40.517,29.009c89.431,73.159,30.773,169.588-18.389,245.481-13.513,21.981-21.367,46.209,13.361,73.964a966.356,966.356,0,0,0,87.165,63.7c62.047,3.267,118.175-8.58,125.533-10.219C1395.192-373.8,1451.779-387.2,1493.849-435.553Z" fill="url(#linear-gradient-4)"/>
          </g>
          <path id="Path_15035" data-name="Path 15035" d="M1220.425-805.259c-11.61,14.723-15.507,33.687-16.47,52.055s.674,36.844-1.364,55.132c-2.465,22.128-2.538,53.08-15.09,71.873,21.173-2.215,34.565-7.031,55.825-5.774,14.453.855,28.953.175,43.417-.505,25.4-1.195,51.273-2.477,75.121-10.875,2.549-.9,5.234-2,6.679-4.189a11.07,11.07,0,0,0,1.378-5.876c.231-7.614-17.416-132.108-22.4-142.163-6.133-12.364-20.133-23.9-32.828-30.345-15.663-7.953-34.86-8.028-51.682-4.355-7.9,1.725-15.784,3.828-22.964,7.4C1231.5-818.629,1226.079-812.428,1220.425-805.259Z" fill="#100052"/>
          <path id="Path_15036" data-name="Path 15036" d="M1263.834-328.13a188.522,188.522,0,0,0,90.68-10.85c20.227-7.81,41.252-19.991,37.062-44.2a424.353,424.353,0,0,0-12.207-51.311c-4.535-14.886-11.672-28.475-11.9-44.067-.473-32.479,1.363-65.252,10.238-96.651,5.4-19.1,5.359-46.043-4.417-64.037-7.97-14.669-33.46-11.732-46.2-21.685-3.746-2.928-30.261,4.357-35.766,5.029-11.163,1.364-20.158-7.176-30.888-3.8-14.8,4.652-41.852,3.979-55.633,11.714-14.12,7.926-3.255,19.942-3.693,33.774a231.026,231.026,0,0,1-6.416,47.24c-1.82,7.484-4.025,14.928-4.653,22.613-1.064,13.031,4.194,27.2,7.959,39.442,4.739,15.418,6.811,28.655,5.642,44.941a348.694,348.694,0,0,1-14.422,77.2c-2.691,8.771-5.54,18.99-.3,26.521,2.427,3.49,6.232,5.734,9.981,7.739A186.415,186.415,0,0,0,1263.834-328.13Z" fill="#feca84"/>
        </g>
      </g>
      <g id="Group_17394" data-name="Group 17394">
        <path id="Path_15038" data-name="Path 15038" d="M1350.853-639.656c5.867,15.362-14.093,29.359-25.76,33.275a89.513,89.513,0,0,1-45.011,2.558,85.971,85.971,0,0,1-50.421-31.416c-2.711-3.514-1.818-11.016.559-14.654a7.98,7.98,0,0,1,2.827-2.465c5.507-3.172,11.85-3.275,17.918-4.308,8.081-1.378,14.914-8.2,23.212-10.5q1.6-.442,3.207-.818a77.873,77.873,0,0,1,27.751-1.413c15.859,2.069,29.275,17.3,42.8,26.635A7.048,7.048,0,0,1,1350.853-639.656Z" fill="#b27344" stroke="#100052" stroke-linecap="round" stroke-linejoin="round" stroke-width="0.846"/>
        <path id="Path_15039" data-name="Path 15039" d="M1259.609-646.892c1.686-11.834,3.221-23.978,3.952-35.965.7-11.465-4.315-27.76,6.015-36.131,2.28-1.848,5.214-2.652,8.078-3.3,19.488-4.381,31.885-.151,46.6,13.244,3.224,2.936,6.6,6.3,7.114,10.627.448,3.8-1.427,7.431-2.909,10.959-6.135,14.608-6.81,32.655-4.223,48.093" fill="#b27344" stroke="#100052" stroke-linecap="round" stroke-linejoin="round" stroke-width="0.846"/>
        <g id="Group_17393" data-name="Group 17393">
          <path id="Path_15040" data-name="Path 15040" d="M1357.433-723.207c.732,21.491-1.3,52.245-28.657,50.669-23.619-1.361-41.209-5.592-57.7-23.912a70.273,70.273,0,0,1-15.285-27.52c-1.939-6.334-2.333-13.044-2.179-19.666.488-20.865,7-42.553,22.375-56.669,14.227-13.06,31.053-13.571,45.749-1.238C1345.665-781.462,1356.394-753.733,1357.433-723.207Z" fill="#b27344" stroke="#100052" stroke-linecap="round" stroke-linejoin="round" stroke-width="0.846"/>
          <path id="Path_15041" data-name="Path 15041" d="M1287.027-750.957l-.347.163c-2.969,1.386-5.572,3.6-8.465,5.235-3.67,2.067-7.576,3.76-10.949,6.283a20.036,20.036,0,0,0-7.619,10.608c-1.774,6.72,2.567,12.865,4.851,18.931,3.658,9.712-8.7,11.948-15.381,9.43-28.655-10.8-48.295-44.63-41.9-74.763,3.757-17.711,13.187-34.832,27.744-45.6,10.808-7.993,25.186-12.22,38.357-14.954,14.1-2.928,27.648-1.384,41.252,3.537a50.584,50.584,0,0,1,6.7,2.881c4.226,2.26,7.9,5.411,11.533,8.536,6.124,5.265,9.651,11.694,12.532,19.167q1.894,4.913,3.492,9.933c1.2,3.755,2.277,7.644,2.026,11.577-.174,2.714-1.4,7.1-3.711,8.8-2.99,2.2-6.6-3.53-8.375-5.733-4.424-5.5-8.931-10.93-13.575-16.244q-3.481-3.984-7.07-7.873c-1.621-1.753-3.847-5.466-6.621-5.223-3.235.283-1.9,5.7-1.951,7.79a78.472,78.472,0,0,1-1.03,10.916,77.554,77.554,0,0,1-6.562,20.865,37.555,37.555,0,0,1-6.9,10.4A27,27,0,0,1,1287.027-750.957Z" fill="#100052"/>
          <path id="Path_15042" data-name="Path 15042" d="M1265.185-729.333c-6.016-4.232-16.766-4.795-19.519,3.607-1.881,5.74,1.524,13.011,5.089,17.4,5.039,6.205,13.469,8.361,17.281-.248" fill="#b27344" stroke="#100052" stroke-linecap="round" stroke-linejoin="round" stroke-width="0.846"/>
        </g>
      </g>
      <g id="Group_17395" data-name="Group 17395">
        <path id="Path_15043" data-name="Path 15043" d="M1346.483-632c-12.654-12.306-17.02-30.6-21.22-45.823-.471-2.2-1.627-6.239-3.847-5.465-7.728,2.7-4.287,14.351-2.837,20.749,2.738,11.705,4.448,21.582,10.3,32.6" fill="#b27344" stroke="#100052" stroke-linecap="round" stroke-linejoin="round" stroke-width="0.846"/>
        <path id="Path_15044" data-name="Path 15044" d="M1337.716-578.734l13.36-35.482c.832-2.21,1.678-4.558,1.244-6.879a13.041,13.041,0,0,0-2.042-4.4l-6-9.566c-3.376-5.386-7.459-11.27-13.715-12.4-5.439-.979-10.982,2.189-14.263,6.635s-4.7,9.973-5.754,15.4c-2.708,13.967-2.218,34.583-.929,48.751" fill="#b27344" stroke="#100052" stroke-linecap="round" stroke-linejoin="round" stroke-width="0.846"/>
        <path id="Path_15045" data-name="Path 15045" d="M1337.95-642.946c-4.731-3.458-8.676-8.015-14.266-10.187-4.369-.815-9.365.758-13.907.429-5.75.429-11.694-.472-17.354.406-5.258,3.048,6.263,9.648,9.21,9.648,3.776.3,7.892-1.912,11.167-.01" fill="#b27344" stroke="#100052" stroke-linecap="round" stroke-linejoin="round" stroke-width="0.846"/>
        <path id="Path_15046" data-name="Path 15046" d="M1332.24-642.851c-3.529-2.751-10.846-1.294-18.37-1.437-14.713-.279-30.309,1.053-18.349,8.419,2.537,1.563,15.454,3.283,25.475,1.844" fill="#b27344" stroke="#100052" stroke-linecap="round" stroke-linejoin="round" stroke-width="0.846"/>
        <path id="Path_15047" data-name="Path 15047" d="M1331.7-633.8c-7.462-3.88-14.5-.909-26.538.96-3.356.521,2.076,8.319,10.873,7.374,5.51-.592,11.728-2.477,14.653,1.307,0,0-8.886,9.518-7.988,25.827" fill="#b27344" stroke="#100052" stroke-linecap="round" stroke-linejoin="round" stroke-width="0.846"/>
      </g>
      <g id="Group_17396" data-name="Group 17396">
        <path id="Path_15048" data-name="Path 15048" d="M1319.858-430.359c15.014-6.539,28-23.007,46.085-20.622,2.776.367,5.3,1.749,7.748,3.106,4.262,2.363,9.065,5.55,9.286,10.418.146,3.2-1.829,6.1-4.009,8.436-9.055,9.726-20.08,18.748-33.01,22.605-11.946,3.564-27.273,4.023-37.224-4.482" fill="#b27344" stroke="#100052" stroke-linecap="round" stroke-linejoin="round" stroke-width="0.846"/>
        <path id="Path_15049" data-name="Path 15049" d="M1367.6-450.178a28.665,28.665,0,0,1,17.291,7.134,22.984,22.984,0,0,1,7.5,13.791,23.317,23.317,0,0,1-12.605,23.485,4.781,4.781,0,0,1-1.945.585c-2.068.043-3.456-2.36-3.255-4.419s1.442-3.84,2.44-5.652c2.648-4.8,5.265-14.718-2.676-16.21" fill="#b27344" stroke="#100052" stroke-linecap="round" stroke-linejoin="round" stroke-width="0.846"/>
        <path id="Path_15050" data-name="Path 15050" d="M1379.308-441.389a13.486,13.486,0,0,1,5.785,9.917,21.131,21.131,0,0,1-1.748,9.208,50.559,50.559,0,0,1-8.869,14.784c-1.478,1.712-3.175,3.388-5.347,4.017s-4.908-.164-5.77-2.255a5.651,5.651,0,0,1,.034-3.685c1.011-3.5,3.436-6.408,4.866-9.759.983-2.3,1.767-5.848.383-8.129-1.8-2.964-4.8-5.115-6.542-8.271" fill="#b27344" stroke="#100052" stroke-linecap="round" stroke-linejoin="round" stroke-width="0.846"/>
      </g>
      <path id="Path_15051" data-name="Path 15051" d="M1144.888-454.085a666.184,666.184,0,0,1,12-109.063c6.825-35.118,6.48-69.127,45.815-83.638,2.653-.979,5.49-1.8,8.279-1.335,5.875.984,9.273,7.06,11.64,12.526a278.129,278.129,0,0,1,22.335,95.559c1.229,21.393-9.329,43.569-14.665,64.21a4.44,4.44,0,0,0-.064,2.988c.558,1.176,1.981,1.608,3.246,1.914,16.681,4.034,33.475,7.619,50.05,12.083,13.657,3.679,30.638,6.644,37.443,20.629,3.589,7.374,4.282,15.827,4.026,24.024-.136,4.369-.591,8.933-2.97,12.6a8.439,8.439,0,0,1-4.192,3.551c-1.956.658-4.091.281-6.119-.1-7.946-1.5-15.845-2.679-23.778-3.919-34.013-5.232-67.578-13.873-101.242-20.982C1171.77-426.191,1144.348-434.1,1144.888-454.085Z" fill="#feca84"/>
      <path id="Path_15052" data-name="Path 15052" d="M1379.849-478.468c-9.651-36.01-23.148-71.073-33.7-106.9-.654-2.222-1.435-4.642-3.168-6-1.857-1.451-5.719-3.2-7.963-2.793-10.794,1.968-22.741,6.338-26.976,17.49-1.695,4.462-.268,8.669.176,13.463,2.4,25.881,5.253,51.767,10.237,77.294,3.851,19.731,6.7,51.973,23.159,65.526,6.759,5.566,16.817,6.194,24.8,2.588,21.473-9.7,29.467-44.022,35.515-64.268A357.881,357.881,0,0,0,1416.9-584.84c-.02-13.492-1.1-27.92-8.67-38.549-9.218-12.952-32.09-22.556-47.324-24.8,3.325,21.081-.479,41.721-3.224,62.886-4.686,36.124-12.559,71.356-17.211,107.476" fill="#feca84"/>
      <path id="Path_15053" data-name="Path 15053" d="M1343.89-591.177c-7.218-6.26-21.676-.993-27.9,4.257-3.475,2.931-7.3,6.9-8.914,11.237-.789,2.118.1,5.2.366,7.338l1.654,13.494,3.308,26.988,6.685,54.54c1.6,13.081,3.5,26.89,11.681,37.222" fill="none" stroke="#100052" stroke-linecap="round" stroke-linejoin="round" stroke-width="0.846"/>
      <path id="Path_15054" data-name="Path 15054" d="M1212.261-593.66c.411,17.24-7.839,33.33-12.387,49.965a72.039,72.039,0,0,0,1.732,43.4c1.74,4.62,4.306,9.349,8.756,11.487" fill="none" stroke="#100052" stroke-linecap="round" stroke-linejoin="round" stroke-width="0.846"/>
      <path id="Path_15055" data-name="Path 15055" d="M1179.659-489.443c15.8-2.1,27.549,1.626,42.131,6.993,23.39,8.61,46.76,17.475,70.653,24.993,11.729,3.69,24.581,9.708,29.1,22.193,3.73,10.312,5.542,24.244.963,34.534-2.772,6.229-6.723,4.083-12.243,3.289" fill="none" stroke="#100052" stroke-linecap="round" stroke-linejoin="round" stroke-width="0.846"/>
      <path id="Path_15056" data-name="Path 15056" d="M1317.2-396.226c-37.787-7.314-77.5-9.619-114.066-21.631" fill="none" stroke="#100052" stroke-linecap="round" stroke-linejoin="round" stroke-width="0.846"/>
      <path id="Path_15057" data-name="Path 15057" d="M1342.644-592a443.342,443.342,0,0,1,38.156,95.923" fill="none" stroke="#100052" stroke-linecap="round" stroke-linejoin="round" stroke-width="0.846"/>
    </g>
    <path id="Path_15058" data-name="Path 15058" d="M1305.8-768.309a34.827,34.827,0,0,0-22.167,7.875c-.132.109-.328.219-.458.106s.2-.3.165-.131" fill="none" stroke="#100052" stroke-linecap="round" stroke-linejoin="round" stroke-width="4.657"/>
    <path id="Path_15059" data-name="Path 15059" d="M1328.559-773.909a25.376,25.376,0,0,1,19.7-2.925c.146.037.34.046.381-.11s-.286-.172-.181-.042" fill="none" stroke="#100052" stroke-linecap="round" stroke-linejoin="round" stroke-width="4.657"/>
    <path id="Path_15060" data-name="Path 15060" d="M1334.012-722.292c1.457-.351,3.72-1.111,4.729-2.295.984-1.153.885-3.346.383-4.66a3.386,3.386,0,0,1,1.447,2.919,6.594,6.594,0,0,1-.19,1.123,8.982,8.982,0,0,1-3.02,5.336c-2.263,1.562-5.354.729-7.825-.31-1.764-.742-3.743-1.606-4.824-3.127C1327.506-723.738,1330.534-721.454,1334.012-722.292Z" fill="#e2a383" opacity="0.44" style="mix-blend-mode: multiply;isolation: isolate"/>
    <ellipse id="Ellipse_343" data-name="Ellipse 343" cx="4.443" cy="3.695" rx="4.443" ry="3.695" transform="translate(1340.191 -759.763) rotate(-6.392)" fill="#100052"/>
    <ellipse id="Ellipse_344" data-name="Ellipse 344" cx="4.443" cy="3.698" rx="4.443" ry="3.698" transform="translate(1299.486 -752.679) rotate(-6.392)" fill="#100052"/>
    <path id="Path_15061" data-name="Path 15061" d="M1348.816-706.041a210.564,210.564,0,0,0-26.543,2.855c-.569.109-.559.671.012.656a172.5,172.5,0,0,0,26.556-2.855C1349.42-705.5,1349.4-706.07,1348.816-706.041Z" fill="#100052"/>
    <path id="Path_15062" data-name="Path 15062" d="M1334.761-697.831a34.106,34.106,0,0,0,7.382-1" fill="none" stroke="#e2a383" stroke-linecap="round" stroke-linejoin="round" stroke-width="1.691" opacity="0.44" style="mix-blend-mode: multiply;isolation: isolate"/>
  </g>
</svg>
