<svg xmlns="http://www.w3.org/2000/svg" xmlns:xlink="http://www.w3.org/1999/xlink" width="566.703" height="387.031" viewBox="0 0 566.703 387.031">
  <defs>
    <linearGradient id="linear-gradient" y1="0.5" x2="1" y2="0.5" gradientUnits="objectBoundingBox">
      <stop offset="0" stop-color="#faebd8"/>
      <stop offset="1" stop-color="#ffb83f"/>
    </linearGradient>
    <linearGradient id="linear-gradient-2" x1="0.515" y1="0.496" x2="0.812" y2="1.522" gradientUnits="objectBoundingBox">
      <stop offset="0" stop-color="#4fa5ad"/>
      <stop offset="1" stop-color="#99cbcf"/>
    </linearGradient>
    <linearGradient id="linear-gradient-3" x1="0" y1="0.5" x2="1" y2="0.5" xlink:href="#linear-gradient"/>
    <linearGradient id="linear-gradient-4" x1="0.276" y1="-0.061" x2="0.565" y2="0.791" xlink:href="#linear-gradient-2"/>
    <linearGradient id="linear-gradient-5" x1="0.186" y1="0.082" x2="1.186" y2="0.082" gradientUnits="objectBoundingBox">
      <stop offset="0" stop-color="#fff"/>
      <stop offset="1" stop-color="#bbdbf9"/>
    </linearGradient>
    <linearGradient id="linear-gradient-6" x1="-9.245" y1="-417.422" x2="-9.076" y2="-417.422" gradientUnits="objectBoundingBox">
      <stop offset="0" stop-color="#ff9077"/>
      <stop offset="1" stop-color="#e9645a"/>
    </linearGradient>
    <linearGradient id="linear-gradient-7" x1="0.495" y1="-0.255" x2="1.496" y2="-0.255" xlink:href="#linear-gradient-6"/>
    <linearGradient id="linear-gradient-8" x1="1.557" y1="-3.002" x2="2.557" y2="-3.002" gradientUnits="objectBoundingBox">
      <stop offset="0" stop-color="#2a7195"/>
      <stop offset="1" stop-color="#060c39"/>
    </linearGradient>
    <linearGradient id="linear-gradient-9" x1="0" y1="0.5" x2="1" y2="0.5" xlink:href="#linear-gradient-8"/>
    <linearGradient id="linear-gradient-10" x1="1.985" y1="-15.168" x2="2.995" y2="-15.168" xlink:href="#linear-gradient-2"/>
    <linearGradient id="linear-gradient-11" x1="1.298" y1="-7.607" x2="2.323" y2="-7.607" xlink:href="#linear-gradient-2"/>
    <linearGradient id="linear-gradient-12" x1="1.762" y1="-8.241" x2="0.396" y2="-11.86" xlink:href="#linear-gradient-8"/>
    <linearGradient id="linear-gradient-13" x1="2.089" y1="-7.2" x2="0.723" y2="-10.818" xlink:href="#linear-gradient-8"/>
    <linearGradient id="linear-gradient-14" x1="0" y1="0.5" x2="1" y2="0.5" xlink:href="#linear-gradient-5"/>
    <clipPath id="clip-path">
      <path id="Path_15184" data-name="Path 15184" d="M729.9,1489.061c-49.417-41.673-131.172-40.845-178.784,3.6-47.86,44.676,6.738,102.588-42.545,139-43.146,31.876-91.755,45.954-91.933,108.67-.265,93.234,93.6,104.67,165.492,102.664,46.343-1.294,89.115-4.631,135.627.453,40.676,4.445,72.366,3.246,109.738-16.445,32.559-17.155,48.4-37.861,49.08-74.7.677-36.814,5.02-48.976,39.776-66.5,29.257-14.755,75.924-29.092,65.5-70.323-9.985-39.49-42.71-43.819-76.054-45.994-35.4-2.31-78.453,1.6-111.877-11.121C755.944,1543.909,757.879,1512.656,729.9,1489.061Z" transform="translate(-416.637 -1458.546)" fill="none"/>
    </clipPath>
    <linearGradient id="linear-gradient-15" x1="0.713" y1="-0.573" x2="0.336" y2="1.476" xlink:href="#linear-gradient-6"/>
    <linearGradient id="linear-gradient-16" x1="0.516" y1="0.293" x2="0.373" y2="1.104" xlink:href="#linear-gradient-6"/>
  </defs>
  <g id="Group_17450" data-name="Group 17450" transform="translate(-416.637 -1458.546)">
    <path id="Path_15111" data-name="Path 15111" d="M1607.127,1721.277q-2.559-.7-5.2-1.26c.775.435,1.549,1.152,2.323,1.152A18.724,18.724,0,0,0,1607.127,1721.277Z" transform="translate(-666.158 -146.952)" fill="url(#linear-gradient)"/>
    <path id="Path_15112" data-name="Path 15112" d="M981.849,1757.211c-6.342-25.082-21.859-35.977-40.88-41.147a18.722,18.722,0,0,1-2.873-.107c-.774,0-1.549-.717-2.323-1.152l-.421-.089c-1.581.036-3.163.389-4.744-.007-5.408-2.08-10.816,0-16.224-1.664-3.744-.832-7.488-.416-11.232-.832l-2.5-1.248c-.133-.022-.266-.038-.4-.058q-1.912-.092-3.847-.165a13.388,13.388,0,0,0-3.242.639c-23.711,8.736-44.1,22.464-64.895,38.271-1.664,1.248-3.328,1.248-4.992,2.5-5.408,4.991-9.568,9.983-14.976,14.976-9.568,7.9-17.056,15.808-26.624,23.3-28.7,23.712-49.919,51.167-78.207,74.879-3.744,3.328-7.9,4.992-11.232,7.9a56.428,56.428,0,0,1-4.992,4.992c-2.08,1.248-4.16,1.248-6.24,2.5-39.1,24.544-82.367,40.351-127.294,38.271-5.408-.416-10.816,0-16.224-1.248-4.992-.832-9.984-.416-14.976-1.248-3.328-.416-6.656-.416-9.984-1.248-7.488-1.664-14.144-2.912-21.216-6.656-10.816-5.407-22.048-7.072-32.864-13.728-9.984-5.824-20.384-8.736-30.784-14.144-2.08-1.248-2.912-3.744-4.992-4.992-1.929-1.058-3.786-2.157-5.6-3.285-.279,3.089-.435,6.3-.445,9.656-.265,93.233,93.6,104.67,165.492,102.664,46.343-1.293,89.115-4.631,135.627.453,40.676,4.446,72.366,3.246,109.738-16.444,32.559-17.155,48.4-37.861,49.08-74.7.677-36.814,5.02-48.976,39.776-66.505C945.608,1812.779,992.274,1798.443,981.849,1757.211Z" transform="translate(0 -141.739)" fill="url(#linear-gradient-2)"/>
    <path id="Path_15113" data-name="Path 15113" d="M1523.738,1712.424c3.744.416,7.488,0,11.232.832,5.408,1.664,10.816-.416,16.224,1.664,1.581.4,3.163.043,4.744.007-9.384-1.978-19.441-2.838-29.557-3.5q-2.739-.179-5.537-.31c.133.02.266.035.4.058Z" transform="translate(-620.585 -141.951)" fill="url(#linear-gradient-3)"/>
    <path id="Path_15114" data-name="Path 15114" d="M428.243,1738.951c10.4,5.408,20.8,8.32,30.783,14.144,10.816,6.656,22.047,8.32,32.863,13.728,7.072,3.744,13.728,4.992,21.216,6.656,3.328.832,6.656.832,9.984,1.248,4.992.832,9.984.416,14.976,1.248,5.408,1.248,10.816.832,16.224,1.248,44.927,2.08,88.19-13.728,127.294-38.271,2.08-1.248,4.16-1.248,6.24-2.5a56.415,56.415,0,0,0,4.992-4.992c3.328-2.912,7.488-4.576,11.232-7.9,28.287-23.712,49.5-51.167,78.207-74.879,9.568-7.488,17.056-15.391,26.624-23.3,5.408-4.992,9.568-9.984,14.976-14.976,1.664-1.248,3.328-1.248,4.992-2.5,20.8-15.808,41.183-29.535,64.895-38.272a13.408,13.408,0,0,1,3.242-.639c-33.42-1.281-71.971.967-102.492-10.645-37.974-14.448-36.04-45.7-64.019-69.3-49.417-41.673-131.172-40.845-178.784,3.6-47.86,44.676,6.738,102.588-42.545,139-40.836,30.17-86.558,44.4-91.489,99.014,1.811,1.128,3.669,2.228,5.6,3.285C425.331,1735.207,426.164,1737.7,428.243,1738.951Z" transform="translate(-0.572 0)" fill="url(#linear-gradient-4)"/>
    <g id="clock_asets" data-name="clock asets" transform="translate(688.743 1508.302)">
      <g id="Group_17412" data-name="Group 17412" transform="translate(41.641 0)">
        <g id="Group_17411" data-name="Group 17411">
          <circle id="Ellipse_353" data-name="Ellipse 353" cx="81.813" cy="81.813" r="81.813" transform="translate(0.418 0.419)" fill="url(#linear-gradient-5)"/>
          <path id="Path_15115" data-name="Path 15115" d="M1215.276,1736.613c-1.973,0-3.953-.07-5.952-.214a82.2,82.2,0,1,1,5.952.214Zm-81.66-88.1.415.03a81.4,81.4,0,1,0,87.023-75.354,81.49,81.49,0,0,0-87.023,75.354Z" transform="translate(-1132.987 -1572.148)" fill="#0e0751"/>
        </g>
        <path id="Path_15116" data-name="Path 15116" d="M1325.711,1761.959c-.014.259,23.846.019,23.846.019l16.839,3.229a.218.218,0,0,1-.038.432l-17.014.213Z" transform="translate(-1241.302 -1678.825)" fill="url(#linear-gradient-6)"/>
        <rect id="Rectangle_6508" data-name="Rectangle 6508" width="1.947" height="13.329" transform="matrix(0.997, 0.072, -0.072, 0.997, 75.861, 150.896)" fill="#0e0751"/>
        <rect id="Rectangle_6509" data-name="Rectangle 6509" width="1.642" height="12.41" transform="matrix(0.997, 0.072, -0.072, 0.997, 87.768, 0.145)" fill="#0e0751"/>
        <path id="Path_15117" data-name="Path 15117" d="M1317.857,1681.138c.459,0-2.473-35.626-2.473-35.626l3.534-22.714a.721.721,0,0,1,1.431.049l1.929,22.631Z" transform="translate(-1235.497 -1600.271)" fill="url(#linear-gradient-7)"/>
        <rect id="Rectangle_6510" data-name="Rectangle 6510" width="1.947" height="14.708" transform="matrix(0.072, -0.997, 0.997, 0.072, 149.946, 88.996)" fill="#0e0751"/>
        <rect id="Rectangle_6511" data-name="Rectangle 6511" width="1.947" height="12.64" transform="matrix(0.072, -0.997, 0.997, 0.072, 0.429, 75.947)" fill="#0e0751"/>
        <circle id="Ellipse_354" data-name="Ellipse 354" cx="9.767" cy="9.767" r="9.767" transform="translate(72.506 71.892)" fill="url(#linear-gradient-8)"/>
      </g>
      <g id="Group_17416" data-name="Group 17416" transform="translate(0 55.09)">
        <g id="Group_17413" data-name="Group 17413">
          <circle id="Ellipse_355" data-name="Ellipse 355" cx="33.553" cy="33.553" r="33.553" transform="translate(0.001 0.001)" fill="#fcfcfc"/>
          <path id="Path_15118" data-name="Path 15118" d="M1071.431,1708.5c.557,0,1.123.021,1.682.061a22.982,22.982,0,0,1-1.613,45.9c-.557,0-1.122-.021-1.682-.061a22.982,22.982,0,0,1,1.613-45.905m0-10.571a33.553,33.553,0,0,0-2.37,67.02c.818.059,1.633.088,2.44.088a33.554,33.554,0,0,0,2.371-67.021q-1.227-.088-2.44-.088Z" transform="translate(-1037.911 -1697.931)" fill="#0e0751"/>
        </g>
        <g id="Group_17414" data-name="Group 17414" transform="translate(8.307 8.335)">
          <circle id="Ellipse_356" data-name="Ellipse 356" cx="25.283" cy="25.283" r="25.283" transform="translate(0.001 0.001)" fill="#fcfcfc"/>
          <path id="Path_15119" data-name="Path 15119" d="M1082.135,1718.339c.577,0,1.162.021,1.74.063a23.9,23.9,0,0,1-1.687,47.747c-.576,0-1.162-.021-1.74-.062a23.9,23.9,0,0,1,1.687-47.747m0-1.378a25.283,25.283,0,0,0-1.786,50.5c.616.044,1.23.066,1.839.066a25.283,25.283,0,0,0,1.786-50.5c-.616-.044-1.23-.066-1.839-.066Z" transform="translate(-1056.878 -1716.961)" fill="#0e0751"/>
        </g>
        <g id="Group_17415" data-name="Group 17415" transform="translate(15.548 15.54)">
          <circle id="Ellipse_357" data-name="Ellipse 357" cx="18.054" cy="18.054" r="18.054" transform="translate(0.001 0.001)" fill="#fcfcfc"/>
          <path id="Path_15120" data-name="Path 15120" d="M1091.447,1734.79c.4,0,.811.014,1.214.043a16.675,16.675,0,0,1-1.177,33.307c-.4,0-.811-.015-1.214-.043a16.675,16.675,0,0,1,1.177-33.307m0-1.379a18.054,18.054,0,0,0-1.276,36.062q.661.047,1.313.047a18.054,18.054,0,0,0,1.275-36.062q-.66-.048-1.312-.047Z" transform="translate(-1073.411 -1733.411)" fill="#0e0751"/>
        </g>
        <circle id="Ellipse_358" data-name="Ellipse 358" cx="10.148" cy="10.148" r="10.148" transform="translate(23.463 23.765)" fill="url(#linear-gradient-9)"/>
      </g>
      <g id="Group_17418" data-name="Group 17418" transform="translate(165.303 28.415)">
        <path id="Path_15121" data-name="Path 15121" d="M1473.818,1843.2a5.7,5.7,0,0,1-4.12,0c-2.4-1.038-3.591-3.994-6.05-4.891a11.7,11.7,0,0,0-4.436-.2,15.592,15.592,0,0,1-13.339-6.923c-.243.464-.471.936-.678,1.421-1.863,4.344-1.834,8.72-1.555,13.337l32.372,17.664a32.393,32.393,0,0,0,11.218-10,18.056,18.056,0,0,0,2.895-6.965c.177-.956-.4-6.429-.1-6.741a4.673,4.673,0,0,1-5.13,1,19.2,19.2,0,0,0-2.587-1.333c-2.05-.56-3.984,1.023-5.738,2.224A11.369,11.369,0,0,1,1473.818,1843.2Z" transform="translate(-1431.162 -1746.149)" fill="url(#linear-gradient-10)"/>
        <path id="Path_15122" data-name="Path 15122" d="M1550.823,1721.293a10.6,10.6,0,0,0-1.81-2.085c-2.283-1.685-5.417-.128-8.063.9-6.177,2.4-11.535.885-17.321-1.517-3.934-1.633-2.846,2.235-2.336,5.095a65.81,65.81,0,0,0,2.623,9.817c1.084,3.158,2.915,6.575,2.352,10.02-.528,3.228-2.176,6.317-2.808,9.584q-2.736,14.137-4.672,28.414a15.957,15.957,0,0,0,4.419-6.626,31.816,31.816,0,0,0,1.314-8.518c.357-5.727-.618-16.727,4.215-21.014,2.611-2.316,6.952-2.863,10.207-3.662a53.8,53.8,0,0,0,16.658-6.741c3.465-2.258,8.792-7.358,9.13-11.7A10.6,10.6,0,0,1,1550.823,1721.293Z" transform="translate(-1473.475 -1682.648)" fill="url(#linear-gradient-11)"/>
        <g id="Group_17417" data-name="Group 17417" transform="translate(0 0)">
          <path id="Path_15123" data-name="Path 15123" d="M1516.462,1791.5a.467.467,0,0,1-.227-.876c3.682-2.04,7.5-4.356,10.144-8.224a24.51,24.51,0,0,0,3.965-12.5c.48-7.665-1.655-15.018-4.033-21.822-1.207-3.455-2.318-7.391-.209-10.4,2-2.847,5.767-3.629,9.094-4.32.657-.136,1.278-.265,1.866-.406,8.947-2.144,15.41-5.163,20.342-9.5a22.694,22.694,0,0,0,6.427-9.035c1.5-3.979,1.392-8,1.157-11.77a.468.468,0,1,1,.933-.058c.241,3.874.346,8-1.215,12.157a23.612,23.612,0,0,1-6.685,9.409c-5.05,4.443-11.641,7.528-20.741,9.708-.6.144-1.23.274-1.894.412-3.157.656-6.734,1.4-8.518,3.942-1.855,2.646-.8,6.319.325,9.554,2.411,6.9,4.575,14.358,4.084,22.189a25.434,25.434,0,0,1-4.125,12.967c-2.761,4.038-6.682,6.419-10.463,8.514A.466.466,0,0,1,1516.462,1791.5Z" transform="translate(-1471.905 -1673.629)" fill="#100052"/>
          <rect id="Rectangle_6512" data-name="Rectangle 6512" width="57.846" height="7.11" rx="3.555" transform="matrix(0.875, 0.484, -0.484, 0.875, 55.616, 0)" fill="url(#linear-gradient-12)"/>
          <rect id="Rectangle_6513" data-name="Rectangle 6513" width="57.846" height="7.11" rx="3.555" transform="matrix(0.875, 0.484, -0.484, 0.875, 3.441, 94.672)" fill="url(#linear-gradient-13)"/>
          <path id="Path_15124" data-name="Path 15124" d="M1443.476,1751.117a.469.469,0,0,1-.467-.442c-.236-4.315-.3-8.9,1.651-13.388a25.446,25.446,0,0,1,8.789-10.386c6.371-4.577,13.842-6.711,20.966-8.336,3.341-.761,7.01-1.823,8.266-4.8,1.207-2.863-.066-6.288-1.189-9.31-.236-.636-.459-1.237-.657-1.823-2.99-8.869-3.88-16.091-2.8-22.729a23.593,23.593,0,0,1,4.416-10.663c2.688-3.53,6.242-5.637,9.652-7.491a.467.467,0,0,1,.447.821c-3.32,1.806-6.778,3.853-9.354,7.236a22.68,22.68,0,0,0-4.237,10.247c-1.053,6.482-.175,13.562,2.765,22.281.193.573.414,1.167.647,1.8,1.184,3.185,2.525,6.795,1.174,10-1.427,3.386-5.353,4.538-8.919,5.35-7.028,1.6-14.392,3.7-20.628,8.183a24.528,24.528,0,0,0-8.478,10c-1.872,4.3-1.8,8.76-1.574,12.964a.469.469,0,0,1-.441.493Z" transform="translate(-1430.82 -1650.887)" fill="#100052"/>
        </g>
        <path id="Path_15125" data-name="Path 15125" d="M1492.2,1661.018c-3.689,1.962-7.062,3.988-9.672,7.35a23.582,23.582,0,0,0-4.471,10.523c-1.316,7.648.221,15.487,2.6,22.767,1.141,3.492,3.332,7.931,1.744,11.6-1.425,3.3-5.555,4.355-8.731,5.049-7.42,1.619-14.805,3.72-21.093,8.148a25.462,25.462,0,0,0-8.821,10.218c-1.926,4.311-1.963,8.683-1.754,13.3l32.067,18.13c4.063-2.2,7.79-4.487,10.491-8.358a25.455,25.455,0,0,0,4.208-12.827c.552-7.67-1.453-15.082-3.892-22.274-1.043-3.078-2.263-7.164-.175-10.083,2.327-3.253,7.26-3.664,10.84-4.486,7.464-1.715,14.974-4.439,20.848-9.51a23.582,23.582,0,0,0,6.712-9.257c1.535-3.97,1.532-7.906,1.312-12.077Z" transform="translate(-1430.274 -1650.51)" fill="#f5f5f5" opacity="0.43"/>
      </g>
    </g>
    <path id="Path_15126" data-name="Path 15126" d="M774.641,1725.256c-.42,2.27-.8,4.78.4,6.749a1.454,1.454,0,0,0,1.276.846c.6-.075.924-.74,1.091-1.323.869-3.028,1.017-8.579-.875-11.153C774.8,1721.054,774.943,1723.629,774.641,1725.256Z" transform="translate(-200.977 -147.153)" fill="url(#linear-gradient-14)"/>
    <g id="Group_17448" data-name="Group 17448" transform="translate(416.637 1458.546)">
      <g id="Group_17447" data-name="Group 17447" clip-path="url(#clip-path)">
        <g id="Group_17446" data-name="Group 17446" transform="translate(75.408 74.247)">
          <g id="girl2">
            <path id="Path_15127" data-name="Path 15127" d="M644.275,2016.85c-4.449,4.4-11.414,6.74-18.233,6.24-4.075-.3-8.4-1.714-11.007-4.746-7.2-8.367-3.691-22.558-1.063-30.981,3.841-12.315,9.827-23.809,14.682-35.732a84.284,84.284,0,0,1,6.361-13.333c4.657-7.4,12.571-14.582,21.673-17.556,10.5-3.429,22.329.579,22.508,12.134.071,4.565-2.174,7.889-3.088,12.106-1.636,7.551-5.892,13.444-8.771,20.379q-4.625,11.14-9.474,22.186c-2.138,4.871-4.778,9.912-6.944,14.923C648.911,2007.118,648.01,2013.154,644.275,2016.85Z" transform="translate(-601.146 -1791.89)" fill="#feca84"/>
            <g id="Group_17419" data-name="Group 17419" transform="translate(53.977 3.951)">
              <path id="Path_15128" data-name="Path 15128" d="M762.429,1641.054a57.829,57.829,0,0,0-14.352,4.734,115.57,115.57,0,0,0-15.613,9.7c-4.522,3.155-7.081,11.243-8.372,16.482-1.559,6.328-1.854,12.885-2.239,19.365-.225,3.788-.594,7.549-1.04,11.3-1.774,14.917-2.893,29.146-6.69,43.536-1.664,6.308-2.81,13.236-.11,19.175,1.849,4.066,5.3,7.174,8.909,9.808,21.317,15.568,49.626,17.942,75.88,15.2,10.148-1.06,20.49-2.889,29.273-8.084,4.608-2.725,8.9-6.674,10.165-11.875.8-3.265.323-6.689-.154-10.016-4.065-28.309-7.538-57.11-14.707-84.781-2.818-10.877-7.617-21.373-15.653-29.4a30.586,30.586,0,0,0-15.943-8.778" transform="translate(-712.246 -1637.274)" fill="#100052"/>
              <path id="Path_15129" data-name="Path 15129" d="M780.394,1791.3c-23.611,0-42.984-5.431-57.755-16.218-3.116-2.276-6.951-5.455-8.957-9.867-2.779-6.112-1.508-13.172.1-19.273,3.116-11.809,4.409-23.357,5.779-35.583.29-2.59.59-5.268.907-7.932.5-4.164.836-7.856,1.039-11.287l.078-1.328c.349-5.975.709-12.154,2.165-18.064,2.079-8.442,4.995-14.171,8.43-16.568a116.126,116.126,0,0,1,15.633-9.715,57.919,57.919,0,0,1,14.389-4.747l.055.29a57.665,57.665,0,0,0-14.315,4.723,115.931,115.931,0,0,0-15.592,9.691c-3.376,2.355-6.25,8.025-8.312,16.4-1.449,5.883-1.809,12.048-2.157,18.011l-.078,1.327c-.2,3.437-.545,7.134-1.041,11.3-.317,2.664-.617,5.341-.907,7.93-1.371,12.237-2.666,23.8-5.787,35.625-1.6,6.05-2.859,13.048-.119,19.075,1.978,4.35,5.775,7.5,8.862,9.751,18.351,13.4,43.849,18.508,75.777,15.171,9.355-.977,20.141-2.7,29.212-8.064,3.852-2.278,8.73-6.171,10.1-11.783.8-3.287.292-6.832-.157-9.959q-.893-6.223-1.762-12.472c-3.355-23.936-6.825-48.686-12.941-72.293-3.187-12.3-8.44-22.166-15.615-29.329-3.291-3.285-8.714-7.469-15.864-8.738l.051-.291c7.226,1.282,12.7,5.5,16.021,8.82,7.213,7.2,12.492,17.113,15.692,29.463,6.121,23.624,9.592,48.383,12.948,72.326q.876,6.246,1.762,12.472c.453,3.154.966,6.729.151,10.071-1.391,5.712-6.333,9.661-10.233,11.968-9.121,5.394-19.946,7.124-29.333,8.1A175.638,175.638,0,0,1,780.394,1791.3Z" transform="translate(-712.049 -1637.087)" fill="#100052"/>
            </g>
            <path id="Path_15130" data-name="Path 15130" d="M951.115,1962.806a81.1,81.1,0,0,0-3.152-21.009c-2.1-6.986-4.536-14.259-9.286-19.942-5.422-6.487-13.193-8.716-21.274-9.935-9.9-1.494-19.2-.46-35.3,4.229-6.093,1.774,5.574,8.313,5.176,14.211-.512,7.59,11.968,21.385,12.077,29.009.16,11.224-.125,22.5-1,33.662-.745,9.5-3.437,18.734.412,28.3,2.729,6.78,9.431,12.749,17.481,15.746,4.81,1.792,10.5,2.568,15.1.816,12.687-4.836,16.249-21.127,17.744-31.075,1.364-9.079,1.472-18.217,1.814-27.369C951.112,1973.833,951.293,1968.3,951.115,1962.806Z" transform="translate(-752.653 -1787.24)" fill="#feca84"/>
            <path id="Path_15131" data-name="Path 15131" d="M704.279,2208.5c-6.564-6.958-6.156-16.368-6.446-26.064-.368-12.293,1.2-24.461,2.014-36.65.494-7.4,1.348-15.071,1.331-22.422-.021-8.973-.265-17.935-.119-26.912.05-3.091.165-6.337,1.738-9,1.537-2.6,4.24-4.253,6.857-5.761a67.455,67.455,0,0,1,9.336-4.686,61.14,61.14,0,0,1,27.514-3.195c8.482,1,17.083-1.524,25.756-.245,8.326,1.228,20.688,4.414,27.665,10.042,6.84,5.517,7.947,15.376,8.776,24.035,1.34,13.989,4.778,27.424,8.23,40.981s10.437,26.953,10.318,41.334c-.131,15.689-19.31,24.394-29.736,29.3-14.369,6.769-30.088,10.617-45.857,9.2C735.177,2226.989,716.7,2221.669,704.279,2208.5Z" transform="translate(-650.051 -1878.239)" fill="#feca84"/>
            <g id="Group_17423" data-name="Group 17423" transform="translate(46.644 118.239)">
              <path id="Path_15132" data-name="Path 15132" d="M764.615,2032.755a68.626,68.626,0,0,1-17.124-1.207c-7.989-1.6-15.626-4.584-23.434-6.9-6.3-1.868-14.463-3.252-18.174-9.793a18.243,18.243,0,0,1-1.76-6.57c-2.376-17.249-5.028-34.411-6.8-51.71-.869-8.475-2.454-18.21-1.9-26.654.466-7.07,2.822-14.293,7.678-18.947,5.642-5.407,14.357-7.532,21.479-9.2,15.273-3.584,23.133-4.24,38.7-3.431,14.357.746,38.709,0,54.414,6.9,4.143,1.821,3.99,4.83,5.151,9.448a111.521,111.521,0,0,1,2.565,17.981,139.379,139.379,0,0,1-2.977,41.979c-1.545,6.906-3.309,13.51-4.729,20.437-.584,2.85-1.351,5.654-2.117,8.456l-1.341,4.9a12.136,12.136,0,0,1-.836,2.389c-2.39,4.62-8.574,7.195-12.645,9.9a72.876,72.876,0,0,1-16.757,8.255A72.068,72.068,0,0,1,764.615,2032.755Z" transform="translate(-695.307 -1898.029)" fill="#feca84"/>
              <g id="Group_17420" data-name="Group 17420" transform="translate(1.299 59.42)">
                <path id="Path_15133" data-name="Path 15133" d="M706.646,2034.172c-7.678,14.671-14.781,38.557,4.4,47.263" transform="translate(-698.54 -2033.964)" fill="#feca84"/>
                <path id="Path_15134" data-name="Path 15134" d="M710.781,2081.376a.212.212,0,0,1-.086-.019,19.79,19.79,0,0,1-11.113-11.791c-4.333-12.595,3.18-29.2,6.611-35.759a.208.208,0,0,1,.369.193c-3.406,6.508-10.866,22.989-6.587,35.431a19.392,19.392,0,0,0,10.892,11.547.208.208,0,0,1-.086.4Z" transform="translate(-698.272 -2033.697)" fill="#100052"/>
              </g>
              <g id="Group_17421" data-name="Group 17421" transform="translate(106.472 68.28)">
                <path id="Path_15135" data-name="Path 15135" d="M947.453,2054.4c6.348,15.293,11.308,39.715-8.573,46.687" transform="translate(-938.672 -2054.193)" fill="#feca84"/>
                <path id="Path_15136" data-name="Path 15136" d="M938.613,2101.029a.208.208,0,0,1-.069-.4,19.39,19.39,0,0,0,11.872-10.536c5.365-12.015-.606-29.091-3.422-35.875a.208.208,0,1,1,.384-.16c2.837,6.834,8.849,24.042,3.418,36.2a19.791,19.791,0,0,1-12.114,10.761A.224.224,0,0,1,938.613,2101.029Z" transform="translate(-938.405 -2053.926)" fill="#100052"/>
              </g>
              <g id="Group_17422" data-name="Group 17422" transform="translate(41.04 110.882)">
                <path id="Path_15137" data-name="Path 15137" d="M827.114,2154.84a102.66,102.66,0,0,0-37.629-2.405" transform="translate(-789.277 -2151.471)" fill="#feca84"/>
                <path id="Path_15138" data-name="Path 15138" d="M826.847,2154.772a.179.179,0,0,1-.051-.007,101.881,101.881,0,0,0-37.552-2.4.211.211,0,0,1-.232-.182.208.208,0,0,1,.181-.232,102.336,102.336,0,0,1,37.705,2.41.208.208,0,0,1-.052.41Z" transform="translate(-789.01 -2151.194)" fill="#100052"/>
              </g>
            </g>
            <g id="Group_17430" data-name="Group 17430" transform="translate(228.478 174.485)">
              <g id="Group_17424" data-name="Group 17424" transform="translate(25.411 7.432)">
                <path id="Path_15139" data-name="Path 15139" d="M1190.508,2043.867s15.131,7.755,22.666,7.117c0,0,6.133-1.99,10.575-3.01s5.994,2.309,5.994,2.309-7.734,5.2-11.5,5.584-7.379,4.249-13.8,5.418-15.652-.364-22.223-1.176a87.336,87.336,0,0,0-13.285-.464s3.756-8.17,8.872-11.462S1190.508,2043.867,1190.508,2043.867Z" transform="translate(-1168.741 -2043.67)" fill="#b27344"/>
                <path id="Path_15140" data-name="Path 15140" d="M1198.744,2061.652a111.6,111.6,0,0,1-13.954-1.233c-.989-.13-1.942-.255-2.844-.367a88.014,88.014,0,0,0-13.251-.463.181.181,0,0,1-.173-.085.2.2,0,0,1-.016-.191c.038-.083,3.839-8.26,8.944-11.545s12.7-4.336,12.779-4.347a.193.193,0,0,1,.115.019c.151.078,15.127,7.707,22.538,7.1.406-.131,6.3-2.028,10.57-3.008,4.55-1.045,6.2,2.384,6.215,2.419a.2.2,0,0,1-.068.245c-.318.213-7.818,5.236-11.586,5.616a15.226,15.226,0,0,0-5.3,2.107,27.8,27.8,0,0,1-8.487,3.309A31.133,31.133,0,0,1,1198.744,2061.652Zm-26.463-2.526a81.977,81.977,0,0,1,9.712.538c.9.111,1.857.237,2.847.367,6.152.808,13.806,1.813,19.317.811a27.461,27.461,0,0,0,8.372-3.268,15.474,15.474,0,0,1,5.446-2.153c3.388-.342,10.176-4.74,11.259-5.454-.357-.625-1.951-2.913-5.693-2.055-4.384,1.008-10.5,2.987-10.56,3.006a.181.181,0,0,1-.043.009c-.307.026-.626.039-.955.039-7.559,0-20.649-6.581-21.762-7.148-.724.106-7.778,1.2-12.559,4.28-4.466,2.874-7.935,9.606-8.661,11.088C1169.544,2059.163,1170.72,2059.126,1172.282,2059.126Z" transform="translate(-1168.489 -2043.418)" fill="#100052"/>
              </g>
              <g id="Group_17425" data-name="Group 17425" transform="translate(58.343 8.692)">
                <path id="Path_15141" data-name="Path 15141" d="M1248.393,2061.936c1.159.143,6.81-1.121,11.057-3.735s10.227-9.725,10.227-9.725-1.359-4.878-8.064,1.75-7.626,4.552-7.626,4.552l-9.859-2.788" transform="translate(-1243.932 -2046.549)" fill="#b27344"/>
                <path id="Path_15142" data-name="Path 15142" d="M1248.356,2061.89a2.035,2.035,0,0,1-.238-.012.2.2,0,0,1,.048-.389c1.189.149,6.815-1.175,10.93-3.707,3.924-2.416,9.419-8.792,10.108-9.6a2.286,2.286,0,0,0-1.48-1.418c-1.023-.269-2.93.094-6.225,3.35-4.409,4.359-6.427,5.068-7.341,4.893a.86.86,0,0,1-.548-.312l-9.787-2.768a.2.2,0,1,1,.107-.377l9.859,2.788a.2.2,0,0,1,.126.109.458.458,0,0,0,.345.18c.687.106,2.5-.378,6.964-4.791,2.754-2.722,4.975-3.884,6.606-3.45a2.684,2.684,0,0,1,1.786,1.785.2.2,0,0,1-.039.179c-.061.072-6.05,7.164-10.275,9.766A27.818,27.818,0,0,1,1248.356,2061.89Z" transform="translate(-1243.68 -2046.296)" fill="#100052"/>
              </g>
              <g id="Group_17426" data-name="Group 17426" transform="translate(0 7.531)">
                <path id="Path_15143" data-name="Path 15143" d="M1147.916,2054.925c3.136-3.144-3.926-9.51-10.111-10.275s-7.392-.52-7.392-.52l-19.495,14.858,7.085,22.067,16.684-20.7" transform="translate(-1110.722 -2043.897)" fill="#b27344"/>
                <path id="Path_15144" data-name="Path 15144" d="M1117.752,2081a.16.16,0,0,1-.036,0,.194.194,0,0,1-.151-.132l-7.085-22.067a.2.2,0,0,1,.068-.215l19.5-14.859a.194.194,0,0,1,.081-.036c.049-.011,1.31-.242,7.454.517,4.523.56,9.687,4.1,10.833,7.422a2.9,2.9,0,0,1-.607,3.187.2.2,0,1,1-.277-.276,2.507,2.507,0,0,0,.514-2.783c-1.085-3.147-6.193-6.627-10.51-7.161-5.509-.681-7.029-.56-7.289-.529l-19.345,14.743,6.932,21.589,16.457-20.417a.2.2,0,0,1,.306.246l-16.685,20.7A.194.194,0,0,1,1117.752,2081Z" transform="translate(-1110.471 -2043.645)" fill="#100052"/>
              </g>
              <g id="Group_17427" data-name="Group 17427" transform="translate(54.773 12.175)">
                <path id="Path_15145" data-name="Path 15145" d="M1240.243,2069.888c1.16.144,6.81-1.12,11.058-3.734s10.227-9.725,10.227-9.725-1.359-4.877-8.065,1.75-7.626,4.552-7.626,4.552l-9.858-2.788" transform="translate(-1235.782 -2054.502)" fill="#b27344"/>
                <path id="Path_15146" data-name="Path 15146" d="M1240.205,2069.842a2.222,2.222,0,0,1-.238-.012.2.2,0,0,1,.048-.39c1.191.149,6.816-1.174,10.931-3.707,3.923-2.415,9.419-8.791,10.108-9.6a2.286,2.286,0,0,0-1.48-1.419c-1.023-.268-2.93.094-6.225,3.351-4.408,4.356-6.426,5.068-7.341,4.892a.858.858,0,0,1-.547-.312l-9.788-2.768a.2.2,0,1,1,.107-.377l9.859,2.788a.2.2,0,0,1,.126.109.46.46,0,0,0,.345.179c.684.111,2.5-.376,6.964-4.791,2.754-2.722,4.975-3.884,6.605-3.449a2.68,2.68,0,0,1,1.785,1.785.2.2,0,0,1-.038.179c-.06.072-6.049,7.164-10.275,9.765A27.828,27.828,0,0,1,1240.205,2069.842Z" transform="translate(-1235.53 -2054.249)" fill="#100052"/>
              </g>
              <g id="Group_17428" data-name="Group 17428" transform="translate(18.097)">
                <path id="Path_15147" data-name="Path 15147" d="M1152.237,2036.258s3.47-5.85,12.016-8.326,11.739.273,19.566.455,14.54-.166,15.17,1.09,2.376,6.18-10.136,5.811-5.507.1-5.507.1a15.236,15.236,0,0,1-14.888,2.869c-8.637-3.029-8.783-3.44-8.783-3.44" transform="translate(-1152.041 -2026.705)" fill="#b27344"/>
                <path id="Path_15148" data-name="Path 15148" d="M1173.132,2039.061a15,15,0,0,1-4.991-.868c-3.981-1.4-8.757-3.146-8.9-3.559a.2.2,0,0,1,.336-.189c.1.079,1.009.683,8.7,3.379a15.093,15.093,0,0,0,14.329-2.523c-1.669-.119-1.666-.165-1.657-.374.013-.266.016-.313,7.663-.088,6.851.207,9.209-1.214,9.988-2.437a3.13,3.13,0,0,0-.033-3.091c-.425-.846-4.681-.876-9.609-.912-1.723-.012-3.506-.025-5.391-.069a43.773,43.773,0,0,1-7.046-.817c-3.748-.661-6.984-1.233-12.46.354-8.375,2.426-11.868,8.18-11.9,8.238a.2.2,0,1,1-.337-.2c.035-.059,3.608-5.945,12.131-8.414,5.563-1.612,8.841-1.033,12.637-.363a43.356,43.356,0,0,0,6.987.81c1.882.044,3.663.057,5.385.069,6.193.044,9.448.115,9.956,1.128a3.505,3.505,0,0,1,.014,3.478c-1.213,1.9-4.687,2.787-10.33,2.618-2.526-.074-4.2-.113-5.309-.13a.2.2,0,0,1-.058.181A15.99,15.99,0,0,1,1173.132,2039.061Z" transform="translate(-1151.789 -2026.45)" fill="#100052"/>
              </g>
              <g id="Group_17429" data-name="Group 17429" transform="translate(24.292 16.337)">
                <path id="Path_15149" data-name="Path 15149" d="M1166.381,2071.532s4.4-1.622,18.127,1.644,14.5,3.361,14.5,3.361,8.547-2.476,8.69-3.636l1.051-8.5s-4.5-1.733-6.128,5.13a35.9,35.9,0,0,0-3.622.729c-.821.292-6.041-1.923-6.041-1.923" transform="translate(-1166.185 -2064.005)" fill="#b27344"/>
                <path id="Path_15150" data-name="Path 15150" d="M1198.753,2076.48h-.024c-.032,0-.939-.135-14.518-3.365-13.471-3.205-17.969-1.667-18.014-1.651a.2.2,0,1,1-.135-.368c.182-.067,4.614-1.6,18.239,1.637,12.261,2.917,14.176,3.3,14.44,3.352,4.128-1.2,8.428-2.816,8.508-3.459l1.031-8.342a3.867,3.867,0,0,0-2.779.293c-1.377.729-2.368,2.325-2.943,4.743a.2.2,0,0,1-.16.149,35.8,35.8,0,0,0-3.588.721c-.846.3-5.3-1.553-6.183-1.928a.2.2,0,1,1,.153-.361c1.991.845,5.346,2.114,5.9,1.919a32.705,32.705,0,0,1,3.529-.718c.609-2.466,1.657-4.106,3.116-4.875a4.177,4.177,0,0,1,3.241-.264.2.2,0,0,1,.124.207l-1.051,8.5c-.152,1.226-7.382,3.38-8.831,3.8A.205.205,0,0,1,1198.753,2076.48Z" transform="translate(-1165.934 -2063.752)" fill="#100052"/>
              </g>
            </g>
            <g id="Group_17431" data-name="Group 17431" transform="translate(161.992 192.818)">
              <path id="Path_15151" data-name="Path 15151" d="M977.932,2105.432c3.781-2.775,7.7-5.4,11.367-8.175,7.525-5.7,16-10.818,23.113-16.95,4.519-3.9,9.449-10.738,15.992-11.449a15.658,15.658,0,0,1,11.729,3.939,24.569,24.569,0,0,1,6.023,7.344,6.163,6.163,0,0,1,.721,2.543,5.128,5.128,0,0,1-.883,2.491,141.326,141.326,0,0,1-33,38.943,114.105,114.105,0,0,1-21.236,14.247c-3.416,1.684-8.033,3.479-12.007,2.744q-.331-.06-.658-.133c-6.242-1.374-12.941-4.162-17.223-9.085-4.373-5.027-2.27-26.51-1.722-29.476" transform="translate(-958.948 -2068.574)" fill="#feca84"/>
              <path id="Path_15152" data-name="Path 15152" d="M981.421,2141.224a10.874,10.874,0,0,1-1.981-.175q-.335-.061-.666-.135c-5.289-1.165-12.59-3.7-17.335-9.152-4.6-5.283-2.179-27.433-1.77-29.65a.208.208,0,0,1,.409.075c-.618,3.35-2.558,24.436,1.675,29.3,4.67,5.369,11.883,7.868,17.111,9.018.216.047.434.092.651.132,3.107.574,6.992-.318,11.878-2.727,6.506-3.207,13.242-7.726,21.2-14.221a140.624,140.624,0,0,0,32.947-38.886,4.912,4.912,0,0,0,.855-2.389,6.006,6.006,0,0,0-.7-2.454c-1.389-3.012-4.337-5.85-5.971-7.274a15.515,15.515,0,0,0-11.569-3.89c-4.858.528-8.883,4.555-12.433,8.108-1.2,1.2-2.327,2.327-3.446,3.293a169.176,169.176,0,0,1-14.064,10.487c-3.018,2.093-6.139,4.258-9.06,6.471-2.1,1.594-4.331,3.165-6.485,4.685-1.609,1.135-3.272,2.309-4.885,3.491a.208.208,0,1,1-.246-.335c1.616-1.186,3.281-2.36,4.891-3.5,2.151-1.518,4.377-3.088,6.473-4.677,2.928-2.219,6.053-4.385,9.075-6.48a169.014,169.014,0,0,0,14.028-10.46c1.108-.956,2.232-2.081,3.423-3.272,3.6-3.6,7.679-7.683,12.682-8.226a15.92,15.92,0,0,1,11.888,3.989c1.659,1.446,4.654,4.331,6.076,7.413a6.35,6.35,0,0,1,.74,2.633,5.247,5.247,0,0,1-.911,2.593,141.034,141.034,0,0,1-33.044,39c-7.981,6.516-14.741,11.05-21.276,14.272C987.586,2140.254,984.24,2141.224,981.421,2141.224Z" transform="translate(-958.669 -2068.31)" fill="#100052"/>
            </g>
            <g id="Group_17432" data-name="Group 17432" transform="translate(165.736 170.997)">
              <path id="Path_15153" data-name="Path 15153" d="M973.71,2018.963a5.435,5.435,0,0,1-.311,3.306,73.982,73.982,0,0,1-5.7,13.206" transform="translate(-967.485 -2018.755)" fill="#2a7195"/>
              <path id="Path_15154" data-name="Path 15154" d="M967.426,2035.415a.208.208,0,0,1-.182-.309,73.818,73.818,0,0,0,5.69-13.169,5.26,5.26,0,0,0,.311-3.177.208.208,0,1,1,.4-.13,5.593,5.593,0,0,1-.311,3.434,74.3,74.3,0,0,1-5.721,13.243A.208.208,0,0,1,967.426,2035.415Z" transform="translate(-967.218 -2018.487)" fill="#100052"/>
            </g>
            <g id="Group_17433" data-name="Group 17433" transform="translate(82.167 86.989)">
              <path id="Path_15155" data-name="Path 15155" d="M825.415,1837.192a40.98,40.98,0,0,1,1.161,6.96c.327,3.3.157,12.316,3.683,14.011a6.793,6.793,0,0,0,2.444.524c3.239.25,5.678-.274,5.9,3.874.329,6.022-5.8,14.45-10.469,17.774a25.65,25.65,0,0,1-6.2,3.073c-8.358,3.031-17.741,3.839-26.141.926a29.113,29.113,0,0,1-14.317-11.128,31.487,31.487,0,0,1-3.859-8.326c-1.066-3.333-1.54-4.881,2.569-5.906l4.148-1.035a12.518,12.518,0,0,0,4.074-1.54c2.923-1.981,2.528-6.521,2.726-9.624.227-3.55.513-7.253,2.453-10.346,1.742-2.777,4.592-4.673,7.523-6.141,7.285-3.652,17.719-5.718,22.554,2.652A18.264,18.264,0,0,1,825.415,1837.192Z" transform="translate(-776.677 -1826.917)" fill="#b27344"/>
              <path id="Path_15156" data-name="Path 15156" d="M806.731,1886.112a34.345,34.345,0,0,1-11.264-1.82,29.239,29.239,0,0,1-14.42-11.208,31.305,31.305,0,0,1-3.885-8.379c-.617-1.932-1.064-3.327-.472-4.391.441-.79,1.423-1.339,3.188-1.779l4.148-1.035a12.289,12.289,0,0,0,4.008-1.51c2.373-1.608,2.478-4.947,2.571-7.892.017-.55.034-1.08.066-1.573.206-3.216.462-7.22,2.484-10.443,1.5-2.393,3.918-4.368,7.606-6.217,7.965-3.993,18.145-5.372,22.825,2.734a18.37,18.37,0,0,1,1.763,4.3,41.228,41.228,0,0,1,1.168,6.995c.055.556.1,1.262.142,2.08.223,3.892.6,10.406,3.424,11.765a6.628,6.628,0,0,0,2.37.5c.431.033.848.052,1.246.071,2.594.121,4.642.217,4.849,4,.34,6.224-5.919,14.652-10.556,17.954a26.4,26.4,0,0,1-6.245,3.1A44.233,44.233,0,0,1,806.731,1886.112Zm5.951-59.015a27.186,27.186,0,0,0-11.737,3.138c-3.617,1.813-5.981,3.741-7.441,6.067-1.966,3.135-2.208,6.915-2.421,10.25-.031.49-.048,1.015-.065,1.56-.091,2.894-.2,6.5-2.752,8.222a12.8,12.8,0,0,1-4.141,1.569l-4.147,1.035c-1.644.41-2.546.9-2.926,1.579-.505.907-.081,2.231.5,4.063a30.937,30.937,0,0,0,3.833,8.273A28.829,28.829,0,0,0,795.6,1883.9c7.73,2.681,16.966,2.353,26-.925a24.9,24.9,0,0,0,6.146-3.047c4.452-3.17,10.71-11.6,10.383-17.594-.187-3.407-1.885-3.486-4.455-3.606-.4-.019-.824-.038-1.259-.072a6.981,6.981,0,0,1-2.518-.543c-3.047-1.466-3.415-7.874-3.658-12.115-.046-.813-.087-1.515-.141-2.062a40.784,40.784,0,0,0-1.154-6.924h0a17.927,17.927,0,0,0-1.723-4.206C820.841,1828.675,816.959,1827.1,812.682,1827.1Z" transform="translate(-776.411 -1826.68)" fill="#100052"/>
            </g>
            <g id="Group_17434" data-name="Group 17434" transform="translate(74.837 29.959)">
              <path id="Path_15157" data-name="Path 15157" d="M761.5,1700.012c-4.731,21.337,3.184,51.357,17.348,67.885,5.413,6.317,13.754,12.919,22.031,12.091,5.078-.509,11.136-4.905,15.281-7.837,4.654-3.291,8.2-8.51,11-13.466,4.964-8.816,5.855-18.474,7.591-28.185.916-5.126-.03-11.26-.217-16.463a145.31,145.31,0,0,0-1.479-17.12" transform="translate(-759.931 -1696.72)" fill="#b27344"/>
              <path id="Path_15158" data-name="Path 15158" d="M799.176,1780c-9.213,0-17.488-8.448-20.729-12.231-6.908-8.062-12.52-19.5-15.8-32.218-3.308-12.817-3.872-25.544-1.59-35.837a.2.2,0,1,1,.382.085c-4.694,21.17,2.908,50.914,17.306,67.715,3.2,3.739,11.38,12.093,20.429,12.094q.714,0,1.434-.072c4.856-.486,10.583-4.541,14.763-7.5l.424-.3c3.845-2.72,7.32-6.979,10.938-13.4,4.124-7.325,5.4-15.086,6.753-23.3.26-1.579.528-3.211.817-4.822.656-3.672.351-7.848.056-11.887-.115-1.584-.224-3.08-.277-4.534a144.159,144.159,0,0,0-1.476-17.1.2.2,0,0,1,.164-.224.2.2,0,0,1,.223.164,144.67,144.67,0,0,1,1.481,17.144c.052,1.446.161,2.939.276,4.519.3,4.063.6,8.264-.062,11.985-.287,1.607-.555,3.239-.815,4.815-1.358,8.252-2.64,16.046-6.8,23.431-3.647,6.477-7.159,10.776-11.054,13.531l-.424.3c-4.216,2.985-9.991,7.074-14.95,7.571Q799.908,1780,799.176,1780Z" transform="translate(-759.677 -1696.469)" fill="#100052"/>
            </g>
            <g id="Group_17435" data-name="Group 17435" transform="translate(66.01)">
              <path id="Path_15159" data-name="Path 15159" d="M822.94,1679.806c5.212.755,8.216-7.188,8.371-11.774.384-11.365-3.717-24.786-13.57-31.178-4.765-3.091-10.258-4.882-15.786-6.184-12.633-2.974-26.31-3.463-38.238,1.65a37.092,37.092,0,0,0-19.212,18.473c-3.642,8.184-6.513,18.913-3.066,27.538,9.342,23.374,49.283-4.766,60.434-13.94,1.207-.994,2.954-2.04,4.183-1.072a3.58,3.58,0,0,1,.839,1.153,39.3,39.3,0,0,0,13.514,14.342A6.544,6.544,0,0,0,822.94,1679.806Z" transform="translate(-739.728 -1628.28)" fill="#100052"/>
              <path id="Path_15160" data-name="Path 15160" d="M755.067,1687.337a18.52,18.52,0,0,1-4.611-.544c-4.374-1.122-7.523-4.022-9.361-8.62-3.612-9.039-.325-20.026,3.069-27.652a37.094,37.094,0,0,1,19.289-18.548c10.675-4.576,23.571-5.134,38.33-1.658,6.715,1.581,11.745,3.552,15.832,6.2,10.615,6.886,13.98,21.169,13.638,31.307-.117,3.446-1.729,8.353-4.488,10.661a5.019,5.019,0,0,1-4.052,1.254h0a6.734,6.734,0,0,1-2.588-1.013,39.348,39.348,0,0,1-13.565-14.4,3.471,3.471,0,0,0-.8-1.108c-1.138-.9-2.8.087-4,1.07a151.613,151.613,0,0,1-23.132,15.463C769.172,1684.8,761.275,1687.337,755.067,1687.337Zm28.691-58.976a50.819,50.819,0,0,0-20.189,3.882,36.8,36.8,0,0,0-19.135,18.4c-3.371,7.574-6.638,18.48-3.064,27.423,1.8,4.506,4.883,7.347,9.16,8.444,14.331,3.674,39.654-13.074,51.044-22.445,1.834-1.507,3.344-1.879,4.368-1.073a3.6,3.6,0,0,1,.859,1.166,39.076,39.076,0,0,0,13.481,14.32,6.427,6.427,0,0,0,2.474.971,4.734,4.734,0,0,0,3.819-1.188c2.6-2.171,4.267-7.015,4.383-10.444.34-10.062-2.992-24.231-13.5-31.05-4.058-2.632-9.059-4.591-15.74-6.164A78.543,78.543,0,0,0,783.759,1628.361Z" transform="translate(-739.523 -1628.066)" fill="#100052"/>
            </g>
            <g id="Group_17436" data-name="Group 17436" transform="translate(146.658 53.798)">
              <path id="Path_15161" data-name="Path 15161" d="M925.508,1753.75c2.34-3.038,5.36-3.241,8.087-.5,2.58,2.594,3.193,6.733,2.117,10.231a17.51,17.51,0,0,1-6.549,8.578c-1.48,1.1-3.533,2.06-5.078,1.052" transform="translate(-923.899 -1751.138)" fill="#b27344"/>
              <path id="Path_15162" data-name="Path 15162" d="M925.333,1773.486a2.845,2.845,0,0,1-1.589-.46.187.187,0,0,1-.055-.259.189.189,0,0,1,.259-.054c1.606,1.049,3.737-.205,4.864-1.045a17.541,17.541,0,0,0,6.482-8.483,10.114,10.114,0,0,0-2.071-10.044,4.682,4.682,0,0,0-7.806.484.185.185,0,0,1-.262.034.187.187,0,0,1-.034-.262,5.048,5.048,0,0,1,8.368-.519,10.49,10.49,0,0,1,2.163,10.418,17.911,17.911,0,0,1-6.616,8.673A6.8,6.8,0,0,1,925.333,1773.486Z" transform="translate(-923.659 -1750.899)" fill="#100052"/>
            </g>
            <g id="Group_17437" data-name="Group 17437" transform="translate(72.848 58.31)">
              <path id="Path_15163" data-name="Path 15163" d="M765.662,1763.649c-2.631-2.79-5.657-2.69-8.1.308-2.309,2.838-2.505,7.018-1.087,10.39a17.507,17.507,0,0,0,7.372,7.882c1.582.949,3.721,1.7,5.158.54" transform="translate(-755.386 -1761.441)" fill="#b27344"/>
              <path id="Path_15164" data-name="Path 15164" d="M766.978,1783.307a7.283,7.283,0,0,1-3.476-1.159,17.917,17.917,0,0,1-7.448-7.969,10.491,10.491,0,0,1,1.114-10.582,5.711,5.711,0,0,1,4.115-2.393,5.642,5.642,0,0,1,4.263,2.075.187.187,0,0,1-.272.257,4.682,4.682,0,0,0-7.816.3,10.113,10.113,0,0,0-1.059,10.2,17.54,17.54,0,0,0,7.3,7.794c1.206.724,3.451,1.757,4.944.555a.187.187,0,1,1,.234.291A2.935,2.935,0,0,1,766.978,1783.307Z" transform="translate(-755.134 -1761.199)" fill="#100052"/>
            </g>
            <g id="Group_17444" data-name="Group 17444" transform="translate(35.159 42.412)">
              <g id="Group_17438" data-name="Group 17438" transform="translate(0 52.437)">
                <path id="Path_15165" data-name="Path 15165" d="M669.911,1879.926l18.064-30.2s14.938-9.379,17.153-1.421-1.312,12.022-1.312,12.022l-7.055,31.756-27.206-11.3Z" transform="translate(-669.348 -1844.893)" fill="#b27344"/>
                <path id="Path_15166" data-name="Path 15166" d="M696.5,1892.021a.21.21,0,0,1-.08-.016l-27.206-11.3a.207.207,0,0,1-.112-.27l.356-.857a.169.169,0,0,1,.014-.026l18.064-30.2a.2.2,0,0,1,.067-.069c.4-.254,9.952-6.191,14.892-4.279a4.19,4.19,0,0,1,2.571,2.977c2.128,7.642-.932,11.7-1.32,12.172l-7.045,31.706a.205.205,0,0,1-.2.162ZM669.56,1880.4l26.787,11.126,7-31.515a.212.212,0,0,1,.046-.091c.035-.04,3.426-4.086,1.27-11.831a3.8,3.8,0,0,0-2.322-2.7c-4.584-1.776-13.779,3.786-14.481,4.217l-18.031,30.144Z" transform="translate(-669.083 -1844.625)" fill="#100052"/>
              </g>
              <g id="Group_17439" data-name="Group 17439" transform="translate(16.489 23.073)">
                <path id="Path_15167" data-name="Path 15167" d="M707.2,1814.994l13.44-30.288,1.639-3.433s7.646-4.163,10.979-3.019,7,14.869,4.587,17.041c0,0-2.346,18.923-12.878,23.831" transform="translate(-706.996 -1777.848)" fill="#b27344"/>
                <path id="Path_15168" data-name="Path 15168" d="M724.7,1819.067a.207.207,0,0,1-.088-.395c10.307-4.8,12.737-23.481,12.76-23.669a.209.209,0,0,1,.067-.128c.852-.768.943-3.391.237-6.847-.887-4.342-2.907-9.211-4.752-9.844-3.056-1.051-10.041,2.594-10.755,2.974l-1.61,3.371-13.437,30.282a.207.207,0,1,1-.378-.167l13.44-30.288,1.641-3.438a.206.206,0,0,1,.088-.093c.315-.172,7.763-4.194,11.145-3.033,2.06.707,4.125,5.758,5.023,10.153.353,1.729,1.021,5.854-.308,7.183-.178,1.306-2.807,19.175-12.986,23.919A.207.207,0,0,1,724.7,1819.067Z" transform="translate(-706.73 -1777.583)" fill="#100052"/>
              </g>
              <g id="Group_17440" data-name="Group 17440" transform="translate(29.604)">
                <path id="Path_15169" data-name="Path 15169" d="M748.96,1748.577c2.706-6.805,8.834-13.856,10.261-18.417s-1.995-4.314-1.995-4.314.178-2.78-5.444,5.234-14.633,24.65-14.633,24.65" transform="translate(-736.942 -1725.17)" fill="#b27344"/>
                <path id="Path_15170" data-name="Path 15170" d="M736.883,1755.668a.208.208,0,0,1-.182-.305c.09-.167,9.082-16.739,14.647-24.67,3.873-5.522,4.972-5.937,5.467-5.76a.548.548,0,0,1,.337.437,2.473,2.473,0,0,1,1.844.858c.629.8.682,2.049.157,3.726-.7,2.248-2.555,5.124-4.515,8.169a63.827,63.827,0,0,0-5.751,10.262.207.207,0,1,1-.385-.153,64.079,64.079,0,0,1,5.788-10.333c1.944-3.021,3.781-5.874,4.468-8.069.48-1.537.452-2.661-.085-3.343a2.172,2.172,0,0,0-1.7-.7.223.223,0,0,1-.16-.06.207.207,0,0,1-.061-.16c0-.075-.018-.221-.077-.241-.139-.048-1.05-.01-4.991,5.607-5.551,7.913-14.531,24.463-14.621,24.629A.208.208,0,0,1,736.883,1755.668Z" transform="translate(-736.676 -1724.902)" fill="#100052"/>
              </g>
              <g id="Group_17441" data-name="Group 17441" transform="translate(41.425 19.985)">
                <path id="Path_15171" data-name="Path 15171" d="M764.14,1774.328s10.73-3.847,12.4-3.275,7.263,10.7,7.263,10.7-.711,11.119-3.479,10.012-2.678-2.5-1.906-5.7a31.183,31.183,0,0,0,.832-4.133l-3.185-3.46s-6.814.03-9.759,1.7" transform="translate(-763.932 -1770.792)" fill="#b27344"/>
                <path id="Path_15172" data-name="Path 15172" d="M780.436,1791.789a1.233,1.233,0,0,1-.458-.094c-2.872-1.149-2.832-2.619-2.03-5.945a37.175,37.175,0,0,0,.818-4.013l-3.06-3.324c-.816.012-6.885.151-9.568,1.674a.207.207,0,1,1-.2-.36c2.959-1.679,9.58-1.727,9.861-1.729a.213.213,0,0,1,.153.067l3.185,3.46a.206.206,0,0,1,.054.153,30.955,30.955,0,0,1-.837,4.168c-.773,3.21-.812,4.426,1.782,5.464a.736.736,0,0,0,.708-.063c1.577-1,2.322-7.287,2.483-9.71-1.57-2.836-5.823-10.106-7.12-10.55-1.313-.45-9.295,2.211-12.261,3.274a.207.207,0,1,1-.14-.39c1.105-.4,10.849-3.855,12.534-3.276s6.8,9.751,7.377,10.795a.207.207,0,0,1,.026.113c-.023.358-.584,8.771-2.679,10.094A1.16,1.16,0,0,1,780.436,1791.789Z" transform="translate(-763.666 -1770.531)" fill="#100052"/>
              </g>
              <g id="Group_17442" data-name="Group 17442" transform="translate(42.319 23.764)">
                <path id="Path_15173" data-name="Path 15173" d="M766.18,1782.956s10.731-3.847,12.4-3.276,7.263,10.7,7.263,10.7-.711,11.119-3.479,10.012-2.679-2.5-1.906-5.7a31.184,31.184,0,0,0,.832-4.134l-2.976-2.284s-6.517-.185-9.7.775" transform="translate(-765.972 -1779.42)" fill="#b27344"/>
                <path id="Path_15174" data-name="Path 15174" d="M782.477,1800.416a1.214,1.214,0,0,1-.459-.094c-2.872-1.149-2.832-2.618-2.03-5.944a38.041,38.041,0,0,0,.816-3.991l-2.831-2.173c-.7-.015-6.625-.118-9.568.768a.2.2,0,0,1-.258-.138.207.207,0,0,1,.138-.258c3.179-.958,9.5-.791,9.766-.784a.206.206,0,0,1,.12.043l2.976,2.284a.206.206,0,0,1,.08.177,30.972,30.972,0,0,1-.838,4.168c-.773,3.21-.812,4.426,1.782,5.464a.736.736,0,0,0,.709-.064c1.578-1,2.322-7.286,2.482-9.708-1.57-2.836-5.823-10.106-7.12-10.55-1.313-.451-9.295,2.211-12.26,3.274a.207.207,0,1,1-.14-.39c1.106-.4,10.852-3.856,12.535-3.277s6.8,9.751,7.377,10.795a.208.208,0,0,1,.026.113c-.023.358-.584,8.771-2.679,10.093A1.16,1.16,0,0,1,782.477,1800.416Z" transform="translate(-765.706 -1779.159)" fill="#100052"/>
              </g>
              <g id="Group_17443" data-name="Group 17443" transform="translate(44.751 30.908)">
                <path id="Path_15175" data-name="Path 15175" d="M771.732,1798.218l8.093-2.274s5.506,2.678,6.547,4.14-2.884,9.584-2.884,9.584-3.958-.253-4.375-2.606a4.979,4.979,0,0,1,1.4-4.1l2.321-.782s-5.832,2.418-8.688,2.7" transform="translate(-771.525 -1795.737)" fill="#b27344"/>
                <path id="Path_15176" data-name="Path 15176" d="M783.222,1809.611h-.013c-.168-.01-4.125-.292-4.565-2.776a4.8,4.8,0,0,1,.834-3.515,28.03,28.03,0,0,1-5.579,1.506.212.212,0,0,1-.226-.186.207.207,0,0,1,.185-.227,30.593,30.593,0,0,0,6.1-1.709c.08-.089.134-.141.146-.153a.207.207,0,0,1,.078-.047l2.321-.782a.207.207,0,0,1,.145.387c-.1.041-1.1.454-2.447.949a4.675,4.675,0,0,0-1.146,3.7c.342,1.927,3.362,2.352,4.047,2.423,1.548-3.227,3.542-8.259,2.839-9.246-.937-1.315-5.756-3.723-6.4-4.039l-8.017,2.252a.207.207,0,0,1-.112-.4l8.093-2.273a.2.2,0,0,1,.147.013c.227.111,5.565,2.719,6.625,4.207,1.082,1.518-2.458,8.952-2.866,9.795A.208.208,0,0,1,783.222,1809.611Z" transform="translate(-771.258 -1795.471)" fill="#100052"/>
              </g>
            </g>
            <g id="Group_17445" data-name="Group 17445" transform="translate(0 117.276)">
              <path id="Path_15177" data-name="Path 15177" d="M625.536,1989.189a184.8,184.8,0,0,0,13.972-27.011c4.951-11.83,7.489-25.264,11.554-37.677,1.564-4.776,4.945-11.965,4.423-17.125-.716-7.084-12.926-10.073-18.778-10.934a6.163,6.163,0,0,0-3.01.1,6.317,6.317,0,0,0-2.479,2.076,199.479,199.479,0,0,0-33.1,56.354c-3.828,9.937-11.211,23.658-8.114,34.458,6.14,21.414,24.985,24.712,39.876,16.172" transform="translate(-589.065 -1896.098)" fill="#feca84"/>
              <path id="Path_15178" data-name="Path 15178" d="M614.139,2009.91a24.435,24.435,0,0,1-9.212-1.751c-7.365-2.989-12.684-9.537-15.379-18.94-2.575-8.977,2.1-20.112,5.858-29.058.819-1.95,1.592-3.792,2.262-5.531a198.962,198.962,0,0,1,33.133-56.413,4.99,4.99,0,0,1,5.679-2.249c3.023.444,18.14,3.068,18.955,11.119.408,4.04-1.57,9.37-3.16,13.654-.473,1.275-.92,2.479-1.273,3.557-1.575,4.809-2.944,9.857-4.268,14.739-2.092,7.718-4.256,15.7-7.292,22.954a185.162,185.162,0,0,1-13.988,27.041.208.208,0,1,1-.352-.221,184.8,184.8,0,0,0,13.956-26.98c3.025-7.229,5.186-15.2,7.275-22.9,1.325-4.887,2.7-9.941,4.273-14.759.356-1.086.8-2.293,1.278-3.572,1.575-4.243,3.535-9.524,3.136-13.468-.783-7.744-15.633-10.313-18.6-10.75a6.009,6.009,0,0,0-2.908.09,6.092,6.092,0,0,0-2.392,2.015,198.531,198.531,0,0,0-33.064,56.3c-.672,1.745-1.447,3.59-2.267,5.542-3.732,8.887-8.375,19.946-5.842,28.783,2.659,9.275,7.893,15.73,15.136,18.668,7.4,3,16.3,2.047,24.437-2.62a.208.208,0,1,1,.207.361A31.519,31.519,0,0,1,614.139,2009.91Z" transform="translate(-588.808 -1895.83)" fill="#100052"/>
            </g>
          </g>
        </g>
        <path id="Path_15179" data-name="Path 15179" d="M792.3,1754.691a1.475,1.475,0,0,1-.888-2.653c4.062-3.056,9.745-3.93,16.888-2.6a1.475,1.475,0,0,1-.542,2.9c-6.3-1.176-11.2-.485-14.573,2.054A1.472,1.472,0,0,1,792.3,1754.691Z" transform="translate(-626.938 -1621.694)" fill="#100052"/>
        <path id="Path_15180" data-name="Path 15180" d="M884.839,1741.424a1.473,1.473,0,0,1-1.176-.583c-2.364-3.113-4.26-4.661-5.97-4.872-2.017-.248-4.39,1.28-7.8,4.01a1.475,1.475,0,1,1-1.844-2.3c3.473-2.783,6.624-5.053,10-4.636,2.586.32,5.04,2.175,7.957,6.016a1.475,1.475,0,0,1-1.173,2.367Z" transform="translate(-670.031 -1612.79)" fill="#100052"/>
        <ellipse id="Ellipse_359" data-name="Ellipse 359" cx="2.37" cy="2.987" rx="2.37" ry="2.987" transform="translate(202.707 138.506) rotate(-89.573)" fill="#100052"/>
        <ellipse id="Ellipse_360" data-name="Ellipse 360" cx="2.37" cy="2.987" rx="2.37" ry="2.987" transform="translate(172.14 138.506) rotate(-89.573)" fill="#100052"/>
        <path id="Path_15181" data-name="Path 15181" d="M842.859,1809.121a7.12,7.12,0,0,0,1.682-.046,3.418,3.418,0,0,0,2.319-1.178,2.147,2.147,0,0,1,.618-.736,3.457,3.457,0,0,1-.757,2.857c-1.675,1.992-5.048,1.575-6.855.04-.331-.281-2.385-2.5-1.256-2.738.225-.048.974.688,1.195.82a7.1,7.1,0,0,0,1.482.664A7.337,7.337,0,0,0,842.859,1809.121Z" transform="translate(-653.605 -1654.474)" fill="#e2a383" opacity="0.44" style="mix-blend-mode: multiply;isolation: isolate"/>
        <path id="Path_15182" data-name="Path 15182" d="M846.55,1834.355c-3.5.52-11.062,1.416-16.266.424a.188.188,0,0,1,.022-.374c3.076-.159,10.86-.521,16.21-.423A.188.188,0,0,1,846.55,1834.355Z" transform="translate(-649.021 -1669.539)" fill="#100052"/>
        <path id="Path_15183" data-name="Path 15183" d="M846.351,1843.85a9.009,9.009,0,0,1-2.228-.263.5.5,0,0,1,.267-.965,8.43,8.43,0,0,0,4-.04.5.5,0,0,1,.268.966A8.669,8.669,0,0,1,846.351,1843.85Z" transform="translate(-656.686 -1674.371)" fill="#e2a383" opacity="0.44" style="mix-blend-mode: multiply;isolation: isolate"/>
      </g>
    </g>
    <g id="Group_17449" data-name="Group 17449" transform="translate(477.853 1550.796)">
      <path id="Path_15185" data-name="Path 15185" d="M568.884,1683.347c3.431-1.065,5.442-5.087,8.991-5.56,4.5,3.786,7.808,10.765,14.669,9.819a2.832,2.832,0,0,0,1.775-1.538,24.1,24.1,0,0,0,1.225-2.264c-1.633-8.353-8.628-14.632-17.01-14.632a17.019,17.019,0,0,0-13.661,7.024c.16,1.169.357,2.333.58,3.485C565.689,1681.217,566.044,1684.056,568.884,1683.347Z" transform="translate(-561.164 -1669.171)" fill="url(#linear-gradient-15)"/>
      <path id="Path_15186" data-name="Path 15186" d="M589.559,1695.081a2.831,2.831,0,0,1-1.775,1.538c-6.861.946-10.174-6.034-14.669-9.819-3.549.473-5.56,4.5-8.991,5.56-2.84.709-3.194-2.129-3.431-3.668-.223-1.152-.42-2.315-.58-3.484a18.973,18.973,0,0,0-3.709,11.348c0,10.147,7.777,18.372,17.37,18.372s17.37-8.225,17.37-18.372a19.493,19.493,0,0,0-.36-3.74A24.054,24.054,0,0,1,589.559,1695.081Z" transform="translate(-556.405 -1678.184)" fill="url(#linear-gradient-16)"/>
    </g>
  </g>
</svg>
