<svg xmlns="http://www.w3.org/2000/svg" xmlns:xlink="http://www.w3.org/1999/xlink" width="450.321" height="404.77" viewBox="0 0 450.321 404.77">
  <defs>
    <linearGradient id="linear-gradient" x1="0.765" y1="-0.696" x2="1.188" y2="0.582" gradientUnits="objectBoundingBox">
      <stop offset="0" stop-color="#2a7195"/>
      <stop offset="1" stop-color="#060c39"/>
    </linearGradient>
    <linearGradient id="linear-gradient-2" x1="0.936" y1="-0.046" x2="0.687" y2="-1.651" xlink:href="#linear-gradient"/>
    <linearGradient id="linear-gradient-3" x1="0.713" y1="-0.573" x2="0.336" y2="1.476" gradientUnits="objectBoundingBox">
      <stop offset="0" stop-color="#ff9077"/>
      <stop offset="1" stop-color="#e9645a"/>
    </linearGradient>
    <linearGradient id="linear-gradient-4" x1="0.516" y1="0.293" x2="0.373" y2="1.104" xlink:href="#linear-gradient-3"/>
    <linearGradient id="linear-gradient-5" x1="-9.643" y1="72.363" x2="-9.638" y2="72.363" xlink:href="#linear-gradient"/>
    <linearGradient id="linear-gradient-6" x1="-9.638" y1="177.92" x2="-9.638" y2="177.736" xlink:href="#linear-gradient"/>
    <linearGradient id="linear-gradient-7" x1="-68.947" y1="58.645" x2="-68.949" y2="58.587" gradientUnits="objectBoundingBox">
      <stop offset="0" stop-color="#4fa5ad"/>
      <stop offset="1" stop-color="#99cbcf"/>
    </linearGradient>
    <linearGradient id="linear-gradient-8" x1="-59.983" y1="36.679" x2="-59.98" y2="36.642" xlink:href="#linear-gradient-7"/>
    <linearGradient id="linear-gradient-9" x1="-64.369" y1="407.459" x2="-64.439" y2="410.278" xlink:href="#linear-gradient-7"/>
    <linearGradient id="linear-gradient-10" x1="-19.241" y1="90.804" x2="-19.23" y2="90.804" gradientUnits="objectBoundingBox">
      <stop offset="0" stop-color="#faebd8"/>
      <stop offset="1" stop-color="#ffb83f"/>
    </linearGradient>
    <linearGradient id="linear-gradient-11" x1="-19.241" y1="263.554" x2="-19.23" y2="263.554" xlink:href="#linear-gradient-10"/>
  </defs>
  <g id="Group_17527" data-name="Group 17527" transform="translate(2567.658 1992.174)">
    <g id="Group_17521" data-name="Group 17521">
      <path id="Path_15312" data-name="Path 15312" d="M-2263.1-1817.686c-20.545,36.819-41.486,68.145-67.92,99.866-17.415,18.923-41.9,31.728-67.088,34.644-32.884,3.469-66.4-1.852-94.429-23.029-25.487-19.1-48.906-40.78-67.814-65.3-12.342,33.86-8.956,76.754,9.434,109.409,28.427,50.479,85.117,63.046,110.405,68.651,119.91,26.58,294.312-35.978,319.975-159.867,10.617-51.257-7.313-98.1-22.789-126.8C-2190.891-1875.2-2238.722-1863.546-2263.1-1817.686Z" fill="url(#linear-gradient)"/>
      <path id="Path_15313" data-name="Path 15313" d="M-2308.47-1992.167c-53.252-.5-111.533,25.681-140.676,69.128-19.827,29.558-17.594,54.325-50.192,87.733-23.656,24.244-32.923,19.492-47.449,38.568a95.554,95.554,0,0,0-13.563,25.234c18.908,24.519,42.327,46.2,67.814,65.3,28.029,21.177,61.545,26.5,94.429,23.029,25.192-2.916,49.673-15.721,67.088-34.644,26.434-31.721,47.375-63.047,67.92-99.866,24.377-45.86,72.208-57.513,119.774-62.422a230.946,230.946,0,0,0-17.169-27.277C-2170.566-1921.047-2222.4-1991.359-2308.47-1992.167Z" fill="url(#linear-gradient-2)"/>
    </g>
    <path id="Path_15314" data-name="Path 15314" d="M-2530.178-1929.488c5.559-1.725,8.817-8.242,14.568-9.009,7.284,6.134,12.651,17.443,23.768,15.909a4.579,4.579,0,0,0,2.875-2.492,38.975,38.975,0,0,0,1.986-3.668c-2.646-13.535-13.98-23.709-27.56-23.709a27.574,27.574,0,0,0-22.135,11.381c.26,1.894.578,3.779.939,5.646C-2535.353-1932.938-2534.778-1928.338-2530.178-1929.488Z" fill="url(#linear-gradient-3)"/>
    <path id="Path_15315" data-name="Path 15315" d="M-2488.967-1925.08a4.579,4.579,0,0,1-2.875,2.492c-11.117,1.534-16.484-9.775-23.768-15.909-5.751.767-9.009,7.284-14.568,9.009-4.6,1.15-5.175-3.45-5.559-5.942-.361-1.867-.679-3.752-.939-5.646a30.739,30.739,0,0,0-6.009,18.387c0,16.44,12.6,29.768,28.144,29.768s28.144-13.328,28.144-29.768a31.612,31.612,0,0,0-.584-6.059A38.975,38.975,0,0,1-2488.967-1925.08Z" fill="url(#linear-gradient-4)"/>
    <g id="Group_17526" data-name="Group 17526">
      <path id="Path_15316" data-name="Path 15316" d="M-2434.415-1874.684c-6.862,8.7-9.166,19.91-9.735,30.767s.4,21.777-.806,32.586c-1.457,13.079-1.5,31.374-8.919,42.482,12.514-1.31,20.43-4.156,33-3.413a242.243,242.243,0,0,0,25.661-.3c15.016-.706,30.306-1.464,44.4-6.427a7.478,7.478,0,0,0,3.948-2.477,6.544,6.544,0,0,0,.815-3.473c.136-4.5-10.294-78.083-13.242-84.027-3.625-7.307-11.9-14.126-19.4-17.935-9.258-4.7-20.6-4.745-30.547-2.574a58.124,58.124,0,0,0-13.573,4.374C-2427.871-1882.587-2431.074-1878.922-2434.415-1874.684Z" fill="#100052"/>
      <path id="Path_15317" data-name="Path 15317" d="M-2333.255-1625.214a251.024,251.024,0,0,0-7.215-30.327c-2.68-8.8-6.9-16.831-7.033-26.047-.28-19.2.806-38.567,6.051-57.126,3.19-11.287,3.168-27.214-2.61-37.849-4.711-8.671-19.777-6.935-27.3-12.818-2.214-1.73-17.887,2.576-21.14,2.973-6.6.806-11.915-4.241-18.257-2.248-8.747,2.749-24.737,2.351-32.882,6.923-8.346,4.685-1.924,11.787-2.183,19.963a136.6,136.6,0,0,1-3.792,27.921c-1.076,4.423-2.379,8.823-2.751,13.365-.628,7.7,2.48,16.074,4.705,23.313,2.8,9.113,4.026,16.937,3.334,26.563a206.013,206.013,0,0,1-8.524,45.629C-2453.875-1602.748-2340.041-1593.8-2333.255-1625.214Z" fill="#feca84"/>
      <g id="Group_17523" data-name="Group 17523">
        <path id="Path_15318" data-name="Path 15318" d="M-2357.324-1776.8c3.467,9.079-8.33,17.353-15.227,19.667a52.9,52.9,0,0,1-26.6,1.512,50.813,50.813,0,0,1-29.8-18.569c-1.6-2.077-1.075-6.511.33-8.661a4.707,4.707,0,0,1,1.671-1.457c3.255-1.875,7-1.936,10.591-2.546,4.776-.815,8.815-4.85,13.72-6.208q.944-.261,1.9-.483a46.056,46.056,0,0,1,16.4-.836c9.374,1.223,17.3,10.227,25.3,15.743A4.179,4.179,0,0,1-2357.324-1776.8Z" fill="#b27344" stroke="#100052" stroke-linecap="round" stroke-linejoin="round" stroke-width="0.5"/>
        <path id="Path_15319" data-name="Path 15319" d="M-2411.255-1781.081c1-6.994,1.9-14.172,2.336-21.257.412-6.776-2.551-16.408,3.555-21.355a11.376,11.376,0,0,1,4.775-1.949c11.518-2.589,18.845-.089,27.541,7.829,1.906,1.735,3.9,3.721,4.205,6.281.265,2.246-.844,4.392-1.72,6.477-3.626,8.634-4.025,19.3-2.5,28.426" fill="#b27344" stroke="#100052" stroke-linecap="round" stroke-linejoin="round" stroke-width="0.5"/>
        <g id="Group_17522" data-name="Group 17522">
          <path id="Path_15320" data-name="Path 15320" d="M-2353.435-1826.187c.432,12.7-.771,30.88-16.938,29.948-13.961-.8-24.358-3.3-34.1-14.133a41.554,41.554,0,0,1-9.034-16.266,36.759,36.759,0,0,1-1.288-11.624c.289-12.333,4.135-25.151,13.225-33.495,8.409-7.719,18.354-8.021,27.04-.731C-2360.391-1860.619-2354.05-1844.23-2353.435-1826.187Z" fill="#b27344" stroke="#100052" stroke-linecap="round" stroke-linejoin="round" stroke-width="0.5"/>
          <path id="Path_15321" data-name="Path 15321" d="M-2395.05-1842.589l-.2.1c-1.754.82-3.293,2.131-5,3.094a57.891,57.891,0,0,0-6.471,3.714,11.847,11.847,0,0,0-4.5,6.27c-1.048,3.972,1.518,7.6,2.868,11.189,2.161,5.741-5.145,7.062-9.092,5.574-16.936-6.384-28.545-26.379-24.767-44.189,2.221-10.468,7.8-20.588,16.4-26.952,6.389-4.725,14.887-7.222,22.672-8.839a43.827,43.827,0,0,1,24.382,2.091,29.864,29.864,0,0,1,3.96,1.7,38.846,38.846,0,0,1,6.817,5.045c3.619,3.112,5.7,6.912,7.407,11.329q1.119,2.9,2.064,5.871a18.836,18.836,0,0,1,1.2,6.843c-.1,1.6-.826,4.194-2.193,5.2-1.767,1.3-3.9-2.087-4.95-3.389-2.615-3.249-5.279-6.46-8.023-9.6q-2.058-2.355-4.179-4.653c-.959-1.036-2.274-3.231-3.914-3.087-1.912.167-1.124,3.371-1.153,4.6a46.384,46.384,0,0,1-.609,6.452,45.806,45.806,0,0,1-3.878,12.333,22.2,22.2,0,0,1-4.077,6.145A15.951,15.951,0,0,1-2395.05-1842.589Z" fill="#100052"/>
          <path id="Path_15322" data-name="Path 15322" d="M-2407.96-1829.808c-3.555-2.5-9.909-2.834-11.536,2.132-1.112,3.393.9,7.69,3.008,10.285,2.978,3.668,7.96,4.942,10.214-.147" fill="#b27344" stroke="#100052" stroke-linecap="round" stroke-linejoin="round" stroke-width="0.5"/>
        </g>
      </g>
      <g id="Group_17524" data-name="Group 17524">
        <path id="Path_15323" data-name="Path 15323" d="M-2359.907-1772.276c-7.48-7.274-10.06-18.086-12.543-27.085-.278-1.3-.961-3.688-2.273-3.23-4.568,1.595-2.535,8.482-1.677,12.264,1.618,6.918,2.629,12.756,6.09,19.27" fill="#b27344" stroke="#100052" stroke-linecap="round" stroke-linejoin="round" stroke-width="0.5"/>
        <path id="Path_15324" data-name="Path 15324" d="M-2365.09-1740.8l7.9-20.972a7.747,7.747,0,0,0,.736-4.066,7.71,7.71,0,0,0-1.208-2.6l-3.544-5.654c-2-3.183-4.409-6.661-8.106-7.327-3.215-.579-6.492,1.294-8.431,3.922s-2.779,5.894-3.4,9.1c-1.6,8.255-1.31,20.441-.549,28.815" fill="#b27344" stroke="#100052" stroke-linecap="round" stroke-linejoin="round" stroke-width="0.5"/>
        <path id="Path_15325" data-name="Path 15325" d="M-2364.951-1778.748c-2.8-2.044-5.128-4.738-8.432-6.021-2.582-.482-5.535.448-8.22.253-3.4.254-6.912-.279-10.257.24-3.108,1.8,3.7,5.7,5.443,5.7,2.232.179,4.665-1.13,6.6-.006" fill="#b27344" stroke="#100052" stroke-linecap="round" stroke-linejoin="round" stroke-width="0.5"/>
        <path id="Path_15326" data-name="Path 15326" d="M-2368.326-1778.692c-2.086-1.626-6.411-.765-10.858-.849-8.7-.165-17.914.622-10.845,4.976,1.5.924,9.134,1.94,15.057,1.09" fill="#b27344" stroke="#100052" stroke-linecap="round" stroke-linejoin="round" stroke-width="0.5"/>
        <path id="Path_15327" data-name="Path 15327" d="M-2368.646-1773.344c-4.411-2.293-8.571-.537-15.686.567-1.983.308,1.227,4.918,6.427,4.359,3.256-.35,6.932-1.464,8.661.772a21.681,21.681,0,0,0-4.722,15.266" fill="#b27344" stroke="#100052" stroke-linecap="round" stroke-linejoin="round" stroke-width="0.5"/>
      </g>
      <g id="Group_17525" data-name="Group 17525">
        <path id="Path_15328" data-name="Path 15328" d="M-2375.644-1653.1c8.874-3.865,16.548-13.6,27.238-12.189a13.277,13.277,0,0,1,4.58,1.836c2.519,1.4,5.358,3.28,5.489,6.157.086,1.889-1.081,3.6-2.37,4.986-5.352,5.749-11.868,11.082-19.511,13.361-7.061,2.107-16.12,2.378-22-2.649" fill="#b27344" stroke="#100052" stroke-linecap="round" stroke-linejoin="round" stroke-width="0.5"/>
        <path id="Path_15329" data-name="Path 15329" d="M-2347.423-1664.811a16.941,16.941,0,0,1,10.22,4.217,13.578,13.578,0,0,1,4.431,8.151,13.779,13.779,0,0,1-7.45,13.881,2.832,2.832,0,0,1-1.149.346c-1.222.025-2.043-1.4-1.924-2.612a9.061,9.061,0,0,1,1.442-3.34c1.565-2.84,3.112-8.7-1.582-9.582" fill="#b27344" stroke="#100052" stroke-linecap="round" stroke-linejoin="round" stroke-width="0.5"/>
        <path id="Path_15330" data-name="Path 15330" d="M-2340.506-1659.616a7.969,7.969,0,0,1,3.419,5.862,12.481,12.481,0,0,1-1.033,5.442,29.9,29.9,0,0,1-5.242,8.738,7.008,7.008,0,0,1-3.161,2.374,2.843,2.843,0,0,1-3.41-1.332,3.335,3.335,0,0,1,.021-2.178c.6-2.068,2.03-3.788,2.875-5.768.581-1.362,1.045-3.457.227-4.8-1.063-1.752-2.835-3.023-3.867-4.889" fill="#b27344" stroke="#100052" stroke-linecap="round" stroke-linejoin="round" stroke-width="0.5"/>
      </g>
      <path id="Path_15331" data-name="Path 15331" d="M-2479.062-1667.12a393.753,393.753,0,0,1,7.09-64.463c4.034-20.757,3.83-40.858,27.079-49.435a9.729,9.729,0,0,1,4.894-.789c3.472.582,5.481,4.173,6.879,7.4a164.4,164.4,0,0,1,13.2,56.481c.726,12.644-5.514,25.752-8.668,37.952a2.623,2.623,0,0,0-.038,1.766,2.646,2.646,0,0,0,1.918,1.131c9.86,2.384,19.786,4.5,29.583,7.142,8.072,2.174,18.109,3.927,22.131,12.193,2.121,4.358,2.531,9.355,2.38,14.2-.081,2.582-.35,5.279-1.756,7.447a4.98,4.98,0,0,1-2.478,2.1,7.19,7.19,0,0,1-3.616-.06c-4.7-.888-9.366-1.584-14.054-2.316-20.1-3.093-39.943-8.2-59.84-12.4C-2463.173-1650.633-2479.381-1655.308-2479.062-1667.12Z" fill="#feca84"/>
      <path id="Path_15332" data-name="Path 15332" d="M-2340.186-1681.532c-5.7-21.284-13.682-42.008-19.918-63.186a6.8,6.8,0,0,0-1.872-3.543c-1.1-.858-3.38-1.893-4.707-1.651-6.38,1.163-13.441,3.746-15.944,10.338-1,2.637-.159,5.123.1,7.957a459.056,459.056,0,0,0,6.05,45.686c2.277,11.661,3.961,30.718,13.689,38.729,3.995,3.29,9.94,3.661,14.656,1.53,12.692-5.736,17.416-26.02,20.991-37.987a211.509,211.509,0,0,0,8.852-60.745c-.012-7.974-.653-16.5-5.124-22.785-5.449-7.655-18.968-13.332-27.972-14.655,1.966,12.46-.283,24.66-1.906,37.169-2.769,21.351-7.423,42.176-10.172,63.525" fill="#feca84"/>
      <path id="Path_15333" data-name="Path 15333" d="M-2361.44-1748.149c-4.266-3.7-12.812-.587-16.49,2.515-2.054,1.733-4.314,4.077-5.269,6.642-.466,1.252.062,3.072.217,4.337l.977,7.976,1.955,15.952,3.951,32.236c.948,7.732,2.069,15.894,6.905,22" fill="none" stroke="#100052" stroke-linecap="round" stroke-linejoin="round" stroke-width="0.5"/>
      <path id="Path_15334" data-name="Path 15334" d="M-2439.241-1749.617c.243,10.19-4.633,19.7-7.321,29.532a42.575,42.575,0,0,0,1.024,25.654c1.028,2.731,2.545,5.526,5.175,6.79" fill="none" stroke="#100052" stroke-linecap="round" stroke-linejoin="round" stroke-width="0.5"/>
      <path id="Path_15335" data-name="Path 15335" d="M-2458.51-1688.019c9.338-1.239,16.283.961,24.9,4.134,13.825,5.088,27.638,10.328,41.76,14.772,6.933,2.181,14.53,5.738,17.2,13.118,2.2,6.094,3.276,14.329.569,20.411-1.638,3.682-3.973,2.413-7.236,1.944" fill="none" stroke="#100052" stroke-linecap="round" stroke-linejoin="round" stroke-width="0.5"/>
      <path id="Path_15336" data-name="Path 15336" d="M-2377.216-1632.922c-22.334-4.323-45.808-5.685-67.42-12.785" fill="none" stroke="#100052" stroke-linecap="round" stroke-linejoin="round" stroke-width="0.5"/>
      <path id="Path_15337" data-name="Path 15337" d="M-2362.177-1748.633a261.962,261.962,0,0,1,22.553,56.7" fill="none" stroke="#100052" stroke-linecap="round" stroke-linejoin="round" stroke-width="0.5"/>
      <path id="Path_15338" data-name="Path 15338" d="M-2383.954-1852.845a20.582,20.582,0,0,0-13.1,4.654c-.079.065-.2.13-.271.063s.119-.176.1-.077" fill="none" stroke="#100052" stroke-linecap="round" stroke-linejoin="round" stroke-width="2.753"/>
      <path id="Path_15339" data-name="Path 15339" d="M-2370.5-1856.155a15,15,0,0,1,11.646-1.729c.086.022.2.028.225-.065s-.169-.1-.107-.025" fill="none" stroke="#100052" stroke-linecap="round" stroke-linejoin="round" stroke-width="2.753"/>
      <path id="Path_15340" data-name="Path 15340" d="M-2367.279-1825.646a5.876,5.876,0,0,0,2.8-1.357,3.048,3.048,0,0,0,.226-2.754,2,2,0,0,1,.855,1.725,3.952,3.952,0,0,1-.112.664,5.31,5.31,0,0,1-1.785,3.154c-1.338.923-3.165.431-4.625-.184a6.456,6.456,0,0,1-2.851-1.848C-2371.124-1826.5-2369.334-1825.151-2367.279-1825.646Z" fill="#e2a383" opacity="0.44" style="mix-blend-mode: multiply;isolation: isolate"/>
      <ellipse id="Ellipse_391" data-name="Ellipse 391" cx="2.626" cy="2.184" rx="2.626" ry="2.184" transform="translate(-2363.626 -1847.794) rotate(-6.392)" fill="#100052"/>
      <ellipse id="Ellipse_392" data-name="Ellipse 392" cx="2.626" cy="2.186" rx="2.626" ry="2.186" transform="translate(-2387.685 -1843.607) rotate(-6.392)" fill="#100052"/>
      <path id="Path_15341" data-name="Path 15341" d="M-2358.528-1816.041a124.481,124.481,0,0,0-15.689,1.687c-.336.065-.33.4.007.388a101.719,101.719,0,0,0,15.7-1.688C-2358.171-1815.719-2358.183-1816.058-2358.528-1816.041Z" fill="#100052"/>
      <path id="Path_15342" data-name="Path 15342" d="M-2366.836-1811.188a20.141,20.141,0,0,0,4.363-.594" fill="none" stroke="#e2a383" stroke-linecap="round" stroke-linejoin="round" stroke-width="1" opacity="0.44" style="mix-blend-mode: multiply;isolation: isolate"/>
    </g>
    <g id="table">
      <g id="Group_17207" data-name="Group 17207">
        <path id="Path_12186" data-name="Path 12186" d="M-2362.1-1612.946h184.445a6.589,6.589,0,0,0,6.569-6.569h0a39.254,39.254,0,0,1-7.925-9.268,6.577,6.577,0,0,0-5.562-3.084l-159.7-1.821a6.544,6.544,0,0,0-4.377,1.682,62.947,62.947,0,0,1-17.207,11.29l-2.815,1.2A6.588,6.588,0,0,0-2362.1-1612.946Z" fill="url(#linear-gradient-5)"/>
        <rect id="Rectangle_6465" data-name="Rectangle 6465" width="197.584" height="8.733" rx="4.366" transform="translate(-2368.671 -1621.679)" fill="url(#linear-gradient-6)"/>
      </g>
      <g id="Group_17208" data-name="Group 17208">
        <path id="Path_12187" data-name="Path 12187" d="M-2240.042-1656.612c-7.937,0-14.372,5.784-14.372,12.918s6.435,12.918,14.372,12.918,14.374-5.784,14.374-12.918S-2232.1-1656.612-2240.042-1656.612Zm2.548,22.56c-6.038,0-10.931-4.4-10.931-9.825s4.9-9.824,10.931-9.824,10.932,4.4,10.932,9.824-4.894,9.825-10.932,9.825Z" fill="url(#linear-gradient-7)"/>
        <path id="Path_12188" data-name="Path 12188" d="M-2238.8-1661.348c.13-1.612,5.033-2.905,16.339-2.905s16.934.928,17.065,2.54a.44.44,0,0,1-.031.2l-1.737,34.055c.317,5.992-30.922,5.992-30.6,0l-1-33.69A.438.438,0,0,1-2238.8-1661.348Z" fill="url(#linear-gradient-8)"/>
        <path id="Path_12189" data-name="Path 12189" d="M-2206.383-1661.4c.03.421-.869.816-2.438,1.146h0q-.978.205-2.28.376c-1.886.245-4.234.429-6.859.522h-.137c-1.224.041-2.505.063-3.827.063-.513,0-1.023,0-1.52-.01a61.971,61.971,0,0,1-12.142-1.085c-1.222-.3-1.907-.652-1.881-1.019.017-.25.364-.49.977-.713,1.922-.689,6.474-1.205,11.992-1.329l.4-.008q.442-.011.893-.013.63-.008,1.269-.008a74.925,74.925,0,0,1,12.774.9,13.808,13.808,0,0,1,1.628.4C-2206.811-1661.928-2206.4-1661.67-2206.383-1661.4Z" fill="url(#linear-gradient-9)"/>
      </g>
    </g>
    <g id="Group_17229" data-name="Group 17229">
      <path id="Path_12265" data-name="Path 12265" d="M-2248.572-1622.195l-9.3-16.711h-74.685l-15.759,16.711,46.739-4.258a2.585,2.585,0,0,0,2.494,2.673,2.585,2.585,0,0,0,.639-.057c3.184-.326,3.133-2.616,3.133-2.616Z" fill="url(#linear-gradient-10)"/>
      <path id="Path_12266" data-name="Path 12266" d="M-2345.786-1630.548l3.283-3.479s30.141-8.422,44.059,4.309C-2298.443-1629.719-2316.9-1637.181-2345.786-1630.548Z" fill="#dfe4d5"/>
      <path id="Path_12267" data-name="Path 12267" d="M-2348.16-1625.953l2.37-2.764s23.691-4.87,38.155-1.4-37.492,4.543-37.492,4.543Z" fill="#dfe4d5"/>
      <path id="Path_12268" data-name="Path 12268" d="M-2251.1-1630.548l-3.283-3.479s-30.141-8.422-44.059,4.309C-2298.444-1629.719-2279.991-1637.181-2251.1-1630.548Z" fill="#dfe4d5"/>
      <path id="Path_12269" data-name="Path 12269" d="M-2248.731-1625.953l-2.37-2.764s-23.69-4.87-38.154-1.4,37.492,4.543,37.492,4.543Z" fill="#dfe4d5"/>
      <g id="Group_17228" data-name="Group 17228">
        <g id="Group_17227" data-name="Group 17227">
          <path id="Path_12270" data-name="Path 12270" d="M-2248.732-1625.953c-10.9-2.743-32.34-4.595-32.34-4.595,12.981-.393,26.474,2.269,31.937,3.5a18.551,18.551,0,0,0-1.967-3.5s-31.59-8.359-47.342.83l2.959,2.5,47.247,3.816A10.332,10.332,0,0,0-2248.732-1625.953Z" fill="#dfe4d5"/>
          <path id="Path_12271" data-name="Path 12271" d="M-2252.441-1632.511v-1.718c-36.938-8.783-46.006,4.511-46.006,4.511C-2283.173-1642.121-2252.441-1632.511-2252.441-1632.511Z" fill="#dfe4d5"/>
          <path id="Path_12272" data-name="Path 12272" d="M-2345.786-1630.548a18.475,18.475,0,0,0-1.965,3.5c5.462-1.23,18.954-3.89,31.936-3.5,0,0-21.437,1.853-32.34,4.595a10.423,10.423,0,0,0-.494,2.548l47.247-3.816,2.959-2.5C-2314.192-1638.9-2345.786-1630.548-2345.786-1630.548Z" fill="#dfe4d5"/>
          <path id="Path_12273" data-name="Path 12273" d="M-2344.449-1634.23v1.718s30.735-9.616,46.006,2.793C-2298.443-1629.718-2307.51-1643.012-2344.449-1634.23Z" fill="#dfe4d5"/>
        </g>
        <path id="Path_12274" data-name="Path 12274" d="M-2264.749-1648.413s-19.092-8.6-33.694-.041c-14.6-8.559-33.693.041-33.693.041l-12.313,14.182c36.939-8.784,46.006,4.512,46.006,4.512s9.069-13.3,46.007-4.512Z" fill="#eff3f3"/>
        <path id="Path_12275" data-name="Path 12275" d="M-2298.438-1629.719l-4.5,3.828,1.273,1.37,3.23-3,2.959,2.559,1.362-1.128Z" fill="#ffbd50"/>
      </g>
      <path id="Path_12276" data-name="Path 12276" d="M-2307.874-1634.93l-1.466-.307c-.467-.093-1.029-.236-1.683-.346l-2.205-.337c-.8-.153-1.692-.188-2.625-.282l-1.436-.127c-.491-.037-.995-.033-1.507-.053l-1.557-.043c-.527-.01-1.06-.046-1.6-.012l-3.257.116c-.543,0-1.085.058-1.628.108l-1.617.141-1.591.139c-.262.024-.523.043-.782.072l-.765.109-2.922.4c-.928.128-1.813.226-2.613.389l-3.893.686-1.479.251,1.464-.312,3.869-.8c.8-.181,1.68-.3,2.6-.443l2.924-.443.767-.109c.258-.031.521-.051.784-.077l1.6-.15,1.622-.153c.543-.051,1.086-.108,1.64-.117l3.276-.1c.543-.03,1.076.01,1.606.023l1.568.055c.513.025,1.021.018,1.514.069l1.443.156c.936.109,1.827.168,2.632.337l2.2.4c.651.132,1.2.293,1.668.4Z" fill="#c4b7b7"/>
      <path id="Path_12277" data-name="Path 12277" d="M-2294.471-1628.161s.159-.04.458-.1.741-.152,1.3-.237,1.258-.18,2.051-.277c.8-.077,1.695-.183,2.68-.232.492-.028,1-.071,1.536-.089l1.645-.059c.565-.027,1.146-.019,1.737-.028s1.2-.013,1.816,0l1.878.048.957.025.965.05c1.293.066,2.6.127,3.915.245l1.962.166c.651.058,1.3.14,1.94.209,1.284.144,2.55.272,3.765.455s2.4.325,3.508.505l3.126.531c.484.084.949.157,1.387.24l1.245.251,2.022.408,1.76.362-1.774-.3-2.035-.352-1.25-.217-1.393-.217-3.133-.478c-1.112-.159-2.293-.293-3.508-.46s-2.478-.3-3.761-.434c-.641-.064-1.286-.143-1.936-.2l-1.954-.155c-1.3-.125-2.613-.192-3.9-.266l-.963-.055-.953-.031-1.871-.057c-.615-.02-1.219-.007-1.811-.017s-1.17-.02-1.737,0l-1.641.03c-.531.01-1.041.044-1.532.064s-.961.046-1.411.08-.868.057-1.269.09c-.8.075-1.488.142-2.055.218s-1.013.141-1.315.192S-2294.471-1628.161-2294.471-1628.161Z" fill="#c4b7b7"/>
      <path id="Path_12278" data-name="Path 12278" d="M-2294.42-1626.383l-.891-.068-.267.752c-.057.16-.621.949-2.866.949s-2.809-.79-2.866-.949l-.267-.752-.891.068-45.848,4.19,1.211,1.834,44.082-4.029c.665,1,2.1,1.573,4.58,1.573s3.914-.568,4.58-1.573l44.081,4.029,1.211-1.834Z" fill="url(#linear-gradient-11)"/>
    </g>
    <path id="Path_12283" data-name="Path 12283" d="M-2223.52-1668.023a5.224,5.224,0,0,1-2.052-4.092,11.055,11.055,0,0,1,.991-4.6,25.822,25.822,0,0,1,1.754-3.519,13.82,13.82,0,0,0,1.275-2.388c.85-2.382-.039-5.033-1.262-7.246" fill="none" stroke="#707070" stroke-width="2.613"/>
    <path id="Path_12284" data-name="Path 12284" d="M-2227.171-1665.794a4.534,4.534,0,0,1-3.112-5.407,13.942,13.942,0,0,1,.739-1.774,7.447,7.447,0,0,0,.684-4.028,4.343,4.343,0,0,0-2.234-3.292" fill="none" stroke="#707070" stroke-width="2.613"/>
    <path id="Path_12285" data-name="Path 12285" d="M-2217.492-1666.021a6.946,6.946,0,0,1-3.23-6.426c.4-4.38,4.776-7.328,6.213-11.487a9.212,9.212,0,0,0-1.578-8.7" fill="none" stroke="#707070" stroke-width="2.613"/>
    <path id="Path_12173" data-name="Path 12173" d="M-2406.042-1916.407" fill="#100052"/>
  </g>
</svg>
