<svg xmlns="http://www.w3.org/2000/svg" width="33" height="33" viewBox="0 0 33 33"><defs><style>.a{fill:#09425a;}</style></defs><path class="a" d="M5.156,33A5.162,5.162,0,0,1,0,27.844V7.734A5.162,5.162,0,0,1,5.156,2.578H6.768V1.289a1.289,1.289,0,0,1,2.578,0V2.578h5.8V1.289a1.289,1.289,0,0,1,2.578,0V2.578H23.59V1.289a1.289,1.289,0,0,1,2.578,0V2.578h1.676A5.162,5.162,0,0,1,33,7.734V21.4a1.289,1.289,0,0,1-2.578,0V7.734a2.581,2.581,0,0,0-2.578-2.578H26.168V6.445a1.289,1.289,0,1,1-2.578,0V5.156H17.725V6.445a1.289,1.289,0,0,1-2.578,0V5.156h-5.8V6.445a1.289,1.289,0,1,1-2.578,0V5.156H5.156A2.581,2.581,0,0,0,2.578,7.734V27.844a2.581,2.581,0,0,0,2.578,2.578H27.844a2.581,2.581,0,0,0,2.578-2.578,1.289,1.289,0,0,1,2.578,0A5.162,5.162,0,0,1,27.844,33Zm15.4-6.961a2.581,2.581,0,0,1-2.578-2.578V20.432a2.581,2.581,0,0,1,2.578-2.578H23.59a2.581,2.581,0,0,1,2.578,2.578v3.029a2.581,2.581,0,0,1-2.578,2.578Zm0-2.578h3.031l0-3.029H20.561ZM12.375,24.75a1.289,1.289,0,1,1,1.289,1.289A1.289,1.289,0,0,1,12.375,24.75Zm-5.607,0a1.289,1.289,0,1,1,1.289,1.289A1.289,1.289,0,0,1,6.768,24.75Zm5.607-5.607a1.289,1.289,0,1,1,1.289,1.289A1.289,1.289,0,0,1,12.375,19.143Zm-5.607,0a1.289,1.289,0,1,1,1.289,1.289A1.289,1.289,0,0,1,6.768,19.143ZM23.59,13.535a1.289,1.289,0,1,1,1.289,1.289A1.289,1.289,0,0,1,23.59,13.535Zm-5.607,0a1.289,1.289,0,1,1,1.289,1.289A1.289,1.289,0,0,1,17.982,13.535Zm-5.607,0a1.289,1.289,0,1,1,1.289,1.289A1.289,1.289,0,0,1,12.375,13.535Zm-5.607,0a1.289,1.289,0,1,1,1.289,1.289A1.289,1.289,0,0,1,6.768,13.535Z"/></svg>