<svg xmlns="http://www.w3.org/2000/svg" xmlns:xlink="http://www.w3.org/1999/xlink" width="524.273" height="446.952" viewBox="0 0 524.273 446.952"><defs><style>.a,.j,.y{fill:none;}.b{clip-path:url(#a);}.c{fill:url(#b);}.d{fill:#4fa5ad;stroke-width:1.228px;}.d,.y{stroke:#2a7195;}.d,.e,.f,.j,.k,.l,.n,.o,.p,.s,.u,.w,.x,.y{stroke-miterlimit:10;}.e,.j,.k,.l,.n,.o,.p,.s,.u,.w,.x{stroke:#100052;}.e{stroke-width:0.614px;fill:url(#c);}.f{fill:#d2e7f9;stroke:#bbdbf9;stroke-width:0.424px;}.g{fill:url(#e);}.h{fill:url(#f);}.i{fill:url(#g);}.j{stroke-width:2.347px;}.k,.n,.s{fill:#f9c3a5;}.k{stroke-width:0.307px;}.l,.o,.p,.u,.w,.x{fill:#100052;}.l{stroke-width:0.709px;}.m{fill:url(#h);}.n{stroke-width:0.426px;}.o,.y{stroke-width:2.258px;}.p{stroke-width:0.652px;}.q{fill:url(#i);}.r{fill:url(#j);}.s{stroke-width:0.4px;}.t{fill:#97bbc9;}.u{stroke-width:11.614px;}.v{fill:url(#k);}.w{stroke-width:0.732px;}.x{stroke-width:0.862px;}.z{fill:url(#n);}.aa{fill:url(#o);}</style><clipPath id="a"><path class="a" d="M567.159,383.524c-10.743-85.147,9.721-172.975,91.272-215.891,30.847-16.234,64.923-24.839,99.248-30.282,30.356-4.814,63.749-3.867,91.949,10.4,23.122,11.7,44.554,27.042,61.6,46.5,29.337,33.485,42.793,74.809,58.675,115.157,17.2,43.7,31.276,90.54,25.38,137.9a173.814,173.814,0,0,1-39.94,90.579c-16.31,19.161-37.962,31.242-63.3,33.692-29.225,2.825-54.392-7.03-80.28-19.291-26.075-12.35-53.432-22.812-82.062-27.565-13.712-2.277-27.613-1.691-41.07-4.9a206.531,206.531,0,0,1-40.456-13.868C598.194,482.318,573.8,436.145,567.159,383.524Z" transform="translate(-564.521 -134.735)"/></clipPath><linearGradient id="b" x1="0.6" y1="0.509" x2="-0.165" y2="0.213" gradientUnits="objectBoundingBox"><stop offset="0" stop-color="#faebd8"/><stop offset="1" stop-color="#ffb83f"/></linearGradient><linearGradient id="c" y1="0.5" x2="1" y2="0.5" gradientUnits="objectBoundingBox"><stop offset="0" stop-color="#4fa5ad"/><stop offset="1" stop-color="#99cbcf"/></linearGradient><linearGradient id="e" x1="0" y1="0.5" x2="1" y2="0.5" xlink:href="#b"/><linearGradient id="f" x1="1.24" y1="0.126" x2="-1.542" y2="1.841" gradientUnits="objectBoundingBox"><stop offset="0" stop-color="#6599b3"/><stop offset="1" stop-color="#45496b"/></linearGradient><linearGradient id="g" x1="0.33" y1="0.417" x2="1.98" y2="1.172" xlink:href="#f"/><linearGradient id="h" y1="0.5" x2="1" y2="0.5" gradientUnits="objectBoundingBox"><stop offset="0" stop-color="#ff9077"/><stop offset="1" stop-color="#e9645a"/></linearGradient><linearGradient id="i" x1="0.124" y1="-0.394" x2="0.639" y2="0.808" xlink:href="#f"/><linearGradient id="j" y1="0.5" x2="1" y2="0.5" gradientUnits="objectBoundingBox"><stop offset="0" stop-color="#b9bdab"/><stop offset="1" stop-color="#769cae"/></linearGradient><linearGradient id="k" x1="0" y1="0.5" x2="1" y2="0.5" xlink:href="#f"/><linearGradient id="n" y1="0.5" x2="1" y2="0.5" gradientUnits="objectBoundingBox"><stop offset="0" stop-color="#2a7195"/><stop offset="0.333" stop-color="#296e92"/><stop offset="0.513" stop-color="#26668b"/><stop offset="0.657" stop-color="#21597f"/><stop offset="0.781" stop-color="#1a456d"/><stop offset="0.891" stop-color="#112c57"/><stop offset="0.992" stop-color="#060e3b"/><stop offset="1" stop-color="#060c39"/></linearGradient><linearGradient id="o" y1="0.5" x2="1" y2="0.5" gradientUnits="objectBoundingBox"><stop offset="0" stop-color="#2a7195"/><stop offset="1" stop-color="#060c39"/></linearGradient></defs><g transform="translate(-564.521 -116.853)"><g transform="translate(564.521 126.469)"><g class="b"><g transform="translate(-66.466 -56.191)"><path class="c" d="M562.726,385.305c-10.743-86.263,9.721-175.242,91.272-218.72,34.821-18.565,74.133-27.593,113.009-32.639,10.547-1.369,22.187-3.825,32.753-3.88,12.537-.065,25.8,7.022,37.134,12.315,26.325,12.3,50.819,29.1,69.906,51.175,29.337,33.924,42.793,75.789,58.675,116.666,17.2,44.268,31.275,91.726,25.38,139.707a177.213,177.213,0,0,1-39.94,91.766c-24.828,29.553-54.139,37.514-91.275,33.871-29.572-2.9-63.658-13.892-76.722-43.24C620.3,535.419,573.391,470.944,562.726,385.305Z" transform="translate(-496.005 -76.386)"/><g transform="translate(258.268 358.636)"><path class="d" d="M921.2,791.976V868.1h234.376l26.4-98.483,2.893-10.789Z" transform="translate(-921.202 -725.673)"/><path class="d" d="M1001.383,697.174h183.492v44.716L921.2,763.478v-66.3Z" transform="translate(-921.202 -697.174)"/></g><g transform="translate(340.258 275.175)"><path class="e" d="M1235.7,560.9l-58.4-18.933-82.443,25.253-21.175,27.752,1.666,42.846Z" transform="translate(-1073.674 -541.966)"/><path class="e" d="M1076.773,654.093c47.477-33.887,93.29-56.486,137.227-66.358l23.13-10.56,4.77,60.674C1187.34,684.152,1132.29,688.859,1076.773,654.093Z" transform="translate(-1075.107 -558.242)"/></g><path class="f" d="M728.7,134.6c-7.853,16.664-4.774,50.15-5.431,66.978q-1.641,42.032-.646,84.159.511,21.649,1.721,43.281c.445,7.967-1.882,30.8,2.829,37.149,5.373,7.247,28.442.846,36.434.095l30.56-2.873-2.545-257.512c-.046-4.615-54.574,18.27-59.1,22.968A21.332,21.332,0,0,0,728.7,134.6Z" transform="translate(-570.967 -64.924)"/><g transform="translate(119.208)"><rect class="g" width="91.477" height="74.308" transform="translate(34.047 243.144)"/><path class="h" d="M702.288,157.224,667.57,185.387,662.6,399.835l41.249-6.527Z" transform="translate(-662.602 -88.94)"/><path class="i" d="M851.576,74l-.205,235.738,49.647,35.631,38.125.5L919.348,30.241C892.765,38.841,851.576,74,851.576,74Z" transform="translate(-749.862 -30.241)"/><line class="j" x1="1.753" y2="171.584" transform="translate(121.469 82.332)"/><line class="j" x2="9.286" y2="212.584" transform="translate(132.476 66.972)"/><line class="j" x2="5.144" y2="212.423" transform="translate(166.012 60.527)"/></g><path class="k" d="M1061.784,569.218a12.82,12.82,0,0,0-4.1-2.727,7.721,7.721,0,0,0-5.66.071c-2.284,1.018-3.73,3.251-5.257,5.232-1.193,1.548-2.807,3.361-4.807,3.814-1.324.3-3.314-.707-4.182.865-.643,1.164.531,2.833,1,3.829a87.626,87.626,0,0,0,5.891,10.72c1.311,2,.826,2.481,1.219,4.655a10.975,10.975,0,0,0,2.576,4.667,85.124,85.124,0,0,0,11.353,11.516,3.067,3.067,0,0,0,1.758.9c1.328.044,2.072-1.47,2.537-2.714,5.686-15.194,19.664-24.773,35.371-27.609a6.6,6.6,0,0,1-1.946-.609l-5.2-1.624L1076.5,575.25l-7.692-2.4c-1.049-.328-2.149-.593-3.173-.993A13.327,13.327,0,0,1,1061.784,569.218Z" transform="translate(-716.735 -277.896)"/><path class="k" d="M1083.822,474.286c-47.476,53.736,9.54,107.7,63.3,44.476l-9.342-50.4Z" transform="translate(-729.908 -232.768)"/><path class="l" d="M1049.688,453.563c13.862,8.91,29.865,10.876,49.978-.478-1.524.86-1.168,11.148-1.174,12.984a42.131,42.131,0,0,0,1.332,11.436,22.737,22.737,0,0,0,4.108,8.31c2.544,3.128,5.928,3.325,3.854,8.1-3.984,9.172-8.836,17.95-18.71,21.667a1.581,1.581,0,0,0-.587.319,1.056,1.056,0,0,0,.21,1.479,2.851,2.851,0,0,0,1.581.5c7.119.68,14.1-2.1,20.873-3.939l-3.369,7.241c13.307-8.651,23.146-22.889,26.918-46.9,5.8-13.492-.625-25.908-11.055-37.974-16.612-12.83-34.468-17.051-53.185-15.3-14.753-1.315-28.3,7.38-41.553,18.471l8.234-.218-20.1,15.781c-.5.389-5.264-.82-6.235-.822a18.255,18.255,0,0,0-5.644.786A16.362,16.362,0,0,0,997,461.117a33.435,33.435,0,0,0-4.848,10.935c-1.388,5-3.364,10.325-4.064,15.444a14.876,14.876,0,0,0,1.9,10.21c1.911,2.883,5.051,4.7,8.21,6.111,8.813,3.929,23.691,8.44,30.677-.88,2.45-3.268,3.6-7.308,4.546-11.284,1.5-6.35,1.874-13,4.326-19A57.89,57.89,0,0,1,1047.1,456.6Z" transform="translate(-693.768 -210.702)"/><g transform="translate(236.242 262.992)"><path class="m" d="M969.184,551.874c-6.446-2.626-10.79-8.588-15.978-13.228-4.793-4.288-10.422-7.514-16.005-10.707-5.922-3.387-11.989-6.828-18.7-8.053-4.945-.9-10.023-.556-15.038-.207-3.506.244-22.5-.1-23.2,2.67-.237.942,1.748,4.033,2.127,4.907l8.246,19.026,25.51,58.857,2.191,2.14,19.638,19.182,11.672,11.4,4.976,4.861c1.174,1.147,3.078,3.939,4.57,4.151a20.631,20.631,0,0,0,13.361-3.015c8.977-5.4,14.379-15.655,15.761-25.819l2.839-28.333c-13.815-10.2-20.414-22.128-20.267-35.661" transform="translate(-880.243 -519.312)"/></g><path class="l" d="M1103.508,418.558l-21.363-3.607c-4.4.582-6.292,3.749-8.128,6.972,4.71-3.164,11.37-3.837,22.286.924" transform="translate(-733.575 -208.077)"/><path class="n" d="M1050.125,649.067a2.689,2.689,0,0,1,1.1-2.365,2.787,2.787,0,0,1,2.652-.027,7.432,7.432,0,0,1,2.136,1.737,51.088,51.088,0,0,1,6.074,7.876,9.529,9.529,0,0,1,1.642,3.957,2.614,2.614,0,0,1-.309,1.7,2.57,2.57,0,0,1-1.77,1,6.418,6.418,0,0,1-5.8-2.591c-1.327-1.653-1.8-3.678-2.788-5.506C1052.052,652.98,1050.206,651.312,1050.125,649.067Z" transform="translate(-722.529 -315.045)"/><path class="d" d="M676.641,474.683c-63.006-5.883-180.114,19.425-222.889,37.848a17.356,17.356,0,0,0-10.139,11.39c-8.465,32.823,2.6,57.971,38.968,73.171a18.791,18.791,0,0,1,2.8,1.438c24.515,15.528,24.044,51.039,57.357,57.527,1.913.373,1.968,3.2,3.353,4.505,29.826,28.016,78.347,36.953,141.622,30.833a19.64,19.64,0,0,1,3.34-.054c14.355,1.086,94-46.306,103.536-38.925,8.8,6.809-104.531-170.236-104.531-170.236A18.526,18.526,0,0,0,676.641,474.683Z" transform="translate(-440.918 -235.288)"/><path class="d" d="M893.9,528.542c-11.055-6.667-16.055-19.416-20.581-30.859-2.9-7.325-4.731-15.148-10.557-20.843a21.371,21.371,0,0,0-13.867-6.284,20.186,20.186,0,0,1-4.615-.332,3.968,3.968,0,0,1-3.086-3.086,4.95,4.95,0,0,1,.636-2.57c4.129-8.695,13.186-12.137,22.028-14.012,9.654-2.047,22.469-5.1,31.95-1.625,16.948,6.213,21.484,29.191,28.778,42.452l13.229,27.489,5.088,12.664a162.939,162.939,0,0,0,41.065,59.343l24.4,22.375c-4.284,16.492-11.66,28.981-26.576,31.706h-3.854A37.668,37.668,0,0,1,950.6,633.21l-.856-.9-23.368-22.384c-8.792-8.6-8.42-28.663-28.626-56.519" transform="translate(-625.941 -223.055)"/><line class="o" x2="4.606" y2="18.26" transform="translate(510.122 426.882)"/><circle class="p" cx="8.858" cy="8.858" r="8.858" transform="translate(436.521 434.511)"/><circle class="p" cx="8.365" cy="8.365" r="8.365" transform="translate(508.262 443.014)"/><path class="q" d="M1227.375,852.867l2.958,106.628h212.913V852.867Z" transform="translate(-804.466 -410.509)"/><ellipse class="r" cx="107.935" cy="23.495" rx="107.935" ry="23.495" transform="translate(422.909 418.863)"/><path class="k" d="M1088.491,489.785a18.758,18.758,0,0,0-1.094-5.711,6.343,6.343,0,0,0-4.088-3.868,6.041,6.041,0,0,0-6.127,2.781,12.25,12.25,0,0,0-1.692,6.854c0,2.389.329,4.772.236,7.159a11.111,11.111,0,0,0,.069,2.867,4.446,4.446,0,0,0,3.332,3.294" transform="translate(-734.255 -238.183)"/><path class="s" d="M1060.224,667.156c-.46-3.729-3.908-4.492-6.879-4.647-4.958-.26-9.436.621-13.446,4.036-1.014.864-2.8,3.158-.745,4.124a2.2,2.2,0,0,0,.716.162,27.519,27.519,0,0,0,6.352-.062" transform="translate(-717.022 -322.494)"/><path class="s" d="M1044.292,673.223c-1.2.414-2.378.869-3.5,1.359a7.083,7.083,0,0,0-1.641.9,2.7,2.7,0,0,0-1.017,1.614c-.533,3.175,3.867,2.739,5.515,2.442a41.932,41.932,0,0,1,17.816.659c1.24.318,3.292.888,4.138-.488.737-1.2.35-3.094-.037-4.323-1.507-4.793-6.936-4.992-10.8-4.558A49.927,49.927,0,0,0,1044.292,673.223Z" transform="translate(-716.965 -326.287)"/><path class="s" d="M1066.876,682.093a28.758,28.758,0,0,0-10.065,1.19q-.21.055-.419.114c-2.057.583-8.267,3.15-4.2,5.943,2.46,1.69,6.052.611,8.788.344q5.066-.5,10.106-1.249c2.426-.362,1.969-2.5.622-4.074A7.236,7.236,0,0,0,1066.876,682.093Z" transform="translate(-722.86 -331.525)"/><path class="s" d="M1069.513,695.313c-.985,1.131-1.7,2.609-.845,3.746a1.456,1.456,0,0,0,1.2.525,5.085,5.085,0,0,0,1.308-.265,55.227,55.227,0,0,1,7.022-1.08c1.447-.211,5.311-.31,5.171-2.618a2.687,2.687,0,0,0-1.27-2.019,5.822,5.822,0,0,0-2.221-.738,13.359,13.359,0,0,0-8.517.9A7.151,7.151,0,0,0,1069.513,695.313Z" transform="translate(-730.926 -336.411)"/></g></g><g transform="translate(383.452 224.729)"><path class="t" d="M1387.786,814.468l-36.04-6.028,64.489-25.357,11.9,14.223Z" transform="translate(-1311.876 -659.17)"/><line class="u" x2="9.292" y2="30.084" transform="translate(73.417 147.685)"/><circle class="v" cx="56.011" cy="56.011" r="56.011" transform="translate(19.9 43.277)"/><line class="u" x1="17.826" y2="25.954" transform="translate(6.061 141.495)"/><path class="w" d="M1439.426,571.3c9.987-18.264-19.365-28.074-20.658-5.825Z" transform="translate(-1342.858 -552.65)"/><path class="v" d="M1427.025,622.145c0-55.026-72.633-55.026-83.379-18.8Z" transform="translate(-1308.132 -564.442)"/><circle class="g" cx="56.011" cy="56.011" r="56.011" transform="translate(0 39.614)"/><circle class="w" cx="5.214" cy="5.214" r="5.214" transform="translate(49.046 88.859)"/><path class="x" d="M1377.781,693.583l8.21-17.61-2.241-16.427-6.449,8.64-2.524,25.807Z" transform="translate(-1322.522 -602.064)"/><path class="w" d="M1316.756,716.525l-11.307,5.981,10.34,5.921,27.5-5.956Z" transform="translate(-1290.474 -628.403)"/></g><path class="y" d="M1501.005,622.268s12.3,13.924,8.773,30.791" transform="translate(-997.421 -360.102)"/><path class="y" d="M1502.2,595.321s19.7,13.435,18.891,31.678" transform="translate(-997.975 -347.646)"/></g><g transform="translate(668.583 116.853)"><path class="z" d="M771.343,122.71a24.526,24.526,0,0,1,1.531,5.955c.425,2.978-1.021,5.615-1.106,8.508a6.177,6.177,0,0,0,8.168,6.211c3.4-1.276,6.636-4.679,10.295-3.233,2.3.936,4.764,3.318,7.317,1.191a25.266,25.266,0,0,0,3.076-2.911,19.944,19.944,0,0,0,.151-2.452c0-10.564-8.286-19.127-18.507-19.127a18.076,18.076,0,0,0-11.852,4.437A4.02,4.02,0,0,1,771.343,122.71Z" transform="translate(-763.76 -116.853)"/><path class="aa" d="M791.827,145.157c-2.553,2.127-5.02-.255-7.317-1.191-3.658-1.447-6.892,1.957-10.295,3.233a6.177,6.177,0,0,1-8.168-6.211c.086-2.893,1.531-5.53,1.106-8.508a24.529,24.529,0,0,0-1.531-5.955,4.021,4.021,0,0,0-.928-1.419,19.344,19.344,0,0,0-6.655,14.689c0,10.563,8.286,19.127,18.507,19.127A18.731,18.731,0,0,0,794.9,142.246,25.256,25.256,0,0,1,791.827,145.157Z" transform="translate(-758.039 -120.668)"/></g></g></svg>