<svg xmlns="http://www.w3.org/2000/svg" xmlns:xlink="http://www.w3.org/1999/xlink" width="527.964" height="472.006" viewBox="0 0 527.964 472.006"><defs><style>.a,.ak,.s,.w,.z{fill:none;}.b{fill:url(#a);}.c{fill:url(#b);}.d{fill:#fff;}.e,.k{fill:#d2e7f9;stroke:#bbdbf9;}.ac,.ah,.aj,.e,.k,.o,.s,.u,.w,.x,.y{stroke-miterlimit:10;}.e{stroke-width:0.818px;}.f{fill:url(#c);}.g{fill:url(#e);}.h{fill:url(#f);}.i{fill:#c1e6f6;}.j{fill:#e9eced;}.k{stroke-width:0.692px;}.l{fill:url(#g);}.m{fill:url(#h);}.n{clip-path:url(#i);}.o{fill:#edb48e;}.ah,.aj,.o,.r,.u,.w,.x,.y{stroke:#100052;}.p,.r,.x{fill:#2a7195;}.q{fill:url(#j);}.ak,.r,.z{stroke-linecap:round;stroke-linejoin:round;}.s,.z{stroke:#777;}.t{fill:#777;}.u{fill:#100052;}.v{fill:#5b5b5b;}.ad,.y{fill:#d3d2d1;}.z{stroke-width:7.419px;}.aa{fill:url(#l);}.ab{clip-path:url(#m);}.ac{fill:#685545;stroke:#000;}.ae{fill:#e8e8e8;}.af{fill:#f7f7f7;}.ag{fill:#fefefe;}.ah,.al{fill:#f9c3a5;}.ai,.aj{fill:#ea665b;}.ak{stroke:#4fa5ad;}.am{fill:url(#o);}</style><linearGradient id="a" x1="-0.105" y1="0.001" x2="0.826" y2="0.639" gradientUnits="objectBoundingBox"><stop offset="0" stop-color="#2a7195"/><stop offset="1" stop-color="#99cbcf"/></linearGradient><linearGradient id="b" x1="1.03" y1="1.202" x2="-0.359" y2="-0.181" xlink:href="#a"/><linearGradient id="c" y1="0.5" x2="1" y2="0.5" gradientUnits="objectBoundingBox"><stop offset="0" stop-color="#faebd8"/><stop offset="1" stop-color="#ffb83f"/></linearGradient><linearGradient id="e" x1="0.538" y1="0.354" x2="0.334" y2="1.011" xlink:href="#c"/><linearGradient id="f" x1="0.487" y1="0.494" x2="0.359" y2="1.008" xlink:href="#c"/><linearGradient id="g" y1="0.5" x2="1" y2="0.5" gradientUnits="objectBoundingBox"><stop offset="0" stop-color="#ff9077"/><stop offset="1" stop-color="#e9645a"/></linearGradient><linearGradient id="h" x1="0" y1="0.5" x2="1" y2="0.5" xlink:href="#g"/><clipPath id="i"><path class="a" d="M957.045,646.143a13.143,13.143,0,0,0-3.7-4.338c-5.413-3.927-12.879-1.866-19.561-2.12-10.1-.384-19.435-6.7-24.838-15.245s-7.173-19.023-6.439-29.1a37.35,37.35,0,0,1,4.17-15.181,22.8,22.8,0,0,1,4.848-6.258c1.1-.966,5.408-2.587,5.852-3.72,1.081-2.763-3.916-12.207-4.642-15.508a56.4,56.4,0,0,1-1.408-14.352,42.253,42.253,0,0,1,8.536-23.948,53.63,53.63,0,0,1,9.7-9.7c1.15-.9,12.507-7.6,12.465-7.884-2.728-18.291-1.489-38.841,14.371-50.922,6.278-4.783,13.8-7.673,21.34-9.772,3.256-.906,10.228-.961,12.826-2.884,2.316-1.714,1.209-3.519,1.779-6.573a20.579,20.579,0,0,1,4.493-9.176c3.667-4.419,8.665-7.5,13.64-10.366,5.1-2.942,10.437-5.8,16.276-6.573a36.838,36.838,0,0,1,11.373.578,47.474,47.474,0,0,1,16.578,5.917c4.951,3.06,9.351,7.476,15.072,8.545,5.9,1.1,11.747-1.616,17.513-3.294a51.817,51.817,0,0,1,26.482-.613c12.14,2.929,23.631,16.2,29.272,27.041,7.363,14.147,8.681,30.719,7.708,46.39-.031.5,10.653,7.293,11.839,8.4a43.92,43.92,0,0,1,8.516,10.742c4.667,8.392,5.969,18.063,5.141,27.534-1.1,12.644-5.928,23.962-10.739,35.532-2.677,6.437-1.553,7.958,3.305,12.524a28.539,28.539,0,0,1,9,15.9,27.93,27.93,0,0,1-9.57,25.771c-4.166,3.432-9.232,5.548-13.878,8.3s-9.116,6.456-10.8,11.583c-1.271,3.87-.8,8.072-1.3,12.114-1.323,10.831-9.424,19.664-18.362,25.924-9.184,6.433-19.9,11.051-31.094,11.631s-22.874-3.232-30.484-11.467c-2.676-2.9-5.023-7-8.728-8.712-3.826-1.766-4.853-.128-8.178,2.034a42.746,42.746,0,0,1-21.765,6.956,84.115,84.115,0,0,1-14.233-1.14c-9.307-1.278-18.727-2.587-27.425-6.135s-16.738-9.636-20.665-18.17C959.806,653.078,958.812,649.292,957.045,646.143Z" transform="translate(-902.35 -402.301)"/></clipPath><linearGradient id="j" y1="0.5" x2="1" y2="0.5" gradientUnits="objectBoundingBox"><stop offset="0" stop-color="#2a7195"/><stop offset="1" stop-color="#060c39"/></linearGradient><linearGradient id="l" x1="1.263" y1="-9.326" x2="2.263" y2="-9.326" xlink:href="#j"/><clipPath id="m"><path class="a" d="M531.187,428.542a23.924,23.924,0,0,0-6.248-2.356c-8.973-1.974-18.308,1.966-27.429.857-14.591-1.775-24.962-16.618-25.978-31.282-.749-10.812,2.532-21.375,7.156-31.024,5.5-11.485,6.484-12.745-.378-23.768a23.528,23.528,0,0,1-2.062-20.266c2.506-6.783,9.381-8.363,12.355-13.68,2.075-3.712.578-10.467.917-14.7.7-8.77,2.616-17.891,7.667-25.264a32.659,32.659,0,0,1,19.17-13.078c2.88-.747,29.4-1,28.964.149,9.377-24.734,27.779-44.457,55.938-41.947a83.158,83.158,0,0,1,19.281,4.32c8.615,2.928,13.794-.534,22.648-1.765a66.158,66.158,0,0,1,47.691,11.719c4.925,3.6,9.491,8.149,11.391,13.949,2.829,8.637-.654,18.7,3.368,26.846,3.372,6.834,10.949,10.248,17.224,14.572,8.34,5.747,15.1,14.025,18.133,23.686s2.112,20.694-3.31,29.249c-3.609,5.694-9.075,10.259-11.5,16.551-2.7,7.021-1.116,14.957,1.429,22.035s6.038,13.908,7.2,21.34c2.578,16.464-6.887,32.754-19.3,43.877-7.465,6.691-21.132,13-30.47,16.63a64,64,0,0,1-39.752,2.056c-8.458-2.254-16.366-7.556-24.743-9.464-9.245-2.106-17.855,4.236-26.062,7.311a42.481,42.481,0,0,1-39.951-5.924C546.308,442.87,539.994,433.295,531.187,428.542Z" transform="translate(-471.425 -211.963)"/></clipPath><linearGradient id="o" x1="0.487" y1="0.494" x2="0.359" y2="1.008" xlink:href="#c"/></defs><g transform="translate(-471.425 -133.031)"><path class="b" d="M733.409,401.943c4.206-8.288,8.411-15.939,11.416-24.865,3.605-12.113,7.811-23.589,12.016-35.7,16.223-51,20.428-102.008,28.239-155.563,2.637-17.988,8.582-35.473,18.87-49.316a82.418,82.418,0,0,0-32.36-2.992c-17.322,1.906-33.5,9.329-48.19,18.979-17.615,11.571-27.445,24.637-48.193,27.652a280.629,280.629,0,0,0-47.545,10.816c-24.8,8.171-49.039,20.894-66.907,41.335-26.833,30.7-42.895,89.078-17.234,125.408,7.163,10.143,17.554,19.978,16.523,32.606a32.667,32.667,0,0,1-3.293,10.885c-.761,1.661-1.571,3.3-2.337,4.945-27.407,58.763-.053,127.135,51.7,156.811q2.107,1.208,4.237,2.415a304.458,304.458,0,0,0,34.136-26.978C685.945,500.763,708.776,452.309,733.409,401.943Z" transform="translate(-24.546)"/><path class="c" d="M1032.915,386.826c-13.7-40.469-39.874-75.085-72.545-100.221-11.666-8.975-20.882-38.915-28.028-52.228-14.489-26.992-15.516-56.845-40.111-78.11a85.814,85.814,0,0,0-31.707-17.31c-10.287,13.843-16.233,31.328-18.87,49.316-7.811,53.554-12.016,104.559-28.239,155.563-4.205,12.113-8.411,23.589-12.016,35.7-3,8.926-7.21,16.577-11.416,24.865-24.634,50.366-47.464,98.82-88.921,136.436a304.451,304.451,0,0,1-34.135,26.978c13.085,7.39,26.808,14.277,41.528,14.438,17.65.194,34.724-9.391,52.276-7.409,21.218,2.4,37.544,20.829,57.6,28.561,20.344,7.843,43.712,3.891,62.53-7.46,16.287-9.824,25.536-31.5,40.983-40,11.312-6.23,25.657,1.462,37.695,1.992,21.2.935,41.144-7.458,55.8-23.768C1049.667,495.971,1048.7,433.461,1032.915,386.826Z" transform="translate(-81.121 -2.458)"/><g transform="translate(837.88 214.179)"><path class="d" d="M1131.119,277.6c3.314-1.065,3.111-3.909,6.539-5.311,3.983-1.629,7.738.785,8.155,1.062,1.5,1,2.379,2.14,3.865,4.379a51.98,51.98,0,0,1,4.7,8.868,5.77,5.77,0,0,1,8.439-2.962c2.942,1.755,4.756,5.474,5.866,9.229,4.016-1.238,8.605,1.552,10.209,6.206a7.6,7.6,0,0,0,1.218,2.728,7.054,7.054,0,0,0,1.315.947c2.424,1.655,3.446,5.467,2.992,8.806a19.225,19.225,0,0,1-3.977,8.765c-3.927,5.273-9.926,9.439-15.469,7.183a19,19,0,0,1-10.767,7.773c-6.075,1.84-13.367.888-17.264-5.08a25.5,25.5,0,0,1-22.64,1.283,6.108,6.108,0,0,1-3-2.27c-.716-1.167-.793-3.034.136-3.952-4.624,1.273-9.232-2.783-11.721-7.7a15.812,15.812,0,0,1-1.934-7.438c.067-2.637,1.231-5.345,3.221-6.389-1.752-3.529-1.042-8.162.541-11.808,1.682-3.875,4.377-7.221,7.764-8.7a8.746,8.746,0,0,1,10.117,2.131c1.587-5.338,3.586-7.129,5.157-7.753C1127,276.638,1128.182,278.545,1131.119,277.6Z" transform="translate(-1097.776 -271.729)"/><path class="e" d="M1167.047,325.659c-1.891,1.18-2.836,3.836-4.373,5.607a7.067,7.067,0,0,0-2.127-2.951,65.38,65.38,0,0,0-22.928-9.59,8.285,8.285,0,0,0-7.092,1.918,18,18,0,0,0-5.2,12.393,5.076,5.076,0,0,1-.24.885h0v.443a1.146,1.146,0,0,1,0-.443,15.6,15.6,0,0,1-2.478-.294c-1.063-.3-2.246.147-3.31,0-5.353-.955-7.272,5.024-8,10.245,2.22,2.014,4.858,3.1,7.5,2.353-.906.918-.832,2.785-.133,3.952a5.974,5.974,0,0,0,2.932,2.269,24.353,24.353,0,0,0,22.1-1.283c3.8,5.969,10.92,6.921,16.849,5.081a18.566,18.566,0,0,0,10.509-7.774c5.41,2.255,11.264-1.91,15.1-7.183a19.447,19.447,0,0,0,3.881-8.765,11.925,11.925,0,0,0-.512-5.354C1182.314,323.459,1174.271,321.677,1167.047,325.659Z" transform="translate(-1103.387 -291.171)"/></g><path class="f" d="M957.045,646.1a13.149,13.149,0,0,0-3.7-4.338c-5.413-3.927-12.879-1.866-19.561-2.12-10.1-.384-19.435-6.7-24.838-15.245s-7.173-19.023-6.439-29.1a37.344,37.344,0,0,1,4.17-15.181,22.793,22.793,0,0,1,4.848-6.258c1.1-.966,5.408-2.586,5.852-3.72,1.081-2.763-3.916-12.207-4.642-15.508a56.4,56.4,0,0,1-1.408-14.352,42.253,42.253,0,0,1,8.536-23.948,53.643,53.643,0,0,1,9.7-9.7c1.15-.9,12.507-7.6,12.465-7.884-2.728-18.291-1.489-38.841,14.371-50.922,6.278-4.782,13.8-7.673,21.34-9.772,3.256-.906,10.228-.961,12.826-2.884,2.316-1.714,1.209-3.519,1.779-6.573a20.581,20.581,0,0,1,4.493-9.176c3.667-4.419,8.665-7.5,13.64-10.366,5.1-2.942,10.437-5.8,16.276-6.573a36.838,36.838,0,0,1,11.373.578,47.485,47.485,0,0,1,16.578,5.917c4.951,3.06,9.351,7.476,15.072,8.545,5.9,1.1,11.747-1.616,17.513-3.294a51.817,51.817,0,0,1,26.482-.613c12.14,2.929,23.631,16.2,29.272,27.041,7.363,14.147,8.681,30.719,7.708,46.39-.031.5,10.653,7.293,11.839,8.4a43.921,43.921,0,0,1,8.516,10.742c4.667,8.392,5.969,18.063,5.141,27.534-1.1,12.644-5.928,23.962-10.739,35.533-2.677,6.437-1.553,7.958,3.305,12.524a28.539,28.539,0,0,1,9,15.9,27.93,27.93,0,0,1-9.57,25.771c-4.166,3.432-9.232,5.548-13.878,8.3s-9.116,6.456-10.8,11.583c-1.271,3.87-.8,8.072-1.3,12.114-1.323,10.831-9.424,19.664-18.362,25.924-9.184,6.433-19.9,11.051-31.094,11.63s-22.874-3.232-30.484-11.467c-2.676-2.9-5.023-7-8.728-8.712-3.826-1.766-4.853-.128-8.178,2.034a42.741,42.741,0,0,1-21.765,6.956,84.184,84.184,0,0,1-14.233-1.139c-9.307-1.279-18.727-2.587-27.425-6.136s-16.738-9.636-20.665-18.17C959.806,653.034,958.812,649.248,957.045,646.1Z" transform="translate(-178.806 -111.712)"/><path class="f" d="M531.187,428.623a23.924,23.924,0,0,0-6.248-2.356c-8.973-1.974-18.308,1.966-27.429.856-14.591-1.775-24.962-16.618-25.978-31.282-.749-10.812,2.532-21.375,7.156-31.024,5.5-11.486,6.484-12.745-.378-23.768a23.528,23.528,0,0,1-2.062-20.266c2.506-6.783,9.381-8.363,12.355-13.68,2.075-3.712.578-10.467.917-14.7.7-8.77,2.616-17.891,7.667-25.264a32.662,32.662,0,0,1,19.17-13.079c2.88-.747,29.4-1,28.964.15,9.377-24.734,27.779-44.457,55.938-41.947a83.189,83.189,0,0,1,19.281,4.32c8.615,2.928,13.794-.534,22.648-1.765a66.155,66.155,0,0,1,47.691,11.719c4.925,3.6,9.491,8.149,11.391,13.949,2.829,8.637-.654,18.7,3.368,26.846,3.372,6.834,10.949,10.248,17.224,14.572,8.34,5.746,15.1,14.025,18.133,23.686s2.112,20.694-3.31,29.249c-3.609,5.694-9.075,10.259-11.5,16.551-2.7,7.021-1.116,14.956,1.429,22.035s6.038,13.908,7.2,21.34c2.578,16.464-6.887,32.754-19.3,43.877-7.465,6.691-21.132,13-30.47,16.629a63.992,63.992,0,0,1-39.752,2.056c-8.458-2.254-16.366-7.556-24.743-9.465-9.245-2.106-17.855,4.237-26.062,7.312a42.482,42.482,0,0,1-39.951-5.924C546.308,442.95,539.994,433.375,531.187,428.623Z" transform="translate(0 -32.785)"/><g transform="translate(832.963 200.92)"><path class="g" d="M1100.859,254.536a22.908,22.908,0,0,1,1.43,5.562c.4,2.78-.953,5.243-1.033,7.945a5.768,5.768,0,0,0,7.627,5.8c3.178-1.192,6.2-4.37,9.613-3.019,2.145.874,4.449,3.1,6.832,1.112a23.535,23.535,0,0,0,2.873-2.718,18.606,18.606,0,0,0,.141-2.289c0-9.864-7.738-17.86-17.282-17.86a16.877,16.877,0,0,0-11.068,4.144A3.759,3.759,0,0,1,1100.859,254.536Z" transform="translate(-1093.779 -249.067)"/><path class="h" d="M1120.922,274.874c-2.383,1.986-4.687-.239-6.832-1.112-3.416-1.351-6.435,1.827-9.613,3.019a5.768,5.768,0,0,1-7.627-5.8c.079-2.7,1.43-5.164,1.033-7.945a22.913,22.913,0,0,0-1.43-5.562,3.757,3.757,0,0,0-.866-1.325,18.061,18.061,0,0,0-6.214,13.716c0,9.864,7.737,17.861,17.282,17.861a17.491,17.491,0,0,0,17.141-15.571A23.54,23.54,0,0,1,1120.922,274.874Z" transform="translate(-1089.372 -252.006)"/></g><g transform="translate(512.048 348.044)"><path class="i" d="M541.4,500.549c.088,0,.2-.052.246.051.035.08-.057.127-.126.13-.219.012-.438.01-.657.015C541,500.592,541.254,500.718,541.4,500.549Z" transform="translate(-540.858 -500.535)"/><path class="j" d="M598.01,511.552c-.4.066-.823-.111-1.208.113-.8.075-1.586-.207-2.39-.156A18.755,18.755,0,0,1,598.01,511.552Z" transform="translate(-563.079 -505.058)"/></g><g transform="translate(488.8 476.876)"><path class="d" d="M548.106,721.279c5.536-1.829,11.459,1.443,13.624,2.64,9.094,5.024,12.038,14.948,12.689,17.373,3.711-1.32,7.9.1,11.1,2.413a22.182,22.182,0,0,1,8.954,19.2,14.328,14.328,0,0,1,6.8,4.135,14.634,14.634,0,0,1,3.654,9.161,17.033,17.033,0,0,1-3.763,11.291c-4.023,5.192-9.724,6.586-14.643,7.79a39.923,39.923,0,0,1-16.234.517c-6.587,7.611-18.83,9.547-27.443,4.341-1.454-.879-2.954-2.682-1.97-4.069-4.88,3.414-11.57,2.114-17.16.061a13.034,13.034,0,0,1-5.125-2.914,4.965,4.965,0,0,1-1.161-5.456c-5.422.964-10.635-3-13.473-7.718a17.383,17.383,0,0,1-2.7-11.107c.524-3.849,3.029-7.541,6.7-8.817-3.232-2.746-2.281-7.984-.347-11.759,2.142-4.181,5.3-8.039,9.6-9.947s9.827-1.456,13.091,1.924c.405-4.012,1.841-11.358,7.582-15.473,4.3-3.08,10.182-3.758,10.239-3.584a27.829,27.829,0,0,1-3.386,1.391C544.715,722.66,546.871,721.688,548.106,721.279Z" transform="translate(-501.124 -720.736)"/><path class="k" d="M605.554,794.217a14.639,14.639,0,0,0-3.654-9.161,14.33,14.33,0,0,0-6.8-4.134,22.177,22.177,0,0,0-4.329-14.594,10.979,10.979,0,0,0-5.135-1.383c-.171,0-.342.513-.514.513a4.09,4.09,0,0,0-4.622,3.082c-.514,2.054.172,4.28-.342,6.334a3.407,3.407,0,0,1-1.37,0c-4.793-2.739-9.415-5.478-14.55-7.361-2.91-1.2-5.82-1.369-8.73-1.711-8.73-.856-18.317.856-24.308,8.045a11.627,11.627,0,0,0-2.054,10.271c1.2,4.28,3.595,8.046,3.937,12.5h.685c-.342,0-.856.171-1.2,0a18.389,18.389,0,0,0-2.568-1.2c-.514-.171-1.027-.685-1.54-.856a4.558,4.558,0,0,1-2.054-.514,6.472,6.472,0,0,0-2.568,0c-.685.342-1.37.342-2.054.685a3.371,3.371,0,0,0-2.054,3.937c-.856-.171-.172-1.37-1.027-1.54-.342,0-.684.171-1.027,0-2.91-1.712-6.5-3.6-9.929-2.739-.685.172-1.712-.171-2.568.172v.514c-.513.171-1.027-.171-1.54,0v.513a1.25,1.25,0,0,0-.326.044,22.025,22.025,0,0,0,1.265,2.429c2.837,4.72,8.05,8.682,13.473,7.717a4.964,4.964,0,0,0,1.161,5.456,13.021,13.021,0,0,0,5.125,2.914c5.591,2.053,12.28,3.353,17.161-.061-.984,1.386.516,3.19,1.971,4.069,8.613,5.206,20.856,3.269,27.442-4.341a39.92,39.92,0,0,0,16.234-.517c4.92-1.2,10.62-2.6,14.643-7.79A17.029,17.029,0,0,0,605.554,794.217Z" transform="translate(-502.033 -739.079)"/></g><path class="l" d="M1209.454,725.226l-13.219-37.454c-.194.084-.388.166-.582.252Z" transform="translate(-300.508 -230.182)"/><path class="m" d="M1182.964,742.447a113.047,113.047,0,0,0-2.7-13.734A91.315,91.315,0,0,0,1182.964,742.447Z" transform="translate(-294.125 -247.17)"/><g transform="translate(723.543 290.571)"><g class="n"><g transform="translate(-24.066 50.033)"><g transform="translate(199.454 51.702)"><path class="o" d="M1209.679,637.812a2.118,2.118,0,0,1-1.292-.609,11.9,11.9,0,0,1-2.8-3.932c-2.319-4.51-3.835-9.632-3.379-14.742a37,37,0,0,1,1.966-7.383l5.732-18.616,5.032-16.343,10.738,17.263-.006,39.358c-2.653,1.742-6.74-.792-9.393.95-1.681,1.1-3.353,2.223-5.043,3.312A3.357,3.357,0,0,1,1209.679,637.812Z" transform="translate(-1202.126 -576.187)"/><path class="o" d="M1225.617,589.8l3.183,8.377-2.921,14.973" transform="translate(-1211.873 -581.836)"/></g><path class="p" d="M1107.09,650.794a7.42,7.42,0,0,0-6.091-.3l-21.535,4.015c-4.015,22.995-24.3,1.171-25.034-15.254C1019.5,619.364,1002.749,636,993.94,671.3c-10.579,18.136-18.276,39.75-19.961,68.62l120.039-2.692c8.468-3.613,10.9-14.27,10.074-27.15C1098.592,689.87,1097.708,669.29,1107.09,650.794Z" transform="translate(-908.005 -547.116)"/><path class="q" d="M861.216,799.3l321.644-2.068-43.453,94.109-208.384,9.825Z" transform="translate(-861.216 -616.206)"/><path class="o" d="M1110.443,633.662A34.825,34.825,0,0,0,1119.4,652c2.793,3.094,6.392,5.879,10.31,5.494,3.4-.335,6.338-3.1,7.956-6.458a28.268,28.268,0,0,0,2.268-11.067,49.134,49.134,0,0,0-2.855-19.948c-2.484-6.319-12.523-20.241-20.009-14.515C1111.306,609.922,1109.523,626.866,1110.443,633.662Z" transform="translate(-964.534 -536.091)"/><path class="p" d="M1210.826,666.464a19.749,19.749,0,0,0-6.048,2.638c-.662.4-4.4,2.058-3.915,3.283l-2.214-5.634c-.246-.626-.778-2.05-1.649-2.047-.742,0-.913.9-1.186,1.49-.883,1.9-1.711,3.819-2.424,5.79a66.21,66.21,0,0,0-3.053,11.7,81.152,81.152,0,0,0-.5,21.582,109.056,109.056,0,0,0,1.712,10.948c.615,2.973.887,7.162,2.719,9.679a31.835,31.835,0,0,1,2.417,2.873c.635,1.126,1.141,2.331,1.777,3.461a43.421,43.421,0,0,0,4.181,6.175c3.175,3.89,6.9,6.4,11.085,9.043,29.557,18.67,42.855,12.556,40.15-17.949a274.561,274.561,0,0,0-17.507-39.334c-2.984-5.415-6.2-10.706-9.688-15.811q-1.237-1.811-2.522-3.591c-1.5-2.075-2.406-3.258-4.94-3.994A17.157,17.157,0,0,0,1210.826,666.464Z" transform="translate(-997.37 -561.214)"/><line class="r" x2="15.758" y2="45.958" transform="translate(203.349 111.258)"/><path class="o" d="M1179.881,567.36c-1.225,3.428-2.93,6.765-4.274,9.948a169.835,169.835,0,0,1-8.544,18.072c-4.009,7.045-9.078,13.674-15.622,18.545-3.5,2.6-5.881,3.293-10.177,3.355a29.741,29.741,0,0,1-13.227-3.076c-17.372-8.382-26.507-27.481-27.944-46.092-.683-8.844,1.809-18.391,8.525-24.185,3.871-3.34,8.818-5.188,13.8-6.357,11.284-2.647,24.99-3.051,34.925,3.394,6.83,4.43,15.03,6.875,22.588,9.9.526.21,1.571,7.936,1.537,9.031A24.6,24.6,0,0,1,1179.881,567.36Z" transform="translate(-960.29 -507.712)"/><g transform="translate(156.11 59.644)"><path class="s" d="M1128.22,589.762s-3.684,24.626,22.494,32.964" transform="translate(-1128.042 -589.762)"/><circle class="t" cx="3.442" cy="3.442" r="3.442" transform="translate(21.508 29.28)"/></g><path class="u" d="M1029.737,588.656c-.084.974-.159,1.963-.215,2.981-25.069,15.922-32.1,35.31-21.774,58.035-.984-2.165,2.636-10.237,3.418-12.586a55.238,55.238,0,0,1,3.8-9.166c2.388-4.356,5.6-8.1,10.263-10.047a28.593,28.593,0,0,1,9.8-1.762c3.455-.175,5.693-1.156,9.073-1.776,6.093-1.116,11.856,2.631,17.5,5.184a8.842,8.842,0,0,0,3.77,1.012,6.951,6.951,0,0,0,5.262-3.308c2.224-3.235,2.663-7.443,1.99-11.31-1.212-6.968-3.339-13.585-3.426-20.7-5.954,4.111-15.42,4.772-21.891,6.929C1040.784,594.005,1035.374,591.381,1029.737,588.656Z" transform="translate(-920.113 -528.229)"/><g transform="translate(146.63 48.446)"><circle class="t" cx="8.209" cy="8.209" r="8.209"/><circle class="v" cx="6.334" cy="6.334" r="6.334" transform="translate(1.874 1.874)"/></g><g transform="translate(121.198 56.818)"><path class="o" d="M1075.843,610.211c-2.669-2.476-5.672-2.288-7.009-1.121-1.062.927,1.043,1.714,2.763,5.3a76.3,76.3,0,0,1,3.507,10.624l5.451-5.724S1079.02,613.161,1075.843,610.211Z" transform="translate(-1068.443 -594.612)"/><path class="o" d="M1072.935,659.7s-4.049-6.911-4.529-13.94,3.824-18.332,4.24-24.308,3.113-15.993,4.508-17.764,1.728-5,3.356-7.889c.951-1.686,1.238-3.735,2.527-5.215a10.3,10.3,0,0,1,4.831-2.735c4.83-1.547,9.785-3.112,14.852-2.9,1.024.043,2.313.408,2.419,1.428a1.992,1.992,0,0,1-.579,1.4c-2.014,2.434-5.315,3.266-8.339,4.18a16.14,16.14,0,0,0-9.516,7.024,4.611,4.611,0,0,0-.818,2.321c0,1.7,1.556.109,2.04-.295a7.407,7.407,0,0,1,2.9-1.635,9.667,9.667,0,0,1,2.8-.14c1.9.091,3.8.19,5.695.412,1.586.186,4.17.238,5.467,1.266.786.622.6,1.171.354,2.159a21.494,21.494,0,0,1-1.491,3.857,13.449,13.449,0,0,1,1.194,4.43,5.561,5.561,0,0,1-.9,3.727,7.733,7.733,0,0,1-.264,5.981c-.433.852-1.5.875-1.931,1.21s-5.84.48-5.84.48a126.587,126.587,0,0,1-3.872,16.937c-2.4,7.139-5.536,7.38-5.536,7.38s-.527.633,1.694,3.713,3.557,5.277,3.557,5.277c-.711,2.464-2.145,3.923-6.5,5.975C1078.4,665.269,1072.935,659.7,1072.935,659.7Z" transform="translate(-1068.369 -584.931)"/><path class="o" d="M1123.025,645.589a8.958,8.958,0,0,1-1.837,2.907,16.092,16.092,0,0,1-4.513,3.574c-.823.3-.754-1.552-.492-2.886.11-.562,2.837-3.809,3.534-4.532-.953.023-3.432,3.71-4.988,2.987" transform="translate(-1087.606 -609.712)"/><g transform="translate(26.586 36.198)"><path class="o" d="M1113.811,646.8" transform="translate(-1113.811 -646.801)"/></g><path class="w" d="M1117.739,621.543a17.938,17.938,0,0,0-8.406-1.154,10.906,10.906,0,0,0-7.317,4.006" transform="translate(-1082.33 -599.595)"/><path class="w" d="M1120.43,635.548a15.539,15.539,0,0,0-6.787-.541,10.129,10.129,0,0,0-5.958,3.135" transform="translate(-1084.683 -605.641)"/></g><path class="x" d="M1043.251,635.031c-28.151.09-40.706,23.4-32.85,77.106,10.928,36.492,25.77,49.634,44.895,37.23.859-.9,1.694-1.832,2.484-2.8,8.651-10.576,10.979-24.486,11.77-37.759.765-12.835-.9-25.447-.961-38.231-.028-5.776-.356-7.933-6.225-10.55a25.314,25.314,0,0,0-18.166-.916c-6.119,2.057-5.586,4.729-5.665,9.862-.1,6.3-2.5,13.228-3.721,19.411l-4.7,23.752" transform="translate(-922.162 -548.902)"/><path class="u" d="M1165.836,519.476a51.944,51.944,0,0,0-5.367-10.635,68.952,68.952,0,0,0-8.583-10.562c-2.61-2.663-5.288-3.733-8.593-5.326a52.993,52.993,0,0,0-20.381-5.064c-17.316-.86-34.125,6.037-47.53,16.684-13.347,7.517-24.614,18.351-26.795,43.67,5.637,2.725,11.047,5.349,17.578,3.483,2.677-.765,5.391-1.354,8.093-2.019a19.1,19.1,0,0,0,5.905-2.36,8.832,8.832,0,0,1,2.3-1.192c.284-.093,3.123-.715,3.131-.779l.284-2.343a5.811,5.811,0,0,1,1.031-3.2c.621-.724,1.613-1.112,2.193-1.9.516-.7.292-1.828.711-2.622a8.063,8.063,0,0,1,4.975-4.123,6.187,6.187,0,0,1,6.1,1.679c1.468,1.471,2.03,3.777,3.219,5.484,1.375,1.975,2.676,3.981,4.768,5.276a16.611,16.611,0,0,0,7.163,2.195c6.5.637,13.083-1.167,18.855-4.231,4.93-2.618,9.127-6.138,13.3-9.8,1.518-1.33,1.432-1.58,2.293.143a35.673,35.673,0,0,1,1.239,4.122,37.123,37.123,0,0,0,3.437,7.386c.963,1.556,5.684,8.513,7.376,8.125a3.691,3.691,0,0,0,2.142-2.143C1169.45,540.314,1169.338,529.145,1165.836,519.476Z" transform="translate(-938.963 -487.818)"/><path class="w" d="M1226.612,633.591a17.951,17.951,0,0,0-7.674,10.589" transform="translate(-1009.648 -548.304)"/><path class="y" d="M1093.947,805.484h71.135l61.093,40.234-83.21,5.62Z" transform="translate(-957.784 -619.629)"/><line class="w" x1="53.416" y2="3.825" transform="translate(195.667 218.273)"/><line class="w" x1="44.735" y2="2.874" transform="translate(193.967 211.047)"/><line class="w" x1="42.618" y2="2.125" transform="translate(184.502 203.822)"/></g></g></g><path class="z" d="M1127.53,545.57s3.265-21.158,19.3-30.406c15.191-8.761,48.519-8.954,54.347,22.5" transform="translate(-272.242 -156.461)"/><rect class="q" width="29.327" height="8.564" transform="translate(938.179 422.78)"/><rect class="aa" width="29.327" height="8.564" transform="translate(957.125 412.398) rotate(90)"/><g transform="translate(471.425 179.212)"><g class="ab"><g transform="translate(-17.518 42.448)"><g transform="translate(0 145.292)"><path class="ac" d="M441.482,543.716l30.486-10.865,72.816,3.423,52.784,2.009L554.73,550.438Z" transform="translate(-441.482 -532.852)"/><path class="ac" d="M441.482,551.422v16.57L554.238,573.9l.492-15.756Z" transform="translate(-441.482 -540.557)"/><path class="ac" d="M677.536,542.137v12.154l-43.33,15.756.492-15.756Z" transform="translate(-521.45 -536.704)"/><path class="ac" d="M441.482,579.743v18.218l9.355,8.371,1.97-24.721Z" transform="translate(-441.482 -552.309)"/><path class="ac" d="M521.839,583.972l-.486,35.439h11.062V584.526Z" transform="translate(-474.623 -554.063)"/><path class="ac" d="M618.085,589.159l-1.2,40.375h10.629l2.156-41.339Z" transform="translate(-514.261 -555.816)"/><path class="ac" d="M688.866,568.332l-1.009,42.011,10.252-3.078V565.478Z" transform="translate(-543.712 -546.39)"/></g><g transform="translate(37.418 118.198)"><g transform="translate(15.319 12.313)"><path class="d" d="M560.471,507.587h-28.85l14.425,3.078Z" transform="translate(-531.621 -507.587)"/></g><g transform="translate(2.884)"><path class="ad" d="M528,523.127l-5.511-.955h.993l-.677-.084V518.48l19.214-.591-19.214-.622v-.043l10.559-1.887H522.8l1.773-4.964-1.773-2.307V497.16h13.729L522.9,495.781l1.224-2.035L522.8,492.7v-2.106h19.214L522.8,489.348v-.441l-6.117-1.181-6.121-1.184v2.365l5.528,2.341-5.528-1.321v2.955l.743,1.361-.94,1.393v.979l.107-.053,9.454,2.2-9.561-.552v1.342l6,1.35-5.9.147v2.382l1.383,1.634-1.284,1.706v7.2l3.577.82-3.577-.153v4.057l6.457,1.679v0l-6.457-1.236v3.145l7.341,1.343,4.9,1.009v-1.5Zm-13.527-12.16-3-2.283,11.329,2.207Z" transform="translate(-510.367 -486.542)"/></g><g transform="translate(32.336 30.682)"><path class="d" d="M560.706,538.984,580.2,541l12.867-1.411v-.607Z" transform="translate(-560.706 -538.984)"/></g><g transform="translate(16.644 23.158)"><path class="d" d="M545.523,528.141l26.251-2.018H533.886Z" transform="translate(-533.886 -526.123)"/></g><g transform="translate(55.032 14.695)"><path class="d" d="M599.5,511.659l9.66.863v-.863Z" transform="translate(-599.499 -511.659)"/></g><g transform="translate(16.644 7.173)"><path class="d" d="M540.949,500.026,559.3,498.8H533.886Z" transform="translate(-533.886 -498.802)"/></g><g transform="translate(15.003 35.63)"><path class="d" d="M531.081,547.441l5.511.956,1.552.269,18.355-1.225H531.081Z" transform="translate(-531.081 -547.441)"/></g><g transform="translate(0 10.019)"><path class="d" d="M517.883,505.867l-9.454-2.2-.107.053-2.884,1.428,2.884.166Z" transform="translate(-505.437 -503.667)"/></g><g transform="translate(3.99 22.142)"><path class="d" d="M523.586,526.594l-11.329-2.207,3,2.284Z" transform="translate(-512.257 -524.387)"/></g><g transform="translate(15.319 2.365)"><path class="ae" d="M531.621,490.585v.441l19.214,1.244H531.621v2.106l1.325,1.047-1.224,2.035,13.627,1.379H531.621v1.695h28.85l-14.425,3.078-14.425-3.078v9.211l1.773,2.307-1.773,4.964H542.18L531.621,518.9v.043l19.214.622-19.214.591v3.607l.677.084h24.425l-18.355,1.224-1.552-.269h-5.2v1.5h49.373v-4.745h0v-2.056l-12.866,1.411-19.49-2.018h32.356v-12.46h0v-2.664l-9.66-.863h9.66v-7.889q-.062-2.22-.107-4.441Zm8.388,6.032-7.063-1.225h25.418Zm30.826,14.76-26.251,2.018-11.637-2.018Z" transform="translate(-531.621 -490.585)"/></g><path class="af" d="M572.208,488.908l-20.416-2.365H510.7l12.238,2.806Z" transform="translate(-507.622 -486.542)"/></g><path class="ag" d="M603.331,401.375a33.667,33.667,0,0,1-18.344,11.079l43.054,39.536,16.341-8.456C633.593,428.415,619.689,414.443,603.331,401.375Z" transform="translate(-501.027 -333.005)"/><path class="ah" d="M624.116,460.126l-5.622-15.576a4.238,4.238,0,0,0-2.1-2.414c-.893-.43-1.615-.377-1.92.845l-.664,2.833-15.219-9.191c-1.552-.281-2.089.3-2.041,1.388a3.385,3.385,0,0,0,1.394,2.512l8.269,6.235-8.637-6.356c-2.078-.258-2.677,1.071-1.873,2.18l7.99,8.513-7.361-8.118a2.468,2.468,0,0,0-1.052.025c-.418.136-.443.713-.163,1.631a6.672,6.672,0,0,0,1.522,2.57l4.375,4.7-3.289-2.982c-.178,1.763,1.144,4.333,2.616,6.984a10.154,10.154,0,0,0,2.7,3.13l18.79,14.406Z" transform="translate(-505.153 -347.602)"/><path class="u" d="M775.481,361.457c-11.495,2.2-23.188,3.311-31.335-7.24-5.765-7.466-8.709-15.536-10.511-24.6-1.513-7.618-.473-15.585.735-23.481,1.079-7.045,9.4-11.694,15.774-13.55,5.465-1.593,10.465.377,15.753-.583,5.025-.913,8.572-.948,12.94,2.036a29.593,29.593,0,0,1,8.362,9.155c8.051,13.317,8.645,28.662,4.625,43.221C789.519,354.763,784.544,359.722,775.481,361.457Z" transform="translate(-562.394 -287.395)"/><path class="ah" d="M774.078,407.711a5.682,5.682,0,0,1-.73.216c-4.506,1.04-13.491,1.618-9.938-5.345,1.42-2.784,3.93-4.675,4.565-7.853.69-3.453.407-7.471,1.179-10.825,1.3-5.652,4.45-4.469,9.105-2.673a7.37,7.37,0,0,1,3.417,2.175,10.613,10.613,0,0,1,2.106,5.709c.432,4.75,2.42,10.247-.778,14.527C781.008,406.31,777.053,406.611,774.078,407.711Z" transform="translate(-574.724 -324.03)"/><path class="u" d="M717.528,566.816l-9.262,58.029,63.774-2.412,15.567-15.9-11.9-38.694Z" transform="translate(-552.18 -401.653)"/><path class="ai" d="M766.115,404.384a8.409,8.409,0,0,1-2.346,1.173,21.825,21.825,0,0,1-6.663.391c-3.87-.22-6.739-2.034-10.51-.616a23.049,23.049,0,0,0-7.387,4.92,43.1,43.1,0,0,0-7.238,8.758c-5.448,8.823-13.375,16.874-12.927,27.9.349,8.569,4.021,16.236,3.828,24.988-.219,9.961-2.85,19.712-5.48,29.258-1.165,4.228-4.883,11.484-4.32,15.707.573,4.3,7.019,7.833,10.412,9.509,10.522,5.342,22.729,7.821,34.308,5.542,8.163-1.607,15.683-5.46,23.079-9.27,1.98-1.02,4.108-2.195,4.972-4.248.83-1.973.265-4.224-.282-6.294a239.208,239.208,0,0,1-6.668-84.947c.566-5.582,4.289-16.857-2.091-20.391-1.844-1.022-5-3.688-7.07-3.893C768.53,402.749,767.34,403.593,766.115,404.384Z" transform="translate(-554.151 -333.62)"/><path class="aj" d="M731.121,409.415c-15.251-9.25-24.816-3.589-31.19,10.44l-8.308,40.565-28.174-8.246-17.387-5.089q-1.339-.392-2.68-.785c-2.454-.711-3.005.307-4.27,2.45-2.549,4.32-4.138,10.392-2.86,15.384.6,2.346,3.924,2.716,6.044,3.617l16.842,7.161,25.356,10.779c12.628,1.694,23.437-1.116,30.048-14.315,8.267-13.865,15.261-30.23,21.117-48.834" transform="translate(-522.112 -334.465)"/><path class="ah" d="M771.664,286.849a20.9,20.9,0,0,1,12.106,11.546c2.781,6.8.833,13.807.416,21.059a29.478,29.478,0,0,1-12.216,22.664,14.914,14.914,0,0,1-5.652,2.329c-3.1.773-6.5,1.741-9.643.652-9.373-3.252-12.076-12.083-13.91-20.558a49.094,49.094,0,0,1,.308-24.288c1.745-6.561,4.658-10.907,11.242-13.42A24.572,24.572,0,0,1,771.664,286.849Z" transform="translate(-565.926 -284.824)"/><path class="u" d="M798.734,317.3a121.974,121.974,0,0,0-2.965-12.362c-2.051-6.891-4.614-12.7-11.354-15.564-7.374-3.13-13.726-5.507-21.956-4.7-5.778.564-11.977,1.728-17.069,4.64-2.22,1.269-4.96,3.438-5.7,6.04-.963,3.4,2.064,8.86,3.98,11.491a18.9,18.9,0,0,0,10.089,7.137c2.721.751,5.577.82,8.365,1.258,4.735.745,8.253,2.768,9.584,7.541,1.547,5.55-.721,11.078-1.59,16.531-1.158,7.268.342,14.428,2.841,21.174,2.205,5.951,3.976,11.663,10.254,14.567,5.794,2.68,13.671.824,16.715-4.786,1.691-3.117,1.775-6.825,1.79-10.372C801.781,345.651,801.347,331.263,798.734,317.3Z" transform="translate(-565.144 -284.517)"/><path class="ak" d="M597.642,331.562l11.907,14.494,43.292-50.222" transform="translate(-506.278 -289.213)"/><path class="al" d="M782.629,336.341a5.1,5.1,0,0,1,3.024-2.083c3.324-.523,5.72,1.711,6.234,4.933.432,2.7-.858,4.963-2.714,6.8a3.465,3.465,0,0,1-2.414,1.088,2.064,2.064,0,0,1-2.044-1.557" transform="translate(-583.036 -305.125)"/></g></g></g><g transform="translate(546.978 530.807)"><path class="g" d="M612.049,818.384a22.919,22.919,0,0,1,1.43,5.562c.4,2.781-.953,5.243-1.033,7.945a5.767,5.767,0,0,0,7.627,5.8c3.178-1.192,6.2-4.369,9.613-3.019,2.145.874,4.449,3.1,6.832,1.112a23.623,23.623,0,0,0,2.873-2.718,18.585,18.585,0,0,0,.141-2.289c0-9.864-7.737-17.861-17.282-17.861a16.878,16.878,0,0,0-11.068,4.144A3.764,3.764,0,0,1,612.049,818.384Z" transform="translate(-604.968 -812.915)"/><path class="am" d="M632.112,838.722c-2.383,1.986-4.687-.238-6.832-1.112-3.416-1.35-6.435,1.827-9.613,3.019a5.767,5.767,0,0,1-7.627-5.8c.08-2.7,1.43-5.164,1.033-7.945a22.92,22.92,0,0,0-1.43-5.562,3.764,3.764,0,0,0-.867-1.325,18.064,18.064,0,0,0-6.215,13.717c0,9.864,7.737,17.86,17.282,17.86A17.491,17.491,0,0,0,634.984,836,23.628,23.628,0,0,1,632.112,838.722Z" transform="translate(-600.561 -815.854)"/></g></g></svg>