<svg xmlns="http://www.w3.org/2000/svg" xmlns:xlink="http://www.w3.org/1999/xlink" width="569.926" height="408.603" viewBox="0 0 569.926 408.603"><defs><style>.a,.h,.m,.n{fill:none;}.b{clip-path:url(#a);}.c{fill:url(#b);}.d{fill:url(#c);}.e{fill:url(#d);}.f{fill:url(#e);}.g{fill:#2a7195;}.h{stroke:#195770;stroke-linecap:round;}.h,.i,.j,.l,.m,.n,.o,.p,.r,.t,.u{stroke-miterlimit:10;}.i,.l{fill:#685545;}.i,.j{stroke:#352e28;}.j{fill:#d3b39b;}.k,.p{fill:#100052;}.l,.m,.n,.o,.p,.r,.t,.u{stroke:#100052;}.l{stroke-width:0.212px;}.m,.o{stroke-width:0.505px;}.o,.r,.t{fill:#f9c3a5;}.p{stroke-width:0.577px;}.q{fill:#ea665b;}.s{fill:#fff;}.t{stroke-width:0.929px;}.u{fill:#ed7a74;}.v{fill:url(#f);}.w{fill:url(#g);}.x{fill:url(#h);}.y{fill:url(#i);}.z{fill:url(#j);}</style><clipPath id="a"><path class="a" d="M463.05,464.893c-4.332-56.183,34.818-125.829,72.423-165.3,22.8-23.932,52.329-42.412,85.834-45.667,38.189-3.71,59.869,3.036,94.917-16.748,62.824-35.462,137.6-10.159,193.688,29.595,46.534,32.983,105.239,89.949,107.259,150.114,4.2,125.106-122.879,198.306-232.789,204.346-64.331,3.535-142.049,18.947-202.369-7.787C522.949,587.266,468.224,531.949,463.05,464.893Z" transform="translate(-462.72 -220.253)"/></clipPath><linearGradient id="b" y1="0.5" x2="1" y2="0.5" gradientUnits="objectBoundingBox"><stop offset="0" stop-color="#ff9077"/><stop offset="1" stop-color="#e9645a"/></linearGradient><linearGradient id="c" x1="0.88" y1="0.121" x2="-0.391" y2="1.178" gradientUnits="objectBoundingBox"><stop offset="0" stop-color="#faebd8"/><stop offset="1" stop-color="#ffb83f"/></linearGradient><linearGradient id="d" x1="0.547" y1="-0.216" x2="0.462" y2="0.793" xlink:href="#c"/><linearGradient id="e" x1="0.839" y1="-0.525" x2="0.199" y2="1.283" gradientUnits="objectBoundingBox"><stop offset="0" stop-color="#faebd8"/><stop offset="0.242" stop-color="#fbdfb3"/><stop offset="1" stop-color="#ffb83f"/></linearGradient><linearGradient id="f" x1="0.468" y1="-0.103" x2="0.542" y2="1.283" gradientUnits="objectBoundingBox"><stop offset="0" stop-color="#b9bdab"/><stop offset="1" stop-color="#769cae"/></linearGradient><linearGradient id="g" x1="0.454" y1="-0.03" x2="0.56" y2="1.188" xlink:href="#f"/><linearGradient id="h" x1="0.496" y1="-4.471" x2="0.505" y2="7.564" xlink:href="#f"/><linearGradient id="i" x1="0.538" y1="0.354" x2="0.334" y2="1.011" xlink:href="#c"/><linearGradient id="j" x1="0.487" y1="0.494" x2="0.359" y2="1.008" xlink:href="#c"/></defs><g transform="translate(-462.72 -220.253)"><g transform="translate(462.72 220.253)"><g class="b"><g transform="translate(0.003)"><path class="c" d="M463.58,464.893C459.248,408.71,498.4,339.064,536,299.591c22.8-23.932,52.329-42.412,85.834-45.667,38.189-3.71,59.868,3.036,94.916-16.748,62.825-35.462,137.6-10.159,193.688,29.595,46.534,32.983,105.239,89.949,107.26,150.114,4.2,125.106-122.879,198.306-232.789,204.346-64.331,3.535-142.049,18.947-202.368-7.787C523.479,587.266,468.754,531.949,463.58,464.893Z" transform="translate(-462.925 -220.253)"/><path class="d" d="M914.23,266.771c-56.088-39.754-130.864-65.057-193.688-29.595-35.048,19.784-56.728,13.038-94.917,16.748-33.505,3.255-63.034,21.736-85.834,45.667-26.269,27.573-53.287,69.87-65.716,112.016,1.653.633,3.314,1.252,4.992,1.838,153.068,53.915,298.7-34.084,444.33-78.7,16.931-5.183,34.248-10.172,51.748-14.2C956.2,299.321,934.1,280.858,914.23,266.771Z" transform="translate(-467.042 -220.253)"/><path class="e" d="M625.96,536.507c-55.634,7.1-109.006,2.326-162.817-12.692a121.041,121.041,0,0,0-.091,18.9c5.174,67.055,59.9,122.373,118.963,148.551C642.334,718,720.052,702.59,784.384,699.054c109.91-6.04,236.989-79.24,232.789-204.347-.814-24.245-10.842-47.967-25.562-69.813-35.328,3.283-69.509,14.377-102.275,27.952C803.2,488.17,719.536,524.733,625.96,536.507Z" transform="translate(-462.725 -298.077)"/><path class="f" d="M919.338,396.283C773.706,440.9,628.075,528.9,475.007,474.986c-1.678-.586-3.338-1.2-4.992-1.838a169.943,169.943,0,0,0-6.617,34.384c53.811,15.019,107.183,19.795,162.817,12.692,93.576-11.774,177.236-48.337,263.376-83.66,32.766-13.575,66.948-24.669,102.275-27.952a248.716,248.716,0,0,0-20.782-26.533C953.585,386.111,936.269,391.1,919.338,396.283Z" transform="translate(-462.982 -281.795)"/><path class="g" d="M859.6,708" transform="translate(-613.654 -405.74)"/><line class="h" x1="10.709" y2="51.373" transform="translate(122.379 311.884)"/><path class="i" d="M825.719,514.778" transform="translate(-600.769 -332.259)"/><path class="j" d="M889.525,738.138l1.1,22.005h-18.77l-1.712-11.857Z" transform="translate(-617.662 -417.201)"/><g transform="translate(84.758 135.269)"><path class="k" d="M668.185,615.782c1.331,6.908,7.084,12.649,13.325,15.691a33.836,33.836,0,0,0,20.852,2.489,15.136,15.136,0,0,0,5.126-1.732,18.637,18.637,0,0,0,3.25-2.714q5.413-5.266,10.825-10.532c1.6-1.555,2.3-2.036,2.588-4.275.159-1.221.31-2.442.465-3.662L711.329,595.12c-7.258,6.68-13.979,3.723-12.135-3.605a98.049,98.049,0,0,1-32.355,7.942c.366,4.808.758,9.615,1.1,14.426A16,16,0,0,0,668.185,615.782Z" transform="translate(-625.107 -496.711)"/><path class="l" d="M609,709.83c-6,19.66-9.715,39.012-9.5,57.75.121,10.458,12.567,16.35,20.3,21A172.545,172.545,0,0,0,652.346,803.8c10,3.457,20.659,6.009,31.107,4.358a13.553,13.553,0,0,0,4.438-1.329c3.716-2.037,4.343-3.493,1.523-5.953-1.828-1.6-3.707-3.135-5.559-4.7l-15.281-12.924-22.229-18.8a.375.375,0,0,1-.048-.04l11.371-55.849-36.745-12.619Z" transform="translate(-599.496 -536.425)"/><path class="m" d="M631.248,804.454c15.681,1.723,29.532,6.02,39.462,15.834" transform="translate(-611.571 -577.69)"/><path class="k" d="M855.571,572.741c-2.82-2.427-6.257-4.338-8.039-7.626a8.341,8.341,0,0,1-.992-6.241c.751-2.7,2.918-3.548,4.413-5.592,7.087-9.688,4.595-20.794-5.285-32.993a22.752,22.752,0,0,1-1.386,9.736c-2.66,4.787-8.815,2.763-13.556,1.162,5.848,18.155-5.359,46.9-12.272,60.558.13-.257,3.972-.43,4.454-.512,1.793-.305,3.569-.7,5.338-1.123,1.616-.384,3.225-.8,4.834-1.21,1.307-.338,3.335-1.314,4.67-1.2,1.167.1,2.519,1.1,3.664,1.483a21.137,21.137,0,0,0,4.708.993,14.49,14.49,0,0,0,9.938-2.339c2.8-2.064,4.521-5.771,3.626-9.134A11.854,11.854,0,0,0,855.571,572.741Z" transform="translate(-682.764 -469.624)"/><g transform="translate(2.552 111.445)"><path class="g" d="M695.918,628.63a6.585,6.585,0,0,0-.015-.894c-.151-1.621-.861-1.44-2.586-1.808-6.179-1.319-12.547-1.144-18.824-.971-5.388.148-10.786.3-16.149.884-4.837.524-9.5,2.045-14.307,2.557-3.811.406-5.862,1.228-8.625,4.106-3.32,3.459-5.942,7.508-9.168,11.048-6.614,7.259-10.766,16.811-15.561,25.452-3,5.4-6.043,10.945-6.98,17.049a3.647,3.647,0,0,0,.055,1.826,3.742,3.742,0,0,0,1.039,1.339c5.929,5.536,13.256,9.235,20.665,12.369,3.266,1.382,6.61,3.147,10.027,3.954,3,.71,7.383,1.089,7.213,4.805a50.229,50.229,0,0,1-2.374,14.225c-1.107,3.031-3.15,8.528-1.125,11.585,6.531,9.862,26.038,21.312,45.931,32.808,35.835,20.08,66.625,19.581,92.737,0l-8.311-64.3c12.128-6.692,23.5-13.5,24.934-21.872l-7.523-41.573a25.932,25.932,0,0,0-8.072-14.78c-7.7-6.884-18.562-8.265-30.336-8.048.262,4.254-3.517,7.021-6.929,8.708a36.546,36.546,0,0,1-4.482,1.814c-1.041.353-4.071.674-4.656,1.552s-.008,4.044-.156,5.193a22.759,22.759,0,0,1-1.29,5.156,12.355,12.355,0,0,1-1.806,3.351c-2.916,3.657-8.193,4.26-12.869,4.14A39.973,39.973,0,0,1,706.09,646.9a13.822,13.822,0,0,1-5.52-2.852,12.721,12.721,0,0,1-2.533-3.409,20.428,20.428,0,0,1-2.371-8.589C695.608,630.934,695.867,629.751,695.918,628.63Z" transform="translate(-603.615 -618.368)"/><line class="n" x2="6.999" y2="33.391" transform="translate(158.947 52.903)"/></g><path class="l" d="M755.995,612.871a2.4,2.4,0,0,0-1.363,1.3c-2.637,5.225-2.337,14.433-1.738,20.2.361,3.478,1.162,7.122,3.343,9.523a12.423,12.423,0,0,0,3.462,2.525,28.821,28.821,0,0,0,22.108,2.18,8,8,0,0,0,3.527-1.912c1.557-1.611,2.061-4.171,2.426-6.564q.9-5.9,1.357-11.874a32.506,32.506,0,0,0,.346-5.981c-.2-1.588-.051-1.161-1.152-1.762-2.238-1.221-5.5-1.365-7.909-1.963l-10.814-2.684-9.632-2.39C758.619,613.143,757.163,612.477,755.995,612.871Z" transform="translate(-657.677 -504.786)"/><path class="l" d="M729.7,558.414c6.573,11.176,17.859,18.967,33.225,23.826a22.123,22.123,0,0,0,11.726.466c18.121-4.245,20.952-13.459,21.522-42.524.012-.613,0-1.233-.045-1.844-.913-12.2-5.191-23.508-12.186-34.089L748.071,492l-30.183,59.492C710.305,557.47,726.2,569.864,729.7,558.414Z" transform="translate(-643.749 -458.866)"/><path class="k" d="M781.687,498.934a22.755,22.755,0,0,0,1.386-9.736,101.222,101.222,0,0,0-10.025-10.532,102.413,102.413,0,0,0-8.508-20.133c-1.724-2.967-3.448-5.892-6.1-8.088a62.215,62.215,0,0,0-8.471-5.67c-1.5-.874-3.012-1.734-4.583-2.471-13.411-6.292-30.186-3.8-43.674.859-8.421,2.909-16.228,6.608-22.044,13.611-8.535,10.278-10.263,24.036-11.883,36.826a17.4,17.4,0,0,1-6.2,11.349c-10.5,8.523-10.076,18.941-.084,31.023l.4,5.308a98.048,98.048,0,0,0,32.355-7.942c.018-.071.031-.139.05-.21,29.025-17.093,37.5-37.585,33.464-60.147,8.7,8.013,19.885,12.441,33.9,12.8,2.757,5.612,6.108,11.147,7.851,16.56C774.266,503.943,779.027,503.721,781.687,498.934Z" transform="translate(-620.17 -438.533)"/></g><g transform="translate(255.943 47.423)"><path class="o" d="M1023.4,427.683c2.272,4.331,5.932,7.784,9.864,10.693a43.318,43.318,0,0,1,6.542,5.289c1.891,2.077,3.258,4.834,2.943,7.626-.289,2.556-1.919,4.751-3.664,6.641a42.339,42.339,0,0,1-38.189,12.651,13.452,13.452,0,0,1-5.982-2.341,5.813,5.813,0,0,1-2.3-5.691c.408-1.643,1.7-2.892,2.879-4.108a50.347,50.347,0,0,0,12.111-20.856c1.044-3.586,1.686-7.29,2.965-10.8.881-2.414,4.957-12,8.2-11.776C1021.641,415.211,1022.241,425.48,1023.4,427.683Z" transform="translate(-920.131 -341.74)"/><path class="p" d="M1080.238,377.341a60.659,60.659,0,0,1-14.95,19.687,40.023,40.023,0,0,1-25.473,10.122q-.572.99-1.225,2.034l7.236,10.4,10.314,14.826a18.056,18.056,0,0,0,2.819,3.648,20.92,20.92,0,0,0,8.345,3.979c9.911,2.7,20.358,2.5,30.51,4.055,3.7.568,7.571,1.356,11.1.118,4.42-1.548,7.045-6.768,5.138-11.114l-4.462-10.166a80.195,80.195,0,0,0-3.6-7.484c-2.489-4.377-5.784-8.256-8.257-12.643-1.086-1.927-2.007-3.941-3.082-5.874-1.215-2.185-2.622-4.257-4.026-6.327L1085,384.319C1084.544,383.64,1079.943,377.934,1080.238,377.341Z" transform="translate(-937.665 -327.415)"/><path class="p" d="M882.691,413.449C888.3,428.6,897.13,443.4,895,458.981c-7.386,20.015-9.271,41.191,0,64.724.23-12.532,1.923-25.375,7.05-36.917a54.815,54.815,0,0,1,8.706-13.836c3.24-3.712,8.2-8.23,12.955-9.767.995-.321,2.225-.693,2.43-1.717-2.693-1.64-.863-4.623-1.93-7.546a21.476,21.476,0,0,0-3.9-5.975q-5.032-6.16-9.679-12.622c-1.664-2.313-3.128-6.146-5.37-7.668-2.426-1.648-5.876-2.447-8.514-3.836a60.9,60.9,0,0,1-7.745-4.81C887.344,417.787,883.428,415.443,882.691,413.449Z" transform="translate(-878.378 -341.147)"/><path class="q" d="M1106.572,656.568c-34.149,68.356-95.452,67.891-136.988,59.537l-9.479-12.76-25.394-34.187c-11.082-14.919-17.244-32.761-21.188-50.853q-2.265-10.388-4.514-20.779c-2.917-13.471-5.823-26.995-6.909-40.735a115.516,115.516,0,0,1,1.065-29.026c1.276-7.278,2.346-15.033,5.229-21.858a53.112,53.112,0,0,1,11.285-16.852,58.67,58.67,0,0,1,8.649-7.108c2.2-1.495,7.065-5.528,9.767-5.528H953.41c3.313,0,6.258,2.74,8.533,4.914,2.993,2.859,5.154,4.8,9.462,5.632a30.512,30.512,0,0,0,21.54-4.155,29.757,29.757,0,0,0,8.549-7.644,15.159,15.159,0,0,0,2.549-5.041c.648-2.6-1.751-5.652-.01-7.7,1.647-1.933,8.295-1.224,10.44-1.348l28.721-1.671c13.01-.757,24.145,2.313,32.069,13.282,4.484,6.207,7.279,13.444,10.026,20.592q3.215,8.364,6.43,16.728c3.8,9.879,7.838,19.741,10.043,30.06s6.321,19.608,7.1,30.39a29.831,29.831,0,0,1-.607,10.057c-1.726,6.263-6.672,11.039-11.453,15.439-2.731,2.513-5.475,5.015-8.326,7.392-1.95,1.626-9.24,5.276-10.044,7.379s4.352,8.142,5.648,10.194q3.679,5.826,7.362,11.648Z" transform="translate(-885.592 -358.584)"/><path class="n" d="M971.185,589.714c-3.293,36.905,2.937,73.924,9.143,110.452" transform="translate(-911.686 -408.179)"/><path class="r" d="M992.19,406.136c3.918-1.312,6.816-4.777,8.425-8.582,1.945-4.6,3.839-11.927,1.97-16.762-1.668-4.317-6.205-7.115-10.815-7.531s-9.214,1.253-13.091,3.782c-1.5.98-2.093,1.764-3.816,1.541a13.613,13.613,0,0,1-1.576-.406l-5.4-1.392-16.463-4.243c-8.787-2.265-17.563-4.589-26.365-6.8L914.466,389.68c-.98,2.215-2.028,4.06-2,6.423.051,3.982,1.767,8.618,2.929,12.4a93.482,93.482,0,0,0,10.464,22.7c4.145,6.516,9.407,12.744,16.553,15.672,7.974,3.268,17.45,1.832,24.726-2.785a37.186,37.186,0,0,0,13.081-15.031c3.128-6.309,6.5-11.774,7.8-18.9" transform="translate(-889.702 -323.006)"/><path class="p" d="M982.823,374.966c-.028.04-.056.08-.084.119a24.588,24.588,0,0,1-4.469,4.62c-.71.586-.644.984-.113,1.62s3.858,6.809,6.11,7.831a1.042,1.042,0,0,0,.8-.388c.7-2.124,1.06-4.345,1.71-6.484a12.09,12.09,0,0,1,3.321-5.725,8.193,8.193,0,0,1,2.38-1.495,7.116,7.116,0,0,0,2.031-1.263c1.563-1.245,3.128-2.487,4.673-3.754a88.848,88.848,0,0,0,8.721-8,64.4,64.4,0,0,0,10.406-15.341c-20.9-28.953-53.794-55.279-91.561-48.987-18.765,3.126-36.241,14.383-45.956,30.739-4.075,6.858-5.6,16.239-4.869,24.154.382,4.111,1.194,13.34,4.127,16.469,6.2,6.618,12.9,11.935,22.053,15.286-.227-.53-1.414-8.112-.747-11.138,1.455-6.6,5.9-9.061,8.916-14.33a22.225,22.225,0,0,0,.821-19.379c11.716,27.942,30.26,35.325,54.64,25.144.921-.935.335-2.056.517-3.31a8.731,8.731,0,0,1,1.745-4,15.173,15.173,0,0,1,5.505-4.184,8.4,8.4,0,0,1,4.263-1.088,6.665,6.665,0,0,1,5.827,4.094,22.785,22.785,0,0,1,1.328,6.443,26.59,26.59,0,0,1,.267,6.568A13.2,13.2,0,0,1,982.823,374.966Z" transform="translate(-875.737 -296.778)"/><path class="s" d="M875.732,668.6l99.883-70.25,17.172,70.25-95.749,51.517Z" transform="translate(-875.732 -411.462)"/><path class="t" d="M1068.9,676.775c-2.153-1.1-3.656-2.8-5.519-4.592l-6.611-6.375a5.7,5.7,0,0,0-3.957-1.6h-11.688c-4.178,0-6.153.136-8.986,3.189a41.844,41.844,0,0,1-9.74,8.249,6.128,6.128,0,0,0-2,1.482,1.814,1.814,0,0,0-.032,2.3,2.464,2.464,0,0,0,1.828.485c7.094-.167,12.4-2.853,17.945-7.01l-19.115,15.371c-2.313,1.806-.034,5.63,2.717,4.439l18.089-7.247-19.81,8.063c-1.312.639-.794,4.23.655,4.054,6.779.88,15.187-.574,24.229-2.937l-9.9,2.15c-1.555.622-.965,3.687.71,3.687l9.349.718a7.419,7.419,0,0,1,4.678,2.151l1.541,1.54a9.538,9.538,0,0,0,8.285,2.707,60.453,60.453,0,0,0,7.741-1.839c1.8-.55,3.581-1.174,5.336-1.855a14.571,14.571,0,0,1,2.483-.943,10.514,10.514,0,0,0,2.447-1.087c5.75-2.777,11.691-5.133,17.681-7.339,4.614-1.7,8.6-5.02,9.085-10.262a11.706,11.706,0,0,0-4.311-10.01,12.358,12.358,0,0,0-10.721-2.208c-3.671.975-6.7,3.552-10.239,4.942A15.044,15.044,0,0,1,1068.9,676.775Z" transform="translate(-930.584 -436.51)"/><path class="n" d="M1164.628,696.865c15.6-5.74,31.609-18.894,38.471-27.263" transform="translate(-985.597 -438.56)"/><path class="u" d="M1121.57,669.3c.163-.186.331-.369.5-.549,5.442-5.812,14.351-9.758,21.408-4.113a25.272,25.272,0,0,1,8.429,13.617,18.922,18.922,0,0,1,.558,7.1,16.375,16.375,0,0,1-6.609,10.57c-2.179,1.657-4.383,3.477-7.207,3.568a10.449,10.449,0,0,1-7-2.383c-1.391-1.171-.167-2.071,1.08-2.47a10.278,10.278,0,0,0,3.861-1.673,14.905,14.905,0,0,0,5.486-8.023c1.107-4.471-.652-9.721-4.659-11.993-3.951-2.239-7.817-1.275-11.7.434-1.176.517-4.983,2.241-5.994.92C1118.686,672.943,1120.725,670.271,1121.57,669.3Z" transform="translate(-968.412 -435.632)"/><path class="n" d="M1124.649,625.168l11.061-9.094c6.2-5.1,12.812-10.862,14.267-18.758,1.232-6.688-1.546-13.393-4.263-19.626L1133.081,548.7" transform="translate(-970.393 -392.583)"/></g><g transform="translate(166.574 312.19)"><rect class="v" width="176.945" height="107.974" transform="translate(0 1.629)"/><circle class="w" cx="13.533" cy="13.533" r="13.533" transform="translate(74.939 31.473)"/><path class="x" d="M731.52,725.652l9.881-1.629H902.938l5.527,1.629Z" transform="translate(-731.52 -724.023)"/></g></g></g><line class="n" x1="8.639" y2="32.716" transform="translate(126.401 305.978)"/><path class="n" d="M679.728,766.793s-10.225,24.3,23.239,30.184" transform="translate(-544.687 -428.098)"/><path class="m" d="M1094.86,680.821a28.946,28.946,0,0,1,3.694,16.447" transform="translate(-703.118 -395.404)"/><g transform="translate(13.604 27.399)"><path class="y" d="M500.584,272.455a33.482,33.482,0,0,1,2.089,8.122c.58,4.062-1.393,7.659-1.509,11.6-.232,5.918,5.454,10.56,11.14,8.471,4.642-1.741,9.051-6.382,14.041-4.41,3.133,1.277,6.5,4.526,9.98,1.625a34.446,34.446,0,0,0,4.2-3.97,27.163,27.163,0,0,0,.206-3.344c0-14.408-11.3-26.087-25.242-26.087a24.652,24.652,0,0,0-16.166,6.053A5.488,5.488,0,0,1,500.584,272.455Z" transform="translate(-490.242 -264.467)"/><path class="z" d="M530.755,301.582c-3.481,2.9-6.846-.348-9.98-1.625-4.99-1.973-9.4,2.669-14.041,4.41-5.686,2.088-11.372-2.553-11.141-8.471.117-3.945,2.089-7.542,1.509-11.6a33.481,33.481,0,0,0-2.089-8.122,5.489,5.489,0,0,0-1.265-1.935,26.382,26.382,0,0,0-9.077,20.035c0,14.408,11.3,26.087,25.243,26.087,12.845,0,23.448-9.915,25.036-22.743A34.454,34.454,0,0,1,530.755,301.582Z" transform="translate(-484.672 -268.181)"/></g><g transform="translate(539.178 290.09)"><path class="y" d="M1342.464,693.227a20.376,20.376,0,0,1,1.272,4.947c.353,2.474-.848,4.665-.919,7.068a5.131,5.131,0,0,0,6.785,5.159c2.827-1.06,5.512-3.887,8.551-2.686,1.908.778,3.958,2.756,6.078.99a21.035,21.035,0,0,0,2.555-2.418,16.508,16.508,0,0,0,.126-2.036,15.637,15.637,0,0,0-15.374-15.888,15.016,15.016,0,0,0-9.846,3.686A3.348,3.348,0,0,1,1342.464,693.227Z" transform="translate(-1336.165 -688.362)"/><path class="z" d="M1360.839,710.966c-2.12,1.767-4.17-.212-6.078-.99-3.039-1.2-5.725,1.625-8.551,2.686a5.131,5.131,0,0,1-6.785-5.159c.071-2.4,1.272-4.594.919-7.068a20.364,20.364,0,0,0-1.272-4.947,3.341,3.341,0,0,0-.771-1.179,16.07,16.07,0,0,0-5.528,12.2,15.352,15.352,0,0,0,30.622,2.036A20.978,20.978,0,0,1,1360.839,710.966Z" transform="translate(-1332.773 -690.624)"/></g></g><path class="n" d="M1134.292,670.516a12.944,12.944,0,0,1,12.107,1.542,14.963,14.963,0,0,1,6.04,10.76,11.3,11.3,0,0,1-.94,6.011" transform="translate(-255.394 -170.904)"/></g></svg>