<svg xmlns="http://www.w3.org/2000/svg" xmlns:xlink="http://www.w3.org/1999/xlink" width="474.969" height="350.709" viewBox="0 0 474.969 350.709"><defs><style>.a,.j{fill:none;}.b{fill:url(#a);}.c{clip-path:url(#b);}.d{fill:url(#c);}.e{fill:url(#d);}.f,.h{fill:#f9c3a5;}.f,.g,.h,.j{stroke:#100052;stroke-miterlimit:10;}.f{stroke-width:0.505px;}.g{fill:#100052;stroke-width:0.577px;}.h{stroke-width:0.49px;}.i{fill:#ea665b;}.j{stroke-width:0.45px;}.k{fill:#fff;}.l{fill:url(#f);}.m{fill:url(#g);}.n{fill:url(#j);}.o{fill:url(#k);}.p{fill:url(#l);}.q{fill:url(#m);}.r{fill:url(#n);}.s{fill:url(#o);}.t{fill:url(#p);}</style><linearGradient id="a" y1="0.5" x2="1" y2="0.5" gradientUnits="objectBoundingBox"><stop offset="0" stop-color="#faebd8"/><stop offset="1" stop-color="#ffb83f"/></linearGradient><clipPath id="b"><path class="a" d="M661.317,557.937c-23.775-13.51-53.794-27.583-79.208-14.552-5.57,2.856-10.418,6.909-15.52,10.537a118.77,118.77,0,0,1-30.822,15.723c-13.492,4.549-28.237,6.619-42,2.967a45.5,45.5,0,0,1-32.505-32.92c-3.528-14.308-4.378-29.676.477-43.59s16.118-26.094,30.474-29.419c6.232-1.444,12.6-1.135,18.888-.27,4.122.566,10.646,3.846,14.649,3.059,6.971-1.37,14.158-14.63,15.655-21.2,2.464-10.82-5.316-23.251-6.931-33.816-3.01-19.707,8.855-40.717,27.285-48.315,11.773-4.853,24.32-5,36.379-9.765,13.944-5.508,28.025-10.742,42.434-14.915,28.081-8.132,57.9-12.423,86.759-5.811,24.581,5.631,48.179,19.158,73.95,18.4,22.325-.655,44.626,3.99,63.536,17.161,14.13,9.842,24.966,24.48,28.259,41.52,3.168,16.393,8.649,32.358,10.616,49.3,1.332,11.461-2.313,23.048,7.556,30.968,9.8,7.862,18.675,12.545,21.35,26.248,2.2,11.251-.783,23.063-6.345,33.085-11.14,20.072-30.578,28.386-53.175,28.481-15.721.065-31.2-3.807-46.183-8.551-15.037-4.759-30.379-10.5-46.086-9.075-21.806,1.978-40.984,17.539-62.879,17.756-16.563.164-31.773-8.482-46.056-16.869C668.533,562.109,665,560.03,661.317,557.937Z" transform="translate(-458.357 -332.408)"/></clipPath><linearGradient id="c" y1="0.5" x2="1" y2="0.5" gradientUnits="objectBoundingBox"><stop offset="0" stop-color="#2a7195"/><stop offset="1" stop-color="#060c39"/></linearGradient><linearGradient id="d" x1="0.246" y1="1.179" x2="1.248" y2="-0.348" xlink:href="#c"/><linearGradient id="f" x1="0.538" y1="0.354" x2="0.334" y2="1.011" xlink:href="#a"/><linearGradient id="g" x1="0.487" y1="0.494" x2="0.359" y2="1.008" xlink:href="#a"/><linearGradient id="j" x1="-3.711" y1="-7.868" x2="-3.741" y2="-5.813" xlink:href="#c"/><linearGradient id="k" x1="-4.362" y1="-6.068" x2="-3.115" y2="-6.068" xlink:href="#c"/><linearGradient id="l" x1="-16.304" y1="-90.201" x2="-16.243" y2="-89.219" xlink:href="#c"/><linearGradient id="m" x1="-13.34" y1="-24.173" x2="-12.584" y2="-23.145" xlink:href="#c"/><linearGradient id="n" x1="-12.418" y1="-24.431" x2="-13.326" y2="-11.682" xlink:href="#c"/><linearGradient id="o" x1="-15.179" y1="-28.911" x2="-13.996" y2="-28.911" xlink:href="#c"/><linearGradient id="p" x1="0.877" y1="-0.587" x2="-0.161" y2="2.405" xlink:href="#c"/></defs><g transform="translate(-458.357 -129.089)"><g transform="translate(458.357 161.512)"><path class="b" d="M760.531,350.067c-18.88-3.607-23.622-16.688-17.736-36.892-22.5-21.662-15.924-35.31,3.547-45.405-14.3-28.313,1.792-41.6,48.567-39.73,21.425-44.848,45.326-40.105,70.071-18.446,38.793-7.887,58.2,5.931,56.6,43.277,47.237,17.909,43.074,37.535,29.8,57.466,28.062,36.753,1.419,55.685-14.188,46.311,4.76,17.841-6.589,23.278-24.832,23.4Z" transform="translate(-592.796 -193.608)"/><g transform="translate(0 69.752)"><g class="c"><g transform="translate(0.002 -72.014)"><path class="d" d="M518.047,545.336c84.425-13.066,158.8-45.228,233.175-84.928,36.182-19.6,69.852-41.71,111.06-45.228,7.491-.725,14.982-1.1,22.473-1.182a72.353,72.353,0,0,0-19.935-20.693c-14.806-10.312-32.7-15.492-50.636-17.487-22.052-2.452-45.408-.019-64.3,11.618-7.707,4.747-15.216,12.364-24.121,14.8-9.085,2.487-20.368,1.507-29.734,1.11-12.553-.532-25.149-1.1-37.512-3.332-25.092-4.532-49.129-15.887-74.627-15.769a58.733,58.733,0,0,0-22.128,3.987c-18.431,7.6-30.3,28.608-27.285,48.315,1.614,10.566,9.395,23,6.931,33.816-1.5,6.572-8.685,19.831-15.655,21.2-4,.786-10.528-2.493-14.649-3.059-6.286-.864-12.656-1.173-18.888.27C477.86,492.1,466.6,504.282,461.742,518.2c-3.419,9.8-4.006,20.318-2.824,30.682C478.215,551.336,498.953,548.063,518.047,545.336Z" transform="translate(-458.361 -281.56)"/><path class="e" d="M911.8,553.741c-9.869-7.92-6.224-19.508-7.556-30.968-1.968-16.94-7.448-32.9-10.616-49.3a60.883,60.883,0,0,0-8.324-20.827c-7.491.084-14.982.457-22.473,1.182-41.208,3.518-74.877,25.629-111.06,45.228-74.375,39.7-148.75,71.862-233.175,84.928-19.093,2.728-39.831,6-59.128,3.542a102.558,102.558,0,0,0,2.346,12.907,45.5,45.5,0,0,0,32.505,32.921c13.762,3.651,28.507,1.582,42-2.968a118.767,118.767,0,0,0,30.822-15.723c5.1-3.628,9.95-7.681,15.52-10.538,25.414-13.031,55.433,1.043,79.208,14.552,3.683,2.093,7.216,4.172,10.559,6.135,14.284,8.387,29.493,17.033,46.056,16.869,21.894-.217,41.072-15.778,62.879-17.756,15.707-1.425,31.049,4.316,46.086,9.075,14.988,4.744,30.462,8.617,46.182,8.551,22.6-.094,42.035-8.409,53.175-28.48,5.563-10.023,8.542-21.835,6.345-33.085C930.479,566.285,921.6,561.6,911.8,553.741Z" transform="translate(-458.913 -320.21)"/><path class="b" d="M758.964,345.565c-18.88-3.607-23.623-16.688-17.736-36.892-22.5-21.662-15.924-35.31,3.547-45.405-14.3-28.313,1.792-41.6,48.567-39.73,21.425-44.848,45.326-40.105,70.071-18.445,38.793-7.888,58.2,5.931,56.6,43.277,47.238,17.909,43.074,37.535,29.8,57.466,28.062,36.753,1.419,55.685-14.188,46.311,4.76,17.841-6.589,23.278-24.832,23.4Z" transform="translate(-592.018 -189.106)"/><g transform="translate(166.605 86.775)"><path class="f" d="M845.341,546.825c.357,13.153-.424,25.37-4.165,35.157h13.24l.473-17.578Z" transform="translate(-815.404 -453.835)"/><path class="f" d="M878.865,475.746c-5.766,17.394-13.024,23.2-21.2,21.838l-42.726-49.055,12.394-18.04,36.661-2.848,20.255,14.031,9.811,20.882,13.4,19.628-30.329,19.39L870,492.836" transform="translate(-802.35 -394.544)"/><path class="g" d="M844.96,404.98a12.851,12.851,0,0,1-1.5,2.608c-2.792,3.33-11.545,1.449-15.285.73a50.1,50.1,0,0,1-8.662-2.565c-1.025-.4-7.973-2.738-8.069-3.716l4.22,43.161c-13.381,2.059-23.563-1.762-25.48-20.778-2.007-19.908,6.448-39.5,21.686-52.468,10.523-8.955,22.11-13.179,35.865-7.774,20.317-.8,35.64,13.8,48.95,34.609,1.45,2.266,6.791,4.409,9.08,5.973q4.383,2.992,8.648,6.151c4.884,3.631,9.638,7.447,14.142,11.54,6.967,6.33,13.6,13.4,18.192,21.685,4.339,7.824,6.506,16.833,3.985,25.612a35.094,35.094,0,0,1-5.989,11.505,47.755,47.755,0,0,1-4.84,5.438c-4.234,4.069-5.747.855-8.369-3.192-4.2-6.481-10.12-11.628-15.96-16.682a95.662,95.662,0,0,0-9.732-7.712c-8.839-5.834-19.06-6.327-28.359-10.9-8.9-4.379-14.261-13.558-18.872-22.343-1.7-3.239-2.456-5.592-1.689-9.113.712-3.269,1.328-6.281.2-9.564a8.679,8.679,0,0,0-4.458-5.225,5.8,5.8,0,0,0-6.515,1.145A8.174,8.174,0,0,0,844.96,404.98Z" transform="translate(-789.892 -361.781)"/><path class="f" d="M816.3,471.076c-2.271,3.667-1.812,8.513.059,12.4a39.112,39.112,0,0,0,2.537,4.294l8.851,13.617" transform="translate(-802.267 -416.152)"/><g transform="translate(14.555 42.255)"><path class="h" d="M842.25,531.825l-.993-13.7A41.312,41.312,0,0,0,837,502.585l-6.075-12.1a85.723,85.723,0,0,1-4.733-11.373c-.7-1.861-1.661-3.447-2.438-5.254-.863-2.01-1.677-4.043-2.49-6.077l-1.173-2.931a16.163,16.163,0,0,1-1.164-3.782,6.179,6.179,0,0,1,.176-2.661c.031-.1.948-1.959,1.084-1.658-.627-1.386-1.395-3.154-.5-4.619.66-1.082,2.411-1.338,3.047-.24a4.233,4.233,0,0,1-.372-3.257,2.649,2.649,0,0,1,2.393-1.893c1.989.035,1.915,2.519,3.435,3.233a8.278,8.278,0,0,1-.017-3.262,1.3,1.3,0,0,1,.281-.627,1.152,1.152,0,0,1,1.226-.095c2.59.934,4.2,3.618,5.506,6.172,2.3,4.508,4.318,9.239,7.289,13.314a31.777,31.777,0,0,0,4.714,5.332c.264.224,2.878,1.586,2.9,1.375.208-2.066-1.284-4.821-1.508-7.01a12.113,12.113,0,0,1,.794-6.135c1.168-2.618,3.278-1.274,4.174.719a64.316,64.316,0,0,1,5,37.78l5.764,34.286Z" transform="translate(-818.855 -445.866)"/><path class="h" d="M826.662,457.7c2.161,7.324,4.62,13.321,7.553,17.2" transform="translate(-822.739 -451.755)"/><path class="h" d="M821.566,467.444c2.162,7.324,4.62,13.321,7.553,17.2" transform="translate(-820.203 -456.6)"/><path class="h" d="M837.291,453.059c2.05,7.262,4.553,13.737,8.249,18.145" transform="translate(-828.026 -449.444)"/></g><path class="i" d="M914.474,535.353c19.137-5.95,35.453,20.522,49.937,68.065a110.029,110.029,0,0,1,3.69,47.5l-1.333,17.7a51.294,51.294,0,0,1-56.537,47.249c-22.141-2.409-43.271-8.81-64.117-16.333-15.031-6.584-20.255-50.231-15.191-73.033l2.627-31.517,1.192-14.3a18.078,18.078,0,0,1,.33-3.963c.87-2.538,5.422-2.008,7.412-1.8a34.144,34.144,0,0,0,4.155.662c2.3-.067,4.6-1.354,6.916-1.592a70.329,70.329,0,0,1,11.252.038,23.651,23.651,0,0,1,6.057,1.19c1.488.472,1.005.822,1.895-.536a16.636,16.636,0,0,0,1.009-2.355c3.958-8.942,9.227-17.454,16.418-24.162C897.314,541.512,905.328,538.2,914.474,535.353Z" transform="translate(-809.37 -447.716)"/></g><path class="j" d="M890.455,684.445A96.058,96.058,0,0,0,893.72,659.2a99.343,99.343,0,0,0-4.37-28.149,117.9,117.9,0,0,0-5.314-14.115,6.613,6.613,0,0,0-2.586-3.239,7.8,7.8,0,0,0-3.723-1.262c-5.994-.857-13.22-.586-18.88,1.576a8.449,8.449,0,0,0-4.009,2.57,9.076,9.076,0,0,0-1.266,4.695c-.282,3.459-.762,6.867-1.2,10.311-.593,4.664-1.081,9.342-1.434,14.031a185.883,185.883,0,0,0-.314,25.531,109.169,109.169,0,0,0,3.413,21.842,74.526,74.526,0,0,0,3.224,9.419q.926,2.193,2.012,4.313c.49.954,1.288,3.3,2.19,3.885,16.412,10.623,33.683,10.474,51.779,0,14.8-9.718,22.465-25.689,22.787-48.107" transform="translate(-653.349 -399.475)"/></g></g></g><path class="k" d="M974.179,316.653" transform="translate(-714.962 -254.819)"/><path class="k" d="M969.143,306.962" transform="translate(-712.456 -249.998)"/><g transform="translate(50.914 181.629)"><path class="l" d="M574.448,561.141a25.6,25.6,0,0,1,1.6,6.21c.444,3.105-1.064,5.855-1.153,8.871a6.44,6.44,0,0,0,8.516,6.476c3.548-1.331,6.919-4.879,10.734-3.371,2.4.976,4.968,3.459,7.629,1.242a26.315,26.315,0,0,0,3.208-3.035,20.791,20.791,0,0,0,.157-2.556c0-11.014-8.64-19.943-19.3-19.943a18.849,18.849,0,0,0-12.358,4.627A4.2,4.2,0,0,1,574.448,561.141Z" transform="translate(-566.541 -555.035)"/><path class="m" d="M594.9,585.149c-2.661,2.218-5.234-.266-7.63-1.242-3.815-1.508-7.186,2.04-10.734,3.371a6.44,6.44,0,0,1-8.516-6.476c.089-3.016,1.6-5.766,1.153-8.871a25.6,25.6,0,0,0-1.6-6.21,4.2,4.2,0,0,0-.968-1.479,20.171,20.171,0,0,0-6.939,15.316c0,11.014,8.64,19.943,19.3,19.943a19.531,19.531,0,0,0,19.141-17.387A26.331,26.331,0,0,1,594.9,585.149Z" transform="translate(-559.672 -559.615)"/></g><g transform="translate(436.374 201.572)"><path class="l" d="M1341.482,600.827a25.591,25.591,0,0,1,1.6,6.21c.444,3.1-1.064,5.855-1.153,8.871a6.44,6.44,0,0,0,8.516,6.476c3.548-1.331,6.919-4.879,10.734-3.371,2.4.976,4.968,3.46,7.629,1.242a26.4,26.4,0,0,0,3.208-3.035,20.733,20.733,0,0,0,.157-2.556c0-11.014-8.64-19.943-19.3-19.943a18.846,18.846,0,0,0-12.358,4.627A4.186,4.186,0,0,1,1341.482,600.827Z" transform="translate(-1333.576 -594.72)"/><path class="m" d="M1361.937,624.835c-2.661,2.218-5.234-.266-7.629-1.242-3.815-1.508-7.186,2.04-10.734,3.371a6.44,6.44,0,0,1-8.516-6.476c.089-3.016,1.6-5.767,1.153-8.871a25.6,25.6,0,0,0-1.6-6.21,4.191,4.191,0,0,0-.967-1.479,20.17,20.17,0,0,0-6.939,15.316c0,11.014,8.64,19.943,19.3,19.943a19.53,19.53,0,0,0,19.14-17.387A26.394,26.394,0,0,1,1361.937,624.835Z" transform="translate(-1326.707 -599.301)"/></g></g><g transform="translate(675.147 129.089)"><g transform="translate(9.21 8.881)"><path class="n" d="M926.6,147.035c2.472-.3,23.844-2.54,38.358,13.464,7.061,7.786,16.583,24.394,9.343,37.782-6.8,12.581-26.357,18.52-44.794,9.778a35.543,35.543,0,0,1-2.92,8.261l-18.511-6.414,6.615-22.837c.428-1.479,1.012-3.14,2.418-3.727a4.772,4.772,0,0,1,3.643.453c3.206,1.386,6.213,3.267,9.548,4.293s7.222,1.063,10.017-1.041c3.907-2.94,4.157-9.177,1.594-13.376s-11.793-8.229-11.793-8.229l-1.582-.853S926.42,152.218,926.6,147.035Z" transform="translate(-908.08 -146.761)"/></g><g transform="translate(0)"><path class="o" d="M924.091,129.364c2.472-.3,23.844-2.541,38.358,13.464,7.061,7.786,16.583,24.394,9.343,37.782-6.8,12.581-26.357,18.52-44.794,9.779a35.531,35.531,0,0,1-2.92,8.261l-18.511-6.414c2.205-7.612,9.034-26.564,9.034-26.564s9.857,3.721,13.192,4.746,7.222,1.063,10.017-1.041c3.907-2.94,4.157-9.177,1.594-13.376s-11.793-8.229-11.793-8.229l-1.64-.84S923.907,134.546,924.091,129.364Z" transform="translate(-897.62 -129.089)"/><path class="p" d="M913.4,301.069l-17.972.856a11.208,11.208,0,0,1,17.972-.856Z" transform="translate(-892.574 -212.603)"/><path class="q" d="M913.419,304.913l.33,6.924a11.3,11.3,0,1,1-22.578,1.075l-.33-6.924Z" transform="translate(-890.294 -216.556)"/><ellipse class="r" cx="11.302" cy="11.455" rx="11.302" ry="11.455" transform="matrix(0.999, -0.048, 0.048, 0.999, 0, 77.988)"/></g><path class="s" d="M906.83,263.623l-1.263-8.881,18.113,6.35,1.661,8.945Z" transform="translate(-897.62 -191.598)"/><path class="k" d="M950.726,268.74" transform="translate(-920.085 -198.561)"/><path class="k" d="M948.213,251.069" transform="translate(-918.835 -189.77)"/></g><path class="t" d="M1023.023,271.791l-50.957,14.92,11.28,8.12-31.916,18.78,50.342-14.263-11.838-7.885Z" transform="translate(-245.288 -70.989)"/></g></svg>