<svg xmlns="http://www.w3.org/2000/svg" xmlns:xlink="http://www.w3.org/1999/xlink" width="585.59" height="421.316" viewBox="0 0 585.59 421.316"><defs><style>.a,.h,.x,.z{fill:none;}.b{fill:url(#a);}.c{clip-path:url(#b);}.d,.f,.p{fill:#e28b3d;}.d,.e,.h,.i,.p,.q,.r,.s,.u,.v,.w,.x,.y,.z{stroke:#100052;stroke-miterlimit:10;}.d{stroke-width:0.652px;}.e{fill:#d2e7f9;stroke-width:0.518px;}.g{fill:#feca84;}.h{stroke-width:0.608px;}.i,.k{fill:#edb48e;}.i{stroke-width:0.833px;}.j{fill:#f1f6ff;}.l{fill:url(#c);}.m{opacity:0.42;}.n{fill:#11326c;}.o{fill:#2a7195;}.p{stroke-width:0.548px;}.q{fill:#b2a7c6;stroke-width:1.326px;}.r{fill:#100052;stroke-width:0.64px;}.s,.u,.v,.w{fill:#f9c3a5;}.s,.y{stroke-width:1.174px;}.t,.y{fill:#ea665b;}.u{stroke-width:1.259px;}.v{stroke-width:1.174px;}.w,.x{stroke-width:1.137px;}.z{stroke-width:1.242px;}.aa{fill:url(#d);}.ab{fill:url(#e);}.ac{fill:url(#f);}.ad{fill:url(#g);}</style><linearGradient id="a" y1="0.5" x2="1" y2="0.5" gradientUnits="objectBoundingBox"><stop offset="0" stop-color="#4fa5ad"/><stop offset="1" stop-color="#99cbcf"/></linearGradient><clipPath id="b"><path class="a" d="M-4359.548,1830.079c-46.593,17.077-85.186,53.621-109.015,106.269-21.3,47.054-26.28,102.469-7.949,150.756,14.177,37.345,42.96,69.218,79.318,86.005,43.217,19.955,83.89-8.386,130.087-3.7,25.29,2.563,49.247,12.121,73.626,19.316,43.274,12.771,89.389,18.181,133.732,9.85s86.8-31.286,113.706-67.5c44.048-59.287,57.249-156.169,28.2-223.173-21.825-50.339-73.429-130.879-139.242-99.054-18.66,9.025-35.1,22.491-54.529,29.724-40.36,15.028-84.951.787-126.375-11C-4281.266,1815.259-4322.883,1816.641-4359.548,1830.079Z" transform="translate(4487.79 -1801.608)"/></clipPath><linearGradient id="c" x1="0.436" y1="-0.055" x2="1.445" y2="-0.055" gradientUnits="objectBoundingBox"><stop offset="0" stop-color="#b9bdab"/><stop offset="1" stop-color="#769cae"/></linearGradient><linearGradient id="d" x1="-48.939" y1="2.697" x2="-47.589" y2="2.451" gradientUnits="objectBoundingBox"><stop offset="0" stop-color="#2a7195"/><stop offset="1" stop-color="#060c39"/></linearGradient><linearGradient id="e" x1="-82.255" y1="10.299" x2="-79.218" y2="8.854" xlink:href="#d"/><linearGradient id="f" x1="-52.909" y1="2.762" x2="-50.76" y2="3.139" xlink:href="#d"/><linearGradient id="g" x1="-80.286" y1="8.775" x2="-76.024" y2="10.979" xlink:href="#d"/></defs><g transform="translate(4488.044 -1771.084)"><g transform="translate(-4488.044 1791.45)"><path class="b" d="M-4359.8,1831.069c-46.594,17.076-85.187,53.62-109.016,106.269-21.3,47.054-26.28,102.469-7.949,150.757,14.177,37.344,42.959,69.217,79.318,86,43.217,19.954,83.891-8.387,130.088-3.7,25.29,2.563,49.247,12.122,73.626,19.317,43.274,12.771,89.388,18.18,133.732,9.85s86.8-31.285,113.705-67.5c44.049-59.288,57.25-156.169,28.2-223.172-21.825-50.339-73.429-130.88-139.241-99.054-18.661,9.025-35.1,22.491-54.529,29.724-40.36,15.028-84.951.786-126.375-11C-4281.519,1816.249-4323.137,1817.632-4359.8,1831.069Z" transform="translate(4488.043 -1802.599)"/></g><g transform="translate(-4487.88 1790.81)"><g class="c" transform="translate(0)"><g transform="translate(6.753 41.129)"><g transform="translate(26.682 27.56)"><path class="d" d="M-4285.661,1935.18s-.852,8.442,3.532,11.406a14.865,14.865,0,0,0,5.625,2.109,18.027,18.027,0,0,0,4.191.267c1.5-.1,2.544-.452,2.653-.978C-4269.34,1946.5-4285.661,1935.18-4285.661,1935.18Z" transform="translate(4382.873 -1917.551)"/><path class="d" d="M-4349.793,1924.833a168.036,168.036,0,0,1,32.563,11.875c2.226,1.084,4.538,2.315,5.842,4.419,1.854,2.99,1.174,6.832.431,10.271a10.536,10.536,0,0,1-1.933,4.835c-1.7,1.95-4.527,2.37-7.107,2.516-16.426.935-32.491-4.086-47.252-10.887-5.39-2.484-15.531-5.517-18.064-11.437-2.774-6.482,3.634-10.687,8.941-12.461C-4367.75,1921.085-4358.383,1922.674-4349.793,1924.833Z" transform="translate(4418.339 -1913.031)"/><path class="d" d="M-4274.441,1952.866a18.016,18.016,0,0,0,4.19.267c-1.326-1.122-6.277-5.18-9.022-6.08C-4281.43,1946.343-4277.563,1950.346-4274.441,1952.866Z" transform="translate(4380.81 -1921.722)"/><path class="d" d="M-4436.018,1929.2c3.182.534-.738,1.212,7.268,2.089,2,.225,6.964,1.88,8.819,2.018a.023.023,0,0,1,.013.005s.009,0,.018,0c.313.023.622.045.926.063,1.241.081,2.415.138,3.5.16a16.13,16.13,0,0,0,6.027-1.224,37.239,37.239,0,0,0,6.875-3.651c1.724-1.136,3.382-2.37,4.918-3.6a87.439,87.439,0,0,0,8.488-7.784l-.026,0c-.462-.027-8.337-.454-11.3-1.027-3.64-.7-21.488-8.342-21.488-8.342S-4436.858,1929.052-4436.018,1929.2Z" transform="translate(4436.052 -1907.9)"/></g><rect class="e" width="90.413" height="53.342" transform="matrix(0.932, 0.363, -0.363, 0.932, 109.416, 27.216)"/><g transform="translate(29.843 33.5)"><path class="d" d="M-4397.1,1921.135l-1.89.915-27.895-4.958-4.279,14.052s29.063,5.173,31.173,12.926,21.481,15,35.754,16.149c9.061.732,14.127,2.283,16.656,1.828,1.459-.265,2.08-1.192,2.136-3.328a3.334,3.334,0,0,0-.78-2.166c-3.33-4.314-16.356-6.4-19.09-8.855-.776-.7-3.093-2.66-6.149-5.217-6.063-5.09-15.027-12.539-20.588-17.158C-4395.075,1922.81-4397.1,1921.135-4397.1,1921.135Z" transform="translate(4431.161 -1917.092)"/></g><path class="f" d="M-4397.121,1933.078c3.465,2.55,6.733,5.449,10.627,7.277s8.675,2.436,12.408.3c3.471-1.99,5.383-6,5.888-9.966a8.821,8.821,0,0,0-.516-4.9c-1.273-2.682-4.378-3.906-7.258-4.626a26.419,26.419,0,0,0-4.813-.813c-1.831-.111-3.667.059-5.5.045a54.516,54.516,0,0,1-6.75-.615,40.651,40.651,0,0,1-5.862-1.074c-3.53-1.013-6.957-3-10.606-2.6a11.348,11.348,0,0,0-3.731,1.174c-1.733.853-3.487,2.273-3.564,4.2a4.3,4.3,0,0,0,1.555,3.24,12.575,12.575,0,0,0,3.176,1.895,14.032,14.032,0,0,0,3.544,1.407,22.431,22.431,0,0,1,3.724.753A29,29,0,0,1-4397.121,1933.078Z" transform="translate(4455.923 -1883.224)"/><path class="g" d="M-4458.793,1865.253a46.778,46.778,0,0,0-5.159,15.758c-1.364,9.1-15.175,18.188-13.194,29.717l14.475,1.375,23.113,7.214.015.005h0l.04.014h0l10.43,3.217.93-4.166.583-2.6,1.65-7.39v0l1.379-6.173,1.829-8.181.313-1.4h0l.157-.7-3.689-2.79,0-.005-1.116-.841,0,0-3-2.266h0l-.228-.175Z" transform="translate(4477.34 -1865.253)"/><path class="h" d="M-4308.029,1907.368l32.278,41.806,51.958-8.961Z" transform="translate(4417.444 -1880.152)"/></g><g transform="translate(458.244 191.693)"><path class="i" d="M-3634.6,2234.933c-.868-2.111-2.291-7.9-2.376-8.242l0-.012c-.853-9.739-2.993-30.262-6-32.1-.789-.482-1.972-1.151-3.4-1.91v0h0c-1.227-.651-2.636-1.369-4.147-2.1-.023-.021-11.362-10.288-12.51-9.808-.409.167-.549,1-.425,2.135a12.383,12.383,0,0,0,.68,2.768,18.2,18.2,0,0,0-4.069-.733c-3.509-.119-10.049,1.781-15.053,3.451-3.821,1.275-6.745,2.411-6.745,2.411a5.209,5.209,0,0,0,.5.977,5.379,5.379,0,0,0,4.65,2.618c1.333,0,3.515-.154,5.835-.376.832-.081,1.681-.169,2.514-.262a16.972,16.972,0,0,0-1.94,1.406l-7.735,6.472a7.6,7.6,0,0,0,1.607,1.2c3.163,1.042,5.243-1.277,8.388-3.3,4.617-2.967,13.178,3.407,15.691,4.064,0,0,1.982,7.452-.01,12.1-.525,1.226-6.089,1.843-5.541,3.333,1.342,3.64,4.681,5.917,8.314,7.344a7.639,7.639,0,0,0,.494.855,37.053,37.053,0,0,0,11.568,11.3h0a28.214,28.214,0,0,0-2,5.717,11.512,11.512,0,0,0-.161,4.687c.166.8.374,1.668.609,2.578.055.224.115.45.177.679,0,.006,0,.01,0,.014a.016.016,0,0,1,.006.009c.365,1.359,2.379,4.779,2.834,6.233,1.8,5.814,1.813,2.786,2.679,5.067.231.6,15.24-13.943,15.24-13.943S-3633.537,2237.526-3634.6,2234.933Z" transform="translate(3746.841 -2127.426)"/><rect class="j" width="79.954" height="103.69" transform="matrix(0.976, 0.218, -0.218, 0.976, 22.611, 0)"/><g transform="translate(72.087 80.328)"><path class="i" d="M-3630.764,2251.832l-.444,1.417,7.113,18.108-9.867,5.022s-7.415-18.865-13.411-19.117-13.748-12.25-16.361-21.726c-1.661-6.015-3.434-9.2-3.408-10.984.015-1.028.624-1.587,2.2-1.948a2.625,2.625,0,0,1,1.7.2c3.6,1.6,6.756,10.088,8.908,11.565.611.419,2.351,1.688,4.619,3.367,4.515,3.329,11.131,8.26,15.235,11.32C-3632.253,2250.719-3630.764,2251.832-3630.764,2251.832Z" transform="translate(3667.143 -2222.54)"/></g><path class="k" d="M-3623.259,2251.508c2.447,2.283,4.946,4.633,6.438,7.628a14.164,14.164,0,0,1,1.063,9.621,5.7,5.7,0,0,1-2.672,3.962c-1.93.927-4.252-.079-5.894-1.451a28.2,28.2,0,0,1-3.795-4.142l-4.584-5.725a4.663,4.663,0,0,1-1.287-2.569c-.056-1.375,1.08-2.5,1.436-3.828.725-2.708-4.749-8.058-2.034-9.712C-3631.215,2243.237-3625.353,2249.556-3623.259,2251.508Z" transform="translate(3727.983 -2150.117)"/><g transform="translate(95.379 112.409)"><path class="l" d="M-3584.3,2295.47a35.392,35.392,0,0,1-10.951,6.1c-6.555,2.324-9.145,15.037-17.987,15.23l-5.271-11.7-8.685-16.112-.006-.01h0l-.016-.028h0l-3.891-7.276,2.957-1.291,1.848-.808,5.246-2.29h0l4.382-1.913,5.807-2.536,1-.435h0l.495-.217,2.6,2.336.005,0,.785.707,0,0,2.114,1.9h0l.162.145Z" transform="translate(3631.102 -2272.183)"/></g><g class="m" transform="translate(29.067 21.939)"><g transform="translate(5.613)"><path class="n" d="M-3707.316,2140.873a4.479,4.479,0,0,1-1.881.184c-.487-.133-.506-.227-.52-.3-.057-.289-.214-.448-.963-.571a10.888,10.888,0,0,0-1.919-.057,4.84,4.84,0,0,1-1.49-.08l.007-.018a.676.676,0,0,0-.029-.72c-.292-.4-1.109-.519-2.428-.358-.775.093-1.579.191-1.741.025-.052-.054-.06-.187-.026-.393a.33.33,0,0,0-.113-.331c-.253-.2-.774.011-1.748.429a5.982,5.982,0,0,1-1.526.524c0-.008,0-.021.01-.037a2.262,2.262,0,0,1,.181-.449c.573-.19,1.012-.437,1.056-.7a.351.351,0,0,0-.25-.446c-.29-.062-.748.262-1.077.79a5.543,5.543,0,0,1-2.314.252q-.49-.093-.525-.362c-.1-.789,1.79-3.87,3.022-5.146.431-.444.615-.5.661-.507.438.513-.2,1.282-.2,1.29l.314.266a1.446,1.446,0,0,0,.186-1.847.43.43,0,0,0-.537-.062c-1.064.487-4,4.852-3.852,6.058.042.337.311.745,1.36.765a6.831,6.831,0,0,0,1.644-.206c-.023.061-.044.126-.062.19a.419.419,0,0,0,.092.461.416.416,0,0,0,.208.093,4.3,4.3,0,0,0,1.778-.548,7.235,7.235,0,0,1,1.28-.47.787.787,0,0,0,.146.671c.289.3.915.241,2.088.1,1.289-.158,1.9,0,2.044.193.019.026.078.105-.013.3a.4.4,0,0,0,.013.41c.2.3.775.3,1.857.272a10.83,10.83,0,0,1,1.841.052c.6.1.614.181.625.242.052.273.2.452.817.623a4.685,4.685,0,0,0,2.082-.18c.916-.208,1.783-.4,2.05.083l.362-.2C-3705.23,2140.4-3706.291,2140.64-3707.316,2140.873Z" transform="translate(3725.028 -2132.188)"/></g><g transform="translate(29.772 8.964)"><path class="n" d="M-3687.235,2147.489a.448.448,0,0,1-.388-.27c-.059-.162-.042-.528.742-1.16l.259.322a2.144,2.144,0,0,0-.608.686.634.634,0,0,0,.227.023,2.87,2.87,0,0,0,1.311-.566c.436-.276.781-.494,1.073-.366a.571.571,0,0,1,.3.462c.147.808.564.873,2.142.776a3.133,3.133,0,0,1,2.193.39c.148.079.316.168.527.269a2.046,2.046,0,0,0,1.5-.123c.547-.183,1.167-.39,1.462.2l-.369.186c-.116-.231-.332-.2-.962.008a2.383,2.383,0,0,1-1.809.1c-.218-.1-.389-.2-.541-.277a2.749,2.749,0,0,0-1.974-.343c-1.412.085-2.345.142-2.573-1.115-.022-.118-.054-.155-.061-.158-.094-.042-.464.2-.687.337a3.211,3.211,0,0,1-1.523.631A1.307,1.307,0,0,1-3687.235,2147.489Z" transform="translate(3687.644 -2146.06)"/></g><g transform="translate(44.608 11.377)"><path class="n" d="M-3653.131,2151.786c-.569.09-.81.1-.907-.151-.217-.558-.967-.463-1.628-.379-.425.053-.9.114-1.077-.022a.19.19,0,0,1-.069-.145.627.627,0,0,0-.293-.515c-.347-.192-.854.052-1.5.362a8.506,8.506,0,0,1-1.216.5,1.585,1.585,0,0,1-1.519-.32,1.11,1.11,0,0,0,.533-.436c.242-.4.106-.683-.084-.805a.818.818,0,0,0-1.062.335.706.706,0,0,0-.06.644,5.405,5.405,0,0,1-1.963-.214c-.071-.018-.128-.037-.172-.052a3.977,3.977,0,0,1,.668-.155l-.061-.41c-1.127.168-1.144.444-1.151.549-.018.3.4.413.606.468a5.667,5.667,0,0,0,2.295.2,1.933,1.933,0,0,0,1.169.652,2.062,2.062,0,0,0,.916-.06,8.651,8.651,0,0,0,1.276-.531c.449-.215.957-.459,1.118-.371.055.03.075.138.081.2a.6.6,0,0,0,.227.424,1.985,1.985,0,0,0,1.382.1c.512-.065,1.091-.138,1.191.12.226.588.828.492,1.357.41a1.854,1.854,0,0,1,1.391.123l.237-.339A2.227,2.227,0,0,0-3653.131,2151.786Zm-8.025-1.314a.774.774,0,0,1-.441.3.346.346,0,0,1-.009-.327.486.486,0,0,1,.442-.237.145.145,0,0,1,.055.019C-3661.058,2150.261-3661.1,2150.374-3661.156,2150.472Z" transform="translate(3664.687 -2149.793)"/></g><g transform="translate(4.557 10.338)"><path class="n" d="M-3726.254,2149.615a.448.448,0,0,1-.389-.269c-.059-.163-.041-.529.743-1.161l.259.322a2.16,2.16,0,0,0-.608.686.645.645,0,0,0,.228.023,2.876,2.876,0,0,0,1.311-.566c.436-.276.78-.494,1.073-.366a.57.57,0,0,1,.3.462c.147.809.564.873,2.142.777a3.13,3.13,0,0,1,2.193.39c.148.079.316.168.526.269a2.045,2.045,0,0,0,1.5-.123c.547-.183,1.167-.389,1.463.2l-.37.185c-.115-.231-.331-.2-.962.009a2.376,2.376,0,0,1-1.808.1c-.218-.1-.389-.2-.541-.276a2.745,2.745,0,0,0-1.974-.343c-1.412.086-2.345.142-2.573-1.115-.022-.118-.054-.155-.061-.158-.093-.042-.464.2-.687.337a3.207,3.207,0,0,1-1.523.63A1.284,1.284,0,0,1-3726.254,2149.615Z" transform="translate(3726.663 -2148.186)"/></g><g transform="translate(19.392 12.752)"><path class="n" d="M-3692.149,2153.914c-.57.089-.812.1-.909-.152-.217-.557-.966-.462-1.628-.378-.423.054-.9.114-1.076-.021a.194.194,0,0,1-.071-.146.625.625,0,0,0-.293-.514c-.347-.192-.854.052-1.5.362a8.39,8.39,0,0,1-1.214.506,1.589,1.589,0,0,1-1.521-.321,1.11,1.11,0,0,0,.534-.436c.242-.4.106-.683-.083-.8a.82.82,0,0,0-1.062.335.708.708,0,0,0-.06.644,5.4,5.4,0,0,1-1.962-.213c-.072-.019-.128-.037-.173-.053a4.033,4.033,0,0,1,.668-.155l-.06-.409c-1.128.167-1.146.443-1.152.548-.017.3.405.414.607.468a5.621,5.621,0,0,0,2.3.2,1.923,1.923,0,0,0,1.167.652,2.049,2.049,0,0,0,.917-.06,8.78,8.78,0,0,0,1.277-.531c.448-.215.956-.459,1.117-.371.054.031.074.138.082.2a.6.6,0,0,0,.225.424,1.991,1.991,0,0,0,1.384.105c.51-.065,1.091-.139,1.19.119.226.588.828.491,1.358.41a1.857,1.857,0,0,1,1.389.124l.237-.338A2.222,2.222,0,0,0-3692.149,2153.914Zm-8.028-1.315a.771.771,0,0,1-.441.3.343.343,0,0,1-.007-.327.483.483,0,0,1,.441-.239.135.135,0,0,1,.056.019C-3700.078,2152.387-3700.116,2152.5-3700.177,2152.6Z" transform="translate(3703.707 -2151.92)"/></g><g transform="translate(0 30.144)"><g transform="translate(1.223)"><path class="n" d="M-3714.11,2187.517a4.449,4.449,0,0,1-1.881.184c-.488-.133-.505-.226-.521-.3-.055-.29-.214-.448-.962-.572a10.965,10.965,0,0,0-1.92-.057,4.824,4.824,0,0,1-1.491-.078.13.13,0,0,1,.008-.019.675.675,0,0,0-.029-.72c-.292-.4-1.108-.519-2.428-.358-.777.094-1.579.191-1.74.024-.051-.053-.059-.186-.026-.393a.325.325,0,0,0-.114-.33c-.253-.2-.774.011-1.748.429a5.983,5.983,0,0,1-1.525.524.206.206,0,0,1,.009-.037,2.384,2.384,0,0,1,.181-.449c.573-.188,1.013-.437,1.057-.7a.353.353,0,0,0-.25-.446c-.29-.063-.75.263-1.079.791a5.5,5.5,0,0,1-2.314.251c-.324-.061-.5-.182-.523-.362-.1-.789,1.789-3.87,3.022-5.146.43-.443.616-.5.66-.506.438.512-.2,1.28-.206,1.289h0l.1.085.212.182a1.445,1.445,0,0,0,.186-1.847.426.426,0,0,0-.536-.063c-1.064.486-4,4.851-3.85,6.057.041.337.31.745,1.358.765a6.863,6.863,0,0,0,1.645-.207c-.022.061-.044.126-.063.19a.412.412,0,0,0,.093.462.416.416,0,0,0,.208.093,4.3,4.3,0,0,0,1.776-.548,7.169,7.169,0,0,1,1.28-.471.784.784,0,0,0,.147.669c.291.3.916.244,2.088.1,1.289-.157,1.9,0,2.044.192.021.027.077.105-.013.3a.4.4,0,0,0,.013.41c.2.3.775.3,1.858.272a10.857,10.857,0,0,1,1.841.052c.6.1.612.182.625.242.052.273.2.453.817.623a4.687,4.687,0,0,0,2.081-.181c.916-.208,1.784-.4,2.051.083l.361-.2C-3712.024,2187.044-3713.085,2187.284-3714.11,2187.517Z" transform="translate(3731.821 -2178.833)"/></g><g transform="translate(25.216 9.973)"><path class="n" d="M-3694.286,2195.7a.446.446,0,0,1-.388-.27c-.059-.162-.042-.529.742-1.16l.26.322a2.157,2.157,0,0,0-.609.686.64.64,0,0,0,.228.023,2.884,2.884,0,0,0,1.312-.566c.436-.277.78-.494,1.073-.366a.571.571,0,0,1,.3.462c.148.809.564.873,2.142.776a3.134,3.134,0,0,1,2.193.39c.148.079.316.167.526.269a2.042,2.042,0,0,0,1.5-.123c.547-.182,1.167-.389,1.462.2l-.369.186c-.116-.231-.331-.2-.962.009a2.378,2.378,0,0,1-1.808.1c-.218-.1-.39-.2-.541-.276a2.747,2.747,0,0,0-1.975-.343c-1.412.085-2.344.143-2.574-1.115-.021-.118-.053-.154-.061-.157-.093-.042-.464.2-.686.337a3.211,3.211,0,0,1-1.523.63A1.329,1.329,0,0,1-3694.286,2195.7Z" transform="translate(3694.695 -2194.266)"/></g><g transform="translate(40.051 12.387)"><path class="n" d="M-3660.182,2199.992c-.57.091-.811.1-.908-.149-.217-.56-.967-.465-1.628-.381-.424.055-.9.115-1.076-.021a.19.19,0,0,1-.07-.145.622.622,0,0,0-.294-.513c-.346-.192-.853.052-1.494.359a8.273,8.273,0,0,1-1.216.507,1.585,1.585,0,0,1-1.52-.323,1.089,1.089,0,0,0,.533-.435c.242-.4.105-.682-.084-.8a.817.817,0,0,0-1.06.335.7.7,0,0,0-.061.645,5.46,5.46,0,0,1-1.964-.214c-.07-.019-.128-.037-.173-.053a4,4,0,0,1,.669-.155l-.061-.409c-1.127.166-1.144.444-1.15.547-.019.3.4.415.607.47a5.676,5.676,0,0,0,2.295.2,1.94,1.94,0,0,0,1.168.652,2.075,2.075,0,0,0,.918-.06,8.706,8.706,0,0,0,1.275-.53c.45-.217.957-.46,1.118-.372.054.029.074.138.081.2a.608.608,0,0,0,.226.421,1.978,1.978,0,0,0,1.384.106c.512-.064,1.091-.138,1.191.12.227.586.827.492,1.357.41a1.858,1.858,0,0,1,1.39.124l.236-.339A2.229,2.229,0,0,0-3660.182,2199.992Zm-8.025-1.313a.787.787,0,0,1-.441.3.34.34,0,0,1-.008-.328.485.485,0,0,1,.443-.238.151.151,0,0,1,.054.018C-3668.11,2198.468-3668.148,2198.58-3668.207,2198.679Z" transform="translate(3671.738 -2198)"/></g><g transform="translate(0 11.347)"><path class="n" d="M-3733.3,2197.821a.448.448,0,0,1-.388-.269c-.059-.163-.042-.529.742-1.16l.26.322a2.16,2.16,0,0,0-.609.686.639.639,0,0,0,.228.023,2.872,2.872,0,0,0,1.311-.566c.437-.277.781-.494,1.074-.366a.572.572,0,0,1,.3.462c.148.808.564.872,2.142.776a3.129,3.129,0,0,1,2.193.391c.148.078.315.167.526.268a2.046,2.046,0,0,0,1.5-.122c.547-.183,1.167-.39,1.461.2l-.369.186c-.116-.231-.331-.2-.962.008a2.383,2.383,0,0,1-1.808.1c-.218-.1-.39-.2-.541-.276a2.74,2.74,0,0,0-1.975-.343c-1.412.086-2.344.142-2.573-1.115-.021-.118-.054-.155-.061-.158-.094-.039-.464.2-.687.337a3.212,3.212,0,0,1-1.523.631A1.3,1.3,0,0,1-3733.3,2197.821Z" transform="translate(3733.714 -2196.392)"/></g><g transform="translate(14.836 13.761)"><path class="n" d="M-3699.2,2202.119c-.569.09-.811.1-.908-.15-.216-.56-.965-.464-1.627-.381-.423.056-.9.116-1.076-.021a.194.194,0,0,1-.071-.145.622.622,0,0,0-.293-.513c-.346-.192-.853.052-1.495.361a8.5,8.5,0,0,1-1.214.507,1.585,1.585,0,0,1-1.521-.324,1.083,1.083,0,0,0,.533-.434c.242-.4.107-.683-.083-.8a.818.818,0,0,0-1.062.335.71.71,0,0,0-.061.644,5.421,5.421,0,0,1-1.962-.214c-.072-.019-.128-.038-.172-.053a3.894,3.894,0,0,1,.667-.155l-.061-.41c-1.127.166-1.145.443-1.15.547-.018.3.4.414.606.47a5.679,5.679,0,0,0,2.295.2,1.945,1.945,0,0,0,1.168.651,2.074,2.074,0,0,0,.918-.06,8.739,8.739,0,0,0,1.276-.531c.448-.216.956-.461,1.116-.371.056.03.076.137.082.2a.6.6,0,0,0,.227.423,1.988,1.988,0,0,0,1.383.1c.51-.064,1.091-.137,1.19.12.227.585.827.492,1.358.41a1.857,1.857,0,0,1,1.391.124l.235-.338A2.223,2.223,0,0,0-3699.2,2202.119Zm-8.025-1.314a.772.772,0,0,1-.441.3.34.34,0,0,1-.008-.328.488.488,0,0,1,.443-.239.173.173,0,0,1,.054.018C-3707.13,2200.594-3707.168,2200.706-3707.227,2200.8Z" transform="translate(3710.757 -2200.127)"/></g></g><g transform="translate(15.06 18.719)"><path class="n" d="M-3696.96,2171.55a.4.4,0,0,1-.262-.149c-.049-.1.043-.3.118-.468.1-.216.189-.421.1-.608a.387.387,0,0,0-.284-.2.779.779,0,0,0-.885.315,1.855,1.855,0,0,1-.954.608,1.4,1.4,0,0,1-.422.087,3.024,3.024,0,0,1,.2-.56,8.225,8.225,0,0,0,.336-.921c.033-.122.137-.49-.11-.666-.358-.254-1.059.2-2.175.972-.18.124-.353.243-.511.348-.461.306-.634.333-.684.333-.025-.082-.009-.382.443-1.443.052-.12.146-.343-.019-.471s-.356,0-.788.325a5.741,5.741,0,0,1-1.4.862c.066-.083.14-.175.2-.242.332-.4.5-.618.418-.824a.28.28,0,0,0-.239-.174,1.494,1.494,0,0,0-1.134.429,2.158,2.158,0,0,1-.863.456l.025-.064c.116-.291.312-.78-.109-1.1-.325-.25-.677-.082-1.085.115a4.066,4.066,0,0,1-1.075.384c-.775.14-.934.085-.962.058-.1-.23.867-1.563,1.643-2.634a14.413,14.413,0,0,0,1.456-2.592,3.565,3.565,0,0,0,1.35-1.193.956.956,0,0,0,.08-.771c-.1-.309-.235-.593-.489-.6-.326-.011-.5.409-.869,1.327-.112.28-.243.6-.4.951a21.992,21.992,0,0,1-4.091,1.647l.114.4a24.29,24.29,0,0,0,3.691-1.422,13.1,13.1,0,0,1-1.181,2.018c-1.433,1.981-1.917,2.686-1.66,3.094.181.287.626.267,1.387.13a4.381,4.381,0,0,0,1.179-.42c.377-.18.543-.245.656-.16.148.115.112.286-.023.624-.079.2-.153.385-.037.536a.348.348,0,0,0,.342.109,2.374,2.374,0,0,0,1.164-.554,1.483,1.483,0,0,1,.645-.347c-.075.1-.182.232-.255.323-.318.384-.529.637-.384.854.135.2.428.108.57.065a5.711,5.711,0,0,0,1.586-.946l.052-.039c-.4.995-.451,1.417-.2,1.623.22.182.572.088,1.179-.313.161-.106.337-.228.518-.353a6.613,6.613,0,0,1,1.687-.974.671.671,0,0,1-.035.215,7.206,7.206,0,0,1-.321.875c-.2.478-.329.8-.135,1.007a.384.384,0,0,0,.226.115,1.514,1.514,0,0,0,.638-.1,2.27,2.27,0,0,0,1.139-.728c.174-.195.221-.247.481-.188a1.59,1.59,0,0,1-.095.238.978.978,0,0,0-.112.817.739.739,0,0,0,.528.37Zm-8.579-8.914a7.161,7.161,0,0,1,.468-1.026,1.672,1.672,0,0,1,.116.278.552.552,0,0,1-.056.446,2.25,2.25,0,0,1-.693.71C-3705.645,2162.9-3705.59,2162.763-3705.539,2162.636Z" transform="translate(3710.41 -2161.155)"/></g><g transform="translate(32.028 28.829)"><path class="n" d="M-3683.151,2178.177a.253.253,0,0,1-.186-.115c-.116-.187.059-.394.326-.708.059-.071.122-.144.179-.216a5.288,5.288,0,0,0-1.248.161l-.074-.327c1.468-.333,1.62-.095,1.67-.017a.277.277,0,0,1-.042.337c-.071.093-.152.188-.229.279s-.155.183-.215.265c.037-.006.083-.015.142-.03a5.545,5.545,0,0,0,.783-.291c.5-.213.929-.4,1.226-.252a.474.474,0,0,1,.25.323c.052.194.242.2.694.182a2.136,2.136,0,0,1,1.246.2,1.576,1.576,0,0,0,1.192.2,7.2,7.2,0,0,1,.975-.043,1.624,1.624,0,0,1,1.645.945l.047.084a4.549,4.549,0,0,0,1.212-.284c.88-.273,1.434-.428,1.709-.275a.314.314,0,0,1,.156.2l-.325.084a.019.019,0,0,0,.008.012,4.05,4.05,0,0,0-1.448.3c-.935.29-1.43.428-1.591.153l-.062-.112a1.312,1.312,0,0,0-1.361-.77,6.684,6.684,0,0,0-.932.042,1.906,1.906,0,0,1-1.4-.25,1.842,1.842,0,0,0-1.055-.154c-.425.02-.907.043-1.034-.431-.023-.084-.059-.1-.073-.108-.16-.077-.578.1-.947.259a5.7,5.7,0,0,1-.835.308A1.072,1.072,0,0,1-3683.151,2178.177Z" transform="translate(3684.154 -2176.798)"/></g><g transform="translate(24.102 32.197)"><path class="n" d="M-3684.78,2183.87a5.009,5.009,0,0,1-1.22.014.269.269,0,0,0,.1-.32c-.061-.147-.235-.305-1.529-.324-.75-.011-1.528.031-1.867.064l-.041,0a2.584,2.584,0,0,1-.965,0s-.015-.063.124-.264a.3.3,0,0,0,.022-.358c-.367-.49-3.438.393-3.467.4a.792.792,0,0,1-.737-.175c-.045-.084.075-.2.148-.262.179-.146.175-.277.141-.361-.113-.272-.9-.344-2.353-.214l.03.325a7.994,7.994,0,0,1,1.969.005c-.35.29-.288.54-.22.664a.852.852,0,0,0,.616.354,1.1,1.1,0,0,0,.508-.026,11.688,11.688,0,0,1,3.065-.53c-.112.167-.243.407-.129.6.156.265.627.222,1.279.163l.041,0a12.291,12.291,0,0,1,3.006.046c-.147.138-.142.259-.109.335s.146.344,1.619.185Z" transform="translate(3696.418 -2182.011)"/></g></g></g><g transform="translate(-8.171 160.249)"><path class="o" d="M-4414.317,2192.469s20.8,7.989,16.17,29.2C-4398.147,2221.667-4422.161,2212.582-4414.317,2192.469Z" transform="translate(4470.526 -2100.13)"/><g transform="translate(56.209)"><g transform="translate(44.682)"><path class="g" d="M-4303.22,2081.478l8.5-.121c9.986-.142,18.036-9.411,15.536-19.08-1.383-5.348-5.44-9.625-13.059-12.476-21.924-2.1-36.674,10.984-45.974,35.606-8.36,25.6-7.9,49,.021,70.537,15.319,13.477,24.468,15.627,32.158,15.1,18.48-10.82,14.15-29.649-4.109-29.153C-4316.415,2122.678-4313.124,2102.434-4303.22,2081.478Z" transform="translate(4344.313 -2049.582)"/></g><path class="p" d="M-4413.455,2175.577l6.511-2.792c16.225-14.479,26.172-31.978,40.318-36.981a.108.108,0,0,1,.181.087c-.32,4.457-1.137,9.035-1.865,13.441,7.869-.315,15.781-.233,23.66-.337a9.953,9.953,0,0,1,4.907.772,2.466,2.466,0,0,1,1.165,1.15,2.232,2.232,0,0,1-.83,2.463,19.106,19.106,0,0,1-3.133,1.612c-.825.426-1.749.72-2.607,1.072l-6.131,2.511-11.963,4.9-3.625,1.485c31.928-18.155,47.827-8.413,1.384,8.125,30.487-17.856,44.115-9.505,2.151,7.185,21.253-9.746,22.056-6.618,4.94,4.047a16.635,16.635,0,0,1-6.763,2.4l-14.033,1.711-20.377,11.555C-4408.039,2194.017-4413.5,2186.351-4413.455,2175.577Z" transform="translate(4413.455 -2080.073)"/><path class="p" d="M-4343.429,2173.2c1.194-.281,4.258-.859,5.453-1.14a32.95,32.95,0,0,0,4.211-1.19c1.2-.457,2.334-1.05,3.492-1.6a47.055,47.055,0,0,1,14.4-4.145,6.934,6.934,0,0,1,3.179.147,2.624,2.624,0,0,1,1.849,2.366c-.043,1.239-1.2,2.107-2.245,2.768a131.149,131.149,0,0,1-24.139,11.959c-1.319.492-5.115,1.009-6.146,1.969" transform="translate(4388.682 -2090.419)"/></g><path class="q" d="M-4444.225,2192.469s-2.355,15.744,16.169,29.2l-52.888,44.9-19.49-42.652Z" transform="translate(4500.434 -2100.13)"/></g><g transform="translate(103.731 79.084)"><g transform="translate(75.28)"><path class="r" d="M-4115.825,1937.592a80.985,80.985,0,0,0-20.1,6.63c-7.738,3.736-14.822,8.674-21.868,13.59-6.333,4.419-9.917,15.747-11.726,23.085-2.184,8.864-2.6,18.047-3.136,27.123-.315,5.306-.832,10.574-1.456,15.821-2.485,20.892-4.053,40.823-9.371,60.978-2.331,8.834-3.936,18.539-.154,26.856,2.589,5.7,7.425,10.047,12.478,13.738,29.857,21.806,69.508,25.129,106.28,21.289,14.214-1.484,28.7-4.048,41-11.323,6.454-3.817,12.463-9.347,14.238-16.633,1.114-4.573.452-9.369-.216-14.028-5.694-39.65-10.558-79.991-20.6-118.747-3.947-15.234-10.669-29.936-21.925-41.174-6.107-6.1-13.832-10.787-22.33-12.295" transform="translate(4201.98 -1926.998)"/><path class="s" d="M-4053.431,2126.331a54.326,54.326,0,0,1,1.539,9.226c.509,5.135.833,10.375,2.677,15.192a5.154,5.154,0,0,0,1.033,1.82c1.829,1.865,5,.528,7.551,1.079,2.754.594,4.536,3.5,4.689,6.314.436,7.984-7.691,19.157-13.879,23.564a34.006,34.006,0,0,1-8.214,4.074c-11.08,4.019-23.519,5.089-34.655,1.227a38.592,38.592,0,0,1-18.98-14.752,41.758,41.758,0,0,1-5.116-11.038c-1.413-4.417-2.041-6.471,3.406-7.83l5.5-1.372a16.6,16.6,0,0,0,5.4-2.042c3.875-2.627,3.351-8.645,3.614-12.759.3-4.706.68-9.616,3.252-13.716,2.31-3.682,6.088-6.194,9.974-8.143,9.658-4.841,23.49-7.58,29.9,3.517A24.214,24.214,0,0,1-4053.431,2126.331Z" transform="translate(4177.879 -1990.835)"/><path class="t" d="M-4200.967,2486.84c-1.567-2.369-1.619-5.8-.946-12.217,2.141-20.4,3.4-36.41,1.423-57.12a390.545,390.545,0,0,1-1.428-59.853c1.119-20.225,3.373-40.742,3.373-60.994.611-11.047,1.208-22.262-1.211-33.059-1.646-7.342-4.648-14.3-6.827-21.5a98.84,98.84,0,0,1-3.986-21.673c-.717-10.231.235-20.811,4.655-30.065,11.734-24.575,34.593-18.346,56.694-16.023a7.851,7.851,0,0,1,3.908,1.148,8.116,8.116,0,0,1,2.4,3.916c3.069,8.225,4.936,16.629,13.629,20.633a39.515,39.515,0,0,0,28.369,1.426c5.541-1.786,10.8-4.7,14.576-9.214,4.911-5.868,4.509-12.177,6.869-18.819,9.209.094,18.926,2.387,27.993,3.987,6.811,1.2,16.706,2.231,22.216,6.855,4.17,3.5,7.132,10.864,9.392,15.743a87.278,87.278,0,0,1,7.538,31.7c.284,4.965.826,10.73-.551,15.474-1.514,5.219-4.788,10.417-6.983,15.405-9.131,20.746-17.231,42.36-19.284,65.1-1.2,13.276,1.4,26.121,1.112,39.255a164.672,164.672,0,0,0,2.964,36.038,267.981,267.981,0,0,0,12.1,42.577c2.26,6.014,8,13.385,3.845,18.623-3.936,4.958-9.748,8.834-14.585,12.857-45.29,37.622-102.987,37.8-155.506,16.37C-4195.675,2490.779-4199.241,2489.45-4200.967,2486.84Z" transform="translate(4210.785 -2011.685)"/><path class="u" d="M-4138.4,1990.768c-7.174,32.359,12.475,114.532,57.647,108.046,51.587-7.409,48.187-76.273,42.57-112.383" transform="translate(4185.69 -1946.076)"/><path class="r" d="M-4043.8,1997.675c8.172-3.646,11.752-9.44,12.049-18.246.538-15.918-5.207-34.716-19.008-43.669-6.674-4.33-14.366-6.837-22.11-8.661-17.693-4.166-36.849-4.85-53.556,2.312-11.613,4.978-21.739,14.258-26.909,25.874-5.1,11.462-9.123,26.489-4.294,38.57,8.353,20.9,32.445,11.747,44.3-.521a40.625,40.625,0,0,0,9.512-16.071c2.134-6.842,4.2-6.791,8.059-1.315,3.648,5.176,8.688,8.814,13.532,12.785a55.663,55.663,0,0,0,7.974,5.983c5.214,2.9,11.345,3.519,17.282,4.083,4.25.4,8.706.777,12.635-.891Q-4044.067,1997.792-4043.8,1997.675Z" transform="translate(4192.75 -1923.984)"/><path class="u" d="M-3979.052,2036.148c3.434-4.458,7.866-4.756,11.866-.736,3.786,3.806,4.685,9.88,3.107,15.011s-5.3,9.379-9.609,12.587c-2.171,1.617-5.183,3.023-7.45,1.543" transform="translate(4129.544 -1962.405)"/><path class="u" d="M-4138.889,2045.8c-3.86-4.093-8.3-3.947-11.88.452-3.388,4.164-3.676,10.3-1.595,15.246s6.214,8.8,10.817,11.565c2.322,1.393,5.459,2.491,7.568.792" transform="translate(4190.583 -1966.03)"/><path class="t" d="M-3912.965,2330.413l-13.981-23.6c-11.247-18.983-25.9-40.04-30.326-61.921-2.389-11.815-4.347-24.623-.076-36.257,1.776-4.836,5.708-12.752,10.411-15.372,5.652-3.148,12.224,2.718,15.755,6.959,10.1,12.127,15.715,27.069,22.645,41.055,7.47,15.074,18.036,27.461,24.422,43.192a123.288,123.288,0,0,1,8.271,32.572c.83,7.4.864,12.854-3.225,19.125a44.675,44.675,0,0,1-6.186,8.071,15.012,15.012,0,0,1-8.954,4.437C-3903.844,2349.434-3908.932,2337.221-3912.965,2330.413Z" transform="translate(4122.018 -2018.93)"/><g transform="translate(238.567 89.123)"><path class="v" d="M-3802.378,2062.128a3.218,3.218,0,0,1,4.147,2.052,6.766,6.766,0,0,1-.065,3.067c-.669,3.452-2.312,6.486-3.277,9.828q-1.6,5.542-3.2,11.085a90.288,90.288,0,0,1-3.78,11.235c-.937,2.145-2.725,4.585-4.872,4.094-5.337,0-2.152-11.968-1.586-14.338,1.823-7.639,5.163-14.466,8.409-21.674a16.639,16.639,0,0,1,1.65-3.069,8.312,8.312,0,0,1,2.4-2.188C-3802.492,2062.187-3802.435,2062.157-3802.378,2062.128Z" transform="translate(3832.722 -2061.895)"/><path class="w" d="M-3840.654,2141.831a10.528,10.528,0,0,0,.717,4.746c.422.945,1.047,1.786,1.5,2.717a13.394,13.394,0,0,1,1.1,4.64c.919,9.95-2.183,19.866-2.033,29.858a4.94,4.94,0,0,0,.322,2,4.906,4.906,0,0,0,2.543,2.113,34.812,34.812,0,0,0,13.519,3.36,5.869,5.869,0,0,0,2.8-.382,5.785,5.785,0,0,0,2.394-2.8c4.273-8.472,4-18.4,4.485-27.876a28.715,28.715,0,0,1,.8-6.129c1.379-5.039,4.435-9,6.881-13.53a72.582,72.582,0,0,0,6.3-15.925,6.074,6.074,0,0,0,.1-3.952,6.3,6.3,0,0,0-1.737-2.052c-2.254-1.994-4.422-2.67-6.985-3.9-2.936-1.4-5.381-2.993-8.623-3.8a26.411,26.411,0,0,0-10.69-.627c-6.348,1.063-7.543,4.753-8.7,10.167-1.433,6.705-3.995,13.153-4.607,20.027C-3840.6,2140.93-3840.636,2141.38-3840.654,2141.831Z" transform="translate(3841.284 -2078.912)"/><path class="w" d="M-3808.3,2108.51a21.642,21.642,0,0,0-2.708,4.676,7.283,7.283,0,0,0-.126,5.288,3.388,3.388,0,0,0,1.887,1.979,3.251,3.251,0,0,0,2.808-.51,9,9,0,0,0,2.037-2.126,91.119,91.119,0,0,0,8.721-13.975,2.122,2.122,0,0,0,.309-1.011c-.11-2.753-4.629-4.689-6.709-3.17C-3804.6,2101.5-3806.537,2105.984-3808.3,2108.51Z" transform="translate(3830.991 -2075.066)"/><path class="w" d="M-3802.151,2119.813a7.762,7.762,0,0,0-1.143,3.408,2.805,2.805,0,0,0,1.834,2.82,3.405,3.405,0,0,0,2.28-.4,14.969,14.969,0,0,0,3.158-2.18,37.579,37.579,0,0,0,8.081-9.7,11.651,11.651,0,0,0,1.732-4.576,4.973,4.973,0,0,0-1.642-4.427C-3793.088,2100.689-3800.394,2116.492-3802.151,2119.813Z" transform="translate(3828.062 -2076.823)"/><path class="w" d="M-3791.581,2129.005a2.465,2.465,0,0,0-.061,1.406,1.717,1.717,0,0,0,1.732,1,4.2,4.2,0,0,0,1.972-.779,28.513,28.513,0,0,0,6.385-6.08,14.511,14.511,0,0,0,3.246-5.528c.485-1.956-.267-4.314-2.632-4.379-1.593-.044-2.493,1.236-3.519,2.284A26.5,26.5,0,0,0-3791.581,2129.005Z" transform="translate(3823.969 -2080.555)"/><g transform="translate(0 25.772)"><path class="w" d="M-3839.494,2145.1c-2.918-6.99-2.444-13.752-.9-20.823a56.124,56.124,0,0,1,3.588-10,14.516,14.516,0,0,1,2.261-4.159c1.036-1.12,2.546-1.559,3.837-2.155a105.893,105.893,0,0,1,17.821-6.119.816.816,0,0,1,.609-.019,1.036,1.036,0,0,1,.559.7c.545,2.545.438,4.989-1.349,7s-4.485,2.255-6.709,3.429a4.968,4.968,0,0,0-2.291,1.682c-1.45,2.577-1.061,5.47-2.016,8.194" transform="translate(3841.621 -2101.776)"/></g><path class="x" d="M-3812.283,2151.614a4.22,4.22,0,0,1,1.386-2.339,16.7,16.7,0,0,1,10.507-4.819" transform="translate(3831.242 -2091.102)"/></g><path class="y" d="M-3855.922,2163.821a7.532,7.532,0,0,0-2.019,1.584c-3.625,4.011-4.78,11.08-6.573,16.033a182.693,182.693,0,0,0-5.619,19.886q-2.993,12.53-5.841,25.093c-6.451,28.373-12.5,57.7-7.514,86.365,1.247,7.169,4.038,14.361,6.6,21.16,3.543,9.406,10.243,9.615,17.986,4.454,16.277-10.849,19.6-29.966,21.665-48.408l6.517-45.658,7.768-54.425c.638-4.474,3.088-10.757.726-14.6-2.379-3.872-9-6.3-12.894-8.159a51.846,51.846,0,0,0-6.373-2.7C-3845.824,2163.057-3851.808,2161.594-3855.922,2163.821Z" transform="translate(4095.649 -2008.424)"/><path class="t" d="M-3895.8,2326.663c-1.531,5.317-1.426,11.1-1.039,16.878.389,5.821-.492,10.07,2.031,15.775l9.317,21.067c1.388,3.138,3.228,6.663,6.582,7.391,2.684.583,5.478-.976,7.115-3.181a19.329,19.329,0,0,0,2.911-7.639,119.126,119.126,0,0,0,1.98-36.567,151.728,151.728,0,0,0-3.181-18.015c-1.177-5.282-2.435-8.391-8.482-8.674l-3.49-.164a12.866,12.866,0,0,0-2.96.089c-2.38.442-4.3,2.174-5.9,3.995A23.24,23.24,0,0,0-3895.8,2326.663Z" transform="translate(4099.811 -2061.778)"/></g><path class="t" d="M-4325.61,2278.547a24.174,24.174,0,0,0-1.316,4.364c-2.338,11.975,7.588,25.821,14.605,34.432,13.083,16.053,28.849,29.589,42.816,44.824,7.688,8.386,22.153,40.562,35.8,31.812a250.151,250.151,0,0,0,24.665-18.035c1.625-1.347,3.3-2.805,4.031-4.784,1.695-4.566-2.2-9.13-5.69-12.531a298.665,298.665,0,0,1-53.667-70.885l33.167-27.267c10.153-8.347,20.466-16.87,27.687-27.852s11.005-25,6.849-37.473c-3.938-11.816-15.581-20.766-27.909-22.091-15-1.612-22.226,12.953-31.315,23.221q-25.182,28.443-50.36,56.891C-4312.429,2260.156-4321.822,2269.123-4325.61,2278.547Z" transform="translate(4327.274 -2012.054)"/><path class="z" d="M-3943.178,2314.567c1.621,9.729,1.137,20-2.811,29.043s-11.645,16.682-21.171,19.235" transform="translate(4199.879 -2062.158)"/><path class="z" d="M-4188.449,2289.52c-1.883,9.312-4.113,20.134-1.954,29.548a57.345,57.345,0,0,0,6.679,15.682c2.667,4.61,5.88,9.284,10.739,11.462" transform="translate(4279.167 -2053.298)"/></g></g></g><g transform="translate(-4054.774 1771.084)"><path class="aa" d="M-3786.93,1888.063c.081-3,3.333,8.791,11.221-11.053,4.269-10.738,9.006-21.284,13.44-31.954,5.736-13.8,30.517-57.808,14.107-69.649-20.161-14.546-24.621,46.784-25.928,56.32C-3776.809,1851.578-3784.21,1868.212-3786.93,1888.063Z" transform="translate(3806.745 -1771.828)"/><circle class="ab" cx="12.918" cy="12.918" r="12.918" transform="translate(3.893 134.593)"/><path class="ac" d="M-3786.09,1886.275a.664.664,0,0,0,.353.039c.6-.083.932-.717,1.168-1.273,2.885-6.789,5.314-13.605,8.177-20.38q2.29-5.419,4.553-10.848,1.175-2.814,2.346-5.631c.391-.94,2.456-4.324,2.175-5.23,5.737-13.8,30.517-57.808,14.107-69.648-20.162-14.546-24.621,46.784-25.928,56.319-1.453,10.134-2.78,20.288-4.169,30.431l-2.085,15.216C-3785.545,1876.391-3787.841,1885.54-3786.09,1886.275Z" transform="translate(3806.68 -1771.084)"/><circle class="ad" cx="12.918" cy="12.918" r="12.918" transform="translate(0 130.443)"/></g></g></svg>