<svg xmlns="http://www.w3.org/2000/svg" xmlns:xlink="http://www.w3.org/1999/xlink" width="540.001" height="554.75" viewBox="0 0 540.001 554.75"><defs><style>.a{fill:#edefef;}.b{fill:url(#a);}.c{mix-blend-mode:multiply;isolation:isolate;fill:url(#b);}.d,.g,.i,.k{fill:#100052;}.d,.e,.f,.g,.i,.j,.k,.q,.r,.s{stroke:#100052;}.aa,.ab,.ad,.d,.e,.f,.h,.i,.j,.k,.q,.r,.s,.u,.v,.w,.x,.y{stroke-miterlimit:10;}.d{stroke-width:0.732px;}.e,.f,.j,.l{fill:#f9c3a5;}.e,.h{stroke-width:0.635px;}.f,.v{stroke-width:0.596px;}.aa,.g{stroke-linecap:round;}.g{stroke-linejoin:round;stroke-width:0.224px;}.h,.t{fill:#ea665b;}.h,.u,.v{stroke:#231f20;}.i{stroke-width:0.188px;}.j{stroke-width:0.561px;}.k{stroke-width:0.196px;}.m{fill:#fff;}.n{fill:#cbd2ba;}.o,.x{fill:#f6f8ed;}.p{fill:#f7f7f7;}.q,.r{fill:#b28c5f;}.q{stroke-width:0.658px;}.q,.r,.s{fill-rule:evenodd;}.r{stroke-width:0.793px;}.s{fill:#feca84;stroke-width:0.766px;}.u,.v{fill:#514a49;}.u{stroke-width:0.674px;}.aa,.ab,.w,.x,.y{stroke:#000;stroke-width:0.566px;}.w{fill:url(#d);}.y{fill:#aec3d1;}.z{fill:#90afbf;}.aa,.ab,.ad{fill:none;}.ac{fill:url(#e);}.ad{stroke:#707070;}.ae{fill:url(#j);}.af{fill:url(#k);}.ag{fill:url(#l);}.ah{fill:url(#m);}</style><linearGradient id="a" y1="0.5" x2="1" y2="0.5" gradientUnits="objectBoundingBox"><stop offset="0" stop-color="#4fa5ad"/><stop offset="1" stop-color="#99cbcf"/></linearGradient><linearGradient id="b" y1="0.5" x2="1" y2="0.5" gradientUnits="objectBoundingBox"><stop offset="0" stop-color="#2a7195"/><stop offset="1" stop-color="#99cbcf"/></linearGradient><linearGradient id="d" y1="0.5" x2="1" y2="0.5" gradientUnits="objectBoundingBox"><stop offset="0" stop-color="#6599b3"/><stop offset="1" stop-color="#45496b"/></linearGradient><linearGradient id="e" y1="0.5" x2="1" y2="0.5" gradientUnits="objectBoundingBox"><stop offset="0" stop-color="#b9bdab"/><stop offset="1" stop-color="#769cae"/></linearGradient><linearGradient id="j" y1="0.5" x2="1" y2="0.5" gradientUnits="objectBoundingBox"><stop offset="0" stop-color="#2a7195"/><stop offset="0.333" stop-color="#296e92"/><stop offset="0.513" stop-color="#26668b"/><stop offset="0.657" stop-color="#21597f"/><stop offset="0.781" stop-color="#1a456d"/><stop offset="0.891" stop-color="#112c57"/><stop offset="0.992" stop-color="#060e3b"/><stop offset="1" stop-color="#060c39"/></linearGradient><linearGradient id="k" y1="0.5" x2="1" y2="0.5" gradientUnits="objectBoundingBox"><stop offset="0" stop-color="#2a7195"/><stop offset="1" stop-color="#060c39"/></linearGradient><linearGradient id="l" x1="0.538" y1="0.354" x2="0.334" y2="1.011" gradientUnits="objectBoundingBox"><stop offset="0" stop-color="#faebd8"/><stop offset="1" stop-color="#ffb83f"/></linearGradient><linearGradient id="m" x1="0.487" y1="0.494" x2="0.359" y2="1.008" xlink:href="#l"/></defs><g transform="translate(-3087.903 -146.18)"><g transform="translate(3608.107 700.222)"><path class="a" d="M4055.524,1173.91l-.245.257-2.837-.538A4.318,4.318,0,0,1,4055.524,1173.91Z" transform="translate(-4052.442 -1173.458)"/></g><g transform="translate(3087.903 146.18)"><path class="b" d="M3126.569,446.092a73.8,73.8,0,0,1-14.558-40.355c-.84-15.276,2.522-32.678,10.382-45.974,6.778-11.466,15.808-21.17,19.264-34.642a39.574,39.574,0,0,0-2.867-27.177c-2.51-5.05-6.1-9.538-8.262-14.746-2.728-6.569-3.021-13.92-2.265-20.992,2.144-20.052,14.608-45.951,34.125-54.436,21.343-9.279,48.009-6.868,70.676-7.88,10.728-.479,21.619-1.359,31.917-4.611,11.125-3.514,15.225-9.987,23.5-17.574,26.709-24.482,64.2-35.468,99.919-30.254a159.138,159.138,0,0,1,75.681,33.039c16.411,12.96,26.832,33.178,45.665,43.142,11.273,5.965,19.942,3.783,31.855,4.577,13.662.91,26.871,6.9,37.143,15.847,13.381,11.652,22.1,28.037,26.544,45.214,7.855,30.341,2.649,63.663-13.293,90.647a129.019,129.019,0,0,1-40.275,41.869c-8.34,5.479-17.33,8.768-26.088,13.3-8.989,4.656-9.37,10.425-16.14,17.725-9.2,9.913-26.437,19.491-40.058,19.189-9.7-.215-19.571-2.381-28.986-.035-9.187,2.289-16.746,8.576-24.689,13.729-23.135,15.007-51.637,21.029-79.077,18.3s-53.751-13.957-75.769-30.561c-10.011-7.551-19.51-16.38-31.4-20.363-15.316-5.131-32.236-1.364-47.173,4.784-8.6,3.542-17.379,7.953-26.656,7.258-7.843-.587-15-4.832-20.865-10.073A63.877,63.877,0,0,1,3126.569,446.092Z" transform="translate(-3098.951 -146.18)"/><path class="c" d="M3198.046,727.91l25.257,5.529h167.788l-107.665-20.027Z" transform="translate(-3138.643 -407.487)"/><path class="b" d="M3461.037,908.441l21.692,18.146c21.717,1.317,44.021,2.615,65.162-.38,10.119-1.434,19.865-3.839,30.289-4.307,8.5-.382,16.991.549,25.4,1.337q20.654,1.938,41.6,2.754c23.551.917,49.839.221,66.768-8.694,3.333-1.755,6.3-4.516,3.828-6.65-1.107-.957-3.062-1.511-4.951-1.989-35.711-9.021-77.224-5.635-116.621-6.039-5.906-.06-12-.235-17.318-1.623-5.94-1.549-10.247-4.425-15.1-6.839-16.117-8.014-39.219-11.068-61.013-10.026s-42.46,5.816-61.341,11.8c-7.941,2.518-15.938,5.427-20.456,9.769s-4.4,10.48,2.583,13.722c4.308,2,10.231,2.546,15.837,3.015l53.5,4.487" transform="translate(-3238.993 -486.041)"/><path class="d" d="M3922.3,510.917l-.46-1.735a9.679,9.679,0,0,1,4.975-11.02,21.027,21.027,0,0,0,2.769-1.778,14.4,14.4,0,0,0,4.785-6.666q3.254-8.893,16.92-10.688c3.223-.423,6.211-1.56,9.528-1.688a28.624,28.624,0,0,1,8.779.981,26.144,26.144,0,0,1,13.764,9.518,33.283,33.283,0,0,1,3.99,6.938c1.022,2.375,2.933,6.293,2.108,8.9-.67,2.121-4.665,3.512-6.542,4.26a23.969,23.969,0,0,1-8.787,1.675c-6.461.022-12.726-2.386-18.09-5.867-9.985,7.247-20.229,2.135-8.656-5.667C3940.947,504.817,3932.381,508.727,3922.3,510.917Z" transform="translate(-3471.927 -298.726)"/><path class="e" d="M3609.861,874.65l-8.374,8.375c-.249,10.768,2.919,16.432,8.374,18.681-.427-8.481,2.369-14.346,9.824-16.427Z" transform="translate(-3324.489 -481.765)"/><path class="f" d="M3838.733,888.826v8.939a6.218,6.218,0,0,0,4.67,5.8A40.716,40.716,0,0,0,3856,905.29c1.217-.029,3.389.371,3.736-1.216.36-1.646-1.541-3.285-2.563-4.28a13.743,13.743,0,0,1-3.033-3.883c-.556-1.189-.134-2.82-.662-3.841-.364-.7-1.28-.709-1.976-.847-1.709-.338-3.428-.643-5.142-.965Z" transform="translate(-3433.788 -488.295)"/><path class="g" d="M3765.3,655.474" transform="translate(-3399.96 -380.797)"/><path class="h" d="M3891.746,536.24a4.31,4.31,0,0,1-4.645.035,13.808,13.808,0,0,1-3.873-3.623c-5.18-6.284-10.026-13.3-15.814-18.961q-9.3-9.106-18.6-18.22c-4.059-3.976-3.227-8.11-.755-13.02a9.327,9.327,0,0,1,2.024-2.839,16.708,16.708,0,0,1,6.613-3c2.028-.217,3.832,1.506,5.481,2.6,3.317,2.192,6.632,4.4,9.9,6.664a84.62,84.62,0,0,1,13.56,11.3,54.27,54.27,0,0,1,10.228,15.473A63.81,63.81,0,0,1,3899.3,522.9c1.1,4.471-.665,7.429-3.99,10.33A28.021,28.021,0,0,1,3891.746,536.24Z" transform="translate(-3437.131 -298.392)"/><path class="i" d="M3921.663,504.832c-.093.313-.187.625-.259.938-1.387,6-1.148,12.217-.909,18.322l.419,10.687a31.375,31.375,0,0,0,.827,7.12,13.036,13.036,0,0,0,3.808,6.335,9.727,9.727,0,0,0,6.863,2.507c2.094-.118,4.168-1.006,6.229-.616,2.149.407,4.135,2.174,6.251,1.614,2.367-.628,3.451-3.893,5.886-4.159.45-.049.909.016,1.355-.06,1.387-.234,2.2-1.692,2.575-3.049.667-2.418.584-4.971.936-7.455.787-5.554,3.744-10.618,7.485-14.8,3.792-4.236,8.458-7.239,12.691-10.945a98.214,98.214,0,0,0,11.334-12.123c4.183-5.14,2.192-13.778-.5-19.328-2.313-4.761-6.791-6.978-9.429-11.222-2.506-4.033-4.7-6.5-9.479-7.648a27.507,27.507,0,0,0-11.528-.051c-14.2,2.761-25.151,11.927-32.677,23.784a23.548,23.548,0,0,0-2.448,4.983,16.566,16.566,0,0,0-.712,8.071,17.727,17.727,0,0,0,1.218,4.158,2.426,2.426,0,0,1,.379,1.729A11.11,11.11,0,0,1,3921.663,504.832Z" transform="translate(-3471.302 -290.894)"/><g transform="translate(431.489 166.426)"><path class="j" d="M3919.452,555.4a4.754,4.754,0,0,0,.289.6c1.972,3.535,6.875,9.7,9.306,3.309.972-2.557.724-5.3,2.414-7.575,1.836-2.476,4.609-4.652,6.332-7.123,2.9-4.165.285-5.513-3.615-7.478a6.45,6.45,0,0,0-3.418-.939,9.292,9.292,0,0,0-4.941,1.987c-3.336,2.51-8.071,4.449-8.969,9.038C3916.289,550.082,3918.417,552.825,3919.452,555.4Z" transform="translate(-3901.22 -492.27)"/><path class="j" d="M3989.026,469.493a19.428,19.428,0,0,0-15.513-1.139c-6.42,2.326-10.036,8.041-14.774,12.855a27.408,27.408,0,0,0-8,22.563,13.887,13.887,0,0,0,1.922,5.349c1.4,2.617,2.858,5.569,5.568,7.053,8.09,4.432,15.864.784,22.851-3.241a45.656,45.656,0,0,0,16.548-15.369c3.433-5.3,4.611-10.016,2.235-16.123A22.846,22.846,0,0,0,3989.026,469.493Z" transform="translate(-3916.809 -460.508)"/><path class="k" d="M3921.583,463.745a113.418,113.418,0,0,1,10.371-5.671c6.03-2.888,11.635-4.747,17.813-1.887,6.759,3.129,12.362,6.024,16.943,12.2,3.217,4.335,6.283,9.334,7.454,14.661.511,2.322.725,5.564-.608,7.7-1.742,2.785-7.4,4.106-10.4,4.428a17.578,17.578,0,0,1-11.216-2.5,69.621,69.621,0,0,1-6.087-4.98c-3.469-2.8-7.059-3.961-11.179-1.9-7.457,3.731-10.069,13.3-16.135,18.635a15.157,15.157,0,0,1-8.008,3.912,12.8,12.8,0,0,1-8.394-2.245c-2.193-1.617-3.7-3.2-6.637-3.418a9.628,9.628,0,0,0-3.735.478c-.57.188-1.636.993-2.261.793-1.55-.5-1.584-3.758-1.542-5.008.261-7.8,5.8-13.083,11.517-17.728,3.223-2.618,5.654-5.782,8.938-8.313A151.814,151.814,0,0,1,3921.583,463.745Z" transform="translate(-3887.95 -454.76)"/><path class="l" d="M3982.484,508.229a4.747,4.747,0,0,0-.451-3.384c-1.714-2.617-4.749-2.874-7.291-1.219-2.134,1.39-2.884,3.688-2.992,6.113a3.221,3.221,0,0,0,.756,2.343,1.92,1.92,0,0,0,2.349.437" transform="translate(-3926.552 -476.792)"/></g><path class="g" d="M3852.983,669.762c-4.62-.324-9.242-.638-13.862-.97-3.227-.232-5.8-1.438-9.131-1.21a30.078,30.078,0,0,0-11.686,3.346c-4.77,2.47-7.778,6.62-12.1,9.5-3.351,2.23-6.808,3.279-9.34,6.752-2.016,2.767-2.835,6.7-1.07,9.631,2.189,3.635,7.1,4.28,11.333,4.538l26.728,1.628c2.98.181,10.258-1.566,12.2,1,3.061,4.052-2.668,13.14-4.542,16.559-5.794,10.571-10.019,21.89-14.243,33.152-2.1,5.613-4.52,11.1-6.96,16.574-1.254,2.813-2.519,5.621-3.751,8.444-1.427,3.269-4.245,6.477-.525,9.359,3.224,2.5,9.022,3.586,13,3.881,6.1.452,8.673-1.493,11.235-6.7,7.979-16.219,16.356-32.319,25.374-47.984,8.652-15.031,17.648-30.116,20.159-47.607C3886.344,679.5,3872.9,673.636,3852.983,669.762Z" transform="translate(-3413.561 -386.361)"/><path class="g" d="M3746.2,662.845c-5.624-1.623-12.247-1.749-18.081-2.54l-27.276-3.7-8.35-1.133c-1.583-.215-7.334,12-8.107,13.514a169.243,169.243,0,0,0-7.533,17.345c-2.433,6.49-4.56,13.092-6.5,19.744-1.5,5.127-2.121,16.15-6.314,19.425L3619.8,760.039c-5.223,4.078-15.227,8-11.877,16.174a14.194,14.194,0,0,0,5.324,6.131c3.353,2.279,8.056,5.469,11.981,3.694,3.364-1.521,6.219-3.914,9.457-5.647,9.136-4.886,18.2-9.916,27-15.381,11.387-7.069,23.719-14.6,31.151-26.075,2.414-3.726,3.879-7.968,5.613-12.055C3709.174,701.625,3728.859,683.344,3746.2,662.845Z" transform="translate(-3327.153 -380.794)"/><g transform="translate(375.808 101.361)"><g transform="translate(27.682 22.778)"><path class="m" d="M3868.1,388.945l-32.066-12.592,14.752,10.42Z" transform="translate(-3836.035 -376.352)"/></g><g transform="translate(41.83 15.915)"><path class="n" d="M3882.747,374.834l-1.908.825.513,3.261-15.721-4.1,15.259,5.992-.706,2.271-2.785,8.97-.545,1.756c1.609.384,3.219.761,4.828,1.147,2.78.666,5.563,1.362,8.326,2.142l-.231-.915,2.216-1.585.991-3.191-6.5-2.774,7.234.812.558-1.8-10.856-3.435,11.422,1.18.1.118.408-1.312-.465-2.277,1.391-1.5,1.23-3.958-6.694-.643,7.118-.723.984-3.169-7.295-1.085-7.29-1.088-.184.59-21.873-6.719,21.355,8.386Z" transform="translate(-3862.268 -363.627)"/></g><g transform="translate(11.65 32.783)"><path class="m" d="M3834.648,409.064l13.774,2.376L3806.31,394.9Z" transform="translate(-3806.31 -394.903)"/></g><g transform="translate(3.521 17.011)"><path class="m" d="M3802.333,369.877l-11.1-3.061.358-1.156Z" transform="translate(-3791.237 -365.661)"/></g><g transform="translate(32.162 16.811)"><path class="m" d="M3864.233,374.941l-19.891-9.652,28.251,11.094Z" transform="translate(-3844.342 -365.289)"/></g><g transform="translate(62.981 36.498)"><path class="m" d="M3913,403.09l-.1-.118-11.423-1.18,10.856,3.434,3.275,1.036Z" transform="translate(-3901.484 -401.793)"/></g><path class="o" d="M3828.8,367.561,3814.233,356.8l31.828,13.336.741-2.257-15.146-6.346,15.638,4.465-.46-3.275,1.92-.782.921-2.8-21.2-8.881,21.741,7.225.193-.586-54.352-22.773q-1.019,2.935-2.06,5.86l-3.452,10.5,10.657,4.466-11.034-3.317-1.165,3.547-.383,1.163-.023.073c1.475,2.468,2.251,5.564,4.727,7.135,15.78,9.561,32.7,10.933,49.805,15.5l2.929-8.911Zm18.048-4.883-8.328-1.635-19.714-10.115Z" transform="translate(-3786.501 -334.119)"/><path class="o" d="M3786.487,382.734c1.38.711,2.752,1.445,4.158,2.084.693.315,1.394.6,2.105.855l.407.131.119.037c.354.105.707.216,1.061.324,2.359.714,4.752,1.375,7.14,2.069l-5.215-2.753,10.315,4.322a59.265,59.265,0,0,1,8.752,3.6c.2.1.4.212.6.318l22.135,9.275-7.718-1.515q1.078.513,2.172.989c.758.328,1.545.59,2.3.923.279.081.64.221.772.255.555.142,1.114.266,1.674.38l.011-.342,2.965-2.251,1.1-3.349c-17.1-4.565-34.026-5.937-49.805-15.5-2.475-1.571-3.251-4.667-4.727-7.135l-2.1,6.386Q3785.607,382.277,3786.487,382.734Z" transform="translate(-3784.708 -353.159)"/><path class="p" d="M3801.635,335.121l23.676,5.742,45.667,17.934-14.769-1.583Z" transform="translate(-3792.506 -334.581)"/></g><path class="q" d="M3660.905,466.6l29-135.176,87.44,24.842-34.323,142.346Z" transform="translate(-3351.868 -231.515)"/><path class="r" d="M3837.834,376.575l33.86,19.3L3843.78,504.7l-42.958,13.769Z" transform="translate(-3416.324 -252.316)"/><g transform="translate(342.081 83.73)"><g transform="translate(33.536 22.238)"><path class="m" d="M3784.354,342.66l32.066,12.592-17.314-2.173Z" transform="translate(-3784.354 -342.66)"/></g><g transform="translate(36.327 15.375)"><path class="n" d="M3808.7,381.908l-.626,2.015,5.863.785,8.717,1.4,1.309-4.213-7.691-1.163v0l7.875.57,1.688-5.435-4.039-1.357,4.317.463,2.994-9.639-.716-2.846,2.215-1.585.991-3.191-6.5-2.774,7.234.812.558-1.8-10.857-3.434,11.423,1.18.1.118.407-1.312-.466-2.277,1.392-1.5,1.23-3.958-6.694-.643,7.118-.723.985-3.169-7.3-1.085-7.29-1.087-.183.59-21.873-6.719,21.355,8.386-.876,2.821-1.909.825.514,3.261-15.72-4.1,15.259,5.992-.705,2.271-3.833,12.34-2.93,2.316-.1,7.425-11.735-4.609L3811.16,374l-.018.058-21.614-7.553,21.109,9.177-1.5,4.833-.787-.183,1.1.433-6.523-1.125Zm5.092-16.393,13.51,1.988-4.282,1.751Z" transform="translate(-3789.529 -329.935)"/></g><g transform="translate(2.829 37.889)"><path class="m" d="M3763.635,385.8l-22.5-5.8-13.714-7.507.252-.813Z" transform="translate(-3727.419 -371.679)"/></g><g transform="translate(17.504 32.243)"><path class="m" d="M3782.967,375.372l-28.338-14.161,42.112,16.537Z" transform="translate(-3754.629 -361.211)"/></g><g transform="translate(9.375 16.471)"><path class="m" d="M3750.651,336.185l-11.1-3.061.359-1.156Z" transform="translate(-3739.556 -331.968)"/></g><g transform="translate(38.016 16.271)"><path class="m" d="M3812.552,341.249l-19.892-9.652,28.252,11.094Z" transform="translate(-3792.661 -331.597)"/></g><g transform="translate(27.999 55.111)"><path class="m" d="M3802.34,414.706l-6.524-1.125-1.836-.317-19.892-9.652,27.148,10.661Z" transform="translate(-3774.089 -403.612)"/></g><g transform="translate(68.834 35.958)"><path class="m" d="M3849.8,368.1l11.423,1.18.1.118,2.611,3.173-3.275-1.036Z" transform="translate(-3849.803 -368.1)"/></g><g transform="translate(60.593 50.954)"><path class="m" d="M3834.523,395.905l13.51,1.988-4.282,1.751Z" transform="translate(-3834.523 -395.905)"/></g><path class="o" d="M3737.156,301.428q-.973,2.955-1.967,5.9l-3.283,10.569,10.737,4.217-11.1-3.061-1.109,3.569h0l-.364,1.171-4.821,15.521,35.964,14.123-22.5-5.8L3725,340.129l-.855,2.754h0l-.149.482-1.824,5.875,54.876,21.55.625-2.015-5.774-2.267-1.837-.317-19.892-9.652,27.148,10.661.787.183,1.5-4.833-21.109-9.177,21.614,7.553.019-.058-10.951-7.136,11.735,4.609.1-7.425,2.93-2.316,3.832-12.34-17.313-2.172-14.751-10.42,32.065,12.592.706-2.271-15.259-5.992,15.72,4.1-.514-3.261,1.909-.825.876-2.821-21.356-8.386,21.873,6.719.183-.59Zm23.033,16.271,28.251,11.094-8.36-1.442Zm21.6,32.509-13.774-2.376-28.337-14.161Z" transform="translate(-3722.173 -301.428)"/><path class="p" d="M3749.954,301.428l23.676,5.742L3819.3,325.1l-14.769-1.582Z" transform="translate(-3734.971 -301.428)"/></g><path class="s" d="M3699.619,331.421,3682,360.5l86.769,31.958,18.289-36.193Z" transform="translate(-3361.586 -231.515)"/><path class="s" d="M3908.21,396.482l4.112,36.9-33.438-6.723-2.088-49.179Z" transform="translate(-3451.322 -252.734)"/><path class="t" d="M3847.58,552.35a1.128,1.128,0,0,1,.227.114c1.624,1.085.4,4.529.711,6.115a9.481,9.481,0,0,0,5.619,7.2,4.53,4.53,0,0,1,2.055,1.519,3.978,3.978,0,0,1,.234,2.457,87.346,87.346,0,0,1-1.925,11.528c-.9,3.482-.7,7.007-2.219,10.424a13.983,13.983,0,0,1-5.78,6.633,22.565,22.565,0,0,1-6.084,1.986l-5.453,1.222c-1.5.337-2.935.393-4.075,1.423-3.7,3.343-9.052,7.294-7.844,12.965-3.573.387-5.277-.74-8.65,1.156a45.825,45.825,0,0,0-6.818,5.013c-4.142,3.47-8.331,7.373-13.757,8.622a24.356,24.356,0,0,1-10.946-.465c-5.75-1.345-11.367-3.742-15.733-7.719-4.338-3.952-9.861-12.559-7.306-18.563,3.034-7.13,9.966-11.818,17.017-15.033s14.622-5.405,21.129-9.611a78.912,78.912,0,0,0,9.677-7.808l12.137-10.894a46.239,46.239,0,0,1,5.565-4.5,23.305,23.305,0,0,1,11.8-3.693c1.983-.071,3.959.4,5.9.265C3844.509,552.61,3846.129,551.8,3847.58,552.35Z" transform="translate(-3397.143 -333.203)"/><g transform="translate(137.575 253.056)"><g transform="translate(24.071 21.339)"><path class="m" d="M3433.029,654.95l-45.41.627,22.546,5.021Z" transform="translate(-3387.619 -654.95)"/></g><g transform="translate(3.595 0.893)"><path class="n" d="M3377.05,680.065l-8.625-1.536,1.563-.022-1.061-.13.187-6.253,30.273-1.441-30.209-.661,0-.075,16.717-3.5-16.62.229,3.048-8.643-2.671-3.959.477-15.964.088-2.938,21.609-.3-21.378-2.094,2.032-3.554-2.031-1.786.109-3.649,30.242-.417-30.178-1.739.023-.764-9.567-1.914-9.572-1.919-.123,4.1,8.581,3.937-8.634-2.17-.152,5.12,1.1,2.343-1.553,2.435-.05,1.7.171-.094,14.767,3.606-15.021-.748-.069,2.325,9.379,2.209-9.3.383-.124,4.128,2.091,2.8-2.108,2.985-.373,12.47,5.587,1.343-5.622-.187-.21,7.031,10.076,2.768v0l-10.1-2-.163,5.451,11.484,2.168,7.656,1.643.078-2.606Zm-20.661-20.78-4.6-3.892,17.717,3.579Z" transform="translate(-3349.654 -617.039)"/></g><g transform="translate(49.903 52.728)"><path class="m" d="M3435.516,713.853l30.573,3.074,20.325-2.725.031-1.051Z" transform="translate(-3435.516 -713.151)"/></g><g transform="translate(25.594 39.908)"><path class="m" d="M3408.657,693.448l41.424-4.067-59.637.823Z" transform="translate(-3390.444 -689.381)"/></g><g transform="translate(86.456 25.022)"><path class="m" d="M3503.29,661.988l15.16,1.285.045-1.5Z" transform="translate(-3503.29 -661.779)"/></g><g transform="translate(26.423 12.476)"><path class="m" d="M3403.034,641.038l28.954-2.521-40.008.552Z" transform="translate(-3391.979 -638.517)"/></g><g transform="translate(22.365 61.83)"><path class="m" d="M3384.457,730.579l8.625,1.536,2.429.433,28.954-2.521-38.445.53Z" transform="translate(-3384.457 -730.027)"/></g><g transform="translate(0 18.258)"><path class="m" d="M3362.541,652.845l-14.767-3.607-.172.094-4.614,2.538,4.531.226Z" transform="translate(-3342.988 -649.238)"/></g><g transform="translate(5.729 39.246)"><path class="m" d="M3371.329,691.731l-17.718-3.579,4.6,3.892Z" transform="translate(-3353.611 -688.152)"/></g><g transform="translate(22.735 3.656)"><path class="o" d="M3386.993,623.232l-.022.764,30.177,1.739-30.242.417-.109,3.649,2.031,1.786-2.032,3.554,21.378,2.094-21.609.3-.088,2.938,45.41-.626-22.864,5.647-22.546-5.021L3386,656.436l2.671,3.959-3.048,8.643,16.62-.229-16.717,3.5,0,.075,30.21.661-30.273,1.441-.187,6.253,1.061.13,38.445-.53-28.954,2.521-2.428-.433-8.177.113-.079,2.606,77.713-1.072.228-7.6.018-.622h0l.107-3.563-20.325,2.725-30.573-3.074,50.929-.7.6-20.08.045-1.514h0l.138-4.617-15.16-1.286,15.2-.21.408-13.673q.017-3.847.062-7.693Zm12.891,10.271-11.054-1.969,40.008-.552Zm47.755,24.912-41.425,4.067L3388,659.238Z" transform="translate(-3385.142 -622.163)"/></g><path class="p" d="M3449.771,619.04l-32.012-3.656-64.672.892,19.117,4.6Z" transform="translate(-3347.64 -615.384)"/></g><g transform="translate(61.711 254.713)"><g transform="translate(24.442 22.269)"><path class="m" d="M3293.754,659.747l-46.11.654,22.893,5.24Z" transform="translate(-3247.644 -659.747)"/></g><g transform="translate(3.651 0.931)"><path class="n" d="M3236.912,685.956l-8.758-1.6,1.586-.022-1.077-.136.189-6.525,30.74-1.5-30.675-.69,0-.078,16.974-3.651-16.875.239,3.094-9.019-2.712-4.132.485-16.659.089-3.066,21.942-.311-21.708-2.185,2.064-3.709-2.063-1.864.111-3.808,30.709-.435-30.643-1.815.023-.8-9.715-2-9.72-2-.124,4.277,8.712,4.108-8.766-2.264-.156,5.344,1.116,2.445-1.577,2.541-.051,1.771.175-.1,14.994,3.764-15.253-.781-.071,2.426,9.523,2.306-9.444.4-.126,4.308,2.124,2.923-2.141,3.115-.378,13.013,5.673,1.4-5.708-.2-.213,7.338,10.232,2.889v0l-10.255-2.088-.166,5.688,11.661,2.263,7.774,1.714.079-2.719Zm-20.979-21.685-4.671-4.062,17.991,3.735Z" transform="translate(-3209.094 -620.184)"/></g><g transform="translate(50.672 55.026)"><path class="m" d="M3296.28,721.217l31.044,3.208,20.638-2.844.032-1.1Z" transform="translate(-3296.28 -720.483)"/></g><g transform="translate(25.989 41.647)"><path class="m" d="M3269.007,699.922l42.063-4.245-60.556.859Z" transform="translate(-3250.513 -695.678)"/></g><g transform="translate(87.789 26.112)"><path class="m" d="M3365.1,667.092l15.394,1.341.045-1.56Z" transform="translate(-3365.099 -666.873)"/></g><g transform="translate(26.83 13.02)"><path class="m" d="M3263.3,645.229l29.4-2.631-40.625.576Z" transform="translate(-3252.072 -642.598)"/></g><g transform="translate(22.71 64.524)"><path class="m" d="M3244.433,738.671l8.758,1.6,2.466.452,29.4-2.631-39.038.554Z" transform="translate(-3244.433 -738.095)"/></g><g transform="translate(0 19.054)"><path class="m" d="M3222.179,657.55l-14.994-3.764-.174.1-4.685,2.649,4.6.235Z" transform="translate(-3202.325 -653.786)"/></g><g transform="translate(5.818 40.956)"><path class="m" d="M3231.1,698.131l-17.991-3.735,4.671,4.062Z" transform="translate(-3213.112 -694.396)"/></g><g transform="translate(23.086 3.815)"><path class="o" d="M3247.009,626.648l-.023.8,30.643,1.815-30.709.435-.111,3.808,2.063,1.864-2.064,3.709,21.708,2.185-21.942.311-.089,3.066,46.11-.654-23.217,5.894-22.893-5.24L3246,661.3l2.712,4.132-3.095,9.019,16.876-.239-16.975,3.651,0,.078,30.676.69-30.74,1.5-.189,6.525,1.077.136,39.038-.554-29.4,2.631-2.466-.452-8.3.118-.079,2.719,78.911-1.119.231-7.931.019-.649h0l.108-3.719-20.639,2.844-31.044-3.208,51.715-.734.609-20.955.046-1.58h0l.14-4.818-15.394-1.341,15.439-.219.415-14.268q.018-4.014.063-8.028Zm13.09,10.719-11.225-2.055,40.625-.576Zm48.49,26-42.062,4.245-18.493-3.386Z" transform="translate(-3245.13 -625.531)"/></g><path class="p" d="M3310.754,622.272l-32.506-3.815-65.669.931,19.411,4.8Z" transform="translate(-3207.049 -618.457)"/></g><path class="e" d="M3779.913,560.09c-.849,1.364-3.9,1.4-5.351,1.775-10.5,2.69-21.167,5.895-29.284,13.618-1.18,1.123-2.344,2.491-2.375,4.12-.059,3.095,7.487,8.735.932,8.84a18.489,18.489,0,0,1-12.578-4.579,3.119,3.119,0,0,1-.9-1.239c-.262-.8.9-3.321,1.14-4.266a17.876,17.876,0,0,1,1.183-3.063,25.87,25.87,0,0,1,4.168-6.1,70.46,70.46,0,0,1,38.763-22.2c3.078-.615,2.941-.209,3.313,2.566.337,2.513,2.2,7.991,1.063,10.382A1.416,1.416,0,0,1,3779.913,560.09Z" transform="translate(-3383.846 -330.713)"/><path class="h" d="M3866.119,554.561a4.311,4.311,0,0,1-3.176,3.391,13.813,13.813,0,0,1-5.294.31c-8.123-.576-16.545-1.9-24.638-1.6q-13.01.468-26.018.924c-5.678.2-8.1-3.249-9.956-8.424a9.334,9.334,0,0,1-.663-3.424,16.716,16.716,0,0,1,2.383-6.859c1.241-1.619,3.732-1.739,5.658-2.184,3.875-.894,7.756-1.777,11.65-2.581a84.575,84.575,0,0,1,17.535-2.039,54.255,54.255,0,0,1,18.261,3.249,63.935,63.935,0,0,1,9.793,4.578c4,2.281,4.926,5.6,4.737,10.01A28.063,28.063,0,0,1,3866.119,554.561Z" transform="translate(-3414.273 -323.948)"/><path class="u" d="M3597.135,882.252c-.03-.224-.24-.072-1.17-.308a11,11,0,0,0-3,.075c-2.552.157-7.331-.507-8.453,2.336a8.5,8.5,0,0,0-.374,3.515,57.543,57.543,0,0,0,2.946,15.74c3.439,10.23,13.031,13.156,22.918,14.852a2.8,2.8,0,0,0,2.144-.208,2.05,2.05,0,0,0,.685-1.086c.669-2.231-.72-3.322-2.184-4.693l-5.042-4.721a4.5,4.5,0,0,1-1.683-2.828l-.927-3.515c-.187-.709-.257-2.041-.92-2.5-.611-.421-1.715-.117-2.406-.169a5.19,5.19,0,0,1-2.637-.857,5.259,5.259,0,0,1-1.986-3.675,15.159,15.159,0,0,1,.5-5.761c.535-1.762,1.547-3.457,1.557-5.342C3597.113,882.618,3597.152,882.377,3597.135,882.252Z" transform="translate(-3316.494 -485.083)"/><path class="v" d="M3836.165,899.977c-.209-.024-.426.2-.959.823-.6.7-.693,2.374-.855,3.242-.4,2.168-.464,4.39-.9,6.552-.76,3.807,2.657,3.718,5.6,4.542q4.961,1.388,10.01,2.43a147.886,147.886,0,0,0,20.405,2.747,7.929,7.929,0,0,0,4.379-.574c1.306-.723,2.134-2.519,1.311-3.765a4.128,4.128,0,0,0-1.729-1.27l-11.982-5.891c-1.722-.847-3.914-2.479-5.79-2.837-1.578-.3-3.609.4-5.223.53a15.3,15.3,0,0,1-6.852-1.014c-2.648-1.057-3.958-3.067-6.163-4.574C3836.656,900.4,3836.416,900.005,3836.165,899.977Z" transform="translate(-3431.307 -493.431)"/><g transform="translate(229.214 281.846)"><path class="m" d="M3512.9,668.766l16.262,1.452v-1.452Z" transform="translate(-3512.9 -668.766)"/></g><g transform="translate(164.59 269.182)"><path class="m" d="M3404.968,647.347l30.9-2.062h-42.79Z" transform="translate(-3393.078 -645.286)"/></g><g transform="translate(136.57 273.975)"><path class="m" d="M3362.076,657.874l-15.915-3.7-.18.089-4.856,2.4,4.856.28Z" transform="translate(-3341.125 -654.171)"/></g><g transform="translate(143.287 294.382)"><path class="m" d="M3372.651,695.725l-19.072-3.715,5.047,3.844Z" transform="translate(-3353.579 -692.01)"/></g><g transform="translate(47.371 250.015)"><path class="n" d="M3261.385,611.424c25.067,6.086,23.135,3.907,43.107,9.4-39.35-4.437-61.521-.684-99.88,12.72-7.45-1.1-22.618-6.217-28.875-7.989C3202.1,617.138,3236.318,605.338,3261.385,611.424Z" transform="translate(-3175.737 -609.746)"/></g><g transform="translate(84.941 194.549)"><g transform="translate(4.856 0)"><path class="n" d="M3284.08,568.493l-9.278-1.609h1.672l-1.139-.141v-6.074l32.344-.994-32.344-1.047v-.073l17.774-3.176h-17.774l2.984-8.358-2.984-3.883v-18.36h23.111l-22.941-2.321,2.061-3.426-2.231-1.764v-3.544h32.344l-32.344-2.095v-.742l-10.3-1.989-10.3-1.993v3.982l9.306,3.94-9.306-2.224v4.974l1.251,2.291-1.583,2.346v1.648l.181-.09,15.915,3.7-16.1-.929V528.8l10.106,2.273-9.94.248v4.01l2.327,2.75-2.16,2.872v12.113l6.021,1.38-6.021-.257v6.83l10.87,2.825v0l-10.87-2.079v5.295l12.357,2.261,8.244,1.7v-2.532Zm-22.771-20.47-5.046-3.844,19.072,3.716Z" transform="translate(-3254.4 -506.904)"/></g><g transform="translate(92.644 24.738)"><path class="m" d="M3417.173,552.772l16.262,1.452v-1.452Z" transform="translate(-3417.173 -552.772)"/></g><g transform="translate(0 16.867)"><path class="m" d="M3266.349,541.88l-15.915-3.7-.181.089-4.855,2.4,4.855.28Z" transform="translate(-3245.397 -538.177)"/></g><g transform="translate(6.717 37.274)"><path class="m" d="M3276.924,579.731l-19.072-3.715,5.047,3.844Z" transform="translate(-3257.852 -576.016)"/></g><path class="o" d="M3375.876,521.762q-.105-3.737-.18-7.475H3292.76v.742l32.345,2.095H3292.76v3.544l2.231,1.764-2.061,3.426,22.942,2.321H3292.76v18.36l2.985,3.883-2.985,8.358h17.775l-17.775,3.176v.073l32.345,1.047-32.345.994v6.073l1.14.141h-1.672l9.278,1.609,2.613.453h0l-2.613-.453h-8.746v2.532h83.117V562.977l-21.66,2.376h0l21.66-2.376v-1.021h0V536.5l-16.262-1.452h16.262Zm-80.886.618h0l11.891,2.061Z" transform="translate(-3266.97 -510.305)"/><path class="p" d="M3358.554,510.886l-34.369-3.982h-69.169l20.6,4.723Z" transform="translate(-3249.828 -506.904)"/></g><path class="w" d="M3209.005,425.109l18.32,8.382-10.83-115.567a.625.625,0,0,0-1.206-.168Z" transform="translate(-3143.691 -225.036)"/><path class="x" d="M3239.1,312.651l10.115,103.319,134.193-4.6-9.377-86.888Z" transform="translate(-3157.554 -222.868)"/><path class="x" d="M3241.747,415.839l-9.859-4.216-9-96,8.875-3.259" transform="translate(-3150.089 -222.738)"/><path class="y" d="M3239.573,496.074l1.834,19.57,139.136-5.317-1.632-14.638-129.536,4.018Z" transform="translate(-3157.773 -307.188)"/><path class="z" d="M3257.746,500.035l.8,4.393c17.792-.119,37.2-.6,44.4-.65,12.068,1.023,23.469,1.347,32.684-.619l22.229-.7,29.486-1.062-.012-5-87.216,1.793Z" transform="translate(-3166.145 -307.517)"/><path class="aa" d="M3459.351,332.98c11-6.368,2.553-18.433-6.6-7.435l-15.076-1.4c2.194-9.647,21.128-3.279,7.85,6.492" transform="translate(-3249.031 -225.958)"/><path class="aa" d="M3402.216,327.451c11.005-6.367,2.554-18.433-6.6-7.434l-15.075-1.4c2.194-9.647,21.128-3.279,7.85,6.492" transform="translate(-3222.711 -223.411)"/><path class="aa" d="M3344.6,321.388c11.005-6.368,2.554-18.433-6.6-7.435l-15.075-1.4c2.194-9.647,21.128-3.279,7.85,6.492" transform="translate(-3196.17 -220.618)"/><path class="aa" d="M3290.711,317.183c11.005-6.368,2.554-18.433-6.6-7.435l-15.075-1.4c2.194-9.647,21.128-3.279,7.851,6.492" transform="translate(-3171.344 -218.681)"/><path class="aa" d="M3232.058,307.8c4.893-11.79,21.421-4.438,11.827,6.271" transform="translate(-3154.311 -217.857)"/><path class="ab" d="M3259.222,366.761l7.67,61.684L3386.83,426.3l-6.416-54.418Z" transform="translate(-3166.825 -247.795)"/><circle cx="2.663" cy="2.663" r="2.663" transform="translate(86.814 93.021)"/><circle cx="2.663" cy="2.663" r="2.663" transform="translate(103.042 93.946)"/><circle cx="2.663" cy="2.663" r="2.663" transform="translate(118.046 95.453)"/><circle cx="2.663" cy="2.663" r="2.663" transform="translate(118.046 95.453)"/><circle cx="2.663" cy="2.663" r="2.663" transform="translate(131.34 96.501)"/><circle cx="2.663" cy="2.663" r="2.663" transform="translate(146.263 97.767)"/><circle cx="2.663" cy="2.663" r="2.663" transform="translate(162.754 98.958)"/><circle cx="2.663" cy="2.663" r="2.663" transform="translate(176.92 100.92)"/><circle cx="2.663" cy="2.663" r="2.663" transform="translate(193.914 101.68)"/><circle cx="2.663" cy="2.663" r="2.663" transform="translate(207.774 103.6)"/><path class="o" d="M3591.6,238.04q3.142-.923,6.2-2.111c16.939-6.616,20.262-37.953,21.09-54.965-31.947,15.2-68.493,13.471-101.9,1.828a95.534,95.534,0,0,1-24.871,59.947c2.854-3.105,25.479.312,30.228.115,7.871-.327,15.541-.6,23.517-.511C3560.972,242.513,3576.929,242.349,3591.6,238.04Z" transform="translate(-3274.115 -162.204)"/><path class="o" d="M3588.343,682.583q-1.689.286-3.352.715c-9.209,2.392-12.869,18.47-14.348,27.258,17.536-5.928,36.418-2.775,53.059,5.334a49.989,49.989,0,0,1,16.619-29.613c-1.674,1.437-13.219-1.733-15.7-1.924-4.11-.315-8.112-.646-12.25-1.185C3604.535,682.147,3596.234,681.248,3588.343,682.583Z" transform="translate(-3310.287 -392.976)"/><path class="o" d="M3548.969,553.73q1.449.684,2.954,1.244c8.344,3.087,19.744-7.292,25.577-13.243-16.623-4.825-29.424-17.337-37.856-32.453a46.736,46.736,0,0,1-28.579,13.836c2.053-.208,9.215,8.4,11.016,9.867,2.985,2.439,5.878,4.832,8.765,7.457C3536.313,545.409,3542.2,550.536,3548.969,553.73Z" transform="translate(-3282.841 -313.448)"/><path class="n" d="M3442.168,646.089c.392-9.632-7.518-18.043-16.57-21.358s-19.017-2.644-28.619-1.787c-7.494.67-15.063,1.444-22.17,3.915,3.47-1.206,10.116,4.875,12.054,7.134a22.281,22.281,0,0,1,3.776,6.2c.6,1.486.664,5.768,1.7,6.7,2.22,1.987,10.809-3.34,13.505-4.1A51.588,51.588,0,0,1,3423,640.967,49.324,49.324,0,0,1,3442.168,646.089Z" transform="translate(-3220.072 -365.489)"/><line class="x" x2="9.928" y2="101.41" transform="translate(81.731 91.691)"/><path class="ac" d="M3275.245,373.673l105.951,4.236,1.726,10.7-105.675-2.32Z" transform="translate(-3174.206 -250.98)"/><g transform="translate(106.798 146.515)"><line class="ad" x2="103.62" y2="1.109" transform="translate(0 0)"/><line class="ad" x2="103.62" y2="1.109" transform="translate(2.663 12.044)"/><line class="ad" x2="103.62" y2="1.109" transform="translate(2.663 25.301)"/></g><path class="ac" d="M3444.5,407.318l15.988.129,1.727,10.7-16.723-.025Z" transform="translate(-3252.178 -266.479)"/><path class="ac" d="M3397.366,430.445l15.988.129,1.006,10.695-16-.024Z" transform="translate(-3230.464 -277.132)"/><path class="ac" d="M3343.341,407.579l15.989.129,1.006,10.695-16-.024Z" transform="translate(-3205.576 -266.599)"/><path class="ac" d="M3292.618,454l15.989.129,1.006,10.695-16-.024Z" transform="translate(-3182.209 -287.983)"/><path class="t" d="M3902.456,577.983c3.366-.263,6.8-1.666,8.744-4.429a2.862,2.862,0,0,0,.638-1.7c-.043-1.155-1.2-1.956-1.552-3.057-.182-.569-.139-1.193-.335-1.757a2.765,2.765,0,0,0-1.121-1.361c-2.03-1.34-4.729-.417-6.967.537l-3.338,1.423c-2.032.866-4.154,1.8-5.511,3.543C3887.95,577.691,3898.605,578.284,3902.456,577.983Z" transform="translate(-3458.177 -339.123)"/><g transform="translate(0 21.438)"><path class="ae" d="M3101.811,192.069a25.758,25.758,0,0,1,1.606,6.244c.446,3.122-1.071,5.887-1.16,8.919a6.475,6.475,0,0,0,8.562,6.511c3.568-1.338,6.957-4.906,10.792-3.389,2.408.981,4.995,3.478,7.67,1.249a26.5,26.5,0,0,0,3.225-3.052,20.939,20.939,0,0,0,.158-2.57c0-11.074-8.686-20.051-19.4-20.051a18.947,18.947,0,0,0-12.425,4.652A4.223,4.223,0,0,1,3101.811,192.069Z" transform="translate(-3093.862 -185.93)"/><path class="af" d="M3123.324,215.576c-2.676,2.23-5.262-.268-7.67-1.249-3.836-1.517-7.225,2.051-10.792,3.389a6.475,6.475,0,0,1-8.562-6.511c.089-3.032,1.606-5.8,1.16-8.919a25.759,25.759,0,0,0-1.606-6.244,4.214,4.214,0,0,0-.973-1.487,20.278,20.278,0,0,0-6.976,15.4c0,11.074,8.686,20.051,19.4,20.051a19.637,19.637,0,0,0,19.244-17.481A26.493,26.493,0,0,1,3123.324,215.576Z" transform="translate(-3087.903 -189.904)"/></g><g transform="translate(518.173 158.144)"><path class="ag" d="M4056.5,442.857a14.5,14.5,0,0,1,.9,3.512c.25,1.756-.6,3.311-.653,5.017a3.643,3.643,0,0,0,4.816,3.663c2.007-.753,3.914-2.76,6.071-1.907,1.354.552,2.81,1.957,4.315.7a14.9,14.9,0,0,0,1.814-1.716,11.676,11.676,0,0,0,.089-1.446,11.1,11.1,0,0,0-10.915-11.28,10.657,10.657,0,0,0-6.989,2.617A2.377,2.377,0,0,1,4056.5,442.857Z" transform="translate(-4052.028 -439.403)"/><path class="ah" d="M4068.6,456.08c-1.5,1.254-2.96-.15-4.315-.7-2.158-.853-4.064,1.154-6.071,1.907a3.643,3.643,0,0,1-4.817-3.663c.05-1.706.9-3.261.653-5.017a14.5,14.5,0,0,0-.9-3.512,2.378,2.378,0,0,0-.547-.837,11.408,11.408,0,0,0-3.924,8.663,10.9,10.9,0,0,0,21.739,1.446A14.9,14.9,0,0,1,4068.6,456.08Z" transform="translate(-4048.675 -441.638)"/></g><path class="ad" d="M3668.407,303.288c-13.62-5.711-30.18-1.695-41.22,8.117s-16.885,24.584-17.905,39.319c-.278,4.015-.194,8.2,1.541,11.836s5.5,6.552,9.5,6.185,7.378-4.96,5.667-8.6c-1.2-2.556-4.341-3.767-7.145-3.437a15.189,15.189,0,0,0-7.505,3.679c-12.534,10.119-17.608,28.524-12.033,43.637" transform="translate(-3322.456 -217.346)"/></g></g></svg>