<svg xmlns="http://www.w3.org/2000/svg" xmlns:xlink="http://www.w3.org/1999/xlink" width="545.967" height="472.579" viewBox="0 0 545.967 472.579"><defs><style>.a,.l,.n,.o{fill:none;}.b{fill:url(#a);}.c{fill:url(#b);}.d{opacity:0.49;mix-blend-mode:overlay;isolation:isolate;}.e{fill:#fff;}.f{fill:url(#c);}.g{fill:#100052;stroke-width:0.577px;}.g,.h{stroke:#100052;}.g,.h,.j,.l,.n,.o{stroke-miterlimit:10;}.h{fill:#f9c3a5;stroke-width:0.505px;}.i{clip-path:url(#e);}.j,.k{fill:#ea665b;}.j{stroke:#231f20;stroke-width:0.635px;}.l,.n{stroke:#474747;}.l{stroke-width:0.25px;}.m{fill:#feca84;}.n{stroke-width:0.5px;}.o{stroke:#bbdbf9;stroke-width:0.635px;}</style><linearGradient id="a" x1="0.277" y1="0.432" x2="-0.607" y2="0.041" gradientUnits="objectBoundingBox"><stop offset="0" stop-color="#2a7195"/><stop offset="1" stop-color="#99cbcf"/></linearGradient><linearGradient id="b" x1="0.665" y1="0.914" x2="0.392" y2="0.397" xlink:href="#a"/><linearGradient id="c" y1="0.5" x2="1" y2="0.5" gradientUnits="objectBoundingBox"><stop offset="0" stop-color="#2a7195"/><stop offset="1" stop-color="#060c39"/></linearGradient><clipPath id="e"><path class="a" d="M817.206,194.038C677.7,118.914,594.244,328.443,629.975,482.746c28.486,86.218,85.124,147.135,215.816,141.5,56.641-14.5,104.661-45.257,131.747-115.492a141.586,141.586,0,0,0-37.761-156.442q-.69-.618-1.39-1.238a233.235,233.235,0,0,1-33.638-37.11Z" transform="translate(-621.715 -178.277)"/></clipPath></defs><g transform="translate(-367.61 -132.005)"><path class="b" d="M715.536,552.577c24.371-109.671,111.9-178.442,208.915-217.71a238.84,238.84,0,0,1-17.146-20.907L819.762,194.038C680.254,118.914,596.8,328.443,632.531,482.746c15.662,47.4,39.84,87.154,80.151,112.4A138.736,138.736,0,0,1,715.536,552.577Z" transform="translate(-111.042 -20.019)"/><path class="c" d="M1009.341,471.715q-.69-.618-1.39-1.238a227.149,227.149,0,0,1-16.492-16.2c-97.013,39.269-184.544,108.04-208.915,217.71a138.734,138.734,0,0,0-2.854,42.573c33.007,20.675,76.829,31.63,135.665,29.091,56.64-14.5,104.661-45.257,131.747-115.492A141.586,141.586,0,0,0,1009.341,471.715Z" transform="translate(-178.049 -139.427)"/><g class="d" transform="translate(367.61 189.838)"><path class="e" d="M397.709,439.269a1.73,1.73,0,0,1-3.392.243c-.056-.778-.241-27.077-.241-27.077S397.653,438.491,397.709,439.269Z" transform="translate(-379.06 -311.164)"/><path class="e" d="M382.2,339.3c-.124,2.16-.733,12.831-.683,13.531a1.73,1.73,0,0,0,3.393-.245c-.051-.7-2.2-11.283-2.618-13.328Z" transform="translate(-373.626 -279.503)"/><path class="e" d="M371.006,403.044a1.73,1.73,0,0,1-3.393.244c-.056-.778.705-13.916.705-13.916S370.949,402.266,371.006,403.044Z" transform="translate(-367.61 -301.186)"/><path class="e" d="M379.469,492.055a1.729,1.729,0,0,1-3.392.244c-.056-.778.705-13.917.705-13.917S379.413,491.276,379.469,492.055Z" transform="translate(-371.272 -339.695)"/><path class="e" d="M411.715,550.545a1.73,1.73,0,0,1-3.392.244c-.057-.78-2.121-53.242-2.121-53.242S411.659,549.766,411.715,550.545Z" transform="translate(-384.306 -347.987)"/><path class="e" d="M431.881,316.213c0,.052,0,.1.006.119.091,1.256.923,2.22,1.86,2.153a2.054,2.054,0,0,0,1.533-2.4c-.008-.116-.056-.584-.137-1.336Z" transform="translate(-395.416 -268.902)"/><path class="e" d="M430.085,367.715a1.73,1.73,0,0,1-3.393.243c-.056-.778-.24-27.077-.24-27.077S430.029,366.937,430.085,367.715Z" transform="translate(-393.067 -280.207)"/><path class="e" d="M447.956,532.768a1.73,1.73,0,0,1-3.393.244c-.056-.779-.241-27.077-.241-27.077S447.9,531.99,447.956,532.768Z" transform="translate(-400.799 -351.616)"/><path class="e" d="M435.158,445.821a1.73,1.73,0,0,1-3.393.244c-.056-.778.705-13.916.705-13.916S435.1,445.042,435.158,445.821Z" transform="translate(-395.365 -319.693)"/><path class="e" d="M487.732,345.159a1.73,1.73,0,0,1-3.393.244c-.056-.779-.241-27.078-.241-27.078S487.676,344.38,487.732,345.159Z" transform="translate(-418.008 -270.448)"/><path class="e" d="M518.464,355.469a1.73,1.73,0,0,1-3.393.244c-.055-.778.705-13.916.705-13.916S518.407,354.691,518.464,355.469Z" transform="translate(-431.406 -280.603)"/><path class="e" d="M471.73,446.845a1.73,1.73,0,0,1-3.393.244c-.056-.778.7-13.917.7-13.917S471.673,446.066,471.73,446.845Z" transform="translate(-411.187 -320.135)"/><path class="e" d="M469.493,397.945a1.73,1.73,0,0,1-3.393.243c-.056-.778.705-13.916.705-13.916S469.436,397.166,469.493,397.945Z" transform="translate(-410.219 -298.979)"/><path class="e" d="M501.063,538.195a1.729,1.729,0,0,1-3.392.243c-.056-.778.7-13.916.7-13.916S501.008,537.416,501.063,538.195Z" transform="translate(-423.879 -359.657)"/><path class="e" d="M501.738,456.434a1.729,1.729,0,0,1-3.392.244c-.057-.779-2.121-53.241-2.121-53.241S501.682,455.655,501.738,456.434Z" transform="translate(-423.254 -307.271)"/><path class="e" d="M543.956,383.352a1.73,1.73,0,0,1-3.392.243c-.056-.778-.241-27.077-.241-27.077S543.9,382.573,543.956,383.352Z" transform="translate(-442.333 -286.972)"/><path class="e" d="M531.159,296.4a1.73,1.73,0,0,1-3.392.243c-.057-.778.7-13.916.7-13.916S531.1,295.626,531.159,296.4Z" transform="translate(-436.899 -255.049)"/><path class="e" d="M525.717,436.138a1.73,1.73,0,0,1-3.392.243c-.056-.778.7-13.916.7-13.916S525.661,435.359,525.717,436.138Z" transform="translate(-434.545 -315.503)"/><path class="e" d="M557.963,494.627a1.73,1.73,0,0,1-3.392.245c-.056-.78-2.121-53.242-2.121-53.242S557.907,493.848,557.963,494.627Z" transform="translate(-447.579 -323.795)"/><path class="e" d="M576.187,307.734a2.055,2.055,0,0,1-1.534,2.4c-.937.068-1.769-.9-1.859-2.153s-1.427-43.584-1.427-43.584S576.1,306.478,576.187,307.734Z" transform="translate(-455.764 -247.115)"/><path class="e" d="M572.075,391.392a1.73,1.73,0,0,1-3.393.244c-.056-.779-.241-27.078-.241-27.078S572.018,390.613,572.075,391.392Z" transform="translate(-454.498 -290.45)"/><path class="e" d="M594.825,518.656a1.73,1.73,0,0,1-3.393.243c-.056-.778-.241-27.077-.241-27.077S594.769,517.877,594.825,518.656Z" transform="translate(-464.341 -345.51)"/><path class="e" d="M577.147,469.5a1.73,1.73,0,0,1-3.393.243c-.056-.778.705-13.916.705-13.916S577.091,468.72,577.147,469.5Z" transform="translate(-456.795 -329.936)"/><path class="e" d="M629.517,355.382a1.73,1.73,0,0,1-3.392.243c-.056-.778-.241-27.077-.241-27.077S629.461,354.6,629.517,355.382Z" transform="translate(-479.35 -274.871)"/><path class="e" d="M616.719,268.434a1.73,1.73,0,0,1-3.393.244c-.056-.778.706-13.917.706-13.917S616.663,267.655,616.719,268.434Z" transform="translate(-473.915 -242.947)"/><path class="e" d="M611.278,408.168a1.73,1.73,0,0,1-3.393.244c-.056-.778.705-13.917.705-13.917S611.221,407.389,611.278,408.168Z" transform="translate(-471.561 -303.402)"/><path class="e" d="M632.258,541.038a1.73,1.73,0,0,1-3.393.244c-.055-.779-.508-27.089-.508-27.089S632.2,540.26,632.258,541.038Z" transform="translate(-480.42 -355.188)"/><path class="e" d="M643.524,466.657a1.73,1.73,0,0,1-3.392.244c-.057-.779-2.121-53.242-2.121-53.242S643.467,465.878,643.524,466.657Z" transform="translate(-484.596 -311.693)"/><path class="e" d="M660.848,316.591a1.73,1.73,0,0,1-3.393.244c-.056-.778-.24-27.077-.24-27.077S660.793,315.813,660.848,316.591Z" transform="translate(-492.905 -258.089)"/><path class="e" d="M696.933,295.376a1.73,1.73,0,0,1-3.393.245c-.056-.779-.241-27.077-.241-27.077S696.878,294.6,696.933,295.376Z" transform="translate(-508.517 -248.91)"/><path class="e" d="M678.719,481.644a1.73,1.73,0,0,1-3.392.244c-.056-.778-.241-27.078-.241-27.078S678.663,480.866,678.719,481.644Z" transform="translate(-500.637 -329.497)"/><path class="e" d="M665.921,394.7a1.73,1.73,0,0,1-3.393.244c-.056-.778.705-13.916.705-13.916S665.865,393.919,665.921,394.7Z" transform="translate(-495.202 -297.574)"/><path class="e" d="M700.089,517.317a1.73,1.73,0,0,1-3.392.244c-.056-.778.7-13.917.7-13.917S700.033,516.538,700.089,517.317Z" transform="translate(-509.985 -350.624)"/><path class="e" d="M692.725,592.92a1.73,1.73,0,0,1-3.392.243c-.056-.779-2.121-53.242-2.121-53.242S692.669,592.141,692.725,592.92Z" transform="translate(-505.883 -366.32)"/><path class="e" d="M725.774,335a1.73,1.73,0,0,1-3.393.244c-.055-.778-.241-27.078-.241-27.078S725.717,334.218,725.774,335Z" transform="translate(-520.994 -266.051)"/><path class="e" d="M712.975,248.049a1.73,1.73,0,0,1-3.393.244c-.055-.779.706-13.916.706-13.916S712.92,247.271,712.975,248.049Z" transform="translate(-515.56 -234.129)"/><path class="e" d="M707.534,387.782a1.73,1.73,0,0,1-3.393.244c-.056-.778.705-13.917.705-13.917S707.477,387,707.534,387.782Z" transform="translate(-513.206 -294.582)"/><path class="e" d="M739.781,446.272a1.73,1.73,0,0,1-3.393.244c-.056-.779-2.121-53.242-2.121-53.242S739.725,445.493,739.781,446.272Z" transform="translate(-526.241 -302.874)"/><path class="e" d="M778.325,519.571a1.73,1.73,0,0,1-3.393.244c-.056-.778-2.121-53.242-2.121-53.242S778.268,518.792,778.325,519.571Z" transform="translate(-542.917 -334.586)"/><path class="e" d="M771.532,324.54a1.729,1.729,0,0,1-3.392.243c-.056-.778.705-13.916.705-13.916S771.476,323.762,771.532,324.54Z" transform="translate(-540.894 -267.222)"/><path class="e" d="M765.628,396.921a1.73,1.73,0,0,1-3.393.244c-.056-.778.705-13.916.705-13.916S765.571,396.143,765.628,396.921Z" transform="translate(-538.34 -298.537)"/><path class="e" d="M839.613,335.169a1.73,1.73,0,0,1-3.393.243c-.055-.78-.241-27.078-.241-27.078S839.558,334.39,839.613,335.169Z" transform="translate(-570.246 -266.126)"/><path class="e" d="M817.875,478.918a1.73,1.73,0,0,1-3.393.243c-.056-.779-.24-27.077-.24-27.077S817.82,478.139,817.875,478.918Z" transform="translate(-560.841 -328.318)"/><path class="e" d="M826.815,248.222a1.729,1.729,0,0,1-3.391.243c-.057-.779.7-13.916.7-13.916S826.761,247.443,826.815,248.222Z" transform="translate(-564.813 -234.203)"/><path class="e" d="M821.373,387.955a1.73,1.73,0,0,1-3.393.244c-.056-.778.705-13.917.705-13.917S821.318,387.176,821.373,387.955Z" transform="translate(-562.457 -294.657)"/><path class="e" d="M895.1,400.567a1.73,1.73,0,0,1-3.392.243c-.057-.778-.241-27.078-.241-27.078S895.045,399.788,895.1,400.567Z" transform="translate(-594.252 -294.42)"/><path class="e" d="M881.124,327.96a1.73,1.73,0,0,1-3.392.243c-.057-.778.7-13.916.7-13.916S881.068,327.182,881.124,327.96Z" transform="translate(-588.308 -268.701)"/><path class="e" d="M869.809,379.117a1.731,1.731,0,0,1-3.395.244c-.055-.778-.242-27.165-.242-27.165S869.752,378.339,869.809,379.117Z" transform="translate(-583.309 -285.102)"/><path class="e" d="M891,540.45a1.731,1.731,0,0,1-3.395.245c-.054-.779-.242-27.165-.242-27.165S890.944,539.672,891,540.45Z" transform="translate(-592.477 -354.901)"/><path class="e" d="M790.259,423.784a1.731,1.731,0,0,1-3.394.244c-.055-.779-.242-27.165-.242-27.165S790.2,423.006,790.259,423.784Z" transform="translate(-548.892 -304.427)"/><path class="e" d="M946.891,372.959a1.731,1.731,0,0,1-3.394.245c-.056-.778-.241-27.078-.241-27.078S946.834,372.181,946.891,372.959Z" transform="translate(-616.658 -282.476)"/><path class="e" d="M934.092,286.013a1.731,1.731,0,0,1-3.394.245c-.054-.778.705-13.916.705-13.916S934.036,285.235,934.092,286.013Z" transform="translate(-611.224 -250.553)"/><path class="e" d="M928.65,425.746a1.73,1.73,0,0,1-3.393.244c-.056-.778.705-13.917.705-13.917S928.593,424.968,928.65,425.746Z" transform="translate(-608.87 -311.007)"/><path class="e" d="M803.627,300.643a1.729,1.729,0,0,1-3.392.244c-.057-.778.705-13.916.705-13.916S803.571,299.865,803.627,300.643Z" transform="translate(-554.78 -256.883)"/><path class="e" d="M964.98,270.789a1.729,1.729,0,0,1-3.392.244c-.056-.778.705-13.916.705-13.916S964.926,270.011,964.98,270.789Z" transform="translate(-624.588 -243.967)"/><path class="e" d="M996.552,411.039a1.73,1.73,0,0,1-3.392.244c-.055-.779.705-13.916.705-13.916S996.5,410.261,996.552,411.039Z" transform="translate(-638.247 -304.645)"/><path class="e" d="M997.227,329.279a1.73,1.73,0,0,1-3.392.244c-.057-.779-2.122-53.242-2.122-53.242S997.172,328.5,997.227,329.279Z" transform="translate(-637.622 -252.258)"/><path class="e" d="M916.453,358.31a1.729,1.729,0,0,1-3.391.243c-.057-.778-2.121-53.241-2.121-53.241S916.4,357.531,916.453,358.31Z" transform="translate(-602.677 -264.818)"/><path class="e" d="M854.927,471.476a1.729,1.729,0,0,1-3.391.243c-.056-.778-2.121-53.241-2.121-53.241S854.872,470.7,854.927,471.476Z" transform="translate(-576.059 -313.778)"/><path class="e" d="M1036.488,535.471a1.731,1.731,0,0,1-3.394.244c-.056-.78-2.118-53.242-2.118-53.242S1036.433,534.691,1036.488,535.471Z" transform="translate(-654.609 -341.465)"/><path class="e" d="M976.408,457.59a1.731,1.731,0,0,1-3.394.244c-.056-.78-2.118-53.242-2.118-53.242S976.353,456.809,976.408,457.59Z" transform="translate(-628.616 -307.771)"/><path class="e" d="M922.822,552.654a1.731,1.731,0,0,1-3.394.243c-.056-.78-2.118-53.242-2.118-53.242S922.767,551.874,922.822,552.654Z" transform="translate(-605.433 -348.899)"/><path class="e" d="M1041.743,348.45a1.73,1.73,0,0,1-3.392.244c-.057-.778.7-13.917.7-13.917S1041.686,347.671,1041.743,348.45Z" transform="translate(-657.799 -277.566)"/><path class="e" d="M1053.29,475.252a1.73,1.73,0,0,1-3.392.244c-.056-.78.7-13.917.7-13.917S1053.234,474.472,1053.29,475.252Z" transform="translate(-662.794 -332.425)"/><path class="e" d="M963.651,510.31a1.73,1.73,0,0,1-3.392.244c-.056-.78.7-13.917.7-13.917S963.6,509.53,963.651,510.31Z" transform="translate(-624.013 -347.593)"/><path class="e" d="M1070.56,551.774a1.729,1.729,0,0,1-3.392.244c-.056-.778-.976-37.333-.976-37.333S1070.505,551,1070.56,551.774Z" transform="translate(-669.845 -355.401)"/><path class="e" d="M1081.678,472.882a1.731,1.731,0,0,1-3.395.243c-.057-.779-2.119-53.24-2.119-53.24S1081.623,472.1,1081.678,472.882Z" transform="translate(-674.159 -314.387)"/><path class="e" d="M1096.55,260.773a1.73,1.73,0,0,1-3.392.244c-.057-.778-.24-27.078-.24-27.078S1096.495,259.994,1096.55,260.773Z" transform="translate(-681.407 -233.939)"/><path class="e" d="M1114.42,425.826a1.73,1.73,0,0,1-3.392.244c-.055-.779-.241-27.078-.241-27.078S1114.364,425.048,1114.42,425.826Z" transform="translate(-689.139 -305.348)"/><path class="e" d="M1041.632,425.88a1.73,1.73,0,0,1-3.392.244c-.055-.779-.24-27.078-.24-27.078S1041.576,425.1,1041.632,425.88Z" transform="translate(-657.648 -305.371)"/><path class="e" d="M1101.621,338.879a1.73,1.73,0,0,1-3.392.244c-.055-.778.705-13.916.705-13.916S1101.567,338.1,1101.621,338.879Z" transform="translate(-683.704 -273.425)"/><path class="e" d="M1096.181,478.612a1.73,1.73,0,0,1-3.393.244c-.056-.778.705-13.917.705-13.917S1096.124,477.834,1096.181,478.612Z" transform="translate(-681.35 -333.879)"/><path class="e" d="M1128.427,537.1a1.73,1.73,0,0,1-3.392.244c-.057-.778-2.121-53.24-2.121-53.24S1128.371,536.323,1128.427,537.1Z" transform="translate(-694.385 -342.171)"/><path class="e" d="M1153.383,297.153a1.729,1.729,0,0,1-3.392.243c-.057-.778-.241-27.077-.241-27.077S1153.327,296.375,1153.383,297.153Z" transform="translate(-705.996 -249.678)"/><path class="e" d="M1135.141,349.94a1.73,1.73,0,0,1-3.393.243c-.056-.778.705-13.916.705-13.916S1135.086,349.161,1135.141,349.94Z" transform="translate(-698.206 -278.21)"/><path class="e" d="M1166.712,490.189a1.73,1.73,0,0,1-3.392.244c-.055-.779.705-13.916.705-13.916S1166.656,489.411,1166.712,490.189Z" transform="translate(-711.865 -338.888)"/><path class="e" d="M1167.388,408.43a1.73,1.73,0,0,1-3.392.243c-.057-.778-2.121-53.241-2.121-53.241S1167.331,407.651,1167.388,408.43Z" transform="translate(-711.241 -286.502)"/><path class="e" d="M1193.475,480.088a1.73,1.73,0,0,1-3.392.244c-.056-.778-2.121-53.241-2.121-53.241S1193.42,479.309,1193.475,480.088Z" transform="translate(-722.527 -317.504)"/><path class="e" d="M1181.941,274.23a1.73,1.73,0,0,1-3.392.244c-.057-.778.705-13.916.705-13.916S1181.885,273.452,1181.941,274.23Z" transform="translate(-718.454 -245.455)"/><path class="e" d="M1213.513,414.48a1.73,1.73,0,0,1-3.392.244c-.055-.779.7-13.916.7-13.916S1213.458,413.7,1213.513,414.48Z" transform="translate(-732.113 -306.133)"/><path class="e" d="M1225.062,541.281a1.731,1.731,0,0,1-3.394.245c-.056-.78.705-13.916.705-13.916S1225.005,540.5,1225.062,541.281Z" transform="translate(-737.109 -360.993)"/><path class="e" d="M1214.189,332.719a1.73,1.73,0,0,1-3.392.243c-.055-.779-2.12-53.242-2.12-53.242S1214.133,331.941,1214.189,332.719Z" transform="translate(-731.49 -253.746)"/><path class="e" d="M1253.449,538.912a1.73,1.73,0,0,1-3.393.243c-.057-.78-2.12-53.241-2.12-53.241S1253.395,538.133,1253.449,538.912Z" transform="translate(-748.475 -342.954)"/><path class="e" d="M1239.832,346.556a1.729,1.729,0,0,1-3.392.243c-.057-.778.7-13.917.7-13.917S1239.776,345.778,1239.832,346.556Z" transform="translate(-743.5 -276.746)"/><path class="e" d="M1271.4,486.807a1.729,1.729,0,0,1-3.392.243c-.057-.778.705-13.916.705-13.916S1271.348,486.029,1271.4,486.807Z" transform="translate(-757.159 -337.425)"/><path class="e" d="M1239.7,448.759a1.73,1.73,0,0,1-3.393.243c-.056-.777.705-13.915.705-13.915S1239.639,447.981,1239.7,448.759Z" transform="translate(-743.441 -320.964)"/><path class="e" d="M1266.808,358.217c.463,11.747,1.937,49.085,1.982,49.742a1.731,1.731,0,0,0,3.394-.245c-.048-.644-3.785-36.449-5.079-48.833Z" transform="translate(-756.64 -287.707)"/><path class="e" d="M1307.754,595.639a1.731,1.731,0,0,1-3.394.244c-.057-.78-2.12-53.242-2.12-53.242S1307.7,594.859,1307.754,595.639Z" transform="translate(-771.969 -367.496)"/><path class="e" d="M1325.694,567.975a1.731,1.731,0,0,1-3.395.244c-.057-.779-2.12-53.242-2.12-53.242S1325.639,567.2,1325.694,567.975Z" transform="translate(-779.731 -355.528)"/><path class="e" d="M1305.04,538.241a1.73,1.73,0,0,1-3.393.244c-.055-.779.705-13.916.705-13.916S1304.985,537.463,1305.04,538.241Z" transform="translate(-771.711 -359.677)"/><path class="e" d="M1301.471,435.665c.6,15.226,1.368,34.514,1.4,34.983a1.73,1.73,0,0,0,3.393-.244c-.032-.434-1.739-16.84-3.247-31.284Z" transform="translate(-771.636 -321.214)"/></g><g transform="translate(544.637 132.005)"><path class="f" d="M822.049,133.229c13.5,2.753,26.312,12.454,29.208,25.925,19.888-.511,37.5,19.969,34.018,39.556,8.715.249,17.883,2.936,23.479,9.62s6.04,17.977-.715,23.488c-2.385,1.945-5.417,3.054-7.558,5.264-1.882,1.944-2.889,4.544-4.065,6.981a47.076,47.076,0,0,1-68.337,18.824,54.556,54.556,0,0,1-79.8-7.613c-11.395,7.423-26.862,3.927-38.6-2.941-3.93-2.3-7.842-5.16-9.628-9.348s-.55-9.946,3.632-11.747a39.352,39.352,0,0,1-19.834-15.923c-3.859-6.125-5.895-14.172-2.507-20.57,2.835-5.355,8.919-8.361,14.938-9.063s12.075.548,18.005,1.791c-9.833-2.061,8.082-21.418,10.836-22.843,9.121-4.719,18.921-4.366,27.676-10.427C772.9,140.287,796.486,128.016,822.049,133.229Z" transform="translate(-679.629 -132.005)"/><path class="f" d="M917.488,243.9c.078-.443.142-.886.2-1.329-13.193-4.7-26.784-6.027-40.233,1.357-9.742,5.845-15.587,18.51-8.281,30.2-.487-.974-2.436-1.462-2.436-1.948-13.151-17.536-28.252-36.045-50.658-34.1-17.049,1.461-27.277,18.023-33.123,33.61-1.948,5.358-.487,12.177-.487,18.51-.487-3.409-3.41-5.358-6.332-7.306V281.43a11.868,11.868,0,0,0-5.846,0c-1.948.974-3.9.974-5.845,1.948a9.465,9.465,0,0,0-5.358,4.384c-3.176,4.5-5.2,9.43-7.328,14.324,9.706,3.379,20.327,3.849,28.733-1.627a54.556,54.556,0,0,0,79.8,7.614,47.076,47.076,0,0,0,68.337-18.824c1.176-2.437,2.182-5.037,4.066-6.981,2.141-2.21,5.173-3.318,7.557-5.264,6.729-5.489,6.315-16.712.781-23.406a194.609,194.609,0,0,0-18.923-9.331A45.274,45.274,0,0,0,917.488,243.9Z" transform="translate(-710.837 -177.835)"/></g><path class="g" d="M1009.173,584.412c-.625,5.553.267,11.323-1.425,16.648a18.088,18.088,0,0,1-11.019,11.389,18.421,18.421,0,0,1-11.3.174c-4.738-1.363-6.4.443-11.065,1.813-6.451,1.892-14.132,1.617-19.028-2.991-3.892-3.662-5.262-9.456-4.531-14.75s3.313-10.163,6.343-14.565a73.44,73.44,0,0,1,37.6-27.717,71.7,71.7,0,0,1,23.738-3.569c2.414.053,7.406-.852,9.414.7,2.67,2.066-4.238,6.83-6.159,8.929-6.089,6.651-11.429,14.526-12.54,23.683C1009.192,584.242,1009.183,584.327,1009.173,584.412Z" transform="translate(-252.232 -181.114)"/><path class="g" d="M848.757,560.577c1.714-24.175,5.684-48.533,14.285-71.279a152.521,152.521,0,0,1,7.441-16.689c11.858-22.7,32.169-43.909,57.873-50.1a63.8,63.8,0,0,1,12.364-1.635,80.767,80.767,0,0,1,14.347.7,65.2,65.2,0,0,1,23.976,7.968c8.409,4.918,15.084,11.856,18.735,20.855,4,9.86,1.654,19.665-.379,29.6-2.309,11.289-6.715,16.606-11.911,19.673l-136.731,60.9" transform="translate(-208.164 -124.95)"/><g transform="translate(753.864 367.871)"><path class="h" d="M1052.371,606.118a2.1,2.1,0,0,1-1.112-.879,11.807,11.807,0,0,1-1.823-4.432c-1.227-4.881-1.539-10.174.052-15.011a36.752,36.752,0,0,1,3.563-6.694l9.731-16.7,8.543-14.665,6.493,19.1-9.29,33.587-8.868,3.261c-1.874.689-3.741,1.395-5.62,2.067A3.324,3.324,0,0,1,1052.371,606.118Z" transform="translate(-1048.404 -547.732)"/><path class="h" d="M1083.419,561.672l1.191,8.814-6.193,13.816" transform="translate(-1061.389 -553.763)"/></g><g transform="translate(689.252 336.238)"><path class="h" d="M943.644,504.572v52.882l7.146,30.014c7.164,3.933,11.919,4.831,15.007,3.629,10.026,11.444,15.174,12.956,11.434-3.629-8.942-3.389-10.455-8.653-4.819-15.721Z" transform="translate(-938.468 -497.426)"/><path class="h" d="M955.016,549.861c5.741,12.992,14.508,21.307,30.417,18.58,18.9-2.868,30.964-19.233,37.16-47.165-7.478-6.687-7.339-17.411-5-29.3-21.742,23.809-44.429,27.333-67.889,14.292-.141-6.168-2.7-9.473-10-7.146-2.816.9-4.057,4-4.782,6.864a10.229,10.229,0,0,0-.145,5.01,6,6,0,0,0,2.965,3.915" transform="translate(-934.52 -491.976)"/></g><g transform="translate(511.778 158.258)"><g class="i" transform="translate(0 0)"><g transform="translate(102.576 262.305)"><path class="j" d="M1054.441,646.56l16.2-5.956c25.486,30.817,34.4,67.039,29.061,107.908-9.69,23.426-19.941,16.061-30.15,10.987C1058.917,716.551,1050.025,675.254,1054.441,646.56Z" transform="translate(-911.005 -640.604)"/><path class="k" d="M854,641.864c-43.25,6.456-54.145,48.985-50.976,107.193,1.35,24.56,10.658,41.363,38.589,40.019l5.717-9.052-9.846,55.794H980.015l-22.872-93.907c0-21.915,7.592-32.526-10.243-54.312l-.227-12.736a27.67,27.67,0,0,0-18.351-25.7,36.552,36.552,0,0,0-11.436-2.055c-.216,9.38-4.453,10.548-9.528,10Z" transform="translate(-802.511 -641.149)"/><path class="j" d="M844.909,709.04l-.884,2.132c-17.829,23.935-28.654,51.414-33.895,81.717,1.411,18.638,15.055,25,34.779,25.25,15.416-16.557,22.757-47.908,20.962-96Z" transform="translate(-805.807 -670.212)"/><path class="j" d="M1057.493,712.165c-1.435,8.54,5.38,16.047,7.987,24.305,1.815,5.748,1.56,11.917,1.287,17.94l-.673,14.846" transform="translate(-912.742 -671.564)"/></g><path class="l" d="M987.852,680.641a26.66,26.66,0,0,0,24.655,40.082c3.883-.241,7.98-1.526,10.3-4.649s1.908-8.357-1.548-10.143c-2.425-1.253-5.536-.445-7.583,1.359a14.728,14.728,0,0,0-3.979,7.031c-3.642,12.269.726,26.925,11.4,33.981s26.98,4.629,34.028-6.054a5.479,5.479,0,0,0,1.17-3.429c-.194-1.952-2.3-3.3-4.258-3.221a8.369,8.369,0,0,0-5.159,2.559c-6.849,6.367-7.911,17.666-3.287,25.794s14.073,12.914,23.423,13.024c3.459.041,7.267-.683,9.422-3.389s1.21-7.731-2.2-8.33c-4.247-.746-6.379,5.119-5.892,9.4,1.89,16.6,19.077,29.828,35.61,27.4" transform="translate(-778.579 -395.62)"/></g></g><g transform="translate(653.456 356.153)"><g transform="translate(16.418)"><path class="m" d="M924.92,554.168l6.188-3.015c7.271-3.542,9.98-13.105,4.819-19.332-2.854-3.444-7.3-5.181-13.866-4.649-16.792,6.007-23.1,20.675-21.439,41.923,2.685,21.64,11.076,38.633,24.3,51.692,15.867,4.6,23.313,3.032,28.769,0,9.821-14.292.165-26.6-13.047-19.953C929.433,588.907,924.875,572.937,924.92,554.168Z" transform="translate(-900.367 -527.077)"/></g><path class="h" d="M871.429,674.476l3.811-4.288c6.908-16.2,8.174-32.448,16.82-40.984a.088.088,0,0,1,.163,0c1.3,3.377,2.277,7.014,3.26,10.493,5.659-2.939,11.487-5.6,17.225-8.391a8.055,8.055,0,0,1,3.863-1.124,2,2,0,0,1,1.249.442,1.806,1.806,0,0,1,.239,2.091,15.368,15.368,0,0,1-1.741,2.26c-.457.6-1.034,1.13-1.542,1.683l-3.629,3.951-7.081,7.709-2.146,2.336c17.151-24.3,32.158-22.63,3.812,5.479,16.2-23.583,29.061-22.153,4.049,4.526,12.223-14.46,13.887-12.444,5.014,1.265a13.476,13.476,0,0,1-4.132,4.085l-9.7,6.084-10.957,15.484C881.747,686.128,875.109,682.388,871.429,674.476Z" transform="translate(-871.429 -571.238)"/><path class="h" d="M922.171,652.642c.778-.617,2.825-2.1,3.6-2.713a26.621,26.621,0,0,0,2.677-2.322c.72-.746,1.349-1.573,2.01-2.372a38.131,38.131,0,0,1,9.131-8,5.615,5.615,0,0,1,2.381-.986,2.123,2.123,0,0,1,2.17,1.1c.395.922-.151,1.956-.692,2.8a106.193,106.193,0,0,1-13.576,17.075c-.8.815-3.4,2.5-3.826,3.558" transform="translate(-893.382 -574.306)"/><path class="n" d="M927.031,532.445s21.244-4.351,19.35,17.574" transform="translate(-895.485 -529.248)"/><path class="n" d="M984.463,653.821s9.495,6.543,3.14,22.991" transform="translate(-920.332 -581.912)"/></g><path class="o" d="M940.538,383.05a61.61,61.61,0,0,0-.635,15.341" transform="translate(-247.504 -108.612)"/><path class="o" d="M1028.467,383.1a26.324,26.324,0,0,0,1.7,9.361" transform="translate(-285.914 -108.633)"/></g></svg>