<svg xmlns="http://www.w3.org/2000/svg" xmlns:xlink="http://www.w3.org/1999/xlink" width="609.126" height="464.742" viewBox="0 0 609.126 464.742"><defs><style>.a,.ac,.af,.w,.x{fill:none;}.b{fill:url(#a);}.c{fill:url(#b);}.d{clip-path:url(#c);}.e{fill:url(#d);}.f{fill:url(#e);}.g{opacity:0.3;mix-blend-mode:multiply;isolation:isolate;fill:url(#f);}.h{fill:url(#g);}.i{fill:url(#h);}.j{fill:url(#i);}.k{fill:url(#j);}.l{fill:url(#k);}.m{fill:url(#l);}.n{fill:url(#m);}.o{fill:url(#n);}.p{fill:url(#o);}.q{fill:url(#p);}.r{fill:url(#q);}.s{fill:#f1f6ff;}.aa,.ac,.ad,.ae,.af,.s,.z{stroke:#100052;}.aa,.ad,.ae,.s,.w,.z{stroke-miterlimit:10;}.s,.w{stroke-width:1.016px;}.t{fill:url(#r);}.u{fill:url(#s);}.v{fill:url(#t);}.w,.x{stroke:#707070;}.ac,.af,.x{stroke-linecap:round;stroke-linejoin:round;}.x{stroke-width:5.535px;}.y{fill:#1a2e35;}.ae,.z{fill:#100052;}.z{stroke-width:0.184px;}.aa,.ad{fill:#f9c3a5;}.aa{stroke-width:0.346px;}.ab{fill:#ea665b;}.ad{stroke-width:0.371px;}.ae{stroke-width:0.189px;}.af{stroke-width:1.072px;}</style><linearGradient id="a" x1="1.175" y1="1.067" x2="0.172" y2="0.277" gradientUnits="objectBoundingBox"><stop offset="0" stop-color="#6599b3"/><stop offset="1" stop-color="#45496b"/></linearGradient><linearGradient id="b" x1="0.484" y1="0.421" x2="0.096" y2="2.079" gradientUnits="objectBoundingBox"><stop offset="0" stop-color="#4fa5ad"/><stop offset="1" stop-color="#99cbcf"/></linearGradient><clipPath id="c"><path class="a" d="M877.472,207.424c46.306-8.49,96.73-9.966,133.165,6.7,113.4,51.876,135.737,215.852,63.9,310.346-26.42,34.753-63.665,59.556-101.445,81.428-22.518,13.036-45.587,25.32-70.007,34.305-76.21,28.041-161.146,22.253-239.98,2.77C548.673,614.693,573.663,476.991,612.584,397.8,652.606,316.377,719.47,257.752,805.7,226.7A463.17,463.17,0,0,1,877.472,207.424Z" transform="translate(-579.929 -201.238)"/></clipPath><linearGradient id="d" y1="0.5" x2="1" y2="0.5" gradientUnits="objectBoundingBox"><stop offset="0" stop-color="#faebd8"/><stop offset="1" stop-color="#ffb83f"/></linearGradient><linearGradient id="e" x1="2.081" y1="0.063" x2="1.153" y2="-0.598" xlink:href="#a"/><linearGradient id="f" x1="2.385" y1="-0.62" x2="2.144" y2="-0.917" gradientUnits="objectBoundingBox"><stop offset="0" stop-color="#311944"/><stop offset="1" stop-color="#893976"/></linearGradient><linearGradient id="g" x1="1.434" y1="-0.481" x2="1.07" y2="0.851" xlink:href="#b"/><linearGradient id="h" x1="1.762" y1="-0.526" x2="0.933" y2="-1.641" xlink:href="#a"/><linearGradient id="i" x1="1.646" y1="-1.624" x2="1.234" y2="0.653" xlink:href="#b"/><linearGradient id="j" x1="1.61" y1="-0.92" x2="0.84" y2="-2.423" xlink:href="#a"/><linearGradient id="k" x1="1.535" y1="-2.657" x2="1.151" y2="0.423" xlink:href="#b"/><linearGradient id="l" x1="1.522" y1="-1.881" x2="0.778" y2="-4.308" xlink:href="#a"/><linearGradient id="m" x1="1.423" y1="-5.138" x2="1.068" y2="-0.113" xlink:href="#b"/><linearGradient id="n" x1="1.528" y1="-2.03" x2="0.69" y2="-6.069" xlink:href="#a"/><linearGradient id="o" x1="1.291" y1="-7.754" x2="0.969" y2="-0.831" xlink:href="#b"/><linearGradient id="p" x1="0.538" y1="0.354" x2="0.334" y2="1.011" xlink:href="#d"/><linearGradient id="q" x1="0.487" y1="0.494" x2="0.359" y2="1.008" xlink:href="#d"/><linearGradient id="r" x1="0.601" y1="-2.947" x2="0.36" y2="5.088" xlink:href="#b"/><linearGradient id="s" x1="0.616" y1="-2.945" x2="0.373" y2="5.09" xlink:href="#b"/><linearGradient id="t" x1="2.459" y1="-4.332" x2="2.216" y2="2.916" xlink:href="#b"/></defs><g transform="translate(-493.596 -191.761)"><g transform="translate(989.145 191.761)"><g transform="translate(0)"><path class="b" d="M1293.19,312.3c2.426.033,4.1-3.829,3.128-7.212l-10.3-112.921-28.213,3.182c-2.362-.632-6.942,2.55-8.076,5.831l-39.262,113.4c-1.216,3.518.458,7.617,3.117,7.647l10.562-.374-11.219,241.821c24.237-21.98,50.039-37.534,70.1-65.289l3.773-186.175Z" transform="translate(-1210.061 -191.886)"/><path class="c" d="M1337.509,314.714l-34.154-119.727c-1.152-4.038-4.852-4.364-6.17-.53l-40.908,118.956c-1.2,3.5.451,7.576,3.082,7.607l6.864.081-4.529,223.511c13.574-16.061,26.141-33.4,38.968-51.185,4.455-15.22,11.473-29.566,16.954-44.379a146.795,146.795,0,0,0,8.852-47.949l1.606-79.276,6.336.075C1336.812,321.925,1338.469,318.08,1337.509,314.714Z" transform="translate(-1224.209 -191.761)"/></g></g><g transform="translate(494.658 198.311)"><g transform="translate(58.939 0)"><g class="d"><g transform="translate(1.094 -4.204)"><path class="e" d="M879.055,209.046c46.306-8.489,96.73-9.965,133.165,6.7,113.4,51.876,135.737,215.852,63.9,310.346-26.42,34.753-63.664,59.556-101.445,81.428-22.518,13.036-45.587,25.32-70.006,34.3-76.21,28.041-161.146,22.253-239.981,2.77-114.434-28.282-89.444-165.984-50.523-245.172C654.189,318,721.053,259.374,807.284,228.324A463.232,463.232,0,0,1,879.055,209.046Z" transform="translate(-581.513 -197.534)"/><g transform="translate(57.206)"><g transform="translate(376.462)"><path class="f" d="M1295.184,308.481l-10.3-112.92-28.213,3.182c-2.363-.633-6.942,2.55-8.076,5.831l-39.261,113.4c-1.216,3.518.457,7.617,3.117,7.647l10.562-.374-5.392,266.082c-.1,4.741,2.432,8.2,5.636,7.721l25.141,7.967c3.036-.457,31.768-20.113,31.86-24.686l5.405-266.727,6.4.086C1294.481,315.726,1296.153,311.864,1295.184,308.481Z" transform="translate(-1208.926 -195.28)"/><path class="g" d="M1254.821,382.276l-27.931.632L1221.5,648.99c-.1,4.741,2.432,8.2,5.636,7.721l25.141,7.967c1.249-.188,6.87-3.641,13.047-7.951Z" transform="translate(-1212.807 -252.938)"/><path class="h" d="M1336.373,318.107,1302.219,198.38c-1.151-4.037-4.851-4.364-6.17-.53l-40.908,118.956c-1.2,3.5.452,7.576,3.083,7.607l6.864.08-5.578,275.24c-.1,4.717,2.408,8.153,5.582,7.675l50.91-7.67c2.98-.449,5.464-4.5,5.556-9.051l5.38-265.469,6.336.074C1335.677,325.319,1337.333,321.473,1336.373,318.107Z" transform="translate(-1223.074 -195.155)"/></g><g transform="translate(302.826 208.27)"><path class="i" d="M1134.531,739.848l-26.259-8.675c-3.337.495-5.973-2.924-5.877-7.639l4.4-217.35c.1-4.715,2.88-8.588,6.208-8.65l56.7-1.062c3.114-.058,29.426,2.455,29.426,2.455l-28.2,214.744C1170.846,718.211,1134.531,739.848,1134.531,739.848Z" transform="translate(-1102.392 -496.472)"/><path class="j" d="M1205.808,732.226,1149.5,740.71c-3.305.5-5.916-2.9-5.821-7.594l4.534-223.725c.1-4.693,2.853-8.547,6.149-8.611l56.161-1.078c3.085-.059,5.5,3.556,5.411,8.074L1211.566,723.2C1211.475,727.721,1208.9,731.76,1205.808,732.226Z" transform="translate(-1115.14 -497.469)"/></g><g transform="translate(210.501 283.978)"><path class="k" d="M1003,787.98l-27.7-8.713c-3.673.545-6.58-3.021-6.479-7.969l3.928-152.282c.1-4.947,3.163-9.132,6.828-9.347l62.346-3.662c3.419-.2,31.949,5.609,31.949,5.609l-29.726,148.842C1044.052,765.214,1006.468,787.458,1003,787.98Z" transform="translate(-968.82 -606.002)"/><path class="l" d="M1079.664,780.242l-61.873,9.322c-3.637.548-6.515-3-6.415-7.92l3.184-157.153c.1-4.923,3.134-9.091,6.765-9.307l61.758-3.684c3.387-.2,6.046,3.471,5.95,8.2l-3.061,151.047C1085.876,775.481,1083.057,779.731,1079.664,780.242Z" transform="translate(-981.961 -607.697)"/></g><g transform="translate(111.201 354.096)"><path class="m" d="M858.277,819.306l-25.941-7.41c-4.062.6-7.282-3.124-7.176-8.328l1.6-79.138c.105-5.2,3.493-9.749,7.551-10.15l68.911-6.812c3.772-.372,29.737,4.2,29.737,4.2L908.326,791.6C908.224,796.591,862.107,818.73,858.277,819.306Z" transform="translate(-825.157 -707.446)"/><path class="n" d="M944.544,812.148l-68.3,10.291c-4.022.605-7.209-3.1-7.1-8.276l1.7-83.693c.105-5.178,3.459-9.7,7.477-10.1l68.232-6.826c3.735-.373,6.671,3.351,6.571,8.318l-1.627,80.28C951.385,807.1,948.283,811.585,944.544,812.148Z" transform="translate(-838.738 -709.319)"/></g><path class="o" d="M750.053,772.886l-76.5,8.9c-3.266.38-6.131,3.043-7.513,6.562a12.58,12.58,0,0,0-.876,4.328l-.881,43.487A13.619,13.619,0,0,0,672.2,848.5l26.814,7.65c4.25-.639,57.385-24.4,57.492-29.653l13.052-19.909,13.38-28.471S754.232,772.4,750.053,772.886Z" transform="translate(-664.276 -373.549)"/><path class="p" d="M793.457,848.267,717.67,859.686c-4.471.673-8.021-3.205-7.91-8.665l1.022-50.442c.111-5.461,3.837-10.315,8.305-10.841l75.737-8.92c4.138-.487,7.394,3.356,7.289,8.582l-.979,48.278C801.029,842.9,797.6,847.643,793.457,848.267Z" transform="translate(-678.321 -375.994)"/></g><g transform="translate(37.877 71.875)"><path class="q" d="M648.434,305.866a28.2,28.2,0,0,1,1.758,6.839c.489,3.42-1.172,6.449-1.27,9.771a7.093,7.093,0,0,0,9.38,7.133c3.909-1.466,7.621-5.374,11.823-3.713,2.638,1.075,5.472,3.811,8.4,1.368a29,29,0,0,0,3.533-3.343,22.931,22.931,0,0,0,.173-2.815c0-12.131-9.516-21.966-21.254-21.966a20.761,20.761,0,0,0-13.612,5.1A4.617,4.617,0,0,1,648.434,305.866Z" transform="translate(-639.725 -299.141)"/><path class="r" d="M675.114,329.541c-2.931,2.443-5.765-.293-8.4-1.368-4.2-1.661-7.914,2.247-11.823,3.713a7.093,7.093,0,0,1-9.38-7.133c.1-3.322,1.758-6.351,1.27-9.771a28.2,28.2,0,0,0-1.758-6.839,4.619,4.619,0,0,0-1.066-1.629,22.215,22.215,0,0,0-7.643,16.869c0,12.131,9.516,21.966,21.254,21.966,10.815,0,19.744-8.349,21.081-19.15A29,29,0,0,1,675.114,329.541Z" transform="translate(-636.311 -301.418)"/></g></g></g></g><path class="a" d="M1172.792,482.717a.023.023,0,1,0-.033-.012" transform="translate(-704.055 -288.145)"/><g transform="translate(0 86.512)"><path class="s" d="M528.732,332.861,668.554,326.4l-14.687,196.22L634.48,566.093,494.658,550.818l24.087-25.849Z" transform="translate(-494.658 -326.399)"/><path class="t" d="M557.95,358.4h54.756v20.592l7.02,8.424-7.02-3.744v8.892l-54.288-2.34Z" transform="translate(-514.203 -336.281)"/><path class="u" d="M554.548,481.4h51.6V502l7.02,8.424-7.02-3.744v8.892l-54.288-2.34Z" transform="translate(-512.321 -374.264)"/><path class="v" d="M700.46,459.125l-54.624-3.791,1.426-20.542-6.42-8.89,6.744,4.221.616-8.871,54,6.093Z" transform="translate(-539.799 -355.689)"/><line class="w" x2="52.416" y2="2.34" transform="translate(43.748 70.324)"/><line class="w" x2="113.961" y2="10.339" transform="translate(37.777 152.994)"/><line class="w" x2="113.961" y2="10.339" transform="translate(37.777 162.426)"/><line class="w" x2="52.416" y2="2.34" transform="translate(43.748 78.959)"/><line class="w" x2="52.416" y2="2.34" transform="translate(43.748 87.594)"/><path class="x" d="M665.425,381.061l4.212,8.775,32.643-13.689" transform="translate(-547.391 -341.761)"/><path class="x" d="M658.564,508.605l4.212,8.775,32.643-13.689" transform="translate(-545.272 -381.147)"/></g><g transform="translate(236.325 169.826)"><g transform="translate(0 159.642)"><path class="y" d="M848.167,677.9l-4.03,18.215L836.8,709.6a1.911,1.911,0,0,0,2.629,2.572c4.385-2.533,8.881-5.035,13.008-7.977,4.406-3.142,4.594-7.944,6.028-12.767q1.314-4.419,2.653-8.831Z" transform="translate(-836.564 -677.897)"/></g><g transform="translate(77.363 163.379)"><path class="y" d="M960.845,685.875a12.482,12.482,0,0,1,1.891,5.627,20.028,20.028,0,0,0,.394,2.835c.79,2.878,3.591,4.695,6.3,5.951,1.6.743,8.663,3.161,7.862,5.886-.485,1.649-3.686.977-5.012.977h-9.62c-2.775,0-5.555-.055-8.329,0-1.617.033-3.147.751-4.343-.435-1.532-1.52-1.4-5.221-1.47-7.163-.189-5.452.671-10.818.854-16.247,0,.111,6.817.287,7.39.314A5.12,5.12,0,0,1,960.845,685.875Z" transform="translate(-948.489 -683.304)"/></g><g transform="translate(7.007)"><path class="z" d="M871.727,446.934c-.9,6.274-4.859,30.015-5.756,36.29l-6.241,43.645-7.05,49.3-5.12,35.8c-.361,2.524-2.173,7.977.9,8.967,4.455,1.436,9.292,1.149,13.9.307,3.453-.632,4.355-1.445,5.029-4.41l1.163-5.111,3.591-15.785,10.373-45.59,11.056-48.595,7.457-32.773c.348-1.528,1.112-14.622,1.46-16.151Z" transform="translate(-846.702 -446.934)"/></g><g transform="translate(62.794 1.173)"><path class="z" d="M927.411,458.193l1.34,18.886,3.136,44.191,3.606,50.809,2.749,38.737.417,5.877c.185,2.6-.342,4.8,2.764,5.578a25.158,25.158,0,0,0,9.039.559c2.727-.323,5.334-1.862,7.95-2.086-.019-5.476.129-10.991.2-16.477l.495-39.569.606-48.428.539-43.056.293-23.451.015-1.132Z" transform="translate(-927.411 -448.631)"/></g></g><g transform="translate(321.896 133.87)"><path class="aa" d="M975.2,394.915l-3.487,2.716-11.348,5.858s5.935,13.033,7.5,14.038S982.7,402.918,982.7,402.918Z" transform="translate(-960.364 -394.915)"/></g><g transform="translate(252.972 134.875)"><path class="aa" d="M865.559,396.369l4.641,2.5,12.818,3.652s-4.67,13.357-5.992,14.557-16.379-11.448-16.379-11.448Z" transform="translate(-860.647 -396.369)"/></g><path class="z" d="M910.576,226.547a24.886,24.886,0,0,0-6.174,2.036,49.8,49.8,0,0,0-6.717,4.174c-1.945,1.358-3.046,4.837-3.6,7.09a46.122,46.122,0,0,0-.963,8.331c-.1,1.63-.256,3.248-.447,4.859-.764,6.417-1.245,12.539-2.878,18.729-.716,2.713-1.209,5.693-.048,8.248a11.3,11.3,0,0,0,3.833,4.22c9.17,6.7,21.349,7.719,32.643,6.539,4.366-.456,8.815-1.243,12.593-3.477,1.982-1.173,3.828-2.871,4.373-5.109a11.42,11.42,0,0,0-.066-4.309c-1.749-12.178-3.243-24.569-6.327-36.473a27.226,27.226,0,0,0-6.734-12.646,13.156,13.156,0,0,0-6.859-3.777" transform="translate(-616.447 -208.57)"/><path class="ab" d="M940.088,346.6l-5.372,5.93c-2.755,3.041-5.552,6.012-7.274,9.792a11.263,11.263,0,0,0-1.028,3.356,8.936,8.936,0,0,0,2.031,6.452A14.418,14.418,0,0,0,934,376.18a1.7,1.7,0,0,0,.76.194,1.76,1.76,0,0,0,.865-.391c3.871-2.687,7.748-5.38,11.359-8.406a128.414,128.414,0,0,0,10.808-10.45c2.678-2.839,7.168-6.452,7.168-10.715a6.817,6.817,0,0,0-.024-2.5c-.516-2.616-2.515-4.743-4.592-6.48-2.938-2.457-5.9-4.882-8.867-7.307l-6.854-5.608c-6.628-5.422-13.284-10.865-20.6-15.309A65.1,65.1,0,0,0,904.483,301a66.538,66.538,0,0,0-10.614-1.079c-3.855-.23-7.713-.511-11.578-.439A32.818,32.818,0,0,0,877,300.56c-1.8.357-3.6.726-5.382,1.2a86.027,86.027,0,0,0-10.091,3.755q-10.4,4.2-20.4,9.328A251.043,251.043,0,0,0,812.1,332.275c-2.5,1.74-4.509,3.723-3.912,6.933a29.229,29.229,0,0,0,1.219,5.118,45.985,45.985,0,0,0,6.112,10.6,155.991,155.991,0,0,0,18.11,20.158c1.445,1.394,3.01,2.715,4.337,4.214a3.218,3.218,0,0,0,4.077.646,9.631,9.631,0,0,0,3.155-2.745,26.379,26.379,0,0,0,4.567-7.6c.824-2.241,1.56-5.29.944-7.674-.46-1.778-2.718-3.576-3.994-4.865-3.432-3.464-7.318-6.487-10.388-10.3-1.345-1.671-3.614-3.652-1.117-5.466,1.732-1.258,4.144-1.456,6.161-1.973a82.53,82.53,0,0,1,10.539-1.981,29.388,29.388,0,0,1,5.658-.489c2.182.18,1.684-.314,2.605,1.344,1.95,3.513,1.886,10.107,2.628,14.078l3.563,19.084c-.388.463-.6.768-.567.794s.256-.17.619-.513l.01.055a183.974,183.974,0,0,0-8.453,26.86q-.707,2.946-1.318,5.915c-.274,1.339-1.516,4.533-1.071,5.81.972,2.788,7.054,3.565,9.451,3.951,16.409,2.642,33.354,2.874,49.536-.921,3.163-.742,8.74-1.988,10.568-5.065,1.555-2.617-.552-8.63-1.266-11.522a65,65,0,0,0-11.589-24.168l6.924-36.67c.409.93,1.913,1.581,2.727,2.049,1.8,1.037,3.676,1.946,5.552,2.837,3.692,1.754,7.439,3.4,11.206,4.98,1.016.428,1.705.618.758,1.692-1.348,1.528-3.031,2.828-4.447,4.308a82.143,82.143,0,0,0-7.732,9.375,7.685,7.685,0,0,0-1.387,2.685,4.1,4.1,0,0,0,1.261,3.875" transform="translate(-591.442 -231.573)"/><path class="ac" d="M951.517,403.991a6.319,6.319,0,0,1,5.819,2.28,11.288,11.288,0,0,0-6.777,2.625" transform="translate(-635.44 -263.826)"/><path class="ac" d="M893.012,404.378a7.92,7.92,0,0,1,5.407-1.994" transform="translate(-617.67 -263.351)"/><g transform="translate(277.708 15.929)"><path class="aa" d="M929.089,285.8a17.144,17.144,0,0,1,.484,2.907,18.353,18.353,0,0,0,.843,4.787,1.635,1.635,0,0,0,.326.573c.576.587,1.575.167,2.379.34A2.1,2.1,0,0,1,934.6,296.4c.138,2.515-2.423,6.036-4.373,7.424a10.726,10.726,0,0,1-2.588,1.284,16.5,16.5,0,0,1-10.92.386,12.158,12.158,0,0,1-5.98-4.648,13.154,13.154,0,0,1-1.613-3.478c-.445-1.392-.643-2.039,1.074-2.467l1.732-.433a5.215,5.215,0,0,0,1.7-.643c1.221-.827,1.056-2.723,1.139-4.019a9.016,9.016,0,0,1,1.025-4.322,7.577,7.577,0,0,1,3.142-2.566c3.043-1.525,7.4-2.388,9.421,1.108A7.667,7.667,0,0,1,929.089,285.8Z" transform="translate(-900.258 -241.978)"/><path class="ad" d="M902.768,245.681c-2.261,10.2,3.93,36.088,18.163,34.044,16.255-2.334,15.184-24.033,13.413-35.41" transform="translate(-898.25 -230.468)"/><path class="ae" d="M932.984,247.5a5.89,5.89,0,0,0,3.8-5.749c.169-5.015-1.64-10.938-5.989-13.76a21.909,21.909,0,0,0-6.967-2.729c-5.575-1.313-11.611-1.528-16.875.729a16.369,16.369,0,0,0-8.479,8.153c-1.607,3.612-2.874,8.346-1.353,12.153,2.632,6.586,10.223,3.7,13.959-.164a12.81,12.81,0,0,0,3-5.064c.672-2.156,1.323-2.14,2.539-.415a21.52,21.52,0,0,0,4.264,4.028,17.509,17.509,0,0,0,2.513,1.886,13.736,13.736,0,0,0,5.445,1.286,8.193,8.193,0,0,0,3.981-.281Z" transform="translate(-896.434 -224.282)"/><path class="ad" d="M949.724,259.033a2.249,2.249,0,0,1,3.739-.232,4.8,4.8,0,0,1,.979,4.73,8.1,8.1,0,0,1-3.028,3.965c-.684.51-1.633.953-2.347.487" transform="translate(-912.687 -234.667)"/><path class="ad" d="M902.9,261.864a2.249,2.249,0,0,0-3.744.142,4.8,4.8,0,0,0-.5,4.8,8.091,8.091,0,0,0,3.408,3.644c.731.439,1.72.785,2.384.25" transform="translate(-896.991 -235.599)"/></g><path class="ac" d="M965.313,344.159c-.843,2.258-.287,4.779-.573,7.173a10.488,10.488,0,0,1-8.329,8.829" transform="translate(-637.247 -245.372)"/><path class="af" d="M885.305,343.294c-3.364,7.17.613,15.361,8.569,16.6" transform="translate(-614.919 -245.105)"/><path class="af" d="M905.144,371.545a95.012,95.012,0,0,1,27.141-1.489" transform="translate(-621.416 -253.253)"/></g></g></svg>