<svg xmlns="http://www.w3.org/2000/svg" width="81.726" height="117.636" viewBox="0 0 81.726 117.636"><defs><style>.a{fill:#0099b9;}</style></defs><path class="a" d="M385.312,187.037a6.006,6.006,0,0,1-4.623-.91,15.374,15.374,0,0,1-5.489-8.1c-1.941-6.142,1.817-17.135,1.817-17.135s9.859,6.707,11.336,12.978C390.411,182.6,385.983,186.89,385.312,187.037Z" transform="translate(-352.538 -160.894)"/><path class="a" d="M376.572,195.85a4.487,4.487,0,0,1-2.547,2.422,11.467,11.467,0,0,1-7.3-.151c-4.578-1.466-9.649-8.494-9.649-8.494s8.335-3.11,12.789-1.305C376.07,190.833,376.771,195.378,376.572,195.85Z" transform="translate(-357.08 -153.946)"/><path class="a" d="M391.621,185.807a3.739,3.739,0,0,0,2.916.331,9.583,9.583,0,0,0,4.788-3.775c2.311-3.283,2.151-10.52,2.151-10.52s-6.292,1.8-9.179,5.571C388.174,182.793,391.25,185.593,391.621,185.807Z" transform="translate(-348.522 -158.062)"/><path class="a" d="M410.488,195.346a4.176,4.176,0,0,0,3.053,1.186,10.689,10.689,0,0,0,6.234-2.714c3.425-2.885,5.306-10.737,5.306-10.737s-8.283.272-11.482,3.4C409.143,190.847,410.149,195.01,410.488,195.346Z" transform="translate(-343.355 -155.156)"/><path class="a" d="M393.863,199.053s-21.113-6.516-25.545-6.516c0,0,24.5,12.512,25.285,13.815S393.863,199.053,393.863,199.053Z" transform="translate(-354.174 -152.71)"/><path class="a" d="M386.336,189.825s8.08-9.905,9.124-10.948-7.038,16.683-7.038,18.507S386.336,189.825,386.336,189.825Z" transform="translate(-349.514 -156.255)"/><path class="a" d="M400.958,256.244c-.292-8.4-.065-17.112,1.885-24.955,2.3-9.242,7.855-17.463,12.922-25.342q3.079-4.788,6.219-9.535c.471-.711,1.666-3.435,2.5-3.761-8.176,3.191-20.92,24.373-26.1,32-4.194-15.539-10.2-40.748-18.453-49.694,2.819,9.981,6.019,20.268,8.858,30.242,2.807,9.856,4.8,15.164,5.967,25.327,1.458,12.671,2.861,32.639-3.4,44.361h12.781a17.184,17.184,0,0,1-2.7-9.459C401.249,262.453,401.067,259.369,400.958,256.244Z" transform="translate(-351.17 -157.256)"/></svg>