<svg xmlns="http://www.w3.org/2000/svg" xmlns:xlink="http://www.w3.org/1999/xlink" width="563.578" height="384.897" viewBox="0 0 563.578 384.897"><defs><style>.a,.aa,.ab,.o{fill:none;}.b{fill:url(#a);}.c{fill:url(#b);}.d{fill:url(#c);}.e,.j,.k{stroke:#0e0751;stroke-miterlimit:10;}.e{stroke-width:2px;fill:url(#e);}.f{fill:url(#f);}.g{fill:#0e0751;}.h{fill:url(#g);}.i{fill:url(#h);}.j,.k{fill:#fcfcfc;}.j{stroke-width:25.412px;}.k{stroke-width:3.315px;}.l{fill:url(#i);}.m{fill:url(#j);}.n{fill:url(#k);}.ab,.o,.v,.x,.y{stroke:#100052;}.aa,.ab,.o,.v,.x,.y{stroke-linecap:round;stroke-linejoin:round;}.o{stroke-width:2.248px;}.p{fill:url(#l);}.q{fill:url(#m);}.r{fill:#f5f5f5;opacity:0.43;}.s{fill:url(#n);}.t{clip-path:url(#o);}.u,.v{fill:#2a7195;}.w{fill:#100052;}.x{fill:#ffd3b9;}.ai,.y{fill:#fff;}.z{fill:#e2a383;opacity:0.44;mix-blend-mode:multiply;isolation:isolate;}.aa{stroke:#fff;}.ab{stroke-width:4px;}.ac{fill:url(#p);}.ad{fill:url(#q);}.ae{fill:url(#r);}.af{fill:url(#s);}.ag{fill:url(#t);}.ah{fill:url(#u);}.aj{stroke:none;}</style><linearGradient id="a" y1="0.5" x2="1" y2="0.5" gradientUnits="objectBoundingBox"><stop offset="0" stop-color="#faebd8"/><stop offset="1" stop-color="#ffb83f"/></linearGradient><linearGradient id="b" x1="0.134" y1="1.219" x2="0.654" y2="0.203" xlink:href="#a"/><linearGradient id="c" x1="0" y1="0.5" x2="1" y2="0.5" xlink:href="#a"/><linearGradient id="e" x1="-0.048" y1="0.523" x2="0.952" y2="0.523" gradientUnits="objectBoundingBox"><stop offset="0" stop-color="#fff"/><stop offset="1" stop-color="#bbdbf9"/></linearGradient><linearGradient id="f" x1="-7.304" y1="60.807" x2="-7.135" y2="60.807" gradientUnits="objectBoundingBox"><stop offset="0" stop-color="#ff9077"/><stop offset="1" stop-color="#e9645a"/></linearGradient><linearGradient id="g" x1="0.862" y1="1.101" x2="1.862" y2="1.101" xlink:href="#f"/><linearGradient id="h" x1="-0.406" y1="0.695" x2="0.594" y2="0.695" gradientUnits="objectBoundingBox"><stop offset="0" stop-color="#2a7195"/><stop offset="1" stop-color="#060c39"/></linearGradient><linearGradient id="i" x1="0" y1="0.5" x2="1" y2="0.5" xlink:href="#h"/><linearGradient id="j" x1="-1.261" y1="1.493" x2="-0.25" y2="1.493" gradientUnits="objectBoundingBox"><stop offset="0" stop-color="#4fa5ad"/><stop offset="1" stop-color="#99cbcf"/></linearGradient><linearGradient id="k" x1="-1.998" y1="0.924" x2="-0.973" y2="0.924" xlink:href="#j"/><linearGradient id="l" x1="1.099" y1="1.916" x2="-0.267" y2="-1.704" xlink:href="#h"/><linearGradient id="m" x1="1.427" y1="2.958" x2="0.06" y2="-0.662" xlink:href="#h"/><linearGradient id="n" x1="0" y1="0.5" x2="1" y2="0.5" xlink:href="#e"/><clipPath id="o"><path class="a" d="M590.392,105.159c-49.145-41.444-130.449-40.62-177.8,3.579-47.6,44.43,6.7,102.022-42.311,138.232-42.908,31.7-91.249,45.7-91.427,108.071-.264,92.719,93.087,104.093,164.58,102.1,46.087-1.287,88.623-4.605,134.879.45,40.452,4.421,71.966,3.229,109.133-16.354,32.379-17.06,48.135-37.652,48.809-74.29.674-36.611,4.993-48.706,39.557-66.138,29.1-14.674,75.505-28.931,65.137-69.935-9.93-39.273-42.475-43.577-75.634-45.741-35.2-2.3-78.021,1.587-111.26-11.059C616.293,159.7,618.217,128.624,590.392,105.159Z" transform="translate(-278.857 -74.811)"/></clipPath><linearGradient id="p" x1="-7.144" y1="5.162" x2="-7.167" y2="6.713" xlink:href="#j"/><linearGradient id="q" x1="-7.568" y1="6.488" x2="-6.582" y2="6.488" xlink:href="#j"/><linearGradient id="r" x1="-50.782" y1="32.066" x2="-50.705" y2="32.346" xlink:href="#j"/><linearGradient id="s" x1="-25.16" y1="18.428" x2="-24.565" y2="19.076" xlink:href="#j"/><linearGradient id="t" x1="-25.258" y1="15.928" x2="-25.997" y2="26.441" xlink:href="#j"/><linearGradient id="u" x1="-23.423" y1="31.758" x2="-22.642" y2="31.758" xlink:href="#j"/></defs><g transform="translate(-278.857 -74.811)"><path class="b" d="M1531.966,351.356q-2.544-.692-5.167-1.252c.77.433,1.54,1.146,2.311,1.146A18.639,18.639,0,0,0,1531.966,351.356Z" transform="translate(-731.669 -161.404)"/><path class="c" d="M840.952,386.551c-6.307-24.944-21.739-35.779-40.655-40.921a18.637,18.637,0,0,1-2.857-.107c-.77,0-1.54-.713-2.311-1.146l-.418-.089c-1.572.036-3.145.386-4.718-.007-5.378-2.068-10.756,0-16.134-1.655-3.723-.827-7.447-.414-11.17-.827l-2.482-1.241c-.132-.022-.265-.038-.4-.057q-1.9-.091-3.825-.164a13.32,13.32,0,0,0-3.224.635c-23.581,8.688-43.852,22.34-64.537,38.06-1.655,1.241-3.31,1.241-4.964,2.482-5.378,4.964-9.515,9.929-14.893,14.893-9.515,7.86-16.962,15.721-26.477,23.167-28.545,23.581-49.644,50.885-77.776,74.466-3.723,3.31-7.86,4.964-11.17,7.86a56.157,56.157,0,0,1-4.964,4.964c-2.069,1.241-4.137,1.241-6.206,2.482-38.888,24.408-81.913,40.129-126.592,38.06-5.378-.414-10.756,0-16.134-1.241-4.964-.827-9.929-.414-14.893-1.241-3.31-.414-6.619-.414-9.929-1.241-7.447-1.655-14.066-2.9-21.1-6.619-10.756-5.378-21.926-7.033-32.682-13.652-9.929-5.792-20.271-8.688-30.614-14.066-2.069-1.241-2.9-3.723-4.964-4.964-1.918-1.052-3.765-2.145-5.567-3.267-.278,3.072-.433,6.263-.443,9.6-.264,92.719,93.087,104.093,164.58,102.1,46.087-1.287,88.623-4.605,134.879.45,40.452,4.421,71.966,3.229,109.133-16.354,32.379-17.06,48.135-37.652,48.809-74.29.674-36.611,4.992-48.706,39.557-66.138C804.911,441.812,851.32,427.554,840.952,386.551Z" transform="translate(0 -155.678)"/><path class="d" d="M1444.3,342.033c3.723.414,7.447,0,11.17.827,5.378,1.655,10.756-.414,16.134,1.655,1.573.393,3.146.043,4.718.007-9.332-1.967-19.334-2.823-29.394-3.479q-2.724-.178-5.508-.309c.133.02.265.036.4.057Z" transform="translate(-681.614 -155.911)"/><path class="d" d="M290.459,353.67c10.342,5.378,20.685,8.274,30.614,14.066,10.756,6.619,21.926,8.274,32.682,13.652,7.033,3.723,13.652,4.964,21.1,6.619,3.31.827,6.619.827,9.929,1.241,4.964.827,9.929.414,14.893,1.241,5.378,1.241,10.756.827,16.134,1.241,44.68,2.068,87.7-13.652,126.592-38.06,2.068-1.241,4.137-1.241,6.206-2.482a56.166,56.166,0,0,0,4.964-4.964c3.31-2.9,7.447-4.551,11.17-7.86,28.132-23.581,49.23-50.885,77.776-74.466,9.515-7.447,16.962-15.307,26.477-23.167,5.378-4.964,9.515-9.929,14.893-14.893,1.655-1.241,3.31-1.241,4.964-2.482,20.685-15.721,40.956-29.373,64.537-38.06a13.319,13.319,0,0,1,3.224-.635c-33.235-1.273-71.574.962-101.927-10.587-37.765-14.369-35.841-45.449-63.665-68.913-49.145-41.444-130.449-40.62-177.8,3.578-47.6,44.43,6.7,102.023-42.311,138.233-40.611,30-86.081,44.159-90.984,98.468,1.8,1.122,3.648,2.215,5.567,3.267C287.563,349.947,288.391,352.429,290.459,353.67Z" transform="translate(-0.628 0)"/><g transform="translate(549.464 124.437)"><g transform="translate(41.826)"><circle class="e" cx="81.362" cy="81.362" r="81.362" transform="translate(0 0.272)"/><path class="f" d="M1235.98,394.262c-.015.257,23.714.018,23.714.018l16.746,3.212a.216.216,0,0,1-.038.429l-16.921.211Z" transform="translate(-1152.452 -311.731)"/><rect class="g" width="1.936" height="13.256" transform="matrix(0.997, 0.072, -0.072, 0.997, 75.026, 149.92)"/><rect class="g" width="1.633" height="12.341" transform="matrix(0.997, 0.072, -0.072, 0.997, 86.868, 0)"/><path class="h" d="M1227.566,305.728c.457,0-2.459-35.43-2.459-35.43l3.514-22.588a.717.717,0,0,1,1.423.049l1.918,22.506Z" transform="translate(-1146.077 -225.451)"/><rect class="g" width="1.936" height="14.627" transform="matrix(0.072, -0.997, 0.997, 0.072, 148.703, 88.361)"/><rect class="g" width="1.936" height="12.57" transform="matrix(0.072, -0.997, 0.997, 0.072, 0.01, 75.384)"/><circle class="i" cx="9.713" cy="9.713" r="9.713" transform="translate(71.69 71.352)"/></g><g transform="translate(0 54.643)"><g class="j"><circle class="aj" cx="33.368" cy="33.368" r="33.368"/><circle class="a" cx="33.368" cy="33.368" r="20.661"/></g><g class="k" transform="translate(8.261 8.289)"><circle class="aj" cx="25.143" cy="25.143" r="25.143"/><circle class="a" cx="25.143" cy="25.143" r="23.486"/></g><g class="k" transform="translate(15.461 15.453)"><circle class="aj" cx="17.954" cy="17.954" r="17.954"/><circle class="a" cx="17.954" cy="17.954" r="16.297"/></g><circle class="l" cx="10.092" cy="10.092" r="10.092" transform="translate(23.332 23.632)"/></g><g transform="translate(164.389 28.114)"><path class="m" d="M1390.145,479.1a5.675,5.675,0,0,1-4.1,0c-2.389-1.033-3.571-3.972-6.016-4.864a11.636,11.636,0,0,0-4.411-.2,15.506,15.506,0,0,1-13.266-6.884c-.242.461-.469.931-.675,1.413-1.852,4.32-1.824,8.672-1.547,13.264l32.193,17.567a32.216,32.216,0,0,0,11.157-9.944,17.947,17.947,0,0,0,2.878-6.927c.176-.951-.4-6.393-.1-6.7a4.647,4.647,0,0,1-5.1.989,19.146,19.146,0,0,0-2.572-1.325c-2.039-.557-3.962,1.018-5.706,2.212A11.326,11.326,0,0,1,1390.145,479.1Z" transform="translate(-1347.724 -382.58)"/><path class="n" d="M1471.119,351.266a10.563,10.563,0,0,0-1.8-2.073c-2.271-1.676-5.388-.127-8.019.893-6.143,2.383-11.471.88-17.225-1.508-3.913-1.624-2.83,2.222-2.323,5.067a65.6,65.6,0,0,0,2.608,9.763c1.078,3.14,2.9,6.539,2.339,9.964-.525,3.211-2.164,6.282-2.793,9.532q-2.722,14.06-4.646,28.258a15.868,15.868,0,0,0,4.394-6.589,31.637,31.637,0,0,0,1.306-8.471c.355-5.7-.615-16.634,4.192-20.9,2.6-2.3,6.913-2.847,10.151-3.642a53.5,53.5,0,0,0,16.566-6.7c3.446-2.245,8.743-7.318,9.079-11.636A10.541,10.541,0,0,1,1471.119,351.266Z" transform="translate(-1394.198 -312.834)"/><g transform="translate(0 0)"><path class="o" d="M1486.167,332.421c.255,4.1.294,7.976-1.18,11.9a23.212,23.212,0,0,1-6.52,9.171c-5.734,5.045-13.1,7.795-20.428,9.551-3.516.842-8.367,1.292-10.626,4.515-2.029,2.893-.79,6.9.266,9.922,2.466,7.056,4.509,14.331,4.036,21.884a25.057,25.057,0,0,1-4.023,12.661c-2.622,3.836-6.269,6.12-10.247,8.323" transform="translate(-1393.133 -303.588)"/><rect class="p" width="57.527" height="7.07" rx="3.535" transform="matrix(0.875, 0.484, -0.484, 0.875, 55.309, 0)"/><rect class="q" width="57.527" height="7.07" rx="3.535" transform="matrix(0.875, 0.484, -0.484, 0.875, 3.422, 94.15)"/><path class="o" d="M1360.595,377.821c-.248-4.54-.252-8.843,1.6-13.1a25.056,25.056,0,0,1,8.587-10.138c6.147-4.415,13.394-6.552,20.682-8.214,3.118-.711,7.173-1.793,8.545-5.048,1.529-3.627-.668-7.975-1.824-11.4-2.408-7.142-3.993-14.842-2.768-22.381a23.209,23.209,0,0,1,4.3-10.4c2.538-3.333,5.839-5.358,9.451-7.323" transform="translate(-1348.009 -278.608)"/></g><path class="r" d="M1408.336,287.985c-3.668,1.951-7.022,3.967-9.619,7.31a23.456,23.456,0,0,0-4.447,10.465c-1.309,7.606.219,15.4,2.585,22.641,1.135,3.473,3.314,7.887,1.735,11.538-1.417,3.277-5.525,4.331-8.682,5.02-7.38,1.61-14.724,3.7-20.977,8.1a25.321,25.321,0,0,0-8.773,10.162c-1.915,4.287-1.952,8.635-1.744,13.225l31.89,18.031c4.04-2.188,7.747-4.462,10.433-8.313a25.32,25.32,0,0,0,4.185-12.756c.549-7.628-1.446-15-3.871-22.152-1.037-3.061-2.251-7.124-.174-10.028,2.314-3.235,7.22-3.643,10.78-4.462,7.423-1.705,14.891-4.415,20.733-9.458a23.46,23.46,0,0,0,6.675-9.205c1.527-3.949,1.524-7.862,1.3-12.01Z" transform="translate(-1346.749 -277.535)"/></g></g><path class="s" d="M655.76,355.333c-.418,2.257-.8,4.754.4,6.711a1.448,1.448,0,0,0,1.27.842c.6-.074.918-.736,1.085-1.316.864-3.011,1.011-8.531-.87-11.093C655.918,351.155,656.06,353.716,655.76,355.333Z" transform="translate(-220.741 -161.623)"/><g transform="translate(278.857 74.811)"><g class="t" transform="translate(0 0)"><g transform="translate(73.7 67.582)"><path class="u" d="M516.57,656.946c-4.424,4.378-11.351,6.7-18.132,6.206-4.052-.3-8.349-1.7-10.946-4.72-7.164-8.321-3.671-22.434-1.058-30.81,3.821-12.247,9.774-23.677,14.6-35.535a83.9,83.9,0,0,1,6.327-13.259c4.631-7.357,12.5-14.5,21.553-17.459,10.44-3.411,22.206.575,22.384,12.067.07,4.54-2.162,7.845-3.071,12.039-1.627,7.509-5.859,13.37-8.723,20.266q-4.6,11.079-9.421,22.063c-2.126,4.844-4.752,9.857-6.905,14.841C521.181,647.268,520.284,653.271,516.57,656.946Z" transform="translate(-472.388 -426.972)"/><path class="u" d="M837.452,602.717a80.614,80.614,0,0,0-3.134-20.893c-2.092-6.948-4.511-14.181-9.235-19.832-5.393-6.451-13.12-8.667-21.157-9.881-9.842-1.486-19.1-.457-35.105,4.206-6.059,1.765,5.543,8.267,5.147,14.133-.51,7.548,11.9,21.266,12.011,28.849.159,11.162-.125,22.379-.995,33.477-.741,9.452-3.418,18.631.41,28.142,2.714,6.743,9.379,12.679,17.385,15.66,4.784,1.781,10.439,2.554,15.012.812,12.617-4.809,16.159-21.011,17.646-30.9,1.357-9.028,1.464-18.116,1.8-27.217C837.45,613.683,837.63,608.179,837.452,602.717Z" transform="translate(-638.794 -421.864)"/><path class="u" d="M581.323,856.511c-6.528-6.92-6.122-16.278-6.41-25.921-.366-12.226,1.194-24.326,2-36.448.491-7.363,1.341-14.988,1.324-22.3-.021-8.924-.263-17.836-.118-26.764.05-3.074.164-6.3,1.729-8.949,1.529-2.586,4.216-4.23,6.819-5.73a67.042,67.042,0,0,1,9.284-4.66,60.807,60.807,0,0,1,27.363-3.177c8.435,1,16.989-1.515,25.614-.243,8.281,1.221,20.573,4.389,27.513,9.987,6.8,5.487,7.9,15.292,8.727,23.9,1.332,13.912,4.752,27.272,8.185,40.756s10.38,26.8,10.261,41.106c-.13,15.6-19.2,24.259-29.572,29.143-14.29,6.731-29.922,10.558-45.6,9.15C612.051,874.893,593.674,869.6,581.323,856.511Z" transform="translate(-526.102 -521.813)"/><g transform="translate(47.679 126.41)"><path class="u" d="M641.182,675.146a68.267,68.267,0,0,1-17.029-1.2c-7.945-1.586-15.54-4.559-23.3-6.862-6.263-1.858-14.383-3.234-18.074-9.74a18.132,18.132,0,0,1-1.75-6.534c-2.363-17.154-5-34.222-6.765-51.425-.864-8.428-2.44-18.11-1.887-26.507.463-7.031,2.807-14.214,7.636-18.842,5.611-5.378,14.278-7.491,21.36-9.153,15.189-3.565,23.29,2.207,38.77,3.012,14.277.742,38.452-5.2,51.5,1.531,4,2.063,6.3,3.711,7.451,8.3a110.887,110.887,0,0,1,2.551,17.882,138.619,138.619,0,0,1-2.96,41.748c-1.537,6.867-3.291,13.436-4.7,20.324-.581,2.834-1.343,5.623-2.105,8.409l-1.333,4.875a12.048,12.048,0,0,1-.832,2.376c-2.377,4.595-8.527,7.155-12.575,9.843a72.5,72.5,0,0,1-16.664,8.209A71.691,71.691,0,0,1,641.182,675.146Z" transform="translate(-572.256 -543.731)"/><path class="v" d="M583.734,680.862c-7.635,14.59-14.7,38.345,4.379,47" transform="translate(-574.381 -624.131)"/><path class="v" d="M837.228,702.16c6.313,15.209,11.246,39.5-8.525,46.43" transform="translate(-722.611 -636.618)"/><path class="v" d="M708.833,807.725a102.091,102.091,0,0,0-37.421-2.392" transform="translate(-630.391 -696.671)"/></g><g transform="translate(63.476)"><path class="w" d="M631.055,428.326s66.01-3.876,80.075-.566c0,0,13.357-44.469,9.3-54.015s-18.731-37.211-47.144-35.61-46.6,16.055-48.779,36.488S631.055,428.326,631.055,428.326Z" transform="translate(-618.484 -296.741)"/><path class="x" d="M698.407,489.122c.1,7.789-.038,18.365-.635,26.107a88.8,88.8,0,0,1-1.051,8.929c-.757,4.2-3.835,9.875.273,13.213a16.119,16.119,0,0,0,5.319,2.552c2.507.8,5.072,1.445,7.639,2.074a44.212,44.212,0,0,0,9.309,1.565,15.324,15.324,0,0,0,8.98-2.264c8.257-5.632,5.136-14.2,3.946-21.792a78.14,78.14,0,0,1-1.21-17.7c.3-4.408.871-8.793.854-13.222,0,.4-15.747.205-16.949.321C713.976,488.992,698.406,488.906,698.407,489.122Z" transform="translate(-659.961 -384.989)"/><path class="y" d="M762.409,547.373s3.738,10.512-14.447,30.038c0,0,9.061,10.836,11.059,16.24,1.316,3.56,5.812-2.032,6.927-3.327a32.024,32.024,0,0,0,5.009-7.224c3.839-8.167,3.363-20.045-.721-28.095C768.5,551.582,765.024,549.187,762.409,547.373Z" transform="translate(-691.069 -419.456)"/><path class="y" d="M684.735,548.1s-2.227,11.307,20.521,29.837c0,0-10.613,10.816-12.708,16.32-1.381,3.626-7.046-1.719-8.445-2.953a33.014,33.014,0,0,1-6.365-6.948c-5.018-7.952-5.084-19.84-.638-28.1A22.329,22.329,0,0,1,684.735,548.1Z" transform="translate(-647.625 -419.88)"/><path class="x" d="M823.608,373.19c4.269-1.923,6.3-.884,7.168-.174,4.638,3.789,2.26,18.537-4.682,25.024A14.273,14.273,0,0,1,816.06,401.9" transform="translate(-730.995 -316.688)"/><path class="x" d="M632.293,378.075c-4.357-1.714-6.334-.578-7.168.174-4.448,4.01-1.355,18.625,5.894,24.767a14.272,14.272,0,0,0,10.209,3.364" transform="translate(-617.84 -319.672)"/><path class="x" d="M682.09,259.4a49.656,49.656,0,0,0-20.179,4.023c-6.784,2.936-9.818,6.849-13.127,12.588-8.548,14.826-2.615,53.5.158,66.788a34.542,34.542,0,0,0,9.777,17.177c3.964,3.71,9.97,9.776,15.561,10.371,2.74.292,5.457-.564,8.079-1.409,14.569-4.694,27.276-10.87,34.053-25.435,5.3-11.385,5.871-23.335,6.542-35.595.621-11.368.423-23.653-5.948-33.557-3.584-5.572-6.8-9.333-13.723-11.935a49.659,49.659,0,0,0-20.352-3.037" transform="translate(-630.318 -250.553)"/><path class="z" d="M675.439,278.28c17.046,11.816,41.2,53.7,42.76,77.292-1.843-27.833,13.652-99.935-34.575-96.251-32.317.739-36.022,15.621-38.1,45.444C646.72,287.6,661.828,272.437,675.439,278.28Z" transform="translate(-631.01 -250.491)"/><path class="w" d="M692.384,256.665s51.428,33.99,53.629,79.881c1.044,21.768.209,38.664.209,38.664s17.424-12.88,18.493-24.623c5.312-58.359,8.341-118.33-67.113-111.946Z" transform="translate(-658.484 -238.172)"/><path class="w" d="M653.35,253.713s-24.217,4.592-27.422,28.811c-3.181,24.038-5.971,88.46,3,96.248,0,0-15.75-2.892-17.16-36.34-.616-14.6-2.467-34.8-.3-53.5,2.8-24.132,12.282-45.779,39.745-49.728Z" transform="translate(-610.44 -238.779)"/><path class="aa" d="M719.236,269.039s52.917,30.613,49.708,106.541" transform="translate(-674.227 -256.269)"/><path class="aa" d="M746.2,267.446a115.439,115.439,0,0,1,31.016,33.327" transform="translate(-690.036 -255.335)"/></g><g transform="translate(228.705 179.975)"><path class="x" d="M1092.371,691.069s15.048,7.713,22.541,7.078c0,0,6.1-1.978,10.517-2.994s5.96,2.3,5.96,2.3-7.691,5.176-11.432,5.553-7.338,4.226-13.726,5.388-15.566-.362-22.1-1.17a86.853,86.853,0,0,0-13.212-.462s3.736-8.124,8.823-11.4S1092.371,691.069,1092.371,691.069Z" transform="translate(-1045.648 -683.681)"/><path class="x" d="M1154.327,709.207c1.153.143,6.772-1.115,11-3.715s10.171-9.671,10.171-9.671-1.352-4.85-8.02,1.741-7.584,4.527-7.584,4.527l-9.8-2.773" transform="translate(-1092.063 -685.459)"/><path class="x" d="M1046.628,702.08c3.119-3.127-3.9-9.458-10.055-10.218s-7.351-.518-7.351-.518l-19.388,14.776,7.045,21.945,16.593-20.585" transform="translate(-1009.834 -683.821)"/><path class="x" d="M1145.745,717.581c1.153.142,6.772-1.115,11-3.715s10.171-9.671,10.171-9.671-1.353-4.85-8.021,1.741-7.584,4.527-7.584,4.527l-9.8-2.772" transform="translate(-1087.031 -690.369)"/><path class="x" d="M1053.336,682.513s3.451-5.818,11.95-8.28,11.674.271,19.457.453,14.46-.165,15.087,1.083,2.362,6.146-10.081,5.779-5.477.1-5.477.1a15.153,15.153,0,0,1-14.806,2.854c-8.59-3.013-8.735-3.421-8.735-3.421" transform="translate(-1035.339 -673.211)"/><path class="x" d="M1068.228,719.769s4.378-1.613,18.026,1.635,14.417,3.342,14.417,3.342,8.5-2.462,8.642-3.615l1.045-8.457s-4.47-1.723-6.094,5.1a35.682,35.682,0,0,0-3.6.726c-.816.29-6.008-1.913-6.008-1.913" transform="translate(-1044.07 -696.234)"/></g><g transform="translate(30.46 45.068)"><path class="x" d="M530.935,512.022l16.1-31.071s14.26-10.214,16.941-2.449-.575,12.013-.575,12.013l-5.081,31.949-27.689-9.57Z" transform="translate(-530.633 -422.438)"/><path class="x" d="M566.085,441.813l11.508-30.879,1.419-3.507s7.338-4.595,10.715-3.662,7.845,14.336,5.585,16.638c0,0-1.183,18.926-11.341,24.436" transform="translate(-551.418 -380.254)"/><path class="x" d="M604.508,370.619c2.274-6.918,7.93-14.288,9.071-18.9s-2.241-4.162-2.241-4.162.008-2.77-5.087,5.525-13.034,25.354-13.034,25.354" transform="translate(-567.325 -347.111)"/><path class="x" d="M620.551,398.49s10.419-4.468,12.108-4,7.857,10.18,7.857,10.18-.033,11.081-2.847,10.149-2.81-2.317-2.237-5.547a30.986,30.986,0,0,0,.576-4.154l-3.37-3.242s-6.762.441-9.585,2.279" transform="translate(-583.352 -374.869)"/><path class="x" d="M623.248,407.426s10.419-4.468,12.108-4,7.857,10.18,7.857,10.18-.033,11.081-2.848,10.149-2.81-2.317-2.237-5.547a31.076,31.076,0,0,0,.576-4.154l-3.093-2.087s-6.48.211-9.582,1.357" transform="translate(-584.933 -380.108)"/><path class="x" d="M629.973,423.508l7.9-2.747s5.627,2.325,6.75,3.713-2.282,9.689-2.282,9.689-3.944-.012-4.5-2.322a4.953,4.953,0,0,1,1.139-4.152l2.256-.916s-5.642,2.753-8.461,3.207" transform="translate(-588.876 -390.292)"/></g><path class="v" d="M493.382,625.153A183.787,183.787,0,0,0,505.616,597.5c4.2-12.042,5.9-25.531,9.188-38.1,1.263-4.835,4.185-12.176,3.355-17.266-1.14-6.989-13.441-9.217-19.3-9.717a6.124,6.124,0,0,0-2.982.282,6.292,6.292,0,0,0-2.335,2.211A198.391,198.391,0,0,0,464.1,592.849c-3.2,10.095-9.7,24.162-5.969,34.695,7.391,20.885,25.8,19.8,40.849,14.774" transform="translate(-457.005 -410.653)"/><path class="v" d="M868.724,753.749c3.761-2.759,7.662-5.369,11.3-8.13,7.483-5.672,15.912-10.758,22.985-16.857,4.494-3.874,9.4-10.679,15.9-11.386a15.571,15.571,0,0,1,11.664,3.918,24.435,24.435,0,0,1,5.99,7.3,6.119,6.119,0,0,1,.717,2.529,5.1,5.1,0,0,1-.878,2.477A140.547,140.547,0,0,1,903.6,772.332,113.508,113.508,0,0,1,882.479,786.5c-3.4,1.675-7.989,3.46-11.942,2.729q-.328-.061-.654-.132c-6.208-1.366-12.869-4.139-17.128-9.035-4.349-5-2.258-26.364-1.713-29.314" transform="translate(-687.454 -519.084)"/><path class="v" d="M865.023,664.85a5.4,5.4,0,0,1-.31,3.287,73.544,73.544,0,0,1-5.673,13.133" transform="translate(-692.718 -488.333)"/></g><path class="w" d="M750.186,383.782c1.467-.708,3.4.069,4.836.568l3.187,1.11a20.245,20.245,0,0,1,3.841,1.646c-2.445.226-4.745-1.292-7.109.039-.824.464-1.568,1.16-2.383,1.655a2.722,2.722,0,0,1-2.595.374C748.015,388.231,748.439,384.626,750.186,383.782Z" transform="translate(-554.313 -255.794)"/><path class="ab" d="M741.977,360.433a26.253,26.253,0,0,1,17.673,1.46c.117.054.282.1.354-.011s-.2-.178-.145-.064" transform="translate(-550.384 -241.746)"/><path class="w" d="M673.5,385.194c-1.4-.677-3.251.066-4.621.543l-3.046,1.061a19.365,19.365,0,0,0-3.67,1.574c2.337.216,4.535-1.234,6.794.037.787.443,1.5,1.108,2.276,1.582a2.6,2.6,0,0,0,2.48.358C675.571,389.445,675.166,386,673.5,385.194Z" transform="translate(-503.587 -256.629)"/><path class="ab" d="M673.181,361.9a26.254,26.254,0,0,0-17.673,1.46c-.117.054-.282.1-.355-.01s.2-.179.145-.064" transform="translate(-499.473 -242.607)"/><path class="z" d="M708.4,435.2a7.486,7.486,0,0,1-3.924-.56,3.888,3.888,0,0,1-1.346-3.257,2.553,2.553,0,0,0-.367,2.429,5.024,5.024,0,0,0,.394.762,6.771,6.771,0,0,0,3.4,3.135c1.984.6,4.012-.709,5.546-2.023a8.24,8.24,0,0,0,2.743-3.355C712.741,432.667,711.093,435,708.4,435.2Z" transform="translate(-527.303 -283.871)"/></g></g><g transform="translate(305.08 123.601)"><g transform="translate(7.386 4.77)"><path class="ac" d="M360.1,224.384c1.388-2.047,13.655-19.514,34.938-20.094,10.354-.282,28.831,3.269,34.008,17.316,4.865,13.2-3.483,31.685-21.954,39.882a34.565,34.565,0,0,1,4.2,7.507l-16.8,9.751-12.567-19.661c-.814-1.273-1.661-2.781-1.179-4.213a4.8,4.8,0,0,1,2.708-2.44c3.113-1.511,6.462-2.555,9.393-4.4s5.49-4.731,5.757-8.181c.372-4.823-4.074-9.024-8.847-9.806s-13.764,3.545-13.764,3.545l-1.661.637S363.806,227.858,360.1,224.384Z" transform="translate(-360.096 -204.275)"/></g><g transform="translate(0)"><path class="ad" d="M342.243,212.854c1.388-2.047,13.655-19.514,34.938-20.094,10.354-.282,28.831,3.269,34.008,17.316,4.865,13.2-3.483,31.686-21.954,39.882a34.547,34.547,0,0,1,4.2,7.507l-16.8,9.751c-4.189-6.554-13.746-23.874-13.746-23.874s9.17-5,12.1-6.836,5.49-4.731,5.757-8.18c.372-4.823-4.074-9.025-8.847-9.807s-13.764,3.545-13.764,3.545l-1.689.689S345.953,216.329,342.243,212.854Z" transform="translate(-342.243 -192.745)"/><path class="ae" d="M474.691,388.821l-11.075,14.027a11.223,11.223,0,0,1,11.075-14.027Z" transform="translate(-413.195 -307.704)"/><path class="af" d="M474.6,384.479l5.332,4.21a11.226,11.226,0,0,1-13.914,17.622l-5.332-4.21Z" transform="translate(-411.689 -305.159)"/><circle class="ag" cx="11.226" cy="11.226" r="11.226" transform="translate(44.73 76.905)"/></g><path class="ah" d="M432.769,364.073l-7.386-4.77,16.492-9.494,7.693,4.513Z" transform="translate(-390.988 -284.832)"/><path class="ai" d="M473.686,342.571" transform="translate(-419.308 -280.588)"/><path class="ai" d="M455.833,331.042" transform="translate(-408.841 -273.829)"/></g><path class="w" d="M697.25,471.7c4.74-1.435,14.231-3.875,18.5-1.9a.268.268,0,0,0,.28-.45c-2.258-2.026-7.512-3.973-18.971,1.855A.269.269,0,0,0,697.25,471.7Z" transform="translate(-245.102 -230.132)"/></g></svg>