<svg xmlns="http://www.w3.org/2000/svg" width="603" height="610.5" viewBox="0 0 603 610.5"><defs><style>.a{fill:#fff;}.b,.c{fill:none;stroke-miterlimit:10;stroke-width:25px;}.b{stroke:#e8e8e8;}.c{stroke:#f19840;}.d{fill:#e8e8e8;}.e{fill:#f19840;}.f{fill:#0099b9;}</style></defs><g transform="translate(-1064 -746.287)"><ellipse class="a" cx="282" cy="281.5" rx="282" ry="281.5" transform="translate(1082 781.287)"/><ellipse class="a" cx="282" cy="281.5" rx="282" ry="281.5" transform="translate(1082 781.287)"/><ellipse class="b" cx="282" cy="281.5" rx="282" ry="281.5" transform="translate(1082 781.287)"/><path class="c" d="M2708.5,146c155.131,0,280.889,125.758,280.889,280.889A280.488,280.488,0,0,1,2875.16,653.017" transform="translate(-1344.558 635.286)"/><circle class="d" cx="35" cy="35" r="35" transform="translate(1330 746.287)"/><circle class="e" cx="34.5" cy="34.5" r="34.5" transform="translate(1598 940.287)"/><circle class="e" cx="34.5" cy="34.5" r="34.5" transform="translate(1496 1256.287)"/><circle class="d" cx="34.5" cy="34.5" r="34.5" transform="translate(1165 1257.287)"/><ellipse class="d" cx="34" cy="34.5" rx="34" ry="34.5" transform="translate(1064 941.287)"/><g transform="translate(1609.601 957.636)"><path class="a" d="M3087.836,401.84c-7.579,0-15.77,2.078-15.77,6.683l.407,3.26c-5.828,3.83-8.517,7.784-7.294,11,.652,1.752,2.649,3.83,8.435,3.83h.693l.734,5.746c.162,3.83,6.52,5.542,12.795,5.542s12.633-1.712,12.8-5.542l2.935-23.513V408.6C3103.608,403.959,3095.417,401.84,3087.836,401.84Zm0,3.912c7.335,0,11.329,1.916,11.818,2.771-.448.856-4.4,2.812-11.818,2.812s-11.369-1.956-11.818-2.812C3076.508,407.667,3080.5,405.752,3087.836,405.752ZM3068.806,421.4c-.244-.611.612-2.608,4.2-5.257l.815,6.561C3070.559,422.7,3069.01,421.971,3068.806,421.4Zm19.031,12.551c-5.3,0-8.395-1.345-8.924-1.956l-.733-5.787a48.5,48.5,0,0,0,7.335-1.712,3.707,3.707,0,0,0,2.282.815,3.667,3.667,0,1,0-3.546-4.523,44.511,44.511,0,0,1-6.561,1.549l-1.141-8.924a35.413,35.413,0,0,0,22.495,0L3096.721,432C3096.231,432.607,3093.134,433.952,3087.836,433.952Z" transform="translate(-3064.89 -401.84)"/></g><g transform="translate(1342.153 763.943)"><path class="a" d="M2699.836,120.84c-7.579,0-15.77,2.078-15.77,6.683l.407,3.26c-5.828,3.83-8.517,7.784-7.294,11,.652,1.752,2.648,3.83,8.435,3.83h.692l.734,5.746c.163,3.83,6.521,5.542,12.8,5.542s12.633-1.712,12.8-5.542l2.935-23.513V127.6C2715.607,122.959,2707.417,120.84,2699.836,120.84Zm0,3.912c7.335,0,11.329,1.916,11.818,2.771-.448.856-4.4,2.812-11.818,2.812s-11.369-1.956-11.818-2.812C2688.508,126.667,2692.5,124.752,2699.836,124.752ZM2680.806,140.4c-.244-.611.611-2.608,4.2-5.257l.814,6.561C2682.559,141.7,2681.01,140.971,2680.806,140.4Zm19.031,12.551c-5.3,0-8.4-1.345-8.924-1.956l-.733-5.787a48.5,48.5,0,0,0,7.335-1.712,3.708,3.708,0,0,0,2.283.815,3.667,3.667,0,1,0-3.546-4.523,44.506,44.506,0,0,1-6.561,1.549l-1.141-8.924a35.414,35.414,0,0,0,22.495,0L2708.721,151C2708.231,151.607,2705.134,152.952,2699.836,152.952Z" transform="translate(-2676.89 -120.84)"/></g><g transform="translate(1074.705 958.325)"><path class="a" d="M2311.837,402.84c-7.579,0-15.77,2.078-15.77,6.683l.407,3.26c-5.827,3.83-8.517,7.784-7.294,11,.652,1.752,2.649,3.83,8.435,3.83h.692l.734,5.746c.163,3.83,6.52,5.542,12.8,5.542s12.633-1.712,12.8-5.542l2.934-23.513V409.6C2327.607,404.959,2319.416,402.84,2311.837,402.84Zm0,3.912c7.335,0,11.329,1.916,11.817,2.771-.448.856-4.4,2.812-11.817,2.812s-11.369-1.956-11.818-2.812C2300.508,408.667,2304.5,406.752,2311.837,406.752ZM2292.806,422.4c-.244-.611.612-2.608,4.2-5.257l.815,6.561C2294.559,423.7,2293.01,422.971,2292.806,422.4Zm19.031,12.551c-5.3,0-8.4-1.345-8.924-1.956l-.733-5.787a48.5,48.5,0,0,0,7.335-1.711,3.709,3.709,0,0,0,2.282.815,3.668,3.668,0,1,0-3.546-4.523,44.507,44.507,0,0,1-6.561,1.549l-1.141-8.924a35.413,35.413,0,0,0,22.495,0L2320.72,433C2320.231,433.607,2317.134,434.952,2311.837,434.952Z" transform="translate(-2288.89 -402.84)"/></g><g transform="translate(1176.722 1272.646)"><path class="a" d="M2459.837,858.84c-7.58,0-15.771,2.078-15.771,6.683l.407,3.26c-5.827,3.83-8.517,7.784-7.294,11,.652,1.752,2.649,3.83,8.435,3.83h.693l.734,5.746c.163,3.831,6.52,5.542,12.8,5.542s12.633-1.711,12.8-5.542l2.934-23.513V865.6C2475.607,860.959,2467.416,858.84,2459.837,858.84Zm0,3.912c7.335,0,11.329,1.915,11.817,2.771-.448.856-4.4,2.812-11.817,2.812s-11.369-1.956-11.818-2.812C2448.508,864.667,2452.5,862.752,2459.837,862.752ZM2440.806,878.4c-.244-.611.611-2.608,4.2-5.256l.815,6.561C2442.559,879.7,2441.01,878.971,2440.806,878.4Zm19.031,12.552c-5.3,0-8.4-1.345-8.924-1.956l-.733-5.787a48.515,48.515,0,0,0,7.335-1.712,3.709,3.709,0,0,0,2.282.815,3.667,3.667,0,1,0-3.546-4.523,44.508,44.508,0,0,1-6.561,1.549l-1.141-8.924a35.414,35.414,0,0,0,22.495,0L2468.72,889C2468.231,889.607,2465.134,890.952,2459.837,890.952Z" transform="translate(-2436.89 -858.84)"/></g><g transform="translate(1507.585 1271.956)"><path class="a" d="M2939.836,857.84c-7.579,0-15.77,2.078-15.77,6.683l.407,3.26c-5.827,3.83-8.517,7.784-7.294,11,.652,1.752,2.649,3.831,8.435,3.831h.693l.734,5.746c.163,3.831,6.52,5.542,12.8,5.542s12.633-1.712,12.8-5.542l2.935-23.513V864.6C2955.607,859.959,2947.416,857.84,2939.836,857.84Zm0,3.912c7.335,0,11.329,1.915,11.818,2.771-.448.856-4.4,2.812-11.818,2.812s-11.369-1.956-11.818-2.812C2928.508,863.667,2932.5,861.752,2939.836,861.752ZM2920.806,877.4c-.244-.611.612-2.608,4.2-5.256l.814,6.561C2922.559,878.7,2921.01,877.971,2920.806,877.4Zm19.031,12.552c-5.3,0-8.395-1.345-8.924-1.956l-.733-5.787a48.528,48.528,0,0,0,7.335-1.712,3.707,3.707,0,0,0,2.282.815,3.667,3.667,0,1,0-3.546-4.523,44.516,44.516,0,0,1-6.561,1.549l-1.141-8.924a35.415,35.415,0,0,0,22.495,0L2948.72,888C2948.231,888.607,2945.134,889.952,2939.836,889.952Z" transform="translate(-2916.89 -857.84)"/></g><g transform="translate(1273 940.833)"><path class="f" d="M236.821,466.743a9.98,9.98,0,0,1-7.81-.45c-4.053-1.982-8.127-6.312-10.86-12.075-4.585-9.664-.891-28.6-.891-28.6s17.734,8.8,21.584,18.78C244.2,458.295,237.892,466.349,236.821,466.743Z" transform="translate(-181.762 -412.197)"/><path class="f" d="M273.491,470.857a8.841,8.841,0,0,0,6.461,2.507c4-.108,8.87-2.1,13.192-5.74,7.248-6.1,11.228-22.721,11.228-22.721s-17.528.574-24.3,7.2C270.649,461.333,272.773,470.144,273.491,470.857Z" transform="translate(-122.858 -392.246)"/><path class="f" d="M260.026,461.014a3.245,3.245,0,0,0,1.878,1.723,10.428,10.428,0,0,0,5.995.153c3.319-1.1,6.461-5.761,6.461-5.761s-6.046-2.151-9.275-.812C260.592,458.181,259.875,460.676,260.026,461.014Z" transform="translate(-136.068 -380.887)"/><path class="f" d="M244.732,459.879a5.22,5.22,0,0,0,2.68-3.105,13.581,13.581,0,0,0-.543-8.549c-1.933-5.295-9.9-10.9-9.9-10.9s-3.63,9.928-1.31,15.062C238.886,459.537,244.2,460.138,244.732,459.879Z" transform="translate(-162.07 -400.085)"/><path class="f" d="M248.239,482.754a5.236,5.236,0,0,1-1.561-3.8,13.586,13.586,0,0,1,3.221-7.938c3.508-4.412,12.057-6.52,12.057-6.52s1.087,9.879-2.737,14.016C253.894,484.278,248.668,483.167,248.239,482.754Z" transform="translate(-149.863 -371.963)"/><path class="f" d="M257.725,444.575a5.925,5.925,0,0,1-4.322-1.715,15.4,15.4,0,0,1-3.935-8.872c-.834-6.335,4.178-14.962,4.178-14.962s8.909,6.89,9.271,13.265C263.419,441.164,258.4,444.55,257.725,444.575Z" transform="translate(-147.073 -419.025)"/><path class="f" d="M249.732,460.8a4.674,4.674,0,0,1-2.413-2.759,11.577,11.577,0,0,1-.181-7.6c1.7-4.741,7.692-10.071,7.692-10.071s3.883,8.711,1.842,13.31C253.828,460.074,250.214,461.022,249.732,460.8Z" transform="translate(-149.975 -396.944)"/><path class="f" d="M255.748,437.845a3.228,3.228,0,0,1-2.206,1.245,8.011,8.011,0,0,1-5.173-.946c-2.967-1.815-5.73-6.621-5.73-6.621s6.438-1.4,9.263.627C255.835,434.972,255.967,437.552,255.748,437.845Z" transform="translate(-154.043 -406.58)"/><path class="f" d="M258.378,443.941a3.236,3.236,0,0,0,2.5.393,8.011,8.011,0,0,0,4.511-2.7c2.145-2.739,3.046-8.208,3.046-8.208s-6.522.944-8.457,3.834C257.287,441.282,258.068,443.744,258.378,443.941Z" transform="translate(-138.115 -404.125)"/><path class="f" d="M266.269,454.35a5.743,5.743,0,0,0,4.393.965,13.888,13.888,0,0,0,7.643-5.038c3.84-4.672,4.328-15.793,4.328-15.793s-11.019,2.145-14.492,7.106C263.306,448.5,265.728,453.964,266.269,454.35Z" transform="translate(-130.712 -403.027)"/><path class="f" d="M234.656,491.9s3.16,16.435,6.953,12.01c3.429-4,19.724-43.973,22.253-57.739C258.8,462.749,234.656,491.9,234.656,491.9Z" transform="translate(-162.304 -390.93)"/><path class="f" d="M252.721,468.967s-12.923-18.354-14.4-24.691c.615,4.259,3.341,20.963,9.554,31.013Z" transform="translate(-158.512 -392.894)"/><path class="f" d="M247.268,483.351s.342-.224.973-.645c6.009-4.013,38.2-25.9,50.019-41.918,0,0-22.756,41.3-58.156,54.363" transform="translate(-156.667 -396.503)"/><path class="f" d="M253.268,460.033s20.79-.562,25.847-3.091c0,0-15.591,11.167-28.657,7.8Z" transform="translate(-145.951 -379.786)"/><path class="f" d="M238.862,497.557s20.178-24.516,24.164-28.327c0,0-16.629,29.461-20.528,33.992S238.862,497.557,238.862,497.557Z" transform="translate(-157.955 -367.07)"/><path class="f" d="M266.705,475.867S259.4,464.98,253.22,426.981c0,0,2.246,37.366,8.99,52.538Z" transform="translate(-143.093 -410.792)"/><path class="f" d="M263.834,441.534c-6.027-2.625-14.254-6.422-17.41-8.89a76.774,76.774,0,0,0,17.41,10.752Z" transform="translate(-150.126 -404.931)"/><path class="f" d="M220.736,466.624a4.209,4.209,0,0,1-3.3-.181,10.451,10.451,0,0,1-5.032-4.682c-1.994-4.088-1.654-11.328-1.654-11.328s8.08,2.987,9.765,7.209C222.857,463.521,221.186,466.456,220.736,466.624Z" transform="translate(-187.071 -386.522)"/><path class="f" d="M226.87,476.643c-4.794-7.132-11.184-17.107-12.923-22.046a100.225,100.225,0,0,0,11.613,24.1Z" transform="translate(-183.735 -382.213)"/><path class="f" d="M263.488,436.806c-1.587,3.309-5.791,7.916-7.625,9.841h.749v.952C258.645,445.185,262.346,440.64,263.488,436.806Z" transform="translate(-140.358 -400.624)"/><path class="f" d="M219.844,464.12a2.224,2.224,0,0,0,1.724.271,5.525,5.525,0,0,0,3.107-1.86c1.475-1.888,2.1-5.655,2.1-5.655s-4.493.651-5.824,2.641C219.093,462.289,219.63,463.984,219.844,464.12Z" transform="translate(-177.881 -379.854)"/><path class="f" d="M223.363,459.206c-1.095,2.279-3.988,5.452-5.25,6.778h.515v.655C220.026,464.977,222.578,461.847,223.363,459.206Z" transform="translate(-179.424 -377.443)"/><path class="f" d="M278.268,631.169c-2.365-15.915-4.833-32.822-4.1-48.951.7-15.508,6.577-27.021,14.525-39.928,5.236-8.5,10-17.41,15.213-25.965q13.339-21.867,27.259-43.373.6-.922,1.192-1.844c-17.543,7.676-56,61.461-65.9,75.6q-.6-2.03-1.2-4.066c-5.736-19.5-12.032-38.864-19.524-57.772-6.035-15.235-12.608-31.95-23.564-44.431,10.785,32.723,20.534,66.044,27.766,99.737a309.172,309.172,0,0,1,6.18,47.972c.747,13.615,1.652,27.328.012,40.917-.741,6.149-3.651,24.16-12.429,24.16h46.558C282.344,653.225,279.106,636.81,278.268,631.169Z" transform="translate(-175.224 -396.86)"/><path class="f" d="M224.76,473.786a5.265,5.265,0,0,1-.35,4.115,13.436,13.436,0,0,1-6.528,5.547c-5.164,2.273-14.787.36-14.787.36s4.589-9.55,9.908-11.428C220.41,469.764,224.567,473.217,224.76,473.786Z" transform="translate(-194.966 -364.811)"/><path class="f" d="M236.237,493.866a7.5,7.5,0,0,0-1.308-5.74c-1.976-2.759-5.7-5.242-10.317-6.552-7.745-2.194-21.333,2.91-21.333,2.91s8.746,12.063,16.631,13.672C230.889,500.4,236.078,494.711,236.237,493.866Z" transform="translate(-194.776 -354.863)"/><path class="f" d="M217.141,475.347a6.338,6.338,0,0,0,1.8-4.635,16.486,16.486,0,0,0-4.1-9.537c-4.363-5.256-15.738-8.408-15.738-8.408s-.106,12.807,4.633,17.726C210.328,477.337,216.632,475.86,217.141,475.347Z" transform="translate(-199.1 -384.108)"/><path class="f" d="M273.048,483.464a5.74,5.74,0,0,0,4.391.965,13.885,13.885,0,0,0,7.645-5.038c3.838-4.67,4.328-15.79,4.328-15.79s-11.019,2.143-14.492,7.1C270.085,477.61,272.507,483.08,273.048,483.464Z" transform="translate(-123.697 -372.896)"/><path class="f" d="M262.078,477.345c-1.9,0-46.147-6.743-58.158-18.122,0,0,6.744,19.807,62.373,26.972Z" transform="translate(-194.112 -377.426)"/><path class="f" d="M225.955,467.508s-12.643,13.906-16.857,14.749c0,0,17.278-5.057,23.179-11.379Z" transform="translate(-188.753 -368.852)"/><path class="f" d="M264.481,493.469s-42.35-5.057-51.832-9.48c0,0,27.894,19.28,52.337,20.125Z" transform="translate(-185.078 -351.796)"/><path class="f" d="M268,496.8a7.5,7.5,0,0,1,2.576-5.293c2.552-2.24,6.742-3.813,11.536-4.041,8.04-.38,20.115,7.676,20.115,7.676s-11.253,9.761-19.3,9.542C271.724,504.377,267.96,497.658,268,496.8Z" transform="translate(-127.8 -348.21)"/><path class="f" d="M251.017,489.094s42.394,4.686,52.634,2.529c0,0-31.543,12.449-55.538,7.722Z" transform="translate(-148.378 -346.513)"/><path class="f" d="M262.422,489.3s22.335-5.9,33.923-20.859c0,0-8.217,23.81-39.613,29.5Z" transform="translate(-139.459 -367.887)"/><path class="f" d="M257.314,542.869a23.542,23.542,0,0,0-1.463,2.684,23.046,23.046,0,0,1-5.114,5.641,20.68,20.68,0,0,1-8.874,4.049c-7.315,1.427-15.968,2.574-19.624,10.536.474-1.034,5.167-2.285,6.357-2.714a42.716,42.716,0,0,1,7.307-1.972c4.418-.751,10,.332,14.032-1.96.875-.5.842,2.308.739,2.568-1.894,4.764-11.3,5.27-15.524,7.081a52.982,52.982,0,0,0-8.97,4.851,35.645,35.645,0,0,0-4.363,3.469c-1.292,1.219-2.287,3.158-3.626,4.222a40.9,40.9,0,0,1,9.427-5.61c6.013-2.533,12.938-4.11,19.223-6.072a22.639,22.639,0,0,0,6.955-3.034c1.931-1.443,2.9-4.515,4.967-5.582,0,0,7.452-6.361,22.158-.678,0,0,8.308,2.883,20.426,19.516l3.982,4.92c-.256-.315-.1-1.955-.145-2.371a24.485,24.485,0,0,0-1.591-6.18c-1.734-4.342-4.816-7.834-7.973-11.2-.767-.818-8.825-8.377-8.815-8.422.749-2.991,10.024-.918,11.54-.741,8.028.932,16.084,1.591,24.148,2.092q2.9.18,5.807.336c1.551.083,6.271.313,6.312.315-.238-.01-.79-1.225-1-1.437a8.928,8.928,0,0,0-2.782-1.618,24.582,24.582,0,0,0-6.219-1.528c-5.173-.72-10.408-.871-15.605-1.41-3.653-.379-7.273-.969-10.87-1.705a24.331,24.331,0,0,1-7.781-2.7,17.976,17.976,0,0,1-4.212-2.9c-.421-.393-2.824-2.517-3.917-7.875C282.225,537.45,257.347,542.867,257.314,542.869Z" transform="translate(-179.342 -296.471)"/></g></g></svg>