<svg xmlns="http://www.w3.org/2000/svg" width="603" height="610.5" viewBox="0 0 603 610.5">
  <g id="bucket-3" transform="translate(-2463 -521)">
    <g id="Group_60" data-name="Group 60" transform="translate(23 691)">
      <path id="Intersection_1" data-name="Intersection 1" d="M235.547,584.007a293.034,293.034,0,0,1-89.772-34.481l.315-1.3,9.126-21.135a270.558,270.558,0,0,0,282.707-1.928l14.43,19.406a295.925,295.925,0,0,1-216.807,39.434Z" transform="translate(2445 -150)" fill="#f19840"/>
      <g id="Group_57" data-name="Group 57" transform="translate(0 12)">
        <path id="Path_361" data-name="Path 361" d="M282,0C437.744,0,564,126.032,564,281.5S437.744,563,282,563A281.7,281.7,0,0,1,0,281.5C0,126.032,126.256,0,282,0Z" transform="translate(2458 -147)" fill="none" stroke="#e8e8e8" stroke-width="25"/>
        <path id="Path_363" data-name="Path 363" d="M282,0C437.744,0,564,126.032,564,281.5S437.744,563,282,563A281.7,281.7,0,0,1,0,281.5C0,126.032,126.256,0,282,0Z" transform="translate(2458 -147)" fill="#fff" stroke="#e8e8e8" stroke-width="25"/>
        <path id="Path_320" data-name="Path 320" d="M2708.5,146c155.131,0,280.889,125.758,280.889,280.889A280.444,280.444,0,0,1,2875.16,653.017" transform="translate(31.442 -293.001)" fill="none" stroke="#f19840" stroke-miterlimit="10" stroke-width="25"/>
        <circle id="Ellipse_4" data-name="Ellipse 4" cx="35" cy="35" r="35" transform="translate(2706 -182)" fill="#f19840"/>
        <circle id="Ellipse_5" data-name="Ellipse 5" cx="34.5" cy="34.5" r="34.5" transform="translate(2974 12)" fill="#f19840"/>
        <circle id="Ellipse_6" data-name="Ellipse 6" cx="34.5" cy="34.5" r="34.5" transform="translate(2872 328)" fill="#f19840"/>
        <ellipse id="Ellipse_8" data-name="Ellipse 8" cx="34" cy="34.5" rx="34" ry="34.5" transform="translate(2440 13)" fill="#e8e8e8"/>
        <g id="Group_51" data-name="Group 51" transform="translate(2985.601 29.349)">
          <path id="Path_321" data-name="Path 321" d="M3087.84,401.84c-7.579,0-15.77,2.078-15.77,6.683l.407,3.26c-5.828,3.83-8.517,7.784-7.294,11,.652,1.752,2.649,3.83,8.435,3.83h.693l.734,5.746c.162,3.83,6.52,5.542,12.795,5.542s12.633-1.712,12.8-5.542l2.935-23.513V408.6C3103.61,403.959,3095.42,401.84,3087.84,401.84Zm0,3.912c7.335,0,11.329,1.916,11.818,2.771-.448.856-4.4,2.812-11.818,2.812s-11.369-1.956-11.818-2.812c.488-.856,4.478-2.771,11.818-2.771ZM3068.81,421.4c-.244-.611.612-2.608,4.2-5.257l.815,6.561C3070.56,422.7,3069.01,421.971,3068.81,421.4Zm19.031,12.551c-5.3,0-8.4-1.345-8.924-1.956l-.733-5.787a48.5,48.5,0,0,0,7.335-1.712,3.707,3.707,0,0,0,2.282.815,3.667,3.667,0,1,0-3.546-4.523,44.492,44.492,0,0,1-6.561,1.549l-1.141-8.924a35.413,35.413,0,0,0,22.5,0L3096.72,432c-.49.607-3.59,1.952-8.88,1.952Z" transform="translate(-3064.89 -401.84)" fill="#fff"/>
        </g>
        <g id="Group_52" data-name="Group 52" transform="translate(2718.153 -164.344)">
          <path id="Path_322" data-name="Path 322" d="M2699.84,120.84c-7.579,0-15.77,2.078-15.77,6.683l.407,3.26c-5.828,3.83-8.517,7.784-7.294,11,.652,1.752,2.648,3.83,8.435,3.83h.692l.734,5.746c.163,3.83,6.521,5.542,12.8,5.542s12.633-1.712,12.8-5.542l2.935-23.513V127.6C2715.61,122.959,2707.42,120.84,2699.84,120.84Zm0,3.912c7.335,0,11.329,1.916,11.818,2.771-.448.856-4.4,2.812-11.818,2.812s-11.369-1.956-11.818-2.812C2688.51,126.667,2692.5,124.752,2699.84,124.752ZM2680.81,140.4c-.244-.611.611-2.608,4.2-5.257l.814,6.561C2682.56,141.7,2681.01,140.971,2680.81,140.4Zm19.031,12.551c-5.3,0-8.4-1.345-8.924-1.956l-.733-5.787a48.5,48.5,0,0,0,7.335-1.712,3.707,3.707,0,0,0,2.283.815,3.667,3.667,0,1,0-3.546-4.523,44.494,44.494,0,0,1-6.561,1.549l-1.141-8.924a35.414,35.414,0,0,0,22.5,0L2708.72,151c-.49.607-3.59,1.952-8.88,1.952Z" transform="translate(-2676.89 -120.84)" fill="#fff"/>
        </g>
        <g id="Group_53" data-name="Group 53" transform="translate(2450.705 30.038)">
          <path id="Path_323" data-name="Path 323" d="M2311.84,402.84c-7.579,0-15.77,2.078-15.77,6.683l.407,3.26c-5.827,3.83-8.517,7.784-7.294,11,.652,1.752,2.649,3.83,8.435,3.83h.692l.734,5.746c.163,3.83,6.52,5.542,12.8,5.542s12.633-1.712,12.8-5.542l2.934-23.513V409.6C2327.61,404.959,2319.42,402.84,2311.84,402.84Zm0,3.912c7.335,0,11.329,1.916,11.817,2.771-.448.856-4.4,2.812-11.817,2.812s-11.369-1.956-11.818-2.812c.488-.856,4.478-2.771,11.818-2.771ZM2292.81,422.4c-.244-.611.612-2.608,4.2-5.257l.815,6.561C2294.56,423.7,2293.01,422.971,2292.81,422.4Zm19.031,12.551c-5.3,0-8.4-1.345-8.924-1.956l-.733-5.787a48.509,48.509,0,0,0,7.335-1.711,3.709,3.709,0,0,0,2.282.815,3.668,3.668,0,1,0-3.546-4.523,44.514,44.514,0,0,1-6.561,1.549l-1.141-8.924a35.413,35.413,0,0,0,22.5,0L2320.72,433c-.49.607-3.59,1.952-8.88,1.952Z" transform="translate(-2288.89 -402.84)" fill="#fff"/>
        </g>
        <g id="Group_55" data-name="Group 55" transform="translate(2883.585 343.669)">
          <path id="Path_325" data-name="Path 325" d="M2939.84,857.84c-7.579,0-15.77,2.078-15.77,6.683l.407,3.26c-5.827,3.83-8.517,7.784-7.294,11,.652,1.752,2.649,3.831,8.435,3.831h.693l.734,5.746c.163,3.831,6.52,5.542,12.8,5.542s12.633-1.712,12.8-5.542l2.935-23.513V864.6C2955.61,859.959,2947.42,857.84,2939.84,857.84Zm0,3.912c7.335,0,11.329,1.915,11.818,2.771-.448.856-4.4,2.812-11.818,2.812s-11.369-1.956-11.818-2.812C2928.51,863.667,2932.5,861.752,2939.84,861.752ZM2920.81,877.4c-.244-.611.612-2.608,4.2-5.256l.814,6.561C2922.56,878.7,2921.01,877.971,2920.81,877.4Zm19.031,12.552c-5.3,0-8.4-1.345-8.924-1.956l-.733-5.787a48.537,48.537,0,0,0,7.335-1.712,3.707,3.707,0,0,0,2.282.815,3.667,3.667,0,1,0-3.546-4.523,44.523,44.523,0,0,1-6.561,1.549l-1.141-8.924a35.414,35.414,0,0,0,22.495,0L2948.72,888c-.49.607-3.59,1.952-8.88,1.952Z" transform="translate(-2916.89 -857.84)" fill="#fff"/>
        </g>
        <g id="Group_64" data-name="Group 64">
          <circle id="Ellipse_7" data-name="Ellipse 7" cx="34.5" cy="34.5" r="34.5" transform="translate(2541 329)" fill="#e8e8e8"/>
          <g id="Group_54" data-name="Group 54" transform="translate(2552.722 344.359)">
            <path id="Path_324" data-name="Path 324" d="M2459.84,858.84c-7.58,0-15.771,2.078-15.771,6.683l.407,3.26c-5.827,3.83-8.517,7.784-7.294,11,.652,1.752,2.649,3.83,8.435,3.83h.693l.734,5.746c.163,3.831,6.52,5.542,12.8,5.542s12.633-1.711,12.8-5.542l2.934-23.513V865.6C2475.61,860.959,2467.42,858.84,2459.84,858.84Zm0,3.912c7.335,0,11.329,1.915,11.817,2.771-.448.856-4.4,2.812-11.817,2.812s-11.369-1.956-11.818-2.812C2448.51,864.667,2452.5,862.752,2459.84,862.752ZM2440.81,878.4c-.244-.611.611-2.608,4.2-5.256l.815,6.561C2442.56,879.7,2441.01,878.971,2440.81,878.4Zm19.031,12.552c-5.3,0-8.4-1.345-8.924-1.956l-.733-5.787a48.508,48.508,0,0,0,7.335-1.712,3.709,3.709,0,0,0,2.282.815,3.667,3.667,0,1,0-3.546-4.523,44.507,44.507,0,0,1-6.561,1.549l-1.141-8.924a35.414,35.414,0,0,0,22.5,0L2468.72,889c-.49.607-3.59,1.952-8.88,1.952Z" transform="translate(-2436.89 -858.84)" fill="#fff"/>
          </g>
        </g>
      </g>
    </g>
    <g id="Group_17185" data-name="Group 17185" transform="translate(2670 676.001)">
      <path id="Path_286" data-name="Path 286" d="M237.6,468.277a10.352,10.352,0,0,1-8.1-.466,26.469,26.469,0,0,1-11.265-12.526c-4.756-10.024-.924-29.662-.924-29.662s18.4,9.13,22.389,19.481C245.26,459.513,238.714,467.868,237.6,468.277Z" transform="translate(-180.49 -411.696)" fill="#0099b9"/>
      <path id="Path_287" data-name="Path 287" d="M273.518,471.826a9.171,9.171,0,0,0,6.708,2.6,23.466,23.466,0,0,0,13.685-5.955c7.518-6.333,11.647-23.569,11.647-23.569s-18.183.6-25.2,7.471C270.569,461.946,272.773,471.086,273.518,471.826Z" transform="translate(-117.264 -390.281)" fill="#0099b9"/>
      <path id="Path_288" data-name="Path 288" d="M260.027,461.205a3.366,3.366,0,0,0,1.949,1.788,10.817,10.817,0,0,0,6.219.158c3.443-1.137,6.708-5.975,6.708-5.975s-6.271-2.23-9.621-.839C260.613,458.262,259.871,460.855,260.027,461.205Z" transform="translate(-131.445 -378.088)" fill="#0099b9"/>
      <path id="Path_289" data-name="Path 289" d="M245.1,460.721a5.413,5.413,0,0,0,2.781-3.222,14.087,14.087,0,0,0-.563-8.868c-2.013-5.492-10.27-11.305-10.27-11.305s-3.765,10.3-1.36,15.624C239.035,460.367,244.543,460.989,245.1,460.721Z" transform="translate(-159.353 -398.696)" fill="#0099b9"/>
      <path id="Path_290" data-name="Path 290" d="M248.3,483.435a5.432,5.432,0,0,1-1.618-3.936,14.088,14.088,0,0,1,3.341-8.234c3.639-4.577,12.506-6.764,12.506-6.764s1.127,10.248-2.839,14.538C254.163,485.016,248.743,483.863,248.3,483.435Z" transform="translate(-146.251 -368.51)" fill="#0099b9"/>
      <path id="Path_291" data-name="Path 291" d="M258.036,445.528a6.147,6.147,0,0,1-4.483-1.779,15.971,15.971,0,0,1-4.082-9.2c-.865-6.571,4.333-15.521,4.333-15.521s9.241,7.148,9.616,13.752C263.943,441.991,258.737,445.5,258.036,445.528Z" transform="translate(-143.256 -419.025)" fill="#0099b9"/>
      <path id="Path_292" data-name="Path 292" d="M249.845,461.555a4.848,4.848,0,0,1-2.5-2.863,12.01,12.01,0,0,1-.188-7.882c1.761-4.919,7.979-10.446,7.979-10.446s4.025,9.036,1.91,13.807C254.093,460.807,250.344,461.792,249.845,461.555Z" transform="translate(-146.365 -395.323)" fill="#0099b9"/>
      <path id="Path_293" data-name="Path 293" d="M256.237,438.1a3.354,3.354,0,0,1-2.287,1.291,8.31,8.31,0,0,1-5.367-.981c-3.077-1.883-5.943-6.876-5.943-6.876s6.678-1.454,9.608.651C256.325,435.121,256.465,437.8,256.237,438.1Z" transform="translate(-150.738 -405.67)" fill="#0099b9"/>
      <path id="Path_294" data-name="Path 294" d="M258.39,444.334a3.354,3.354,0,0,0,2.594.408,8.31,8.31,0,0,0,4.679-2.8c2.225-2.841,3.16-8.514,3.16-8.514s-6.765.979-8.773,3.976C257.258,441.575,258.07,444.129,258.39,444.334Z" transform="translate(-133.641 -403.031)" fill="#0099b9"/>
      <path id="Path_295" data-name="Path 295" d="M266.31,455.089a5.957,5.957,0,0,0,4.557,1.006,14.406,14.406,0,0,0,7.927-5.226c3.983-4.847,4.489-16.382,4.489-16.382s-11.429,2.225-15.033,7.379C263.236,449.016,265.748,454.688,266.31,455.089Z" transform="translate(-125.695 -401.85)" fill="#0099b9"/>
      <path id="Path_296" data-name="Path 296" d="M234.656,493.609s3.279,17.049,7.211,12.457c3.557-4.147,20.46-45.616,23.083-59.893C259.7,463.368,234.656,493.609,234.656,493.609Z" transform="translate(-159.604 -388.869)" fill="#0099b9"/>
      <path id="Path_297" data-name="Path 297" d="M253.258,469.888s-13.406-19.04-14.938-25.612c.637,4.417,3.466,21.745,9.91,32.171Z" transform="translate(-155.535 -390.975)" fill="#0099b9"/>
      <path id="Path_298" data-name="Path 298" d="M247.537,484.941s.354-.231,1.006-.671c6.234-4.163,39.622-26.867,51.885-43.483,0,0-23.6,42.84-60.327,56.391" transform="translate(-153.555 -394.852)" fill="#0099b9"/>
      <path id="Path_299" data-name="Path 299" d="M253.377,460.149s21.565-.582,26.811-3.207c0,0-16.174,11.583-29.726,8.087Z" transform="translate(-142.048 -376.907)" fill="#0099b9"/>
      <path id="Path_300" data-name="Path 300" d="M238.862,498.614s20.931-25.431,25.065-29.384c0,0-17.249,30.559-21.3,35.26S238.862,498.614,238.862,498.614Z" transform="translate(-154.937 -363.258)" fill="#0099b9"/>
      <path id="Path_301" data-name="Path 301" d="M267.208,477.69s-7.577-11.293-13.988-50.709c0,0,2.331,38.76,9.326,54.5Z" transform="translate(-138.984 -410.186)" fill="#0099b9"/>
      <path id="Path_302" data-name="Path 302" d="M264.484,441.867c-6.252-2.724-14.787-6.661-18.06-9.224a79.645,79.645,0,0,0,18.06,11.154Z" transform="translate(-146.533 -403.898)" fill="#0099b9"/>
      <path id="Path_303" data-name="Path 303" d="M221.11,467.231a4.36,4.36,0,0,1-3.428-.188,10.841,10.841,0,0,1-5.221-4.863c-2.068-4.24-1.716-11.751-1.716-11.751s8.385,3.1,10.129,7.478C223.309,464.011,221.577,467.055,221.11,467.231Z" transform="translate(-186.189 -384.139)" fill="#0099b9"/>
      <path id="Path_304" data-name="Path 304" d="M227.352,477.465c-4.972-7.4-11.6-17.745-13.406-22.868a103.965,103.965,0,0,0,12.046,24.988Z" transform="translate(-182.608 -379.511)" fill="#0099b9"/>
      <path id="Path_305" data-name="Path 305" d="M263.772,436.806a51.459,51.459,0,0,1-7.909,10.208h.776V448C258.749,445.5,262.588,440.782,263.772,436.806Z" transform="translate(-136.049 -399.273)" fill="#0099b9"/>
      <path id="Path_306" data-name="Path 306" d="M219.852,464.392a2.308,2.308,0,0,0,1.788.28,5.73,5.73,0,0,0,3.223-1.929,16.085,16.085,0,0,0,2.18-5.87s-4.661.671-6.037,2.74C219.074,462.492,219.63,464.25,219.852,464.392Z" transform="translate(-176.324 -376.982)" fill="#0099b9"/>
      <path id="Path_307" data-name="Path 307" d="M223.558,459.206a35.57,35.57,0,0,1-5.445,7.032h.533v.679a25.92,25.92,0,0,0,4.912-7.711Z" transform="translate(-177.981 -374.391)" fill="#0099b9"/>
      <path id="Path_308" data-name="Path 308" d="M280.361,638.287c-2.454-16.509-5.013-34.044-4.253-50.776.731-16.086,6.822-28.029,15.067-41.423,5.43-8.82,10.368-18.06,15.779-26.934q13.836-22.682,28.277-44.992.617-.956,1.238-1.912c-18.2,7.963-58.088,63.755-68.359,78.424l-1.243-4.218c-5.95-20.232-12.481-40.313-20.252-59.928-6.26-15.8-13.081-33.142-24.443-46.089a1007.017,1007.017,0,0,1,28.8,103.458,320.706,320.706,0,0,1,6.41,49.762c.775,14.124,1.714,28.342.013,42.445-.768,6.373-3.787,25.062-12.893,25.062h48.3C284.589,661.167,281.23,644.136,280.361,638.287Z" transform="translate(-173.472 -395.237)" fill="#0099b9"/>
      <path id="Path_309" data-name="Path 309" d="M225.573,473.875a5.46,5.46,0,0,1-.362,4.268,13.937,13.937,0,0,1-6.772,5.754c-5.357,2.358-15.338.374-15.338.374s4.759-9.906,10.277-11.853C221.045,469.7,225.365,473.283,225.573,473.875Z" transform="translate(-194.659 -360.833)" fill="#0099b9"/>
      <path id="Path_310" data-name="Path 310" d="M237.469,494.346a7.781,7.781,0,0,0-1.357-5.955,19.935,19.935,0,0,0-10.7-6.8c-8.033-2.276-22.137,3.019-22.137,3.019s9.073,12.513,17.252,14.183C231.922,501.121,237.3,495.221,237.469,494.346Z" transform="translate(-194.461 -350.155)" fill="#0099b9"/>
      <path id="Path_311" data-name="Path 311" d="M217.814,476.189a6.574,6.574,0,0,0,1.863-4.808,17.106,17.106,0,0,0-4.253-9.895c-4.528-5.452-16.324-8.721-16.324-8.721s-.109,13.286,4.806,18.387C210.747,478.254,217.286,476.721,217.814,476.189Z" transform="translate(-199.1 -381.546)" fill="#0099b9"/>
      <path id="Path_312" data-name="Path 312" d="M273.089,484.2a5.954,5.954,0,0,0,4.555,1.006,14.4,14.4,0,0,0,7.931-5.226c3.981-4.843,4.49-16.38,4.49-16.38s-11.429,2.222-15.033,7.369C270.013,478.131,272.528,483.8,273.089,484.2Z" transform="translate(-118.165 -369.509)" fill="#0099b9"/>
      <path id="Path_313" data-name="Path 313" d="M264.249,478.021c-1.967,0-47.868-6.995-60.329-18.8,0,0,7,20.547,64.7,27.978Z" transform="translate(-193.745 -374.373)" fill="#0099b9"/>
      <path id="Path_314" data-name="Path 314" d="M226.583,467.508s-13.115,14.423-17.485,15.3c0,0,17.923-5.246,24.044-11.8Z" transform="translate(-187.994 -365.17)" fill="#0099b9"/>
      <path id="Path_315" data-name="Path 315" d="M266.415,493.823s-43.929-5.246-53.766-9.834c0,0,28.934,20,54.29,20.876Z" transform="translate(-184.05 -346.864)" fill="#0099b9"/>
      <path id="Path_316" data-name="Path 316" d="M268,497.151a7.78,7.78,0,0,1,2.672-5.491,19.93,19.93,0,0,1,11.966-4.193c8.34-.394,20.864,7.963,20.864,7.963s-11.672,10.126-20.019,9.895C271.857,505.009,267.957,498.04,268,497.151Z" transform="translate(-122.567 -343.013)" fill="#0099b9"/>
      <path id="Path_317" data-name="Path 317" d="M251.125,489.094s43.976,4.863,54.6,2.623c0,0-32.719,12.913-57.61,8.01Z" transform="translate(-144.657 -341.192)" fill="#0099b9"/>
      <path id="Path_318" data-name="Path 318" d="M262.632,490.076s23.169-6.12,35.19-21.634c0,0-8.523,24.7-41.088,30.6Z" transform="translate(-135.082 -364.133)" fill="#0099b9"/>
      <path id="Path_319" data-name="Path 319" d="M258.77,543.069a24.416,24.416,0,0,0-1.509,2.784,23.909,23.909,0,0,1-5.3,5.851,21.452,21.452,0,0,1-9.205,4.193c-7.589,1.479-16.563,2.67-20.356,10.93.491-1.072,5.367-2.37,6.594-2.816a44.311,44.311,0,0,1,7.58-2.046c4.582-.778,10.368.344,14.555-2.032.907-.515.874,2.393.766,2.663-1.965,4.941-11.726,5.467-16.1,7.346a54.962,54.962,0,0,0-9.3,5.031,36.974,36.974,0,0,0-4.528,3.6c-1.342,1.264-2.373,3.275-3.762,4.38a42.425,42.425,0,0,1,9.779-5.819c6.237-2.628,13.416-4.263,19.94-6.3a23.477,23.477,0,0,0,7.211-3.148c2-1.5,3.009-4.684,5.152-5.789,0,0,7.73-6.6,22.984-.7,0,0,8.618,2.99,21.188,20.244l4.131,5.1c-.267-.335-.1-2.028-.149-2.459a25.4,25.4,0,0,0-1.65-6.41,38.182,38.182,0,0,0-8.27-11.615c-.795-.849-9.155-8.691-9.143-8.736.777-3.1,10.4-.953,11.971-.768,8.327.966,16.683,1.65,25.049,2.17q3.019.186,6.024.349c1.608.087,6.505.325,6.54.335-.246-.01-.818-1.271-1.041-1.491a9.261,9.261,0,0,0-2.886-1.677,25.487,25.487,0,0,0-6.45-1.585c-5.367-.748-10.8-.9-16.187-1.462-3.788-.392-7.547-1.006-11.277-1.769a25.237,25.237,0,0,1-8.072-2.8,18.649,18.649,0,0,1-4.369-3.005,14.328,14.328,0,0,1-4.063-8.169S258.8,543.069,258.77,543.069Z" transform="translate(-177.889 -287.479)" fill="#0099b9"/>
    </g>
  </g>
</svg>
