<svg xmlns="http://www.w3.org/2000/svg" width="603" height="610.5" viewBox="0 0 603 610.5">
  <g id="bucket-4" transform="translate(-2440 170)">
    <g id="Group_58" data-name="Group 58">
      <g id="Group_57" data-name="Group 57" transform="translate(0 12)">
        <path id="Path_361" data-name="Path 361" d="M282,0C437.744,0,564,126.032,564,281.5S437.744,563,282,563A281.7,281.7,0,0,1,0,281.5C0,126.032,126.256,0,282,0Z" transform="translate(2458 -147)" fill="none" stroke="#e8e8e8" stroke-width="25"/>
        <path id="Path_363" data-name="Path 363" d="M282,0C437.744,0,564,126.032,564,281.5S437.744,563,282,563A281.7,281.7,0,0,1,0,281.5C0,126.032,126.256,0,282,0Z" transform="translate(2458 -147)" fill="#fff" stroke="#e8e8e8" stroke-width="25"/>
        <path id="Path_320" data-name="Path 320" d="M2708.5,146c155.131,0,280.889,125.758,280.889,280.889A280.444,280.444,0,0,1,2875.16,653.017" transform="translate(31.442 -293.001)" fill="none" stroke="#f19840" stroke-miterlimit="10" stroke-width="25"/>
        <circle id="Ellipse_4" data-name="Ellipse 4" cx="35" cy="35" r="35" transform="translate(2706 -182)" fill="#f19840"/>
        <circle id="Ellipse_5" data-name="Ellipse 5" cx="34.5" cy="34.5" r="34.5" transform="translate(2974 12)" fill="#f19840"/>
        <circle id="Ellipse_6" data-name="Ellipse 6" cx="34.5" cy="34.5" r="34.5" transform="translate(2872 328)" fill="#f19840"/>
        <circle id="Ellipse_7" data-name="Ellipse 7" cx="34.5" cy="34.5" r="34.5" transform="translate(2541 329)" fill="#f19840"/>
        <g id="Group_51" data-name="Group 51" transform="translate(2985.601 29.349)">
          <path id="Path_321" data-name="Path 321" d="M3087.84,401.84c-7.579,0-15.77,2.078-15.77,6.683l.407,3.26c-5.828,3.83-8.517,7.784-7.294,11,.652,1.752,2.649,3.83,8.435,3.83h.693l.734,5.746c.162,3.83,6.52,5.542,12.795,5.542s12.633-1.712,12.8-5.542l2.935-23.513V408.6C3103.61,403.959,3095.42,401.84,3087.84,401.84Zm0,3.912c7.335,0,11.329,1.916,11.818,2.771-.448.856-4.4,2.812-11.818,2.812s-11.369-1.956-11.818-2.812c.488-.856,4.478-2.771,11.818-2.771ZM3068.81,421.4c-.244-.611.612-2.608,4.2-5.257l.815,6.561C3070.56,422.7,3069.01,421.971,3068.81,421.4Zm19.031,12.551c-5.3,0-8.4-1.345-8.924-1.956l-.733-5.787a48.5,48.5,0,0,0,7.335-1.712,3.707,3.707,0,0,0,2.282.815,3.667,3.667,0,1,0-3.546-4.523,44.492,44.492,0,0,1-6.561,1.549l-1.141-8.924a35.413,35.413,0,0,0,22.5,0L3096.72,432c-.49.607-3.59,1.952-8.88,1.952Z" transform="translate(-3064.89 -401.84)" fill="#fff"/>
        </g>
        <g id="Group_52" data-name="Group 52" transform="translate(2718.153 -164.344)">
          <path id="Path_322" data-name="Path 322" d="M2699.84,120.84c-7.579,0-15.77,2.078-15.77,6.683l.407,3.26c-5.828,3.83-8.517,7.784-7.294,11,.652,1.752,2.648,3.83,8.435,3.83h.692l.734,5.746c.163,3.83,6.521,5.542,12.8,5.542s12.633-1.712,12.8-5.542l2.935-23.513V127.6C2715.61,122.959,2707.42,120.84,2699.84,120.84Zm0,3.912c7.335,0,11.329,1.916,11.818,2.771-.448.856-4.4,2.812-11.818,2.812s-11.369-1.956-11.818-2.812C2688.51,126.667,2692.5,124.752,2699.84,124.752ZM2680.81,140.4c-.244-.611.611-2.608,4.2-5.257l.814,6.561C2682.56,141.7,2681.01,140.971,2680.81,140.4Zm19.031,12.551c-5.3,0-8.4-1.345-8.924-1.956l-.733-5.787a48.5,48.5,0,0,0,7.335-1.712,3.707,3.707,0,0,0,2.283.815,3.667,3.667,0,1,0-3.546-4.523,44.494,44.494,0,0,1-6.561,1.549l-1.141-8.924a35.414,35.414,0,0,0,22.5,0L2708.72,151c-.49.607-3.59,1.952-8.88,1.952Z" transform="translate(-2676.89 -120.84)" fill="#fff"/>
        </g>
        <g id="Group_54" data-name="Group 54" transform="translate(2552.722 344.359)">
          <path id="Path_324" data-name="Path 324" d="M2459.84,858.84c-7.58,0-15.771,2.078-15.771,6.683l.407,3.26c-5.827,3.83-8.517,7.784-7.294,11,.652,1.752,2.649,3.83,8.435,3.83h.693l.734,5.746c.163,3.831,6.52,5.542,12.8,5.542s12.633-1.711,12.8-5.542l2.934-23.513V865.6C2475.61,860.959,2467.42,858.84,2459.84,858.84Zm0,3.912c7.335,0,11.329,1.915,11.817,2.771-.448.856-4.4,2.812-11.817,2.812s-11.369-1.956-11.818-2.812C2448.51,864.667,2452.5,862.752,2459.84,862.752ZM2440.81,878.4c-.244-.611.611-2.608,4.2-5.256l.815,6.561C2442.56,879.7,2441.01,878.971,2440.81,878.4Zm19.031,12.552c-5.3,0-8.4-1.345-8.924-1.956l-.733-5.787a48.508,48.508,0,0,0,7.335-1.712,3.709,3.709,0,0,0,2.282.815,3.667,3.667,0,1,0-3.546-4.523,44.507,44.507,0,0,1-6.561,1.549l-1.141-8.924a35.414,35.414,0,0,0,22.5,0L2468.72,889c-.49.607-3.59,1.952-8.88,1.952Z" transform="translate(-2436.89 -858.84)" fill="#fff"/>
        </g>
        <g id="Group_55" data-name="Group 55" transform="translate(2883.585 343.669)">
          <path id="Path_325" data-name="Path 325" d="M2939.84,857.84c-7.579,0-15.77,2.078-15.77,6.683l.407,3.26c-5.827,3.83-8.517,7.784-7.294,11,.652,1.752,2.649,3.831,8.435,3.831h.693l.734,5.746c.163,3.831,6.52,5.542,12.8,5.542s12.633-1.712,12.8-5.542l2.935-23.513V864.6C2955.61,859.959,2947.42,857.84,2939.84,857.84Zm0,3.912c7.335,0,11.329,1.915,11.818,2.771-.448.856-4.4,2.812-11.818,2.812s-11.369-1.956-11.818-2.812C2928.51,863.667,2932.5,861.752,2939.84,861.752ZM2920.81,877.4c-.244-.611.612-2.608,4.2-5.256l.814,6.561C2922.56,878.7,2921.01,877.971,2920.81,877.4Zm19.031,12.552c-5.3,0-8.4-1.345-8.924-1.956l-.733-5.787a48.537,48.537,0,0,0,7.335-1.712,3.707,3.707,0,0,0,2.282.815,3.667,3.667,0,1,0-3.546-4.523,44.523,44.523,0,0,1-6.561,1.549l-1.141-8.924a35.414,35.414,0,0,0,22.495,0L2948.72,888c-.49.607-3.59,1.952-8.88,1.952Z" transform="translate(-2916.89 -857.84)" fill="#fff"/>
        </g>
      </g>
      <path id="Intersection_2" data-name="Intersection 2" d="M155.258,503.6a295.506,295.506,0,0,1-63.22-93.769,293.474,293.474,0,0,1-17.189-55.375,297.843,297.843,0,0,1,0-118.905q1.522-7.439,3.434-14.805l22.654,8.44a270.927,270.927,0,0,0,79.017,264.7l-15.093,18.9Q159.955,508.293,155.258,503.6Z" transform="translate(2370.763 -139.995) rotate(-1.3)" fill="#f19840"/>
      <path id="Intersection_1" data-name="Intersection 1" d="M235.547,584.007a293.034,293.034,0,0,1-89.772-34.481l.315-1.3,9.126-21.135a270.558,270.558,0,0,0,282.707-1.928l14.43,19.406a295.925,295.925,0,0,1-216.807,39.434Z" transform="translate(2445 -150)" fill="#f19840"/>
      <g id="Group_65" data-name="Group 65" transform="translate(0 12)">
        <ellipse id="Ellipse_8" data-name="Ellipse 8" cx="34" cy="34.5" rx="34" ry="34.5" transform="translate(2440 13)" fill="#e8e8e8"/>
        <g id="Group_53" data-name="Group 53" transform="translate(2450.705 30.038)">
          <path id="Path_323" data-name="Path 323" d="M2311.84,402.84c-7.579,0-15.77,2.078-15.77,6.683l.407,3.26c-5.827,3.83-8.517,7.784-7.294,11,.652,1.752,2.649,3.83,8.435,3.83h.692l.734,5.746c.163,3.83,6.52,5.542,12.8,5.542s12.633-1.712,12.8-5.542l2.934-23.513V409.6C2327.61,404.959,2319.42,402.84,2311.84,402.84Zm0,3.912c7.335,0,11.329,1.916,11.817,2.771-.448.856-4.4,2.812-11.817,2.812s-11.369-1.956-11.818-2.812c.488-.856,4.478-2.771,11.818-2.771ZM2292.81,422.4c-.244-.611.612-2.608,4.2-5.257l.815,6.561C2294.56,423.7,2293.01,422.971,2292.81,422.4Zm19.031,12.551c-5.3,0-8.4-1.345-8.924-1.956l-.733-5.787a48.509,48.509,0,0,0,7.335-1.711,3.709,3.709,0,0,0,2.282.815,3.668,3.668,0,1,0-3.546-4.523,44.514,44.514,0,0,1-6.561,1.549l-1.141-8.924a35.413,35.413,0,0,0,22.5,0L2320.72,433c-.49.607-3.59,1.952-8.88,1.952Z" transform="translate(-2288.89 -402.84)" fill="#fff"/>
        </g>
      </g>
    </g>
    <g id="Group_17183" data-name="Group 17183" transform="translate(2620.939 -14.162)">
      <g id="Group_45" data-name="Group 45" transform="translate(153.097 30.964)">
        <path id="Path_196" data-name="Path 196" d="M572.04,426.4a3.7,3.7,0,0,1-.526-2.846,9.149,9.149,0,0,1,2.945-5.233c3.063-2.534,9.283-3.734,9.283-3.734s-.872,7.479-4.117,9.779C575.111,427.558,572.275,426.744,572.04,426.4Z" transform="translate(-559.802 -414.583)" fill="#0099b9"/>
        <path id="Path_197" data-name="Path 197" d="M567.082,434.08c5.075-5.538,12.237-13.019,16.074-15.513a87.736,87.736,0,0,0-18.085,14.827Z" transform="translate(-565.072 -411.277)" fill="#0099b9"/>
      </g>
      <path id="Path_198" data-name="Path 198" d="M503.33,498.705a3.95,3.95,0,0,0,3.029-.653,9.806,9.806,0,0,0,3.963-5.073c1.243-4.07-.137-10.719-.137-10.719s-7.034,3.954-7.972,8.107C500.911,496.147,502.887,498.616,503.33,498.705Z" transform="translate(-464.485 -327.473)" fill="#0099b9"/>
      <path id="Path_199" data-name="Path 199" d="M498.991,509.364c3.383-7.3,7.824-17.469,8.706-22.3a93.992,93.992,0,0,1-7.19,24Z" transform="translate(-466.795 -323.483)" fill="#0099b9"/>
      <g id="Group_46" data-name="Group 46" transform="translate(17.475 156.209)">
        <path id="Path_200" data-name="Path 200" d="M501.435,493.723a3.319,3.319,0,0,1-2.569.436,8.239,8.239,0,0,1-4.678-2.717c-2.241-2.79-3.243-8.405-3.243-8.405s6.723.884,8.752,3.832C502.519,490.978,501.751,493.516,501.435,493.723Z" transform="translate(-490.945 -483.037)" fill="#0099b9"/>
        <path id="Path_201" data-name="Path 201" d="M508.253,500.639c-4.922-4.64-11.564-11.18-13.759-14.67A78.909,78.909,0,0,0,507.6,502.44Z" transform="translate(-488.001 -480.605)" fill="#0099b9"/>
      </g>
      <g id="Group_47" data-name="Group 47" transform="translate(37.319 173.473)">
        <path id="Path_202" data-name="Path 202" d="M505.227,494.663a1.465,1.465,0,0,1,.436-1.063,3.634,3.634,0,0,1,2.1-1.124,10.182,10.182,0,0,1,3.9.727s-1.89,2.314-3.461,2.391C506.006,495.709,505.23,494.837,505.227,494.663Z" transform="translate(-498.94 -492.477)" fill="#0099b9"/>
        <path id="Path_203" data-name="Path 203" d="M502.316,495.286a49.127,49.127,0,0,1,8.68-1.76,34.814,34.814,0,0,0-9.2,1.1Z" transform="translate(-501.791 -491.604)" fill="#0099b9"/>
      </g>
      <path id="Path_204" data-name="Path 204" d="M572.412,511.237a3.442,3.442,0,0,0-.779,2.576,11,11,0,0,0,2.6,5.777c2.567,2.66,8.446,3.514,8.446,3.514s-.727-6.741-3.479-9.2C575.373,510.476,572.667,510.939,572.412,511.237Z" transform="translate(-406.548 -303.603)" fill="#0099b9"/>
      <path id="Path_205" data-name="Path 205" d="M598.273,501.748a6.259,6.259,0,0,1,1.333-4.73,16.28,16.28,0,0,1,8.9-5.088c6.566-1.561,16.173,2.774,16.173,2.774s-6.277,10.107-12.937,11.176C602.47,507.363,598.37,502.454,598.273,501.748Z" transform="translate(-384.474 -319.732)" fill="#0099b9"/>
      <path id="Path_206" data-name="Path 206" d="M571.1,497.772a4.942,4.942,0,0,1,1.52-3.56,12.242,12.242,0,0,1,7.158-3.657c5.29-.557,13.11,2.708,13.11,2.708s-6.514,7.688-11.828,7.85C573.658,501.35,571.1,498.342,571.1,497.772Z" transform="translate(-406.974 -320.642)" fill="#0099b9"/>
      <path id="Path_207" data-name="Path 207" d="M589.982,511.929a6.075,6.075,0,0,0,1.095,4.624,14.682,14.682,0,0,0,8.3,4.969c6.206,1.513,17.016-3.118,17.016-3.118s-7.089-9.505-13.4-10.539C594.2,506.425,590.1,511.235,589.982,511.929Z" transform="translate(-391.381 -306.453)" fill="#0099b9"/>
      <path id="Path_208" data-name="Path 208" d="M556.319,489.512s-14.2,10.54-8.248,12.123c5.379,1.43,36.264.458,50.53-3.444C580.5,500.978,556.319,489.512,556.319,489.512Z" transform="translate(-427.286 -321.456)" fill="#0099b9"/>
      <path id="Path_209" data-name="Path 209" d="M566.781,496.111s.369.224,1.06.631c6.573,3.881,42.156,24.494,62.827,28.41,0,0-49.745-2.739-78.4-30.454" transform="translate(-422.599 -317.154)" fill="#0099b9"/>
      <path id="Path_210" data-name="Path 210" d="M570.436,502.75s10.061,19.534,14.785,23.19c0,0-17.777-9.726-20.552-23.708Z" transform="translate(-412.309 -310.904)" fill="#0099b9"/>
      <path id="Path_211" data-name="Path 211" d="M578.269,515.74s10.654-8.853,49.923-19.453c0,0-39.029,6.4-54.247,15.118Z" transform="translate(-404.614 -315.835)" fill="#0099b9"/>
      <path id="Path_212" data-name="Path 212" d="M537.69,482.8a4.9,4.9,0,0,1-3.721-.955,12.15,12.15,0,0,1-4.669-6.473c-1.343-5.107.682-13.272.682-13.272s8.526,5.233,9.487,10.421C540.808,479.747,538.241,482.711,537.69,482.8Z" transform="translate(-442.032 -344.196)" fill="#0099b9"/>
      <path id="Path_213" data-name="Path 213" d="M542.2,496.214c-3.842-9.209-8.857-22.013-9.719-28.031a116.357,116.357,0,0,0,7.763,30.069Z" transform="translate(-439.01 -339.15)" fill="#0099b9"/>
      <path id="Path_214" data-name="Path 214" d="M528.68,514.395a3.647,3.647,0,0,1,.823,2.73,11.629,11.629,0,0,1-2.753,6.117c-2.717,2.816-8.941,3.72-8.941,3.72s.765-7.139,3.681-9.74C525.549,513.592,528.408,514.081,528.68,514.395Z" transform="translate(-451.184 -300.991)" fill="#0099b9"/>
      <path id="Path_215" data-name="Path 215" d="M507.176,503.057a5.732,5.732,0,0,0-1.39-4.279,14.9,14.9,0,0,0-8.328-4.345c-6.065-1.195-14.705,3.115-14.705,3.115s6.105,9.026,12.243,9.767C503.536,508.344,507.112,503.705,507.176,503.057Z" transform="translate(-480.265 -317.548)" fill="#0099b9"/>
      <path id="Path_216" data-name="Path 216" d="M533.2,498.5a4.932,4.932,0,0,0-1.521-3.56,12.231,12.231,0,0,0-7.158-3.657c-5.29-.558-13.11,2.708-13.11,2.708s6.514,7.688,11.827,7.85C530.643,502.074,533.2,499.066,533.2,498.5Z" transform="translate(-456.49 -320.037)" fill="#0099b9"/>
      <path id="Path_217" data-name="Path 217" d="M515.6,514.59a5.3,5.3,0,0,1-.956,4.04,12.814,12.814,0,0,1-7.252,4.342c-5.421,1.323-14.868-2.723-14.868-2.723s6.2-8.306,11.711-9.21C511.918,509.78,515.5,513.987,515.6,514.59Z" transform="translate(-472.159 -303.791)" fill="#0099b9"/>
      <path id="Path_218" data-name="Path 218" d="M561.675,490.239s14.2,10.54,8.246,12.123c-5.379,1.43-36.263.458-50.527-3.444C537.49,501.7,561.675,490.239,561.675,490.239Z" transform="translate(-449.87 -320.853)" fill="#0099b9"/>
      <path id="Path_219" data-name="Path 219" d="M570.958,496.525s-.391.235-1.124.666c-6.96,4.109-48.136,28.269-70.022,32.416,0,0,52.674-2.9,83.019-32.246" transform="translate(-466.115 -315.639)" fill="#0099b9"/>
      <path id="Path_220" data-name="Path 220" d="M535.815,505.507s-10.654,20.685-15.657,24.557c0,0,18.825-10.3,21.766-25.106Z" transform="translate(-449.235 -308.643)" fill="#0099b9"/>
      <path id="Path_221" data-name="Path 221" d="M544.141,516.671s-11.638-8.928-53.625-18.522c0,0,41.56,5.158,58.021,13.762Z" transform="translate(-473.826 -314.292)" fill="#0099b9"/>
      <path id="Path_222" data-name="Path 222" d="M576.5,590.087v-.029c-1.259-20.933-1.38-42.861,9.066-61.42,4.925-8.752,10.109-17.361,15.361-25.92,6.63-10.806,20.947-29.766,27.859-40.394-13.036,5.7-48.494,52.384-57.652,65.369-7.347-28.618-27.329-86.54-43.263-100.719,16.949,48.552,32.506,104.443,32.741,147.147.031,5.586-.359,11.155-.214,16.733,0,0,0,39.539-10.176,45.883h36.212C578.758,636.738,576.915,596.906,576.5,590.087Z" transform="translate(-442.836 -373.337)" fill="#0099b9"/>
      <path id="Path_223" data-name="Path 223" d="M498.678,466.51a3.81,3.81,0,0,1-1.548,2.558,9.728,9.728,0,0,1-6.02,1.507c-4.082-.182-9.718-4.506-9.718-4.506s6.043-4.727,10.1-4.24C497.143,462.5,498.736,466.075,498.678,466.51Z" transform="translate(-481.394 -344.453)" fill="#0099b9"/>
      <path id="Path_224" data-name="Path 224" d="M601.983,477.084a5.562,5.562,0,0,0,3.976,1.8,14.2,14.2,0,0,0,8.481-3.165c4.753-3.595,7.944-13.456,7.944-13.456s-11.171-.685-15.646,3.255C600.512,471,601.557,476.613,601.983,477.084Z" transform="translate(-381.636 -344.104)" fill="#0099b9"/>
      <path id="Path_225" data-name="Path 225" d="M605.928,459.609a5.534,5.534,0,0,1-1.65-4.011,14.373,14.373,0,0,1,3.4-8.388c3.707-4.66,12.74-6.886,12.74-6.886s1.148,10.436-2.893,14.808C611.9,461.221,606.381,460.047,605.928,459.609Z" transform="translate(-379.449 -362.261)" fill="#0099b9"/>
      <path id="Path_226" data-name="Path 226" d="M508.928,441.481a5.13,5.13,0,0,0,1.744-3.615,13.314,13.314,0,0,0-2.682-7.938c-3.17-4.506-12.119-7.784-12.119-7.784s-.913,10.3,2.58,14.561C503.32,442.638,508.486,441.859,508.928,441.481Z" transform="translate(-469.471 -377.346)" fill="#0099b9"/>
      <path id="Path_227" data-name="Path 227" d="M505.122,454.058a5.691,5.691,0,0,0,1.614-4.162,14.8,14.8,0,0,0-3.684-8.566c-3.918-4.72-14.132-7.55-14.132-7.55s-.093,11.5,4.16,15.917C499,455.845,504.665,454.519,505.122,454.058Z" transform="translate(-475.149 -367.691)" fill="#0099b9"/>
      <path id="Path_228" data-name="Path 228" d="M540.109,424.4a5.934,5.934,0,0,1-3.907-2.528,14.7,14.7,0,0,1-2.872-9.231c.419-6.38,5.886-14.983,5.886-14.983s7.78,9.289,6.889,15.619C544.863,422.088,540.777,424.507,540.109,424.4Z" transform="translate(-438.32 -397.658)" fill="#0099b9"/>
      <path id="Path_229" data-name="Path 229" d="M511.731,426.448a3.988,3.988,0,0,1-3.112-.317,9.884,9.884,0,0,1-4.541-4.639c-1.7-3.945-1.066-10.757-1.066-10.757s7.494,3.172,8.9,7.23C513.867,423.612,512.163,426.31,511.731,426.448Z" transform="translate(-463.556 -386.809)" fill="#0099b9"/>
      <path id="Path_230" data-name="Path 230" d="M537.724,446.627a9.495,9.495,0,0,1-7.441-.427,24.3,24.3,0,0,1-10.349-11.507c-4.37-9.206-.849-27.246-.849-27.246s16.9,8.385,20.565,17.893C544.757,438.577,538.743,446.252,537.724,446.627Z" transform="translate(-451.237 -389.537)" fill="#0099b9"/>
      <path id="Path_231" data-name="Path 231" d="M581.2,458.211a8.041,8.041,0,0,0,5.879,2.284,20.586,20.586,0,0,0,12.009-5.233c6.6-5.556,10.221-20.68,10.221-20.68s-15.954.523-22.119,6.556C578.615,449.543,580.551,457.564,581.2,458.211Z" transform="translate(-399.134 -367.025)" fill="#0099b9"/>
      <path id="Path_232" data-name="Path 232" d="M584.176,468.929a5.621,5.621,0,0,0,4.3.942,13.588,13.588,0,0,0,7.483-4.931c3.758-4.572,4.236-15.458,4.236-15.458s-10.786,2.1-14.185,6.954C581.276,463.2,583.646,468.551,584.176,468.929Z" transform="translate(-397.007 -354.665)" fill="#0099b9"/>
      <path id="Path_233" data-name="Path 233" d="M571.582,464.533c-2.538,0-61.758-9.024-77.831-24.251,0,0,9.023,26.507,83.471,36.1Z" transform="translate(-471.142 -362.297)" fill="#0099b9"/>
      <path id="Path_234" data-name="Path 234" d="M534.455,452.613s-39.939,21.514-45.578,22.639c0,0,46.14-9.668,54.036-18.127Z" transform="translate(-475.186 -352.067)" fill="#0099b9"/>
      <path id="Path_235" data-name="Path 235" d="M571.422,476.714s23.6-6.233,35.844-22.039c0,0-8.683,25.148-41.854,31.168Z" transform="translate(-411.692 -350.357)" fill="#0099b9"/>
      <path id="Path_236" data-name="Path 236" d="M563.607,510.358s66.116-22.037,90.157-67.449c0,0-38.78,78.775-96.883,81.446Z" transform="translate(-418.769 -360.118)" fill="#0099b9"/>
      <path id="Path_237" data-name="Path 237" d="M518.315,472.393a5.069,5.069,0,0,1-1.811,3.538,12.972,12.972,0,0,1-7.85,2.574c-5.434.145-13.478-5.453-13.478-5.453s7.728-6.44,13.158-6.184C515.9,467.225,518.351,471.813,518.315,472.393Z" transform="translate(-469.959 -340.246)" fill="#0099b9"/>
      <path id="Path_238" data-name="Path 238" d="M527.187,488.249a4.185,4.185,0,0,1-1.913,2.66,10.118,10.118,0,0,1-6.6.983c-4.361-.666-10.03-6.464-10.03-6.464s7.023-4.2,11.321-3.2C525.944,483.629,527.29,487.78,527.187,488.249Z" transform="translate(-458.788 -327.625)" fill="#0099b9"/>
      <path id="Path_239" data-name="Path 239" d="M595.78,497.044a3.95,3.95,0,0,1-3.029-.653,9.8,9.8,0,0,1-3.963-5.073c-1.243-4.07.137-10.719.137-10.719s7.034,3.954,7.969,8.107C598.2,494.486,596.222,496.955,595.78,497.044Z" transform="translate(-392.731 -328.851)" fill="#0099b9"/>
      <path id="Path_240" data-name="Path 240" d="M599.956,507.7c-3.383-7.3-7.824-17.468-8.706-22.3a93.82,93.82,0,0,0,7.19,24Z" transform="translate(-390.258 -324.862)" fill="#0099b9"/>
      <g id="Group_48" data-name="Group 48" transform="translate(204.167 153.171)">
        <path id="Path_241" data-name="Path 241" d="M598.475,492.062a3.316,3.316,0,0,0,2.569.436,8.236,8.236,0,0,0,4.676-2.717c2.243-2.79,3.245-8.4,3.245-8.4s-6.722.885-8.751,3.832C597.389,489.313,598.158,491.855,598.475,492.062Z" transform="translate(-588.712 -481.376)" fill="#0099b9"/>
        <path id="Path_242" data-name="Path 242" d="M592.985,498.978c4.922-4.64,11.562-11.18,13.759-14.67a78.892,78.892,0,0,1-13.11,16.471Z" transform="translate(-592.985 -478.944)" fill="#0099b9"/>
      </g>
      <g id="Group_49" data-name="Group 49" transform="translate(191.85 170.435)">
        <path id="Path_243" data-name="Path 243" d="M592.69,493a1.453,1.453,0,0,0-.436-1.063,3.62,3.62,0,0,0-2.1-1.124,10.2,10.2,0,0,0-3.9.727s1.89,2.314,3.461,2.391C591.911,494.046,592.684,493.168,592.69,493Z" transform="translate(-586.252 -490.815)" fill="#0099b9"/>
        <path id="Path_244" data-name="Path 244" d="M596.857,493.625a49.126,49.126,0,0,0-8.681-1.76,34.812,34.812,0,0,1,9.206,1.1Z" transform="translate(-584.657 -489.945)" fill="#0099b9"/>
      </g>
      <path id="Path_245" data-name="Path 245" d="M584.356,501.061s-63.862-31.668-79.94-31.012c0,0,67.941,35.831,80.586,48.116Z" transform="translate(-462.295 -337.61)" fill="#0099b9"/>
      <path id="Path_246" data-name="Path 246" d="M542.438,481.65s-14.991,7.662-28.56,5.181c0,0,16.044,8.925,35.851-3.261Z" transform="translate(-454.445 -327.979)" fill="#0099b9"/>
      <path id="Path_247" data-name="Path 247" d="M557.67,461.049c-1.177-.145-35.732-13.791-51.735-45.275,0,0,13.664,38.68,51.661,56.026Z" transform="translate(-461.034 -382.629)" fill="#0099b9"/>
      <path id="Path_248" data-name="Path 248" d="M594.454,477.221s29.386-4.006,37.4-10.241c0,0-19.147,21.369-45.416,18.7S594.454,477.221,594.454,477.221Z" transform="translate(-402.467 -340.148)" fill="#0099b9"/>
      <path id="Path_249" data-name="Path 249" d="M546.549,448.9c-4.451,2.079-40.814-12.17-47.344-20.778,0,0,16.326,22.263,53.727,27.308Z" transform="translate(-466.618 -372.384)" fill="#0099b9"/>
      <path id="Path_250" data-name="Path 250" d="M538.571,482.476s-1.486-71.239-2.375-78.363c0,0,10.684,58.179,8.609,86.081S538.571,482.476,538.571,482.476Z" transform="translate(-435.93 -392.304)" fill="#0099b9"/>
      <path id="Path_251" data-name="Path 251" d="M570.8,448.038a3.438,3.438,0,0,0,1.983,1.818,10.992,10.992,0,0,0,6.333.161c3.508-1.163,6.832-6.085,6.832-6.085s-6.387-2.272-9.8-.856C571.391,445.045,570.639,447.682,570.8,448.038Z" transform="translate(-407.24 -360.364)" fill="#0099b9"/>
      <path id="Path_252" data-name="Path 252" d="M551.666,444.636a5.524,5.524,0,0,0,2.832-3.281,14.365,14.365,0,0,0-.582-9.033c-2.035-5.6-10.466-11.513-10.466-11.513s-3.835,10.49-1.385,15.915C545.489,444.281,551.1,444.915,551.666,444.636Z" transform="translate(-431.736 -378.45)" fill="#0099b9"/>
      <path id="Path_253" data-name="Path 253" d="M556.766,472.029a5.524,5.524,0,0,1-1.65-4.009,14.361,14.361,0,0,1,3.4-8.388c3.708-4.662,12.741-6.889,12.741-6.889s1.147,10.437-2.893,14.808C562.741,473.638,557.218,472.466,556.766,472.029Z" transform="translate(-420.235 -351.959)" fill="#0099b9"/>
      <path id="Path_254" data-name="Path 254" d="M566.765,425.684a5.921,5.921,0,0,1-4.317-1.711,15.387,15.387,0,0,1-3.925-8.867c-.834-6.326,4.172-14.944,4.172-14.944s8.9,6.882,9.26,13.249C572.452,422.279,567.441,425.656,566.765,425.684Z" transform="translate(-417.487 -395.58)" fill="#0099b9"/>
      <path id="Path_255" data-name="Path 255" d="M558.325,445.966a4.943,4.943,0,0,1-2.548-2.907,12.233,12.233,0,0,1-.192-8.036c1.792-5.008,8.127-10.639,8.127-10.639s4.1,9.2,1.945,14.063C562.654,445.2,558.834,446.212,558.325,445.966Z" transform="translate(-420.334 -375.488)" fill="#0099b9"/>
      <path id="Path_256" data-name="Path 256" d="M581.833,436.189a6.064,6.064,0,0,0,4.641,1.018,14.668,14.668,0,0,0,8.077-5.322c4.054-4.935,4.572-16.684,4.572-16.684s-11.642,2.265-15.31,7.507C578.7,430,581.261,435.78,581.833,436.189Z" transform="translate(-399.02 -383.104)" fill="#0099b9"/>
      <path id="Path_257" data-name="Path 257" d="M540.989,479.523s3.343,17.365,7.348,12.689c3.621-4.224,20.838-46.459,23.51-61C566.5,448.72,540.989,479.523,540.989,479.523Z" transform="translate(-431.953 -369.825)" fill="#0099b9"/>
      <path id="Path_258" data-name="Path 258" d="M560.508,455.067s-13.653-19.393-15.214-26.089c.648,4.5,3.529,22.148,10.093,32.767Z" transform="translate(-428.382 -371.675)" fill="#0099b9"/>
      <path id="Path_259" data-name="Path 259" d="M502.551,460.329a3.355,3.355,0,0,0-.016-2.625,8.7,8.7,0,0,0-3.861-3.889c-3.162-1.736-9.357-1.08-9.357-1.08s2.431,6.309,5.708,7.8C499.59,462.624,502.4,460.679,502.551,460.329Z" transform="translate(-474.821 -352.067)" fill="#0099b9"/>
      <path id="Path_260" data-name="Path 260" d="M511.19,461.1s-13.955-3.4-17.328-5.829c2.087,1.791,10.433,8.688,17.656,10.914Z" transform="translate(-471.049 -349.86)" fill="#0099b9"/>
      <path id="Path_261" data-name="Path 261" d="M554.962,471.579s.362-.238,1.028-.683c6.348-4.239,45.988-31.176,58.477-48.1,0,0-29.675,47.447-67.074,61.249" transform="translate(-426.642 -376.804)" fill="#0099b9"/>
      <path id="Path_262" data-name="Path 262" d="M562.527,447.125s21.965-.593,27.308-3.263c0,0-16.476,11.8-30.278,8.236Z" transform="translate(-416.549 -359.327)" fill="#0099b9"/>
      <path id="Path_263" data-name="Path 263" d="M545.931,488.231s21.325-25.9,25.532-29.931c0,0-17.572,31.125-21.688,35.912S545.931,488.231,545.931,488.231Z" transform="translate(-427.857 -347.349)" fill="#0099b9"/>
      <path id="Path_264" data-name="Path 264" d="M577.046,460.3s-7.717-11.5-14.246-51.648c0,0,2.375,39.48,9.5,55.506Z" transform="translate(-413.859 -388.535)" fill="#0099b9"/>
      <g id="Group_50" data-name="Group 50" transform="translate(102.272 11.805)">
        <path id="Path_265" data-name="Path 265" d="M544.7,419.581a4.316,4.316,0,0,1-1.035-3.226,10.7,10.7,0,0,1,2.64-6.523c3.181-3.4,10.225-5.723,10.225-5.723s.1,8.819-3.325,11.972C548.443,420.474,545.032,419.95,544.7,419.581Z" transform="translate(-532.019 -404.11)" fill="#0099b9"/>
        <path id="Path_266" data-name="Path 266" d="M539.733,429.635c5.07-7.193,12.272-16.948,16.358-20.417a102.725,102.725,0,0,0-18.8,19.915Z" transform="translate(-537.292 -399.872)" fill="#0099b9"/>
      </g>
      <path id="Path_267" data-name="Path 267" d="M555.74,548.583c-.33.346-.651.7-.968,1.084-3.4,4.1-8.876,4.272-13.738,4.673-5.64.465-11.741,1.509-16.452,4.877-2.148,1.537-4.061,3.553-6.049,5.293,1.032-.9,4.4-1.09,5.733-1.541,3.009-1.018,5.751-3.028,8.857-3.673a114.391,114.391,0,0,1,20.8-1.923s-9.181,7.518-18.678,7.137c0,0-6.27-.57-8.928,1.521,10.667,2.481,23.383,1.381,32.293-5.7-.362.291-.66,1.308-.909,1.711A16.647,16.647,0,0,1,554,566.2c-2.986,2.406-6.581,3.857-9.712,6.046-2.34,1.635-6.886,4.371-7.662,7.281,0,0,14.771-7.646,20.087-10.271a31.163,31.163,0,0,0-3.229,8.168s1.464-.766,3.041-1.709a13.241,13.241,0,0,0,4.942-5.188,15.713,15.713,0,0,0,1.9-6.02s1.14-4.179,4.559-3.419c0,0,4.179,1.33,1.14,8.738a4.253,4.253,0,0,0,4.56-2.089s3.04-.949,2.659,2.66c0,0-.949,7.027-3.989,8.928,0,0,9.2.145,10-12.1,0,0,8.431,4.314,7.48,15.711,0,0,6.64-7.414.09-15.006,0,0-.66-3.609,4.089,0l3.23,2.66,6.459,6.078s-1.9-6.649-11.587-16.717c0,0,.759-2.471,3.04,0,4.495,4.87,6.318,11.578,13.18,13.782a21.136,21.136,0,0,0,6.541,1.176c-3.6-2.348-7.443-4.485-10.484-7.572-3.512-3.567-3.918-6.954-3.918-11.756A33.33,33.33,0,0,1,621.5,568.89a39.888,39.888,0,0,0-20.521-19.769s-12.318-4.179-13.647-15.2H565.453c.035,0-1.987,5.828-2.17,6.2C561.4,543.958,558.4,545.79,555.74,548.583Z" transform="translate(-450.584 -284.612)" fill="#0099b9"/>
    </g>
  </g>
</svg>
