<svg xmlns="http://www.w3.org/2000/svg" width="603" height="610.5" viewBox="0 0 603 610.5">
  <g id="bucket-1" transform="translate(-2846 -1187)">
    <g id="Group_62" data-name="Group 62" transform="translate(406 1357)">
      <g id="Group_57" data-name="Group 57" transform="translate(0 12)">
        <path id="Path_361" data-name="Path 361" d="M282,0C437.744,0,564,126.032,564,281.5S437.744,563,282,563A281.7,281.7,0,0,1,0,281.5C0,126.032,126.256,0,282,0Z" transform="translate(2458 -147)" fill="none" stroke="#e8e8e8" stroke-width="25"/>
        <path id="Path_363" data-name="Path 363" d="M282,0C437.744,0,564,126.032,564,281.5S437.744,563,282,563A281.7,281.7,0,0,1,0,281.5C0,126.032,126.256,0,282,0Z" transform="translate(2458 -147)" fill="#fff" stroke="#e8e8e8" stroke-width="25"/>
        <path id="Path_320" data-name="Path 320" d="M2708.5,146c124.26,0,229.674,80.686,266.777,192.735" transform="translate(31.442 -293.001)" fill="none" stroke="#f19840" stroke-miterlimit="10" stroke-width="25"/>
        <circle id="Ellipse_4" data-name="Ellipse 4" cx="35" cy="35" r="35" transform="translate(2706 -182)" fill="#f19840"/>
        <circle id="Ellipse_5" data-name="Ellipse 5" cx="34.5" cy="34.5" r="34.5" transform="translate(2974 12)" fill="#e8e8e8"/>
        <circle id="Ellipse_6" data-name="Ellipse 6" cx="34.5" cy="34.5" r="34.5" transform="translate(2872 328)" fill="#e8e8e8"/>
        <circle id="Ellipse_7" data-name="Ellipse 7" cx="34.5" cy="34.5" r="34.5" transform="translate(2541 329)" fill="#e8e8e8"/>
        <ellipse id="Ellipse_8" data-name="Ellipse 8" cx="34" cy="34.5" rx="34" ry="34.5" transform="translate(2440 13)" fill="#e8e8e8"/>
        <g id="Group_51" data-name="Group 51" transform="translate(2985.601 29.349)">
          <path id="Path_321" data-name="Path 321" d="M3087.84,401.84c-7.579,0-15.77,2.078-15.77,6.683l.407,3.26c-5.828,3.83-8.517,7.784-7.294,11,.652,1.752,2.649,3.83,8.435,3.83h.693l.734,5.746c.162,3.83,6.52,5.542,12.795,5.542s12.633-1.712,12.8-5.542l2.935-23.513V408.6C3103.61,403.959,3095.42,401.84,3087.84,401.84Zm0,3.912c7.335,0,11.329,1.916,11.818,2.771-.448.856-4.4,2.812-11.818,2.812s-11.369-1.956-11.818-2.812c.488-.856,4.478-2.771,11.818-2.771ZM3068.81,421.4c-.244-.611.612-2.608,4.2-5.257l.815,6.561C3070.56,422.7,3069.01,421.971,3068.81,421.4Zm19.031,12.551c-5.3,0-8.4-1.345-8.924-1.956l-.733-5.787a48.5,48.5,0,0,0,7.335-1.712,3.707,3.707,0,0,0,2.282.815,3.667,3.667,0,1,0-3.546-4.523,44.492,44.492,0,0,1-6.561,1.549l-1.141-8.924a35.413,35.413,0,0,0,22.5,0L3096.72,432c-.49.607-3.59,1.952-8.88,1.952Z" transform="translate(-3064.89 -401.84)" fill="#fff"/>
        </g>
        <g id="Group_52" data-name="Group 52" transform="translate(2718.153 -164.344)">
          <path id="Path_322" data-name="Path 322" d="M2699.84,120.84c-7.579,0-15.77,2.078-15.77,6.683l.407,3.26c-5.828,3.83-8.517,7.784-7.294,11,.652,1.752,2.648,3.83,8.435,3.83h.692l.734,5.746c.163,3.83,6.521,5.542,12.8,5.542s12.633-1.712,12.8-5.542l2.935-23.513V127.6C2715.61,122.959,2707.42,120.84,2699.84,120.84Zm0,3.912c7.335,0,11.329,1.916,11.818,2.771-.448.856-4.4,2.812-11.818,2.812s-11.369-1.956-11.818-2.812C2688.51,126.667,2692.5,124.752,2699.84,124.752ZM2680.81,140.4c-.244-.611.611-2.608,4.2-5.257l.814,6.561C2682.56,141.7,2681.01,140.971,2680.81,140.4Zm19.031,12.551c-5.3,0-8.4-1.345-8.924-1.956l-.733-5.787a48.5,48.5,0,0,0,7.335-1.712,3.707,3.707,0,0,0,2.283.815,3.667,3.667,0,1,0-3.546-4.523,44.494,44.494,0,0,1-6.561,1.549l-1.141-8.924a35.414,35.414,0,0,0,22.5,0L2708.72,151c-.49.607-3.59,1.952-8.88,1.952Z" transform="translate(-2676.89 -120.84)" fill="#fff"/>
        </g>
        <g id="Group_53" data-name="Group 53" transform="translate(2450.705 30.038)">
          <path id="Path_323" data-name="Path 323" d="M2311.84,402.84c-7.579,0-15.77,2.078-15.77,6.683l.407,3.26c-5.827,3.83-8.517,7.784-7.294,11,.652,1.752,2.649,3.83,8.435,3.83h.692l.734,5.746c.163,3.83,6.52,5.542,12.8,5.542s12.633-1.712,12.8-5.542l2.934-23.513V409.6C2327.61,404.959,2319.42,402.84,2311.84,402.84Zm0,3.912c7.335,0,11.329,1.916,11.817,2.771-.448.856-4.4,2.812-11.817,2.812s-11.369-1.956-11.818-2.812c.488-.856,4.478-2.771,11.818-2.771ZM2292.81,422.4c-.244-.611.612-2.608,4.2-5.257l.815,6.561C2294.56,423.7,2293.01,422.971,2292.81,422.4Zm19.031,12.551c-5.3,0-8.4-1.345-8.924-1.956l-.733-5.787a48.509,48.509,0,0,0,7.335-1.711,3.709,3.709,0,0,0,2.282.815,3.668,3.668,0,1,0-3.546-4.523,44.514,44.514,0,0,1-6.561,1.549l-1.141-8.924a35.413,35.413,0,0,0,22.5,0L2320.72,433c-.49.607-3.59,1.952-8.88,1.952Z" transform="translate(-2288.89 -402.84)" fill="#fff"/>
        </g>
        <g id="Group_54" data-name="Group 54" transform="translate(2552.722 344.359)">
          <path id="Path_324" data-name="Path 324" d="M2459.84,858.84c-7.58,0-15.771,2.078-15.771,6.683l.407,3.26c-5.827,3.83-8.517,7.784-7.294,11,.652,1.752,2.649,3.83,8.435,3.83h.693l.734,5.746c.163,3.831,6.52,5.542,12.8,5.542s12.633-1.711,12.8-5.542l2.934-23.513V865.6C2475.61,860.959,2467.42,858.84,2459.84,858.84Zm0,3.912c7.335,0,11.329,1.915,11.817,2.771-.448.856-4.4,2.812-11.817,2.812s-11.369-1.956-11.818-2.812C2448.51,864.667,2452.5,862.752,2459.84,862.752ZM2440.81,878.4c-.244-.611.611-2.608,4.2-5.256l.815,6.561C2442.56,879.7,2441.01,878.971,2440.81,878.4Zm19.031,12.552c-5.3,0-8.4-1.345-8.924-1.956l-.733-5.787a48.508,48.508,0,0,0,7.335-1.712,3.709,3.709,0,0,0,2.282.815,3.667,3.667,0,1,0-3.546-4.523,44.507,44.507,0,0,1-6.561,1.549l-1.141-8.924a35.414,35.414,0,0,0,22.5,0L2468.72,889c-.49.607-3.59,1.952-8.88,1.952Z" transform="translate(-2436.89 -858.84)" fill="#fff"/>
        </g>
        <g id="Group_55" data-name="Group 55" transform="translate(2883.585 343.669)">
          <path id="Path_325" data-name="Path 325" d="M2939.84,857.84c-7.579,0-15.77,2.078-15.77,6.683l.407,3.26c-5.827,3.83-8.517,7.784-7.294,11,.652,1.752,2.649,3.831,8.435,3.831h.693l.734,5.746c.163,3.831,6.52,5.542,12.8,5.542s12.633-1.712,12.8-5.542l2.935-23.513V864.6C2955.61,859.959,2947.42,857.84,2939.84,857.84Zm0,3.912c7.335,0,11.329,1.915,11.818,2.771-.448.856-4.4,2.812-11.818,2.812s-11.369-1.956-11.818-2.812C2928.51,863.667,2932.5,861.752,2939.84,861.752ZM2920.81,877.4c-.244-.611.612-2.608,4.2-5.256l.814,6.561C2922.56,878.7,2921.01,877.971,2920.81,877.4Zm19.031,12.552c-5.3,0-8.4-1.345-8.924-1.956l-.733-5.787a48.537,48.537,0,0,0,7.335-1.712,3.707,3.707,0,0,0,2.282.815,3.667,3.667,0,1,0-3.546-4.523,44.523,44.523,0,0,1-6.561,1.549l-1.141-8.924a35.414,35.414,0,0,0,22.495,0L2948.72,888c-.49.607-3.59,1.952-8.88,1.952Z" transform="translate(-2916.89 -857.84)" fill="#fff"/>
        </g>
      </g>
    </g>
    <g id="Group_17131" data-name="Group 17131" transform="translate(3047.004 1347.002)">
      <path id="Path_1" data-name="Path 1" d="M400.989,225.455a14.831,14.831,0,0,1-11.416-2.247,37.964,37.964,0,0,1-13.555-20c-4.793-15.167,4.487-42.313,4.487-42.313s24.346,16.562,27.993,32.048C413.58,214.5,402.646,225.092,400.989,225.455Z" transform="translate(-320.051 -160.894)" fill="#0099b9"/>
      <path id="Path_2" data-name="Path 2" d="M405.219,207.739a11.08,11.08,0,0,1-6.29,5.981,28.317,28.317,0,0,1-18.027-.373c-11.3-3.62-23.827-20.975-23.827-20.975s20.582-7.68,31.581-3.223C403.98,195.35,405.711,206.574,405.219,207.739Z" transform="translate(-357.08 -104.259)" fill="#0099b9"/>
      <path id="Path_3" data-name="Path 3" d="M393.752,206.326a9.233,9.233,0,0,0,7.2.817,23.665,23.665,0,0,0,11.824-9.322c5.707-8.107,5.312-25.978,5.312-25.978s-15.537,4.445-22.667,13.757C385.24,198.883,392.836,205.8,393.752,206.326Z" transform="translate(-287.318 -137.809)" fill="#0099b9"/>
      <path id="Path_4" data-name="Path 4" d="M410.987,213.368a10.312,10.312,0,0,0,7.539,2.929,26.4,26.4,0,0,0,15.394-6.7c8.458-7.124,13.1-26.514,13.1-26.514s-20.454.672-28.354,8.4C407.666,202.258,410.15,212.539,410.987,213.368Z" transform="translate(-245.203 -114.12)" fill="#0099b9"/>
      <path id="Path_5" data-name="Path 5" d="M431.4,208.628s-52.137-16.091-63.081-16.091c0,0,60.5,30.9,62.439,34.115S431.4,208.628,431.4,208.628Z" transform="translate(-333.385 -94.185)" fill="#0099b9"/>
      <path id="Path_6" data-name="Path 6" d="M386.336,205.977s19.953-24.459,22.531-27.035-17.38,41.2-17.38,45.7S386.336,205.977,386.336,205.977Z" transform="translate(-295.402 -123.076)" fill="#0099b9"/>
      <path id="Path_7" data-name="Path 7" d="M431.855,375.687c-.721-20.743-.161-42.256,4.655-61.624,5.68-22.822,19.4-43.123,31.91-62.58q7.6-11.823,15.357-23.546c1.163-1.756,4.114-8.482,6.174-9.287-20.19,7.88-51.66,60.187-64.451,79.021-10.357-38.372-25.188-100.623-45.568-122.715,6.961,24.647,14.863,50.05,21.874,74.68,6.932,24.338,11.853,37.446,14.735,62.543,3.6,31.29,7.065,80.6-8.4,109.545h31.561a42.434,42.434,0,0,1-6.667-23.358C432.574,391.02,432.124,383.4,431.855,375.687Z" transform="translate(-308.903 -131.243)" fill="#0099b9"/>
    </g>
  </g>
</svg>
