<svg xmlns="http://www.w3.org/2000/svg" width="603" height="610.5" viewBox="0 0 603 610.5">
  <g id="bucket-5" transform="translate(-3147 170)">
    <g id="Group_59" data-name="Group 59" transform="translate(707)">
      <g id="Group_57" data-name="Group 57" transform="translate(0 12)">
        <path id="Path_361" data-name="Path 361" d="M282,0C437.744,0,564,126.032,564,281.5S437.744,563,282,563A281.7,281.7,0,0,1,0,281.5C0,126.032,126.256,0,282,0Z" transform="translate(2458 -147)" fill="none" stroke="#e8e8e8" stroke-width="25"/>
        <path id="Path_363" data-name="Path 363" d="M282,0C437.744,0,564,126.032,564,281.5S437.744,563,282,563A281.7,281.7,0,0,1,0,281.5C0,126.032,126.256,0,282,0Z" transform="translate(2458 -147)" fill="#fff" stroke="#e8e8e8" stroke-width="25"/>
        <path id="Path_320" data-name="Path 320" d="M2708.5,146c155.131,0,280.889,125.758,280.889,280.889A280.444,280.444,0,0,1,2875.16,653.017" transform="translate(31.442 -293.001)" fill="none" stroke="#f19840" stroke-miterlimit="10" stroke-width="25"/>
        <circle id="Ellipse_4" data-name="Ellipse 4" cx="35" cy="35" r="35" transform="translate(2706 -182)" fill="#f19840"/>
        <circle id="Ellipse_5" data-name="Ellipse 5" cx="34.5" cy="34.5" r="34.5" transform="translate(2974 12)" fill="#f19840"/>
        <circle id="Ellipse_6" data-name="Ellipse 6" cx="34.5" cy="34.5" r="34.5" transform="translate(2872 328)" fill="#f19840"/>
        <circle id="Ellipse_7" data-name="Ellipse 7" cx="34.5" cy="34.5" r="34.5" transform="translate(2541 329)" fill="#f19840"/>
        <ellipse id="Ellipse_8" data-name="Ellipse 8" cx="34" cy="34.5" rx="34" ry="34.5" transform="translate(2440 13)" fill="#f19840"/>
        <g id="Group_51" data-name="Group 51" transform="translate(2985.601 29.349)">
          <path id="Path_321" data-name="Path 321" d="M3087.84,401.84c-7.579,0-15.77,2.078-15.77,6.683l.407,3.26c-5.828,3.83-8.517,7.784-7.294,11,.652,1.752,2.649,3.83,8.435,3.83h.693l.734,5.746c.162,3.83,6.52,5.542,12.795,5.542s12.633-1.712,12.8-5.542l2.935-23.513V408.6C3103.61,403.959,3095.42,401.84,3087.84,401.84Zm0,3.912c7.335,0,11.329,1.916,11.818,2.771-.448.856-4.4,2.812-11.818,2.812s-11.369-1.956-11.818-2.812c.488-.856,4.478-2.771,11.818-2.771ZM3068.81,421.4c-.244-.611.612-2.608,4.2-5.257l.815,6.561C3070.56,422.7,3069.01,421.971,3068.81,421.4Zm19.031,12.551c-5.3,0-8.4-1.345-8.924-1.956l-.733-5.787a48.5,48.5,0,0,0,7.335-1.712,3.707,3.707,0,0,0,2.282.815,3.667,3.667,0,1,0-3.546-4.523,44.492,44.492,0,0,1-6.561,1.549l-1.141-8.924a35.413,35.413,0,0,0,22.5,0L3096.72,432c-.49.607-3.59,1.952-8.88,1.952Z" transform="translate(-3064.89 -401.84)" fill="#fff"/>
        </g>
        <g id="Group_52" data-name="Group 52" transform="translate(2718.153 -164.344)">
          <path id="Path_322" data-name="Path 322" d="M2699.84,120.84c-7.579,0-15.77,2.078-15.77,6.683l.407,3.26c-5.828,3.83-8.517,7.784-7.294,11,.652,1.752,2.648,3.83,8.435,3.83h.692l.734,5.746c.163,3.83,6.521,5.542,12.8,5.542s12.633-1.712,12.8-5.542l2.935-23.513V127.6C2715.61,122.959,2707.42,120.84,2699.84,120.84Zm0,3.912c7.335,0,11.329,1.916,11.818,2.771-.448.856-4.4,2.812-11.818,2.812s-11.369-1.956-11.818-2.812C2688.51,126.667,2692.5,124.752,2699.84,124.752ZM2680.81,140.4c-.244-.611.611-2.608,4.2-5.257l.814,6.561C2682.56,141.7,2681.01,140.971,2680.81,140.4Zm19.031,12.551c-5.3,0-8.4-1.345-8.924-1.956l-.733-5.787a48.5,48.5,0,0,0,7.335-1.712,3.707,3.707,0,0,0,2.283.815,3.667,3.667,0,1,0-3.546-4.523,44.494,44.494,0,0,1-6.561,1.549l-1.141-8.924a35.414,35.414,0,0,0,22.5,0L2708.72,151c-.49.607-3.59,1.952-8.88,1.952Z" transform="translate(-2676.89 -120.84)" fill="#fff"/>
        </g>
        <g id="Group_53" data-name="Group 53" transform="translate(2450.705 30.038)">
          <path id="Path_323" data-name="Path 323" d="M2311.84,402.84c-7.579,0-15.77,2.078-15.77,6.683l.407,3.26c-5.827,3.83-8.517,7.784-7.294,11,.652,1.752,2.649,3.83,8.435,3.83h.692l.734,5.746c.163,3.83,6.52,5.542,12.8,5.542s12.633-1.712,12.8-5.542l2.934-23.513V409.6C2327.61,404.959,2319.42,402.84,2311.84,402.84Zm0,3.912c7.335,0,11.329,1.916,11.817,2.771-.448.856-4.4,2.812-11.817,2.812s-11.369-1.956-11.818-2.812c.488-.856,4.478-2.771,11.818-2.771ZM2292.81,422.4c-.244-.611.612-2.608,4.2-5.257l.815,6.561C2294.56,423.7,2293.01,422.971,2292.81,422.4Zm19.031,12.551c-5.3,0-8.4-1.345-8.924-1.956l-.733-5.787a48.509,48.509,0,0,0,7.335-1.711,3.709,3.709,0,0,0,2.282.815,3.668,3.668,0,1,0-3.546-4.523,44.514,44.514,0,0,1-6.561,1.549l-1.141-8.924a35.413,35.413,0,0,0,22.5,0L2320.72,433c-.49.607-3.59,1.952-8.88,1.952Z" transform="translate(-2288.89 -402.84)" fill="#fff"/>
        </g>
        <g id="Group_54" data-name="Group 54" transform="translate(2552.722 344.359)">
          <path id="Path_324" data-name="Path 324" d="M2459.84,858.84c-7.58,0-15.771,2.078-15.771,6.683l.407,3.26c-5.827,3.83-8.517,7.784-7.294,11,.652,1.752,2.649,3.83,8.435,3.83h.693l.734,5.746c.163,3.831,6.52,5.542,12.8,5.542s12.633-1.711,12.8-5.542l2.934-23.513V865.6C2475.61,860.959,2467.42,858.84,2459.84,858.84Zm0,3.912c7.335,0,11.329,1.915,11.817,2.771-.448.856-4.4,2.812-11.817,2.812s-11.369-1.956-11.818-2.812C2448.51,864.667,2452.5,862.752,2459.84,862.752ZM2440.81,878.4c-.244-.611.611-2.608,4.2-5.256l.815,6.561C2442.56,879.7,2441.01,878.971,2440.81,878.4Zm19.031,12.552c-5.3,0-8.4-1.345-8.924-1.956l-.733-5.787a48.508,48.508,0,0,0,7.335-1.712,3.709,3.709,0,0,0,2.282.815,3.667,3.667,0,1,0-3.546-4.523,44.507,44.507,0,0,1-6.561,1.549l-1.141-8.924a35.414,35.414,0,0,0,22.5,0L2468.72,889c-.49.607-3.59,1.952-8.88,1.952Z" transform="translate(-2436.89 -858.84)" fill="#fff"/>
        </g>
        <g id="Group_55" data-name="Group 55" transform="translate(2883.585 343.669)">
          <path id="Path_325" data-name="Path 325" d="M2939.84,857.84c-7.579,0-15.77,2.078-15.77,6.683l.407,3.26c-5.827,3.83-8.517,7.784-7.294,11,.652,1.752,2.649,3.831,8.435,3.831h.693l.734,5.746c.163,3.831,6.52,5.542,12.8,5.542s12.633-1.712,12.8-5.542l2.935-23.513V864.6C2955.61,859.959,2947.42,857.84,2939.84,857.84Zm0,3.912c7.335,0,11.329,1.915,11.818,2.771-.448.856-4.4,2.812-11.818,2.812s-11.369-1.956-11.818-2.812C2928.51,863.667,2932.5,861.752,2939.84,861.752ZM2920.81,877.4c-.244-.611.612-2.608,4.2-5.256l.814,6.561C2922.56,878.7,2921.01,877.971,2920.81,877.4Zm19.031,12.552c-5.3,0-8.4-1.345-8.924-1.956l-.733-5.787a48.537,48.537,0,0,0,7.335-1.712,3.707,3.707,0,0,0,2.282.815,3.667,3.667,0,1,0-3.546-4.523,44.523,44.523,0,0,1-6.561,1.549l-1.141-8.924a35.414,35.414,0,0,0,22.495,0L2948.72,888c-.49.607-3.59,1.952-8.88,1.952Z" transform="translate(-2916.89 -857.84)" fill="#fff"/>
        </g>
      </g>
      <path id="Intersection_2" data-name="Intersection 2" d="M155.258,503.6a295.506,295.506,0,0,1-63.22-93.769,293.474,293.474,0,0,1-17.189-55.375,297.843,297.843,0,0,1,0-118.905q1.522-7.439,3.434-14.805l22.654,8.44a270.927,270.927,0,0,0,79.017,264.7l-15.093,18.9Q159.955,508.293,155.258,503.6Z" transform="translate(2370.763 -139.995) rotate(-1.3)" fill="#f19840"/>
      <path id="Intersection_1" data-name="Intersection 1" d="M235.547,584.007a293.034,293.034,0,0,1-89.772-34.481l.315-1.3,9.126-21.135a270.558,270.558,0,0,0,282.707-1.928l14.43,19.406a295.925,295.925,0,0,1-216.807,39.434Z" transform="translate(2445 -150)" fill="#f19840"/>
      <path id="Intersection_3" data-name="Intersection 3" d="M33.12,187.87l-2.025-4.5A294.887,294.887,0,0,1,245.7,14.63c8.842-1.649,17.794-2.893,26.8-3.728l-2.369,8.124,6.6,15.6c-99.634,8.535-184.4,71.369-223.9,159.09Z" transform="translate(2440.113 -156.955)" fill="#f19840"/>
    </g>
    <g id="Group_17176" data-name="Group 17176" transform="translate(3295.05 -8)">
      <path id="Path_8" data-name="Path 8" d="M884.456,506.52a3.142,3.142,0,0,0-.712,2.357,10.049,10.049,0,0,0,2.38,5.287c2.346,2.432,7.725,3.214,7.725,3.214s-.663-6.168-3.182-8.418C887.161,505.825,884.687,506.246,884.456,506.52Z" transform="translate(-681.601 -292.164)" fill="#0099b9"/>
      <path id="Path_9" data-name="Path 9" d="M934.038,468.292a5.736,5.736,0,0,1-.318-4.483,14.9,14.9,0,0,1,6.078-7.148c5.164-3.381,14.781-2.634,14.781-2.634s-2.266,10.646-7.666,13.635C939.393,471.822,934.341,468.87,934.038,468.292Z" transform="translate(-654.403 -320.838)" fill="#0099b9"/>
      <path id="Path_10" data-name="Path 10" d="M884.629,487.88a4.507,4.507,0,0,1,1.39-3.255,11.188,11.188,0,0,1,6.547-3.347c4.839-.509,11.995,2.477,11.995,2.477s-5.958,7.033-10.819,7.184C886.975,491.147,884.634,488.4,884.629,487.88Z" transform="translate(-681.106 -305.913)" fill="#0099b9"/>
      <path id="Path_11" data-name="Path 11" d="M904.69,482.77a3.129,3.129,0,0,1-2.009-1.4,7.745,7.745,0,0,1-1.344-4.9c.336-3.347,3.363-7.768,3.363-7.768s3.922,5.021,3.339,8.331C907.23,481.642,905.04,482.838,904.69,482.77Z" transform="translate(-671.972 -312.765)" fill="#0099b9"/>
      <path id="Path_12" data-name="Path 12" d="M900.834,493.365a3.118,3.118,0,0,0,.707,2.343,7.735,7.735,0,0,0,4.243,2.8c3.285.719,8.427-.788,8.427-.788s-3.558-5.287-6.885-5.758C902.692,491.3,900.875,493.013,900.834,493.365Z" transform="translate(-672.247 -300.115)" fill="#0099b9"/>
      <path id="Path_13" data-name="Path 13" d="M931.5,508.611a5.551,5.551,0,0,0,1,4.231,13.423,13.423,0,0,0,7.593,4.549c5.676,1.384,15.568-2.85,15.568-2.85s-6.487-8.7-12.264-9.644C935.36,503.578,931.611,507.978,931.5,508.611Z" transform="translate(-655.489 -293.086)" fill="#0099b9"/>
      <path id="Path_14" data-name="Path 14" d="M859.457,480.156s-12.989,9.642-7.545,11.091c4.918,1.309,46.568-1.255,59.617-4.823C894.967,488.968,859.457,480.156,859.457,480.156Z" transform="translate(-699.749 -306.495)" fill="#0099b9"/>
      <path id="Path_15" data-name="Path 15" d="M873.9,487.058s.339.2.969.577c6.015,3.549,86.084,30.277,105,33.86,0,0-93.025-10.376-119.243-35.73" transform="translate(-694.248 -303.424)" fill="#0099b9"/>
      <path id="Path_16" data-name="Path 16" d="M879.317,494.389s9.205,17.872,13.524,21.217c0,0-16.264-8.9-18.8-21.692Z" transform="translate(-686.905 -298.963)" fill="#0099b9"/>
      <path id="Path_17" data-name="Path 17" d="M892.2,520.365s42.655-38.28,73.154-59.593c0,0-67.839,44.977-78.225,57.209Z" transform="translate(-679.739 -317.106)" fill="#0099b9"/>
      <path id="Path_18" data-name="Path 18" d="M828.944,391.666a4.006,4.006,0,0,1-3.117-.369,10.406,10.406,0,0,1-4.1-5.115c-1.638-3.991.148-10.489.148-10.489s7.008,2.962,8.34,7.061C832.073,388.458,829.38,391.535,828.944,391.666Z" transform="translate(-715.921 -363.683)" fill="#0099b9"/>
      <path id="Path_19" data-name="Path 19" d="M850.615,417.559s-10.6-14.7-25.5-34.23a133.58,133.58,0,0,0,23.2,37.39Z" transform="translate(-713.688 -359.503)" fill="#0099b9"/>
      <path id="Path_20" data-name="Path 20" d="M904.328,492.678c-.246-6.349-.382-15.107.444-18.89a74.091,74.091,0,0,0-2.065,19.672Z" transform="translate(-671.224 -309.981)" fill="#0099b9"/>
      <path id="Path_21" data-name="Path 21" d="M800.9,431.336a3.124,3.124,0,0,1-2.425-.325,7.746,7.746,0,0,1-3.443-3.745c-1.229-3.129-.561-8.446-.561-8.446s5.779,2.673,6.779,5.882C802.64,429.173,801.239,431.24,800.9,431.336Z" transform="translate(-730.563 -340.073)" fill="#0099b9"/>
      <path id="Path_22" data-name="Path 22" d="M805.446,440.107c-3.118-5.533-7.254-13.26-8.237-17a74.165,74.165,0,0,0,7.158,18.442Z" transform="translate(-728.966 -337.728)" fill="#0099b9"/>
      <g id="Group_1" data-name="Group 1" transform="translate(263.603 166.175)">
        <path id="Path_23" data-name="Path 23" d="M932.268,483.946a3.123,3.123,0,0,1-.123-2.443,7.731,7.731,0,0,1,3.044-4.07c2.847-1.789,8.2-2.116,8.2-2.116s-1.555,6.179-4.524,7.746C934.716,485.255,932.426,484.271,932.268,483.946Z" transform="translate(-918.804 -475.318)" fill="#0099b9"/>
        <path id="Path_24" data-name="Path 24" d="M928.161,490.466c4.865-4.089,10.142-9.578,13.636-11.248a101.59,101.59,0,0,0-18.343,11.995Z" transform="translate(-923.455 -473.182)" fill="#0099b9"/>
      </g>
      <path id="Path_25" data-name="Path 25" d="M779.522,474.531a3.113,3.113,0,0,1-2.427-.316,7.733,7.733,0,0,1-3.452-3.729c-1.244-3.123-.6-8.443-.6-8.443s5.8,2.648,6.8,5.854C781.257,472.361,779.865,474.432,779.522,474.531Z" transform="translate(-742.285 -316.41)" fill="#0099b9"/>
      <path id="Path_26" data-name="Path 26" d="M784.117,483.281c-3.143-5.523-7.3-13.229-8.316-16.967a74.124,74.124,0,0,0,7.238,18.406Z" transform="translate(-740.685 -314.073)" fill="#0099b9"/>
      <path id="Path_27" data-name="Path 27" d="M874.175,450.128a3.115,3.115,0,0,1-1.633-1.823,7.728,7.728,0,0,1-.181-5.079c1.094-3.178,5.057-6.785,5.057-6.785s2.662,5.787,1.335,8.874C876.906,449.615,874.5,450.277,874.175,450.128Z" transform="translate(-688.013 -330.427)" fill="#0099b9"/>
      <path id="Path_28" data-name="Path 28" d="M872.39,459.793c1.229-6.235,3.1-14.789,4.773-18.281a74.062,74.062,0,0,0-6.53,18.668Z" transform="translate(-688.769 -327.65)" fill="#0099b9"/>
      <g id="Group_2" data-name="Group 2" transform="translate(156.101 117.515)">
        <path id="Path_29" data-name="Path 29" d="M856.762,455.463a2.567,2.567,0,0,1-1.655-1.151A6.376,6.376,0,0,1,854,450.274c.276-2.758,2.771-6.4,2.771-6.4s3.231,4.136,2.752,6.864C858.855,454.533,857.05,455.519,856.762,455.463Z" transform="translate(-853.986 -443.873)" fill="#0099b9"/>
        <path id="Path_30" data-name="Path 30" d="M856.461,463.626c-.2-5.231-.316-12.447.369-15.564a61.1,61.1,0,0,0-1.7,16.207Z" transform="translate(-853.37 -441.579)" fill="#0099b9"/>
      </g>
      <g id="Group_3" data-name="Group 3" transform="translate(108.409 99.617)">
        <path id="Path_31" data-name="Path 31" d="M826.245,436.577a1.368,1.368,0,0,1-.166-1.063,3.394,3.394,0,0,1,1.146-1.914,9.551,9.551,0,0,1,3.488-1.292s-.4,2.77-1.631,3.59C827.374,437.04,826.327,436.709,826.245,436.577Z" transform="translate(-821.593 -432.307)" fill="#0099b9"/>
        <path id="Path_32" data-name="Path 32" d="M823.905,439.616a45.946,45.946,0,0,1,6.131-5.6,32.507,32.507,0,0,0-6.872,5.318Z" transform="translate(-823.165 -431.369)" fill="#0099b9"/>
      </g>
      <g id="Group_4" data-name="Group 4" transform="translate(128.511 67.209)">
        <path id="Path_33" data-name="Path 33" d="M839.868,418.672a1.8,1.8,0,0,1-1.4-.215,4.469,4.469,0,0,1-1.944-2.2,12.555,12.555,0,0,1-.231-4.89s3.319,1.609,3.854,3.477C840.9,417.441,840.068,418.62,839.868,418.672Z" transform="translate(-836.155 -411.364)" fill="#0099b9"/>
        <path id="Path_34" data-name="Path 34" d="M842.39,423.8a60.56,60.56,0,0,1-4.576-9.924,42.889,42.889,0,0,0,3.934,10.742Z" transform="translate(-835.246 -409.992)" fill="#0099b9"/>
      </g>
      <path id="Path_35" data-name="Path 35" d="M868.57,498.911a3.875,3.875,0,0,1,2.873.984,9.608,9.608,0,0,1,3.273,5.392c.738,4.109-1.368,10.416-1.368,10.416s-6.393-4.656-6.822-8.807C865.923,501.123,868.13,498.948,868.57,498.911Z" transform="translate(-691.074 -296.234)" fill="#0099b9"/>
      <path id="Path_36" data-name="Path 36" d="M864.72,489.727c2.452,7.5,5.6,17.9,5.9,22.7a91.977,91.977,0,0,0-4.233-24.183Z" transform="translate(-692.006 -302.069)" fill="#0099b9"/>
      <path id="Path_37" data-name="Path 37" d="M841.167,497.984a4.917,4.917,0,0,1,1.758,3.427,12.173,12.173,0,0,1-1.752,7.8c-2.936,4.4-10.406,8.313-10.406,8.313s-1.743-9.873,1.509-14.044C836.8,497.676,840.733,497.63,841.167,497.984Z" transform="translate(-710.849 -296.802)" fill="#0099b9"/>
      <path id="Path_38" data-name="Path 38" d="M848.184,486.357c-4.354,9-10.62,21.277-14.562,25.926a116.679,116.679,0,0,0,17.39-25.819Z" transform="translate(-709.031 -303.1)" fill="#0099b9"/>
      <g id="Group_5" data-name="Group 5" transform="translate(255.992 104.408)">
        <path id="Path_39" data-name="Path 39" d="M930.043,439.689a4.133,4.133,0,0,1,1.916-2.615,10.248,10.248,0,0,1,6.534-1.625c4.426.55,10.181,4.7,10.181,4.7s-6.772,5.041-11.137,4.161C931.457,443.09,929.941,440.149,930.043,439.689Z" transform="translate(-912.239 -435.407)" fill="#0099b9"/>
        <path id="Path_40" data-name="Path 40" d="M919.518,439.011c8.417-.123,20.018-.031,25,1.183a98.123,98.123,0,0,0-25.985-3.353Z" transform="translate(-918.536 -434.617)" fill="#0099b9"/>
      </g>
      <g id="Group_6" data-name="Group 6" transform="translate(179.339 22.263)">
        <path id="Path_41" data-name="Path 41" d="M877.437,403.045a5.171,5.171,0,0,1-1.909-3.565,12.8,12.8,0,0,1,1.705-8.238c3.009-4.681,10.795-8.922,10.795-8.922s2.007,10.35-1.34,14.791C882.035,403.291,877.9,403.408,877.437,403.045Z" transform="translate(-865.481 -382.32)" fill="#0099b9"/>
        <path id="Path_42" data-name="Path 42" d="M871.981,417.723c4.417-9.542,10.792-22.557,14.854-27.512A122.65,122.65,0,0,0,869,417.655Z" transform="translate(-869 -377.999)" fill="#0099b9"/>
      </g>
      <g id="Group_7" data-name="Group 7" transform="translate(230.26 146.996)">
        <path id="Path_43" data-name="Path 43" d="M909.11,465.766a2.679,2.679,0,0,1,1.515-1.456,6.639,6.639,0,0,1,4.352-.31c2.763.843,5.978,4.133,5.978,4.133s-4.885,2.459-7.576,1.416C909.635,468.1,908.995,466.05,909.11,465.766Z" transform="translate(-897.972 -462.464)" fill="#0099b9"/>
        <path id="Path_44" data-name="Path 44" d="M902.293,464.424c5.389.861,12.787,2.213,15.833,3.541a63.677,63.677,0,0,0-16.218-5.041Z" transform="translate(-901.908 -462.924)" fill="#0099b9"/>
      </g>
      <path id="Path_45" data-name="Path 45" d="M939.076,487.678a4.254,4.254,0,0,1,2.052-2.626,10.527,10.527,0,0,1,6.762-1.462c4.524.7,10.312,5.15,10.312,5.15s-7.12,4.958-11.578,3.921C940.422,491.214,938.957,488.145,939.076,487.678Z" transform="translate(-651.303 -304.665)" fill="#0099b9"/>
      <path id="Path_46" data-name="Path 46" d="M901.663,491.029c8.652.144,67.453-4.893,73.1-4.734-3.77-1.211-57.7,1.38-70.941.922Z" transform="translate(-671.782 -303.313)" fill="#0099b9"/>
      <g id="Group_8" data-name="Group 8" transform="translate(185.207 81.777)">
        <path id="Path_47" data-name="Path 47" d="M882.849,426.807a3.655,3.655,0,0,1,.905-2.722,9.07,9.07,0,0,1,5.063-3.14c3.872-.738,9.849,1.2,9.849,1.2s-4.341,6.077-8.256,6.524C884.961,429.288,882.889,427.222,882.849,426.807Z" transform="translate(-867.295 -420.778)" fill="#0099b9"/>
        <path id="Path_48" data-name="Path 48" d="M874.209,429.725c7.058-2.382,16.855-5.45,21.381-5.779a86.917,86.917,0,0,0-22.8,4.217Z" transform="translate(-872.793 -419.044)" fill="#0099b9"/>
      </g>
      <g id="Group_9" data-name="Group 9" transform="translate(184.201 67.103)">
        <path id="Path_49" data-name="Path 49" d="M876.93,413a1.722,1.722,0,0,1,.827-1.071,4.282,4.282,0,0,1,2.743-.6,12.008,12.008,0,0,1,4.2,2.075s-2.883,2.024-4.7,1.611C877.483,414.436,876.882,413.192,876.93,413Z" transform="translate(-869.523 -411.297)" fill="#0099b9"/>
        <path id="Path_50" data-name="Path 50" d="M872.529,412.629a57.977,57.977,0,0,1,10.419.772,40.975,40.975,0,0,0-10.8-1.688Z" transform="translate(-872.143 -411.068)" fill="#0099b9"/>
      </g>
      <g id="Group_10" data-name="Group 10" transform="translate(205.093 70.458)">
        <path id="Path_51" data-name="Path 51" d="M891.925,415.7a2.257,2.257,0,0,1,1.086-1.405,5.611,5.611,0,0,1,3.6-.794,15.781,15.781,0,0,1,5.5,2.722s-3.782,2.657-6.16,2.114C892.649,417.584,891.861,415.953,891.925,415.7Z" transform="translate(-882.208 -413.465)" fill="#0099b9"/>
        <path id="Path_52" data-name="Path 52" d="M886.149,415.214c4.608.059,10.96.277,13.671,1.013a53.774,53.774,0,0,0-14.176-2.213Z" transform="translate(-885.644 -413.162)" fill="#0099b9"/>
      </g>
      <g id="Group_11" data-name="Group 11" transform="translate(141.936 33.447)">
        <path id="Path_53" data-name="Path 53" d="M851.367,391.875a2.357,2.357,0,0,1,1.131-1.461,5.851,5.851,0,0,1,3.746-.826,16.4,16.4,0,0,1,5.728,2.828s-3.934,2.765-6.408,2.2C852.119,393.835,851.3,392.136,851.367,391.875Z" transform="translate(-841.254 -389.549)" fill="#0099b9"/>
        <path id="Path_54" data-name="Path 54" d="M845.357,391.368c4.795.06,11.4.288,14.226,1.055a55.942,55.942,0,0,0-14.754-2.308Z" transform="translate(-844.83 -389.234)" fill="#0099b9"/>
      </g>
      <g id="Group_12" data-name="Group 12" transform="translate(120.546 20.674)">
        <path id="Path_55" data-name="Path 55" d="M833.811,391.9a2.352,2.352,0,0,1-1.574-.968,5.843,5.843,0,0,1-1.229-3.637,16.384,16.384,0,0,1,2.2-6s3.171,3.615,2.876,6.135C835.678,390.937,834.072,391.933,833.811,391.9Z" transform="translate(-831.008 -381.292)" fill="#0099b9"/>
        <path id="Path_56" data-name="Path 56" d="M833.852,399.362c-.456-4.775-.939-11.37-.479-14.262a55.928,55.928,0,0,0-.708,14.916Z" transform="translate(-830.211 -379.207)" fill="#0099b9"/>
      </g>
      <g id="Group_13" data-name="Group 13" transform="translate(212.112 90.002)">
        <path id="Path_57" data-name="Path 57" d="M900.061,432.618a3.644,3.644,0,0,1,.729-2.763,9.042,9.042,0,0,1,4.839-3.443c3.8-.971,9.867.577,9.867.577s-3.934,6.312-7.8,7C902.316,434.954,900.124,433.027,900.061,432.618Z" transform="translate(-884.791 -426.092)" fill="#0099b9"/>
        <path id="Path_58" data-name="Path 58" d="M891.68,436.376c6.868-2.811,16.415-6.473,20.9-7.083a86.612,86.612,0,0,0-22.4,5.616Z" transform="translate(-890.18 -424.341)" fill="#0099b9"/>
      </g>
      <g id="Group_14" data-name="Group 14" transform="translate(241.904 95.359)">
        <path id="Path_59" data-name="Path 59" d="M911.645,439.745a2.267,2.267,0,0,1-1.4-1.1,5.614,5.614,0,0,1-.769-3.606,15.762,15.762,0,0,1,2.758-5.486s2.632,3.8,2.074,6.173C913.531,439.033,911.893,439.815,911.645,439.745Z" transform="translate(-909.434 -429.556)" fill="#0099b9"/>
        <path id="Path_60" data-name="Path 60" d="M911.125,446.924c.09-4.609.352-10.957,1.107-13.662a53.761,53.761,0,0,0-2.311,14.161Z" transform="translate(-909.166 -427.526)" fill="#0099b9"/>
      </g>
      <g id="Group_15" data-name="Group 15" transform="translate(260.658 107.611)">
        <path id="Path_61" data-name="Path 61" d="M925.6,441.277a1.889,1.889,0,0,1,1.419-.435,4.694,4.694,0,0,1,2.844,1.195,13.17,13.17,0,0,1,2.452,4.516s-3.867-.007-5.23-1.526C925.188,442.914,925.437,441.419,925.6,441.277Z" transform="translate(-919.394 -435.634)" fill="#0099b9"/>
        <path id="Path_62" data-name="Path 62" d="M921.551,438.544c3.123,2.263,7.358,5.476,8.852,7.288a45.062,45.062,0,0,0-8.621-8.36Z" transform="translate(-921.551 -437.472)" fill="#0099b9"/>
      </g>
      <g id="Group_16" data-name="Group 16" transform="translate(78.807 29.277)">
        <path id="Path_63" data-name="Path 63" d="M825.794,394.063a4.906,4.906,0,0,1-2.725,2.717,12.172,12.172,0,0,1-7.958.708c-5.081-1.454-11.076-7.377-11.076-7.377s8.862-4.662,13.822-2.838C824.759,389.818,826,393.543,825.794,394.063Z" transform="translate(-804.035 -386.851)" fill="#0099b9"/>
        <path id="Path_64" data-name="Path 64" d="M841.152,395.529c-9.891-1.4-23.483-3.628-29.1-5.964a116.6,116.6,0,0,0,29.855,8.69Z" transform="translate(-799.647 -385.366)" fill="#0099b9"/>
      </g>
      <g id="Group_17" data-name="Group 17" transform="translate(103.725 66.426)">
        <path id="Path_65" data-name="Path 65" d="M831.35,419.437a3.133,3.133,0,0,1-2.336.75,7.759,7.759,0,0,1-4.729-1.914c-2.465-2.305-4.147-7.415-4.147-7.415s6.393-.07,8.68,2.412C832,416.724,831.618,419.2,831.35,419.437Z" transform="translate(-820.138 -410.858)" fill="#0099b9"/>
        <path id="Path_66" data-name="Path 66" d="M839.313,425.4c-5.213-3.675-12.285-8.9-14.8-11.863a74.43,74.43,0,0,0,14.434,13.632Z" transform="translate(-817.741 -409.391)" fill="#0099b9"/>
      </g>
      <g id="Group_18" data-name="Group 18" transform="translate(103.48 29.612)">
        <path id="Path_67" data-name="Path 67" d="M826.357,392.1a1.807,1.807,0,0,1-1.352.411,4.46,4.46,0,0,1-2.7-1.143,12.542,12.542,0,0,1-2.321-4.3s3.68.017,4.973,1.466C826.753,390.55,826.514,391.969,826.357,392.1Z" transform="translate(-819.979 -387.068)" fill="#0099b9"/>
        <path id="Path_68" data-name="Path 68" d="M830.887,395.6a60.444,60.444,0,0,1-8.411-6.958,42.832,42.832,0,0,0,8.185,7.972Z" transform="translate(-818.612 -386.205)" fill="#0099b9"/>
      </g>
      <g id="Group_19" data-name="Group 19" transform="translate(85.193 130.115)">
        <path id="Path_69" data-name="Path 69" d="M818.536,461.516a3.112,3.112,0,0,1-2.388.539,7.745,7.745,0,0,1-4.524-2.315c-2.242-2.506-3.463-7.724-3.463-7.724s6.353.492,8.4,3.157C819.42,458.881,818.827,461.306,818.536,461.516Z" transform="translate(-808.161 -452.016)" fill="#0099b9"/>
        <path id="Path_70" data-name="Path 70" d="M825.917,468.131c-4.85-4.105-11.406-9.91-13.647-13.073a74.2,74.2,0,0,0,13.123,14.8Z" transform="translate(-805.911 -450.35)" fill="#0099b9"/>
      </g>
      <g id="Group_20" data-name="Group 20" transform="translate(48.52 98.422)">
        <path id="Path_71" data-name="Path 71" d="M794.836,441.035a3.111,3.111,0,0,1-2.388.538,7.731,7.731,0,0,1-4.523-2.315c-2.242-2.506-3.463-7.724-3.463-7.724s6.35.492,8.4,3.157C795.721,438.4,795.128,440.824,794.836,441.035Z" transform="translate(-784.462 -431.535)" fill="#0099b9"/>
        <path id="Path_72" data-name="Path 72" d="M802.218,447.65c-4.85-4.105-11.408-9.91-13.647-13.073a74.15,74.15,0,0,0,13.123,14.8Z" transform="translate(-782.212 -429.869)" fill="#0099b9"/>
      </g>
      <path id="Path_73" data-name="Path 73" d="M881.478,473.374a3.126,3.126,0,0,1,1.447-1.976,7.737,7.737,0,0,1,4.931-1.229c3.337.414,7.684,3.546,7.684,3.546s-5.112,3.8-8.407,3.141C882.546,475.94,881.4,473.721,881.478,473.374Z" transform="translate(-682.834 -311.983)" fill="#0099b9"/>
      <path id="Path_74" data-name="Path 74" d="M873.533,472.861c6.354-.091,15.113-.025,18.875.891a74.151,74.151,0,0,0-19.615-2.532Z" transform="translate(-687.587 -311.387)" fill="#0099b9"/>
      <path id="Path_75" data-name="Path 75" d="M916.562,447.981a3.118,3.118,0,0,1,1.446-1.975,7.738,7.738,0,0,1,4.932-1.229c3.336.414,7.687,3.547,7.687,3.547s-5.113,3.8-8.408,3.14C917.628,450.547,916.487,448.328,916.562,447.981Z" transform="translate(-663.628 -325.884)" fill="#0099b9"/>
      <path id="Path_76" data-name="Path 76" d="M908.617,447.468c6.354-.09,15.111-.023,18.875.893a74.1,74.1,0,0,0-19.617-2.531Z" transform="translate(-668.382 -325.288)" fill="#0099b9"/>
      <path id="Path_77" data-name="Path 77" d="M839.445,469.444a4.49,4.49,0,0,1-3.406-.874,11.112,11.112,0,0,1-4.271-5.922c-1.229-4.672.623-12.142.623-12.142s7.8,4.788,8.68,9.536C842.3,466.649,839.951,469.363,839.445,469.444Z" transform="translate(-710.275 -322.728)" fill="#0099b9"/>
      <path id="Path_78" data-name="Path 78" d="M844.181,482.729c-3.514-8.424-8.1-20.139-8.891-25.644a106.493,106.493,0,0,0,7.1,27.511Z" transform="translate(-708.118 -319.125)" fill="#0099b9"/>
      <path id="Path_79" data-name="Path 79" d="M814.774,436.792a3.124,3.124,0,0,1-2.442.181,7.735,7.735,0,0,1-4.132-2.957c-1.844-2.808-2.287-8.15-2.287-8.15s6.209,1.426,7.844,4.362C816.033,434.316,815.087,436.626,814.774,436.792Z" transform="translate(-724.2 -336.216)" fill="#0099b9"/>
      <path id="Path_80" data-name="Path 80" d="M821.094,444.423c-4.19-4.775-9.82-11.486-11.564-14.942a74.185,74.185,0,0,0,10.8,16.572Z" transform="translate(-722.22 -334.237)" fill="#0099b9"/>
      <path id="Path_81" data-name="Path 81" d="M907.992,494.333c-3.548,0-9.322-1.721-11.769-2.514l.315.652-.827.4C898.664,493.628,904.181,494.948,907.992,494.333Z" transform="translate(-675.04 -300.11)" fill="#0099b9"/>
      <path id="Path_82" data-name="Path 82" d="M819.773,509.385a3.332,3.332,0,0,1,.755,2.5,10.65,10.65,0,0,1-2.52,5.6c-2.485,2.582-8.18,3.4-8.18,3.4s.7-6.53,3.369-8.914C816.911,508.648,819.529,509.1,819.773,509.385Z" transform="translate(-722.057 -290.602)" fill="#0099b9"/>
      <path id="Path_83" data-name="Path 83" d="M775.422,477.764a6.224,6.224,0,0,0,.347-4.87,16.171,16.171,0,0,0-6.6-7.765c-5.612-3.674-16.058-2.861-16.058-2.861s2.459,11.566,8.328,14.813C769.6,481.6,775.092,478.392,775.422,477.764Z" transform="translate(-753.108 -316.33)" fill="#0099b9"/>
      <path id="Path_84" data-name="Path 84" d="M824.862,488.668a4.517,4.517,0,0,0-1.39-3.257,11.188,11.188,0,0,0-6.55-3.347c-4.839-.509-11.995,2.477-11.995,2.477s5.959,7.035,10.819,7.183C822.516,491.933,824.858,489.181,824.862,488.668Z" transform="translate(-724.739 -305.483)" fill="#0099b9"/>
      <path id="Path_85" data-name="Path 85" d="M798.992,483.017a3.339,3.339,0,0,0,2.562-.552,8.29,8.29,0,0,0,3.353-4.291c1.049-3.443-.116-9.066-.116-9.066s-5.949,3.344-6.742,6.857C796.949,480.853,798.619,482.942,798.992,483.017Z" transform="translate(-728.708 -312.544)" fill="#0099b9"/>
      <path id="Path_86" data-name="Path 86" d="M798.955,495.231a5.31,5.31,0,0,1-1.2,3.986,13.156,13.156,0,0,1-7.218,4.757c-5.587,1.222-14.334-1.341-14.334-1.341s6.053-8.989,11.711-9.794C795.792,491.719,798.884,494.631,798.955,495.231Z" transform="translate(-740.466 -299.691)" fill="#0099b9"/>
      <path id="Path_87" data-name="Path 87" d="M782.372,508.774a4.854,4.854,0,0,1-.874,3.7,11.736,11.736,0,0,1-6.639,3.972c-4.96,1.21-13.6-2.491-13.6-2.491s5.668-7.6,10.715-8.426C779,504.374,782.277,508.22,782.372,508.774Z" transform="translate(-748.646 -292.723)" fill="#0099b9"/>
      <path id="Path_88" data-name="Path 88" d="M864.549,480.942s12.99,9.642,7.545,11.092c-4.918,1.308-46.568-1.257-59.619-4.824C829.033,489.754,864.549,480.942,864.549,480.942Z" transform="translate(-720.607 -306.065)" fill="#0099b9"/>
      <path id="Path_89" data-name="Path 89" d="M869.918,487.085s-.359.216-1.028.615c-6.368,3.758-78.23,29.284-98.251,33.073,0,0,82.375-6.075,110.141-32.924" transform="translate(-743.511 -302.702)" fill="#0099b9"/>
      <path id="Path_90" data-name="Path 90" d="M829.067,496.709s-9.747,18.925-14.325,22.466c0,0,17.221-9.423,19.911-22.967Z" transform="translate(-719.367 -297.708)" fill="#0099b9"/>
      <path id="Path_91" data-name="Path 91" d="M835.724,520.253s-33.283-24.958-71.924-51.9c0,0,58.291,25.949,77.293,49.375Z" transform="translate(-747.255 -312.956)" fill="#0099b9"/>
      <path id="Path_92" data-name="Path 92" d="M794.9,492.774c2.861-6.177,6.617-14.775,7.363-18.858a79.457,79.457,0,0,1-6.083,20.3Z" transform="translate(-730.232 -309.911)" fill="#0099b9"/>
      <path id="Path_93" data-name="Path 93" d="M786.1,495.877c6.035.01,15.86-2.936,20.017-4.276l-.536,1.107,1.41.677C801.974,494.673,792.6,496.923,786.1,495.877Z" transform="translate(-735.045 -300.229)" fill="#0099b9"/>
      <path id="Path_94" data-name="Path 94" d="M876.267,564.687v-.026c-1.153-19.148-1.263-39.212,8.293-56.187,4.506-8.006,9.248-15.882,14.054-23.713,6.066-9.885,46.881-58.7,53.2-68.422-25.262,12.158-72.082,79.39-80.461,91.271-6.72-26.188-29.176-87.512-43.751-100.484,15.507,44.414,33.91,103.891,34.124,142.961.028,5.108-.328,10.2-.2,15.309,0,0,0,36.175-9.306,41.975h33.128C878.333,607.367,876.645,570.924,876.267,564.687Z" transform="translate(-712.324 -346.477)" fill="#0099b9"/>
      <path id="Path_95" data-name="Path 95" d="M777.807,449.184a3.494,3.494,0,0,1-1.416,2.336,8.908,8.908,0,0,1-5.506,1.378c-3.735-.167-8.89-4.129-8.89-4.129s5.533-4.325,9.24-3.879C776.4,445.516,777.861,448.788,777.807,449.184Z" transform="translate(-748.242 -325.817)" fill="#0099b9"/>
      <path id="Path_96" data-name="Path 96" d="M913.307,461.608a5.092,5.092,0,0,0,2.942,2.7,12.989,12.989,0,0,0,8.273-.323c5.164-1.763,10.757-9.419,10.757-9.419s-9.51-3.792-14.526-1.647C913.774,455.9,913.074,461.076,913.307,461.608Z" transform="translate(-665.426 -321.767)" fill="#0099b9"/>
      <path id="Path_97" data-name="Path 97" d="M925.275,435.193a5.055,5.055,0,0,1-1.508-3.668,13.155,13.155,0,0,1,3.112-7.673c3.392-4.264,11.655-6.3,11.655-6.3s1.051,9.548-2.646,13.546C930.741,436.668,925.689,435.591,925.275,435.193Z" transform="translate(-659.682 -340.767)" fill="#0099b9"/>
      <path id="Path_98" data-name="Path 98" d="M802.73,420.057a4.672,4.672,0,0,0,1.6-3.307,12.161,12.161,0,0,0-2.453-7.264c-2.9-4.129-11.087-7.122-11.087-7.122s-.836,9.424,2.362,13.324C797.6,421.117,802.327,420.4,802.73,420.057Z" transform="translate(-732.533 -349.082)" fill="#0099b9"/>
      <path id="Path_99" data-name="Path 99" d="M790.931,430.5a5.217,5.217,0,0,0,1.475-3.811,13.547,13.547,0,0,0-3.369-7.837c-3.584-4.319-12.93-6.907-12.93-6.907s-.085,10.523,3.811,14.563C785.334,432.138,790.512,430.925,790.931,430.5Z" transform="translate(-740.517 -343.835)" fill="#0099b9"/>
      <path id="Path_100" data-name="Path 100" d="M842.905,394.164a5.883,5.883,0,0,1-4.115-2.08,14.569,14.569,0,0,1-3.8-8.783c-.257-6.328,4.221-15.368,4.221-15.368s8.635,8.328,8.423,14.653C847.344,391.392,843.574,394.2,842.905,394.164Z" transform="translate(-708.285 -367.932)" fill="#0099b9"/>
      <path id="Path_101" data-name="Path 101" d="M811.367,409.32a3.645,3.645,0,0,1-2.846-.288,9.036,9.036,0,0,1-4.154-4.244c-1.557-3.609-.975-9.843-.975-9.843s6.857,2.9,8.142,6.616C813.321,406.726,811.763,409.192,811.367,409.32Z" transform="translate(-725.638 -353.144)" fill="#0099b9"/>
      <path id="Path_102" data-name="Path 102" d="M833.137,417.895a4.634,4.634,0,0,1-3.632-.209,11.867,11.867,0,0,1-5.052-5.617c-2.132-4.494-.414-13.3-.414-13.3s8.249,4.093,10.04,8.729C836.571,413.966,833.635,417.712,833.137,417.895Z" transform="translate(-714.635 -351.051)" fill="#0099b9"/>
      <path id="Path_103" data-name="Path 103" d="M903.842,422a6.052,6.052,0,0,0,4.426,1.721,15.49,15.49,0,0,0,9.043-3.934c4.97-4.18,7.7-15.575,7.7-15.575s-12.014.395-16.656,4.938C901.892,415.47,903.35,421.509,903.842,422Z" transform="translate(-670.859 -348.074)" fill="#0099b9"/>
      <path id="Path_104" data-name="Path 104" d="M890.177,456.634a5.779,5.779,0,0,0,4.426.97,13.981,13.981,0,0,0,7.7-5.074c3.865-4.7,4.357-15.9,4.357-15.9s-11.1,2.16-14.594,7.157C887.194,450.733,889.632,456.245,890.177,456.634Z" transform="translate(-678.667 -330.325)" fill="#0099b9"/>
      <path id="Path_105" data-name="Path 105" d="M870.876,452.35c-2.321,0-39.712-2.916-88.951-31.395,0,0,26,33.458,94.112,42.23Z" transform="translate(-737.332 -338.905)" fill="#0099b9"/>
      <path id="Path_106" data-name="Path 106" d="M834.386,440.242s-57.927,12.787-63.088,13.812c0,0,63.408-.049,72.374-11.231Z" transform="translate(-743.15 -328.346)" fill="#0099b9"/>
      <path id="Path_107" data-name="Path 107" d="M875.683,464.086s21.588-5.7,32.793-20.163c0,0-7.945,23.016-38.292,28.515Z" transform="translate(-689.014 -326.331)" fill="#0099b9"/>
      <path id="Path_108" data-name="Path 108" d="M867.833,494.358s70.209-35.944,98.358-69.918c0,0-19.279,44.769-104.514,82.72Z" transform="translate(-693.672 -336.997)" fill="#0099b9"/>
      <path id="Path_109" data-name="Path 109" d="M817.713,461.914a5.472,5.472,0,0,1-1.954,3.819,14,14,0,0,1-8.463,2.776c-5.865.162-14.546-5.882-14.546-5.882s8.341-6.949,14.2-6.672C815.109,456.345,817.754,461.3,817.713,461.914Z" transform="translate(-731.405 -319.747)" fill="#0099b9"/>
      <path id="Path_110" data-name="Path 110" d="M826.467,477.759a3.833,3.833,0,0,1-1.752,2.433,9.266,9.266,0,0,1-6.038.9c-3.985-.615-9.177-5.915-9.177-5.915s6.424-3.84,10.357-2.921C825.331,473.533,826.563,477.326,826.467,477.759Z" transform="translate(-722.237 -310.898)" fill="#0099b9"/>
      <path id="Path_111" data-name="Path 111" d="M878.063,487.473S819.639,458.5,804.928,459.1c0,0,62.156,32.783,73.727,44.025Z" transform="translate(-724.739 -318.027)" fill="#0099b9"/>
      <path id="Path_112" data-name="Path 112" d="M841.291,471.651s-13.715,7.008-26.126,4.741c0,0,14.676,8.165,32.8-2.984Z" transform="translate(-719.134 -311.151)" fill="#0099b9"/>
      <path id="Path_113" data-name="Path 113" d="M853.9,441.816c-1.078-.123-32.689-12.617-47.335-41.421,0,0,12.5,35.386,47.263,51.256Z" transform="translate(-723.84 -350.16)" fill="#0099b9"/>
      <path id="Path_114" data-name="Path 114" d="M899.332,465.149s26.885-3.668,34.218-9.37c0,0-17.515,19.549-41.549,17.108S899.332,465.149,899.332,465.149Z" transform="translate(-682.033 -319.838)" fill="#0099b9"/>
      <path id="Path_115" data-name="Path 115" d="M844.629,434.533c-4.075,1.9-43.055-16.138-49.029-24.013,0,0,8.171,18.513,54.868,29.988Z" transform="translate(-729.846 -344.618)" fill="#0099b9"/>
      <path id="Path_116" data-name="Path 116" d="M841.515,462.273s-1.62-77.766-2.592-85.542c0,0,11.665,63.507,9.4,93.965S841.515,462.273,841.515,462.273Z" transform="translate(-706.128 -363.115)" fill="#0099b9"/>
      <path id="Path_117" data-name="Path 117" d="M876.731,434.39a3.138,3.138,0,0,0,1.815,1.663,10.06,10.06,0,0,0,5.793.149c3.209-1.06,6.247-5.568,6.247-5.568s-5.845-2.078-8.965-.784C877.277,431.652,876.585,434.066,876.731,434.39Z" transform="translate(-685.44 -334.267)" fill="#0099b9"/>
      <path id="Path_118" data-name="Path 118" d="M855.3,424.644a5.051,5.051,0,0,0,2.592-3,13.133,13.133,0,0,0-.526-8.263c-1.87-5.117-9.571-10.533-9.571-10.533s-3.51,9.59-1.268,14.558C849.648,424.314,854.781,424.893,855.3,424.644Z" transform="translate(-702.376 -348.819)" fill="#0099b9"/>
      <path id="Path_119" data-name="Path 119" d="M861.281,458.026a5.055,5.055,0,0,1-1.508-3.668,13.14,13.14,0,0,1,3.112-7.672c3.392-4.265,11.655-6.3,11.655-6.3s1.051,9.548-2.646,13.546C866.744,459.5,861.693,458.426,861.281,458.026Z" transform="translate(-694.715 -328.268)" fill="#0099b9"/>
      <path id="Path_120" data-name="Path 120" d="M869.937,397.488a5.417,5.417,0,0,1-3.949-1.566,14.086,14.086,0,0,1-3.6-8.115c-.761-5.787,3.818-13.672,3.818-13.672s8.139,6.3,8.471,12.121C875.139,394.378,870.552,397.465,869.937,397.488Z" transform="translate(-693.328 -364.534)" fill="#0099b9"/>
      <path id="Path_121" data-name="Path 121" d="M862.687,429.453a4.507,4.507,0,0,1-2.336-2.667,11.189,11.189,0,0,1-.174-7.352c1.639-4.581,7.433-9.732,7.433-9.732s3.752,8.419,1.779,12.864C866.648,428.756,863.156,429.674,862.687,429.453Z" transform="translate(-694.79 -345.065)" fill="#0099b9"/>
      <path id="Path_122" data-name="Path 122" d="M867.308,404.435a3.122,3.122,0,0,1-2.132,1.2,7.73,7.73,0,0,1-5-.916c-2.871-1.753-5.541-6.393-5.541-6.393s6.225-1.352,8.955.6C867.393,401.656,867.521,404.151,867.308,404.435Z" transform="translate(-697.526 -351.542)" fill="#0099b9"/>
      <path id="Path_123" data-name="Path 123" d="M876.748,411.705a4.34,4.34,0,0,0,3.368.527,10.77,10.77,0,0,0,6.072-3.634c2.886-3.688,4.1-11.051,4.1-11.051s-8.78,1.273-11.382,5.164C875.281,408.125,876.33,411.44,876.748,411.705Z" transform="translate(-685.677 -351.719)" fill="#0099b9"/>
      <path id="Path_124" data-name="Path 124" d="M893.634,408.078a5,5,0,0,0,3.819.837,12.07,12.07,0,0,0,6.646-4.379c3.337-4.057,3.762-13.731,3.762-13.731s-9.579,1.865-12.6,6.177C891.057,402.987,893.163,407.742,893.634,408.078Z" transform="translate(-676.693 -355.41)" fill="#0099b9"/>
      <path id="Path_125" data-name="Path 125" d="M844.49,461.291s3.054,15.886,6.722,11.609c3.313-3.865,19.064-42.505,21.508-55.812C867.832,433.111,844.49,461.291,844.49,461.291Z" transform="translate(-703.081 -341.022)" fill="#0099b9"/>
      <path id="Path_126" data-name="Path 126" d="M864.066,435.545s-12.491-17.743-13.919-23.868c.594,4.116,3.23,20.262,9.235,29.977Z" transform="translate(-699.984 -343.983)" fill="#0099b9"/>
      <path id="Path_127" data-name="Path 127" d="M785.059,441.853a5.2,5.2,0,0,0-.025-4.081,13.518,13.518,0,0,0-6-6.043c-4.918-2.7-14.543-1.677-14.543-1.677s3.777,9.806,8.873,12.133C780.46,445.424,784.826,442.4,785.059,441.853Z" transform="translate(-746.877 -334.028)" fill="#0099b9"/>
      <path id="Path_128" data-name="Path 128" d="M808.3,451.892s-29.63-12.984-33.771-17.138c2.491,2.972,12.5,14.473,22.027,19.225Z" transform="translate(-741.383 -331.35)" fill="#0099b9"/>
      <path id="Path_129" data-name="Path 129" d="M858.339,456.778s.331-.216.939-.623c5.808-3.879,48.852-40.275,60.279-55.759,0,0-14.593,33.894-68.144,67.79" transform="translate(-699.291 -350.16)" fill="#0099b9"/>
      <path id="Path_130" data-name="Path 130" d="M867.292,433.764s20.095-.543,24.983-2.988c0,0-15.072,10.795-27.7,7.537Z" transform="translate(-692.085 -333.528)" fill="#0099b9"/>
      <path id="Path_131" data-name="Path 131" d="M849.834,473.775s19.5-23.7,23.36-27.38c0,0-16.075,28.476-19.843,32.857S849.834,473.775,849.834,473.775Z" transform="translate(-700.157 -324.977)" fill="#0099b9"/>
      <path id="Path_132" data-name="Path 132" d="M827.182,462.4a3.52,3.52,0,0,1-2.7-.546,9.152,9.152,0,0,1-3.234-4.769c-1.153-3.613.861-9.18.861-9.18s5.93,3.087,6.811,6.773C830.15,459.8,827.574,462.311,827.182,462.4Z" transform="translate(-716.003 -324.154)" fill="#0099b9"/>
      <path id="Path_133" data-name="Path 133" d="M830.254,476.871s-6.161-20.455-6.8-24.109c0,0,10.253,20.32,11.328,24.195S830.254,476.871,830.254,476.871Z" transform="translate(-714.596 -321.492)" fill="#0099b9"/>
      <path id="Path_134" data-name="Path 134" d="M881.863,442.64s-9.16-18.133-15.134-54.862c0,0,4.271,43.728,10.789,58.393Z" transform="translate(-690.906 -357.068)" fill="#0099b9"/>
      <path id="Path_135" data-name="Path 135" d="M876.276,408.485c-5.827-2.536-13.778-6.206-16.829-8.592a74.16,74.16,0,0,0,16.829,10.392Z" transform="translate(-694.893 -350.435)" fill="#0099b9"/>
      <g id="Group_21" data-name="Group 21" transform="translate(52.211 157.768)">
        <path id="Path_136" data-name="Path 136" d="M795.72,478.923a2.805,2.805,0,0,1-2.172.369,6.969,6.969,0,0,1-3.955-2.3c-1.9-2.359-2.744-7.109-2.744-7.109s5.688.748,7.4,3.24C796.638,476.6,795.987,478.748,795.72,478.923Z" transform="translate(-786.848 -469.885)" fill="#0099b9"/>
        <path id="Path_137" data-name="Path 137" d="M802.035,485.222c-4.163-3.923-9.781-9.455-11.638-12.405a66.793,66.793,0,0,0,11.089,13.931Z" transform="translate(-784.905 -468.28)" fill="#0099b9"/>
      </g>
      <path id="Path_138" data-name="Path 138" d="M803.3,509.582a3.338,3.338,0,0,0-2.589-.413,8.287,8.287,0,0,0-4.672,2.786c-2.226,2.828-3.176,8.494-3.176,8.494s6.762-.963,8.766-3.949C804.422,512.339,803.621,509.788,803.3,509.582Z" transform="translate(-731.345 -290.666)" fill="#0099b9"/>
      <path id="Path_139" data-name="Path 139" d="M810.736,503.9c-4.9,4.721-11.519,11.375-13.691,14.91a79.447,79.447,0,0,1,13.02-16.721Z" transform="translate(-729.055 -294.489)" fill="#0099b9"/>
      <g id="Group_22" data-name="Group 22" transform="translate(74.602 214)">
        <path id="Path_140" data-name="Path 140" d="M803.35,510.579a1.624,1.624,0,0,1,1.252.257,4.035,4.035,0,0,1,1.656,2.074,11.353,11.353,0,0,1-.01,4.42s-2.918-1.6-3.32-3.307C802.364,511.644,803.166,510.612,803.35,510.579Z" transform="translate(-800.545 -503.859)" fill="#0099b9"/>
        <path id="Path_141" data-name="Path 141" d="M801.318,506.932a54.67,54.67,0,0,1,3.688,9.152,38.661,38.661,0,0,0-3.074-9.86Z" transform="translate(-801.318 -506.224)" fill="#0099b9"/>
      </g>
      <path id="Path_142" data-name="Path 142" d="M895.154,508.444a3.349,3.349,0,0,0-1.147,2.359,8.3,8.3,0,0,0,1.309,5.287c2.064,2.951,7.208,5.5,7.208,5.5s1.039-6.745-1.238-9.536C898.117,508.165,895.442,508.2,895.154,508.444Z" transform="translate(-675.988 -291.059)" fill="#0099b9"/>
      <path id="Path_143" data-name="Path 143" d="M891.359,500.614c3.1,6.063,7.549,14.323,10.3,17.428a79.4,79.4,0,0,1-12.223-17.309Z" transform="translate(-678.475 -295.295)" fill="#0099b9"/>
      <g id="Group_23" data-name="Group 23" transform="translate(215.408 210.585)">
        <path id="Path_144" data-name="Path 144" d="M896.875,506.124a1.63,1.63,0,0,1,.609-1.124,4.029,4.029,0,0,1,2.465-.984,11.341,11.341,0,0,1,4.228,1.291s-2.377,2.329-4.129,2.22C897.608,507.376,896.859,506.31,896.875,506.124Z" transform="translate(-889.811 -504.017)" fill="#0099b9"/>
        <path id="Path_145" data-name="Path 145" d="M892.809,506.406a54.685,54.685,0,0,1,9.828-.874,38.733,38.733,0,0,0-10.328.078Z" transform="translate(-892.31 -503.355)" fill="#0099b9"/>
      </g>
      <path id="Path_146" data-name="Path 146" d="M791.539,454.976a3.159,3.159,0,0,1,1.084,2.227,7.831,7.831,0,0,1-1.229,4.992c-1.948,2.79-6.8,5.2-6.8,5.2s-.984-6.37,1.159-9.006C788.745,454.721,791.271,454.745,791.539,454.976Z" transform="translate(-735.995 -320.326)" fill="#0099b9"/>
      <path id="Path_147" data-name="Path 147" d="M796.268,447.578c-2.919,5.728-7.114,13.534-9.713,16.468a75.052,75.052,0,0,0,11.525-16.352Z" transform="translate(-734.796 -324.33)" fill="#0099b9"/>
      <g id="Group_24" data-name="Group 24" transform="translate(48.644 128.638)">
        <path id="Path_148" data-name="Path 148" d="M789.455,452.476a1.089,1.089,0,0,0-.409-.755,2.717,2.717,0,0,0-1.659-.66,7.652,7.652,0,0,0-2.844.872s1.6,1.566,2.78,1.491C788.963,453.322,789.466,452.6,789.455,452.476Z" transform="translate(-784.543 -451.061)" fill="#0099b9"/>
        <path id="Path_149" data-name="Path 149" d="M792.91,452.662a36.713,36.713,0,0,0-6.612-.582,26.027,26.027,0,0,1,6.948.046Z" transform="translate(-783.582 -450.617)" fill="#0099b9"/>
      </g>
      <g id="Group_25" data-name="Group 25" transform="translate(188.123 169.826)">
        <path id="Path_150" data-name="Path 150" d="M878.425,484.049a1.832,1.832,0,0,1-.388-1.382,4.534,4.534,0,0,1,1.216-2.721,12.714,12.714,0,0,1,4.416-2.268s-.093,3.735-1.59,5.019C880,484.483,878.558,484.21,878.425,484.049Z" transform="translate(-872.847 -477.678)" fill="#0099b9"/>
        <path id="Path_151" data-name="Path 151" d="M875.7,488.575a61.348,61.348,0,0,1,7.234-8.395,43.478,43.478,0,0,0-8.261,8.144Z" transform="translate(-874.678 -476.308)" fill="#0099b9"/>
      </g>
      <g id="Group_26" data-name="Group 26" transform="translate(230.717 131.142)">
        <path id="Path_152" data-name="Path 152" d="M905.949,459.05a1.831,1.831,0,0,1-.389-1.382,4.534,4.534,0,0,1,1.216-2.722,12.728,12.728,0,0,1,4.416-2.267s-.092,3.735-1.588,5.019C907.521,459.484,906.082,459.211,905.949,459.05Z" transform="translate(-900.372 -452.679)" fill="#0099b9"/>
        <path id="Path_153" data-name="Path 153" d="M903.23,463.575a61.4,61.4,0,0,1,7.234-8.394,43.478,43.478,0,0,0-8.261,8.144Z" transform="translate(-902.203 -451.309)" fill="#0099b9"/>
      </g>
      <g id="Group_27" data-name="Group 27" transform="translate(177.347 172.1)">
        <path id="Path_154" data-name="Path 154" d="M870.807,482.195a1.244,1.244,0,0,1,.03-.97,3.065,3.065,0,0,1,1.335-1.507,8.606,8.606,0,0,1,3.309-.568s-.817,2.391-2.042,2.914C871.732,482.794,870.859,482.327,870.807,482.195Z" transform="translate(-866.067 -479.147)" fill="#0099b9"/>
        <path id="Path_155" data-name="Path 155" d="M868.324,484.375a41.666,41.666,0,0,1,6.368-3.948A29.382,29.382,0,0,0,867.714,484Z" transform="translate(-867.714 -478.447)" fill="#0099b9"/>
      </g>
      <g id="Group_28" data-name="Group 28" transform="translate(68.994 172.37)">
        <path id="Path_156" data-name="Path 156" d="M801.131,481.174a1.23,1.23,0,0,1,.369-.9,3.064,3.064,0,0,1,1.777-.95,8.62,8.62,0,0,1,3.3.615s-1.6,1.957-2.927,2.022C801.789,482.058,801.133,481.314,801.131,481.174Z" transform="translate(-795.812 -479.325)" fill="#0099b9"/>
        <path id="Path_157" data-name="Path 157" d="M798.138,481.861a41.6,41.6,0,0,1,7.342-1.489,29.457,29.457,0,0,0-7.786.929Z" transform="translate(-797.694 -478.748)" fill="#0099b9"/>
      </g>
      <path id="Path_158" data-name="Path 158" d="M922.2,502.054a2.356,2.356,0,0,0,1.773.525,5.847,5.847,0,0,0,3.525-1.523A16.4,16.4,0,0,0,930.5,495.4s-4.812.059-6.49,1.967C921.671,500.024,922,501.883,922.2,502.054Z" transform="translate(-660.614 -298.149)" fill="#0099b9"/>
      <path id="Path_159" data-name="Path 159" d="M917.2,506.677c3.858-2.855,9.088-6.907,10.93-9.183A56.045,56.045,0,0,1,917.5,508Z" transform="translate(-663.276 -297.003)" fill="#0099b9"/>
      <g id="Group_29" data-name="Group 29" transform="translate(253.963 189.934)">
        <path id="Path_160" data-name="Path 160" d="M920.4,499.265a1.982,1.982,0,0,1-1.468-.507A4.9,4.9,0,0,1,917.262,496a13.8,13.8,0,0,1,.7-5.327s3.267,2.385,3.487,4.507C921.76,498.135,920.635,499.246,920.4,499.265Z" transform="translate(-917.234 -490.672)" fill="#0099b9"/>
        <path id="Path_161" data-name="Path 161" d="M921.916,505.3c-1.25-3.836-2.859-9.158-3.01-11.612a47.093,47.093,0,0,0,2.155,12.371Z" transform="translate(-916.305 -489.021)" fill="#0099b9"/>
      </g>
      <g id="Group_30" data-name="Group 30" transform="translate(259.288 206.223)">
        <path id="Path_162" data-name="Path 162" d="M922.949,502.273a.882.882,0,0,1,.531-.435,2.158,2.158,0,0,1,1.42.013,6.065,6.065,0,0,1,1.832,1.5s-1.65.671-2.5.263C923.059,503.047,922.9,502.361,922.949,502.273Z" transform="translate(-919.42 -500.91)" fill="#0099b9"/>
        <path id="Path_163" data-name="Path 163" d="M920.752,501.692a29.263,29.263,0,0,1,5.048,1.56,20.736,20.736,0,0,0-5.134-2.054Z" transform="translate(-920.666 -501.198)" fill="#0099b9"/>
      </g>
      <path id="Path_164" data-name="Path 164" d="M777.654,482.3a3.341,3.341,0,0,0-1.923-1.783,8.29,8.29,0,0,0-5.438-.286c-3.424,1.115-7.361,5.3-7.361,5.3s6.147,2.951,9.483,1.591C777.052,485.211,777.8,482.644,777.654,482.3Z" transform="translate(-747.731 -306.639)" fill="#0099b9"/>
      <path id="Path_165" data-name="Path 165" d="M788.045,480.5c-6.7,1.2-15.9,3.052-19.672,4.781a79.41,79.41,0,0,1,20.117-6.659Z" transform="translate(-744.75 -307.337)" fill="#0099b9"/>
      <g id="Group_31" data-name="Group 31" transform="translate(28.039 173.577)">
        <path id="Path_166" data-name="Path 166" d="M775.382,487.681a2.8,2.8,0,0,1,1.549,1.568,6.96,6.96,0,0,1,.385,4.559c-.845,2.906-4.249,6.324-4.249,6.324s-2.647-5.088-1.591-7.923C772.951,488.263,775.086,487.562,775.382,487.681Z" transform="translate(-771.228 -475.959)" fill="#0099b9"/>
        <path id="Path_167" data-name="Path 167" d="M776.272,480.525c-.827,5.656-2.138,13.434-3.489,16.65a66.8,66.8,0,0,0,5.052-17.072Z" transform="translate(-770.376 -480.102)" fill="#0099b9"/>
      </g>
      <g id="Group_32" data-name="Group 32" transform="translate(26.552 166.46)">
        <path id="Path_168" data-name="Path 168" d="M774.395,479.253a1.23,1.23,0,0,1-.945.216,3.063,3.063,0,0,1-1.8-.91,8.607,8.607,0,0,1-1.387-3.056s2.519.186,3.337,1.238C774.734,478.2,774.509,479.169,774.395,479.253Z" transform="translate(-770.266 -475.503)" fill="#0099b9"/>
        <path id="Path_169" data-name="Path 169" d="M777.33,481.864A41.582,41.582,0,0,1,771.9,476.7a29.4,29.4,0,0,0,5.228,5.846Z" transform="translate(-769.371 -474.847)" fill="#0099b9"/>
      </g>
      <g id="Group_33" data-name="Group 33" transform="translate(83.561 67.69)">
        <path id="Path_170" data-name="Path 170" d="M810.206,419.515a1.822,1.822,0,0,1-1.375-.412,4.537,4.537,0,0,1-1.646-2.485,12.739,12.739,0,0,1,.451-4.944s3.1,2.08,3.386,4.031C811.414,418.422,810.416,419.491,810.206,419.515Z" transform="translate(-807.115 -411.675)" fill="#0099b9"/>
        <path id="Path_171" data-name="Path 171" d="M811.88,425.02a61.384,61.384,0,0,1-3.209-10.608,43.482,43.482,0,0,0,2.449,11.34Z" transform="translate(-806.251 -410.176)" fill="#0099b9"/>
      </g>
      <g id="Group_34" data-name="Group 34" transform="translate(69.221 120.133)">
        <path id="Path_172" data-name="Path 172" d="M803.862,449.039a1.833,1.833,0,0,1,.208,1.42A4.531,4.531,0,0,1,802.512,453a12.761,12.761,0,0,1-4.672,1.677s.574-3.688,2.225-4.773C802.362,448.4,803.753,448.858,803.862,449.039Z" transform="translate(-797.84 -443.778)" fill="#0099b9"/>
        <path id="Path_173" data-name="Path 173" d="M808.065,445.565a61.38,61.38,0,0,1-8.261,7.389,43.456,43.456,0,0,0,9.244-7.008Z" transform="translate(-796.765 -445.565)" fill="#0099b9"/>
      </g>
      <g id="Group_35" data-name="Group 35" transform="translate(90.3 49.768)">
        <path id="Path_174" data-name="Path 174" d="M813.844,410.486a2.31,2.31,0,0,1-1.457-1.071,5.718,5.718,0,0,1-.9-3.648,16.053,16.053,0,0,1,2.631-5.674s2.8,3.783,2.309,6.217C815.743,409.7,814.1,410.542,813.844,410.486Z" transform="translate(-811.464 -400.093)" fill="#0099b9"/>
        <path id="Path_175" data-name="Path 175" d="M814.629,416.643c-.058-4.7-1.162-10-.482-12.787a26.285,26.285,0,0,0-1.9,11Z" transform="translate(-811.037 -398.032)" fill="#0099b9"/>
      </g>
      <g id="Group_36" data-name="Group 36" transform="translate(213.8 151.248)">
        <path id="Path_176" data-name="Path 176" d="M895.468,468.951a1.818,1.818,0,0,1,1.316-.573,4.524,4.524,0,0,1,2.861.833,12.732,12.732,0,0,1,2.847,4.067s-3.714.417-5.188-.891C895.25,470.567,895.326,469.1,895.468,468.951Z" transform="translate(-889.008 -464.193)" fill="#0099b9"/>
        <path id="Path_177" data-name="Path 177" d="M891.271,466.722a61.465,61.465,0,0,1,9.3,6.024,43.5,43.5,0,0,0-9.193-7.074Z" transform="translate(-891.271 -465.672)" fill="#0099b9"/>
      </g>
      <g id="Group_37" data-name="Group 37" transform="translate(250.151 169.149)">
        <path id="Path_178" data-name="Path 178" d="M919.4,485.523a2.327,2.327,0,0,1-.545-1.742,5.778,5.778,0,0,1,1.448-3.5,16.216,16.216,0,0,1,5.533-3.039s.017,4.751-1.844,6.434C921.42,486.02,919.582,485.723,919.4,485.523Z" transform="translate(-912.524 -477.24)" fill="#0099b9"/>
        <path id="Path_179" data-name="Path 179" d="M916.073,491.4c2.759-3.852,6.678-9.075,8.894-10.926a55.238,55.238,0,0,0-10.2,10.646Z" transform="translate(-914.762 -475.468)" fill="#0099b9"/>
      </g>
      <g id="Group_38" data-name="Group 38" transform="translate(269.004 166.058)">
        <path id="Path_180" data-name="Path 180" d="M929.469,483a1.832,1.832,0,0,1-.831-1.172,4.548,4.548,0,0,1,.235-2.973,12.719,12.719,0,0,1,3.4-3.616s1.166,3.552.186,5.261C931.093,482.885,929.646,483.11,929.469,483Z" transform="translate(-926.099 -475.243)" fill="#0099b9"/>
        <path id="Path_181" data-name="Path 181" d="M928,488.489a61.309,61.309,0,0,1,4-10.334,43.486,43.486,0,0,0-5.054,10.441Z" transform="translate(-926.945 -473.649)" fill="#0099b9"/>
      </g>
      <g id="Group_39" data-name="Group 39" transform="translate(195.385 187.038)">
        <path id="Path_182" data-name="Path 182" d="M886.045,493.841a2.518,2.518,0,0,1,.343-1.946,6.24,6.24,0,0,1,3.135-2.648c2.565-.889,6.832-.172,6.832-.172s-2.349,4.577-4.972,5.273C887.732,495.316,886.112,494.118,886.045,493.841Z" transform="translate(-875.752 -488.801)" fill="#0099b9"/>
        <path id="Path_183" data-name="Path 183" d="M880.493,497.175c4.571-2.336,10.942-5.41,13.99-6.085a59.929,59.929,0,0,0-15.113,5.164Z" transform="translate(-879.37 -487.546)" fill="#0099b9"/>
      </g>
      <g id="Group_40" data-name="Group 40" transform="translate(81.113 149.936)">
        <path id="Path_184" data-name="Path 184" d="M816.314,467.533a2.518,2.518,0,0,1-.563,1.893,6.256,6.256,0,0,1-3.418,2.27c-2.651.59-6.808-.615-6.808-.615s2.859-4.277,5.542-4.672C814.809,465.868,816.282,467.245,816.314,467.533Z" transform="translate(-805.525 -464.024)" fill="#0099b9"/>
        <path id="Path_185" data-name="Path 185" d="M823.891,464.824c-4.809,1.793-11.487,4.115-14.6,4.44a59.917,59.917,0,0,0,15.6-3.393Z" transform="translate(-803.463 -464.824)" fill="#0099b9"/>
      </g>
      <g id="Group_41" data-name="Group 41" transform="translate(133.706 194.48)">
        <path id="Path_186" data-name="Path 186" d="M842.593,497.581a1.706,1.706,0,0,1,1.329-.123,4.211,4.211,0,0,1,2.287,1.561,11.834,11.834,0,0,1,1.346,4.415s-3.4-.7-4.33-2.282C841.936,498.948,842.424,497.676,842.593,497.581Z" transform="translate(-837.952 -491.548)" fill="#0099b9"/>
        <path id="Path_187" data-name="Path 187" d="M839.512,494.506A57.111,57.111,0,0,1,846,502.511a40.343,40.343,0,0,0-6.086-8.9Z" transform="translate(-839.512 -493.61)" fill="#0099b9"/>
      </g>
      <g id="Group_42" data-name="Group 42" transform="translate(157.838 56.375)">
        <path id="Path_188" data-name="Path 188" d="M864.8,406.794a2.261,2.261,0,0,1-.506,1.7,5.617,5.617,0,0,1-3.074,2.038,15.746,15.746,0,0,1-6.113-.551s2.567-3.841,4.978-4.193C863.447,405.3,864.768,406.537,864.8,406.794Z" transform="translate(-855.106 -403.644)" fill="#0099b9"/>
        <path id="Path_189" data-name="Path 189" d="M871.6,404.363c-4.317,1.608-10.314,3.7-13.106,3.986a53.786,53.786,0,0,0,14.016-3.047Z" transform="translate(-853.253 -404.363)" fill="#0099b9"/>
      </g>
      <g id="Group_43" data-name="Group 43" transform="translate(102.912 96.495)">
        <path id="Path_190" data-name="Path 190" d="M824.055,438.516a2.065,2.065,0,0,1-1.606-.2,5.118,5.118,0,0,1-2.3-2.449,14.365,14.365,0,0,1-.436-5.581s3.843,1.721,4.528,3.836C825.191,437.071,824.281,438.448,824.055,438.516Z" transform="translate(-819.612 -430.29)" fill="#0099b9"/>
        <path id="Path_191" data-name="Path 191" d="M827.142,444.277c-2.1-3.638-4.9-8.712-5.583-11.178a48.983,48.983,0,0,0,4.877,12.136Z" transform="translate(-818.546 -428.751)" fill="#0099b9"/>
      </g>
      <g id="Group_44" data-name="Group 44" transform="translate(134.365 9.626)">
        <path id="Path_192" data-name="Path 192" d="M849.563,391.537a4.851,4.851,0,0,1-1.162-3.626,12.032,12.032,0,0,1,2.965-7.329c3.573-3.821,11.491-6.43,11.491-6.43s.108,9.91-3.735,13.453C853.769,392.541,849.928,391.954,849.563,391.537Z" transform="translate(-835.316 -374.152)" fill="#0099b9"/>
        <path id="Path_193" data-name="Path 193" d="M842.68,403.882c5.7-8.079,13.787-19.041,18.381-22.94a115.338,115.338,0,0,0-21.122,22.376Z" transform="translate(-839.938 -370.435)" fill="#0099b9"/>
      </g>
      <path id="Path_194" data-name="Path 194" d="M883.179,404.157c-2.852,4.034-9.467,9.2-12.335,11.343l.993.168-.214,1.263C874.864,414.186,880.8,408.988,883.179,404.157Z" transform="translate(-688.653 -348.1)" fill="#0099b9"/>
      <path id="Path_195" data-name="Path 195" d="M940.167,567.418a22.11,22.11,0,0,1-12.1-8.674c-3.245-5.183-8.323-7.724-13.833-9.646a1.717,1.717,0,0,0-.575-.106c-.107-.007-.22.09-.6.275a7.655,7.655,0,0,1,3.763,5.6,2.515,2.515,0,0,0,1.632,1.542c3.02.7,3.717,3.221,4.549,5.672a10.725,10.725,0,0,1-1.107-1.459,5.4,5.4,0,0,0-4.665-3.141c-.845-.055-1.632-1.039-2.662-1.759,1.023,3.943.016,8.641,5.063,10.661-1.34-.283-2.679-.568-4.154-.875a16.467,16.467,0,0,0,4.252,8.852,15.58,15.58,0,0,1-6.58-9.281,96.213,96.213,0,0,1-1.946-9.492,12.981,12.981,0,0,0-6.417-9.509c-2.589-1.526-5.153-3.1-7.822-4.715-.5,3.677,1.352,6.147,4.585,6.857a7.848,7.848,0,0,1,2.985,1.844c-1.229-.268-2.449-.527-3.688-.788-.114.259-.228.513-.341.772a50.69,50.69,0,0,0,4.47,3.375,5.367,5.367,0,0,1,2.969,5.549c-.317,2.828.316,5.164,2.888,6.856.713.471.941,1.688,1.542,2.213a25.926,25.926,0,0,1-4.1-3.214,7.342,7.342,0,0,1-1.817-3.975c-.259-3.781-2.239-5.719-5.622-7.058a12.675,12.675,0,0,1-4.391-3.747c-1.274-1.485-2.069-3.385-3.295-4.925-.492-.633-1.581-.8-2.4-1.168.155.868.032,1.939.5,2.582,1.518,2.078,3.279,3.975,4.9,5.972a11.476,11.476,0,0,1,3.085,8.115,3.431,3.431,0,0,0,3.074,3.943,2.856,2.856,0,0,1,2.482,2.718c.235,2.213.369,4.438.552,6.66-.162.017-.325.032-.479.057-.161-1.323-.333-2.637-.492-3.95a5.351,5.351,0,0,0-3.62-4.966,4.672,4.672,0,0,1-3.32-4.836,8.377,8.377,0,0,0-2.669-6.2c-.448,3.359-.827,6.264-1.152,8.747-.958-1.411-.861-1.38-.155-3.488a7.674,7.674,0,0,0,.074-2.865c-.082-1.249-.293-2.491-.448-3.74l.552-.307q-2.409-1.571-4.811-3.149l-.5.43a10.377,10.377,0,0,0,.558,1.475,13.516,13.516,0,0,1,1.891,8.941c-.609,3.482,1.566,5.476,3.66,7.342a6.652,6.652,0,0,1,2.09,6.784c-.462,2.582-1.088,5.127-1.736,8.137,0-3.213.648-6.247-.178-8.794-.836-2.582-3.14-4.681-5.234-6.929-.065,3.011-1,5.186-3.862,6,.017.08-.1-.13-.041-.227,2.8-4.008,1.591-8.729,2.2-13.1.4-2.849-1.258-5.266-3.53-7.125-1.526,2.134-2.969,4.138-4.4,6.158a1.253,1.253,0,0,0-.218.73c.228,2.652.492,5.306.73,7.958-.235.058-.479.113-.714.17-.43-2.029-.861-4.066-1.352-6.37a7.623,7.623,0,0,0-1.818,9.549,22.956,22.956,0,0,1,1.967,4.285,11.1,11.1,0,0,1-.237,3.391c-1.3-2.562-2.3-4.549-3.292-6.522a13.517,13.517,0,0,1,.081-12.917,48.774,48.774,0,0,0,2.377-5.193,3.128,3.128,0,0,0-.778-3.675,7.685,7.685,0,0,0-.633,1.533,11.947,11.947,0,0,1-3.772,6.808,32.4,32.4,0,0,0-2.759,3.1c-1.639,2.077-2.482,4.268-1.274,6.97a5.608,5.608,0,0,1-.462,5.135c-1.5,2.717-2.879,5.509-4.25,8.137a7.172,7.172,0,0,1,.828-6.393c.966-1.352,1.8-2.759,1.323-4.438a6.337,6.337,0,0,0-5.713,3.688,5.733,5.733,0,0,1,2.362-4.763,9.134,9.134,0,0,0,2.514-5.533,12.541,12.541,0,0,1,4.722-8.786c3.36-2.865,3.9-5.461,2.263-9.68-2.41.09-3.9,1.364-3.854,3.688.049,2.443-1.087,4.122-2.507,5.989a20.247,20.247,0,0,0-3.22,6.653c-.82,2.828-1.9,5.379-4.275,7.148a16.148,16.148,0,0,0-6.3,8.171c.2-3.165.492-6.28,3.269-8.381a13.705,13.705,0,0,0,5.006-8.494c.609-2.828,1.468-5.59,2.255-8.51a72.743,72.743,0,0,0-7.569,4c-.845.561-1.219,2.249-1.266,3.443-.058,1.243-.032,2.191-1.381,2.669s-1.721,1.575-1.922,2.937a5.469,5.469,0,0,1-1.729,2.969c.09-1.191.1-2.4.3-3.565.145-.794.349-1.881.909-2.247,2.11-1.371,1.542-3.042.836-5.144a14.671,14.671,0,0,0-2.059,2,11.14,11.14,0,0,1-5.234,4.057c-3.237,1.33-5.41,3.9-7.4,6.654a15.9,15.9,0,0,1,5.144-7.043,52.872,52.872,0,0,0,5.176-4.876c2.565-2.865,5.947-4.268,9.258-5.938a70.058,70.058,0,0,0,7.456-4.747,5.153,5.153,0,0,0,1.12-1.281c-3.45,1.193-7.074,2.645-10.819,3.668a42.853,42.853,0,0,1-7.634,1.023c-1.161.089-1.9.438-2.176,1.574a3.971,3.971,0,0,1-3.966,3.227,4.066,4.066,0,0,0-3.417,2.289,5.626,5.626,0,0,1-2.8,1.8c-1.436.551-2.978.836-5.006,1.378a21.455,21.455,0,0,1,3.1-1.874,5.314,5.314,0,0,0,3.269-2.9c.35-.778,1.542-1.306,2.459-1.68,1.378-.568,2.532-1.161,2.255-3.545-2.336.836-4.549,1.491-6.653,2.424a53.665,53.665,0,0,0-5,2.828,7.687,7.687,0,0,1-5.94.492c4.065.454,6.622-2.3,9.6-4.235a29.124,29.124,0,0,1,13.809-4.405c3.293-.268,6.653-.268,9.344-2.637.633-.552,1.24-1.127,1.987-1.818-3.837.17-7.424.2-10.985.535a12.048,12.048,0,0,0-4.486,1.453,28.92,28.92,0,0,1-13.509,3.2,11.909,11.909,0,0,0-8.454,3.278,8.1,8.1,0,0,1-8.484,1.794c3.765-.139,6.147-2.841,8.983-4.672a19.425,19.425,0,0,1,10.328-2.986c1.371-.032,2.734-.3,4.112-.358a6.459,6.459,0,0,1,1.632.325c4.105-2.742,8.121-5.574,13.476-5.809a34.511,34.511,0,0,0,9.306-1.68c5.524-1.859,8.267-6.54,10.352-11.6a30.312,30.312,0,0,0,1.671-5.549l17,.178c.13,1.405.293,2.808.462,4.212.471,3.805,2.905,6.27,5.858,8.306,2.872,1.981,5.865,3.8,8.722,5.793a21.222,21.222,0,0,1,2.865,2.734,11.5,11.5,0,0,0,6.547,3.415,20.163,20.163,0,0,1,8.484,3.489,13.985,13.985,0,0,0,7.1,1.844A11.909,11.909,0,0,1,936.57,556c1.127,1.484,2.232,2.985,3.343,4.479a9.576,9.576,0,0,1-2.645-2.263,12.929,12.929,0,0,0-7.092-4.438,24.151,24.151,0,0,0-2.8-.235,15.161,15.161,0,0,0,4.925,8.606C934.8,564.149,937.634,565.747,940.167,567.418Z" transform="translate(-721.881 -284.027)" fill="#0099b9"/>
    </g>
  </g>
</svg>
