<svg xmlns="http://www.w3.org/2000/svg" xmlns:xlink="http://www.w3.org/1999/xlink" width="576.006" height="511.665" viewBox="0 0 576.006 511.665"><defs><style>.a,.am,.an,.ax,.j,.p,.q,.s,.t,.u,.v{fill:none;}.b{opacity:0.38;fill:url(#a);}.c{clip-path:url(#b);}.d{fill:url(#c);}.e{fill:url(#d);}.f{fill:url(#e);}.g,.i{fill:#2a7195;}.h{fill:#060c39;}.h,.i,.s{stroke:#060c39;}.ae,.af,.ag,.ah,.ai,.au,.av,.aw,.ax,.ay,.h,.i,.j,.k,.s,.t{stroke-miterlimit:10;}.h,.i,.j,.l,.n,.p,.s,.t,.v{stroke-width:0.982px;}.j{stroke:#231f20;}.ac,.aj,.ak,.au,.aw,.k,.n{fill:#fff;}.ae,.ag,.ah,.ai,.au,.aw,.ax,.k{stroke:#384783;}.ag,.k{stroke-width:0.794px;}.l,.r{fill:#ffd3b9;}.aa,.ac,.ak,.am,.l,.n,.q,.u,.v,.z{stroke:#100052;}.aa,.ac,.ak,.am,.an,.l,.n,.p,.q,.u,.v,.z{stroke-linecap:round;stroke-linejoin:round;}.aa,.m{fill:#100052;}.o{fill:#e2a383;mix-blend-mode:multiply;isolation:isolate;}.az,.o{opacity:0.44;}.an,.ay,.p,.t{stroke:#fff;}.q{stroke-width:2.735px;}.u{stroke-width:2px;}.w{fill:url(#f);}.x{fill:url(#g);}.y{fill:url(#h);}.z{fill:#575177;}.aa,.ac,.z{stroke-width:1.64px;}.ab{fill:#ffefd1;}.ad{fill:url(#j);}.ae,.ag,.ah,.ai,.az,.ba{fill:#384783;}.ae{stroke-width:0.211px;}.af,.av,.ay{fill:#bbdbf9;}.af,.av{stroke:#384883;}.af{stroke-width:0.575px;}.ag,.ah,.ai{opacity:0.72;}.ah{stroke-width:0.898px;}.ai{stroke-width:0.98px;}.ak,.am,.an{stroke-width:1.056px;}.al{opacity:0.58;}.ao{fill:url(#m);}.ap{fill:url(#n);}.aq{fill:url(#o);}.ar{fill:url(#p);}.as{fill:url(#q);}.at{fill:url(#r);}.au,.av{stroke-width:0.722px;}.aw,.ax{stroke-width:0.241px;}.ay{stroke-width:0.482px;}.bb{fill:url(#s);}</style><linearGradient id="a" y1="0.5" x2="1" y2="0.5" gradientUnits="objectBoundingBox"><stop offset="0" stop-color="#4fa5ad"/><stop offset="1" stop-color="#99cbcf"/></linearGradient><clipPath id="b"><path class="a" d="M953.206,446.3c-7.631-46.061-69.956-48.788-73.825-89.426C877.567,337.8,890.1,326,902.712,310.9c10.956-13.123,21.964-28.736,23.649-53.774.329-4.891,2.128-38.952-20.134-67.413-4.923-6.294-21.616-25.738-48.992-32.331-19.106-4.6-37.252-.13-73.546,8.812-4.453,1.1-2.927.8-38.736,10.946-30.256,8.569-45.385,12.853-47.891,13.413-27.266,6.082-53.323,11.894-79.971,3.223C587.83,184.256,589.6,167.6,562.6,160.893c-34.346-8.532-65.358,11.431-69.79,14.375a100.555,100.555,0,0,0-24.667,23.492c-15.766,21.053-23.351,47.616-18.286,70.749,9.157,41.822,55.857,50.526,53.019,74.98-3.785,32.617-87.98,26.728-104.7,68.788a46.665,46.665,0,0,0-1.522,4.526c-12.268,43.339,31.219,117.479,87.427,133.739,52.788,15.271,68.426-34.593,146.775-28.9,58.879,4.281,79.231,34.563,130.2,20.637,28.487-7.784,32.178-19.99,62.415-23.388,43.347-4.871,58,17.714,84.765,7.573,13.911-5.272,26.478-17.643,34.9-32.667C951.552,479.8,955.834,462.162,953.206,446.3Z" transform="translate(-394.573 -155.55)"/></clipPath><linearGradient id="c" x1="0.483" y1="2.287" x2="0.492" y2="1.264" gradientUnits="objectBoundingBox"><stop offset="0" stop-color="#ff9077"/><stop offset="1" stop-color="#e9645a"/></linearGradient><linearGradient id="d" x1="0.006" y1="1.33" x2="0.824" y2="0.008" xlink:href="#c"/><linearGradient id="e" x1="0.474" y1="1.03" x2="0.548" y2="0.424" xlink:href="#c"/><linearGradient id="f" x1="0.721" y1="1.708" x2="0.275" y2="-0.622" gradientUnits="objectBoundingBox"><stop offset="0" stop-color="#2a7195"/><stop offset="1" stop-color="#060c39"/></linearGradient><linearGradient id="g" x1="0.763" y1="2.422" x2="-0.887" y2="-9.638" xlink:href="#f"/><linearGradient id="h" x1="0" y1="0.5" x2="1" y2="0.5" xlink:href="#f"/><linearGradient id="j" y1="0.5" x2="1" y2="0.5" gradientUnits="objectBoundingBox"><stop offset="0" stop-color="#faebd8"/><stop offset="1" stop-color="#ffb83f"/></linearGradient><linearGradient id="m" x1="-25.23" y1="18.47" x2="-25.255" y2="20.166" xlink:href="#j"/><linearGradient id="n" x1="-25.756" y1="19.978" x2="-24.745" y2="19.978" xlink:href="#j"/><linearGradient id="o" x1="-98.54" y1="278.386" x2="-98.49" y2="279.212" xlink:href="#j"/><linearGradient id="p" x1="-77.991" y1="71.496" x2="-77.374" y2="72.348" xlink:href="#j"/><linearGradient id="q" x1="-77.922" y1="55.073" x2="-78.661" y2="65.586" xlink:href="#j"/><linearGradient id="r" x1="-90.779" y1="87.795" x2="-89.809" y2="87.795" xlink:href="#j"/><linearGradient id="s" x1="0" y1="0.5" x2="1" y2="0.5" xlink:href="#c"/></defs><g transform="translate(-382 -84)"><path class="b" d="M1116.215,895.719c-4.476.628-9.112,1.313-12.9,3.774-2.317,1.5-4.242,3.631-6.773,4.736.542,3.17,2.623,5.828,4.655,8.321,3.73,4.578,7.6,9.169,12.517,12.436,5.664,3.762,11.2,2,16.441-1.636,9.045-6.28,17.717-12.684,26.339-19.445,4.243-3.328,8.4-6.756,12.582-10.161,3.594-2.926,7.931-5.293,10.923-8.892,4.1-4.928-6.952-4.927-9.957-5.259l-9.387-1.036" transform="translate(-333.245 -370.563)"/><g transform="translate(388.709 122.181)"><g class="c"><g transform="translate(0.263 0.577)"><path class="d" d="M729.755,697.2c-76.531,1.573-153.062,28.83-228.544,1.573-36.637-13.381-69.4-34.118-104.06-50.682-12.268,43.34,31.219,117.48,87.427,133.74,52.788,15.271,68.426-34.593,146.775-28.9,58.879,4.281,79.231,34.563,130.2,20.637,28.488-7.784,32.178-19.99,62.415-23.388,43.347-4.871,58,17.713,84.765,7.572,13.911-5.272,26.478-17.643,34.9-32.667C872.551,706.777,802.419,695.651,729.755,697.2Z" transform="translate(-395.065 -385.835)"/><path class="e" d="M743.209,319.649c36.168-6.29,67.62-17.822,103.264-26.733,31.451-7.338,62.9-6.29,91.732,5.242a189.162,189.162,0,0,1,29.3,13.825c10.956-13.123,21.964-28.736,23.649-53.774.329-4.891,2.128-38.952-20.134-67.413-4.923-6.294-21.617-25.737-48.992-32.331-19.106-4.6-37.252-.131-73.546,8.812-4.453,1.1-2.927.8-38.736,10.945-30.256,8.569-45.385,12.854-47.891,13.413-27.266,6.082-53.324,11.894-79.971,3.224-29.261-9.521-27.492-26.177-54.49-32.883-34.346-8.532-65.358,11.431-69.79,14.375a100.562,100.562,0,0,0-24.667,23.491c34.744,30.3,69.356,62.015,109.106,89.929C672.969,311.262,705.993,326.463,743.209,319.649Z" transform="translate(-459.365 -156.631)"/><path class="f" d="M955.521,485.142c-7.631-46.061-69.956-48.787-73.824-89.425-1.815-19.066,10.723-30.869,23.33-45.969a189.165,189.165,0,0,0-29.3-13.825c-28.83-11.532-60.281-12.58-91.732-5.242-35.644,8.911-67.1,20.443-103.264,26.733-37.217,6.814-70.241-8.387-101.167-29.879-39.75-27.914-74.362-59.632-109.106-89.929-15.766,21.054-23.351,47.616-18.286,70.749,9.157,41.822,55.857,50.526,53.019,74.979-3.785,32.617-87.98,26.729-104.7,68.789a46.722,46.722,0,0,0-1.522,4.525c34.658,16.564,67.423,37.3,104.06,50.682,75.483,27.257,152.013,0,228.544-1.573,72.664-1.546,142.8,9.58,213.88,27.887C953.867,518.649,958.149,501.008,955.521,485.142Z" transform="translate(-396.888 -194.396)"/></g></g></g><g transform="translate(562.013 187.304)"><path class="g" d="M857.642,637.319c-5.706-.414-11.5-1.142-16.739-3.631-4.685-2.224-8.733-5.758-12.653-9.334-3-2.74-7.354-.607-8.784-4.2-3.195-8.04-.914-16.92,2.376-24.534,2.842-6.58,4.416-13.3,3.684-20.656a41.857,41.857,0,0,0-1.3-6.343c-2.587-9.958-6.683-18.976-8.337-29.311-1.628-10.171-2.657-20.534-6.163-30.288-1.95-5.426-3.638-11.59-1.14-16.788,1.842-3.835,5.612-6.329,9.314-8.427,9.429-5.342,18.908-10.282,29.785-10.56,6.748-.172,12.412-2.823,18.8-4.316,11.063-2.586,24.223-3.357,34.887,1.216,17.982,7.712,12.248,37.07,14.339,52.067a107.544,107.544,0,0,1,1.27,13.829c.19,20.372,3.344,40.692,4.113,61.035.248,6.568.819,13.873,5.652,18.328a27.125,27.125,0,0,1,3.278,2.994,3.8,3.8,0,0,1,.618,4.135,4.982,4.982,0,0,1-2.065,1.649c-7.41,3.919-14.7,4.645-22.589,6.665-2.764.708-5.132,2.172-8.046,2.742-3.51.687-7.065,1.049-10.547,1.9C877.663,637.85,867.583,638.04,857.642,637.319Z" transform="translate(-760.377 -365.855)"/><path class="h" d="M857.976,819.326c-13.221-4.236-24.592-9.751-31.971-19-8.275-10.376-11.3-23.431-11.633-36.7-.1-4.043.188-8.307,2.374-11.709,3.282-5.111,10.092-6.925,16.123-6.214s11.6,3.448,17.26,5.655a103.708,103.708,0,0,0,53.093,5.866c8.148-1.248,16.195-3.477,24.438-3.6a12.088,12.088,0,0,1,5.85,1.017c2.595,1.367,4.036,4.223,4.93,7.016,3.371,10.535,1.2,22-1.744,32.657C926.872,829.85,886.914,828.6,857.976,819.326Z" transform="translate(-763.654 -495.837)"/><path class="i" d="M819.711,570.613c-6.232,6.176-6.406,16.668-4.626,24.737a19.355,19.355,0,0,0,6.924,11.158,16.291,16.291,0,0,0,12.616,3.208" transform="translate(-763.538 -414.249)"/><path class="i" d="M994.331,558.64c6.231,6.176,6.405,16.668,4.625,24.737a19.354,19.354,0,0,1-6.923,11.158,16.291,16.291,0,0,1-12.616,3.208" transform="translate(-840.634 -408.666)"/><path class="j" d="M920.659,647.357a7.256,7.256,0,0,0-3.138-.489,60.527,60.527,0,0,0-19.8,3.376" transform="translate(-802.532 -449.813)"/><path class="g" d="M1050.135,585.223c-.79,9.74-9.51,11.584-17.405,8.236-9.29-3.939-12.321-13.862-15.907-22.553-6.481-15.708-16.828-26.921-26.043-40.716-8.683-13-19.13-29.232-14.6-45.445,3.219-11.512,10.481-10.818,19.893-4.59,5.188,3.434,9.11,8.453,12.623,13.588a406.741,406.741,0,0,1,28.619,49c3.212,6.522,7.065,14.314,9.725,22.354C1049.271,571.829,1050.661,578.739,1050.135,585.223Z" transform="translate(-838.615 -369.992)"/><path class="h" d="M764.134,743.377c-1.874-2.014-3.693-4.029-5.474-5.979-11.724-12.836-22.233-27.073-29.186-43.09-5.971-13.754-12.949-36.986,4.662-45.409,22.877-10.941,45.3,17.9,58.39,33.039,15.552,17.982,26.9,39.836,23.606,64.252-1.043,7.721-3.961,16.577-11.382,18.952a16.6,16.6,0,0,1-8.13.193C783.463,762.831,773.176,753.1,764.134,743.377Z" transform="translate(-721.02 -449.632)"/><path class="k" d="M738.32,888.551c-2.367,3.479-4.846,7.51-3.874,11.6,1,4.2,5.567,6.848,9.915,6.887s8.446-1.983,12.08-4.354a59.182,59.182,0,0,0,13.1-11.646C775.4,884,798.816,866.785,776.81,864,759.262,861.786,747.055,875.71,738.32,888.551Z" transform="translate(-726.285 -550.971)"/><path class="h" d="M830.9,809.336c1.238,2.343,2.519,4.961,1.852,7.52-.624,2.39-2.8,4.056-5.011,5.208-10.673,5.567-24.224,2.988-34.319-3.549s-17.4-16.44-24.183-26.31c-19.439-28.306-36.587-58.544-46.421-91.347-2.185-7.286-4.017-14.848-3.336-22.419,2.593-28.834,39.221-26.723,49.765-4.482,13.066,27.563,22.958,56.844,36.131,84.517Q817.609,784.162,830.9,809.336Z" transform="translate(-719.341 -454.555)"/><path class="h" d="M967.761,753.72a23,23,0,0,1,10.953,7.207c5.031,6,4.815,14.977,2.027,22.292-6.383,16.739-23.544,26.867-40.561,32.469-26.289,8.654-54.585,9.614-81.032,17.774-10.584,3.266-20.835,7.675-31.65,10.068s-22.576,2.615-32.516-2.273c-2.038-1-4.077-2.316-5.067-4.359-1.833-3.784.624-8.211,3.344-11.416,12.131-14.3,29.809-21.06,46.975-27.208,18.933-6.781,36-15.792,53.976-24.494C909.969,766.15,945.724,746.765,967.761,753.72Z" transform="translate(-751.96 -498.956)"/><path class="k" d="M919.951,981.437a11.023,11.023,0,0,0,.078-7.039c-1.729-6.7-6.923-12.919-10.564-18.679-7.615-12.047-19.358-21.23-33.825-14.191-9.319,4.535-5.472,9.2-1.219,15.9a294.817,294.817,0,0,0,19.946,27.842c4.152,5.119,6.976,10.59,14.379,8.237C913.716,991.929,918.126,986.106,919.951,981.437Z" transform="translate(-789.556 -586.093)"/><path class="g" d="M759.49,578.81c.612,4.6,2.126,9.646,5.725,10.65,3.906,1.09,7.371-2.626,9.63-5.993A179.71,179.71,0,0,0,803.2,510.389c.39-2.592.715-5.295-.088-7.789-2.126-6.6-11.432-8.362-17.5-4.994s-9.49,9.977-12.263,16.335c-8.387,19.234-14.19,37.18-14.247,58.688A47.44,47.44,0,0,0,759.49,578.81Z" transform="translate(-737.885 -379.422)"/><g transform="translate(122.932 269.246)"><path class="l" d="M974.39,782.152a17.878,17.878,0,0,0-6.363,7.944c-1.363,3.055-2.167,6.276-3.278,9.408a83.584,83.584,0,0,1-4.369,9.824c-.595,1.171-1.2,2.54-.534,3.68a3.8,3.8,0,0,0,1.22,1.155c4.873,3.246,11.636,2.828,17.694,2.093a14.075,14.075,0,0,0,5.714-1.548c4.869-3.01,4.926-12.23,4.745-16.8-.1-2.468.008-5.072,1.451-7.191" transform="translate(-954.303 -782.152)"/><path class="l" d="M956.188,830.374a88.794,88.794,0,0,0-6.455,28.944,2.7,2.7,0,0,0,.67,2.4,2.124,2.124,0,0,0,2.093.205,5.43,5.43,0,0,0,2.774-3.908,131.256,131.256,0,0,1,3.113-13.557c1.062-3.569,1.562-6.563,4.847-9.109" transform="translate(-949.713 -804.642)"/><path class="l" d="M969,836.029a67.4,67.4,0,0,0-3.555,13.317,16.11,16.11,0,0,0-.266,3.079,18.579,18.579,0,0,0,.841,4.3l2.712,9.732a2.906,2.906,0,0,0,.6,1.28,2.581,2.581,0,0,0,3.345-.131,4.223,4.223,0,0,0,1.168-3.075c.1-2.552-.686-5.056-1.131-7.579a29.338,29.338,0,0,1,2.551-17.889" transform="translate(-956.922 -807.279)"/><path class="l" d="M979.725,840.866l-1.4,8.275a13.692,13.692,0,0,0-.286,3.224,14.04,14.04,0,0,0,1.278,4.319l3.642,8.748a3.9,3.9,0,0,0,.983,1.573c2.14,1.8,3.7.238,4.058-1.865.681-3.95-1.476-7.679-1.984-11.536-.6-4.54.349-9.113,1.273-13.566" transform="translate(-962.917 -809.149)"/><path class="l" d="M995.034,837.608c.577,1.76.169,3.635.089,5.466a30.33,30.33,0,0,0,.734,6.812l1.3,7.056a3.426,3.426,0,0,0,.545,1.523,1.545,1.545,0,0,0,1.57.586,1.8,1.8,0,0,0,.779-.537c2.134-2.26,1.807-5.533,1.644-8.466a46.455,46.455,0,0,1,.329-8.637c.384-2.922,1.681-4.963,2.718-7.681" transform="translate(-970.85 -806.207)"/></g><path class="i" d="M1049.594,657.232c4.152,17.4-2.1,34.858-13.064,48.4-2.951,3.644-6.29,6.942-9.553,10.26-3.468,3.527-6.434,7.39-10.268,10.519-3.794,3.1-7.737,6-11.732,8.834-2.256,1.6-5.345,4.742-7.974,5.54-2.306.7-5.473-1.076-7.57-2.021l-6.571-2.96c-1.768-.8-4.476-1.43-6-2.6-4.846-3.715,7.258-14.226,9.407-16.55,3.366-3.64,7.4-7.343,9.973-11.58,2.513-4.133,4.616-8.506,7.193-12.613,5.011-7.985,10.953-15.541,18.6-21.167,1.219-.9,10.628-6.85,11.021-3.473" transform="translate(-838.914 -454.646)"/><g transform="translate(45.224 0.883)"><path class="m" d="M835.4,415.453s50.8-18.431,61.807-16.259c0,0,2.764-34.742-2.024-41.434s-20.927-25.58-42.651-19.435S819.216,358.8,821.057,375,835.4,415.453,835.4,415.453Z" transform="translate(-811.914 -306.233)"/><path class="l" d="M876.235,420.046c1.282,6.045,2.827,14.291,3.61,20.4.3,2.361.564,4.741.646,7.092.09,2.551-.192,5.018.485,7.585a29.635,29.635,0,0,0,3.155,7.714c2.767,4.576,5.874,7.077,9.811,8.188a8.407,8.407,0,0,0,6.542-.864c12.123-6.989,7.1-23.586,7.094-23.608-.774-2.554-1.923-5.051-2.805-7.561a68.364,68.364,0,0,1-3.6-13.6c-.471-3.471-.752-6.962-1.452-10.4.063.313-11.07,2.347-11.9,2.6C887.19,417.783,876.2,419.878,876.235,420.046Z" transform="translate(-837.737 -342.551)"/><path class="n" d="M927.113,471.077s3.631,7.948-7.7,25.825c0,0,8.645,7.13,10.991,11.053,1.545,2.585,4.236-2.431,4.916-3.6a25.389,25.389,0,0,0,2.854-6.363c1.8-6.929-.3-16.122-4.657-21.8A16.625,16.625,0,0,0,927.113,471.077Z" transform="translate(-857.872 -368.711)"/><path class="n" d="M877.366,481.416s-.089,9.142,20.351,20.277c0,0-6.7,9.981-7.532,14.579-.549,3.029-5.745-.314-7.016-1.073a26.19,26.19,0,0,1-5.976-4.49c-5.072-5.47-6.856-14.731-4.592-21.817A17.715,17.715,0,0,1,877.366,481.416Z" transform="translate(-835.59 -373.533)"/><path class="l" d="M825.2,372.307c-3.626-.805-5.035.329-5.6,1.021-2.991,3.691,1.237,14.763,7.676,18.681a11.322,11.322,0,0,0,8.416,1.376" transform="translate(-810.869 -322.517)"/><path class="l" d="M943.217,350.412c3.108-2.034,4.827-1.471,5.6-1.021,4.1,2.4,4.059,14.248-.581,20.189a11.322,11.322,0,0,1-7.387,4.26" transform="translate(-867.869 -311.759)"/><path class="l" d="M844.48,291.658a39.4,39.4,0,0,0-14.931,6.6c-4.747,3.444-6.42,7-7.991,12.013-4.059,12.955,7.211,41.88,11.653,51.687s19.341,19.411,31.867,16.923c10.34-2.571,23.6-19.8,22.929-30.546s-4.256-41.58-13.909-51.126c-3.737-3.7-6.88-6.052-12.687-6.873a39.4,39.4,0,0,0-16.282,1.161" transform="translate(-811.832 -284.243)"/><path class="o" d="M843.079,307.7c15.239,6.207,41.169,34.466,46.452,52.466-6.232-21.233-6.681-79.737-43.388-68.56-24.9,6.151-25.2,18.314-21.655,41.765C822.451,319.882,831.53,305.531,843.079,307.7Z" transform="translate(-812.848 -284.357)"/><path class="m" d="M848.276,293.239s40.682,21.415,50.309,56.569c4.566,16.676,6.836,29.9,6.836,29.9s11.268-12.981,10.068-22.258c-5.962-46.105-20.068-90.492-71.293-75.1Z" transform="translate(-822.795 -279.245)"/><path class="m" d="M830.926,295.344s-17.959,7.736-16.26,27.043c1.686,19.162,10.647,69.527,18.936,74.009,0,0-12.695.48-19.561-25.176-3-11.2-7.917-26.517-9.468-41.372-2-19.168,1.607-37.568,22.191-45.366Z" transform="translate(-804.089 -281.687)"/><path class="p" d="M856.725,301.019s46.259,14.568,56.883,73.915" transform="translate(-828.637 -289.4)"/><path class="p" d="M872.7,296.453a91.583,91.583,0,0,1,29.77,20.452" transform="translate(-836.087 -287.27)"/><path class="q" d="M890.468,350.351a23.157,23.157,0,0,1,15.469-2.32c.111.022.261.026.3-.081s-.212-.112-.138-.026" transform="translate(-844.375 -311.118)"/><path class="q" d="M848.637,360.51a23.158,23.158,0,0,0-14.878,4.827c-.09.07-.223.14-.307.062s.14-.195.112-.084" transform="translate(-817.775 -317.139)"/><path class="o" d="M884.156,399.972a6.6,6.6,0,0,1-3.482.313,3.428,3.428,0,0,1-1.814-2.524,2.251,2.251,0,0,0,.176,2.16,4.424,4.424,0,0,0,.493.575,5.972,5.972,0,0,0,3.55,2.005c1.825.115,3.3-1.419,4.353-2.859a7.268,7.268,0,0,0,1.677-3.434C887.368,396.918,886.425,399.257,884.156,399.972Z" transform="translate(-838.869 -333.793)"/><path class="m" d="M898.873,367.157a.9.9,0,0,0,.689.893,1.577,1.577,0,0,0,1.043-.429,9.637,9.637,0,0,1,4.344-1.446c1.53-.191,3.079-.214,4.6-.471-2.7-.639-6.293-1.423-8.98-.406C899.864,365.565,898.863,366.319,898.873,367.157Z" transform="translate(-848.294 -319.15)"/><path class="m" d="M853.228,378.756a.9.9,0,0,1-.265,1.1,1.578,1.578,0,0,1-1.128.034,9.637,9.637,0,0,0-4.557.451c-1.474.449-2.9,1.06-4.391,1.445,2.2-1.684,5.167-3.865,8.035-4.032C851.674,377.706,852.9,377.986,853.228,378.756Z" transform="translate(-822.184 -325.183)"/></g><path class="i" d="M760.167,566.132c-4.465,3.495-12.334,2.733-15.9-1.382-2.992-3.45-3.951-8.193-4.4-12.737-.794-7.973-2.71-15.527-1.382-23.62s4.626-15.792,8.591-22.926c4.116-7.406,8.941-14.383,13.224-21.689,4.034-6.881,6.736-14.3,11.04-21,2.312-3.6,6.456-11.989,11.081-12.292,3.509-.229,8.384,4.086,8.4,7.617.023,6.45-1.981,12.238-3.151,18.447-1.19,6.32-2.094,12.588-3.82,18.807-2.15,7.747-4.745,15.978-8.748,22.988-3.611,6.325-6.253,13.261-10.36,19.418" transform="translate(-728.054 -358.222)"/><g transform="translate(41.62 42.269)"><path class="l" d="M803.259,404.875a49.65,49.65,0,0,0-3.566-9.256,15.477,15.477,0,0,1-1.742-4.335,18.319,18.319,0,0,1-.027-3.6,24.793,24.793,0,0,0-.421-5.462c-.2-1.066-.383-2.391.492-3.033a1.807,1.807,0,0,1,1.974.043,4.194,4.194,0,0,1,1.342,1.583,13.387,13.387,0,0,1,1.1,10.323" transform="translate(-797.336 -367.116)"/><path class="l" d="M807.7,428.576a40.561,40.561,0,0,0-1.232-6.883c-1.4-5.192-3.837-10.159-4.458-15.485-.229-1.969-.1-4.214,1.443-5.553a7.541,7.541,0,0,1,3.271-1.381c3.264-.776,6.892-1.295,9.851.222a9.717,9.717,0,0,1,4.369,5.1,27.218,27.218,0,0,1,1.478,6.542l1.439,10.228c.378,2.689.721,5.581-.616,7.98-.753,1.352-1.989,2.431-2.659,3.822-.066.138-.127.279-.188.419" transform="translate(-799.474 -376.26)"/><path class="l" d="M805.2,386.1l2.483-16.224a6.688,6.688,0,0,1,2.8-5.186l3.465-3.128a4.321,4.321,0,0,1,2.562-1.406c.995-.033,2.023,1.042,1.548,1.916.675.173.571.528.427,1.21a3.629,3.629,0,0,1-1.126,1.725c-5.268,5.223-6.137,10.637-3.032,17.223" transform="translate(-801.005 -358.367)"/><path class="l" d="M819.317,386.3l5.265-8.575a25.39,25.39,0,0,1,3.115-4.358,23.483,23.483,0,0,1,4.469-3.391l5.448-3.482a1.43,1.43,0,0,1,1.006-.328,1.165,1.165,0,0,1,.567.343,3.5,3.5,0,0,1,.156,4.117,11.577,11.577,0,0,1-3.059,2.834c-5.16,4-8.229,10.406-11.123,16.582" transform="translate(-807.587 -361.163)"/><path class="l" d="M830.392,399.613a9.349,9.349,0,0,1,1.622-4.4,16.579,16.579,0,0,1,2.681-2.776l9.347-8.274a2.765,2.765,0,0,1,.813-.562c1.031-.388,2.192.714,2.364,1.913a4.841,4.841,0,0,1-1.006,3.31c-2.929,4.338-8.38,6.472-10.159,11.532a14.6,14.6,0,0,0-.61,2.615" transform="translate(-812.752 -369.264)"/><g transform="translate(1.569)"><path class="l" d="M810.41,378.636a48.451,48.451,0,0,0,2.341-7.743,13.306,13.306,0,0,1,.994-3.54c.933-1.806,2.749-2.946,4.4-4.131,1.874-1.345,7.163-8.268,9.822-5.949,2.825,2.464-3,6.821-4.595,8.5-1.838,1.932-3.389,2.359-4.224,4.98-.477,1.5-3.8,9.506-4.225,11.729" transform="translate(-805.002 -356.802)"/><path class="r" d="M804.093,408.035a7.036,7.036,0,0,0-.268-2.769,10.854,10.854,0,0,1-.6-1.638,10.173,10.173,0,0,1-.008-1.95.9.9,0,0,0-.046-.359c-.291-.695-1.374-.105-1.769.127a2.153,2.153,0,0,0-.691.531,2.091,2.091,0,0,0-.427,1.428,3.751,3.751,0,0,0,.337.993,28.135,28.135,0,0,0,1.607,3.577,3.818,3.818,0,0,0,.74.866.736.736,0,0,0,.482.235c.2-.015.4-.376.481-.376A1.555,1.555,0,0,0,804.093,408.035Z" transform="translate(-800.275 -377.411)"/></g></g><path class="s" d="M831.285,720.84a91.851,91.851,0,0,1,9.7,14.059c5.477,9.772,9.113,20.444,12.951,30.968q8.83,24.216,19.264,47.806" transform="translate(-771.549 -484.312)"/><path class="t" d="M828.141,721.821c8.983,7.547,13.45,19.037,17.569,30.022l24.741,65.978" transform="translate(-770.083 -484.769)"/><path class="t" d="M923.523,798.589c-15.74,2.607-31.862,5.778-45.28,14.409" transform="translate(-793.449 -520.572)"/><path class="u" d="M985.121,304.544a81.733,81.733,0,0,1-7.376,9.256" transform="translate(-839.854 -290.161)"/><path class="u" d="M963.535,327.918c-2.9,3-6.185,6.163-9.806,9.419" transform="translate(-828.654 -301.062)"/><path class="v" d="M947.734,348.176q-1.712,1.513-3.515,3.051" transform="translate(-824.219 -310.51)"/><path class="u" d="M761.882,448.045c-3.806.326-6.469-.332-7.689-2.1a5.149,5.149,0,0,1-.626-3.864" transform="translate(-735.252 -354.305)"/><path class="u" d="M758.173,418.539a79.1,79.1,0,0,1,11.134-14.075" transform="translate(-737.451 -336.761)"/><path class="u" d="M797.665,439.8a79.074,79.074,0,0,1-16.823,6.25" transform="translate(-748.023 -353.239)"/><path class="v" d="M913.148,303.915q1.119-.609,2.223-1.2" transform="translate(-809.728 -289.31)"/><path class="u" d="M919.486,295.463c5.216-2.736,10.143-5.082,14.665-6.989" transform="translate(-812.684 -282.666)"/><path class="u" d="M954.276,281.824c12.06-4.64,20.634-5.678,23.137-2.053,1.46,2.115.7,5.6-1.889,10.048" transform="translate(-828.909 -277.59)"/></g><g transform="translate(523.41 113.75)"><g transform="translate(0 1.892)"><path class="w" d="M695.976,210.7c-.65-1.912-.388,6.308-9.407-4.861-4.879-6.044-10.022-11.871-14.995-17.838-6.432-7.719-31.109-31.035-22.932-41.906,10.047-13.356,25.128,25.133,27.866,30.994C682.209,189.29,690.275,198.5,695.976,210.7Z" transform="translate(-647 -143.296)"/><circle class="x" cx="6.62" cy="6.62" r="6.62" transform="translate(50.564 80.957)"/></g><g transform="translate(3.013)"><path class="y" d="M697.9,208.53a.443.443,0,0,1-.218.095c-.4.066-.741-.274-1-.584-3.2-3.784-6.123-7.676-9.311-11.456q-2.55-3.022-5.084-6.058-1.315-1.573-2.628-3.147c-.439-.526-2.438-2.288-2.438-2.925-6.433-7.719-31.109-31.035-22.932-41.906,10.046-13.356,25.127,25.133,27.865,30.994,2.952,6.217,5.827,12.472,8.739,18.707l4.37,9.353C695.585,202.292,698.881,207.708,697.9,208.53Z" transform="translate(-652.647 -139.751)"/><circle class="y" cx="6.62" cy="6.62" r="6.62" transform="translate(48.975 81.751)"/></g></g><g transform="translate(763.895 496.088)"><path class="z" d="M1176.319,867.045l-22.339-3.688a6.941,6.941,0,0,0-5.217,1.013l-50.333,30.12c-2.061,1.41.568,5.306,1.7,6.269l19.122,16.226c1.655,1.4,4.983.975,7.333-.962l51.327-42.295C1179.453,872.461,1178.275,867.638,1176.319,867.045Z" transform="translate(-1097.665 -859.484)"/><g transform="translate(0.282 0)"><path class="aa" d="M1117.834,910.04l-19.122-16.226c-1.134-.962-.342-2.889,1.72-4.3l46.911-32.089a6.935,6.935,0,0,1,5.216-1.013l23.131,7.008c1.956.593,2.342,2.1.8,3.363l-51.327,42.295C1122.816,911.016,1119.489,911.445,1117.834,910.04Z" transform="translate(-1098.193 -856.245)"/><path class="ab" d="M1133.443,907.263l-20.519-15.414,41.006-28.572,23.548,8.07Z" transform="translate(-1105.063 -859.525)"/><path class="ac" d="M1123.529,934.609c-1.436.992-3.248,1.163-4.026.387s-.229-2.153,1.177-3.106,3.152-1.126,3.947-.4S1124.953,933.625,1123.529,934.609Z" transform="translate(-1107.969 -891.13)"/></g></g><g transform="translate(746.367 281.203)"><path class="ad" d="M1071.538,453.555v7.625l26.886-3.813-33.607,29.591,37.957,3.417v-5.535l-29.462-.13,33.02-29.317Z" transform="translate(-1064.817 -453.555)"/><path class="ad" d="M1163.151,505.944v3.813l14.8-1.906-18.5,14.8,20.892,1.709v-2.768l-16.216-.065,18.175-14.658Z" transform="translate(-1108.952 -477.988)"/><path class="ad" d="M1124.587,571.592v3.486l13.53-1.743L1121.2,586.862l19.1,1.562v-2.53l-14.826-.059,16.617-13.4Z" transform="translate(-1091.115 -508.605)"/></g><g transform="translate(810.445 341.892)"><g transform="translate(0 22.596)"><circle class="ae" cx="9.932" cy="9.932" r="9.932" transform="translate(17.239 49.226)"/><path class="k" d="M1234.229,634.943c3.484,10.061-2.793,21.121,2.429,26.428a10.237,10.237,0,0,1,3.228,5.3,9.73,9.73,0,0,1-.479,4.942c-3.45,8.581-52.63,3.817-54.369-5.267a9.732,9.732,0,0,1,.479-4.942c1.109-2.712,4.065-3.991,4.838-4.52,6.143-4.207,1.453-16.328,6.8-25.533,3.7-6.357,11.851-11.325,19.732-10.561S1231.822,628,1234.229,634.943Z" transform="translate(-1184.899 -614.799)"/><circle class="af" cx="9.932" cy="9.932" r="9.932" transform="translate(36.975)"/></g><path class="ag" d="M1301.141,615.137a18.48,18.48,0,0,1,3.164.569q2.749.422,5.5.845a1.435,1.435,0,0,1,1.006.449,1.326,1.326,0,0,1,.129.937,9.059,9.059,0,0,1-.9,2.926.882.882,0,0,1-.388.452.932.932,0,0,1-.673-.066l-8.325-3.015c-1.246-.451-1.035-1.556-.637-2.615C1300.149,615.26,1300.588,615.137,1301.141,615.137Z" transform="translate(-1238.442 -589.602)"/><path class="ah" d="M1293.068,596.632a30.069,30.069,0,0,1,3.4-2.3q2.9-2.052,5.8-4.1a2.172,2.172,0,0,1,1.27-.542,1.109,1.109,0,0,1,.784.557,7.38,7.38,0,0,1,1.218,2.851.925.925,0,0,1-.048.654,1.5,1.5,0,0,1-.685.529l-10.016,4.978c-1.5.745-2.08-.221-2.452-1.314C1292.216,597.568,1292.545,597.1,1293.068,596.632Z" transform="translate(-1234.995 -577.731)"/><path class="ai" d="M1278.518,582.648a42.927,42.927,0,0,1-.012-4.894q-.08-4.237-.16-8.474a2.98,2.98,0,0,1,.26-1.61,1,1,0,0,1,.9-.384,6.469,6.469,0,0,1,3.047.765,1,1,0,0,1,.516.5,2.131,2.131,0,0,1,.057,1.03q-.733,6.592-1.467,13.184c-.22,1.973-1.346,1.877-2.461,1.491C1278.819,584.121,1278.618,583.482,1278.518,582.648Z" transform="translate(-1228.479 -567.286)"/></g><g transform="translate(737.143 84)"><g transform="translate(0 8.898)"><path class="aj" d="M1306.166,365.5" transform="translate(-1168.153 -224.182)"/><g transform="translate(43.745)"><path class="ak" d="M1224.779,339.841l-95.253-21.7s-.815,17.316,9,19.733l94.45,23.267Z" transform="translate(-1129.509 -202.097)"/><path class="ak" d="M1151.218,219.355l17.834-118.681,115.771,11.779L1257.5,241.76c-1.151,11.355-6.729,18.624-12.4,18.453a12,12,0,0,1-7.619-3.624c-2.112-2.257-2.365-4.773-2.607-7.628a57.829,57.829,0,0,1,.031-10.543Z" transform="translate(-1139.634 -100.674)"/></g><g class="al" transform="translate(67.23 20.463)"><line class="am" x2="89.273" y2="12.044" transform="translate(9.77 31.839)"/><line class="am" x2="89.012" y2="12.324" transform="translate(9.11 36.1)"/><line class="am" x2="88.796" y2="12.555" transform="translate(8.562 39.636)"/><line class="am" x2="88.537" y2="12.83" transform="translate(7.908 43.863)"/><line class="am" x2="90.555" y2="10.653" transform="translate(13.002 10.973)"/><line class="am" x2="90.78" y2="10.406" transform="translate(13.566 7.329)"/><line class="am" x2="91.006" y2="10.158" transform="translate(14.132 3.671)"/><line class="am" x2="91.232" y2="9.907" transform="translate(14.701)"/><line class="am" x2="89.535" y2="11.762" transform="translate(10.433 27.559)"/><line class="am" x2="86.749" y2="14.641" transform="translate(3.136 72.363)"/><line class="am" x2="86.212" y2="15.192" transform="translate(1.765 81.23)"/><line class="am" x2="85.524" y2="15.893" transform="translate(0 92.64)"/><line class="am" x2="87.832" y2="13.512" transform="translate(5.897 54.516)"/><line class="am" x2="88.044" y2="13.289" transform="translate(6.435 51.036)"/><line class="am" x2="86.458" y2="14.941" transform="translate(2.393 77.169)"/></g><path class="an" d="M1429.46,146.116a72.646,72.646,0,0,1,16.423,31.716" transform="translate(-1225.655 -121.867)"/><path class="an" d="M1093.431,393.8a97.393,97.393,0,0,1-45.9-26.478" transform="translate(-1047.532 -225.033)"/><path class="an" d="M1102.287,381.979a36.562,36.562,0,0,1-19.065-10.753" transform="translate(-1064.177 -226.853)"/></g><g transform="translate(161.658)"><g transform="translate(5.054 4.998)"><path class="ao" d="M1370.913,93.492c1.41-.155,13.6-1.286,21.757,7.795,3.971,4.417,9.284,13.807,5.072,21.288-3.958,7.029-15.134,10.251-25.577,5.228a19.818,19.818,0,0,1-1.717,4.625l-10.5-3.715,3.918-12.794a2.969,2.969,0,0,1,1.4-2.08,2.749,2.749,0,0,1,2.072.276,54.678,54.678,0,0,0,5.41,2.47,6.493,6.493,0,0,0,5.712-.525c2.245-1.629,2.428-5.132,1-7.508s-6.662-4.694-6.662-4.694l-.9-.489S1370.774,96.4,1370.913,93.492Z" transform="translate(-1359.948 -93.366)"/></g><path class="ap" d="M1369.675,84.125c1.41-.154,13.6-1.285,21.758,7.795,3.971,4.418,9.284,13.807,5.072,21.288-3.958,7.03-15.134,10.251-25.577,5.229a19.833,19.833,0,0,1-1.717,4.625l-10.5-3.715c1.306-4.265,5.32-14.874,5.32-14.874s5.589,2.149,7.482,2.745a6.493,6.493,0,0,0,5.712-.525c2.245-1.629,2.429-5.132,1-7.508s-6.662-4.695-6.662-4.695l-.929-.481A74.99,74.99,0,0,1,1369.675,84.125Z" transform="translate(-1354.317 -84)"/><path class="aq" d="M1363.188,174.989l-10.242.374a6.436,6.436,0,0,1,10.242-.374Z" transform="translate(-1351.629 -125.336)"/><path class="ar" d="M1363.354,176.96l.142,3.893a6.438,6.438,0,1,1-12.867.47l-.142-3.893Z" transform="translate(-1350.482 -127.354)"/><circle class="as" cx="6.438" cy="6.438" r="6.438" transform="translate(0 43.402)"/><path class="at" d="M1359.371,155.237l-.661-5,10.274,3.676.887,5.037Z" transform="translate(-1354.317 -114.892)"/><path class="aj" d="M1382.845,157.9" transform="translate(-1365.573 -118.465)"/><path class="aj" d="M1381.607,148.534" transform="translate(-1364.995 -114.097)"/></g></g><g transform="translate(382 340.599)"><path class="m" d="M382,676.033H524.222l10.254-110.809-137.742.032Z" transform="translate(-382 -565.031)"/><g transform="translate(15.032)"><path class="au" d="M562.942,675.864H420.72l-10.551-111H548.922Z" transform="translate(-410.169 -564.862)"/><path class="av" d="M552.074,589.819H412.541l-2.372-24.957H548.922Z" transform="translate(-410.169 -564.862)"/><path class="aw" d="M561.73,677.627H420.888l-1.366-14.372H559.915Z" transform="translate(-414.531 -610.75)"/><path class="aw" d="M564.652,703.768H423.372L422,689.307H562.826Z" transform="translate(-415.686 -622.9)"/><path class="ax" d="M567.493,729.182H425.788l-1.383-14.548h141.25Z" transform="translate(-416.808 -634.712)"/><path class="aw" d="M555.6,622.815H415.678l-1.348-14.186H553.812Z" transform="translate(-412.109 -585.274)"/><path class="aw" d="M558.585,649.49H418.213l-1.357-14.276H556.782Z" transform="translate(-413.288 -597.672)"/><g transform="translate(13.56 23.355)"><path class="ay" d="M473.107,676.748H459.367l-1.432-14.369h13.7Z" transform="translate(-446.006 -633.697)"/><path class="ay" d="M567.373,676.748H553.634l-1.592-14.369h13.7Z" transform="translate(-489.895 -633.697)"/><path class="ay" d="M610.269,622.815H596.618l-1.655-14.186h13.608Z" transform="translate(-509.913 -608.629)"/><path class="ay" d="M650.927,676.748H637.188l-1.735-14.369h13.7Z" transform="translate(-528.797 -633.697)"/><path class="ay" d="M635.785,729.182H621.96l-1.719-14.548h13.781Z" transform="translate(-521.702 -658.067)"/><path class="ay" d="M578.339,622.815H564.687l-1.6-14.186h13.608Z" transform="translate(-495.046 -608.629)"/><path class="ay" d="M590.514,729.182H576.69l-1.642-14.548h13.781Z" transform="translate(-500.625 -658.067)"/><path class="ay" d="M512.349,622.815H498.7l-1.489-14.186h13.608Z" transform="translate(-464.322 -608.629)"/><path class="ay" d="M518.191,677.627H504.45l-1.509-14.372h13.7Z" transform="translate(-466.996 -634.105)"/><path class="ay" d="M523.687,729.182H509.862l-1.527-14.548h13.78Z" transform="translate(-469.511 -658.067)"/><path class="ay" d="M450.616,622.815H436.965l-1.384-14.186h13.608Z" transform="translate(-435.58 -608.629)"/><path class="ay" d="M461.17,729.182H447.345l-1.42-14.548h13.781Z" transform="translate(-440.405 -658.067)"/></g></g><path class="az" d="M670.907,740.376c-1.925,2.941-5.63,6.266-8.865,9.25a30.727,30.727,0,0,1-15.417,8.094,24.19,24.19,0,0,0,4.625-13.875c0-.015,0-.011,0,0C651.283,744.555,662.813,745,670.907,740.376Z" transform="translate(-505.415 -646.718)"/><path class="ba" d="M671.918,740.376a49.418,49.418,0,0,1-7.709,9.25,30.729,30.729,0,0,1-15.417,8.094,24.192,24.192,0,0,0,4.625-13.875c0-.015,0-.011,0,0C653.45,744.555,663.824,745,671.918,740.376Z" transform="translate(-506.426 -646.718)"/><path class="bb" d="M610.113,619.018l-3.216,3.788-2.92-3.177-2.635,3-3.819-4.15,2.695-2.941-2.927-3.184,3.4-3.594,2.869,3.125,2.516-2.746,3.63,3.957-2.461,2.8Z" transform="translate(-482.406 -585.335)"/><path class="bb" d="M567.215,672.224,564,676.012l-2.92-3.177-2.635,3-3.819-4.15,2.695-2.941-2.927-3.184,3.4-3.594,2.87,3.125,2.516-2.746,3.63,3.957-2.461,2.8Z" transform="translate(-462.4 -610.149)"/><path class="bb" d="M518.038,673.1l-3.216,3.788-2.92-3.177-2.635,3-3.819-4.15,2.695-2.941-2.927-3.184,3.4-3.594,2.869,3.125,2.516-2.746,3.63,3.957-2.461,2.8Z" transform="translate(-439.465 -610.559)"/><path class="bb" d="M461.018,725.362,457.8,729.15l-2.92-3.177-2.635,3-3.819-4.15,2.695-2.941L448.2,718.7l3.4-3.594,2.869,3.125,2.516-2.746,3.63,3.957-2.461,2.8Z" transform="translate(-412.872 -634.932)"/><path class="bb" d="M590.348,725.362l-3.216,3.788-2.92-3.177-2.635,3-3.819-4.15,2.695-2.941-2.927-3.184,3.4-3.594,2.869,3.125,2.516-2.746,3.63,3.957-2.461,2.8Z" transform="translate(-473.189 -634.932)"/></g><path class="m" d="M882.88,425.025c1.529-1.811,5.7-5.935,11.14-4.717a.2.2,0,0,0,.129-.371c-3.113-1.439-9.074-2.945-11.611,4.894A.2.2,0,0,0,882.88,425.025Z" transform="translate(-233.435 -156.134)"/></g></svg>