<svg xmlns="http://www.w3.org/2000/svg" width="603" height="610.5" viewBox="0 0 603 610.5">
  <g id="bucket-2" transform="translate(-3181 -521)">
    <g id="Group_61" data-name="Group 61" transform="translate(741 691)">
      <g id="Group_57" data-name="Group 57" transform="translate(0 12)">
        <path id="Path_361" data-name="Path 361" d="M282,0C437.744,0,564,126.032,564,281.5S437.744,563,282,563A281.7,281.7,0,0,1,0,281.5C0,126.032,126.256,0,282,0Z" transform="translate(2458 -147)" fill="none" stroke="#e8e8e8" stroke-width="25"/>
        <path id="Path_363" data-name="Path 363" d="M282,0C437.744,0,564,126.032,564,281.5S437.744,563,282,563A281.7,281.7,0,0,1,0,281.5C0,126.032,126.256,0,282,0Z" transform="translate(2458 -147)" fill="#fff" stroke="#e8e8e8" stroke-width="25"/>
        <path id="Path_320" data-name="Path 320" d="M2708.5,146c155.131,0,280.889,125.758,280.889,280.889A280.444,280.444,0,0,1,2875.16,653.017" transform="translate(31.442 -293.001)" fill="none" stroke="#f19840" stroke-miterlimit="10" stroke-width="25"/>
        <circle id="Ellipse_4" data-name="Ellipse 4" cx="35" cy="35" r="35" transform="translate(2706 -182)" fill="#f19840"/>
        <circle id="Ellipse_5" data-name="Ellipse 5" cx="34.5" cy="34.5" r="34.5" transform="translate(2974 12)" fill="#f19840"/>
        <circle id="Ellipse_6" data-name="Ellipse 6" cx="34.5" cy="34.5" r="34.5" transform="translate(2872 328)" fill="#e8e8e8"/>
        <circle id="Ellipse_7" data-name="Ellipse 7" cx="34.5" cy="34.5" r="34.5" transform="translate(2541 329)" fill="#e8e8e8"/>
        <ellipse id="Ellipse_8" data-name="Ellipse 8" cx="34" cy="34.5" rx="34" ry="34.5" transform="translate(2440 13)" fill="#e8e8e8"/>
        <g id="Group_51" data-name="Group 51" transform="translate(2985.601 29.349)">
          <path id="Path_321" data-name="Path 321" d="M3087.84,401.84c-7.579,0-15.77,2.078-15.77,6.683l.407,3.26c-5.828,3.83-8.517,7.784-7.294,11,.652,1.752,2.649,3.83,8.435,3.83h.693l.734,5.746c.162,3.83,6.52,5.542,12.795,5.542s12.633-1.712,12.8-5.542l2.935-23.513V408.6C3103.61,403.959,3095.42,401.84,3087.84,401.84Zm0,3.912c7.335,0,11.329,1.916,11.818,2.771-.448.856-4.4,2.812-11.818,2.812s-11.369-1.956-11.818-2.812c.488-.856,4.478-2.771,11.818-2.771ZM3068.81,421.4c-.244-.611.612-2.608,4.2-5.257l.815,6.561C3070.56,422.7,3069.01,421.971,3068.81,421.4Zm19.031,12.551c-5.3,0-8.4-1.345-8.924-1.956l-.733-5.787a48.5,48.5,0,0,0,7.335-1.712,3.707,3.707,0,0,0,2.282.815,3.667,3.667,0,1,0-3.546-4.523,44.492,44.492,0,0,1-6.561,1.549l-1.141-8.924a35.413,35.413,0,0,0,22.5,0L3096.72,432c-.49.607-3.59,1.952-8.88,1.952Z" transform="translate(-3064.89 -401.84)" fill="#fff"/>
        </g>
        <g id="Group_52" data-name="Group 52" transform="translate(2718.153 -164.344)">
          <path id="Path_322" data-name="Path 322" d="M2699.84,120.84c-7.579,0-15.77,2.078-15.77,6.683l.407,3.26c-5.828,3.83-8.517,7.784-7.294,11,.652,1.752,2.648,3.83,8.435,3.83h.692l.734,5.746c.163,3.83,6.521,5.542,12.8,5.542s12.633-1.712,12.8-5.542l2.935-23.513V127.6C2715.61,122.959,2707.42,120.84,2699.84,120.84Zm0,3.912c7.335,0,11.329,1.916,11.818,2.771-.448.856-4.4,2.812-11.818,2.812s-11.369-1.956-11.818-2.812C2688.51,126.667,2692.5,124.752,2699.84,124.752ZM2680.81,140.4c-.244-.611.611-2.608,4.2-5.257l.814,6.561C2682.56,141.7,2681.01,140.971,2680.81,140.4Zm19.031,12.551c-5.3,0-8.4-1.345-8.924-1.956l-.733-5.787a48.5,48.5,0,0,0,7.335-1.712,3.707,3.707,0,0,0,2.283.815,3.667,3.667,0,1,0-3.546-4.523,44.494,44.494,0,0,1-6.561,1.549l-1.141-8.924a35.414,35.414,0,0,0,22.5,0L2708.72,151c-.49.607-3.59,1.952-8.88,1.952Z" transform="translate(-2676.89 -120.84)" fill="#fff"/>
        </g>
        <g id="Group_53" data-name="Group 53" transform="translate(2450.705 30.038)">
          <path id="Path_323" data-name="Path 323" d="M2311.84,402.84c-7.579,0-15.77,2.078-15.77,6.683l.407,3.26c-5.827,3.83-8.517,7.784-7.294,11,.652,1.752,2.649,3.83,8.435,3.83h.692l.734,5.746c.163,3.83,6.52,5.542,12.8,5.542s12.633-1.712,12.8-5.542l2.934-23.513V409.6C2327.61,404.959,2319.42,402.84,2311.84,402.84Zm0,3.912c7.335,0,11.329,1.916,11.817,2.771-.448.856-4.4,2.812-11.817,2.812s-11.369-1.956-11.818-2.812c.488-.856,4.478-2.771,11.818-2.771ZM2292.81,422.4c-.244-.611.612-2.608,4.2-5.257l.815,6.561C2294.56,423.7,2293.01,422.971,2292.81,422.4Zm19.031,12.551c-5.3,0-8.4-1.345-8.924-1.956l-.733-5.787a48.509,48.509,0,0,0,7.335-1.711,3.709,3.709,0,0,0,2.282.815,3.668,3.668,0,1,0-3.546-4.523,44.514,44.514,0,0,1-6.561,1.549l-1.141-8.924a35.413,35.413,0,0,0,22.5,0L2320.72,433c-.49.607-3.59,1.952-8.88,1.952Z" transform="translate(-2288.89 -402.84)" fill="#fff"/>
        </g>
        <g id="Group_54" data-name="Group 54" transform="translate(2552.722 344.359)">
          <path id="Path_324" data-name="Path 324" d="M2459.84,858.84c-7.58,0-15.771,2.078-15.771,6.683l.407,3.26c-5.827,3.83-8.517,7.784-7.294,11,.652,1.752,2.649,3.83,8.435,3.83h.693l.734,5.746c.163,3.831,6.52,5.542,12.8,5.542s12.633-1.711,12.8-5.542l2.934-23.513V865.6C2475.61,860.959,2467.42,858.84,2459.84,858.84Zm0,3.912c7.335,0,11.329,1.915,11.817,2.771-.448.856-4.4,2.812-11.817,2.812s-11.369-1.956-11.818-2.812C2448.51,864.667,2452.5,862.752,2459.84,862.752ZM2440.81,878.4c-.244-.611.611-2.608,4.2-5.256l.815,6.561C2442.56,879.7,2441.01,878.971,2440.81,878.4Zm19.031,12.552c-5.3,0-8.4-1.345-8.924-1.956l-.733-5.787a48.508,48.508,0,0,0,7.335-1.712,3.709,3.709,0,0,0,2.282.815,3.667,3.667,0,1,0-3.546-4.523,44.507,44.507,0,0,1-6.561,1.549l-1.141-8.924a35.414,35.414,0,0,0,22.5,0L2468.72,889c-.49.607-3.59,1.952-8.88,1.952Z" transform="translate(-2436.89 -858.84)" fill="#fff"/>
        </g>
        <g id="Group_55" data-name="Group 55" transform="translate(2883.585 343.669)">
          <path id="Path_325" data-name="Path 325" d="M2939.84,857.84c-7.579,0-15.77,2.078-15.77,6.683l.407,3.26c-5.827,3.83-8.517,7.784-7.294,11,.652,1.752,2.649,3.831,8.435,3.831h.693l.734,5.746c.163,3.831,6.52,5.542,12.8,5.542s12.633-1.712,12.8-5.542l2.935-23.513V864.6C2955.61,859.959,2947.42,857.84,2939.84,857.84Zm0,3.912c7.335,0,11.329,1.915,11.818,2.771-.448.856-4.4,2.812-11.818,2.812s-11.369-1.956-11.818-2.812C2928.51,863.667,2932.5,861.752,2939.84,861.752ZM2920.81,877.4c-.244-.611.612-2.608,4.2-5.256l.814,6.561C2922.56,878.7,2921.01,877.971,2920.81,877.4Zm19.031,12.552c-5.3,0-8.4-1.345-8.924-1.956l-.733-5.787a48.537,48.537,0,0,0,7.335-1.712,3.707,3.707,0,0,0,2.282.815,3.667,3.667,0,1,0-3.546-4.523,44.523,44.523,0,0,1-6.561,1.549l-1.141-8.924a35.414,35.414,0,0,0,22.495,0L2948.72,888c-.49.607-3.59,1.952-8.88,1.952Z" transform="translate(-2916.89 -857.84)" fill="#fff"/>
        </g>
      </g>
    </g>
    <g id="Group_17184" data-name="Group 17184" transform="translate(3379.001 676.999)">
      <path id="Path_268" data-name="Path 268" d="M685.357,182.08a5.924,5.924,0,0,1-.393,4.626,15.113,15.113,0,0,1-7.339,6.236c-5.806,2.552-16.622.4-16.622.4s5.156-10.736,11.136-12.848C680.466,177.556,685.138,181.44,685.357,182.08Z" transform="translate(-651.861 -74.663)" fill="#0099b9"/>
      <path id="Path_269" data-name="Path 269" d="M707.979,179.17a8.44,8.44,0,0,1-2.846-5.976,21.591,21.591,0,0,1,4.538-12.97c5.3-7.335,20.844-12.3,20.844-12.3s.691,16.734-5.142,23.651C717.251,181.206,708.705,179.806,707.979,179.17Z" transform="translate(-586.98 -120.955)" fill="#0099b9"/>
      <path id="Path_270" data-name="Path 270" d="M698.226,202.748a8.44,8.44,0,0,0-1.472-6.453,21.59,21.59,0,0,0-11.6-7.366c-8.7-2.467-23.982,3.27-23.982,3.27s9.831,13.56,18.7,15.37C692.212,210.092,698.048,203.7,698.226,202.748Z" transform="translate(-651.612 -61.572)" fill="#0099b9"/>
      <path id="Path_271" data-name="Path 271" d="M702.708,175.33a5.888,5.888,0,0,0,3.013-3.494,15.289,15.289,0,0,0-.612-9.617c-2.175-5.953-11.131-12.253-11.131-12.253s-4.08,11.16-1.474,16.934C696.135,174.945,702.1,175.621,702.708,175.33Z" transform="translate(-606.824 -117.951)" fill="#0099b9"/>
      <path id="Path_272" data-name="Path 272" d="M677.585,187.53a7.134,7.134,0,0,0,2.02-5.213,18.521,18.521,0,0,0-4.61-10.72c-4.907-5.91-17.692-9.454-17.692-9.454s-.118,14.4,5.207,19.927C669.926,189.765,677.012,188.1,677.585,187.53Z" transform="translate(-657.303 -100.05)" fill="#0099b9"/>
      <path id="Path_273" data-name="Path 273" d="M726,194.509a6.457,6.457,0,0,0,4.938,1.081,15.6,15.6,0,0,0,8.595-5.664c4.318-5.25,4.864-17.751,4.864-17.751s-12.387,2.41-16.291,7.986C722.663,187.926,725.389,194.075,726,194.509Z" transform="translate(-558.092 -85.3)" fill="#0099b9"/>
      <path id="Path_274" data-name="Path 274" d="M691.425,211.8s3.552,18.475,7.816,13.5c3.855-4.5,29.771-58.34,34.717-68.648C727.981,166.708,691.425,211.8,691.425,211.8Z" transform="translate(-607.131 -108.126)" fill="#0099b9"/>
      <path id="Path_275" data-name="Path 275" d="M727.147,188.493c-2.131,0-51.877-7.582-65.38-20.373,0,0,7.582,22.267,70.118,30.324Z" transform="translate(-650.737 -91.261)" fill="#0099b9"/>
      <path id="Path_276" data-name="Path 276" d="M685.512,175.794s-14.214,15.635-18.95,16.581c0,0,19.431-5.692,26.057-12.791Z" transform="translate(-643.688 -79.979)" fill="#0099b9"/>
      <path id="Path_277" data-name="Path 277" d="M728.119,201.716s-47.612-5.692-58.269-10.66c0,0,31.358,21.676,58.836,22.626Z" transform="translate(-638.854 -57.539)" fill="#0099b9"/>
      <path id="Path_278" data-name="Path 278" d="M711.007,184.165s-14.524-20.634-16.188-27.759c.689,4.787,3.755,23.566,10.738,34.866Z" transform="translate(-602.143 -108.485)" fill="#0099b9"/>
      <path id="Path_279" data-name="Path 279" d="M717.068,200.108s25.109-6.632,38.138-23.451c0,0-9.237,26.768-44.532,33.17Z" transform="translate(-578.83 -78.71)" fill="#0099b9"/>
      <path id="Path_280" data-name="Path 280" d="M697.572,183.234a11.209,11.209,0,0,1-8.777-.5,28.692,28.692,0,0,1-12.212-13.576c-5.156-10.864-1-32.145-1-32.145s19.937,9.892,24.265,21.111C705.872,173.734,698.777,182.79,697.572,183.234Z" transform="translate(-632.754 -137.007)" fill="#0099b9"/>
      <path id="Path_281" data-name="Path 281" d="M727.516,184.04a9.941,9.941,0,0,0,7.262,2.818A25.428,25.428,0,0,0,749.61,180.4c8.147-6.87,12.624-25.543,12.624-25.543s-19.706.646-27.317,8.1C724.321,173.333,726.709,183.239,727.516,184.04Z" transform="translate(-555.253 -110.759)" fill="#0099b9"/>
      <path id="Path_282" data-name="Path 282" d="M742.705,365.148c-2.66-17.892-5.433-36.9-4.61-55.029.785-17.439,7.394-30.381,16.33-44.891,5.888-9.555,11.236-19.572,17.1-29.19q15-24.583,30.644-48.762l1.34-2.073c-19.719,8.628-62.95,69.1-74.087,85q-.671-2.283-1.346-4.573c-6.45-21.927-13.527-43.69-21.949-64.946-6.787-17.129-14.177-35.918-26.5-49.949a1091.224,1091.224,0,0,1,31.207,112.126,347.807,347.807,0,0,1,6.946,53.93c.84,15.309,1.859,30.724.016,46-.834,6.915-4.1,27.164-13.973,27.164h52.34C747.284,389.945,743.647,371.49,742.705,365.148Z" transform="translate(-624.47 -116.83)" fill="#0099b9"/>
      <path id="Path_283" data-name="Path 283" d="M721.016,208.6a8.44,8.44,0,0,1,1.47-6.449,21.59,21.59,0,0,1,11.6-7.366c8.7-2.467,23.982,3.27,23.982,3.27s-9.831,13.56-18.7,15.37C727.028,215.95,721.192,209.552,721.016,208.6Z" transform="translate(-563.823 -52.957)" fill="#0099b9"/>
      <path id="Path_284" data-name="Path 284" d="M704.005,207.575s47.61-5.692,58.269-10.66c0,0-31.356,21.676-58.836,22.622Z" transform="translate(-589.468 -48.923)" fill="#0099b9"/>
      <path id="Path_285" data-name="Path 285" d="M709.074,255.961a103.632,103.632,0,0,1-16.518,7.721c-5.57,1.922-4.73,2.793-17.272,5.019.646-.279,4.964,1.278,5.916,1.407a28.428,28.428,0,0,0,6.7.357,106.54,106.54,0,0,0,20.145-5.615,39.893,39.893,0,0,1,14.3-3.533A22.789,22.789,0,0,1,733.2,262.6a19.1,19.1,0,0,1,8.367,8.243c2.141,3.417,3.973,7.129,6.4,10.363a22.088,22.088,0,0,0-2.5-12.2,44.741,44.741,0,0,0-5.154-7.433,48.6,48.6,0,0,0-3.729-4.595,63.02,63.02,0,0,1,20.783,3.631c7.871,2.447,14.7,3.664,21.478,8.243,2.514,1.7,7.2,6.322,6.326,9.982,3.028-6.54.671-11.044-5.7-14.353A137.673,137.673,0,0,0,766,257.443a96.068,96.068,0,0,1-14.147-7.749c-9.113-5.3-18.675-6.306-28.852-8.559a29.915,29.915,0,0,1-13.923,14.826Z" transform="translate(-630.863 16.094)" fill="#0099b9"/>
    </g>
  </g>
</svg>
