<svg xmlns="http://www.w3.org/2000/svg" xmlns:xlink="http://www.w3.org/1999/xlink" width="566.679" height="422.029" viewBox="0 0 566.679 422.029"><defs><style>.a,.cs,.ct,.l,.p,.w{fill:none;}.b{opacity:0.33;fill:url(#a);}.c{fill:url(#b);}.d{clip-path:url(#e);}.e,.k{fill:#2a7195;}.e,.l,.m,.n,.w{stroke:#100052;}.an,.ao,.ap,.ct,.e{stroke-miterlimit:10;}.f{fill:url(#f);}.g{fill:url(#g);}.h{fill:url(#h);}.i{fill:#060028;}.j{fill:#100052;}.cs,.l,.m,.n,.p,.w{stroke-linecap:round;stroke-linejoin:round;}.m{fill:#ffd3b9;}.n{fill:#fff;}.o,.x{fill:#e2a383;}.p{stroke:#fff;}.q{fill:url(#i);}.r{opacity:0.67;fill:url(#j);}.s{fill:url(#k);}.t{fill:url(#l);}.u,.v{opacity:0.12;}.u{fill:url(#m);}.v{fill:url(#n);}.w{stroke-width:4px;}.x{opacity:0.44;mix-blend-mode:multiply;isolation:isolate;}.y{fill:url(#o);}.z{fill:url(#p);}.aa{fill:url(#q);}.ab{fill:url(#r);}.ac{fill:url(#s);}.ad{fill:url(#t);}.ae{fill:url(#u);}.af{fill:url(#v);}.ag{fill:url(#w);}.ah{fill:url(#x);}.ai{fill:url(#y);}.aj{fill:url(#z);}.ak{fill:url(#aa);}.al{fill:url(#ab);}.am{fill:url(#ac);}.an,.ao,.ap{stroke:#0e0751;stroke-width:3px;}.an{fill:url(#ad);}.ao{fill:url(#ae);}.ap{fill:url(#af);}.aq{opacity:0.42;}.ar{clip-path:url(#ag);}.as{fill:url(#ah);}.at{fill:url(#ai);}.au{fill:url(#aj);}.av{fill:url(#ak);}.aw{fill:url(#al);}.ax{fill:url(#am);}.ay{fill:url(#an);}.az{fill:url(#ao);}.ba{fill:url(#ap);}.bb{fill:url(#aq);}.bc{fill:url(#ar);}.bd{fill:url(#as);}.be{fill:url(#au);}.bf{fill:url(#aw);}.bg{fill:url(#ax);}.bh{fill:url(#az);}.bi{fill:url(#ba);}.bj{fill:url(#bb);}.bk{fill:url(#bd);}.bl{fill:url(#be);}.bm{fill:url(#bf);}.bn{fill:url(#bg);}.bo{fill:url(#bh);}.bp{fill:url(#bi);}.bq{fill:url(#bj);}.br{fill:url(#bk);}.bs{fill:url(#bl);}.bt{fill:url(#bm);}.bu{fill:url(#bn);}.bv{fill:url(#bo);}.bw{fill:url(#bp);}.bx{fill:url(#bq);}.by{fill:url(#br);}.bz{fill:url(#bs);}.ca{fill:url(#bt);}.cb{fill:url(#bu);}.cc{fill:url(#bv);}.cd{fill:url(#bw);}.ce{fill:url(#bx);}.cf{fill:url(#by);}.cg{fill:url(#bz);}.ch{fill:url(#ca);}.ci{fill:url(#cb);}.cj{fill:url(#cc);}.ck{clip-path:url(#cn);}.cl{fill:url(#cs);}.cm{clip-path:url(#ct);}.cn{fill:url(#cy);}.co{fill:#dfe4d5;}.cp{fill:#eff3f3;}.cq{fill:#ffbd50;}.cr{fill:#c4b7b7;}.cs,.ct{stroke:#707070;}.cs{stroke-width:2.968px;}.ct{stroke-width:2.407px;}</style><linearGradient id="a" x1="-3.185" y1="0.319" x2="-2.183" y2="0.319" gradientUnits="objectBoundingBox"><stop offset="0" stop-color="#ff9077"/><stop offset="1" stop-color="#e9645a"/></linearGradient><linearGradient id="b" x1="0" y1="0.5" x2="1" y2="0.5" xlink:href="#a"/><clipPath id="e"><path class="a" d="M613.526,115.481c-50.834-46.531-134.23-39.9-176.952,13.774-41.606,52.272,22.936,102.217-30.887,131.575-79.144,43.169-82.781,68.5-86.33,110.766-1.972,23.49,8.861,48.382,22.576,66.887,17.6,23.747,42.2,32.694,71.019,35.96,9.96,1.128,20,1.343,30.021,1.557,15.89.339,31.808.676,47.661-.457,13.023-.931,25.965-2.853,39-3.589,37.959-2.145,75.654,5.778,113.383,10.478,14.311,1.783,24.282-1.108,37.714-3.925,9.6-2.012,18.524-1.156,26.658-7.865,13.6-11.215,15.326-33.8,20.989-49.375,23.677-65.11,90.38-73.828,129.382-124.476,58.955-76.56-37.03-97.1-95.671-101.432-30.267-2.236-67.31.38-95.913-11.7C631.275,168.925,638.465,138.309,613.526,115.481Z" transform="translate(-319.124 -84.402)"/></clipPath><linearGradient id="f" x1="-1.169" y1="0.436" x2="1.03" y2="0.52" gradientUnits="objectBoundingBox"><stop offset="0" stop-color="#2a7195"/><stop offset="1" stop-color="#060c39"/></linearGradient><linearGradient id="g" x1="0.162" y1="0.491" x2="1.223" y2="0.52" xlink:href="#f"/><linearGradient id="h" x1="-3.101" y1="-51.418" x2="-2.091" y2="-51.384" xlink:href="#f"/><linearGradient id="i" x1="0.132" y1="0.5" x2="0.738" y2="0.5" gradientUnits="objectBoundingBox"><stop offset="0" stop-color="#faebd8"/><stop offset="1" stop-color="#ffb83f"/></linearGradient><linearGradient id="j" x1="-0.13" y1="0.449" x2="0.589" y2="0.507" xlink:href="#f"/><linearGradient id="k" x1="-0.421" y1="0.5" x2="0.579" y2="0.5" xlink:href="#i"/><linearGradient id="l" x1="0.466" y1="0.874" x2="0.49" y2="0.482" xlink:href="#i"/><linearGradient id="m" x1="-1.1" y1="-102.657" x2="0.236" y2="-101.979" xlink:href="#f"/><linearGradient id="n" x1="96.621" y1="-207.926" x2="99.094" y2="-206.936" xlink:href="#f"/><linearGradient id="o" x1="-0.354" y1="0.5" x2="0.646" y2="0.5" xlink:href="#f"/><linearGradient id="p" x1="0.499" y1="-0.38" x2="0.501" y2="1.106" xlink:href="#f"/><linearGradient id="q" x1="0.514" y1="0.152" x2="0.458" y2="1.53" gradientUnits="objectBoundingBox"><stop offset="0" stop-color="#4fa5ad"/><stop offset="1" stop-color="#99cbcf"/></linearGradient><linearGradient id="r" x1="-89.592" y1="0.148" x2="-89.514" y2="1.533" xlink:href="#q"/><linearGradient id="s" x1="1.572" y1="6.366" x2="-0.419" y2="-4.525" xlink:href="#q"/><linearGradient id="t" x1="0.088" y1="0.137" x2="0.938" y2="0.977" gradientUnits="objectBoundingBox"><stop offset="0" stop-color="#fff"/><stop offset="1" stop-color="#bbdbf9"/></linearGradient><linearGradient id="u" x1="0.04" y1="0.024" x2="0.985" y2="1.045" xlink:href="#t"/><linearGradient id="v" x1="-63.908" y1="-0.173" x2="-62.945" y2="1.294" xlink:href="#t"/><linearGradient id="w" x1="3.538" y1="-33.637" x2="-4.459" y2="-27.878" xlink:href="#f"/><linearGradient id="x" x1="1.853" y1="-9.901" x2="-4.842" y2="-8.133" xlink:href="#f"/><linearGradient id="y" x1="2.324" y1="-39.448" x2="-7.448" y2="-32.434" xlink:href="#f"/><linearGradient id="z" x1="0.766" y1="-11.927" x2="-6.208" y2="-9.731" xlink:href="#f"/><linearGradient id="aa" x1="1.712" y1="-39.564" x2="-8.06" y2="-32.556" xlink:href="#f"/><linearGradient id="ab" x1="0.312" y1="-11.971" x2="-6.663" y2="-9.775" xlink:href="#f"/><linearGradient id="ac" x1="-0.006" y1="-13.936" x2="-4.881" y2="-11.374" xlink:href="#f"/><linearGradient id="ad" x1="-0.091" y1="0.2" x2="1.091" y2="0.8" xlink:href="#t"/><linearGradient id="ae" x1="-0.094" y1="0.204" x2="1.094" y2="0.796" xlink:href="#t"/><linearGradient id="af" x1="-0.095" y1="0.205" x2="1.095" y2="0.795" xlink:href="#t"/><clipPath id="ag"><rect class="a" width="57.109" height="53.962"/></clipPath><linearGradient id="ah" x1="-0.399" y1="0.427" x2="1.565" y2="0.614" xlink:href="#q"/><linearGradient id="ai" x1="0.097" y1="0.199" x2="0.775" y2="0.641" xlink:href="#q"/><linearGradient id="aj" x1="0" y1="0.5" x2="1" y2="0.5" xlink:href="#q"/><linearGradient id="ak" x1="0" y1="0.5" x2="1" y2="0.5" xlink:href="#q"/><linearGradient id="al" x1="-0.33" y1="0.5" x2="1.002" y2="0.5" xlink:href="#q"/><linearGradient id="am" x1="-0.892" y1="0.5" x2="10.661" y2="0.5" xlink:href="#q"/><linearGradient id="an" x1="-3.33" y1="0.5" x2="1.706" y2="0.5" xlink:href="#q"/><linearGradient id="ao" x1="0" y1="0.5" x2="1.671" y2="0.5" xlink:href="#q"/><linearGradient id="ap" x1="-0.933" y1="0.5" x2="1.443" y2="0.5" xlink:href="#q"/><linearGradient id="aq" x1="-0.326" y1="0.5" x2="3.46" y2="0.5" xlink:href="#q"/><linearGradient id="ar" x1="-1.087" y1="0.5" x2="1.001" y2="0.5" xlink:href="#q"/><linearGradient id="as" x1="-0.455" y1="0.5" x2="1" y2="0.5" xlink:href="#q"/><linearGradient id="au" x1="0" y1="0.5" x2="1.98" y2="0.5" xlink:href="#q"/><linearGradient id="aw" x1="-0.738" y1="0.5" x2="1" y2="0.5" xlink:href="#q"/><linearGradient id="ax" x1="-0.262" y1="0.5" x2="1.474" y2="0.5" xlink:href="#q"/><linearGradient id="az" x1="-0.242" y1="0.5" x2="1" y2="0.5" xlink:href="#q"/><linearGradient id="ba" x1="-15.091" y1="0.5" x2="1.001" y2="0.5" xlink:href="#q"/><linearGradient id="bb" x1="-0.867" y1="0.5" x2="9.109" y2="0.5" xlink:href="#q"/><linearGradient id="bd" x1="0" y1="0.5" x2="1.007" y2="0.5" xlink:href="#q"/><linearGradient id="be" x1="-1.007" y1="0.5" x2="1.007" y2="0.5" xlink:href="#q"/><linearGradient id="bf" x1="-0.757" y1="0.5" x2="1.653" y2="0.5" xlink:href="#q"/><linearGradient id="bg" x1="-0.12" y1="0.5" x2="1" y2="0.5" xlink:href="#q"/><linearGradient id="bh" x1="-3.051" y1="0.5" x2="8.503" y2="0.5" xlink:href="#q"/><linearGradient id="bi" x1="-5.372" y1="0.5" x2="1" y2="0.5" xlink:href="#q"/><linearGradient id="bj" x1="0" y1="0.5" x2="5.372" y2="0.5" xlink:href="#q"/><linearGradient id="bk" x1="0" y1="0.5" x2="1.253" y2="0.5" xlink:href="#q"/><linearGradient id="bl" x1="0" y1="0.5" x2="10.614" y2="0.5" xlink:href="#q"/><linearGradient id="bm" x1="-2.955" y1="0.5" x2="1.774" y2="0.5" xlink:href="#q"/><linearGradient id="bn" x1="-0.086" y1="0.5" x2="2" y2="0.5" xlink:href="#q"/><linearGradient id="bo" x1="-0.379" y1="0.5" x2="1.306" y2="0.5" xlink:href="#q"/><linearGradient id="bp" x1="-0.016" y1="0.5" x2="6.063" y2="0.5" xlink:href="#q"/><linearGradient id="bq" x1="-1.238" y1="0.5" x2="2.115" y2="0.5" xlink:href="#q"/><linearGradient id="br" x1="-1.709" y1="0.5" x2="1" y2="0.5" xlink:href="#q"/><linearGradient id="bs" x1="-3.759" y1="0.5" x2="1.305" y2="0.5" xlink:href="#q"/><linearGradient id="bt" x1="-71.149" y1="0.498" x2="67.777" y2="0.498" xlink:href="#q"/><linearGradient id="bu" x1="-3.123" y1="0.5" x2="1.161" y2="0.5" xlink:href="#q"/><linearGradient id="bv" x1="0" y1="0.5" x2="1.245" y2="0.5" xlink:href="#q"/><linearGradient id="bw" x1="-2.389" y1="0.5" x2="16.49" y2="0.5" xlink:href="#q"/><linearGradient id="bx" x1="-7.109" y1="0.5" x2="1.741" y2="0.5" xlink:href="#q"/><linearGradient id="by" x1="-9.44" y1="0.5" x2="1.239" y2="0.5" xlink:href="#q"/><linearGradient id="bz" x1="0" y1="0.5" x2="6.62" y2="0.5" xlink:href="#q"/><linearGradient id="ca" x1="-1.655" y1="0.5" x2="1.448" y2="0.5" xlink:href="#q"/><linearGradient id="cb" x1="-1.283" y1="0.5" x2="2.954" y2="0.5" xlink:href="#q"/><linearGradient id="cc" x1="0" y1="0.5" x2="1.231" y2="0.5" xlink:href="#q"/><clipPath id="cn"><rect class="a" width="37.773" height="36.424"/></clipPath><linearGradient id="cs" x1="-6.66" y1="201.794" x2="-5.66" y2="201.794" xlink:href="#q"/><clipPath id="ct"><rect class="a" width="57.559" height="55.76"/></clipPath><linearGradient id="cy" x1="0" y1="0.5" x2="1" y2="0.5" xlink:href="#i"/></defs><g transform="translate(-297.814 -80.402)"><path class="b" d="M561.824,507.723c51.277,46.042,134.606,38.613,176.812-15.467,41.1-52.668-23.913-101.993,29.626-131.864,78.727-43.925,82.122-69.287,85.266-111.587,2.287-30.77-21.176-76.043-50.78-91.109C773.879,143,729.067,171.484,699.5,176.672c-42.405,7.44-66.227,7.373-106.35-6.713C563.466,159.538,528.1,144.9,496.2,145.083c-44.013.25-39.822,23.025-52.152,57.969C421,268.385,354.38,277.742,315.865,328.761c-58.219,77.122,37.958,96.74,96.638,100.511,30.287,1.947,67.3-1.024,96.021,10.778C543.564,454.451,536.668,485.135,561.824,507.723Z" transform="translate(0 -35.594)"/><path class="c" d="M613.569,111.481c-50.834-46.531-134.23-39.9-176.952,13.774-41.606,52.272,22.936,102.217-30.887,131.575C326.585,300,322.948,325.327,319.4,367.6c-2.582,30.747,20.447,76.242,49.906,91.591,28.727,14.968,73.809-13.083,103.427-17.987,42.475-7.033,66.295-6.738,106.282,7.731,29.58,10.7,64.806,25.679,96.7,25.8,44.013.171,40.041-22.642,52.7-57.467C752.1,352.156,818.8,343.438,857.8,292.79c58.955-76.56-37.03-97.1-95.671-101.432-30.267-2.236-67.31.38-95.913-11.7C631.318,164.925,638.507,134.309,613.569,111.481Z" transform="translate(-11.77)"/><path class="c" d="M633.225,385.156c-34.625-17.088-68.8-30.578-100.729-53.962-19.786-14.39-36.424-28.78-54.861-44.069-20.685-16.638-37.324-35.974-43.619-62.056-4.118-17.452-1.137-33.791,5.881-48.759-1.131,1.3-2.244,2.615-3.324,3.972-41.606,52.272,22.936,102.217-30.887,131.575-79.144,43.169-82.781,68.5-86.33,110.766-1.972,23.49,8.861,48.382,22.576,66.887,17.6,23.747,42.2,32.694,71.019,35.959,9.96,1.129,20,1.344,30.021,1.557,15.89.339,31.808.676,47.661-.457,13.023-.931,25.965-2.853,39-3.589,37.959-2.145,75.654,5.778,113.383,10.478,14.311,1.783,24.282-1.109,37.714-3.925,9.6-2.012,18.524-1.156,26.658-7.865,13.6-11.215,15.326-33.8,20.989-49.375a112.113,112.113,0,0,1,20.93-35.609c-14.286-12.085-34.169-18.8-51.328-25.9C676.395,401.795,654.36,395.5,633.225,385.156Z" transform="translate(-11.727 -52.78)"/><path class="c" d="M900.4,196.362c-30.267-2.236-67.31.38-95.913-11.7-34.9-14.736-27.711-45.352-52.649-68.18-49.548-45.355-130.027-40.193-173.628,9.8-7.019,14.968-10,31.307-5.881,48.759,6.3,26.081,22.934,45.418,43.619,62.056,18.437,15.289,35.075,29.679,54.861,44.069,31.927,23.383,66.1,36.874,100.729,53.962,21.135,10.343,43.169,16.638,64.754,25.632,17.159,7.1,37.042,13.812,51.328,25.9,30.558-35.307,77.967-49.278,108.452-88.867C1055.027,221.234,959.041,200.7,900.4,196.362Z" transform="translate(-150.039 -2.756)"/><g transform="translate(307.397 82.201)"><g class="d" transform="translate(0 0)"><g transform="translate(153.396 25.351)"><path class="e" d="M914.31,709.838C938,776.492,925.1,563.691,899.021,529.066c-20.419-27.108-72.4-5.4-72.4-5.4Z" transform="translate(-751.805 -346.961)"/><g transform="translate(154.86 236.066)"><path class="f" d="M1004.622,726.448l20.888,7.973,65.45-60.136v-2.7l-19.336-5.846Z" transform="translate(-1004.622 -665.741)"/><path class="g" d="M1011.542,733.549l18.242,5.4,64.985-60.257-18.437-4.946Z" transform="translate(-1008.43 -670.144)"/><path class="h" d="M1155.4,677.665c-3.556,2.272-.365,3.722,2.3,2.655a2.65,2.65,0,0,0,1.639-1.571,1.181,1.181,0,0,0-.355-1.175A3.15,3.15,0,0,0,1155.4,677.665Z" transform="translate(-1086.727 -671.974)"/><path class="i" d="M1156.942,679.548c-2.023,1.292-.208,2.118,1.307,1.51a1.508,1.508,0,0,0,.932-.894.672.672,0,0,0-.2-.669A1.792,1.792,0,0,0,1156.942,679.548Z" transform="translate(-1087.952 -673.152)"/></g><path class="j" d="M814.96,179.574c-6.366-1.658-12.2-2.98-18.9-2.171-15.7,1.894-27.379,13.24-34.652,26.667-6.657,12.29-10.286,26.107-12.671,39.8-3.432,19.705-4.624,40.724-1.14,60.532.942,5.355,2.434,11.054,6.017,15.3,1.394,1.651,3.5,3.741,5.545,4.528a89.218,89.218,0,0,0,10.155,2.918,37.935,37.935,0,0,0,9,1.4,17.628,17.628,0,0,0,6.316-1.043,10.6,10.6,0,0,1,2.6-.978,24.827,24.827,0,0,1,3.529.241l15.163.883c12.342.718,30.255.833,38.267,11.849,0,0,19.483-25.166,23.136-64.944S892.892,199.869,814.96,179.574Z" transform="translate(-707.164 -160.799)"/><path class="k" d="M799.5,513.339s-27.88-8.094-51.713,0-43.169,23.383-43.169,23.383,34.625,108.823,37.323,137.6-15,50.3-15,50.3l120.225-5.783s-5.4-80.943,0-101.628-4.947-39.122-17.538-56.21S799.5,513.339,799.5,513.339Z" transform="translate(-684.667 -343.825)"/><path class="l" d="M799.5,513.339s-27.88-8.094-51.713,0-43.169,23.383-43.169,23.383,34.625,108.823,37.323,137.6-15,50.3-15,50.3l120.225-5.783s-5.4-80.943,0-101.628-4.947-39.122-17.538-56.21S799.5,513.339,799.5,513.339Z" transform="translate(-684.667 -343.825)"/><g transform="translate(114.897 256.135)"><path class="m" d="M1053.257,792.3c2.832.564,5.883,1.226,8.749.508,2.729-.684,5.138-3.067,7.168-4.911q6.951-6.317,13.281-13.275c.812-.893,3.326-3.938,1.084-4.674-.964-.316-2.322.577-3.1,1.019a67.594,67.594,0,0,0-6.271,4.451c-2.8,2.033-5.209,4.233-8.494,5.3-4.292,1.4-8.973,2.15-13.363,3.2" transform="translate(-990.9 -743.122)"/><path class="m" d="M1020.456,784.415a71.549,71.549,0,0,1-24.148-.43c-6.131-1.242-15.589-7.12-14.267-14.8.528-3.068,4.339-6.916,6.124-9.527,1.335-1.953,2.511-4.7,4.554-5.472,2.725-1.028,10.226,1.159,13.294,1.5l15.181,1.7" transform="translate(-952.163 -734.334)"/><path class="m" d="M961.111,795.527c-1.337,6.107-6.973,7.562-10.963,12.15-4.669,5.368-9.322,10.823-14.16,16.035-3.7,3.99-11.967,4.5-16.564,1.332-5.041-3.47-3.945-10.212-2.262-15.192,9.556-10.155,21.092-24.771,31.358-34.111" transform="translate(-915.752 -746.345)"/><path class="m" d="M1002.622,731.223c4.038-3.552,7.713-6.928,12.653-9.293,4.211-2.016,8.643-3.508,12.918-5.376a50.29,50.29,0,0,0,6.191-3.16c.948-.581,4.273-3.864,5.3-2.82a2.106,2.106,0,0,1,.469,1.37,11.876,11.876,0,0,1-3.434,8.794c-4.794,5.039-12.747,6.032-16.731,12.128" transform="translate(-963.558 -710.371)"/><path class="m" d="M1056.622,779.009c4.226,1.382,9.285-.193,13.544-2.1a27.331,27.331,0,0,0,5.475-3.6l4.4-3.426a71.357,71.357,0,0,0,6.407-5.4c1.466-1.447,4.11-3.646,4.2-5.866.073-1.863-1.394-1.579-2.793-1.1-3.444,1.176-6.908,3.706-10.016,5.505-6.734,3.9-12.19,3.869-19.833,4.76" transform="translate(-993.276 -736.123)"/><path class="m" d="M1056.622,767.825c3.719,1.216,7.243,2.557,10.864.571q5.872-3.222,11.507-6.856c3.805-2.449,8.045-4.906,9.5-9.49.874-2.748.318-3.507-2.44-2.566-3.444,1.176-6.908,3.706-10.016,5.505-6.734,3.9-10.875,3.85-18.518,4.741" transform="translate(-993.276 -731.684)"/><path class="m" d="M1039.912,759.4" transform="translate(-984.08 -737.352)"/><path class="m" d="M1036.62,748.752a66.355,66.355,0,0,0,17.234-1.265c5.854-1.025,11.846-.477,17.7-1.851,4.337-1.018,7.048-4.445,11-5.761,2.955-.984,5.106-.15,3.517,2.933-3.171,6.153-10.649,8.98-16.74,11.34a52.088,52.088,0,0,1-21.617,3.878" transform="translate(-982.268 -726.392)"/></g><g transform="translate(0 191.109)"><path class="k" d="M740.458,699.759c-18.648-37.02-14.6-80.406-30.766-116.06-5.3-11.682-15.071-23.032-31.057-15.513-16.876,7.937-17.509,37.844-18.294,53.255C659,647.826,671.688,744.877,702.524,755.457,743.6,769.551,746.79,724.249,740.458,699.759Z" transform="translate(-660.245 -565.766)"/><path class="l" d="M740.458,699.759c-18.648-37.02-14.6-80.406-30.766-116.06-5.3-11.682-15.071-23.032-31.057-15.513-16.876,7.937-17.509,37.844-18.294,53.255C659,647.826,671.688,744.877,702.524,755.457,743.6,769.551,746.79,724.249,740.458,699.759Z" transform="translate(-660.245 -565.766)"/><path class="k" d="M747.652,835.1S824.1,790.58,834.44,788.332s20.236,7.195,25.182,17.538-8.994,18.437-22.484,27.431-63.052,45.846-76.045,46.307-25.134-1.788-30.53-11.232S733.262,843.642,747.652,835.1Z" transform="translate(-698.018 -688.064)"/><path class="l" d="M750.535,835.1s76.446-44.518,86.788-46.767,20.236,7.195,25.182,17.538-8.994,18.437-22.484,27.431-74.422,68.576-105.9,38.448" transform="translate(-700.901 -688.064)"/></g><g transform="translate(55.27 21.225)"><g transform="translate(0 68.844)"><path class="n" d="M882.152,518.035c.3,1.1.969,2.219,1.314,3.329.932,2.993,2.183,6.2,1.512,9.257-.558,2.548-1.229,5.07-1.775,7.62-.5,2.345-1.421,5.414-1.063,7.824.309,2.075,1.951,4.477,3.092,6.218,2.4,3.6,5.731,6.167,8.687,9.3a.358.358,0,0,0,.21.136c.174.016.263-.2.294-.375.836-4.569.311-8.928.053-13.563-.2-3.645-.193-7.291-.43-10.943-.473-7.269-2.016-14.545-6.254-20.608a4.387,4.387,0,0,0-2.568-2.089,2.815,2.815,0,0,0-2.623,1.133A2.957,2.957,0,0,0,882.152,518.035Z" transform="translate(-837.552 -436.295)"/><path class="m" d="M798.833,388.847,790.22,430.92l37.748,20.7,8.93-60.885s-26.789-37.749-36.531-46.272-15.83,1.217-17.048,5.277,4.465,15.424,12.583,12.177,6.494-2.435,6.494-2.435l-.837,10.249A160.248,160.248,0,0,1,798.833,388.847Z" transform="translate(-783.156 -341.072)"/><path class="n" d="M799.081,507.2c-.167.2,1.211,2.375,1.32,2.566a64.221,64.221,0,0,0,4.688,7.021,100.783,100.783,0,0,0,9.116,10.375c2.506,2.507,18.923,14.789,20.382,15.528a.746.746,0,0,1,.333.264.8.8,0,0,1,.062.427c-.052,1.552,2.052,15.874,2.8,17.7-3.541-.812-12.962-6.207-14.51-7.16q-2.37-1.458-4.638-3.073a67.741,67.741,0,0,1-8.438-7.085,52.28,52.28,0,0,1-10.836-15.375,37.539,37.539,0,0,1-2.793-8.539C795.525,514.341,796.621,510.1,799.081,507.2Z" transform="translate(-790.319 -432.494)"/></g><path class="m" d="M796.687,267.471a124.66,124.66,0,0,1,6.947,20.7c3.526,14.12,20.954,25.277,32.374,32.059,17.966,10.668,31.626.37,41.683-16.345,14.263-23.7,25.588-63.737,11.194-89.442-16.162-28.865-81.308-39.315-96.6-4.581C784.926,226.565,788.867,249.961,796.687,267.471Z" transform="translate(-786.031 -187.978)"/></g><path class="j" d="M854.921,140.778" transform="translate(-767.379 -140.778)"/><path class="o" d="M875.59,237.691s36.531-5.277,45.867,21.513,6.9,62.1,6.9,62.1,9.742-24.76,9.742-30.036,2.841-33.284-3.248-43.837-18.265-21.107-32.066-19.889S875.59,237.691,875.59,237.691Z" transform="translate(-778.754 -188.474)"/><g transform="translate(42.46 18.624)"><path class="j" d="M817.594,212.787s38.155-8.118,48.708,18.672-2.029,88.486-2.029,88.486,17.859-33.284,20.7-58.043,9.742-70.626-58.449-79.15-59.667,83.615-59.667,83.615,6.088-34.1,21.918-19.077,25.978,4.871,29.63-7.712S817.594,212.787,817.594,212.787Z" transform="translate(-761.187 -182.194)"/><path class="j" d="M810.261,250.227s-11.365,21.107-15.424,38.155c-3.746,15.732-3.44,32.477-2.526,48.518q.592,10.39,1.778,20.736c.451,3.982,3.489,12.613-1.492,13.641-3.19.659-6.9-.524-9.928-1.42-8.365-2.471-17.4-5.417-22.277-12.647-2.445-3.624-3.563-7.972-4.326-12.276a91.193,91.193,0,0,1-.734-26.912,22.466,22.466,0,0,1,1.63-6.542c1.035-2.285,3.289-3.122,4.392-4.943,1.518-2.506,1.57-7.631,2.453-10.566,1.681-5.589,3.677-11.108,5.864-16.519Z" transform="translate(-754.667 -219.634)"/></g><path class="p" d="M977.588,224.954s41.41,2.925,8.524,103.5" transform="translate(-834.885 -187.102)"/><g transform="translate(50.807 20.752)"><ellipse class="q" cx="22.907" cy="13.852" rx="22.907" ry="13.852" transform="matrix(0.045, -0.999, 0.999, 0.045, 0, 100.885)"/><ellipse class="r" cx="16.236" cy="8.727" rx="16.236" ry="8.727" transform="matrix(0.045, -0.999, 0.999, 0.045, 2.691, 94.638)"/><path class="s" d="M801.474,248.2c5.407-12.645,13.884-24.65,24.8-33.111,14.1-10.93,60.648-23.454,69.327.3-.425-25.614-34.023-32.7-53.916-26.189-25.69,8.416-46.861,32.446-48.266,59.612C795.635,246.871,798.9,246.14,801.474,248.2Z" transform="translate(-784.339 -186.925)"/><g transform="translate(6.576 54.941)"><path class="t" d="M802.722,310.949l-12.793-1.828a1.815,1.815,0,0,0-1.843,2.678l1.867,3.361a1.816,1.816,0,0,0,1.261.9l8.073,1.472A1.816,1.816,0,0,0,800.93,317l2.852-3.006A1.815,1.815,0,0,0,802.722,310.949Z" transform="translate(-787.854 -309.102)"/><rect class="u" width="14.206" height="1.218" rx="0.609" transform="translate(1.048 0.545) rotate(8.034)"/><rect class="v" width="7.678" height="0.833" rx="0.417" transform="translate(3.889 2.981) rotate(8.034)"/></g></g></g><path class="j" d="M889.823,352.672c-1.524-.736-3.534.071-5.023.59l-3.31,1.153a21.049,21.049,0,0,0-3.99,1.711c2.54.235,4.929-1.342,7.385.04.856.482,1.628,1.2,2.474,1.719a2.827,2.827,0,0,0,2.7.389C892.078,357.294,891.638,353.549,889.823,352.672Z" transform="translate(-626.409 -231.874)"/><path class="w" d="M889.091,329.391a28.538,28.538,0,0,0-19.21,1.587c-.128.058-.307.1-.385-.012s.223-.194.158-.069" transform="translate(-621.997 -218.687)"/><path class="j" d="M963.585,354.1c1.524-.736,3.534.071,5.023.59l3.311,1.153a21.048,21.048,0,0,1,3.99,1.711c-2.54.235-4.929-1.342-7.384.04-.856.482-1.629,1.2-2.475,1.719a2.827,2.827,0,0,1-2.7.389C961.33,358.719,961.77,354.974,963.585,354.1Z" transform="translate(-672.921 -232.658)"/><path class="w" d="M956.318,330.86a28.537,28.537,0,0,1,19.21,1.587c.127.059.306.1.385-.012s-.223-.194-.158-.069" transform="translate(-669.784 -219.496)"/><path class="x" d="M934.88,404.413a8.137,8.137,0,0,0,4.265-.608,4.226,4.226,0,0,0,1.463-3.541,2.774,2.774,0,0,1,.4,2.64,5.432,5.432,0,0,1-.429.829,7.36,7.36,0,0,1-3.691,3.408c-2.157.653-4.361-.77-6.029-2.2a8.962,8.962,0,0,1-2.982-3.646C930.165,401.657,931.957,404.2,934.88,404.413Z" transform="translate(-654.132 -258.227)"/></g></g><g transform="translate(594.517 419.164)"><g transform="translate(0 37.773)"><path class="y" d="M965.74,943.373h227.941a8.142,8.142,0,0,0,8.118-8.118h0a48.492,48.492,0,0,1-9.789-11.454,8.131,8.131,0,0,0-6.873-3.811l-197.362-2.248a8.084,8.084,0,0,0-5.41,2.078A77.77,77.77,0,0,1,961.1,933.772l-3.478,1.483A8.142,8.142,0,0,0,965.74,943.373Z" transform="translate(-957.622 -917.741)"/><rect class="z" width="244.177" height="10.792" rx="5.396" transform="translate(0 14.84)"/></g><g transform="translate(141.2)"><path class="aa" d="M1289.384,854.741c-9.81,0-17.762,7.147-17.762,15.964s7.953,15.964,17.762,15.964,17.762-7.147,17.762-15.964S1299.194,854.741,1289.384,854.741Zm3.148,27.88c-7.461,0-13.509-5.436-13.509-12.141s6.048-12.141,13.509-12.141,13.509,5.436,13.509,12.141S1299.993,882.621,1292.532,882.621Z" transform="translate(-1271.622 -845.298)"/><path class="ab" d="M1314.53,837.33c.161-1.993,6.22-3.589,20.191-3.589s20.929,1.147,21.09,3.14a.545.545,0,0,1-.039.243l-2.14,42.084c.391,7.406-38.214,7.406-37.822,0l-1.241-41.635A.547.547,0,0,1,1314.53,837.33Z" transform="translate(-1295.234 -833.741)"/><path class="ac" d="M1356.607,838.459c.038.521-1.071,1.009-3.013,1.417h0c-.8.169-1.747.325-2.812.464-2.33.3-5.233.53-8.476.645l-.171.006c-1.512.051-3.1.078-4.729.078-.635,0-1.263,0-1.882-.012a76.557,76.557,0,0,1-15.005-1.339c-1.511-.374-2.357-.8-2.325-1.259.022-.31.449-.606,1.211-.881,2.374-.851,8-1.489,14.82-1.641.166,0,.331-.008.5-.01.365-.008.732-.013,1.1-.017q.778-.009,1.569-.009a92.586,92.586,0,0,1,15.786,1.112,17.143,17.143,0,0,1,2.008.5C1356.078,837.8,1356.581,838.122,1356.607,838.459Z" transform="translate(-1297.249 -834.929)"/></g></g><g transform="translate(646.68 240.209)"><path class="ad" d="M1140.671,435.78h-51.562a9.939,9.939,0,0,0-9.91,9.91v15.584a8.568,8.568,0,0,0,.307,2.266,1.157,1.157,0,0,1-.233,1.027c-2.027,2.5-4,4.933-5.387,6.652A1.169,1.169,0,0,0,1075,473.1l17.1-3.069a1.171,1.171,0,0,1,.206-.018h48.361a9.939,9.939,0,0,0,9.91-9.91V445.69A9.939,9.939,0,0,0,1140.671,435.78Z" transform="translate(-1073.622 -435.78)"/><path class="ae" d="M1278.958,556.742c-1.37-1.738-3.553-4.507-5.534-7.008v-8.776a6.39,6.39,0,0,0-6.371-6.371h-34.512a6.39,6.39,0,0,0-6.371,6.371v9.026a6.39,6.39,0,0,0,6.371,6.372h34.512a6.323,6.323,0,0,0,1.148-.11l9.947,1.832A.835.835,0,0,0,1278.958,556.742Z" transform="translate(-1157.572 -490.155)"/><path class="af" d="M1109.481,595.531c.794-.715,2.06-1.853,3.208-2.882V589.04c0-1.441,1.663-2.62,3.695-2.62H1136.4c2.032,0,3.694,1.179,3.694,2.62v3.712c0,1.441-1.662,2.62-3.694,2.62h-20.011a5.124,5.124,0,0,1-.666-.045l-5.768.754C1109.511,596.138,1109.2,595.781,1109.481,595.531Z" transform="translate(-1093.298 -518.68)"/></g><g transform="translate(767.209 116.22)"><g transform="translate(0 0)"><path class="ag" d="M1360.57,248.27c-.026,3.924-4.259,7.067-9.495,7.047-5.211-.035-9.429-3.217-9.421-7.141.037-3.91,4.284-7.062,9.5-7.037S1360.584,244.362,1360.57,248.27Z" transform="translate(-1341.654 -204.676)"/><g transform="translate(16.014)"><path class="ah" d="M1379.6,206.23l-2.328-1.037,20.282-45.14,2.314,1.04Z" transform="translate(-1377.267 -160.053)"/></g></g><g transform="translate(7.133 49.835)"><g transform="translate(0 1.364)"><path class="ai" d="M1372.985,344.661c-.226,3.215-3.873,5.551-8.147,5.232-4.257-.309-7.544-3.148-7.309-6.349s3.891-5.542,8.154-5.235S1373.222,341.481,1372.985,344.661Z" transform="translate(-1357.517 -309.334)"/><g transform="translate(12.262)"><path class="aj" d="M1387.376,311.087l-2.59-1.379,19.085-35.8,2.6,1.383Z" transform="translate(-1384.785 -273.909)"/></g></g><g transform="translate(22.72 27.15)"><path class="ak" d="M1423.512,402.938c-.229,3.2-3.878,5.538-8.139,5.237-4.28-.317-7.563-3.164-7.317-6.365.229-3.21,3.878-5.55,8.161-5.228C1420.472,396.9,1423.743,399.736,1423.512,402.938Z" transform="translate(-1408.043 -367.188)"/><g transform="translate(12.441)"><path class="al" d="M1438.321,368.429l-2.612-1.39,19.1-35.786,2.593,1.386Z" transform="translate(-1435.709 -331.253)"/></g></g><path class="am" d="M1446.639,302.752,1419.6,278.408l4.118-7.532,26.918,24.915Z" transform="translate(-1391.685 -270.876)"/></g></g><g transform="translate(371.251 134.292)"><g transform="translate(0 0.899)"><rect class="an" width="57.109" height="53.962" transform="translate(68.352)"/><rect class="ao" width="37.773" height="36.424" transform="translate(19.786 46.317)"/><rect class="ap" width="57.559" height="55.76" transform="translate(0 110.172)"/></g><g class="aq"><g transform="translate(68.352)"><g class="ar"><g transform="translate(2.923 11.75)"><path class="as" d="M685.525,288.6q-.074.608-.159,1.266c.071-.043.146-.081.219-.122q-.01-.553.033-1.112Z" transform="translate(-655.802 -260.619)"/><path class="at" d="M679.588,271.152a3.314,3.314,0,0,1-.369.129c.013.046.026.093.038.14l.049,0C679.395,271.33,679.492,271.241,679.588,271.152Z" transform="translate(-652.419 -251.015)"/><path class="au" d="M707.83,264.805a3.816,3.816,0,0,1-1.638-6.062l0-.009c-.943-2.3-2.013-8.994-4.5-8.994-1.488,0-2.165,2.613-2.854,5.077a3.594,3.594,0,1,1,3.821,6.088,3.863,3.863,0,0,1,.381,1.651c0,2.187-1.891,4.053-4.561,4.809a9.25,9.25,0,0,1,1.771.408,3.572,3.572,0,0,1,4.092,4.1,3.721,3.721,0,0,1,.047.573c0,2.117-1.523,7.144-3.928,9.607a5.771,5.771,0,0,0,2.579,1.411c1.087,0,3.205-1.379,4.639-4.4a54.613,54.613,0,0,1-2.391-10.662A3.821,3.821,0,0,1,707.83,264.805Z" transform="translate(-663.019 -239.232)"/><path class="av" d="M685.852,289.788a8.239,8.239,0,0,1,1.758-.719,9.245,9.245,0,0,1-1.725-.392Q685.842,289.234,685.852,289.788Z" transform="translate(-656.068 -260.659)"/><path class="aw" d="M660.649,286.734c-1.863,0-2.7-18.148-2.7-20.011a3.373,3.373,0,0,1,3.373-3.373c.028,0,.054,0,.082,0-.013-.048-.026-.094-.038-.14a3.37,3.37,0,0,1-3.276-5.668,6.919,6.919,0,0,0-2.969-1.053,7.692,7.692,0,0,1-2.885.223,8.1,8.1,0,0,0-1.837.74c-1.006.56-2.308,2.612-3.62,5.346a10.326,10.326,0,0,1,1.264,2.537c.017-.025.032-.052.049-.076a1.849,1.849,0,0,1-.035-.339,2.65,2.65,0,0,1,2.217-2.321,2.492,2.492,0,0,1-1.768-2.176c0-1.366,1.51-2.473,3.373-2.473s3.373,1.108,3.373,2.473a2.651,2.651,0,0,1-2.217,2.321,3.67,3.67,0,0,1,.5.246,5.394,5.394,0,1,1-4.5,9.392c.048,1.117.1,2.492.121,3.948,1.065-1.509,2.441-2.641,3.843-2.641,2.98,0,4.946,5.114,4.946,8.094a5.393,5.393,0,0,1-9.632,3.336,2.8,2.8,0,0,1-.946,1.4c5.569,1.42,13.2,1.95,15.525.657.8-.444,1.193-1.893,1.308-3.91a20.405,20.405,0,0,1-1.407-2.637C662.129,284.048,661.365,286.734,660.649,286.734Z" transform="translate(-634.568 -242.948)"/><path class="ax" d="M638.373,317.6c-.125.315-.257.617-.395.9a13.648,13.648,0,0,0,2.009.887A13.641,13.641,0,0,1,638.373,317.6Z" transform="translate(-629.724 -276.575)"/><path class="ay" d="M644.324,322.548a1.192,1.192,0,0,0,.664-.208c-.914-.233-1.771-.49-2.542-.767A3.112,3.112,0,0,0,644.324,322.548Z" transform="translate(-632.182 -278.763)"/><path class="az" d="M630.286,288.4c.309-.983.643-1.979,1-2.967a5.693,5.693,0,0,1-7.608.063,3.1,3.1,0,0,0-.051.527,7.7,7.7,0,0,0,.526,2.094,5.711,5.711,0,0,1,2.847-.745A5.641,5.641,0,0,1,630.286,288.4Z" transform="translate(-621.823 -258.872)"/><path class="ba" d="M638.741,271.716c.473-1.157.959-2.262,1.444-3.274a3.473,3.473,0,0,0-2.769-1.7,4.616,4.616,0,0,0-2.619,1.027A4.754,4.754,0,0,1,638.741,271.716Z" transform="translate(-627.973 -248.588)"/><path class="bb" d="M643.73,292.844a5.367,5.367,0,0,1-1.16-3.336,10.536,10.536,0,0,1,2-5.453c-.019-1.456-.072-2.831-.12-3.948a5.384,5.384,0,0,1-1-7.047,10.327,10.327,0,0,0-1.264-2.537c-.485,1.012-.971,2.117-1.444,3.274a3.965,3.965,0,0,1,.024.421,4.169,4.169,0,0,1-1.335,3.008c-.352.988-.686,1.984-1,2.967a4.288,4.288,0,0,1,1.88,3.468,27.293,27.293,0,0,1-1.693,8.03,13.646,13.646,0,0,0,1.614,1.788c.77.277,1.628.534,2.542.767A2.794,2.794,0,0,0,643.73,292.844Z" transform="translate(-629.978 -250.669)"/><path class="bc" d="M643.73,292.844a5.367,5.367,0,0,1-1.16-3.336,10.536,10.536,0,0,1,2-5.453c-.019-1.456-.072-2.831-.12-3.948a5.384,5.384,0,0,1-1-7.047,10.327,10.327,0,0,0-1.264-2.537c-.485,1.012-.971,2.117-1.444,3.274a3.965,3.965,0,0,1,.024.421,4.169,4.169,0,0,1-1.335,3.008c-.352.988-.686,1.984-1,2.967a4.288,4.288,0,0,1,1.88,3.468,27.293,27.293,0,0,1-1.693,8.03,13.646,13.646,0,0,0,1.614,1.788c.77.277,1.628.534,2.542.767A2.794,2.794,0,0,0,643.73,292.844Z" transform="translate(-629.978 -250.669)"/><path class="bd" d="M721.651,283.241a3.746,3.746,0,0,1-2.15.122c1.608,6.507.861,11.135-.563,14.138.824,2.481,1.743,4.4,2.556,4.4,2.111,0,2.7-12.953,2.7-15.064A3.821,3.821,0,0,0,721.651,283.241Z" transform="translate(-674.278 -257.668)"/><path class="au" d="M716.576,283.363a3.731,3.731,0,0,1-.413-.122,3.821,3.821,0,0,0-2.541,3.6,54.62,54.62,0,0,0,2.39,10.662C717.437,294.5,718.184,289.87,716.576,283.363Z" transform="translate(-671.352 -257.668)"/><path class="be" d="M716.576,283.363a3.731,3.731,0,0,1-.413-.122,3.821,3.821,0,0,0-2.541,3.6,54.62,54.62,0,0,0,2.39,10.662C717.437,294.5,718.184,289.87,716.576,283.363Z" transform="translate(-671.352 -257.668)"/><path class="au" d="M706.51,293.89a3.571,3.571,0,0,0-4.092-4.1C704.632,290.535,706.23,292.068,706.51,293.89Z" transform="translate(-665.186 -261.245)"/><path class="bf" d="M706.51,293.89a3.571,3.571,0,0,0-4.092-4.1C704.632,290.535,706.23,292.068,706.51,293.89Z" transform="translate(-665.186 -261.245)"/><path class="bg" d="M685.085,291.148c-.073.04-.148.079-.219.122-.121.938-.259,1.94-.409,2.964a46.413,46.413,0,0,1,.483,8.111c1.376,2.161,3.149,3.91,4.988,3.91a4.025,4.025,0,0,0,2.817-1.411C689.65,302.4,685.191,297.074,685.085,291.148Z" transform="translate(-655.301 -262.019)"/><path class="au" d="M697.395,293.446a3.6,3.6,0,1,1-4.092-4.1,9.247,9.247,0,0,0-1.771-.408,9.679,9.679,0,0,1-2.634.362,10.012,10.012,0,0,1-1.285-.087,8.235,8.235,0,0,0-1.758.719c.107,5.926,4.566,11.254,7.659,13.7,2.405-2.463,3.928-7.49,3.928-9.607A3.736,3.736,0,0,0,697.395,293.446Z" transform="translate(-656.071 -260.801)"/><path class="bh" d="M697.395,293.446a3.6,3.6,0,1,1-4.092-4.1,9.247,9.247,0,0,0-1.771-.408,9.679,9.679,0,0,1-2.634.362,10.012,10.012,0,0,1-1.285-.087,8.235,8.235,0,0,0-1.758.719c.107,5.926,4.566,11.254,7.659,13.7,2.405-2.463,3.928-7.49,3.928-9.607A3.736,3.736,0,0,0,697.395,293.446Z" transform="translate(-656.071 -260.801)"/><path class="bi" d="M683.326,298.01c-.271,1.841-.586,3.75-.924,5.474a20.421,20.421,0,0,0,1.407,2.637A46.406,46.406,0,0,0,683.326,298.01Z" transform="translate(-654.171 -265.796)"/><path class="bj" d="M683.326,298.01c-.271,1.841-.586,3.75-.924,5.474a20.421,20.421,0,0,0,1.407,2.637A46.406,46.406,0,0,0,683.326,298.01Z" transform="translate(-654.171 -265.796)"/><path class="au" d="M695.622,293.394a3.6,3.6,0,0,0,7.148.551c-.28-1.822-1.878-3.355-4.092-4.1A3.6,3.6,0,0,0,695.622,293.394Z" transform="translate(-661.446 -261.301)"/><path class="bk" d="M695.622,293.394a3.6,3.6,0,0,0,7.148.551c-.28-1.822-1.878-3.355-4.092-4.1A3.6,3.6,0,0,0,695.622,293.394Z" transform="translate(-661.446 -261.301)"/><path class="bl" d="M695.622,293.394a3.6,3.6,0,0,0,7.148.551c-.28-1.822-1.878-3.355-4.092-4.1A3.6,3.6,0,0,0,695.622,293.394Z" transform="translate(-661.446 -261.301)"/><path class="bm" d="M650.2,306.171a5.393,5.393,0,0,0,9.632-3.336c0-2.98-1.966-8.094-4.947-8.094-1.4,0-2.779,1.132-3.843,2.641C651.085,300.585,650.952,304.157,650.2,306.171Z" transform="translate(-636.451 -263.997)"/><path class="bn" d="M650.2,306.171a5.393,5.393,0,0,0,9.632-3.336c0-2.98-1.966-8.094-4.947-8.094-1.4,0-2.779,1.132-3.843,2.641C651.085,300.585,650.952,304.157,650.2,306.171Z" transform="translate(-636.451 -263.997)"/><path class="bo" d="M648.782,309.4c.75-2.014.883-5.587.842-8.789a10.536,10.536,0,0,0-2,5.453A5.367,5.367,0,0,0,648.782,309.4Z" transform="translate(-635.031 -267.229)"/><path class="bp" d="M648.782,309.4c.75-2.014.883-5.587.842-8.789a10.536,10.536,0,0,0-2,5.453A5.367,5.367,0,0,0,648.782,309.4Z" transform="translate(-635.031 -267.229)"/><path class="bq" d="M648.782,309.4c.75-2.014.883-5.587.842-8.789a10.536,10.536,0,0,0-2,5.453A5.367,5.367,0,0,0,648.782,309.4Z" transform="translate(-635.031 -267.229)"/><path class="br" d="M626.367,302.794a5.312,5.312,0,0,1-.221-2.762,52.667,52.667,0,0,1-4.2-8.634,4.376,4.376,0,0,0-2.324,3.752c0,2.484,2.99,11.242,5.846,11.242.94,0,1.747-.951,2.409-2.312A3.818,3.818,0,0,1,626.367,302.794Z" transform="translate(-619.622 -262.156)"/><path class="bs" d="M634.055,310.6a5.312,5.312,0,0,0,.221,2.762,3.818,3.818,0,0,0,1.509,1.286c.138-.284.27-.585.395-.9A33.412,33.412,0,0,1,634.055,310.6Z" transform="translate(-627.53 -272.723)"/><path class="bt" d="M634.055,310.6a5.312,5.312,0,0,0,.221,2.762,3.818,3.818,0,0,0,1.509,1.286c.138-.284.27-.585.395-.9A33.412,33.412,0,0,1,634.055,310.6Z" transform="translate(-627.53 -272.723)"/><path class="bu" d="M630.929,290.769a5.641,5.641,0,0,0-3.291-1.028,5.711,5.711,0,0,0-2.847.745,52.662,52.662,0,0,0,4.2,8.634A45.283,45.283,0,0,1,630.929,290.769Z" transform="translate(-622.467 -261.245)"/><path class="bv" d="M630.929,290.769a5.641,5.641,0,0,0-3.291-1.028,5.711,5.711,0,0,0-2.847.745,52.662,52.662,0,0,0,4.2,8.634A45.283,45.283,0,0,1,630.929,290.769Z" transform="translate(-622.467 -261.245)"/><path class="bw" d="M636.256,303.526a27.3,27.3,0,0,0,1.693-8.03,4.288,4.288,0,0,0-1.88-3.468,45.273,45.273,0,0,0-1.938,8.351A33.434,33.434,0,0,0,636.256,303.526Z" transform="translate(-627.607 -262.504)"/><path class="bx" d="M636.256,303.526a27.3,27.3,0,0,0,1.693-8.03,4.288,4.288,0,0,0-1.88-3.468,45.273,45.273,0,0,0-1.938,8.351A33.434,33.434,0,0,0,636.256,303.526Z" transform="translate(-627.607 -262.504)"/><path class="by" d="M636.256,303.526a27.3,27.3,0,0,0,1.693-8.03,4.288,4.288,0,0,0-1.88-3.468,45.273,45.273,0,0,0-1.938,8.351A33.434,33.434,0,0,0,636.256,303.526Z" transform="translate(-627.607 -262.504)"/><path class="bz" d="M682.757,287.283c.145.79.283,1.592.411,2.4a6.641,6.641,0,0,1,.762-.537q.085-.657.159-1.266A8.05,8.05,0,0,1,682.757,287.283Z" transform="translate(-654.366 -259.892)"/><path class="ca" d="M679.353,271.753l-.048,0,.011.041Z" transform="translate(-652.466 -251.345)"/><path class="cb" d="M677.04,281.127c-.128-.805-.266-1.608-.411-2.4a4.834,4.834,0,0,1-2.759-4.066,4.205,4.205,0,0,1,1.217-2.878l-.011-.041c-.027,0-.054,0-.082,0a3.373,3.373,0,0,0-3.373,3.373c0,1.863.835,20.011,2.7,20.011.716,0,1.48-2.686,2.149-6.1a12.8,12.8,0,0,1-1.25-4.471A4.453,4.453,0,0,1,677.04,281.127Z" transform="translate(-648.239 -251.339)"/><path class="cc" d="M677.04,281.127c-.128-.805-.266-1.608-.411-2.4a4.834,4.834,0,0,1-2.759-4.066,4.205,4.205,0,0,1,1.217-2.878l-.011-.041c-.027,0-.054,0-.082,0a3.373,3.373,0,0,0-3.373,3.373c0,1.863.835,20.011,2.7,20.011.716,0,1.48-2.686,2.149-6.1a12.8,12.8,0,0,1-1.25-4.471A4.453,4.453,0,0,1,677.04,281.127Z" transform="translate(-648.239 -251.339)"/><path class="cd" d="M684.024,294.383c.151-1.023.288-2.026.409-2.964a6.638,6.638,0,0,0-.762.537C683.8,292.766,683.918,293.578,684.024,294.383Z" transform="translate(-654.869 -262.168)"/><path class="ce" d="M684.024,294.383c.151-1.023.288-2.026.409-2.964a6.638,6.638,0,0,0-.762.537C683.8,292.766,683.918,293.578,684.024,294.383Z" transform="translate(-654.869 -262.168)"/><path class="cf" d="M679.622,296.044a12.806,12.806,0,0,0,1.25,4.471c.338-1.724.653-3.633.924-5.474-.106-.8-.224-1.617-.353-2.426A4.453,4.453,0,0,0,679.622,296.044Z" transform="translate(-652.641 -262.826)"/><path class="cg" d="M679.622,296.044a12.806,12.806,0,0,0,1.25,4.471c.338-1.724.653-3.633.924-5.474-.106-.8-.224-1.617-.353-2.426A4.453,4.453,0,0,0,679.622,296.044Z" transform="translate(-652.641 -262.826)"/><path class="ch" d="M679.622,296.044a12.806,12.806,0,0,0,1.25,4.471c.338-1.724.653-3.633.924-5.474-.106-.8-.224-1.617-.353-2.426A4.453,4.453,0,0,0,679.622,296.044Z" transform="translate(-652.641 -262.826)"/><path class="ci" d="M654.119,270.377a5.429,5.429,0,0,1,.982.094,3.667,3.667,0,0,0-.5-.246,4.46,4.46,0,0,1-1.155.152,4.356,4.356,0,0,1-1.6-.3,2.65,2.65,0,0,0-2.217,2.321,1.843,1.843,0,0,0,.035.339A5.39,5.39,0,0,1,654.119,270.377Z" transform="translate(-636.132 -250.425)"/><path class="cj" d="M654.119,270.377a5.429,5.429,0,0,1,.982.094,3.667,3.667,0,0,0-.5-.246,4.46,4.46,0,0,1-1.155.152,4.356,4.356,0,0,1-1.6-.3,2.65,2.65,0,0,0-2.217,2.321,1.843,1.843,0,0,0,.035.339A5.39,5.39,0,0,1,654.119,270.377Z" transform="translate(-636.132 -250.425)"/><circle class="au" cx="4.497" cy="4.497" r="4.497" transform="translate(34.176 1.515)"/><path class="au" d="M654.671,239.917a8.1,8.1,0,0,0,1.837-.74c3.581-1.993,5.015-6.247,3.2-9.5s-6.182-4.279-9.763-2.287-5.015,6.246-3.2,9.5c.009.015.019.029.028.044a4.508,4.508,0,0,1,1.417,1.691,6.809,6.809,0,0,0,3.6,1.514A7.692,7.692,0,0,0,654.671,239.917Z" transform="translate(-634.117 -226.371)"/><path class="au" d="M634.479,248.144a7.643,7.643,0,0,0-4.562-1.4c-3.477,0-6.3,2.013-6.3,4.5s2.819,4.5,6.3,4.5,6.3-2.013,6.3-4.5a3.336,3.336,0,0,0-.317-1.4A4.509,4.509,0,0,0,634.479,248.144Z" transform="translate(-621.823 -237.581)"/><path class="au" d="M716.163,274.161a3.732,3.732,0,0,0,.413.122,3.83,3.83,0,1,0-.413-.122Z" transform="translate(-671.352 -248.588)"/><path class="au" d="M701.109,266.409a3.594,3.594,0,1,0-5.447-3.424A6.913,6.913,0,0,1,701.109,266.409Z" transform="translate(-661.468 -244.735)"/><path class="au" d="M678.159,268.725c-.1.089-.193.178-.282.272l-.037.039a4.205,4.205,0,0,0-1.217,2.878,4.834,4.834,0,0,0,2.759,4.066,8.055,8.055,0,0,0,1.332.594l.094.032a9.24,9.24,0,0,0,1.725.392,10.013,10.013,0,0,0,1.285.087,9.677,9.677,0,0,0,2.634-.362c2.669-.756,4.561-2.622,4.561-4.809a3.863,3.863,0,0,0-.381-1.651,6.914,6.914,0,0,0-5.447-3.424,9.915,9.915,0,0,0-1.367-.1,9.068,9.068,0,0,0-4.452,1.114A3.368,3.368,0,0,1,678.159,268.725Z" transform="translate(-650.99 -248.588)"/><path class="au" d="M649.5,280.227a5.393,5.393,0,1,0,4.5-9.392,5.365,5.365,0,0,0-5.443,2.269c-.017.025-.032.051-.049.076a5.384,5.384,0,0,0,1,7.047Z" transform="translate(-635.031 -250.789)"/><path class="au" d="M629.63,276.246a4.169,4.169,0,0,0,1.335-3.008,3.948,3.948,0,0,0-.024-.421A4.754,4.754,0,0,0,627,268.868a5.921,5.921,0,0,0-1.2-.127c-2.856,0-5.171,2.013-5.171,4.5a4.184,4.184,0,0,0,1.4,3.07,5.693,5.693,0,0,0,7.608-.062Z" transform="translate(-620.172 -249.688)"/><path class="au" d="M669.622,260.114a3.369,3.369,0,0,0,4.316,3.237,3.327,3.327,0,0,0,.369-.129,3.371,3.371,0,1,0-4.685-3.108Z" transform="translate(-647.138 -243.084)"/><path class="au" d="M655.15,264.536a2.651,2.651,0,0,0,2.217-2.321c0-1.366-1.51-2.473-3.373-2.473s-3.373,1.108-3.373,2.473a2.492,2.492,0,0,0,1.768,2.176,4.355,4.355,0,0,0,1.6.3A4.461,4.461,0,0,0,655.15,264.536Z" transform="translate(-636.682 -244.735)"/></g></g></g><g transform="translate(19.786 46.767)"><g class="ck"><g transform="translate(6.071 15.514)"><path class="au" d="M549.248,363.96a5.288,5.288,0,0,1-2.909.253,5.834,5.834,0,0,0-3.717,5.494,5.625,5.625,0,1,0,6.626-5.747Z" transform="translate(-531.83 -352.619)"/><path class="au" d="M521.612,373.715a4.044,4.044,0,1,0,3.664-.232,4.031,4.031,0,0,1-3.664.232Z" transform="translate(-519.172 -357.86)"/><path class="au" d="M548.147,350.082a5.834,5.834,0,0,0,3.717-5.495,5.625,5.625,0,1,0-6.626,5.748,5.288,5.288,0,0,0,2.909-.253Z" transform="translate(-530.729 -338.741)"/><path class="au" d="M521.062,364.5a4.047,4.047,0,1,0-2.44-3.714A4.031,4.031,0,0,0,521.062,364.5Z" transform="translate(-518.622 -348.647)"/><ellipse class="cl" cx="5.846" cy="0.899" rx="5.846" ry="0.899" transform="translate(5.533 15.485) rotate(-23.887)"/></g></g></g><g transform="translate(0 110.172)"><g class="cm"><g transform="translate(5.621 9.218)"><path class="au" d="M534.011,521.5c-4.859,0-8.487-2.788-10.783-6.877-1.245-2.216-1.3-3.968-1.086-6.557.048-.576.7-7.276-.025-7.212l-2.047.18c-.6-1.595.512-3.262,1.406-4.712,1.4-2.274,5.183-9.043,4.225-11.7-.424-1.174-2.73-2.472-3.441-3.781a9.818,9.818,0,0,1-1.2-4.684c0-5.755,5.044-10.42,11.265-10.42s11.264,4.665,11.264,10.42a9.824,9.824,0,0,1-1.074,4.447c-.667,1.312-2.815,2.586-3.234,3.74-.812,2.234,3.744,8.5,4.967,10.845a7.492,7.492,0,0,1,.943,2.511c.206,1.733-.8,3.38-.941,5.12-.357,4.534,2.227,8.421-.124,12.854A11.456,11.456,0,0,1,534.011,521.5Z" transform="translate(-499.09 -465.741)"/><path class="au" d="M477.881,523.72a11.161,11.161,0,0,0,13.449,0,10.579,10.579,0,0,1,4.258,8.448,10.987,10.987,0,0,1-21.966,0c0-5.037,4.276-8.361,5.261-7.772a11.167,11.167,0,0,0,12.447-.676,10.58,10.58,0,0,0,4.258-8.449,10.987,10.987,0,0,0-21.966,0,10.572,10.572,0,0,0,4.133,8.351" transform="translate(-473.622 -487.109)"/></g><path class="au" d="M471.28,551.934a7.106,7.106,0,0,0-1.7,5.041,1.3,1.3,0,0,0,1.2,1.327.459.459,0,0,0,.434-.034.433.433,0,0,0,.108-.233,16.345,16.345,0,0,0,.107-1.894,7.629,7.629,0,0,1,1.042-2.763,10.3,10.3,0,0,1,1.435-2.2c.367-.4.792-.73,1.178-1.106.193-.188.945-.829.29-.846a3.638,3.638,0,0,0-1.43.585,9.465,9.465,0,0,0-1.361.871A8.377,8.377,0,0,0,471.28,551.934Z" transform="translate(-465.766 -502.466)"/><path class="au" d="M514.614,549.1a10.527,10.527,0,0,1,2.886,3.875,9.506,9.506,0,0,1,.691,1.834,2.752,2.752,0,0,1,0,1.6,2.261,2.261,0,0,1-.46.727,2.536,2.536,0,0,1-1.551.84,1.832,1.832,0,0,1-1.614-.615,2.924,2.924,0,0,1-.4-2.133c.075-.82.21-1.636.225-2.46a4.841,4.841,0,0,0-.49-2.395,7.5,7.5,0,0,0-1.073-1.38c-.187-.21-.983-.967-.689-1.3C512.488,547.294,514.348,548.895,514.614,549.1Z" transform="translate(-489.158 -501.587)"/></g></g></g></g><g transform="translate(619.261 434.004)"><path class="cn" d="M1136.829,924.059l-11.493-20.652h-92.3l-19.475,20.652,57.761-5.262a3.2,3.2,0,0,0,3.872,3.231c3.935-.4,3.872-3.231,3.872-3.231Z" transform="translate(-1013.152 -886.919)"/><path class="co" d="M1020.516,916.977l4.057-4.3s37.248-10.408,54.449,5.326C1079.022,918,1056.219,908.781,1020.516,916.977Z" transform="translate(-1016.977 -890.163)"/><path class="co" d="M1014,930.813l2.928-3.415s29.277-6.018,47.152-1.736-46.332,5.614-46.332,5.614Z" transform="translate(-1013.394 -898.32)"/><path class="co" d="M1209.128,916.977l-4.057-4.3s-37.248-10.408-54.449,5.326C1150.622,918,1173.426,908.781,1209.128,916.977Z" transform="translate(-1088.577 -890.163)"/><path class="co" d="M1222.107,930.813l-2.929-3.415s-29.276-6.018-47.151-1.736,46.333,5.614,46.333,5.614Z" transform="translate(-1098.627 -898.32)"/><g transform="translate(0 18.556)"><path class="co" d="M1212.057,926.787c-13.474-3.39-39.967-5.679-39.967-5.679,16.043-.485,32.717,2.8,39.468,4.323a22.888,22.888,0,0,0-2.431-4.323s-39.042-10.326-58.506,1.026l3.657,3.087,58.388,4.715A12.89,12.89,0,0,0,1212.057,926.787Z" transform="translate(-1088.577 -912.85)"/><path class="co" d="M1207.477,913.838v-2.124c-45.649-10.854-56.855,5.576-56.855,5.576C1169.5,901.955,1207.477,913.838,1207.477,913.838Z" transform="translate(-1088.577 -908.005)"/><path class="co" d="M1016.186,921.108a22.912,22.912,0,0,0-2.43,4.323c6.751-1.519,23.425-4.808,39.468-4.323,0,0-26.492,2.289-39.967,5.679a12.887,12.887,0,0,0-.61,3.149l58.388-4.715,3.657-3.087C1055.229,910.782,1016.186,921.108,1016.186,921.108Z" transform="translate(-1012.647 -912.85)"/><path class="co" d="M1024.188,911.713v2.124s37.982-11.883,56.855,3.452C1081.043,917.289,1069.837,900.859,1024.188,911.713Z" transform="translate(-1018.998 -908.005)"/></g><path class="cp" d="M1122.682,871.48s-23.595-10.627-41.639-.05c-18.044-10.576-41.639.05-41.639.05l-15.216,17.525c45.649-10.854,56.855,5.576,56.855,5.576s11.206-16.43,56.855-5.576Z" transform="translate(-1018.998 -866.742)"/><path class="cq" d="M1143.812,928.651l-5.565,4.73,1.574,1.693,3.991-3.709,3.657,3.162,1.683-1.394Z" transform="translate(-1081.767 -900.812)"/><path class="cr" d="M1072.334,911.581l-1.811-.38c-.578-.116-1.271-.292-2.081-.428l-2.725-.415c-.99-.189-2.092-.233-3.244-.348l-1.775-.157c-.606-.046-1.23-.041-1.862-.066l-1.926-.053c-.651-.012-1.309-.057-1.974-.014l-4.025.143c-.676,0-1.347.072-2.016.131l-2,.175-1.967.172c-.324.03-.647.053-.966.088l-.946.133-3.611.492c-1.148.158-2.24.279-3.229.481l-4.811.848-1.828.311,1.809-.387,4.781-.992c.987-.222,2.076-.365,3.223-.547l3.612-.548.948-.14c.32-.039.644-.063.969-.1l1.973-.186,2.005-.189c.672-.063,1.346-.138,2.025-.144l4.049-.118c.667-.038,1.33.012,1.985.028l1.937.067c.635.031,1.263.023,1.871.086l1.782.193c1.156.139,2.258.206,3.253.416l2.721.492c.8.162,1.489.362,2.062.5Z" transform="translate(-1021.943 -890.181)"/><path class="cr" d="M1161.539,931.375s.2-.049.566-.127.915-.188,1.616-.292,1.555-.223,2.535-.343c.985-.095,2.094-.227,3.311-.288.609-.034,1.242-.087,1.9-.11l2.034-.072c.7-.034,1.416-.024,2.149-.034s1.483-.016,2.245,0l2.32.058,1.182.031,1.193.062c1.6.082,3.222.157,4.839.3l2.424.205c.805.071,1.6.173,2.4.257,1.587.179,3.151.336,4.654.562,1.5.209,2.961.4,4.335.625l3.864.657c.6.1,1.172.194,1.715.3l1.537.31,2.5.5,2.174.446-2.193-.371-2.514-.434-1.546-.267-1.721-.264-3.871-.59c-1.375-.2-2.834-.362-4.336-.569s-3.063-.365-4.647-.534c-.792-.08-1.59-.178-2.394-.243l-2.418-.192c-1.612-.154-3.229-.238-4.822-.329l-1.189-.068-1.178-.038-2.312-.071c-.759-.024-1.506-.008-2.238-.021s-1.447-.024-2.142,0l-2.028.037c-.656.013-1.287.054-1.894.079s-1.189.056-1.741.1-1.077.069-1.568.112c-.982.092-1.839.175-2.54.272s-1.252.175-1.626.237S1161.539,931.375,1161.539,931.375Z" transform="translate(-1094.585 -901.61)"/><path class="cn" d="M1080.17,937.715l-1.1-.084-.331.93c-.07.2-.768,1.173-3.542,1.173s-3.472-.975-3.542-1.173l-.33-.93-1.1.084-56.66,5.178,1.5,2.265,54.476-4.978c.821,1.242,2.594,1.944,5.659,1.944s4.838-.7,5.66-1.944l54.476,4.978,1.5-2.265Z" transform="translate(-1013.152 -905.753)"/></g><path class="cs" d="M1109.526,460.178c2.619-.655,52.384,0,52.384,0" transform="translate(-446.7 -208.838)"/><path class="cs" d="M1236.21,556.284c2.62-.655,36.669,0,36.669,0" transform="translate(-516.417 -261.727)"/><path class="cs" d="M1109.526,482.02c2.619-.655,52.384,0,52.384,0" transform="translate(-446.7 -220.858)"/><path class="j" d="M935.858,434.741s-11.242,2.7-20.236.9C915.622,435.64,926.864,443.735,935.858,434.741Z" transform="translate(-339.991 -194.999)"/><path class="ct" d="M1353.413,790.345a6.452,6.452,0,0,1-2.537-5.057,13.679,13.679,0,0,1,1.224-5.688,31.947,31.947,0,0,1,2.168-4.348,17.143,17.143,0,0,0,1.576-2.947c1.051-2.943-.048-6.219-1.56-8.955" transform="translate(-579.515 -375.84)"/><path class="ct" d="M1340.555,807.577a5.6,5.6,0,0,1-3.845-6.682,17.2,17.2,0,0,1,.913-2.192,9.2,9.2,0,0,0,.845-4.978,5.368,5.368,0,0,0-2.761-4.069" transform="translate(-571.172 -390.316)"/><path class="ct" d="M1368.169,788.632a8.591,8.591,0,0,1-3.992-7.941c.5-5.414,5.907-9.057,7.68-14.2a11.383,11.383,0,0,0-1.951-10.753" transform="translate(-586.822 -371.652)"/></g></svg>