<svg xmlns="http://www.w3.org/2000/svg" width="488.82" height="496.059" viewBox="0 0 488.82 496.059">
  <g id="Group_17208" data-name="Group 17208" transform="translate(-303.629 -61.842)">
    <g id="Group_57" data-name="Group 57" transform="translate(0 -659.868)">
      <path id="Path_322" data-name="Path 322" d="M537.133,968.835a8.394,8.394,0,0,1-6.464-1.272c-3.155-2.119-6.056-6.2-7.675-11.323-2.715-8.59,2.541-23.961,2.541-23.961s13.786,9.379,15.851,18.147C544.262,962.634,538.071,968.63,537.133,968.835Z" fill="#0099b9"/>
      <path id="Path_323" data-name="Path 323" d="M518.559,990.873A6.266,6.266,0,0,1,515,994.26a16.029,16.029,0,0,1-10.2-.211c-6.4-2.051-13.49-11.879-13.49-11.879s11.654-4.347,17.882-1.824C517.858,983.859,518.838,990.213,518.559,990.873Z" fill="#0099b9"/>
      <path id="Path_324" data-name="Path 324" d="M551.57,971.076a5.234,5.234,0,0,0,4.079.463,13.4,13.4,0,0,0,6.693-5.278c3.232-4.59,3.008-14.71,3.008-14.71s-8.8,2.52-12.836,7.789C546.75,966.861,551.051,970.776,551.57,971.076Z" fill="#0099b9"/>
      <path id="Path_325" data-name="Path 325" d="M585.177,988.479a5.837,5.837,0,0,0,4.269,1.657,14.939,14.939,0,0,0,8.718-3.794c4.788-4.034,7.419-15.014,7.419-15.014s-11.582.38-16.057,4.76C583.3,982.186,584.7,988.009,585.177,988.479Z" fill="#0099b9"/>
      <path id="Path_326" data-name="Path 326" d="M546.8,997.082s-29.524-9.112-35.721-9.112c0,0,34.263,17.5,35.356,19.318S546.8,997.082,546.8,997.082Z" fill="#0099b9"/>
      <path id="Path_327" data-name="Path 327" d="M542.793,979.222s11.3-13.851,12.758-15.309-9.842,23.328-9.842,25.879S542.793,979.222,542.793,979.222Z" fill="#0099b9"/>
      <path id="Path_328" data-name="Path 328" d="M560.923,1070.7c-.41-11.75-.092-23.929,2.636-34.9,3.216-12.923,10.984-24.418,18.07-35.437q4.3-6.695,8.7-13.333c.658-.994,2.33-4.8,3.5-5.259-11.433,4.461-29.253,34.082-36.5,44.752-5.864-21.728-14.27-56.979-25.8-69.488,3.943,13.956,8.416,28.34,12.388,42.288,3.923,13.783,6.708,21.2,8.343,35.417,2.038,17.718,4,45.638-4.758,62.032h17.873c-3.686-6.271-3.541-9.666-3.769-13.226C561.329,1079.38,561.076,1075.068,560.923,1070.7Z" fill="#0099b9"/>
    </g>
    <ellipse id="Ellipse_279" data-name="Ellipse 279" cx="228.224" cy="227.819" rx="228.224" ry="227.819" transform="translate(319.006 89.763)" fill="none" stroke="#e8e8e8" stroke-width="25"/>
    <path id="Path_12133" data-name="Path 12133" d="M27.921,0A27.921,27.921,0,1,1,0,27.921,27.921,27.921,0,0,1,27.921,0Z" transform="translate(303.629 219.251)" fill="#e8e8e8"/>
    <g id="Group_17111" data-name="Group 17111" transform="translate(313.005 231.932)">
      <path id="Path_11793" data-name="Path 11793" d="M2935.46,857.84c-6.134,0-12.763,1.682-12.763,5.408l.33,2.639c-4.716,3.1-6.893,6.3-5.9,8.9.527,1.418,2.144,3.1,6.826,3.1h.561l.594,4.65c.131,3.1,5.276,4.485,10.355,4.485s10.225-1.385,10.356-4.485l2.375-19.029v-.2C2948.224,859.555,2941.6,857.84,2935.46,857.84Zm0,3.166c5.937,0,9.169,1.55,9.564,2.243-.363.693-3.562,2.276-9.564,2.276s-9.2-1.583-9.564-2.276C2926.292,862.556,2929.525,861.006,2935.46,861.006Zm-15.4,12.664c-.2-.495.495-2.111,3.4-4.254l.659,5.31C2921.478,874.726,2920.224,874.132,2920.059,873.67Zm15.4,10.158c-4.287,0-6.793-1.088-7.223-1.583l-.593-4.683a39.292,39.292,0,0,0,5.937-1.385,3,3,0,0,0,1.847.659,2.968,2.968,0,1,0-2.87-3.661,36,36,0,0,1-5.31,1.253l-.923-7.222a28.664,28.664,0,0,0,18.206,0l-1.88,15.038C2942.254,882.74,2939.748,883.828,2935.46,883.828Z" transform="translate(-2916.89 -857.84)" fill="#fff"/>
    </g>
    <path id="Ellipse_279-2" data-name="Ellipse 279" d="M650.986,319.874A228.28,228.28,0,0,1,868.95,479.947" transform="translate(-103.757 -230.111)" fill="none" stroke="#f19840" stroke-width="25"/>
    <g id="Group_17206" data-name="Group 17206">
      <circle id="Ellipse_281" data-name="Ellipse 281" cx="27.921" cy="27.921" r="27.921" transform="translate(520.522 61.842)" fill="#f19840"/>
      <g id="Group_17107" data-name="Group 17107" transform="translate(529.911 75.882)">
        <path id="Path_11789" data-name="Path 11789" d="M3083.461,401.84c-6.134,0-12.762,1.682-12.762,5.408l.33,2.639c-4.716,3.1-6.893,6.3-5.9,8.9.528,1.418,2.144,3.1,6.826,3.1h.561l.594,4.65c.131,3.1,5.277,4.485,10.355,4.485s10.224-1.385,10.356-4.485l2.375-19.029v-.2C3096.224,403.555,3089.6,401.84,3083.461,401.84Zm0,3.166c5.936,0,9.169,1.55,9.564,2.243-.363.693-3.562,2.276-9.564,2.276s-9.2-1.583-9.564-2.276C3074.293,406.556,3077.525,405.006,3083.461,405.006Zm-15.4,12.664c-.2-.495.5-2.111,3.4-4.254l.66,5.31C3069.478,418.726,3068.225,418.132,3068.059,417.67Zm15.4,10.158c-4.287,0-6.794-1.088-7.222-1.583l-.594-4.683a39.268,39.268,0,0,0,5.936-1.385,3,3,0,0,0,1.847.659,2.968,2.968,0,1,0-2.87-3.661,36.04,36.04,0,0,1-5.31,1.254l-.923-7.223a28.659,28.659,0,0,0,18.2,0l-1.88,15.039C3090.255,426.74,3087.748,427.828,3083.461,427.828Z" transform="translate(-3064.89 -401.84)" fill="#fff"/>
      </g>
    </g>
    <g id="Group_17203" data-name="Group 17203">
      <path id="Path_12135" data-name="Path 12135" d="M27.921,0A27.921,27.921,0,1,1,0,27.921,27.921,27.921,0,0,1,27.921,0Z" transform="translate(386.178 474.992)" fill="#e8e8e8"/>
      <g id="Group_17202" data-name="Group 17202" transform="translate(395.554 487.673)">
        <path id="Path_11793-2" data-name="Path 11793" d="M2935.46,857.84c-6.134,0-12.763,1.682-12.763,5.408l.33,2.639c-4.716,3.1-6.893,6.3-5.9,8.9.527,1.418,2.144,3.1,6.826,3.1h.561l.594,4.65c.131,3.1,5.276,4.485,10.355,4.485s10.225-1.385,10.356-4.485l2.375-19.029v-.2C2948.224,859.555,2941.6,857.84,2935.46,857.84Zm0,3.166c5.937,0,9.169,1.55,9.564,2.243-.363.693-3.562,2.276-9.564,2.276s-9.2-1.583-9.564-2.276C2926.292,862.556,2929.525,861.006,2935.46,861.006Zm-15.4,12.664c-.2-.495.495-2.111,3.4-4.254l.659,5.31C2921.478,874.726,2920.224,874.132,2920.059,873.67Zm15.4,10.158c-4.287,0-6.793-1.088-7.223-1.583l-.593-4.683a39.292,39.292,0,0,0,5.937-1.385,3,3,0,0,0,1.847.659,2.968,2.968,0,1,0-2.87-3.661,36,36,0,0,1-5.31,1.253l-.923-7.222a28.664,28.664,0,0,0,18.206,0l-1.88,15.038C2942.254,882.74,2939.748,883.828,2935.46,883.828Z" transform="translate(-2916.89 -857.84)" fill="#fff"/>
      </g>
    </g>
    <g id="Group_17204" data-name="Group 17204" transform="translate(267.88 -0.809)">
      <path id="Path_12135-2" data-name="Path 12135" d="M27.921,0A27.921,27.921,0,1,1,0,27.921,27.921,27.921,0,0,1,27.921,0Z" transform="translate(386.178 474.992)" fill="#e8e8e8"/>
      <g id="Group_17202-2" data-name="Group 17202" transform="translate(395.554 487.673)">
        <path id="Path_11793-3" data-name="Path 11793" d="M2935.46,857.84c-6.134,0-12.763,1.682-12.763,5.408l.33,2.639c-4.716,3.1-6.893,6.3-5.9,8.9.527,1.418,2.144,3.1,6.826,3.1h.561l.594,4.65c.131,3.1,5.276,4.485,10.355,4.485s10.225-1.385,10.356-4.485l2.375-19.029v-.2C2948.224,859.555,2941.6,857.84,2935.46,857.84Zm0,3.166c5.937,0,9.169,1.55,9.564,2.243-.363.693-3.562,2.276-9.564,2.276s-9.2-1.583-9.564-2.276C2926.292,862.556,2929.525,861.006,2935.46,861.006Zm-15.4,12.664c-.2-.495.495-2.111,3.4-4.254l.659,5.31C2921.478,874.726,2920.224,874.132,2920.059,873.67Zm15.4,10.158c-4.287,0-6.793-1.088-7.223-1.583l-.593-4.683a39.292,39.292,0,0,0,5.937-1.385,3,3,0,0,0,1.847.659,2.968,2.968,0,1,0-2.87-3.661,36,36,0,0,1-5.31,1.253l-.923-7.222a28.664,28.664,0,0,0,18.206,0l-1.88,15.038C2942.254,882.74,2939.748,883.828,2935.46,883.828Z" transform="translate(-2916.89 -857.84)" fill="#fff"/>
      </g>
    </g>
    <g id="Group_17205" data-name="Group 17205" transform="translate(350.429 -256.549)">
      <path id="Path_12135-3" data-name="Path 12135" d="M27.921,0A27.921,27.921,0,1,1,0,27.921,27.921,27.921,0,0,1,27.921,0Z" transform="translate(386.178 474.992)" fill="#e8e8e8"/>
      <g id="Group_17202-3" data-name="Group 17202" transform="translate(395.554 487.673)">
        <path id="Path_11793-4" data-name="Path 11793" d="M2935.46,857.84c-6.134,0-12.763,1.682-12.763,5.408l.33,2.639c-4.716,3.1-6.893,6.3-5.9,8.9.527,1.418,2.144,3.1,6.826,3.1h.561l.594,4.65c.131,3.1,5.276,4.485,10.355,4.485s10.225-1.385,10.356-4.485l2.375-19.029v-.2C2948.224,859.555,2941.6,857.84,2935.46,857.84Zm0,3.166c5.937,0,9.169,1.55,9.564,2.243-.363.693-3.562,2.276-9.564,2.276s-9.2-1.583-9.564-2.276C2926.292,862.556,2929.525,861.006,2935.46,861.006Zm-15.4,12.664c-.2-.495.495-2.111,3.4-4.254l.659,5.31C2921.478,874.726,2920.224,874.132,2920.059,873.67Zm15.4,10.158c-4.287,0-6.793-1.088-7.223-1.583l-.593-4.683a39.292,39.292,0,0,0,5.937-1.385,3,3,0,0,0,1.847.659,2.968,2.968,0,1,0-2.87-3.661,36,36,0,0,1-5.31,1.253l-.923-7.222a28.664,28.664,0,0,0,18.206,0l-1.88,15.038C2942.254,882.74,2939.748,883.828,2935.46,883.828Z" transform="translate(-2916.89 -857.84)" fill="#fff"/>
      </g>
    </g>
  </g>
</svg>
