<svg xmlns="http://www.w3.org/2000/svg" width="488.82" height="494.058" viewBox="0 0 488.82 494.058">
  <g id="Group_17211" data-name="Group 17211" transform="translate(-303.629 -61.243)">
    <ellipse id="Ellipse_279" data-name="Ellipse 279" cx="228.224" cy="227.819" rx="228.224" ry="227.819" transform="translate(319.006 87.163)" fill="none" stroke="#e8e8e8" stroke-width="25"/>
    <path id="Ellipse_279-2" data-name="Ellipse 279" d="M650.986,319.874c126.045,0,228.224,102,228.224,227.819S777.031,775.512,650.986,775.512s-228.224-102-228.224-227.819a227.322,227.322,0,0,1,10.586-68.781" transform="translate(-103.757 -232.711)" fill="none" stroke="#f19840" stroke-width="25"/>
    <g id="Group_17193" data-name="Group 17193" transform="translate(0 0.863)">
      <path id="Path_12133" data-name="Path 12133" d="M27.921,0A27.921,27.921,0,1,1,0,27.921,27.921,27.921,0,0,1,27.921,0Z" transform="translate(654.058 470.72)" fill="#f19840"/>
      <g id="Group_17111" data-name="Group 17111" transform="translate(663.434 483.401)">
        <path id="Path_11793" data-name="Path 11793" d="M2935.46,857.84c-6.134,0-12.763,1.682-12.763,5.408l.33,2.639c-4.716,3.1-6.893,6.3-5.9,8.9.527,1.418,2.144,3.1,6.826,3.1h.561l.594,4.65c.131,3.1,5.276,4.485,10.355,4.485s10.225-1.385,10.356-4.485l2.375-19.029v-.2C2948.224,859.555,2941.6,857.84,2935.46,857.84Zm0,3.166c5.937,0,9.169,1.55,9.564,2.243-.363.693-3.562,2.276-9.564,2.276s-9.2-1.583-9.564-2.276c.4-.693,3.629-2.243,9.564-2.243Zm-15.4,12.664c-.2-.495.5-2.111,3.4-4.254l.659,5.31c-2.641,0-3.895-.594-4.06-1.056Zm15.4,10.158c-4.287,0-6.793-1.088-7.223-1.583l-.593-4.683a39.287,39.287,0,0,0,5.937-1.385,3,3,0,0,0,1.847.659,2.968,2.968,0,1,0-2.87-3.661,36.015,36.015,0,0,1-5.31,1.253l-.923-7.222a28.664,28.664,0,0,0,18.206,0l-1.88,15.038c-.4.5-2.9,1.584-7.191,1.584Z" transform="translate(-2916.89 -857.84)" fill="#fff"/>
      </g>
    </g>
    <g id="Group_17194" data-name="Group 17194" transform="translate(82.549 -254.877)">
      <path id="Path_12133-2" data-name="Path 12133" d="M27.921,0A27.921,27.921,0,1,1,0,27.921,27.921,27.921,0,0,1,27.921,0Z" transform="translate(654.058 470.72)" fill="#f19840"/>
      <g id="Group_17111-2" data-name="Group 17111" transform="translate(663.434 483.401)">
        <path id="Path_11793-2" data-name="Path 11793" d="M2935.46,857.84c-6.134,0-12.763,1.682-12.763,5.408l.33,2.639c-4.716,3.1-6.893,6.3-5.9,8.9.527,1.418,2.144,3.1,6.826,3.1h.561l.594,4.65c.131,3.1,5.276,4.485,10.355,4.485s10.225-1.385,10.356-4.485l2.375-19.029v-.2C2948.224,859.555,2941.6,857.84,2935.46,857.84Zm0,3.166c5.937,0,9.169,1.55,9.564,2.243-.363.693-3.562,2.276-9.564,2.276s-9.2-1.583-9.564-2.276c.4-.693,3.629-2.243,9.564-2.243Zm-15.4,12.664c-.2-.495.5-2.111,3.4-4.254l.659,5.31c-2.641,0-3.895-.594-4.06-1.056Zm15.4,10.158c-4.287,0-6.793-1.088-7.223-1.583l-.593-4.683a39.287,39.287,0,0,0,5.937-1.385,3,3,0,0,0,1.847.659,2.968,2.968,0,1,0-2.87-3.661,36.015,36.015,0,0,1-5.31,1.253l-.923-7.222a28.664,28.664,0,0,0,18.206,0l-1.88,15.038c-.4.5-2.9,1.584-7.191,1.584Z" transform="translate(-2916.89 -857.84)" fill="#fff"/>
      </g>
    </g>
    <g id="Group_17196" data-name="Group 17196" transform="translate(-350.429 -254.068)">
      <path id="Path_12133-3" data-name="Path 12133" d="M27.921,0A27.921,27.921,0,1,1,0,27.921,27.921,27.921,0,0,1,27.921,0Z" transform="translate(654.058 470.72)" fill="#e8e8e8"/>
      <g id="Group_17111-3" data-name="Group 17111" transform="translate(663.434 483.401)">
        <path id="Path_11793-3" data-name="Path 11793" d="M2935.46,857.84c-6.134,0-12.763,1.682-12.763,5.408l.33,2.639c-4.716,3.1-6.893,6.3-5.9,8.9.527,1.418,2.144,3.1,6.826,3.1h.561l.594,4.65c.131,3.1,5.276,4.485,10.355,4.485s10.225-1.385,10.356-4.485l2.375-19.029v-.2C2948.224,859.555,2941.6,857.84,2935.46,857.84Zm0,3.166c5.937,0,9.169,1.55,9.564,2.243-.363.693-3.562,2.276-9.564,2.276s-9.2-1.583-9.564-2.276c.4-.693,3.629-2.243,9.564-2.243Zm-15.4,12.664c-.2-.495.5-2.111,3.4-4.254l.659,5.31c-2.641,0-3.895-.594-4.06-1.056Zm15.4,10.158c-4.287,0-6.793-1.088-7.223-1.583l-.593-4.683a39.287,39.287,0,0,0,5.937-1.385,3,3,0,0,0,1.847.659,2.968,2.968,0,1,0-2.87-3.661,36.015,36.015,0,0,1-5.31,1.253l-.923-7.222a28.664,28.664,0,0,0,18.206,0l-1.88,15.038c-.4.5-2.9,1.584-7.191,1.584Z" transform="translate(-2916.89 -857.84)" fill="#fff"/>
      </g>
    </g>
    <g id="Group_17197" data-name="Group 17197" transform="translate(-267.88 1.673)">
      <path id="Path_12133-4" data-name="Path 12133" d="M27.921,0A27.921,27.921,0,1,1,0,27.921,27.921,27.921,0,0,1,27.921,0Z" transform="translate(654.058 470.72)" fill="#f19840"/>
      <g id="Group_17111-4" data-name="Group 17111" transform="translate(663.434 483.401)">
        <path id="Path_11793-4" data-name="Path 11793" d="M2935.46,857.84c-6.134,0-12.763,1.682-12.763,5.408l.33,2.639c-4.716,3.1-6.893,6.3-5.9,8.9.527,1.418,2.144,3.1,6.826,3.1h.561l.594,4.65c.131,3.1,5.276,4.485,10.355,4.485s10.225-1.385,10.356-4.485l2.375-19.029v-.2C2948.224,859.555,2941.6,857.84,2935.46,857.84Zm0,3.166c5.937,0,9.169,1.55,9.564,2.243-.363.693-3.562,2.276-9.564,2.276s-9.2-1.583-9.564-2.276c.4-.693,3.629-2.243,9.564-2.243Zm-15.4,12.664c-.2-.495.5-2.111,3.4-4.254l.659,5.31c-2.641,0-3.895-.594-4.06-1.056Zm15.4,10.158c-4.287,0-6.793-1.088-7.223-1.583l-.593-4.683a39.287,39.287,0,0,0,5.937-1.385,3,3,0,0,0,1.847.659,2.968,2.968,0,1,0-2.87-3.661,36.015,36.015,0,0,1-5.31,1.253l-.923-7.222a28.664,28.664,0,0,0,18.206,0l-1.88,15.038c-.4.5-2.9,1.584-7.191,1.584Z" transform="translate(-2916.89 -857.84)" fill="#fff"/>
      </g>
    </g>
    <g id="Group_17199" data-name="Group 17199">
      <g id="Group_46" data-name="Group 46" transform="translate(0 -2663.467)">
        <path id="Path_191" data-name="Path 191" d="M589.121,2887.988a3.556,3.556,0,0,1-.506-2.738,8.8,8.8,0,0,1,2.833-5.039c2.947-2.438,8.931-3.593,8.931-3.593s-.844,7.2-3.961,9.408C592.077,2889.106,589.348,2888.323,589.121,2887.988Z" fill="#0099b9"/>
        <path id="Path_192" data-name="Path 192" d="M579.284,2898.562c4.882-5.329,11.77-12.524,15.463-14.924a84.37,84.37,0,0,0-17.4,14.258Z" fill="#0099b9"/>
      </g>
      <path id="Path_193" data-name="Path 193" d="M467.443,3011.556a3.8,3.8,0,0,0,2.915-.63,9.419,9.419,0,0,0,3.813-4.879c1.194-3.919-.132-10.312-.132-10.312s-6.767,3.8-7.668,7.8C465.118,3009.095,467.019,3011.47,467.443,3011.556Z" transform="translate(0 -2663.467)" fill="#0099b9"/>
      <path id="Path_194" data-name="Path 194" d="M461.048,3025.645c3.255-7.026,7.526-16.8,8.374-21.446a90.371,90.371,0,0,1-6.917,23.085Z" transform="translate(0 -2663.467)" fill="#0099b9"/>
      <g id="Group_47" data-name="Group 47" transform="translate(0 -2663.467)">
        <path id="Path_195" data-name="Path 195" d="M456.977,3007.384a3.194,3.194,0,0,1-2.471.42,7.92,7.92,0,0,1-4.5-2.614c-2.157-2.683-3.12-8.085-3.12-8.085s6.467.851,8.418,3.686C458.021,3004.738,457.281,3007.184,456.977,3007.384Z" fill="#0099b9"/>
        <path id="Path_196" data-name="Path 196" d="M466.369,3016.375c-4.735-4.463-11.123-10.755-13.236-14.111a75.939,75.939,0,0,0,12.612,15.845Z" fill="#0099b9"/>
      </g>
      <g id="Group_48" data-name="Group 48" transform="translate(0 -2663.467)">
        <path id="Path_197" data-name="Path 197" d="M472.024,3015.814a1.405,1.405,0,0,1,.414-1.023,3.487,3.487,0,0,1,2.021-1.08,9.8,9.8,0,0,1,3.752.7s-1.817,2.226-3.33,2.3C472.773,3016.818,472.028,3015.974,472.024,3015.814Z" fill="#0099b9"/>
        <path id="Path_198" data-name="Path 198" d="M466.481,3017.252a47.2,47.2,0,0,1,8.35-1.693,33.465,33.465,0,0,0-8.856,1.058Z" fill="#0099b9"/>
      </g>
      <path id="Path_199" data-name="Path 199" d="M589.631,3046.571a3.308,3.308,0,0,0-.75,2.479,10.58,10.58,0,0,0,2.5,5.557c2.468,2.557,8.123,3.379,8.123,3.379s-.7-6.486-3.345-8.851C592.474,3045.841,589.874,3046.284,589.631,3046.571Z" transform="translate(0 -2663.467)" fill="#0099b9"/>
      <path id="Path_200" data-name="Path 200" d="M635.739,3021.927a6.021,6.021,0,0,1,1.284-4.547,15.656,15.656,0,0,1,8.562-4.9c6.316-1.5,15.559,2.67,15.559,2.67s-6.04,9.721-12.447,10.75C639.777,3027.33,635.833,3022.607,635.739,3021.927Z" transform="translate(0 -2663.467)" fill="#0099b9"/>
      <path id="Path_201" data-name="Path 201" d="M587.953,3017.235a4.745,4.745,0,0,1,1.461-3.424,11.764,11.764,0,0,1,6.887-3.519c5.087-.536,12.611,2.6,12.611,2.6s-6.266,7.4-11.377,7.553C590.419,3020.669,587.958,3017.776,587.953,3017.235Z" transform="translate(0 -2663.467)" fill="#0099b9"/>
      <path id="Path_202" data-name="Path 202" d="M621.121,3044.5a5.84,5.84,0,0,0,1.053,4.447,14.119,14.119,0,0,0,7.984,4.781c5.969,1.456,16.369-3,16.369-3s-6.82-9.145-12.894-10.139C625.177,3039.2,621.236,3043.831,621.121,3044.5Z" transform="translate(0 -2663.467)" fill="#0099b9"/>
      <path id="Path_203" data-name="Path 203" d="M554.2,3008.5s-13.658,10.138-7.934,11.661c5.174,1.376,34.884.439,48.606-3.313C577.462,3019.524,554.2,3008.5,554.2,3008.5Z" transform="translate(0 -2663.467)" fill="#0099b9"/>
      <path id="Path_204" data-name="Path 204" d="M568.773,3018.986s.356.215,1.02.606c6.323,3.734,40.554,23.564,60.435,27.33,0,0-47.852-2.636-75.419-29.3" transform="translate(0 -2663.467)" fill="#0099b9"/>
      <path id="Path_205" data-name="Path 205" d="M582.187,3031.384s9.679,18.792,14.223,22.309c0,0-17.1-9.357-19.771-22.807Z" transform="translate(0 -2663.467)" fill="#0099b9"/>
      <path id="Path_206" data-name="Path 206" d="M597.124,3039.135s10.248-8.516,48.022-18.712c0,0-37.544,6.154-52.182,14.547Z" transform="translate(0 -2663.467)" fill="#0099b9"/>
      <path id="Path_207" data-name="Path 207" d="M522.095,2980.169a4.716,4.716,0,0,1-3.581-.919,11.688,11.688,0,0,1-4.49-6.226c-1.292-4.912.656-12.768.656-12.768s8.2,5.034,9.126,10.026C525.093,2977.231,522.625,2980.083,522.095,2980.169Z" transform="translate(0 -2663.467)" fill="#0099b9"/>
      <path id="Path_208" data-name="Path 208" d="M529.345,2997.926c-3.7-8.858-8.521-21.175-9.351-26.965a112.033,112.033,0,0,0,7.469,28.926Z" transform="translate(0 -2663.467)" fill="#0099b9"/>
      <path id="Path_209" data-name="Path 209" d="M504.623,3052.123a3.5,3.5,0,0,1,.793,2.625,11.2,11.2,0,0,1-2.65,5.884c-2.613,2.708-8.6,3.578-8.6,3.578s.737-6.867,3.542-9.372C501.612,3051.35,504.365,3051.82,504.623,3052.123Z" transform="translate(0 -2663.467)" fill="#0099b9"/>
      <path id="Path_210" data-name="Path 210" d="M455.964,3025.285a5.521,5.521,0,0,0-1.338-4.116,14.348,14.348,0,0,0-8.011-4.18c-5.835-1.148-14.145,3-14.145,3s5.875,8.681,11.776,9.394C452.461,3030.374,455.9,3025.911,455.964,3025.285Z" transform="translate(0 -2663.467)" fill="#0099b9"/>
      <path id="Path_211" data-name="Path 211" d="M503.873,3018.514a4.745,4.745,0,0,0-1.461-3.425,11.764,11.764,0,0,0-6.886-3.519c-5.088-.536-12.612,2.6-12.612,2.6s6.266,7.4,11.377,7.553C501.407,3021.948,503.869,3019.055,503.873,3018.514Z" transform="translate(0 -2663.467)" fill="#0099b9"/>
      <path id="Path_212" data-name="Path 212" d="M471.868,3049.617a5.1,5.1,0,0,1-.92,3.886,12.334,12.334,0,0,1-6.976,4.176c-5.216,1.272-14.3-2.62-14.3-2.62s5.959-7.99,11.266-8.858C468.324,3044.991,471.768,3049.035,471.868,3049.617Z" transform="translate(0 -2663.467)" fill="#0099b9"/>
      <path id="Path_213" data-name="Path 213" d="M537.628,3009.78s13.657,10.138,7.933,11.661c-5.173,1.376-34.884.439-48.6-3.313C514.365,3020.8,537.628,3009.78,537.628,3009.78Z" transform="translate(0 -2663.467)" fill="#0099b9"/>
      <path id="Path_214" data-name="Path 214" d="M530.932,3020.842s-.378.227-1.08.642c-6.7,3.953-46.307,27.193-67.359,31.181,0,0,50.67-2.791,79.861-31.021" transform="translate(0 -2663.467)" fill="#0099b9"/>
      <path id="Path_215" data-name="Path 215" d="M513.363,3036.213s-10.248,19.9-15.061,23.621c0,0,18.108-9.908,20.936-24.149Z" transform="translate(0 -2663.467)" fill="#0099b9"/>
      <path id="Path_216" data-name="Path 216" d="M497.717,3041.518s-11.2-8.588-51.585-17.817c0,0,39.979,4.961,55.814,13.238Z" transform="translate(0 -2663.467)" fill="#0099b9"/>
      <path id="Path_217" data-name="Path 217" d="M558.657,3055.341v-.027c-1.211-20.134-1.327-41.23,8.72-59.083,4.738-8.42,9.724-16.7,14.777-24.934,6.379-10.394,20.149-28.633,26.8-38.857-12.539,5.486-46.648,50.39-55.458,62.883-7.066-27.531-26.292-83.248-41.617-96.887,16.3,46.7,31.27,100.469,31.495,141.549.029,5.371-.345,10.729-.206,16.1,0,0,0,38.038-9.786,44.136h34.833C560.829,3100.217,559.054,3061.9,558.657,3055.341Z" transform="translate(0 -2663.467)" fill="#0099b9"/>
      <path id="Path_218" data-name="Path 218" d="M446.7,2964.25a3.667,3.667,0,0,1-1.489,2.462,9.372,9.372,0,0,1-5.79,1.45c-3.927-.176-9.347-4.341-9.347-4.341s5.813-4.548,9.716-4.08C445.228,2960.393,446.76,2963.834,446.7,2964.25Z" transform="translate(0 -2663.467)" fill="#0099b9"/>
      <path id="Path_219" data-name="Path 219" d="M642.041,2974.759a5.353,5.353,0,0,0,3.824,1.727,13.66,13.66,0,0,0,8.157-3.045c4.574-3.458,7.642-12.945,7.642-12.945s-10.746-.658-15.048,3.132C640.625,2968.905,641.63,2974.306,642.041,2974.759Z" transform="translate(0 -2663.467)" fill="#0099b9"/>
      <path id="Path_220" data-name="Path 220" d="M647.939,2940.481a5.313,5.313,0,0,1-1.587-3.856,13.811,13.811,0,0,1,3.272-8.068c3.567-4.484,12.255-6.625,12.255-6.625s1.1,10.039-2.782,14.244C653.685,2942.031,648.374,2940.9,647.939,2940.481Z" transform="translate(0 -2663.467)" fill="#0099b9"/>
      <path id="Path_221" data-name="Path 221" d="M468.034,2908.532a4.922,4.922,0,0,0,1.68-3.476,12.8,12.8,0,0,0-2.58-7.638c-3.049-4.34-11.658-7.489-11.658-7.489s-.878,9.908,2.483,14.009C462.637,2909.648,467.608,2908.9,468.034,2908.532Z" transform="translate(0 -2663.467)" fill="#0099b9"/>
      <path id="Path_222" data-name="Path 222" d="M458.91,2929.919a5.475,5.475,0,0,0,1.552-4,14.238,14.238,0,0,0-3.542-8.239c-3.768-4.541-13.6-7.264-13.6-7.264s-.09,11.065,4,15.312C453.025,2931.637,458.47,2930.362,458.91,2929.919Z" transform="translate(0 -2663.467)" fill="#0099b9"/>
      <path id="Path_223" data-name="Path 223" d="M527.994,2872.562a5.709,5.709,0,0,1-3.76-2.432,14.153,14.153,0,0,1-2.763-8.878c.4-6.139,5.662-14.413,5.662-14.413s7.485,8.935,6.628,15.024C532.567,2870.341,528.636,2872.667,527.994,2872.562Z" transform="translate(0 -2663.467)" fill="#0099b9"/>
      <path id="Path_224" data-name="Path 224" d="M476.419,2884.97a3.831,3.831,0,0,1-2.992-.3,9.508,9.508,0,0,1-4.369-4.463c-1.637-3.794-1.024-10.35-1.024-10.35s7.208,3.052,8.559,6.955C478.474,2882.243,476.835,2884.837,476.419,2884.97Z" transform="translate(0 -2663.467)" fill="#0099b9"/>
      <path id="Path_225" data-name="Path 225" d="M513.273,2901.758a9.144,9.144,0,0,1-7.157-.412c-3.716-1.817-7.449-5.786-9.955-11.069-4.2-8.857-.817-26.209-.817-26.209s16.254,8.066,19.782,17.212C520.039,2894.014,514.255,2901.4,513.273,2901.758Z" transform="translate(0 -2663.467)" fill="#0099b9"/>
      <path id="Path_226" data-name="Path 226" d="M605.22,2934.556a7.734,7.734,0,0,0,5.656,2.2c3.5-.094,7.767-1.84,11.552-5.027,6.345-5.345,9.831-19.9,9.831-19.9s-15.348.5-21.276,6.308C602.73,2926.218,604.591,2933.934,605.22,2934.556Z" transform="translate(0 -2663.467)" fill="#0099b9"/>
      <path id="Path_227" data-name="Path 227" d="M610.125,2956.754a5.41,5.41,0,0,0,4.136.908,13.071,13.071,0,0,0,7.2-4.745c3.615-4.4,4.075-14.87,4.075-14.87s-10.375,2.02-13.645,6.691C607.335,2951.241,609.615,2956.39,610.125,2956.754Z" transform="translate(0 -2663.467)" fill="#0099b9"/>
      <path id="Path_228" data-name="Path 228" d="M526.7,2945.185c-2.441,0-59.408-8.681-74.869-23.329,0,0,8.68,25.5,80.295,34.722Z" transform="translate(0 -2663.467)" fill="#0099b9"/>
      <path id="Path_229" data-name="Path 229" d="M487.091,2943.558s-38.418,20.693-43.843,21.778c0,0,44.385-9.3,51.98-17.438Z" transform="translate(0 -2663.467)" fill="#0099b9"/>
      <path id="Path_230" data-name="Path 230" d="M583.732,2968.388s22.7-6,34.478-21.2c0,0-8.352,24.2-40.261,29.981Z" transform="translate(0 -2663.467)" fill="#0099b9"/>
      <path id="Path_231" data-name="Path 231" d="M569.4,2991.361s63.6-21.2,86.728-64.885c0,0-37.3,75.777-93.2,78.347Z" transform="translate(0 -2663.467)" fill="#0099b9"/>
      <path id="Path_232" data-name="Path 232" d="M476.594,2973.956a4.871,4.871,0,0,1-1.742,3.4,12.472,12.472,0,0,1-7.545,2.476c-5.227.144-12.967-5.244-12.967-5.244s7.436-6.2,12.659-5.949C474.271,2968.987,476.629,2973.4,476.594,2973.956Z" transform="translate(0 -2663.467)" fill="#0099b9"/>
      <path id="Path_233" data-name="Path 233" d="M495.872,3001.35a4.029,4.029,0,0,1-1.842,2.559,9.742,9.742,0,0,1-6.349.947c-4.189-.642-9.649-6.22-9.649-6.22s6.756-4.036,10.89-3.071C494.678,2996.907,495.974,3000.9,495.872,3001.35Z" transform="translate(0 -2663.467)" fill="#0099b9"/>
      <path id="Path_234" data-name="Path 234" d="M625.4,3008.632a3.8,3.8,0,0,1-2.916-.629,9.424,9.424,0,0,1-3.812-4.879c-1.2-3.919.132-10.313.132-10.313s6.767,3.8,7.668,7.8C627.726,3006.171,625.825,3008.546,625.4,3008.632Z" transform="translate(0 -2663.467)" fill="#0099b9"/>
      <path id="Path_235" data-name="Path 235" d="M631.8,3022.721c-3.255-7.025-7.526-16.8-8.375-21.446a90.377,90.377,0,0,0,6.918,23.086Z" transform="translate(0 -2663.467)" fill="#0099b9"/>
      <g id="Group_49" data-name="Group 49" transform="translate(0 -2663.467)">
        <path id="Path_236" data-name="Path 236" d="M635.867,3004.461a3.193,3.193,0,0,0,2.471.42,7.918,7.918,0,0,0,4.5-2.614c2.157-2.684,3.12-8.085,3.12-8.085s-6.467.851-8.418,3.686C634.822,3001.814,635.563,3004.261,635.867,3004.461Z" fill="#0099b9"/>
        <path id="Path_237" data-name="Path 237" d="M626.475,3013.452c4.734-4.463,11.123-10.756,13.236-14.111a75.923,75.923,0,0,1-12.612,15.844Z" fill="#0099b9"/>
      </g>
      <g id="Group_50" data-name="Group 50" transform="translate(0 -2663.467)">
        <path id="Path_238" data-name="Path 238" d="M620.82,3012.891a1.406,1.406,0,0,0-.414-1.023,3.494,3.494,0,0,0-2.021-1.081,9.807,9.807,0,0,0-3.752.7s1.816,2.226,3.33,2.3C620.071,3013.9,620.816,3013.051,620.82,3012.891Z" fill="#0099b9"/>
        <path id="Path_239" data-name="Path 239" d="M626.363,3014.329a47.167,47.167,0,0,0-8.351-1.693,33.4,33.4,0,0,1,8.856,1.058Z" fill="#0099b9"/>
      </g>
      <path id="Path_240" data-name="Path 240" d="M547.493,3004.07s-61.432-30.464-76.9-29.833c0,0,65.355,34.469,77.52,46.29Z" transform="translate(0 -2663.467)" fill="#0099b9"/>
      <path id="Path_241" data-name="Path 241" d="M514.722,2994.662s-14.421,7.372-27.472,4.985c0,0,15.432,8.585,34.485-3.137Z" transform="translate(0 -2663.467)" fill="#0099b9"/>
      <path id="Path_242" data-name="Path 242" d="M523.037,2922.275c-1.135-.135-34.372-13.266-49.768-43.552,0,0,13.139,37.207,49.7,53.894Z" transform="translate(0 -2663.467)" fill="#0099b9"/>
      <path id="Path_243" data-name="Path 243" d="M614.758,2978.7s28.269-3.855,35.978-9.851c0,0-18.417,20.559-43.687,17.989S614.758,2978.7,614.758,2978.7Z" transform="translate(0 -2663.467)" fill="#0099b9"/>
      <path id="Path_244" data-name="Path 244" d="M506.968,2920.447c-4.283,2-39.261-11.707-45.543-19.988,0,0,15.7,21.415,51.682,26.269Z" transform="translate(0 -2663.467)" fill="#0099b9"/>
      <path id="Path_245" data-name="Path 245" d="M528.812,2933.581s-1.428-68.529-2.284-75.382c0,0,10.279,55.966,8.28,82.806S528.812,2933.581,528.812,2933.581Z" transform="translate(0 -2663.467)" fill="#0099b9"/>
      <path id="Path_246" data-name="Path 246" d="M587.412,2931.176a3.315,3.315,0,0,0,1.909,1.751,10.585,10.585,0,0,0,6.092.155c3.375-1.115,6.568-5.854,6.568-5.854s-6.146-2.186-9.426-.825C587.987,2928.3,587.26,2930.832,587.412,2931.176Z" transform="translate(0 -2663.467)" fill="#0099b9"/>
      <path id="Path_247" data-name="Path 247" d="M545.443,2910.512a5.322,5.322,0,0,0,2.725-3.157,13.822,13.822,0,0,0-.553-8.688c-1.965-5.382-10.064-11.076-10.064-11.076s-3.69,10.089-1.332,15.308C539.5,2910.165,544.9,2910.773,545.443,2910.512Z" transform="translate(0 -2663.467)" fill="#0099b9"/>
      <path id="Path_248" data-name="Path 248" d="M561.414,2962.339a5.318,5.318,0,0,1-1.587-3.857,13.817,13.817,0,0,1,3.272-8.068c3.567-4.483,12.255-6.625,12.255-6.625s1.1,10.04-2.782,14.245C567.16,2963.888,561.849,2962.76,561.414,2962.339Z" transform="translate(0 -2663.467)" fill="#0099b9"/>
      <path id="Path_249" data-name="Path 249" d="M573.676,2875.8a5.7,5.7,0,0,1-4.153-1.647,14.8,14.8,0,0,1-3.781-8.525c-.8-6.085,4.013-14.375,4.013-14.375s8.559,6.62,8.907,12.745C579.147,2872.523,574.325,2875.776,573.676,2875.8Z" transform="translate(0 -2663.467)" fill="#0099b9"/>
      <path id="Path_250" data-name="Path 250" d="M562.817,2914.634a4.748,4.748,0,0,1-2.452-2.8,11.773,11.773,0,0,1-.184-7.73c1.724-4.817,7.817-10.233,7.817-10.233s3.946,8.852,1.871,13.526C566.981,2913.9,563.306,2914.865,562.817,2914.634Z" transform="translate(0 -2663.467)" fill="#0099b9"/>
      <path id="Path_251" data-name="Path 251" d="M605.933,2897.9a5.839,5.839,0,0,0,4.464.98,14.106,14.106,0,0,0,7.769-5.121c3.9-4.747,4.4-16.049,4.4-16.049s-11.2,2.179-14.727,7.221C602.922,2891.952,605.383,2897.51,605.933,2897.9Z" transform="translate(0 -2663.467)" fill="#0099b9"/>
      <path id="Path_252" data-name="Path 252" d="M534.965,2952.362s3.212,16.7,7.066,12.206c3.484-4.065,20.046-44.692,22.616-58.684C559.507,2922.731,534.965,2952.362,534.965,2952.362Z" transform="translate(0 -2663.467)" fill="#0099b9"/>
      <path id="Path_253" data-name="Path 253" d="M557.176,2927.056s-13.133-18.654-14.635-25.095c.625,4.329,3.4,21.3,9.71,31.52Z" transform="translate(0 -2663.467)" fill="#0099b9"/>
      <path id="Path_254" data-name="Path 254" d="M456.752,2950.981a3.218,3.218,0,0,0-.016-2.525,8.367,8.367,0,0,0-3.714-3.74c-3.04-1.67-9-1.038-9-1.038s2.338,6.069,5.492,7.508C453.9,2953.19,456.607,2951.318,456.752,2950.981Z" transform="translate(0 -2663.467)" fill="#0099b9"/>
      <path id="Path_255" data-name="Path 255" d="M468.693,2953.847s-13.42-3.27-16.671-5.607c2.01,1.724,10.037,8.358,16.985,10.5Z" transform="translate(0 -2663.467)" fill="#0099b9"/>
      <path id="Path_256" data-name="Path 256" d="M553.511,2938.007s.348-.228.988-.656c6.107-4.079,44.237-29.99,56.253-46.27,0,0-28.545,45.641-64.522,58.919" transform="translate(0 -2663.467)" fill="#0099b9"/>
      <path id="Path_257" data-name="Path 257" d="M570.5,2931.3s21.13-.571,26.27-3.141c0,0-15.848,11.35-29.125,7.924Z" transform="translate(0 -2663.467)" fill="#0099b9"/>
      <path id="Path_258" data-name="Path 258" d="M543.658,2982.358s20.507-24.917,24.56-28.789c0,0-16.9,29.941-20.863,34.547S543.658,2982.358,543.658,2982.358Z" transform="translate(0 -2663.467)" fill="#0099b9"/>
      <path id="Path_259" data-name="Path 259" d="M587.062,2915.878s-7.425-11.065-13.706-49.683c0,0,2.284,37.976,9.137,53.4Z" transform="translate(0 -2663.467)" fill="#0099b9"/>
      <g id="Group_51" data-name="Group 51" transform="translate(0 -2663.467)">
        <path id="Path_260" data-name="Path 260" d="M540.655,2873.077a4.161,4.161,0,0,1-1-3.1,10.3,10.3,0,0,1,2.539-6.274c3.06-3.271,9.838-5.506,9.838-5.506s.093,8.485-3.2,11.519C544.255,2873.936,540.968,2873.432,540.655,2873.077Z" fill="#0099b9"/>
        <path id="Path_261" data-name="Path 261" d="M530.8,2886.825c4.876-6.917,11.8-16.3,15.736-19.639a98.745,98.745,0,0,0-18.083,19.155Z" fill="#0099b9"/>
      </g>
      <path id="Path_262" data-name="Path 262" d="M531.232,3100.765c-.316.332-.627.678-.93,1.044-3.267,3.943-8.537,4.109-13.216,4.494-5.426.447-11.294,1.452-15.826,4.693-2.065,1.477-3.906,3.418-5.819,5.091.994-.869,4.237-1.049,5.517-1.483,2.895-.983,5.531-2.911,8.519-3.532a109.89,109.89,0,0,1,20.013-1.85s-8.832,7.231-17.968,6.865c0,0-6.03-.548-8.589,1.462,10.261,2.386,22.5,1.329,31.065-5.481-.349.277-.636,1.255-.876,1.644a15.941,15.941,0,0,1-3.562,4c-2.872,2.314-6.33,3.71-9.341,5.814-2.252,1.574-6.625,4.206-7.372,7,0,0,14.21-7.354,19.324-9.88a29.97,29.97,0,0,0-3.107,7.857s1.409-.738,2.926-1.645a12.738,12.738,0,0,0,4.749-4.99,15.072,15.072,0,0,0,1.827-5.791s1.1-4.02,4.386-3.289c0,0,4.02,1.279,1.1,8.406a4.094,4.094,0,0,0,4.386-2.01s2.924-.914,2.558,2.558c0,0-.914,6.761-3.837,8.588,0,0,8.847.142,9.615-11.641,0,0,8.11,4.149,7.2,15.113,0,0,6.387-7.126.087-14.435,0,0-.635-3.472,3.933,0l3.107,2.558,6.213,5.847s-1.828-6.4-11.147-16.08c0,0,.731-2.376,2.923,0,4.325,4.684,6.077,11.138,12.679,13.258a20.32,20.32,0,0,0,6.29,1.132c-3.465-2.258-7.158-4.314-10.084-7.285-3.379-3.433-3.768-6.69-3.768-11.307a32.064,32.064,0,0,1,20.29,12.8,38.378,38.378,0,0,0-19.742-19.014s-11.848-4.02-13.127-14.619H540.576c.033,0-1.91,5.6-2.087,5.965C536.682,3096.318,533.788,3098.079,531.232,3100.765Z" transform="translate(0 -2663.467)" fill="#0099b9"/>
    </g>
    <g id="Group_17207" data-name="Group 17207" transform="translate(0 -0.599)">
      <circle id="Ellipse_281" data-name="Ellipse 281" cx="27.921" cy="27.921" r="27.921" transform="translate(520.522 61.842)" fill="#f19840"/>
      <g id="Group_17107" data-name="Group 17107" transform="translate(529.911 75.882)">
        <path id="Path_11789" data-name="Path 11789" d="M3083.461,401.84c-6.134,0-12.762,1.682-12.762,5.408l.33,2.639c-4.716,3.1-6.893,6.3-5.9,8.9.528,1.418,2.144,3.1,6.826,3.1h.561l.594,4.65c.131,3.1,5.277,4.485,10.355,4.485s10.224-1.385,10.356-4.485l2.375-19.029v-.2C3096.224,403.555,3089.6,401.84,3083.461,401.84Zm0,3.166c5.936,0,9.169,1.55,9.564,2.243-.363.693-3.562,2.276-9.564,2.276s-9.2-1.583-9.564-2.276c.4-.693,3.628-2.243,9.564-2.243Zm-15.4,12.664c-.2-.495.5-2.111,3.4-4.254l.66,5.31c-2.643,0-3.9-.594-4.062-1.056Zm15.4,10.158c-4.287,0-6.794-1.088-7.222-1.583l-.594-4.683a39.274,39.274,0,0,0,5.936-1.385,3,3,0,0,0,1.847.659,2.968,2.968,0,1,0-2.87-3.661,36.041,36.041,0,0,1-5.31,1.254l-.923-7.223a28.659,28.659,0,0,0,18.2,0l-1.88,15.039c-.39.5-2.9,1.583-7.184,1.583Z" transform="translate(-3064.89 -401.84)" fill="#fff"/>
      </g>
    </g>
  </g>
</svg>
