<svg xmlns="http://www.w3.org/2000/svg" width="488.82" height="496.06" viewBox="0 0 488.82 496.06">
  <g id="Group_17212" data-name="Group 17212" transform="translate(-303.629 -58.379)">
    <ellipse id="Ellipse_279" data-name="Ellipse 279" cx="228.224" cy="227.819" rx="228.224" ry="227.819" transform="translate(319.006 86.3)" fill="none" stroke="#f19840" stroke-width="25"/>
    <g id="Group_17193" data-name="Group 17193">
      <path id="Path_12133" data-name="Path 12133" d="M27.921,0A27.921,27.921,0,1,1,0,27.921,27.921,27.921,0,0,1,27.921,0Z" transform="translate(654.058 470.72)" fill="#f19840"/>
      <g id="Group_17111" data-name="Group 17111" transform="translate(663.434 483.401)">
        <path id="Path_11793" data-name="Path 11793" d="M2935.46,857.84c-6.134,0-12.763,1.682-12.763,5.408l.33,2.639c-4.716,3.1-6.893,6.3-5.9,8.9.527,1.418,2.144,3.1,6.826,3.1h.561l.594,4.65c.131,3.1,5.276,4.485,10.355,4.485s10.225-1.385,10.356-4.485l2.375-19.029v-.2C2948.224,859.555,2941.6,857.84,2935.46,857.84Zm0,3.166c5.937,0,9.169,1.55,9.564,2.243-.363.693-3.562,2.276-9.564,2.276s-9.2-1.583-9.564-2.276C2926.292,862.556,2929.525,861.006,2935.46,861.006Zm-15.4,12.664c-.2-.495.495-2.111,3.4-4.254l.659,5.31C2921.478,874.726,2920.224,874.132,2920.059,873.67Zm15.4,10.158c-4.287,0-6.793-1.088-7.223-1.583l-.593-4.683a39.292,39.292,0,0,0,5.937-1.385,3,3,0,0,0,1.847.659,2.968,2.968,0,1,0-2.87-3.661,36,36,0,0,1-5.31,1.253l-.923-7.222a28.664,28.664,0,0,0,18.206,0l-1.88,15.038C2942.254,882.74,2939.748,883.828,2935.46,883.828Z" transform="translate(-2916.89 -857.84)" fill="#fff"/>
      </g>
    </g>
    <g id="Group_17192" data-name="Group 17192">
      <path id="Path_1" data-name="Path 1" d="M605.449,3722.18a3.572,3.572,0,0,0-.81,2.681,11.434,11.434,0,0,0,2.707,6.011c2.669,2.766,8.786,3.655,8.786,3.655s-.753-7.015-3.618-9.574C608.524,3721.389,605.712,3721.87,605.449,3722.18Z" transform="translate(0 -3347.331)" fill="#0099b9"/>
      <path id="Path_2" data-name="Path 2" d="M692.774,3646.092a6.518,6.518,0,0,1-.363-5.1,16.931,16.931,0,0,1,6.913-8.129c5.876-3.846,16.811-3,16.811-3s-2.577,12.108-8.719,15.507C698.865,3650.107,693.119,3646.75,692.774,3646.092Z" transform="translate(0 -3347.331)" fill="#0099b9"/>
      <path id="Path_3" data-name="Path 3" d="M606.207,3685.345a5.134,5.134,0,0,1,1.582-3.705,12.733,12.733,0,0,1,7.448-3.806c5.5-.579,13.641,2.818,13.641,2.818s-6.777,8-12.306,8.17C608.875,3689.06,606.212,3685.93,606.207,3685.345Z" transform="translate(0 -3347.331)" fill="#0099b9"/>
      <path id="Path_4" data-name="Path 4" d="M639.413,3671.737a3.542,3.542,0,0,1-2.284-1.591,8.791,8.791,0,0,1-1.528-5.574c.381-3.8,3.825-8.834,3.825-8.834s4.459,5.71,3.8,9.475C642.3,3670.455,639.81,3671.816,639.413,3671.737Z" transform="translate(0 -3347.331)" fill="#0099b9"/>
      <path id="Path_5" data-name="Path 5" d="M634.715,3698.176a3.548,3.548,0,0,0,.8,2.665,8.8,8.8,0,0,0,4.826,3.18c3.736.818,9.585-.9,9.585-.9s-4.047-6.01-7.831-6.548C636.83,3695.827,634.762,3697.774,634.715,3698.176Z" transform="translate(0 -3347.331)" fill="#0099b9"/>
      <path id="Path_6" data-name="Path 6" d="M688.654,3723.511a6.315,6.315,0,0,0,1.14,4.811,15.267,15.267,0,0,0,8.635,5.17c6.457,1.575,17.706-3.243,17.706-3.243s-7.377-9.891-13.947-10.967C693.041,3717.785,688.778,3722.791,688.654,3723.511Z" transform="translate(0 -3347.331)" fill="#0099b9"/>
      <path id="Path_7" data-name="Path 7" d="M556.369,3675.9s-14.773,10.967-8.581,12.614c5.6,1.489,52.963-1.429,67.806-5.487C596.763,3685.917,556.369,3675.9,556.369,3675.9Z" transform="translate(0 -3347.331)" fill="#0099b9"/>
      <path id="Path_8" data-name="Path 8" d="M579.06,3687.239s.386.232,1.1.656c6.84,4.038,97.907,34.437,119.412,38.511,0,0-105.8-11.8-135.62-40.637" transform="translate(0 -3347.331)" fill="#0099b9"/>
      <path id="Path_9" data-name="Path 9" d="M593.571,3700.65s10.469,20.327,15.385,24.131c0,0-18.5-10.122-21.386-24.67Z" transform="translate(0 -3347.331)" fill="#0099b9"/>
      <path id="Path_10" data-name="Path 10" d="M616.368,3709.559s48.514-43.538,83.208-67.778c0,0-77.155,51.153-88.969,65.066Z" transform="translate(0 -3347.331)" fill="#0099b9"/>
      <path id="Path_11" data-name="Path 11" d="M503.279,3510.211a4.556,4.556,0,0,1-3.546-.425,11.839,11.839,0,0,1-4.664-5.817c-1.861-4.539.167-11.928.167-11.928s7.966,3.368,9.486,8.03C506.838,3506.562,503.775,3510.061,503.279,3510.211Z" transform="translate(0 -3347.331)" fill="#0099b9"/>
      <path id="Path_12" data-name="Path 12" d="M530.467,3544.413s-12.055-16.716-29-38.93a151.936,151.936,0,0,0,26.381,42.524Z" transform="translate(0 -3347.331)" fill="#0099b9"/>
      <path id="Path_13" data-name="Path 13" d="M639.851,3686.173c-.275-7.222-.435-17.181.505-21.484a84.28,84.28,0,0,0-2.349,22.372Z" transform="translate(0 -3347.331)" fill="#0099b9"/>
      <path id="Path_14" data-name="Path 14" d="M454.728,3582.185a3.55,3.55,0,0,1-2.759-.371,8.8,8.8,0,0,1-3.908-4.259c-1.4-3.558-.637-9.6-.637-9.6s6.577,3.04,7.71,6.69C456.71,3579.723,455.117,3582.074,454.728,3582.185Z" transform="translate(0 -3347.331)" fill="#0099b9"/>
      <path id="Path_15" data-name="Path 15" d="M461.718,3594.823c-3.546-6.3-8.243-15.081-9.374-19.338a84.284,84.284,0,0,0,8.14,20.971Z" transform="translate(0 -3347.331)" fill="#0099b9"/>
      <g id="Group_1" data-name="Group 1" transform="translate(0 -3347.331)">
        <path id="Path_16" data-name="Path 16" d="M689.854,3677.2a3.551,3.551,0,0,1-.146-2.78,8.793,8.793,0,0,1,3.462-4.628c3.238-2.036,9.321-2.406,9.321-2.406s-1.77,7.027-5.148,8.816C692.64,3678.688,690.036,3677.557,689.854,3677.2Z" fill="#0099b9"/>
        <path id="Path_17" data-name="Path 17" d="M679.9,3687.038c5.531-4.651,11.534-10.892,15.508-12.792-3.04,1.3-12.268,6.674-20.861,13.642Z" fill="#0099b9"/>
      </g>
      <path id="Path_18" data-name="Path 18" d="M417.086,3658.223a3.552,3.552,0,0,1-2.761-.358,8.8,8.8,0,0,1-3.926-4.243c-1.415-3.552-.679-9.6-.679-9.6s6.591,3.011,7.739,6.657C419.058,3655.753,417.474,3658.11,417.086,3658.223Z" transform="translate(0 -3347.331)" fill="#0099b9"/>
      <path id="Path_19" data-name="Path 19" d="M424.13,3670.831c-3.573-6.282-8.307-15.046-9.457-19.3a84.269,84.269,0,0,0,8.23,20.935Z" transform="translate(0 -3347.331)" fill="#0099b9"/>
      <path id="Path_20" data-name="Path 20" d="M586.462,3614.527a3.549,3.549,0,0,1-1.857-2.074,8.8,8.8,0,0,1-.206-5.776c1.245-3.616,5.752-7.719,5.752-7.719s3.028,6.583,1.519,10.095C589.568,3613.942,586.83,3614.7,586.462,3614.527Z" transform="translate(0 -3347.331)" fill="#0099b9"/>
      <path id="Path_21" data-name="Path 21" d="M583.571,3628.677c1.392-7.092,3.525-16.822,5.428-20.793a84.346,84.346,0,0,0-7.427,21.233Z" transform="translate(0 -3347.331)" fill="#0099b9"/>
      <g id="Group_2" data-name="Group 2" transform="translate(0 -3347.331)">
        <path id="Path_22" data-name="Path 22" d="M555.43,3625.219a2.925,2.925,0,0,1-1.882-1.311,7.253,7.253,0,0,1-1.259-4.593c.315-3.136,3.152-7.279,3.152-7.279s3.674,4.705,3.129,7.807C557.81,3624.162,555.757,3625.284,555.43,3625.219Z" fill="#0099b9"/>
        <path id="Path_23" data-name="Path 23" d="M555.791,3637.113c-.226-5.95-.358-14.157.416-17.7a69.476,69.476,0,0,0-1.936,18.433Z" fill="#0099b9"/>
      </g>
      <g id="Group_3" data-name="Group 3" transform="translate(0 -3347.331)">
        <path id="Path_24" data-name="Path 24" d="M503.322,3596.541a1.562,1.562,0,0,1-.189-1.209,3.869,3.869,0,0,1,1.306-2.178,10.859,10.859,0,0,1,3.966-1.468s-.459,3.149-1.855,4.083C504.607,3597.068,503.418,3596.69,503.322,3596.541Z" fill="#0099b9"/>
        <path id="Path_25" data-name="Path 25" d="M498.873,3601.064c2.209-2.281,5.322-5.356,6.973-6.365a37.079,37.079,0,0,0-7.815,6.049Z" fill="#0099b9"/>
      </g>
      <g id="Group_4" data-name="Group 4" transform="translate(0 -3347.331)">
        <path id="Path_26" data-name="Path 26" d="M525.117,3563.137a2.054,2.054,0,0,1-1.591-.245,5.084,5.084,0,0,1-2.212-2.507c-.77-2.073-.262-5.561-.262-5.561s3.77,1.831,4.384,3.955C526.291,3561.736,525.343,3563.077,525.117,3563.137Z" fill="#0099b9"/>
        <path id="Path_27" data-name="Path 27" d="M529.018,3570.523c-1.981-3.681-4.6-8.813-5.205-11.287a48.76,48.76,0,0,0,4.473,12.217Z" fill="#0099b9"/>
      </g>
      <path id="Path_28" data-name="Path 28" d="M576.607,3708.9a4.4,4.4,0,0,1,3.268,1.12,10.923,10.923,0,0,1,3.722,6.134c.841,4.672-1.556,11.846-1.556,11.846s-7.268-5.3-7.76-10.016C573.6,3711.413,576.106,3708.94,576.607,3708.9Z" transform="translate(0 -3347.331)" fill="#0099b9"/>
      <path id="Path_29" data-name="Path 29" d="M571.167,3691.818c2.788,8.526,6.371,20.359,6.715,25.814a104.674,104.674,0,0,0-4.816-27.5Z" transform="translate(0 -3347.331)" fill="#0099b9"/>
      <path id="Path_30" data-name="Path 30" d="M522.949,3707.2a5.582,5.582,0,0,1,2,3.9,13.848,13.848,0,0,1-1.991,8.876c-3.34,5.007-11.838,9.454-11.838,9.454s-1.982-11.228,1.717-15.972C517.987,3706.847,522.456,3706.795,522.949,3707.2Z" transform="translate(0 -3347.331)" fill="#0099b9"/>
      <path id="Path_31" data-name="Path 31" d="M533,3686.81c-4.95,10.24-12.079,24.2-16.561,29.487a132.7,132.7,0,0,0,19.779-29.359Z" transform="translate(0 -3347.331)" fill="#0099b9"/>
      <g id="Group_5" data-name="Group 5" transform="translate(0 -3347.331)">
        <path id="Path_32" data-name="Path 32" d="M686.132,3602a4.7,4.7,0,0,1,2.178-2.976,11.666,11.666,0,0,1,7.431-1.848c5.027.625,11.579,5.343,11.579,5.343s-7.7,5.726-12.668,4.732C687.74,3605.87,686.015,3602.527,686.132,3602Z" fill="#0099b9"/>
        <path id="Path_33" data-name="Path 33" d="M667,3602.131c9.573-.137,22.768-.036,28.436,1.343a111.668,111.668,0,0,0-29.553-3.813Z" fill="#0099b9"/>
      </g>
      <g id="Group_6" data-name="Group 6" transform="translate(0 -3347.331)">
        <path id="Path_34" data-name="Path 34" d="M592.3,3527.277a5.872,5.872,0,0,1-2.171-4.063,14.55,14.55,0,0,1,1.938-9.366c3.422-5.323,12.278-10.148,12.278-10.148s2.282,11.771-1.524,16.823C597.523,3527.557,592.826,3527.691,592.3,3527.277Z" fill="#0099b9"/>
        <path id="Path_35" data-name="Path 35" d="M582.094,3548.887c5.024-10.853,12.274-25.655,16.894-31.292a139.527,139.527,0,0,0-20.279,31.214Z" fill="#0099b9"/>
      </g>
      <g id="Group_7" data-name="Group 7" transform="translate(0 -3347.331)">
        <path id="Path_36" data-name="Path 36" d="M649.286,3649.327a3.047,3.047,0,0,1,1.723-1.657,7.556,7.556,0,0,1,4.951-.352c3.141.959,6.8,4.7,6.8,4.7s-5.557,2.8-8.617,1.61C649.882,3651.975,649.153,3649.648,649.286,3649.327Z" fill="#0099b9"/>
        <path id="Path_37" data-name="Path 37" d="M637.055,3647.275c6.128.98,14.543,2.515,18.009,4.027a72.436,72.436,0,0,0-18.447-5.728Z" fill="#0099b9"/>
      </g>
      <path id="Path_38" data-name="Path 38" d="M702.03,3686.531a4.83,4.83,0,0,1,2.333-2.988,11.976,11.976,0,0,1,7.694-1.663c5.146.8,11.728,5.857,11.728,5.857s-8.1,5.64-13.167,4.46C703.559,3690.554,701.893,3687.064,702.03,3686.531Z" transform="translate(0 -3347.331)" fill="#0099b9"/>
      <path id="Path_39" data-name="Path 39" d="M636.186,3691.882c9.841.163,76.718-5.564,83.136-5.383-4.287-1.379-65.629,1.568-80.686,1.049Z" transform="translate(0 -3347.331)" fill="#0099b9"/>
      <g id="Group_8" data-name="Group 8" transform="translate(0 -3347.331)">
        <path id="Path_40" data-name="Path 40" d="M603.068,3578.25a4.161,4.161,0,0,1,1.029-3.1,10.313,10.313,0,0,1,5.759-3.57c4.4-.836,11.2,1.363,11.2,1.363s-4.937,6.911-9.389,7.418C605.47,3581.07,603.111,3578.722,603.068,3578.25Z" fill="#0099b9"/>
        <path id="Path_41" data-name="Path 41" d="M586.987,3583.54c8.026-2.709,19.168-6.2,24.317-6.573a98.824,98.824,0,0,0-25.928,4.795Z" fill="#0099b9"/>
      </g>
      <g id="Group_9" data-name="Group 9" transform="translate(0 -3347.331)">
        <path id="Path_42" data-name="Path 42" d="M592.656,3556.642a1.962,1.962,0,0,1,.943-1.217,4.865,4.865,0,0,1,3.121-.688,13.66,13.66,0,0,1,4.771,2.359s-3.278,2.3-5.338,1.832C593.284,3558.273,592.6,3556.859,592.656,3556.642Z" fill="#0099b9"/>
        <path id="Path_43" data-name="Path 43" d="M584.672,3556.481c4,.05,9.5.239,11.85.878a46.631,46.631,0,0,0-12.288-1.921Z" fill="#0099b9"/>
      </g>
      <g id="Group_10" data-name="Group 10" transform="translate(0 -3347.331)">
        <path id="Path_44" data-name="Path 44" d="M619.044,3561.064a2.574,2.574,0,0,1,1.236-1.6,6.383,6.383,0,0,1,4.095-.9c2.743.415,6.26,3.094,6.26,3.094s-4.3,3.022-7,2.405C619.867,3563.2,618.972,3561.349,619.044,3561.064Z" fill="#0099b9"/>
        <path id="Path_45" data-name="Path 45" d="M608.569,3560.853c5.242.065,12.464.314,15.547,1.152a61.211,61.211,0,0,0-16.123-2.521Z" fill="#0099b9"/>
      </g>
      <g id="Group_11" data-name="Group 11" transform="translate(0 -3347.331)">
        <path id="Path_46" data-name="Path 46" d="M547.663,3519.073a2.682,2.682,0,0,1,1.287-1.662,6.642,6.642,0,0,1,4.261-.94c2.855.433,6.516,3.221,6.516,3.221s-4.476,3.145-7.29,2.5C548.52,3521.3,547.589,3519.369,547.663,3519.073Z" fill="#0099b9"/>
        <path id="Path_47" data-name="Path 47" d="M536.762,3518.853c5.456.068,12.971.326,16.18,1.2a63.667,63.667,0,0,0-16.779-2.624Z" fill="#0099b9"/>
      </g>
      <g id="Group_12" data-name="Group 12" transform="translate(0 -3347.331)">
        <path id="Path_48" data-name="Path 48" d="M515.024,3513.96a2.683,2.683,0,0,1-1.79-1.1,6.641,6.641,0,0,1-1.392-4.136c.124-2.885,2.5-6.824,2.5-6.824s3.607,4.113,3.27,6.979C517.146,3512.868,515.327,3514,515.024,3513.96Z" fill="#0099b9"/>
        <path id="Path_49" data-name="Path 49" d="M515.976,3524.822c-.518-5.432-1.068-12.932-.545-16.216a63.712,63.712,0,0,0-.807,16.964Z" fill="#0099b9"/>
      </g>
      <g id="Group_13" data-name="Group 13" transform="translate(0 -3347.331)">
        <path id="Path_50" data-name="Path 50" d="M633.342,3588.169a4.149,4.149,0,0,1,.83-3.143,10.278,10.278,0,0,1,5.5-3.909c4.326-1.106,11.222.655,11.222.655s-4.477,7.179-8.871,7.962C635.907,3590.823,633.415,3588.636,633.342,3588.169Z" fill="#0099b9"/>
        <path id="Path_51" data-name="Path 51" d="M617.685,3594.434c7.811-3.2,18.67-7.362,23.766-8.055a98.455,98.455,0,0,0-25.478,6.388Z" fill="#0099b9"/>
      </g>
      <g id="Group_14" data-name="Group 14" transform="translate(0 -3347.331)">
        <path id="Path_52" data-name="Path 52" d="M652.372,3598.429a2.573,2.573,0,0,1-1.588-1.247,6.385,6.385,0,0,1-.875-4.1c.434-2.74,3.137-6.239,3.137-6.239s2.993,4.321,2.357,7.02C654.518,3597.62,652.656,3598.5,652.372,3598.429Z" fill="#0099b9"/>
        <path id="Path_53" data-name="Path 53" d="M652.09,3608.9c.1-5.242.4-12.462,1.258-15.54a61.174,61.174,0,0,0-2.63,16.106Z" fill="#0099b9"/>
      </g>
      <g id="Group_15" data-name="Group 15" transform="translate(0 -3347.331)">
        <path id="Path_54" data-name="Path 54" d="M678.247,3607.194a2.159,2.159,0,0,1,1.616-.5,5.346,5.346,0,0,1,3.235,1.359c1.674,1.608,2.786,5.136,2.786,5.136s-4.4-.009-5.948-1.736C677.778,3609.054,678.061,3607.354,678.247,3607.194Z" fill="#0099b9"/>
        <path id="Path_55" data-name="Path 55" d="M671.189,3602c3.552,2.574,8.369,6.228,10.072,8.289a51.188,51.188,0,0,0-9.8-9.5Z" fill="#0099b9"/>
      </g>
      <g id="Group_16" data-name="Group 16" transform="translate(0 -3347.331)">
        <path id="Path_56" data-name="Path 56" d="M489.111,3519.885a5.579,5.579,0,0,1-3.1,3.09,13.835,13.835,0,0,1-9.052.806c-5.78-1.653-12.6-8.385-12.6-8.385s10.081-5.3,15.721-3.228C487.933,3515.058,489.344,3519.294,489.111,3519.885Z" fill="#0099b9"/>
        <path id="Path_57" data-name="Path 57" d="M511.567,3523.241c-11.25-1.593-26.7-4.127-33.1-6.783a132.569,132.569,0,0,0,33.955,9.884Z" fill="#0099b9"/>
      </g>
      <g id="Group_17" data-name="Group 17" transform="translate(0 -3347.331)">
        <path id="Path_58" data-name="Path 58" d="M505.455,3563.692a3.561,3.561,0,0,1-2.661.853,8.828,8.828,0,0,1-5.378-2.178c-2.8-2.622-4.718-8.433-4.718-8.433s7.273-.079,9.874,2.743C506.192,3560.606,505.76,3563.423,505.455,3563.692Z" fill="#0099b9"/>
        <path id="Path_59" data-name="Path 59" d="M517.239,3572.138c-5.929-4.181-13.972-10.121-16.833-13.493a84.64,84.64,0,0,0,16.418,15.5Z" fill="#0099b9"/>
      </g>
      <g id="Group_18" data-name="Group 18" transform="translate(0 -3347.331)">
        <path id="Path_60" data-name="Path 60" d="M499.68,3517.79a2.053,2.053,0,0,1-1.539.467,5.08,5.08,0,0,1-3.075-1.3c-1.59-1.534-2.64-4.9-2.64-4.9s4.186.02,5.657,1.666C500.131,3516.021,499.857,3517.638,499.68,3517.79Z" fill="#0099b9"/>
        <path id="Path_61" data-name="Path 61" d="M506.385,3522.754c-3.375-2.458-7.95-5.947-9.566-7.912a48.732,48.732,0,0,0,9.309,9.066Z" fill="#0099b9"/>
      </g>
      <g id="Group_19" data-name="Group 19" transform="translate(0 -3347.331)">
        <path id="Path_62" data-name="Path 62" d="M483.431,3637.176a3.554,3.554,0,0,1-2.716.613,8.8,8.8,0,0,1-5.145-2.634c-2.551-2.85-3.939-8.784-3.939-8.784s7.223.562,9.556,3.591C484.433,3634.179,483.757,3636.937,483.431,3637.176Z" fill="#0099b9"/>
        <path id="Path_63" data-name="Path 63" d="M494.38,3646.593c-5.515-4.67-12.974-11.272-15.515-14.868a84.327,84.327,0,0,0,14.926,16.828Z" fill="#0099b9"/>
      </g>
      <g id="Group_20" data-name="Group 20" transform="translate(0 -3347.331)">
        <path id="Path_64" data-name="Path 64" d="M441.72,3601.13a3.546,3.546,0,0,1-2.715.612,8.8,8.8,0,0,1-5.145-2.633c-2.551-2.85-3.939-8.784-3.939-8.784s7.223.562,9.555,3.591C442.723,3598.133,442.046,3600.89,441.72,3601.13Z" fill="#0099b9"/>
        <path id="Path_65" data-name="Path 65" d="M452.67,3610.547c-5.515-4.67-12.974-11.272-15.516-14.869a84.339,84.339,0,0,0,14.927,16.829Z" fill="#0099b9"/>
      </g>
      <path id="Path_66" data-name="Path 66" d="M600.66,3661.941a3.546,3.546,0,0,1,1.645-2.246,8.792,8.792,0,0,1,5.609-1.4c3.795.471,8.741,4.033,8.741,4.033s-5.815,4.323-9.563,3.572C601.874,3664.859,600.572,3662.335,600.66,3661.941Z" transform="translate(0 -3347.331)" fill="#0099b9"/>
      <path id="Path_67" data-name="Path 67" d="M586.218,3662.036c7.226-.1,17.187-.027,21.466,1.014a84.337,84.337,0,0,0-22.31-2.878Z" transform="translate(0 -3347.331)" fill="#0099b9"/>
      <path id="Path_68" data-name="Path 68" d="M662.4,3617.251a3.546,3.546,0,0,1,1.645-2.246,8.794,8.794,0,0,1,5.609-1.395c3.795.471,8.741,4.033,8.741,4.033s-5.815,4.323-9.563,3.572C663.618,3620.169,662.316,3617.645,662.4,3617.251Z" transform="translate(0 -3347.331)" fill="#0099b9"/>
      <path id="Path_69" data-name="Path 69" d="M647.962,3617.346c7.226-.1,17.187-.027,21.466,1.014a84.327,84.327,0,0,0-22.309-2.879Z" transform="translate(0 -3347.331)" fill="#0099b9"/>
      <path id="Path_70" data-name="Path 70" d="M521.643,3645.251a5.1,5.1,0,0,1-3.873-.994,12.638,12.638,0,0,1-4.857-6.734c-1.4-5.313.709-13.811.709-13.811s8.871,5.445,9.872,10.844C524.886,3642.074,522.217,3645.158,521.643,3645.251Z" transform="translate(0 -3347.331)" fill="#0099b9"/>
      <path id="Path_71" data-name="Path 71" d="M529.485,3664.459c-4-9.581-9.217-22.9-10.114-29.168a121.166,121.166,0,0,0,8.078,31.289Z" transform="translate(0 -3347.331)" fill="#0099b9"/>
      <path id="Path_72" data-name="Path 72" d="M477.746,3592.775a3.548,3.548,0,0,1-2.776.206,8.8,8.8,0,0,1-4.7-3.364c-2.1-3.195-2.6-9.269-2.6-9.269s7.062,1.621,8.921,4.961C479.179,3589.959,478.1,3592.587,477.746,3592.775Z" transform="translate(0 -3347.331)" fill="#0099b9"/>
      <path id="Path_73" data-name="Path 73" d="M487.187,3603.705c-4.766-5.433-11.17-13.063-13.153-17a84.291,84.291,0,0,0,12.281,18.846Z" transform="translate(0 -3347.331)" fill="#0099b9"/>
      <path id="Path_74" data-name="Path 74" d="M639.682,3699.282c-4.035.006-10.6-1.962-13.384-2.859l.357.742-.943.454C629.071,3698.48,635.34,3699.981,639.682,3699.282Z" transform="translate(0 -3347.331)" fill="#0099b9"/>
      <path id="Path_75" data-name="Path 75" d="M485.871,3727.215a3.787,3.787,0,0,1,.858,2.839,12.114,12.114,0,0,1-2.866,6.365c-2.827,2.929-9.3,3.87-9.3,3.87s.8-7.428,3.831-10.138C482.615,3726.378,485.592,3726.887,485.871,3727.215Z" transform="translate(0 -3347.331)" fill="#0099b9"/>
      <path id="Path_76" data-name="Path 76" d="M400.112,3661.989a7.075,7.075,0,0,0,.394-5.539c-1.025-3.048-3.7-6.34-7.509-8.831-6.384-4.178-18.263-3.254-18.263-3.254s2.8,13.154,9.472,16.846C393.495,3666.35,399.738,3662.7,400.112,3661.989Z" transform="translate(0 -3347.331)" fill="#0099b9"/>
      <path id="Path_77" data-name="Path 77" d="M488.607,3686.728a5.131,5.131,0,0,0-1.582-3.7,12.728,12.728,0,0,0-7.448-3.806c-5.5-.58-13.641,2.818-13.641,2.818s6.777,8,12.306,8.17C485.939,3690.443,488.6,3687.314,488.607,3686.728Z" transform="translate(0 -3347.331)" fill="#0099b9"/>
      <path id="Path_78" data-name="Path 78" d="M454.672,3672.272a3.806,3.806,0,0,0,2.915-.63,9.424,9.424,0,0,0,3.812-4.879c1.2-3.919-.132-10.312-.132-10.312s-6.767,3.8-7.667,7.8C452.346,3669.811,454.247,3672.186,454.672,3672.272Z" transform="translate(0 -3347.331)" fill="#0099b9"/>
      <path id="Path_79" data-name="Path 79" d="M441.255,3700.781a6.036,6.036,0,0,1-1.368,4.533,14.967,14.967,0,0,1-8.209,5.411c-6.355,1.39-16.3-1.526-16.3-1.526s6.882-10.223,13.32-11.139C437.657,3696.787,441.174,3700.1,441.255,3700.781Z" transform="translate(0 -3347.331)" fill="#0099b9"/>
      <path id="Path_80" data-name="Path 80" d="M413.093,3724.107a5.521,5.521,0,0,1-1,4.2,13.338,13.338,0,0,1-7.546,4.517c-5.641,1.377-15.47-2.833-15.47-2.833s6.446-8.643,12.186-9.583C409.259,3719.1,412.984,3723.478,413.093,3724.107Z" transform="translate(0 -3347.331)" fill="#0099b9"/>
      <path id="Path_81" data-name="Path 81" d="M538.445,3677.281s14.773,10.966,8.581,12.614c-5.6,1.488-52.963-1.429-67.806-5.488C498.051,3687.3,538.445,3677.281,538.445,3677.281Z" transform="translate(0 -3347.331)" fill="#0099b9"/>
      <path id="Path_82" data-name="Path 82" d="M518.5,3688.092s-.408.246-1.168.694c-7.243,4.276-88.974,33.306-111.745,37.62,0,0,93.694-6.91,125.269-37.446" transform="translate(0 -3347.331)" fill="#0099b9"/>
      <path id="Path_83" data-name="Path 83" d="M499.5,3704.718s-11.086,21.524-16.291,25.552c0,0,19.586-10.717,22.646-26.123Z" transform="translate(0 -3347.331)" fill="#0099b9"/>
      <path id="Path_84" data-name="Path 84" d="M475.359,3714.151s-37.854-28.382-81.808-59.027c0,0,66.3,29.514,87.908,56.156Z" transform="translate(0 -3347.331)" fill="#0099b9"/>
      <path id="Path_85" data-name="Path 85" d="M448.277,3686.361c3.254-7.026,7.525-16.805,8.374-21.446A90.377,90.377,0,0,1,449.733,3688Z" transform="translate(0 -3347.331)" fill="#0099b9"/>
      <path id="Path_86" data-name="Path 86" d="M432.806,3700.9c6.864.01,18.035-3.338,22.766-4.863l-.608,1.261,1.6.772C450.854,3699.54,440.192,3702.093,432.806,3700.9Z" transform="translate(0 -3347.331)" fill="#0099b9"/>
      <path id="Path_87" data-name="Path 87" d="M561.192,3726.564l0-.029c-1.31-21.779-1.436-44.6,9.432-63.91,5.125-9.107,10.518-18.064,15.984-26.97,6.9-11.243,53.32-66.76,60.513-77.819-28.734,13.828-81.983,90.294-91.513,103.807-7.644-29.779-33.183-99.53-49.76-114.284,17.637,50.512,38.568,118.158,38.811,162.594.032,5.811-.373,11.606-.223,17.412,0,0,0,41.144-10.586,47.741h37.679C563.541,3775.106,561.621,3733.66,561.192,3726.564Z" transform="translate(0 -3347.331)" fill="#0099b9"/>
      <path id="Path_88" data-name="Path 88" d="M408.358,3618.7a3.971,3.971,0,0,1-1.61,2.663,10.134,10.134,0,0,1-6.263,1.568c-4.248-.189-10.111-4.7-10.111-4.7s6.287-4.92,10.51-4.413C406.762,3614.523,408.419,3618.245,408.358,3618.7Z" transform="translate(0 -3347.331)" fill="#0099b9"/>
      <path id="Path_89" data-name="Path 89" d="M656.663,3637.43a5.784,5.784,0,0,0,3.344,3.069,14.773,14.773,0,0,0,9.41-.369c5.87-2,12.233-10.712,12.233-10.712s-10.817-4.313-16.521-1.876C657.189,3630.937,656.393,3636.825,656.663,3637.43Z" transform="translate(0 -3347.331)" fill="#0099b9"/>
      <path id="Path_90" data-name="Path 90" d="M676.8,3585.775a5.75,5.75,0,0,1-1.717-4.171,14.944,14.944,0,0,1,3.54-8.727c3.858-4.85,13.256-7.166,13.256-7.166s1.2,10.859-3.01,15.408C683.02,3587.452,677.275,3586.231,676.8,3585.775Z" transform="translate(0 -3347.331)" fill="#0099b9"/>
      <path id="Path_91" data-name="Path 91" d="M454.572,3559.108a5.328,5.328,0,0,0,1.816-3.761,13.839,13.839,0,0,0-2.79-8.261c-3.3-4.695-12.61-8.1-12.61-8.1s-.95,10.717,2.685,15.153C448.734,3560.314,454.111,3559.5,454.572,3559.108Z" transform="translate(0 -3347.331)" fill="#0099b9"/>
      <path id="Path_92" data-name="Path 92" d="M432.071,3576.957a5.924,5.924,0,0,0,1.679-4.332,15.4,15.4,0,0,0-3.831-8.912c-4.077-4.912-14.706-7.858-14.706-7.858s-.1,11.969,4.329,16.564C425.7,3578.816,431.6,3577.436,432.071,3576.957Z" transform="translate(0 -3347.331)" fill="#0099b9"/>
      <path id="Path_93" data-name="Path 93" d="M527.842,3508.219a6.682,6.682,0,0,1-4.679-2.364,16.564,16.564,0,0,1-4.318-9.99c-.292-7.2,4.8-17.48,4.8-17.48s9.821,9.472,9.579,16.666C532.889,3505.066,528.6,3508.262,527.842,3508.219Z" transform="translate(0 -3347.331)" fill="#0099b9"/>
      <path id="Path_94" data-name="Path 94" d="M472.236,3542.276a4.144,4.144,0,0,1-3.237-.328,10.284,10.284,0,0,1-4.725-4.827c-1.77-4.1-1.108-11.2-1.108-11.2s7.8,3.3,9.259,7.523C474.459,3539.326,472.686,3542.132,472.236,3542.276Z" transform="translate(0 -3347.331)" fill="#0099b9"/>
      <path id="Path_95" data-name="Path 95" d="M509.51,3554.409a5.274,5.274,0,0,1-4.131-.237,13.507,13.507,0,0,1-5.746-6.389c-2.425-5.112-.471-15.127-.471-15.127s9.381,4.655,11.418,9.934C513.415,3549.94,510.077,3554.2,509.51,3554.409Z" transform="translate(0 -3347.331)" fill="#0099b9"/>
      <path id="Path_96" data-name="Path 96" d="M639.715,3562.462a6.892,6.892,0,0,0,5.036,1.955c3.116-.084,6.916-1.639,10.285-4.477,5.65-4.759,8.754-17.713,8.754-17.713s-13.665.448-18.943,5.616C637.5,3555.037,639.155,3561.907,639.715,3562.462Z" transform="translate(0 -3347.331)" fill="#0099b9"/>
      <path id="Path_97" data-name="Path 97" d="M615.291,3622.039a6.577,6.577,0,0,0,5.032,1.1,15.9,15.9,0,0,0,8.756-5.771c4.4-5.35,4.957-18.088,4.957-18.088s-12.621,2.456-16.6,8.138C611.9,3615.333,614.672,3621.6,615.291,3622.039Z" transform="translate(0 -3347.331)" fill="#0099b9"/>
      <path id="Path_98" data-name="Path 98" d="M526.619,3607.41c-2.64,0-45.16-3.317-101.168-35.707,0,0,29.573,38.054,107.037,48.031Z" transform="translate(0 -3347.331)" fill="#0099b9"/>
      <path id="Path_99" data-name="Path 99" d="M478.5,3605.65s-65.883,14.534-71.751,15.708c0,0,72.117-.056,82.314-12.774Z" transform="translate(0 -3347.331)" fill="#0099b9"/>
      <path id="Path_100" data-name="Path 100" d="M587.039,3635.059s24.554-6.486,37.295-22.933c0,0-9.034,26.176-43.55,32.43Z" transform="translate(0 -3347.331)" fill="#0099b9"/>
      <path id="Path_101" data-name="Path 101" d="M572.815,3657.358s79.853-40.88,111.871-79.52c0,0-21.927,50.917-118.868,94.081Z" transform="translate(0 -3347.331)" fill="#0099b9"/>
      <path id="Path_102" data-name="Path 102" d="M472.895,3640.083a6.218,6.218,0,0,1-2.222,4.343,15.922,15.922,0,0,1-9.626,3.159c-6.669.183-16.543-6.69-16.543-6.69s9.486-7.905,16.15-7.59C469.932,3633.744,472.94,3639.373,472.895,3640.083Z" transform="translate(0 -3347.331)" fill="#0099b9"/>
      <path id="Path_103" data-name="Path 103" d="M493.278,3668.163a4.356,4.356,0,0,1-1.993,2.767,10.521,10.521,0,0,1-6.867,1.024c-4.531-.694-10.437-6.727-10.437-6.727s7.307-4.366,11.78-3.322C491.987,3663.357,493.388,3667.671,493.278,3668.163Z" transform="translate(0 -3347.331)" fill="#0099b9"/>
      <path id="Path_104" data-name="Path 104" d="M549.116,3671.1s-66.451-32.952-83.18-32.269c0,0,70.693,37.284,83.851,50.071Z" transform="translate(0 -3347.331)" fill="#0099b9"/>
      <path id="Path_105" data-name="Path 105" d="M513.668,3660.928s-15.6,7.974-29.716,5.393c0,0,16.693,9.286,37.3-3.394Z" transform="translate(0 -3347.331)" fill="#0099b9"/>
      <path id="Path_106" data-name="Path 106" d="M522.662,3582.628c-1.227-.145-37.18-14.349-53.833-47.109,0,0,14.213,40.246,53.754,58.3Z" transform="translate(0 -3347.331)" fill="#0099b9"/>
      <path id="Path_107" data-name="Path 107" d="M621.876,3643.658s30.577-4.169,38.916-10.656c0,0-19.921,22.239-47.255,19.459S621.876,3643.658,621.876,3643.658Z" transform="translate(0 -3347.331)" fill="#0099b9"/>
      <path id="Path_108" data-name="Path 108" d="M505.281,3580.651c-4.633,2.162-48.968-18.355-55.763-27.312,0,0,9.293,21.057,62.4,34.106Z" transform="translate(0 -3347.331)" fill="#0099b9"/>
      <path id="Path_109" data-name="Path 109" d="M528.714,3591.162s-1.842-88.445-2.948-97.29c0,0,13.267,72.23,10.687,106.871S528.714,3591.162,528.714,3591.162Z" transform="translate(0 -3347.331)" fill="#0099b9"/>
      <path id="Path_110" data-name="Path 110" d="M592.3,3592.257a3.573,3.573,0,0,0,2.065,1.893,11.438,11.438,0,0,0,6.589.168c3.651-1.206,7.1-6.332,7.1-6.332s-6.647-2.364-10.2-.892C592.918,3589.143,592.131,3591.885,592.3,3592.257Z" transform="translate(0 -3347.331)" fill="#0099b9"/>
      <path id="Path_111" data-name="Path 111" d="M548.658,3564.625a5.753,5.753,0,0,0,2.948-3.415,14.945,14.945,0,0,0-.6-9.4c-2.125-5.821-10.885-11.981-10.885-11.981s-3.991,10.914-1.441,16.559C542.231,3564.249,548.067,3564.907,548.658,3564.625Z" transform="translate(0 -3347.331)" fill="#0099b9"/>
      <path id="Path_112" data-name="Path 112" d="M564.174,3625.964a5.75,5.75,0,0,1-1.717-4.171,14.949,14.949,0,0,1,3.54-8.727c3.858-4.849,13.256-7.166,13.256-7.166s1.2,10.859-3.01,15.408C570.39,3627.641,564.645,3626.42,564.174,3625.964Z" transform="translate(0 -3347.331)" fill="#0099b9"/>
      <path id="Path_113" data-name="Path 113" d="M575.6,3515.863a6.16,6.16,0,0,1-4.492-1.781,16.014,16.014,0,0,1-4.091-9.222c-.866-6.582,4.342-15.548,4.342-15.548s9.258,7.16,9.634,13.785C581.515,3512.32,576.3,3515.839,575.6,3515.863Z" transform="translate(0 -3347.331)" fill="#0099b9"/>
      <path id="Path_114" data-name="Path 114" d="M565.691,3574.363a5.133,5.133,0,0,1-2.652-3.032,12.733,12.733,0,0,1-.2-8.361c1.865-5.21,8.456-11.07,8.456-11.07s4.268,9.576,2.024,14.632C570.2,3573.571,566.221,3574.613,565.691,3574.363Z" transform="translate(0 -3347.331)" fill="#0099b9"/>
      <path id="Path_115" data-name="Path 115" d="M567.832,3538.541a3.55,3.55,0,0,1-2.425,1.369,8.8,8.8,0,0,1-5.685-1.041c-3.263-1.995-6.3-7.278-6.3-7.278s7.079-1.542,10.185.687C567.929,3535.382,568.075,3538.218,567.832,3538.541Z" transform="translate(0 -3347.331)" fill="#0099b9"/>
      <path id="Path_116" data-name="Path 116" d="M592.047,3546.611a4.943,4.943,0,0,0,3.83.6,12.254,12.254,0,0,0,6.906-4.134c3.281-4.195,4.663-12.569,4.663-12.569s-9.986,1.448-12.947,5.871C590.377,3542.539,591.572,3546.308,592.047,3546.611Z" transform="translate(0 -3347.331)" fill="#0099b9"/>
      <path id="Path_117" data-name="Path 117" d="M621.467,3538.286a5.683,5.683,0,0,0,4.344.953,13.73,13.73,0,0,0,7.559-4.982c3.8-4.619,4.279-15.616,4.279-15.616s-10.895,2.121-14.33,7.026C618.538,3532.5,620.932,3537.9,621.467,3538.286Z" transform="translate(0 -3347.331)" fill="#0099b9"/>
      <path id="Path_118" data-name="Path 118" d="M535.564,3615.173s3.474,18.067,7.644,13.2c3.769-4.4,21.683-48.343,24.463-63.477C562.111,3583.122,535.564,3615.173,535.564,3615.173Z" transform="translate(0 -3347.331)" fill="#0099b9"/>
      <path id="Path_119" data-name="Path 119" d="M561.35,3582.52s-14.206-20.178-15.83-27.145c.675,4.682,3.672,23.045,10.5,34.095Z" transform="translate(0 -3347.331)" fill="#0099b9"/>
      <path id="Path_120" data-name="Path 120" d="M418.159,3601.018a5.916,5.916,0,0,0-.028-4.64,15.376,15.376,0,0,0-6.826-6.874c-5.587-3.068-16.54-1.908-16.54-1.908s4.3,11.153,10.093,13.8C412.928,3605.078,417.893,3601.637,418.159,3601.018Z" transform="translate(0 -3347.331)" fill="#0099b9"/>
      <path id="Path_121" data-name="Path 121" d="M450.835,3615.481s-33.7-14.767-38.41-19.491c2.833,3.379,14.219,16.461,25.053,21.866Z" transform="translate(0 -3347.331)" fill="#0099b9"/>
      <path id="Path_122" data-name="Path 122" d="M555.625,3599.646s.376-.247,1.069-.71c6.606-4.412,55.56-45.807,68.558-63.417,0,0-16.6,38.549-77.5,77.1" transform="translate(0 -3347.331)" fill="#0099b9"/>
      <path id="Path_123" data-name="Path 123" d="M574,3592.387s22.856-.617,28.416-3.4c0,0-17.142,12.277-31.5,8.571Z" transform="translate(0 -3347.331)" fill="#0099b9"/>
      <path id="Path_124" data-name="Path 124" d="M544.967,3647.62s22.183-26.953,26.566-31.142c0,0-18.282,32.387-22.567,37.37S544.967,3647.62,544.967,3647.62Z" transform="translate(0 -3347.331)" fill="#0099b9"/>
      <path id="Path_125" data-name="Path 125" d="M501.182,3635.612a4,4,0,0,1-3.077-.621,10.4,10.4,0,0,1-3.679-5.425c-1.312-4.109.985-10.442.985-10.442s6.744,3.512,7.748,7.7C504.557,3632.665,501.628,3635.516,501.182,3635.612Z" transform="translate(0 -3347.331)" fill="#0099b9"/>
      <path id="Path_126" data-name="Path 126" d="M506.276,3655.1s-7.007-23.262-7.733-27.419c0,0,11.659,23.109,12.883,27.516S506.276,3655.1,506.276,3655.1Z" transform="translate(0 -3347.331)" fill="#0099b9"/>
      <path id="Path_127" data-name="Path 127" d="M591.916,3575.709s-10.418-20.624-17.213-62.4c0,0,4.859,49.734,12.272,66.412Z" transform="translate(0 -3347.331)" fill="#0099b9"/>
      <path id="Path_128" data-name="Path 128" d="M581.029,3544.408c-6.626-2.885-15.67-7.06-19.139-9.773a84.282,84.282,0,0,0,19.139,11.819Z" transform="translate(0 -3347.331)" fill="#0099b9"/>
      <g id="Group_21" data-name="Group 21" transform="translate(0 -3347.331)">
        <path id="Path_129" data-name="Path 129" d="M444.2,3668.1a3.192,3.192,0,0,1-2.471.42,7.919,7.919,0,0,1-4.5-2.614c-2.156-2.683-3.12-8.085-3.12-8.085s6.467.851,8.418,3.686C445.25,3665.454,444.509,3667.9,444.2,3668.1Z" fill="#0099b9"/>
        <path id="Path_130" data-name="Path 130" d="M453.6,3677.091c-4.734-4.463-11.123-10.755-13.236-14.111a75.925,75.925,0,0,0,12.613,15.845Z" fill="#0099b9"/>
      </g>
      <path id="Path_131" data-name="Path 131" d="M456.571,3727.367a3.8,3.8,0,0,0-2.945-.47,9.424,9.424,0,0,0-5.321,3.168c-2.533,3.22-3.611,9.66-3.611,9.66s7.684-1.094,9.97-4.492C457.847,3730.5,456.936,3727.6,456.571,3727.367Z" transform="translate(0 -3347.331)" fill="#0099b9"/>
      <path id="Path_132" data-name="Path 132" d="M467.634,3716.55c-5.578,5.37-13.1,12.938-15.572,16.957A90.316,90.316,0,0,1,466.87,3714.5Z" transform="translate(0 -3347.331)" fill="#0099b9"/>
      <g id="Group_22" data-name="Group 22" transform="translate(0 -3347.331)">
        <path id="Path_133" data-name="Path 133" d="M462.771,3729.419a1.854,1.854,0,0,1,1.424.291,4.6,4.6,0,0,1,1.883,2.359,12.91,12.91,0,0,1-.011,5.027s-3.318-1.819-3.778-3.762C461.65,3730.63,462.564,3729.463,462.771,3729.419Z" fill="#0099b9"/>
        <path id="Path_134" data-name="Path 134" d="M459.581,3722.585c1.622,3.407,3.755,8.151,4.192,10.409a44.055,44.055,0,0,0-3.491-11.216Z" fill="#0099b9"/>
      </g>
      <path id="Path_135" data-name="Path 135" d="M624,3725.627a3.8,3.8,0,0,0-1.3,2.683,9.428,9.428,0,0,0,1.489,6.01c2.348,3.358,8.2,6.257,8.2,6.257s1.181-7.672-1.408-10.845C627.37,3725.315,624.328,3725.346,624,3725.627Z" transform="translate(0 -3347.331)" fill="#0099b9"/>
      <path id="Path_136" data-name="Path 136" d="M616.854,3711.9c3.522,6.9,8.584,16.29,11.714,19.821a90.336,90.336,0,0,1-13.9-19.685Z" transform="translate(0 -3347.331)" fill="#0099b9"/>
      <g id="Group_23" data-name="Group 23" transform="translate(0 -3347.331)">
        <path id="Path_137" data-name="Path 137" d="M627.76,3720.288a1.851,1.851,0,0,1,.692-1.278,4.586,4.586,0,0,1,2.8-1.118,12.889,12.889,0,0,1,4.808,1.468s-2.7,2.648-4.7,2.524C628.594,3721.712,627.742,3720.5,627.76,3720.288Z" fill="#0099b9"/>
        <path id="Path_138" data-name="Path 138" d="M620.295,3721.359c3.731-.564,8.89-1.23,11.177-.993a44.036,44.036,0,0,0-11.746.088Z" fill="#0099b9"/>
      </g>
      <path id="Path_139" data-name="Path 139" d="M437.913,3631.528a3.591,3.591,0,0,1,1.233,2.532,8.9,8.9,0,0,1-1.4,5.678c-2.214,3.173-7.735,5.918-7.735,5.918s-1.123-7.244,1.318-10.244C434.729,3631.237,437.6,3631.263,437.913,3631.528Z" transform="translate(0 -3347.331)" fill="#0099b9"/>
      <path id="Path_140" data-name="Path 140" d="M444.646,3618.56c-3.319,6.515-8.09,15.392-11.042,18.73a85.373,85.373,0,0,0,13.109-18.6Z" transform="translate(0 -3347.331)" fill="#0099b9"/>
      <g id="Group_24" data-name="Group 24" transform="translate(0 -3347.331)">
        <path id="Path_141" data-name="Path 141" d="M435.644,3626.3a1.245,1.245,0,0,0-.466-.86,3.087,3.087,0,0,0-1.887-.75,8.683,8.683,0,0,0-3.234.991s1.821,1.78,3.161,1.7C435.084,3627.258,435.657,3626.44,435.644,3626.3Z" fill="#0099b9"/>
        <path id="Path_142" data-name="Path 142" d="M440.668,3627.014a41.909,41.909,0,0,0-7.522-.661,29.646,29.646,0,0,1,7.9.052Z" fill="#0099b9"/>
      </g>
      <g id="Group_25" data-name="Group 25" transform="translate(0 -3347.331)">
        <path id="Path_143" data-name="Path 143" d="M595.039,3678.781a2.076,2.076,0,0,1-.443-1.571,5.157,5.157,0,0,1,1.383-3.095c1.59-1.583,5.023-2.579,5.023-2.579s-.105,4.248-1.807,5.708C596.825,3679.276,595.189,3678.965,595.039,3678.781Z" fill="#0099b9"/>
        <path id="Path_144" data-name="Path 144" d="M589.862,3685.486c2.565-3.375,6.2-7.948,8.229-9.548a49.458,49.458,0,0,0-9.4,9.264Z" fill="#0099b9"/>
      </g>
      <g id="Group_26" data-name="Group 26" transform="translate(0 -3347.331)">
        <path id="Path_145" data-name="Path 145" d="M643.48,3634.783a2.086,2.086,0,0,1-.443-1.571,5.164,5.164,0,0,1,1.384-3.095c1.59-1.583,5.023-2.579,5.023-2.579s-.106,4.248-1.808,5.707C645.267,3635.278,643.63,3634.967,643.48,3634.783Z" fill="#0099b9"/>
        <path id="Path_146" data-name="Path 146" d="M638.3,3641.488c2.565-3.375,6.2-7.948,8.229-9.548a49.479,49.479,0,0,0-9.395,9.263Z" fill="#0099b9"/>
      </g>
      <g id="Group_27" data-name="Group 27" transform="translate(0 -3347.331)">
        <path id="Path_147" data-name="Path 147" d="M581.828,3677.588a1.409,1.409,0,0,1,.033-1.1,3.492,3.492,0,0,1,1.52-1.716,9.8,9.8,0,0,1,3.762-.645s-.929,2.719-2.323,3.315C582.88,3678.269,581.888,3677.737,581.828,3677.588Z" fill="#0099b9"/>
        <path id="Path_148" data-name="Path 148" d="M577.131,3680.863a47.2,47.2,0,0,1,7.242-4.49,33.469,33.469,0,0,0-7.937,4.07Z" fill="#0099b9"/>
      </g>
      <g id="Group_28" data-name="Group 28" transform="translate(0 -3347.331)">
        <path id="Path_149" data-name="Path 149" d="M459.252,3676.53a1.4,1.4,0,0,1,.414-1.023,3.488,3.488,0,0,1,2.021-1.08,9.8,9.8,0,0,1,3.752.7s-1.816,2.226-3.33,2.3C460,3677.534,459.256,3676.69,459.252,3676.53Z" fill="#0099b9"/>
        <path id="Path_150" data-name="Path 150" d="M453.709,3677.968a47.227,47.227,0,0,1,8.351-1.693,33.455,33.455,0,0,0-8.856,1.058Z" fill="#0099b9"/>
      </g>
      <path id="Path_151" data-name="Path 151" d="M672.251,3710.3a2.684,2.684,0,0,0,2.017.6,6.646,6.646,0,0,0,4.008-1.732c2.064-2.022,3.4-6.428,3.4-6.428s-5.474.068-7.382,2.236C671.643,3707.987,672.017,3710.1,672.251,3710.3Z" transform="translate(0 -3347.331)" fill="#0099b9"/>
      <path id="Path_152" data-name="Path 152" d="M663.531,3716.855c4.388-3.248,10.337-7.857,12.431-10.444a63.731,63.731,0,0,1-12.083,11.951Z" transform="translate(0 -3347.331)" fill="#0099b9"/>
      <g id="Group_29" data-name="Group 29" transform="translate(0 -3347.331)">
        <path id="Path_153" data-name="Path 153" d="M667.182,3704.177a2.252,2.252,0,0,1-1.671-.575,5.588,5.588,0,0,1-1.9-3.138c-.428-2.39.8-6.059.8-6.059s3.716,2.712,3.965,5.126C668.723,3702.892,667.438,3704.156,667.182,3704.177Z" fill="#0099b9"/>
        <path id="Path_154" data-name="Path 154" d="M669.957,3712.916c-1.422-4.362-3.25-10.416-3.424-13.207a53.536,53.536,0,0,0,2.452,14.069Z" fill="#0099b9"/>
      </g>
      <g id="Group_30" data-name="Group 30" transform="translate(0 -3347.331)">
        <path id="Path_155" data-name="Path 155" d="M673.646,3714.48a.989.989,0,0,1,.6-.493,2.455,2.455,0,0,1,1.616.014,6.91,6.91,0,0,1,2.084,1.7s-1.876.764-2.838.3C673.771,3715.355,673.595,3714.58,673.646,3714.48Z" fill="#0099b9"/>
        <path id="Path_156" data-name="Path 156" d="M669.73,3713.5a33.169,33.169,0,0,1,5.74,1.774,23.525,23.525,0,0,0-5.838-2.338Z" fill="#0099b9"/>
      </g>
      <path id="Path_157" data-name="Path 157" d="M408.765,3678.166a3.807,3.807,0,0,0-2.187-2.027,9.426,9.426,0,0,0-6.184-.325c-3.9,1.269-8.372,6.022-8.372,6.022s7,3.363,10.785,1.81C408.083,3681.483,408.938,3678.563,408.765,3678.166Z" transform="translate(0 -3347.331)" fill="#0099b9"/>
      <path id="Path_158" data-name="Path 158" d="M423.975,3675.325c-7.622,1.364-18.083,3.472-22.372,5.439a90.342,90.342,0,0,1,22.879-7.572Z" transform="translate(0 -3347.331)" fill="#0099b9"/>
      <g id="Group_31" data-name="Group 31" transform="translate(0 -3347.331)">
        <path id="Path_159" data-name="Path 159" d="M411.35,3689.133a3.193,3.193,0,0,1,1.761,1.783,7.918,7.918,0,0,1,.439,5.185c-.962,3.306-4.834,7.193-4.834,7.193s-3.011-5.786-1.808-9.01C408.583,3689.795,411.012,3689,411.35,3689.133Z" fill="#0099b9"/>
        <path id="Path_160" data-name="Path 160" d="M413.329,3676.283c-.941,6.438-2.432,15.28-3.969,18.935a75.89,75.89,0,0,0,5.747-19.419Z" fill="#0099b9"/>
      </g>
      <g id="Group_32" data-name="Group 32" transform="translate(0 -3347.331)">
        <path id="Path_161" data-name="Path 161" d="M409.627,3671.972a1.405,1.405,0,0,1-1.075.247,3.489,3.489,0,0,1-2.045-1.036,9.8,9.8,0,0,1-1.576-3.476s2.865.211,3.8,1.408C410.02,3670.782,409.756,3671.876,409.627,3671.972Z" fill="#0099b9"/>
        <path id="Path_162" data-name="Path 162" d="M413.984,3675.688a47.215,47.215,0,0,1-6.176-5.87,33.436,33.436,0,0,0,5.945,6.648Z" fill="#0099b9"/>
      </g>
      <g id="Group_33" data-name="Group 33" transform="translate(0 -3347.331)">
        <path id="Path_163" data-name="Path 163" d="M473.287,3564.289a2.082,2.082,0,0,1-1.564-.468,5.162,5.162,0,0,1-1.872-2.826c-.484-2.191.514-5.623.514-5.623s3.531,2.365,3.851,4.584C474.662,3563.046,473.523,3564.261,473.287,3564.289Z" fill="#0099b9"/>
        <path id="Path_164" data-name="Path 164" d="M476.174,3572.253c-1.475-3.974-3.388-9.494-3.652-12.064a49.46,49.46,0,0,0,2.787,12.9Z" fill="#0099b9"/>
      </g>
      <g id="Group_34" data-name="Group 34" transform="translate(0 -3347.331)">
        <path id="Path_165" data-name="Path 165" d="M460.311,3621a2.079,2.079,0,0,1,.235,1.615,5.154,5.154,0,0,1-1.771,2.89c-1.782,1.364-5.314,1.908-5.314,1.908s.653-4.2,2.53-5.426C458.6,3620.275,460.185,3620.795,460.311,3621Z" fill="#0099b9"/>
        <path id="Path_166" data-name="Path 166" d="M466.311,3615.017c-2.98,3.015-7.176,7.08-9.394,8.4a49.453,49.453,0,0,0,10.514-7.971Z" fill="#0099b9"/>
      </g>
      <g id="Group_35" data-name="Group 35" transform="translate(0 -3347.331)">
        <path id="Path_167" data-name="Path 167" d="M480.143,3546.807a2.621,2.621,0,0,1-1.657-1.218,6.5,6.5,0,0,1-1.024-4.147c.354-2.8,2.993-6.455,2.993-6.455s3.187,4.3,2.627,7.072C482.3,3545.914,480.435,3546.873,480.143,3546.807Z" fill="#0099b9"/>
        <path id="Path_168" data-name="Path 168" d="M481.52,3556.155c-.066-5.341-1.323-11.376-.547-14.537-.68,2.348-2.114,4.33-2.158,12.506Z" fill="#0099b9"/>
      </g>
      <g id="Group_36" data-name="Group 36" transform="translate(0 -3347.331)">
        <path id="Path_169" data-name="Path 169" d="M625.244,3655.817a2.084,2.084,0,0,1,1.5-.652,5.156,5.156,0,0,1,3.254.95c1.784,1.36,3.238,4.625,3.238,4.625s-4.223.473-5.9-1.014C625,3657.655,625.083,3655.991,625.244,3655.817Z" fill="#0099b9"/>
        <path id="Path_170" data-name="Path 170" d="M617.9,3651.6c3.693,2.082,8.718,5.062,10.578,6.854a49.434,49.434,0,0,0-10.454-8.048Z" fill="#0099b9"/>
      </g>
      <g id="Group_37" data-name="Group 37" transform="translate(0 -3347.331)">
        <path id="Path_171" data-name="Path 171" d="M667.07,3680.186a2.648,2.648,0,0,1-.619-1.982,6.557,6.557,0,0,1,1.648-3.982c1.964-2.068,6.29-3.458,6.29-3.458s.018,5.4-2.092,7.319C669.358,3680.75,667.268,3680.413,667.07,3680.186Z" fill="#0099b9"/>
        <path id="Path_172" data-name="Path 172" d="M660.731,3688.891c3.139-4.38,7.6-10.322,10.116-12.427a62.833,62.833,0,0,0-11.608,12.107Z" fill="#0099b9"/>
      </g>
      <g id="Group_38" data-name="Group 38" transform="translate(0 -3347.331)">
        <path id="Path_173" data-name="Path 173" d="M684.515,3676.075a2.08,2.08,0,0,1-.944-1.332,5.161,5.161,0,0,1,.266-3.38c.968-2.023,3.868-4.113,3.868-4.113s1.325,4.038.21,5.984C686.364,3675.942,684.718,3676.2,684.515,3676.075Z" fill="#0099b9"/>
        <path id="Path_174" data-name="Path 174" d="M681.884,3684.127c1.285-4.039,3.179-9.566,4.553-11.753a49.446,49.446,0,0,0-5.747,11.876Z" fill="#0099b9"/>
      </g>
      <g id="Group_39" data-name="Group 39" transform="translate(0 -3347.331)">
        <path id="Path_175" data-name="Path 175" d="M608.658,3696.841a2.863,2.863,0,0,1,.391-2.213,7.1,7.1,0,0,1,3.566-3.011c2.917-1.011,7.77-.195,7.77-.195s-2.671,5.2-5.654,6C610.578,3698.522,608.735,3697.159,608.658,3696.841Z" fill="#0099b9"/>
        <path id="Path_176" data-name="Path 176" d="M598.23,3702.06c5.2-2.652,12.441-6.148,15.912-6.919a68.082,68.082,0,0,0-17.188,5.869Z" fill="#0099b9"/>
      </g>
      <g id="Group_40" data-name="Group 40" transform="translate(0 -3347.331)">
        <path id="Path_177" data-name="Path 177" d="M479.261,3652.9a2.869,2.869,0,0,1-.642,2.154,7.1,7.1,0,0,1-3.888,2.581c-3.014.671-7.741-.7-7.741-.7s3.25-4.864,6.3-5.309C477.546,3651.01,479.221,3652.577,479.261,3652.9Z" fill="#0099b9"/>
        <path id="Path_178" data-name="Path 178" d="M490.219,3648.912c-5.468,2.038-13.064,4.681-16.6,5.049a68.059,68.059,0,0,0,17.748-3.859Z" fill="#0099b9"/>
      </g>
      <g id="Group_41" data-name="Group 41" transform="translate(0 -3347.331)">
        <path id="Path_179" data-name="Path 179" d="M532.081,3706.438a1.933,1.933,0,0,1,1.51-.145,4.79,4.79,0,0,1,2.6,1.776,13.469,13.469,0,0,1,1.53,5.021s-3.869-.8-4.923-2.6C531.333,3707.991,531.888,3706.545,532.081,3706.438Z" fill="#0099b9"/>
        <path id="Path_180" data-name="Path 180" d="M526.8,3700.595c2.664,2.9,6.247,6.985,7.375,9.1a45.978,45.978,0,0,0-6.922-10.124Z" fill="#0099b9"/>
      </g>
      <g id="Group_42" data-name="Group 42" transform="translate(0 -3347.331)">
        <path id="Path_181" data-name="Path 181" d="M565.274,3546.083a2.573,2.573,0,0,1-.577,1.935,6.373,6.373,0,0,1-3.49,2.318c-2.707.6-6.952-.626-6.952-.626s2.919-4.368,5.661-4.768C563.735,3544.386,565.238,3545.792,565.274,3546.083Z" fill="#0099b9"/>
        <path id="Path_182" data-name="Path 182" d="M575.114,3542.5c-4.91,1.83-11.731,4.2-14.907,4.534a61.157,61.157,0,0,0,15.937-3.466Z" fill="#0099b9"/>
      </g>
      <g id="Group_43" data-name="Group 43" transform="translate(0 -3347.331)">
        <path id="Path_183" data-name="Path 183" d="M496.834,3597.489a2.35,2.35,0,0,1-1.827-.223,5.82,5.82,0,0,1-2.617-2.786c-.955-2.342-.5-6.346-.5-6.346s4.373,1.958,5.151,4.363C498.126,3595.846,497.09,3597.412,496.834,3597.489Z" fill="#0099b9"/>
        <path id="Path_184" data-name="Path 184" d="M501.556,3605.791c-2.395-4.136-5.569-9.908-6.351-12.713a55.744,55.744,0,0,0,5.547,13.8Z" fill="#0099b9"/>
      </g>
      <g id="Group_44" data-name="Group 44" transform="translate(0 -3347.331)">
        <path id="Path_185" data-name="Path 185" d="M543.756,3509.106a5.521,5.521,0,0,1-1.322-4.124,13.678,13.678,0,0,1,3.373-8.335c4.064-4.346,13.069-7.314,13.069-7.314s.124,11.272-4.249,15.3C548.539,3510.247,544.172,3509.578,543.756,3509.106Z" fill="#0099b9"/>
        <path id="Path_186" data-name="Path 186" d="M530.67,3527.371c6.478-9.19,15.682-21.657,20.906-26.091a131.2,131.2,0,0,0-24.024,25.448Z" fill="#0099b9"/>
      </g>
      <path id="Path_187" data-name="Path 187" d="M595.976,3542.14c-3.243,4.588-10.77,10.463-14.028,12.9l1.13.191-.244,1.436C586.518,3553.547,593.273,3547.635,595.976,3542.14Z" transform="translate(0 -3347.331)" fill="#0099b9"/>
      <path id="Path_188" data-name="Path 188" d="M623,3800.7a25.151,25.151,0,0,1-13.759-9.865c-3.691-5.9-9.467-8.784-15.733-10.971a1.959,1.959,0,0,0-.655-.12c-.12-.01-.249.1-.683.313a8.71,8.71,0,0,1,4.282,6.367,2.857,2.857,0,0,0,1.855,1.754c3.432.793,4.226,3.663,5.176,6.45a12.217,12.217,0,0,1-1.264-1.661,6.139,6.139,0,0,0-5.306-3.571c-.959-.065-1.855-1.181-3.027-2,1.163,4.485.019,9.828,5.759,12.125-1.523-.322-3.046-.645-4.725-1a18.722,18.722,0,0,0,4.835,10.067,17.71,17.71,0,0,1-7.483-10.556,109.107,109.107,0,0,1-2.215-10.8,14.764,14.764,0,0,0-7.3-10.814c-2.944-1.735-5.86-3.525-8.9-5.362-.572,4.181,1.532,7,5.214,7.8a8.926,8.926,0,0,1,3.4,2.095c-1.394-.3-2.787-.6-4.189-.9-.13.3-.259.582-.388.877a57.95,57.95,0,0,0,5.084,3.839c2.455,1.476,3.691,3.451,3.378,6.311-.36,3.221.36,5.878,3.285,7.8.812.535,1.07,1.919,1.753,2.519-1.578-1.2-3.386-2.187-4.66-3.654a8.348,8.348,0,0,1-2.067-4.522c-.295-4.3-2.547-6.5-6.395-8.028-1.928-.766-3.571-2.6-4.992-4.263-1.449-1.689-2.353-3.848-3.746-5.6-.563-.72-1.8-.905-2.732-1.329.176.987.037,2.205.572,2.934,1.726,2.363,3.728,4.522,5.574,6.792,2.168,2.685,3.728,5.555,3.506,9.228a3.9,3.9,0,0,0,3.5,4.484,3.249,3.249,0,0,1,2.823,3.092c.268,2.519.425,5.047.628,7.575-.185.019-.369.037-.545.065-.184-1.5-.378-3-.562-4.494-.323-2.648-1.4-4.715-4.116-5.647-2.6-.886-3.728-2.768-3.783-5.5a9.524,9.524,0,0,0-3.036-7.05c-.508,3.82-.941,7.124-1.311,9.948-1.088-1.606-.978-1.569-.175-3.968a8.741,8.741,0,0,0,.083-3.258c-.092-1.421-.332-2.832-.508-4.253.213-.121.416-.231.628-.351-1.827-1.191-3.645-2.39-5.472-3.581l-.572.49a11.915,11.915,0,0,0,.637,1.679c1.744,3.174,2.786,6.589,2.15,10.169-.692,3.959,1.781,6.229,4.161,8.351,2.5,2.224,2.907,4.78,2.372,7.714s-1.237,5.832-1.975,9.256c0-3.655.738-7.106-.2-10-.95-2.935-3.571-5.324-5.952-7.881-.073,3.424-1.135,5.9-4.392,6.82.018.092-.111-.148-.046-.259,3.183-4.558,1.808-9.929,2.5-14.9.452-3.239-1.431-5.989-4.015-8.1-1.734,2.427-3.377,4.706-5,7a1.428,1.428,0,0,0-.249.83c.258,3.017.554,6.035.83,9.052-.267.065-.544.13-.812.194-.489-2.307-.978-4.623-1.531-7.244-3.405,3.23-4,7.281-2.067,10.861a26.062,26.062,0,0,1,2.242,4.873c.295,1.024-.129,2.251-.268,3.857-1.476-2.916-2.611-5.168-3.746-7.419a15.372,15.372,0,0,1,.092-14.691,55.933,55.933,0,0,0,2.7-5.905,3.56,3.56,0,0,0-.886-4.181,8.68,8.68,0,0,0-.72,1.744,13.585,13.585,0,0,1-4.291,7.742,36.867,36.867,0,0,0-3.137,3.525c-1.864,2.363-2.824,4.854-1.449,7.927a6.381,6.381,0,0,1-.526,5.841c-1.707,3.091-3.276,6.266-4.835,9.255-.609-2.288-.8-4.844.941-7.271,1.1-1.532,2.049-3.137,1.5-5.048-3.054.037-5.075,1.643-6.5,4.2-.074-2.445.987-3.857,2.685-5.417a10.392,10.392,0,0,0,2.861-6.293,14.249,14.249,0,0,1,5.37-9.993c3.821-3.258,4.439-6.211,2.575-11.009-2.741.1-4.439,1.55-4.383,4.2.055,2.778-1.237,4.688-2.852,6.811a23.031,23.031,0,0,0-3.663,7.566c-.932,3.221-2.159,6.118-4.863,8.13-3.276,2.436-5.915,5.287-7.161,9.292.231-3.6.554-7.142,3.719-9.532,3.23-2.445,4.845-5.777,5.694-9.661.692-3.212,1.67-6.358,2.565-9.68a82.624,82.624,0,0,0-8.61,4.549c-.959.637-1.384,2.556-1.439,3.913-.065,1.411-.037,2.491-1.569,3.035s-1.956,1.791-2.187,3.341a6.22,6.22,0,0,1-1.965,3.377c.1-1.356.11-2.731.341-4.06.166-.9.4-2.141,1.034-2.556,2.4-1.56,1.753-3.46.95-5.85a16.77,16.77,0,0,0-2.344,2.27,12.658,12.658,0,0,1-5.952,4.613c-3.682,1.514-6.145,4.43-8.415,7.567a18.084,18.084,0,0,1,5.85-8.01,59.8,59.8,0,0,0,5.887-5.545c2.916-3.258,6.764-4.854,10.529-6.755a79.574,79.574,0,0,0,8.48-5.4,5.893,5.893,0,0,0,1.274-1.458c-3.922,1.356-8.047,3.008-12.31,4.171a48.639,48.639,0,0,1-8.683,1.162c-1.32.1-2.16.5-2.473,1.791a4.521,4.521,0,0,1-4.513,3.672,4.617,4.617,0,0,0-3.884,2.6c-.582.979-2.012,1.6-3.184,2.049-1.633.627-3.387.95-5.694,1.569a24.234,24.234,0,0,1,3.526-2.132,6.05,6.05,0,0,0,3.718-3.294c.4-.886,1.753-1.486,2.8-1.91,1.569-.646,2.879-1.32,2.566-4.033-2.658.951-5.177,1.7-7.567,2.759a60.8,60.8,0,0,0-5.684,3.211c-2.132,1.237-4.393,1.126-6.755.554,4.623.517,7.53-2.621,10.916-4.817a33.133,33.133,0,0,1,15.706-5.01c3.746-.3,7.567-.3,10.63-3,.72-.628,1.412-1.283,2.261-2.067-4.365.193-8.443.23-12.494.609a13.7,13.7,0,0,0-5.1,1.651,32.857,32.857,0,0,1-15.364,3.636,13.555,13.555,0,0,0-9.616,3.728c-2.722,2.612-6,3.137-9.652,2.039,4.282-.156,6.985-3.229,10.215-5.315a22.1,22.1,0,0,1,11.747-3.4c1.559-.036,3.11-.341,4.679-.405a7.221,7.221,0,0,1,1.854.369c4.669-3.119,9.237-6.34,15.327-6.607a39.217,39.217,0,0,0,10.585-1.911c6.284-2.113,9.4-7.437,11.774-13.186a34.391,34.391,0,0,0,1.9-6.312l19.332.2c.148,1.6.332,3.193.526,4.79.535,4.327,3.3,7.133,6.663,9.449,3.266,2.251,6.671,4.318,9.919,6.588a24.062,24.062,0,0,1,3.258,3.11,13.088,13.088,0,0,0,7.446,3.885,22.9,22.9,0,0,1,9.643,3.968c2.15,1.5,5.315,1.974,8.074,2.1A13.542,13.542,0,0,1,618.9,3787.7c1.282,1.688,2.537,3.4,3.8,5.094a10.917,10.917,0,0,1-3.009-2.575,14.709,14.709,0,0,0-8.065-5.048,27.374,27.374,0,0,0-3.183-.267c1.006,4.051,2.639,7.41,5.6,9.79C616.9,3796.978,620.118,3798.8,623,3800.7Z" transform="translate(0 -3347.331)" fill="#0099b9"/>
    </g>
    <g id="Group_17194" data-name="Group 17194" transform="translate(82.549 -255.74)">
      <path id="Path_12133-2" data-name="Path 12133" d="M27.921,0A27.921,27.921,0,1,1,0,27.921,27.921,27.921,0,0,1,27.921,0Z" transform="translate(654.058 470.72)" fill="#f19840"/>
      <g id="Group_17111-2" data-name="Group 17111" transform="translate(663.434 483.401)">
        <path id="Path_11793-2" data-name="Path 11793" d="M2935.46,857.84c-6.134,0-12.763,1.682-12.763,5.408l.33,2.639c-4.716,3.1-6.893,6.3-5.9,8.9.527,1.418,2.144,3.1,6.826,3.1h.561l.594,4.65c.131,3.1,5.276,4.485,10.355,4.485s10.225-1.385,10.356-4.485l2.375-19.029v-.2C2948.224,859.555,2941.6,857.84,2935.46,857.84Zm0,3.166c5.937,0,9.169,1.55,9.564,2.243-.363.693-3.562,2.276-9.564,2.276s-9.2-1.583-9.564-2.276C2926.292,862.556,2929.525,861.006,2935.46,861.006Zm-15.4,12.664c-.2-.495.495-2.111,3.4-4.254l.659,5.31C2921.478,874.726,2920.224,874.132,2920.059,873.67Zm15.4,10.158c-4.287,0-6.793-1.088-7.223-1.583l-.593-4.683a39.292,39.292,0,0,0,5.937-1.385,3,3,0,0,0,1.847.659,2.968,2.968,0,1,0-2.87-3.661,36,36,0,0,1-5.31,1.253l-.923-7.222a28.664,28.664,0,0,0,18.206,0l-1.88,15.038C2942.254,882.74,2939.748,883.828,2935.46,883.828Z" transform="translate(-2916.89 -857.84)" fill="#fff"/>
      </g>
    </g>
    <g id="Group_17195" data-name="Group 17195" transform="translate(-133.535 -412.341)">
      <path id="Path_12133-3" data-name="Path 12133" d="M27.921,0A27.921,27.921,0,1,1,0,27.921,27.921,27.921,0,0,1,27.921,0Z" transform="translate(654.058 470.72)" fill="#f19840"/>
      <g id="Group_17111-3" data-name="Group 17111" transform="translate(663.434 483.401)">
        <path id="Path_11793-3" data-name="Path 11793" d="M2935.46,857.84c-6.134,0-12.763,1.682-12.763,5.408l.33,2.639c-4.716,3.1-6.893,6.3-5.9,8.9.527,1.418,2.144,3.1,6.826,3.1h.561l.594,4.65c.131,3.1,5.276,4.485,10.355,4.485s10.225-1.385,10.356-4.485l2.375-19.029v-.2C2948.224,859.555,2941.6,857.84,2935.46,857.84Zm0,3.166c5.937,0,9.169,1.55,9.564,2.243-.363.693-3.562,2.276-9.564,2.276s-9.2-1.583-9.564-2.276C2926.292,862.556,2929.525,861.006,2935.46,861.006Zm-15.4,12.664c-.2-.495.495-2.111,3.4-4.254l.659,5.31C2921.478,874.726,2920.224,874.132,2920.059,873.67Zm15.4,10.158c-4.287,0-6.793-1.088-7.223-1.583l-.593-4.683a39.292,39.292,0,0,0,5.937-1.385,3,3,0,0,0,1.847.659,2.968,2.968,0,1,0-2.87-3.661,36,36,0,0,1-5.31,1.253l-.923-7.222a28.664,28.664,0,0,0,18.206,0l-1.88,15.038C2942.254,882.74,2939.748,883.828,2935.46,883.828Z" transform="translate(-2916.89 -857.84)" fill="#fff"/>
      </g>
    </g>
    <g id="Group_17196" data-name="Group 17196" transform="translate(-350.429 -254.931)">
      <path id="Path_12133-4" data-name="Path 12133" d="M27.921,0A27.921,27.921,0,1,1,0,27.921,27.921,27.921,0,0,1,27.921,0Z" transform="translate(654.058 470.72)" fill="#f19840"/>
      <g id="Group_17111-4" data-name="Group 17111" transform="translate(663.434 483.401)">
        <path id="Path_11793-4" data-name="Path 11793" d="M2935.46,857.84c-6.134,0-12.763,1.682-12.763,5.408l.33,2.639c-4.716,3.1-6.893,6.3-5.9,8.9.527,1.418,2.144,3.1,6.826,3.1h.561l.594,4.65c.131,3.1,5.276,4.485,10.355,4.485s10.225-1.385,10.356-4.485l2.375-19.029v-.2C2948.224,859.555,2941.6,857.84,2935.46,857.84Zm0,3.166c5.937,0,9.169,1.55,9.564,2.243-.363.693-3.562,2.276-9.564,2.276s-9.2-1.583-9.564-2.276C2926.292,862.556,2929.525,861.006,2935.46,861.006Zm-15.4,12.664c-.2-.495.495-2.111,3.4-4.254l.659,5.31C2921.478,874.726,2920.224,874.132,2920.059,873.67Zm15.4,10.158c-4.287,0-6.793-1.088-7.223-1.583l-.593-4.683a39.292,39.292,0,0,0,5.937-1.385,3,3,0,0,0,1.847.659,2.968,2.968,0,1,0-2.87-3.661,36,36,0,0,1-5.31,1.253l-.923-7.222a28.664,28.664,0,0,0,18.206,0l-1.88,15.038C2942.254,882.74,2939.748,883.828,2935.46,883.828Z" transform="translate(-2916.89 -857.84)" fill="#fff"/>
      </g>
    </g>
    <g id="Group_17197" data-name="Group 17197" transform="translate(-267.88 0.809)">
      <path id="Path_12133-5" data-name="Path 12133" d="M27.921,0A27.921,27.921,0,1,1,0,27.921,27.921,27.921,0,0,1,27.921,0Z" transform="translate(654.058 470.72)" fill="#f19840"/>
      <g id="Group_17111-5" data-name="Group 17111" transform="translate(663.434 483.401)">
        <path id="Path_11793-5" data-name="Path 11793" d="M2935.46,857.84c-6.134,0-12.763,1.682-12.763,5.408l.33,2.639c-4.716,3.1-6.893,6.3-5.9,8.9.527,1.418,2.144,3.1,6.826,3.1h.561l.594,4.65c.131,3.1,5.276,4.485,10.355,4.485s10.225-1.385,10.356-4.485l2.375-19.029v-.2C2948.224,859.555,2941.6,857.84,2935.46,857.84Zm0,3.166c5.937,0,9.169,1.55,9.564,2.243-.363.693-3.562,2.276-9.564,2.276s-9.2-1.583-9.564-2.276C2926.292,862.556,2929.525,861.006,2935.46,861.006Zm-15.4,12.664c-.2-.495.495-2.111,3.4-4.254l.659,5.31C2921.478,874.726,2920.224,874.132,2920.059,873.67Zm15.4,10.158c-4.287,0-6.793-1.088-7.223-1.583l-.593-4.683a39.292,39.292,0,0,0,5.937-1.385,3,3,0,0,0,1.847.659,2.968,2.968,0,1,0-2.87-3.661,36,36,0,0,1-5.31,1.253l-.923-7.222a28.664,28.664,0,0,0,18.206,0l-1.88,15.038C2942.254,882.74,2939.748,883.828,2935.46,883.828Z" transform="translate(-2916.89 -857.84)" fill="#fff"/>
      </g>
    </g>
  </g>
</svg>
