<svg xmlns="http://www.w3.org/2000/svg" width="488.82" height="496.058" viewBox="0 0 488.82 496.058">
  <g id="Group_17209" data-name="Group 17209" transform="translate(-303.629 -60.979)">
    <g id="Group_17201" data-name="Group 17201">
      <g id="Group_55" data-name="Group 55" transform="translate(0 -1343.731)">
        <path id="Path_301" data-name="Path 301" d="M498.576,1650.632a4.22,4.22,0,0,1-.28,3.3,10.769,10.769,0,0,1-5.229,4.443c-4.136,1.82-11.843.288-11.843.288s3.674-7.648,7.935-9.153C495.092,1647.409,498.422,1650.174,498.576,1650.632Z" fill="#0099b9"/>
        <path id="Path_302" data-name="Path 302" d="M560.918,1615.578a6.012,6.012,0,0,1-2.027-4.257,15.381,15.381,0,0,1,3.232-9.241c3.777-5.225,14.852-8.763,14.852-8.763s.492,11.923-3.665,16.851C567.523,1617.028,561.436,1616.029,560.918,1615.578Z" fill="#0099b9"/>
        <path id="Path_303" data-name="Path 303" d="M507.921,1674.682a6.015,6.015,0,0,0-1.048-4.6,15.393,15.393,0,0,0-8.265-5.248c-6.2-1.758-17.086,2.331-17.086,2.331s7.005,9.66,13.321,10.95C503.637,1679.915,507.794,1675.358,507.921,1674.682Z" fill="#0099b9"/>
        <path id="Path_304" data-name="Path 304" d="M543.024,1614.982a4.187,4.187,0,0,0,2.147-2.488,10.889,10.889,0,0,0-.435-6.847c-1.549-4.241-7.932-8.729-7.932-8.729s-2.907,7.951-1.049,12.064C538.341,1614.708,542.593,1615.188,543.024,1614.982Z" fill="#0099b9"/>
        <path id="Path_305" data-name="Path 305" d="M489.162,1636.426a5.075,5.075,0,0,0,1.439-3.713,13.194,13.194,0,0,0-3.284-7.639c-3.494-4.21-12.6-6.735-12.6-6.735s-.083,10.259,3.711,14.2C483.706,1638.019,488.754,1636.837,489.162,1636.426Z" fill="#0099b9"/>
        <path id="Path_306" data-name="Path 306" d="M594.334,1651.908a4.6,4.6,0,0,0,3.518.772,11.12,11.12,0,0,0,6.123-4.036c3.074-3.74,3.466-12.648,3.466-12.648s-8.825,1.718-11.607,5.691C591.961,1647.219,593.9,1651.6,594.334,1651.908Z" fill="#0099b9"/>
        <path id="Path_307" data-name="Path 307" d="M534.766,1647.963s2.531,13.163,5.569,9.619c2.746-3.2,21.209-41.564,24.732-48.907C560.811,1615.84,534.766,1647.963,534.766,1647.963Z" fill="#0099b9"/>
        <path id="Path_308" data-name="Path 308" d="M529.149,1643.378c-1.518,0-36.961-5.4-46.58-14.514,0,0,5.4,15.864,49.956,21.6Z" fill="#0099b9"/>
        <path id="Path_309" data-name="Path 309" d="M504.509,1642.366s-10.126,11.138-13.5,11.813c0,0,13.84-4.05,18.565-9.113Z" fill="#0099b9"/>
        <path id="Path_310" data-name="Path 310" d="M538.31,1676.821s-33.921-4.05-41.515-7.594c0,0,22.341,15.444,41.918,16.119Z" fill="#0099b9"/>
        <path id="Path_311" data-name="Path 311" d="M552.271,1628.02s-10.351-14.7-11.534-19.777c.492,3.411,2.676,16.79,7.652,24.84Z" fill="#0099b9"/>
        <path id="Path_312" data-name="Path 312" d="M573.2,1660.593s17.89-4.726,27.172-16.709c0,0-6.582,19.072-31.728,23.628Z" fill="#0099b9"/>
        <path id="Path_313" data-name="Path 313" d="M520.892,1607.037a7.99,7.99,0,0,1-6.255-.36c-3.247-1.588-6.509-5.057-8.7-9.673-3.672-7.739-.714-22.9-.714-22.9s14.2,7.048,17.287,15.041C526.8,1600.27,521.749,1606.721,520.892,1607.037Z" fill="#0099b9"/>
        <path id="Path_314" data-name="Path 314" d="M597.441,1626.311a7.078,7.078,0,0,0,5.174,2.008c3.2-.086,7.1-1.683,10.567-4.6,5.8-4.889,8.993-18.2,8.993-18.2s-14.039.461-19.462,5.77C595.163,1618.683,596.866,1625.741,597.441,1626.311Z" fill="#0099b9"/>
        <path id="Path_315" data-name="Path 315" d="M558.948,1751.017c-1.894-12.747-3.87-26.29-3.284-39.207.564-12.422,5.268-21.643,11.635-31.98,4.193-6.81,8.005-13.946,12.184-20.8q10.682-17.514,21.832-34.74.477-.738.956-1.476c-14.051,6.147-44.853,49.226-52.782,60.554l-.959-3.257c-4.6-15.622-9.639-31.127-15.638-46.271-4.835-12.2-10.1-25.591-18.875-35.587,8.638,26.209,16.448,52.9,22.239,79.883a247.784,247.784,0,0,1,4.951,38.423c.6,10.9,1.323,21.889.009,32.772-.594,4.925-2.923,19.352-9.954,19.352h37.289C562.213,1768.683,559.619,1755.535,558.948,1751.017Z" fill="#0099b9"/>
        <path id="Path_316" data-name="Path 316" d="M586.7,1684.993a6.012,6.012,0,0,1,1.048-4.6,15.38,15.38,0,0,1,8.265-5.248c6.2-1.759,17.085,2.33,17.085,2.33s-7,9.66-13.32,10.951C590.987,1690.226,586.83,1685.669,586.7,1684.993Z" fill="#0099b9"/>
        <path id="Path_317" data-name="Path 317" d="M556.314,1687.132s33.921-4.05,41.515-7.594c0,0-22.341,15.444-41.918,16.119Z" fill="#0099b9"/>
        <path id="Path_318" data-name="Path 318" d="M530.432,1767.929a74,74,0,0,1-11.768,5.5c-3.97,1.37-3.371,1.99-12.3,3.577.459-.2,3.535.908,4.214,1a20.252,20.252,0,0,0,4.773.256c3.735-.365,10.885-2.7,14.353-4,4.451-1.674,5.449-2.114,10.188-2.517a16.265,16.265,0,0,1,7.736.91c2.755,1.178,4.428,3.434,5.96,5.877s2.831,5.079,4.557,7.383a15.74,15.74,0,0,0-1.779-8.695,31.746,31.746,0,0,0-3.672-5.3,34.775,34.775,0,0,0-2.66-3.275c8.111.364,10.334,1.2,14.807,2.588,5.606,1.745,10.473,2.611,15.3,5.87,1.793,1.211,5.126,4.5,4.509,7.112,2.156-4.659.477-7.869-4.065-10.225-2.964-1.538-6.472-3.837-9.6-5.009-3.593-1.346-6.763-3.594-10.08-5.522-6.491-3.774-13.3-4.493-20.559-6.1C540.032,1757.3,538.865,1763.234,530.432,1767.929Z" fill="#0099b9"/>
      </g>
    </g>
    <ellipse id="Ellipse_279" data-name="Ellipse 279" cx="228.224" cy="227.819" rx="228.224" ry="227.819" transform="translate(319.006 88.899)" fill="none" stroke="#e8e8e8" stroke-width="25"/>
    <path id="Ellipse_279-2" data-name="Ellipse 279" d="M650.986,319.874c126.045,0,228.224,102,228.224,227.819A227.385,227.385,0,0,1,785.067,732.07" transform="translate(-103.757 -231.476)" fill="none" stroke="#f19840" stroke-width="25"/>
    <path id="Path_12133" data-name="Path 12133" d="M27.921,0A27.921,27.921,0,1,1,0,27.921,27.921,27.921,0,0,1,27.921,0Z" transform="translate(654.058 473.319)" fill="#e8e8e8"/>
    <g id="Group_17111" data-name="Group 17111" transform="translate(663.434 486)">
      <path id="Path_11793" data-name="Path 11793" d="M2935.46,857.84c-6.134,0-12.763,1.682-12.763,5.408l.33,2.639c-4.716,3.1-6.893,6.3-5.9,8.9.527,1.418,2.144,3.1,6.826,3.1h.561l.594,4.65c.131,3.1,5.276,4.485,10.355,4.485s10.225-1.385,10.356-4.485l2.375-19.029v-.2C2948.224,859.555,2941.6,857.84,2935.46,857.84Zm0,3.166c5.937,0,9.169,1.55,9.564,2.243-.363.693-3.562,2.276-9.564,2.276s-9.2-1.583-9.564-2.276c.4-.693,3.629-2.243,9.564-2.243Zm-15.4,12.664c-.2-.495.5-2.111,3.4-4.254l.659,5.31c-2.641,0-3.895-.594-4.06-1.056Zm15.4,10.158c-4.287,0-6.793-1.088-7.223-1.583l-.593-4.683a39.287,39.287,0,0,0,5.937-1.385,3,3,0,0,0,1.847.659,2.968,2.968,0,1,0-2.87-3.661,36.015,36.015,0,0,1-5.31,1.253l-.923-7.222a28.664,28.664,0,0,0,18.206,0l-1.88,15.038c-.4.5-2.9,1.584-7.191,1.584Z" transform="translate(-2916.89 -857.84)" fill="#fff"/>
    </g>
    <path id="Path_12133-2" data-name="Path 12133" d="M27.921,0A27.921,27.921,0,1,1,0,27.921,27.921,27.921,0,0,1,27.921,0Z" transform="translate(736.607 217.579)" fill="#f19840"/>
    <g id="Group_17111-2" data-name="Group 17111" transform="translate(745.983 230.26)">
      <path id="Path_11793-2" data-name="Path 11793" d="M2935.46,857.84c-6.134,0-12.763,1.682-12.763,5.408l.33,2.639c-4.716,3.1-6.893,6.3-5.9,8.9.527,1.418,2.144,3.1,6.826,3.1h.561l.594,4.65c.131,3.1,5.276,4.485,10.355,4.485s10.225-1.385,10.356-4.485l2.375-19.029v-.2C2948.224,859.555,2941.6,857.84,2935.46,857.84Zm0,3.166c5.937,0,9.169,1.55,9.564,2.243-.363.693-3.562,2.276-9.564,2.276s-9.2-1.583-9.564-2.276c.4-.693,3.629-2.243,9.564-2.243Zm-15.4,12.664c-.2-.495.5-2.111,3.4-4.254l.659,5.31c-2.641,0-3.895-.594-4.06-1.056Zm15.4,10.158c-4.287,0-6.793-1.088-7.223-1.583l-.593-4.683a39.287,39.287,0,0,0,5.937-1.385,3,3,0,0,0,1.847.659,2.968,2.968,0,1,0-2.87-3.661,36.015,36.015,0,0,1-5.31,1.253l-.923-7.222a28.664,28.664,0,0,0,18.206,0l-1.88,15.038c-.4.5-2.9,1.584-7.191,1.584Z" transform="translate(-2916.89 -857.84)" fill="#fff"/>
    </g>
    <path id="Path_12133-3" data-name="Path 12133" d="M27.921,0A27.921,27.921,0,1,1,0,27.921,27.921,27.921,0,0,1,27.921,0Z" transform="translate(303.629 218.388)" fill="#e8e8e8"/>
    <g id="Group_17111-3" data-name="Group 17111" transform="translate(313.005 231.069)">
      <path id="Path_11793-3" data-name="Path 11793" d="M2935.46,857.84c-6.134,0-12.763,1.682-12.763,5.408l.33,2.639c-4.716,3.1-6.893,6.3-5.9,8.9.527,1.418,2.144,3.1,6.826,3.1h.561l.594,4.65c.131,3.1,5.276,4.485,10.355,4.485s10.225-1.385,10.356-4.485l2.375-19.029v-.2C2948.224,859.555,2941.6,857.84,2935.46,857.84Zm0,3.166c5.937,0,9.169,1.55,9.564,2.243-.363.693-3.562,2.276-9.564,2.276s-9.2-1.583-9.564-2.276c.4-.693,3.629-2.243,9.564-2.243Zm-15.4,12.664c-.2-.495.5-2.111,3.4-4.254l.659,5.31c-2.641,0-3.895-.594-4.06-1.056Zm15.4,10.158c-4.287,0-6.793-1.088-7.223-1.583l-.593-4.683a39.287,39.287,0,0,0,5.937-1.385,3,3,0,0,0,1.847.659,2.968,2.968,0,1,0-2.87-3.661,36.015,36.015,0,0,1-5.31,1.253l-.923-7.222a28.664,28.664,0,0,0,18.206,0l-1.88,15.038c-.4.5-2.9,1.584-7.191,1.584Z" transform="translate(-2916.89 -857.84)" fill="#fff"/>
    </g>
    <path id="Path_12135" data-name="Path 12135" d="M27.921,0A27.921,27.921,0,1,1,0,27.921,27.921,27.921,0,0,1,27.921,0Z" transform="translate(386.178 474.128)" fill="#e8e8e8"/>
    <g id="Group_17202" data-name="Group 17202" transform="translate(395.554 486.81)">
      <path id="Path_11793-4" data-name="Path 11793" d="M2935.46,857.84c-6.134,0-12.763,1.682-12.763,5.408l.33,2.639c-4.716,3.1-6.893,6.3-5.9,8.9.527,1.418,2.144,3.1,6.826,3.1h.561l.594,4.65c.131,3.1,5.276,4.485,10.355,4.485s10.225-1.385,10.356-4.485l2.375-19.029v-.2C2948.224,859.555,2941.6,857.84,2935.46,857.84Zm0,3.166c5.937,0,9.169,1.55,9.564,2.243-.363.693-3.562,2.276-9.564,2.276s-9.2-1.583-9.564-2.276c.4-.693,3.629-2.243,9.564-2.243Zm-15.4,12.664c-.2-.495.5-2.111,3.4-4.254l.659,5.31c-2.641,0-3.895-.594-4.06-1.056Zm15.4,10.158c-4.287,0-6.793-1.088-7.223-1.583l-.593-4.683a39.287,39.287,0,0,0,5.937-1.385,3,3,0,0,0,1.847.659,2.968,2.968,0,1,0-2.87-3.661,36.015,36.015,0,0,1-5.31,1.253l-.923-7.222a28.664,28.664,0,0,0,18.206,0l-1.88,15.038c-.4.5-2.9,1.584-7.191,1.584Z" transform="translate(-2916.89 -857.84)" fill="#fff"/>
    </g>
    <g id="Group_17207" data-name="Group 17207" transform="translate(0 -0.863)">
      <circle id="Ellipse_281" data-name="Ellipse 281" cx="27.921" cy="27.921" r="27.921" transform="translate(520.522 61.842)" fill="#f19840"/>
      <g id="Group_17107" data-name="Group 17107" transform="translate(529.911 75.882)">
        <path id="Path_11789" data-name="Path 11789" d="M3083.461,401.84c-6.134,0-12.762,1.682-12.762,5.408l.33,2.639c-4.716,3.1-6.893,6.3-5.9,8.9.528,1.418,2.144,3.1,6.826,3.1h.561l.594,4.65c.131,3.1,5.277,4.485,10.355,4.485s10.224-1.385,10.356-4.485l2.375-19.029v-.2C3096.224,403.555,3089.6,401.84,3083.461,401.84Zm0,3.166c5.936,0,9.169,1.55,9.564,2.243-.363.693-3.562,2.276-9.564,2.276s-9.2-1.583-9.564-2.276c.4-.693,3.628-2.243,9.564-2.243Zm-15.4,12.664c-.2-.495.5-2.111,3.4-4.254l.66,5.31c-2.643,0-3.9-.594-4.062-1.056Zm15.4,10.158c-4.287,0-6.794-1.088-7.222-1.583l-.594-4.683a39.274,39.274,0,0,0,5.936-1.385,3,3,0,0,0,1.847.659,2.968,2.968,0,1,0-2.87-3.661,36.041,36.041,0,0,1-5.31,1.254l-.923-7.223a28.659,28.659,0,0,0,18.2,0l-1.88,15.039c-.39.5-2.9,1.583-7.184,1.583Z" transform="translate(-3064.89 -401.84)" fill="#fff"/>
      </g>
    </g>
  </g>
</svg>
