<svg xmlns="http://www.w3.org/2000/svg" width="488.82" height="495.058" viewBox="0 0 488.82 495.058">
  <g id="Group_17210" data-name="Group 17210" transform="translate(-303.629 -61.111)">
    <ellipse id="Ellipse_279" data-name="Ellipse 279" cx="228.224" cy="227.819" rx="228.224" ry="227.819" transform="translate(319.006 88.031)" fill="none" stroke="#e8e8e8" stroke-width="25"/>
    <path id="Ellipse_279-2" data-name="Ellipse 279" d="M650.986,319.874c126.045,0,228.224,102,228.224,227.819S777.031,775.512,650.986,775.512A227.458,227.458,0,0,1,519.41,733.863" transform="translate(-103.757 -231.843)" fill="none" stroke="#f19840" stroke-width="25"/>
    <g id="Group_17193" data-name="Group 17193" transform="translate(0 1.731)">
      <path id="Path_12133" data-name="Path 12133" d="M27.921,0A27.921,27.921,0,1,1,0,27.921,27.921,27.921,0,0,1,27.921,0Z" transform="translate(654.058 470.72)" fill="#f19840"/>
      <g id="Group_17111" data-name="Group 17111" transform="translate(663.434 483.401)">
        <path id="Path_11793" data-name="Path 11793" d="M2935.46,857.84c-6.134,0-12.763,1.682-12.763,5.408l.33,2.639c-4.716,3.1-6.893,6.3-5.9,8.9.527,1.418,2.144,3.1,6.826,3.1h.561l.594,4.65c.131,3.1,5.276,4.485,10.355,4.485s10.225-1.385,10.356-4.485l2.375-19.029v-.2C2948.224,859.555,2941.6,857.84,2935.46,857.84Zm0,3.166c5.937,0,9.169,1.55,9.564,2.243-.363.693-3.562,2.276-9.564,2.276s-9.2-1.583-9.564-2.276c.4-.693,3.629-2.243,9.564-2.243Zm-15.4,12.664c-.2-.495.5-2.111,3.4-4.254l.659,5.31c-2.641,0-3.895-.594-4.06-1.056Zm15.4,10.158c-4.287,0-6.793-1.088-7.223-1.583l-.593-4.683a39.287,39.287,0,0,0,5.937-1.385,3,3,0,0,0,1.847.659,2.968,2.968,0,1,0-2.87-3.661,36.015,36.015,0,0,1-5.31,1.253l-.923-7.222a28.664,28.664,0,0,0,18.206,0l-1.88,15.038c-.4.5-2.9,1.584-7.191,1.584Z" transform="translate(-2916.89 -857.84)" fill="#fff"/>
      </g>
    </g>
    <g id="Group_17194" data-name="Group 17194" transform="translate(82.549 -254.009)">
      <path id="Path_12133-2" data-name="Path 12133" d="M27.921,0A27.921,27.921,0,1,1,0,27.921,27.921,27.921,0,0,1,27.921,0Z" transform="translate(654.058 470.72)" fill="#f19840"/>
      <g id="Group_17111-2" data-name="Group 17111" transform="translate(663.434 483.401)">
        <path id="Path_11793-2" data-name="Path 11793" d="M2935.46,857.84c-6.134,0-12.763,1.682-12.763,5.408l.33,2.639c-4.716,3.1-6.893,6.3-5.9,8.9.527,1.418,2.144,3.1,6.826,3.1h.561l.594,4.65c.131,3.1,5.276,4.485,10.355,4.485s10.225-1.385,10.356-4.485l2.375-19.029v-.2C2948.224,859.555,2941.6,857.84,2935.46,857.84Zm0,3.166c5.937,0,9.169,1.55,9.564,2.243-.363.693-3.562,2.276-9.564,2.276s-9.2-1.583-9.564-2.276c.4-.693,3.629-2.243,9.564-2.243Zm-15.4,12.664c-.2-.495.5-2.111,3.4-4.254l.659,5.31c-2.641,0-3.895-.594-4.06-1.056Zm15.4,10.158c-4.287,0-6.793-1.088-7.223-1.583l-.593-4.683a39.287,39.287,0,0,0,5.937-1.385,3,3,0,0,0,1.847.659,2.968,2.968,0,1,0-2.87-3.661,36.015,36.015,0,0,1-5.31,1.253l-.923-7.222a28.664,28.664,0,0,0,18.206,0l-1.88,15.038c-.4.5-2.9,1.584-7.191,1.584Z" transform="translate(-2916.89 -857.84)" fill="#fff"/>
      </g>
    </g>
    <g id="Group_17196" data-name="Group 17196" transform="translate(-350.429 -253.2)">
      <path id="Path_12133-3" data-name="Path 12133" d="M27.921,0A27.921,27.921,0,1,1,0,27.921,27.921,27.921,0,0,1,27.921,0Z" transform="translate(654.058 470.72)" fill="#e8e8e8"/>
      <g id="Group_17111-3" data-name="Group 17111" transform="translate(663.434 483.401)">
        <path id="Path_11793-3" data-name="Path 11793" d="M2935.46,857.84c-6.134,0-12.763,1.682-12.763,5.408l.33,2.639c-4.716,3.1-6.893,6.3-5.9,8.9.527,1.418,2.144,3.1,6.826,3.1h.561l.594,4.65c.131,3.1,5.276,4.485,10.355,4.485s10.225-1.385,10.356-4.485l2.375-19.029v-.2C2948.224,859.555,2941.6,857.84,2935.46,857.84Zm0,3.166c5.937,0,9.169,1.55,9.564,2.243-.363.693-3.562,2.276-9.564,2.276s-9.2-1.583-9.564-2.276c.4-.693,3.629-2.243,9.564-2.243Zm-15.4,12.664c-.2-.495.5-2.111,3.4-4.254l.659,5.31c-2.641,0-3.895-.594-4.06-1.056Zm15.4,10.158c-4.287,0-6.793-1.088-7.223-1.583l-.593-4.683a39.287,39.287,0,0,0,5.937-1.385,3,3,0,0,0,1.847.659,2.968,2.968,0,1,0-2.87-3.661,36.015,36.015,0,0,1-5.31,1.253l-.923-7.222a28.664,28.664,0,0,0,18.206,0l-1.88,15.038c-.4.5-2.9,1.584-7.191,1.584Z" transform="translate(-2916.89 -857.84)" fill="#fff"/>
      </g>
    </g>
    <g id="Group_17197" data-name="Group 17197" transform="translate(-267.88 2.541)">
      <path id="Path_12133-4" data-name="Path 12133" d="M27.921,0A27.921,27.921,0,1,1,0,27.921,27.921,27.921,0,0,1,27.921,0Z" transform="translate(654.058 470.72)" fill="#e8e8e8"/>
      <g id="Group_17111-4" data-name="Group 17111" transform="translate(663.434 483.401)">
        <path id="Path_11793-4" data-name="Path 11793" d="M2935.46,857.84c-6.134,0-12.763,1.682-12.763,5.408l.33,2.639c-4.716,3.1-6.893,6.3-5.9,8.9.527,1.418,2.144,3.1,6.826,3.1h.561l.594,4.65c.131,3.1,5.276,4.485,10.355,4.485s10.225-1.385,10.356-4.485l2.375-19.029v-.2C2948.224,859.555,2941.6,857.84,2935.46,857.84Zm0,3.166c5.937,0,9.169,1.55,9.564,2.243-.363.693-3.562,2.276-9.564,2.276s-9.2-1.583-9.564-2.276c.4-.693,3.629-2.243,9.564-2.243Zm-15.4,12.664c-.2-.495.5-2.111,3.4-4.254l.659,5.31c-2.641,0-3.895-.594-4.06-1.056Zm15.4,10.158c-4.287,0-6.793-1.088-7.223-1.583l-.593-4.683a39.287,39.287,0,0,0,5.937-1.385,3,3,0,0,0,1.847.659,2.968,2.968,0,1,0-2.87-3.661,36.015,36.015,0,0,1-5.31,1.253l-.923-7.222a28.664,28.664,0,0,0,18.206,0l-1.88,15.038c-.4.5-2.9,1.584-7.191,1.584Z" transform="translate(-2916.89 -857.84)" fill="#fff"/>
      </g>
    </g>
    <g id="Group_17200" data-name="Group 17200">
      <g id="Group_53" data-name="Group 53" transform="translate(0 -2003.599)">
        <path id="Path_265" data-name="Path 265" d="M517.569,2271.754a8.632,8.632,0,0,1-6.755-.388c-3.506-1.715-7.029-5.461-9.394-10.445-3.965-8.358-.77-24.732-.77-24.732s15.338,7.611,18.667,16.241C523.953,2264.447,518.494,2271.414,517.569,2271.754Z" fill="#0099b9"/>
        <path id="Path_266" data-name="Path 266" d="M600.232,2292.567a7.639,7.639,0,0,0,5.586,2.169c3.457-.093,7.673-1.817,11.411-4.966,6.268-5.279,9.711-19.651,9.711-19.651s-15.16.5-21.016,6.23C597.772,2284.331,599.61,2291.952,600.232,2292.567Z" fill="#0099b9"/>
        <path id="Path_267" data-name="Path 267" d="M577.159,2293.879a2.813,2.813,0,0,0,1.624,1.49,9,9,0,0,0,5.185.132c2.872-.949,5.589-4.982,5.589-4.982s-5.23-1.86-8.022-.7C577.648,2291.43,577.029,2293.587,577.159,2293.879Z" fill="#0099b9"/>
        <path id="Path_268" data-name="Path 268" d="M541.442,2276.294a4.524,4.524,0,0,0,2.319-2.687,11.759,11.759,0,0,0-.47-7.394c-1.673-4.579-8.565-9.425-8.565-9.425s-3.14,8.586-1.134,13.027C536.386,2276,540.977,2276.516,541.442,2276.294Z" fill="#0099b9"/>
        <path id="Path_269" data-name="Path 269" d="M555.034,2320.4a4.526,4.526,0,0,1-1.351-3.282,11.763,11.763,0,0,1,2.785-6.866c3.035-3.815,10.429-5.638,10.429-5.638s.941,8.544-2.367,12.123C559.924,2321.718,555.405,2320.757,555.034,2320.4Z" fill="#0099b9"/>
        <path id="Path_270" data-name="Path 270" d="M565.652,2246.674a5.133,5.133,0,0,1-3.739-1.483,13.331,13.331,0,0,1-3.4-7.675c-.721-5.477,3.613-12.939,3.613-12.939s7.705,5.959,8.018,11.472C570.576,2243.725,566.236,2246.653,565.652,2246.674Z" fill="#0099b9"/>
        <path id="Path_271" data-name="Path 271" d="M556.228,2279.8a4.044,4.044,0,0,1-2.087-2.385,10.021,10.021,0,0,1-.156-6.579c1.467-4.1,6.652-8.709,6.652-8.709s3.358,7.534,1.593,11.512C559.772,2279.178,556.644,2280,556.228,2279.8Z" fill="#0099b9"/>
        <path id="Path_272" data-name="Path 272" d="M557.912,2251.619A2.8,2.8,0,0,1,556,2252.7a6.918,6.918,0,0,1-4.473-.819c-2.567-1.569-4.957-5.725-4.957-5.725s5.57-1.213,8.013.541C557.988,2249.133,558.1,2251.364,557.912,2251.619Z" fill="#0099b9"/>
        <path id="Path_273" data-name="Path 273" d="M573.963,2259.013a2.786,2.786,0,0,0,2.164.339,6.919,6.919,0,0,0,3.9-2.335c1.854-2.37,2.634-7.1,2.634-7.1s-5.641.818-7.314,3.317C573.02,2256.713,573.7,2258.842,573.963,2259.013Z" fill="#0099b9"/>
        <path id="Path_274" data-name="Path 274" d="M587.191,2268.967a4.971,4.971,0,0,0,3.8.833,12.007,12.007,0,0,0,6.612-4.358c3.32-4.039,3.743-13.658,3.743-13.658s-9.53,1.855-12.534,6.145C584.629,2263.9,586.723,2268.633,587.191,2268.967Z" fill="#0099b9"/>
        <path id="Path_275" data-name="Path 275" d="M532.525,2311.909s2.734,14.214,6.014,10.387c2.965-3.459,17.059-38.034,19.246-49.941C553.411,2286.692,532.525,2311.909,532.525,2311.909Z" fill="#0099b9"/>
        <path id="Path_276" data-name="Path 276" d="M551.428,2290.373s-11.177-15.875-12.455-21.356c.532,3.683,2.889,18.131,8.263,26.824Z" fill="#0099b9"/>
        <path id="Path_277" data-name="Path 277" d="M548.308,2299.693s.3-.194.842-.559c5.2-3.471,33.036-22.4,43.262-36.256,0,0-19.682,35.721-50.3,47.02" fill="#0099b9"/>
        <path id="Path_278" data-name="Path 278" d="M562.767,2293.982s17.981-.486,22.355-2.673c0,0-13.486,9.659-24.785,6.743Z" fill="#0099b9"/>
        <path id="Path_279" data-name="Path 279" d="M539.923,2337.436s17.452-21.2,20.9-24.5c0,0-14.383,25.48-17.754,29.4S539.923,2337.436,539.923,2337.436Z" fill="#0099b9"/>
        <path id="Path_280" data-name="Path 280" d="M576.861,2280.86s-6.319-9.416-11.665-42.281c0,0,1.945,32.319,7.777,45.44Z" fill="#0099b9"/>
        <path id="Path_281" data-name="Path 281" d="M568.295,2256.234c-5.214-2.27-12.329-5.554-15.058-7.689a66.3,66.3,0,0,0,15.058,9.3Z" fill="#0099b9"/>
        <path id="Path_282" data-name="Path 282" d="M499.064,2293.858a3.647,3.647,0,0,1-2.859-.157,9.048,9.048,0,0,1-4.351-4.05c-1.725-3.535-1.432-9.8-1.432-9.8s6.99,2.584,8.447,6.235C500.9,2291.173,499.454,2293.712,499.064,2293.858Z" fill="#0099b9"/>
        <path id="Path_283" data-name="Path 283" d="M507.255,2306.25c-4.147-6.17-9.673-14.8-11.178-19.068a86.7,86.7,0,0,0,10.045,20.842Z" fill="#0099b9"/>
        <path id="Path_284" data-name="Path 284" d="M576.443,2255.87c-1.373,2.862-5.009,6.846-6.594,8.512h.648v.823C572.254,2263.118,575.457,2259.186,576.443,2255.87Z" fill="#0099b9"/>
        <path id="Path_285" data-name="Path 285" d="M506.242,2297.458a1.92,1.92,0,0,0,1.49.234,4.769,4.769,0,0,0,2.687-1.609,13.379,13.379,0,0,0,1.814-4.889s-3.885.563-5.037,2.285C505.592,2295.874,506.057,2297.341,506.242,2297.458Z" fill="#0099b9"/>
        <path id="Path_286" data-name="Path 286" d="M507.949,2295.293a29.584,29.584,0,0,1-4.54,5.863h.446v.566C505.065,2300.285,507.27,2297.578,507.949,2295.293Z" fill="#0099b9"/>
        <path id="Path_287" data-name="Path 287" d="M559.07,2427.233c-2.045-13.766-4.179-28.389-3.546-42.338.609-13.414,5.689-23.372,12.563-34.535,4.529-7.353,8.646-15.059,13.158-22.457q11.535-18.914,23.575-37.515.516-.8,1.033-1.593c-15.173,6.638-48.435,53.157-57,65.39q-.516-1.758-1.035-3.517c-4.963-16.87-10.408-33.613-16.887-49.967-5.221-13.178-10.907-27.635-20.382-38.429,9.328,28.3,17.761,57.121,24.015,86.262a267.486,267.486,0,0,1,5.346,41.492c.645,11.776,1.429,23.637.01,35.39-.642,5.318-3.157,20.9-10.749,20.9H569.44C562.595,2446.309,559.795,2432.111,559.07,2427.233Z" fill="#0099b9"/>
        <path id="Path_288" data-name="Path 288" d="M495.716,2318.831a4.554,4.554,0,0,1-.3,3.558,11.627,11.627,0,0,1-5.646,4.8c-4.467,1.965-12.789.31-12.789.31s3.967-8.258,8.568-9.884C491.954,2315.35,495.55,2318.337,495.716,2318.831Z" fill="#0099b9"/>
        <path id="Path_289" data-name="Path 289" d="M505.807,2344.8a6.486,6.486,0,0,0-1.132-4.964,16.611,16.611,0,0,0-8.924-5.667c-6.7-1.9-18.45,2.516-18.45,2.516s7.563,10.432,14.384,11.825C501.181,2350.452,505.67,2345.531,505.807,2344.8Z" fill="#0099b9"/>
        <path id="Path_290" data-name="Path 290" d="M485.55,2303.491a5.481,5.481,0,0,0,1.554-4.01,14.248,14.248,0,0,0-3.546-8.249c-3.773-4.547-13.612-7.273-13.612-7.273s-.09,11.078,4.008,15.331C479.659,2305.211,485.11,2303.934,485.55,2303.491Z" fill="#0099b9"/>
        <path id="Path_291" data-name="Path 291" d="M599.122,2320.209a4.965,4.965,0,0,0,3.8.833,12,12,0,0,0,6.611-4.357c3.321-4.04,3.743-13.659,3.743-13.659s-9.529,1.855-12.533,6.146C596.559,2315.145,598.654,2319.875,599.122,2320.209Z" fill="#0099b9"/>
        <path id="Path_292" data-name="Path 292" d="M528.731,2311c-1.64,0-39.912-5.833-50.3-15.674,0,0,5.832,17.132,53.945,23.328Z" fill="#0099b9"/>
        <path id="Path_293" data-name="Path 293" d="M502.123,2309.9s-10.935,12.029-14.58,12.758c0,0,14.945-4.374,20.048-9.842Z" fill="#0099b9"/>
        <path id="Path_294" data-name="Path 294" d="M538.623,2347.111s-36.629-4.373-44.83-8.2c0,0,24.125,16.677,45.266,17.406Z" fill="#0099b9"/>
        <path id="Path_295" data-name="Path 295" d="M591.205,2353.094a6.492,6.492,0,0,1,2.229-4.577,16.607,16.607,0,0,1,9.978-3.494c6.953-.33,17.4,6.638,17.4,6.638s-9.733,8.443-16.692,8.252C594.428,2359.647,591.173,2353.836,591.205,2353.094Z" fill="#0099b9"/>
        <path id="Path_296" data-name="Path 296" d="M558.721,2347.9s36.667,4.054,45.522,2.188c0,0-27.28,10.766-48.035,6.679Z" fill="#0099b9"/>
        <path id="Path_297" data-name="Path 297" d="M576.3,2329.587s19.318-5.1,29.342-18.042c0,0-7.108,20.594-34.263,25.514Z" fill="#0099b9"/>
        <path id="Path_298" data-name="Path 298" d="M537.385,2437.689a20.225,20.225,0,0,0-1.264,2.321,19.936,19.936,0,0,1-4.423,4.878,17.865,17.865,0,0,1-7.676,3.5c-6.326,1.234-13.811,2.226-16.973,9.114.411-.894,4.468-1.976,5.5-2.348a36.755,36.755,0,0,1,6.32-1.705c3.82-.649,8.644.287,12.136-1.695.757-.43.729,2,.639,2.221-1.638,4.12-9.777,4.558-13.426,6.125a45.686,45.686,0,0,0-7.758,4.2,30.728,30.728,0,0,0-3.774,3c-1.117,1.054-1.979,2.731-3.137,3.651a35.365,35.365,0,0,1,8.155-4.851c5.2-2.192,11.189-3.556,16.626-5.252a19.561,19.561,0,0,0,6.016-2.624c1.671-1.249,2.507-3.906,4.3-4.827,0,0,6.445-5.5,19.165-.588,0,0,7.186,2.5,17.667,16.881l3.443,4.256c-.221-.273-.081-1.691-.124-2.051a21.142,21.142,0,0,0-1.376-5.344c-1.5-3.756-4.166-6.777-6.9-9.686-.665-.707-7.634-7.246-7.625-7.285.647-2.587,8.67-.793,9.981-.64,6.942.806,13.91,1.376,20.885,1.81q2.511.156,5.024.289c1.34.072,5.423.272,5.458.274-.2-.01-.683-1.06-.866-1.243a7.748,7.748,0,0,0-2.408-1.4,21.252,21.252,0,0,0-5.377-1.323c-4.475-.622-9-.753-13.5-1.218-3.16-.328-6.291-.839-9.4-1.475a21.072,21.072,0,0,1-6.729-2.335,15.509,15.509,0,0,1-3.644-2.506c-.364-.339-2.442-2.177-3.388-6.811C558.931,2433,537.414,2437.687,537.385,2437.689Z" fill="#0099b9"/>
      </g>
    </g>
    <g id="Group_17207" data-name="Group 17207" transform="translate(0 -0.731)">
      <circle id="Ellipse_281" data-name="Ellipse 281" cx="27.921" cy="27.921" r="27.921" transform="translate(520.522 61.842)" fill="#f19840"/>
      <g id="Group_17107" data-name="Group 17107" transform="translate(529.911 75.882)">
        <path id="Path_11789" data-name="Path 11789" d="M3083.461,401.84c-6.134,0-12.762,1.682-12.762,5.408l.33,2.639c-4.716,3.1-6.893,6.3-5.9,8.9.528,1.418,2.144,3.1,6.826,3.1h.561l.594,4.65c.131,3.1,5.277,4.485,10.355,4.485s10.224-1.385,10.356-4.485l2.375-19.029v-.2C3096.224,403.555,3089.6,401.84,3083.461,401.84Zm0,3.166c5.936,0,9.169,1.55,9.564,2.243-.363.693-3.562,2.276-9.564,2.276s-9.2-1.583-9.564-2.276c.4-.693,3.628-2.243,9.564-2.243Zm-15.4,12.664c-.2-.495.5-2.111,3.4-4.254l.66,5.31c-2.643,0-3.9-.594-4.062-1.056Zm15.4,10.158c-4.287,0-6.794-1.088-7.222-1.583l-.594-4.683a39.274,39.274,0,0,0,5.936-1.385,3,3,0,0,0,1.847.659,2.968,2.968,0,1,0-2.87-3.661,36.041,36.041,0,0,1-5.31,1.254l-.923-7.223a28.659,28.659,0,0,0,18.2,0l-1.88,15.039c-.39.5-2.9,1.583-7.184,1.583Z" transform="translate(-3064.89 -401.84)" fill="#fff"/>
      </g>
    </g>
  </g>
</svg>
