<svg xmlns="http://www.w3.org/2000/svg" width="300" height="300" viewBox="0 0 300 300">
  <g id="Group_2" data-name="Group 2" transform="translate(-1190 1770)">
    <rect id="Rectangle_3" data-name="Rectangle 3" width="300" height="300" transform="translate(1190 -1770)" fill="none"/>
    <g id="tree-5" transform="translate(1215.191 -1741)">
      <path id="Path_139" data-name="Path 139" d="M884.32,506.485a2.556,2.556,0,0,0-.579,1.917,8.173,8.173,0,0,0,1.936,4.3c1.908,1.978,6.283,2.614,6.283,2.614s-.539-5.017-2.588-6.847C886.52,505.92,884.508,506.262,884.32,506.485Z" transform="translate(-719.327 -332.138)" fill="#0099b9"/>
      <path id="Path_140" data-name="Path 140" d="M933.92,465.617a4.666,4.666,0,0,1-.259-3.646,12.117,12.117,0,0,1,4.944-5.814c4.2-2.75,12.022-2.142,12.022-2.142s-1.843,8.659-6.235,11.09C938.276,468.488,934.167,466.087,933.92,465.617Z" transform="translate(-706.478 -345.684)" fill="#0099b9"/>
      <path id="Path_141" data-name="Path 141" d="M884.629,486.637a3.666,3.666,0,0,1,1.131-2.648,9.1,9.1,0,0,1,5.325-2.722c3.936-.414,9.756,2.015,9.756,2.015s-4.846,5.72-8.8,5.843C886.537,489.294,884.633,487.056,884.629,486.637Z" transform="translate(-719.093 -338.633)" fill="#0099b9"/>
      <path id="Path_142" data-name="Path 142" d="M904.061,480.144a2.545,2.545,0,0,1-1.634-1.138,6.3,6.3,0,0,1-1.093-3.986c.273-2.722,2.735-6.318,2.735-6.318s3.19,4.084,2.716,6.776C906.127,479.227,904.346,480.2,904.061,480.144Z" transform="translate(-714.779 -341.87)" fill="#0099b9"/>
      <path id="Path_143" data-name="Path 143" d="M900.831,493.075a2.536,2.536,0,0,0,.575,1.906,6.291,6.291,0,0,0,3.451,2.274c2.672.585,6.854-.641,6.854-.641s-2.894-4.3-5.6-4.683C902.342,491.395,900.864,492.788,900.831,493.075Z" transform="translate(-714.908 -335.894)" fill="#0099b9"/>
      <path id="Path_144" data-name="Path 144" d="M931.488,507.872a4.515,4.515,0,0,0,.814,3.441,10.918,10.918,0,0,0,6.176,3.7c4.617,1.126,12.662-2.318,12.662-2.318s-5.276-7.075-9.975-7.844C934.625,503.778,931.576,507.357,931.488,507.872Z" transform="translate(-706.991 -332.574)" fill="#0099b9"/>
      <path id="Path_145" data-name="Path 145" d="M857.8,480.156s-10.565,7.842-6.137,9.021c4,1.065,37.876-1.021,48.49-3.923C886.682,487.323,857.8,480.156,857.8,480.156Z" transform="translate(-727.901 -338.908)" fill="#0099b9"/>
      <path id="Path_146" data-name="Path 146" d="M871.425,486.817s.276.166.788.469c4.892,2.887,70.017,24.626,85.4,27.54,0,0-75.662-8.439-96.987-29.061" transform="translate(-725.302 -337.457)" fill="#0099b9"/>
      <path id="Path_147" data-name="Path 147" d="M878.331,494.3s7.487,14.536,11,17.257c0,0-13.228-7.238-15.295-17.643Z" transform="translate(-721.832 -335.35)" fill="#0099b9"/>
      <path id="Path_148" data-name="Path 148" d="M891.25,509.242s34.694-31.135,59.5-48.47c0,0-55.177,36.582-63.625,46.531Z" transform="translate(-718.447 -343.921)" fill="#0099b9"/>
      <path id="Path_149" data-name="Path 149" d="M827.468,388.685a3.258,3.258,0,0,1-2.535-.3,8.464,8.464,0,0,1-3.335-4.16c-1.332-3.246.12-8.531.12-8.531s5.7,2.409,6.783,5.743C830.013,386.076,827.823,388.578,827.468,388.685Z" transform="translate(-735.54 -365.925)" fill="#0099b9"/>
      <path id="Path_150" data-name="Path 150" d="M845.856,411.17s-8.62-11.956-20.741-27.841a108.649,108.649,0,0,0,18.867,30.411Z" transform="translate(-734.485 -363.95)" fill="#0099b9"/>
      <path id="Path_151" data-name="Path 151" d="M904.019,489.152c-.2-5.164-.311-12.287.361-15.364a60.261,60.261,0,0,0-1.68,16Z" transform="translate(-714.423 -340.555)" fill="#0099b9"/>
      <path id="Path_152" data-name="Path 152" d="M799.664,429a2.541,2.541,0,0,1-1.972-.264,6.3,6.3,0,0,1-2.8-3.046c-1-2.545-.456-6.87-.456-6.87s4.7,2.174,5.514,4.784C801.081,427.241,799.942,428.922,799.664,429Z" transform="translate(-742.457 -354.771)" fill="#0099b9"/>
      <path id="Path_153" data-name="Path 153" d="M803.909,436.933c-2.536-4.5-5.9-10.785-6.7-13.83a60.323,60.323,0,0,0,5.822,15Z" transform="translate(-741.703 -353.663)" fill="#0099b9"/>
      <g id="Group_9" data-name="Group 9" transform="translate(214.404 135.159)">
        <path id="Path_154" data-name="Path 154" d="M932.209,482.336a2.54,2.54,0,0,1-.1-1.987,6.288,6.288,0,0,1,2.476-3.31c2.316-1.455,6.666-1.721,6.666-1.721s-1.265,5.026-3.68,6.3C934.2,483.4,932.338,482.6,932.209,482.336Z" transform="translate(-921.259 -475.318)" fill="#0099b9"/>
        <path id="Path_155" data-name="Path 155" d="M927.283,488.367c3.957-3.326,8.249-7.79,11.091-9.149a82.627,82.627,0,0,0-14.919,9.756Z" transform="translate(-923.456 -474.309)" fill="#0099b9"/>
      </g>
      <path id="Path_156" data-name="Path 156" d="M778.282,472.2a2.532,2.532,0,0,1-1.974-.257,6.29,6.29,0,0,1-2.808-3.033c-1.012-2.54-.486-6.867-.486-6.867s4.714,2.154,5.534,4.761C779.693,470.435,778.561,472.12,778.282,472.2Z" transform="translate(-747.995 -343.592)" fill="#0099b9"/>
      <path id="Path_157" data-name="Path 157" d="M782.565,480.114c-2.556-4.492-5.941-10.76-6.764-13.8a60.288,60.288,0,0,0,5.887,14.971Z" transform="translate(-747.239 -342.488)" fill="#0099b9"/>
      <path id="Path_158" data-name="Path 158" d="M873.772,447.573a2.534,2.534,0,0,1-1.328-1.483,6.286,6.286,0,0,1-.147-4.131c.89-2.585,4.113-5.519,4.113-5.519s2.165,4.707,1.086,7.218C875.994,447.156,874.035,447.694,873.772,447.573Z" transform="translate(-722.357 -350.214)" fill="#0099b9"/>
      <path id="Path_159" data-name="Path 159" d="M872.062,456.381c1-5.071,2.52-12.029,3.882-14.869a60.238,60.238,0,0,0-5.311,15.184Z" transform="translate(-722.713 -348.902)" fill="#0099b9"/>
      <g id="Group_10" data-name="Group 10" transform="translate(126.955 95.579)">
        <path id="Path_160" data-name="Path 160" d="M856.244,453.3a2.088,2.088,0,0,1-1.346-.936,5.186,5.186,0,0,1-.9-3.285c.225-2.243,2.254-5.206,2.254-5.206s2.628,3.364,2.238,5.583C857.946,452.543,856.478,453.345,856.244,453.3Z" transform="translate(-853.976 -443.871)" fill="#0099b9"/>
        <path id="Path_161" data-name="Path 161" d="M856.208,460.721c-.162-4.255-.257-10.124.3-12.659a49.7,49.7,0,0,0-1.383,13.182Z" transform="translate(-853.683 -442.787)" fill="#0099b9"/>
      </g>
      <g id="Group_11" data-name="Group 11" transform="translate(88.174 81.025)">
        <path id="Path_162" data-name="Path 162" d="M826.206,435.78a1.113,1.113,0,0,1-.135-.865,2.76,2.76,0,0,1,.932-1.557,7.768,7.768,0,0,1,2.837-1.051s-.328,2.253-1.327,2.92C827.124,436.157,826.273,435.887,826.206,435.78Z" transform="translate(-822.421 -432.308)" fill="#0099b9"/>
        <path id="Path_163" data-name="Path 163" d="M823.767,438.572a37.373,37.373,0,0,1,4.987-4.551,26.442,26.442,0,0,0-5.589,4.325Z" transform="translate(-823.164 -431.865)" fill="#0099b9"/>
      </g>
      <g id="Group_12" data-name="Group 12" transform="translate(104.521 54.665)">
        <path id="Path_164" data-name="Path 164" d="M839.175,417.308a1.467,1.467,0,0,1-1.138-.175,3.635,3.635,0,0,1-1.581-1.792,10.212,10.212,0,0,1-.188-3.977s2.7,1.309,3.135,2.828C840.015,416.307,839.338,417.266,839.175,417.308Z" transform="translate(-836.151 -411.364)" fill="#0099b9"/>
        <path id="Path_165" data-name="Path 165" d="M841.536,421.943a49.254,49.254,0,0,1-3.722-8.072,34.885,34.885,0,0,0,3.2,8.737Z" transform="translate(-835.721 -410.716)" fill="#0099b9"/>
      </g>
      <path id="Path_166" data-name="Path 166" d="M868.169,498.909a3.152,3.152,0,0,1,2.337.8,7.814,7.814,0,0,1,2.662,4.386c.6,3.342-1.113,8.472-1.113,8.472s-5.2-3.787-5.549-7.163C866.016,500.708,867.811,498.939,868.169,498.909Z" transform="translate(-723.802 -334.061)" fill="#0099b9"/>
      <path id="Path_167" data-name="Path 167" d="M864.72,489.45c1.994,6.1,4.556,14.56,4.8,18.461a74.812,74.812,0,0,0-3.443-19.669Z" transform="translate(-724.242 -336.817)" fill="#0099b9"/>
      <path id="Path_168" data-name="Path 168" d="M839.139,497.961a4,4,0,0,1,1.43,2.787,9.9,9.9,0,0,1-1.425,6.347c-2.388,3.581-8.464,6.761-8.464,6.761s-1.418-8.03,1.227-11.423C835.59,497.711,838.786,497.673,839.139,497.961Z" transform="translate(-733.144 -334.329)" fill="#0099b9"/>
      <path id="Path_169" data-name="Path 169" d="M845.466,486.357c-3.541,7.323-8.638,17.306-11.844,21.087a94.9,94.9,0,0,0,14.144-21Z" transform="translate(-732.285 -337.304)" fill="#0099b9"/>
      <g id="Group_13" data-name="Group 13" transform="translate(208.212 84.903)">
        <path id="Path_170" data-name="Path 170" d="M930.042,438.89a3.361,3.361,0,0,1,1.558-2.127,8.335,8.335,0,0,1,5.314-1.322c3.6.447,8.281,3.82,8.281,3.82s-5.508,4.1-9.058,3.384C931.192,441.656,929.959,439.264,930.042,438.89Z" transform="translate(-915.561 -435.389)" fill="#0099b9"/>
        <path id="Path_171" data-name="Path 171" d="M919.335,438.606c6.846-.1,16.282-.025,20.336.962a79.809,79.809,0,0,0-21.135-2.727Z" transform="translate(-918.536 -435.014)" fill="#0099b9"/>
      </g>
      <g id="Group_14" data-name="Group 14" transform="translate(145.871 18.104)">
        <path id="Path_172" data-name="Path 172" d="M877.06,399.177a4.206,4.206,0,0,1-1.553-2.9,10.412,10.412,0,0,1,1.387-6.7c2.447-3.807,8.78-7.257,8.78-7.257s1.632,8.418-1.09,12.03C880.8,399.377,877.436,399.472,877.06,399.177Z" transform="translate(-867.341 -382.316)" fill="#0099b9"/>
        <path id="Path_173" data-name="Path 173" d="M871.425,412.588c3.593-7.761,8.778-18.347,12.082-22.377A99.762,99.762,0,0,0,869,412.533Z" transform="translate(-869.005 -380.274)" fill="#0099b9"/>
      </g>
      <g id="Group_15" data-name="Group 15" transform="translate(187.283 119.563)">
        <path id="Path_174" data-name="Path 174" d="M909.108,465.394a2.179,2.179,0,0,1,1.232-1.184,5.4,5.4,0,0,1,3.54-.252c2.247.686,4.862,3.362,4.862,3.362s-3.973,2-6.162,1.152C909.535,467.289,909.014,465.625,909.108,465.394Z" transform="translate(-900.049 -462.711)" fill="#0099b9"/>
        <path id="Path_175" data-name="Path 175" d="M902.221,464.144c4.383.7,10.4,1.8,12.878,2.88a51.793,51.793,0,0,0-13.191-4.1Z" transform="translate(-901.908 -462.927)" fill="#0099b9"/>
      </g>
      <path id="Path_176" data-name="Path 176" d="M939.075,486.9a3.46,3.46,0,0,1,1.669-2.136,8.562,8.562,0,0,1,5.5-1.189c3.68.573,8.387,4.189,8.387,4.189s-5.791,4.033-9.417,3.189C940.17,489.776,938.978,487.28,939.075,486.9Z" transform="translate(-705.013 -338.046)" fill="#0099b9"/>
      <path id="Path_177" data-name="Path 177" d="M901.663,490.085c7.037.117,54.863-3.98,59.454-3.85-3.066-.985-46.934,1.122-57.7.75Z" transform="translate(-714.688 -337.405)" fill="#0099b9"/>
      <g id="Group_16" data-name="Group 16" transform="translate(150.639 66.514)">
        <path id="Path_178" data-name="Path 178" d="M882.847,425.682a2.973,2.973,0,0,1,.736-2.214,7.377,7.377,0,0,1,4.118-2.554c3.149-.6,8.011.974,8.011.974s-3.531,4.943-6.715,5.306C884.565,427.7,882.879,426.019,882.847,425.682Z" transform="translate(-870.196 -420.778)" fill="#0099b9"/>
        <path id="Path_179" data-name="Path 179" d="M873.945,428.646c5.741-1.937,13.709-4.433,17.39-4.7a70.694,70.694,0,0,0-18.542,3.43Z" transform="translate(-872.793 -419.959)" fill="#0099b9"/>
      </g>
      <g id="Group_17" data-name="Group 17" transform="translate(149.822 54.569)">
        <path id="Path_180" data-name="Path 180" d="M876.93,412.684a1.4,1.4,0,0,1,.673-.871,3.483,3.483,0,0,1,2.231-.492,9.767,9.767,0,0,1,3.413,1.688s-2.345,1.646-3.819,1.31C877.379,413.85,876.891,412.838,876.93,412.684Z" transform="translate(-870.906 -411.288)" fill="#0099b9"/>
        <path id="Path_181" data-name="Path 181" d="M872.457,412.458a47.157,47.157,0,0,1,8.474.628,33.328,33.328,0,0,0-8.788-1.373Z" transform="translate(-872.144 -411.179)" fill="#0099b9"/>
      </g>
      <g id="Group_18" data-name="Group 18" transform="translate(166.813 57.297)">
        <path id="Path_182" data-name="Path 182" d="M891.924,415.286a1.836,1.836,0,0,1,.883-1.143,4.564,4.564,0,0,1,2.929-.646,12.836,12.836,0,0,1,4.477,2.214s-3.076,2.161-5.01,1.719C892.513,416.815,891.872,415.489,891.924,415.286Z" transform="translate(-884.021 -413.455)" fill="#0099b9"/>
        <path id="Path_183" data-name="Path 183" d="M886.055,414.99c3.748.048,8.914.225,11.119.824a43.738,43.738,0,0,0-11.53-1.8Z" transform="translate(-885.644 -413.311)" fill="#0099b9"/>
      </g>
      <g id="Group_19" data-name="Group 19" transform="translate(115.445 27.193)">
        <path id="Path_184" data-name="Path 184" d="M851.366,391.441a1.917,1.917,0,0,1,.92-1.188,4.758,4.758,0,0,1,3.047-.672,13.341,13.341,0,0,1,4.659,2.3s-3.2,2.249-5.212,1.79C851.978,393.035,851.313,391.653,851.366,391.441Z" transform="translate(-843.142 -389.537)" fill="#0099b9"/>
        <path id="Path_185" data-name="Path 185" d="M845.259,391.134c3.9.049,9.276.234,11.571.858a45.5,45.5,0,0,0-12-1.877Z" transform="translate(-844.831 -389.387)" fill="#0099b9"/>
      </g>
      <g id="Group_20" data-name="Group 20" transform="translate(98.048 16.816)">
        <path id="Path_186" data-name="Path 186" d="M833.288,389.917a1.913,1.913,0,0,1-1.28-.787,4.753,4.753,0,0,1-1-2.958,13.326,13.326,0,0,1,1.79-4.88s2.579,2.94,2.339,4.99C834.806,389.137,833.5,389.947,833.288,389.917Z" transform="translate(-831.009 -381.293)" fill="#0099b9"/>
        <path id="Path_187" data-name="Path 187" d="M833.591,396.7c-.371-3.884-.764-9.248-.39-11.6a45.492,45.492,0,0,0-.576,12.132Z" transform="translate(-830.631 -380.308)" fill="#0099b9"/>
      </g>
      <g id="Group_21" data-name="Group 21" transform="translate(172.52 73.207)">
        <path id="Path_188" data-name="Path 188" d="M900.054,431.4a2.964,2.964,0,0,1,.593-2.247,7.354,7.354,0,0,1,3.936-2.8c3.094-.79,8.025.469,8.025.469s-3.2,5.134-6.345,5.693C901.888,433.3,900.1,431.733,900.054,431.4Z" transform="translate(-887.632 -426.096)" fill="#0099b9"/>
        <path id="Path_189" data-name="Path 189" d="M891.4,435.054c5.586-2.286,13.351-5.265,17-5.761a70.445,70.445,0,0,0-18.22,4.568Z" transform="translate(-890.178 -425.269)" fill="#0099b9"/>
      </g>
      <g id="Group_22" data-name="Group 22" transform="translate(196.742 77.561)">
        <path id="Path_190" data-name="Path 190" d="M911.232,437.843a1.844,1.844,0,0,1-1.137-.892,4.565,4.565,0,0,1-.625-2.933,12.82,12.82,0,0,1,2.243-4.462s2.141,3.09,1.687,5.021C912.766,437.264,911.434,437.9,911.232,437.843Z" transform="translate(-909.423 -429.556)" fill="#0099b9"/>
        <path id="Path_191" data-name="Path 191" d="M910.9,444.374c.073-3.749.286-8.912.9-11.112a43.727,43.727,0,0,0-1.88,11.518Z" transform="translate(-909.295 -428.597)" fill="#0099b9"/>
      </g>
      <g id="Group_23" data-name="Group 23" transform="translate(212.007 87.531)">
        <path id="Path_192" data-name="Path 192" d="M925.58,441.194a1.536,1.536,0,0,1,1.154-.354,3.818,3.818,0,0,1,2.313.972,10.712,10.712,0,0,1,1.994,3.673s-3.145-.006-4.254-1.241C925.244,442.525,925.447,441.309,925.58,441.194Z" transform="translate(-920.532 -436.609)" fill="#0099b9"/>
        <path id="Path_193" data-name="Path 193" d="M921.551,438.344c2.54,1.841,5.985,4.454,7.2,5.928a36.651,36.651,0,0,0-7.012-6.8Z" transform="translate(-921.551 -437.477)" fill="#0099b9"/>
      </g>
      <g id="Group_24" data-name="Group 24" transform="translate(64.097 23.815)">
        <path id="Path_194" data-name="Path 194" d="M821.733,392.717a3.99,3.99,0,0,1-2.216,2.21,9.9,9.9,0,0,1-6.473.576c-4.133-1.183-9.009-6-9.009-6s7.208-3.792,11.242-2.308C820.891,389.264,821.9,392.294,821.733,392.717Z" transform="translate(-804.034 -386.853)" fill="#0099b9"/>
        <path id="Path_195" data-name="Path 195" d="M835.72,394.416c-8.045-1.139-19.1-2.951-23.67-4.851a94.839,94.839,0,0,0,24.283,7.068Z" transform="translate(-801.961 -386.152)" fill="#0099b9"/>
      </g>
      <g id="Group_25" data-name="Group 25" transform="translate(84.362 54.028)">
        <path id="Path_196" data-name="Path 196" d="M829.257,417.836a2.548,2.548,0,0,1-1.9.61,6.311,6.311,0,0,1-3.846-1.557c-2-1.875-3.373-6.031-3.373-6.031s5.2-.057,7.06,1.962C829.784,415.629,829.475,417.644,829.257,417.836Z" transform="translate(-820.135 -410.858)" fill="#0099b9"/>
        <path id="Path_197" data-name="Path 197" d="M836.551,423.184c-4.24-2.989-9.992-7.237-12.037-9.649a60.536,60.536,0,0,0,11.74,11.088Z" transform="translate(-819.002 -410.165)" fill="#0099b9"/>
      </g>
      <g id="Group_26" data-name="Group 26" transform="translate(84.167 24.084)">
        <path id="Path_198" data-name="Path 198" d="M825.167,391.164a1.47,1.47,0,0,1-1.1.334,3.627,3.627,0,0,1-2.2-.93,10.2,10.2,0,0,1-1.888-3.5s2.993.014,4.045,1.192C825.489,389.9,825.294,391.054,825.167,391.164Z" transform="translate(-819.98 -387.067)" fill="#0099b9"/>
        <path id="Path_199" data-name="Path 199" d="M829.317,394.3a49.165,49.165,0,0,1-6.841-5.659,34.838,34.838,0,0,0,6.657,6.484Z" transform="translate(-819.334 -386.659)" fill="#0099b9"/>
      </g>
      <g id="Group_27" data-name="Group 27" transform="translate(69.295 105.83)">
        <path id="Path_200" data-name="Path 200" d="M816.6,459.743a2.531,2.531,0,0,1-1.942.438,6.3,6.3,0,0,1-3.68-1.883c-1.824-2.038-2.817-6.282-2.817-6.282s5.167.4,6.834,2.568C817.319,457.6,816.836,459.572,816.6,459.743Z" transform="translate(-808.164 -452.016)" fill="#0099b9"/>
        <path id="Path_201" data-name="Path 201" d="M823.37,465.691c-3.945-3.339-9.277-8.06-11.1-10.633a60.345,60.345,0,0,0,10.674,12.035Z" transform="translate(-807.101 -451.229)" fill="#0099b9"/>
      </g>
      <g id="Group_28" data-name="Group 28" transform="translate(39.467 80.052)">
        <path id="Path_202" data-name="Path 202" d="M792.9,439.262a2.531,2.531,0,0,1-1.942.438,6.288,6.288,0,0,1-3.679-1.883c-1.824-2.038-2.817-6.282-2.817-6.282s5.165.4,6.833,2.568C793.62,437.118,793.137,439.09,792.9,439.262Z" transform="translate(-784.465 -431.535)" fill="#0099b9"/>
        <path id="Path_203" data-name="Path 203" d="M799.671,445.21c-3.945-3.339-9.279-8.06-11.1-10.633a60.309,60.309,0,0,0,10.674,12.035Z" transform="translate(-783.402 -430.748)" fill="#0099b9"/>
      </g>
      <path id="Path_204" data-name="Path 204" d="M881.477,472.77a2.543,2.543,0,0,1,1.177-1.607,6.293,6.293,0,0,1,4.011-1c2.714.337,6.25,2.884,6.25,2.884s-4.158,3.091-6.838,2.555C882.346,474.857,881.415,473.052,881.477,472.77Z" transform="translate(-719.909 -341.502)" fill="#0099b9"/>
      <path id="Path_205" data-name="Path 205" d="M873.4,472.555c5.168-.074,12.292-.02,15.352.725a60.312,60.312,0,0,0-15.954-2.059Z" transform="translate(-722.155 -341.219)" fill="#0099b9"/>
      <path id="Path_206" data-name="Path 206" d="M916.561,447.377a2.536,2.536,0,0,1,1.176-1.606,6.293,6.293,0,0,1,4.011-1c2.713.337,6.252,2.885,6.252,2.885s-4.159,3.091-6.839,2.554C917.428,449.464,916.5,447.659,916.561,447.377Z" transform="translate(-710.836 -348.069)" fill="#0099b9"/>
      <path id="Path_207" data-name="Path 207" d="M908.478,447.162c5.168-.073,12.291-.019,15.352.726a60.272,60.272,0,0,0-15.956-2.059Z" transform="translate(-713.082 -347.786)" fill="#0099b9"/>
      <path id="Path_208" data-name="Path 208" d="M837.934,465.909a3.652,3.652,0,0,1-2.77-.711,9.038,9.038,0,0,1-3.474-4.817c-1-3.8.507-9.876.507-9.876s6.345,3.894,7.06,7.756C840.253,463.636,838.345,465.843,837.934,465.909Z" transform="translate(-732.873 -346.577)" fill="#0099b9"/>
      <path id="Path_209" data-name="Path 209" d="M842.522,477.943c-2.858-6.852-6.591-16.38-7.232-20.858a86.615,86.615,0,0,0,5.777,22.376Z" transform="translate(-731.854 -344.875)" fill="#0099b9"/>
      <path id="Path_210" data-name="Path 210" d="M813.12,434.753a2.541,2.541,0,0,1-1.986.147,6.292,6.292,0,0,1-3.361-2.4c-1.5-2.284-1.86-6.629-1.86-6.629s5.05,1.16,6.38,3.548C814.144,432.739,813.375,434.618,813.12,434.753Z" transform="translate(-739.451 -352.949)" fill="#0099b9"/>
      <path id="Path_211" data-name="Path 211" d="M818.936,441.634c-3.408-3.884-7.987-9.342-9.406-12.153a60.339,60.339,0,0,0,8.781,13.479Z" transform="translate(-738.516 -352.014)" fill="#0099b9"/>
      <path id="Path_212" data-name="Path 212" d="M905.7,493.864c-2.886,0-7.582-1.4-9.572-2.045l.256.53-.673.325C898.113,493.29,902.6,494.364,905.7,493.864Z" transform="translate(-716.227 -335.892)" fill="#0099b9"/>
      <path id="Path_213" data-name="Path 213" d="M817.917,509.348a2.71,2.71,0,0,1,.614,2.03,8.663,8.663,0,0,1-2.05,4.551c-2.021,2.1-6.653,2.768-6.653,2.768s.57-5.311,2.74-7.25C815.589,508.749,817.718,509.113,817.917,509.348Z" transform="translate(-738.439 -331.4)" fill="#0099b9"/>
      <path id="Path_214" data-name="Path 214" d="M771.257,474.857a5.063,5.063,0,0,0,.282-3.961,13.153,13.153,0,0,0-5.37-6.316c-4.565-2.988-13.061-2.327-13.061-2.327s2,9.407,6.774,12.048C766.525,477.975,770.989,475.368,771.257,474.857Z" transform="translate(-753.108 -343.554)" fill="#0099b9"/>
      <path id="Path_215" data-name="Path 215" d="M821.141,487.425a3.674,3.674,0,0,0-1.131-2.649,9.1,9.1,0,0,0-5.327-2.722c-3.936-.414-9.756,2.015-9.756,2.015s4.847,5.722,8.8,5.842C819.233,490.08,821.138,487.842,821.141,487.425Z" transform="translate(-739.706 -338.43)" fill="#0099b9"/>
      <path id="Path_216" data-name="Path 216" d="M798.747,480.421a2.716,2.716,0,0,0,2.084-.449,6.743,6.743,0,0,0,2.727-3.49c.853-2.8-.094-7.374-.094-7.374s-4.839,2.72-5.484,5.577C797.085,478.661,798.444,480.36,798.747,480.421Z" transform="translate(-741.581 -341.766)" fill="#0099b9"/>
      <path id="Path_217" data-name="Path 217" d="M794.708,494.737a4.319,4.319,0,0,1-.978,3.242,10.7,10.7,0,0,1-5.871,3.869c-4.544.994-11.659-1.091-11.659-1.091s4.923-7.311,9.525-7.966C792.135,491.881,794.65,494.249,794.708,494.737Z" transform="translate(-747.136 -335.694)" fill="#0099b9"/>
      <path id="Path_218" data-name="Path 218" d="M778.431,508.128a3.948,3.948,0,0,1-.711,3.006,9.545,9.545,0,0,1-5.4,3.231c-4.034.984-11.063-2.026-11.063-2.026s4.61-6.181,8.715-6.853C775.69,504.549,778.354,507.677,778.431,508.128Z" transform="translate(-751 -332.402)" fill="#0099b9"/>
      <path id="Path_219" data-name="Path 219" d="M854.83,480.942s10.565,7.842,6.137,9.022c-4,1.064-37.876-1.022-48.491-3.924C825.943,488.109,854.83,480.942,854.83,480.942Z" transform="translate(-737.754 -338.705)" fill="#0099b9"/>
      <path id="Path_220" data-name="Path 220" d="M851.388,487.085s-.292.176-.836.5c-5.179,3.057-63.629,23.818-79.913,26.9,0,0,67-4.941,89.584-26.779" transform="translate(-748.574 -337.116)" fill="#0099b9"/>
      <path id="Path_221" data-name="Path 221" d="M826.393,496.616s-7.928,15.393-11.651,18.273c0,0,14.007-7.664,16.2-18.68Z" transform="translate(-737.168 -334.757)" fill="#0099b9"/>
      <path id="Path_222" data-name="Path 222" d="M822.3,510.566s-27.071-20.3-58.5-42.212c0,0,47.411,21.106,62.867,40.159Z" transform="translate(-750.343 -341.96)" fill="#0099b9"/>
      <path id="Path_223" data-name="Path 223" d="M794.9,489.254c2.327-5.024,5.382-12.017,5.989-15.338a64.626,64.626,0,0,1-4.948,16.509Z" transform="translate(-742.301 -340.522)" fill="#0099b9"/>
      <path id="Path_224" data-name="Path 224" d="M786.1,495.079c4.909.008,12.9-2.388,16.281-3.478l-.436.9,1.147.551C799.011,494.1,791.386,495.93,786.1,495.079Z" transform="translate(-744.574 -335.948)" fill="#0099b9"/>
      <path id="Path_225" data-name="Path 225" d="M867.185,535.279v-.021c-.938-15.574-1.027-31.893,6.745-45.7,3.665-6.512,7.522-12.918,11.431-19.287,4.934-8.04,38.131-47.742,43.274-55.651-20.547,9.889-58.628,64.572-65.443,74.236-5.466-21.3-23.73-71.178-35.585-81.729,12.613,36.124,27.581,84.5,27.755,116.278.023,4.155-.267,8.3-.16,12.452,0,0,0,29.423-7.569,34.141h26.945C868.865,569.993,867.492,540.352,867.185,535.279Z" transform="translate(-733.841 -357.797)" fill="#0099b9"/>
      <path id="Path_226" data-name="Path 226" d="M774.856,448.377a2.842,2.842,0,0,1-1.152,1.9,7.246,7.246,0,0,1-4.478,1.121c-3.038-.136-7.231-3.358-7.231-3.358s4.5-3.518,7.515-3.155C773.714,445.393,774.9,448.055,774.856,448.377Z" transform="translate(-750.809 -348.036)" fill="#0099b9"/>
      <path id="Path_227" data-name="Path 227" d="M913.3,459.863a4.141,4.141,0,0,0,2.393,2.194,10.565,10.565,0,0,0,6.729-.263c4.2-1.434,8.749-7.661,8.749-7.661s-7.735-3.084-11.815-1.34C913.68,455.218,913.111,459.43,913.3,459.863Z" transform="translate(-711.685 -346.123)" fill="#0099b9"/>
      <path id="Path_228" data-name="Path 228" d="M924.993,431.9a4.111,4.111,0,0,1-1.227-2.983,10.7,10.7,0,0,1,2.531-6.241c2.759-3.468,9.48-5.124,9.48-5.124s.855,7.766-2.152,11.018C929.439,433.1,925.33,432.224,924.993,431.9Z" transform="translate(-708.972 -355.099)" fill="#0099b9"/>
      <path id="Path_229" data-name="Path 229" d="M800.483,416.755a3.8,3.8,0,0,0,1.3-2.69,9.891,9.891,0,0,0-1.995-5.908c-2.359-3.358-9.018-5.793-9.018-5.793s-.68,7.665,1.921,10.837C796.308,417.617,800.155,417.037,800.483,416.755Z" transform="translate(-743.388 -359.027)" fill="#0099b9"/>
      <path id="Path_230" data-name="Path 230" d="M788.164,427.041a4.243,4.243,0,0,0,1.2-3.1,11.019,11.019,0,0,0-2.74-6.374c-2.915-3.513-10.517-5.618-10.517-5.618s-.069,8.559,3.1,11.845C783.612,428.37,787.823,427.383,788.164,427.041Z" transform="translate(-747.16 -356.548)" fill="#0099b9"/>
      <path id="Path_231" data-name="Path 231" d="M841.427,389.268a4.785,4.785,0,0,1-3.347-1.692,11.85,11.85,0,0,1-3.087-7.144c-.209-5.147,3.433-12.5,3.433-12.5s7.023,6.774,6.851,11.918C845.037,387.013,841.971,389.3,841.427,389.268Z" transform="translate(-731.933 -367.932)" fill="#0099b9"/>
      <path id="Path_232" data-name="Path 232" d="M809.859,406.637a2.965,2.965,0,0,1-2.315-.234,7.35,7.35,0,0,1-3.379-3.452c-1.266-2.935-.793-8.006-.793-8.006s5.577,2.361,6.622,5.381C811.448,404.527,810.181,406.533,809.859,406.637Z" transform="translate(-740.131 -360.946)" fill="#0099b9"/>
      <path id="Path_233" data-name="Path 233" d="M831.317,414.325a3.769,3.769,0,0,1-2.954-.17,9.652,9.652,0,0,1-4.109-4.569c-1.734-3.655-.337-10.818-.337-10.818s6.709,3.329,8.166,7.1C834.11,411.129,831.722,414.176,831.317,414.325Z" transform="translate(-734.933 -359.957)" fill="#0099b9"/>
      <path id="Path_234" data-name="Path 234" d="M903.75,418.676a4.922,4.922,0,0,0,3.6,1.4,12.6,12.6,0,0,0,7.355-3.2c4.042-3.4,6.26-12.668,6.26-12.668s-9.772.321-13.547,4.016C902.164,413.368,903.35,418.28,903.75,418.676Z" transform="translate(-714.252 -358.551)" fill="#0099b9"/>
      <path id="Path_235" data-name="Path 235" d="M889.973,452.9a4.7,4.7,0,0,0,3.6.789,11.372,11.372,0,0,0,6.263-4.127c3.144-3.826,3.544-12.936,3.544-12.936s-9.026,1.757-11.87,5.821C887.547,448.1,889.53,452.583,889.973,452.9Z" transform="translate(-717.941 -350.166)" fill="#0099b9"/>
      <path id="Path_236" data-name="Path 236" d="M854.274,446.49c-1.888,0-32.3-2.372-72.349-25.535,0,0,21.149,27.213,76.546,34.348Z" transform="translate(-745.655 -354.219)" fill="#0099b9"/>
      <path id="Path_237" data-name="Path 237" d="M822.611,440.242s-47.115,10.4-51.313,11.234c0,0,51.573-.04,58.866-9.135Z" transform="translate(-748.404 -349.231)" fill="#0099b9"/>
      <path id="Path_238" data-name="Path 238" d="M874.657,460.323s17.559-4.639,26.672-16.4c0,0-6.462,18.72-31.145,23.193Z" transform="translate(-722.829 -348.279)" fill="#0099b9"/>
      <path id="Path_239" data-name="Path 239" d="M866.684,481.308s57.1-29.235,80-56.868c0,0-15.681,36.413-85.007,67.281Z" transform="translate(-725.029 -353.318)" fill="#0099b9"/>
      <path id="Path_240" data-name="Path 240" d="M813.054,460.8a4.451,4.451,0,0,1-1.589,3.106,11.385,11.385,0,0,1-6.883,2.258c-4.77.132-11.831-4.784-11.831-4.784s6.784-5.652,11.549-5.427C810.936,456.271,813.087,460.3,813.054,460.8Z" transform="translate(-742.855 -345.168)" fill="#0099b9"/>
      <path id="Path_241" data-name="Path 241" d="M823.3,476.7a3.118,3.118,0,0,1-1.425,1.979,7.536,7.536,0,0,1-4.911.732c-3.241-.5-7.464-4.811-7.464-4.811s5.225-3.123,8.424-2.376C822.376,473.268,823.378,476.353,823.3,476.7Z" transform="translate(-738.524 -340.988)" fill="#0099b9"/>
      <path id="Path_242" data-name="Path 242" d="M864.413,482.176s-47.52-23.565-59.485-23.077c0,0,50.555,26.664,59.966,35.808Z" transform="translate(-739.706 -344.356)" fill="#0099b9"/>
      <path id="Path_243" data-name="Path 243" d="M836.415,471.651s-11.155,5.7-21.25,3.856c0,0,11.937,6.641,26.675-2.427Z" transform="translate(-737.058 -341.108)" fill="#0099b9"/>
      <path id="Path_244" data-name="Path 244" d="M845.069,434.085c-.877-.1-26.588-10.262-38.5-33.69,0,0,10.165,28.781,38.442,41.689Z" transform="translate(-739.281 -359.536)" fill="#0099b9"/>
      <path id="Path_245" data-name="Path 245" d="M896.272,463.4s21.867-2.983,27.831-7.621c0,0-14.246,15.9-33.794,13.915S896.272,463.4,896.272,463.4Z" transform="translate(-719.531 -345.211)" fill="#0099b9"/>
      <path id="Path_246" data-name="Path 246" d="M835.478,430.051c-3.314,1.547-35.019-13.126-39.878-19.531,0,0,6.646,15.058,44.627,24.391Z" transform="translate(-742.119 -356.918)" fill="#0099b9"/>
      <path id="Path_247" data-name="Path 247" d="M841.031,446.307s-1.318-63.251-2.108-69.576c0,0,9.488,51.654,7.642,76.427S841.031,446.307,841.031,446.307Z" transform="translate(-730.914 -365.656)" fill="#0099b9"/>
      <path id="Path_248" data-name="Path 248" d="M876.728,433.463a2.552,2.552,0,0,0,1.476,1.353,8.182,8.182,0,0,0,4.712.121c2.61-.862,5.081-4.529,5.081-4.529s-4.754-1.69-7.292-.638C877.172,431.236,876.609,433.2,876.728,433.463Z" transform="translate(-721.14 -352.028)" fill="#0099b9"/>
      <path id="Path_249" data-name="Path 249" d="M853.521,420.575a4.108,4.108,0,0,0,2.108-2.442,10.682,10.682,0,0,0-.428-6.721c-1.521-4.162-7.785-8.567-7.785-8.567s-2.855,7.8-1.031,11.841C848.925,420.307,853.1,420.778,853.521,420.575Z" transform="translate(-729.141 -358.903)" fill="#0099b9"/>
      <path id="Path_250" data-name="Path 250" d="M861,454.733a4.111,4.111,0,0,1-1.227-2.983,10.688,10.688,0,0,1,2.531-6.24c2.759-3.469,9.48-5.125,9.48-5.125s.855,7.766-2.152,11.018C865.443,455.933,861.335,455.059,861,454.733Z" transform="translate(-725.522 -349.194)" fill="#0099b9"/>
      <path id="Path_251" data-name="Path 251" d="M868.513,393.129a4.406,4.406,0,0,1-3.212-1.274,11.456,11.456,0,0,1-2.926-6.6c-.619-4.707,3.1-11.12,3.1-11.12s6.62,5.121,6.89,9.859C872.744,390.6,869.013,393.111,868.513,393.129Z" transform="translate(-724.867 -366.326)" fill="#0099b9"/>
      <path id="Path_252" data-name="Path 252" d="M862.118,425.767a3.666,3.666,0,0,1-1.9-2.169,9.1,9.1,0,0,1-.142-5.98c1.333-3.726,6.046-7.916,6.046-7.916s3.052,6.848,1.447,10.463C865.34,425.2,862.5,425.946,862.118,425.767Z" transform="translate(-725.558 -357.129)" fill="#0099b9"/>
      <path id="Path_253" data-name="Path 253" d="M864.943,403.21a2.54,2.54,0,0,1-1.734.979,6.287,6.287,0,0,1-4.065-.745c-2.335-1.426-4.507-5.2-4.507-5.2s5.063-1.1,7.284.492C865.012,400.95,865.116,402.979,864.943,403.21Z" transform="translate(-726.85 -360.19)" fill="#0099b9"/>
      <path id="Path_254" data-name="Path 254" d="M876.661,409.063a3.53,3.53,0,0,0,2.739.429,8.76,8.76,0,0,0,4.939-2.956c2.347-3,3.335-8.988,3.335-8.988s-7.141,1.035-9.258,4.2C875.468,406.151,876.321,408.847,876.661,409.063Z" transform="translate(-721.252 -360.273)" fill="#0099b9"/>
      <path id="Path_255" data-name="Path 255" d="M893.458,404.854a4.063,4.063,0,0,0,3.106.681,9.817,9.817,0,0,0,5.406-3.562c2.714-3.3,3.06-11.168,3.06-11.168s-7.791,1.517-10.248,5.024C891.362,400.713,893.075,404.581,893.458,404.854Z" transform="translate(-717.008 -362.016)" fill="#0099b9"/>
      <path id="Path_256" data-name="Path 256" d="M844.49,453.041s2.484,12.921,5.467,9.442c2.7-3.144,15.506-34.572,17.494-45.395C863.475,430.12,844.49,453.041,844.49,453.041Z" transform="translate(-729.474 -355.219)" fill="#0099b9"/>
      <path id="Path_257" data-name="Path 257" d="M861.468,431.09s-10.16-14.431-11.321-19.413c.483,3.348,2.627,16.48,7.511,24.382Z" transform="translate(-728.011 -356.618)" fill="#0099b9"/>
      <path id="Path_258" data-name="Path 258" d="M781.22,439.615a4.227,4.227,0,0,0-.02-3.319,11,11,0,0,0-4.881-4.915c-4-2.2-11.829-1.364-11.829-1.364s3.072,7.976,7.217,9.868C777.479,442.519,781.03,440.058,781.22,439.615Z" transform="translate(-750.164 -351.915)" fill="#0099b9"/>
      <path id="Path_259" data-name="Path 259" d="M801.992,448.693s-24.1-10.561-27.468-13.939c2.026,2.417,10.168,11.772,17.916,15.637Z" transform="translate(-747.569 -350.65)" fill="#0099b9"/>
      <path id="Path_260" data-name="Path 260" d="M857.046,446.254s.269-.176.764-.507c4.724-3.155,39.734-32.758,49.028-45.352,0,0-11.869,27.568-55.425,55.137" transform="translate(-727.684 -359.536)" fill="#0099b9"/>
      <path id="Path_261" data-name="Path 261" d="M866.785,433.206s16.344-.442,20.32-2.43c0,0-12.259,8.78-22.529,6.13Z" transform="translate(-724.28 -351.679)" fill="#0099b9"/>
      <path id="Path_262" data-name="Path 262" d="M849.833,468.665s15.864-19.275,19-22.27c0,0-13.075,23.161-16.139,26.724S849.833,468.665,849.833,468.665Z" transform="translate(-728.093 -347.639)" fill="#0099b9"/>
      <path id="Path_263" data-name="Path 263" d="M826.007,459.69a2.863,2.863,0,0,1-2.2-.444,7.443,7.443,0,0,1-2.63-3.879c-.938-2.939.7-7.467.7-7.467s4.823,2.511,5.54,5.509C828.421,457.583,826.326,459.621,826.007,459.69Z" transform="translate(-735.579 -347.251)" fill="#0099b9"/>
      <path id="Path_264" data-name="Path 264" d="M828.985,472.371s-5.011-16.637-5.53-19.609c0,0,8.339,16.527,9.214,19.679S828.985,472.371,828.985,472.371Z" transform="translate(-734.914 -345.993)" fill="#0099b9"/>
      <path id="Path_265" data-name="Path 265" d="M879.038,432.4s-7.45-14.749-12.309-44.622c0,0,3.474,35.566,8.775,47.494Z" transform="translate(-723.723 -362.8)" fill="#0099b9"/>
      <path id="Path_266" data-name="Path 266" d="M873.135,406.881c-4.739-2.063-11.206-5.048-13.688-6.988a60.318,60.318,0,0,0,13.688,8.452Z" transform="translate(-725.606 -359.666)" fill="#0099b9"/>
      <g id="Group_29" data-name="Group 29" transform="translate(42.466 128.322)">
        <path id="Path_267" data-name="Path 267" d="M794.064,477.236a2.282,2.282,0,0,1-1.767.3,5.669,5.669,0,0,1-3.217-1.869c-1.542-1.919-2.232-5.782-2.232-5.782s4.626.608,6.02,2.635C794.811,475.343,794.281,477.094,794.064,477.236Z" transform="translate(-786.848 -469.886)" fill="#0099b9"/>
        <path id="Path_268" data-name="Path 268" d="M799.863,482.907c-3.386-3.191-7.955-7.69-9.466-10.09a54.326,54.326,0,0,0,9.019,11.331Z" transform="translate(-785.93 -469.128)" fill="#0099b9"/>
      </g>
      <path id="Path_269" data-name="Path 269" d="M801.352,509.486a2.715,2.715,0,0,0-2.106-.336,6.74,6.74,0,0,0-3.8,2.266c-1.811,2.3-2.583,6.909-2.583,6.909s5.5-.783,7.13-3.212C802.265,511.729,801.613,509.654,801.352,509.486Z" transform="translate(-742.827 -331.43)" fill="#0099b9"/>
      <path id="Path_270" data-name="Path 270" d="M808.181,503.557c-3.989,3.84-9.369,9.252-11.136,12.127a64.619,64.619,0,0,1,10.59-13.6Z" transform="translate(-741.745 -333.236)" fill="#0099b9"/>
      <g id="Group_30" data-name="Group 30" transform="translate(60.678 174.06)">
        <path id="Path_271" data-name="Path 271" d="M803.234,510.573a1.321,1.321,0,0,1,1.018.209,3.282,3.282,0,0,1,1.347,1.687,9.234,9.234,0,0,1-.008,3.595s-2.373-1.3-2.7-2.69C802.432,511.439,803.085,510.6,803.234,510.573Z" transform="translate(-800.953 -505.109)" fill="#0099b9"/>
        <path id="Path_272" data-name="Path 272" d="M801.318,506.8a44.462,44.462,0,0,1,3,7.444,31.445,31.445,0,0,0-2.5-8.02Z" transform="translate(-801.318 -506.226)" fill="#0099b9"/>
      </g>
      <path id="Path_273" data-name="Path 273" d="M894.933,508.427a2.724,2.724,0,0,0-.933,1.919,6.749,6.749,0,0,0,1.065,4.3c1.679,2.4,5.863,4.474,5.863,4.474s.845-5.486-1.007-7.756C897.343,508.2,895.168,508.226,894.933,508.427Z" transform="translate(-716.674 -331.616)" fill="#0099b9"/>
      <path id="Path_274" data-name="Path 274" d="M891,500.614c2.52,4.931,6.14,11.65,8.377,14.175a64.582,64.582,0,0,1-9.942-14.078Z" transform="translate(-717.85 -333.617)" fill="#0099b9"/>
      <g id="Group_31" data-name="Group 31" transform="translate(175.203 171.28)">
        <path id="Path_275" data-name="Path 275" d="M896.875,505.731a1.326,1.326,0,0,1,.495-.914,3.277,3.277,0,0,1,2.005-.8,9.224,9.224,0,0,1,3.439,1.05s-1.933,1.894-3.358,1.806C897.471,506.749,896.862,505.882,896.875,505.731Z" transform="translate(-891.129 -504.017)" fill="#0099b9"/>
        <path id="Path_276" data-name="Path 276" d="M892.716,506.185a44.474,44.474,0,0,1,7.994-.711,31.5,31.5,0,0,0-8.4.063Z" transform="translate(-892.31 -503.704)" fill="#0099b9"/>
      </g>
      <path id="Path_277" data-name="Path 277" d="M790.2,454.96a2.569,2.569,0,0,1,.882,1.811,6.37,6.37,0,0,1-1,4.06c-1.584,2.269-5.532,4.232-5.532,4.232s-.8-5.181.943-7.325C787.928,454.753,789.982,454.772,790.2,454.96Z" transform="translate(-745.023 -345.442)" fill="#0099b9"/>
      <path id="Path_278" data-name="Path 278" d="M794.455,447.578c-2.374,4.659-5.786,11.008-7.9,13.394a61.043,61.043,0,0,0,9.374-13.3Z" transform="translate(-744.457 -347.334)" fill="#0099b9"/>
      <g id="Group_32" data-name="Group 32" transform="translate(39.564 104.627)">
        <path id="Path_279" data-name="Path 279" d="M788.538,452.212a.886.886,0,0,0-.333-.614,2.21,2.21,0,0,0-1.349-.537,6.224,6.224,0,0,0-2.313.709s1.3,1.274,2.261,1.213C788.138,452.9,788.547,452.314,788.538,452.212Z" transform="translate(-784.542 -451.06)" fill="#0099b9"/>
        <path id="Path_280" data-name="Path 280" d="M791.676,452.514a29.861,29.861,0,0,0-5.378-.473,21.17,21.17,0,0,1,5.651.037Z" transform="translate(-784.088 -450.85)" fill="#0099b9"/>
      </g>
      <g id="Group_33" data-name="Group 33" transform="translate(153.012 138.129)">
        <path id="Path_281" data-name="Path 281" d="M878.35,482.86a1.49,1.49,0,0,1-.316-1.124,3.688,3.688,0,0,1,.989-2.213,10.34,10.34,0,0,1,3.592-1.845s-.076,3.038-1.293,4.082C879.628,483.213,878.458,482.991,878.35,482.86Z" transform="translate(-873.814 -477.678)" fill="#0099b9"/>
        <path id="Path_282" data-name="Path 282" d="M875.513,487.008a49.9,49.9,0,0,1,5.884-6.828,35.364,35.364,0,0,0-6.719,6.624Z" transform="translate(-874.679 -477.031)" fill="#0099b9"/>
      </g>
      <g id="Group_34" data-name="Group 34" transform="translate(187.655 106.665)">
        <path id="Path_283" data-name="Path 283" d="M905.874,457.861a1.489,1.489,0,0,1-.316-1.124,3.688,3.688,0,0,1,.989-2.214,10.353,10.353,0,0,1,3.592-1.844s-.075,3.038-1.292,4.082C907.152,458.214,905.982,457.992,905.874,457.861Z" transform="translate(-901.338 -452.679)" fill="#0099b9"/>
        <path id="Path_284" data-name="Path 284" d="M903.038,462.008a49.943,49.943,0,0,1,5.884-6.827A35.363,35.363,0,0,0,902.2,461.8Z" transform="translate(-902.203 -452.032)" fill="#0099b9"/>
      </g>
      <g id="Group_35" data-name="Group 35" transform="translate(144.246 139.98)">
        <path id="Path_285" data-name="Path 285" d="M870.791,481.626a1.012,1.012,0,0,1,.024-.789,2.494,2.494,0,0,1,1.086-1.226,7,7,0,0,1,2.691-.462s-.664,1.945-1.661,2.37C871.544,482.113,870.834,481.733,870.791,481.626Z" transform="translate(-866.936 -479.148)" fill="#0099b9"/>
        <path id="Path_286" data-name="Path 286" d="M868.21,483.638a33.884,33.884,0,0,1,5.179-3.211,23.9,23.9,0,0,0-5.675,2.91Z" transform="translate(-867.714 -478.818)" fill="#0099b9"/>
      </g>
      <g id="Group_36" data-name="Group 36" transform="translate(56.117 140.179)">
        <path id="Path_287" data-name="Path 287" d="M801.131,480.829a1,1,0,0,1,.3-.731,2.492,2.492,0,0,1,1.445-.773,7.011,7.011,0,0,1,2.683.5s-1.3,1.592-2.381,1.645C801.666,481.548,801.133,480.943,801.131,480.829Z" transform="translate(-796.805 -479.306)" fill="#0099b9"/>
        <path id="Path_288" data-name="Path 288" d="M798.055,481.583a33.837,33.837,0,0,1,5.972-1.211,23.958,23.958,0,0,0-6.333.756Z" transform="translate(-797.694 -479.032)" fill="#0099b9"/>
      </g>
      <path id="Path_289" data-name="Path 289" d="M922.178,500.812a1.916,1.916,0,0,0,1.442.427A4.756,4.756,0,0,0,926.487,500a13.341,13.341,0,0,0,2.434-4.6s-3.914.048-5.279,1.6C921.744,499.161,922.01,500.673,922.178,500.812Z" transform="translate(-709.412 -334.965)" fill="#0099b9"/>
      <path id="Path_290" data-name="Path 290" d="M917.2,504.963c3.138-2.322,7.392-5.618,8.89-7.469a45.584,45.584,0,0,1-8.642,8.547Z" transform="translate(-710.67 -334.424)" fill="#0099b9"/>
      <g id="Group_37" data-name="Group 37" transform="translate(206.521 154.484)">
        <path id="Path_291" data-name="Path 291" d="M919.812,497.661a1.612,1.612,0,0,1-1.194-.412,3.989,3.989,0,0,1-1.361-2.244,11.226,11.226,0,0,1,.573-4.333s2.657,1.94,2.836,3.666C920.915,496.742,920,497.646,919.812,497.661Z" transform="translate(-917.193 -490.672)" fill="#0099b9"/>
        <path id="Path_292" data-name="Path 292" d="M921.354,503.131c-1.017-3.12-2.325-7.449-2.448-9.445a38.3,38.3,0,0,0,1.753,10.062Z" transform="translate(-916.75 -489.892)" fill="#0099b9"/>
      </g>
      <g id="Group_38" data-name="Group 38" transform="translate(210.893 167.734)">
        <path id="Path_293" data-name="Path 293" d="M922.948,502.171a.717.717,0,0,1,.432-.354,1.755,1.755,0,0,1,1.155.011,4.932,4.932,0,0,1,1.49,1.217s-1.342.546-2.03.214C923.037,502.8,922.911,502.242,922.948,502.171Z" transform="translate(-920.077 -501.064)" fill="#0099b9"/>
        <path id="Path_294" data-name="Path 294" d="M920.736,501.6a23.8,23.8,0,0,1,4.106,1.269,16.867,16.867,0,0,0-4.176-1.671Z" transform="translate(-920.666 -501.2)" fill="#0099b9"/>
      </g>
      <path id="Path_295" data-name="Path 295" d="M774.906,481.849a2.718,2.718,0,0,0-1.564-1.45,6.743,6.743,0,0,0-4.423-.233c-2.785.907-5.987,4.307-5.987,4.307s5,2.4,7.713,1.294C774.417,484.22,775.029,482.132,774.906,481.849Z" transform="translate(-750.568 -338.977)" fill="#0099b9"/>
      <path id="Path_296" data-name="Path 296" d="M784.373,480.146c-5.45.974-12.931,2.482-16,3.889a64.585,64.585,0,0,1,16.362-5.416Z" transform="translate(-749.159 -339.306)" fill="#0099b9"/>
      <g id="Group_39" data-name="Group 39" transform="translate(22.806 141.179)">
        <path id="Path_297" data-name="Path 297" d="M774.607,487.679a2.28,2.28,0,0,1,1.26,1.275,5.661,5.661,0,0,1,.313,3.708c-.687,2.364-3.456,5.144-3.456,5.144s-2.153-4.138-1.294-6.444C772.629,488.152,774.366,487.582,774.607,487.679Z" transform="translate(-771.228 -478.144)" fill="#0099b9"/>
        <path id="Path_298" data-name="Path 298" d="M775.621,480.446c-.673,4.6-1.739,10.927-2.838,13.542a54.332,54.332,0,0,0,4.109-13.886Z" transform="translate(-770.826 -480.101)" fill="#0099b9"/>
      </g>
      <g id="Group_40" data-name="Group 40" transform="translate(21.596 135.391)">
        <path id="Path_299" data-name="Path 299" d="M773.624,478.553a1,1,0,0,1-.769.176,2.491,2.491,0,0,1-1.461-.74,7,7,0,0,1-1.128-2.486s2.049.151,2.714,1.007C773.9,477.7,773.717,478.485,773.624,478.553Z" transform="translate(-770.266 -475.503)" fill="#0099b9"/>
        <path id="Path_300" data-name="Path 300" d="M776.317,480.9a33.82,33.82,0,0,1-4.416-4.2,23.908,23.908,0,0,0,4.252,4.755Z" transform="translate(-769.843 -475.193)" fill="#0099b9"/>
      </g>
      <g id="Group_41" data-name="Group 41" transform="translate(67.928 55.056)">
        <path id="Path_301" data-name="Path 301" d="M809.629,418.052a1.482,1.482,0,0,1-1.118-.335,3.69,3.69,0,0,1-1.339-2.021,10.362,10.362,0,0,1,.367-4.021s2.525,1.692,2.754,3.279C810.612,417.163,809.8,418.032,809.629,418.052Z" transform="translate(-807.078 -411.675)" fill="#0099b9"/>
        <path id="Path_302" data-name="Path 302" d="M811.281,423.04a49.926,49.926,0,0,1-2.61-8.628,35.364,35.364,0,0,0,1.992,9.223Z" transform="translate(-806.666 -410.967)" fill="#0099b9"/>
      </g>
      <g id="Group_42" data-name="Group 42" transform="translate(56.301 97.711)">
        <path id="Path_303" data-name="Path 303" d="M802.738,449a1.491,1.491,0,0,1,.169,1.155,3.685,3.685,0,0,1-1.267,2.068,10.379,10.379,0,0,1-3.8,1.364s.467-3,1.81-3.882C801.518,448.481,802.649,448.853,802.738,449Z" transform="translate(-797.84 -444.721)" fill="#0099b9"/>
        <path id="Path_304" data-name="Path 304" d="M806.523,445.565a49.923,49.923,0,0,1-6.719,6.01,35.345,35.345,0,0,0,7.519-5.7Z" transform="translate(-797.332 -445.565)" fill="#0099b9"/>
      </g>
      <g id="Group_43" data-name="Group 43" transform="translate(73.436 40.479)">
        <path id="Path_305" data-name="Path 305" d="M813.4,408.546a1.879,1.879,0,0,1-1.185-.871,4.65,4.65,0,0,1-.731-2.967,13.056,13.056,0,0,1,2.14-4.615s2.279,3.077,1.878,5.057C814.944,407.908,813.61,408.592,813.4,408.546Z" transform="translate(-811.454 -400.093)" fill="#0099b9"/>
        <path id="Path_306" data-name="Path 306" d="M814.18,414.256c-.047-3.82-.945-8.136-.392-10.4a21.379,21.379,0,0,0-1.543,8.944Z" transform="translate(-811.249 -399.119)" fill="#0099b9"/>
      </g>
      <g id="Group_44" data-name="Group 44" transform="translate(173.895 123.019)">
        <path id="Path_307" data-name="Path 307" d="M895.456,468.843a1.479,1.479,0,0,1,1.07-.466,3.68,3.68,0,0,1,2.327.678,10.356,10.356,0,0,1,2.316,3.308s-3.021.339-4.22-.725C895.279,470.157,895.341,468.967,895.456,468.843Z" transform="translate(-890.202 -464.974)" fill="#0099b9"/>
        <path id="Path_308" data-name="Path 308" d="M891.271,466.526a49.992,49.992,0,0,1,7.565,4.9,35.377,35.377,0,0,0-7.477-5.754Z" transform="translate(-891.271 -465.673)" fill="#0099b9"/>
      </g>
      <g id="Group_45" data-name="Group 45" transform="translate(203.46 137.578)">
        <path id="Path_309" data-name="Path 309" d="M919.3,483.977a1.893,1.893,0,0,1-.443-1.417,4.7,4.7,0,0,1,1.178-2.848,13.189,13.189,0,0,1,4.5-2.472s.014,3.864-1.5,5.233C920.94,484.381,919.445,484.14,919.3,483.977Z" transform="translate(-913.703 -477.24)" fill="#0099b9"/>
        <path id="Path_310" data-name="Path 310" d="M915.828,489.365c2.244-3.133,5.432-7.381,7.234-8.887a44.932,44.932,0,0,0-8.3,8.659Z" transform="translate(-914.761 -476.403)" fill="#0099b9"/>
      </g>
      <g id="Group_46" data-name="Group 46" transform="translate(218.8 135.064)">
        <path id="Path_311" data-name="Path 311" d="M929.286,481.555a1.49,1.49,0,0,1-.676-.953,3.7,3.7,0,0,1,.191-2.418,10.346,10.346,0,0,1,2.765-2.941s.948,2.889.151,4.279C930.607,481.459,929.43,481.642,929.286,481.555Z" transform="translate(-926.549 -475.243)" fill="#0099b9"/>
        <path id="Path_312" data-name="Path 312" d="M927.8,486.56a49.868,49.868,0,0,1,3.256-8.4,35.371,35.371,0,0,0-4.111,8.492Z" transform="translate(-926.949 -474.49)" fill="#0099b9"/>
      </g>
      <g id="Group_47" data-name="Group 47" transform="translate(158.918 152.128)">
        <path id="Path_313" data-name="Path 313" d="M886.033,492.9a2.048,2.048,0,0,1,.279-1.583,5.075,5.075,0,0,1,2.55-2.154c2.086-.723,5.557-.14,5.557-.14s-1.911,3.723-4.044,4.289C887.405,494.1,886.087,493.126,886.033,492.9Z" transform="translate(-877.662 -488.801)" fill="#0099b9"/>
        <path id="Path_314" data-name="Path 314" d="M880.283,496.039c3.718-1.9,8.9-4.4,11.379-4.949a48.743,48.743,0,0,0-12.292,4.2Z" transform="translate(-879.371 -488.208)" fill="#0099b9"/>
      </g>
      <g id="Group_48" data-name="Group 48" transform="translate(65.976 121.951)">
        <path id="Path_315" data-name="Path 315" d="M814.3,467.3a2.048,2.048,0,0,1-.458,1.54,5.089,5.089,0,0,1-2.78,1.846c-2.156.48-5.537-.5-5.537-.5s2.325-3.479,4.508-3.8C813.076,465.946,814.274,467.066,814.3,467.3Z" transform="translate(-805.527 -464.446)" fill="#0099b9"/>
        <path id="Path_316" data-name="Path 316" d="M821.166,464.824c-3.911,1.458-9.343,3.347-11.873,3.611a48.734,48.734,0,0,0,12.692-2.76Z" transform="translate(-804.553 -464.824)" fill="#0099b9"/>
      </g>
      <g id="Group_49" data-name="Group 49" transform="translate(108.75 158.181)">
        <path id="Path_317" data-name="Path 317" d="M842.55,497.543a1.388,1.388,0,0,1,1.081-.1,3.425,3.425,0,0,1,1.86,1.27,9.626,9.626,0,0,1,1.095,3.591s-2.768-.57-3.522-1.856C842.015,498.655,842.412,497.62,842.55,497.543Z" transform="translate(-838.775 -492.636)" fill="#0099b9"/>
        <path id="Path_318" data-name="Path 318" d="M839.512,494.339a46.452,46.452,0,0,1,5.273,6.511,32.816,32.816,0,0,0-4.95-7.24Z" transform="translate(-839.512 -493.61)" fill="#0099b9"/>
      </g>
      <g id="Group_50" data-name="Group 50" transform="translate(128.382 45.853)">
        <path id="Path_319" data-name="Path 319" d="M862.99,406.585a1.839,1.839,0,0,1-.412,1.383,4.568,4.568,0,0,1-2.5,1.658,12.807,12.807,0,0,1-4.972-.448s2.088-3.124,4.049-3.41C861.89,405.37,862.965,406.376,862.99,406.585Z" transform="translate(-855.11 -404.023)" fill="#0099b9"/>
        <path id="Path_320" data-name="Path 320" d="M869.152,404.363c-3.511,1.308-8.389,3.006-10.66,3.242a43.747,43.747,0,0,0,11.4-2.478Z" transform="translate(-854.235 -404.363)" fill="#0099b9"/>
      </g>
      <g id="Group_51" data-name="Group 51" transform="translate(83.707 78.485)">
        <path id="Path_321" data-name="Path 321" d="M823.226,436.981a1.68,1.68,0,0,1-1.306-.16,4.163,4.163,0,0,1-1.872-1.992,11.684,11.684,0,0,1-.355-4.539s3.126,1.4,3.683,3.12C824.15,435.8,823.41,436.925,823.226,436.981Z" transform="translate(-819.615 -430.29)" fill="#0099b9"/>
        <path id="Path_322" data-name="Path 322" d="M826.1,442.191c-1.712-2.959-3.982-7.086-4.541-9.092a39.842,39.842,0,0,0,3.967,9.871Z" transform="translate(-819.112 -429.563)" fill="#0099b9"/>
      </g>
      <g id="Group_52" data-name="Group 52" transform="translate(109.286 7.83)">
        <path id="Path_323" data-name="Path 323" d="M849.342,388.292a3.945,3.945,0,0,1-.945-2.949,9.786,9.786,0,0,1,2.412-5.961c2.906-3.108,9.346-5.23,9.346-5.23s.088,8.06-3.038,10.942C852.763,389.109,849.639,388.631,849.342,388.292Z" transform="translate(-837.754 -374.153)" fill="#0099b9"/>
        <path id="Path_324" data-name="Path 324" d="M842.168,399.6c4.633-6.571,11.214-15.487,14.95-18.658a93.812,93.812,0,0,0-17.18,18.2Z" transform="translate(-839.938 -372.397)" fill="#0099b9"/>
      </g>
      <path id="Path_325" data-name="Path 325" d="M880.877,404.157c-2.32,3.281-7.7,7.482-10.033,9.226l.808.137-.174,1.027C874.114,412.314,878.944,408.086,880.877,404.157Z" transform="translate(-722.658 -358.563)" fill="#0099b9"/>
      <path id="Path_326" data-name="Path 326" d="M915.9,558.792a17.983,17.983,0,0,1-9.84-7.055c-2.639-4.216-6.77-6.282-11.251-7.846a1.4,1.4,0,0,0-.468-.086c-.087-.006-.179.073-.488.224a6.226,6.226,0,0,1,3.061,4.554,2.045,2.045,0,0,0,1.327,1.254c2.456.568,3.023,2.62,3.7,4.613a8.719,8.719,0,0,1-.9-1.187,4.391,4.391,0,0,0-3.794-2.555c-.687-.045-1.327-.845-2.165-1.431.832,3.207.013,7.028,4.118,8.671-1.09-.23-2.179-.462-3.379-.712a13.394,13.394,0,0,0,3.458,7.2,12.671,12.671,0,0,1-5.352-7.549,78.27,78.27,0,0,1-1.583-7.72,10.558,10.558,0,0,0-5.219-7.734c-2.106-1.241-4.191-2.521-6.362-3.835-.409,2.991,1.1,5,3.729,5.577a6.384,6.384,0,0,1,2.428,1.5c-1-.218-1.992-.429-3-.641-.093.211-.185.417-.277.628a41.245,41.245,0,0,0,3.636,2.745,4.365,4.365,0,0,1,2.415,4.513c-.258,2.3.257,4.2,2.349,5.576.58.383.765,1.373,1.254,1.8a21.09,21.09,0,0,1-3.333-2.614,5.972,5.972,0,0,1-1.478-3.233c-.211-3.075-1.821-4.652-4.573-5.741a10.309,10.309,0,0,1-3.571-3.048c-1.036-1.208-1.683-2.753-2.68-4.006-.4-.515-1.286-.647-1.953-.95.126.706.026,1.577.409,2.1,1.235,1.69,2.667,3.233,3.986,4.857a9.334,9.334,0,0,1,2.509,6.6,2.791,2.791,0,0,0,2.5,3.207,2.323,2.323,0,0,1,2.019,2.211c.191,1.8.3,3.61.449,5.417-.132.014-.264.026-.39.046-.131-1.076-.271-2.145-.4-3.213a4.352,4.352,0,0,0-2.944-4.039,3.8,3.8,0,0,1-2.7-3.933,6.813,6.813,0,0,0-2.171-5.042c-.364,2.732-.673,5.095-.937,7.114-.779-1.148-.7-1.122-.126-2.837a6.242,6.242,0,0,0,.06-2.33c-.067-1.016-.238-2.026-.364-3.042l.449-.25q-1.959-1.278-3.913-2.561l-.409.35a8.437,8.437,0,0,0,.454,1.2,10.994,10.994,0,0,1,1.538,7.272c-.495,2.832,1.274,4.454,2.977,5.972a5.41,5.41,0,0,1,1.7,5.518c-.376,2.1-.885,4.17-1.412,6.618,0-2.613.527-5.081-.145-7.153-.68-2.1-2.554-3.807-4.257-5.636-.053,2.449-.812,4.218-3.141,4.877.014.065-.079-.106-.033-.185,2.277-3.26,1.294-7.1,1.789-10.657.323-2.317-1.023-4.283-2.871-5.795-1.241,1.736-2.415,3.366-3.577,5.009a1.02,1.02,0,0,0-.177.594c.185,2.157.4,4.316.594,6.473-.191.047-.39.092-.581.138-.35-1.65-.7-3.307-1.1-5.181a6.2,6.2,0,0,0-1.479,7.767,18.675,18.675,0,0,1,1.6,3.485,9.024,9.024,0,0,1-.193,2.758c-1.055-2.084-1.867-3.7-2.678-5.3a10.994,10.994,0,0,1,.066-10.506,39.666,39.666,0,0,0,1.933-4.224,2.544,2.544,0,0,0-.633-2.989,6.246,6.246,0,0,0-.515,1.247,9.717,9.717,0,0,1-3.068,5.537,26.354,26.354,0,0,0-2.244,2.521c-1.333,1.689-2.019,3.471-1.036,5.669a4.561,4.561,0,0,1-.376,4.177c-1.221,2.21-2.342,4.481-3.457,6.618a5.833,5.833,0,0,1,.673-5.2c.786-1.1,1.465-2.244,1.076-3.61a5.154,5.154,0,0,0-4.647,3,4.663,4.663,0,0,1,1.921-3.874,7.43,7.43,0,0,0,2.045-4.5,10.2,10.2,0,0,1,3.841-7.146c2.733-2.33,3.174-4.442,1.841-7.873-1.96.073-3.174,1.109-3.135,3,.04,1.987-.884,3.353-2.039,4.871a16.47,16.47,0,0,0-2.619,5.411c-.667,2.3-1.544,4.375-3.477,5.814a13.134,13.134,0,0,0-5.121,6.646c.165-2.574.4-5.108,2.659-6.817a11.147,11.147,0,0,0,4.072-6.909c.495-2.3,1.194-4.547,1.834-6.922a59.158,59.158,0,0,0-6.156,3.252c-.687.456-.991,1.829-1.03,2.8-.047,1.011-.026,1.782-1.123,2.171s-1.4,1.281-1.563,2.389a4.448,4.448,0,0,1-1.406,2.415c.073-.969.079-1.953.244-2.9.118-.646.284-1.53.739-1.828,1.716-1.115,1.254-2.474.68-4.184a11.929,11.929,0,0,0-1.675,1.624,9.061,9.061,0,0,1-4.257,3.3c-2.633,1.082-4.4,3.168-6.019,5.412a12.931,12.931,0,0,1,4.184-5.728,42.993,42.993,0,0,0,4.21-3.966c2.086-2.33,4.837-3.471,7.53-4.83a56.984,56.984,0,0,0,6.064-3.861,4.192,4.192,0,0,0,.911-1.042c-2.806.97-5.754,2.151-8.8,2.983a34.854,34.854,0,0,1-6.209.832c-.944.072-1.544.356-1.77,1.28a3.23,3.23,0,0,1-3.226,2.625,3.307,3.307,0,0,0-2.779,1.862,4.576,4.576,0,0,1-2.277,1.465c-1.168.448-2.422.68-4.072,1.121a17.454,17.454,0,0,1,2.521-1.524,4.322,4.322,0,0,0,2.659-2.356c.285-.633,1.254-1.062,2-1.366,1.121-.462,2.059-.944,1.834-2.883-1.9.68-3.7,1.213-5.411,1.972a43.644,43.644,0,0,0-4.065,2.3,6.253,6.253,0,0,1-4.831.4c3.306.369,5.386-1.874,7.807-3.445a23.689,23.689,0,0,1,11.232-3.583c2.678-.218,5.411-.218,7.6-2.145.515-.449,1.009-.917,1.616-1.479-3.121.138-6.038.165-8.935.435a9.8,9.8,0,0,0-3.649,1.182,23.522,23.522,0,0,1-10.988,2.6,9.686,9.686,0,0,0-6.876,2.666,6.584,6.584,0,0,1-6.9,1.459c3.062-.113,5-2.311,7.306-3.8a15.8,15.8,0,0,1,8.4-2.429c1.115-.026,2.224-.244,3.345-.291a5.254,5.254,0,0,1,1.327.264c3.339-2.23,6.6-4.534,10.961-4.725a28.072,28.072,0,0,0,7.569-1.366c4.493-1.512,6.724-5.319,8.42-9.431a24.663,24.663,0,0,0,1.359-4.513l13.825.145c.106,1.143.238,2.284.376,3.426.383,3.095,2.363,5.1,4.765,6.756,2.336,1.611,4.77,3.089,7.094,4.712a17.259,17.259,0,0,1,2.33,2.224,9.353,9.353,0,0,0,5.325,2.778,16.4,16.4,0,0,1,6.9,2.838,11.376,11.376,0,0,0,5.773,1.5,9.686,9.686,0,0,1,7.748,3.921c.917,1.207,1.815,2.428,2.719,3.643a7.789,7.789,0,0,1-2.151-1.841,10.516,10.516,0,0,0-5.768-3.61,19.641,19.641,0,0,0-2.277-.191,12.331,12.331,0,0,0,4.006,7C911.536,556.133,913.84,557.433,915.9,558.792Z" transform="translate(-738.356 -328.295)" fill="#0099b9"/>
    </g>
  </g>
</svg>
