<svg xmlns="http://www.w3.org/2000/svg" width="300" height="300" viewBox="0 0 300 300">
  <g id="Group_2" data-name="Group 2" transform="translate(-1190 1770)">
    <rect id="Rectangle_3" data-name="Rectangle 3" width="300" height="300" transform="translate(1190 -1770)" fill="none"/>
    <g id="tree-3" transform="translate(1283.862 -1698.999)">
      <path id="Path_33" data-name="Path 33" d="M228.823,451.057a6.173,6.173,0,0,1-4.831-.278,15.783,15.783,0,0,1-6.717-7.469c-2.836-5.977-.551-17.687-.551-17.687s10.969,5.444,13.35,11.616C233.388,445.831,229.485,450.813,228.823,451.057Z" transform="translate(-194.767 -417.319)" fill="#0099b9"/>
      <path id="Path_34" data-name="Path 34" d="M273.217,460.956a5.468,5.468,0,0,0,4,1.551,13.992,13.992,0,0,0,8.16-3.551c4.483-3.776,6.945-14.054,6.945-14.054s-10.842.355-15.029,4.455C271.459,455.065,272.773,460.515,273.217,460.956Z" transform="translate(-180.046 -412.333)" fill="#0099b9"/>
      <path id="Path_35" data-name="Path 35" d="M260.019,459.055a2.007,2.007,0,0,0,1.162,1.066,6.451,6.451,0,0,0,3.708.094c2.053-.678,4-3.563,4-3.563s-3.739-1.33-5.737-.5C260.369,457.3,259.926,458.846,260.019,459.055Z" transform="translate(-183.348 -409.494)" fill="#0099b9"/>
      <path id="Path_36" data-name="Path 36" d="M240.975,451.276a3.228,3.228,0,0,0,1.658-1.921,8.4,8.4,0,0,0-.336-5.288c-1.2-3.275-6.124-6.741-6.124-6.741s-2.245,6.141-.811,9.316C237.359,451.065,240.643,451.436,240.975,451.276Z" transform="translate(-189.846 -414.292)" fill="#0099b9"/>
      <path id="Path_37" data-name="Path 37" d="M247.643,475.791a3.239,3.239,0,0,1-.965-2.347,8.4,8.4,0,0,1,1.992-4.91c2.17-2.729,7.457-4.033,7.457-4.033s.672,6.111-1.693,8.669C251.141,476.734,247.909,476.046,247.643,475.791Z" transform="translate(-186.795 -407.264)" fill="#0099b9"/>
      <path id="Path_38" data-name="Path 38" d="M254.539,434.828a3.665,3.665,0,0,1-2.673-1.061,9.523,9.523,0,0,1-2.434-5.488c-.516-3.918,2.584-9.255,2.584-9.255s5.51,4.262,5.734,8.2C258.061,432.719,254.957,434.813,254.539,434.828Z" transform="translate(-186.098 -419.025)" fill="#0099b9"/>
      <path id="Path_39" data-name="Path 39" d="M248.526,453a2.891,2.891,0,0,1-1.493-1.707,7.161,7.161,0,0,1-.112-4.7c1.05-2.933,4.758-6.229,4.758-6.229s2.4,5.388,1.139,8.233C251.059,452.554,248.824,453.141,248.526,453Z" transform="translate(-186.823 -413.507)" fill="#0099b9"/>
      <path id="Path_40" data-name="Path 40" d="M250.747,435.253a2,2,0,0,1-1.364.77,4.955,4.955,0,0,1-3.2-.585c-1.835-1.123-3.544-4.1-3.544-4.1s3.982-.867,5.729.388C250.8,433.476,250.883,435.072,250.747,435.253Z" transform="translate(-187.84 -415.915)" fill="#0099b9"/>
      <path id="Path_41" data-name="Path 41" d="M258.245,439.929a2,2,0,0,0,1.547.243,4.955,4.955,0,0,0,2.79-1.672c1.327-1.694,1.884-5.077,1.884-5.077s-4.034.584-5.231,2.371C257.57,438.284,258.054,439.807,258.245,439.929Z" transform="translate(-183.859 -415.301)" fill="#0099b9"/>
      <path id="Path_42" data-name="Path 42" d="M265.855,446.772a3.552,3.552,0,0,0,2.717.6,8.59,8.59,0,0,0,4.727-3.116c2.375-2.89,2.677-9.768,2.677-9.768s-6.815,1.327-8.964,4.4C264.022,443.151,265.52,446.533,265.855,446.772Z" transform="translate(-182.009 -415.027)" fill="#0099b9"/>
      <path id="Path_43" data-name="Path 43" d="M234.656,474.458s1.955,10.166,4.3,7.428c2.121-2.473,12.2-27.2,13.764-35.713C249.592,456.426,234.656,474.458,234.656,474.458Z" transform="translate(-189.904 -412.004)" fill="#0099b9"/>
      <path id="Path_44" data-name="Path 44" d="M247.227,459.548s-7.994-11.353-8.907-15.272c.38,2.634,2.067,12.966,5.909,19.183Z" transform="translate(-188.957 -412.494)" fill="#0099b9"/>
      <path id="Path_45" data-name="Path 45" d="M244.535,467.115s.211-.138.6-.4c3.717-2.482,23.626-16.02,30.938-25.928,0,0-14.075,25.545-35.972,33.625" transform="translate(-188.495 -413.397)" fill="#0099b9"/>
      <path id="Path_46" data-name="Path 46" d="M252.2,458.854s12.859-.347,15.987-1.912c0,0-9.644,6.907-17.725,4.822Z" transform="translate(-185.817 -409.219)" fill="#0099b9"/>
      <path id="Path_47" data-name="Path 47" d="M238.86,486.751s12.481-15.164,14.946-17.521c0,0-10.285,18.222-12.7,21.025S238.86,486.751,238.86,486.751Z" transform="translate(-188.817 -406.041)" fill="#0099b9"/>
      <path id="Path_48" data-name="Path 48" d="M261.561,457.218s-4.518-6.734-8.341-30.237c0,0,1.39,23.112,5.561,32.5Z" transform="translate(-185.103 -416.967)" fill="#0099b9"/>
      <path id="Path_49" data-name="Path 49" d="M257.193,438.143c-3.728-1.624-8.817-3.972-10.769-5.5a47.488,47.488,0,0,0,10.769,6.651Z" transform="translate(-186.861 -415.503)" fill="#0099b9"/>
      <path id="Path_50" data-name="Path 50" d="M216.917,460.448a2.6,2.6,0,0,1-2.044-.112,6.464,6.464,0,0,1-3.113-2.9c-1.233-2.528-1.023-7.007-1.023-7.007s5,1.848,6.04,4.459C218.228,458.528,217.2,460.343,216.917,460.448Z" transform="translate(-196.094 -410.902)" fill="#0099b9"/>
      <path id="Path_51" data-name="Path 51" d="M221.94,468.233c-2.965-4.412-6.917-10.581-7.994-13.636a61.993,61.993,0,0,0,7.183,14.9Z" transform="translate(-195.26 -409.825)" fill="#0099b9"/>
      <path id="Path_52" data-name="Path 52" d="M260.579,436.806a30.685,30.685,0,0,1-4.716,6.087h.463v.589C257.584,441.989,259.873,439.177,260.579,436.806Z" transform="translate(-184.42 -414.426)" fill="#0099b9"/>
      <path id="Path_53" data-name="Path 53" d="M219.752,461.357a1.376,1.376,0,0,0,1.066.167,3.417,3.417,0,0,0,1.922-1.15,9.591,9.591,0,0,0,1.3-3.5s-2.779.4-3.6,1.634C219.288,460.224,219.62,461.272,219.752,461.357Z" transform="translate(-193.797 -409.236)" fill="#0099b9"/>
      <path id="Path_54" data-name="Path 54" d="M221.36,459.206a21.209,21.209,0,0,1-3.247,4.193h.318v.4a15.456,15.456,0,0,0,2.929-4.6Z" transform="translate(-194.183 -408.633)" fill="#0099b9"/>
      <path id="Path_55" data-name="Path 55" d="M256.869,558.412c-1.463-9.844-2.989-20.3-2.536-30.277.436-9.592,4.068-16.713,8.984-24.7,3.238-5.259,6.182-10.769,9.409-16.06q8.25-13.525,16.861-26.828.368-.57.738-1.14c-10.851,4.748-34.637,38.016-40.761,46.763l-.741-2.515c-3.548-12.064-7.442-24.038-12.076-35.734-3.733-9.423-7.8-19.762-14.575-27.482a600.471,600.471,0,0,1,17.174,61.69,191.233,191.233,0,0,1,3.822,29.672c.462,8.422,1.022,16.9.008,25.309-.458,3.8-2.258,14.944-7.688,14.944h28.8C259.39,572.055,257.387,561.9,256.869,558.412Z" transform="translate(-193.133 -413.486)" fill="#0099b9"/>
      <path id="Path_56" data-name="Path 56" d="M216.5,472.881a3.256,3.256,0,0,1-.216,2.545,8.311,8.311,0,0,1-4.038,3.431c-3.194,1.406-9.146.223-9.146.223s2.838-5.907,6.128-7.068C213.8,470.392,216.376,472.528,216.5,472.881Z" transform="translate(-198.067 -405.476)" fill="#0099b9"/>
      <path id="Path_57" data-name="Path 57" d="M223.664,488.968a4.64,4.64,0,0,0-.809-3.551,11.887,11.887,0,0,0-6.381-4.053c-4.79-1.357-13.2,1.8-13.2,1.8s5.41,7.461,10.287,8.457C220.356,493.008,223.566,489.49,223.664,488.968Z" transform="translate(-198.019 -402.99)" fill="#0099b9"/>
      <path id="Path_58" data-name="Path 58" d="M210.259,466.733a3.92,3.92,0,0,0,1.111-2.867,10.2,10.2,0,0,0-2.536-5.9c-2.7-3.251-9.734-5.2-9.734-5.2s-.065,7.922,2.866,10.964C206.045,467.964,209.944,467.05,210.259,466.733Z" transform="translate(-199.1 -410.299)" fill="#0099b9"/>
      <path id="Path_59" data-name="Path 59" d="M272.634,475.887a3.55,3.55,0,0,0,2.716.6,8.588,8.588,0,0,0,4.729-3.116c2.374-2.888,2.677-9.767,2.677-9.767s-6.815,1.325-8.964,4.394C270.8,472.266,272.3,475.649,272.634,475.887Z" transform="translate(-180.256 -407.497)" fill="#0099b9"/>
      <path id="Path_60" data-name="Path 60" d="M239.893,470.432c-1.173,0-28.543-4.171-35.973-11.209,0,0,4.171,12.252,38.579,16.683Z" transform="translate(-197.853 -408.629)" fill="#0099b9"/>
      <path id="Path_61" data-name="Path 61" d="M219.524,467.508s-7.82,8.6-10.426,9.122c0,0,10.687-3.128,14.337-7.038Z" transform="translate(-196.514 -406.486)" fill="#0099b9"/>
      <path id="Path_62" data-name="Path 62" d="M244.709,489.853s-26.194-3.128-32.06-5.864c0,0,17.253,11.925,32.372,12.448Z" transform="translate(-195.596 -402.224)" fill="#0099b9"/>
      <path id="Path_63" data-name="Path 63" d="M268,493.236a4.639,4.639,0,0,1,1.593-3.274,11.884,11.884,0,0,1,7.135-2.5c4.973-.235,12.441,4.748,12.441,4.748s-6.96,6.038-11.937,5.9C270.3,497.922,267.974,493.766,268,493.236Z" transform="translate(-181.281 -401.327)" fill="#0099b9"/>
      <path id="Path_64" data-name="Path 64" d="M249.909,489.094s26.222,2.9,32.556,1.564c0,0-19.51,7.7-34.352,4.776Z" transform="translate(-186.424 -400.903)" fill="#0099b9"/>
      <path id="Path_65" data-name="Path 65" d="M260.251,481.342s13.815-3.649,20.983-12.9c0,0-5.082,14.727-24.5,18.246Z" transform="translate(-184.195 -406.245)" fill="#0099b9"/>
      <path id="Path_66" data-name="Path 66" d="M242.39,540.8a14.558,14.558,0,0,0-.9,1.66,14.257,14.257,0,0,1-3.163,3.489,12.791,12.791,0,0,1-5.489,2.5c-4.525.882-9.876,1.592-12.138,6.517.293-.639,3.2-1.413,3.932-1.679a26.42,26.42,0,0,1,4.52-1.22c2.732-.464,6.182.205,8.679-1.212.541-.307.521,1.427.457,1.588-1.172,2.946-6.992,3.26-9.6,4.38a32.772,32.772,0,0,0-5.548,3,22.043,22.043,0,0,0-2.7,2.146c-.8.754-1.415,1.953-2.243,2.612a25.3,25.3,0,0,1,5.831-3.47c3.719-1.567,8-2.542,11.89-3.756a14,14,0,0,0,4.3-1.877c1.194-.892,1.794-2.793,3.072-3.452,0,0,4.609-3.935,13.705-.419,0,0,5.139,1.783,12.634,12.071l2.463,3.043c-.159-.2-.059-1.209-.089-1.466a15.146,15.146,0,0,0-.984-3.822,22.768,22.768,0,0,0-4.931-6.926c-.474-.506-5.459-5.182-5.452-5.209.463-1.85,6.2-.568,7.138-.458,4.965.576,9.948.984,14.936,1.294q1.8.111,3.592.208c.959.052,3.879.194,3.9.2-.147-.006-.488-.758-.621-.889a5.523,5.523,0,0,0-1.721-1,15.2,15.2,0,0,0-3.846-.945c-3.2-.446-6.438-.539-9.652-.872-2.259-.234-4.5-.6-6.724-1.055a15.048,15.048,0,0,1-4.813-1.669,11.119,11.119,0,0,1-2.6-1.792,8.543,8.543,0,0,1-2.423-4.871S242.41,540.8,242.39,540.8Z" transform="translate(-194.162 -388.397)" fill="#0099b9"/>
    </g>
  </g>
</svg>
