<svg xmlns="http://www.w3.org/2000/svg" width="300" height="300" viewBox="0 0 300 300">
  <g id="Group_2" data-name="Group 2" transform="translate(-1190 1770)">
    <rect id="Rectangle_3" data-name="Rectangle 3" width="300" height="300" transform="translate(1190 -1770)" fill="none"/>
    <g id="tree-4" transform="translate(1257.064 -1725)">
      <g id="Group_3" data-name="Group 3" transform="translate(105.319 21.297)">
        <path id="Path_67" data-name="Path 67" d="M571.848,422.71a2.543,2.543,0,0,1-.362-1.958,6.294,6.294,0,0,1,2.026-3.6c2.107-1.743,6.386-2.569,6.386-2.569s-.6,5.145-2.832,6.727C573.961,423.509,572.01,422.949,571.848,422.71Z" transform="translate(-563.429 -414.579)" fill="#0099b9"/>
        <path id="Path_68" data-name="Path 68" d="M566.455,429.239c3.491-3.81,8.418-8.956,11.058-10.672a60.356,60.356,0,0,0-12.441,10.2Z" transform="translate(-565.072 -413.548)" fill="#0099b9"/>
      </g>
      <path id="Path_69" data-name="Path 69" d="M502.845,493.573a2.717,2.717,0,0,0,2.084-.449,6.746,6.746,0,0,0,2.726-3.49c.855-2.8-.094-7.374-.094-7.374s-4.839,2.72-5.484,5.577C501.181,491.813,502.54,493.512,502.845,493.573Z" transform="translate(-476.123 -375.778)" fill="#0099b9"/>
      <path id="Path_70" data-name="Path 70" d="M498.991,502.406c2.327-5.025,5.382-12.017,5.989-15.338a64.66,64.66,0,0,1-4.946,16.509Z" transform="translate(-476.843 -374.534)" fill="#0099b9"/>
      <g id="Group_4" data-name="Group 4" transform="translate(12.02 107.461)">
        <path id="Path_71" data-name="Path 71" d="M498.161,490.388a2.283,2.283,0,0,1-1.767.3,5.668,5.668,0,0,1-3.218-1.869c-1.542-1.919-2.231-5.782-2.231-5.782s4.625.608,6.021,2.636C498.907,488.5,498.379,490.246,498.161,490.388Z" transform="translate(-490.944 -483.038)" fill="#0099b9"/>
        <path id="Path_72" data-name="Path 72" d="M503.959,496.061c-3.386-3.192-7.955-7.691-9.465-10.092a54.284,54.284,0,0,0,9.019,11.331Z" transform="translate(-490.026 -482.28)" fill="#0099b9"/>
      </g>
      <g id="Group_5" data-name="Group 5" transform="translate(25.672 119.318)">
        <path id="Path_73" data-name="Path 73" d="M505.227,493.981a1.008,1.008,0,0,1,.3-.731,2.5,2.5,0,0,1,1.446-.773,7.005,7.005,0,0,1,2.682.5s-1.3,1.592-2.381,1.645C505.763,494.7,505.229,494.1,505.227,493.981Z" transform="translate(-500.902 -492.458)" fill="#0099b9"/>
        <path id="Path_74" data-name="Path 74" d="M502.152,494.735a33.8,33.8,0,0,1,5.971-1.211,23.95,23.95,0,0,0-6.332.756Z" transform="translate(-501.791 -492.184)" fill="#0099b9"/>
      </g>
      <path id="Path_75" data-name="Path 75" d="M572.163,511.173a2.368,2.368,0,0,0-.536,1.772,7.57,7.57,0,0,0,1.79,3.974c1.766,1.83,5.81,2.417,5.81,2.417s-.5-4.637-2.393-6.33C574.2,510.65,572.338,510.968,572.163,511.173Z" transform="translate(-458.061 -368.337)" fill="#0099b9"/>
      <path id="Path_76" data-name="Path 76" d="M598.257,498.578a4.306,4.306,0,0,1,.917-3.254,11.2,11.2,0,0,1,6.123-3.5c4.517-1.074,11.126,1.908,11.126,1.908s-4.318,6.953-8.9,7.688C601.144,502.441,598.324,499.064,598.257,498.578Z" transform="translate(-451.18 -373.365)" fill="#0099b9"/>
      <path id="Path_77" data-name="Path 77" d="M571.1,495.5a3.4,3.4,0,0,1,1.046-2.449,8.422,8.422,0,0,1,4.924-2.516c3.639-.383,9.019,1.863,9.019,1.863s-4.481,5.289-8.137,5.4C572.86,497.961,571.1,495.892,571.1,495.5Z" transform="translate(-458.194 -373.648)" fill="#0099b9"/>
      <path id="Path_78" data-name="Path 78" d="M589.955,510.577a4.179,4.179,0,0,0,.753,3.181,10.1,10.1,0,0,0,5.709,3.418c4.269,1.041,11.706-2.145,11.706-2.145s-4.877-6.539-9.221-7.25C592.855,506.791,590.037,510.1,589.955,510.577Z" transform="translate(-453.333 -369.225)" fill="#0099b9"/>
      <path id="Path_79" data-name="Path 79" d="M553.29,489.512s-9.767,7.251-5.674,8.34c3.7.984,24.947.315,34.761-2.369C569.926,497.4,553.29,489.512,553.29,489.512Z" transform="translate(-464.526 -373.902)" fill="#0099b9"/>
      <path id="Path_80" data-name="Path 80" d="M562.251,495.67s.254.154.729.434c4.522,2.67,29,16.85,43.22,19.544,0,0-34.221-1.884-53.935-20.95" transform="translate(-463.065 -372.561)" fill="#0099b9"/>
      <path id="Path_81" data-name="Path 81" d="M568.636,502.588s6.921,13.438,10.171,15.953c0,0-12.229-6.691-14.138-16.309Z" transform="translate(-459.857 -370.613)" fill="#0099b9"/>
      <path id="Path_82" data-name="Path 82" d="M576.919,509.669s7.329-6.09,34.343-13.382c0,0-26.849,4.4-37.318,10.4Z" transform="translate(-457.458 -372.15)" fill="#0099b9"/>
      <path id="Path_83" data-name="Path 83" d="M534.928,476.341a3.372,3.372,0,0,1-2.56-.657,8.358,8.358,0,0,1-3.212-4.453c-.924-3.513.469-9.13.469-9.13s5.865,3.6,6.526,7.169C537.073,474.24,535.307,476.279,534.928,476.341Z" transform="translate(-469.123 -380.991)" fill="#0099b9"/>
      <path id="Path_84" data-name="Path 84" d="M539.17,487.466c-2.643-6.335-6.093-15.143-6.686-19.283a80.045,80.045,0,0,0,5.34,20.685Z" transform="translate(-468.181 -379.418)" fill="#0099b9"/>
      <path id="Path_85" data-name="Path 85" d="M525.287,514.328a2.509,2.509,0,0,1,.566,1.878,8,8,0,0,1-1.894,4.208c-1.869,1.937-6.151,2.559-6.151,2.559s.526-4.911,2.532-6.7C523.133,513.776,525.1,514.112,525.287,514.328Z" transform="translate(-471.976 -367.522)" fill="#0099b9"/>
      <path id="Path_86" data-name="Path 86" d="M499.554,500.3a3.943,3.943,0,0,0-.956-2.944,10.249,10.249,0,0,0-5.729-2.989c-4.172-.822-10.116,2.143-10.116,2.143s4.2,6.209,8.422,6.719C497.05,503.937,499.51,500.746,499.554,500.3Z" transform="translate(-481.042 -372.684)" fill="#0099b9"/>
      <path id="Path_87" data-name="Path 87" d="M526.4,496.231a3.393,3.393,0,0,0-1.046-2.449,8.414,8.414,0,0,0-4.924-2.516c-3.639-.384-9.019,1.863-9.019,1.863s4.481,5.289,8.136,5.4C524.641,498.687,526.4,496.618,526.4,496.231Z" transform="translate(-473.63 -373.46)" fill="#0099b9"/>
      <path id="Path_88" data-name="Path 88" d="M508.4,513.409a3.645,3.645,0,0,1-.658,2.779,8.814,8.814,0,0,1-4.989,2.987c-3.729.91-10.228-1.873-10.228-1.873s4.262-5.714,8.056-6.336C505.866,510.1,508.329,512.994,508.4,513.409Z" transform="translate(-478.515 -368.395)" fill="#0099b9"/>
      <path id="Path_89" data-name="Path 89" d="M548.48,490.239s9.767,7.251,5.673,8.34c-3.7.984-24.946.315-34.759-2.369C531.843,498.123,548.48,490.239,548.48,490.239Z" transform="translate(-471.567 -373.714)" fill="#0099b9"/>
      <path id="Path_90" data-name="Path 90" d="M548.755,496.525s-.269.162-.773.458c-4.788,2.827-33.114,19.447-48.17,22.3,0,0,36.236-1.995,57.111-22.183" transform="translate(-476.631 -372.089)" fill="#0099b9"/>
      <path id="Path_91" data-name="Path 91" d="M530.929,505.336s-7.329,14.23-10.771,16.893c0,0,12.95-7.086,14.973-17.271Z" transform="translate(-471.369 -369.908)" fill="#0099b9"/>
      <path id="Path_92" data-name="Path 92" d="M527.406,510.891s-8.006-6.142-36.89-12.742c0,0,28.59,3.548,39.914,9.467Z" transform="translate(-479.035 -371.669)" fill="#0099b9"/>
      <path id="Path_93" data-name="Path 93" d="M561.325,539.184v-.02c-.866-14.4-.949-29.485,6.237-42.252,3.388-6.021,6.954-11.943,10.567-17.831,4.561-7.434,14.41-20.477,19.165-27.788-8.968,3.923-33.36,36.036-39.66,44.969-5.054-19.687-18.8-59.533-29.762-69.287,11.66,33.4,22.362,71.849,22.523,101.226.021,3.843-.247,7.674-.147,11.511,0,0,0,27.2-7,31.564h24.911C562.878,571.276,561.61,543.875,561.325,539.184Z" transform="translate(-469.374 -390.076)" fill="#0099b9"/>
      <path id="Path_94" data-name="Path 94" d="M493.284,465.038a2.621,2.621,0,0,1-1.065,1.76,6.693,6.693,0,0,1-4.141,1.037c-2.808-.125-6.685-3.1-6.685-3.1s4.157-3.252,6.949-2.917C492.228,462.28,493.324,464.739,493.284,465.038Z" transform="translate(-481.394 -381.072)" fill="#0099b9"/>
      <path id="Path_95" data-name="Path 95" d="M601.877,472.443a3.826,3.826,0,0,0,2.735,1.235,9.765,9.765,0,0,0,5.834-2.177c3.27-2.473,5.465-9.257,5.465-9.257s-7.685-.471-10.763,2.239C600.865,468.257,601.584,472.119,601.877,472.443Z" transform="translate(-450.295 -380.963)" fill="#0099b9"/>
      <path id="Path_96" data-name="Path 96" d="M605.413,453.591a3.807,3.807,0,0,1-1.135-2.759,9.888,9.888,0,0,1,2.341-5.77c2.55-3.206,8.764-4.737,8.764-4.737s.79,7.179-1.99,10.187C609.523,454.7,605.725,453.892,605.413,453.591Z" transform="translate(-449.613 -386.623)" fill="#0099b9"/>
      <path id="Path_97" data-name="Path 97" d="M504.82,435.446a3.529,3.529,0,0,0,1.2-2.487,9.159,9.159,0,0,0-1.845-5.461c-2.181-3.1-8.337-5.355-8.337-5.355s-.628,7.085,1.775,10.017C500.962,436.242,504.516,435.706,504.82,435.446Z" transform="translate(-477.677 -391.326)" fill="#0099b9"/>
      <path id="Path_98" data-name="Path 98" d="M500.066,447.73a3.915,3.915,0,0,0,1.11-2.863,10.184,10.184,0,0,0-2.534-5.893c-2.7-3.247-9.722-5.194-9.722-5.194s-.064,7.913,2.862,10.95C495.857,448.959,499.751,448.047,500.066,447.73Z" transform="translate(-479.447 -388.316)" fill="#0099b9"/>
      <path id="Path_99" data-name="Path 99" d="M537.991,416.054a4.082,4.082,0,0,1-2.688-1.739,10.115,10.115,0,0,1-1.976-6.35c.288-4.389,4.049-10.307,4.049-10.307s5.352,6.39,4.739,10.745C541.261,414.464,538.45,416.128,537.991,416.054Z" transform="translate(-467.968 -397.658)" fill="#0099b9"/>
      <path id="Path_100" data-name="Path 100" d="M508.974,421.545a2.744,2.744,0,0,1-2.141-.218,6.8,6.8,0,0,1-3.124-3.191c-1.171-2.714-.733-7.4-.733-7.4s5.155,2.182,6.121,4.974C510.443,419.594,509.271,421.45,508.974,421.545Z" transform="translate(-475.833 -394.276)" fill="#0099b9"/>
      <path id="Path_101" data-name="Path 101" d="M531.489,434.4a6.532,6.532,0,0,1-5.119-.294,16.719,16.719,0,0,1-7.119-7.916c-3.006-6.333-.584-18.743-.584-18.743s11.623,5.768,14.147,12.309C536.327,428.862,532.19,434.142,531.489,434.4Z" transform="translate(-471.993 -395.126)" fill="#0099b9"/>
      <path id="Path_102" data-name="Path 102" d="M581,450.837a5.532,5.532,0,0,0,4.044,1.571,14.162,14.162,0,0,0,8.261-3.6c4.537-3.822,7.031-14.226,7.031-14.226s-10.975.36-15.216,4.51C579.219,444.874,580.551,450.392,581,450.837Z" transform="translate(-455.75 -388.108)" fill="#0099b9"/>
      <path id="Path_103" data-name="Path 103" d="M583.845,462.86a3.867,3.867,0,0,0,2.958.648,9.347,9.347,0,0,0,5.148-3.392c2.585-3.145,2.914-10.634,2.914-10.634s-7.42,1.444-9.758,4.784C581.85,458.917,583.48,462.6,583.845,462.86Z" transform="translate(-455.087 -384.255)" fill="#0099b9"/>
      <path id="Path_104" data-name="Path 104" d="M547.293,456.965c-1.746,0-42.485-6.208-53.542-16.683,0,0,6.207,18.235,57.422,24.831Z" transform="translate(-478.198 -386.634)" fill="#0099b9"/>
      <path id="Path_105" data-name="Path 105" d="M520.231,452.613s-27.475,14.8-31.354,15.574c0,0,31.741-6.651,37.173-12.47Z" transform="translate(-479.459 -383.445)" fill="#0099b9"/>
      <path id="Path_106" data-name="Path 106" d="M569.547,469.836s16.234-4.288,24.658-15.161c0,0-5.973,17.3-28.792,21.441Z" transform="translate(-459.665 -382.912)" fill="#0099b9"/>
      <path id="Path_107" data-name="Path 107" d="M561.508,489.309s45.483-15.16,62.021-46.4c0,0-26.678,54.191-66.648,56.029Z" transform="translate(-461.871 -385.955)" fill="#0099b9"/>
      <path id="Path_108" data-name="Path 108" d="M511.094,470.667a3.487,3.487,0,0,1-1.246,2.434,8.924,8.924,0,0,1-5.4,1.771c-3.738.1-9.272-3.751-9.272-3.751s5.316-4.43,9.052-4.254C509.433,467.112,511.119,470.268,511.094,470.667Z" transform="translate(-477.829 -379.76)" fill="#0099b9"/>
      <path id="Path_109" data-name="Path 109" d="M521.4,486.322a2.879,2.879,0,0,1-1.316,1.83,6.961,6.961,0,0,1-4.54.676c-3-.458-6.9-4.447-6.9-4.447s4.831-2.887,7.788-2.2C520.545,483.144,521.471,486,521.4,486.322Z" transform="translate(-474.347 -375.825)" fill="#0099b9"/>
      <path id="Path_110" data-name="Path 110" d="M593.436,491.912a2.717,2.717,0,0,1-2.084-.449,6.74,6.74,0,0,1-2.726-3.49c-.855-2.8.094-7.374.094-7.374s4.839,2.72,5.482,5.577C595.1,490.152,593.74,491.851,593.436,491.912Z" transform="translate(-453.754 -376.208)" fill="#0099b9"/>
      <path id="Path_111" data-name="Path 111" d="M597.239,500.745c-2.327-5.024-5.382-12.017-5.989-15.338a64.542,64.542,0,0,0,4.946,16.509Z" transform="translate(-452.983 -374.964)" fill="#0099b9"/>
      <g id="Group_6" data-name="Group 6" transform="translate(140.451 105.371)">
        <path id="Path_112" data-name="Path 112" d="M598.369,488.727a2.281,2.281,0,0,0,1.767.3,5.665,5.665,0,0,0,3.217-1.869c1.543-1.919,2.232-5.782,2.232-5.782s-4.624.609-6.02,2.636C597.622,486.836,598.151,488.585,598.369,488.727Z" transform="translate(-591.653 -481.377)" fill="#0099b9"/>
        <path id="Path_113" data-name="Path 113" d="M592.985,494.4c3.386-3.192,7.954-7.691,9.465-10.092a54.273,54.273,0,0,1-9.019,11.331Z" transform="translate(-592.985 -480.619)" fill="#0099b9"/>
      </g>
      <g id="Group_7" data-name="Group 7" transform="translate(131.982 117.228)">
        <path id="Path_114" data-name="Path 114" d="M590.681,492.32a1,1,0,0,0-.3-.731,2.49,2.49,0,0,0-1.445-.773,7.014,7.014,0,0,0-2.684.5s1.3,1.592,2.381,1.645C590.145,493.038,590.677,492.434,590.681,492.32Z" transform="translate(-586.256 -490.797)" fill="#0099b9"/>
        <path id="Path_115" data-name="Path 115" d="M594.148,493.074a33.8,33.8,0,0,0-5.972-1.211,23.949,23.949,0,0,1,6.333.756Z" transform="translate(-585.759 -490.524)" fill="#0099b9"/>
      </g>
      <path id="Path_116" data-name="Path 116" d="M559.408,491.38s-43.932-21.785-54.993-21.334c0,0,46.738,24.649,55.437,33.1Z" transform="translate(-475.44 -378.938)" fill="#0099b9"/>
      <path id="Path_117" data-name="Path 117" d="M533.525,481.65s-10.313,5.271-19.647,3.564c0,0,11.037,6.14,24.663-2.243Z" transform="translate(-472.993 -375.936)" fill="#0099b9"/>
      <path id="Path_118" data-name="Path 118" d="M541.525,446.92c-.81-.1-24.581-9.487-35.59-31.146,0,0,9.4,26.609,35.539,38.542Z" transform="translate(-475.047 -392.973)" fill="#0099b9"/>
      <path id="Path_119" data-name="Path 119" d="M588.861,474.025s20.215-2.756,25.729-7.045c0,0-13.172,14.7-31.243,12.864S588.861,474.025,588.861,474.025Z" transform="translate(-456.789 -379.729)" fill="#0099b9"/>
      <path id="Path_120" data-name="Path 120" d="M531.774,442.418c-3.062,1.43-28.077-8.372-32.569-14.294,0,0,11.231,15.315,36.96,18.786Z" transform="translate(-476.788 -389.779)" fill="#0099b9"/>
      <path id="Path_121" data-name="Path 121" d="M537.83,458.021s-1.022-49.007-1.634-53.908c0,0,7.35,40.023,5.922,59.217S537.83,458.021,537.83,458.021Z" transform="translate(-467.221 -395.989)" fill="#0099b9"/>
      <path id="Path_122" data-name="Path 122" d="M570.793,446.345a2.365,2.365,0,0,0,1.364,1.251,7.562,7.562,0,0,0,4.357.111c2.413-.8,4.7-4.186,4.7-4.186s-4.394-1.563-6.74-.589C571.2,444.286,570.683,446.1,570.793,446.345Z" transform="translate(-458.277 -386.032)" fill="#0099b9"/>
      <path id="Path_123" data-name="Path 123" d="M548.414,437.2a3.8,3.8,0,0,0,1.948-2.257,9.882,9.882,0,0,0-.4-6.214c-1.4-3.849-7.2-7.92-7.2-7.92s-2.638,7.216-.953,10.948C544.165,436.956,548.024,437.392,548.414,437.2Z" transform="translate(-465.912 -391.669)" fill="#0099b9"/>
      <path id="Path_124" data-name="Path 124" d="M556.251,466.01a3.8,3.8,0,0,1-1.135-2.758,9.879,9.879,0,0,1,2.34-5.77c2.551-3.207,8.765-4.739,8.765-4.739s.789,7.18-1.99,10.187C560.361,467.117,556.562,466.311,556.251,466.01Z" transform="translate(-462.328 -383.411)" fill="#0099b9"/>
      <path id="Path_125" data-name="Path 125" d="M564.164,417.719a4.073,4.073,0,0,1-2.97-1.177,10.585,10.585,0,0,1-2.7-6.1c-.574-4.352,2.87-10.28,2.87-10.28s6.121,4.734,6.37,9.114C568.076,415.377,564.629,417.7,564.164,417.719Z" transform="translate(-461.472 -397.01)" fill="#0099b9"/>
      <path id="Path_126" data-name="Path 126" d="M557.287,439.231a3.4,3.4,0,0,1-1.753-2,8.416,8.416,0,0,1-.132-5.528c1.233-3.445,5.591-7.319,5.591-7.319s2.822,6.331,1.338,9.674C560.265,438.706,557.637,439.4,557.287,439.231Z" transform="translate(-462.36 -390.747)" fill="#0099b9"/>
      <path id="Path_127" data-name="Path 127" d="M581.475,429.639a4.172,4.172,0,0,0,3.193.7,10.091,10.091,0,0,0,5.556-3.661c2.789-3.4,3.145-11.477,3.145-11.477s-8.009,1.558-10.532,5.164C579.321,425.383,581.082,429.358,581.475,429.639Z" transform="translate(-455.714 -393.121)" fill="#0099b9"/>
      <path id="Path_128" data-name="Path 128" d="M540.989,464.445s2.3,11.946,5.055,8.729c2.491-2.906,14.335-31.96,16.173-41.966C558.54,443.255,540.989,464.445,540.989,464.445Z" transform="translate(-465.981 -388.981)" fill="#0099b9"/>
      <path id="Path_129" data-name="Path 129" d="M555.76,446.925s-9.392-13.341-10.466-17.947c.446,3.1,2.428,15.236,6.943,22.541Z" transform="translate(-464.868 -389.558)" fill="#0099b9"/>
      <path id="Path_130" data-name="Path 130" d="M498.421,457.921a2.308,2.308,0,0,0-.011-1.806,5.982,5.982,0,0,0-2.656-2.675c-2.175-1.194-6.437-.743-6.437-.743s1.672,4.34,3.927,5.369C496.384,459.5,498.317,458.162,498.421,457.921Z" transform="translate(-479.345 -383.445)" fill="#0099b9"/>
      <path id="Path_131" data-name="Path 131" d="M505.783,459.283s-9.6-2.339-11.92-4.01c1.436,1.232,7.177,5.977,12.146,7.508Z" transform="translate(-478.169 -382.757)" fill="#0099b9"/>
      <path id="Path_132" data-name="Path 132" d="M552.6,456.355s.249-.164.707-.47c4.367-2.916,31.636-21.447,40.228-33.089,0,0-20.414,32.64-46.142,42.135" transform="translate(-464.326 -391.157)" fill="#0099b9"/>
      <path id="Path_133" data-name="Path 133" d="M561.6,446.107s15.11-.408,18.786-2.245c0,0-11.334,8.117-20.829,5.666Z" transform="translate(-461.179 -385.708)" fill="#0099b9"/>
      <path id="Path_134" data-name="Path 134" d="M545.93,478.89s14.67-17.82,17.564-20.59c0,0-12.088,21.412-14.92,24.7S545.93,478.89,545.93,478.89Z" transform="translate(-464.704 -381.974)" fill="#0099b9"/>
      <path id="Path_135" data-name="Path 135" d="M572.6,444.186s-5.309-7.912-9.8-35.53c0,0,1.634,27.159,6.535,38.184Z" transform="translate(-460.34 -394.814)" fill="#0099b9"/>
      <g id="Group_8" data-name="Group 8" transform="translate(70.355 8.121)">
        <path id="Path_136" data-name="Path 136" d="M544.372,414.753a2.969,2.969,0,0,1-.712-2.219,7.36,7.36,0,0,1,1.816-4.487c2.188-2.34,7.034-3.937,7.034-3.937s.067,6.067-2.287,8.236C546.946,415.367,544.6,415.007,544.372,414.753Z" transform="translate(-535.648 -404.11)" fill="#0099b9"/>
        <path id="Path_137" data-name="Path 137" d="M538.971,423.264c3.488-4.948,8.442-11.659,11.253-14.045a70.668,70.668,0,0,0-12.932,13.7Z" transform="translate(-537.292 -402.789)" fill="#0099b9"/>
      </g>
      <path id="Path_138" data-name="Path 138" d="M544.128,544.008c-.227.238-.448.485-.666.746-2.336,2.821-6.106,2.939-9.451,3.215-3.88.32-8.077,1.038-11.318,3.355-1.478,1.057-2.794,2.444-4.161,3.641.71-.622,3.029-.75,3.944-1.06,2.07-.7,3.956-2.083,6.093-2.527a78.687,78.687,0,0,1,14.312-1.323s-6.316,5.172-12.849,4.91c0,0-4.313-.392-6.142,1.046,7.338,1.707,16.086.95,22.215-3.921-.249.2-.454.9-.625,1.177a11.452,11.452,0,0,1-2.547,2.863c-2.054,1.655-4.527,2.653-6.681,4.159-1.61,1.125-4.737,3.007-5.271,5.009,0,0,10.161-5.26,13.818-7.066a21.437,21.437,0,0,0-2.221,5.619s1.007-.527,2.092-1.176a9.109,9.109,0,0,0,3.4-3.569,10.81,10.81,0,0,0,1.306-4.141s.784-2.875,3.136-2.352c0,0,2.875.915.784,6.011a2.926,2.926,0,0,0,3.137-1.437s2.091-.653,1.829,1.83c0,0-.653,4.834-2.744,6.142,0,0,6.327.1,6.876-8.326,0,0,5.8,2.968,5.146,10.808,0,0,4.568-5.1.062-10.323,0,0-.454-2.483,2.813,0l2.222,1.83,4.443,4.181s-1.307-4.574-7.971-11.5c0,0,.522-1.7,2.091,0,3.092,3.35,4.346,7.965,9.067,9.481a14.541,14.541,0,0,0,4.5.809c-2.478-1.615-5.12-3.085-7.212-5.209-2.416-2.454-2.7-4.784-2.7-8.087a22.929,22.929,0,0,1,14.509,9.155,27.44,27.44,0,0,0-14.117-13.6s-8.474-2.875-9.388-10.454H550.81c.024,0-1.367,4.009-1.493,4.266C548.025,540.827,545.956,542.087,544.128,544.008Z" transform="translate(-471.789 -362.416)" fill="#0099b9"/>
    </g>
  </g>
</svg>
