<svg xmlns="http://www.w3.org/2000/svg" width="1919.999" height="822.217" viewBox="0 0 1919.999 822.217"><defs><style>.a{fill:#0099ba;}</style></defs><path class="a" d="M1919.86,0V822.217H516.158c-43.2,0-64.6-27.677-91.212-55.1-23.527-24.244-60.061-31.592-92.624-28.127-17.13,1.823-28.645,8.341-46.688,3.117a70.623,70.623,0,0,1-30.174-17.525c-8.845-8.873-10.216-20.766-17.971-30.694-15.174-19.39-39.62-24.026-62.8-21.076-21.226,2.548-32.683,8.816-51.993-4.329-24.416-16.621-24.883-40.681-36.941-64.8C76.06,584.3,63.837,567.438,44.87,556.057A152.422,152.422,0,0,0-.12,538.263L-.139,0Z" transform="translate(0.139)"/></svg>