<svg xmlns="http://www.w3.org/2000/svg" xmlns:xlink="http://www.w3.org/1999/xlink" width="1919.959" height="822.08" viewBox="0 0 1919.959 822.08"><defs><style>.a{fill:none;}.b{opacity:0.5;}.c{clip-path:url(#a);}.d{mix-blend-mode:overlay;isolation:isolate;fill:url(#b);}</style><clipPath id="a"><path class="a" d="M1919.86,0V822.08H516.2c-42.167,0-64.6-27.676-91.213-55.1-23.526-24.243-60.06-31.591-92.623-28.126-17.131,1.822-28.645,8.341-46.688,3.117A70.627,70.627,0,0,1,255.5,724.45c-8.845-8.873-10.216-20.767-17.971-30.694-15.174-19.39-39.62-24.027-62.8-21.076-21.226,2.547-32.682,8.815-51.992-4.33-24.416-16.62-24.883-40.68-36.941-64.8-9.694-19.39-21.917-36.25-40.884-47.631a152.446,152.446,0,0,0-44.99-17.8L-.1,0Z"/></clipPath><radialGradient id="b" cx="0.5" cy="0.5" r="0.549" gradientTransform="matrix(-0.91, 0, 0, 0.91, 0.033, 0.049)" gradientUnits="objectBoundingBox"><stop offset="0" stop-color="#a9bdc5"/><stop offset="0.036" stop-color="#a9bdc5" stop-opacity="0.965"/><stop offset="1" stop-color="#a9bdc5" stop-opacity="0"/></radialGradient></defs><g class="b" transform="translate(0.099)"><g class="c"><ellipse class="d" cx="730.27" cy="664.668" rx="730.27" ry="664.668" transform="translate(599.461 -202.637)"/></g></g></svg>