<svg xmlns="http://www.w3.org/2000/svg" xmlns:xlink="http://www.w3.org/1999/xlink" width="1920" height="822.217" viewBox="0 0 1920 822.217">
  <defs>
    <clipPath id="clip-path">
      <path id="Path_2" data-name="Path 2" d="M1919.86,0V822.08H516.2c-42.167,0-64.6-27.676-91.213-55.1-23.526-24.243-60.06-31.591-92.623-28.126-17.131,1.822-28.645,8.341-46.688,3.117A70.627,70.627,0,0,1,255.5,724.45c-8.845-8.873-10.216-20.767-17.971-30.694-15.174-19.39-39.62-24.027-62.8-21.076-21.226,2.547-32.682,8.815-51.992-4.33-24.416-16.62-24.883-40.68-36.941-64.8C76.1,584.16,63.879,567.3,44.912,555.919a152.446,152.446,0,0,0-44.99-17.8L-.1,0Z" fill="none"/>
    </clipPath>
    <radialGradient id="radial-gradient" cx="0.5" cy="0.5" r="0.549" gradientTransform="matrix(-0.91, 0, 0, 0.91, 0.033, 0.049)" gradientUnits="objectBoundingBox">
      <stop offset="0" stop-color="#2ea0ce"/>
      <stop offset="0.036" stop-color="#a9bdc5" stop-opacity="0.965"/>
      <stop offset="1" stop-color="#a9bdc5" stop-opacity="0"/>
    </radialGradient>
  </defs>
  <g id="banner-with-glow" transform="translate(0)">
    <path id="banner-bg" d="M1919.86,0V822.217H516.158c-43.2,0-64.6-27.677-91.212-55.1-23.527-24.244-60.061-31.592-92.624-28.127-17.13,1.823-28.645,8.341-46.688,3.117a70.623,70.623,0,0,1-30.174-17.525c-8.845-8.873-10.216-20.766-17.971-30.694-15.174-19.39-39.62-24.026-62.8-21.076-21.226,2.548-32.683,8.816-51.993-4.329-24.416-16.621-24.883-40.681-36.941-64.8-9.7-19.383-21.918-36.245-40.885-47.626A152.422,152.422,0,0,0-.12,538.263L-.139,0Z" transform="translate(0.14)" fill="#0099ba"/>
    <g id="banner-gredient" transform="translate(0.1)" opacity="0.5">
      <g id="Group_2" data-name="Group 2" clip-path="url(#clip-path)">
        <ellipse id="Ellipse_2" data-name="Ellipse 2" cx="730.27" cy="664.668" rx="730.27" ry="664.668" transform="translate(599.461 -202.637)" fill="url(#radial-gradient)"/>
      </g>
    </g>
  </g>
</svg>
