<svg xmlns="http://www.w3.org/2000/svg" width="37.26" height="32.836" viewBox="0 0 37.26 32.836"><defs><style>.a{fill:#09425a;}</style></defs><path class="a" d="M27.842.015a10.387,10.387,0,0,0-7.386,3.063l-.814.814-.829-.829A10.428,10.428,0,1,0,4.063,17.807L18.69,32.429l.031.031a1.316,1.316,0,0,0,1.85-.008L35.2,17.83A10.421,10.421,0,0,0,35.2,3.078,10.3,10.3,0,0,0,27.842.015Zm5.5,15.95L19.649,29.658,5.929,15.942A7.79,7.79,0,1,1,16.947,4.927l1.758,1.758a1.365,1.365,0,0,0,1.866,0l1.751-1.75a7.795,7.795,0,1,1,11.018,11.03Z" transform="translate(-1 0)"/></svg>