<svg xmlns="http://www.w3.org/2000/svg" width="376.949" height="183" viewBox="0 0 376.949 183">
  <path id="Exclusion_1" data-name="Exclusion 1" d="M480,480H103.051c39.165-1.958,61.84-25.823,85.845-51.089,2.842-2.992,5.78-6.084,8.744-9.138,10.369-10.685,23.48-18.853,38.969-24.278a129.7,129.7,0,0,1,22.584-5.628,149.452,149.452,0,0,1,23.24-1.792,158.268,158.268,0,0,1,16.673.886,152.805,152.805,0,0,1,16.049,2.8c6.747,1.437,13.12,2.793,20.1,2.793a53.222,53.222,0,0,0,14.995-2.177,77.561,77.561,0,0,0,33.053-19.2c5.8-5.816,8.913-12.5,12.21-19.575a102.323,102.323,0,0,1,7.479-14.048,73.959,73.959,0,0,1,12.14-14.151,58.025,58.025,0,0,1,12.918-8.768,56.42,56.42,0,0,1,25.178-5.715,69.866,69.866,0,0,1,19.116,2.772,54.792,54.792,0,0,1,7.65,2.772V297l0,183Z" transform="translate(-103.051 -297)" fill="#eff3f4"/>
</svg>
