<svg xmlns="http://www.w3.org/2000/svg" width="120.448" height="150.451" viewBox="0 0 120.448 150.451"><defs><style>.a{fill:#be1e2d;}.b{fill:#ee4036;}</style></defs><g transform="translate(-1095.429 -6666.749)"><g transform="translate(1017.939 6585.724)"><g transform="translate(93.85 81.025)"><path class="a" d="M233.79,147.756a42.42,42.42,0,0,0-23.254-66.731A189.156,189.156,0,0,1,233.79,147.756Z" transform="translate(-157.592 -81.025)"/><path class="b" d="M163.939,222.117a172.872,172.872,0,0,1-28.68-2.224,42.407,42.407,0,0,0,57.36,0A172.874,172.874,0,0,1,163.939,222.117Z" transform="translate(-121.527 -147.557)"/><path class="b" d="M140.777,81.025a42.42,42.42,0,0,0-23.254,66.731A189.163,189.163,0,0,1,140.777,81.025Z" transform="translate(-108.897 -81.025)"/><path class="a" d="M186.471,143.305l-7.856-.164,5.293,6.677-5.886.021,3.433,7.1-4.314,11.725-14.68-34.422h27.344Z" transform="translate(-134.56 -106.521)"/></g><g transform="translate(91.417 172.864)"><path d="M104.227,257.711h7.217v2.808h-3.99v4.26H111.2v2.685h-3.744v6.847h-3.226Z" transform="translate(-104.227 -257.514)"/><path d="M122.76,257.889a19.284,19.284,0,0,1,3.522-.32,6.413,6.413,0,0,1,4.433,1.231,4.228,4.228,0,0,1,1.3,3.448,4.422,4.422,0,0,1-2.561,4.163v.049c1.133.443,1.7,1.5,2.02,3.276a26.771,26.771,0,0,0,1.059,4.507h-3.374a22.988,22.988,0,0,1-.813-3.965c-.3-2.069-.813-2.66-1.9-2.66h-.468v6.625H122.76Zm3.226,7.241h.566a2.3,2.3,0,0,0,2.216-2.586c0-1.4-.566-2.414-2.019-2.463a2.3,2.3,0,0,0-.764.1Z" transform="translate(-113.106 -257.446)"/><path d="M154.034,265.534c0,6.255-2.216,8.792-5.369,8.792-3.768,0-5.246-3.99-5.246-8.546,0-4.532,1.8-8.447,5.468-8.447C152.9,257.333,154.034,261.741,154.034,265.534Zm-7.265.3c0,3.768.714,5.689,2.019,5.689,1.355,0,1.872-2.463,1.872-5.837,0-2.906-.443-5.541-1.9-5.541C147.483,260.141,146.769,262.259,146.769,265.829Z" transform="translate(-123.004 -257.333)"/><path d="M167.72,274.311v-16.6h2.955l2.561,6.5c.493,1.281,1.305,3.423,1.774,4.852h.049c-.1-1.749-.32-4.63-.32-7.684v-3.67h2.832v16.6h-2.956l-2.537-6.3a47.616,47.616,0,0,1-1.675-5h-.049c.073,1.675.2,4.236.2,7.561v3.744Z" transform="translate(-134.646 -257.514)"/><path d="M192.87,260.691h-2.931v-2.98h9.113v2.98H196.1v13.619H192.87Z" transform="translate(-145.292 -257.514)"/><path d="M213.92,257.711v16.6h-3.226v-16.6Z" transform="translate(-155.235 -257.514)"/><path d="M229.437,267.021h-3.793V271.5h4.285v2.808h-7.511v-16.6h7.216v2.808h-3.99v3.817h3.793Z" transform="translate(-160.852 -257.514)"/><path d="M241.045,257.889a19.284,19.284,0,0,1,3.522-.32A6.411,6.411,0,0,1,249,258.8a4.227,4.227,0,0,1,1.306,3.448,4.424,4.424,0,0,1-2.562,4.163v.049c1.133.443,1.7,1.5,2.02,3.276a26.767,26.767,0,0,0,1.059,4.507h-3.374a22.939,22.939,0,0,1-.813-3.965c-.3-2.069-.813-2.66-1.9-2.66h-.468v6.625h-3.226Zm3.226,7.241h.566a2.3,2.3,0,0,0,2.216-2.586c0-1.4-.566-2.414-2.019-2.463a2.3,2.3,0,0,0-.764.1Z" transform="translate(-169.776 -257.446)"/><path d="M262.125,270.874a6.3,6.3,0,0,0,2.734.64c1.527,0,2.266-.788,2.266-1.872,0-1.207-.739-1.8-2.142-2.709-2.266-1.379-3.128-3.128-3.128-4.63,0-2.66,1.774-4.877,5.246-4.877a5.672,5.672,0,0,1,2.611.591l-.517,2.783a3.96,3.96,0,0,0-2.118-.566,1.8,1.8,0,0,0-2.045,1.724c0,.985.493,1.5,2.291,2.586a5.415,5.415,0,0,1,3,4.753c0,3.03-2.241,5.024-5.492,5.024a7.291,7.291,0,0,1-3.177-.665Z" transform="translate(-179.652 -257.378)"/></g><g transform="translate(88.376 192.014)"><path d="M102.255,307.282l-.739,3.793H98.388l3.6-16.6h3.867l3.226,16.6h-3.127l-.715-3.793Zm2.684-2.512L104.4,301.3c-.172-1.01-.394-2.66-.542-3.768h-.074c-.172,1.108-.419,2.832-.591,3.793l-.616,3.448Z" transform="translate(-98.388 -294.278)"/><path d="M122.405,311.075v-16.6h2.956l2.561,6.5c.493,1.281,1.305,3.423,1.773,4.852h.049c-.1-1.748-.32-4.63-.32-7.684v-3.67h2.832v16.6H129.3l-2.537-6.3a47.618,47.618,0,0,1-1.675-5h-.049c.074,1.675.2,4.236.2,7.561v3.743Z" transform="translate(-109.895 -294.278)"/><path d="M150.026,294.475v16.6H146.8v-16.6Z" transform="translate(-121.582 -294.278)"/><path d="M168.1,305.262c-.074-1.576-.2-3.719-.147-5.492h-.074c-.3,1.773-.739,3.817-1.059,5.1L165.4,310.8H163.1l-1.379-5.837c-.32-1.33-.764-3.4-1.01-5.2h-.073c-.049,1.8-.148,3.891-.246,5.541l-.271,5.763h-2.783l1.207-16.6h3.4l1.33,6.01c.468,2.094.887,3.941,1.182,5.812h.049c.246-1.847.616-3.719,1.059-5.812l1.305-6.01h3.4l1.01,16.6H168.4Z" transform="translate(-126.633 -294.278)"/><path d="M190.142,307.282l-.739,3.793h-3.128l3.6-16.6h3.867l3.226,16.6h-3.128l-.714-3.793Zm2.685-2.512-.542-3.473c-.172-1.01-.394-2.66-.542-3.768h-.074c-.172,1.108-.419,2.832-.591,3.793l-.616,3.448Z" transform="translate(-140.495 -294.278)"/><path d="M208.685,297.455h-2.931v-2.98h9.112v2.98h-2.955v13.619h-3.226Z" transform="translate(-149.827 -294.278)"/><path d="M229.734,294.475v16.6h-3.226v-16.6Z" transform="translate(-159.77 -294.278)"/><path d="M247.287,302.3c0,6.256-2.216,8.792-5.369,8.792-3.768,0-5.246-3.99-5.246-8.546,0-4.531,1.8-8.447,5.468-8.447C246.154,294.1,247.287,298.506,247.287,302.3Zm-7.266.3c0,3.768.714,5.689,2.02,5.689,1.354,0,1.872-2.463,1.872-5.837,0-2.906-.443-5.541-1.9-5.541C240.736,296.9,240.021,299.023,240.021,302.594Z" transform="translate(-164.64 -294.097)"/><path d="M260.972,311.075v-16.6h2.956l2.561,6.5c.492,1.281,1.305,3.423,1.773,4.852h.049c-.1-1.748-.32-4.63-.32-7.684v-3.67h2.832v16.6h-2.955l-2.537-6.3a47.614,47.614,0,0,1-1.675-5h-.049c.074,1.675.2,4.236.2,7.561v3.743Z" transform="translate(-176.282 -294.278)"/></g><g transform="translate(77.49 222.717)"><path d="M82.2,361.79H80.842l-.232-1.553H78.958l-.232,1.553H77.49l1.37-8.563h1.969Zm-3.07-2.715h1.3l-.648-4.33Z" transform="translate(-77.49 -353.129)"/><path d="M91.37,353.227H93.5c1.345,0,2.006.746,2.006,2.116v4.33c0,1.369-.66,2.116-2.006,2.116H91.37Zm1.345,1.223v6.116h.758c.428,0,.685-.22.685-.832v-4.453c0-.612-.257-.832-.685-.832Z" transform="translate(-84.14 -353.129)"/><path d="M100.952,353.227H102.3v8.563h-1.345Z" transform="translate(-88.731 -353.129)"/><path d="M107.118,360.212l1.027-6.985h1.236l-1.321,8.563h-2.006l-1.322-8.563h1.358Z" transform="translate(-90.542 -353.129)"/><path d="M114.854,353.227H116.2v8.563h-1.345Z" transform="translate(-95.391 -353.129)"/><path d="M119.105,355.192a2.046,2.046,0,1,1,4.085,0v4.453a2.046,2.046,0,1,1-4.085,0Zm1.345,4.538c0,.612.269.844.7.844s.7-.232.7-.844v-4.624c0-.612-.269-.844-.7-.844s-.7.232-.7.844Z" transform="translate(-97.428 -353.039)"/><path d="M129.8,355.588v6.2h-1.211v-8.563h1.688l1.382,5.125v-5.125h1.2v8.563H131.48Z" transform="translate(-101.973 -353.129)"/><path d="M142.073,355.192a2.046,2.046,0,1,1,4.086,0v4.453a2.046,2.046,0,1,1-4.086,0Zm1.345,4.538c0,.612.269.844.7.844s.7-.232.7-.844v-4.624c0-.612-.269-.844-.7-.844s-.7.232-.7.844Z" transform="translate(-108.432 -353.039)"/><path d="M152.93,357.031h1.737v1.223H152.93v3.535h-1.345v-8.563h3.559v1.223H152.93Z" transform="translate(-112.989 -353.129)"/><path d="M167.1,358.507v1.138c0,1.37-.686,2.153-2.007,2.153s-2.006-.783-2.006-2.153v-4.453c0-1.37.685-2.153,2.006-2.153s2.007.783,2.007,2.153v.832h-1.272v-.918c0-.612-.269-.844-.7-.844s-.7.232-.7.844v4.624c0,.612.269.832.7.832s.7-.22.7-.832v-1.223Z" transform="translate(-118.502 -353.039)"/><path d="M175.182,361.79a2.631,2.631,0,0,1-.122-1.052v-1.346c0-.8-.269-1.089-.881-1.089h-.465v3.486h-1.345v-8.563h2.03c1.394,0,1.994.648,1.994,1.969v.673a1.708,1.708,0,0,1-.881,1.737c.672.281.893.929.893,1.823v1.321a2.524,2.524,0,0,0,.147,1.04Zm-1.468-7.339v2.63h.526c.5,0,.807-.22.807-.905v-.844c0-.612-.208-.881-.685-.881Z" transform="translate(-122.946 -353.129)"/><path d="M183.156,356.835H185v1.223h-1.847v2.508h2.324v1.223H181.81v-8.563h3.669v1.223h-2.324Z" transform="translate(-127.47 -353.129)"/><path d="M194.48,361.79h-1.357l-.233-1.553h-1.651l-.232,1.553h-1.236l1.37-8.563h1.97Zm-3.07-2.715h1.3l-.648-4.33Z" transform="translate(-131.284 -353.129)"/><path d="M198.367,353.227h4.159v1.223h-1.407v7.339h-1.345V354.45h-1.406Z" transform="translate(-135.402 -353.129)"/><path d="M207.479,353.227h1.345v8.563h-1.345Z" transform="translate(-139.768 -353.129)"/><path d="M213.645,360.212l1.028-6.985h1.236l-1.322,8.563h-2.006l-1.321-8.563h1.357Z" transform="translate(-141.579 -353.129)"/><path d="M222.726,356.835h1.847v1.223h-1.847v2.508h2.324v1.223h-3.67v-8.563h3.67v1.223h-2.324Z" transform="translate(-146.428 -353.129)"/><path d="M235.009,357.031h1.737v1.223h-1.737v3.535h-1.345v-8.563h3.56v1.223h-2.214Z" transform="translate(-152.313 -353.129)"/><path d="M244.556,361.79a2.631,2.631,0,0,1-.122-1.052v-1.346c0-.8-.269-1.089-.88-1.089h-.465v3.486h-1.345v-8.563h2.03c1.394,0,1.994.648,1.994,1.969v.673a1.707,1.707,0,0,1-.881,1.737c.673.281.893.929.893,1.823v1.321a2.525,2.525,0,0,0,.146,1.04Zm-1.468-7.339v2.63h.526c.5,0,.807-.22.807-.905v-.844c0-.612-.208-.881-.685-.881Z" transform="translate(-156.183 -353.129)"/><path d="M250.973,355.192a2.046,2.046,0,1,1,4.085,0v4.453a2.046,2.046,0,1,1-4.085,0Zm1.346,4.538c0,.612.269.844.7.844s.7-.232.7-.844v-4.624c0-.612-.269-.844-.7-.844s-.7.232-.7.844Z" transform="translate(-160.606 -353.039)"/><path d="M261.671,355.588v6.2H260.46v-8.563h1.688l1.382,5.125v-5.125h1.2v8.563h-1.382Z" transform="translate(-165.151 -353.129)"/><path d="M269.761,353.227h4.159v1.223h-1.407v7.339h-1.346V354.45h-1.406Z" transform="translate(-169.607 -353.129)"/><path d="M278.873,353.227h1.346v8.563h-1.346Z" transform="translate(-173.972 -353.129)"/><path d="M284.68,356.835h1.847v1.223H284.68v2.508H287v1.223h-3.67v-8.563H287v1.223H284.68Z" transform="translate(-176.11 -353.129)"/><path d="M294.79,361.79a2.632,2.632,0,0,1-.122-1.052v-1.346c0-.8-.269-1.089-.88-1.089h-.465v3.486h-1.346v-8.563h2.031c1.394,0,1.994.648,1.994,1.969v.673a1.707,1.707,0,0,1-.881,1.737c.673.281.893.929.893,1.823v1.321a2.525,2.525,0,0,0,.146,1.04Zm-1.468-7.339v2.63h.526c.5,0,.807-.22.807-.905v-.844c0-.612-.208-.881-.685-.881Z" transform="translate(-180.251 -353.129)"/><path d="M303.038,353.039c1.309,0,1.982.783,1.982,2.153v.269h-1.273v-.355c0-.612-.244-.844-.672-.844s-.673.232-.673.844c0,1.762,2.63,2.092,2.63,4.539,0,1.37-.685,2.153-2.006,2.153s-2.006-.783-2.006-2.153v-.526h1.272v.612c0,.612.269.832.7.832s.7-.22.7-.832c0-1.762-2.63-2.091-2.63-4.538C301.056,353.822,301.729,353.039,303.038,353.039Z" transform="translate(-184.583 -353.039)"/></g></g></g></svg>