<svg xmlns="http://www.w3.org/2000/svg" width="27.995" height="28.988" viewBox="0 0 27.995 28.988">
  <path id="filter" d="M22.744,27.988V15.574a4.3,4.3,0,0,1,0-8.335V1.018a1.006,1.006,0,1,1,2.012,0V7.24a4.3,4.3,0,0,1,0,8.335V27.988a1.006,1.006,0,1,1-2.012,0ZM21.512,11.407A2.24,2.24,0,1,0,23.8,9.152h-.1a2.251,2.251,0,0,0-2.188,2.255ZM3.243,27.988V15.574a4.3,4.3,0,0,1,0-8.335V1.018a1.006,1.006,0,1,1,2.012,0V7.24a4.3,4.3,0,0,1,0,8.335V27.988a1.006,1.006,0,1,1-2.012,0ZM2.017,11.413A2.24,2.24,0,1,0,4.311,9.158H4.2a2.251,2.251,0,0,0-2.188,2.255ZM12.991,27.982V22.311a4.3,4.3,0,0,1,0-8.335V1.012a1.006,1.006,0,1,1,2.012,0V13.976a4.3,4.3,0,0,1,0,8.335v5.671a1.006,1.006,0,0,1-2.012,0ZM11.765,18.15A2.235,2.235,0,1,0,14,15.888a2.235,2.235,0,0,0-2.235,2.262Z" transform="translate(-0.002 -0.006)" fill="#fff"/>
</svg>
