<svg xmlns="http://www.w3.org/2000/svg" width="31.667" height="31.667" viewBox="0 0 31.667 31.667"><defs><style>.a{fill:#a9bdc5;fill-rule:evenodd;}</style></defs><g transform="translate(-22 -22)"><path class="a" d="M37.834,30.445A1.056,1.056,0,0,0,36.778,31.5v.329a1.056,1.056,0,1,0,2.111,0V31.5a1.056,1.056,0,0,0-1.056-1.056m0,4.222a1.056,1.056,0,0,0-1.056,1.056v8.445a1.056,1.056,0,1,0,2.111,0V35.722a1.056,1.056,0,0,0-1.056-1.056m0,16.889A13.722,13.722,0,1,1,51.556,37.834,13.738,13.738,0,0,1,37.834,51.556m0-29.556A15.833,15.833,0,1,0,53.667,37.834,15.85,15.85,0,0,0,37.834,22" transform="translate(0 0)"/></g></svg>