<svg xmlns="http://www.w3.org/2000/svg" xmlns:xlink="http://www.w3.org/1999/xlink" width="415.965" height="372.364" viewBox="0 0 415.965 372.364">
  <defs>
    <clipPath id="clip-path">
      <rect id="Rectangle_57" data-name="Rectangle 57" width="409.005" height="366.979" fill="none"/>
    </clipPath>
    <clipPath id="clip-path-2">
      <path id="Path_10838" data-name="Path 10838" d="M145.686,0C118.8.075,91.964,6.62,66.847,24.907,14.9,62.725-12.061,137.924,5.212,200.879,31.459,296.525,150,328.144,230.412,314.888,318.266,300.4,408.88,224.4,409.005,153.039v-.273A81.624,81.624,0,0,0,408.2,141.4C398.039,69.929,294.247,36.228,251.746,22.428,219.4,11.926,182.983.1,146.616,0Z" fill="none"/>
    </clipPath>
    <linearGradient id="linear-gradient" x1="0.358" y1="-0.005" x2="0.616" y2="1.169" gradientUnits="objectBoundingBox">
      <stop offset="0" stop-color="#aabec6"/>
      <stop offset="1" stop-color="#5ea4bf"/>
    </linearGradient>
    <linearGradient id="linear-gradient-2" x1="0.346" y1="-0.102" x2="0.677" y2="0.961" xlink:href="#linear-gradient"/>
    <linearGradient id="linear-gradient-3" x1="0.297" y1="-0.005" x2="0.63" y2="1.028" xlink:href="#linear-gradient"/>
    <linearGradient id="linear-gradient-4" x1="0.309" y1="-0.051" x2="0.651" y2="0.975" xlink:href="#linear-gradient"/>
  </defs>
  <g id="Group_17087" data-name="Group 17087" transform="translate(-748.04 -365.636)">
    <g id="Group_17085" data-name="Group 17085" transform="translate(755 371.021)">
      <g id="Group_17082" data-name="Group 17082">
        <g id="Group_17081" data-name="Group 17081" clip-path="url(#clip-path)">
          <path id="Path_10806" data-name="Path 10806" d="M66.846,24.907c59.383-43.234,128.369-20.835,184.9-2.479,42.5,13.8,146.293,47.5,156.453,118.967,10.594,74.513-85.131,158.218-177.788,173.493C150,328.144,31.458,296.525,5.211,200.878-12.061,137.924,14.9,62.725,66.846,24.907" fill="#c6dee5"/>
        </g>
      </g>
      <g id="Group_17084" data-name="Group 17084">
        <g id="Group_17083" data-name="Group 17083" clip-path="url(#clip-path-2)">
          <path id="Path_10807" data-name="Path 10807" d="M254.5,88.773s24.666,55.984,20.143,81.875S180.6,198.03,178.5,189.589s-4.9-98.825,3.627-107.282,51.382-34.682,72.369,6.466" fill="#2a4359"/>
          <path id="Path_10808" data-name="Path 10808" d="M318.694,234.228l27.272,122.534-26.415,2.709s-15.372-69.136-18.248-81.794c0,0-19.451-37.306-23.794-47.446s38.437-5.1,41.185,4" fill="#fff"/>
          <path id="Path_10809" data-name="Path 10809" d="M318.694,234.228l27.272,122.534-26.415,2.709s-15.372-69.136-18.248-81.794c0,0-19.451-37.306-23.794-47.446S315.946,225.134,318.694,234.228Z" fill="none" stroke="#203445" stroke-linecap="round" stroke-linejoin="round" stroke-width="0.75"/>
          <path id="Path_10810" data-name="Path 10810" d="M241.792,153.282s41.662,5.172,50.076,17.568c10.477,15.435,33.828,73.456,32.949,78.64s-44.171,17.519-44.171,17.519l-29.6-83.636Z" fill="#5ea4bf"/>
          <path id="Path_10811" data-name="Path 10811" d="M62.737,154.627c-3.247-5.671-5.25-7.052-14.719-1.269-11.482,7.013.719,21.216,11.994,38.7,0,0,38.129,65.033,59.19,61.968,9.567-1.393,62.824-36.788,77.172-58.775l-16.528-29.8s-59.524,47.866-66.359,52.031c0,0-36.918-31.582-41.6-38.378-1.183-1.717,1.119-2.809-.728-13.753-1.037-6.144-4.292-13.8-2.932-18.232,2.138-6.957-2.716-5.936-4.038-2.8-2.557,6.065-.371,10.48-3.313,15.566-5.2,8.984.162,13.748,2.847,16.781" fill="#fff"/>
          <path id="Path_10812" data-name="Path 10812" d="M62.737,154.627c-3.247-5.671-5.25-7.052-14.719-1.269-11.482,7.013.719,21.216,11.994,38.7,0,0,38.129,65.033,59.19,61.968,9.567-1.393,62.824-36.788,77.172-58.775l-16.528-29.8s-59.524,47.866-66.359,52.031c0,0-36.918-31.582-41.6-38.378-1.183-1.717,1.119-2.809-.728-13.753-1.037-6.144-4.292-13.8-2.932-18.232,2.138-6.957-2.716-5.936-4.038-2.8-2.557,6.065-.371,10.48-3.313,15.566-5.2,8.984.162,13.748,2.847,16.781" fill="none" stroke="#203445" stroke-linecap="round" stroke-linejoin="round" stroke-width="0.75"/>
          <path id="Path_10813" data-name="Path 10813" d="M51.5,153.435c-5.241-9.828-7.076-26.844-10.357-25.269s2.285,23.683,6.681,34.224" fill="#fff"/>
          <path id="Path_10814" data-name="Path 10814" d="M51.5,153.435c-5.241-9.828-7.076-26.844-10.357-25.269s2.285,23.683,6.681,34.224" fill="none" stroke="#203445" stroke-linecap="round" stroke-linejoin="round" stroke-width="0.75"/>
          <path id="Path_10815" data-name="Path 10815" d="M56.336,149.9C51.3,139,50.4,120.969,46.753,122.232s1.325,25.368,5.405,36.919" fill="#fff"/>
          <path id="Path_10816" data-name="Path 10816" d="M56.336,149.9C51.3,139,50.4,120.969,46.753,122.232s1.325,25.368,5.405,36.919" fill="none" stroke="#203445" stroke-linecap="round" stroke-linejoin="round" stroke-width="0.75"/>
          <path id="Path_10817" data-name="Path 10817" d="M61.3,152.329c-4.558-10.316-5.117-30.369-8.568-29.293s-.072,21.422,3.574,32.316" fill="#fff"/>
          <path id="Path_10818" data-name="Path 10818" d="M61.3,152.329c-4.558-10.316-5.117-30.369-8.568-29.293s-.072,21.422,3.574,32.316" fill="none" stroke="#203445" stroke-linecap="round" stroke-linejoin="round" stroke-width="0.75"/>
          <path id="Path_10819" data-name="Path 10819" d="M49.394,162.705c-5.842-11.463-10.153-27.556-13.014-25.071s4.159,22.8,9.865,32.359" fill="#fff"/>
          <path id="Path_10820" data-name="Path 10820" d="M49.394,162.705c-5.842-11.463-10.153-27.556-13.014-25.071s4.159,22.8,9.865,32.359" fill="none" stroke="#203445" stroke-linecap="round" stroke-linejoin="round" stroke-width="0.75"/>
          <path id="Path_10821" data-name="Path 10821" d="M48.219,165.927c.066-.1,1.721-5.765,9.636-11.511" fill="#fff"/>
          <path id="Path_10822" data-name="Path 10822" d="M48.219,165.927c.066-.1,1.721-5.765,9.636-11.511" fill="none" stroke="#203445" stroke-linecap="round" stroke-linejoin="round" stroke-width="0.75"/>
          <path id="Path_10823" data-name="Path 10823" d="M282.482,299.278c2.135,13.445,8.571,24.561,6.644,33.039-1.9,8.337-7.256,12.729-15.221,19.254a65.909,65.909,0,0,1-42.629,15.4,61.17,61.17,0,0,1-33.492-11.553c-9.049-6.456-20.106-14.348-21.314-26.955-.838-8.779,12.509-28.446,5.838-47.972-12.224-35.776-13.978-75.483-5.665-104.944,10.643-28.985,67.362-35.411,86.965-7.895,6.133,8.61,10.7,23.152,11.587,25.995,3.129,9.97,4.151,17.558,5.881,30.394.86,6.408,1.246,74.228,1.406,75.233" fill="#5ea4bf"/>
          <path id="Path_10824" data-name="Path 10824" d="M244.877,157.821c-17.364,16.836-22.432,35.32-22.432,35.32-7.1-15.4-14.976-20.122-26.51-33.377,1.423-.883,6.922-1.664,7.056-8.362.181-9.023,5.18-32.882,8.669-35.557,20.84-15.973,14.106,40.383,33.217,41.976" fill="#fff"/>
          <path id="Path_10825" data-name="Path 10825" d="M244.877,157.821c-17.364,16.836-22.432,35.32-22.432,35.32-7.1-15.4-14.976-20.122-26.51-33.377,1.423-.883,6.922-1.664,7.056-8.362.181-9.023,5.18-32.882,8.669-35.557C232.5,99.872,225.766,156.228,244.877,157.821Z" fill="none" stroke="#2a4359" stroke-linecap="round" stroke-linejoin="round" stroke-width="0.75"/>
          <path id="Path_10826" data-name="Path 10826" d="M247.267,76.374c6.246,8.076,6.281,18.762,5.05,28.428-1.23,9.625-2.11,21.383-6.166,30.146-4.911,10.613-15.705,20.872-28.014,21.1-15.231.287-23-15.94-27.825-28.027-2.45-6.138-2.015-11.712-2.833-18.191-1.515-12.009-1.4-25.5,7.051-35.111,12-13.661,41.6-12.734,52.737,1.652" fill="#fff"/>
          <path id="Path_10827" data-name="Path 10827" d="M247.267,76.374c6.246,8.076,6.281,18.762,5.05,28.428-1.23,9.625-2.11,21.383-6.166,30.146-4.911,10.613-15.705,20.872-28.014,21.1-15.231.287-23-15.94-27.825-28.027-2.45-6.138-2.015-11.712-2.833-18.191-1.515-12.009-1.4-25.5,7.051-35.111C206.533,61.061,236.135,61.988,247.267,76.374Z" fill="none" stroke="#2a4359" stroke-linecap="round" stroke-linejoin="round" stroke-width="0.75"/>
          <path id="Path_10828" data-name="Path 10828" d="M188.307,111.712a5.016,5.016,0,0,0-3.427-2.681,3.6,3.6,0,0,0-2.344.227c-1.963.981-2.093,3.721-1.7,5.88a29.249,29.249,0,0,0,4.068,10.4,5.873,5.873,0,0,0,2.395,2.408,2.323,2.323,0,0,0,3-.851" fill="#fff"/>
          <path id="Path_10829" data-name="Path 10829" d="M188.307,111.712a5.016,5.016,0,0,0-3.427-2.681,3.6,3.6,0,0,0-2.344.227c-1.963.981-2.093,3.721-1.7,5.88a29.249,29.249,0,0,0,4.068,10.4,5.873,5.873,0,0,0,2.395,2.408,2.323,2.323,0,0,0,3-.851" fill="none" stroke="#2a4359" stroke-linecap="round" stroke-linejoin="round" stroke-width="0.75"/>
          <path id="Path_10830" data-name="Path 10830" d="M249.614,109.063a5.014,5.014,0,0,1,3.352-2.775,3.6,3.6,0,0,1,2.349.163c1.989.927,2.2,3.662,1.861,5.831a29.24,29.24,0,0,1-3.78,10.5,5.871,5.871,0,0,1-2.328,2.473,2.324,2.324,0,0,1-3.019-.769" fill="#fff"/>
          <path id="Path_10831" data-name="Path 10831" d="M249.614,109.063a5.014,5.014,0,0,1,3.352-2.775,3.6,3.6,0,0,1,2.349.163c1.989.927,2.2,3.662,1.861,5.831a29.24,29.24,0,0,1-3.78,10.5,5.871,5.871,0,0,1-2.328,2.473,2.324,2.324,0,0,1-3.019-.769" fill="none" stroke="#2a4359" stroke-linecap="round" stroke-linejoin="round" stroke-width="0.75"/>
          <path id="Path_10832" data-name="Path 10832" d="M195.983,156.906s-27.333,3.51-39.42,16.2-39.845,39.717-39.845,39.717c2.562,1.237,20.475,37.449,18.782,38.161,1.53-1.843,38.41-19.289,49.217-27.435s11.266-66.639,11.266-66.639" fill="#5ea4bf"/>
          <path id="Path_10833" data-name="Path 10833" d="M181.15,257.543c-9.428-8.6-14-33.247,2.648-51.581" fill="none" stroke="#100052" stroke-linecap="round" stroke-linejoin="round" stroke-width="0.75"/>
          <path id="Path_10834" data-name="Path 10834" d="M238.4,61.44s-39.875,52.47-59.5,59.645c0,0-12.537-33.5-.138-51.37s48.5-21.542,59.637-8.275" fill="#2a4359"/>
          <path id="Path_10835" data-name="Path 10835" d="M219.611,73.662c.021.964,9.73,26.322,29.988,37.464,0,0,11.175-7.476,9.136-23.833s-19.7-29.967-28.3-26.4-10.82,12.774-10.82,12.774" fill="#2a4359"/>
          <path id="Path_10836" data-name="Path 10836" d="M196.32,260.521c-2.132.248,10.733,2.981,31.006-1.789,12.268-2.886,31.33-1.125,43.23-8.348" fill="none" stroke="#100052" stroke-linecap="round" stroke-linejoin="round" stroke-width="0.75"/>
          <path id="Path_10837" data-name="Path 10837" d="M272.047,202.384S286.656,227.726,278.9,248" fill="none" stroke="#100052" stroke-linecap="round" stroke-linejoin="round" stroke-width="0.75"/>
        </g>
      </g>
    </g>
    <g id="Group_17080" data-name="Group 17080" transform="translate(831.978 365.636)">
      <path id="Path_10788" data-name="Path 10788" d="M815.328,322.326c3.567-1.107,5.658-5.288,9.348-5.781,4.673,3.936,8.117,11.192,15.251,10.208a2.939,2.939,0,0,0,1.844-1.6,24.744,24.744,0,0,0,1.274-2.354c-1.7-8.685-8.97-15.212-17.683-15.212a17.693,17.693,0,0,0-14.2,7.3c.167,1.215.371,2.425.6,3.622C812.007,320.112,812.376,323.064,815.328,322.326Z" transform="translate(-807.303 -307.588)" fill="url(#linear-gradient)"/>
      <path id="Path_10789" data-name="Path 10789" d="M840.068,328.38a2.939,2.939,0,0,1-1.844,1.6c-7.133.984-10.577-6.273-15.251-10.208-3.69.492-5.781,4.674-9.348,5.781-2.951.738-3.321-2.214-3.566-3.813-.232-1.2-.436-2.407-.6-3.622a19.728,19.728,0,0,0-3.855,11.8c0,10.549,8.085,19.1,18.059,19.1s18.059-8.551,18.059-19.1a20.241,20.241,0,0,0-.375-3.888A24.724,24.724,0,0,1,840.068,328.38Z" transform="translate(-805.6 -310.813)" fill="url(#linear-gradient-2)"/>
    </g>
    <g id="Group_17086" data-name="Group 17086" transform="translate(748.04 384.736)">
      <path id="Path_10790" data-name="Path 10790" d="M708.44,375.915a55.661,55.661,0,0,1,3.472,13.505c.965,6.753-2.315,12.734-2.508,19.294-.386,9.839,9.068,17.557,18.522,14.084,7.717-2.894,15.049-10.612,23.345-7.331,5.209,2.122,10.8,7.524,16.593,2.7a57.326,57.326,0,0,0,6.976-6.6,45.222,45.222,0,0,0,.342-5.559c0-23.955-18.79-43.374-41.969-43.374A40.989,40.989,0,0,0,706.335,372.7,9.14,9.14,0,0,1,708.44,375.915Z" transform="translate(-691.244 -362.634)" fill="url(#linear-gradient-3)"/>
      <path id="Path_10791" data-name="Path 10791" d="M761.2,422.612c-5.788,4.823-11.383-.579-16.593-2.7-8.3-3.28-15.627,4.437-23.345,7.331-9.454,3.473-18.908-4.244-18.522-14.084.193-6.56,3.473-12.541,2.508-19.294a55.656,55.656,0,0,0-3.472-13.505,9.138,9.138,0,0,0-2.1-3.217,43.867,43.867,0,0,0-15.091,33.311c0,23.954,18.79,43.373,41.969,43.373,21.356,0,38.986-16.485,41.627-37.814A57.311,57.311,0,0,1,761.2,422.612Z" transform="translate(-684.579 -367.079)" fill="url(#linear-gradient-4)"/>
    </g>
  </g>
</svg>
