<svg xmlns="http://www.w3.org/2000/svg" width="32.3" height="34.025" viewBox="0 0 32.3 34.025"><defs><style>.a{fill:#09425a;stroke:#09425a;stroke-width:0.5px;}</style></defs><g transform="translate(-963.544 -1796.819)"><path class="a" d="M291.905,351.595H277.482c-4.79,0-8.688-3.507-8.688-7.817V325.887c0-4.31,3.9-7.817,8.688-7.817h14.423c.108,0,.225,0,.333.009a1.011,1.011,0,0,1,.62.264l7.465,6.988a.825.825,0,0,1,.27.6v17.845C300.594,348.088,296.7,351.595,291.905,351.595Zm-14.423-31.788c-3.726,0-6.758,2.727-6.758,6.08v17.891c0,3.352,3.032,6.08,6.758,6.08h14.423c3.726,0,6.758-2.728,6.758-6.08v-17.5l-6.918-6.476Z" transform="translate(695 1479)"/><path class="a" d="M310.54,327.534h-6.89a.929.929,0,0,1-.965-.863l-.189-7.7a.969.969,0,0,1,1.93-.04l.168,6.835h5.947a.887.887,0,1,1,0,1.766Z" transform="translate(682.988 1479)"/><path class="a" d="M289.307,342.589H277.345a.591.591,0,1,1,0-1.177h11.963a.591.591,0,1,1,0,1.177Z" transform="translate(692.182 1471.265)"/><path class="a" d="M296.543,352.824H276.4a.591.591,0,1,1,0-1.177h20.14a.591.591,0,1,1,0,1.177Z" transform="translate(692.517 1465.189)"/><path class="a" d="M293.763,363.883H275.933a.591.591,0,1,1,0-1.177h17.831a.591.591,0,1,1,0,1.177Z" transform="translate(692.685 1458.774)"/></g></svg>