<svg xmlns="http://www.w3.org/2000/svg" xmlns:xlink="http://www.w3.org/1999/xlink" width="409.003" height="325.015" viewBox="0 0 409.003 325.015"><defs><style>.a{fill:#c6dee5;}.b{clip-path:url(#a);}.c,.e{fill:#434347;}.c,.e,.h{stroke:#100052;}.c,.d,.e,.h{stroke-linecap:round;stroke-linejoin:round;}.c{stroke-width:0.939px;}.d,.n{fill:#fff;}.d{stroke:#2a4359;}.e{stroke-width:0.939px;}.f{fill:#5ea4bf;}.g{fill:#2a4359;}.h{fill:none;stroke-width:0.559px;}.i{fill:url(#b);}.j{fill:url(#c);}.k{fill:url(#d);}.l{fill:url(#e);}.m{fill:url(#f);}</style><clipPath id="a"><path class="a" d="M748.928,342.946c59.383-43.234,128.369-20.835,184.9-2.479,42.5,13.8,146.293,47.5,156.453,118.967,10.593,74.513-85.132,158.218-177.788,173.493-80.414,13.256-198.953-18.363-225.2-114.01C670.021,455.963,696.982,380.764,748.928,342.946Z" transform="translate(-682.083 -318.039)"/></clipPath><linearGradient id="b" x1="0.358" y1="-0.005" x2="0.616" y2="1.169" gradientUnits="objectBoundingBox"><stop offset="0" stop-color="#aabec6"/><stop offset="1" stop-color="#5ea4bf"/></linearGradient><linearGradient id="c" x1="0.346" y1="-0.102" x2="0.677" y2="0.961" xlink:href="#b"/><linearGradient id="d" x1="0.297" y1="-0.005" x2="0.63" y2="1.028" xlink:href="#b"/><linearGradient id="e" x1="0.309" y1="-0.051" x2="0.651" y2="0.975" xlink:href="#b"/><linearGradient id="f" x1="0.444" y1="-0.002" x2="0.494" y2="0.885" gradientUnits="objectBoundingBox"><stop offset="0" stop-color="#e0858c"/><stop offset="1" stop-color="#d85b6b"/></linearGradient></defs><g transform="translate(-682.083 -307.588)"><g transform="translate(682.083 314.837)"><path class="a" d="M748.928,342.946c59.383-43.234,128.369-20.835,184.9-2.479,42.5,13.8,146.293,47.5,156.453,118.967,10.593,74.513-85.132,158.218-177.788,173.493-80.414,13.256-198.953-18.363-225.2-114.01C670.021,455.963,696.982,380.764,748.928,342.946Z" transform="translate(-682.083 -318.039)"/><g class="b" transform="translate(0 0)"><g transform="translate(19.219 62.15)"><g transform="translate(218.55 99.087)"><path class="c" d="M1210.741,577.264c.074.14.149.277.223.418l-5.4-7.514.211-.041a7.307,7.307,0,0,1,1.6.508,12.139,12.139,0,0,1,5.458,5.474C1212.134,576.493,1211.437,576.88,1210.741,577.264Z" transform="translate(-1080.219 -556.502)"/><path class="c" d="M1174.572,577.69c-.352.172-.69.35-1.011.538q.463-.28.978-.54Z" transform="translate(-1070.415 -558.818)"/><path class="d" d="M1148.384,563.65l-.069.322a8.773,8.773,0,0,1,2.1.138l-.211.041,5.4,7.514c-.074-.14-.149-.278-.223-.418.7-.384,1.393-.771,2.091-1.155,2.967,5.477,3.3,13.165-.182,16.964-2.055,2.243-5.089,2.583-11.157,3.266-6.273.7-10.235,1.138-14.015-.828-2.46,4.647-4.569,9.5-7.393,13.93-4.84,7.6-3.737,7.018-9.192,16.011-12.582,20.738-20.163,32.9-30.376,33.277a16.438,16.438,0,0,1-8.616-2.442c-10.757-5.689-57.128-32.552-51.153-49.405,2.842-8.019,17.087-12.5,25.814-8.972,5.335,2.159,8.75,7.369,14.179,15.654,6.451,9.844,6.5,13.783,9.871,14.434,4,.772,6.927-4.2,19.03-17.877,4.386-4.957,9.468-9.98,19.64-20.031,2.5-2.475,5.008-4.966,7.678-7.263a10.6,10.6,0,0,0,2.8-2.817c1.72-3.146,4.856-5.066,7.62-7.206a18.375,18.375,0,0,0,2.152-1.64c.828-.853,1.606-1.758,2.4-2.641,2-2.227,4.763-4.862,7.426-7.9a17.107,17.107,0,0,1,5.208-3.589c1.176-.61,2.421-.895,3.378.261a3.827,3.827,0,0,1,.484,3.1,7.787,7.787,0,0,1-1.382,3.172c-1.565,2.3-2.511,2.034-3.375,3.7-.813,1.566-.041,1.926-.762,4.332a13.661,13.661,0,0,1-2.563,4.607,17.962,17.962,0,0,1-3.368,3.332" transform="translate(-1024.86 -550.485)"/><path class="d" d="M1230.25,556.485a34.1,34.1,0,0,1-5.266,6.088,41.244,41.244,0,0,1-5.522,4.831c-1.071.731-2.206,1.361-3.337,1.987l-3.293,1.82c-.7.384-1.395.771-2.091,1.155.074.14.149.277.223.418l-5.4-7.514.211-.041a69.7,69.7,0,0,0,7.871-2.043,10.391,10.391,0,0,0,3.229-1.278c.773-.608,1.467-1.317,2.2-1.967a46.074,46.074,0,0,1,5.188-4.1,11.036,11.036,0,0,1,2.9-1.532c.923-.273,3.532-.411,3.494,1.127A2.159,2.159,0,0,1,1230.25,556.485Z" transform="translate(-1080.219 -551.604)"/><path class="d" d="M1214.036,578.93l-.132-.17q2.247-.739,4.449-1.6a14.754,14.754,0,0,0,3.986-1.846c2.223-1.82,4.769-3.214,6.915-5.13a36.42,36.42,0,0,0,4.262-4.82,17.634,17.634,0,0,0,2.22-3.325,3.722,3.722,0,0,0,.427-1.773,1.637,1.637,0,0,0-2.016-1.543,6.525,6.525,0,0,0-3.018,1.734,35.287,35.287,0,0,1-3.52,2.537c-1.023.646-1.876,1.431-2.914,2.053-4.471,2.679-9.463,4.344-14.409,5.988a.322.322,0,0,0,.385.031" transform="translate(-1081.665 -553.001)"/><path class="d" d="M1213.56,579.211a10.252,10.252,0,0,1,3.934-1.151,26.968,26.968,0,0,0,11.4-4.95c1.437-1.075,2.811-2.2,4.276-3.237,1.24-.878,2.982-1.636,3.886.083.522.993.011,2.2-.594,3.149a16.242,16.242,0,0,1-5.168,5.065l.254.167c-4.984,4.192-11.18,6.515-17.208,8.98l.316.151" transform="translate(-1082.668 -556.133)"/><path class="d" d="M1211.745,589.693l-.276-.076c2.242-.445,4.382-1.177,6.575-1.751s4.4-2.083,6.308-3.283a25,25,0,0,1,6.287-3.338,1.491,1.491,0,0,1,1.484.164,1.148,1.148,0,0,1,.257.87,4.15,4.15,0,0,1-1.61,2.533l-4.061,3.819a27.851,27.851,0,0,1-4.508,3.683c-2.115,1.283-3.972,2.843-6.215,3.977a20.543,20.543,0,0,1-7.353,2.5" transform="translate(-1081.159 -559.873)"/><path class="e" d="M1174.586,598.887a1.909,1.909,0,0,1,.58.857,11.839,11.839,0,0,0,2.626,3.687" transform="translate(-1070.729 -565.313)"/></g><g transform="translate(0 99.473)"><path class="c" d="M743.58,577.822l-.223.418,5.4-7.514-.211-.042a7.316,7.316,0,0,0-1.6.508,12.14,12.14,0,0,0-5.458,5.474Q742.537,577.243,743.58,577.822Z" transform="translate(-719.5 -557.059)"/><path class="c" d="M782.512,578.247c.351.172.689.35,1.011.538-.309-.187-.633-.366-.977-.54Z" transform="translate(-732.068 -559.376)"/><path class="d" d="M749.551,564.207l.069.322a8.766,8.766,0,0,0-2.1.138l.211.042-5.4,7.514.223-.418q-1.044-.578-2.091-1.156c-2.967,5.477-3.3,13.166.183,16.965,2.055,2.243,5.089,2.583,11.157,3.265,6.273.7,10.236,1.138,14.015-.828,2.46,4.647,4.569,9.5,7.392,13.931,4.84,7.6,3.737,7.018,9.192,16.01,12.583,20.739,20.163,32.9,30.376,33.277a16.43,16.43,0,0,0,8.616-2.442c10.757-5.689,57.128-32.552,51.154-49.4-2.842-8.019-17.087-12.5-25.814-8.972-5.335,2.159-8.75,7.369-14.179,15.654-6.451,9.844-6.5,13.782-9.871,14.433-4,.772-6.928-4.2-19.029-17.877-4.387-4.957-9.469-9.98-19.64-20.031-2.5-2.474-5.008-4.966-7.678-7.263a10.578,10.578,0,0,1-2.8-2.817c-1.72-3.146-4.856-5.066-7.62-7.206a18.31,18.31,0,0,1-2.153-1.64c-.828-.853-1.606-1.757-2.4-2.641-2-2.228-4.762-4.862-7.426-7.9a17.11,17.11,0,0,0-5.209-3.589c-1.176-.61-2.42-.895-3.378.261a3.829,3.829,0,0,0-.483,3.1,7.772,7.772,0,0,0,1.381,3.172c1.565,2.3,2.512,2.034,3.375,3.7.813,1.566.04,1.926.762,4.332a13.672,13.672,0,0,0,2.562,4.607,17.993,17.993,0,0,0,3.369,3.331" transform="translate(-718.473 -551.042)"/><path class="d" d="M716.2,557.042a34.062,34.062,0,0,0,5.266,6.088,41.2,41.2,0,0,0,5.522,4.832c1.07.73,2.206,1.36,3.337,1.986l3.293,1.82q1.048.577,2.091,1.156c-.074.14-.148.277-.223.418l5.4-7.514-.211-.042a69.7,69.7,0,0,1-7.87-2.043,10.38,10.38,0,0,1-3.23-1.277c-.772-.609-1.467-1.317-2.2-1.968a46.185,46.185,0,0,0-5.188-4.1,11.031,11.031,0,0,0-2.9-1.532c-.923-.273-3.532-.411-3.495,1.128A2.149,2.149,0,0,0,716.2,557.042Z" transform="translate(-711.63 -552.161)"/><path class="d" d="M732.064,579.487l.132-.17q-2.245-.738-4.448-1.6a14.757,14.757,0,0,1-3.987-1.846c-2.222-1.82-4.769-3.214-6.915-5.13a36.414,36.414,0,0,1-4.261-4.82,17.588,17.588,0,0,1-2.221-3.325,3.725,3.725,0,0,1-.427-1.772,1.638,1.638,0,0,1,2.016-1.544,6.531,6.531,0,0,1,3.018,1.734,35.023,35.023,0,0,0,3.52,2.537c1.022.646,1.876,1.432,2.913,2.053,4.471,2.68,9.463,4.344,14.409,5.988a.323.323,0,0,1-.385.032" transform="translate(-709.833 -553.558)"/><path class="d" d="M733.5,579.769a10.232,10.232,0,0,0-3.934-1.151,26.983,26.983,0,0,1-11.4-4.951c-1.437-1.075-2.81-2.2-4.276-3.237-1.24-.878-2.982-1.636-3.887.082-.523.993-.011,2.205.594,3.149a16.253,16.253,0,0,0,5.169,5.066l-.254.166c4.984,4.193,11.179,6.516,17.208,8.981l-.317.151" transform="translate(-709.789 -556.691)"/><path class="d" d="M735.3,590.251l.276-.077c-2.242-.445-4.382-1.176-6.575-1.75s-4.4-2.083-6.307-3.283A24.981,24.981,0,0,0,716.4,581.8a1.491,1.491,0,0,0-1.484.164,1.15,1.15,0,0,0-.257.869,4.153,4.153,0,0,0,1.61,2.533l4.061,3.819a27.889,27.889,0,0,0,4.508,3.683c2.116,1.284,3.972,2.843,6.216,3.977a20.514,20.514,0,0,0,7.352,2.5" transform="translate(-711.28 -560.43)"/><path class="e" d="M781.529,599.444a1.91,1.91,0,0,0-.58.857,11.837,11.837,0,0,1-2.627,3.687" transform="translate(-730.784 -565.87)"/></g><path class="f" d="M853.787,637.226a53.841,53.841,0,0,0,9.889,11.587c4.487,3.961,7.143,6.492,12.542,2.91,6.436-4.269,11.883-9.913,18.808-13.48,14.257-7.344,34.352-8.7,49.905-7.387a69.437,69.437,0,0,1,27.682,7.85c3.678,2.011,7.75,3.622,11.283,5.861,4.855,3.077,8.152,9.015,13.389,11.315a7.277,7.277,0,0,0,4.193-.326,33.846,33.846,0,0,0,13.766-8.159c5.253-5.143,12.078-12.194,12.661-19.829.451-5.92-2.261-9.474-5.388-14.053-3.183-4.661-5.2-10.1-7.1-15.373-3.594-9.978-6.543-20.863-14.432-28.448a37.659,37.659,0,0,0-12.218-7.606,50.467,50.467,0,0,0-25.68-3.011c-8.031,1.14-15.036,5.034-23.29,5.08-10.416.057-21.117-3.261-31.556-4.145s-21.652-.509-30.637,5.51a43.181,43.181,0,0,0-10.319,10.385c-5.6,7.542-9.877,15.967-14.125,24.346-2.382,4.7-4.8,9.495-5.641,14.7C846.166,623.29,849.492,630.355,853.787,637.226Z" transform="translate(-751.889 -453.875)"/><path class="f" d="M1000.342,674.376c-.031,3.531.017,7.062-.049,10.592-.022,1.133.676,10.232.817,11.019,1.88,10.529,3.609,20,1.913,26.639-1.668,6.529-6.388,9.968-13.4,15.078a62.572,62.572,0,0,1-37.528,12.063,58.329,58.329,0,0,1-29.485-9.047c-7.966-5.056-17.7-11.236-18.764-21.109-.738-6.875,2.459-18.077,4.016-23.531a104.408,104.408,0,0,0,1.346-15.672c-.025-2.01,0-4.02,0-6.031V641.2c-.061-19.232-.264-18.34,0-21.109.581-6.106,1.633-17.163,5.361-24.125,11.689-21.83,60.112-22.875,75.055,0,4.675,7.158,7.491,18.827,8.041,21.109,1.931,8,2.209,13.991,2.68,24.125C1000.577,646.259,1000.5,655.7,1000.342,674.376Z" transform="translate(-769.204 -460.196)"/><path class="d" d="M985.835,555.318a9.386,9.386,0,0,1-2.236,6.618c-1.158,1.346-7.662,2.547-10.1,2.956a29.312,29.312,0,0,1-13.7-1.353c-3.905-1.261-7.253-3.55-8.01-6.359-.551-2.045.288-4.124.866-6.166,1.736-6.135-3.482-14.452,7.946-16.99a49.808,49.808,0,0,1,8.89-.857,40.792,40.792,0,0,1,9.179.356c7.88,1.533,6.77,7.319,6.318,11.556C984.639,548.432,985.788,551.938,985.835,555.318Z" transform="translate(-783.873 -446.066)"/><path class="d" d="M985.579,454.687c5.361,6.5,5.666,15.314,4.9,23.319-.766,7.971-1.188,17.693-4.307,25.026-3.777,8.881-12.416,17.622-22.563,18.131-12.556.63-19.386-12.554-23.676-22.4-2.18-5-1.965-9.609-2.807-14.932-1.56-9.867-1.81-21,4.909-29.144C951.583,443.108,976.025,443.108,985.579,454.687Z" transform="translate(-779.152 -419.39)"/><path class="g" d="M969.476,446.883a8.45,8.45,0,0,1-5.706,1.152,8.176,8.176,0,0,1-4.79-2.886,2.135,2.135,0,0,1,1.384.927,2.9,2.9,0,0,1,.5,1.657c-.031,1.378-1.221,2.343-2.587,3.45a9.668,9.668,0,0,1-4.838,2.419,7.354,7.354,0,0,1-2.419,0,7.686,7.686,0,0,1-4.283-2.394,8.245,8.245,0,0,1-4.5,4.045,7.757,7.757,0,0,1-6.046-.209,18.07,18.07,0,0,1-2.107,13.074c-3.826-6.486-4.878-9.151-4.824-10.121,0-.027.01-.178.017-.386a13.869,13.869,0,0,0-.265-3.1,15.805,15.805,0,0,0-1.117-3.01c-1.257-2.97-1.878-6.364-.864-9.425s3.995-5.6,7.209-5.345c-.919-4.774-.188-10.027,2.79-13.87s8.42-5.887,12.962-4.155c2.941-5.3,7.281-10.933,13.341-11.071,4.649-.105,8.888,3.4,10.554,7.742a5.537,5.537,0,0,0,1.184,2.22c1.021.936,2.587.776,3.963.932,5.5.62,8.613,6.62,13.446,9.324a19.149,19.149,0,0,1,3.066,1.77c1.728,1.444,2.368,3.808,2.615,6.047a25.555,25.555,0,0,1-1.079,10.614,24.317,24.317,0,0,1-.1,7.317,31.314,31.314,0,0,1-2.42,7.258c-2.573,6.239-3.964,7-4.838,7.258a4.52,4.52,0,0,1-2.42,0,15.163,15.163,0,0,1-1.582-13.333,4.275,4.275,0,0,1-4.9-.624,8.989,8.989,0,0,1-2.808-4.42c-2.322-7.016-2.484-11.495-3.395-11.57C973.568,438.084,973.7,444.156,969.476,446.883Z" transform="translate(-776.187 -407.637)"/><path class="h" d="M996.352,734.911a54.068,54.068,0,0,1-37.9,24.514" transform="translate(-785.966 -507.897)"/><path class="h" d="M911.617,660.6a289.861,289.861,0,0,0-2.2-38.021" transform="translate(-770.945 -473.483)"/><path class="h" d="M1043.265,624.736l-.556,39.626a22.448,22.448,0,0,0,.263,4.7" transform="translate(-811.775 -474.145)"/><path class="d" d="M936.219,496.491a4.138,4.138,0,0,0-2.693-2.375,2.974,2.974,0,0,0-1.942.073c-1.665.713-1.905,2.964-1.686,4.762a24.127,24.127,0,0,0,2.847,8.762,4.837,4.837,0,0,0,1.856,2.1,1.917,1.917,0,0,0,2.509-.556" transform="translate(-777.199 -434.091)"/><path class="d" d="M1012.589,497.316a4.139,4.139,0,0,1,2.693-2.376,2.979,2.979,0,0,1,1.942.074c1.665.713,1.905,2.964,1.686,4.762a24.127,24.127,0,0,1-2.847,8.762,4.847,4.847,0,0,1-1.856,2.1,1.917,1.917,0,0,1-2.51-.556" transform="translate(-802.278 -434.343)"/></g></g></g><g transform="translate(767.761 307.588)"><path class="i" d="M815.328,322.326c3.567-1.107,5.658-5.288,9.348-5.781,4.673,3.936,8.117,11.192,15.251,10.208a2.939,2.939,0,0,0,1.844-1.6,24.744,24.744,0,0,0,1.274-2.354c-1.7-8.685-8.97-15.212-17.683-15.212a17.693,17.693,0,0,0-14.2,7.3c.167,1.215.371,2.425.6,3.622C812.007,320.112,812.376,323.064,815.328,322.326Z" transform="translate(-807.303 -307.588)"/><path class="j" d="M840.068,328.38a2.939,2.939,0,0,1-1.844,1.6c-7.133.984-10.577-6.273-15.251-10.208-3.69.492-5.781,4.674-9.348,5.781-2.951.738-3.321-2.214-3.566-3.813-.232-1.2-.436-2.407-.6-3.622a19.728,19.728,0,0,0-3.855,11.8c0,10.549,8.085,19.1,18.059,19.1s18.059-8.551,18.059-19.1a20.241,20.241,0,0,0-.375-3.888A24.724,24.724,0,0,1,840.068,328.38Z" transform="translate(-805.6 -310.813)"/></g><g transform="translate(683.814 345.771)"><path class="k" d="M708.44,375.915a55.661,55.661,0,0,1,3.472,13.505c.965,6.753-2.315,12.734-2.508,19.294-.386,9.839,9.068,17.557,18.522,14.084,7.717-2.894,15.049-10.612,23.345-7.331,5.209,2.122,10.8,7.524,16.593,2.7a57.326,57.326,0,0,0,6.976-6.6,45.222,45.222,0,0,0,.342-5.559c0-23.955-18.79-43.374-41.969-43.374A40.989,40.989,0,0,0,706.335,372.7,9.14,9.14,0,0,1,708.44,375.915Z" transform="translate(-691.244 -362.634)"/><path class="l" d="M761.2,422.612c-5.788,4.823-11.383-.579-16.593-2.7-8.3-3.28-15.627,4.437-23.345,7.331-9.454,3.473-18.908-4.244-18.522-14.084.193-6.56,3.473-12.541,2.508-19.294a55.656,55.656,0,0,0-3.472-13.505,9.138,9.138,0,0,0-2.1-3.217,43.867,43.867,0,0,0-15.091,33.311c0,23.954,18.79,43.373,41.969,43.373,21.356,0,38.986-16.485,41.627-37.814A57.311,57.311,0,0,1,761.2,422.612Z" transform="translate(-684.579 -367.079)"/></g><g transform="translate(930.584 341.503)"><g transform="translate(12.217 11.352)"><path class="g" d="M1085.639,372.962c3.2-.233,30.84-1.784,48.536,19.415,8.61,10.313,19.845,31.976,9.708,48.536-9.527,15.563-35.054,21.921-58.244,9.707-1.285,3.845-2.137,6.862-4.264,10.313l-23.429-9.264,9.913-28.6c.642-1.852,1.5-3.926,3.341-4.586,1.526-.545,3.2.089,4.661.795,4.041,1.954,7.8,4.525,12.024,6.028s9.229,1.786,12.955-.716c5.208-3.5,5.912-11.4,2.871-16.888s-14.671-11.162-14.671-11.162l-1.984-1.179S1085.084,379.532,1085.639,372.962Z" transform="translate(-1057.946 -372.847)"/></g><g transform="translate(0 0)"><path class="f" d="M1084.081,356.6c3.2-.233,30.84-1.784,48.536,19.415,8.609,10.313,19.845,31.976,9.708,48.536-9.527,15.563-35.054,21.921-58.244,9.708-1.285,3.844-2.136,6.862-4.264,10.312l-23.429-9.264c3.3-9.532,13.254-33.182,13.254-33.182s12.456,5.32,16.684,6.823,9.229,1.786,12.955-.716c5.208-3.5,5.913-11.4,2.872-16.888s-14.671-11.162-14.671-11.162l-2.059-1.165S1083.526,363.166,1084.081,356.6Z" transform="translate(-1045.251 -356.481)"/><path class="m" d="M1067.8,515.047h-23.181a14.556,14.556,0,0,1,23.181,0Z" transform="translate(-1041.646 -403.296)"/><path class="g" d="M1069.458,517.587V526.4a14.561,14.561,0,1,1-29.121,0v-8.811Z" transform="translate(-1040.334 -405.836)"/><circle class="f" cx="14.561" cy="14.561" r="14.561" transform="translate(0 97.188)"/></g><path class="g" d="M1057.469,481.466l-1.081-11.352,22.92,9.158,1.59,11.458Z" transform="translate(-1045.251 -391.292)"/><path class="n" d="M1097.869,484.968" transform="translate(-1057.959 -395.843)"/><path class="n" d="M1096.311,468.6" transform="translate(-1057.482 -390.83)"/></g></g></svg>