<svg xmlns="http://www.w3.org/2000/svg" width="268" height="268.412" viewBox="0 0 268 268.412"><defs><style>.a{fill:#fff;}.b{fill:#cfd7d9;}</style></defs><g transform="translate(-1504 -220)"><circle class="a" cx="134" cy="134" r="134" transform="translate(1504 220)"/><path class="b" d="M262.16,243.132a49.812,49.812,0,0,0-20.668-9.545L204.7,226.2a8.3,8.3,0,0,1-6.643-8.22v-8.438a100.8,100.8,0,0,0,6.928-12.347c1.812-3.573,4.546-8.958,5.905-10.351,7.448-7.482,14.645-15.887,16.876-26.724,2.08-10.166.034-15.5-2.365-19.8,0-10.72-.336-24.14-2.869-33.9-.3-13.219-2.7-20.651-8.74-27.16-4.261-4.613-10.535-5.687-15.585-6.543a27.234,27.234,0,0,1-5.721-1.342A59.2,59.2,0,0,0,164.156,64c-22.094.906-49.254,14.964-58.346,40.027-2.818,7.633-2.533,20.164-2.3,30.23l-.218,6.056c-2.164,4.227-4.295,9.6-2.2,19.8,2.214,10.854,9.411,19.275,16.994,26.858,1.241,1.275,4.043,6.71,5.888,10.3a104.268,104.268,0,0,0,6.979,12.3V218a8.337,8.337,0,0,1-6.677,8.22L87.457,233.6a49.922,49.922,0,0,0-20.6,9.529,8.407,8.407,0,0,0-.99,12.213,133.557,133.557,0,0,0,197.283,0,8.4,8.4,0,0,0-.99-12.213Z" transform="translate(1473.286 189.552)"/></g></svg>