<svg xmlns="http://www.w3.org/2000/svg" width="62" height="62" viewBox="0 0 62 62"><defs><style>.a{fill:#0099ba;stroke:rgba(0,0,0,0);stroke-miterlimit:10;}</style></defs><g transform="translate(0.5 0.5)"><path class="a" d="M31.5,0A30.5,30.5,0,1,1,1,30.5,30.534,30.534,0,0,1,31.5,0Zm0,56.73A26.23,26.23,0,1,0,5.27,30.5,26.257,26.257,0,0,0,31.5,56.73Z" transform="translate(-1)"/><path class="a" d="M308.733,254.623a2.135,2.135,0,1,1,3.013,3.025l-7.469,7.469,7.469,7.469a2.139,2.139,0,1,1-3.025,3.025l-8.976-8.976a2.134,2.134,0,0,1,0-3.013Z" transform="translate(-276.391 -234.605)"/></g></svg>