<svg xmlns="http://www.w3.org/2000/svg" width="31.448" height="33.336" viewBox="0 0 31.448 33.336"><defs><style>.a{fill:#09425a;stroke:#09425a;stroke-width:0.5px;}</style></defs><path class="a" d="M25.072,21.1a5.874,5.874,0,0,0-4.649,2.291L11.4,18.348a5.891,5.891,0,0,0,.327-1.936,5.761,5.761,0,0,0-.334-1.943l9.012-5.032A5.864,5.864,0,1,0,19.2,5.87a5.733,5.733,0,0,0,.334,1.943l-9,5.032a5.865,5.865,0,1,0,.014,7.125l9.012,5.039A5.866,5.866,0,1,0,25.072,21.1Zm0-19.248a4.03,4.03,0,1,1-4.029,4.03A4.033,4.033,0,0,1,25.072,1.848ZM5.876,20.441A4.03,4.03,0,1,1,9.9,16.411,4.033,4.033,0,0,1,5.876,20.441Zm19.2,10.548a4.03,4.03,0,1,1,4.029-4.03A4.033,4.033,0,0,1,25.072,30.988Z" transform="translate(0.25 0.25)"/></svg>