<svg xmlns="http://www.w3.org/2000/svg" xmlns:xlink="http://www.w3.org/1999/xlink" width="565.09" height="488.476" viewBox="0 0 565.09 488.476"><defs><style>.a,.h,.q,.t,.y,.z{fill:none;}.b{clip-path:url(#a);}.c{fill:url(#b);}.d{fill:url(#c);}.e{clip-path:url(#d);}.f{fill:#4fa5ad;}.g{fill:#fff;}.h,.j,.k,.l,.t,.u,.y,.z{stroke:#100052;}.h,.q,.y,.z{stroke-linecap:round;stroke-linejoin:round;}.h{stroke-width:1.293px;}.i,.j{fill:#2a7195;}.j,.k,.l,.t,.u{stroke-miterlimit:10;}.j,.k,.l,.t,.y{stroke-width:1.306px;}.k,.u{fill:#e28b3d;}.l{fill:#bbb7ce;}.m{fill:#100052;}.n{fill:#bbbdbf;}.o{fill:#57585a;}.p{fill:#d2e7f9;}.q{stroke:#bbdbf9;stroke-width:0.137px;}.r{fill:#929597;}.s{fill:#d0d2d3;}.u{stroke-width:1.361px;}.v{fill:url(#e);}.w{fill:url(#f);}.x{fill:url(#g);}.z{stroke-width:1.2px;}</style><clipPath id="a"><path class="a" d="M712.81,188.949c-23.182,5.328-109.092,25.077-157.264,105-21.427,35.552-28.847,72.167-29.352,104.921-.82,57.684,19.776,103.361,22.967,110.148,52.482,111.642,196.8,188.394,325.406,150.575,110.386-32.461,176.936-139.832,178.392-244.265.559-43.037-9.941-85.551-32.987-122.115-50.224-79.68-148.067-112.073-235.343-112.072a323.139,323.139,0,0,0-71.819,7.8" transform="translate(-526.17 -181.145)"/></clipPath><linearGradient id="b" x1="0.002" y1="0.5" x2="0.999" y2="0.5" gradientUnits="objectBoundingBox"><stop offset="0" stop-color="#2a7195"/><stop offset="1" stop-color="#060c39"/></linearGradient><linearGradient id="c" x1="0.29" y1="1.114" x2="0.484" y2="0.548" xlink:href="#b"/><clipPath id="d"><path class="a" d="M712.814,188.513c-23.181,5.329-109.092,25.078-157.264,105-59.25,98.311-11.4,204.688-6.389,215.337,52.482,111.642,196.8,188.394,325.406,150.575,155.965-45.864,224.42-241.293,145.408-366.647C969.753,213.1,871.908,180.708,784.632,180.709a323.126,323.126,0,0,0-71.818,7.8" transform="translate(-526.171 -180.709)"/></clipPath><linearGradient id="e" x1="0.713" y1="-0.573" x2="0.336" y2="1.476" gradientUnits="objectBoundingBox"><stop offset="0" stop-color="#ff9077"/><stop offset="1" stop-color="#e9645a"/></linearGradient><linearGradient id="f" x1="0.516" y1="0.293" x2="0.373" y2="1.104" xlink:href="#e"/><linearGradient id="g" x1="0.713" y1="-0.573" x2="0.336" y2="1.476" xlink:href="#e"/></defs><g transform="translate(-463.774 -180.709)"><g transform="translate(463.774 180.709)"><g transform="translate(38.276 0.267)"><g class="b"><path class="c" d="M524.873,181.144v1.582c27.187,2.958,52.307,16.858,76.468,31.726,16.029,10.419,28.051,24.845,44.881,36.866,13.625,10.419,23.242,23.241,28.05,39.271,6.412,22.44,12.823,43.278,16.83,67.321,5.61,28.852,31.257,49.689,57.7,55.3,102.177,24,202.858-5.834,304.211-10.066v-222Z" transform="translate(-525.669 -181.145)"/><path class="d" d="M748.807,414.207c-26.447-5.61-52.093-26.447-57.7-55.3-4.007-24.043-10.419-44.881-16.83-67.321-4.808-16.029-14.426-28.852-28.05-39.271-16.83-12.022-28.852-26.448-44.881-36.866-24.161-14.869-49.281-28.768-76.468-31.726v514.69h528.144V404.141C951.665,408.373,850.983,438.2,748.807,414.207Z" transform="translate(-525.669 -182.142)"/></g></g><g transform="translate(38.276)"><g class="e"><path class="f" d="M553.678,740.352l467.618,40.01,8.415,129.908H575.641Z" transform="translate(-536.804 -397.045)"/><path class="g" d="M654.184,846.76l145.743,16.613,5.286-74.759-66.452-7.551Z" transform="translate(-575.655 -412.782)"/><path class="h" d="M654.184,846.76l145.743,16.613,5.286-74.759-66.452-7.551Z" transform="translate(-575.655 -412.782)"/><path class="g" d="M916.277,506.858s17.071,4.116,29.958,6.809c0,0,10.8,3.078,27.345,3.847,0,0,40.392-1.539,49.7,34.653a724,724,0,0,1,18.117,77.434c2.622,15.054,5.136,30.684,4.281,46.016-.294,5.276-.659,13.788-4.863,17.373-3.949,3.367-9.609,4.5-14.511,5.706-6.066,1.489-12.254,2.644-18.384,3.949q-21.589,4.593-43.4,8.05c-13.629,2.16-27.37,3.989-41.17,3.864-5.549-.05-9.78-.042-14.525-3.066-5.494-3.5-10.421-7.8-15.768-11.506,0,0-31.149-25.486-54.936-17.557,0,0-41.345,25.487-59.468,18.123-6.363.609-9.451-4.9-11-10.262a128.885,128.885,0,0,1-.408-68.934c3.026-11.2,8.316-20.292,13.272-30.442,5.578-11.423,10.962-22.936,16.646-34.31,3.016-6.036,5.656-14.379,10.032-19.512,3.277-3.845,9.054-5.073,13.412-7.158l18.645-8.917s48.706,52.671,77.024-14.159" transform="translate(-617.625 -306.785)"/><path class="i" d="M976.091,514.1s-2.391,47.826-32.975,30.835c0,0-17.557,1.133-28.884-6.229l2.481,18.9,8.871,67.589,3.884,29.584c.407,3.1.73,6.231,1.223,9.321.406,2.537,3.122,6.6,6.478,3.047a17.114,17.114,0,0,1,8.213-4.815,58.605,58.605,0,0,1,6.917-1.557q6.239-1.135,12.49-2.2c1.369-.233,2.738-.464,4.118-.62.958-.108,2.76.171,3.6-.246,1.656-.825.582-3.762.55-5.149-.505-21.67-4.158-43.281-2.5-64.984.352-4.614.945-9.205,1.537-13.794l1.874-14.522c.586-4.543.525-9.887,1.889-14.256,2.039-6.523,5.179-12.165,5.494-19.285.2-4.585-.609-10.981-5.257-13.321" transform="translate(-676.18 -308.927)"/><path class="j" d="M937.943,530.853c1.478,2.843,3.168,5.6,4.833,8.338,1.631,2.683,1.391,3.4-1.045,5.578-4.1,3.666-8.93,6.866-11.354,11.991-1.349,2.854-1.915,1.852-3.447-.4a50.272,50.272,0,0,1-3.146-5.3,52.192,52.192,0,0,1-4.286-11.539,51.405,51.405,0,0,1-.12-24.038,68.558,68.558,0,0,1,2.967-9.135c1.205-3.052,2.691-6.294,5.326-8.381,1.813-1.435,5.457-3,6.12.154.535,2.54-1.051,6.034-1.172,8.648a48.22,48.22,0,0,0,5.322,24.084Z" transform="translate(-677.641 -302.697)"/><path class="k" d="M983.846,523.684c-4.13,6.824-9.762,16.035-19.03,15.353-5.51-.406-9.522-3.914-12.566-8.265a29.565,29.565,0,0,1-2.522-4.166,22.7,22.7,0,0,1-.893-15.987c1.645-5.65,4.989-9.616,8.368-14.207,2.236-3.038,3.992-6.732,6.682-9.4s5.9-5,8.777-7.48a3.585,3.585,0,0,1,1.435-.883,3.329,3.329,0,0,1,2.808,1.161c3.736,3.418,5.983,8.124,8.14,12.7,1.186,2.518,2.781,5.054,3.827,7.585.992,2.4.771,5.547.5,8.09A37.935,37.935,0,0,1,983.846,523.684Z" transform="translate(-689.158 -295.86)"/><path class="l" d="M885.83,617.108c-.41-1.942-.927-3.741-1.2-4.926-3.777-16.241-10.182-38.9-30.168-40.486a7.059,7.059,0,0,0-4.373.723c-6.628,4.212,1.164,19.386,2.8,24.394,2.831,8.652,5.941,17.738,12.783,23.742,4.319,3.79,11.731,7.359,17.679,6.333C887.1,626.239,886.723,621.338,885.83,617.108Z" transform="translate(-650.367 -331.829)"/><path class="k" d="M931.341,408.888a10.429,10.429,0,0,1,8.226,3.355c3.027,3.311,4.073,7.98,4.373,12.456a17.714,17.714,0,0,1-.608,6.877,10.8,10.8,0,0,1-2.984,4.492c-1.8,1.632-5.8,1.527-6.246,4.255a8.379,8.379,0,0,0,.664,3.852c6.926,21.476-6.9,50.589-32.51,47.048-7.518-1.039-14.467-4.574-20.867-8.653-10.108-6.444-18.1-16.942-25.724-26.2-9.94-12.065-19.7-25.414-24.824-40.332,0,0-8.307-21.145,23.787-39.645,0,0,43.42-29.451,69.854,7.18a105.957,105.957,0,0,1,5.184,14.936,18.846,18.846,0,0,1-.2,10.592A12.306,12.306,0,0,1,931.341,408.888Z" transform="translate(-643.57 -252.026)"/><path class="m" d="M930.314,390.463c0,3.7.053,7.4,0,11.1-.037,2.65-.559,3.33-2.015,5.428-1.851,2.668-1.551,5.614-1.062,8.683a4,4,0,0,1-3.819-1.892,12.755,12.755,0,0,1-1.564-4.2c-1.589-6.344-3.794-12.515-5.994-18.675a24.2,24.2,0,0,0-2.046-4.665c-2.117-3.422-7.126-6.528-11.32-5.676-2.781.566-3.081,4.393-4.011,6.771-2.922,7.474-7.1,15.057-13.477,20.119,0,0-5.287,5.663-7.929.378,0,0-7.174,4.909-12.46,6.8a6.769,6.769,0,0,0,5.664.377s-8.684,16.613-27.185,12.46c0,0-13.97-9.062-14.726-26.808,0,0,2.643-29.828,22.654-32.848,0,0,18.5-20.011,41.911-10.572,0,0,5.285,2.643,8.306,2.643,0,0,6.8-3.4,13.216,3.776C914.457,363.656,930.314,373.094,930.314,390.463Z" transform="translate(-642.989 -247.97)"/><path class="h" d="M900.487,381.4s-4.531,17.368-15.481,26.052c0,0-5.287,5.663-7.929.378,0,0-7.174,4.909-12.46,6.8a6.769,6.769,0,0,0,5.664.377s-8.684,16.613-27.185,12.46c0,0-13.97-9.062-14.726-26.808,0,0,2.643-29.828,22.654-32.848,0,0,18.5-20.011,41.911-10.572,0,0,5.285,2.643,8.306,2.643,0,0,6.8-3.4,13.216,3.776,0,0,15.857,9.438,15.857,26.807v14.725" transform="translate(-642.989 -247.97)"/><path class="h" d="M917.1,560.715s7.174,75.136,13.593,99.678" transform="translate(-677.29 -327.604)"/><path class="g" d="M599.026,718.365,464.61,714.589v18.878l135.171,5.287s7.551-9.061-.755-20.389" transform="translate(-502.374 -387.086)"/><path class="h" d="M599.026,718.365,464.61,714.589v18.878l135.171,5.287S607.332,729.693,599.026,718.365Z" transform="translate(-502.374 -387.086)"/><path class="n" d="M938.248,751.133c-3.075,1.381-7.151,2.213-8.937.95-1.115-.588-2.962-3.736-4.554-8.276-3.295-9.038-6.4-23.208-9.219-34.278l-2.652.688c2.8,10.989,5.892,25.185,9.333,34.667C924,749.64,925.667,753.3,928.2,755c3.556,2.092,7.844.63,11.192-.719a35.585,35.585,0,0,0,4.768-2.467l-1.474-2.958a33.882,33.882,0,0,1-4.435,2.281" transform="translate(-675.659 -385.13)"/><path class="o" d="M956.826,772.012c-1.685.912-2.548,2.779-1.938,4.186s2.471,1.807,4.162.9,2.549-2.784,1.937-4.187-2.473-1.811-4.16-.9" transform="translate(-691.82 -409.096)"/><path class="n" d="M992.936,723.936l-2.848.561c-.277-.956-1.852-6.641-2.254-7.711-3.286-9.044-9.922-21.708-14.841-31.888l2.378-1.452c4.871,10.114,11.547,22.777,15,32.26.534,1.519,1.012,2.951,1.385,4.289" transform="translate(-698.895 -375.048)"/><path class="o" d="M919.64,646.786c-11.4,5-14.634,23.3-8.338,40.686l3.308-1.41h0c-2.868-7.9-3.495-15.848-2.245-22.2,1.262-6.376,4.309-11.076,8.769-12.971s9.649-.7,14.586,3.044c4.915,3.736,9.473,10.015,12.341,17.907l3.312-1.4c-6.339-17.362-20.233-28.391-31.729-23.651" transform="translate(-673.822 -360.45)"/><path class="g" d="M464.611,768.836V745.363l135.17,5.287c12.082,6.8,2.266,21.9,2.266,21.9l-124.6-3.775Z" transform="translate(-502.374 -398.982)"/><path class="h" d="M464.611,768.836V745.363l135.17,5.287c12.082,6.8,2.266,21.9,2.266,21.9l-124.6-3.775Z" transform="translate(-502.374 -398.982)"/><path class="g" d="M662.573,734.171a6.041,6.041,0,1,1-6.041-6.041,6.041,6.041,0,0,1,6.041,6.041" transform="translate(-574.228 -392.32)"/><circle class="h" cx="6.041" cy="6.041" r="6.041" transform="translate(74.411 338.581) rotate(-22.5)"/><path class="g" d="M667.5,769.87a6.041,6.041,0,1,1-6.041-6.041,6.041,6.041,0,0,1,6.041,6.041" transform="translate(-576.131 -406.12)"/><circle class="h" cx="6.041" cy="6.041" r="6.041" transform="matrix(0.924, -0.383, 0.383, 0.924, 77.431, 360.48)"/><path class="p" d="M757.28,845.4l1.7-3.4,50.406,5.664-1.133,3.4Z" transform="translate(-615.508 -436.337)"/><path class="q" d="M757.28,845.4l1.7-3.4,50.406,5.664-1.133,3.4Z" transform="translate(-615.508 -436.337)"/><path class="p" d="M757.28,855.409l1.366-2.733,40.543,4.555-.91,2.733Z" transform="translate(-615.508 -440.465)"/><path class="q" d="M757.28,855.409l1.366-2.733,40.543,4.555-.91,2.733Z" transform="translate(-615.508 -440.465)"/><path class="p" d="M757.28,864.476l1.182-2.364,35.065,3.94-.788,2.364Z" transform="translate(-615.508 -444.113)"/><path class="q" d="M757.28,864.476l1.182-2.364,35.065,3.94-.788,2.364Z" transform="translate(-615.508 -444.113)"/><path class="o" d="M920.858,613.74l-3.034,2.032c-.058-.1-7.648-20.65-10.355-31.8a57.816,57.816,0,0,1-1.448-8.554,52.166,52.166,0,0,1,1.714-17.953c.148-.578.316-1.147.494-1.708l3.4,1.384c-.156.491-.312.982-.447,1.49a47.662,47.662,0,0,0-1.712,16.748,53.725,53.725,0,0,0,1.328,7.778c1.249,5.17,6.338,21.1,7.871,24.691.761,1.784,1.31,3.26,1.665,4.286s.513,1.6.523,1.6" transform="translate(-672.938 -325.689)"/><path class="o" d="M1025.337,510.423c-3.348-5.247-7-9.065-10.452-10.189l-.832,4.069c2.034.557,5.577,3.865,8.568,8.678a47.029,47.029,0,0,1,6.622,17.339,64.7,64.7,0,0,1,.536,9.159c.006,14.062-2.624,32.674-2.622,32.708l3.381.721V572.9c0-.054,2.664-18.793,2.672-33.422a69.084,69.084,0,0,0-.6-9.928,51.646,51.646,0,0,0-7.276-19.128" transform="translate(-714.767 -304.225)"/><path class="r" d="M1025.89,615.614c-7.591,0-13.741,5.809-13.741,12.975s6.15,12.971,13.741,12.971,13.738-5.808,13.738-12.971-6.154-12.975-13.738-12.975" transform="translate(-714.031 -348.826)"/><path class="s" d="M1030.376,626.582a6.258,6.258,0,1,0,6.612,6.247,6.445,6.445,0,0,0-6.612-6.247" transform="translate(-718.516 -353.066)"/><path class="t" d="M960.884,747.373c21.446-5.733,41.8-6.3,63.826-9.052l54.1-6.767" transform="translate(-694.214 -393.644)"/><path class="l" d="M954.422,757.611s29.119-7.747,36.867,43.011c0,0,5.076,26.18-28.318-2.137C962.97,798.484,933.05,768.564,954.422,757.611Z" transform="translate(-688.741 -403.553)"/><g transform="translate(204.823 359.401)"><path class="k" d="M860.516,782.1a5.533,5.533,0,0,0,.639,3.229,5.776,5.776,0,0,0,2.006,1.667,1.093,1.093,0,0,1,0,1.9,5.675,5.675,0,0,0-2.793,2.9c-1.235,3.161,1.5,6.125,4.279,7.407a9.064,9.064,0,0,0,.96.352,1.1,1.1,0,0,1,.273,1.947,3.675,3.675,0,0,0-1.52,1.764,3.9,3.9,0,0,0,.993,3.773,6.287,6.287,0,0,0,1.932,1.464c.914.453,3.049,1.194,2.234,2.611-.209.363-.552.639-.771,1a2.287,2.287,0,0,0,.061,2.251,5.6,5.6,0,0,0,1.65,1.715c3.232,2.4,6.493,2.9,10.479,2.795,17.865-.488,35.556-3.251,53.185-6.008a94.16,94.16,0,0,0,9.464-1.813c4.225-1.057,7.941-2.844,11.959-4.443a3.359,3.359,0,0,0,2.143-1.664,3.289,3.289,0,0,0-.064-1.828c-.718-3.119-4.2-15.791-4.485-17.116-.655-3.077-2.472-5.754-3.726-8.644a1.106,1.106,0,0,0-1.383-.621c-3.582,1.267-7.186,2.489-10.737,3.837-3.368,1.28-6.983,1.3-10.529,1.8-4.69.662-6.568-1.618-10.13-4.108-3.66-2.559-7.6-4.714-11.471-6.951-5.287-3.055-11.4-5.388-17.478-4.538a25.936,25.936,0,0,0-9.695,3.814c-2.478,1.494-4.345,3.6-7.285,3.829-2.365.183-6.38-.14-8.342,1.423C860.623,777.218,860.532,780.083,860.516,782.1Z" transform="translate(-860.064 -766.588)"/><path class="u" d="M883.378,776.7a70.95,70.95,0,0,1,23.077-1.116" transform="translate(-869.076 -769.885)"/></g><path class="t" d="M847.677,581.177" transform="translate(-650.452 -335.514)"/><path class="t" d="M818.912,578.855s-36.265,62.735-46.684,101.4" transform="translate(-621.287 -334.617)"/><g transform="translate(180.921 145.282)"><path class="k" d="M830.13,442.451a14.485,14.485,0,0,1-2.124,3.639c-.719.8-1.32,1.9-2.756,1.459a2.432,2.432,0,0,1-1.529-1.48,4.215,4.215,0,0,1-.138-2.04c.555-4.19,3.394-8.08,5.779-11.657a88.188,88.188,0,0,1,8.862-11.195,11.543,11.543,0,0,1,3.906-3.054c3.129-1.292,6.812-.187,10.034.923l6.278,2.164c1.676.578,3.474,1.244,4.379,2.6a4.5,4.5,0,0,1,.255,4.019,1.138,1.138,0,0,1-.323.536,1.557,1.557,0,0,1-.738.253,33.093,33.093,0,0,1-5.717.408,81.023,81.023,0,0,0-8.466-.2,20.18,20.18,0,0,0-10.964,4.656A26.166,26.166,0,0,0,830.13,442.451Z" transform="translate(-822.036 -417.541)"/><path class="k" d="M861.552,565.918c-1.056,1.782-1.479,1.392-3.037.311a40.547,40.547,0,0,1-9.4-9.087c-2.181-2.932-3.435-6.469-4.685-9.878-1.366-3.721-2.543-7.509-3.6-11.328-1.018-3.679-1.708-6.4-.974-10.159,2.411-12.32,3.551-24.889-.59-36.949-2.807-8.178-9.022-13.856-12.7-21.475-2.222-4.609-4.389-9.5-5.336-14.442-1.2-6.285,5.6-12.355,9.737-16.866,2.67-2.913,4.689-8.145,9.346-9.047,4.709-.912,12.643,1.239,17.032,2.589s5.438,5.282,7.45,8.24a6.318,6.318,0,0,1,2.162,3.992,10.081,10.081,0,0,1,0,4.776,20.984,20.984,0,0,1-.358,4.506c-.359,1.472-1.175,4.981-3.394,4.836s-2-4.6-2.164-5.987c-1.08-.705-2.749-.516-4.011-.531-1.141,2.235-2.151,4.523-3.145,6.8-1.569,3.233,1.943,7.066,3.765,9.767a22.127,22.127,0,0,1,3.807,8.079c.564,3.044-.974,5.541-.358,8.607,1.159,5.765,3.29,10.977,4.238,16.762A160.5,160.5,0,0,1,867.5,536.9a101.808,101.808,0,0,1-2.485,15.456C864.08,556.427,863.846,562.047,861.552,565.918Z" transform="translate(-821.099 -421.112)"/><path class="k" d="M835.566,450.452c2.657-1.183,1.589-.077,4.485-2.361s8.715-11.643,14.116-12.207,11.3,3.181,16.544,4.023c-.384-1.754-.514-4.264-1.483-5.9-1.234-2.078-3.7-2.478-6.035-2.953" transform="translate(-826.691 -422.765)"/><path class="k" d="M845.347,463.118c2.619-.722,3.225.118,5.981-1.613s8.148-7.6,11.5-8.753,6.758,1.07,9.1,1.614,2.6,1.338,4.473,2.131" transform="translate(-830.472 -431.026)"/></g></g></g><path class="j" d="M998.871,526.021c-1.212,2.966-2.643,5.868-4.05,8.746-1.379,2.821-1.075,3.511,1.55,5.459,4.414,3.276,9.521,6.022,12.4,10.9,1.6,2.719,2.076,1.669,3.4-.715a50.411,50.411,0,0,0,2.648-5.564,52.23,52.23,0,0,0,3.214-11.883,51.414,51.414,0,0,0-2.078-23.948,68.586,68.586,0,0,0-3.79-8.826c-1.479-2.929-3.255-6.022-6.071-7.859-1.936-1.263-5.707-2.491-6.08.712-.3,2.579,1.6,5.914,1.957,8.505a48.21,48.21,0,0,1-3.1,24.469Z" transform="translate(-668.743 -300.659)"/><g transform="translate(426.57 9.022)"><path class="v" d="M1189.689,238.467c10.419-3.233,16.526-15.448,27.3-16.886,13.653,11.5,23.712,32.693,44.55,29.819,2.156-.359,4.311-2.515,5.389-4.671a72.944,72.944,0,0,0,3.722-6.876c-4.96-25.369-26.2-44.438-51.656-44.438-16.836,0-31.83,8.343-41.488,21.332.487,3.55,1.084,7.084,1.761,10.582C1179.989,232,1181.066,240.623,1189.689,238.467Z" transform="translate(-1166.246 -195.416)"/><path class="w" d="M1259.834,260.172c-1.078,2.156-3.233,4.311-5.389,4.671-20.838,2.874-30.9-18.323-44.55-29.819-10.778,1.437-16.885,13.652-27.3,16.886-8.622,2.156-9.7-6.467-10.419-11.137-.677-3.5-1.274-7.032-1.761-10.582a57.616,57.616,0,0,0-11.263,34.463c0,30.815,23.617,55.795,52.751,55.795s52.751-24.98,52.751-55.795a59.144,59.144,0,0,0-1.095-11.357A72.944,72.944,0,0,1,1259.834,260.172Z" transform="translate(-1159.148 -208.858)"/></g><g transform="translate(0 181.453)"><path class="x" d="M478.7,497.55c5.093-1.581,8.079-7.552,13.348-8.254,6.674,5.62,11.592,15.982,21.778,14.577a4.2,4.2,0,0,0,2.634-2.283,35.684,35.684,0,0,0,1.82-3.362c-2.425-12.4-12.809-21.723-25.252-21.723a25.264,25.264,0,0,0-20.282,10.428c.238,1.735.53,3.463.861,5.173C473.962,494.389,474.489,498.6,478.7,497.55Z" transform="translate(-467.244 -476.505)"/><path class="w" d="M512.994,508.161a4.2,4.2,0,0,1-2.634,2.283c-10.186,1.405-15.1-8.957-21.778-14.577-5.269.7-8.254,6.674-13.348,8.254-4.215,1.053-4.742-3.162-5.093-5.445-.331-1.71-.623-3.438-.861-5.173a28.166,28.166,0,0,0-5.506,16.847c0,15.064,11.546,27.275,25.788,27.275s25.787-12.211,25.787-27.275a28.932,28.932,0,0,0-.535-5.552A35.67,35.67,0,0,1,512.994,508.161Z" transform="translate(-463.774 -483.076)"/></g></g><path class="y" d="M1117.958,595.44s-9.819,20.837-3.473,83.35" transform="translate(-250.714 -160.319)"/><path class="z" d="M1126.239,616.125s-11.751,9.586-13.889,37.668" transform="translate(-250.714 -168.315)"/><path class="z" d="M854.468,657.608s-25.272,99.667-68.044,102.53c0,0-19.214,2.1-20.808-25.451" transform="translate(-116.68 -184.35)"/></g></svg>