<svg xmlns="http://www.w3.org/2000/svg" xmlns:xlink="http://www.w3.org/1999/xlink" width="570.984" height="511.924" viewBox="0 0 570.984 511.924"><defs><style>.a{fill:url(#a);}.b,.s{fill:#deeffc;}.b,.e,.f,.g,.k,.m,.p{stroke:#100052;}.b,.e,.f,.g,.p{stroke-miterlimit:10;}.b,.e,.k,.m{stroke-width:1.06px;}.c{fill:#2a7195;}.d,.m{fill:#fff;}.e{fill:#e28b3d;}.f,.o{fill:#100052;}.f{stroke-width:2.083px;}.g,.k,.p,.t{fill:none;}.g{stroke-width:1.813px;}.h{fill:#57585a;}.i{fill:#fefefe;}.j{fill:#bbbdbf;}.k,.m,.t{stroke-linecap:round;stroke-linejoin:round;}.l{fill:#bbb7ce;}.n{fill:#bbdbf9;}.p{stroke-width:1.427px;}.q{fill:#929597;}.r{fill:#d0d2d3;}.s,.t{opacity:0.47;mix-blend-mode:screen;isolation:isolate;}.t{stroke:#deeffc;stroke-width:2.121px;}.u{fill:url(#c);}.v{fill:url(#d);}</style><linearGradient id="a" y1="0.5" x2="1" y2="0.5" gradientUnits="objectBoundingBox"><stop offset="0" stop-color="#ff9077"/><stop offset="1" stop-color="#e9645a"/></linearGradient><linearGradient id="c" x1="0.538" y1="0.354" x2="0.334" y2="1.011" gradientUnits="objectBoundingBox"><stop offset="0" stop-color="#faebd8"/><stop offset="1" stop-color="#ffb83f"/></linearGradient><linearGradient id="d" x1="0.487" y1="0.494" x2="0.359" y2="1.008" xlink:href="#c"/></defs><g transform="translate(-452.967 -111.638)"><path class="a" d="M765.524,522.4c-9.044-73.556-44.617-138.069-52.455-211.626-3.617-37.381-1.205-74.16,4.824-112.143,1.206-9.647,2.412-19.294,5.426-28.94a308.92,308.92,0,0,1,23.954-57.939q-4.391-.11-8.814-.115c-157.673,0-285.492,105.354-285.492,235.314S580.786,582.267,738.459,582.267q15.379,0,30.352-1.318C769.6,561.6,768.064,542.084,765.524,522.4Z"/><path class="a" d="M1220.042,347.039c0-127.529-123.084-231.36-276.678-235.2a308.924,308.924,0,0,0-23.954,57.939c-3.014,9.647-4.22,19.294-5.426,28.94-6.029,37.984-8.441,74.762-4.824,112.143,7.838,73.557,43.411,138.069,52.455,211.626,2.54,19.683,4.073,39.2,3.287,58.547C1108.3,568.544,1220.042,468.549,1220.042,347.039Z" transform="translate(-196.091 -0.087)"/><path class="b" d="M1173.537,543.071l-88.592-2.272-22.111-.568-41.691-1.071L981.5,538.138V291.464l188.922,1.648,2.461,197,.625,50.455Z" transform="translate(-228.033 -77.586)"/><path class="c" d="M1158.979,462.87a117.262,117.262,0,0,1-1.939,21.552c-.227,1.331-.479,2.67-.739,4-1.209,6.216-2.7,12.415-4.179,18.622-1.679,7.035-3.343,14.086-4.56,21.179-.162.933-.308,1.858-.454,2.791a206.484,206.484,0,0,0-2.191,22.477c-.828,17.957.325,36.076,1.752,54.082L1124.59,607h-.032q.34-4.564.682-9.137,1.533-20.314,3.059-40.636c.268-3.66.544-7.32.649-10.987.089-2.548.081-5.1-.057-7.652-.3-5.583-1.242-11.1-1.842-16.659-.341-3.2-.568-6.394-.714-9.6a1.059,1.059,0,0,0-.008-.154c-.471-10.386-.1-20.829-.081-31.248v-.113a211.07,211.07,0,0,0-.828-21.146c-.008-.089-.016-.187-.024-.276.373.032.755.065,1.144.081h.008a.277.277,0,0,0,.081,0c2.7.1,5.688-.438,6.475-3.01.7-2.288-.957-4.82-.3-7.116.755-2.613,3.968-3.368,6.548-3.059a48.818,48.818,0,0,0,4.845.665c.973.024,2.4-.462,3.294.1,1,.625,1.339,2.491,1.81,3.522a21.7,21.7,0,0,0,2.288,4.008,10.555,10.555,0,0,0,6.743,4.455.917.917,0,0,0,.146.016c.122.016.251.032.381.04v.057C1158.93,460.4,1158.962,461.629,1158.979,462.87Z" transform="translate(-289.757 -144.358)"/><path class="d" d="M1099.041,550.332l-.422,5.859-3.708,51.623-.649,9.137h-.032q-17.293-.444-34.585-.889c-5.689-.155-5.8-1.123-5.057-6.834q1.154-8.854,1.959-17.749,1.587-17.414,1.871-34.914c.318-19.573-.094-38.935,4.013-58.253a87.485,87.485,0,0,1,4.587-15.175c2.2-5.329,4.7-6.588,9.781-9.19,1.026-.525,2.052-1.051,3.11-1.507a40.153,40.153,0,0,1,11.811-2.752q1.08-.113,2.162-.2a7.178,7.178,0,0,1,2.108-.154c.464.135.3.919.3,1.325l-.034,4.415-.054,7.131s-.146,3.473-.284,8.561v.113c-.243,8.8-.462,22.355.081,31.248a1.076,1.076,0,0,1,.008.154c.057.885.122,1.72.2,2.5Z" transform="translate(-259.428 -154.305)"/><path class="d" d="M1046.574,487.156l-37.335,43.113s-12.374,11.157-4.26,26.777c0,0,11.766,10.751,26.777,0l17.648-15.823" transform="translate(-236.975 -162.017)"/><path class="e" d="M859.4,708.45a50.932,50.932,0,0,0,17.311-20.624s3.245-14.538-8.656-21.57c0,0-8.655-1.217-11.36,4.53l-18.393,21.3,12.983,20.151Z" transform="translate(-166.254 -239.243)"/><path class="e" d="M682.589,415.8h0c-5.826,0-10.549,5.632-10.549,12.58v10.451c0,6.23,3.822,11.521,8.988,12.442l10.143,1.809c6.376,1.137,12.109-4.753,12.109-12.442v-12.26c0-6.948-4.723-12.58-10.549-12.58Z" transform="translate(-94.519 -131.232)"/><path class="e" d="M687.475,367.751a22.918,22.918,0,0,0,22.214,6.541c6.316-1.291,10.6-4.086,12.582-10.184s2.577-12.6,3.2-18.959c1.423-14.507,3.119-30.722-2.788-44.516-5.754-13.435-34.66-11.663-47.191-10.643a22.8,22.8,0,0,0-8.67,1.988c-16.75,8.629-2.816,40.282,3.253,51.58,3.336,6.209,7.087,13.235,11.93,18.411C683.767,363.85,685.549,365.886,687.475,367.751Z" transform="translate(-88.832 -76.651)"/><path class="f" d="M700.532,325.076l-.192.056c-11.648,3.263-4.66,17.241-4.66,17.241-.466,7.453-5.122,16.767-5.125,16.775-3.907,7.816-12.4,6.851-19.7,5.619-8.078-1.363-17.58.172-24.4-4.928-3.507-2.622-6.231-6.131-8.91-9.594-1.852-2.4-3.766-4.929-4.239-7.919a19.682,19.682,0,0,0-.45-2.93c-.545-1.713-1.992-2.951-3.11-4.359a20.7,20.7,0,0,1-3.669-9.158c-3.014-15.94,3.49-42.611,20.348-48.8a64.761,64.761,0,0,1,30.013-3.142,73.212,73.212,0,0,1,14.943,3.429c4.838,1.661,9.078,4.111,13.621,6.373,3.809,1.9,7.541,4.559,9.474,8.524a15.667,15.667,0,0,1,.9,10.311,29.3,29.3,0,0,1-4.409,9.524c-2.29,3.439-4.139,6.81-4.7,10.9s-.5,8.284-1.507,12.29c-.1.406-.384.912-.785.795a.784.784,0,0,1-.421-.465,13.927,13.927,0,0,1-1.329-4.793,19.821,19.821,0,0,0-.314-2.987C701.66,326.862,701.439,325.5,700.532,325.076Z" transform="translate(-74.379 -69.796)"/><path class="e" d="M749.678,366.056a5.287,5.287,0,0,0-2.971-3.336,4.551,4.551,0,0,0-2.535-.414,4.939,4.939,0,0,0-3.869,4.676,24.809,24.809,0,0,0,1.77,10.491,5.863,5.863,0,0,0,1.947,2.814,3.214,3.214,0,0,0,3.649-.172" transform="translate(-123.956 -108.132)"/><path class="d" d="M736.6,610.665a.1.1,0,0,1-.008-.048c-1.274-9.291-7.636-18.485-8.577-19.8-.04-.057-.065-.1-.089-.13a.2.2,0,0,0-.024-.032s-6.491-5.274-21.1,1.217q2.181-12.784,3.842-25.652c1.96-15.1,1.616-29.568,1.11-44.772a54.689,54.689,0,0,0-1.152-11.223,27.632,27.632,0,0,0-7.848-13.384c-3.352-3.17-6.491-6.629-9.95-9.658-8.795-7.7-19.385-13.008-29.879-17.974-8.337-3.945-16.908-8.827-25.941-10.605-8.184-1.611-15.889-2.664-24.275-1.914a92.023,92.023,0,0,0-45.377,16.979c-20.752,15.107-23.5,38.425-25.184,62.348,0,12.066-1.5,24.57-2.567,36.593-.7,7.873-.34,15.929-.34,23.86V750.912s55.989,31.24,159.04,18.257c0,0-3.651-80.331-11.766-116.845,0,0,3.124-1.209,8.228-3.66A199.832,199.832,0,0,0,731.68,625.6q1.133-1.23,2.167-2.556A23.143,23.143,0,0,0,736.6,610.665Zm-81.2,44.312-20.269-67.8,25.73-22.144-7.611,49.229s-3.456,24.149,8.788,34.851Z" transform="translate(-37.183 -148.766)"/><path class="d" d="M734.869,731.512l-6.638,5.867-20.269-67.8,25.73-22.144-7.611,49.229S722.625,720.81,734.869,731.512Z" transform="translate(-110.017 -231.168)"/><path class="d" d="M877.783,752.038q1.133-1.23,2.159-2.548a12.57,12.57,0,0,1-1.071,1.68C878.505,751.462,878.148,751.754,877.783,752.038Z" transform="translate(-183.286 -275.2)"/><path class="g" d="M667.948,567.624s-7.709,42.6-2.84,81.954" transform="translate(-90.832 -196.735)"/><path class="g" d="M812.818,777.032a141.074,141.074,0,0,0,13.721-6.686c8.1-4.4,16.854-9.445,23.207-16.374" transform="translate(-155.257 -277.134)"/><line class="g" x1="3.749" y2="24.278" transform="translate(623.675 391.987)"/><path class="g" d="M808.219,701.208s-10.239,3.874-13.932,8.409" transform="translate(-147.262 -254.369)"/><path class="h" d="M702.74,461.866c-.528-.349-1.047-1.683-1.45-2.2a21.77,21.77,0,0,0-4.754-4.453,32.154,32.154,0,0,0-14.075-5.294,47.267,47.267,0,0,0-12.049-.322,21.671,21.671,0,0,0-5.738,1.354c-1.726.74-2.979,2.25-4.684,3.033a11.617,11.617,0,0,1,3.669-.534C677.787,452.285,690.678,453.891,702.74,461.866Z" transform="translate(-89.32 -145.703)"/><path class="i" d="M1195.612,478.676l-.138-.016a.219.219,0,0,1,.041-.048C1195.547,478.635,1195.58,478.651,1195.612,478.676Z" transform="translate(-320.354 -158.33)"/><path class="h" d="M1107.6,569.459a2.782,2.782,0,0,0-.359-.037,1.682,1.682,0,0,0-.338.028,1.742,1.742,0,0,0-.62.254,1.912,1.912,0,0,0-.522.509,2.49,2.49,0,0,0-.45,1.357,1.877,1.877,0,0,0,.085.659,1.6,1.6,0,0,0,.349.62,1.9,1.9,0,0,0,.595.426,3.313,3.313,0,0,0,.676.232c.046.01.091.021.136.029a7,7,0,0,0,.826.1c.086,0,.173.008.26.007.186.007.371.005.559.006h.9l.019,0a.159.159,0,0,0,.051.006.169.169,0,0,0,.063,0,.29.29,0,0,0,.167-.105c.031-.034.06-.068.089-.1l-.009,0a2.767,2.767,0,0,0,.389-.6,2.01,2.01,0,0,0,.142-.36l.027-.093.027-.083c.012-.06.022-.12.032-.182a.292.292,0,0,0-.005-.064.236.236,0,0,0-.059-.217c-.211-.248-.423-.5-.65-.739a8.153,8.153,0,0,0-1.107-1.015,3.762,3.762,0,0,0-.649-.407,2.917,2.917,0,0,0-.567-.209Z" transform="translate(-281.452 -197.51)"/><path class="j" d="M1132.518,522.073a.21.21,0,0,0-.056-.005.259.259,0,0,0-.271.234l0,.064.009.065a.232.232,0,0,0-.084-.084,1.42,1.42,0,0,0-.5-.225,1,1,0,0,0-.238-.03.988.988,0,0,0-.117,0,.925.925,0,0,0-.258.043,1.507,1.507,0,0,0-.318.128l-.109.05a.256.256,0,0,0-.267.232,72.121,72.121,0,0,1-1.035,9.6,59.728,59.728,0,0,1-1.694,7.056c-.371,1.21-.759,2.333-1.188,3.435-.234.6-.458,1.147-.682,1.669-.193.441-.4.91-.632,1.375a14.111,14.111,0,0,1-2.018,3.055,10.288,10.288,0,0,1-1.873,1.635,9.346,9.346,0,0,1-1.945.973,10.771,10.771,0,0,1-2.328.511,14.291,14.291,0,0,1-1.724.051c-.3-.009-.6-.024-.9-.047l-.032.1-.026.093a2.15,2.15,0,0,1-.141.36,2.817,2.817,0,0,1-.391.6,6.031,6.031,0,0,0,.841.248,8.95,8.95,0,0,0,1.5.206l.088,0c.059,0,.116,0,.177.005a10.56,10.56,0,0,0,2.332-.2,11.071,11.071,0,0,0,2.443-.779,10.85,10.85,0,0,0,1.879-1.1,14.85,14.85,0,0,0,4.291-5.251,37.911,37.911,0,0,0,2.59-6.641,70.98,70.98,0,0,0,2.886-17.182.226.226,0,0,0-.071-.169.26.26,0,0,0-.131-.073" transform="translate(-285.071 -177.079)"/><path class="h" d="M1129.922,573.375a2.716,2.716,0,0,0-.67.063,3.955,3.955,0,0,0-.745.231,8.992,8.992,0,0,0-1.365.707c-.285.177-.563.364-.839.55a.272.272,0,0,0-.125.2.3.3,0,0,0-.019.056c-.009.059-.016.118-.023.178l.01,0c0,.037-.006.075-.01.131v.055a2.231,2.231,0,0,0,.033.426l.007.045.011.048.017.057a4.308,4.308,0,0,0,.145.461c.019.045.04.09.063.136a.272.272,0,0,0,.131.138.222.222,0,0,0,.06.024.2.2,0,0,0,.074,0l.7.181c.24.062.472.122.708.175.084.019.167.038.25.055a6.653,6.653,0,0,0,.824.11,3.491,3.491,0,0,0,.859-.053,2.052,2.052,0,0,0,.7-.263,1.733,1.733,0,0,0,.515-.511,2.038,2.038,0,0,0,.279-.617,2.421,2.421,0,0,0,.081-.746,2.258,2.258,0,0,0-.124-.668,1.767,1.767,0,0,0-.352-.619,1.657,1.657,0,0,0-.522-.4,1.454,1.454,0,0,0-.32-.112,2.58,2.58,0,0,0-.353-.051" transform="translate(-290.438 -199.214)"/><path class="j" d="M1108.7,518.528a.292.292,0,0,0-.2.03.244.244,0,0,0-.119.147,70.719,70.719,0,0,0-2.237,17.263,36.525,36.525,0,0,0,.555,7.032,13.965,13.965,0,0,0,2.6,6.11,9.984,9.984,0,0,0,1.49,1.525,10.445,10.445,0,0,0,2.122,1.35,10.285,10.285,0,0,0,2.193.762c.085.019.168.038.254.055a8.912,8.912,0,0,0,2.381.15,4.275,4.275,0,0,1-.154-.488l-.016-.057-.012-.048-.007-.045a2.2,2.2,0,0,1-.035-.425v-.055c0-.058,0-.095.008-.134-.326-.068-.612-.125-.9-.189a13.989,13.989,0,0,1-1.649-.472,10.243,10.243,0,0,1-2.092-1.06,8.9,8.9,0,0,1-1.589-1.413,9.478,9.478,0,0,1-1.326-2.034,13.46,13.46,0,0,1-1.055-3.441c-.088-.523-.152-1.038-.206-1.479-.063-.538-.118-1.12-.172-1.774-.088-1.145-.135-2.323-.141-3.6a59.638,59.638,0,0,1,.43-7.209,73.06,73.06,0,0,1,1.807-9.5.244.244,0,0,0-.192-.293l-.089-.072a1.178,1.178,0,0,0-.265-.2.959.959,0,0,0-.238-.105c-.036-.012-.074-.022-.111-.031a1.175,1.175,0,0,0-.2-.027,1.451,1.451,0,0,0-.58.093.878.878,0,0,0-.118.049l.039-.047.016-.064a.245.245,0,0,0-.193-.292" transform="translate(-281.81 -175.549)"/><path class="h" d="M1132.14,453.447a14.162,14.162,0,0,0-4.275,2.159,17.329,17.329,0,0,0-4.169,4.515,27.506,27.506,0,0,0-2.734,5.555c-.316.844-.625,1.786-.943,2.88-.421,1.465-.731,2.746-.95,3.92a21.55,21.55,0,0,0-.377,3.949,8.655,8.655,0,0,0-2.4,1.063,11.909,11.909,0,0,0-3.7,3.887,18.827,18.827,0,0,0-1.265,2.473,23.962,23.962,0,0,0-.932,2.6,30.459,30.459,0,0,0-1,4.775.268.268,0,0,0,.03.186.327.327,0,0,0,.1.088.281.281,0,0,0,.123.094,5.214,5.214,0,0,0,.712.218,4.413,4.413,0,0,0,.5.084,3.619,3.619,0,0,0,.652,0,2.963,2.963,0,0,0,.646-.136.239.239,0,0,0,.132-.119.186.186,0,0,0,.061-.107c.184-.961.413-1.931.683-2.88a27.68,27.68,0,0,1,1.171-3.315,15.767,15.767,0,0,1,2.2-3.742,8.69,8.69,0,0,1,1.607-1.529,6.59,6.59,0,0,1,1.266-.711l.045-.032a6.88,6.88,0,0,1,1.289-.331,6.35,6.35,0,0,1,1.483-.018,7.372,7.372,0,0,1,.8.136,8.345,8.345,0,0,1,1.012.3,7.04,7.04,0,0,1,.719.3,5.072,5.072,0,0,1,.678.4,6.063,6.063,0,0,1,1,.895,6.73,6.73,0,0,1,.9,1.371,9.924,9.924,0,0,1,.8,2.593,18.247,18.247,0,0,1,.219,3.277c-.016.934-.09,1.942-.222,3.086l-.014.113-.014.119c-.037.3-.074.594-.122.882a.254.254,0,0,0,.032.187.362.362,0,0,0,.2.223,5.281,5.281,0,0,0,.619.184,3.3,3.3,0,0,0,2.018-.116.265.265,0,0,0,.18-.073.228.228,0,0,0,.072-.131.256.256,0,0,0,.007-.08,32.9,32.9,0,0,0,.192-3.887,23.456,23.456,0,0,0-.352-3.926,12.774,12.774,0,0,0-1.035-3.253,11.725,11.725,0,0,0-.815-1.432,10.379,10.379,0,0,0-1.026-1.283,8.885,8.885,0,0,0-2.626-1.955,8.412,8.412,0,0,0-1.594-.59l-.056-.013-.189-.047a9.634,9.634,0,0,0-1.527-.207c-.154-.009-.31-.015-.464-.016.049-.814.118-1.6.213-2.407a32.8,32.8,0,0,1,2.255-9.08,18.725,18.725,0,0,1,2.593-4.375,14.648,14.648,0,0,1,2.577-2.461l.033-.046c.173-.119.348-.235.524-.347.222-.184.438-.373.655-.563.363-.347.715-.7,1.068-1.057.194-.213.386-.426.584-.633.039-.05.08-.1.12-.149l.4-.526c.094-.134.188-.271.28-.406s.187-.264.278-.4c.1-.155.2-.309.3-.461-.422.093-.838.2-1.246.325" transform="translate(-283.218 -147.333)"/><path class="k" d="M1057.635,517.213c-7.662,4.465-15.7,12.107-23.112,16.982" transform="translate(-250.912 -174.985)"/><path class="l" d="M1079.053,553.753c-2.6,1.4-5.956-2.686-7.505-5.161a12.2,12.2,0,0,1-.657-1.144c-1.679-3.4-4.731-14.476-4.1-22.477.413-5.234,2.409-9.145,7.392-8.748a5.133,5.133,0,0,1,1.639.406c5.12,2.207,5.769,12.512,6.589,16.854.114.616.243,1.266.382,1.939C1084.051,541.768,1085.634,550.19,1079.053,553.753Z" transform="translate(-264.797 -174.546)"/><path class="e" d="M1105.436,496.066s2.081,4.486-2.252,5.2c0,0,2.786,4.665-1.311,6.1,0,0,1.781,4.485-11.4,2.871,0,0-1.96-1.076-4.81,1.615l-4.2,4.959-9.03,11.548a10.949,10.949,0,0,1-.577-1.012c-1.475-3.007-5-12.7-4.447-19.78l7.932-7.378,2.124-1.973s5.879-3.05,6.948-8.792c0,0,5.7-8.074,2.494-16.328,0,0-.89-4.126,1.782-3.768,0,0,8.73,6.818,5.345,16.328l-.713,2.512s9.8-.179,13.9,2.512C1107.218,490.683,1109.356,494.451,1105.436,496.066Z" transform="translate(-265.075 -154.317)"/><path class="d" d="M1214.772,554.237c0,2.053-.032,4.1-.13,6.11-.105,2.475-.3,4.9-.616,7.246-.544,4.09-2.467,27.077-7.546,42.405a43.254,43.254,0,0,1-3.692,8.52l-40.734-1.039-1.477-25.349c-.438-8.261-.406-19.823-.276-28.733.105-7.644.276-13.34.276-13.34l1.915-9.137,5.015-23.97,3.619-17.291c.122-.462.243-.925.357-1.379.349-1.371.666-2.686.942-3.955a86,86,0,0,0,2.068-14.338c.1-1.988-1.26-8.492-.419-9.99,2.246-4,24.187,8.036,27.6,10.45a18.582,18.582,0,0,1,5.669,5.727,22.3,22.3,0,0,1,2.186,7.587c2.251,14.145,3.666,28.451,4.533,42.736C1214.4,542.155,1214.764,548.233,1214.772,554.237Z" transform="translate(-305.141 -154.266)"/><path class="d" d="M1197.967,627.754l-7.035,22.347-2,4.633-2.524,5.834.747-6.126-7.5-1.233,8.99-50.138,4.658.852,2.573-21.17,2.418,22.079,1.014,9.291A33.428,33.428,0,0,1,1197.967,627.754Z" transform="translate(-313.531 -203.262)"/><path class="m" d="M1126.688,515.085s-7.443-.273-10.08-1.694" transform="translate(-286.327 -173.336)"/><path class="h" d="M1176.007,466.37a39.248,39.248,0,0,1,1.33,4.5,76.7,76.7,0,0,1,1.427,9.049c.195,1.795.344,3.449.461,5.057.131,1.8.227,3.59.282,5.313.136,4.1.079,8.264-.171,12.372l.035-.056c-.194,2.653-.431,5.185-.712,7.525-.152,1.253-.32,2.491-.5,3.679-.184,1.213-.391,2.585-.678,3.914a.244.244,0,0,0,.2.283.316.316,0,0,0,.15.081c.115.034.231.064.348.09a4.622,4.622,0,0,0,1.714.078.281.281,0,0,0,.176-.08.277.277,0,0,0,.151-.182c.321-1.595.617-3.339.907-5.332.254-1.727.479-3.548.67-5.414.365-3.574.575-7.228.629-10.863.06-3.582-.037-7.251-.289-10.9-.11-1.633-.26-3.258-.394-4.655-.148-1.557-.288-2.836-.437-4.023a58.059,58.059,0,0,0-1.565-8.292,28.546,28.546,0,0,0-3.206-7.64,19.084,19.084,0,0,0-1.394-1.96c-.292-.359-.982-1.577-1.5-1.108a1.089,1.089,0,0,0-.274.467,2.492,2.492,0,0,0-.1,1.19c.057.353.191.691.24,1.046a7.835,7.835,0,0,0,.093.837,3.922,3.922,0,0,0,.535.876c.235.425.454.86.665,1.3C1175.249,464.445,1175.65,465.4,1176.007,466.37Z" transform="translate(-310.759 -149.306)"/><path class="m" d="M1124.436,524.445s-4.786.2-7.828-1.42" transform="translate(-286.327 -177.492)"/><path class="m" d="M1114.824,532.42s1.674,1.788,7.532,2.179" transform="translate(-285.557 -181.546)"/><path class="d" d="M1061.792,538.792l4.733-4.456,6.2,17.033-5.468,7.979-6.549-20.286Z" transform="translate(-262.21 -182.372)"/><path class="n" d="M734.869,731.512l-6.638,5.867-20.269-67.8,25.73-22.144-7.611,49.229S722.625,720.81,734.869,731.512Z" transform="translate(-110.017 -231.168)"/><path class="n" d="M874.443,616.949l-19.207,16.967c-.04-.057-.065-.1-.089-.13a.2.2,0,0,0-.024-.032s-6.491-5.274-21.1,1.217c.634-.282.977-5.943,1.081-6.6q1.25-7.881,2.328-15.789a195.424,195.424,0,0,0,1.749-39.531c-.348-5.187-1.116-7.983,2.9-11.405,2.064-1.761,4.113-3.539,6.169-5.309Z" transform="translate(-164.407 -191.864)"/><path class="o" d="M856.385,597.992l3.787-3.013L873.5,624.8l-4.95,3.716-12.166-27.994" transform="translate(-174.054 -208.537)"/><line class="p" x2="10.953" y2="23.313" transform="translate(679.66 396.491)"/><line class="p" x2="9.414" y2="20.038" transform="translate(676.722 401.608)"/><path class="n" d="M1258.438,672.071l-13.317-2.212c3.883-13.435,5.354-33.584,5.769-37.168.242-2.056.391-4.182.471-6.351l14.776,2.8Z" transform="translate(-341.774 -222.068)"/><rect class="o" width="5.54" height="30.902" transform="translate(857.06 407.905) rotate(8.945)"/><line class="p" x1="3.556" y2="20.894" transform="translate(861.927 414.909)"/><path class="q" d="M1174.828,553.071c-4.935-.3-9.2,3.114-9.531,7.631s3.4,8.42,8.335,8.723,9.2-3.114,9.529-7.629-3.4-8.423-8.333-8.725" transform="translate(-307.325 -190.448)"/><line class="p" x1="2.752" y2="17.36" transform="translate(866.503 418.455)"/><path class="o" d="M879.841,712.489c-1.274-9.291-7.636-18.485-8.577-19.8-.04-.057-.065-.1-.089-.13l.1.122C877.431,700.285,879.557,707.044,879.841,712.489Z" transform="translate(-180.435 -250.638)"/><path class="r" d="M1178.037,560.536a4.2,4.2,0,0,0-4.593,3.674,4.089,4.089,0,0,0,4.018,4.2,4.2,4.2,0,0,0,4.586-3.675,4.082,4.082,0,0,0-4.011-4.2" transform="translate(-310.844 -193.673)"/><path class="n" d="M1181.227,611.039s-1.864,42.751-3.544,46.731l-34.64-5.689,6.7-49.68Z" transform="translate(-297.732 -211.739)"/><g transform="translate(820.293 240.679)"><path class="o" d="M1184.76,408.555a22.755,22.755,0,0,0,2.98-5.419,50.83,50.83,0,0,0,3.513-13.616,5.419,5.419,0,0,0-.234-2.924c-.669-1.424-2.384-2.042-3.955-2.13-4.2-.237-8.21,2.377-10.511,5.9s-3.118,7.826-3.3,12.031c-.08,1.9-.769,13.427.983,13.734.888.156,4.457-2.544,5.312-3.084A20.191,20.191,0,0,0,1184.76,408.555Z" transform="translate(-1130.974 -358.384)"/><path class="e" d="M1107.209,370.927a123.929,123.929,0,0,0,1.654,34.409c.781,4.11,2.01,8.549,5.434,10.953,2.357,1.654,5.348,2.037,8.208,2.37a16.29,16.29,0,0,1-.511,6.163c-.345,1.572-1.843,4.493-1.252,5.952.731,1.807,3.318,3.328,4.987,4.085a14.933,14.933,0,0,0,6.46,1.3,15.48,15.48,0,0,0,9.451-3.389,13.159,13.159,0,0,0,4.318-6.054c.708-2.484-.481-5.2-.648-7.687a89.537,89.537,0,0,1,.19-9.723c.1-2.34-.523-6.9,1.183-8.688,1.4-1.467,4.2-1.844,5.841-3.2a8.915,8.915,0,0,0,3.1-5.643,23.3,23.3,0,0,0-3.947-16.649,31.012,31.012,0,0,0-13.524-10.783,29.658,29.658,0,0,0-16.784-2.247C1115.735,363.118,1107.733,365.226,1107.209,370.927Z" transform="translate(-1102.342 -348.57)"/><path class="f" d="M1117.306,363.331q-2.984,1.6-6.085,2.971c5.61.7,11.223-.9,16.651-2.478a72.266,72.266,0,0,0,8.344-2.451c1.14-.492,3.585-2.385,4.052-.113.4,1.958-.057,4.148-.124,6.128-.085,2.532-.2,5.065-.3,7.6a11.044,11.044,0,0,0,.212,3.313c.251.924,1.736,3.478,3.012,2.469.467-.37.458-1.762.613-2.31a8.174,8.174,0,0,1,1.131-2.526,4.248,4.248,0,0,1,4.17-1.917,4.314,4.314,0,0,1,2.977,3.309,13.174,13.174,0,0,1,.317,4.744,25.01,25.01,0,0,0,6.055-11.4,13.881,13.881,0,0,0-.174-8.322c-1.105-2.794-3.486-4.892-6.02-6.507-.533-4.983-2.1-9.61-6.423-12.535-9.671-6.541-22.77-5.783-32.909-.587a24.664,24.664,0,0,0-5.205,3.459,36.006,36.006,0,0,0-5.3,6.429c-1.387,1.985-2.8,4.069-3.162,6.463a14.274,14.274,0,0,0,1.3,7.746c.578,1.05,2.988,2.438,2.962,3.7.045-1.836-.017-3.678.095-5.514.15-2.459.254-2.518,2.7-2.482l-.55,4.453c2.081-1.418,4.051-3.742,6.629-4.174,1.9-.319,4.188.346,6.153.286,2.892-.089,5.791.566,8.709.462a22.328,22.328,0,0,0,8.386-1.839" transform="translate(-1099.041 -338.603)"/></g><path class="k" d="M1205.068,569.163a234.209,234.209,0,0,1-1.517,75.2" transform="translate(-323.838 -197.399)"/><path class="g" d="M588.956,590.236a520.91,520.91,0,0,0,2.061,85.67" transform="translate(-58.291 -206.49)"/><path class="k" d="M1080.2,483.216a80.143,80.143,0,0,0-5.806,17.009" transform="translate(-268.115 -160.317)"/><path class="s" d="M1147.278,293.023l25.584.223-80.443,246.769-24.447-.63Z" transform="translate(-265.343 -78.258)"/><line class="t" x1="62.226" y2="169.221" transform="translate(795.168 230.587)"/><g transform="translate(847.952 112.965)"><path class="u" d="M1163.567,121.333a30.855,30.855,0,0,1,1.925,7.486c.535,3.743-1.283,7.058-1.39,10.694-.214,5.454,5.026,9.731,10.266,7.806,4.278-1.6,8.341-5.882,12.94-4.063,2.887,1.176,5.989,4.17,9.2,1.5a31.719,31.719,0,0,0,3.867-3.658,25.061,25.061,0,0,0,.19-3.082c0-13.277-10.415-24.041-23.262-24.041a22.722,22.722,0,0,0-14.9,5.577A5.06,5.06,0,0,1,1163.567,121.333Z" transform="translate(-1154.035 -113.972)"/><path class="v" d="M1190.155,148.985c-3.208,2.673-6.309-.321-9.2-1.5-4.6-1.818-8.662,2.46-12.94,4.063-5.24,1.925-10.479-2.353-10.266-7.806.107-3.636,1.925-6.951,1.39-10.694a30.855,30.855,0,0,0-1.925-7.486,5.06,5.06,0,0,0-1.167-1.784,24.316,24.316,0,0,0-8.365,18.463c0,13.277,10.415,24.04,23.262,24.04,11.837,0,21.609-9.137,23.072-20.959A31.719,31.719,0,0,1,1190.155,148.985Z" transform="translate(-1147.688 -118.205)"/></g><g transform="translate(684.508 560.996)"><path class="u" d="M870.384,906.708a19.757,19.757,0,0,1,1.233,4.794c.342,2.4-.822,4.52-.89,6.849a4.972,4.972,0,0,0,6.575,5c2.739-1.027,5.342-3.767,8.287-2.6,1.849.753,3.835,2.67,5.89.958a20.343,20.343,0,0,0,2.476-2.343,16.026,16.026,0,0,0,.122-1.974,15.153,15.153,0,0,0-14.9-15.4,14.552,14.552,0,0,0-9.541,3.572A3.241,3.241,0,0,1,870.384,906.708Z" transform="translate(-864.28 -901.994)"/><path class="v" d="M887.412,924.417c-2.055,1.712-4.041-.205-5.89-.959-2.945-1.164-5.547,1.575-8.287,2.6a4.972,4.972,0,0,1-6.575-5c.068-2.329,1.233-4.452.89-6.849a19.757,19.757,0,0,0-1.233-4.794,3.243,3.243,0,0,0-.747-1.142,15.571,15.571,0,0,0-5.357,11.824,14.877,14.877,0,0,0,29.673,1.974A20.347,20.347,0,0,1,887.412,924.417Z" transform="translate(-860.215 -904.704)"/></g></g></svg>