<svg xmlns="http://www.w3.org/2000/svg" xmlns:xlink="http://www.w3.org/1999/xlink" width="574.606" height="493.801" viewBox="0 0 574.606 493.801"><defs><style>.a,.e,.f,.r{fill:none;}.b{fill:url(#a);}.c{fill:url(#b);}.d,.i,.q,.u{fill:#fff;}.d,.e,.o,.p,.q,.r,.t,.u{stroke:#100052;stroke-miterlimit:10;}.d,.e{stroke-width:2.755px;}.f{stroke:#707070;stroke-linecap:round;stroke-linejoin:round;stroke-width:4px;}.g{clip-path:url(#c);}.h{fill:#2a7195;}.j{fill:#bbb7ce;}.k{fill:#bbbdbf;}.l{fill:#57585a;}.m{fill:#929597;}.n{fill:#d0d2d3;}.o{fill:#e28b3d;}.o,.t{stroke-width:1.246px;}.p{fill:#100052;stroke-width:1.583px;}.q,.r{stroke-width:1.326px;}.s{fill:#bbdbf9;}.t{fill:#ffcfc2;}.v{fill:#97bbf5;}.w{fill:url(#d);}.x{fill:url(#e);}</style><linearGradient id="a" x1="0.448" y1="0.184" x2="0.827" y2="1.292" gradientUnits="objectBoundingBox"><stop offset="0" stop-color="#faebd8"/><stop offset="1" stop-color="#ffb83f"/></linearGradient><linearGradient id="b" x1="0" y1="0.5" x2="1" y2="0.5" xlink:href="#a"/><clipPath id="c"><path class="a" d="M1012.364,391.384c0,148.179-107.514,245.942-265.224,233.333-112.152-8.966-274.318-120.123-274.318-268.3S588.926,158.05,747.14,158.05,1012.364,243.205,1012.364,391.384Z" transform="translate(-472.822 -158.05)"/></clipPath><linearGradient id="d" y1="0.5" x2="1" y2="0.5" gradientUnits="objectBoundingBox"><stop offset="0" stop-color="#2a7195"/><stop offset="0.333" stop-color="#296e92"/><stop offset="0.513" stop-color="#26668b"/><stop offset="0.657" stop-color="#21597f"/><stop offset="0.781" stop-color="#1a456d"/><stop offset="0.891" stop-color="#112c57"/><stop offset="0.992" stop-color="#060e3b"/><stop offset="1" stop-color="#060c39"/></linearGradient><linearGradient id="e" y1="0.5" x2="1" y2="0.5" gradientUnits="objectBoundingBox"><stop offset="0" stop-color="#2a7195"/><stop offset="1" stop-color="#060c39"/></linearGradient></defs><g transform="translate(-416.246 -116.17)"><path class="b" d="M910.072,443.279c-51.7-3.041-97.322,22.506-145.983,37.712-9.124,2.433-17.64,4.258-26.764,7.3-9.124,3.65-19.464,3.041-29.2,3.041-4.258.608-7.907,1.825-12.165,2.433-55.352,1.825-107.662-18.856-155.107-49.878-26.093-16.8-48.4-36.963-65.694-60.731-4.921,17.9-7.507,37.823-7.507,59.927,0,148.179,162.166,259.335,274.318,268.3,153.436,12.267,259.355-79.94,264.983-221.4a163.431,163.431,0,0,0-19.636-15.075C962.99,458.486,938.66,445.1,910.072,443.279Z" transform="translate(-19.488 -104.022)"/><path class="c" d="M746.808,155.559C612.195,155.559,508.067,191.892,480,294c17.3,23.767,39.6,43.932,65.694,60.731,47.444,31.021,99.755,51.7,155.107,49.877,4.258-.608,7.907-1.825,12.165-2.433,9.732,0,20.073.608,29.2-3.041,9.124-3.041,17.64-4.866,26.763-7.3,48.661-15.207,94.281-40.754,145.983-37.712,28.588,1.825,52.919,15.207,77.249,31.63a163.435,163.435,0,0,1,19.636,15.075q.235-5.911.241-11.933C1012.032,240.714,905.021,155.559,746.808,155.559Z" transform="translate(-24.322 -14.863)"/><g transform="translate(417.909 117.618)"><path class="d" d="M561.31,332.664l-143.4-6.95,41.395-208.1,147.658,9.035Z" transform="translate(-417.909 -117.618)"/><g transform="translate(14.023 32.432)"><line class="e" x2="56.145" y2="3.843" transform="translate(19.76 48.996)"/><line class="e" x2="56.148" y2="3.651" transform="translate(18.422 55.641)"/><line class="e" x2="56.15" y2="3.491" transform="translate(17.309 61.171)"/><line class="e" x2="56.152" y2="3.3" transform="translate(15.975 67.8)"/><line class="e" x2="56.133" y2="4.779" transform="translate(26.249 16.756)"/><line class="e" x2="56.13" y2="4.942" transform="translate(27.372 11.177)"/><line class="e" x2="56.128" y2="5.105" transform="translate(28.496 5.592)"/><line class="e" x2="56.126" y2="5.268" transform="translate(29.621)"/><line class="e" x2="56.143" y2="4.036" transform="translate(21.099 42.343)"/><line class="e" x2="56.181" y2="1.998" transform="translate(6.6 113.132)"/><line class="e" x2="56.185" y2="1.59" transform="translate(3.726 127.414)"/><line class="e" x2="56.19" y2="1.062" transform="translate(0 145.931)"/><line class="e" x2="56.172" y2="2.814" transform="translate(12.327 84.675)"/><line class="e" x2="56.17" y2="2.972" transform="translate(13.435 79.169)"/><line class="e" x2="56.183" y2="1.777" transform="translate(5.045 120.862)"/></g><path class="f" d="M612.667,187.365l2.433,7.969,32.441-11" transform="translate(-494.203 -143.752)"/><path class="f" d="M600.483,271.234l2.433,7.969,32.441-11" transform="translate(-489.43 -176.607)"/><path class="f" d="M584,367.969l2.433,7.969,32.441-11" transform="translate(-482.973 -214.502)"/></g><g transform="translate(451.311 142.211)"><g class="g" transform="translate(0)"><g transform="translate(116.777 73.62)"><g transform="translate(32.684 92.954)"><path class="h" d="M821.416,753.7c2.009.224,4.22.4,6.262.541,9.652.653,19.95,1.183,29.462,1.137s12.963,1.554,13.151-10.937c.249-16.476-.043-30.807.111-48.329.175-19.862-1.112-40.906.582-62a869.111,869.111,0,0,0,.5-126.389c-1.316-18.967-5.435-48.592-19.279-60.147-9.128-7.619-11.743-8.784-21.329-13.348-11.1-5.286-22.171.3-34.294-1.149-4.568-.547-11.575,2.356-17.4,4.464S744.653,460.491,739.01,477.4a152,152,0,0,0-7.637,34.99c-.86,10.322-3.382,23.8-4.853,33.87-5.735,39.253-3.415,76.886-6.486,113.381-1.246,14.8-3,18.827.911,31.386,3.235,10.378,8.8,18.223,15.648,25.862C759.5,742.451,790.757,750.284,821.416,753.7Z" transform="translate(-718.54 -431.903)"/></g><path class="i" d="M759.4,433.777c-.3-2.22-42.128,16.676-45.889,19.22-14.938,10.1-24.8,23.6-32.327,39.782-6.931,14.9-9.236,31.017-11.026,47.194-1.816,16.419-5.984,33.577-5.273,50.116.75,17.437,10.339,31.3,29.177,27.927L682.046,733.752,753,752.489l12.594-124.75,7.57-92.733Z" transform="translate(-664.806 -339.613)"/><path class="i" d="M904.521,441.649a18.7,18.7,0,0,1,4.547,15.52l-13.893,38.957-1.345,67.321-9.3,196.7,52.5,7.742,4.335-52.9,9.029-110.173c2.657-32.422,4.609-65.085,7.861-97.4,1.149-11.417,3.391-24.623-2.636-35-5.539-9.537-15.174-15.977-24.367-21.391-3.082-1.816-27.852-18.448-30.514-15.064C900.731,435.968,897.7,439.82,904.521,441.649Z" transform="translate(-750.88 -340.364)"/><path class="j" d="M768.289,668.025c.052,1.97.027,3.945-.008,5.789-.082,4.3-1.075,8.84-4.06,11.943-1.628,1.692-3.438,1.937-4.967.082-5.062-6.144-4.124-15.023-5.123-22.921-.335-2.649-1.237-5.3-1.423-7.948-.119-1.693.388-3.323.437-5.016.16-5.49,0-10.869.679-16.347,6.28,4.958,9.639,12.528,11.73,20.057a74.9,74.9,0,0,1,2.27,8.49A48.348,48.348,0,0,1,768.289,668.025Z" transform="translate(-699.233 -417.964)"/><g transform="translate(73.547 74.704)"><path class="k" d="M809.642,624.167c-4.08.937-9.267,1.168-11.181-.377-1.24-.762-2.814-4.223-3.768-9.054-2.054-9.637-2.749-24.437-3.766-36.057l-3.408.3c1.017,11.535,1.685,26.359,3.819,36.467,1.142,5.08,2.381,9.031,5.113,11.127,3.906,2.649,9.491,1.811,13.9.949a52.56,52.56,0,0,0,6.4-1.782l-1.159-3.213a49.825,49.825,0,0,1-5.948,1.643" transform="translate(-786.424 -471.15)"/><path class="l" d="M827.712,648.761c-2.269.67-3.741,2.43-3.3,3.945s2.637,2.2,4.912,1.537,3.743-2.435,3.3-3.945-2.639-2.2-4.909-1.536" transform="translate(-800.845 -498.505)"/><path class="k" d="M867.656,561.082l-3.238,1.113c3.791,11.031,9.152,24.841,11.2,34.477,1.073,4.8,1.051,8.605.233,9.809-1.124,2.182-5.957,4.086-10.074,4.883a53.576,53.576,0,0,1-6.1.91l.255,3.41a54.285,54.285,0,0,0,6.558-.97c4.382-1,9.834-2.505,12.324-6.511,1.641-3.023,1.176-7.133.151-12.239-2.15-10.109-7.554-23.924-11.306-34.881" transform="translate(-814.69 -464.257)"/><path class="l" d="M859.9,641.992c-2.347.314-4.077,1.836-3.87,3.4s2.28,2.571,4.623,2.262,4.072-1.837,3.867-3.4-2.28-2.579-4.619-2.266" transform="translate(-813.256 -495.93)"/><path class="l" d="M805.9,516.553c-15.1,3.348-23.1,21.383-19.2,39.91l4.373-.931h-.006c-1.78-8.418-.8-16.556,2.14-22.8,2.953-6.261,7.73-10.56,13.623-11.809s12,.742,17.239,5.264a36.466,36.466,0,0,1,11.205,19.964l4.375-.923c-3.958-18.512-18.586-31.75-33.745-28.678" transform="translate(-785.72 -446.64)"/><path class="l" d="M813.765,413.264a43.771,43.771,0,0,0-7.66,28.918c.889,11.528,5.708,33.172,5.748,33.28l4.177-1.574h-.008a43.318,43.318,0,0,0-1.395-6.208c-1.1-3.811-3.85-20.472-4.252-25.825a39.412,39.412,0,0,1,6.966-26.245c3.355-5.19,7.508-8.895,10-9.652l-1.35-4.062c-4.215,1.472-8.463,5.707-12.228,11.365" transform="translate(-793.643 -401.899)"/></g><g transform="translate(126.081 73.698)"><path class="l" d="M872.3,401.421s13.017-4.489,21.609,7.073c0,0,14.1,22.1,22.265,100.978l-3.774-.786s-5.085-59.436-17.819-90.255c0,0-6.96-18.758-18.027-13.525l-4.462-4.66" transform="translate(-872.087 -400.246)"/><path class="m" d="M927.584,575.428a13.628,13.628,0,1,0,15.8,11.042,13.627,13.627,0,0,0-15.8-11.042" transform="translate(-889.42 -468.789)"/><path class="n" d="M933.365,586.94a6.563,6.563,0,1,0,7.6,5.317,6.568,6.568,0,0,0-7.6-5.317" transform="translate(-893.967 -473.341)"/></g><path class="o" d="M844.109,614.466l3.724-2.564,2.516-1.62s2.665,2.389,1.7,5.114-5.2,4.109-5.2,4.109l-3.924-4.8Z" transform="translate(-734.581 -408.827)"/><path class="p" d="M991.772,420.238c-2.822-3.219-4.225-7.407-5.561-11.474-4.81-14.641-9.637-29.568-10.752-45.035-.48-6.664-1.062-15.407,1.623-21.668,3.2-7.453,11.024-11.509,16.2-17.249,6.365-7.066,15.052-12.261,23.893-15.7a28,28,0,0,1,10.668-2.319,25.373,25.373,0,0,1,10.02,2.683c10.055,4.69,18.885,14.47,24,24.184,1.457,2.768,2.671,5.655,4.05,8.463,1.527,3.111,3.253,6.119,4.976,9.125,3.827,6.672,6.586,13.411,9.886,20.315,3.541,7.41,6.233,15.349,6.626,23.61.228,4.8-.454,9.954-3.568,13.616-2.149,2.528-5.225,4.07-8.308,5.3a82.346,82.346,0,0,1-24.309,5.181c-4.335.327-8.685.412-13.031.392-3.826-.018-8.932-1.125-12.623-.164-6.041,1.573-10.856,5.25-17.493,5.832C1002.238,425.84,995.821,424.858,991.772,420.238Z" transform="translate(-786.34 -289.938)"/><path class="o" d="M818.779,632.737q.4.568.78,1.143c1.156,1.724,2.233,4.142.864,5.7a3.265,3.265,0,0,1-3.183.821,8.647,8.647,0,0,1-3.03-1.608c-3.753-2.748-6.625-6.334-10.122-9.265a6.023,6.023,0,0,1-7.008,1.1c-1.481,3.292-3.243,1.154-5.553,1.148a17.669,17.669,0,0,0-8.854,2.882,68.95,68.95,0,0,0-7.13,5.091q-8.414,6.578-16.725,13.286c-4.868,3.93-10.037,9.684-15.576,12.433-2.261-4.559-1.641-12.261-2.151-17.351l-1.223-12.184,21.173-11.559a15.13,15.13,0,0,0,3.094-2.237l1.6-1.5a43,43,0,0,1,29.382-11.606,7.723,7.723,0,0,1,5.983,2.837c4.5,5.513,8.327,10.653,13.407,15.648A36.238,36.238,0,0,1,818.779,632.737Z" transform="translate(-694.211 -408.339)"/><path class="q" d="M824.316,634.676l9.162,7.986s5.573,2.088,5.529-3.717l-5.864-5.257" transform="translate(-727.292 -417.996)"/><line class="r" x2="7.999" y2="5.224" transform="translate(90.77 218.507)"/><path class="q" d="M711.018,638.706l22.162-4.13s-3.975,39.035,7.392,53.049c0,0-18.311,10.915-39.529,10.391" transform="translate(-679.001 -418.344)"/><path class="h" d="M1038.429,494.195s12.674,12.5,37.81-9.578l3.737,6.456-41.6,69.223-4.159-6.441-1.171-56.481Z" transform="translate(-809.06 -359.599)"/><path class="i" d="M1085.387,484.433a117.461,117.461,0,0,1,24.658,5.681c6.028,2.026,15.27,3.935,19.91,8.414,8.019,7.74,4.845,28.793,5.544,39.088,1.319,19.425,1.7,39.276-2.157,58.455-3.748,18.656-11.288,36.9-12.369,56.376-.746,13.429-.145,27.194,3.8,40.135,6.239,20.471,19.079,41.267,10.283,63.274l.083,8.588s-80.686,31.322-107.966,22.228c0,0-3.536-75.273-8.083-91.944s-6.526-94.47-6.526-94.47,9.052-40.216,24.712-61.534l16.934-29.861,10.7-18.871c.735-1.3,1.676-4.143,2.87-5.062,3.48-2.674,13.1-.981,17.466-.513Z" transform="translate(-801.036 -359.145)"/><path class="o" d="M882.527,422.953s8.083,24.754-11.367,38.647c0,0-16.448,10.043-26.916-13.544l-2.753-8.684s-2.505-10.932,9.793-15.969q.571-.234,1.185-.45C866.108,418.153,877.98,414.112,882.527,422.953Z" transform="translate(-733.938 -333.397)"/><path class="i" d="M1010.114,502.223a93.277,93.277,0,0,0-23.248,17.6c-10.375,10.743-14.731,25.551-17.074,39.942-2.44,14.989-4.476,29.617-4.594,44.808,0,0-.713,92.45,3.409,146.5v63.148s28.371.5,41.506-2.526l1.876-238.449S1004.867,522.465,1010.114,502.223Z" transform="translate(-782.463 -366.496)"/><path class="s" d="M928.476,709.648l-14.686.492-75.6,2.539-70.724-83.356h84.872l59.585,62.866Z" transform="translate(-705.023 -416.286)"/><path class="r" d="M1017.905,761.112c2.493,21.491,5.183,42.959,6.85,64.525q1.41,18.324,2.811,36.639c.561,7.366,1.243,14.739,1.637,22.112" transform="translate(-803.129 -467.913)"/><path class="r" d="M1013.625,683.372q-.671-8.184-1.015-16.4c-.394-9.033-1.91-19.725-.318-28.72,5.683-32.206,21.6-57.971,21.6-57.971" transform="translate(-800.651 -397.075)"/><path class="p" d="M1045.995,394.9l-8.654,14.065a29.568,29.568,0,0,1-12.322,7.039c-3.342.955-9.435,1.478-12.488-.424a16.012,16.012,0,0,1-3.819-4.191c-5.176-6.986-11.291-14.8-13.246-23.469-1.251-5.532-.477-10.957-3.38-16.087a14.876,14.876,0,0,1-1.016-2.19,20.078,20.078,0,0,1-.743-11.465c4.956-18.831,23.158-28.66,41.868-22.574,8.578,2.789,18.664,10.943,20.407,20.21C1055.065,368.85,1052.255,383.323,1045.995,394.9Z" transform="translate(-792.123 -300.522)"/><path class="p" d="M1045.995,394.9l-8.654,14.065a29.568,29.568,0,0,1-12.322,7.039c-3.342.955-9.435,1.478-12.488-.424a16.012,16.012,0,0,1-3.819-4.191c-5.176-6.986-11.291-14.8-13.246-23.469-1.251-5.532-.477-10.957-3.38-16.087a14.876,14.876,0,0,1-1.016-2.19,20.078,20.078,0,0,1-.743-11.465c4.956-18.831,23.158-28.66,41.868-22.574,8.578,2.789,18.664,10.943,20.407,20.21C1055.065,368.85,1052.255,383.323,1045.995,394.9Z" transform="translate(-792.123 -300.522)"/><path class="t" d="M1074.843,442.5a5.117,5.117,0,0,1-.533,1.5,21.634,21.634,0,0,1-5.039,6.362c-4.558,3.932-10.83,6.3-16.435,8.292l-.038.013a30.74,30.74,0,0,1-6.805,1.91c-2.228.257-7.267.235-7.131-2.865.144-3.22.356-6.456.432-9.684.053-2.016.046-4.032-.06-6.047a51.642,51.642,0,0,0-1.47-9.139c-1.152-4.9-2.569-9.73-2.751-14.929a63.472,63.472,0,0,1,3.766-23.946c2.062-5.66,5.123-11.382,10.192-14.89,4-2.774,8.449-6.1,13.421-3.243,3.8,2.19,5.759,6.684,6.176,11.041s-.454,8.73-1.015,13.079c-.144,1.084-.265,2.167-.364,3.258a93.378,93.378,0,0,0,.34,20.725,32.691,32.691,0,0,0,4.147,12.161C1073.055,438.494,1075.27,440,1074.843,442.5Z" transform="translate(-809.815 -316.557)"/><path class="t" d="M1048.869,387.18a62.159,62.159,0,0,1-3.058,6.885c-.291.561-.609,1.106-.94,1.644l-5.333,8.668a26.2,26.2,0,0,1-13.99,11.275q-.573.189-1.156.354a24.365,24.365,0,0,1-4.948.8c-2.965.194-6.61.2-9.125-1.518a23.709,23.709,0,0,1-6.569-7.3,62.341,62.341,0,0,1-5.133-11.623c-2.521-7.051-4.876-14.22-5.777-21.685-.761-6.3-3.672-12.539-2.361-19.057,1.649-8.2,9.643-15.738,16.94-19.032a33.215,33.215,0,0,1,24.15-.985c8.578,2.789,18.664,10.943,20.407,20.21A59.583,59.583,0,0,1,1048.869,387.18Z" transform="translate(-792.253 -300.521)"/><path class="p" d="M1017.479,327.6c-2.821,2.822-5.811,5.52-8.873,8.291-6.6,5.972-14.688,10.575-23.5,11.831a12.822,12.822,0,0,1-6.064-.29c-8.218-2.9-4.548-15.883-2.443-21.769,2.254-6.3,5.8-12.292,11.458-16.165a49.307,49.307,0,0,1,34.42-8c3.077.453,6.553,1.568,7.689,4.463,1.008,2.57-.281,5.43-1.679,7.811-6.062,10.324-15.3,20.327-23.409,29.118-4.442,4.814-10.081,9.045-16.6,9.654a11.3,11.3,0,0,1-8.052-1.987C978.2,348.8,977,345.608,978.1,343" transform="translate(-785.904 -287.674)"/><path class="p" d="M1068,356.08c1.975-.2,4.12-.667,5.341-2.232,1.295-1.659,1.123-4.047.431-6.035-1.953-5.6-7.188-9.337-12.375-12.216-5.668-3.145-25.977-13.059-29.593-2.894-3.274,9.2,11.572,18.107,18.264,20.781A38.1,38.1,0,0,0,1068,356.08Z" transform="translate(-808.39 -298.338)"/><path class="t" d="M1091.567,377.906c2.285-1.757,5.1-3.289,7.132-1.96,1.9,1.24,2.271,4.487,1.979,7.423a21.029,21.029,0,0,1-4.271,11.129c-2.478,2.985-8.147,2.915-7.793,2.754" transform="translate(-830.822 -316.832)"/><path class="t" d="M821.965,701.945s-4.662-.936-5.439,1.612a3.485,3.485,0,0,0,2.719,4.229h7.382S831.677,704.68,821.965,701.945Z" transform="translate(-724.212 -444.669)"/><path class="t" d="M843.406,726.2l-.012.015c-1.309,1.745.442,4.007,2.806,3.634a20.649,20.649,0,0,0,10.279-4.479s2.76-2.118-2.14-3.578A21.058,21.058,0,0,1,843.406,726.2Z" transform="translate(-734.591 -452.509)"/><path class="t" d="M830.963,720.108s-1.471,3.013.839,4.571a4.1,4.1,0,0,0,2.951.555c2.816-.481,10.589-2.032,15.938-5.251,0,0,4.166-3.532-5.753-3.364C844.938,716.619,841.1,719.121,830.963,720.108Z" transform="translate(-729.715 -450.481)"/><path class="t" d="M842.731,710.609c-4.235-.139-13.436-.28-20.379.748a1.432,1.432,0,0,0-.788.38,3.36,3.36,0,0,0-1.138,3.246,3.925,3.925,0,0,0,4.313,2.412c4.454-.5,14.975-1.936,18.851-4.7C844.552,712.01,843.976,710.65,842.731,710.609Z" transform="translate(-725.729 -448.091)"/><line class="q" x2="24.917" transform="translate(108.253 227.182)"/><path class="r" d="M878.335,666.575H857.043l18.26,5.846-14.479,2.6" transform="translate(-740.113 -430.879)"/><g transform="translate(69.699)"><path class="o" d="M847.166,321.484c8.727,5.66,12.362,15.924,14.43,25.634,2.06,9.669,5.177,21.272,4.229,31.065-1.147,11.859-8.069,25.36-19.826,29.731-14.548,5.407-27.488-7.575-36.2-17.575-4.427-5.081-5.885-10.583-8.854-16.537-5.5-11.036-9.933-24.049-5.05-36.136C802.84,320.485,831.616,311.4,847.166,321.484Z" transform="translate(-785.035 -294.046)"/><path class="o" d="M801.745,392.809a5.069,5.069,0,0,0-3.6-2.531,3.646,3.646,0,0,0-2.355.35c-1.932,1.091-1.922,3.864-1.414,6.024a29.562,29.562,0,0,0,4.643,10.286,5.925,5.925,0,0,0,2.541,2.308,2.348,2.348,0,0,0,2.98-1.013" transform="translate(-785.151 -322.621)"/><path class="o" d="M900.683,366.838a5.746,5.746,0,0,1,2.167-4.489,4.137,4.137,0,0,1,2.525-.951c2.515.016,4.64,2.415,5.327,4.835a33.5,33.5,0,0,1,1.073,12.747,6.719,6.719,0,0,1-1.245,3.686,3.07,3.07,0,0,1-3.847.458" transform="translate(-826.907 -311.33)"/><path class="p" d="M889.075,335.353c.62-1.819,1.374-3.52,2.145-5.428.73-1.8.614-3.915.715-5.863a72.516,72.516,0,0,0-.338-12.435c-.98-8.107-3.873-17.08-11.542-21.189a19.764,19.764,0,0,0-7.035-2.133S856,287.37,862.226,306.729c5.224,7.429,11.508,15.806,19.657,20.081,2.063,1.082,2.978,3.564,3.229,5.88s.022,4.7.613,6.951a1.469,1.469,0,0,0,.428.811,1.083,1.083,0,0,0,1.414-.251,3.064,3.064,0,0,0,.578-1.455A27.432,27.432,0,0,1,889.075,335.353Z" transform="translate(-811.305 -282.693)"/><path class="p" d="M819.185,318.235c-1.239.671-2.484,1.308-3.723,1.914-7.744,3.791-20.02,1.709-23.344,11.755a20.47,20.47,0,0,0-.638,7.858c.117,1.693.3,3.381.374,5.077.053,1.267-.124,2.087-1.6,1.424-1.852-.83-2.682-3.319-3.394-5.049-5.5-13.362-11.983-28.105-3.033-41.663,6.991-10.592,21.238-18.055,33.6-19.582,5.067-.625,12.635-1.667,17.642.078,12.456,4.337,4.847,19.182,4.847,19.182-3,5.859-7.816,10.558-13.139,14.331a71.132,71.132,0,0,1-7.781,4.994c-3.142,1.648-5.73,2.668-7.985,5.629a41.1,41.1,0,0,0-4.777,9.1,15.244,15.244,0,0,1,2.281-11.065,20.814,20.814,0,0,0-10.617,10.211,11.634,11.634,0,0,1,.9-8.252" transform="translate(-779.393 -279.084)"/></g><path class="r" d="M988.039,528.345s-21.154,8.643-24.246,88.107" transform="translate(-781.931 -376.729)"/><g transform="translate(162.904 144.503)"><path class="t" d="M1132.508,545.1a13.662,13.662,0,0,0-.252-2.227c-2.667-10.537-5.247-21.1-16.477-25.07-9.452-3.346-20.536.828-25.174,9.458-4.417,8.216-1.573,14.806-1.286,23.925.448,14.235,3.856,28.984,6.114,43.644,1.131,7.342,3.511,16.7,3.96,24.247.334,5.629,1.527,10.326-3.967,13.6-7.123,4.244-15.819,3.019-24.23,3.723-18.753,1.571-39.111,2.934-57.743,2.761-6.608-.061-11.4-.048-15.284,4.884-3.259,4.134-3.072,8.918,2.079,11.873,7.993,4.586,19.248,5.227,28.725,6.47,13.9,1.824,29.529,4.238,43.089,5.505,13.157,1.229,23.759-.074,36.244-2.181,2.8-.472,5.047-.7,7.36-2.533,5.955-4.712,8.713-10.777,11.181-18.075a134.545,134.545,0,0,0,6.569-27.766,261.633,261.633,0,0,0,.848-46.827C1133.677,561.973,1133.233,553.522,1132.508,545.1Z" transform="translate(-957.451 -516.652)"/><path class="t" d="M1001.96,732.345c-7.692-1.237-14.891-2.5-22.551-4.474-4.687-1.2-10.806-2.129-13.039-7.037-1.432-3.146-1.209-6.227-.951-9.372.15-1.814,1.409-2.283,2.341-3.645a25.81,25.81,0,0,1,2.931-4.063,12.731,12.731,0,0,1,4.837-2.662,6.565,6.565,0,0,1,2.327-.463,7.239,7.239,0,0,1,2.569.606,48.3,48.3,0,0,1,10.934,6.5,11.451,11.451,0,0,0,4.864,2.544,33.172,33.172,0,0,0,6.7.58" transform="translate(-945.397 -588.722)"/><path class="t" d="M961.73,727.478a50.926,50.926,0,0,1-11.454-5.04c-1.614-1-4.935-3.273-5.367.109-.15,1.175,1.15,2.237,2.074,2.967,3.4,2.682,7.47,4.2,11.363,5.991a31.452,31.452,0,0,0,6.524,2.381" transform="translate(-937.433 -596.608)"/><path class="t" d="M959.247,715.409a61.9,61.9,0,0,1-16.134-5.7,16.181,16.181,0,0,1-3.717-3.033c-.847-.832-1.987-1.949-2.732-.413s.235,3.474,1.394,4.578c5.274,5.032,11.135,7.63,17.972,9.825a19.057,19.057,0,0,0,2.571.574.249.249,0,0,0,.232-.052.091.091,0,0,0-.069-.158" transform="translate(-934.105 -590.629)"/><path class="t" d="M955.412,704.757c-2.945-1.051-5.873-2.051-8.822-3.114a13.419,13.419,0,0,1-2.647-1.156,13.954,13.954,0,0,1-2.345-1.909,28.556,28.556,0,0,0-5.43-4.586,3.853,3.853,0,0,0-2.422-.686,1.3,1.3,0,0,0-1.12,1.426c.055,1.648,1.36,2.7,2.37,3.806,1.252,1.377,2.533,2.8,3.765,4.068a21.5,21.5,0,0,0,3.755,3.25,14.451,14.451,0,0,0,2.686,1.274c1.852.726,3.784,1.342,5.626,1.984a31.046,31.046,0,0,0,4.665,1.055.452.452,0,0,0,.29-.012.141.141,0,0,0,.045-.227" transform="translate(-932.625 -585.841)"/><path class="t" d="M959.557,703.895a32.178,32.178,0,0,1-8.693-3.044,36.843,36.843,0,0,1-6.089-4.108c-.964-.835-1.724-1.695-2.693-2.577s-3.89-3.642-1.746-4.64,4.2,1.5,5.877,2.5a33.093,33.093,0,0,0,8.589,4.115c3.229.871,6.772.716,10.129.947.29.019.575-.05.65-.355" transform="translate(-935.345 -584.282)"/><path class="t" d="M993.457,703.431c-2.4-2.658-4.443-5.639-6.932-8.206a62.232,62.232,0,0,0-5.415-4.4,64.4,64.4,0,0,1-5.7-4.895c-.854-.873-2.777-2.754-4.367-2.143-.682.262-.788.91-.778,1.562a9.416,9.416,0,0,0,2.605,6.509c.608.673,2.038.917,1.773,2.019s-1.845.9-2.654.872c-2.816-.1-5.434-.544-8.2-.767" transform="translate(-944.835 -582.077)"/></g><path class="u" d="M1109.464,572.036c-.029,15.5,2.3,32.215.241,47.429-.172,1.273-.468,2.7-1.549,3.389a4.518,4.518,0,0,1-1.788.539,181.511,181.511,0,0,1-42.619,1.454c-2.3-.193-4.737-.4-6.788.648a9.436,9.436,0,0,0-3.685,3.97c-3.609,6.454-3.632,14.246-3.318,21.633a14.5,14.5,0,0,0,1.228,6.252c1.943,3.663,6.453,5,10.524,5.789,17.959,3.49,38.957,5.718,57.2,4.138,7.9-.684,23.643-2.293,29.211-8.558,3.064-3.449,4.526-8,5.788-12.439a257.314,257.314,0,0,0,9.463-82.338c-.531-11.2-2.783-21.871-4.565-32.916-1.569-9.72-4.578-19.734-13.5-25.154a27.428,27.428,0,0,0-11.037-3.477c-7.586-.906-15.905,1.749-21.042,7.539-6.26,7.058-3.678,16.3-3.7,25.033Z" transform="translate(-815.637 -366.496)"/><path class="r" d="M1090.144,644.434,1059,641.366v33.068" transform="translate(-819.228 -421.004)"/><path class="q" d="M772.881,625" transform="translate(-707.143 -414.592)"/><path class="i" d="M1135.656,504.289c-5.643,4.221-6.52,10.493-7.1,16.271l-1.322,13.108c-1.3,12.931-2.441,26.531,5.46,38.244,2,2.96,5.363,6.076,10.022,6.054,5.929-.028,9.048-4.848,10.716-8.848l11.985-28.732c4.08-9.78,11.35-24.928,4.108-34.841C1163.637,497.484,1143.482,498.435,1135.656,504.289Z" transform="translate(-845.592 -365.507)"/><path class="p" d="M1084.29,393.276c1.445-.672,2.261-2.2,2.931-3.647a29.732,29.732,0,0,0,2.873-9.135c.387-3.533-.319-7.7-2.968-10.285-2.2-2.144-5.024-1.675-5.774,1.587-.7,3.068,2.109,7.008,2.747,10.056C1084.393,383.252,1085.927,392.514,1084.29,393.276Z" transform="translate(-827.939 -314.269)"/><rect class="v" width="27.311" height="8.753" transform="translate(246.954 195.946)"/></g></g></g><g transform="translate(883.801 175.455)"><path class="w" d="M1198.007,219.69a29.314,29.314,0,0,1,1.827,7.1c.507,3.552-1.218,6.7-1.319,10.149-.2,5.176,4.77,9.236,9.743,7.409,4.059-1.522,7.916-5.582,12.28-3.857,2.74,1.117,5.684,3.959,8.729,1.421a30.107,30.107,0,0,0,3.67-3.472,23.774,23.774,0,0,0,.18-2.925c0-12.6-9.884-22.816-22.078-22.816A21.559,21.559,0,0,0,1196.9,218,4.805,4.805,0,0,1,1198.007,219.69Z" transform="translate(-1188.962 -212.704)"/><path class="x" d="M1224.154,245.326c-3.045,2.538-5.988-.3-8.729-1.421-4.364-1.725-8.221,2.335-12.28,3.857-4.973,1.827-9.946-2.233-9.743-7.409.1-3.451,1.827-6.6,1.319-10.149a29.319,29.319,0,0,0-1.827-7.1,4.807,4.807,0,0,0-1.107-1.692,23.073,23.073,0,0,0-7.938,17.522c0,12.6,9.884,22.817,22.077,22.817,11.234,0,20.508-8.672,21.9-19.892A30.1,30.1,0,0,1,1224.154,245.326Z" transform="translate(-1183.849 -216.113)"/></g><g transform="translate(500.175 480.317)"><path class="w" d="M562.223,718.379a18.76,18.76,0,0,1,1.17,4.55c.325,2.275-.78,4.29-.845,6.5a4.718,4.718,0,0,0,6.24,4.745c2.6-.975,5.07-3.575,7.865-2.47,1.755.715,3.64,2.535,5.59.91a19.337,19.337,0,0,0,2.35-2.223,15.223,15.223,0,0,0,.115-1.873,14.381,14.381,0,0,0-14.138-14.612,13.811,13.811,0,0,0-9.055,3.39A3.081,3.081,0,0,1,562.223,718.379Z" transform="translate(-556.43 -713.905)"/><path class="x" d="M578.968,734.8c-1.95,1.625-3.835-.195-5.59-.91-2.795-1.1-5.264,1.5-7.865,2.47a4.719,4.719,0,0,1-6.24-4.745c.065-2.21,1.17-4.225.845-6.5a18.758,18.758,0,0,0-1.17-4.55,3.08,3.08,0,0,0-.709-1.084,14.78,14.78,0,0,0-5.084,11.222,14.119,14.119,0,0,0,28.163,1.873A19.348,19.348,0,0,1,578.968,734.8Z" transform="translate(-553.156 -716.088)"/></g></g></svg>