<svg xmlns="http://www.w3.org/2000/svg" xmlns:xlink="http://www.w3.org/1999/xlink" width="631.323" height="509.468" viewBox="0 0 631.323 509.468"><defs><style>.a,.ag,.q{fill:none;}.b{fill:url(#a);}.c{fill:url(#b);}.d{clip-path:url(#c);}.e{fill:#fff;}.f,.l,.m{fill:#e28b3d;}.ab,.ae,.f,.k,.m,.n,.t,.x{stroke:#100052;}.ab,.ae,.ag,.f,.k,.m,.n,.p,.q,.t,.x,.z{stroke-miterlimit:10;}.ae,.f,.t{stroke-width:1.107px;}.g{fill:#2a7195;}.h{fill:#97bbf5;}.i{fill:#57a9b1;}.j{fill:url(#d);}.ab,.k,.n,.o{fill:#100052;}.k{stroke-width:2.174px;}.m{stroke-width:1.412px;}.n{stroke-width:1.794px;}.p{fill:#d2e7f9;stroke-width:0.15px;}.p,.q{stroke:#bbdbf9;}.q{stroke-width:2.214px;}.r{fill:url(#e);}.s{clip-path:url(#f);}.t{fill:#c97e5d;}.u{fill:#feca84;}.v{clip-path:url(#g);}.w{fill:url(#h);}.ae,.x{fill:#f9c3a5;}.x{stroke-width:1.166px;}.y{fill:#f3a285;opacity:0.45;}.z{fill:#f6aacb;stroke:#f6aacb;stroke-width:0.189px;}.aa{fill:#d44747;opacity:0.3;}.ab{stroke-width:1.89px;}.ac{clip-path:url(#i);}.ad{fill:#4d94b7;}.af{fill:#4fa5ad;}.ag{stroke:#d9685b;stroke-width:1.77px;}.ah{fill:url(#k);}.ai{fill:url(#l);}.aj{fill:url(#n);}</style><linearGradient id="a" x1="0.546" y1="0.681" x2="0.834" y2="1.943" gradientUnits="objectBoundingBox"><stop offset="0" stop-color="#ff9077"/><stop offset="1" stop-color="#e9645a"/></linearGradient><linearGradient id="b" x1="0" y1="0.5" x2="1" y2="0.5" xlink:href="#a"/><clipPath id="c"><path class="a" d="M624.354,349.588a262.333,262.333,0,0,0-48.781,174.759c1.791,21.115,6.295,42.326,16.411,60.946,16.766,30.856,47.026,51.617,76.181,71.192,12.68,8.514,25.518,17.109,39.863,22.357,17.852,6.531,37.173,7.572,56.162,8.422,55.141,2.467,111.333,3.758,164.477-11.154,14.186-3.981,28.188-9.163,40.51-17.24,26.032-17.063,42.25-45.3,56.65-72.893,16.888-32.36,32.736-65.635,41.271-101.125s9.386-73.642-3.347-107.851c-6.138-16.492-15.267-31.708-25.13-46.282-11.655-17.222-24.713-33.989-41.879-45.726-16.727-11.438-36.482-17.508-56.092-22.614C823.173,231.795,700.229,245.312,624.354,349.588Z" transform="translate(-574.673 -248.02)"/></clipPath><linearGradient id="d" y1="0.5" x2="1" y2="0.5" gradientUnits="objectBoundingBox"><stop offset="0" stop-color="#4fa5ad"/><stop offset="1" stop-color="#99cbcf"/></linearGradient><linearGradient id="e" y1="0.5" x2="1" y2="0.5" gradientUnits="objectBoundingBox"><stop offset="0" stop-color="#2a7195"/><stop offset="1" stop-color="#99cbcf"/></linearGradient><clipPath id="f"><circle class="a" cx="102.587" cy="102.587" r="102.587" transform="translate(0 145.08) rotate(-45)"/></clipPath><clipPath id="g"><circle class="a" cx="47.722" cy="47.722" r="47.722" transform="translate(0 67.489) rotate(-45)"/></clipPath><linearGradient id="h" y1="0.5" x2="1" y2="0.5" gradientUnits="objectBoundingBox"><stop offset="0" stop-color="#faebd8"/><stop offset="1" stop-color="#ffb83f"/></linearGradient><clipPath id="i"><circle class="a" cx="103.079" cy="103.079" r="103.079"/></clipPath><linearGradient id="k" x1="0.538" y1="0.354" x2="0.334" y2="1.011" xlink:href="#h"/><linearGradient id="l" x1="0.487" y1="0.494" x2="0.359" y2="1.008" xlink:href="#h"/><linearGradient id="n" x1="0.487" y1="0.494" x2="0.359" y2="1.008" xlink:href="#h"/></defs><g transform="translate(-419.864 -143.204)"><path class="b" d="M700.407,669.772c-12.414,8.966-24.8,17.372-37.279,25.192,11.575,9.324,24.038,17.777,36.309,26.017,12.681,8.514,25.519,17.11,39.863,22.357,17.852,6.531,37.173,7.572,56.163,8.422,48.246,2.159,97.269,3.54,144.825-6.376,37.779-7.878,60.029-27.462,88.647-52.095,57.773-49.727,90.763-128.312,82.393-204.454-1.42-12.922-3.969-25.876-9.517-37.632a156.635,156.635,0,0,0-8.823-15.892q-3.259.8-6.5,1.762C937.693,480.992,828.882,578.659,700.407,669.772Z" transform="translate(-83.807 -100.635)"/><path class="c" d="M997.962,284.949c-16.727-11.438-36.482-17.507-56.093-22.613-117.477-30.584-240.421-17.068-316.3,87.209A262.331,262.331,0,0,0,576.792,524.3c1.791,21.115,6.294,42.326,16.411,60.945,9.709,17.869,23.947,32.348,39.871,45.176,12.479-7.82,24.865-16.227,37.279-25.192,128.475-91.113,237.286-188.78,386.082-232.7q3.237-.971,6.5-1.762c-8.127-13.049-17.488-25.439-24.237-39.063A125.269,125.269,0,0,0,997.962,284.949Z" transform="translate(-53.753 -36.096)"/><g transform="translate(521.339 211.91)"><g class="d" transform="translate(0)"><g transform="translate(139.141 62.981)"><g transform="translate(0 157.4)"><path class="e" d="M853.218,584.23s-36.511,4.337-44.527,37.138-39.543,116.158-8.015,135c0,0,33.4-44.75,46.088-80.819S853.218,584.23,853.218,584.23Z" transform="translate(-786.944 -584.23)"/></g><g transform="translate(183.647 174.684)"><path class="e" d="M1073.866,610.822S1110.6,606.2,1118.618,639s33.642,106.051,2.115,124.889c0,0-35.646-43.192-48.336-79.261S1073.866,610.822,1073.866,610.822Z" transform="translate(-1067.113 -610.599)"/></g><g transform="translate(70.986 96.482)"><path class="f" d="M927.64,505.7s-.893,27.614-4.427,39.984L895.239,565.2l105.3,15.758-25.112-34.7s-7.583-37.024-3.607-50.721S927.64,505.7,927.64,505.7Z" transform="translate(-895.239 -491.295)"/></g><g transform="translate(38.446 150.863)"><path class="g" d="M1014.089,861.133C932.776,875.159,845.6,863.8,845.6,863.8l8.1-164.323c-.215-2.379-.374-4.822-.441-7.32-.094-3.286-.027-7.174.174-11.5,1.63-34.478,12.05-96.529,20-99.867,0,0,11.809-4.383,32.688-6.533,0,.413,12.117,18.128,26.491,20.1,8.936-3.527,15.95-6.546,25.728-19.53,5.73.667,11.756,1.5,18.154,2.711.468.081.949.174,1.43.267a197.037,197.037,0,0,1,22.469,5.771s10.326,4.007,8.042,76Z" transform="translate(-845.597 -574.258)"/></g><g transform="translate(14.796 150.616)"><path class="e" d="M833.167,735.014,828.625,979.7s36.657,9.479,68.173,11.482l8.159-299.11-2.26-20.393-5.326-48.055c-1.594-14.384-2.794-28.872-4.881-43.144A9,9,0,0,0,891,576.011a6.018,6.018,0,0,0-3.622-1.972c-2.214-.414-4.256.086-6.425.36-17.859,2.257-37.106,7.239-51.3,18.807-13.769,11.221-20.131,49.474-20.131,49.474l31.732,33.334Z" transform="translate(-809.516 -573.881)"/></g><g transform="translate(141.693 150.631)"><path class="e" d="M1073.368,735.022l4.545,244.681s-36.659,9.479-68.175,11.482l-6.63-290.191.117-1.328,2.831-32.182,4.244-48.246,1.656-18.83c.179-2.037.347-4.075.538-6.112.529-5.682-.737-10.665,1.842-16.2a7.652,7.652,0,0,1,2.227-3.047c2.539-1.865,6.257-.975,9.189-.612,17.763,2.2,36.985,7.387,51.136,18.776,21.754,17.51,26.122,60.606,26.122,60.606l-37.724,22.2Z" transform="translate(-1003.108 -573.903)"/></g><rect class="h" width="24.481" height="7.846" transform="translate(161.287 208.186)"/><g transform="translate(48.92 141.231)"><circle class="i" cx="14.481" cy="14.481" r="14.481" transform="matrix(0.889, -0.458, 0.458, 0.889, 95.785, 84.302)"/><circle class="j" cx="14.481" cy="14.481" r="14.481" transform="matrix(0.894, -0.449, 0.449, 0.894, 94.332, 84.483)"/><circle class="k" cx="9.059" cy="9.059" r="9.059" transform="translate(101.612 86.889) rotate(-26.624)"/><path class="k" d="M1030.382,651.032c.346-1.345,8.388-33.257,1.649-60.611-2.838-11.52-6.236-20.106-10.1-25.521-3.068-4.3-4.836-4.933-5.9-5.237s-.066,4.223-.066,4.223,5.935,2.63,12.067,27.519c6.488,26.332-1.557,58.285-1.638,58.605Z" transform="translate(-914.621 -559.593)"/><path class="k" d="M905.741,648.333c.018-.432,1.786-43.373,5.254-60.128a37.761,37.761,0,0,1,8.51-17.368,39.421,39.421,0,0,1,6.412-5.85L927,559.564c-.522.3-16.34,9.992-20.028,27.806-3.537,17.086-5.264,59.019-5.336,60.8Z" transform="translate(-875.376 -559.564)"/><path class="k" d="M907.765,766.439l4.1-.281-3.956-57.885a17.649,17.649,0,0,0-9.406-14.482,17.863,17.863,0,0,0-17.419.448l-2.037,1.217a17.7,17.7,0,0,0-8.449,12.577l-9.025,59.362,4.064.617,9.024-59.362a13.608,13.608,0,0,1,6.494-9.665l2.036-1.217a13.728,13.728,0,0,1,13.387-.345,13.568,13.568,0,0,1,7.229,11.131Z" transform="translate(-861.575 -605.101)"/></g><g transform="translate(12.94 264.522)"><path class="f" d="M807.477,812.665c36.9,9.937,57.657-15.738,144-51.237l-2.617-13.774s-99.266,1.153-116.665,10.575C809.576,770.477,804.446,811.85,807.477,812.665Z" transform="translate(-806.685 -747.654)"/></g><g transform="translate(48.062 255.034)"><path class="f" d="M897.948,733.249s-37.282-2.116-37.681,16.9l34.468-1.563Z" transform="translate(-860.267 -733.179)"/></g><g transform="translate(162.096 262.834)"><path class="f" d="M1056.369,745.808c14.067-2.1,29.5-.191,32.762,12.855,2.672,10.681-11.828,8.38-17.871,7.1a121.611,121.611,0,0,1-14.991-4.358c-6.4-2.246-12.9-2.554-19.343-4.733-1.343-.454-2.937-1.429-2.659-2.819.17-.85,1-1.382,1.758-1.8C1040.641,749.551,1048.28,747.016,1056.369,745.808Z" transform="translate(-1034.235 -745.08)"/></g><g transform="translate(70.986 255.104)"><path class="f" d="M1061.52,806.157s-76.591-8.315-166.281-64.9L910,733.286s117.632,12.772,132.372,23.847C1065.5,774.512,1078.864,802.11,1061.52,806.157Z" transform="translate(-895.239 -733.286)"/></g><path class="l" d="M904.043,734.013a25.959,25.959,0,0,0-5.632.6c-4.9.836-10.191,1.4-13.979,4.619-1.288,1.1-2.394,2.92-1.578,4.4a4.228,4.228,0,0,0,2.277,1.63,45.1,45.1,0,0,0,17.623,3.256,9.023,9.023,0,0,0,3.3-.516,6.788,6.788,0,0,0,3.711-5.048,20.063,20.063,0,0,0-.119-6.5c-.073-.547-1.916-1.469-2.414-1.7A8.522,8.522,0,0,0,904.043,734.013Z" transform="translate(-819.89 -478.428)"/><g transform="translate(74.231)"><path class="m" d="M980.158,397.138c8.883,9.088,10.461,22.3,10.32,34.427-.141,12.077.46,26.744-3.3,38.162-4.55,13.827-16.425,28.061-31.612,30.114-18.792,2.541-30.73-16.407-38.428-30.664-3.912-7.245-4.173-14.193-6.113-22.087-3.6-14.632-5.385-31.331,3.679-44.427C927.593,384.05,964.33,380.947,980.158,397.138Z" transform="translate(-902.912 -358.761)"/><path class="m" d="M912.57,459.452a6.2,6.2,0,0,0-3.608-3.981,4.456,4.456,0,0,0-2.9-.215c-2.6.783-3.329,4.09-3.3,6.8a36.112,36.112,0,0,0,2.773,13.507,7.239,7.239,0,0,0,2.41,3.433,2.869,2.869,0,0,0,3.825-.408" transform="translate(-901.074 -382.344)"/><path class="m" d="M1027.714,455.662a7.024,7.024,0,0,1,3.788-4.769,5.055,5.055,0,0,1,3.265-.456c2.994.694,4.883,4.124,5.052,7.193a40.929,40.929,0,0,1-2.143,15.481,8.207,8.207,0,0,1-2.473,4.059,3.752,3.752,0,0,1-4.71-.486" transform="translate(-944.123 -380.701)"/><path class="n" d="M1023.272,422.883c1.228-2,2.583-3.827,4.013-5.894,1.354-1.955,1.783-4.5,2.425-6.8a88.6,88.6,0,0,0,2.936-14.912c1.007-9.926-.032-21.4-8.07-28.354a24.156,24.156,0,0,0-7.813-4.431s-20.038-5.682-17.811,19.064c4.233,10.258,9.474,21.928,18.04,29.211,2.169,1.844,2.593,5.047,2.27,7.875s-1.234,5.6-1.135,8.45a1.8,1.8,0,0,0,.292,1.082,1.322,1.322,0,0,0,1.752.081,3.753,3.753,0,0,0,1.08-1.579A33.478,33.478,0,0,1,1023.272,422.883Z" transform="translate(-934.154 -350.246)"/><path class="n" d="M947.665,390.446c-1.657.467-3.311.892-4.95,1.283-10.249,2.439-24.321-3.337-30.98,7.744a25.02,25.02,0,0,0-2.87,9.195c-.314,2.049-.545,4.111-.916,6.15-.277,1.525-.709,2.455-2.293,1.268-1.984-1.487-2.3-4.676-2.69-6.93-2.972-17.4-6.739-36.715,7.568-50.472,11.177-10.749,30.161-15.819,45.3-14.323,6.207.615,15.508,1.4,21.008,4.829,13.682,8.513.628,24.165.628,24.165-5.151,6.177-12.15,10.485-19.508,13.555a87.022,87.022,0,0,1-10.616,3.864c-4.187,1.122-7.545,1.641-11.028,4.565-3.214,2.7-5.694,6.152-8.137,9.565a18.627,18.627,0,0,1,5.689-12.577,25.439,25.439,0,0,0-15.4,9.321,14.213,14.213,0,0,1,3.282-9.594" transform="translate(-900.189 -344.104)"/><path class="o" d="M916.7,424.351c-.9,2.984-.71,6.171-.515,9.281q.535,8.574,1.071,17.148c.047.748,0,1.673-.679,2a1.385,1.385,0,0,1-1.717-.907,6.466,6.466,0,0,1-.214-2.157c-.153-4.03-3.6-7.05-5.412-10.654-2.225-4.433-1.869-9.88.213-14.382,1.558-3.369,4.193-6.411,7.7-7.623,1.66-.573,6.706-.966,4.121,1.422C919.246,420.355,917.56,421.5,916.7,424.351Z" transform="translate(-902.784 -369.088)"/></g></g></g></g><path class="p" d="M918.02,467.177s46.581,17.334,74.151-2.619c0,0,10.43,51.128-34.8,62.737C957.376,529.109,912.216,520.867,918.02,467.177Z" transform="translate(-171.444 -110.711)"/><path class="q" d="M1029.505,462.713l1.295-4.959a10.262,10.262,0,0,1,1.454-3.74,5.294,5.294,0,0,1,4.036-2.589" transform="translate(-210.029 -106.186)"/><path class="q" d="M916.6,467.3c.149-2.144-.732-4.21-1.594-6.179a12.274,12.274,0,0,0-2.04-3.529,4.157,4.157,0,0,0-3.648-1.447" transform="translate(-168.622 -107.794)"/><g transform="translate(419.864 214.422)"><circle class="r" cx="102.587" cy="102.587" r="102.587" transform="translate(0 145.08) rotate(-45)"/><g transform="translate(0)"><g class="s" transform="translate(0)"><g transform="translate(54.76 75.258)"><g transform="translate(0 17.329)"><g transform="translate(49.655)"><path class="t" d="M657.2,528.308l-35.78,11.676L587.66,527.176s15.591-5.971,15.984-6.1c.382-1.1,1.144-4.389,1.12-13.282,0-1.132-.011-2.379-.046-3.707h33.4c-.035,1.548-.046,2.957-.046,4.239.011,8.5.75,11.676,1.12,12.751C639.586,521.2,657.2,528.308,657.2,528.308Z" transform="translate(-582.087 -431.338)"/><g transform="translate(63.399 39.141)"><path class="t" d="M681.088,453.431s5.37-2.275,8.536,1.923-3.112,17.814-13.746,13.373" transform="translate(-675.878 -452.815)"/><path class="t" d="M681.088,453.431s5.37-2.275,8.536,1.923-3.112,17.814-13.746,13.373" transform="translate(-675.878 -452.815)"/></g><g transform="translate(0 39.103)"><path class="t" d="M589.07,453.8s-5.072-2.879-8.7.925,1.037,18.055,12.111,14.87" transform="translate(-579.157 -452.756)"/><path class="t" d="M589.07,453.8s-5.072-2.879-8.7.925,1.037,18.055,12.111,14.87" transform="translate(-579.157 -452.756)"/></g><path class="t" d="M652.358,410.538c-4.816-20.508-29.674-17.246-29.674-17.246s-24.859-3.262-29.675,17.246c0,0-2.575,23.775,1.154,36.515S607.3,476.1,622.683,476.1s24.547-17.278,28.276-30.018S652.358,410.538,652.358,410.538Z" transform="translate(-583.631 -393.102)"/></g><g transform="translate(24.059 92.441)"><path class="u" d="M655.07,602.041c5-23.95,13.82-56.473,13.82-56.473l-38.721-11-.743.52a41.967,41.967,0,0,1-49.482-.957h0l-39.834,11.44s8.82,32.523,13.82,56.473Z" transform="translate(-540.109 -534.128)"/></g><path class="u" d="M542.386,608.023c.438-1.911.718-3.183.718-3.183L527.71,551.493s-9.407,2.764-15.056,25.428c-8.027,24.081-9.249,30.013-9.249,30.013a5.4,5.4,0,0,0,.6,1.089Z" transform="translate(-503.405 -447.67)"/><path class="u" d="M753.72,608.053c-.88-3.007-3.628-12.117-9.957-31.1-5.65-22.663-15.2-25.371-15.2-25.371l-15.247,53.29s.244,1.271.635,3.183Z" transform="translate(-575.721 -447.7)"/></g><g transform="translate(48.615)"><path class="n" d="M589.15,427.85s4.146-20.637,4.655-25.006c3.593.425,7,1.036,10.523-.193a21.721,21.721,0,0,0,6.86-4.209c.915-.787,2.261-2.756,3.554-2.839,1.253-.081,2.45,1.238,3.829,1.284a5.189,5.189,0,0,0,4.31-2.118c.061,1.6,1.79,2.581,3.343,2.989a6.407,6.407,0,0,0,3.186.173,3,3,0,0,0,2.245-2.086,6.21,6.21,0,0,0,4.168,5.111c2.528.814,4.259-.346,6.314-1.517,2.455,3.156,4.139,7.3,6.1,10.813a12.275,12.275,0,0,1,1.56,6.061l-.077,12.094a6.59,6.59,0,0,1,4.739-2.29c1.614-4.536,4.734-27.165,4.144-29.265-3.112-4.2-9.125-13.176-15.526-15.085s-25.023-7.638-33.17-6.493a29.336,29.336,0,0,0-18.373,9.929c-4.129,4.774-5.366,5.347-5.366,5.347s.558.573,2.983-.477a33,33,0,0,0-6.256,11.693c-.291,1.293,2.051,24.351,2.051,24.351S586.515,425.819,589.15,427.85Z" transform="translate(-579.396 -369.579)"/><path class="n" d="M651.943,400.521a9.757,9.757,0,0,0,3.995-4.558,6.82,6.82,0,0,0-.345-5.94,5.27,5.27,0,0,0-5.214-2.543,4.336,4.336,0,0,0-2.479-7.847c-.052-2.616.531-7.265-1.993-8.947a5.787,5.787,0,0,0-5.427-.257,11.166,11.166,0,0,0-4.263,3.636,5.959,5.959,0,1,0-11.731-1.1,6.539,6.539,0,0,0-5.5-4.067,5.007,5.007,0,0,0-5.128,4.1,8.742,8.742,0,0,0-8.154-1.98c-2.262.565-4.471,2.358-4.5,4.689a5.926,5.926,0,0,0-4.009-1.179,8.71,8.71,0,0,0-3.57.518,3.717,3.717,0,0,0-2.3,2.621,2.4,2.4,0,0,0,1.746,2.767,4.342,4.342,0,0,0-5.709.024,3.6,3.6,0,0,0,.585,5.423,5.077,5.077,0,0,0-2.991-1.065c-1.8.159-2.868,2.147-3.062,3.941-.144,1.318.187,2.924,1.422,3.407a4.9,4.9,0,0,0-5.674,5.72c.252,1.355,1.355,2.71,2.729,2.6-1.256.307-1.858,1.743-2.046,3.022a5.072,5.072,0,0,0,.309,3.013,2.457,2.457,0,0,0,2.49,1.424,3.949,3.949,0,0,0-1.8,4.369c.831,2.969,4.709,1.987,5.986-.05a17.8,17.8,0,0,0,2.029-6.561,7.05,7.05,0,0,0,6.853-.72,10.232,10.232,0,0,0,3.918-5.876,2,2,0,0,0,.634,1.055,7.735,7.735,0,0,0,8.024.577,12.725,12.725,0,0,0,5.645-6.118,5.1,5.1,0,0,0,8.409-1.653" transform="translate(-577.571 -366.664)"/><path class="a" d="M589.114,426.749c1.771-1.333,2.277-3.713,3.19-5.732a13.614,13.614,0,0,1,10.724-7.77c1.991-.216,4.429.317,5.109,2.2a13.43,13.43,0,0,1,10.033-10.106c2.968-.65,6.586.054,8.047,2.718-.093-2.391,2.628-4.305,4.946-3.713a5.107,5.107,0,0,1,3.477,5.562c.535-.435,1.259-.891,1.86-.555.808.452.432,1.657.463,2.583.062,1.881,2.114,2.962,3.874,3.627a5.521,5.521,0,0,0,2.354.51,1.913,1.913,0,0,0,1.784-1.386,3.458,3.458,0,0,0,2.2,5.805c2.366.222,4.267-1.97,5.184-4.162a4.892,4.892,0,0,1,1.2-2.035,1.393,1.393,0,0,1,2.069.213" transform="translate(-581.548 -379.609)"/></g></g></g></g></g><g transform="translate(667.754 143.204)"><g transform="translate(0 0)"><g class="v" transform="translate(0)"><circle class="w" cx="47.722" cy="47.722" r="47.722" transform="translate(0 67.489) rotate(-45)"/><g transform="translate(27.067 34.721)"><g transform="translate(22.411 11.304)"><path class="x" d="M909.1,275.048l-3.036.988L895.136,279.6l-2.348.768-2.117-.806-10.524-3.992-2.746-1.042s1.128-.435,2.5-.956l1.74-.666c1.558-.6,2.971-1.139,3.046-1.161a18.613,18.613,0,0,0,.505-5.281c.011-.725.005-1.542-.016-2.461H900.4c-.032,1.343-.027,2.461,0,3.4a15.8,15.8,0,0,0,.489,4.346c.07.022,1.472.586,3.095,1.236.371.151.752.307,1.128.457Z" transform="translate(-874.86 -230.848)"/><g transform="translate(28.898 17.841)"><path class="x" d="M919.985,240.918s2.448-1.037,3.891.876-1.419,8.12-6.265,6.1" transform="translate(-917.611 -240.637)"/><path class="x" d="M919.985,240.918s2.448-1.037,3.891.876-1.419,8.12-6.265,6.1" transform="translate(-917.611 -240.637)"/></g><g transform="translate(0 17.823)"><path class="x" d="M878.042,241.086s-2.311-1.312-3.966.421.473,8.23,5.52,6.778" transform="translate(-873.525 -240.61)"/><path class="x" d="M878.042,241.086s-2.311-1.312-3.966.421.473,8.23,5.52,6.778" transform="translate(-873.525 -240.61)"/></g><path class="y" d="M904.486,267.4a11.766,11.766,0,0,1-7.07,1.951c-3.778,0-6.329-1.145-8.14-2.885.011-.725.005-1.542-.016-2.461h15.226C904.454,265.35,904.46,266.468,904.486,267.4Z" transform="translate(-878.946 -230.848)"/><path class="x" d="M906.89,221.367c-2.2-9.348-13.526-7.861-13.526-7.861s-11.331-1.487-13.526,7.861c0,0-1.173,10.837.526,16.643s3.369,13.241,13,13.241c10.159,0,11.189-7.875,12.889-13.682S906.89,221.367,906.89,221.367Z" transform="translate(-875.564 -213.42)"/></g><g transform="translate(10.744 53.44)"><path class="z" d="M908.421,307.268c2.313-10.742,6-24.353,6-24.353l-17.65-5.015-.339.237a19.13,19.13,0,0,1-22.555-.436l-18.156,5.214s3.691,13.611,6,24.353Z" transform="translate(-855.726 -277.701)"/></g><path class="aa" d="M878.789,233.157l.7-5.674s5.372.16,6.377-5.256c.83,1.573,3.495,2.021,4.433,2.184a5.669,5.669,0,0,0,5.307,1.834c-3.36-2.149-2.674-4.619-2.674-4.619s.614,2.916,6.951,4.269a7.005,7.005,0,0,1-2.267-3.1,10.24,10.24,0,0,0,7.283,3.177,17.948,17.948,0,0,1,1.143,7.284l.964-7.01s4.427,1.059.619-2.309-3.59-3.019-3.59-3.019l-8.97-2.858s-.594-1.379-6.884-.592-4.149-3.626-6.07.393-1.573,2.621-1.573,2.621l-1.354,2.446-1.762,1.922V226.9Z" transform="translate(-852.458 -203.054)"/><path class="ab" d="M875.485,226.277l.362-6.585s4.659.5,6.476-5.655c1.118,1.441,1.685,2.708,5.31,3.1,1.922,1.616,2.227,1.616,4.674,2.227a6.246,6.246,0,0,1-2.353-5.328,9.781,9.781,0,0,0,6.629,4.979,6.044,6.044,0,0,1-1.878-3.931c2.271,2.088,5.325,3.456,7.2,3.456.758,2.352.833,7.834.833,7.834s1.538-1.728,2.887-.72a50.851,50.851,0,0,0,2.205-10.416,36.349,36.349,0,0,0-1.092-4.782,3.73,3.73,0,0,0,2.861.723,9.587,9.587,0,0,1-3.538-4.261c-.589-1.638-2.89-7.8-10.42-7.6,2.494-.2,3.05-.983,3.05-.983a6.278,6.278,0,0,1-4.193-.2c-2.194-.917-6.158-1.769-9.139.917a5.243,5.243,0,0,1,2.228-2.882c-2.2,1.048-4.259,1.768-5.864,6.093-2.162-1.082-6.354-1.082-8.909,3.734-.819,1.671-2.195,8.091-4.979,9.107,1.54-.2,3.865-.852,4.095-1.7-.557,1.966-2.064,4.979-2.653,5.176a4.127,4.127,0,0,0,2.555-1.736,17.476,17.476,0,0,0,1.27,8.633C873.734,225.317,874.345,225.13,875.485,226.277Z" transform="translate(-849.154 -196.174)"/><path class="z" d="M857.194,309.995l.014-.063-7.016-24.317s-4.288,1.26-6.863,11.59c-2.556,7.67-3.6,11.3-3.993,12.789Z" transform="translate(-839.335 -226.988)"/><path class="z" d="M952.676,309.995c-.64-2.105-1.894-6.1-4.123-12.789-2.575-10.33-6.863-11.59-6.863-11.59l-7.016,24.317.012.063Z" transform="translate(-872.181 -226.988)"/></g></g></g></g><g transform="translate(845.03 221.752)"><g class="ac"><circle class="r" cx="103.079" cy="103.079" r="103.079"/><g transform="translate(-32.022 26.498)"><path class="u" d="M1247.581,424.129c-3.645,9.8-11.912,21.562-19,28-.222.2-11.641,10.005-11.879,10.186-8.941,7.13-19.576,11.733-31.559,10.056a16.944,16.944,0,0,1-2.889-.679,29.915,29.915,0,0,1-8.787-4.836c-.082-.067-.174-.133-.256-.2a68.268,68.268,0,0,1-8.5-7.971c-.171-.18-.343-.372-.5-.566a131.6,131.6,0,0,1-9.8-12.5c-.635-.916-1.242-1.8-1.809-2.659-.108-.156-.2-.3-.3-.461-.786-1.181-1.5-2.282-2.112-3.271-.955-1.49-1.706-2.735-2.218-3.614a20.073,20.073,0,0,1-1.233-2.292c-4.949-11-5.846-23.829-6.172-35.721-.321-11.712-.56-23.514.751-35.177,1.654-14.718,6.018-29.992,16.122-41.21,6.182-6.866,14.486-13.476,23.68-15.6,2.712-.627,5.948-.956,8.451.54,7.933-5.228,19.115-1.866,26.873,1.965,23.7,11.7,30.7,38.637,33.923,62.767a156.93,156.93,0,0,1,.76,38.973A61.543,61.543,0,0,1,1247.581,424.129Z" transform="translate(-1061.208 -303.46)"/><g transform="translate(97.977 115.442)"><path class="ad" d="M1249.58,488.889c-6,10.129-23.573,35.271-48.349,31.443-26.18-4.042-31.2-26.132-32.121-32.811.354-.153.543-.232.543-.232C1200.731,474.071,1229.255,480.03,1249.58,488.889Z" transform="translate(-1169.11 -479.577)"/></g><g transform="translate(95.95 25.225)"><path class="ae" d="M1239.661,465.587v.012c-.14.592-3.563,14.262-23.813,15.2a3.2,3.2,0,0,1-.476.035h-1a3.2,3.2,0,0,1-.476-.035c-20.251-.963-23.813-14.97-23.964-15.586v-.023c2.112-.476,3.829-.859,4.932-1.1.209-.058.383-.092.546-.128,1.671-.348,2.356-8.854,2.634-16.513.151-4.027.186-7.834.2-10.074.012-1.3,0-2.077,0-2.077l4.561-.777,17.755-3.04,9.063,3.818s-.046,4.909.139,10.665c.244,8,.917,17.628,2.693,18,.534.128,1.311.3,2.274.511C1236.063,464.763,1237.734,465.146,1239.661,465.587Z" transform="translate(-1174.257 -372.79)"/><path class="ae" d="M1271.943,400.247c.467,5.6-4.042,12.045-7.646,12.344s-7.472-1.9-5.479-8.076c1.67-5.174,2.077-10.389,5.682-10.689S1271.476,394.642,1271.943,400.247Z" transform="translate(-1197.802 -359.802)"/><path class="ae" d="M1166.074,400.588c-.6,5.591,3.745,12.14,7.341,12.528s7.517-1.716,5.675-7.939c-1.543-5.214-1.823-10.437-5.418-10.825S1166.677,395,1166.074,400.588Z" transform="translate(-1166.018 -359.973)"/><path class="ae" d="M1236.849,376c-.023,1.288-.07,2.692-.174,4.189-.081,1.091-.174,2.252-.313,3.424a63.842,63.842,0,0,1-1.52,8.471c-.174.708-.36,1.392-.569,2.089-.023.092-.058.186-.081.279q-.209.73-.452,1.462a41.253,41.253,0,0,1-7.938,14.459.037.037,0,0,1-.012.024,34.386,34.386,0,0,1-13.241,9.214,12.426,12.426,0,0,1-9.69-.1,41.305,41.305,0,0,1-8.541-5.13c-.012-.011-.023-.011-.035-.023-6.058-4.688-10.793-10.9-12.777-17.152q-.348-1.062-.627-2.123c-.024-.1-.058-.2-.081-.3-.116-.452-.232-.916-.337-1.369-.163-.684-.3-1.346-.441-2.019-.244-1.219-.441-2.414-.592-3.6-.209-1.52-.36-2.982-.465-4.4-.081-1.126-.127-2.205-.162-3.25-.035-1.311-.047-2.541-.024-3.655.035-2.136.151-3.876.256-5.072.058-.673.116-1.172.139-1.462.035-.208.047-.313.047-.313l1.578-13.357,1.567-1.114,13.067-9.3,5.477-3.888a69.972,69.972,0,0,1,9.029.279,38.637,38.637,0,0,1,6.51,1.172c2.634.766,4.862,1.9,5.929,3.586l2.031,1.787,8.483,7.474,1.033,3.319,2.495,8.042.14.429A65.474,65.474,0,0,1,1236.849,376Z" transform="translate(-1170.41 -341.942)"/></g><g transform="translate(96.393 16.327)"><path class="u" d="M1237.889,360.167a8.047,8.047,0,0,1-5.187,2.809,2.726,2.726,0,0,1-.441-.012,2.032,2.032,0,0,1-.835-.279c-.534-.324-.766-1.683-.986-2.263a17.844,17.844,0,0,1-.7-2.065c-.221-.894-.325-1.845-.534-2.75a5.559,5.559,0,0,0-.766-1.949,4.8,4.8,0,0,0-1.671,2.413c-.615,1.474-1.717,5.559-3.11,6.313-1.114.6-4.4-.081-5.686-.093a23.032,23.032,0,0,1-4.2-.035c-.012,0-.035-.012-.047-.012-1.811-.394-1.648-.6-2.344-2.6a42.259,42.259,0,0,1-2.2-17.245q-1.288,5.065-2.321,10.189c-.395,1.972-.534,8.645-2.008,9.713-.789.569-4.027.07-5.036.093a19.551,19.551,0,0,1-2.4.081,2.309,2.309,0,0,1-1.671-.848,7.787,7.787,0,0,1-1.08-3.945,15.78,15.78,0,0,1-.023-2.065c.023-.522.011-1.207-.488-1.393a30.921,30.921,0,0,0-1.659,3.563c-.429,1.114-.592,3.3-1.277,4.189-1.149,1.509-5.072,1.091-7.137,1.323a28.773,28.773,0,0,0-4.085.65c-1.927.5-3.563.94-4.979,1.323-3.11.836-5.071,1.416-6.3,1.8-1.509.465-1.927.65-2.02.685.081-.5,2.309-12.962,3.841-19.914,1.567-7.09,24.625-19.252,33.016-19.473,4.816-.127,14.877,3.865,22.665,8.193a.989.989,0,0,0,.162.081c1.462.824,2.843,1.66,4.1,2.461v.011c3.609,2.368,6.1,4.607,6.232,6.1a14.678,14.678,0,0,0,1.021,2.727,25.9,25.9,0,0,1,1.334,6.139A9.3,9.3,0,0,1,1237.889,360.167Z" transform="translate(-1166.693 -328.367)"/></g><path class="af" d="M1260.941,536.027l-71.186,20.531-72.932-20.531c1.262-30.927,12.307-42.7,23.251-46.806a210.521,210.521,0,0,1,24.817-6.968v.025c.152.606,3.711,14.617,23.959,15.577a2.993,2.993,0,0,0,.48.038h1a2.993,2.993,0,0,0,.48-.038c20.247-.934,23.668-14.6,23.807-15.2v-.012a198.336,198.336,0,0,1,23.088,6.576C1248.634,493.323,1259.679,505.1,1260.941,536.027Z" transform="translate(-1053.12 -365.057)"/><path class="ag" d="M1019.638,520.3" transform="translate(-1019.638 -378.165)"/></g></g></g><g transform="translate(684.415 367.597)"><path class="ah" d="M833.73,490.963a22.76,22.76,0,0,1,1.42,5.521c.395,2.761-.947,5.206-1.025,7.887a5.726,5.726,0,0,0,7.572,5.758c3.155-1.183,6.152-4.338,9.544-3,2.129.868,4.417,3.076,6.783,1.1a23.435,23.435,0,0,0,2.852-2.7,18.583,18.583,0,0,0,.14-2.273c0-9.792-7.682-17.731-17.157-17.731a16.756,16.756,0,0,0-10.987,4.114A3.736,3.736,0,0,1,833.73,490.963Z" transform="translate(-826.701 -485.534)"/><path class="ai" d="M854.78,510.4c-2.366,1.972-4.654-.237-6.783-1.1-3.391-1.34-6.389,1.814-9.544,3a5.726,5.726,0,0,1-7.572-5.758c.079-2.682,1.42-5.127,1.025-7.887a22.754,22.754,0,0,0-1.42-5.521,3.735,3.735,0,0,0-.86-1.315,17.931,17.931,0,0,0-6.169,13.617c0,9.793,7.682,17.732,17.157,17.732A17.365,17.365,0,0,0,857.632,507.7,23.434,23.434,0,0,1,854.78,510.4Z" transform="translate(-823.458 -487.696)"/></g><g transform="translate(899.226 447.546)"><path class="ah" d="M1159.6,611.956a18.68,18.68,0,0,1,1.165,4.528c.323,2.265-.777,4.27-.841,6.47a4.7,4.7,0,0,0,6.21,4.722c2.588-.97,5.046-3.558,7.828-2.458,1.747.712,3.623,2.523,5.564.906a19.224,19.224,0,0,0,2.339-2.213,15.084,15.084,0,0,0,.115-1.864A14.314,14.314,0,0,0,1167.9,607.5a13.745,13.745,0,0,0-9.012,3.374A3.062,3.062,0,0,1,1159.6,611.956Z" transform="translate(-1153.831 -607.503)"/><path class="aj" d="M1176.862,627.9c-1.941,1.617-3.817-.194-5.564-.906-2.782-1.1-5.24,1.488-7.828,2.458a4.7,4.7,0,0,1-6.21-4.722c.064-2.2,1.164-4.2.841-6.47a18.673,18.673,0,0,0-1.165-4.528,3.065,3.065,0,0,0-.705-1.079,14.708,14.708,0,0,0-5.06,11.169,14.053,14.053,0,0,0,28.03,1.864A19.238,19.238,0,0,1,1176.862,627.9Z" transform="translate(-1151.171 -609.277)"/></g><circle class="r" cx="16.668" cy="16.668" r="16.668" transform="translate(596.807 507.781)"/></g></svg>