<svg xmlns="http://www.w3.org/2000/svg" xmlns:xlink="http://www.w3.org/1999/xlink" width="552.354" height="501.051" viewBox="0 0 552.354 501.051"><defs><style>.a,.aa,.u,.w,.x,.y{fill:none;}.b{fill:url(#a);}.c{fill:url(#b);}.d{fill:url(#c);}.e{fill:url(#d);}.f{fill:url(#e);}.g{fill:#ffb83f;}.h{fill:#faebd8;}.i,.z{fill:#fff;}.j{clip-path:url(#f);}.k{fill:#2a7195;}.l{fill:#bbbdbf;}.m{fill:#57585a;}.n{fill:#97bbf5;}.o{fill:#929597;}.p{fill:#d0d2d3;}.q,.t,.v{fill:#e28b3d;}.aa,.q,.u,.v,.w,.x,.z{stroke:#100052;}.q,.u,.x,.z{stroke-miterlimit:10;}.q{stroke-width:1.242px;}.r{fill:#100052;}.s{fill:#bbb7ce;}.u,.z{stroke-width:1.322px;}.aa,.v,.w,.y{stroke-linecap:round;stroke-linejoin:round;}.v,.w{stroke-width:1.229px;}.x{stroke-width:1.322px;}.y{stroke:#bbdbf9;stroke-width:0.13px;}.aa{stroke-width:1.268px;}.ab{fill:#d2e7f9;}.ac{fill:url(#g);}.ad{fill:url(#h);}</style><linearGradient id="a" y1="0.5" x2="1" y2="0.5" gradientUnits="objectBoundingBox"><stop offset="0" stop-color="#ff9077"/><stop offset="1" stop-color="#e9645a"/></linearGradient><linearGradient id="b" x1="-3.842" y1="18.17" x2="-3.868" y2="19.842" gradientUnits="objectBoundingBox"><stop offset="0" stop-color="#faebd8"/><stop offset="1" stop-color="#ffb83f"/></linearGradient><linearGradient id="c" x1="-4.381" y1="19.644" x2="-3.254" y2="19.644" xlink:href="#b"/><linearGradient id="d" x1="-16.576" y1="159.17" x2="-16.522" y2="159.645" xlink:href="#b"/><linearGradient id="e" x1="-11.771" y1="60.389" x2="-11.193" y2="61.112" xlink:href="#b"/><clipPath id="f"><path class="a" d="M711.332,145.6c-91.049,20.872-158.726,97.6-169.268,190.336-9.743,85.7,30.129,172.248,94.415,228.008a267.627,267.627,0,0,0,77.857,47.306c4.385,1.71,8.714,3.542,12.964,5.562,63.056,29.967,134.206,28.089,198.644,3.452,49.34-18.864,141.587-63.756,151.279-122.371,2.987-18.065-2.105-36.517-9.07-53.45-31.746-77.191-59.96-162.445-115.726-226.276-44.418-50.842-109.617-80.114-177.012-80.119a286.164,286.164,0,0,0-64.084,7.552" transform="translate(-540.604 -138.049)"/></clipPath><linearGradient id="g" x1="0.538" y1="0.354" x2="0.334" y2="1.011" xlink:href="#b"/><linearGradient id="h" x1="0.487" y1="0.494" x2="0.359" y2="1.008" xlink:href="#b"/></defs><g transform="translate(-516.751 -137.921)"><g transform="translate(531.51 137.921)"><path class="b" d="M711.167,145.472c-91.049,20.873-158.726,97.6-169.268,190.336-9.743,85.7,30.129,172.248,94.415,228.009a267.642,267.642,0,0,0,77.857,47.305c4.385,1.71,8.714,3.543,12.964,5.562,63.056,29.967,134.207,28.089,198.644,3.452,49.34-18.864,141.587-63.756,151.279-122.371,2.988-18.065-2.105-36.517-9.069-53.451-31.746-77.191-59.96-162.444-115.726-226.276-44.418-50.842-109.617-80.115-177.012-80.119a286.2,286.2,0,0,0-64.084,7.551" transform="translate(-540.439 -137.921)"/></g><g transform="translate(904.697 164.511)"><g transform="translate(3.896 7.497)"><path class="c" d="M1145.634,197.263c2.133-1.049,20.688-9.792,38.731-.147,8.779,4.692,22.514,16.451,20.15,30.642-2.221,13.336-17.988,24.795-37.31,22.846a33.218,33.218,0,0,1-.064,8.268l-18.666.145-1.134-22.4c-.074-1.451-.064-3.112,1.021-4.078a4.607,4.607,0,0,1,3.422-.748c3.318.22,6.611.943,9.934.8s6.835-1.336,8.7-4.09c2.606-3.849.894-9.473-2.719-12.4s-13.178-3.591-13.178-3.591l-1.69-.259S1147.078,201.93,1145.634,197.263Z" transform="translate(-1145.634 -192.628)"/></g><path class="d" d="M1139.382,185.231c2.133-1.049,20.687-9.792,38.731-.147,8.779,4.692,22.514,16.451,20.15,30.642-2.221,13.336-17.988,24.795-37.309,22.847a33.242,33.242,0,0,1-.064,8.268l-18.666.145c-.378-7.465-.113-26.473-.113-26.473s10.033.194,13.355.052,6.836-1.336,8.7-4.09c2.606-3.849.894-9.473-2.719-12.4s-13.178-3.591-13.178-3.591l-1.738-.228S1140.826,189.9,1139.382,185.231Z" transform="translate(-1139.382 -180.596)"/><path class="e" d="M1165.546,315.834l-15.922,6.44a10.785,10.785,0,0,1,15.922-6.44Z" transform="translate(-1143.242 -230.998)"/><path class="f" d="M1166.352,315.429l2.447,6.052a10.788,10.788,0,1,1-20,8.089l-2.448-6.052Z" transform="translate(-1142.008 -231.418)"/><path class="g" d="M10.788,0A10.788,10.788,0,1,1,0,10.788,10.788,10.788,0,0,1,10.788,0Z" transform="translate(3.552 77.266)"/><path class="h" d="M1147.839,294.6l-3.9-7.5,18.287-.077,4.275,7.429Z" transform="translate(-1141.101 -220.711)"/><path class="i" d="M1180.256,285.677" transform="translate(-1154.788 -220.204)"/><path class="i" d="M1174,273.645" transform="translate(-1152.432 -215.669)"/></g><g transform="translate(531.613 138.001)"><g class="j" transform="translate(0 0)"><g transform="translate(32.231 68.11)"><path class="k" d="M995.648,444.64l11.328,6.185,5.845,5.094-38,117.151-4.385,49.481.731,23.284,4.385,98.232,4.385,55.3s-60.652,9.46-84.037,1.455l2.192-96.05,9.5-99.687,14.615-63.305,18.269-48.753L949.61,471.2l6.942-24.74L962.4,430.45l11.692-.728Z" transform="translate(-706.756 -316.098)"/><path class="i" d="M924.376,496.573s-28.133-.732-49.326,22.652c0,0-33.614,28.256-41.9,65.282l-.333,1.332c-.646,25.826-2.223,51.354-3.867,77.015l11.752,7.639,2.193,5.115s-11.693,91.345-7.308,146.15l49.692,8.77-2.924-70.152-2.191-49.692s-.732-70.883,22.653-138.113Z" transform="translate(-681.522 -341.295)"/><path class="i" d="M1047.94,463.734s-33.128,58.7-43.358,103.037V731.434l1.948,82.332s94.512-5.846,124.229-16.077l-2.436-63.819s19.943-3.958,25.217-8.889c0,0,9.858-9.578,12.782-31.015,0,0,2.57-27.538-6.686-76.743,0,0-3.342-41.218-7.442-59.71,0,0,1.872-60.6-69.909-85.011,0,0-18.756-5.846-34.346-8.769" transform="translate(-747.721 -328.918)"/><path class="l" d="M906.532,659.531c-4.238-.546-9.287-2.159-10.574-4.316-.918-1.168-1.2-5.039-.406-10,1.441-9.955,6.011-24.375,9.147-35.862l-3.369-.92c-3.107,11.407-7.71,25.839-9.241,36.274-.7,5.269-.915,9.491.961,12.465,2.8,3.919,8.448,5.092,12.977,5.825a53.681,53.681,0,0,0,6.756.556l.026-3.487a51.1,51.1,0,0,1-6.277-.53" transform="translate(-705.128 -383.457)"/><path class="m" d="M919.991,688.265c-2.41-.161-4.442,1-4.559,2.609s1.748,3.037,4.161,3.209c2.406.157,4.445-1.008,4.556-2.611s-1.748-3.044-4.158-3.208" transform="translate(-714.116 -413.544)"/><path class="l" d="M977.038,620.916l-3.495-.079c-.27,11.905-.022,27.027-1.47,36.978-.67,4.977-2.037,8.613-3.246,9.476-1.849,1.693-7.15,1.807-11.375,1.113a54.57,54.57,0,0,1-6.164-1.287l-.962,3.356a55.385,55.385,0,0,0,6.624,1.391c4.551.588,10.3,1.079,14.105-1.877,2.641-2.315,3.649-6.414,4.473-11.667,1.517-10.443,1.228-25.583,1.51-37.4" transform="translate(-727.27 -388.134)"/><rect class="n" width="32.4" height="10.385" transform="translate(290.768 238.518)"/><path class="m" d="M952.533,692.957c-2.358-.53-4.554.316-4.909,1.887s1.274,3.269,3.628,3.8,4.548-.319,4.9-1.885-1.271-3.276-3.622-3.8" transform="translate(-726.234 -415.259)"/><path class="m" d="M938.423,560.866c-15.648-2.136-29.688,12.307-32.506,31.429l4.517.655h-.006c1.272-8.691,5.094-16.137,10.112-21.077,5.043-4.952,11.138-7.378,17.223-6.491s11.231,4.956,14.647,11.139c3.395,6.168,4.94,14.394,3.67,23.082l4.516.663c2.757-19.128-6.569-36.979-22.173-39.4" transform="translate(-710.531 -365.451)"/><path class="m" d="M976.811,467a44.689,44.689,0,0,0-17.564,24.984c-3.226,11.354-6.266,33.786-6.266,33.9l4.557-.029-.007,0a44.284,44.284,0,0,0,.859-6.438c.295-4.038,3.554-20.967,5.063-26.235a40.231,40.231,0,0,1,15.954-22.67c5.048-3.784,10.336-5.862,12.991-5.707l.144-4.367c-4.557-.082-10.122,2.471-15.73,6.559" transform="translate(-728.271 -327.676)"/><path class="o" d="M1078.056,632.621a13.913,13.913,0,1,0,13.91,13.915,13.912,13.912,0,0,0-13.91-13.915" transform="translate(-770.171 -392.576)"/><path class="p" d="M1082.416,644.2a6.7,6.7,0,1,0,6.7,6.7,6.7,6.7,0,0,0-6.7-6.7" transform="translate(-774.531 -396.941)"/><path class="q" d="M964.523,314.664c.843-8.4,1.941-16.509-1.023-24.663-1.127-3.1-3.231-8.206-6.285-10.048-88.421-53.345-114.81,23.749-114.81,23.75,1.184,9.734,4.08,20.317,11.191,27.483,2.682,2.7,4.723,3.75,6.077,7.519,2.583,7.193,6.469,13.885,10.333,20.447,9.033,15.339,18.786,30.626,32.3,42.211,3.537,3.031,7.4,5.834,11.84,7.246a17.773,17.773,0,0,0,8.215.687c2.135-.354,5.964-3.556,7.715-3.277,2.753.44,3.672,8.222,4.85,10.584,8.273,16.593,24.373,3.212,29.88-6.641,4.533-8.111,7.944-15.505,9.717-24.637,1.581-8.142-3.979-16.582-6.583-24.19-2.532-7.4-4.132-15.469-2.052-23.005.859-3.109,2.322-6.038,3.009-9.19,1.19-5.467-.259-11.615-4.316-15.47s-10.762-4.891-15.457-1.846" transform="translate(-686.592 -252.558)"/><path class="r" d="M920.807,273.6c-.594,2.76-2.246,5.16-3.919,7.435a165.393,165.393,0,0,1-35,35.029c-1.447,1.067-3.834,3.1-5.781,2.977-2.79-.176-1.99-2.47-3.522-3.948a66.575,66.575,0,0,0-5.577,6.561c-3.281,3.953-6.818,8.086-11.688,9.72a13.928,13.928,0,0,0,3.249-6.665c-1.125,1.477-2.459,3.077-4.3,3.272a4.438,4.438,0,0,1-3.691-1.66c-3.871-4.5-5.48-11.684-7.077-17.264-1.792-6.261-2.408-14.733.921-20.661.006-.01,35.568-63.329,87.2-32.641,3.819,2.27,8.233,1.656,12.379,2,12.8,1.059,17.015,13.515,20.254,23.849,4.516,14.411,6.958,30.65,4.462,45.654-.35,2.1-.884,7.717-2.588,9.159-1.333,1.129-4.034.151-5.534-.4-8.036-2.929-15.33-10.625-20.2-17.456-5.115-7.17-8.164-15.126-12.14-22.89-3.436-6.709-7.123-12.438-9.3-19.945" transform="translate(-686.452 -247.362)"/><path class="s" d="M789.956,500.532s39.125,5.006,49.182,27.129C839.138,527.661,797.5,524.771,789.956,500.532Z" transform="translate(-666.823 -342.788)"/><g transform="translate(117.731 56.495)"><path class="q" d="M840.023,389.407c-4.3-4.827-5.246.006-4.771,4.062.529,4.51-.469,7.716-.956,11.954l12.65,4.986C847.364,405.142,843.908,393.772,840.023,389.407Z" transform="translate(-801.267 -356.637)"/><path class="q" d="M840.036,393.683c-6.259-.841-9.349-5.14-13.7-.739-4.091,4.138-7.764,9.387-11.294,13.982-8.959,11.663-12.843,26.3-16.956,40.1-2.964,9.946-5,20.77-10.318,29.819-2.223,3.781-4.822,7.442-5.968,11.676s-.47,9.333,2.96,12.067c3.161,2.52,7.856,2.331,11.468.516s6.348-4.973,8.813-8.177a79.786,79.786,0,0,0,13.241-24.274c1.188-3.755,2.135-7.879,4.386-11.177,2.1-3.071,5.421-4.626,8.053-7.188,6.38-6.211,10.547-14.083,14.576-21.917,3.891-7.566,9.433-18.543,6.018-27.083C849.524,396.809,844.682,394.308,840.036,393.683Z" transform="translate(-781.286 -357.996)"/><path class="q" d="M827.027,395.062c.283-.073,1.025-2.343,1.154-2.613,1.257-2.629,2.7-5.173,4.206-7.663A157.435,157.435,0,0,1,852.9,357.609c3.507-3.639,7.492-6.92,11.205-10.349,3.358-3.1,6.773-6.244,10.848-8.317,1.629-.829,3.755-1.424,5.158-.253a3.581,3.581,0,0,1,.573,4.237A10.774,10.774,0,0,1,877.6,346.3q-6.964,5.732-13.5,11.963c-3.9,3.722-9.081,7.726-11.412,12.609-3.5,7.334-8.926,14.1-13.257,21.008Z" transform="translate(-798.527 -338.034)"/><path class="q" d="M890.514,420.988a12.871,12.871,0,0,1-.468,2.922,39.81,39.81,0,0,1,17.69-12.034c3.317-1.123,6.57-1.4,9.978-1.94,2.6-.41,4.987-2.018,2.559-4.533a6.563,6.563,0,0,0-3.027-1.536c-10.021-2.836-18.281.449-27.219,4.6-1.442.67-.292,5.858-.138,6.968A32.2,32.2,0,0,1,890.514,420.988Z" transform="translate(-822.003 -362.447)"/><path class="q" d="M863.348,374.132s13.769-13.169,20.483-18.51a116.358,116.358,0,0,1,18.227-11.715c2.331-1.226,5.076-2.888,7.737-3.257,2.415-.334,3.93,1.146,3.369,3.419-.612,2.475-2.835,4.449-4.751,5.962-12.181,9.622-25.934,17.009-35.925,29.172Z" transform="translate(-812.218 -339.003)"/><path class="q" d="M880.339,386.694c5.861-5.077,12.4-10.587,19.183-14.448,4.128-2.351,8.385-4.532,12.713-6.489a25.971,25.971,0,0,1,6.129-2.353c2.606-.42,4.186,1.55,3.491,3.995-.775,2.728-3.6,4.573-5.853,6-4.938,3.131-9.985,6.092-14.84,9.352a140.13,140.13,0,0,0-13.478,10.91,58.376,58.376,0,0,0-7.362-6.948Z" transform="translate(-818.615 -347.575)"/><path class="t" d="M825.226,419.475c-.888-2.513.5-5.3,2.356-7.208s4.2-3.323,5.928-5.352c2.588-3.037,3.523-7.093,4.932-10.825s3.738-7.58,7.564-8.71c3.966-1.171,8.082.954,11.672,3.008a36.409,36.409,0,0,1,8.182,5.737c2.339,2.387,4.039,5.6,3.863,8.941a17.791,17.791,0,0,1-2.3,6.858q-3.867,7.726-8.109,15.257a34.675,34.675,0,0,1-4.874,7.12,26.688,26.688,0,0,1-9.9,6.115,23.413,23.413,0,0,1-9.855,1.872,11.535,11.535,0,0,1-8.7-4.464c-2.457-3.492-2.153-8.155-1.746-12.406l1.036-10.833" transform="translate(-797.37 -356.507)"/></g><path class="u" d="M868.7,552.7c-4.981,6.96-7.135,15.512-8.83,23.9-5.188,25.686-7.029,51.913-8.859,78.054q-3.131,44.735-6.263,89.47" transform="translate(-687.477 -362.451)"/><path class="v" d="M980.326,473.126s20.472-14.954,20.472-35.78" transform="translate(-738.578 -318.972)"/><path class="i" d="M865.249,751.725,740.9,749.9,640.42,629.688l125.324.366Z" transform="translate(-610.459 -391.471)"/><path class="w" d="M865.249,751.725,740.9,749.9,640.42,629.688l125.324.366Z" transform="translate(-610.459 -391.471)"/><path class="m" d="M1055.4,450.879s13.885-2.192,20.462,10.962c0,0,10.231,24.724,4.385,105.472l-3.654-1.462s5.481-60.652-1.827-93.9c0,0-3.653-20.1-15.71-16.807l-3.655-5.481" transform="translate(-766.876 -323.614)"/><path class="s" d="M1036.625,866.013s-.73,29.23,6.212,31.057c0,0,9.135-15.711,10.6-26.673Z" transform="translate(-759.79 -480.547)"/><g transform="translate(79.71 159.419)"><path class="i" d="M791.212,590.91l-6.82-7.308s17.272-34.954,28.478-54.928c0,0-34.325-4.75-48.939-25.454l-28.256,53.1-13.641,29.23s-10.23,18.513,18.513,42.871L785.123,663.5l2.863,1.861c1.644-25.66,3.221-51.188,3.867-77.015Z" transform="translate(-720.265 -503.22)"/><path class="x" d="M796.656,511.583s12.911,13.368,36.205,18.111" transform="translate(-749.059 -506.372)"/></g><path class="y" d="M716.794,605.628S671.852,576.4,652.121,659.7l-.731,5.481L595.853,660.8s8.039-70.153,70.518-73.441C666.371,587.358,691.582,584.07,716.794,605.628Z" transform="translate(-593.66 -375.448)"/><path class="y" d="M592.7,725.274l-.366,5.48,58.826,3.655-.364-7.674Z" transform="translate(-592.334 -427.499)"/><path class="y" d="M594.239,710.027l-.73,4.384,56.633,3.289,1.1-4.019Z" transform="translate(-592.777 -421.752)"/><path class="i" d="M778.749,623.539s-23.994-19.36-44.7.662l44.819.365Z" transform="translate(-645.751 -385.982)"/><path class="s" d="M1036.463,834.405s-3.353-36.915,12.789-52.249c.4,1.575,16.735,48.884-6.576,83.306" transform="translate(-759.629 -448.94)"/><path class="s" d="M1154.6,672.106s-8.769,52.614-.487,75.024c0,0,1.462-46.769.487-75.024" transform="translate(-802.742 -407.459)"/><path class="i" d="M1057.163,739.791c13.884-2.193,61.018,4.75,61.018,4.75l-1.461-6.577c-4.627-38.487,3.167-68.2,3.167-68.2" transform="translate(-767.54 -406.575)"/><path class="u" d="M1114.251,834.116c-9.09,8.154-18.4,14.869-32.832,15.751-15.906.967-36.4-5.284-52.784-8.007-7.195-1.2-14.289-2.011-21.158-3.419-7.342-1.5-14.428-3.69-21.1-7.743-8.332-5.059-7.079-13.708-2.646-20.338,5.284-7.922,18.01-7.836,24.083-7.783.951.008,2.019-.74,3.07-.725,17.91.217,49.5,1.63,63.29-3.522a18.343,18.343,0,0,0,5.369-3Z" transform="translate(-738.549 -453.904)"/><path class="u" d="M988.607,831.189a327.093,327.093,0,0,1-35.669-8.567c-7.547-2.315-18.021-4.437-21.262-12.908-2.077-5.429-1.553-10.768-.854-16.075.4-3.061,2.561-3.836,4.2-6.067s3.087-4.743,5.186-6.7c2.352-2.2,5.322-3.285,8.381-4.279a10.583,10.583,0,0,1,3.944-.635,11.659,11.659,0,0,1,4.268,1.211,80.006,80.006,0,0,1,17.821,11.84c2.643,2.279,4.421,3.662,7.782,4.625a37.053,37.053,0,0,0,9.608.914" transform="translate(-719.686 -446.598)"/><g transform="translate(178.625 311.325)"><path class="t" d="M1114.251,834.116c-9.09,8.154-18.4,14.869-32.832,15.751-15.906.967-36.4-5.284-52.784-8.007-7.195-1.2-14.289-2.011-21.158-3.419-7.342-1.5-14.428-3.69-21.1-7.743-8.332-5.059-7.079-13.708-2.646-20.338,5.284-7.922,18.01-7.836,24.083-7.783.951.008,2.019-.74,3.07-.725,17.91.217,49.5,1.63,63.29-3.522a18.343,18.343,0,0,0,5.369-3Z" transform="translate(-917.173 -765.229)"/><path class="t" d="M988.607,831.189a327.093,327.093,0,0,1-35.669-8.567c-7.547-2.315-18.021-4.437-21.262-12.908-2.077-5.429-1.553-10.768-.854-16.075.4-3.061,2.561-3.836,4.2-6.067s3.087-4.743,5.186-6.7c2.352-2.2,5.322-3.285,8.381-4.279a10.583,10.583,0,0,1,3.944-.635,11.659,11.659,0,0,1,4.268,1.211,80.006,80.006,0,0,1,17.821,11.84c2.643,2.279,4.421,3.662,7.782,4.625a37.053,37.053,0,0,0,9.608.914Z" transform="translate(-898.31 -757.922)"/><path class="q" d="M978.733,782.308c-3.811-4.707-7.01-9.943-10.984-14.5-2.631-3.018-5.808-5.21-8.741-7.9a107.935,107.935,0,0,1-9.171-8.755c-1.362-1.548-4.427-4.9-7.162-3.964-1.173.4-1.394,1.51-1.427,2.618a16.2,16.2,0,0,0,3.864,11.309c.975,1.2,3.338,1.723,2.815,3.573s-3.16,1.414-4.517,1.31c-4.729-.362-9.074-1.3-13.7-1.871" transform="translate(-898.123 -747.021)"/><path class="q" d="M924.839,819.542c-6.783-2.6-12.712-5.167-18.831-9.405-2.637-1.827-8.033-5.894-9.007-.178-.338,1.987,1.752,3.9,3.244,5.212,5.485,4.82,12.2,7.693,18.6,11.025a51.876,51.876,0,0,0,10.761,4.517" transform="translate(-885.782 -769.637)"/><path class="q" d="M921.925,799.361c-9.387-2.554-18.326-5.816-26.62-10.859a25.9,25.9,0,0,1-5.988-5.442c-1.323-1.492-3.223-3.363-4.537-.94-1.431,2.639.095,5.976,1.949,7.954,8.441,9.006,18.042,13.789,29.384,18.05a31.421,31.421,0,0,0,4.272,1.158.415.415,0,0,0,.393-.073.156.156,0,0,0-.1-.276" transform="translate(-880.976 -759.811)"/><path class="q" d="M916.475,781.382c-4.859-2-9.692-3.907-14.557-5.927a22.32,22.32,0,0,1-4.351-2.157,23.645,23.645,0,0,1-3.785-3.424c-2.7-2.871-5.328-6.072-8.768-8.211-1.234-.766-2.594-1.57-4.056-1.323a2.269,2.269,0,0,0-1.94,2.363c.039,2.784,2.046,4.667,3.7,6.669,2.05,2.482,3.961,4.883,6.051,7.271a35.7,35.7,0,0,0,5.995,5.754,24.879,24.879,0,0,0,4.4,2.357c3.039,1.353,6.243,2.554,9.278,3.773a51.183,51.183,0,0,0,7.744,2.122.744.744,0,0,0,.488,0,.244.244,0,0,0,.092-.384" transform="translate(-879.017 -752.024)"/><path class="q" d="M923.21,780.349c-5.041-1.439-9.9-2.968-14.348-5.8a60.476,60.476,0,0,1-9.891-7.443c-1.548-1.5-2.764-2.959-4.314-4.6s-6.368-6.428-2.5-8.067c3.525-1.492,6.951,2.884,9.613,4.712,4.512,3.1,8.8,5.931,14,7.6,5.49,1.76,11.3,1.678,16.99,2.331.492.057.958-.057,1.115-.563" transform="translate(-883.416 -749.701)"/></g><path class="z" d="M1182.024,788.611l2.752,20.583c7.254,32.967-18.69,39.826-18.69,39.826-13.029,2.875-45.908,6.744-45.908,6.744-24.369,2.242-73.57,9.7-73.57,9.7,21.922-27.4,6.577-83.306,6.577-83.306l73.26,4.75" transform="translate(-763.561 -448.94)"/><path class="q" d="M989.616,357.662c-.538-4.3-.992-9.005,1.342-12.658a5.653,5.653,0,0,1,4.8-2.86,11.578,11.578,0,0,1,9.578,4.663,20.379,20.379,0,0,1,3.825,10.258,17.526,17.526,0,0,1-.846,8.782,12.09,12.09,0,0,1-10.538,7.283" transform="translate(-741.916 -283.079)"/><path class="k" d="M1013.517,477.1a67.476,67.476,0,0,0-2.776,8.068c-.3,1.1-1.575,4.586-.724,5.667,1.551,1.955,7.12-.146,9.172.138,2.517.349,2.345,1.349,3.4,3.887.459,1.1,3.521,6.281,3.1,7.232,3.451-7.834,9.284-14.32,14.43-21.161s9.813-14.571,10.267-23.12a11.111,11.111,0,0,0-.513-4.495,14.186,14.186,0,0,0-2.556-3.906l-6.272-7.6c-.917-1.111-1.971-2.3-3.4-2.492-1.572,5.053-5.155,9.185-8.527,13.263-5.376,6.5-10.477,13.326-14.045,20.97Q1014.262,475.3,1013.517,477.1Z" transform="translate(-749.661 -319.715)"/><path class="k" d="M989.9,511.354a23.214,23.214,0,0,1-8.353-14.338c-.244-1.533-.913-3.588-2.451-3.376-.82.113-1.36.889-1.773,1.606-1.553,2.7-8.058,16.394-4.18,18.28,1.447.7,5.609-2.67,7-3.12C983.049,509.467,987.332,509.3,989.9,511.354Z" transform="translate(-735.412 -340.185)"/><path class="r" d="M967.1,307.842c.531,2.161.66,4.93,1.093,6.735q1.165,4.846,2.328,9.693l2.328,9.693c.4,1.655.891,7.969,2.149,8.947.617.464,1.295-.525,1.4-1.29.535-3.939-.379-7.909-.774-11.865s-.164-8.269,2.274-11.409a12.252,12.252,0,0,0,2.155-2.99,6.975,6.975,0,0,0-.108-4.044c-1.83-7.543-5.389-14.54-9.038-21.391-1.844-3.462-4.215-7.283-8.078-7.965-5.818-1.029-14.129,9.512-9.831,14.534,1.628,1.9,4.312,2.4,6.608,3.4a14.706,14.706,0,0,1,6.747,5.962A7.519,7.519,0,0,1,967.1,307.842Z" transform="translate(-727.83 -260.375)"/></g></g></g><g transform="translate(562.097 413.419)"><path class="i" d="M737.415,609.028S688.79,558.52,630.367,590.936c0,0-36.561,17.716-40.332,95.739l11.685,5.654,62.947,2.262s-3.644-124.261,67.973-83.929l6.155-.126Z" transform="translate(-589.72 -580.08)"/><path class="aa" d="M737.224,609.165c-17.665-19.278-45.147-29.574-71.077-28.666-27.274.955-48.305,15.2-60.646,39.233a129.188,129.188,0,0,0-10.078,27.41c-.917,3.628-7.381,39.48-5.58,39.671l74.633,7.916S660.833,570.467,732.45,610.8l6.155-.126Z" transform="translate(-589.529 -580.217)"/><path class="ab" d="M726.9,604.743s-46.362-30.154-66.716,55.786l-.755,5.654-57.293-4.523s8.293-72.37,72.747-75.762c0,0,26.008-3.393,52.017,18.846" transform="translate(-594.28 -582.202)"/><path class="ab" d="M598.881,728.172l-.378,5.654,60.686,3.77-.376-7.916Z" transform="translate(-592.912 -635.899)"/><path class="ab" d="M600.469,712.443l-.753,4.523,58.424,3.393,1.131-4.146Z" transform="translate(-593.369 -629.971)"/><path class="aa" d="M790.812,623.22s-24.752-19.972-46.111.682l46.236.377Z" transform="translate(-648.017 -593.07)"/></g><g transform="translate(516.751 324.399)"><path class="ac" d="M529.232,443.5a26.353,26.353,0,0,1,1.647,6.4c.457,3.2-1.1,6.037-1.19,9.147a6.641,6.641,0,0,0,8.782,6.677c3.659-1.372,7.134-5.031,11.068-3.476,2.47,1.006,5.122,3.567,7.866,1.28a27.18,27.18,0,0,0,3.307-3.129,21.383,21.383,0,0,0,.162-2.636c0-11.357-8.908-20.563-19.9-20.563a19.432,19.432,0,0,0-12.743,4.771A4.312,4.312,0,0,1,529.232,443.5Z" transform="translate(-521.079 -437.208)"/><path class="ad" d="M553.076,466.422c-2.744,2.287-5.4-.275-7.866-1.28-3.933-1.555-7.409,2.1-11.068,3.476a6.641,6.641,0,0,1-8.782-6.678c.092-3.11,1.647-5.945,1.189-9.147a26.352,26.352,0,0,0-1.647-6.4,4.311,4.311,0,0,0-1-1.525,20.8,20.8,0,0,0-7.155,15.792c0,11.357,8.909,20.563,19.9,20.563a20.138,20.138,0,0,0,19.735-17.927A27.179,27.179,0,0,1,553.076,466.422Z" transform="translate(-516.751 -440.094)"/></g></g></svg>