<svg xmlns="http://www.w3.org/2000/svg" xmlns:xlink="http://www.w3.org/1999/xlink" width="560.886" height="500.913" viewBox="0 0 560.886 500.913"><defs><style>.a,.ad,.ai,.au,.av,.s{fill:none;}.b{clip-path:url(#a);}.c{fill:#e6ebff;}.d{fill:url(#b);}.e{fill:url(#c);}.f{fill:url(#d);}.g{fill:#d3e6ed;}.h,.v{fill:#fff;}.i{fill:url(#f);}.j{fill:#b7d8e5;}.k{fill:#c5e4ed;}.l{fill:#cce6ed;}.m{fill:url(#i);}.n{fill:#63a1ba;}.o{fill:#8aada6;}.p{fill:#a3ccc4;}.q{fill:#91b5ae;}.r{fill:#bbb7ce;}.aa,.ab,.ag,.ah,.ai,.s,.u,.v,.y{stroke:#100052;}.aa,.ab,.ac,.ad,.ag,.ah,.ai,.aq,.as,.at,.au,.av,.s,.u,.v,.y{stroke-miterlimit:10;}.s,.v{stroke-width:0.353px;}.aa,.ah,.t,.u,.y{fill:#e28b3d;}.u{stroke-width:0.331px;}.w{fill:#174051;}.ab,.ag,.x{fill:#100052;}.y{stroke-width:0.36px;}.z{fill:#2a7195;}.aa{stroke-width:0.459px;}.ab{stroke-width:0.583px;}.ac{fill:#d2e7f9;stroke-width:0.049px;}.ac,.ad{stroke:#bbdbf9;}.ad{stroke-width:0.719px;}.ae{fill:#57a9b1;}.af{fill:url(#m);}.ag{stroke-width:0.706px;}.ah{stroke-width:0.4px;}.ai{stroke-width:0.383px;}.aj{opacity:0.27;fill:url(#n);}.aj,.aw,.ce{mix-blend-mode:multiply;isolation:isolate;}.ak{fill:#9fa4b7;}.al{fill:#888ea0;}.am{fill:#abb5ce;}.an{fill:#bfc8e2;}.ao{fill:#9bb6cc;}.ap{fill:#bfcedb;}.aq{fill:#bbdbf9;}.aq,.as,.at,.au,.av{stroke:#060c39;}.aq,.as,.at,.av{stroke-width:0.703px;}.ar{fill:#cce1f2;}.as{fill:#d0e6f7;}.at{fill:#a9c3d8;}.au{stroke-width:1.406px;}.aw{opacity:0.64;}.ax{fill:url(#o);}.ay{fill:url(#p);}.az{fill:url(#q);}.ba{fill:url(#r);}.bb{fill:url(#s);}.bc{fill:url(#t);}.bd{fill:url(#u);}.be{fill:url(#v);}.bf{fill:url(#w);}.bg{fill:url(#x);}.bh{fill:url(#y);}.bi{fill:url(#z);}.bj{fill:url(#aa);}.bk{fill:url(#ab);}.bl{fill:url(#ac);}.bm{fill:url(#ad);}.bn{fill:url(#ae);}.bo{fill:#1e4d5b;}.bp{fill:#6195aa;}.bq{fill:#527f89;}.br{fill:#d5d6d0;}.bs{fill:#bababa;}.bt{fill:#aec7d1;}.bu{fill:#7f9ca5;}.bv{fill:#dadfed;}.bw{fill:#c8ccd6;}.bx{fill:#c8dbe8;}.by{fill:#e6f4ff;}.bz{fill:#bfd4e2;}.ca{fill:#adadad;}.cb{fill:#6e7b7f;}.cc{fill:#8c9193;}.cd{fill:#2d5e72;}.ce{fill:url(#af);}.cf{fill:#e9ecf4;}.cg{fill:url(#ag);}.ch{fill:url(#ah);}.ci{fill:url(#ai);}.cj{fill:url(#ak);}.ck{fill:url(#al);}</style><clipPath id="a"><path class="a" d="M499.13,318.161c19.608-35.646,74.227-134.938,182.7-149.987,9.094-1.262,81.708-10.294,143.452,32.141,51.389,35.318,80.507,96.158,94.733,125.882,11.756,24.562,20.943,50.983,47.366,83.029,13.018,15.788,19.034,19.376,25.713,32.14,19.954,38.133,6,82.048,2.706,92.4-27.354,86.07-150.606,118.344-169.165,123.2-16.4,4.295-163.369,40.281-277.431-52.228-21.316-17.288-73.936-59.965-86.612-132.578C450.985,405.686,479.725,353.438,499.13,318.161Z" transform="translate(-459.915 -166.515)"/></clipPath><linearGradient id="b" x1="0.395" y1="2.17" x2="0.501" y2="0.479" gradientUnits="objectBoundingBox"><stop offset="0" stop-color="#2a7195"/><stop offset="1" stop-color="#060c39"/></linearGradient><linearGradient id="c" x1="0" y1="0.5" x2="1" y2="0.5" xlink:href="#b"/><linearGradient id="d" x1="-1.144" y1="0.09" x2="-0.225" y2="0.319" xlink:href="#b"/><linearGradient id="f" x1="0.594" y1="0.527" x2="1.834" y2="0.888" xlink:href="#b"/><linearGradient id="i" x1="-3.437" y1="0.393" x2="43.221" y2="1.663" xlink:href="#b"/><linearGradient id="m" y1="0.5" x2="1" y2="0.5" gradientUnits="objectBoundingBox"><stop offset="0" stop-color="#4fa5ad"/><stop offset="1" stop-color="#99cbcf"/></linearGradient><linearGradient id="n" x1="0.483" y1="0.243" x2="1.117" y2="1.691" xlink:href="#b"/><linearGradient id="o" x1="-1.024" y1="-2.1" x2="0.619" y2="0.668" xlink:href="#b"/><linearGradient id="p" x1="-0.801" y1="-3.049" x2="0.843" y2="1.502" xlink:href="#b"/><linearGradient id="q" x1="-8.504" y1="-6.492" x2="5.529" y2="4.405" xlink:href="#b"/><linearGradient id="r" x1="-2.117" y1="-64.834" x2="1.957" y2="36.873" xlink:href="#b"/><linearGradient id="s" x1="-3.672" y1="-65.783" x2="2.729" y2="35.925" xlink:href="#b"/><linearGradient id="t" x1="0.157" y1="-2.742" x2="0.657" y2="2.095" xlink:href="#b"/><linearGradient id="u" x1="0.125" y1="-1.214" x2="0.554" y2="0.676" xlink:href="#b"/><linearGradient id="v" x1="0.227" y1="-4.818" x2="0.677" y2="3.611" xlink:href="#b"/><linearGradient id="w" x1="-0.015" y1="-7.875" x2="0.881" y2="7.029" xlink:href="#b"/><linearGradient id="x" x1="0.212" y1="-3.463" x2="0.742" y2="3.631" xlink:href="#b"/><linearGradient id="y" x1="0.213" y1="-5.531" x2="0.757" y2="5.902" xlink:href="#b"/><linearGradient id="z" x1="-0.261" y1="-2.962" x2="1.218" y2="4.203" xlink:href="#b"/><linearGradient id="aa" x1="-0.658" y1="-4.734" x2="1.588" y2="5.922" xlink:href="#b"/><linearGradient id="ab" x1="-0.525" y1="-4.09" x2="1.336" y2="4.136" xlink:href="#b"/><linearGradient id="ac" x1="-1.977" y1="-0.02" x2="2.802" y2="0.978" xlink:href="#b"/><linearGradient id="ad" x1="0.479" y1="-0.259" x2="1.253" y2="22.135" xlink:href="#b"/><linearGradient id="ae" x1="-0.556" y1="-1.95" x2="2.7" y2="5.607" xlink:href="#b"/><linearGradient id="af" x1="0.282" y1="0.389" x2="1.282" y2="0.874" xlink:href="#b"/><linearGradient id="ag" x1="0.713" y1="-0.573" x2="0.336" y2="1.476" gradientUnits="objectBoundingBox"><stop offset="0" stop-color="#ff9077"/><stop offset="1" stop-color="#e9645a"/></linearGradient><linearGradient id="ah" x1="0.516" y1="0.293" x2="0.373" y2="1.104" xlink:href="#ag"/><linearGradient id="ai" x1="0.713" y1="-0.573" x2="0.336" y2="1.476" xlink:href="#ag"/><linearGradient id="ak" x1="0.713" y1="-0.573" x2="0.336" y2="1.476" gradientUnits="objectBoundingBox"><stop offset="0" stop-color="#faebd8"/><stop offset="1" stop-color="#ffb83f"/></linearGradient><linearGradient id="al" x1="0.516" y1="0.293" x2="0.373" y2="1.104" xlink:href="#ak"/></defs><g transform="translate(-459.915 -166.515)"><g transform="translate(459.915 166.515)"><g class="b"><g transform="translate(-6.383 -18.495)"><rect class="c" width="130.232" height="301.054" transform="translate(99.335 41.823)"/><path class="d" d="M935.152,938.139c-71.874-1.711-141.609-8.129-213.911-18.824-47.06-7.273-90.27-14.974-137.758-24.814-32.514-6.845-62.462-14.118-93.265-24.386-11.182-3.923-22-8.477-32.8-13.083v85.606h545.215v-4.918C980.239,938.534,957.763,938.732,935.152,938.139Z" transform="translate(-452.556 -418.314)"/><path class="e" d="M457.422,685.813v104.2c10.792,4.606,21.614,9.159,32.8,13.083,30.8,10.268,60.75,17.541,93.265,24.386,47.488,9.84,90.7,17.541,137.758,24.814,72.3,10.7,142.037,17.113,213.911,18.824,22.611.593,45.087.395,67.485-.419V685.813Z" transform="translate(-452.556 -351.292)"/><rect class="f" width="107.487" height="289.651" transform="translate(4.866 44.87)"/><rect class="e" width="145.91" height="44.87" transform="translate(81.398)"/><path class="g" d="M618.993,189.484v-28.23l-32.1-15.335V254.456c6.319-14.264,13.062-28.411,19.889-42.6C610.506,204.142,615.055,196.925,618.993,189.484Z" transform="translate(-503.236 -139.958)"/><path class="h" d="M618.993,395.023a615.756,615.756,0,0,0-32.1,69.595v6.91c9.38-16.8,19.795-32.914,32.1-47.752Z" transform="translate(-503.236 -237.466)"/><path class="h" d="M586.893,577.09v81.448l32.1-39.648V514.846c-1.492,1.955-2.729,4.1-4.082,6.131C604.476,539.47,595.347,558.209,586.893,577.09Z" transform="translate(-503.236 -284.369)"/><path class="g" d="M586.893,490.022v58.659c8.454-18.881,17.583-37.62,28.018-56.113,1.354-2.03,2.591-4.177,4.082-6.131V442.27C606.688,457.108,596.273,473.222,586.893,490.022Z" transform="translate(-503.236 -255.961)"/><path class="g" d="M618.993,254.717c-12.333,17.079-22.677,35.49-32.1,54.464V409.7a615.758,615.758,0,0,1,32.1-69.595Z" transform="translate(-503.236 -182.546)"/><path class="h" d="M606.782,239.877c-6.827,14.19-13.57,28.338-19.889,42.6v12.137c9.423-18.974,19.767-37.385,32.1-54.464V217.506C615.055,224.946,610.506,232.164,606.782,239.877Z" transform="translate(-503.236 -167.98)"/><path class="i" d="M984,432.166c-23.923,24.454-48.009,46.433-70.62,70.96h267.735V219.1a744.511,744.511,0,0,1-62.351,71.881C1072.132,338.046,1030.206,384.678,984,432.166Z" transform="translate(-631.035 -168.606)"/><path class="j" d="M891.433,216.249h-64.78v69.97C847.725,261.93,868.358,238.214,891.433,216.249Z" transform="translate(-597.086 -167.488)"/><path class="k" d="M891.433,216.249c-23.076,21.965-43.708,45.681-64.78,69.97v9.208c24.62-26.185,49.916-52.084,74.694-79.178Z" transform="translate(-597.086 -167.488)"/><path class="j" d="M901.347,216.249c-24.778,27.094-50.074,52.994-74.694,79.178V399.444q3.5-5.334,7.032-10.75c37.22-56.9,68.023-107.811,108.667-162.144a81.4,81.4,0,0,1,8.512-10.3Z" transform="translate(-597.086 -167.488)"/><path class="l" d="M950.864,216.249a81.4,81.4,0,0,0-8.512,10.3c-40.644,54.333-71.447,105.244-108.667,162.144q-3.536,5.42-7.032,10.75v41.978c7.986-12.5,16.281-25.1,25-38.183,44.267-66.8,81.232-128.114,131.134-186.991Z" transform="translate(-597.086 -167.488)"/><path class="j" d="M982.787,216.249c-49.9,58.877-86.867,120.2-131.134,186.991-8.719,13.079-17.015,25.683-25,38.183v60.586h52.779c22.611-24.527,46.7-46.506,70.62-70.96,46.2-47.488,88.131-94.121,134.763-141.181a744.512,744.512,0,0,0,62.351-71.881v-1.738Z" transform="translate(-597.086 -167.488)"/><rect class="e" width="274.958" height="48.761" transform="translate(224.703)"/><rect class="e" width="9.727" height="328.56" transform="translate(224.703 5.961)"/><rect class="m" width="4.864" height="368.208" transform="translate(78.794 5.961)"/><rect class="e" width="320.515" height="15.501" transform="translate(229.567 206.947)"/><rect class="e" width="73.731" height="16.292" transform="translate(4.866 205.148)"/><path class="e" d="M586.892,494.283l32.1-11.1v5.694l-32.1,15.834Z" transform="translate(-503.235 -271.975)"/><path class="n" d="M565.183,684.312,449.426,829.41l71.334,26.043s58.066-117.585,83.889-160.309c8.614-14.251,11.87,4.991,11.87,4.991-5.05,10.1-9.405,29.395-11.2,40.367-2.532,15.487-11.138,35.72-2.753,50.754,5.918,10.612,33.491,10.891,37.946-1.994,1-2.9.405-6.077-.2-9.083-4.982-24.731-6.767-50.762-9.415-76.047l32.287,14.312,97.379,12.348,7.909-48.813Z" transform="translate(-449.426 -349.791)"/><g transform="translate(279.182 252.089)"><path class="o" d="M909.236,632.255c-.351.169-.7.327-1.055.488v41.465a5.149,5.149,0,0,0,5.134,5.134h13.726a5.149,5.149,0,0,0,5.134-5.134V607.86C927.349,618.1,920.107,626.82,909.236,632.255Z" transform="translate(-908.181 -572.867)"/><path class="p" d="M927.041,577.314h-7.175A11.719,11.719,0,0,0,908.181,589v31.787c.352-.161.7-.319,1.055-.488,10.871-5.435,18.113-14.154,22.939-24.395V582.448A5.149,5.149,0,0,0,927.041,577.314Z" transform="translate(-908.181 -560.91)"/><rect class="q" width="2.81" height="18.158" rx="1.405" transform="translate(13.294)"/><rect class="q" width="9.679" height="1.945" rx="0.973" transform="translate(11.181 7.998)"/><rect class="q" width="6.161" height="1.945" rx="0.973" transform="translate(11.181 10.268)"/></g><g transform="translate(99.335 69.171)"><g transform="translate(28.439 47.435)"><path class="h" d="M681.486,327.733s-11.012,1.308-13.43,11.2c-1.566,6.408-4.938,12.278-6.506,18.852-1.35,5.659-4.816,17.228,1.532,21.157a3.566,3.566,0,0,0,2.45.59c1.527-.273,2.444-1.806,3.158-3.183,3.561-6.867,8.278-13.773,10.848-21.076C683.367,344.4,681.486,327.733,681.486,327.733Z" transform="translate(-659.387 -327.733)"/></g><g transform="translate(88.454 87.007)"><path class="r" d="M786.172,475.952s7.466-1.54,7.52-3.41c0,0-4.529-1.392-7.4-1.117Z" transform="translate(-769.03 -423.537)"/><path class="r" d="M777.152,475.934s-9.177,3.031-14.024-.163c.377-.2,11.426-7.135,21.544-3.248" transform="translate(-760.01 -423.518)"/><path class="s" d="M769.371,438.14c2.608,1.827,4.862,3.8,5.938,7.408,1.184,3.982.807,9.555,1.083,13.877.12,1.9.333,3.748.38,5.575a16.853,16.853,0,0,1-.721,5.817c-.793,2.414-3.063,2.606-5.008,1.873-2.324-.874-3.053-4.111-3.4-5.657-.054-.242-.307-.469-.365-.737-1-4.561-2.508-12.666-4.631-15.865a4.776,4.776,0,0,0-1.079-1.186Z" transform="translate(-759.4 -410.522)"/><path class="s" d="M778.9,482.274a85.264,85.264,0,0,1-.07,9.564c-.142,2.053-.063,4.838-2.023,6.161a8.273,8.273,0,0,1-4.032,1.166c-.8.078-1.125-.424-1.789-.71a11.912,11.912,0,0,1-2.009-.921,5.594,5.594,0,0,1-1.582-1.876,2.754,2.754,0,0,1-.394-.965,3.035,3.035,0,0,1,.055-1.155,20.871,20.871,0,0,1,1.955-5.224,4.819,4.819,0,0,0,.715-2.249,9.668,9.668,0,0,0-.335-2.494" transform="translate(-761.514 -427.798)"/><g transform="translate(1.4 27.618)"><path class="t" d="M769.371,438.14c2.608,1.827,4.862,3.8,5.938,7.408,1.184,3.982.807,9.555,1.083,13.877.12,1.9.333,3.748.38,5.575a16.853,16.853,0,0,1-.721,5.817c-.793,2.414-3.063,2.606-5.008,1.873-2.324-.874-3.053-4.111-3.4-5.657-.054-.242-.307-.469-.365-.737-1-4.561-2.508-12.666-4.631-15.865a4.776,4.776,0,0,0-1.079-1.186Z" transform="translate(-760.799 -438.14)"/><path class="t" d="M778.9,482.274a85.264,85.264,0,0,1-.07,9.564c-.142,2.053-.063,4.838-2.023,6.161a8.273,8.273,0,0,1-4.032,1.166c-.8.078-1.125-.424-1.789-.71a11.912,11.912,0,0,1-2.009-.921,5.594,5.594,0,0,1-1.582-1.876,2.754,2.754,0,0,1-.394-.965,3.035,3.035,0,0,1,.055-1.155,20.871,20.871,0,0,1,1.955-5.224,4.819,4.819,0,0,0,.715-2.249,9.668,9.668,0,0,0-.335-2.494Z" transform="translate(-762.913 -455.416)"/><path class="u" d="M767.218,490c-.97,1.245-2.111,2.367-3.034,3.645a27.111,27.111,0,0,0-1.491,2.686,28.23,28.23,0,0,1-1.682,2.846c-.313.437-.983,1.413-.584,2.053.172.274.466.265.749.208a4.226,4.226,0,0,0,2.644-1.649c.247-.318.24-.949.741-.926s.546.719.6,1.07c.187,1.223.206,2.381.334,3.59" transform="translate(-760.304 -458.44)"/><path class="u" d="M780.692,504.719a21.965,21.965,0,0,1-1.277,5.338c-.308.777-1.022,2.388.487,2.3.525-.031.887-.675,1.132-1.131a23.338,23.338,0,0,0,1.7-5.374,13.482,13.482,0,0,0,.512-3" transform="translate(-767.612 -463.47)"/><path class="u" d="M775.631,505.946a26.56,26.56,0,0,1-1.186,7.4,6.761,6.761,0,0,1-1.028,1.842c-.3.424-.664,1.017.029,1.207a1.9,1.9,0,0,0,1.9-.965,18.851,18.851,0,0,0,2.849-8.527,8.131,8.131,0,0,0,.042-1.153.108.108,0,0,0-.042-.1.041.041,0,0,0-.064.042" transform="translate(-765.292 -464.565)"/><path class="u" d="M771.245,508.182c-.221,1.352-.42,2.692-.646,4.046a5.85,5.85,0,0,1-.291,1.232,6.169,6.169,0,0,1-.646,1.164,12.112,12.112,0,0,0-1.568,2.711,1.58,1.58,0,0,0-.1,1.108.592.592,0,0,0,.714.354c.7-.174,1.065-.8,1.475-1.333.509-.667,1.007-1.294,1.489-1.966a9.3,9.3,0,0,0,1.108-1.862,6.513,6.513,0,0,0,.339-1.257c.164-.852.28-1.736.41-2.579a13.382,13.382,0,0,0,.082-2.092.193.193,0,0,0-.029-.124.063.063,0,0,0-.1,0" transform="translate(-763.289 -465.312)"/><path class="u" d="M770.512,506.19a13.842,13.842,0,0,1-.626,3.986,15.754,15.754,0,0,1-1.307,2.951c-.29.482-.588.877-.914,1.367s-1.257,2-1.9,1.111c-.587-.807.322-1.936.629-2.72a13.98,13.98,0,0,0,1.1-4,22.773,22.773,0,0,0-.411-4.452c-.015-.128-.071-.24-.209-.25" transform="translate(-762.365 -463.99)"/></g><path class="v" d="M774.714,392.758q.21,1,.409,1.994c1.324,6.631,2.294,13.329,2.953,20.058.293,2.99.817,5.993,1.1,9.021.3,3.29.64,6.583,1.269,9.829q.481,2.477,1.06,4.933c.144.612.532,2.862,1.165,3.168-8.253-3.95-21.544,3.248-21.544,3.248L758,426.125" transform="translate(-758.004 -392.758)"/></g><g transform="translate(85.944 52.649)"><path class="h" d="M774.11,376.511a82.751,82.751,0,0,1-5.1,11.488,33.867,33.867,0,0,1-8.237,10.715c-.835-10.078-1.671-20.16-2.943-30.193-.83-6.541-3.839-12.69-3.954-19.2-.02-1.129.373-12.741,2.032-12.95.009,0,11.081-1.391,13.5,8.5,1.717,7.03,3.986,13.931,4.888,21.14C774.716,369.346,775.118,373.23,774.11,376.511Z" transform="translate(-753.879 -336.3)"/></g><path class="w" d="M770.23,717.415c3.033,2.014,5.976,3.8,8.431,6.461,1.46,1.584,6.744,4.64,5.723,7.174-.564,1.4-2.5,1.487-3.99,1.234a67.578,67.578,0,0,1-11.977-3.594l-7.657-2.824a1.628,1.628,0,0,1-.651-.362,1.648,1.648,0,0,1-.332-.922c-.414-2.9-1.684-6.493.625-8.943,1.859-1.972,4.856-1.722,7.093-.527,2.263,1.208,4.063,3.157,6.323,4.372" transform="translate(-669.961 -431.57)"/><path class="w" d="M688.824,735.379a38.361,38.361,0,0,1,2.15-6.506l2.235-5.614c1.53-3.843,3.991-9.293,9-9.066,4.278.195,6.877,5.215,5.2,8.9-1.768,3.888-6.29,7.333-9.187,10.388C696.766,735.015,687.51,741.869,688.824,735.379Z" transform="translate(-642.42 -431.569)"/><path class="x" d="M733.624,585.948c-.988-9.889-1.372-19.952-2.65-29.792-2.936-22.529-5.845-44.967-7.981-67.63-.907-9.62-3.388-25.785,4.626-32.861,4.544-4.012,11.712-5.3,15.5.366,2.2,3.3,3.118,7.786,3.806,12.135,1.678,10.6,2.441,21.422,3.2,32.214,1.94,27.545,3.88,55.1,5.113,82.723.436,9.775,1.683,19.551,2,29.279a1.6,1.6,0,0,1-.106.776,1.333,1.333,0,0,1-.674.538c-4.884,2.326-11.072,4.981-16.466,5.013-4.578.026-4.3-7.973-4.466-11.362C735.176,600.227,734.333,593.048,733.624,585.948Z" transform="translate(-655.421 -329.023)"/><g transform="translate(52.874 29.062)"><path class="y" d="M721.524,301.886s.27,8.329,1.335,12.06l8.437,5.885-31.76,4.753,7.574-10.465s2.287-11.167,1.088-15.3S721.524,301.886,721.524,301.886Z" transform="translate(-699.537 -297.542)"/></g><path class="x" d="M691.112,603.721c-.4-23.2-4.977-46.421-4.977-69.578-1.6-19.341-3.859-39-1.815-58.413.506-4.805,2.9-17.715,8.906-17.433,4.272.2,12.085-.539,15.958,1.636,2.408,1.352,2.837,4.913,2.871,7.91.113,9.8-1.683,19.489-1.548,29.134.267,19.018-1.457,37.7-.777,56.642.69,19.373,2.362,38.679,1.748,58.084l-.235,7.421c-.252,7.949-11.239,2.053-14.649-.649-5.689-4.509-5.349-6.879-5.482-14.561Z" transform="translate(-640.388 -331.404)"/><g transform="translate(42.283 45.464)"><path class="z" d="M732.175,410.757a10.214,10.214,0,0,1-2.752,3.578,33.368,33.368,0,0,1-18.66,7.6,46.458,46.458,0,0,1-17.291-1.924c-2.407-.709-6.246-1.5-7.942-3.3a51.068,51.068,0,0,1-2.623-5.085c-1.206-2.29-.675-4.6-.545-7.221q.418-8.452.833-16.9l1.243-25.238c-.065-.717-.113-1.454-.133-2.208-.028-.991-.008-2.164.052-3.469.492-10.4,3.634-29.114,6.031-30.121a44.034,44.034,0,0,1,9.859-1.97c0,.124,3.654,5.467,7.99,6.064a15.023,15.023,0,0,0,7.76-5.89c1.728.2,3.546.451,5.475.817.141.024.287.053.431.081a59.376,59.376,0,0,1,6.777,1.74s3.114,1.209,2.425,22.922l.753,26.786.565,20.111C732.568,402.164,733.977,406.746,732.175,410.757Z" transform="translate(-682.135 -324.494)"/></g><g transform="translate(35.013 45.389)"><path class="h" d="M677.321,372.971l-1.37,73.8a130.561,130.561,0,0,0,20.562,3.463l2.461-90.215-.682-6.15-1.606-14.494c-.481-4.338-.843-8.708-1.473-13.013a2.717,2.717,0,0,0-.45-1.346,1.811,1.811,0,0,0-1.092-.595,6.081,6.081,0,0,0-1.938.108c-5.386.68-11.192,2.184-15.473,5.672-4.153,3.384-6.072,14.922-6.072,14.922l9.57,10.053Z" transform="translate(-670.188 -324.372)"/></g><g transform="translate(73.286 45.394)"><path class="h" d="M754.27,372.974l1.371,73.8a130.577,130.577,0,0,1-20.562,3.463l-2-87.525.035-.4.854-9.707,1.28-14.552.5-5.679c.054-.615.105-1.229.162-1.843.159-1.714-.222-3.216.556-4.886a2.308,2.308,0,0,1,.671-.919c.766-.562,1.887-.294,2.772-.184,5.357.665,11.155,2.228,15.423,5.663,6.561,5.281,7.879,18.279,7.879,18.279l-11.378,6.7Z" transform="translate(-733.079 -324.379)"/></g><path class="aa" d="M708.828,267.543c-2.4,2.992-2.477,7-2.075,10.64.4,3.621.657,8.041,2.123,11.356,1.777,4.015,5.764,7.934,10.383,8.1,5.716.2,8.737-5.837,10.623-10.345.959-2.291.831-4.384,1.179-6.811.645-4.5.686-9.564-2.424-13.225C724.217,262.053,713.1,262.213,708.828,267.543Z" transform="translate(-649.416 -255.135)"/><path class="aa" d="M706.637,287.614a2.115,2.115,0,0,0-1.279-1.319,1.521,1.521,0,0,0-.993-.04,2.32,2.32,0,0,0-1.3,2.309,12.338,12.338,0,0,0,1.1,4.583,2.471,2.471,0,0,0,.863,1.145,1.131,1.131,0,0,0,1.4-.286" transform="translate(-648.043 -264.036)"/><path class="ab" d="M701.439,258.868a7.291,7.291,0,0,1,2.213-1.562,4.013,4.013,0,0,1,5.394,2.055c1.2,2.765-.246,4.61-.917,7.17-.342,1.3-2.553,10.229-3.852,10.046a1.605,1.605,0,0,1-.983-.789C700.391,271.61,697.319,263.213,701.439,258.868Z" transform="translate(-646.626 -252.58)"/><path class="ab" d="M717.912,263.7c.511.091,1.021.17,1.524.238,3.149.428,7.2-1.724,9.528,1.4a7.553,7.553,0,0,1,1.135,2.675c.155.606.285,1.218.458,1.819.128.449.285.716.725.312a3.242,3.242,0,0,0,.6-2.16c.375-5.312.932-11.22-3.771-14.924-3.674-2.894-9.523-3.852-14.023-2.953-1.845.369-4.613.882-6.162,2.073-3.853,2.961.529,7.271.529,7.271a15.1,15.1,0,0,0,6.258,3.489,26.2,26.2,0,0,0,3.3.845,7.512,7.512,0,0,1,3.446,1.042,15.188,15.188,0,0,1,2.726,2.63,5.62,5.62,0,0,0-2.081-3.606,7.675,7.675,0,0,1,4.9,2.341,4.289,4.289,0,0,0-1.271-2.782" transform="translate(-649.328 -249.787)"/><path class="ac" d="M732.338,288.646s-13.466,6.587-22.334,1.417c0,0-1.611,15.656,12.308,17.8C722.365,308.4,735.674,304.589,732.338,288.646Z" transform="translate(-650.738 -264.998)"/><path class="ad" d="M708.671,291.078c-.607-.625-.943-1.417-1.526-2.058a24.081,24.081,0,0,0-2.655-2.339" transform="translate(-648.602 -264.229)"/><g transform="translate(45.305 42.559)"><circle class="ae" cx="4.368" cy="4.368" r="4.368" transform="translate(28.89 25.427) rotate(-27.227)"/><circle class="af" cx="4.368" cy="4.368" r="4.368" transform="matrix(0.894, -0.449, 0.449, 0.894, 28.451, 25.481)"/><circle class="ag" cx="2.732" cy="2.732" r="2.732" transform="translate(30.647 26.207) rotate(-26.624)"/><path class="ag" d="M741.595,347.31c.1-.406,2.53-10.031.5-18.281a23.368,23.368,0,0,0-3.045-7.7c-.925-1.3-1.458-1.488-1.778-1.58s-.019,1.274-.019,1.274,1.79.793,3.64,8.3c1.957,7.942-.47,17.58-.494,17.676Z" transform="translate(-706.68 -319.731)"/><path class="ag" d="M701.352,346.494c.005-.13.539-13.082,1.585-18.135a11.392,11.392,0,0,1,2.567-5.239,11.872,11.872,0,0,1,1.934-1.765l.326-1.635c-.158.091-4.928,3.014-6.04,8.387-1.067,5.153-1.588,17.8-1.61,18.337Z" transform="translate(-692.194 -319.72)"/><path class="ag" d="M701.031,385.19l1.237-.085-1.193-17.458a5.324,5.324,0,0,0-2.837-4.368,5.388,5.388,0,0,0-5.254.135l-.614.367a5.338,5.338,0,0,0-2.548,3.793l-2.722,17.9,1.226.186,2.721-17.9a4.1,4.1,0,0,1,1.959-2.915l.614-.367a4.14,4.14,0,0,1,4.038-.1,4.092,4.092,0,0,1,2.18,3.357Z" transform="translate(-687.1 -336.528)"/></g><path class="r" d="M649.008,355.848s-11.067,1.416-13.912,7.674C635.1,363.522,646.873,362.7,649.008,355.848Z" transform="translate(-621.439 -291.303)"/><g transform="translate(0 37.267)"><path class="y" d="M634.087,342a14.927,14.927,0,0,1-3.049-4.043c-.752-1.535-.754-3.287-1.1-4.947a9.667,9.667,0,0,1-.167-3.485,3,3,0,0,1,.506-1.375,8.915,8.915,0,0,1,1.1-1.36c.787-.747,2.24-1.554,3.354-1.262a6.066,6.066,0,0,1,2.872,2.265c3.216,3.855,4.3,8.559,5.711,13.286.839,2.813,1.414,5.875,2.919,8.435a13.992,13.992,0,0,1,1.688,3.3,3.285,3.285,0,0,1-.837,3.413,3.087,3.087,0,0,1-3.244.146,7.672,7.672,0,0,1-2.493-2.313,22.566,22.566,0,0,1-3.746-6.866,11.843,11.843,0,0,0-1.241-3.162A14.944,14.944,0,0,0,634.087,342Z" transform="translate(-619.319 -316.679)"/><path class="y" d="M629.786,321.258a16.526,16.526,0,0,0-3.828-3.727c-1.444-1.056-2.985-1.971-4.488-2.941a3.5,3.5,0,0,1-1.1-.965c-.3-.467.266-.9.7-.827a6.459,6.459,0,0,1,1.693.629,15.744,15.744,0,0,1,2.956,2.02c2.262,1.862,4.54,3.815,6.648,5.846" transform="translate(-615.64 -311.715)"/><path class="y" d="M628.079,321.029a46.8,46.8,0,0,0-6.145-5.757,32.879,32.879,0,0,0-5.156-3.314,7.286,7.286,0,0,0-2.188-.921c-.683-.095-1.112.324-.953.967a3.47,3.47,0,0,0,1.344,1.686c2.138,1.689,4.456,3.135,6.591,4.829.716.568,1.411,1.164,2.068,1.8.9.874,1.716,1.823,2.644,2.671" transform="translate(-613.026 -311.024)"/><path class="ah" d="M626.63,324.474a11.854,11.854,0,0,0-3.323-3.165c-.581-.419-1.158-.871-1.733-1.308-.553-.42-1.112-.833-1.7-1.207-1.361-.871-2.758-1.692-4.17-2.445a9.765,9.765,0,0,0-1.988-.93c-.828-.211-1.265.372-.976,1.174a5.064,5.064,0,0,0,2.008,2.087c1.534,1.072,3.124,2.083,4.575,3.254a30.46,30.46,0,0,1,4,3.819" transform="translate(-612.655 -312.728)"/><path class="y" d="M628.345,342.318c-.9-.951-1.1-2.2-1.882-3.183s-2.428-1.652-3.494-2.294a5.008,5.008,0,0,1-2.143-1.955,1.621,1.621,0,0,1-.135-1.109.965.965,0,0,1,.8-.715,1.554,1.554,0,0,1,.6.11c1.274.411,5.872,2.978,6.314.59" transform="translate(-615.782 -319.65)"/></g><g transform="translate(13.657 65.019)"><path class="h" d="M648.94,356.627c-1.288,1.757,6.3,12.84,7.227,14.722,1.385,1.384,2.374,5.412,3.362,7.246a8.573,8.573,0,0,1,.9,2.115,7.474,7.474,0,0,1,.032,2.511,11.226,11.226,0,0,1-1.758,5.352c-7.507,10.4-15.8-9.187-18.191-14.22-.5-1.044-4.354-10.649-5.42-10.526C635.1,363.827,644.806,362.483,648.94,356.627Z" transform="translate(-635.096 -356.627)"/><path class="ai" d="M649.43,359.049a20.959,20.959,0,0,1-10.242,5.123" transform="translate(-636.698 -357.575)"/></g><path class="h" d="M653.35,391.416s6.787-5.476,12.643.187l-12.678.1Z" transform="translate(-628.57 -304.294)"/></g><path class="aj" d="M722.136,545.439c-2.317-2.656-5.094-4.43-7.954-6.437l3.384,2.062a28.388,28.388,0,0,1-3.658-2.731c.339-.167.673-.333,1-.5a1.273,1.273,0,0,0,.637-.536,1.682,1.682,0,0,0,.1-.773c-.3-9.691-1.476-19.428-1.888-29.165-1.164-27.517-2.994-54.964-4.824-82.4q-.108-1.61-.217-3.221l.319-.08a.546.546,0,0,0,.437.066c.665-.173,1-.792,1.392-1.328.481-.665.949-1.29,1.405-1.958q.18-.264.35-.532a11.264,11.264,0,0,1-.6.969c-.284.422-.626,1.013.027,1.2a1.77,1.77,0,0,0,1.8-.961,15.512,15.512,0,0,0,1.262-2.447c.077.3.315.506.845.473.495-.032.837-.673,1.068-1.128a24.22,24.22,0,0,0,1.606-5.352,15,15,0,0,0,.466-2.745,26.72,26.72,0,0,0,.284-3.189,89.634,89.634,0,0,0,.066-9.526l-.013,0h0c-.017-.689-.06-1.383-.108-2.079.88-.2,6.938-1.645,6.986-3.373h0a16.442,16.442,0,0,0-5.955-1.169,12.446,12.446,0,0,1,5.955,1.169c-.6-.3-.963-2.546-1.1-3.156q-.548-2.446-1-4.914c-.594-3.233-.912-6.513-1.2-9.791-.263-3.017-.758-6.008-1.034-8.987q-.766-8.244-2.148-16.406c.856-3.211.49-6.958.106-10.195a114.056,114.056,0,0,0-3.025-14.631c-.594-3.754-2.427-12.339-7.188-16.385-4.027-3.422-9.5-4.979-14.552-5.641a8.96,8.96,0,0,0-1.592-.152,11.585,11.585,0,0,0-.714-1.237c-.873-1.293-1.376-1.482-1.678-1.574s-.018,1.269-.018,1.269.557.263,1.362,1.9l-.017.016c-.253-.034-.5-.066-.75-.1l-.292-.214a30.01,30.01,0,0,1-.7-4.1c3.35-2.252,7.557-7.241,5.949-16.8a29.477,29.477,0,0,0,.212-4.14,3.475,3.475,0,0,0,.54-2.117c.354-5.291.879-11.177-3.558-14.867-3.466-2.883-8.985-3.837-13.231-2.942-1.74.368-4.352.879-5.814,2.065a3.761,3.761,0,0,0-1.44,2.3l-.045.019a6.89,6.89,0,0,0-2.088,1.556c-3.631,4.042-1.341,11.606,1.208,15.977a1.412,1.412,0,0,0-.188.13l-.006,0,0,.005a2.6,2.6,0,0,0-.823,2.061,12.846,12.846,0,0,0,1.041,4.565,2.461,2.461,0,0,0,.814,1.14,1.052,1.052,0,0,0,1.165-.113,20.238,20.238,0,0,0,1.17,4.245,15.592,15.592,0,0,0,2.047,3.489c-.361,3.674-1.014,7.168-1.1,7.642a.565.565,0,0,1-.058-.114c-.44.047-.861.1-1.273.155-.027-.014-.055-.024-.083-.037a11.2,11.2,0,0,1,1.5-1.383l.307-1.629a14,14,0,0,0-3.05,2.834c-.34.028-.676.094-1.022.141-5.082.678-10.559,2.175-14.6,5.651-2.817,2.424-4.545,9.047-5.293,12.577-1.217,3.483-2.67,6.907-3.763,10.489-2.154-3.779-4.5-8.257-3.76-9.318-.071.106-.147.208-.222.312a7.1,7.1,0,0,0,.287-.784,24.439,24.439,0,0,0-2.48.512c-.3-1.133-.577-2.274-.888-3.376-1.329-4.707-2.355-9.394-5.388-13.234a8.738,8.738,0,0,0-1.7-1.761c-1.925-1.941-3.989-3.812-6.043-5.6a14.849,14.849,0,0,0-2.789-2.011,5.9,5.9,0,0,0-1.6-.627.682.682,0,0,0-.7.367c-.294-.175-.588-.351-.885-.515a6.679,6.679,0,0,0-2.065-.917.738.738,0,0,0-.9.963,3.431,3.431,0,0,0,1.268,1.68c.538.449,1.088.879,1.644,1.3-.2-.117-.4-.236-.607-.35a9.014,9.014,0,0,0-1.876-.927c-.781-.209-1.194.371-.921,1.169a4.936,4.936,0,0,0,1.894,2.079c1.448,1.069,2.949,2.075,4.317,3.241a30,30,0,0,1,3.578,3.572c0,.02-.007.038-.01.058a8.7,8.7,0,0,0-.037,2.165,27.617,27.617,0,0,1-3.878-1.5,1.4,1.4,0,0,0-.562-.108.928.928,0,0,0-.754.712,1.7,1.7,0,0,0,.127,1.1,4.838,4.838,0,0,0,2.022,1.947c1.005.639,2.561,1.306,3.3,2.285.677.9.9,2.027,1.594,2.94a16.124,16.124,0,0,0,2.263,2.878,14.382,14.382,0,0,1,2.149,2.025,11.194,11.194,0,0,1,1.121,2.979,10.374,10.374,0,0,0-4.318,4.586c1.006-.122,4.646,9.445,5.114,10.485,2.07,4.6,8.821,21.385,15.388,16.149a4.772,4.772,0,0,0,1.638-1.792c.046-.064.091-.125.137-.191a8.11,8.11,0,0,0,.938-1.887c1.464-2.9,3.1-5.809,4.66-8.756l-1,7.678L658.048,421.4s.876.239,2.334.592c.365,11.442,1.468,22.889,2.356,34.224,0,23.067,4.318,46.2,4.7,69.308,0,.065,0,.129,0,.194.108,6.618-.114,9.278,3.3,12.782a23.78,23.78,0,0,0-3.236,6.322l-2.109,5.592a39.708,39.708,0,0,0-2.029,6.481c-1.24,6.465,7.493-.363,8.863-1.889,2.733-3.043,7-6.475,8.668-10.347.01-.022.017-.044.026-.066,2.905.708,5.4.113,5.515-3.724q.111-3.7.221-7.392c.58-19.329-1-38.561-1.649-57.858-.455-13.356.225-26.583.574-39.89,1.614,14.951,3.441,29.849,5.284,44.787,1.206,9.8,1.569,19.826,2.5,29.677.669,7.072,1.464,14.224,1.8,21.317.159,3.376-.106,11.344,4.214,11.317a19.791,19.791,0,0,0,4.338-.565c.138,1.325.444,2.664.609,3.878a1.7,1.7,0,0,0,.313.918,1.527,1.527,0,0,0,.615.36l7.225,2.813a61.208,61.208,0,0,0,11.3,3.58c1.406.251,3.233.167,3.765-1.229C728.5,550.061,723.513,547.017,722.136,545.439ZM710.976,416.407a6.233,6.233,0,0,1-.61,1.159c-.134.214-.274.428-.414.644l-.007-.372c.091-.144.181-.29.27-.445a14.6,14.6,0,0,0,1.077-2.488c-.014.092-.027.184-.042.276A6.074,6.074,0,0,1,710.976,416.407Zm-.192-17.43a4.209,4.209,0,0,1-.291,1.4q-.411.523-.836,1.035l-.125-7.119c.167.024.334.047.5.065.155.766.3,1.487.434,2.134A10.125,10.125,0,0,1,710.784,398.976Z" transform="translate(-516.028 -182.369)"/><g transform="translate(297.036 232.28)"><path class="ak" d="M1016.379,542.386l-78.86-14.8,1.664,40.909a219.751,219.751,0,0,0,48.7-9.161A70.843,70.843,0,0,0,1016.379,542.386Z" transform="translate(-937.519 -521.637)"/><path class="al" d="M1017.45,551.905a70.842,70.842,0,0,1-28.491,16.948,219.75,219.75,0,0,1-48.7,9.161l3.2,78.624,88.518-40.694V554.63Z" transform="translate(-938.59 -531.156)"/><path class="am" d="M1069.7,531,987.02,517.81l-5.046.935a54.359,54.359,0,0,1,16.969,13.276l49.359,9.263Z" transform="translate(-954.92 -517.81)"/><path class="an" d="M964.573,519.347l-27.054,5.014,44.023,8.262A54.358,54.358,0,0,0,964.573,519.347Z" transform="translate(-937.519 -518.412)"/></g><g transform="translate(309.159 122.865)"><g transform="translate(0 77.568)"><path class="ao" d="M960.787,514.194a15.369,15.369,0,0,0,3.69,1.619c9.9,3.335,19.907,6.505,30.236,8.049s21.06,1.408,31.005-1.783a8.76,8.76,0,0,0,4.52-2.658c1.157-1.535,1.273-3.589,1.344-5.51l.248-6.745a1.883,1.883,0,0,0-1.8-2.446q-18.358-3.736-36.982-5.957c-10.6-1.263-20.93-4.138-30.785,1.682C957.311,503.367,955.149,510.428,960.787,514.194Z" transform="translate(-957.439 -477.79)"/><path class="ap" d="M981.335,494.936c-6.756-.109-14.117.551-19.094,5.121-.9.828-1.748,2.129-1.138,3.189a2.941,2.941,0,0,0,1.683,1.108c5.843,2.065,12.008,3.031,18.131,3.987,5.594.874,11.188,1.747,16.793,2.54,10.63,1.5,21.892,2.639,31.735-1.644,1.862-.81,3.882-2.172,3.931-4.2.071-2.928-3.7-4.114-6.612-4.4C1011.694,499.144,996.75,495.185,981.335,494.936Z" transform="translate(-958.792 -477.005)"/><path class="aq" d="M1037.55,470.08a30.151,30.151,0,0,1,2.7-2.613c3.172-2.7,4.934-2.737,8.012.442a34.128,34.128,0,0,1,8.676,15.937,6.714,6.714,0,0,1-.113,4.5c-2.755,5.488-18.751,6.108-23.323,2.427-5.094-4.1-2.486-11.212.37-15.819A33.13,33.13,0,0,1,1037.55,470.08Z" transform="translate(-986.078 -465.479)"/><path class="ar" d="M1045.841,475.662a17.889,17.889,0,0,0-8.26,13.921,3.5,3.5,0,0,0,.382,2.142,3.219,3.219,0,0,0,1.049.919c3.738,2.286,8.583,1.784,12.693.268,1.352-.5,2.8-1.238,3.266-2.6a5.364,5.364,0,0,0-.46-3.521c-1.319-3.533-2.716-7.19-5.417-9.822a4.46,4.46,0,0,0-1.974-1.249c-2.063-.5-3.835,1.442-5.069,3.17" transform="translate(-988.803 -469.455)"/><path class="as" d="M1029.347,500.891c.311,1.658-1.059,3.152-2.478,4.066s-3.076,1.642-3.938,3.091a7.934,7.934,0,0,0-.8,3.668l-.378,6.924a4.476,4.476,0,0,1-.776,2.76,3.789,3.789,0,0,1-2.227,1.055,10.14,10.14,0,0,1-9.2-3.005c-4.984-5.706,5.333-2.272,6.2-3.177a2.069,2.069,0,0,0,.357-1.575c-.311-5.572-.587-9.848,4.294-13.46C1022.517,499.672,1028.485,496.283,1029.347,500.891Z" transform="translate(-977.307 -478.429)"/></g><path class="at" d="M1000.377,346.974l2.926,197.987,5.325-.848-2.707-197.482Z" transform="translate(-974.247 -341.389)"/><path class="au" d="M963.329,342.562c-.229.019-.285.329-.262.558.312,3.135,4.387,4.645,6.975,3.158.965-.554,1.595-1.765,2.72-1.87.713-.066,1.432-.088,2.146-.133l19.072-1.181,12.881-.8a18.261,18.261,0,0,0,2.687.88,4.075,4.075,0,0,0,4.282-5.159" transform="translate(-959.64 -338.018)"/><line class="av" y2="43.595" transform="translate(43.648 4.418)"/><rect class="aq" width="12.112" height="26.185" rx="6.056" transform="translate(38.345 48.013)"/></g><g class="aw" transform="translate(278.85 122.573)"><g transform="translate(0 129.223)"><path class="ax" d="M908.69,631.775c-.351.169-.7.327-1.055.487v41.465a5.149,5.149,0,0,0,5.134,5.134h13.726a5.149,5.149,0,0,0,5.134-5.134V607.379C926.8,617.621,919.561,626.339,908.69,631.775Z" transform="translate(-907.635 -572.386)"/><path class="ay" d="M926.495,576.833H919.32a11.719,11.719,0,0,0-11.685,11.685v31.787c.352-.161.7-.319,1.055-.487,10.871-5.436,18.113-14.154,22.939-24.4V581.967A5.149,5.149,0,0,0,926.495,576.833Z" transform="translate(-907.635 -560.429)"/><rect class="az" width="2.81" height="18.158" rx="1.405" transform="translate(13.294)"/><rect class="ba" width="9.679" height="1.945" rx="0.973" transform="translate(11.181 7.998)"/><rect class="bb" width="6.161" height="1.945" rx="0.973" transform="translate(11.181 10.268)"/></g><g transform="translate(17.854 109.415)"><path class="bc" d="M1015.833,541.9l-78.86-14.8,1.664,40.909a219.74,219.74,0,0,0,48.7-9.161A70.839,70.839,0,0,0,1015.833,541.9Z" transform="translate(-936.973 -521.156)"/><path class="bd" d="M1016.9,551.424a70.84,70.84,0,0,1-28.492,16.948,219.743,219.743,0,0,1-48.7,9.161l3.2,78.624,88.518-40.694V554.149Z" transform="translate(-938.044 -530.675)"/><path class="be" d="M1069.156,530.516l-82.682-13.187-5.046.935A54.359,54.359,0,0,1,998.4,531.54l49.359,9.263Z" transform="translate(-954.374 -517.329)"/><path class="bf" d="M964.027,518.866l-27.054,5.014L981,532.142A54.358,54.358,0,0,0,964.027,518.866Z" transform="translate(-936.973 -517.931)"/></g><g transform="translate(29.977)"><g transform="translate(0 77.568)"><path class="bg" d="M960.241,513.713a15.366,15.366,0,0,0,3.69,1.619c9.9,3.335,19.907,6.506,30.236,8.049s21.06,1.408,31.005-1.782a8.756,8.756,0,0,0,4.52-2.658c1.157-1.535,1.273-3.589,1.344-5.51l.248-6.745a1.884,1.884,0,0,0-1.8-2.446q-18.358-3.736-36.982-5.957c-10.6-1.263-20.93-4.138-30.785,1.683C956.765,502.886,954.6,509.947,960.241,513.713Z" transform="translate(-956.893 -477.309)"/><path class="bh" d="M980.789,494.455c-6.756-.109-14.117.551-19.094,5.121-.9.828-1.748,2.129-1.139,3.189a2.947,2.947,0,0,0,1.684,1.108c5.843,2.064,12.008,3.031,18.131,3.987,5.594.874,11.188,1.747,16.793,2.54,10.63,1.5,21.892,2.639,31.735-1.644,1.862-.81,3.882-2.172,3.931-4.2.071-2.928-3.7-4.114-6.612-4.4C1011.148,498.663,996.2,494.7,980.789,494.455Z" transform="translate(-958.246 -476.524)"/><path class="bi" d="M1037,469.6a30.154,30.154,0,0,1,2.7-2.613c3.172-2.7,4.934-2.737,8.012.442a34.12,34.12,0,0,1,8.676,15.937,6.712,6.712,0,0,1-.113,4.5c-2.755,5.488-18.751,6.108-23.323,2.427-5.095-4.1-2.486-11.212.37-15.819A33.121,33.121,0,0,1,1037,469.6Z" transform="translate(-985.532 -464.998)"/><path class="bj" d="M1045.295,475.181a17.887,17.887,0,0,0-8.26,13.922,3.492,3.492,0,0,0,.382,2.142,3.218,3.218,0,0,0,1.049.919c3.738,2.286,8.583,1.784,12.693.268,1.353-.5,2.8-1.238,3.266-2.6a5.365,5.365,0,0,0-.46-3.521c-1.319-3.533-2.716-7.19-5.417-9.822a4.46,4.46,0,0,0-1.974-1.249c-2.063-.5-3.835,1.442-5.069,3.171" transform="translate(-988.257 -468.974)"/><path class="bk" d="M1028.8,500.41c.311,1.658-1.059,3.153-2.478,4.066s-3.076,1.642-3.938,3.092a7.934,7.934,0,0,0-.8,3.669l-.378,6.924a4.476,4.476,0,0,1-.776,2.76,3.793,3.793,0,0,1-2.227,1.056,10.141,10.141,0,0,1-9.2-3.006c-4.984-5.706,5.334-2.272,6.2-3.177a2.071,2.071,0,0,0,.357-1.575c-.311-5.572-.587-9.848,4.294-13.46C1021.971,499.191,1027.939,495.8,1028.8,500.41Z" transform="translate(-976.761 -477.948)"/></g><path class="bl" d="M999.831,346.493l2.926,197.987,5.325-.848-2.707-197.482Z" transform="translate(-973.701 -340.908)"/><path class="bm" d="M962.783,342.081c-.229.019-.285.329-.262.558.312,3.135,4.387,4.645,6.974,3.158.966-.554,1.6-1.765,2.72-1.869.712-.066,1.432-.089,2.146-.133l19.073-1.181,12.881-.8a18.255,18.255,0,0,0,2.687.88,4.075,4.075,0,0,0,4.282-5.159" transform="translate(-959.094 -337.537)"/><line class="h" y2="43.595" transform="translate(43.648 4.418)"/><rect class="bn" width="12.112" height="26.185" rx="6.056" transform="translate(38.345 48.013)"/></g></g><g transform="translate(234.43 169.693)"><path class="bo" d="M1134.24,499.677l-3.891-77.819s10.214-7.782,15.078-6.809,85.114,11.186,85.114,11.186,4.377.486,3.4,4.377-6.322,219.837-6.322,219.837l-8.269,3.891L1210.6,522.05Z" transform="translate(-950.394 -414.966)"/><path class="bp" d="M1196.172,468.482c-12.17-24.733-42.711-29.65-69.147-26.987l-3.869,72.2,69.952,20.5q.463-1.83.925-3.679C1199.595,509.552,1206.012,487.734,1196.172,468.482Z" transform="translate(-947.579 -425.097)"/><path class="bq" d="M1221.945,432.583s-80.25-10.214-85.114-11.187a6.118,6.118,0,0,0-6.809,2.918l-.509,9.5c26.436-2.663,56.978,2.255,69.147,26.987,9.84,19.252,3.423,41.071-2.139,62.034q-.463,1.85-.925,3.679L1202,528.4l2.919,128.4h14.1s5.35-215.947,6.323-219.837S1221.945,432.583,1221.945,432.583Z" transform="translate(-950.067 -417.422)"/><path class="br" d="M908.181,642.364c0,.635.02,1.229.052,1.8,21.773-13.257,44.078-23.792,63.86-38.983C946.892,615.534,908.185,633.788,908.181,642.364Z" transform="translate(-863.43 -489.422)"/><path class="bs" d="M992.836,592.713c-2.006.287-10.179,3.235-20.709,7.561-19.783,15.19-42.087,25.726-63.86,38.983.589,10.354,6.265,10.361,6.265,10.361l84.141-47.706S999.645,591.74,992.836,592.713Z" transform="translate(-863.463 -484.517)"/><path class="bt" d="M1142.392,518.048c21.889-2.027,43.39-9.436,59.053-25.128a20.006,20.006,0,0,0-.651-4.87s-82.682-18.968-91.437-13.618c-4.688,2.865-11.327,22.042-16.484,39.243A130.407,130.407,0,0,0,1142.392,518.048Z" transform="translate(-935.725 -437.871)"/><path class="bu" d="M1137.353,530.551a130.405,130.405,0,0,1-49.519-4.373C1083.359,541.1,1080,554.54,1080,554.54l63.227,76.359s14.591,5.351,36.477-53.986c15.568-42.206,17.109-63,16.7-71.49C1180.743,521.115,1159.242,528.525,1137.353,530.551Z" transform="translate(-930.686 -450.374)"/><path class="bv" d="M1162.935,556.034c2.139-.856,3.85-1.283,5.562-2.567,6.845-4.706,8.556-12.835,8.556-19.68-.2-6.008-2.745-11.266-6.491-15.773a91.537,91.537,0,0,0-10.054-2.21c-13.375-2.212-27.1-7.675-40.113-1.331-1.874-1.816-4.683-2.953-7.13-2.047-3.984,1.474-1.561,4.544-2.433,6.936-1.018,2.787-4.021,5.2-5.4,7.931-3.223,6.374-4.249,14.5-4.736,21.523a50.14,50.14,0,0,0,.461,11.859A170.937,170.937,0,0,0,1162.935,556.034Z" transform="translate(-938.727 -452.755)"/><path class="bw" d="M1184.771,529.6c-2.7-3.461-8.29-5.821-13.816-7.4,3.746,4.508,6.291,9.766,6.491,15.773,0,6.845-1.711,14.974-8.556,19.68-1.711,1.283-3.423,1.711-5.562,2.567a170.933,170.933,0,0,1-61.78,4.641c1.39,8.06,5.361,15.027,14.02,18.051a96.185,96.185,0,0,0,31.906,5.368c23.458-.063,35-14.4,41.069-35.766,2.094-7.364,1.49-13.955,3.959-19.187C1195.552,526.865,1185.012,529.911,1184.771,529.6Z" transform="translate(-939.12 -456.941)"/><path class="bx" d="M1072.122,574.314c-.991,2.036-1.164,4.313-2.682,6.336-.109.147-.232.289-.355.431,19.952,5.072,39.7,11.557,59.289,17.079A144.53,144.53,0,0,0,1072.122,574.314Z" transform="translate(-926.413 -477.34)"/><path class="by" d="M1087.487,586c-5.306-4.887-12.084-7.839-18.849-10.346a188.8,188.8,0,0,0-64.155-12.082c-5.018-.033-9.807.36-14.1,2.885q-.665.391-1.313.853a7.155,7.155,0,0,0-2.353,2.8,144.529,144.529,0,0,1,56.253,23.847c-19.594-5.522-39.337-12.006-59.289-17.079-2.478,2.882-7.44,4.973-10.6,6.972q-13.666,8.658-27.891,16.39c-17.277,9.391-32.973,21.356-51.307,28.81-21,8.54-36.368,28.769-42.976,51.145A278.545,278.545,0,0,0,955.2,685.336c25.669-13.69,49.627-28.236,74.013-46.632,1.711-1.284,4.278-1.284,5.989-2.567,18.934-15.778,40.771-27.562,55.463-46.74A33,33,0,0,0,1087.487,586Z" transform="translate(-841.014 -473.135)"/><path class="bz" d="M1097.477,627.469c-1.3-7.747-4.177-15.423-9.115-21.461-14.693,19.178-36.53,30.962-55.463,46.74-1.711,1.283-4.278,1.283-5.989,2.567-24.386,18.4-48.344,32.942-74.013,46.632a278.543,278.543,0,0,1-104.285-5.141,82.86,82.86,0,0,0-3.026,33.394,5.571,5.571,0,0,0,1.063,3.1,5.776,5.776,0,0,0,3.263,1.453l79.141,16.626c14.231,2.989,26.628,8.292,40.312,1.437,20.277-10.158,39.8-21.9,59.19-33.481,20.254-12.1,38.7-28.243,57.856-42.017C1101.1,666.746,1100.223,643.836,1097.477,627.469Z" transform="translate(-838.708 -489.746)"/><path class="br" d="M850.59,750.416c-.428,8.129-.856,16.257-2.995,23.958h.428c-5.381,24.982-1.788,50.309-4.414,75.362l2.813.5q.072-2.28.148-4.562c.666-20.3,1.4-40.6,2.347-60.889.425-9.08.44-18.392,1.6-27.417.307-2.373.452-4.889.974-7.211C851.263,750.382,851.05,750.646,850.59,750.416Z" transform="translate(-838.154 -546.17)"/><path class="br" d="M956.62,734.7c-4.943-5.3-13.789-6.6-20.232-7.677-10.65-1.783-21.383-3.09-32.111-4.3-16.037-1.809-33.2-4.966-49.4-4.231-7.489.34-14.4,6.469-17.317,14.736s-2.432,101.65-2.918,103.11l5.455.963c2.626-25.053-.967-50.38,4.414-75.362h-.428c2.139-7.7,2.567-15.829,2.995-23.958.46.23.673-.035.9-.262.638-2.841,1.839-5.391,4.593-7.033.027-.016.057-.03.085-.046a18.088,18.088,0,0,1,18.8-5.921,96.446,96.446,0,0,0,15.4,2.567c23.1,2.139,45.777,4.706,67.6,11.979-.315,16.058-.623,32.809,4.007,48.381.335-10.153.6-20.308.694-30.465C959.23,750.247,961.791,740.246,956.62,734.7Z" transform="translate(-834.645 -533.734)"/><path class="ca" d="M966.055,742.937c-21.82-7.273-44.494-9.84-67.6-11.979a96.453,96.453,0,0,1-15.4-2.567,18.088,18.088,0,0,0-18.8,5.921c4.132-2.411,10.182-2.176,14.634-2.035,9.436.3,18.867,1.4,28.223,2.607,8.754,1.124,17.569,1.6,26.307,2.924,7.208,1.091,21.572,2.061,26.462,8.553,3.659,4.86.876,17.044.634,22.979q-.7,17.022-1.385,34.044c-.689,17.029-2,34.17-2,51.217,0,2.918,10.214,0,10.214,0,0-.085.009-.17.013-.256q1.44-27.385,2.426-54.792.147-4.119.283-8.237C965.432,775.746,965.74,758.994,966.055,742.937Z" transform="translate(-846.235 -537.407)"/><path class="bs" d="M1180.759,630.684c-4.278,2.139-9.412,3.85-13.262,6.417s-7.273,5.134-11.123,7.7c-13.262,8.556-29.092,13.262-35.937,27.808-7.377,14.753-2.671,31.413,1.509,46.967l3.01-1.948a39.718,39.718,0,0,1-1.645-4.8,68.715,68.715,0,0,1-1.192-7.122c-.743-6.014-1.077-12.079-1.295-18.132-.11-3.047-.416-6.142-.38-9.177.029-2.425.464-5.393,2.406-7.076,2.8-2.429,6.234-4.135,9.362-6.1,7.972-5,16.1-9.754,24.21-14.525,4.548-2.675,9.118-5.311,13.644-8.021,4.391-2.63,8.429-5.521,13.258-7.292a2.571,2.571,0,0,1,2.112-.121,2.091,2.091,0,0,1,.879,1.412,84.028,84.028,0,0,1,1.4,12.57q.57,7.73,1.141,15.46l.783,10.61,5.357-3.684-.007-35.849a10.112,10.112,0,0,0-.012-1.25h-.1C1189.743,634.535,1186.749,628.117,1180.759,630.684Z" transform="translate(-945 -499.168)"/><path class="br" d="M1180.114,621.66c-7.45,3.273-14.549,7.891-21.57,11.973-9.409,5.471-18.74,11.1-27.848,17.057-6.137,4.017-13.32,8.121-18.173,13.741-9.241,10.7,0,52.528,0,52.528l.972,2.432,5.258-3.4c-4.18-15.554-8.886-32.214-1.509-46.967,6.845-14.546,22.674-19.252,35.937-27.808,3.85-2.568,7.273-5.135,11.123-7.7s8.984-4.278,13.262-6.417c5.99-2.567,8.984,3.85,14.118,3.85h.1a13.483,13.483,0,0,0-1.289-4.84C1188.456,621.822,1184.671,619.658,1180.114,621.66Z" transform="translate(-941.809 -495.578)"/><path class="cb" d="M1193.2,686.937c-10.7,8.984-20.108,19.252-32.942,24.814-12.12,5.294-24.951,10.846-38.139,15.573l6.025,30.068,68.946-46.568.51-28.846A34.552,34.552,0,0,1,1193.2,686.937Z" transform="translate(-947.172 -519.484)"/><path class="cc" d="M1117.562,700.858l2.773,13.838c13.188-4.727,26.019-10.279,38.139-15.573,12.835-5.562,22.247-15.829,32.942-24.814a34.553,34.553,0,0,0,4.4-4.959l.348-19.632Z" transform="translate(-945.389 -506.856)"/></g><g transform="translate(414.385 264.738)"><path class="cd" d="M1429.944,655.857l-3.891-77.818s10.214-7.782,15.077-6.809,85.114,11.186,85.114,11.186,4.377.487,3.4,4.377-6.323,219.837-6.323,219.837l-8.268,3.891L1506.3,678.23Z" transform="translate(-1246.099 -571.146)"/><path class="bp" d="M1418.861,662.2l4.377-81.709a6.118,6.118,0,0,1,6.809-2.919c4.864.973,85.114,11.187,85.114,11.187s4.377.486,3.4,4.377-6.322,219.837-6.322,219.837h-14.1l-2.918-128.4Z" transform="translate(-1243.283 -573.602)"/><path class="br" d="M1294.343,758.091s.973-10.172-5.836-9.2-84.616,32.586-84.622,44.745S1210.2,805.8,1210.2,805.8Z" transform="translate(-1159.134 -640.697)"/><path class="bt" d="M1375.7,698.217s15.564-62.255,24.318-67.6,91.437,13.618,91.437,13.618,5.836,17.023-16.05,76.359-36.477,53.987-36.477,53.987Z" transform="translate(-1226.39 -594.051)"/><path class="bv" d="M1396.4,705c-.863,12.456,1.731,25.456,14.481,29.91a96.2,96.2,0,0,0,31.907,5.368c23.458-.063,35-14.4,41.07-35.767,2.093-7.364,1.49-13.955,3.959-19.187,3.05-6.463-7.491-3.416-7.731-3.724-4.5-5.756-16.969-8.471-23.871-9.612-13.374-2.212-27.1-7.675-40.112-1.332-1.874-1.815-4.683-2.952-7.13-2.047-3.984,1.474-1.562,4.544-2.434,6.935-1.018,2.787-4.021,5.2-5.4,7.931C1397.911,689.847,1396.884,697.973,1396.4,705Z" transform="translate(-1234.431 -608.935)"/><path class="by" d="M1250.906,841.516c25.669-13.691,49.627-28.237,74.013-46.633,1.711-1.284,4.278-1.284,5.99-2.567,18.934-15.778,40.771-27.562,55.464-46.74a33.11,33.11,0,0,0-3.181-3.4c-5.307-4.888-12.084-7.839-18.849-10.346a188.8,188.8,0,0,0-64.154-12.082c-5.018-.033-9.808.36-14.1,2.885q-.664.392-1.312.853c-3.507,2.5-2.762,6.105-5.035,9.135-2.332,3.109-7.639,5.306-10.95,7.4q-13.666,8.658-27.891,16.39c-17.276,9.391-32.973,21.355-51.307,28.81-21,8.539-36.369,28.769-42.976,51.144A278.543,278.543,0,0,0,1250.906,841.516Z" transform="translate(-1136.718 -629.315)"/><path class="bz" d="M1393.181,783.649c-1.3-7.747-4.177-15.423-9.115-21.461-14.693,19.178-36.53,30.962-55.464,46.74-1.711,1.283-4.278,1.283-5.989,2.567-24.386,18.4-48.344,32.942-74.013,46.633a278.545,278.545,0,0,1-104.286-5.142,82.857,82.857,0,0,0-3.025,33.394,5.57,5.57,0,0,0,1.063,3.1,5.772,5.772,0,0,0,3.263,1.452l79.141,16.626c14.231,2.989,26.628,8.292,40.311,1.437,20.277-10.158,39.8-21.9,59.19-33.482,20.254-12.1,38.7-28.242,57.856-42.017C1396.808,822.926,1395.927,800.016,1393.181,783.649Z" transform="translate(-1134.413 -645.926)"/><path class="br" d="M1130.349,992.517c.487-1.459,0-94.841,2.919-103.11s9.828-14.4,17.317-14.736c16.193-.736,33.359,2.421,49.4,4.231,10.728,1.21,21.462,2.517,32.111,4.3,6.443,1.079,15.288,2.373,20.232,7.677,5.17,5.548,2.609,15.548,2.547,22.48-.117,12.9-.517,25.806-.978,38.7q-.98,27.4-2.425,54.791c-.005.085-.009.17-.014.256,0,0-10.214,2.918-10.214,0,0-17.047,1.313-34.189,2-51.217q.689-17.022,1.385-34.044c.242-5.935,3.025-18.119-.635-22.979-4.889-6.493-19.252-7.463-26.461-8.553-8.737-1.322-17.552-1.8-26.306-2.925-9.357-1.2-18.788-2.308-28.224-2.606-4.482-.141-10.586-.382-14.719,2.081-5,2.983-4.886,8.966-5.567,14.243-1.165,9.025-1.18,18.337-1.6,27.417-.949,20.289-1.68,40.589-2.347,60.889q-.075,2.281-.147,4.562Z" transform="translate(-1130.349 -689.914)"/><path class="br" d="M1408.227,873.138s-9.241-41.827,0-52.527c4.854-5.62,12.036-9.725,18.173-13.742,9.108-5.961,18.439-11.586,27.848-17.057,7.02-4.082,14.119-8.7,21.57-11.973,4.556-2,8.342.163,10.385,4.445a12.862,12.862,0,0,1,1.3,6.089l.007,35.849-5.357,3.684-.783-10.61-1.142-15.46a83.933,83.933,0,0,0-1.4-12.57,2.09,2.09,0,0,0-.879-1.412,2.572,2.572,0,0,0-2.112.121c-4.829,1.771-8.867,4.663-13.258,7.292-4.526,2.711-9.1,5.347-13.643,8.021-8.111,4.771-16.238,9.524-24.21,14.525-3.129,1.963-6.561,3.668-9.363,6.1-1.941,1.683-2.376,4.652-2.406,7.076-.036,3.036.271,6.131.38,9.177.218,6.053.552,12.118,1.294,18.132a68.88,68.88,0,0,0,1.192,7.122,39.58,39.58,0,0,0,1.645,4.8l-8.268,5.35Z" transform="translate(-1237.513 -651.758)"/><path class="cc" d="M1421.522,898.242l-8.256-41.2,78.6-51.14-.765,43.263Z" transform="translate(-1241.093 -663.036)"/></g><path class="ce" d="M1410.5,581.976s-80.25-10.214-85.114-11.187c-2.766-.553-7.26,1.725-10.624,3.792a6.075,6.075,0,0,0-4.453,3.017l-1.54,28.75a11,11,0,0,0-4.783.918c-6.27,3.832-16.032,36.85-21.068,55.284a18.234,18.234,0,0,0-3.191,1.478q-.664.392-1.312.853c-3.506,2.5-2.762,6.1-5.035,9.135-1.99,2.652-6.142,4.64-9.376,6.47a4.227,4.227,0,0,0-4.278-1.585c-6.809.973-84.616,32.587-84.622,44.746a22.429,22.429,0,0,0,.828,6.534,74.319,74.319,0,0,0-25.664,25.311c-7.364.5-14.12,6.557-17,14.707-2.919,8.268-2.432,101.65-2.919,103.109l8.269,1.459q.071-2.281.147-4.562.9-27.333,2.071-54.659c.24.058.48.111.717.161l79.141,16.626c7.9,1.66,15.234,4.029,22.537,4.639-.693,16.933-1.99,33.976-1.99,50.926,0,2.919,10.214,0,10.214,0,0-.085.009-.17.014-.255q1.348-25.631,2.292-51.282a31.187,31.187,0,0,0,7.245-2.591c17-8.516,33.47-18.148,49.774-27.861h0l0,0q4.714-2.808,9.413-5.618c18.03-10.767,34.632-24.741,51.57-37.4l8.594-6.062.008-.449a26.074,26.074,0,0,0,3.528-3.959l1.31,57.658h14.1l8.268-3.891s5.35-215.947,6.323-219.837S1410.5,581.976,1410.5,581.976ZM1382.061,689.76q.194-.552.384-1.1l.04,1.741C1382.347,690.185,1382.2,689.974,1382.061,689.76Z" transform="translate(-715.964 -306.235)"/><path class="cf" d="M1155.246,550.417a3.289,3.289,0,0,1-1.836.447c-.883-.137-1.478-.94-2.036-1.638a16.777,16.777,0,0,0-10.185-6,12.248,12.248,0,0,1,12.672,5.406c-1.877-3.048,12.119-5.261,13.758-4.336C1163.963,546.835,1159.356,548.506,1155.246,550.417Z" transform="translate(-720.207 -295.38)"/></g></g></g><g transform="translate(951.814 267.376)"><path class="cg" d="M1284.935,355.714c5.679-1.762,9.007-8.419,14.881-9.2,7.44,6.266,12.923,17.818,24.28,16.252a4.682,4.682,0,0,0,2.937-2.545,39.794,39.794,0,0,0,2.028-3.748c-2.7-13.826-14.28-24.219-28.153-24.219a28.168,28.168,0,0,0-22.611,11.626c.265,1.935.591,3.861.96,5.767C1279.648,352.19,1280.236,356.889,1284.935,355.714Z" transform="translate(-1272.158 -332.251)"/><path class="ch" d="M1323.085,367.7a4.682,4.682,0,0,1-2.937,2.545c-11.357,1.566-16.839-9.986-24.28-16.252-5.874.783-9.2,7.441-14.881,9.2-4.7,1.175-5.287-3.524-5.678-6.07-.369-1.907-.694-3.833-.96-5.767a31.4,31.4,0,0,0-6.139,18.783c0,16.795,12.872,30.409,28.75,30.409s28.75-13.614,28.75-30.409a32.25,32.25,0,0,0-.6-6.19A39.805,39.805,0,0,1,1323.085,367.7Z" transform="translate(-1268.21 -339.729)"/></g><g transform="translate(486.49 203.77)"><path class="ci" d="M516.171,245.392c4.274-1.327,6.779-6.337,11.2-6.927,5.6,4.716,9.727,13.411,18.274,12.232a3.523,3.523,0,0,0,2.21-1.916,29.82,29.82,0,0,0,1.527-2.82c-2.034-10.406-10.748-18.228-21.189-18.228a21.2,21.2,0,0,0-17.018,8.75c.2,1.456.445,2.906.722,4.341C512.192,242.74,512.634,246.277,516.171,245.392Z" transform="translate(-506.555 -227.733)"/><path class="ch" d="M544.883,254.409a3.523,3.523,0,0,1-2.21,1.916C534.126,257.5,530,248.809,524.4,244.094c-4.421.59-6.926,5.6-11.2,6.927-3.536.884-3.979-2.653-4.273-4.568-.277-1.435-.523-2.885-.722-4.341a23.636,23.636,0,0,0-4.62,14.136c0,12.64,9.688,22.886,21.638,22.886s21.638-10.246,21.638-22.886a24.267,24.267,0,0,0-.449-4.658A29.818,29.818,0,0,1,544.883,254.409Z" transform="translate(-503.583 -233.361)"/></g><g transform="translate(1000.885 591.638)"><path class="cj" d="M1354.637,873.209c1.967-.61,3.12-2.916,5.154-3.188,2.577,2.17,4.476,6.172,8.41,5.629a1.622,1.622,0,0,0,1.017-.881,13.7,13.7,0,0,0,.7-1.3,10.116,10.116,0,0,0-9.751-8.388,9.757,9.757,0,0,0-7.832,4.027c.092.67.2,1.337.332,2C1352.806,871.988,1353.01,873.615,1354.637,873.209Z" transform="translate(-1350.212 -865.082)"/><path class="ck" d="M1367.85,877.359a1.621,1.621,0,0,1-1.017.881c-3.934.543-5.832-3.458-8.41-5.629-2.034.271-3.187,2.577-5.154,3.188-1.627.406-1.831-1.221-1.967-2.1-.128-.66-.24-1.327-.332-2a10.877,10.877,0,0,0-2.126,6.5c0,5.817,4.458,10.532,9.958,10.532s9.958-4.715,9.958-10.532a11.186,11.186,0,0,0-.207-2.143A13.69,13.69,0,0,1,1367.85,877.359Z" transform="translate(-1348.844 -867.672)"/></g></g></svg>