<svg xmlns="http://www.w3.org/2000/svg" xmlns:xlink="http://www.w3.org/1999/xlink" width="586.386" height="505.182" viewBox="0 0 586.386 505.182"><defs><style>.a,.be,.j{fill:none;}.b{fill:url(#a);}.c{fill:url(#b);}.d{fill:url(#c);}.e{fill:url(#d);}.f{clip-path:url(#e);}.g{fill:url(#f);}.h{fill:url(#g);}.i{fill:url(#h);}.j{stroke:#57585a;stroke-width:1.459px;}.ab,.ak,.al,.ar,.av,.aw,.ay,.ba,.be,.bf,.bg,.bi,.bk,.bm,.j,.s,.t,.v,.w,.x,.y{stroke-miterlimit:10;}.k{fill:#1e4d5b;}.al,.l{fill:#a5ccce;}.m{fill:url(#i);}.n{fill:url(#k);}.o{fill:#e0858c;}.p{fill:url(#l);}.q{fill:#12073c;}.r{fill:#598976;}.ar,.ay,.s,.x{fill:#100052;}.ak,.al,.ar,.av,.aw,.ay,.ba,.bf,.bg,.bk,.s,.t,.w,.x,.y{stroke:#100052;}.s{stroke-width:0.875px;}.ak,.bk,.t{fill:#f9c3a5;}.ab,.t,.v,.w{stroke-width:0.689px;}.u{fill:#2a7195;}.v{fill:#b2b2b2;}.ab,.v{stroke:#a5a5a5;}.bf,.w{fill:#ffcfc2;}.x{stroke-width:0.724px;}.av,.ax,.ba,.y{fill:#fff;}.y{stroke-width:0.733px;}.z{fill:#dbedfc;}.aa{fill:#a4c3dd;}.ab{fill:#a5a5a5;}.ac{fill:#6195aa;}.ad{fill:#527f89;}.ae{fill:#d5d6d0;}.af{fill:#bababa;}.ag{fill:#aec7d1;}.ah{fill:#7f9ca5;}.ai{fill:#dadfed;}.aj{fill:#c8ccd6;}.ak,.bf,.bi,.bm{stroke-width:0.729px;}.al{stroke-width:0.763px;}.am{fill:#e6f4ff;}.an{fill:#bfd4e2;}.ao{fill:#adadad;}.ap{fill:#6e7b7f;}.aq{fill:#8c9193;}.ar,.bg{stroke-width:0.927px;}.as{fill:#adccfa;}.at{fill:#eaf3fa;}.au{fill:#bbdbf9;}.av{stroke-width:0.762px;}.aw{fill:#e28b3d;}.aw,.bk{stroke-width:0.797px;}.ay{stroke-width:1.013px;}.az{fill:#bbb7ce;}.ba{stroke-width:0.849px;}.bb{fill:#57585a;}.bc{fill:#929597;}.bd{fill:#d0d2d3;}.be{stroke:#bbdbf9;stroke-width:1.595px;}.bg,.bh{fill:#241a5b;}.bi,.bj,.bm{fill:#c99bb1;}.bi{stroke:#f6aacb;}.bl{fill:#bbbdbf;}.bm{stroke:#060c39;}.bn{opacity:0.82;mix-blend-mode:multiply;isolation:isolate;fill:url(#m);}</style><linearGradient id="a" x1="0.713" y1="-0.573" x2="0.336" y2="1.476" gradientUnits="objectBoundingBox"><stop offset="0" stop-color="#ff9077"/><stop offset="1" stop-color="#e9645a"/></linearGradient><linearGradient id="b" x1="0.516" y1="0.293" x2="0.373" y2="1.104" xlink:href="#a"/><linearGradient id="c" x1="0.79" y1="-0.367" x2="0.005" y2="1.914" gradientUnits="objectBoundingBox"><stop offset="0" stop-color="#2a7195"/><stop offset="1" stop-color="#060c39"/></linearGradient><linearGradient id="d" x1="0.487" y1="0.494" x2="0.359" y2="1.008" xlink:href="#c"/><clipPath id="e"><path class="a" d="M805.984,689.055c-44.641-8.106-49.38-19.831-107.724-38.529-81.2-26.024-95.173-10.73-126.445-32.568-45.081-31.479-64.088-96.806-61.255-146.679,7.309-128.648,162.251-194.919,181.171-202.7,88.19-36.261,246.831-54.764,339.492,53.606,71.494,83.614,89.852,226.547,27.747,299.86-41.42,48.9-114,61.36-146.9,67.008C859.8,698.032,818.047,691.245,805.984,689.055Z" transform="translate(-510.285 -240.322)"/></clipPath><linearGradient id="f" x1="0.531" y1="2.191" x2="0.476" y2="-0.786" xlink:href="#c"/><linearGradient id="g" x1="0" y1="0.5" x2="1" y2="0.5" xlink:href="#c"/><linearGradient id="h" x1="0.206" y1="-0.6" x2="0.78" y2="0.974" xlink:href="#c"/><linearGradient id="i" y1="0.5" x2="1" y2="0.5" gradientUnits="objectBoundingBox"><stop offset="0" stop-color="#fff"/><stop offset="1" stop-color="#bbdbf9"/></linearGradient><linearGradient id="k" x1="0" y1="0.5" x2="1" y2="0.5" xlink:href="#a"/><linearGradient id="l" x1="0" y1="0.5" x2="1" y2="0.5" xlink:href="#a"/><linearGradient id="m" x1="0.459" y1="0.219" x2="0.553" y2="1.09" gradientUnits="objectBoundingBox"><stop offset="0" stop-color="#2a7195" stop-opacity="0.102"/><stop offset="1" stop-color="#060c39" stop-opacity="0.502"/></linearGradient></defs><g transform="translate(-510.285 -166.035)"><g transform="translate(605.016 634.491)"><path class="b" d="M654.665,849.692c3.261-1.012,5.173-4.835,8.546-5.285,4.273,3.6,7.422,10.233,13.944,9.334a2.691,2.691,0,0,0,1.687-1.462,23,23,0,0,0,1.165-2.153c-1.552-7.94-8.2-13.909-16.168-13.909a16.176,16.176,0,0,0-12.986,6.677c.152,1.111.339,2.217.551,3.312C651.629,847.668,651.967,850.367,654.665,849.692Z" transform="translate(-647.327 -836.217)"/><path class="c" d="M677.324,855.154a2.691,2.691,0,0,1-1.687,1.462c-6.522.9-9.671-5.735-13.944-9.334-3.373.45-5.285,4.274-8.546,5.285-2.7.675-3.036-2.024-3.262-3.486-.212-1.095-.4-2.2-.551-3.312a18.034,18.034,0,0,0-3.526,10.787c0,9.645,7.393,17.464,16.512,17.464s16.511-7.819,16.511-17.464a18.521,18.521,0,0,0-.342-3.555A23.029,23.029,0,0,1,677.324,855.154Z" transform="translate(-645.809 -839.092)"/></g><g transform="translate(970.703 166.035)"><path class="d" d="M1199.957,209.213c5.539-2.077,10.8-7.616,16.754-5.262,3.739,1.523,7.754,5.4,11.908,1.939a41.054,41.054,0,0,0,5.006-4.737,32.366,32.366,0,0,0,.246-3.99c0-17.192-13.486-31.128-30.12-31.128a29.414,29.414,0,0,0-19.289,7.222,6.549,6.549,0,0,1,1.51,2.309,39.915,39.915,0,0,1,2.493,9.692c.692,4.846-1.661,9.139-1.8,13.846C1186.387,206.167,1193.172,211.705,1199.957,209.213Z" transform="translate(-1173.631 -166.035)"/><path class="e" d="M1183.8,188.368a39.921,39.921,0,0,0-2.493-9.692,6.548,6.548,0,0,0-1.51-2.309,31.481,31.481,0,0,0-10.831,23.906c0,17.192,13.485,31.128,30.12,31.128,15.327,0,27.979-11.831,29.875-27.138a41.059,41.059,0,0,1-5.006,4.737c-4.154,3.461-8.169-.416-11.908-1.939-5.954-2.354-11.215,3.185-16.754,5.262-6.785,2.493-13.57-3.046-13.292-10.108C1182.139,197.507,1184.492,193.214,1183.8,188.368Z" transform="translate(-1168.967 -169.145)"/></g><g transform="translate(510.285 217.961)"><g class="f"><path class="g" d="M1110.733,544.91c-66.789,7.648-132.558,7.648-199.346,11.726-89.731,5.608-175.893,25.492-262.566,53.022-81.748,26.37-166.836,31.3-249.094,15.01V770.013h842.356V545.8C1199.875,532.909,1154.294,539.918,1110.733,544.91Z" transform="translate(-477.007 -330.063)"/><path class="h" d="M1130.616,401.159c-82.083-12.746-151.421-50.474-228.407-76.475-58.631-19.884-115.732-32.629-177.932-44.356-87.182-15.805-170.8-28.551-256.447-4.588-23.672,6.717-46.541,14.641-68.1,25.279v240.57c82.258,16.291,167.347,11.36,249.094-15.01,86.672-27.531,172.834-47.415,262.566-53.023,66.789-4.079,132.557-4.079,199.346-11.726,43.561-4.992,89.141-12,131.349.895V404.6A452.722,452.722,0,0,1,1130.616,401.159Z" transform="translate(-477.007 -246.983)"/><path class="i" d="M724.278,265.014c62.2,11.726,119.3,24.472,177.932,44.356,76.986,26,146.323,63.729,228.407,76.475a452.722,452.722,0,0,0,111.466,3.438V211.576H399.727V285.7c21.563-10.637,44.431-18.561,68.1-25.279C553.482,236.464,637.1,249.209,724.278,265.014Z" transform="translate(-477.007 -231.669)"/><g transform="translate(352.537 91.712)"><path class="j" d="M1014.631,378.641c6.334-10.453,23.565-8.694,31.307.764s8.082,22.952,6.175,35.025c-4.09,25.9-16.743,51.435-11.624,77.147,4.523,22.717,22.167,40.714,29.064,62.827a70.545,70.545,0,0,1-4.614,52.758c-.656,1.271.4,2.924-.223,4.212s-2.21-1.453-1.045-.624" transform="translate(-1014.631 -371.527)"/></g><g transform="translate(228.994 78.504)"><path class="k" d="M980.822,356.208,848.485,408.376l-10.6-3.7v-46.01l133.785-6.032Z" transform="translate(-837.888 -352.631)"/><path class="l" d="M987.507,400.132l-134.533,9.784-.173-45.88,132.51-6.288Z" transform="translate(-842.377 -354.171)"/><path class="m" d="M923.468,398.133l-55.075,3.559-.13-17.053,54.753-3.021Z" transform="translate(-847.031 -361.356)"/><path class="m" d="M1017.161,397.231l-33.71,2.172-.177-4.86,33.656-2.073Z" transform="translate(-881.649 -364.622)"/><path class="n" d="M986.955,373.778a3.017,3.017,0,0,1-2.82,3.134,2.9,2.9,0,0,1-3.052-2.82,3.017,3.017,0,0,1,2.831-3.128A2.9,2.9,0,0,1,986.955,373.778Z" transform="translate(-880.99 -358.148)"/><path class="o" d="M1007.675,372.684a2.961,2.961,0,0,1-2.758,3.1,2.882,2.882,0,0,1-3.017-2.8,2.959,2.959,0,0,1,2.767-3.1A2.883,2.883,0,0,1,1007.675,372.684Z" transform="translate(-887.255 -357.826)"/><path class="p" d="M1032.069,371.394a2.9,2.9,0,0,1-2.683,3.071,2.861,2.861,0,0,1-2.977-2.769,2.894,2.894,0,0,1,2.693-3.066A2.862,2.862,0,0,1,1032.069,371.394Z" transform="translate(-894.632 -357.446)"/></g><g transform="translate(375.321 83.426)"><path class="q" d="M1186.514,679.4c-1.518-.364-2.254,1.9-2.293,3.547-.611,26.116,3.155,52.536-1.363,78.216a342.243,342.243,0,0,1-80.708.2c-3.973-22.644-7.956-45.41-8.4-68.438-.164-8.4,1.283-18.918,10.881-20.015,14.247-1.629,28.183,2.091,42.144,4.48C1159.608,679.577,1173.981,676.387,1186.514,679.4Z" transform="translate(-1061.225 -453.834)"/><g transform="translate(31.223 68.168)"><path class="r" d="M1154.172,635.153a86.511,86.511,0,0,0,20.781-3.311c3.115-.906,8.385-2.442,10.009-5.818,1.355-2.818.389-7.39.348-10.513-.125-9.65-.3-19.313.428-28.943.591-7.813.537-15.311,2.127-22.926q2.674-12.8,4.086-25.853a268.766,268.766,0,0,0,.694-50.554c-.457-5.648-1.3-11.748-5.1-15.73-2.138-2.238-4.978-3.533-7.783-4.671a121.062,121.062,0,0,0-25.388-7.192c-7.295-1.229-18.8-3.882-25.995-1.466-4.634,1.556-9.784,7.257-13.25,10.677-4.249,4.192-8.88,9.177-10.76,15.155a104.662,104.662,0,0,0-4.709,22.9c-.53,6.754-2.085,15.579-2.992,22.166-3.536,25.688-2.1,50.315-4,74.2-.444,5.6-2.52,15.421,2.781,19.056,4.995,3.425,12.263,5.052,17.9,6.815C1126.564,633.272,1140.366,635.7,1154.172,635.153Z" transform="translate(-1091.895 -457.195)"/></g><path class="s" d="M1226.719,460.815a24,24,0,0,1-1.517-3.02c-4.469-10.612-20.952-11.766-29.055-17.944-2.938-2.24-5.881-5.764-6.555-9.667-.531-3.075.86-5.417,1.317-8.391,1.126-7.321.023-15.154,4.926-21.267,4.757-5.93,12.37-11.525,19.7-12.747,15.221-2.535,26.141,9.327,30.963,23.22,1.946,5.607,3.208,11.762,7.036,16.143,7.055,8.071,17.8,10.548,23.836,20.086a18.674,18.674,0,0,1,3.081,8.815,11.2,11.2,0,0,1-3.029,8.621,3.658,3.658,0,0,1-2.2,1.161,4.442,4.442,0,0,1-2.069-.558c-4.084-1.874-8.881.377-13.21,1.135q-7.538,1.319-15.157,2C1236.832,469.119,1230.716,467.493,1226.719,460.815Z" transform="translate(-1090.043 -368.029)"/><path class="t" d="M1101.109,590.009c12.841-.6,26.477-2.339,39.128.726,1.62.392,3.209.725,4.236,2.239,1.29,1.9,2.229,4.026,3.55,5.9a24.152,24.152,0,0,1,2.112,3.8q.188.408.368.818c.542,1.23.971,2.9-.01,3.774a1.914,1.914,0,0,1-2.017.213c-.826-.354-1.338-1.392-2.116-1.677-.813-.3-2.426.152-3.344.078a51.885,51.885,0,0,1-11.425-2.354c-3.624-1.16-5.686-2.731-9.551-2.241-4.926.625-9.99,2.516-14.825,3.731-2.369.6-3.122,2.026-5.716,1.824" transform="translate(-1063.445 -428.692)"/><path class="u" d="M1239.2,490.868s7.814,8.178,23.312-6.268l2.3,4.225-25.648,45.3-2.564-4.216-.722-36.962Z" transform="translate(-1104.012 -397.276)"/><path class="q" d="M1223.364,764.292c-5.388-28.39-5.542-56.71-8.39-85.25a1.706,1.706,0,0,1,.525,2.147c-1.352-6.1,3.768-7.89,9.173-10.4,12.648-5.87,27.269-11.638,39.772-5.43,9.028,4.483,14.776,14.648,16.262,25.109s-.788,21.167-4.4,31.026c-2.117,5.776-4.7,11.38-6.283,17.346-3.164,11.919-2.18,24.576-1.169,36.912" transform="translate(-1097.719 -450.88)"/><path class="v" d="M1210.708,627.979a25.325,25.325,0,0,0,17.133,9.772c6.517.7,13-1.288,19.249-3.368,10.646-3.541,21.829-4.694,27.951-15.646,2.171-3.883,3.314-8.638,2.124-12.973-.84-3.062-2.742-5.644-4.254-8.4-6.289-11.468-3.084-23.542-2.085-36.012a287.149,287.149,0,0,0,.869-40.417c-.89-14.594-1.761-35.431-17.551-40.842-7.473-2.56-17.886,3.854-23.651,8.164-17.369,12.987-39.757,46.4-23.795,68.357,1.066,1.467,1.756,3.2,2.7,4.337-2.834,8.113-1.537,19.593-1.952,28.239l-1.554,32.374a5.935,5.935,0,0,0,.439,3.2C1207.11,626.141,1209.546,626.468,1210.708,627.979Z" transform="translate(-1093.582 -395.743)"/><path class="t" d="M1176.587,447.867s4.983,16.2-7.008,25.291c0,0-10.142,6.573-16.6-8.863l-1.7-5.683s-1.544-7.154,6.038-10.45q.352-.153.73-.295C1166.464,444.727,1173.783,442.082,1176.587,447.867Z" transform="translate(-1078.509 -385.19)"/><path class="s" d="M1237.184,441.141l-3.264,10.236a18.689,18.689,0,0,1-6.436,6.291c-1.877,1.1-5.466,2.321-7.564,1.554a9.892,9.892,0,0,1-2.872-2.115c-4.072-3.7-8.823-7.79-11.192-13.035-1.513-3.346-1.8-6.92-4.246-9.768a9.739,9.739,0,0,1-.912-1.248,13.732,13.732,0,0,1-2.025-7.205c.387-12.736,9.973-21.665,22.055-20.518,5.539.526,12.723,4.253,15.047,9.91A42.142,42.142,0,0,1,1237.184,441.141Z" transform="translate(-1092.811 -373.386)"/><path class="s" d="M1237.184,441.141l-3.264,10.236a18.689,18.689,0,0,1-6.436,6.291c-1.877,1.1-5.466,2.321-7.564,1.554a9.892,9.892,0,0,1-2.872-2.115c-4.072-3.7-8.823-7.79-11.192-13.035-1.513-3.346-1.8-6.92-4.246-9.768a9.739,9.739,0,0,1-.912-1.248,13.732,13.732,0,0,1-2.025-7.205c.387-12.736,9.973-21.665,22.055-20.518,5.539.526,12.723,4.253,15.047,9.91A42.142,42.142,0,0,1,1237.184,441.141Z" transform="translate(-1092.811 -373.386)"/><path class="w" d="M1257.239,465.44a3.55,3.55,0,0,1-.113,1.037,14.566,14.566,0,0,1-2.153,4.8c-2.2,3.173-5.642,5.6-8.736,7.69l-.021.014a18.659,18.659,0,0,1-3.826,2.213c-1.3.489-4.335,1.211-4.68-.786-.357-2.075-.675-4.17-1.074-6.241-.246-1.294-.528-2.579-.869-3.849a34.932,34.932,0,0,0-2.142-5.615,51.66,51.66,0,0,1-3.708-9.121,43.986,43.986,0,0,1-1.033-15.825c.459-3.912,1.511-8.009,4.075-10.988,2.023-2.354,4.239-5.126,7.619-4.03,2.583.842,4.381,3.422,5.232,6.141a40.824,40.824,0,0,1,1.19,8.491q.093,1.068.23,2.132a64.181,64.181,0,0,0,3.058,13.171,21.631,21.631,0,0,0,4.166,7.151C1255.613,463.146,1257.151,463.785,1257.239,465.44Z" transform="translate(-1101.816 -379.182)"/><path class="w" d="M1237.623,435.861a42.974,42.974,0,0,1-.89,4.839c-.1.4-.214.794-.338,1.186l-2.012,6.308a17.012,17.012,0,0,1-6.855,9.237c-.212.136-.428.268-.646.395a14.541,14.541,0,0,1-2.864,1.236c-1.755.557-3.945,1.094-5.693.365a14.655,14.655,0,0,1-4.954-3.7,40.76,40.76,0,0,1-4.685-6.664,67.383,67.383,0,0,1-6.458-12.989c-1.324-3.907-3.933-7.462-4.042-11.812-.138-5.47,3.629-11.448,7.561-14.615a19.626,19.626,0,0,1,14.378-4.158c5.54.526,12.723,4.253,15.047,9.91A41.193,41.193,0,0,1,1237.623,435.861Z" transform="translate(-1092.664 -373.433)"/><path class="x" d="M1209.955,406.088c-1.139,1.964-2.356,3.86-3.6,5.807-2.686,4.2-6.065,7.634-9.87,9.014a3.984,3.984,0,0,1-2.656.224c-3.682-1.274-2.5-9.679-1.777-13.521.777-4.114,2.132-8.117,4.473-10.93,4.09-4.915,9.534-7.638,14.763-7.337a3.55,3.55,0,0,1,3.5,2.289c.524,1.548.055,3.433-.477,5.024-2.31,6.9-6.014,13.8-9.267,19.875-1.782,3.324-4.105,6.362-6.931,7.182a3.606,3.606,0,0,1-3.58-.708,5.093,5.093,0,0,1-1.26-4.6" transform="translate(-1090.585 -368.597)"/><path class="s" d="M1236.577,408.577c-5.624-9.508-18.769-11.177-28.31-10.711-6.338.31-15.062,3.9-13.957,12.047,1.278,9.427,13.417,11.646,20.8,11.417,6.563-.2,12.944-4.4,19.135-6.637a4.651,4.651,0,0,0,2.9-2.2A4.439,4.439,0,0,0,1236.577,408.577Z" transform="translate(-1091.47 -371.147)"/><path class="w" d="M1253.119,423.732c1.131-1.454,2.611-2.844,4.016-2.292,1.31.514,1.982,2.53,2.211,4.446a14.518,14.518,0,0,1-1.035,7.723c-1.078,2.266-4.5,3.05-4.3,2.9" transform="translate(-1109.2 -378.227)"/><path class="w" d="M1134.161,602.426s-2.875-.613-3.354,1.054a2.306,2.306,0,0,0,1.677,2.767h4.551S1140.15,604.215,1134.161,602.426Z" transform="translate(-1072.371 -432.708)"/><path class="w" d="M1145.26,616.6l-.006.009a1.584,1.584,0,0,0,1.729,2.379,12.354,12.354,0,0,0,6.338-2.932s1.7-1.385-1.32-2.341A12.634,12.634,0,0,1,1145.26,616.6Z" transform="translate(-1076.65 -436.139)"/><path class="w" d="M1138.585,613.051s-.907,1.971.517,2.992a2.408,2.408,0,0,0,1.82.363c1.736-.315,6.528-1.329,9.826-3.436,0,0,2.568-2.312-3.547-2.2C1147.2,610.767,1144.837,612.4,1138.585,613.051Z" transform="translate(-1074.64 -435.251)"/><path class="w" d="M1146.655,607.353a74.883,74.883,0,0,0-12.564.489.864.864,0,0,0-.486.249,2.273,2.273,0,0,0-.7,2.124,2.4,2.4,0,0,0,2.659,1.578c2.746-.326,9.234-1.267,11.623-3.076A.769.769,0,0,0,1146.655,607.353Z" transform="translate(-1072.996 -434.205)"/><g transform="translate(64.695)"><path class="t" d="M1179.723,387.224c4.3,5.054,4.824,12.158,4.508,18.646-.315,6.461-.308,14.323-2.433,20.354-2.574,7.3-8.849,14.666-16.548,15.439-9.527.957-15.164-9.441-18.758-17.235-1.826-3.962-1.818-7.686-2.637-11.952-1.518-7.908-2.082-16.884,2.753-23.7C1153.482,379.091,1172.069,378.218,1179.723,387.224Z" transform="translate(-1140.682 -366.08)"/><path class="t" d="M1144.926,416.5a3.277,3.277,0,0,0-1.739-2.208,2.127,2.127,0,0,0-1.458-.177c-1.325.363-1.761,2.117-1.8,3.569a20.419,20.419,0,0,0,1.125,7.288,3.914,3.914,0,0,0,1.146,1.889,1.388,1.388,0,0,0,1.937-.136" transform="translate(-1139.822 -376.043)"/><path class="s" d="M1198.272,402.362c.659-1.046,1.379-1.993,2.143-3.069a12.376,12.376,0,0,0,1.36-3.586,49.878,49.878,0,0,0,1.781-7.918c.709-5.291.417-11.452-3.5-15.348a12.1,12.1,0,0,0-3.85-2.539s-9.989-3.471-9.367,9.821c1.928,5.581,4.335,11.939,8.507,16.02a4.977,4.977,0,0,1,.986,4.264,32.528,32.528,0,0,0-.743,4.5,1,1,0,0,0,.126.585.639.639,0,0,0,.881.08,2,2,0,0,0,.577-.822A18.266,18.266,0,0,1,1198.272,402.362Z" transform="translate(-1153.938 -362.629)"/><path class="s" d="M1143.13,396.632c-.171.81-.407,1.3-1.182.629-.97-.838-1.068-2.552-1.216-3.766-1.147-9.378-2.657-19.795,4.836-26.851,5.853-5.513,15.528-7.82,23.133-6.694,3.118.463,7.791,1.084,10.495,3.034,6.727,4.85-.171,12.946-.171,12.947a44.817,44.817,0,0,1-12.935,11.056c-3.34,1.857-8.7,2.737-12.537,2.674a22.511,22.511,0,0,1-6.165-1.124C1142.538,387.091,1143.7,393.941,1143.13,396.632Z" transform="translate(-1139.78 -359.672)"/></g><g transform="translate(62.649 102.281)"><path class="w" d="M1255.021,524.617a9.472,9.472,0,0,0-.156-1.458c-1.644-6.895-3.235-13.805-10.159-16.406a12.679,12.679,0,0,0-15.521,6.19c-2.723,5.377-.97,9.69-.793,15.657.277,9.316,2.378,18.968,3.77,28.561.7,4.8,2.165,10.932,2.441,15.868.207,3.684.942,6.758-2.445,8.9-4.392,2.777-9.753,1.975-14.939,2.436-11.563,1.028-24.115,1.92-35.6,1.807-4.074-.04-7.026-.031-9.424,3.2-2.009,2.705-1.894,5.836,1.282,7.77,4.929,3,11.868,3.421,17.71,4.235,8.573,1.193,18.206,2.774,26.567,3.6,8.112.8,14.649-.048,22.347-1.427,1.726-.31,3.112-.461,4.538-1.658,3.671-3.083,5.372-7.053,6.894-11.828a92.628,92.628,0,0,0,4.05-18.17,181.725,181.725,0,0,0,.523-30.645C1255.741,535.657,1255.468,530.127,1255.021,524.617Z" transform="translate(-1147.087 -505.998)"/><path class="w" d="M1176.993,631.523c-4.743-.809-9.182-1.64-13.9-2.928-2.89-.789-6.662-1.394-8.039-4.606a12.376,12.376,0,0,1-.586-6.132c.092-1.188.868-1.495,1.443-2.386a16.9,16.9,0,0,1,1.807-2.66,7.735,7.735,0,0,1,2.983-1.742,3.842,3.842,0,0,1,1.435-.3,4.259,4.259,0,0,1,1.584.4,29.482,29.482,0,0,1,6.742,4.251,6.923,6.923,0,0,0,3,1.665,19.333,19.333,0,0,0,4.128.38" transform="translate(-1142.118 -537.533)"/><path class="w" d="M1153.815,626.628a30.5,30.5,0,0,1-7.062-3.3c-.995-.654-3.042-2.142-3.308.071-.093.769.709,1.463,1.278,1.941,2.094,1.755,4.606,2.75,7.006,3.921a18.7,18.7,0,0,0,4.022,1.557" transform="translate(-1138.835 -540.984)"/><path class="w" d="M1152.964,620.027a36.726,36.726,0,0,1-9.948-3.733,10.151,10.151,0,0,1-2.292-1.984c-.522-.545-1.225-1.276-1.685-.27a2.911,2.911,0,0,0,.86,3c3.252,3.293,6.866,4.993,11.081,6.429a11.278,11.278,0,0,0,1.585.376.147.147,0,0,0,.143-.034.06.06,0,0,0-.042-.1" transform="translate(-1137.463 -538.368)"/><path class="w" d="M1150.9,614.093c-1.815-.687-3.622-1.342-5.439-2.038a8.042,8.042,0,0,1-1.632-.756,8.724,8.724,0,0,1-1.446-1.249,17.9,17.9,0,0,0-3.347-3,2.278,2.278,0,0,0-1.494-.45.842.842,0,0,0-.691.934,4.184,4.184,0,0,0,1.461,2.491c.772.9,1.562,1.832,2.321,2.662a13.49,13.49,0,0,0,2.315,2.127,8.692,8.692,0,0,0,1.656.834c1.141.475,2.333.878,3.468,1.3a18.291,18.291,0,0,0,2.876.691.263.263,0,0,0,.179-.008.1.1,0,0,0,.028-.148" transform="translate(-1136.853 -536.273)"/><path class="w" d="M1152.9,613.867a19.073,19.073,0,0,1-5.36-1.992,22.655,22.655,0,0,1-3.754-2.688c-.594-.547-1.062-1.109-1.66-1.687s-2.4-2.383-1.077-3.037,2.587.979,3.624,1.638a19.894,19.894,0,0,0,5.3,2.693,30.908,30.908,0,0,0,6.245.619c.179.013.355-.032.4-.232" transform="translate(-1137.974 -535.591)"/><path class="w" d="M1171.865,614.042c-1.478-1.739-2.739-3.69-4.274-5.37a38.841,38.841,0,0,0-3.339-2.882,40.625,40.625,0,0,1-3.512-3.2c-.527-.572-1.713-1.8-2.693-1.4-.421.171-.486.6-.479,1.023a6.364,6.364,0,0,0,1.606,4.259c.375.441,1.257.6,1.093,1.322s-1.137.589-1.636.57c-1.736-.065-3.351-.357-5.056-.5" transform="translate(-1141.886 -534.626)"/></g><path class="y" d="M1107.385,558.592" transform="translate(-1065.334 -419.547)"/><path class="s" d="M1250.839,435.337a4.628,4.628,0,0,0,1.259-2.755,20.6,20.6,0,0,0,.469-6.248c-.254-2.31-1.252-4.866-3.2-6.127-1.617-1.046-3.25-.334-3.252,1.856,0,2.06,2.233,4.162,3.036,6.013C1249.52,428.928,1251.717,434.612,1250.839,435.337Z" transform="translate(-1107.092 -377.751)"/><path class="a" d="M1117.563,459.557c-4.574.726-8.654,2.495-13.094,3.41-8.556,1.766-13.194,5.658-17.169,13.688q-6.919,13.98-13.841,27.959c-3.122,6.3-6.371,12.624-8.5,19.4-1.642,5.233-3.968,11.666-3.152,17.14,1.174,7.871,2.182,19.921,8,25.583,6.562,6.385,15.356,11.077,23.479,14.734l9.8-25.406a81.634,81.634,0,0,1-21.352-13.291" transform="translate(-1051.565 -389.738)"/><path class="r" d="M1091.465,505.184q-5.21,11.858-10.347,23.752c-1.25,2.895-5.81,11.109-4.351,14.339,1.063,2.351,5.744,2.49,7.992,3.035.982.238,14.528,3.551,14.39,3.984-3.012,8.289-5.866,15.857-8.879,24.146-.327.9-.749,1.9-1.608,2.223a2.994,2.994,0,0,1-2.128-.3A143.9,143.9,0,0,1,1058.66,561c-3.2-2.234-6.273-3.329-8.164-6.959-2.551-4.9-3.475-11.183-3.234-16.707.354-8.1,3.359-15.788,6.654-23.1a255.647,255.647,0,0,1,14.959-28.341c4.675-7.651,10.052-16.986,17.743-21.628a42.291,42.291,0,0,1,16.139-5.577c4.723-.645,11.332-2.149,15.77,0" transform="translate(-1047.226 -389.14)"/><path class="z" d="M1234.932,444.012a12.656,12.656,0,0,1,3.342,4.833,1.5,1.5,0,0,1,.019,1.427c-.447.57-1.325.139-1.818-.385a8.341,8.341,0,0,1-2.2-5.571" transform="translate(-1103.527 -385.059)"/><path class="z" d="M1194.263,430.114a6.683,6.683,0,0,1-.619,7.053,8.7,8.7,0,0,1,.068-6.789" transform="translate(-1091.1 -380.875)"/><path class="z" d="M1154.287,429.02c-.148-.579-.28-1.074-.333-1.394-.132-.8-.473-1.8-1.285-1.839-.63,1.144-2.581,9.67,1.092,8.543C1155.44,433.873,1154.782,430.967,1154.287,429.02Z" transform="translate(-1078.639 -379.573)"/><path class="aa" d="M1162.33,438.294c-.9.233-1.794.557-2.674.835-4.607,1.452-13.2,2.175-15.251-4.279,2.707,8.525,7.72,21.824,16.974,24.542,4.991,1.465,11.1-1.645,15-4.728,4.478-3.538,5.514-9.3,6.355-14.79a13.3,13.3,0,0,1-12.869.428c-1.395-.755-2.67-1.831-4.2-2.184A6.965,6.965,0,0,0,1162.33,438.294Z" transform="translate(-1076.477 -382.301)"/><path class="aa" d="M1216.246,452.183c-2.384-.433-5.452-.753-6.619,1.5-.868,1.673-.039,3.729.8,5.417,1.714,3.438,3.537,6.9,6.2,9.575s6.32,4.5,9.952,3.968a12.163,12.163,0,0,0,7.75-5.2,31.983,31.983,0,0,0,4.13-8.923c1.316-4.021,6.444-17.713-1.887-13.51-3.178,1.6-5.207,4.855-8.5,6.349C1224.357,453.045,1220.16,452.894,1216.246,452.183Z" transform="translate(-1095.998 -385.119)"/><path class="ab" d="M1263.819,509.829a30.206,30.206,0,0,1,5.257,9.434c2.461,7.312,2.558,15.251,2.5,23.015-.162,22.381,3.176,57.168-20.91,67.91-9.8,4.361-21.047,3.338-31.361,5.578-4.211.914-4.228.224-5.846-4.64a110.535,110.535,0,0,1-5.136-24.347,5.053,5.053,0,0,1,.331-2.969,4.444,4.444,0,0,1,2.05-1.62,49.945,49.945,0,0,1,11.622-4.039c5.25-1.12,11.439-1.9,14.165-6.786,2.07-3.714,1.249-8.394.517-12.639a177.676,177.676,0,0,1-2.567-28.374,55.212,55.212,0,0,1,.466-8.9c1.218-7.961,6-17.341,14.286-18.532C1254.917,502.094,1260.054,505.288,1263.819,509.829Z" transform="translate(-1095.697 -402.75)"/></g><g transform="translate(217.446 183.906)"><path class="k" d="M954.977,616.779l5.207-104.133s-13.667-10.414-20.176-9.112-113.9,14.97-113.9,14.97-5.858.651-4.556,5.857,8.461,294.177,8.461,294.177l11.064,5.207L852.8,646.717Z" transform="translate(-821.368 -503.421)"/><path class="ac" d="M885.613,570.554c16.285-33.1,57.155-39.676,92.531-36.113l5.176,96.622-93.606,27.426q-.619-2.449-1.238-4.923C881.033,625.513,872.446,596.316,885.613,570.554Z" transform="translate(-838.646 -512.497)"/><path class="ad" d="M841.941,525.91s107.388-13.667,113.9-14.969a8.186,8.186,0,0,1,9.112,3.905l.681,12.718c-35.376-3.563-76.245,3.018-92.531,36.113-13.167,25.762-4.58,54.96,2.862,83.012q.619,2.476,1.238,4.923l-8.575,2.512-3.905,171.82H845.846s-7.159-288.97-8.461-294.177S841.941,525.91,841.941,525.91Z" transform="translate(-826.133 -505.622)"/><path class="ae" d="M1241.965,774.785c0,.849-.027,1.643-.071,2.407-29.136-17.741-58.982-31.839-85.455-52.166C1190.165,738.883,1241.96,763.309,1241.965,774.785Z" transform="translate(-922.225 -570.124)"/><path class="af" d="M1113.4,710.513c2.685.384,13.621,4.329,27.712,10.118,26.473,20.327,56.319,34.425,85.455,52.166-.786,13.854-8.382,13.864-8.382,13.864l-112.594-63.838S1104.292,709.212,1113.4,710.513Z" transform="translate(-906.901 -565.729)"/><path class="ag" d="M934.8,631.232c-29.292-2.712-58.063-12.627-79.023-33.626a26.776,26.776,0,0,1,.872-6.516S967.286,565.708,979,572.867c6.273,3.833,15.156,29.495,22.058,52.513A174.5,174.5,0,0,1,934.8,631.232Z" transform="translate(-831.724 -523.941)"/><path class="ah" d="M934.764,642.433a174.5,174.5,0,0,0,66.264-5.852c5.988,19.971,10.484,37.953,10.484,37.953L926.9,776.714s-19.525,7.159-48.812-72.242c-20.832-56.479-22.894-84.3-22.349-95.665C876.7,629.806,905.473,639.721,934.764,642.433Z" transform="translate(-831.693 -535.142)"/><path class="ai" d="M927.109,675.481c-2.862-1.145-5.152-1.718-7.442-3.435-9.16-6.3-11.45-17.175-11.45-26.335.268-8.039,3.673-15.075,8.686-21.108a122.608,122.608,0,0,1,13.454-2.957c17.9-2.96,36.261-10.27,53.677-1.782,2.507-2.43,6.266-3.951,9.541-2.739,5.33,1.973,2.089,6.081,3.257,9.281,1.361,3.731,5.381,6.961,7.228,10.614,4.313,8.528,5.686,19.4,6.338,28.8a67.062,67.062,0,0,1-.618,15.869A228.757,228.757,0,0,1,927.109,675.481Z" transform="translate(-847.51 -537.275)"/><path class="aj" d="M889.419,638.259c3.617-4.632,11.093-7.79,18.489-9.905-5.013,6.032-8.418,13.068-8.686,21.108,0,9.16,2.29,20.037,11.45,26.335,2.29,1.717,4.58,2.29,7.442,3.435a228.758,228.758,0,0,0,82.671,6.21c-1.859,10.785-7.174,20.108-18.76,24.155a128.712,128.712,0,0,1-42.7,7.184c-31.391-.085-46.831-19.272-54.957-47.86-2.8-9.854-1.994-18.674-5.3-25.676C874.992,634.6,889.1,638.671,889.419,638.259Z" transform="translate(-838.515 -541.026)"/><path class="ak" d="M1091.271,719.861a1.909,1.909,0,0,1,.54,1.429,1.722,1.722,0,0,1-.758.956c-3.529,2.588-8.6,2.218-12.424.09-3.991-2.22-7.925-5.726-11.692-8.411a100.266,100.266,0,0,1-14.249-12.465c-1.944-2.038-3.864-4.261-4.592-6.982-1.482-5.538,2.308-7.191,6.661-8.317,2.654-.687,6.434-3.28,9.071-2.307,3.509,1.3,7.481,9.618,9.724,12.558,3.61,4.732,7.26,9.431,10.83,14.192C1085.716,712.4,1091.271,717.749,1091.271,719.861Z" transform="translate(-889.515 -557.667)"/><path class="al" d="M1023.464,673.659c-12.969,10.869-30.894,25.134-48.894,19.771a51.888,51.888,0,0,1-13.466-6.8c-3.765-2.477-7.2-5.6-11-7.964-4.007-2.494-5.92-1.339-10.427-.059-7.533,2.141-15.012,4.47-22.408,7.045-6.635,2.311-11.638,5.83-17.789,9.225a1.485,1.485,0,0,1-.97.268c-.564-.113-.786-.786-.9-1.35a87.3,87.3,0,0,1-2.194-14.752c-.2-5.833.575-11.875,4.728-16.171,9.068-9.378,24.8-13.129,37.759-15.041,10.018-1.478,20.093-2.608,30.171-3.6,8.323-.817,17.384,1.134,25.469,3.417,8.266,2.335,14.587,6.43,19.536,13.245C1013.872,661.994,1022.765,674.245,1023.464,673.659Z" transform="translate(-843.646 -545.747)"/><path class="am" d="M890.787,709.822c7.1-6.54,16.171-10.489,25.223-13.844,14.069-5.215,27.248-9.669,42.352-8.389a120.621,120.621,0,0,1,40.733,10.876c7.442,3.474,13.628,8.991,22.086,9.148,8.115.15,16.151-4.141,24.1-.75,2.956,1.26,5.278,4.149,7.97,5.917,8.947,5.876,18.537,10.988,27.935,16.1,23.119,12.566,44.123,28.577,68.656,38.552,28.105,11.428,48.668,38.5,57.509,68.44a372.737,372.737,0,0,1-139.55,6.88c-34.35-18.32-66.409-37.784-99.041-62.4-2.29-1.717-5.726-1.717-8.015-3.435-25.336-21.113-54.558-36.883-74.219-62.545A44.19,44.19,0,0,1,890.787,709.822Z" transform="translate(-840.982 -558.789)"/><path class="an" d="M868.149,754.71c1.739-10.367,5.59-20.639,12.2-28.718,19.661,25.662,48.883,41.432,74.219,62.545,2.29,1.717,5.725,1.717,8.015,3.435,32.632,24.617,64.692,44.082,99.041,62.4a372.738,372.738,0,0,0,139.55-6.88,110.865,110.865,0,0,1,4.049,44.687,7.452,7.452,0,0,1-1.422,4.145c-1.078,1.212-2.779,1.609-4.367,1.943l-105.9,22.248c-19.043,4-35.632,11.1-53.944,1.924-27.133-13.593-53.263-29.311-79.2-44.8-27.1-16.187-51.793-37.793-77.421-56.225C863.3,807.27,864.475,776.612,868.149,754.71Z" transform="translate(-834.798 -570.415)"/><path class="ae" d="M1129.094,878.745c6.615-7.1,18.451-8.829,27.074-10.273,14.251-2.386,28.614-4.135,42.969-5.754,21.46-2.421,44.432-6.646,66.1-5.662,10.021.456,19.268,8.656,23.172,19.72s3.255,136.025,3.905,137.977l-7.3,1.288c-3.513-33.524,1.294-67.416-5.906-100.847h.573c-2.862-10.3-3.435-21.182-4.007-32.06-.616.308-.9-.046-1.211-.35-.854-3.8-2.461-7.214-6.147-9.411-.037-.022-.077-.04-.114-.061-5.972-7.12-15.1-10.438-25.16-7.925a128.986,128.986,0,0,1-20.61,3.436c-30.915,2.862-61.257,6.3-90.454,16.029.422,21.488.834,43.9-5.362,64.741-.448-13.586-.807-27.176-.93-40.768C1125.6,899.551,1122.175,886.169,1129.094,878.745Z" transform="translate(-912.69 -609.822)"/><path class="ao" d="M1132.775,888.144c29.2-9.732,59.539-13.167,90.454-16.029a128.991,128.991,0,0,0,20.61-3.436c10.057-2.514,19.189.8,25.161,7.925-5.528-3.227-13.625-2.911-19.582-2.723-12.627.4-25.246,1.88-37.768,3.487-11.714,1.5-23.51,2.145-35.2,3.914-9.646,1.459-28.867,2.758-35.409,11.445-4.9,6.5-1.174,22.807-.849,30.75q.931,22.778,1.854,45.556c.922,22.788,2.68,45.726,2.679,68.537,0,3.9-13.667,0-13.667,0-.005-.114-.012-.228-.018-.342q-1.927-36.645-3.245-73.32-.2-5.511-.378-11.022C1133.609,932.047,1133.2,909.632,1132.775,888.144Z" transform="translate(-913.488 -613.113)"/><path class="af" d="M904.921,754.846c5.725,2.862,12.595,5.152,17.747,8.587s9.733,6.87,14.885,10.305c17.747,11.45,38.929,17.747,48.089,37.212,9.871,19.742,3.574,42.036-2.019,62.849l-4.028-2.606c.209.135,2.1-5.974,2.2-6.424a92.106,92.106,0,0,0,1.6-9.531c.994-8.048,1.441-16.164,1.732-24.264.147-4.077.557-8.219.509-12.281-.038-3.244-.621-7.217-3.22-9.469-3.749-3.251-8.342-5.533-12.528-8.159-10.667-6.692-21.542-13.053-32.4-19.436-6.085-3.579-12.2-7.106-18.257-10.734-5.876-3.519-11.28-7.389-17.742-9.759a3.444,3.444,0,0,0-2.827-.161,2.8,2.8,0,0,0-1.176,1.889c-1.261,5.552-1.457,11.128-1.877,16.82q-.764,10.344-1.527,20.688-.524,7.1-1.048,14.2l-7.168-4.929.009-47.972a13.38,13.38,0,0,1,.015-1.673h.138C892.9,760,896.906,751.411,904.921,754.846Z" transform="translate(-840.779 -578.856)"/><path class="ae" d="M901.529,744.357c9.97,4.381,19.47,10.558,28.864,16.021,12.59,7.322,25.077,14.848,37.265,22.825,8.213,5.375,17.824,10.868,24.319,18.389,12.366,14.318,0,70.29,0,70.29l-1.3,3.255-7.036-4.553c5.593-20.813,11.89-43.107,2.019-62.849-9.16-19.465-30.342-25.762-48.089-37.212-5.152-3.435-9.733-6.87-14.885-10.305s-12.022-5.725-17.747-8.587c-8.015-3.435-12.023,5.152-18.892,5.152h-.138a18.031,18.031,0,0,1,1.725-6.476C890.365,744.574,895.431,741.678,901.529,744.357Z" transform="translate(-840.794 -575.64)"/><path class="ap" d="M890.939,821.135c14.313,12.022,26.907,25.762,44.082,33.2,16.217,7.085,33.388,14.514,51.035,20.839l-8.062,40.235L885.734,853.1l-.683-38.6A46.221,46.221,0,0,0,890.939,821.135Z" transform="translate(-840.537 -597.056)"/><path class="aq" d="M989.566,845.349l-3.711,18.517c-17.646-6.325-34.817-13.754-51.035-20.839-17.175-7.443-29.77-21.182-44.082-33.2a46.221,46.221,0,0,1-5.888-6.636l-.465-26.27Z" transform="translate(-840.337 -585.743)"/><path class="ar" d="M912.385,620.163c1.994,3.536,6.419,4.808,10.441,5.352a6.946,6.946,0,0,0,3.079-.072c2.374-.773,3.3-3.607,3.666-6.076a44.116,44.116,0,0,0,.428-8.835,16.177,16.177,0,0,0-2.082-7.959,9.231,9.231,0,0,0-15.447.069C909.945,606.671,910.178,616.248,912.385,620.163Z" transform="translate(-848.243 -532.019)"/><path class="ak" d="M965.694,627c1.121,5.032,4.82,9.01,8.036,13.04a3.128,3.128,0,0,1,.8,1.525,2.934,2.934,0,0,1-.681,1.9,17.676,17.676,0,0,1-13.664,7.549,2.66,2.66,0,0,1-1.4-.218,2.9,2.9,0,0,1-1.1-1.55l-4.85-11.8a5.7,5.7,0,0,1-.632-3.278c.236-1.106,1.469-2.063,2.491-1.579" transform="translate(-860.732 -540.619)"/><path class="ak" d="M961.154,611.677c.983-5.7-.627-11.947-.937-17.672-.547-10.126-13.27-21.06-23.616-18.81-3.789.824-7.832,1.79-10.447,4.652-3.248,3.552-5.421,8.635-4.806,13.4,1.44,11.153,5.158,23.084,15.315,29.412a16.172,16.172,0,0,0,24.49-10.979Z" transform="translate(-851.431 -524.935)"/><path class="ak" d="M972.379,603.919c.734-1.139,1.641-2.39,2.986-2.551,2.119-.255,3.421,2.254,3.836,4.346a6.7,6.7,0,0,1-.27,4.476c-.725,1.344-2.65,2.115-3.841,1.162" transform="translate(-866.822 -532.897)"/><path class="ar" d="M931.078,587.366c-4.758,5.015-24.074,15.829-19.854.292a32.344,32.344,0,0,1,8.146-13.81c4.1-4.171,11.68-10.119,18.122-8.491C947.769,567.955,935.08,583.148,931.078,587.366Z" transform="translate(-848.235 -521.981)"/><path class="ar" d="M964.841,590.318c1.232.58,2.971.986,3.729-.146a2.806,2.806,0,0,0,.341-1.543A24.352,24.352,0,0,0,954.9,566.6c-7.045-3.169-17.5,2.859-10.509,10.026,2.267,2.323,5.974,3.8,8.552,5.842A60.775,60.775,0,0,0,964.841,590.318Z" transform="translate(-857.702 -522.176)"/><path class="as" d="M944.067,613.845c2.531-1.092,5.458.017,7.829,1.422a32.252,32.252,0,0,1,9.678,8.846,8.711,8.711,0,0,1,1.6,3.169,7.053,7.053,0,0,1-.142,3.155c-1.99,8.085-11.994,14.508-19.723,11.108a5.773,5.773,0,0,1-2.746-2.1,6.957,6.957,0,0,1-.721-3.234C939.522,630.632,937.256,616.85,944.067,613.845Z" transform="translate(-856.844 -536.526)"/><path class="at" d="M892.917,633.163q.993,1.089,2.078,2.09a30.686,30.686,0,0,0,6.571,4.6c7.782,4.046,17,4.568,25.671,3.233a11.08,11.08,0,0,0,4.806-1.594c1.964-1.391,2.871-4.137.691-5.475-1.966-1.206-6.809.542-9.183.564a70.982,70.982,0,0,1-13.477-.964c-7.1-1.322-14.018-4.359-19.129-9.462-.131-.131-.271-.319-.184-.482s.407.063.24.14" transform="translate(-842.247 -540.201)"/></g><g transform="translate(62.361 70.054)"><g transform="translate(73.122)"><g transform="translate(106.989 249.351)"><path class="au" d="M857.169,710.22l8.625,5.241,44.394,26.979L988,726.178l-51.048-28.91-62.444,10.137Z" transform="translate(-857.169 -697.268)"/><line class="av" x1="14.987" y1="8.488" transform="translate(82.31 11.667)"/><path class="av" d="M965.142,717.394l12.806,7.253-13.457-3.39,7.609,6.19" transform="translate(-889.473 -703.326)"/></g><path class="aw" d="M850.984,442.052c-5.845,8.678-7.784,30.421-22.4,23.636a23.946,23.946,0,0,1-11.773-11.334c-7.3-15.811,11.635-21.547,12.87-35.972" transform="translate(-737.529 -363.972)"/><path class="u" d="M868.053,575.529c-15.274-26.821-25.351-56.978-45.427-80.421-5-5.844-10.565-11.169-15.834-16.768-3.253-3.458-8.289-7.183-9.87-11.838-1.869-5.5,3.548-9.7,6.825-14.016,2.642-3.483,4.481-5.544,8.515-3.979,21.6,8.384,28.882,30.227,35.993,50.073,4.488,12.525,8.823,25.118,12.35,37.952,1.755,6.389,3.316,12.834,4.585,19.338C866.2,561.073,865.534,571.1,868.053,575.529Z" transform="translate(-731.931 -372.88)"/><path class="aw" d="M845.663,413.557a56.577,56.577,0,0,0,6.429,13.71,24.349,24.349,0,0,0,11.585,9.434c4.385,1.545,10.609,1.563,14.169-1.824,3.283-3.124,5.83-7.407,8.267-11.213,1.214-1.9,2.3-5.291,3.965-6.745,1.262-1.1,3.229-.842,4.694-1.625,2-1.068,2.308-3.179,2.315-5.275.017-5.017-1.3-10.261.042-15.078a36.763,36.763,0,0,0,1.01-15.413c-1.978-11.691-13.927-17.8-24.729-19.423a36.424,36.424,0,0,0-27.582,6.79c-4.906,3.729-8.224,12.286-10.068,18a41.544,41.544,0,0,0-.342,24.575" transform="translate(-743.124 -346.3)"/><path class="ax" d="M852.3,720.521a304.1,304.1,0,0,1,2.407,34.274c.113,8.247,2.082,19.457-.807,27.2-1.72,4.613-15.318,3.46-19.428,3.449a191.7,191.7,0,0,1-22.12-1.625c-34.136-4.07-68.572-11.479-98.262-28.806-3.169-1.849-6.4-3.94-8.191-7.144-1.919-3.443-1.856-7.6-1.741-11.543,1.81-61.822,4.089-123.807,13.611-184.918,2.345-15.05,5.2-30.154,10.523-44.474A81.745,81.745,0,0,1,752.6,471.655c8.064-7.037,23.577-18.673,34.4-11.212,14.458,9.97,27.762,22.487,35.347,38.582,4.634,9.834,6.949,20.574,9.155,31.219C838,561.631,843.88,593.2,847.312,625.086,850.751,657.031,848.263,688.831,852.3,720.521Z" transform="translate(-704.109 -375.908)"/><path class="ay" d="M890.688,367.094a19.805,19.805,0,0,1-17.61,21.14c-13.879,1.539-13.879-12.771-13.167-22.676a17.018,17.018,0,0,1,.692-4.335,12.749,12.749,0,0,1,3.8-5.2c5.907-5.23,20.85-3.866,24.533,4.112A19.693,19.693,0,0,1,890.688,367.094Z" transform="translate(-750.934 -344.265)"/><path class="ay" d="M917.835,363.648c1.669,2.529,3.066,5.614,2.189,8.515-.905,3-4.085,4.863-7.205,5.12s-6.192-.786-9.093-1.966c-7.941-3.231-15.616-8.2-22.471-13.279-4.627-3.429-22.381-18.689-7.343-21.157,8.249-1.354,14,1.527,21,5.274C903.516,350.76,912.3,355.256,917.835,363.648Z" transform="translate(-753.435 -340.542)"/><path class="aw" d="M861.855,410.66c-2.92.414-5.238-2.716-5.535-5.649a8.962,8.962,0,0,1,2.967-7.746,7.016,7.016,0,0,1,8.045-.658c1.678,1.09,1.817,1.782,2.075,3.767" transform="translate(-749.911 -357.124)"/><path class="ay" d="M838.595,354.7c-4.583,5.261-5.651,12.627-6.529,19.549-.958,7.562-1.917,15.22-.974,22.784.366,2.939,1.945,6.586,4.894,6.327,2.031-.178,3.315-2.193,4.316-3.97a151.859,151.859,0,0,1,18.2-25.645c2.492-2.835,5.117-5.616,6.912-8.936C875.829,345.539,847.826,344.1,838.595,354.7Z" transform="translate(-742.215 -342.825)"/><path class="az" d="M906.925,748.055c-.839,1.182-1.724,2.333-2.558,3.4-1.947,2.5-4.53,4.729-7.655,5.238-1.7.278-2.878-.375-2.96-2.142-.27-5.849,4.2-10.66,7.092-15.75.971-1.707,1.608-3.662,2.668-5.305.677-1.049,1.694-1.785,2.469-2.76,2.515-3.16,4.792-6.4,7.608-9.322,1.511,5.688.149,11.624-1.94,16.978a55.087,55.087,0,0,1-2.407,6A35.745,35.745,0,0,1,906.925,748.055Z" transform="translate(-761.189 -455.186)"/><g transform="translate(133.78 271.937)"><path class="aw" d="M896.007,743.787c-.257-.459-.68.433-.437.9a46.526,46.526,0,0,0,23.933,21.5,10.9,10.9,0,0,0,5.583,1c1.891-.3,3.726-1.744,3.864-3.653,1.655,1.4,4.261.639,5.948-.726s2.958-3.245,4.841-4.323c1.83-1.048,4.52-1.795,4.528-3.9a4.289,4.289,0,0,0-1.657-2.823l-8.447-8.28a26.265,26.265,0,0,0-7.782-4.942c-2.551-1.12-5.108-2.241-7.753-3.117-4.691-1.554-9.872-2.454-13.476-5.836" transform="translate(-895.497 -729.58)"/><path class="aw" d="M923.918,737.674c7.971.744,15.693,2.877,23.559,4.246,2.066.36,6.393-.272,6.991,2.47.576,2.642-3.385,4.648-5.312,5.406-2.283.9-4.46.641-5.936-1.4" transform="translate(-904.052 -732.016)"/></g><path class="ba" d="M754.377,556.784c2.1,17.667,4.2,35.354,7.481,52.848,1.3,6.938,1.966,13.645,6.2,19.323,4.683,6.283,9.948,11.8,15.273,17.53q15.382,16.56,32.369,31.528c7.063,6.221,13.877,11.769,22.794,15.124.781.294,13.609,3.633,13.6,3.47-.51-13.261,19.044-34.482,19.044-34.482-26.334-13.007-47.937-33.842-66.7-56.331-1.44-1.725-.528-10.049-.674-12.444q-.44-7.2-1-14.4-1.061-13.793-2.519-27.552-1.451-13.779-3.252-27.518" transform="translate(-719.24 -395.727)"/><g transform="translate(70.68 80.213)"><path class="bb" d="M805.379,456.16s9.573-3.3,15.892,5.2c0,0,10.366,16.251,16.374,74.263l-2.775-.577s-3.74-43.712-13.105-66.377c0,0-5.118-13.8-13.257-9.947l-3.282-3.428" transform="translate(-805.226 -455.296)"/><path class="bc" d="M841.817,567.429a10.022,10.022,0,1,0,11.617,8.121,10.022,10.022,0,0,0-11.617-8.121" transform="translate(-813.749 -489.001)"/><path class="bd" d="M844.961,574.786a4.827,4.827,0,1,0,5.592,3.91,4.83,4.83,0,0,0-5.592-3.91" transform="translate(-815.986 -491.24)"/></g><path class="au" d="M877.968,426.709q-1.044-.005-2.089.033c-7.409.277-12.426,10.446-13.939,16.565-2.384,9.643,3.3,16.118,13.382,16.437,10.628.338,19.266-7.892,24.2-16.723,1.074-1.922,6.036-11.092,4.655-12.416a1.966,1.966,0,0,0-1.072-.41C894.892,428.811,886.365,426.751,877.968,426.709Z" transform="translate(-751.454 -366.478)"/><path class="be" d="M875.427,397.616q.321,11.016,1.591,21.977" transform="translate(-755.676 -357.721)"/></g><g transform="translate(0 9.05)"><path class="bf" d="M722.606,477.344a17.022,17.022,0,0,0,14.167,4.023c17.2-3.1,23.014-33.5,27.046-47.3,3.889-13.312,10.481-31.7,1.7-44.478-7.107-10.344-20.18-17.075-32.3-18.946a47.794,47.794,0,0,0-44.931,18.677c-9.417,12.924-14.833,24.071-12.319,40.863,1.915,12.789,7.53,24.711,13.651,36.1" transform="translate(-622.334 -358.498)"/><path class="bf" d="M733.1,499.027a255.969,255.969,0,0,1-1.766,36.022,5.113,5.113,0,0,1-.769,2.522,4.96,4.96,0,0,1-3.11,1.516,53.755,53.755,0,0,1-28.465-1.937c-2.766-.973-5.556-2.25-7.419-4.513-3.584-4.353-2.668-10.709-1.8-16.28a194.886,194.886,0,0,0,2.261-24.787" transform="translate(-626.433 -395.051)"/><path class="ar" d="M735.548,418.589c13.288,5.876,25.7-1.315,33.258-12.07,7.323-10.42,18.134-32.549.189-37.425a37.4,37.4,0,0,0-29.224,4.311c-6.863,4.285-12.318,11.038-14.285,18.886s-.171,16.719,5.287,22.691A14.627,14.627,0,0,0,735.548,418.589Z" transform="translate(-637.189 -357.807)"/><path class="ar" d="M801,410.9c2.731-.665,4.5-3.311,5.521-5.93,2.607-6.693,2.008-14.281-.128-21.138-1.585-5.094-4.123-10.094-8.333-13.37s-10.356-4.443-14.975-1.777a6.8,6.8,0,0,0-2.614,2.48c-1.013,1.823-.769,4.063-.405,6.117,1.2,6.787,1.893,17,5.036,23.534C787.387,405.569,795.281,412.287,801,410.9Z" transform="translate(-653.754 -357.618)"/><path class="ar" d="M673.906,379.143c-13.486,22.43-15.338,82.539,24.327,76.075,22.19-3.617,30.66-33.557,38.428-50.918,3.741-8.361,11.1-17.924,12.282-26.844,1.509-11.411-2.408-20.009-13.534-22.292a77.793,77.793,0,0,0-25.652-1.059C693.757,356.311,681.726,366.139,673.906,379.143Z" transform="translate(-619.278 -353.488)"/><path class="bf" d="M760.351,440.482c.229-3-3.4-5.217-6.306-4.441s-4.866,3.574-5.749,6.45a16.234,16.234,0,0,0,1.785,13.275,5.652,5.652,0,0,0,3.04,2.647c1.327.361,3.013-.389,3.194-1.753" transform="translate(-644.081 -378.29)"/><path class="bg" d="M628.329,370.458c3.818-4.744,8.308-9.109,13.809-11.721a31.018,31.018,0,0,1,13.382-2.865c14.661.05,34.278,13.295,36.25,28.8.96,7.556-3.975,15.623-10.34,19.523-7.022,4.3-13.359-.562-18.888,8.649-2.634,4.387-3.647,9.534-4.472,14.585-3.288,20.116-.449,38.615-.138,58.627.145,9.339-7.749,15.711-16.839,13.66-23.626-5.333-22.512-33.24-25.638-51.615C610.775,420.6,609.658,393.661,628.329,370.458Z" transform="translate(-603.426 -354.206)"/><path class="bh" d="M655.842,542.5c-.423,9.7-6.9,22.385-17.708,23.63-10.251,1.182-17.7-3.756-26.524,4.469-1.815,1.693-3.97,3.575-6.424,3.2-2.417-.366-3.949-2.793-4.733-5.108-2.684-7.927.791-14.4,4.364-21.373,2.841-5.545,8.956-9.464,10.482-15.66,1.408-5.731-.5-11.806,1.791-17.434,4.613-11.33,22.457-8.371,29.38-1.138C653.219,520.142,656.251,533.125,655.842,542.5Z" transform="translate(-599.5 -399.6)"/><path class="bi" d="M719.461,543.53c-11.54-6.113-28.913-17.59-42.587-14.771-6.973,1.438-9.326,9.48-9.414,16.316-.041,3.15,1.071,6.483,3.6,8.357a15.04,15.04,0,0,0,4.542,2c12.465,3.908,24.961,7.825,37.781,10.338,6.482,1.271,13.32,2.158,19.587.073-.445-5.336-1-10.981-4.2-15.277C726.433,547.417,722.929,545.367,719.461,543.53Z" transform="translate(-619.955 -406.113)"/><path class="bj" d="M606.434,689.943c-.14,24.092,1.5,47.071,9.76,69.607a20.084,20.084,0,0,0,2.412,5.056c5.272,7.2,14.6,5.4,22.252,5.439,10.233.051,20.474-.1,30.688-.757a230.11,230.11,0,0,0,35.306-4.787c7.548-1.682,22.776-3.557,27.248-10.849,2.556-4.169,2.058-9.449,1.474-14.3l-3.216-26.726c-.984-8.169-2.647-15.149-.846-23.491,3.362-15.563,12.649-29.846,12.992-45.764.226-10.505-3.5-20.646-7.171-30.492l-8.872-23.787c-4.673-12.526-14.874-16.542-26.349-22.191a177.511,177.511,0,0,0-36.917-12.845c-16.145-3.888-30.838.895-40.741,14.489-11.206,15.383-16.851,34.248-19.06,53.15C602.694,644.781,606.567,667.159,606.434,689.943Z" transform="translate(-600.985 -413.465)"/><path class="bk" d="M786.854,844.019c3.417,3.879,7.161,7.806,12.063,9.448,3.251,1.089,7.287.879,9.547-1.7a9.63,9.63,0,0,0,1.976-4.662c1.645-8.833-2.1-17.68-5.765-25.885l-26.422-59.2c-3.376-7.564-6.759-15.142-10.87-22.334-4.553-7.964-11.255-16.166-20.415-16.66-7.416-.4-16.2,6.4-17.262,13.916-1.137,8.048,5.124,19.408,8.02,26.732a275.423,275.423,0,0,0,28.031,53.067A271.983,271.983,0,0,0,786.854,844.019Z" transform="translate(-638.651 -464.716)"/><g transform="translate(42.879 134.112)"><path class="bl" d="M788.72,723.612c-2.029.208-4.749-.372-5.991-2.023-.77-.859-2.111-4.146-3.323-8.548-2.5-8.8-5.03-21.947-7.268-32.34l-1.766-.253c2.225,10.318,4.746,23.481,7.356,32.709,1.348,4.649,2.583,8.318,4.341,10.578,2.461,2.925,5.3,3.032,7.518,2.939a13.1,13.1,0,0,0,3.136-.6l-1.085-3.007a12.447,12.447,0,0,1-2.918.549" transform="translate(-693.811 -586.016)"/><path class="bb" d="M798.239,739.492c-1.107.247-1.631,1.575-1.178,2.976a2.734,2.734,0,0,0,2.832,2.1c1.1-.25,1.632-1.579,1.177-2.977a2.722,2.722,0,0,0-2.831-2.1" transform="translate(-701.796 -603.777)"/><path class="bl" d="M806.8,677.8l-1.556.491c3.625,10.293,8.489,23.273,10.983,32.072,1.271,4.392,1.816,7.741,1.557,8.678-.278,1.753-2.565,2.7-4.635,2.779a15.63,15.63,0,0,1-3.106-.121l.634,3.043a15.858,15.858,0,0,0,3.34.136c2.179-.222,4.855-.72,5.591-3.873.43-2.416-.417-6.106-1.708-10.761-2.619-9.233-7.507-22.223-11.1-32.445" transform="translate(-704.308 -585.219)"/><path class="bb" d="M812.252,738.5c-1.2-.078-1.9,1-1.558,2.411a3.511,3.511,0,0,0,2.785,2.692c1.2.076,1.894-1,1.557-2.408a3.5,3.5,0,0,0-2.783-2.695" transform="translate(-705.923 -603.488)"/><path class="bb" d="M773.9,636.782c-7.53.665-9.142,15.347-4.364,32.262l2.186-.159h0c-2.175-7.686-2.842-14.708-2.2-19.764s2.561-8.136,5.508-8.345,6.48,2.47,9.922,7.246a63.847,63.847,0,0,1,8.866,19.285l2.188-.152c-4.806-16.91-14.507-30.787-22.106-30.372" transform="translate(-692.746 -572.87)"/><path class="bb" d="M742.485,605.7c-2.258-11.14-8.153-22.6-16.366-30.109a126.247,126.247,0,0,0-30.693-20.9c-7.333-3.483-29.083-16.359-34.309-4.265a2.106,2.106,0,0,0-.171,1.626c.345.811,1.4.977,2.283,1.016,11.145.5,17.631-1.086,28.018,3.975A105.292,105.292,0,0,1,717.1,574.554a91.032,91.032,0,0,1,14.991,18.119c3.515,5.608,5.066,13.825,6.86,20.153a13.031,13.031,0,0,0,3.854-2C743.652,609.488,742.773,607.125,742.485,605.7Z" transform="translate(-660.843 -545.352)"/></g><path class="bm" d="M679.892,623.493c4.24,34.767,12.119,70.185,24.968,103.157,1.81,4.645,4.415,9.842,9.285,10.907,2.407.526,4.9-.109,7.27-.8,13.5-3.937,50.237-15.111,50.524-33.145.074-4.673-1.927-9.1-3.881-13.345-5.21-11.323-10.375-22.676-14.873-34.3-4.732-12.228-8.726-24.75-14.033-36.739a46.5,46.5,0,0,0-22.585-22.841" transform="translate(-623.698 -426.601)"/><path class="au" d="M757.09,491.489a19.665,19.665,0,0,0,.4,13.822c8.806,20.856,38.49-18.435,23.1-32.894-8.624-8.1-15.56,3.62-19.654,10.635A40.564,40.564,0,0,0,757.09,491.489Z" transform="translate(-646.616 -388.459)"/><path class="be" d="M772.462,461.631a1.945,1.945,0,0,1,.745,2.181L762.66,437.873" transform="translate(-648.611 -378.888)"/></g></g><path class="bn" d="M981.476,402.861c1.552,4.114,4.663,7.069,5.992,11.361.953,3.079,1.822,6.239,2.8,9.369a19.578,19.578,0,0,1,.733,3.372,4.861,4.861,0,0,1-.306,2.913c-.753,1.4-4.063,1.495-5.476,1.189-4.18-.9-9.412.22-13.335.754a41.934,41.934,0,0,0-15.981,5.51c-7.615,4.585-12.939,13.808-17.569,21.366a252.477,252.477,0,0,0-14.812,28c-3.262,7.228-6.238,14.822-6.588,22.824-.24,5.458.675,11.667,3.2,16.505,1.872,3.585,4.913,4.667,8.083,6.874,1.8,1.252,3.623,2.455,5.463,3.628a13.52,13.52,0,0,0,1.281,1.45,66.424,66.424,0,0,0,14.758,10.4c-.208,8.908-.451,17.7-1.143,26.393-.377,4.758-1.945,12.59.956,16.978a44.16,44.16,0,0,0-.436,7.559q.086,4.4.34,8.787c-2.21-2.883-4.43-5.758-6.636-8.644-1.466-1.917-3.679-6.151-6.013-9.176.621-.514,1.235-1.025,1.836-1.527-.3.252-2.138-1.9-4.182-4.494-1.706-6.241-3.834-13.791-6.2-21.659-6.834-22.739-15.63-48.09-21.842-51.876-1.176-.718-3.362-1.1-6.337-1.22L898.7,484.057l-.675-12.565a8.04,8.04,0,0,0-5.906-3.991c-4.457-2.732-10.408-5.74-14.071-5.01-4.114.821-48.927,6.62-80.806,10.706-.246-.557-.5-1.113-.758-1.665a75.281,75.281,0,0,0-7.515-12.511,104.66,104.66,0,0,0-6.127-12.743c2.382-3.695,4.071-8.7,5.847-13.058,1.395,5.3,6.285,8.6,13.375,8.822,10.524.333,19.077-7.8,23.967-16.52a79.837,79.837,0,0,0,3.74-7.576c1.8-1.086,2.087-3.094,2.094-5.092.017-4.956-1.286-10.137.041-14.895a37.849,37.849,0,0,0,1.35-12.054,13.675,13.675,0,0,0,3.976.3c3.09-.254,6.238-2.1,7.135-5.058.867-2.865-.515-5.914-2.168-8.412-5.484-8.291-14.178-12.732-22.7-17.281-6.931-3.7-12.63-6.548-20.8-5.21-4.477.733-6.016,2.609-5.859,4.966-6.388-.474-13.988,1.829-18,6.426-4.539,5.2-5.6,12.474-6.464,19.313-.949,7.47-1.9,15.035-.965,22.508a9.543,9.543,0,0,0,2.076,5.094c-2.395,6.112-7.738,10.7-10.853,15.962-3.773-1.316-5.572.691-8.116,4.039-.246.323-.5.645-.771.968l-.354-.369.116.656c-.61.728-1.255,1.455-1.889,2.191l-.085.026c1.847-6.2,4.117-13.377,5.082-20.507.06-.013.122-.021.181-.036,2.7-.656,4.457-3.271,5.467-5.858,2.581-6.611,1.987-14.107-.127-20.881-1.57-5.031-4.082-9.972-8.252-13.208-4.024-3.124-9.83-4.3-14.343-2-.531-.111-1.065-.212-1.6-.3-2.045-4.395-5.929-7.494-11.95-8.726a77.2,77.2,0,0,0-25.4-1.046,45.473,45.473,0,0,0-18.946,7.1c-6.129-3.758-13.019-6.043-19.061-6.064a30.779,30.779,0,0,0-13.25,2.83c-5.448,2.579-9.894,6.892-13.675,11.579-18.487,22.922-17.381,49.535-12.748,76.7,1.4,8.238,1.945,18.414,4.3,27.566-.059,3.392.248,6.823-.569,10.138-1.51,6.121-7.567,9.994-10.379,15.471-3.538,6.89-6.98,13.282-4.322,21.113.777,2.288,2.293,4.685,4.687,5.047,2.43.368,4.564-1.492,6.361-3.164a20.067,20.067,0,0,1,3.324-2.535c-5.979,12.215-9.363,25.75-10.951,39.307-2.672,22.81,1.162,44.918,1.032,67.425-.138,23.8,1.481,46.5,9.664,68.763a19.83,19.83,0,0,0,2.387,5c5.221,7.113,14.462,5.335,22.035,5.372,10.132.05,20.272-.1,30.386-.748.857-.055,1.713-.122,2.57-.184a15.894,15.894,0,0,0,1.738,7.191c1.768,3.166,4.973,5.231,8.11,7.058,24.169,14.072,51.514,21.519,79.258,25.958.367,14.508.585,23.3.585,23.3l10.955,5.144h18.689l.562-24.692c3.047.212,6.1.346,9.153.355,4.07.011,17.534,1.151,19.237-3.407,2.1-5.621,1.606-13.084,1.152-19.881l67.8,45.684.718-3.572c21.6,12.84,43.427,25.573,65.951,36.83a41.4,41.4,0,0,0,9.6,3.424q1.254,33.906,3.038,67.792l.017.338s13.533,3.857,13.533,0c0-22.407-1.72-44.937-2.637-67.322,9.677-.806,19.4-3.938,29.863-6.132l104.864-21.979c1.571-.329,3.256-.722,4.323-1.919a3.98,3.98,0,0,0,.433-.6c2.572,26.6.07,53.385,2.859,79.938l7.229-1.273c-.645-1.928,0-125.374-3.867-136.3-3.812-10.776-12.767-18.8-22.528-19.452a102.607,102.607,0,0,0-24.063-26.831c-.832-10.83-1.275-21.813,1.5-32.226,1.569-5.893,4.126-11.429,6.222-17.135,3.577-9.74,5.829-20.316,4.358-30.65a38.361,38.361,0,0,0-4.114-12.652,23.231,23.231,0,0,0,2.6-3.743c2.149-3.836,3.281-8.533,2.1-12.815-.832-3.025-2.716-5.575-4.212-8.3-6.227-11.329-3.055-23.256-2.065-35.576a282.922,282.922,0,0,0,.86-39.927c-.516-8.431-1.03-18.967-4.49-27.336,3.22-.825,6.513-1.616,9.436-.278a4.409,4.409,0,0,0,2.049.552,3.623,3.623,0,0,0,2.182-1.147,11.05,11.05,0,0,0,3-8.517,18.423,18.423,0,0,0-3.051-8.708c-5.971-9.422-16.616-11.87-23.6-19.843-3.791-4.328-5.04-10.407-6.967-15.947-4.775-13.724-15.588-25.443-30.66-22.938a22.366,22.366,0,0,0-3.991,1.074,6.317,6.317,0,0,0-.756-.088,14.885,14.885,0,0,0-6.039.963c.133-4.3-.688-8.73-3.745-11.766a12,12,0,0,0-3.812-2.509l-.079-.025a6.568,6.568,0,0,0-2.751-3.888c-2.677-1.927-7.305-2.542-10.392-3-7.53-1.112-17.11,1.167-22.905,6.613-4.195,3.941-5.658,9.441-5.728,15.039-.038,3,.541,5.927.505,8.946-.029,2.427-.737,5.105-.359,7.5A6.975,6.975,0,0,0,981.476,402.861ZM887.1,681.251c-2.268-1.7-5.669-1.7-7.936-3.393q-1.507-1.253-3.032-2.478h0q1.523,1.229,3.032,2.478c2.268,1.7,5.669,1.7,7.936,3.393q7.861,5.917,15.69,11.446h0Q894.953,687.157,887.1,681.251ZM669.821,457.972q.881,1.775,1.794,3.534-.564,8.625-1.9,17.177-.074.476-.148.958a23.12,23.12,0,0,0-6.206.366,9.442,9.442,0,0,0-2.639.965c-.461-10.7-1.321-21.086-1.147-31.66A23.143,23.143,0,0,0,669.821,457.972Zm282.716,43.495c-.749,5.426-1.271,10.8-1.651,16.138q-2.1-1.582-4.111-3.3l5.871-13.608C952.609,500.953,952.571,501.214,952.537,501.466Zm94.955-42.806-.046.043a34.917,34.917,0,0,0-1.843-9.063c.2-.015.394-.033.591-.062a9.092,9.092,0,0,0,1.882-.491,29.71,29.71,0,0,1,1.455,4.058c.248.923.457,1.854.651,2.79l-2.711,1.7Zm-28.651-27.524a20.619,20.619,0,0,0,3.118,2.934,30.706,30.706,0,0,0,6.5,3.551,120.193,120.193,0,0,0-12.159-3.434A12.914,12.914,0,0,0,1018.84,431.136Zm101.392,305.7h0a364.89,364.89,0,0,1-69.948,9.358A364.89,364.89,0,0,0,1120.233,736.837ZM915.34,701.355h0c18.365,12.358,36.817,23.44,55.877,33.976h0C952.157,724.8,933.705,713.714,915.34,701.355ZM985.168,742.9c-.334-.178-.666-.356-1-.534h0c.333.178.665.356,1,.534a383.16,383.16,0,0,0,51.963,3.542A383.16,383.16,0,0,1,985.168,742.9Zm64.807,3.31q-4.219.149-8.44.2Q1045.756,746.356,1049.974,746.207Z" transform="translate(-539.398 -273.308)"/></g></g></g></svg>