<svg xmlns="http://www.w3.org/2000/svg" xmlns:xlink="http://www.w3.org/1999/xlink" width="458.093" height="419.171" viewBox="0 0 458.093 419.171"><defs><style>.a,.bk,.bm,.bp,.ca{fill:none;}.b{fill:url(#a);}.c{fill:url(#b);}.d{fill:url(#c);}.e{fill:#100052;}.f{fill:url(#d);}.g{fill:#bbdbf9;}.h{fill:url(#e);}.i{fill:url(#f);}.j{fill:url(#g);}.k{fill:url(#h);}.l{fill:url(#i);}.m{fill:url(#j);}.n{fill:url(#k);}.o{fill:url(#l);}.p{fill:url(#m);}.q{fill:url(#n);}.r{fill:url(#o);}.s{fill:url(#p);}.t{fill:url(#q);}.u{fill:url(#r);}.v{fill:url(#s);}.w{fill:url(#t);}.x{fill:url(#u);}.y{fill:#ffc69c;}.z{fill:url(#v);}.aa{fill:url(#w);}.ab{fill:url(#x);}.ac{fill:url(#y);}.ad{fill:url(#z);}.ae{fill:url(#aa);}.af{fill:url(#ab);}.ag{fill:url(#ac);}.ah{fill:url(#ad);}.ai{fill:url(#ae);}.aj{fill:url(#af);}.ak{fill:url(#ag);}.al{fill:url(#ah);}.am{fill:url(#ai);}.an{fill:url(#aj);}.ao{fill:url(#ak);}.ap{fill:url(#al);}.aq{fill:url(#am);}.ar{fill:url(#an);}.as{fill:url(#ao);}.at{fill:url(#ap);}.au{fill:url(#aq);}.av{fill:url(#ar);}.aw{fill:url(#as);}.ax{fill:url(#at);}.ay{fill:url(#au);}.az{fill:url(#av);}.ba{fill:url(#aw);}.bb{fill:url(#ax);}.bc{fill:url(#ay);}.bd{fill:url(#az);}.be{fill:url(#ba);}.bf{fill:url(#bb);}.bg{fill:url(#bc);}.bh{fill:#fff;}.bi{clip-path:url(#bd);}.bj,.by{fill:#f9c3a5;}.bj,.bk,.bl,.bm,.bp,.by{stroke:#100052;}.bj,.bk,.bl,.ca{stroke-miterlimit:10;}.bj,.bk{stroke-width:1.072px;}.bl{fill:#e28b3d;stroke-width:1.693px;}.bm,.bp,.by{stroke-linecap:round;stroke-linejoin:round;}.bm{stroke-width:1.646px;}.bn{fill:#91b9e8;}.bo{fill:#adccfa;}.bp{stroke-width:1.739px;}.bq{fill:url(#be);}.br{fill:url(#bf);}.bs{clip-path:url(#bi);}.bt{fill:#97bcf3;}.bu{fill:#eaf3fa;}.bv{fill:url(#bj);}.bw{fill:#97bbf5;}.bx{fill:#d5e4ff;}.by{stroke-width:1.041px;}.bz{fill:url(#bk);}.ca{stroke:#d5e4ff;}</style><linearGradient id="a" x1="0.114" y1="0.985" x2="0.702" y2="-0.041" gradientUnits="objectBoundingBox"><stop offset="0" stop-color="#faebd8"/><stop offset="0.74" stop-color="#fec567"/><stop offset="1" stop-color="#ffb83f"/></linearGradient><linearGradient id="b" x1="0.099" y1="-0.005" x2="0.566" y2="0.842" xlink:href="#a"/><linearGradient id="c" y1="0.5" x2="1" y2="0.5" gradientUnits="objectBoundingBox"><stop offset="0" stop-color="#2a7195"/><stop offset="1" stop-color="#99cbcf"/></linearGradient><linearGradient id="d" x1="1.135" y1="-0.221" x2="0.416" y2="0.619" xlink:href="#c"/><linearGradient id="e" x1="152.699" y1="211.261" x2="152.747" y2="211.261" gradientUnits="objectBoundingBox"><stop offset="0" stop-color="#ff9077"/><stop offset="1" stop-color="#e9645a"/></linearGradient><linearGradient id="f" x1="195.832" y1="117.497" x2="195.895" y2="117.497" xlink:href="#e"/><linearGradient id="g" x1="220.683" y1="121.092" x2="220.752" y2="121.092" xlink:href="#e"/><linearGradient id="h" x1="144.973" y1="136.085" x2="145.018" y2="136.085" xlink:href="#e"/><linearGradient id="i" x1="158.384" y1="213.282" x2="158.432" y2="213.282" xlink:href="#e"/><linearGradient id="j" x1="217.802" y1="130.807" x2="217.869" y2="130.807" xlink:href="#e"/><linearGradient id="k" x1="223.566" y1="126.56" x2="223.635" y2="126.56" xlink:href="#e"/><linearGradient id="l" x1="156.098" y1="155.981" x2="156.147" y2="155.981" xlink:href="#e"/><linearGradient id="m" x1="266.001" y1="119.168" x2="266.085" y2="119.168" xlink:href="#e"/><linearGradient id="n" x1="138.386" y1="145.897" x2="138.429" y2="145.897" xlink:href="#e"/><linearGradient id="o" x1="158.318" y1="173.784" x2="158.366" y2="173.784" xlink:href="#e"/><linearGradient id="p" x1="178.997" y1="119.921" x2="179.051" y2="119.921" xlink:href="#e"/><linearGradient id="q" x1="152.83" y1="176.757" x2="152.879" y2="176.757" xlink:href="#e"/><linearGradient id="r" x1="190.29" y1="124.434" x2="190.35" y2="124.434" xlink:href="#e"/><linearGradient id="s" x1="263.046" y1="124.497" x2="263.129" y2="124.497" xlink:href="#e"/><linearGradient id="t" x1="166.067" y1="197.037" x2="166.119" y2="197.037" xlink:href="#e"/><linearGradient id="u" y1="0.5" x2="1" y2="0.5" gradientUnits="objectBoundingBox"><stop offset="0" stop-color="#ff9077"/><stop offset="1" stop-color="#ed3e3e"/></linearGradient><linearGradient id="v" x1="349.971" y1="474.021" x2="350.079" y2="474.021" xlink:href="#e"/><linearGradient id="w" x1="446.545" y1="261.738" x2="446.685" y2="261.738" xlink:href="#e"/><linearGradient id="x" x1="502.348" y1="273.966" x2="502.502" y2="273.966" xlink:href="#e"/><linearGradient id="y" x1="329.334" y1="308.179" x2="329.436" y2="308.179" xlink:href="#e"/><linearGradient id="z" x1="355.645" y1="476.042" x2="355.753" y2="476.042" xlink:href="#e"/><linearGradient id="aa" x1="484.088" y1="289.426" x2="484.237" y2="289.426" xlink:href="#e"/><linearGradient id="ab" x1="505.217" y1="279.454" x2="505.372" y2="279.454" xlink:href="#e"/><linearGradient id="ac" x1="350.316" y1="341.977" x2="350.424" y2="341.977" xlink:href="#e"/><linearGradient id="ad" x1="593.36" y1="266.351" x2="593.547" y2="266.351" xlink:href="#e"/><linearGradient id="ae" x1="313.438" y1="332.289" x2="313.534" y2="332.289" xlink:href="#e"/><linearGradient id="af" x1="353.827" y1="388.913" x2="353.935" y2="388.913" xlink:href="#e"/><linearGradient id="ag" x1="401.74" y1="270.08" x2="401.861" y2="270.08" xlink:href="#e"/><linearGradient id="ah" x1="348.361" y1="391.911" x2="348.47" y2="391.911" xlink:href="#e"/><linearGradient id="ai" x1="437.086" y1="276.469" x2="437.221" y2="276.469" xlink:href="#e"/><linearGradient id="aj" x1="590.355" y1="271.703" x2="590.542" y2="271.703" xlink:href="#e"/><linearGradient id="ak" x1="377.752" y1="433.947" x2="377.869" y2="433.947" xlink:href="#e"/><linearGradient id="al" x1="75.149" y1="53.823" x2="75.17" y2="53.823" xlink:href="#u"/><linearGradient id="am" x1="240.687" y1="310.325" x2="240.76" y2="310.325" xlink:href="#e"/><linearGradient id="an" x1="308.382" y1="172.019" x2="308.476" y2="172.019" xlink:href="#e"/><linearGradient id="ao" x1="346.388" y1="178.738" x2="346.493" y2="178.738" xlink:href="#e"/><linearGradient id="ap" x1="227.402" y1="201.018" x2="227.471" y2="201.018" xlink:href="#e"/><linearGradient id="aq" x1="246.366" y1="312.345" x2="246.439" y2="312.345" xlink:href="#e"/><linearGradient id="ar" x1="337.306" y1="190.771" x2="337.406" y2="190.771" xlink:href="#e"/><linearGradient id="as" x1="349.254" y1="184.208" x2="349.358" y2="184.208" xlink:href="#e"/><linearGradient id="at" x1="243.093" y1="226.225" x2="243.166" y2="226.225" xlink:href="#e"/><linearGradient id="au" x1="413.666" y1="174.923" x2="413.792" y2="174.923" xlink:href="#e"/><linearGradient id="av" x1="216.346" y1="216.108" x2="216.41" y2="216.108" xlink:href="#e"/><linearGradient id="aw" x1="245.867" y1="255.034" x2="245.94" y2="255.034" xlink:href="#e"/><linearGradient id="ax" x1="278.294" y1="176.509" x2="278.376" y2="176.509" xlink:href="#e"/><linearGradient id="ay" x1="240.389" y1="258.017" x2="240.463" y2="258.017" xlink:href="#e"/><linearGradient id="az" x1="300.413" y1="181.757" x2="300.504" y2="181.757" xlink:href="#e"/><linearGradient id="ba" x1="410.702" y1="180.268" x2="410.828" y2="180.268" xlink:href="#e"/><linearGradient id="bb" x1="260.622" y1="286.421" x2="260.701" y2="286.421" xlink:href="#e"/><linearGradient id="bc" x1="47.356" y1="35.187" x2="47.37" y2="35.187" xlink:href="#u"/><clipPath id="bd"><path class="a" d="M685.407,267.82c-20.451,20.051-71.091,72.307-100.872,125.68-23.523,42.158-26.426,93.054-6.57,137.058,18.782,41.627,60.2,83.339,151.037,80.076,0,0,119.747-5.016,183.72-71.791A126.534,126.534,0,0,0,944.875,425.4c-10.166-48.621-36.027-137.271-94.882-182.655-35.733-27.554-84.4-32.3-123.941-10.563a101.149,101.149,0,0,0-26.3,20.572C695.089,257.888,690.362,262.961,685.407,267.82Z" transform="translate(-564.789 -218.532)"/></clipPath><linearGradient id="be" y1="0.5" x2="1" y2="0.5" gradientUnits="objectBoundingBox"><stop offset="0" stop-color="#2a7195"/><stop offset="0.333" stop-color="#296e92"/><stop offset="0.513" stop-color="#26668b"/><stop offset="0.657" stop-color="#21597f"/><stop offset="0.781" stop-color="#1a456d"/><stop offset="0.891" stop-color="#112c57"/><stop offset="0.992" stop-color="#060e3b"/><stop offset="1" stop-color="#060c39"/></linearGradient><linearGradient id="bf" y1="0.5" x2="1" y2="0.5" gradientUnits="objectBoundingBox"><stop offset="0" stop-color="#2a7195"/><stop offset="1" stop-color="#060c39"/></linearGradient><clipPath id="bi"><path class="a" d="M994.151,433.733s-5.065-6.536,2.124-13.4c0,0-30.394-15.524-6.373-43.957,0,0-19.609-16.995-2.451-34.153,0,0-1.144-29.577,31.865-26.963,0,0,26.473-37.094,72.881-20.426,0,0,25.982-19.119,43.3,14.87,0,0,39.381,6.7,35.46,42.486,0,0,17.322,10.949-1.635,42.487,0,0,11.112,42.486-21.9,50.167,0,0-17.784,33.036-56.512,11.139,0,0-49.241,25.329-67.869-6.863C1023.048,449.121,997.093,455.467,994.151,433.733Z" transform="translate(-980.413 -289.476)"/></clipPath><linearGradient id="bj" x1="0.452" y1="0.134" x2="0.746" y2="1.744" xlink:href="#c"/><linearGradient id="bk" x1="17.554" y1="29.246" x2="17.559" y2="29.246" gradientUnits="objectBoundingBox"><stop offset="0" stop-color="#4fa5ad"/><stop offset="0.219" stop-color="#55a7af"/><stop offset="0.529" stop-color="#68aeb5"/><stop offset="0.891" stop-color="#86b9bf"/><stop offset="1" stop-color="#91bec3"/></linearGradient></defs><g transform="translate(-502.964 -169.211)"><path class="b" d="M684.85,579.171c37.619-48.523,56.156-103.044,69.786-161.927,15.276-63.168,31.491-142.594,80.842-184.06-33.695-18.776-75.017-19.922-109.426-1a101.139,101.139,0,0,0-26.3,20.572c-4.667,5.136-9.394,10.21-14.349,15.068-20.451,20.051-71.091,72.307-100.872,125.68-23.523,42.158-26.426,93.054-6.57,137.059,13.229,29.32,37.693,58.682,82.744,72.34A123.907,123.907,0,0,0,684.85,579.171Z" transform="translate(-28.118 -22.432)"/><path class="c" d="M1024.888,437.619C1014.721,389,988.86,300.348,930.005,254.965a117.03,117.03,0,0,0-14.515-9.562c-49.351,41.466-65.565,120.892-80.842,184.06-13.63,58.882-32.167,113.4-69.786,161.927a123.906,123.906,0,0,1-24.141,23.729c18.908,5.732,41.44,8.7,68.293,7.735,0,0,119.747-5.015,183.72-71.791A126.534,126.534,0,0,0,1024.888,437.619Z" transform="translate(-108.131 -34.652)"/><path class="d" d="M994.151,432.981s-5.065-6.536,2.124-13.4c0,0-30.394-15.524-6.373-43.957,0,0-19.609-17-2.451-34.153,0,0-1.144-29.578,31.865-26.963,0,0,26.473-37.094,72.881-20.426,0,0,25.982-19.119,43.3,14.87,0,0,39.381,6.7,35.46,42.487,0,0,17.322,10.948-1.635,42.486,0,0,11.112,42.487-21.9,50.167,0,0-17.784,33.036-56.512,11.139,0,0-49.241,25.328-67.869-6.864C1023.048,448.368,997.093,454.714,994.151,432.981Z" transform="translate(-217.14 -54.353)"/><path class="e" d="M1232,426.048l0,.095a6.945,6.945,0,0,0,1.756-.355,3.4,3.4,0,0,0,1.223-.706,1.771,1.771,0,0,0,.569-1.312c0-.831-.505-1.908-1.849-3.343a7.262,7.262,0,0,1-2.337-4.922,5.075,5.075,0,0,1,.839-2.764,5.509,5.509,0,0,1,.578-.745c.078-.085.144-.149.189-.192l.069-.063.023-.03a8.4,8.4,0,0,0,1.026-3.711c0-2.569-1.851-3.972-3.672-4.717a12.879,12.879,0,0,0-3.642-.861l-.006.095.086.041a13.485,13.485,0,0,0,1.4-5.806c0-4.465-2.574-7.948-5.137-10.311a24.1,24.1,0,0,0-5.129-3.619l-.007,0a31.927,31.927,0,0,0-11.567-2.422,19.675,19.675,0,0,0-16.053,7.944,25.836,25.836,0,0,0-4.208,7.94l.092.026v-.1c-6.885,0-10.436,2.465-12.25,4.941a9.764,9.764,0,0,0-1.9,4.955l0,.024c1.229,5.468,3.892,8.446,6.581,10.047a13.4,13.4,0,0,0,6.728,1.829,8.07,8.07,0,0,0,.848-.037l.084-.09a45.288,45.288,0,0,1,4.484-17.448,44.075,44.075,0,0,1,2.762-4.932c.372-.571.679-1.009.895-1.3s.335-.445.335-.446l-.074-.059-.039.087a11.527,11.527,0,0,0,4.711.867c6.428,0,13.99-3.481,14-3.482l-.04-.086-.095-.009c-.1,1.176-.152,2.258-.152,3.253,0,4.974,1.186,7.781,2.383,9.345a5.007,5.007,0,0,0,2.415,1.882l.023-.092-.085-.043-6.209,12.419-.01.051.006.063.095-.009-.082-.049a6.109,6.109,0,0,0-.888,3.163,6.32,6.32,0,0,0,2.168,4.707,7.95,7.95,0,0,0,10.663-.221l-.067-.068-.1,0c-.006.268-.017.563-.035.9-.005.089-.007.177-.007.264a4.824,4.824,0,0,0,1.769,3.676c3.169,2.82,9.429,3.346,9.437,3.35l.062-.016a3.462,3.462,0,0,0,1.839-2.77c0-1.366-1.133-2.583-2.242-3.47a14.161,14.161,0,0,0-2.223-1.441l-.043.085,0,.095,0-.095-.042.085s.272.136.683.382a12.443,12.443,0,0,1,2.308,1.747,3.924,3.924,0,0,1,1.368,2.611,3.275,3.275,0,0,1-1.756,2.613l.054.078.008-.095s-.172-.015-.474-.052a23.847,23.847,0,0,1-6.093-1.57,9.562,9.562,0,0,1-3.128-2.036,4.486,4.486,0,0,1-1.337-3.178c0-.084,0-.168.007-.254.018-.339.029-.636.035-.906l-.057-.09-.1.02a7.761,7.761,0,0,1-10.4.215,6.13,6.13,0,0,1-2.1-4.566,5.924,5.924,0,0,1,.86-3.065l.013-.058,0-.035,6.2-12.395,0-.082-.063-.053-.047-.014c-.485-.165-4.6-1.757-4.608-11.029,0-.989.047-2.065.151-3.236l-.04-.086-.095-.009s-.47.216-1.277.541c-2.42.975-7.867,2.925-12.639,2.924a11.353,11.353,0,0,1-4.633-.851l-.113.027a45.358,45.358,0,0,0-8.518,24.24l.095,0-.011-.095s-.074.009-.215.018-.348.018-.611.018a13.216,13.216,0,0,1-6.63-1.8c-2.646-1.577-5.271-4.5-6.493-9.925l-.093.021.095,0s0-.148.04-.412a9.937,9.937,0,0,1,2.571-5.343c1.952-2.09,5.36-3.957,11.346-3.958l.092-.069s.069-.244.22-.674a26.16,26.16,0,0,1,5.2-8.67,19.261,19.261,0,0,1,14.66-6.4,31.76,31.76,0,0,1,11.5,2.41l.034-.088-.042.086s.157.076.435.23a24.325,24.325,0,0,1,5.6,4.288,13.452,13.452,0,0,1,4.128,9.241,13.283,13.283,0,0,1-1.38,5.724l0,.089.076.046s.11.007.306.029a12.174,12.174,0,0,1,3.943,1.124A4.665,4.665,0,0,1,1233.9,408a8.213,8.213,0,0,1-1.005,3.625l.085.043-.061-.073a5.463,5.463,0,0,0-1.742,3.91,7.451,7.451,0,0,0,2.388,5.052c1.33,1.418,1.8,2.463,1.8,3.212a1.575,1.575,0,0,1-.511,1.175,3.887,3.887,0,0,1-1.778.845,7.212,7.212,0,0,1-.765.134c-.195.023-.312.029-.312.029l-.088.076.051.1Z" transform="translate(-304.318 -96.046)"/><g transform="translate(502.964 229.722)"><path class="f" d="M690.681,362.6s10.857-44.516-45.6-47.774c0,0-17.372-57.545-68.4-23.886,0,0-52.116-10.858-51.03,41.259,0,0-31.487,13.029-17.372,47.773,0,0-28.23,67.317,47.773,64.06,0,0,10.857,13.029,26.058,4.343,0,0,53.2,29.316,86.861-18.457C668.966,429.92,713.482,423.405,690.681,362.6Z" transform="translate(-503.046 -280.281)"/><path class="g" d="M690.6,362.52l.1.023a39.4,39.4,0,0,0,.841-8.49c0-6.554-1.418-15.818-7.951-23.74S665.408,315.824,645,314.648l-.006.1.095-.028a66.276,66.276,0,0,0-8.757-17.254c-6.151-8.625-15.866-17.266-30.081-17.266-8.313,0-18.156,2.954-29.714,10.579l.054.082.02-.1a58.859,58.859,0,0,0-10.865-.941c-7.5,0-17.575,1.313-25.778,7.063s-14.525,15.942-14.523,33.641q0,.787.017,1.594l.1,0-.038-.091a38.942,38.942,0,0,0-10.536,7.132,31.953,31.953,0,0,0-10.537,23.778,45.1,45.1,0,0,0,3.647,16.991l.092-.037-.092-.038a75.8,75.8,0,0,0-5.136,26.049c0,8.909,2.139,18.478,9.192,25.82s19.006,12.442,38.595,12.441q2.524,0,5.218-.114l0-.1-.076.063c.008.007,6.129,7.361,15.65,7.364a21.035,21.035,0,0,0,10.533-3l-.048-.086-.048.087a83.4,83.4,0,0,0,36.338,8.913c16.43,0,35.522-5.925,50.652-27.4l-.081-.057.014.1a35.758,35.758,0,0,0,14.15-6.128c7.075-5.091,14.15-14.251,14.148-30.462,0-8.3-1.854-18.455-6.505-30.86l-.092.035.1.023-.1-.023-.093.035c4.646,12.388,6.493,22.517,6.493,30.79,0,16.152-7.034,25.237-14.066,30.3a36.865,36.865,0,0,1-9.673,4.946,33.072,33.072,0,0,1-3.187.908c-.384.088-.686.147-.891.185s-.313.053-.314.054l-.066.04C653.707,451.2,634.7,457.1,618.312,457.1a80.975,80.975,0,0,1-25.664-4.445c-3.275-1.111-5.92-2.223-7.746-3.056-.913-.417-1.621-.764-2.1-1.006s-.73-.381-.731-.381h-.1a20.839,20.839,0,0,1-10.435,2.972,20.2,20.2,0,0,1-11.282-3.647,24.158,24.158,0,0,1-3.122-2.509c-.359-.342-.633-.626-.817-.825s-.277-.311-.277-.311l-.08-.035q-2.691.114-5.209.114c-19.557,0-31.447-5.088-38.452-12.38s-9.137-16.8-9.137-25.684a71.513,71.513,0,0,1,2.561-18.148c.64-2.387,1.281-4.344,1.76-5.7.24-.68.44-1.21.58-1.571s.219-.55.219-.55v-.075a44.916,44.916,0,0,1-3.633-16.917A31.752,31.752,0,0,1,515.125,339.3a41.04,41.04,0,0,1,7.206-5.4c.982-.579,1.8-1,2.373-1.284s.9-.414.9-.414l.061-.093q-.017-.805-.017-1.59c0-17.654,6.289-27.765,14.439-33.48s18.182-7.028,25.665-7.028a64.8,64.8,0,0,1,7.787.469c.958.117,1.718.234,2.239.322s.8.146.8.146l.075-.014c11.536-7.609,21.341-10.547,29.605-10.547,14.128,0,23.785,8.584,29.92,17.183a67,67,0,0,1,6.665,11.824c.708,1.613,1.224,2.956,1.563,3.9.17.47.295.839.377,1.09s.123.384.123.385l.089.07c20.37,1.176,31.948,7.722,38.44,15.595s7.906,17.087,7.906,23.614a44.231,44.231,0,0,1-.418,6.106c-.1.742-.209,1.327-.287,1.726s-.13.611-.13.611l0,.058Z" transform="translate(-502.964 -280.199)"/><path class="h" d="M795.309,456.624l11.165,2.129.565-2.6-10.473-4.2Z" transform="translate(-635.921 -358.312)"/><path class="i" d="M816.036,463.679c-2.048-.9-2.556-4.252-1.133-7.484s4.236-5.122,6.284-4.22,2.556,4.252,1.133,7.485S818.085,464.58,816.036,463.679Z" transform="translate(-644.465 -358.219)"/><path class="j" d="M763.438,493.271l3.773,10.722-2.489.948-5.713-9.729Z" transform="translate(-619.411 -377.103)"/><path class="k" d="M773.874,509.743c-1.245-2.18-4.852-2.464-8.054-.634s-4.791,5.08-3.545,7.26,4.851,2.464,8.054.635S775.119,511.923,773.874,509.743Z" transform="translate(-620.703 -383.757)"/><path class="l" d="M684.506,428.828,673.341,426.7l-.566,2.6,10.474,4.2Z" transform="translate(-580.193 -346.826)"/><path class="m" d="M665.6,418.979c2.116.727,3.006,3.721,1.987,6.685s-3.561,4.778-5.677,4.05-3.006-3.72-1.987-6.684S663.487,418.252,665.6,418.979Z" transform="translate(-574.157 -343.242)"/><path class="n" d="M719.321,388.118,715.549,377.4l2.489-.948,5.713,9.729Z" transform="translate(-599.646 -323.973)"/><path class="o" d="M705.153,371.675c1.128,1.848,4.5,1.842,7.541-.013s4.584-4.856,3.456-6.7-4.5-1.842-7.541.013S704.025,369.827,705.153,371.675Z" transform="translate(-594.75 -318.119)"/><path class="p" d="M725.135,494.712l-2.129,11.165,2.6.565,4.2-10.473Z" transform="translate(-603.037 -377.758)"/><path class="q" d="M712.528,514.842c.881-2.274,4.483-3,8.046-1.619s5.737,4.342,4.857,6.616-4.483,3-8.046,1.618S711.647,517.116,712.528,514.842Z" transform="translate(-598.183 -385.859)"/><path class="r" d="M688.679,466.234l-10.722,3.773-.948-2.49,9.729-5.713Z" transform="translate(-582.118 -362.792)"/><path class="s" d="M673.169,476.932c1.964-1.38,1.855-4.922-.245-7.91s-5.4-4.291-7.359-2.91-1.855,4.922.245,7.909S671.205,478.313,673.169,476.932Z" transform="translate(-576.275 -364.5)"/><path class="t" d="M794.718,421.086l10.722-3.773.948,2.489-9.729,5.713Z" transform="translate(-635.652 -342.558)"/><path class="u" d="M812.019,406.576c-1.958,1.083-2.176,4.437-.486,7.492s4.647,4.653,6.605,3.57,2.176-4.437.486-7.492S813.978,405.493,812.019,406.576Z" transform="translate(-642.782 -337.52)"/><path class="v" d="M764.471,392.186l2.129-11.165-2.6-.565-4.2,10.473Z" transform="translate(-619.772 -325.795)"/><path class="w" d="M772.651,374.589c-.551,1.885-3.391,2.715-6.344,1.852s-4.9-3.09-4.349-4.975,3.391-2.715,6.343-1.852S773.2,372.7,772.651,374.589Z" transform="translate(-620.71 -320.709)"/><circle class="x" cx="30.932" cy="30.932" r="30.932" transform="translate(102.201 121.94) rotate(-89.332)"/><path class="y" d="M723.2,414.175c-.114,2.2,2.076,4.1,4.891,4.247s5.191-1.518,5.305-3.718-2.076-4.1-4.892-4.247S723.309,411.975,723.2,414.175Z" transform="translate(-603.122 -339.436)"/><path class="y" d="M769.963,472.295c.638,1.2,2.4,1.51,3.938.692s2.264-2.453,1.625-3.653-2.4-1.51-3.938-.692S769.324,471.095,769.963,472.295Z" transform="translate(-624.288 -365.694)"/><path class="y" d="M752.911,447.061c.115,2.227,2.521,3.913,5.372,3.765s5.069-2.073,4.954-4.3-2.521-3.913-5.372-3.766S752.8,444.834,752.911,447.061Z" transform="translate(-616.636 -354.127)"/><path class="y" d="M719.145,469.327c-.837,1.071-.4,2.808.966,3.88s3.161,1.073,4,0,.405-2.807-.966-3.88S719.982,468.256,719.145,469.327Z" transform="translate(-601.087 -365.848)"/><path class="y" d="M711.358,441.8c1.34-.229,2.188-1.805,1.895-3.521s-1.617-2.92-2.957-2.691-2.188,1.805-1.9,3.52S710.018,442.033,711.358,441.8Z" transform="translate(-596.369 -350.858)"/><path class="y" d="M776.518,433.736c1.34-.229,2.188-1.806,1.895-3.521s-1.617-2.92-2.957-2.691-2.188,1.805-1.895,3.52S775.178,433.965,776.518,433.736Z" transform="translate(-626.003 -347.189)"/><path class="y" d="M753.9,414.4c-.65.748-.345,2.078.683,2.971s2.387,1.011,3.038.263.345-2.078-.683-2.971S754.553,413.651,753.9,414.4Z" transform="translate(-616.934 -341.008)"/><path class="y" d="M741.658,469.26c-.365,1.382.878,2.908,2.777,3.41s3.732-.214,4.1-1.6-.878-2.908-2.776-3.41S742.023,467.878,741.658,469.26Z" transform="translate(-611.491 -365.384)"/><path class="y" d="M731.646,444.442c-.65.748-.345,2.079.683,2.971s2.387,1.011,3.037.263.345-2.078-.683-2.971S732.3,443.694,731.646,444.442Z" transform="translate(-606.812 -354.672)"/><path class="z" d="M647.191,399.738l5,.954.253-1.166-4.69-1.879Z" transform="translate(-568.557 -333.613)"/><path class="aa" d="M656.472,402.9c-.917-.4-1.144-1.9-.508-3.351s1.9-2.294,2.814-1.89,1.145,1.9.508,3.351S657.39,403.3,656.472,402.9Z" transform="translate(-572.383 -333.572)"/><path class="ab" d="M632.917,416.15l1.69,4.8-1.115.425-2.558-4.357Z" transform="translate(-561.164 -342.028)"/><path class="ac" d="M637.591,423.526c-.558-.976-2.173-1.1-3.607-.285s-2.145,2.275-1.588,3.252,2.173,1.1,3.607.284S638.149,424.5,637.591,423.526Z" transform="translate(-561.742 -345.008)"/><path class="ad" d="M597.569,387.29l-5-.954-.253,1.166,4.69,1.879Z" transform="translate(-543.601 -328.469)"/><path class="ae" d="M589.1,382.879c.948.326,1.347,1.666.89,2.994s-1.594,2.139-2.542,1.814-1.346-1.666-.889-2.994S588.156,382.553,589.1,382.879Z" transform="translate(-540.898 -326.864)"/><path class="af" d="M613.16,369.059l-1.689-4.8,1.115-.424,2.558,4.357Z" transform="translate(-552.312 -318.235)"/><path class="ag" d="M606.815,361.695c.505.827,2.018.825,3.378-.006s2.053-2.174,1.547-3-2.017-.825-3.377.005S606.31,360.867,606.815,361.695Z" transform="translate(-550.12 -315.613)"/><path class="ah" d="M615.764,416.795l-.954,5,1.166.253,1.879-4.69Z" transform="translate(-553.831 -342.322)"/><path class="ai" d="M610.118,425.81c.394-1.018,2.008-1.343,3.6-.725s2.57,1.945,2.175,2.963-2.008,1.343-3.6.725S609.724,426.828,610.118,425.81Z" transform="translate(-551.657 -345.95)"/><path class="aj" d="M599.438,404.041l-4.8,1.689-.424-1.115,4.357-2.558Z" transform="translate(-544.463 -335.619)"/><path class="ak" d="M592.492,408.832c.879-.618.83-2.2-.11-3.542s-2.416-1.922-3.3-1.3-.83,2.2.11,3.542S591.613,409.45,592.492,408.832Z" transform="translate(-541.846 -336.385)"/><path class="al" d="M646.926,383.823l4.8-1.689.424,1.115-4.357,2.558Z" transform="translate(-568.437 -326.558)"/><path class="am" d="M654.674,377.325c-.877.485-.975,1.987-.218,3.355s2.081,2.084,2.958,1.6.974-1.987.218-3.355S655.551,376.84,654.674,377.325Z" transform="translate(-571.63 -324.302)"/><path class="an" d="M633.38,370.88l.953-5-1.166-.253-1.879,4.69Z" transform="translate(-561.325 -319.051)"/><path class="ao" d="M637.044,363c-.247.845-1.519,1.216-2.841.829s-2.195-1.384-1.947-2.228,1.518-1.216,2.84-.83S637.29,362.156,637.044,363Z" transform="translate(-561.746 -316.773)"/><path class="ap" d="M603.544,393.2a14.716,14.716,0,0,1,1.445-19.527,12.023,12.023,0,0,1,17.938,1.573,14.717,14.717,0,0,1-1.445,19.527A12.022,12.022,0,0,1,603.544,393.2Z" transform="translate(-547.327 -321.209)"/><path class="y" d="M614.9,380.728a2.356,2.356,0,1,0,2.375-1.665A2.083,2.083,0,0,0,614.9,380.728Z" transform="translate(-553.869 -325.16)"/><path class="y" d="M635.84,406.756a1.454,1.454,0,1,0,.728-1.636A1.285,1.285,0,0,0,635.84,406.756Z" transform="translate(-563.348 -336.919)"/><path class="y" d="M628.2,395.455a2.386,2.386,0,1,0,2.219-1.926A2.11,2.11,0,0,0,628.2,395.455Z" transform="translate(-559.921 -331.739)"/><path class="y" d="M613.081,405.426a1.455,1.455,0,1,0,1.79,0A1.286,1.286,0,0,0,613.081,405.426Z" transform="translate(-552.958 -336.988)"/><path class="y" d="M609.594,393.1a1.455,1.455,0,1,0-1.324-1.205A1.286,1.286,0,0,0,609.594,393.1Z" transform="translate(-550.845 -330.275)"/><path class="y" d="M638.775,389.488a1.455,1.455,0,1,0-1.324-1.205A1.286,1.286,0,0,0,638.775,389.488Z" transform="translate(-564.116 -328.632)"/><path class="y" d="M628.647,380.828a1.16,1.16,0,1,0,1.36.118A.991.991,0,0,0,628.647,380.828Z" transform="translate(-560.054 -325.864)"/><path class="y" d="M623.163,405.4c-.163.619.393,1.3,1.244,1.527a1.428,1.428,0,0,0,1.835-.715c.163-.619-.394-1.3-1.244-1.527A1.428,1.428,0,0,0,623.163,405.4Z" transform="translate(-557.617 -336.78)"/><path class="y" d="M618.68,394.282a1.16,1.16,0,1,0,1.36.118A.99.99,0,0,0,618.68,394.282Z" transform="translate(-555.521 -331.983)"/><path class="aq" d="M622.353,506.747l7.4,1.412.375-1.725-6.943-2.782Z" transform="translate(-557.261 -381.823)"/><path class="ar" d="M636.093,511.424c-1.358-.6-1.694-2.819-.751-4.961s2.808-3.4,4.165-2.8,1.695,2.819.752,4.961S637.451,512.021,636.093,511.424Z" transform="translate(-562.925 -381.762)"/><path class="as" d="M601.225,531.04l2.5,7.107-1.65.628-3.787-6.45Z" transform="translate(-546.317 -394.28)"/><path class="at" d="M608.143,541.96c-.825-1.445-3.216-1.634-5.339-.421s-3.176,3.368-2.35,4.813,3.216,1.634,5.34.421S608.968,543.4,608.143,541.96Z" transform="translate(-547.173 -398.691)"/><path class="au" d="M548.9,488.32l-7.4-1.411-.375,1.726,6.943,2.781Z" transform="translate(-520.319 -374.209)"/><path class="av" d="M536.37,481.791c1.4.482,1.993,2.466,1.317,4.431s-2.36,3.167-3.764,2.685-1.992-2.466-1.317-4.431S534.967,481.309,536.37,481.791Z" transform="translate(-516.318 -371.833)"/><path class="aw" d="M571.98,461.333l-2.5-7.107,1.65-.628,3.787,6.45Z" transform="translate(-533.214 -359.059)"/><path class="ax" d="M562.587,450.433c.748,1.225,2.987,1.221,5-.008s3.039-3.219,2.291-4.444-2.986-1.221-5,.008S561.839,449.208,562.587,450.433Z" transform="translate(-529.969 -355.179)"/><path class="ay" d="M575.833,532l-1.411,7.4,1.725.375,2.781-6.943Z" transform="translate(-535.463 -394.714)"/><path class="az" d="M567.476,545.34c.584-1.508,2.972-1.988,5.334-1.073s3.8,2.878,3.22,4.386-2.972,1.988-5.334,1.073S566.893,546.847,567.476,545.34Z" transform="translate(-532.245 -400.084)"/><path class="ba" d="M551.666,513.117l-7.107,2.5-.629-1.65,6.45-3.787Z" transform="translate(-521.595 -384.793)"/><path class="bb" d="M541.385,520.209c1.3-.915,1.229-3.263-.163-5.243s-3.576-2.845-4.879-1.93-1.229,3.263.163,5.244S540.083,521.124,541.385,520.209Z" transform="translate(-517.722 -385.925)"/><path class="bc" d="M621.961,483.188l7.107-2.5.628,1.65-6.45,3.787Z" transform="translate(-557.083 -371.38)"/><path class="bd" d="M633.431,473.57c-1.3.718-1.443,2.941-.323,4.966s3.08,3.085,4.379,2.367,1.443-2.941.322-4.967S634.729,472.852,633.431,473.57Z" transform="translate(-561.81 -368.04)"/><path class="be" d="M601.91,464.03l1.412-7.4-1.725-.375-2.781,6.943Z" transform="translate(-546.556 -360.268)"/><path class="bf" d="M607.333,452.365c-.365,1.25-2.248,1.8-4.205,1.228s-3.248-2.048-2.883-3.3,2.248-1.8,4.205-1.227S607.7,451.115,607.333,452.365Z" transform="translate(-547.178 -356.896)"/><path class="bg" d="M558.143,497.073a20.505,20.505,0,1,1,28.9,2.329A20.506,20.506,0,0,1,558.143,497.073Z" transform="translate(-525.836 -363.462)"/><path class="y" d="M574.549,478.606c-.076,1.458,1.376,2.718,3.242,2.815s3.441-1.006,3.517-2.464-1.376-2.718-3.243-2.815S574.624,477.149,574.549,478.606Z" transform="translate(-535.519 -369.31)"/><path class="y" d="M605.55,517.134a2.153,2.153,0,1,0,1.077-2.422A1.9,1.9,0,0,0,605.55,517.134Z" transform="translate(-549.55 -386.716)"/><path class="y" d="M594.247,500.407c.076,1.476,1.671,2.594,3.561,2.5s3.361-1.374,3.284-2.85-1.671-2.594-3.561-2.5S594.171,498.931,594.247,500.407Z" transform="translate(-544.477 -379.049)"/><path class="y" d="M571.863,515.167a2.153,2.153,0,1,0,2.65,0A1.9,1.9,0,0,0,571.863,515.167Z" transform="translate(-534.17 -386.819)"/><path class="y" d="M566.7,496.923a2.153,2.153,0,1,0-1.961-1.784A1.9,1.9,0,0,0,566.7,496.923Z" transform="translate(-531.042 -376.882)"/><path class="y" d="M609.9,491.574a2.153,2.153,0,1,0-1.96-1.784A1.9,1.9,0,0,0,609.9,491.574Z" transform="translate(-550.687 -374.45)"/><path class="y" d="M594.9,478.756a1.717,1.717,0,1,0,2.014.174A1.466,1.466,0,0,0,594.9,478.756Z" transform="translate(-544.675 -370.353)"/><path class="y" d="M586.787,515.123c-.242.916.582,1.928,1.841,2.26s2.474-.142,2.716-1.058-.582-1.928-1.841-2.26S587.029,514.207,586.787,515.123Z" transform="translate(-541.067 -386.512)"/><path class="y" d="M580.15,498.671a1.717,1.717,0,1,0,2.013.174A1.466,1.466,0,0,0,580.15,498.671Z" transform="translate(-537.965 -379.41)"/></g><line class="bh" x1="1.066" y2="8.881" transform="translate(707.347 403.585)"/><path class="bh" d="M927.133,787.231a37.707,37.707,0,0,0,15.252-.273" transform="translate(-192.909 -280.947)"/><path class="a" d="M940.286,514.282c-.16-.237.182-.555.457-.477a.917.917,0,0,1,.526.636c.69,1.964-.214,4.095-1.1,5.978a17.188,17.188,0,0,1-1.47,2.692" transform="translate(-198.168 -156.714)"/><g transform="translate(536.672 196.101)"><g class="bi"><g transform="translate(99.784 166.013)"><g transform="translate(135.352 210.826)"><path class="bj" d="M1024.021,909.716a124.592,124.592,0,0,1,3.174,15.17c.455,3.3,1.557,7.683-1.457,10.383-1.932,1.731-4.324,2.447-6.736,3.09-1.391.371-2.138-.324-3.411-.572a23.617,23.617,0,0,1-3.874-.84,9.974,9.974,0,0,1-3.446-2.483,3.87,3.87,0,0,1-1.33-3.253,30.462,30.462,0,0,1,1.659-8.879,7.024,7.024,0,0,0,.491-3.783,14.5,14.5,0,0,0-1.453-3.847Z" transform="translate(-1001.012 -909.716)"/><path class="bj" d="M1004.636,928.509c-1.288,2.272-2.922,4.4-4.115,6.71a40.683,40.683,0,0,0-1.714,4.715,42.328,42.328,0,0,1-2,5.026c-.4.789-1.252,2.542-.326,3.432a1.266,1.266,0,0,0,1.4.1,7.351,7.351,0,0,0,4.112-3.427c.328-.581.1-1.578.993-1.7s1.214.971,1.43,1.51c.753,1.878,1.185,3.708,1.829,5.583" transform="translate(-996.068 -918.263)"/><path class="bj" d="M1037.329,950.043a31.749,31.749,0,0,1-.42,8.848c-.277,1.326-.987,4.1,1.654,3.489.917-.212,1.338-1.343,1.614-2.142,1.016-2.934.959-6.006,1.16-9.036a19.562,19.562,0,0,0-.127-4.909" transform="translate(-1014.506 -926.351)"/><path class="bj" d="M1029.11,954.053a88.038,88.038,0,0,1,1.141,12.271c.064,1.837.18,3.809,1.435,5.264a.778.778,0,0,0,1.149.158c1.052-.622,1.24-1.915,1.267-3.043.053-2.212-.484-4.5-.237-6.66a39.557,39.557,0,0,0,.123-7.263,11.92,11.92,0,0,0-.323-1.84.177.177,0,0,0-.107-.138c-.063-.023-.131.031-.1.087" transform="translate(-1011.095 -929.309)"/><path class="bj" d="M1022.964,958.338c-.106,4.35-.015,8.68-.214,13.062a6.338,6.338,0,0,0,.155,2.185,2.469,2.469,0,0,0,1.5,1.637,1.137,1.137,0,0,0,.728.035,1.217,1.217,0,0,0,.643-.753c2.485-5.865,1.7-12.79.507-18.81" transform="translate(-1008.191 -930.627)"/><path class="bj" d="M1016.562,957a21.917,21.917,0,0,1,.131,7.971c-.5,2.536.013,5.311-1.367,7.571a1.082,1.082,0,0,1-.616.546c-.523.13-.96-.366-1.178-.811a13.476,13.476,0,0,1-1.041-4.936c-.168-2.055-.156-4.2-.529-6.231a39.772,39.772,0,0,0-2.072-5.842.423.423,0,0,0-.456-.331" transform="translate(-1002.146 -930.279)"/><path class="bk" d="M1033.286,929.176a3.778,3.778,0,0,0-1.8,1.521,10.332,10.332,0,0,0-1.892,6.823" transform="translate(-1011.299 -918.566)"/></g><path class="bl" d="M881.591,643.559c1.379.523,4.951-.029,6.255-.068l7.849-.232c1.2-.035,2.509.036,3.694-.113,2.317-.291,1.591-1.979,1.7-3.477a81,81,0,0,1,2.142-11.7c.319-1.415.608-2.939-.2-4.235a6.033,6.033,0,0,0-3.847-2.3,34.849,34.849,0,0,0-4.073-.261c-1.072-.113-2.082-.483-3.186-.571-6.676-.532-13.472,2.655-13.744,8.212a13.379,13.379,0,0,0,.431,3.428c.4,1.885.807,3.771,1.237,5.653.225.982.455,1.963.7,2.942.15.61.146,2.021.671,2.5A1.131,1.131,0,0,0,881.591,643.559Z" transform="translate(-807.101 -567.38)"/><path class="e" d="M895.444,858.01H837.631s-17.654,74.6-20.64,96c0,0-8.211,89.055-3.732,104.668s4.479,20.24,16.422,20.24c0,0,23.886,5.2,23.886-13.879,0,0-1.493-48,.746-69.393s8.211-62.454,8.211-62.454c.915,43.961,1.934,87.628,1.891,131.646,0,2.666.047,5.5,1.659,7.742,2.266,3.154,7.344,2.436,10.907,3.125,6,1.16,11.672,2.433,17.888,1.969,14.132-1.053,13.457-8.14,12.766-19.26-1.593-25.6-3.189-51.232-2.85-76.886a384.072,384.072,0,0,1,3.538-49.068C909.245,925.972,896.619,872.722,895.444,858.01Z" transform="translate(-776.968 -675.374)"/><path class="bh" d="M905.177,800.554q-.352.121-.708.235a49.836,49.836,0,0,1-20.346,2.071c-.573-.06-1.271-.089-1.6.3a1.119,1.119,0,0,0-.155.888c1.97,17.865,2.295,52.944,5.873,70.687a.5.5,0,0,1,0,.23c-.424,1.682-5.61,1.861-6.822,2.013-5.512.695-11.087.939-16.635,1.156-7.517.293-15.04.42-22.562.486q-12.3.109-24.6,0-11.38-.081-22.758-.288-8.515-.154-17.028-.393c-1.7-.05-3.452-.008-5.151-.176-3.923-.39-1.29-7.863-.949-10.22q1.425-9.828,2.909-19.648,1.83-12.18,3.71-24.352,1.845-11.943,3.757-23.874c.979-6.077,1.965-12.155,3.05-18.214.321-1.792.641-3.586,1.025-5.365.061-.285.219-1.879.565-2.007-5.581,2.057-14.631,1.483-20.561.8-4.7-.542-9.575-1.717-13.178-4.388-4.555-3.375-5.815-8.472-4.934-13.313.464-2.549.892-5.1,1.189-7.666.047-.434.107-.877.178-1.32a88.626,88.626,0,0,1,4.551-16.057c1.954-5.448,2.267-11.508,3.55-17.108,2.713-11.84,6.611-23.651,13.831-34.2,3.032-4.433,6.842-8.765,12.328-11.085a44.623,44.623,0,0,1,8.94-2.369c3.592-.692,7.331-1.2,10.859-2.091,3.6-.906,3.026-.6,4.16-3.3,1.368-3.261,1.727-5.351,6.647-5.662,8.165-.516,16.385-.788,24.578-.788,5.892,0,7.381,3.573,9.557,7.193,3.087,5.137,9.918,5.6,16.011,6.136,7.7.676,15.767,1.882,21.712,6.318,6.677,4.982,8.967,12.811,9.819,20.213,2.187,19,6.922,37.617,10.44,56.513,1.632,8.765,3.192,17.539,4.739,26.314.981,5.562,5.018,14.987-.64,19.6A17.383,17.383,0,0,1,905.177,800.554Z" transform="translate(-747.809 -583.291)"/><path class="e" d="M893.072,528.414c-1.128-.529-2.322-1.05-3.577-1.68-9.385-4.718-20.3-5.6-28.87,1.3,0,0-19.667,4.506-14.947,19.527.457,1.454-2.734,7.584-2.791,9.7-.165,6.143,3.027,13.291,6.371,18.472A40.4,40.4,0,0,0,870.694,592a12.427,12.427,0,0,0,5.018.773,12.123,12.123,0,0,0,4.692-1.752c15.905-9.095,23.276-23.619,23.356-41.226.025-5.385-.918-11.091-3.814-15.794C898.1,531,895.777,529.684,893.072,528.414Z" transform="translate(-791.047 -523.026)"/><path class="e" d="M924.517,1021.789a73.609,73.609,0,0,0,13.016,1.074,71.608,71.608,0,0,0,15-1.519.52.52,0,0,0,.429-.627.588.588,0,0,0-.7-.383,70.382,70.382,0,0,1-14.724,1.49,80.443,80.443,0,0,1-9.2-.526c-1.129-.131-2.023-.263-2.633-.361-.305-.049-.539-.089-.7-.118l-.233-.044a.585.585,0,0,0-.693.4.523.523,0,0,0,.442.62Z" transform="translate(-827.967 -749.191)"/><path class="bm" d="M986.111,849.7q-3.354-46.9-10.154-93.538" transform="translate(-851.569 -629.057)"/><path class="bm" d="M817.98,827.777q4.721-30.9,8.3-61.951" transform="translate(-779.722 -633.45)"/><path class="bn" d="M759.876,819.617l3.679-58.694,30.532,6.361-6.343,52.334H760.829" transform="translate(-753.297 -631.22)"/><path class="bo" d="M768.707,757.58l-8.685,60.293L792.3,820.5l7.232-55.749Z" transform="translate(-753.363 -629.7)"/><path class="bp" d="M854.335,671.485a121.022,121.022,0,0,1,40.2-.643,13.144,13.144,0,0,1,5.346,1.649" transform="translate(-796.257 -589.629)"/></g></g></g><g transform="translate(576.034 540.179)"><path class="bq" d="M648.718,854.859a21.91,21.91,0,0,1,1.368,5.32c.38,2.659-.912,5.015-.988,7.6a5.517,5.517,0,0,0,7.3,5.547c3.04-1.14,5.927-4.18,9.2-2.887,2.052.836,4.255,2.964,6.535,1.064a22.61,22.61,0,0,0,2.748-2.6,17.9,17.9,0,0,0,.135-2.19c0-9.435-7.4-17.084-16.531-17.084a16.143,16.143,0,0,0-10.587,3.964A3.59,3.59,0,0,1,648.718,854.859Z" transform="translate(-641.945 -849.628)"/><path class="br" d="M667.166,874.807c-2.28,1.9-4.484-.228-6.535-1.064-3.268-1.292-6.155,1.747-9.2,2.887a5.517,5.517,0,0,1-7.3-5.547c.076-2.584,1.368-4.94.988-7.6a21.91,21.91,0,0,0-1.368-5.32,3.59,3.59,0,0,0-.829-1.267,17.278,17.278,0,0,0-5.944,13.12c0,9.435,7.4,17.084,16.531,17.084a16.731,16.731,0,0,0,16.4-14.894A22.615,22.615,0,0,1,667.166,874.807Z" transform="translate(-636.987 -852.934)"/></g><g transform="translate(746.742 169.211)"><path class="bq" d="M961.824,174.442a21.933,21.933,0,0,1,1.368,5.32c.38,2.66-.912,5.016-.988,7.6a5.517,5.517,0,0,0,7.3,5.547c3.039-1.14,5.927-4.18,9.195-2.888,2.052.836,4.255,2.964,6.535,1.064a22.56,22.56,0,0,0,2.748-2.6,17.792,17.792,0,0,0,.135-2.19c0-9.435-7.4-17.084-16.531-17.084a16.147,16.147,0,0,0-10.587,3.964A3.6,3.6,0,0,1,961.824,174.442Z" transform="translate(-955.051 -169.211)"/><path class="br" d="M980.272,194.391c-2.28,1.9-4.484-.228-6.535-1.064-3.268-1.292-6.155,1.748-9.195,2.888a5.517,5.517,0,0,1-7.3-5.547c.076-2.584,1.368-4.94.988-7.6a21.932,21.932,0,0,0-1.368-5.32,3.6,3.6,0,0,0-.829-1.267,17.279,17.279,0,0,0-5.944,13.12c0,9.435,7.4,17.084,16.531,17.084a16.731,16.731,0,0,0,16.4-14.894A22.563,22.563,0,0,1,980.272,194.391Z" transform="translate(-950.093 -172.517)"/></g><g transform="translate(763.273 234.78)"><g class="bs" transform="translate(0 0)"><g transform="translate(8.886 26.722)"><path class="bo" d="M996.712,433.577l1.152,62.969,5.951,3.839,7.3,1.344h6.911l19.006-16.126,8.063-29.372-3.456-17.662" transform="translate(-996.712 -381.735)"/><path class="bt" d="M1062.752,378l-54.521-4.991-11.519,33.02,44.922,6.591,21.886-17.6Z" transform="translate(-996.712 -354.19)"/><path class="bo" d="M1040.041,384.856l-23.421-2.688-6.527,18.814,25.725,3.839Z" transform="translate(-1002.798 -358.354)"/><path class="bo" d="M1068.686,387.8l-4.9,20.158,16.8,2.016,3.072-2.591,3.455-17.278Z" transform="translate(-1027.219 -360.916)"/><path class="bu" d="M1011.446,426.945a2.32,2.32,0,1,1,3.282,0A2.321,2.321,0,0,1,1011.446,426.945Z" transform="translate(-1003.104 -376.917)"/><path class="bv" d="M1025.367,481.872l112.777,81.183,83.9-109.508-98.339-49.11Z" transform="translate(-1009.744 -368.482)"/><path class="bu" d="M1029.052,428.411a2.32,2.32,0,1,1,3.281,0A2.32,2.32,0,0,1,1029.052,428.411Z" transform="translate(-1011.111 -377.584)"/><path class="bu" d="M1024.089,431.465s-3.839,2.3-3.456,12.67c0,0,1.152,23.037,0,33.02,0,0,4.608,13.054,16.126,3.071l2.688-3.839s-2.688-1.536-9.6,1.152c0,0-6.847,3.072-4.928-11.519,0,0,.32-17.278-.448-23.421l2.3-11.134Z" transform="translate(-1007.579 -380.774)"/><path class="bw" d="M1197.251,338.489q46.5,20.425,91.539,44a1.625,1.625,0,0,1,1.1,2.14c-2.351,14.575-2.649,18.445-7.1,32.521-12.9-10.081-65.4-28.531-74.286-36.841-.441-.413-1.543,0-.99.239C1206.422,365.767,1205.423,350.856,1197.251,338.489Z" transform="translate(-1087.916 -338.489)"/><path class="bw" d="M1133.637,385.061l-10.458-39.872s-2.942-10.458-17.322-1.634l-59.481,49.023-1.961,19.282s-3.6,11.112-11.766,16.995c0,0-13.4,16.668-9.151,32.029" transform="translate(-1008.517 -339.184)"/><path class="bx" d="M1084.41,395.961l57.08-47.083s5.883-.654.327,3.922l-5.556,4.575s-4.249,2.615-1.307,5.883c0,0,.654,1.961-3.922,6.209l-42.982,38.343a1.764,1.764,0,0,1-2.921-1.061l-1.343-9.173A1.765,1.765,0,0,1,1084.41,395.961Z" transform="translate(-1036.305 -343.199)"/><path class="e" d="M1132.067,448.443c4.421.539,8.773,1.566,13.192,2.547,6.628,1.471,13.7,2.414,20.069,4.886,5.146,2,10.612,5.741,10.612,11.865,0,0,1.307,7.843,3.922,20.59l.654,14.38s-5.229,1.961-17.648.98l-24.512,10.458-12.419,13.073-13.9-8.865-21.192-13.517c-7.39-4.713-14.226-9.7-23.286-10.31a9.784,9.784,0,0,1-3.158-.523,2.89,2.89,0,0,1-1.9-2.382c-.048-1.483,1.4-2.523,2.676-3.277l7.585-4.474a164,164,0,0,0,24-16.737c7.268-6.274,14.144-13.159,22.471-18.06C1122.772,446.994,1128.094,447.958,1132.067,448.443Z" transform="translate(-1026.634 -388.2)"/><path class="by" d="M1189.854,451.3s-8.824,5.229-9.8,15.851l21.08-8.007,1.307-3.268-10.458-5.066Z" transform="translate(-1080.093 -389.572)"/><path class="by" d="M1198.587,411.267l7.19-12.092s10.458-13.727,21.57-5.229c0,0,15.687,13.4-1.961,28.107,0,0-10.785,14.38-20.59,8.824C1204.8,430.877,1193.03,424.994,1198.587,411.267Z" transform="translate(-1087.845 -362.448)"/><path class="e" d="M1232.083,426.128s6.536-.327,1.635-5.556-.654-8.825-.654-8.825c4.249-8.5-6.209-9.151-6.209-9.151,5.883-12.419-8.824-19.609-8.824-19.609-25.165-9.8-31.7,13.4-31.7,13.4-13.726,0-14.053,9.8-14.053,9.8,2.941,13.073,14.053,11.766,14.053,11.766a45.267,45.267,0,0,1,8.5-24.185c6.536,2.941,18.629-2.614,18.629-2.614-1.144,12.909,4.575,14.38,4.575,14.38l-6.209,12.419.006.063a6.013,6.013,0,0,0-.874,3.114c0,3.621,3.265,6.557,7.292,6.557a7.654,7.654,0,0,0,5.377-2.138c-.007.269-.018.565-.036.9-.327,6.209,11.112,7.19,11.112,7.19C1239.927,430.049,1232.083,426.128,1232.083,426.128Z" transform="translate(-1076.557 -357.628)"/><path class="bo" d="M1201.272,437.625s-8.824-3.268-.327-13.073l7.844-5.229s7.843-2.614,7.517,5.883c0,0,0,8.824-1.961,11.439C1214.345,436.644,1212.384,443.834,1201.272,437.625Z" transform="translate(-1087.916 -375.079)"/><path class="bz" d="M1005.61,539.864s14.462-12.5,25-9.315c0,0,13.7-17.225,42.159,3.113,0,0,22.8,17.722,29.66,28.753,0,0-45.347,25.655-67.9-6.373C1034.533,556.041,1005.365,559.718,1005.61,539.864Z" transform="translate(-1000.758 -422.739)"/><path class="e" d="M1062.851,542.575l.17.025c1.726.266,16.161,2.888,27.808,17.506a.319.319,0,1,0,.5-.4c-12.579-15.783-28.356-17.76-28.4-17.766a.32.32,0,0,0-.079.634Z" transform="translate(-1026.665 -431.016)"/><path class="e" d="M1079.843,539.852s.327.148.921.429c2.082.984,7.435,3.592,13.386,7.1s12.5,7.925,16.971,12.5l10.295,10.54a.319.319,0,1,0,.457-.447l-10.295-10.54c-5.189-5.31-13.049-10.341-19.619-14.057s-11.846-6.107-11.852-6.11a.32.32,0,0,0-.264.582Z" transform="translate(-1034.434 -429.789)"/><path class="bu" d="M1095.044,439.954s1.961-6.536,13.073-3.268c0,0,15.034.98,21.244-3.6,0,0,16.994-2.288,25.165-.327l4.9.654s4.249,5.883-2.614,5.883a41.951,41.951,0,0,0-29.087-.654s-14.708,6.21-21.571,2.941c0,0-4.575-2.941-8.171.981C1097.985,442.569,1092.756,444.856,1095.044,439.954Z" transform="translate(-1041.17 -381.003)"/><g transform="translate(55.833 100.528)"><path class="by" d="M1211.356,548.723a50.069,50.069,0,0,1-.908,5.021c-1.067,4.477-3.092,10.724-6.866,13.708-2.99,2.361-7.807,2.5-11.422,2.429-6.781-.131-12.783-.188-19.3-2.185q-10.085-3.081-20.171-6.173a89.115,89.115,0,0,1-9.844-3.189,17.16,17.16,0,0,1-4.755-2.933,4.957,4.957,0,0,1,.2-7.552c2.723-2.428,6-1.929,9.158-1.277l.182.034c.3.062.6.119.9.176,11.1,2.088,22.253.7,33.437,1.5,2.236.165,5.192,1.05,7.382.732,2.5-.369,2-.516,1.963-3.376Z" transform="translate(-1116.091 -533.229)"/><path class="by" d="M1134.049,553.7a83.488,83.488,0,0,1-11.387-4.351c-2.235-1.1-6.636-2.522-6.734-5.14a11.5,11.5,0,0,1,.553-5.068c.4-.913.968-1.007,1.7-1.614a23.885,23.885,0,0,1,2.036-1.856,7.036,7.036,0,0,1,3.021-.914,4.452,4.452,0,0,1,1.337-.014,4.3,4.3,0,0,1,1.382.592,20.859,20.859,0,0,1,5.428,4.593,4.881,4.881,0,0,0,2.326,1.8,11.988,11.988,0,0,0,3.216.993" transform="translate(-1106.746 -528.249)"/><path class="by" d="M1112.373,547.27a22.8,22.8,0,0,1-5.811-3.8c-.679-.662-2.843-2.5-3.113-.585-.094.667.516,1.339.9,1.84,1.4,1.84,3.858,2.99,5.738,4.331a13.1,13.1,0,0,0,3.365,1.926" transform="translate(-1101.084 -531.591)"/><path class="by" d="M1111.917,539.621a28.156,28.156,0,0,1-8.426-4.681,7.853,7.853,0,0,1-1.726-1.984c-.348-.576-.952-1.284-1.516-.566-.613.782-.135,1.932.32,2.666,2.067,3.343,5.466,5.339,9,7.013a7.989,7.989,0,0,0,1.224.564" transform="translate(-1099.501 -527.064)"/><path class="by" d="M1110.836,532.838l-4.584-2.547a8.135,8.135,0,0,1-1.353-.873,7.736,7.736,0,0,1-1.1-1.246,12.944,12.944,0,0,0-2.552-3.016c-.367-.244-.836-.653-1.308-.628a.882.882,0,0,0-.779.657c-.225.785.527,1.587.964,2.279q.813,1.286,1.672,2.551a10.2,10.2,0,0,0,1.732,2.091,10.422,10.422,0,0,0,1.366.946c.958.584,1.969,1.066,2.935,1.631a14.461,14.461,0,0,0,2.495,1.024" transform="translate(-1099.12 -523.625)"/><path class="by" d="M1113.8,532.6a15.2,15.2,0,0,1-4.541-2.5,18.787,18.787,0,0,1-2.958-2.805c-.378-.551-.824-1.065-1.2-1.619-.364-.536-1.829-2.6-.552-2.794,1.163-.172,2.354,1.4,3.079,2.1a17.324,17.324,0,0,0,4.293,3.052,30.3,30.3,0,0,0,5.592,1.525c.155.039.388.028.4-.123" transform="translate(-1101.354 -522.874)"/><path class="by" d="M1133.392,536.072c-1.087-1.638-1.647-3.156-2.78-4.766-.749-1.066-1.725-1.891-2.569-2.872a24.153,24.153,0,0,1-2.6-3.091c-.325-.529-1.516-1.944-2.295-1.7a1.022,1.022,0,0,0-.588.776,4.372,4.372,0,0,0,.772,3.738c.285.377,1.1.784.846,1.257-.274.519-1.224.24-1.661.161-1.526-.274-2.95-.9-4.454-1.25" transform="translate(-1107.735 -523.209)"/></g><path class="e" d="M1233.28,487.121l-1.062,27.592s19.546,5.151,25.482,3.532c0,0-.891-30.8-5.279-40.61" transform="translate(-1103.819 -401.772)"/></g></g></g><path class="bx" d="M779.225,777,773.5,816.6l11.722,1.566,5.452-38.71Z" transform="translate(-123.038 -276.418)"/><line class="ca" x1="4.907" y2="37.71" transform="translate(665.637 504.035)"/></g></svg>