<svg xmlns="http://www.w3.org/2000/svg" xmlns:xlink="http://www.w3.org/1999/xlink" width="577.65" height="498.53" viewBox="0 0 577.65 498.53"><defs><style>.a,.ab,.ac,.f,.s,.z{fill:none;}.b{clip-path:url(#a);}.c{fill:url(#b);}.d{fill:url(#c);}.e,.g{fill:#2a7195;}.e,.f,.i,.j,.k,.m,.n{stroke:#060c39;}.ab,.ac,.e,.f,.i,.j,.k,.n,.r,.s,.x,.y,.z{stroke-linecap:round;stroke-linejoin:round;}.e,.f{stroke-width:1.209px;}.h,.m,.r,.x,.y{fill:#fff;}.i,.k{fill:#060c39;}.i{stroke-width:1.256px;}.j,.n{fill:#bb6737;}.j{stroke-width:0.905px;}.k{stroke-width:1.371px;}.l{fill:#4fa5ad;}.m{stroke-miterlimit:10;}.n{stroke-width:0.996px;}.o{fill:url(#d);}.p{fill:url(#f);}.q{fill:url(#g);}.r,.s,.x,.y{stroke:#100052;}.r{stroke-width:1.544px;}.s{stroke-width:1.451px;}.t{fill:url(#h);}.u{fill:url(#i);}.v{fill:url(#j);}.w{fill:url(#k);}.x{stroke-width:1.277px;}.y{stroke-width:1.429px;}.z{stroke:#fff;stroke-width:3px;}.aa{fill:url(#l);}.ab,.ac{stroke:#707070;}.ab{stroke-width:7px;}.ac{stroke-width:5.93px;}.ad{fill:#f68f78;}.ae{fill:url(#m);}.af{fill:url(#n);}.ag{fill:url(#q);}.ah{fill:url(#r);}.ai{fill:url(#t);}.aj{fill:url(#u);}</style><clipPath id="a"><path class="a" d="M914.591,524.306c-7.779,16.431-38.782,79.367-113.946,113.038C704.089,680.6,585.964,652.576,519.009,586.88c-48.19-47.284-59.12-103.534-64.5-131.2-6.836-35.178-20.743-106.745,19.349-163.5,62.3-88.2,219.724-90.705,320.335-50.463,25.6,10.24,88.4,35.356,122.545,98.908C961.828,424.526,921.578,509.547,914.591,524.306Z" transform="translate(-446.527 -216.68)"/></clipPath><linearGradient id="b" x1="0.444" y1="0.154" x2="0.797" y2="1.323" gradientUnits="objectBoundingBox"><stop offset="0" stop-color="#faebd8"/><stop offset="1" stop-color="#ffb83f"/></linearGradient><linearGradient id="c" x1="0" y1="0.5" x2="1" y2="0.5" xlink:href="#b"/><linearGradient id="d" y1="0.5" x2="1" y2="0.5" gradientUnits="objectBoundingBox"><stop offset="0" stop-color="#fff"/><stop offset="1" stop-color="#bbdbf9"/></linearGradient><linearGradient id="f" x1="0.693" y1="0.937" x2="0.261" y2="-0.301" xlink:href="#d"/><linearGradient id="g" x1="0.906" y1="1.694" x2="0.318" y2="0.084" xlink:href="#d"/><linearGradient id="h" x1="1.499" y1="0.067" x2="0.401" y2="0.616" xlink:href="#d"/><linearGradient id="i" x1="0.989" y1="0.047" x2="-1.12" y2="2.558" xlink:href="#d"/><linearGradient id="j" x1="0.069" y1="0.85" x2="1.462" y2="-0.29" xlink:href="#d"/><linearGradient id="k" x1="-0.11" y1="1.223" x2="0.766" y2="0.192" xlink:href="#d"/><linearGradient id="l" x1="0.435" y1="1.48" x2="0.5" y2="0.503" gradientUnits="objectBoundingBox"><stop offset="0" stop-color="#2a7195"/><stop offset="1" stop-color="#99cbcf"/></linearGradient><linearGradient id="m" y1="0.5" x2="1" y2="0.5" gradientUnits="objectBoundingBox"><stop offset="0" stop-color="#2a7195"/><stop offset="1" stop-color="#060c39"/></linearGradient><linearGradient id="n" y1="0.5" x2="1" y2="0.5" gradientUnits="objectBoundingBox"><stop offset="0" stop-color="#ff9077"/><stop offset="1" stop-color="#e9645a"/></linearGradient><linearGradient id="q" x1="0.42" y1="0.446" x2="1.3" y2="1.163" xlink:href="#m"/><linearGradient id="r" x1="1.198" y1="-0.015" x2="-0.182" y2="1.098" gradientUnits="objectBoundingBox"><stop offset="0" stop-color="#2a7195"/><stop offset="0.173" stop-color="#26668b"/><stop offset="0.469" stop-color="#1c4b72"/><stop offset="0.85" stop-color="#0c1f4a"/><stop offset="1" stop-color="#060c39"/></linearGradient><linearGradient id="t" x1="0.54" y1="0.638" x2="0.898" y2="-0.536" xlink:href="#n"/><linearGradient id="u" x1="0.442" y1="0.244" x2="0.647" y2="1.07" xlink:href="#n"/></defs><g transform="translate(-384.716 -130.001)"><g transform="translate(384.716 130.001)"><g transform="translate(37.918 53.173)"><g class="b"><path class="c" d="M698.936,577.943c-23.819-1.361-46.618-8.167-68.056-19.736-13.271-7.146-24.159-17.014-35.049-27.9-9.868-10.208-17.354-21.777-27.222-31.986-26.542-28.243-60.57-44.577-95.618-58.528a160.839,160.839,0,0,0-20.078-6.282c-7.972,41.429-.067,82.114,4.577,106.01,5.377,27.671,16.307,83.922,64.5,131.205,66.954,65.7,185.08,93.718,281.637,50.463,75.163-33.671,106.166-96.607,113.945-113.038,3.963-8.372,18.627-39.35,22.35-79.908-26.188,12.136-53.03,21.456-81.735,29.626C805.783,572.839,753.04,581.346,698.936,577.943Z" transform="translate(-447.679 -300.496)"/><path class="d" d="M921.867,340.662C887.718,277.111,824.926,252,799.322,241.754c-100.611-40.242-258.036-37.732-320.335,50.463-12.859,18.2-20.163,37.931-23.926,57.492a160.83,160.83,0,0,1,20.078,6.282c35.049,13.951,69.076,30.285,95.618,58.528,9.868,10.208,17.354,21.778,27.222,31.986,10.889,10.889,21.778,20.757,35.049,27.9,21.437,11.569,44.236,18.375,68.056,19.736,54.1,3.4,106.847-5.1,159.249-20.076,28.7-8.17,55.547-17.489,81.735-29.626C944.907,413.5,941.379,376.976,921.867,340.662Z" transform="translate(-449.826 -216.697)"/><g transform="translate(181.127 234.976)"><path class="e" d="M942.982,599.723c13.849,3.215,28.509,5.783,39.216,15.835,5.4,5.066,7.686,12.529,9.762,19.634l26.125,89.419c2.887,9.88,5.761,19.77,8.177,29.777,2.406,9.962,1.676,19.408.817,29.574q-1.959,23.168-3.919,46.338c-.888,10.493-8.405,9.887-17.192,10.967a264.219,264.219,0,0,1-30.787,1.969,2.01,2.01,0,0,1-2.5-2.559,538.755,538.755,0,0,1,7.077-57.177c1.51-8.455,3.212-17.234.964-25.523a59.052,59.052,0,0,0-4.955-11.393,455.971,455.971,0,0,1-28.3-67.808,2.529,2.529,0,0,1,2.743.074" transform="translate(-819.562 -599.723)"/><path class="e" d="M890.184,747.595c-6.74,38.044-14.931,79.716-5.157,117.946-12.373,4.533-27.564,5.18-40.622,6.571-13.154,1.4-26.352,2.321-39.546,3.243-9.535.666-19.128,1.332-28.633.331a105.833,105.833,0,0,1-20.44-4.44c-8.839-2.762-9.258-6.051-10.243-14.973a201.828,201.828,0,0,1-.737-29.244c.417-11.892,1.677-24.029,1.243-35.909-.461-12.62-2.395-25.4-4.259-37.876" transform="translate(-741.79 -656.884)"/><path class="f" d="M1003.652,873a72.048,72.048,0,0,1,1.18-8.12c1.618-7.928,6.612-12.563,14.826-13.779" transform="translate(-843.014 -696.896)"/></g></g></g><g transform="translate(154.029 158.238)"><path class="e" d="M740.2,601.9a124.758,124.758,0,0,0-22.816,8.294c-7.891,3.652-14.065,7.8-18.514,15.208-4.991,8.312-7.656,17.61-11.487,26.452-10.8,24.919-19.559,56.163-18.442,83.465.278,6.811,1.745,14.555,7.592,18.06,4.056,2.432,9.34,2.072,13.629.079s7.741-5.414,10.832-8.994c9.069-10.505,15.738-22.823,22.334-35.034" transform="translate(-648.575 -470.654)"/><path class="g" d="M829.97,763.872c8.643-1.489,17.148-3.692,24.992-7.549,8.575-4.216,16.411-10.624,21.209-18.988,5.187-9.043,5.91-20.848,7.81-30.945,5.218-27.718,13.933-57.512,1.718-84.563-3.929-8.7-10.048-22.341-20.169-24.988-7.868-2.058-16.789-1.688-24.857-2.743-15.277-2-30.751-2.045-46.14-1.31-18.943.9-31.993,3.146-44.88,17.91-8.209,9.4-11.382,16.17-11.968,28.586-.9,18.955,3.267,37.578,2.967,56.36-.259,16.2,7.637,29.139,16.561,42.4,5.563,8.27,11.46,16.723,19.939,21.962,12.538,7.747,28.389,7.118,43.014,5.293C823.434,764.892,826.712,764.433,829.97,763.872Z" transform="translate(-675.138 -466.962)"/><path class="h" d="M843.089,612.708a30.618,30.618,0,0,0,23.624-5.939c2.135-1.661,4.422-3.736,7.109-3.421,4.411.517,5.393,6.479,4.884,10.891-1.523,13.216-5.877,26.169-5.434,39.465.173,5.188,1.079,10.356.829,15.541-.421,8.767-4.083,16.87-5.8,25.384-2.5,12.388-8.57,24.514-14.215,35.748a11.866,11.866,0,0,1-2.49,3.681,4.149,4.149,0,0,1-4.13,1,5.945,5.945,0,0,1-2.546-2.54c-12.523-19.42-15.361-46.167-17.252-68.81-1.226-14.671-.632-29.5-2.9-44.08-.721-4.638-4.66-13.585,3-13.8C833.072,605.672,837.825,611.81,843.089,612.708Z" transform="translate(-708.211 -471.202)"/><g transform="translate(97.35 0)"><path class="i" d="M802.988,422.437c-.72-12.27,11.264-22.326,21.759-26.89,8.716-3.791,18.29-4.988,27.707-5.411,12.936-.58,24.7,4.408,29.013,17.046,3.83,11.227,3.535,23.986,2,35.609-1.626,12.282-3.735,28.188-15.261,35.526-6.331,4.03-14.288,4.191-21.793,4.225l-13.663.062c-15.8.072-24.845-11.663-28.268-25.96-1.944-8.123-1.406-15.933-1.032-24.116A96.264,96.264,0,0,0,802.988,422.437Z" transform="translate(-797.768 -388.778)"/><path class="j" d="M830.038,548.354c.329,17.862-5.708,46.122,15.623,54.049,11.471,4.263,22.26-.228,27.523-10.753,7.533-15.064,5.029-34.357,3.571-50.546" transform="translate(-808.025 -447.153)"/><path class="j" d="M860.393,421.216c-3.216.271-6.329.793-8.841,1.152l-19.1,2.727a148.488,148.488,0,0,1-16.679,1.727c-6.425.186-6.968,1.742-8.767,8.173-2.834,10.137-1.346,21,1.048,31.067,4.486,18.855,6.321,48.9,28.647,56.2,9.475,3.1,17.978-.072,24.212-7.676a67.41,67.41,0,0,0,12.776-23.848c3.438-12.044,4.52-24.53,6.755-36.811.762-4.192,1.465-8.469.92-12.693-.726-5.629-2.048-14.433-6.858-17.748C870.885,420.985,865.509,420.783,860.393,421.216Z" transform="translate(-798.737 -400.74)"/><path class="i" d="M903,414.9c-18.693-5.869-5.661,17.79-2.313,23.982a81.652,81.652,0,0,1,9.161,28.577c9.662-7,7.98-25.86,6.845-36.354C915.776,422.577,911.493,417.565,903,414.9Z" transform="translate(-832.633 -398.01)"/><path class="i" d="M802.474,466.918c-4.376-7.2-7.734-15.266-7.964-23.689-.2-7.472,2.346-15.441,7.939-20.6,4.959-4.576,15.87-6.326,18.244,2.252,1.538,5.557-4.989,11.581-7.594,15.839C808.218,448.691,805.034,457.967,802.474,466.918Z" transform="translate(-794.499 -399.883)"/><path class="j" d="M923.078,486.382c.623-3.971,5.363-4.427,7.252-1.285a12.04,12.04,0,0,1,1.1,8.933,22.309,22.309,0,0,1-4.173,8.159c-1.055,1.385-2.343,2.784-4.057,3.084s-3.758-1.162-3.359-2.857" transform="translate(-842.932 -424.705)"/><path class="j" d="M804.388,490.334c-.7-3.959-5.444-4.326-7.274-1.149a12.033,12.033,0,0,0-.937,8.951,22.3,22.3,0,0,0,4.324,8.08c1.08,1.366,2.394,2.74,4.114,3.008s3.736-1.232,3.305-2.919" transform="translate(-794.974 -426.259)"/><path class="k" d="M805.437,417.847c-4.851-3.028-10.162-7.994-9.348-14.512l9.862,3.447c-4.585-3.514-7.409-10.023-7.188-16.57a48.147,48.147,0,0,0,11.2,6.339,13.874,13.874,0,0,1-3.892-8.6,31.521,31.521,0,0,0,8.479,3.411c5.656,1.355,12.275,1.476,15.88,6.791q-.6-3.7-1.2-7.4c3.873,2.951,9.226,2.979,13.706,2.52,7.415-.761,10.576.747,16.236,6.247a9.987,9.987,0,0,1,2.962,4.389c.777,2.814-.383,5.911-1.855,8.354C848.331,432.1,820.733,427.392,805.437,417.847Z" transform="translate(-795.081 -387.951)"/><g transform="translate(32.591 143.295)"><path class="l" d="M862.637,776.422c3.154-5.256,4.5-11.371,5.789-17.362a89.287,89.287,0,0,0,2.081-27.906c-.7-9.376-1.416-18.751-2.03-28.133q-.816-12.467-1.656-24.932c-.242-3.586.3-18.848-1.587-21.061-5.47-6.413-8.959,8.6-9.071,13.9,0,17.883-1.013,35.813-1.621,53.683-.165,4.845-.306,9.691-.486,14.536-.224,6.053-1.348,11.419.142,17.532,1.335,5.479,4.009,10.555,5.847,15.869C860.566,774.054,861.209,775.707,862.637,776.422Z" transform="translate(-849.873 -634.653)"/><path class="l" d="M848.127,640.828a15.692,15.692,0,0,1,1.306-11.057c5.066-10,15.667-12.041,20.774.377,3.879,9.429-5.421,20.815-9.484,27.17C856.736,654.056,850,647.11,848.127,640.828Z" transform="translate(-847.627 -621.542)"/></g><g transform="translate(19.264 114.573)"><path class="m" d="M850.4,599.674a4.978,4.978,0,0,1,1.748,1.281,1.291,1.291,0,0,1,.226.588,2.444,2.444,0,0,1-.433,1.373L837.712,628.9c-4.214-3.365-6.366-8.088-7.913-12.768a80.727,80.727,0,0,1-3.893-23.534c-.031-1.392.047-17.6,1.974-17.221,1.235.242,2.263,3.555,2.91,4.5a79.456,79.456,0,0,0,9.326,11.539C842.993,594.265,846.806,597.726,850.4,599.674Z" transform="translate(-825.901 -574.971)"/><path class="m" d="M891.728,615.876a84.649,84.649,0,0,0,4.1-21.42c.245-3.734.21-7.453.086-11.19a38.794,38.794,0,0,0-.1-4.119c-.086-.615-1.666-4.124-1.443-4.425-1.561,2.108-2.625,4.532-4.3,6.491-2.091,2.445-4.635,4.494-6.816,6.86-3.8,4.124-7.621,8.624-12.679,11.292a5.062,5.062,0,0,0-1.788,1.277,1.269,1.269,0,0,0-.23.588A2.414,2.414,0,0,0,869,602.6l14.651,26.025C887.964,625.271,890.156,620.553,891.728,615.876Z" transform="translate(-842.387 -574.721)"/></g></g><path class="e" d="M841.6,750.969c-9.442-22.213-26.4-68.791-33.911-92.907a11.238,11.238,0,0,1-.7-3.841,7.841,7.841,0,0,1,.751-2.711l8.113-19.168-15.34-6.976c.072-9.238-.037-23.113,2.215-31.143,2.262-8.067,9.6-15.143,14.392-16.378-.918.236.518,18.409.748,20.424,2.188,19.129,3.051,38.35,5.318,57.472C826.038,679.816,837.8,727.09,841.6,750.969Z" transform="translate(-699.472 -461.356)"/><path class="e" d="M867.49,752.55c9.442-22.213,27-68.791,34.5-92.907a11.235,11.235,0,0,0,.7-3.841,7.841,7.841,0,0,0-.751-2.711l-8.113-19.168,15.34-6.976c-.072-9.238.037-23.113-2.215-31.143-2.262-8.067-6.762-12.634-11.554-13.869.918.237-3.356,15.9-3.587,17.916-2.188,19.129-3.051,38.35-5.319,57.472C883.644,681.4,871.286,728.671,867.49,752.55Z" transform="translate(-725.364 -462.936)"/><g transform="translate(0 64.073)"><g transform="translate(16.525)"><path class="n" d="M718.47,493.6a3.279,3.279,0,0,0-4.746-.344,5.8,5.8,0,0,0-1.525,2.832c-1.137,3.624-1.6,7.345-2.538,11.07a108.341,108.341,0,0,0-2.526,12.644,86.915,86.915,0,0,0-.806,12.575c.05,2.475.6,5.049,3.1,5.837,5.8,1.218,6.656-10.1,7.064-12.908,1.313-9.043,1.956-16.064,3-24.552a15.806,15.806,0,0,0,.148-3.67,9.751,9.751,0,0,0-1.055-3.306A.734.734,0,0,0,718.47,493.6Z" transform="translate(-679.586 -492.399)"/><path class="n" d="M702.433,587.859a12.168,12.168,0,0,1-2.521,4.339c-.758.8-1.724,1.315-2.485,2.1a13.93,13.93,0,0,0-2.824,4.117c-4.233,9.658-5.671,20.088-9.208,29.978a4.261,4.261,0,0,1-1.066,1.823,5.09,5.09,0,0,1-3.256,1.118,40.045,40.045,0,0,1-14.434-1.749,5.341,5.341,0,0,1-2.578-1.423,5.616,5.616,0,0,1-1.281-3.607c-.426-10.266,2.895-19.438,6.008-29.083a28.625,28.625,0,0,0,1.529-6.371c.451-5.492-.838-10.614-1.428-16.039a83.25,83.25,0,0,1,.1-18.05,6.446,6.446,0,0,1,1.455-3.872,5.73,5.73,0,0,1,2.47-1.323,31.149,31.149,0,0,1,8.326-1.068c3.289-.164,6.531-.823,9.845-.313a27.034,27.034,0,0,1,10.489,3.64c5.3,3.516,5.4,7.415,4.571,13.192-1.027,7.156-1.511,14.246-3.279,21.252A13.714,13.714,0,0,1,702.433,587.859Z" transform="translate(-662.742 -513.986)"/><path class="n" d="M704.637,543.924a21.377,21.377,0,0,1,.79,5.673,7.622,7.622,0,0,1-1.931,5.173,3.061,3.061,0,0,1-5.1-.39,8.985,8.985,0,0,1-1.15-2.861,104.983,104.983,0,0,1-2.951-17.051,1.844,1.844,0,0,1,.129-1.129c1.554-2.453,6.045-3.253,7.707-.567C704.144,536.025,703.774,540.416,704.637,543.924Z" transform="translate(-674.929 -507.357)"/><path class="n" d="M692.7,552.425a7.933,7.933,0,0,1-.237,3.852,2.786,2.786,0,0,1-2.851,2.03,3.065,3.065,0,0,1-2.054-1.258,14.444,14.444,0,0,1-2.214-3.355,43.146,43.146,0,0,1-4.013-12.6,10.8,10.8,0,0,1,.137-5.1c.553-1.523,1.428-3.6,3.338-3.538C692.508,532.683,692.264,546.874,692.7,552.425Z" transform="translate(-669.835 -507.88)"/><path class="n" d="M680.607,558.234a2.259,2.259,0,0,1-.5,1.391,1.736,1.736,0,0,1-2.047.3,4.1,4.1,0,0,1-1.61-1.525,32.589,32.589,0,0,1-3.8-8.44,15.207,15.207,0,0,1-.952-6.641c.33-2.242,1.91-3.934,4.213-3.178,1.553.509,1.966,2.1,2.531,3.551A30.943,30.943,0,0,1,680.607,558.234Z" transform="translate(-666.168 -510.781)"/><g transform="translate(23.711 26.44)"><path class="n" d="M713.558,588.377c5.06-5.921,7.541-12.3,8.869-19.891.663-3.788.458-7.317.425-11.118a14.367,14.367,0,0,0-.6-4.876,11.345,11.345,0,0,0-2.862-3.579,143.426,143.426,0,0,0-14.772-13.171.751.751,0,0,0-.593-.24,1.136,1.136,0,0,0-.818.5c-1.4,2.348-2.385,4.758-1.442,7.426s3.41,3.96,5.076,6c.674.826,1.457,1.518,1.548,2.531.275,3.067-.962,5.772-1.2,8.775" transform="translate(-701.394 -535.499)"/></g><path class="n" d="M694.375,590.181a4.726,4.726,0,0,0-.454-2.817,19.124,19.124,0,0,0-8.318-8.808" transform="translate(-671.579 -525.703)"/></g><path class="e" d="M682.731,712.072a610.928,610.928,0,0,0,6.71-76.888,14.254,14.254,0,0,0-.729-6.019c-1.156-2.628-3.7-3.868-6.1-4.684a42.084,42.084,0,0,0-17.722-2.083,12.234,12.234,0,0,0-6.958,2.432c-9.768,8.274-11.7,28.436-14.322,40.146a343.7,343.7,0,0,0-7.326,49.353,107.434,107.434,0,0,0-.2,17.54c1.239,13.887,7.323,25.572,15.447,36.606,7.878,10.7,23.54,2.459,30.985-5.621,6.46-7.011,10.641-15.761,15.733-23.82" transform="translate(-635.805 -542.573)"/></g><path class="f" d="M744.7,761.848q-.912-32.46-4.055-64.806" transform="translate(-676.332 -507.432)"/></g><g transform="translate(426.324 271.284)"><path class="o" d="M1103.485,693.94c-1.021-4.424,1.021-7.826,2.382-11.229,5.444-11.909,12.93-22.118,20.417-33.347a31.926,31.926,0,0,1,2.042-5.1,25.987,25.987,0,0,0,3.062-3.063c12.059-21.51,8.2-45.518.375-66.94l-.387.058c-26.524,4.248-45.8,15.159-50.5,42.627-4.351,25.383,3.348,58.313,21.517,79.742.025-.234.047-.469.077-.7C1102.464,695.3,1103.485,694.621,1103.485,693.94Z" transform="translate(-1079.683 -573.015)"/><path class="o" d="M1222.858,607.284q-1.863-2.025-3.837-3.935a123.274,123.274,0,0,0-33.564-22.577c-6.157-2.889-12.684-5.848-19.264-7.632-6.292-1.706-13.724-.664-20.125.335,7.822,21.422,11.684,45.429-.375,66.94a25.973,25.973,0,0,1-3.062,3.063,31.916,31.916,0,0,0-2.042,5.1c-7.487,11.229-14.972,21.437-20.417,33.347-1.361,3.4-3.4,6.806-2.382,11.229,0,.681-1.021,1.361-1.021,2.042-.029.234-.052.468-.077.7a68.686,68.686,0,0,0,11.792,11.072c19.329,14.134,47.334,22.084,66.048,18.263a62.643,62.643,0,0,0,38.406-25.572,67.743,67.743,0,0,0,12.372-39.7C1245.069,640.439,1236.123,621.7,1222.858,607.284Z" transform="translate(-1093.99 -572.232)"/></g><g transform="translate(79.15)"><path class="p" d="M613.447,286.322c-25.181,5.1-44.577,17.694-63.972,33.687A104.889,104.889,0,0,0,537.33,331.8c28.452,31.971,92.631,29.43,131.251-.033,23.511-17.935,39.951-47.682,43.219-76.083-13.809,9.254-27.608,15.754-43.909,19.753C649.176,279.516,632.5,282.238,613.447,286.322Z" transform="translate(-522.86 -178.583)"/><path class="q" d="M693.68,161.288c-12.473-19.56-33.728-25.78-40.632-27.8C604.605,119.311,543.337,149.75,522.6,199.78c-3.889,9.381-18.977,49.913,2.138,79.124a54.651,54.651,0,0,0,3.473,4.309,104.889,104.889,0,0,1,12.146-11.787c19.4-15.993,38.791-28.583,63.972-33.687,19.055-4.083,35.729-6.806,54.444-10.889,16.3-4,30.1-10.5,43.909-19.753C704.593,190.49,702,174.342,693.68,161.288Z" transform="translate(-513.741 -130.001)"/><path class="r" d="M594.622,303.426l84.311-3.3-2.549-108.552-84.339,2.177Z" transform="translate(-544.01 -153.803)"/><line class="s" x1="55.137" y2="1.945" transform="translate(67.203 89.523)"/><line class="s" x1="54.932" y2="2.028" transform="translate(67.003 92.682)"/><line class="s" x1="55.998" y2="1.803" transform="translate(65.709 61.663)"/><line class="s" x1="56.111" y2="1.814" transform="translate(65.456 58.783)"/><line class="s" x1="56.224" y2="1.826" transform="translate(65.203 55.891)"/><line class="s" x1="56.338" y2="1.837" transform="translate(64.948 52.988)"/><line class="s" x1="55.485" y2="1.751" transform="translate(66.857 86.419)"/><path class="s" d="M630.566,313.635" transform="translate(-558.9 -200.986)"/><path class="s" d="M718.627,307.325" transform="translate(-592.941 -198.547)"/><path class="s" d="M631.982,324.878" transform="translate(-559.448 -205.332)"/><path class="s" d="M719.591,318.643" transform="translate(-593.314 -202.922)"/><path class="s" d="M633.8,339.33" transform="translate(-560.152 -210.918)"/><path class="s" d="M720.831,333.19" transform="translate(-593.793 -208.545)"/><path class="s" d="M625.762,284.851" transform="translate(-557.043 -189.859)"/><path class="s" d="M716.3,280.062" transform="translate(-592.043 -188.008)"/><path class="s" d="M631.334,319.731" transform="translate(-559.197 -203.342)"/><path class="s" d="M719.15,313.461" transform="translate(-593.143 -200.919)"/><circle class="s" cx="2.22" cy="2.22" r="2.22" transform="translate(57.152 56.571)"/><line class="s" x1="55.998" y2="1.803" transform="translate(66.957 120.385)"/><line class="s" x1="56.111" y2="1.814" transform="translate(66.705 117.504)"/><line class="s" x1="56.224" y2="1.826" transform="translate(66.452 114.613)"/><line class="s" x1="56.338" y2="1.837" transform="translate(66.197 111.709)"/><circle class="s" cx="2.22" cy="2.22" r="2.22" transform="translate(58.401 115.293)"/><circle class="s" cx="2.22" cy="2.22" r="2.22" transform="translate(57.152 87.369)"/></g><g transform="translate(0 219.596)"><path class="t" d="M450.329,571.774c-5.1-19.736,1.361-38.451,8.167-56.826,3.521-8.907,7.669-17.688,9.919-26.88-18.223-1.172-38.184,8.621-50.307,18.619-31.229,25.753-47.7,83.563-17.181,115.11,23.757,24.559,69.935,26.944,92.776,5.155a43.334,43.334,0,0,0,8.415-11.12A233.583,233.583,0,0,0,478.232,602.4C464.961,596.275,454.072,585.726,450.329,571.774Z" transform="translate(-384.716 -487.973)"/><path class="u" d="M548.761,560.242c-1.15-25.257-2.51-55.119-23.46-67.239a37.826,37.826,0,0,0-16.7-4.874c-2.249,9.192-6.4,17.973-9.919,26.88-6.806,18.375-13.271,37.09-8.167,56.826,3.743,13.952,14.632,24.5,27.9,30.625a233.586,233.586,0,0,1,23.884,13.433C550.585,600.311,549.676,580.317,548.761,560.242Z" transform="translate(-424.905 -488.033)"/></g><g transform="translate(360.033 14.51)"><path class="v" d="M1052.865,363.4c-6.125-6.465-8.507-16.334-8.507-25.181a7.22,7.22,0,0,1,1.021-2.382,25.614,25.614,0,0,1,0-5.1,19.258,19.258,0,0,0,1.021-6.125c0-.68.68-1.361,1.021-2.042,2.382-16.333-8.507-29.6-21.1-38.451-16.369-11.567-33.44-18.792-51.3-24.464a104.448,104.448,0,0,0-3.4,25.246c-.359,46.253,33.387,89.894,79.54,99.425a104.607,104.607,0,0,0,47.079-1.516c-9.6-4.041-19.422-7.094-29.383-10.559C1063.073,369.862,1056.948,367.82,1052.865,363.4Z" transform="translate(-971.619 -194.627)"/><path class="w" d="M1161.57,290.32c9.353-29.847-7.78-58.048-15.466-70.7-20.4-33.578-70.683-80.094-119.309-61.864-26,9.749-42.839,34.755-49.625,60.921,17.859,5.672,34.93,12.9,51.3,24.464,12.59,8.848,23.48,22.118,21.1,38.451-.34.681-1.021,1.361-1.021,2.042a19.258,19.258,0,0,1-1.021,6.125,25.605,25.605,0,0,0,0,5.1,7.218,7.218,0,0,0-1.021,2.382c0,8.847,2.382,18.716,8.507,25.181,4.083,4.424,10.208,6.465,15.993,8.847,9.961,3.465,19.785,6.518,29.383,10.559C1128.889,334.424,1153.6,315.753,1161.57,290.32Z" transform="translate(-973.765 -153.655)"/><g transform="translate(23.532 50.061)"><g transform="translate(62.184 29.695)"><path class="x" d="M1113.229,309.332l58.43-5.552,8.178,2.13-5.219-6.287-1.516-15.956-61.754,5.868Z" transform="translate(-1111.348 -283.668)"/><line class="x" x1="51.731" y2="4.915" transform="translate(5.33 6.477)"/><line class="x" x1="51.731" y2="4.915" transform="translate(5.944 12.943)"/></g><path class="y" d="M1083.894,257.412l-65.377,6.212-8.537,4.064,4.41-8.008-1.7-17.853,69.1-6.565Z" transform="translate(-1009.979 -235.261)"/><line class="y" y1="5.5" x2="57.881" transform="translate(9.236 7.193)"/><line class="y" y1="5.5" x2="57.881" transform="translate(9.923 14.428)"/><g transform="translate(12.599 64.696)"><path class="y" d="M1104.432,362.875l-65.377,6.212-8.537,4.064,4.41-8.008-1.7-17.853,69.1-6.565Z" transform="translate(-1030.517 -340.725)"/><line class="y" y1="5.5" x2="57.881" transform="translate(9.236 7.193)"/><line class="y" y1="5.5" x2="57.881" transform="translate(9.923 14.428)"/></g></g></g><path class="z" d="M610.469,892.576A158.219,158.219,0,0,1,518.8,817.915" transform="translate(-436.548 -395.918)"/><path class="z" d="M1286.743,510.863a379.219,379.219,0,0,0-11.014-112.471" transform="translate(-729.142 -233.749)"/></g><circle class="aa" cx="25.129" cy="25.129" r="25.129" transform="translate(875.658 281.116)"/><path class="ab" d="M1208.8,398.169l10.652,11.779,39.873-33.425" transform="translate(-318.553 -95.294)"/><path class="ac" d="M718.627,212.144l4.317,4.773,16.89-14.159" transform="translate(-129.075 -28.125)"/><path class="ac" d="M718.627,265.066l4.317,4.773,16.89-14.159" transform="translate(-129.075 -48.582)"/><path class="ac" d="M720.831,309.333l4.317,4.773,16.89-14.159" transform="translate(-129.927 -65.694)"/><path class="ad" d="M434.867,637.081l67.907,2.133a155.37,155.37,0,0,0,5.368-25.415c-.127,1.019-41.794-1.169-45.748-.945C450.708,613.516,442.742,629.084,434.867,637.081Z" transform="translate(-19.386 -186.643)"/><path class="ae" d="M401.592,630.943l67.908,2.133a155.44,155.44,0,0,0,5.368-25.415c-.128,1.019-41.795-1.169-45.748-.945C417.433,607.378,409.467,622.946,401.592,630.943Z" transform="translate(-6.524 -184.27)"/><path class="af" d="M456.328,624.686l67.907,2.133A155.37,155.37,0,0,0,529.6,601.4c-.127,1.019-41.794-1.169-45.748-.945C472.169,601.121,464.2,616.689,456.328,624.686Z" transform="translate(-27.682 -181.852)"/><path class="l" d="M423.983,615.583l67.908,2.133a155.436,155.436,0,0,0,5.368-25.415c-.128,1.019-41.795-1.169-45.748-.945C439.824,592.018,431.858,607.586,423.983,615.583Z" transform="translate(-15.179 -178.333)"/><path class="af" d="M401.592,604.707l67.908,2.132a155.433,155.433,0,0,0,5.368-25.414c-.128,1.019-41.795-1.169-45.748-.945C417.433,581.142,409.467,596.71,401.592,604.707Z" transform="translate(-6.524 -174.129)"/><path class="ae" d="M1206.523,672.463l-7.393,32.349,62.225,1.768V674.939Z" transform="translate(-314.816 -209.692)"/><path class="ag" d="M1213.587,663.755l-7.393,32.349,62.225,1.768V666.231Z" transform="translate(-317.547 -206.326)"/><path class="ah" d="M1206.523,659.515l-7.393,32.349,62.225,1.768V661.991Z" transform="translate(-314.816 -204.687)"/><path class="af" d="M1112.915,649.309l-16.809,28.652,59.682,1.7,5.972-30.078Z" transform="translate(-274.992 -200.741)"/><path class="ai" d="M1108.077,642.893l-16.809,28.652,59.682,1.7,5.972-30.078Z" transform="translate(-273.121 -198.261)"/><path class="aj" d="M1105.364,636.113l-16.809,28.652,59.682,1.7,5.972-30.078Z" transform="translate(-272.073 -195.64)"/></g></svg>