<svg xmlns="http://www.w3.org/2000/svg" xmlns:xlink="http://www.w3.org/1999/xlink" width="511.458" height="469.235" viewBox="0 0 511.458 469.235"><defs><style>.a,.m,.p{fill:none;}.b{fill:url(#a);}.c{fill:url(#b);}.d{clip-path:url(#c);}.e,.j{fill:#2a7195;}.f,.l{fill:#bb6737;}.f,.g,.j,.k,.l,.m,.n,.o{stroke:#060c39;}.f,.g,.j,.k,.n,.o{stroke-miterlimit:10;}.g,.o{fill:#060c39;}.h,.k,.n{fill:#fff;}.i{fill:#4fa5ad;}.l,.m,.p{stroke-linecap:round;stroke-linejoin:round;}.n{stroke-width:0.917px;}.o{stroke-width:0.957px;}.p{stroke:#fff;stroke-width:3px;}.q{fill:url(#d);}.r{fill:url(#e);}.s{fill:url(#f);}.t{fill:url(#g);}.u{fill:url(#h);}.v{fill:url(#i);}</style><linearGradient id="a" y1="0.5" x2="1" y2="0.5" gradientUnits="objectBoundingBox"><stop offset="0" stop-color="#4fa5ad"/><stop offset="1" stop-color="#99cbcf"/></linearGradient><linearGradient id="b" x1="1.795" y1="0.273" x2="0.768" y2="0.456" xlink:href="#a"/><clipPath id="c"><path class="a" d="M957.8,260.932c-9.9-9.133-21.677-15.8-34-20.59-41.5-16.121-102.955-21.636-147.409-22.9C739.527,216.4,690.138,229.269,650.3,261.47a178.705,178.705,0,0,0-43.215,50.694c-20.5,36-29.108,79.834-25.1,121.565,1.985,20.671,8.663,35.84,16.823,50.053,9.509,16.562,21.032,31.825,29.491,52.982,8.3,20.763,12.764,43.9,26.4,61.221,46.861,59.5,131.38,81.839,200.43,56,18.571-6.95,46.8-19.33,68.922-35.763,14.74-10.951,26.767-23.7,31.408-37.849,4.625-14.1,4.437-29.411,7.187-44.05,9.553-50.846,50.4-88.878,50.807-142.71C1013.807,347.488,990.737,291.318,957.8,260.932Z" transform="translate(-581.027 -217.388)"/></clipPath><linearGradient id="d" x1="0.79" y1="-0.367" x2="0.005" y2="1.914" gradientUnits="objectBoundingBox"><stop offset="0" stop-color="#ff9077"/><stop offset="1" stop-color="#e9645a"/></linearGradient><linearGradient id="e" x1="0.487" y1="0.494" x2="0.359" y2="1.008" xlink:href="#d"/><linearGradient id="f" x1="0.713" y1="-0.573" x2="0.336" y2="1.476" gradientUnits="objectBoundingBox"><stop offset="0" stop-color="#faebd8"/><stop offset="1" stop-color="#ffb83f"/></linearGradient><linearGradient id="g" x1="0.516" y1="0.293" x2="0.373" y2="1.104" xlink:href="#f"/><linearGradient id="h" x1="-7.8" y1="-15.601" x2="-8.191" y2="-13.711" gradientUnits="objectBoundingBox"><stop offset="0" stop-color="#2a7195"/><stop offset="1" stop-color="#060c39"/></linearGradient><linearGradient id="i" x1="-6.701" y1="-9.359" x2="-6.843" y2="-8.588" xlink:href="#h"/></defs><g transform="translate(-581.027 -184.612)"><path class="b" d="M726.856,395.737c-1.468-48.418-33.552-93.269-76.556-113.321a178.7,178.7,0,0,0-43.215,50.694c-20.5,36-29.108,79.834-25.1,121.564,1.985,20.672,8.663,35.841,16.823,50.054,9.509,16.562,21.032,31.825,29.491,52.982,8.3,20.763,12.764,43.9,26.4,61.22,46.861,59.5,131.38,81.839,200.43,56,18.571-6.95,46.8-19.33,68.922-35.763-48.725-11.277-94.859-30.431-137.4-61.331C726.856,534.157,728.872,460.916,726.856,395.737Z" transform="translate(0 -32.086)"/><path class="c" d="M989.284,579.794c4.625-14.1,4.437-29.412,7.187-44.05,9.553-50.846,50.4-88.878,50.807-142.71.35-46.122-22.72-102.291-55.662-132.677-9.9-9.133-21.677-15.8-34-20.59-41.5-16.121-102.956-21.637-147.409-22.9-36.857-1.044-86.246,11.822-126.084,44.024,43,20.053,75.089,64.9,76.556,113.321,2.016,65.178,0,138.42,59.8,182.1,42.538,30.9,88.671,50.054,137.4,61.331C972.616,606.692,984.644,593.941,989.284,579.794Z" transform="translate(-33.821 -10.564)"/><g transform="translate(581.027 206.636)"><g class="d"><g transform="translate(95.276 46.678)"><path class="a" d="M965.266,351.587c1.13,4.529.519,9.28-.146,13.9q-3.934,27.285-10.15,54.2c-1.6,6.944-3.459,14.137-8.143,19.591a24.574,24.574,0,0,1-22.386,7.936,24.108,24.108,0,0,1-18.193-15.011" transform="translate(-782.995 -308.092)"/><path class="e" d="M825.087,761.7c22.95,1.523,46.092,1.7,68.566-2.858a164.62,164.62,0,0,0,34.974-11.27,8.775,8.775,0,0,0,3.743-2.58c1.154-1.628,1.05-3.779.9-5.754-2.84-37.493-2.279-74.4-6.062-111.982q-2.031-20.183-4.7-40.3c-1.132-8.538.208-16.6-1.576-25.115a120.78,120.78,0,0,0-6.519-21.914c-6.052-14.463-16.2-26.843-31.044-33.317-5.625-2.453-11.749-3.579-17.827-4.558q-14.426-2.323-28.991-3.691c-22.216-2.085-45.757,3.493-61.925,19.179-3.772,3.659-5.839,8.351-10.092,11.442-4.293,3.12-8.689,4.652-12.473,8.869-8.012,8.927-12.227,20.781-14.3,32.314a117.769,117.769,0,0,0-1.075,34.427c1.242,10.679,3.94,21.137,6.631,31.558L758.2,693.811c3.249,12.584,7.8,23.783,11.659,35.969s11.522,22.71,24.117,27.429c6.651,2.492,13.848,3.169,20.947,3.743Q820,761.362,825.087,761.7Z" transform="translate(-727.112 -356.107)"/><path class="f" d="M871.405,434.729l1.342,39.6c.159,4.682.343,9.483,2.188,13.807a33.187,33.187,0,0,0,4.652,7.317c2.778,3.533,5.856,6.981,9.844,9.143s9.071,2.844,13.1.755c5.185-2.69,7.147-8.882,8.339-14.5a170.518,170.518,0,0,0,3.276-23.173l-.261,2.987" transform="translate(-771.565 -335.367)"/><path class="g" d="M848.566,366.443c-4.747-13.681-7-28.533-5.351-42.728,1.168-10.029,5.77-16.623,16.619-17.565,6.962-.6,15.39,1.108,18.963,7.573,7.522,13.616,3.935,29.014-1.568,42.633-2.907,7.2-6.474,14.11-9.774,21.136-1.52,3.237-3.73,14.452-9.081,12.36-3.238-1.265-4.538-10.605-5.845-13.489C851.07,373.148,849.741,369.831,848.566,366.443Z" transform="translate(-762.14 -293.149)"/><path class="h" d="M868.826,763.015c-6.123-11.166-10.762-19.549-12.059-32.449l-9.253-92.079c-.786-7.829-.638-16.467-2.424-24.129-1.176-5.041-3.444-9.445-4.3-14.677-2.09-12.8-.992-25.777,5.886-37.109,2.954-4.868,6.76-9.808,6.473-15.461-.482-9.506-13.978-16.475-10.328-26,3.784-9.869,17.454-9.715,25.739-7.078,7.862,2.5,16.273,6.061,24.065,3.354,8.666-3.011,16.528-7.211,22.466,2.788,7.05,11.873.132,26.384,1.61,39.008,1.6,13.714,6.056,27.06,7.585,40.72,1.349,12.048.4,24.991.988,37.3l4.2,88.388q.717,15.092,1.385,30.186c.085,2,.116,4.185-1.113,5.791-1.07,1.4-2.864,2.045-4.571,2.564-13.4,4.068-28.84,3.835-42.834,5.388-3.014.335-6.273.6-8.884-.911C871.315,767.372,870,765.156,868.826,763.015Z" transform="translate(-761.21 -360.881)"/><g transform="translate(111.386 157.301)"><path class="i" d="M899.2,734.064q.136,3.5.286,7c.187,4.372.388,8.815,1.794,12.958,2.628,7.743,9.078,13.465,15.267,18.81l5.206-9.026a15.849,15.849,0,0,0,3.067-11.373c-.564-11.811-2.12-23.477-2.12-35.324.075-10.737-.288-21.473-.921-32.19-.548-9.294-2.219-18.276-2.011-27.621q1-44.981-1.416-89.952c-.184-3.426-.452-7.055-2.448-9.845-2.728-3.815-9.709-6.577-12.9-2.471-2.65,3.41-3.694,9.35-3.708,13.571-.1,29.851-.973,59.664-1.247,89.507C897.814,683.57,898.217,708.69,899.2,734.064Z" transform="translate(-891.67 -531.467)"/><path class="i" d="M889.234,540.935c-1.308-3.669-.5-8.038,1.258-11.3,5.56-10.324,17.584-12.686,23.654-.165,4.609,9.507-5.742,21.358-10.235,27.942C899.306,554.189,891.5,547.288,889.234,540.935Z" transform="translate(-888.587 -520.956)"/></g><path class="j" d="M958.524,615.4l1.84,38.964c.435,9.222,3.3,21.19-.117,30.026,7.515-22.473,14.85-44.994,19.43-68.21l3.458-17.53c-4.33-2.2-10.7-4.974-13.9-8.6-4.74-5.382-1.222-6.265,4.563-9.8a7.66,7.66,0,0,0,2.554-2.125,7.1,7.1,0,0,0,.688-4.359l-1.144-20.3c-.161-2.86-.361-5.846-1.892-8.311-1.384-2.227-3.7-3.766-6-5.14a96.809,96.809,0,0,0-11.356-5.789q-3.013-1.3-6.116-2.389c-2.251-.788-2.734.62-2.848,2.723-.279,5.107,2.047,10.03,3.287,14.946,1.312,5.2,2.369,10.457,3.233,15.742,1.738,10.631,2.692,21.362,3.366,32.1C957.953,603.356,958.24,609.377,958.524,615.4Z" transform="translate(-796.583 -367.15)"/><path class="j" d="M853.633,645.809A535.117,535.117,0,0,1,818.1,567.585a6.922,6.922,0,0,1-.571-4.233,7.1,7.1,0,0,1,2.056-2.842l20.082-19.777-28.807-9.319c2.1-9.976,4.827-24.985,10.976-33.4,6.176-8.456,20.225-10.7,29.947-11.479-1.863.149-.941,15.4-.913,17.61.265,20.929-2.1,41.8-1.682,62.734Q849.983,606.4,853.633,645.809Z" transform="translate(-751.702 -352.361)"/><g transform="translate(94.73 133.058)"><path class="k" d="M895.565,506.724l-13.282,22c-.294.488-8.567-7.852-9.208-8.673a43.485,43.485,0,0,1-6.321-11.177,42,42,0,0,1-2.732-12.475c-.169-2.787-.973-9.593,2.07-11.313,1.394-.787,2.973.826,4.005,1.529,6.257,4.257,12.929,8.092,18.508,13.173C889.319,500.44,895.963,506.065,895.565,506.724Z" transform="translate(-863.8 -484.877)"/><path class="k" d="M925.969,523.546a15.632,15.632,0,0,1,.432,2.9c7.238-4.657,11.4-10.758,8.734-19.426-1.236-4.028-2.9-13.508-7.5-13.425-6.973.144-12.807,11.66-16.175,16.484A18.417,18.417,0,0,1,925.969,523.546Z" transform="translate(-879.436 -487.738)"/></g><path class="f" d="M870.913,398.059c-3.784-12.269-6.8-25.01-5.863-37.791,1.67-22.873,18.537-40.539,40.768-46.155,12.5-3.157,27.647-.775,38.224,6.761,10.345,7.37,7.148,19,4.321,29.307-3.19,11.629.667,24.731-.261,36.812-.986,12.833-3.2,20.756-10.551,31.647-2.461,3.647-3.636,11.131-7.75,13.421-17.1,9.525-34.658-6.976-43.37-19.474" transform="translate(-769.424 -295.352)"/><path class="g" d="M950.258,322.4c7.381-2.746,15.725-7.674,15.615-15.387L951.3,309.441a22.945,22.945,0,0,0,12.875-18.128,76.181,76.181,0,0,1-16.94,5.581,15.648,15.648,0,0,0,6.912-9.382,52.291,52.291,0,0,1-12.6,2.612c-8.257.671-17.682-.248-23.658,5.358l2.9-8.421c-5.977,2.813-13.589,1.99-19.883.738-10.416-2.071-15.151-.823-24.078,4.669-1.953,1.2-3.911,2.6-4.913,4.632-1.556,3.15-.4,6.938,1.295,10.017C887.012,332.109,926.989,331.052,950.258,322.4Z" transform="translate(-771.493 -286.856)"/><path class="g" d="M872.575,370.859a23.041,23.041,0,0,1-6.354,5.842c-3.387,1.957-7.889,2.514-11.2.439a13.206,13.206,0,0,1-4.685-6.163c-5.685-12.97-2.137-26.81,7.187-37.221,6.869-7.67,24.163-20.631,29.287-4.929,4.751,14.56-4.25,28.343-12.44,39.652C873.788,369.279,873.194,370.079,872.575,370.859Z" transform="translate(-763.755 -298.194)"/><path class="f" d="M867.339,416.762a9.314,9.314,0,0,1-6.121-5.671c-5.527-13.431,5.1-31.541,17.791-15.585" transform="translate(-767.731 -320.452)"/><path class="j" d="M1004.785,599.235c-1.325,31.351,3.475,62.922-.6,94.046,8.337,3.611,17.176,3.19,26.285,2.762,5.391-.253,10.881-.526,15.946-2.348s9.732-5.47,11.346-10.5c1.544-4.812.12-10-1.365-14.834q-8.168-26.583-18.775-52.372" transform="translate(-815.124 -389.335)"/><path class="j" d="M962.943,528.168a219.331,219.331,0,0,1,33.137,12.639c5.337,2.548,10.735,5.449,14.335,10.064,2.955,3.787,4.464,8.433,5.921,12.977l10.519,32.816c1.979,6.177,3.96,12.356,5.583,18.631,5.129,19.835,6.62,40.369,8.091,60.776.611,8.466,1.214,17.05-.449,25.38-.969,4.854-3.081,8.983-8.387,9.682a354.238,354.238,0,0,1-97.7-.739,4.74,4.74,0,0,1-2.71-1.007,4.264,4.264,0,0,1-.972-2.725,35.127,35.127,0,0,1,5.8-23.23c4.792-7.107,14.745-9.589,22.672-12.467A205.444,205.444,0,0,1,1016.514,659" transform="translate(-790.833 -366.021)"/><g transform="translate(125.135 108.835)"><path class="l" d="M943.945,531.072c-.213.324-.427.634-.665.932,5.562-5.723,7.469-14.8,8.577-22.39,1.231-8.434,7.235-20.838,1.564-28.263a4.8,4.8,0,0,0-1.9-6.369c-1.967-1.05-3.129-.854-5.181-1.735-.31.556-1.283.065-1.326-.567a3.873,3.873,0,0,1,.665-1.76c1.139-2.467-1.26-5.425-4-5.811s-5.416,1.046-7.557,2.764a25.645,25.645,0,0,0-3.172,3.026c.466-.614,1-2.619,1.466-3.233,1.689-2.228,3.465-5.025,2.372-7.584-2.511-.238-6.026-1.07-8.118.306" transform="translate(-914.829 -452.366)"/><path class="l" d="M958.281,491.229c3.35.342,8.81-2.264,11.387.572a8.372,8.372,0,0,1,1.677,3.416c1.673,5.876,1.171,12.106.656,18.185a7.361,7.361,0,0,1-1.206,4.13c-2.554,3.146-6.4-1.4-7.363-3.739a12.576,12.576,0,0,1-.349-8.8" transform="translate(-925.2 -462.486)"/><path class="l" d="M940.949,521.894c-.609,4.673.171,16.178-4.381,18.636a20.394,20.394,0,0,1-15.843,1.388,38.143,38.143,0,0,1-5.838-2.667,10.532,10.532,0,0,1-3.153-2.209,8.944,8.944,0,0,1-1.671-3.6c-2.909-10.73,1.3-21.718,1.966-32.535.917-14.879,2.025-29.747,3.132-44.613.1-1.345.261-2.821,1.257-3.755a5.75,5.75,0,0,1,3.2-1.153q10.7-1.544,21.476-2.478c1.967-.171,4.267-.2,5.531,1.283,1.413,1.657.56,4.352-1.182,5.677s-4.048,1.642-6.238,1.915l-12.607,1.569" transform="translate(-909.049 -448.828)"/><path class="m" d="M936.138,471.157l-4.265,2.553a7.763,7.763,0,0,0-3.685,5.209" transform="translate(-915.328 -456.153)"/></g><path class="j" d="M820.51,612.508a80.4,80.4,0,0,0,9.265,14.341c4.647,5.585,9.605,10.917,14.138,16.594,8.329,10.432,18.829,26.1,12.779,39.557-4.162,9.257-15.465,23.078-26.2,14.4a85.751,85.751,0,0,1-11.431-11.7A269.185,269.185,0,0,1,785.8,635.851c-9.191-17.8-18.263-36.748-22.072-56.426-1.228-6.339-1.724-14.949,6.871-14.531,7.552.366,14.335,5.187,19.666,10.039,10.626,9.673,22.258,22.439,28.951,35.133Q819.871,611.308,820.51,612.508Z" transform="translate(-736.016 -378.064)"/><g transform="translate(78.828 314.85)"><path class="l" d="M850.389,781.1c-8.251,14.146,8.233,14.3,18.7,15.052a20.6,20.6,0,0,0,4.755-.045,21.486,21.486,0,0,0,4.5-1.416c8.529-3.4,15.982-9.539,24.765-12.285,3.455-1.08,5.107-.945,7.336-4.166a20.272,20.272,0,0,0,3.456-10.938c.149-6.616-2.706-9.271-8.98-11.239a21.67,21.67,0,0,0-6.779-.628c-7.865.1-15.792.243-23.557,1.589a60.041,60.041,0,0,0-11.217,2.987c-4.2,1.608-4.683,3.107-7.493,6.2" transform="translate(-842.765 -755.424)"/><path class="l" d="M846.3,779a20.118,20.118,0,0,0-1.556,5.413,6.792,6.792,0,0,0,1.539,5.27c1.535,1.647,3.95,2.131,6.2,2.525l8.941,1.573" transform="translate(-841.633 -763.158)"/><path class="l" d="M857.009,769.943l-11.49-1.579a5.763,5.763,0,0,0-3.911.385,3.614,3.614,0,0,0-1.474,3.112,9.661,9.661,0,0,0,.895,3.446,5.365,5.365,0,0,0,1.208,2.016,5.773,5.773,0,0,0,2.247,1.08l10.025,3.131" transform="translate(-840.134 -759.619)"/></g><path class="j" d="M823.831,670.02c.544-6.15,2.6-11.43,4.732-17.15,1.868-5.015,2.074-10.7,2.86-16.06L837,598.818l3.946-26.885c.816-5.558-.031-17.5,6.861-19.757,6.081-1.989,12.442-3.458,18.849-3.183,5.786.248,13.291,1.189,15.548,6.8,3.132,7.789,3.082,17.734,3.594,25.981a533.308,533.308,0,0,1-1.607,85.856c-1.631,16.37-4.475,43.528-22.774,50.482-5.189,1.971-10.992,1.863-16.46.841a51.5,51.5,0,0,1-20.113-8.47c-19.849-13.983-38.5-29.69-54.637-47.706-19.742-22.044-39.846-45.581-45.848-75.147-2.455-12.094-2.581-27.927,4.223-38.867C733.6,540.688,747,538.1,755.2,533.746c4.747-2.52,9.967-3.926,14.523-6.586" transform="translate(-722.82 -365.69)"/></g></g><path class="n" d="M1054.5,278.206l-7.733,29.522a1.423,1.423,0,0,0,2.442,1.3l17.839-20.142h168.289a9.463,9.463,0,0,0,9.463-9.463V228.5a9.451,9.451,0,0,0-9.451-9.451H1061.96a7.992,7.992,0,0,0-7.991,8.075Z" transform="translate(-733.802 -217.933)"/><g transform="translate(385.786 30.907)"><ellipse class="o" cx="6.447" cy="6.297" rx="6.447" ry="6.297"/><ellipse class="o" cx="6.447" cy="6.297" rx="6.447" ry="6.297" transform="translate(25.788)"/><ellipse class="o" cx="6.447" cy="6.297" rx="6.447" ry="6.297" transform="translate(51.575)"/></g></g><path class="p" d="M1256.668,404.512c11.205,49.134-.554,102.81-31.364,143.162" transform="translate(-211.361 -72.14)"/><g transform="translate(978.928 485.421)"><path class="q" d="M1206,677.1c5.748-2.156,11.209-7.9,17.388-5.46,3.88,1.58,8.047,5.6,12.358,2.012a42.756,42.756,0,0,0,5.2-4.916,33.677,33.677,0,0,0,.255-4.141c0-17.842-14-32.306-31.26-32.306a30.528,30.528,0,0,0-20.018,7.5,6.8,6.8,0,0,1,1.567,2.4,41.458,41.458,0,0,1,2.587,10.06c.718,5.029-1.725,9.484-1.868,14.369C1191.92,673.934,1198.962,679.682,1206,677.1Z" transform="translate(-1178.682 -632.284)"/><path class="r" d="M1188.588,655.895a41.46,41.46,0,0,0-2.587-10.06,6.8,6.8,0,0,0-1.567-2.4,32.67,32.67,0,0,0-11.24,24.81c0,17.842,14,32.306,31.259,32.306,15.907,0,29.038-12.278,31-28.164a42.761,42.761,0,0,1-5.2,4.916c-4.311,3.592-8.479-.431-12.358-2.012-6.179-2.443-11.64,3.3-17.388,5.46-7.041,2.587-14.083-3.162-13.795-10.49C1186.863,665.379,1189.307,660.924,1188.588,655.895Z" transform="translate(-1173.194 -635.944)"/></g><g transform="translate(631.212 184.612)"><path class="s" d="M679.109,219.412c8.422-2.614,13.359-12.488,22.071-13.65,11.036,9.294,19.167,26.427,36.011,24.1,1.743-.291,3.485-2.033,4.356-3.776a58.959,58.959,0,0,0,3.009-5.558c-4.009-20.506-21.18-35.921-41.756-35.921a41.776,41.776,0,0,0-33.537,17.243c.394,2.869.876,5.726,1.424,8.553C671.268,214.184,672.14,221.154,679.109,219.412Z" transform="translate(-660.159 -184.612)"/><path class="t" d="M737.1,234.51c-.871,1.742-2.613,3.485-4.356,3.776-16.844,2.323-24.975-14.811-36.011-24.1-8.712,1.162-13.649,11.036-22.071,13.65-6.969,1.742-7.841-5.228-8.421-9-.548-2.828-1.03-5.684-1.424-8.553a46.572,46.572,0,0,0-9.1,27.857c0,24.908,19.091,45.1,42.641,45.1S741,263.039,741,238.131a47.835,47.835,0,0,0-.885-9.18A58.988,58.988,0,0,1,737.1,234.51Z" transform="translate(-655.714 -193.031)"/></g><g transform="translate(595.061 591.741)"><path class="u" d="M617.143,808.88c4.972-.917,8.452-6.2,13.491-6.272,5.651,6.039,9.117,16.344,18.863,16.165a3.981,3.981,0,0,0,2.736-1.853,33.871,33.871,0,0,0,2.09-2.96c-.891-11.946-9.62-21.886-21.332-23.282a23.952,23.952,0,0,0-20.261,7.54c.03,1.66.11,3.319.23,4.966C613.034,805.372,613.057,809.4,617.143,808.88Z" transform="translate(-605.462 -790.513)"/><path class="v" d="M648.684,820.681a3.981,3.981,0,0,1-2.735,1.853c-9.746.179-13.212-10.126-18.863-16.165-5.039.07-8.519,5.355-13.491,6.272-4.086.519-4.109-3.508-4.183-5.7-.12-1.647-.2-3.305-.23-4.966a26.7,26.7,0,0,0-7.073,15.24c-1.69,14.179,7.807,26.969,21.213,28.568s25.643-8.6,27.334-22.78a27.429,27.429,0,0,0,.12-5.285A33.858,33.858,0,0,1,648.684,820.681Z" transform="translate(-601.913 -794.274)"/></g></g></svg>