<?xml version="1.0" encoding="utf-8"?>
<!-- Generator: Adobe Illustrator 16.0.4, SVG Export Plug-In . SVG Version: 6.00 Build 0)  -->
<!DOCTYPE svg PUBLIC "-//W3C//DTD SVG 1.1//EN" "http://www.w3.org/Graphics/SVG/1.1/DTD/svg11.dtd">
<svg version="1.1" id="Layer_1" xmlns="http://www.w3.org/2000/svg" xmlns:xlink="http://www.w3.org/1999/xlink" x="0px" y="0px"
	 width="170px" height="45px" viewBox="0 0 170 45" enable-background="new 0 0 170 45" xml:space="preserve">
<g>
	<path fill="#8C1515" d="M8.39,20.586h16.031V3.908H9.519C8.763,5.673,7.058,12.631,8.39,20.586z"/>
	<path fill="#8C1515" d="M39.711,3.908H24.817v37.051v1.918c1.107-0.605,2.133-1.273,3.098-1.918
		C45.851,28.551,41.138,7.205,39.711,3.908z"/>
	<path fill="#8C1515" d="M21.321,40.959c0.971,0.645,1.998,1.312,3.1,1.918v-1.918V20.996H8.461
		C9.672,27.795,13.146,35.316,21.321,40.959z"/>
</g>
<path fill="#FFFFFF" d="M24.421,3.908v16.678H8.39c0.021,0.136,0.042,0.274,0.071,0.41h15.96v19.963v1.918
	c0.068,0.025,0.132,0.053,0.199,0.123c0.069-0.07,0.131-0.098,0.197-0.123v-1.918V3.908H24.421z"/>
<path fill="#FFFFFF" d="M16.363,6.976l0.011,0.453c0.313-0.24,0.763-0.444,1.123-0.518c-0.201,0.888-0.64,1.125-1.118,1.212
	l-0.02,0.745c0.399-0.307,0.984-0.733,1.432-0.819c-0.259,1.123-0.802,1.542-1.411,1.624v0.737c0.483-0.307,1.253-0.866,1.812-0.952
	c-0.32,1.155-1.039,1.604-1.808,1.677l0.003,0.696c0.48-0.331,1.246-0.803,1.8-0.911c-0.307,1.13-1.056,1.798-1.798,1.892v0.578
	c0.482-0.304,1.244-0.802,1.798-0.886c-0.295,1.165-1.035,1.803-1.808,1.871v0.464c0.585-0.351,1.543-0.947,2.212-1.037
	c-0.383,1.247-1.293,1.92-2.212,2v0.552c0.314-0.263,0.971-0.517,1.333-0.587c-0.195,0.833-0.876,1.15-1.335,1.25l-0.002,1.013
	c0.11-0.002,0.208-0.015,0.324-0.023c-0.033-0.355,0.17-0.716,0.629-1.006c0.02,0.252-0.131,0.658-0.223,0.908
	c0.249-0.038,0.488-0.108,0.734-0.224c-0.13-0.51,0.038-1.196,0.623-1.791c0.117,0.39,0.006,1.037-0.04,1.467
	c0.255-0.153,0.521-0.341,0.767-0.559c-0.283-0.493-0.227-1.238,0.318-1.985c0.165,0.369,0.17,1.089,0.176,1.521
	c0.222-0.253,0.458-0.503,0.671-0.792c-0.381-0.484-0.394-0.932,0.066-1.859c0.157,0.39,0.301,0.934,0.308,1.369
	c0.203-0.246,0.344-0.46,0.51-0.787c-0.097-0.232-0.049-0.4,0.068-0.555c0.177-0.212,0.428-0.405,0.654-0.265
	c0.325,0.146,0.157,0.5,0.053,0.744c-0.081,0.192-0.216,0.32-0.451,0.295c-0.171,0.29-0.401,0.625-0.597,0.867
	c0.465,0.146,0.788,0.267,1.106,0.577c-0.691,0.285-1.092,0.216-1.434-0.07c-0.221,0.291-0.546,0.625-0.781,0.859
	c0.456,0.141,0.753,0.273,1.122,0.643c-0.753,0.303-1.301,0.215-1.636-0.142c-0.253,0.22-0.509,0.447-0.769,0.601
	c0.442,0.222,0.758,0.479,1.027,0.843c-0.851,0.18-1.414-0.054-1.658-0.542c-0.255,0.115-0.492,0.198-0.741,0.254
	c0.239,0.211,0.399,0.367,0.527,0.644c-0.582-0.033-0.915-0.172-1.004-0.508c-0.11,0.008-0.232,0.084-0.348,0.083v1.123
	l-0.712-0.309V18.59c-0.074-0.03-0.249-0.069-0.319-0.1c-0.1,0.346-0.359,0.484-0.911,0.49c0.114-0.281,0.182-0.46,0.464-0.605
	c-0.25-0.068-0.5-0.2-0.75-0.327c-0.221,0.546-0.726,0.766-1.618,0.557c0.259-0.367,0.595-0.708,1.042-0.857
	c-0.228-0.146-0.441-0.287-0.665-0.505c-0.332,0.366-0.886,0.498-1.65,0.188c0.312-0.332,0.625-0.574,1.096-0.658
	c-0.236-0.254-0.456-0.542-0.682-0.831c-0.342,0.304-0.855,0.409-1.554,0.116c0.316-0.332,0.674-0.653,1.12-0.651
	c-0.137-0.204-0.263-0.425-0.405-0.65c-0.148-0.002-0.275,0-0.43-0.201c-0.164-0.21-0.319-0.661-0.041-0.805
	c0.167-0.148,0.562,0.069,0.69,0.301c0.125,0.218,0.077,0.352,0.038,0.503c0.141,0.217,0.295,0.436,0.437,0.637
	c-0.097-0.636,0.083-1.152,0.242-1.52c0.563,0.787,0.455,1.454,0.145,1.945c0.231,0.289,0.431,0.505,0.66,0.734
	c-0.066-0.438-0.01-1.099,0.149-1.471c0.526,0.705,0.597,1.462,0.355,1.933c0.219,0.195,0.431,0.362,0.647,0.501
	c-0.125-0.396-0.17-1.095-0.065-1.481c0.591,0.595,0.777,1.267,0.641,1.78c0.245,0.126,0.498,0.215,0.744,0.279
	c-0.118-0.237-0.232-0.662-0.215-0.936c0.444,0.286,0.56,0.625,0.546,0.978c0.069,0.005,0.251,0.087,0.321,0.087l-0.013-1.004
	c-0.438-0.099-1.097-0.364-1.313-1.217c0.41,0.111,0.936,0.203,1.313,0.547v-0.521c-0.884-0.071-1.778-0.708-2.221-1.955
	c0.771,0.135,1.509,0.501,2.221,0.955v-0.457c-0.777-0.058-1.508-0.779-1.828-1.797c0.639,0.125,1.236,0.401,1.827,0.821v-0.582
	c-0.722-0.078-1.467-0.683-1.827-1.823c0.639,0.129,1.236,0.408,1.827,0.811v-0.651c-0.747-0.036-1.455-0.46-1.827-1.623
	c0.639,0.128,1.236,0.45,1.827,0.878V9.674c-0.587-0.068-1.148-0.432-1.442-1.58c0.512,0.125,0.964,0.345,1.442,0.772V8.119
	c-0.449-0.098-0.873-0.271-1.098-1.151c0.308,0.072,0.678,0.083,1.102,0.454l-0.009-0.446c-0.345-0.512-0.269-0.734-0.223-1.149
	c0.032-0.367,0.171-0.645,0.569-0.658c0.396,0.016,0.531,0.291,0.571,0.658C16.636,6.242,16.71,6.464,16.363,6.976"/>
<path fill="#A61D38" d="M29.875,9.897c0.069,0.048,0.146,0.045,0.167-0.009c0.032-0.055-0.01-0.127-0.081-0.151
	c-0.069-0.049-0.147-0.045-0.165,0.011C29.773,9.804,29.804,9.874,29.875,9.897"/>
<path fill="#A61D38" d="M30.241,9.106c0.061,0.061,0.136,0.069,0.165,0.042c0.045-0.049,0.028-0.123-0.03-0.165
	c-0.065-0.055-0.138-0.062-0.171-0.035C30.166,8.996,30.178,9.072,30.241,9.106"/>
<path fill="#FFFFFF" d="M33.088,16.204c0.245-2.832,0.673-3.623,1.382-4.212l0.063-0.056l-0.269-1.742l-0.129,0.04
	c-0.387,0.054-0.737,0.427-0.975,0.742l-0.002-1.652l-1.912-1.12l0.002,0.967c-0.208-0.21-0.406-0.367-0.479-0.427
	c-0.217-0.154-0.401-0.227-0.6-0.227c-0.113,0-0.215,0.04-0.302,0.054c-0.15,0.027-0.263,0.074-0.482-0.018
	c-0.962-0.2-1.705,0.016-2.124,0.598c-0.383,0.536-0.448,1.389-0.158,2.198c0.232,0.658,0.671,1.325,1.006,1.792
	c0.182,0.248,1.861,2.034,2.257,2.421c0.281,0.286,0.582,0.57,0.887,0.852v0.744l-0.491-0.34l-0.472,1.125l0.097,0.067
	c0.429,0.25,0.852,0.951,1.139,4.533c-1.047,0.376-2.442,1.617-2.475,2.912c-0.024,0.593,0.258,1.437,1.727,2.011
	c0.32,0.129,0.665,0.268,0.999,0.407c0.02,0.632,0.04,1.343,0.054,2.082c-0.27,0.113-0.87,0.425-0.98,0.894
	c-0.09,0.404,0.156,0.752,0.704,1.133c0.097,0.041,0.204,0.113,0.298,0.134c0.003,0.176,0.004,0.358,0.007,0.584
	c-0.315,0.149-0.438,0.198-0.626,0.444c-0.108,0.123-0.195,0.205-0.139,0.328c0.012,0.021,0.053,0.115,0.166,0.115
	c0.076,0,0.191-0.021,0.392-0.13c0.118-0.03,0.191-0.045,0.25-0.053c0.083,0.191,0.28,0.33,0.498,0.33
	c0.233,0,0.424-0.156,0.472-0.43c0-0.104,0-0.152-0.001-0.252c0.27-0.088,0.432-0.338,0.44-0.629
	c0.019-0.318-0.159-0.676-0.447-0.869c-0.001-0.283-0.002-0.561-0.004-0.84c0.975-0.182,2.015-0.795,2.106-1.648
	c0.061-0.531-0.216-1.268-1.825-1.896c-0.103-0.027-0.199-0.101-0.29-0.125c-0.001-1.32,0.001-2.511,0.007-3.622
	c1.736-0.869,2.91-1.674,3.061-2.758C36.07,19.551,35.134,18.227,33.088,16.204z M30.157,8.89c0.043-0.038,0.172-0.036,0.259,0.042
	c0.047,0.028,0.076,0.092,0.082,0.151c0.002,0.034-0.016,0.079-0.039,0.098c-0.023,0.042-0.067,0.053-0.104,0.053
	c-0.057,0-0.117-0.019-0.168-0.07c-0.039-0.051-0.076-0.094-0.077-0.156C30.11,8.957,30.129,8.932,30.157,8.89z M29.731,9.727
	c0.047-0.078,0.159-0.114,0.27-0.055c0.098,0.061,0.149,0.154,0.105,0.236c-0.022,0.059-0.079,0.085-0.146,0.085
	c-0.032,0-0.079-0.016-0.114-0.029c-0.06-0.021-0.108-0.08-0.122-0.14C29.717,9.798,29.718,9.749,29.731,9.727z M30.673,13.939
	c-2.616-2.378-2.725-3.462-2.556-3.896c0.152-0.386,0.605-0.505,0.859-0.505c0.064,0,0.109,0.006,0.143,0.022
	c0.083,0.024,0.085,0.035,0.108,0.131c0.046,0.181,0.107,0.423,0.607,0.595c0.62,0.196,1.078,0.317,1.416,0.328l0.003,3.851
	C31.051,14.274,30.881,14.114,30.673,13.939z M33.796,29.113c-0.003,0.123-0.147,0.365-0.939,0.578
	c-0.001-0.457-0.002-0.908-0.003-1.348C33.409,28.627,33.803,28.908,33.796,29.113z M32.879,9.5v1.129l-0.687-0.171l-0.317-0.155
	c0.04-0.248-0.126-0.545-0.352-0.819V8.676L32.879,9.5z M30.377,25.482c-0.046-0.326,0.341-0.771,1.247-1.465
	c0.048,0.739,0.08,1.592,0.119,2.562C30.953,26.189,30.42,25.861,30.377,25.482z M32.061,27.957
	c0.184,0.098,0.354,0.149,0.515,0.248c0.001,0.488,0.002,1.031,0.004,1.588l-0.004,0.002v1.004l0.01-0.002
	c0,0.186,0.001,0.365,0.002,0.598c-0.135-0.086-0.394-0.24-0.462-0.43C32.11,29.855,32.082,28.902,32.061,27.957z M32.402,33.451
	c-0.085,0-0.196-0.031-0.254-0.162l-0.002-0.025c-0.003-0.389-0.005-0.723-0.008-1.1c0.29,0.092,0.454,0.131,0.449,0.533v0.479
	l0.022-0.002c0,0.021,0,0.09,0,0.11C32.568,33.443,32.434,33.451,32.402,33.451z M32.571,26.922
	c-0.192-0.053-0.373-0.154-0.546-0.207c-0.266-7.702-0.859-8.533-1.387-8.891l0.253-0.582l0.644,0.436l-0.002-1.022
	c0.113,0.119,0.234,0.216,0.356,0.333c0.282,0.243,0.553,0.483,0.823,0.744C32.613,19.849,32.567,22.775,32.571,26.922z
	 M32.837,15.941c-0.403-0.378-0.841-0.798-1.305-1.234l-0.005-4.101c0.09-0.012,0.156-0.06,0.209-0.091l0.314,0.154l0.413,0.654
	l0.121-0.049l-0.022-0.423l0.32-0.069v0.683l0.266,0.042c0.143-0.286,0.521-0.811,0.888-0.969l0.202,1.298
	C33.516,12.446,33.077,13.246,32.837,15.941z M32.87,21.972c0.028-1.59,0.061-2.9,0.114-3.998c0.936,0.914,1.621,1.744,1.493,2.517
	C34.389,21.029,33.854,21.524,32.87,21.972z"/>
<path fill="#FFFFFF" d="M20.445,27.463l-0.003-3.58h-6.301v6.335h1.944v3.535h6.305v-6.291L20.445,27.463L20.445,27.463z
	 M18.583,24.707h1.033v2.633h-1.033V24.707z M19.637,30.219V31h-0.803v-0.781H19.637z M15.086,24.707h2.635v1.031h-2.635V24.707z
	 M16.084,29.395h-1.035v-2.631h1.035V29.395z M16.889,26.639h0.8v0.824h-0.8V26.639z M16.978,28.369h2.637v1.024h-2.637V28.369z
	 M18.032,32.852h-1.029v-2.633h1.029V32.852z M21.445,32.832h-2.636v-1.027h2.635L21.445,32.832L21.445,32.832z M21.481,30.98H20.44
	v-2.633h1.039v2.633H21.481z"/>
<g>
	<g>
		<path fill="#8C1515" d="M78.615,24.547c-3.789,0-4.081-2.883-4.081-3.762c0-1.031,0.283-2.885,2.693-3.768
			c2.486-0.909,3.036-1.019,4.737-1.549v-0.44c0-0.845,0-1.053-0.158-1.565c-0.342-0.975-1.289-1.606-2.56-1.606
			c-1.892,0-2.676,1.447-2.68,1.457l-0.149,0.284l-0.71-0.423l0.071-0.217c0.349-1.088,1.725-2.929,4.721-2.929
			c1.954,0,3.215,0.558,3.982,1.748c0.633,0.948,0.664,2.256,0.664,3.631c0,1.188-0.021,2.542-0.084,3.626
			c-0.014,0.738-0.021,1.386-0.021,1.768c0,0.999,0.152,1.752,0.992,1.752c0.186,0,0.325-0.03,0.448-0.142l0.248-0.178l0.453,0.521
			l-0.149,0.203c-0.748,0.902-1.472,1.568-2.764,1.568c-1.129,0-1.886-0.541-2.156-1.424C81.507,23.728,80.371,24.547,78.615,24.547
			z M81.966,17.178c-1.873,0.566-2.489,0.871-3.066,1.162c-0.802,0.416-1.225,1.232-1.225,2.214c0,0.748,0.277,2.005,2.094,2.005
			c0.594,0,1.456-0.097,2.198-0.625L81.966,17.178L81.966,17.178z"/>
	</g>
	<g>
		<g>
			<path fill="#8C1515" d="M55.462,24.523c-1.816,0-3.197-0.225-4.626-0.679l-0.206-0.049v-1.037c0-1.362-0.024-1.888-0.047-2.319
				l-0.047-0.688l0.822,0.001l0.031,0.292c0.025,0.616,0.238,1.246,0.619,1.682c0.606,0.667,1.964,1.083,3.247,1.083
				c2.669,0,3.911-1.011,3.911-3.183c0-1.866-1.149-2.624-2.738-3.7l-0.252-0.162l-1.673-1.13c-2.322-1.537-3.517-2.771-3.517-5.238
				c0-1.191,0.466-5.124,6.32-5.124c2.404,0,4.271,0.308,4.347,0.316l0.241,0.052L61.888,4.88c0,0.006-0.014,0.781-0.014,1.601
				c0,0.653-0.008,1.225,0.008,1.811l0.017,0.438h-0.697L61.17,8.45c-0.037-0.739-0.256-1.265-0.671-1.685
				c-0.57-0.569-1.813-0.82-3.13-0.82c-3.113,0-3.475,1.598-3.475,2.784c0,1.656,0.853,2.198,2.69,3.422l2.117,1.403
				c1.809,1.208,3.521,2.353,3.521,5.342C62.22,23.969,57.495,24.523,55.462,24.523z"/>
		</g>
		<g>
			<path fill="#8C1515" d="M69.354,24.588c-2.169,0-3.38-0.76-3.904-2.492c-0.219-0.699-0.219-2.038-0.219-2.845
				c0-2.241,0.014-4.041,0.053-6.104l0.008-0.988h-1.858v-0.535l0.19-0.074c0.864-0.358,1.18-0.592,1.557-0.884
				c1.354-1.059,2.292-2.816,2.302-2.833l0.307-0.549h0.624v3.157h4.752v1.719h-4.752v7.34c0,2.19,0.394,3.459,2.483,3.459
				c0.958,0,1.695-0.37,1.699-0.396l0.289-0.148l0.26,0.574l-0.128,0.141C72.956,23.17,71.894,24.588,69.354,24.588z"/>
		</g>
		<g>
			<path fill="#8C1515" d="M88.368,24.422v-0.684l0.274-0.015c0.254-0.015,0.844-0.119,1.217-0.582
				c0.435-0.467,0.498-1.674,0.498-4.037V15.11c0-1.729-0.063-2.46-0.28-2.833c-0.287-0.417-0.951-0.452-1.271-0.488
				c-0.029-0.001-0.103-0.005-0.127-0.006l-0.273-0.02v-0.8l0.354,0.017c0.039,0.005,0.086,0.005,0.193,0.005
				c0.434,0,1.453-0.063,2.512-0.273c0.836-0.114,1.303-0.4,1.514-0.479l0.154-0.074l0.281,0.157v1.105
				c0.668-0.52,2.098-1.333,4.014-1.333c2.553,0,4.184,1.174,4.643,3.3c0.14,0.546,0.22,1.818,0.22,2.517v4.076
				c0,2.314,0.062,2.94,0.494,3.374c0.239,0.188,0.694,0.348,1.106,0.366l0.241,0.015v0.674l-0.663-0.027
				c-1.01-0.077-1.877-0.108-2.771-0.108c-1.027,0-1.964,0-3.185,0.122L97.2,24.422v-0.668l0.219-0.025
				c0.556-0.064,0.951-0.215,1.162-0.465c0.446-0.449,0.51-1.529,0.532-2.463c0.005-0.151,0.009-0.308,0.015-0.492
				c0.021-0.519,0.021-1.614,0.021-2.417c0-1.037,0-2.122-0.123-3.196c-0.189-1.811-1.154-2.638-2.951-2.638
				c-1.268,0-2.033,0.286-2.619,0.586v7.34c0,2.314,0.109,2.94,0.543,3.374c0.197,0.188,0.646,0.348,1.062,0.366l0.278,0.015v0.674
				l-0.735-0.027c-0.986-0.079-1.836-0.107-2.715-0.107c-1.017,0-1.938,0-3.209,0.121L88.368,24.422z"/>
		</g>
		<g>
			<path fill="#8C1515" d="M105.814,24.422v-0.694l0.277-0.015c0.209-0.012,0.833-0.121,1.217-0.578
				c0.437-0.469,0.451-1.667,0.451-4.031V12.16h-1.799v-0.766l0.172-0.087c0.817-0.328,1.288-0.598,1.629-0.858
				c0.01-1.239,0.071-2.835,0.233-3.707c0.563-2.892,2.45-4.353,5.591-4.353c1.387,0,2.688,0.448,3.434,1.054l0.121,0.102
				l0.026,0.295l-1.408,1.917l-0.321,0.002l-0.053-0.165c-0.544-1.179-1.304-1.657-2.392-1.657c-0.438,0-1.031,0.136-1.377,0.504
				c-0.603,0.599-0.716,1.512-0.716,3.282v2.717h3.097v1.719H110.9v7.761c0,1.836,0.041,2.751,0.3,3.09
				c0.405,0.586,1.586,0.658,1.918,0.658h0.295v0.744l-0.306-0.017c-1.517-0.098-2.664-0.122-3.506-0.122
				c-1.031,0-2.207,0-3.475,0.122L105.814,24.422z"/>
		</g>
		<g>
			<path fill="#8C1515" d="M121.877,24.67c-4.257,0-6.779-2.665-6.779-7.134c0-3.442,1.823-7.491,7.082-7.491
				c4.286,0,6.812,2.668,6.812,7.112C128.991,20.625,127.159,24.67,121.877,24.67z M122.084,11.656
				c-0.839,0-1.523,0.214-1.995,0.641c-1.139,0.942-1.708,2.668-1.708,5.092c0,0.943,0.204,5.636,3.62,5.636
				c0.838,0,1.517-0.2,2.002-0.625c1.131-0.942,1.69-2.642,1.69-5.093C125.693,16.363,125.497,11.656,122.084,11.656z"/>
		</g>
		<g>
			<path fill="#8C1515" d="M130.369,24.422v-0.715l0.247-0.014c0.243-0.014,0.836-0.121,1.254-0.582
				c0.437-0.49,0.446-1.645,0.446-4.007v-3.996c0-1.729-0.016-2.46-0.274-2.833c-0.289-0.418-0.901-0.457-1.229-0.489
				c-0.07-0.001-0.099-0.005-0.117-0.006l-0.279-0.02v-0.853l0.299,0.004c0.042,0.003,0.143,0.004,0.244,0.004
				c0.436,0,1.455-0.05,2.512-0.249c0.693-0.124,1.279-0.289,1.486-0.412l0.167-0.072l0.251,0.134v1.222
				c0.686-0.64,1.736-1.305,3.227-1.305c0.986,0,1.774,0.247,2.344,0.762l0.101,0.107v0.439l-1.174,2.14h-0.57l-0.071-0.139
				c-0.351-0.512-0.982-1.115-2.265-1.115c-0.582,0-1.067,0.146-1.513,0.442v7.046c0,1.836,0.05,2.708,0.302,3.069
				c0.367,0.586,1.552,0.622,1.922,0.622h0.294v0.8l-0.306-0.015c-1.556-0.098-2.709-0.124-3.507-0.124
				c-1.043,0-2.242,0-3.471,0.124L130.369,24.422z"/>
		</g>
		<g>
			<path fill="#8C1515" d="M152.35,24.6l-0.392-0.133v-1.172c-0.698,0.535-2.058,1.311-3.912,1.311
				c-3.823,0-6.305-2.648-6.305-6.778c0-1.352,0.276-2.65,0.756-3.745c1.168-2.539,3.612-3.993,6.677-3.993
				c1.135,0,2.141,0.142,2.74,0.251V7.379c0-1.736-0.021-2.666-0.275-3.039c-0.287-0.413-0.893-0.47-1.246-0.487
				c-0.035-0.001-0.062-0.003-0.088-0.006l-0.271-0.021l0.043-0.633h0.295c0.087,0,1.7-0.137,3.015-0.391
				c0.557-0.099,1.079-0.21,1.363-0.324l0.139-0.056l0.252,0.142l-0.009,0.14c-0.106,1.154-0.116,3.621-0.116,5.458v11.404
				c0,1.716,0.02,2.759,0.275,3.106c0.289,0.417,0.893,0.47,1.221,0.488c0.061,0,0.092,0.002,0.114,0.011l0.271,0.042v0.746h-0.289
				c-0.308,0-1.532,0.062-2.724,0.289c-0.657,0.076-1.181,0.192-1.403,0.315L152.35,24.6z M149.111,11.763
				c-2.717,0-4.045,1.85-4.045,5.689c0,1.545,0.44,5.167,4.5,5.167h0.119c0.498,0,1.404-0.075,2.229-0.575v-9.343
				C151.669,12.454,150.816,11.763,149.111,11.763z"/>
		</g>
	</g>
</g>
<g>
	<g>
		<path fill="#231F20" d="M52.01,30.516h2.292l2.104,5.713l0.753,2.199h0.072l0.745-2.199l2.076-5.713h2.271v11.641h-1.942v-5.34
			c0-1.063,0.172-2.629,0.269-3.684h-0.072l-0.945,2.643l-2.001,5.271h-0.974l-1.998-5.271l-0.933-2.643h-0.074
			c0.098,1.055,0.272,2.617,0.272,3.684v5.34H52.01V30.516z"/>
		<path fill="#231F20" d="M69.743,30.516h7.03v1.746H71.81v2.951h4.187v1.744H71.81v3.455h5.131v1.742h-7.198V30.516z"/>
		<path fill="#231F20" d="M83.808,30.516h3.098c3.539,0,5.668,1.914,5.668,5.738c0,3.883-2.129,5.902-5.549,5.902h-3.217V30.516z
			 M86.764,40.459c2.342,0,3.67-1.326,3.67-4.207c0-2.82-1.328-4.084-3.67-4.084h-0.896v8.291H86.764z"/>
		<path fill="#231F20" d="M99.393,30.516h2.059v11.641h-2.059V30.516z"/>
		<path fill="#231F20" d="M113.646,30.277c1.375,0,2.549,0.707,3.278,1.473l-1.142,1.291c-0.605-0.586-1.24-0.934-2.125-0.934
			c-1.912,0-3.299,1.602-3.299,4.217c0,2.642,1.268,4.244,3.205,4.244c1.028,0,1.813-0.432,2.451-1.16l1.157,1.279
			c-0.922,1.066-2.176,1.662-3.633,1.662c-2.955,0-5.272-2.105-5.272-5.988C108.27,32.561,110.637,30.277,113.646,30.277z"/>
		<path fill="#231F20" d="M123.575,30.516h2.057v11.641h-2.057V30.516z"/>
		<path fill="#231F20" d="M133.05,30.516h2.14l3.633,6.551l1.188,2.473h0.053c-0.067-1.184-0.242-2.696-0.242-3.957v-5.063h1.959
			v11.64h-2.1l-3.635-6.547l-1.22-2.476h-0.054c0.099,1.207,0.273,2.629,0.273,3.933v5.09h-1.995V30.516z"/>
		<path fill="#231F20" d="M149.193,30.516h7.012v1.746h-4.952v2.951h4.192v1.744h-4.192v3.455h5.151v1.742h-7.211V30.516z"/>
	</g>
</g>
</svg>
