<svg xmlns="http://www.w3.org/2000/svg" xmlns:xlink="http://www.w3.org/1999/xlink" width="460" height="529.62" viewBox="0 0 460 529.62"><defs><style>.a{fill:url(#a);}.b{fill:url(#b);}.c{fill:url(#c);}.d{fill:url(#d);}.e{fill:#f4d5d8;}.f{fill:url(#e);}.g{fill:url(#f);}.h{fill:url(#g);}.i{fill:#7c73a0;}.i,.l,.m,.o,.q,.t,.v{stroke:#100052;}.i,.l,.m,.o,.p,.q,.t,.u,.v{stroke-linecap:round;stroke-linejoin:round;}.i,.l,.m,.p,.u,.v{stroke-width:1.126px;}.j{fill:url(#i);}.k{fill:url(#k);}.l,.t{fill:#fff;}.m,.q{fill:#100052;}.n,.o{fill:#b9b4cc;}.p,.v{fill:none;}.p{stroke:#fff;}.q,.t{stroke-width:0.99px;}.r{fill:#2a7195;}.s{fill:#bbb7ce;}.u{fill:#feca84;stroke:#feca84;}</style><linearGradient id="a" x1="0.378" y1="0.173" x2="0.475" y2="1.562" gradientUnits="objectBoundingBox"><stop offset="0" stop-color="#faebd8"/><stop offset="1" stop-color="#ffb83f"/></linearGradient><linearGradient id="b" x1="0.345" y1="0.076" x2="0.473" y2="1.385" xlink:href="#a"/><linearGradient id="c" x1="0.713" y1="-0.573" x2="0.336" y2="1.476" gradientUnits="objectBoundingBox"><stop offset="0" stop-color="#ff9077"/><stop offset="1" stop-color="#e9645a"/></linearGradient><linearGradient id="d" x1="0.516" y1="0.293" x2="0.373" y2="1.104" xlink:href="#c"/><linearGradient id="e" x1="0.713" y1="-0.573" x2="0.336" y2="1.476" xlink:href="#c"/><linearGradient id="f" x1="0.516" y1="0.293" x2="0.373" y2="1.104" xlink:href="#c"/><linearGradient id="g" y1="0.5" x2="1" y2="0.5" gradientUnits="objectBoundingBox"><stop offset="0" stop-color="#4fa5ad"/><stop offset="1" stop-color="#99cbcf"/></linearGradient><linearGradient id="i" x1="0.07" y1="0.298" x2="1.011" y2="0.298" xlink:href="#g"/><linearGradient id="k" y1="0.5" x2="1" y2="0.5" gradientUnits="objectBoundingBox"><stop offset="0" stop-color="#b9bdab"/><stop offset="1" stop-color="#769cae"/></linearGradient></defs><g transform="translate(-600.689 -130.105)"><path class="a" d="M924.878,501.425c-33-18.086-54.531-48.719-91.41-56.321a24.618,24.618,0,0,0-18.823,4.451c-11.766,9.077-16.566,21.739-20.266,34.3-11.1,37.7-12.727,78.058-37.912,111.046-25.521,33.367-73.829,34.463-107.069,13.6-1.428-.9-2.8-1.85-4.127-2.851a282.7,282.7,0,0,1-15.077,32.6c-10.178,18.729-43.9,75.553-22.562,99.847,11.772,13.4,35.6,11.554,44.822,10.891,206.5-14.844,308.818,44.549,373.373-29.829,46.142-53.163,40.055-136.724,18.549-205.34a194.754,194.754,0,0,1-34.314,6.7C979.69,523.889,951.7,516.555,924.878,501.425Z" transform="translate(0 -111.367)"/><path class="b" d="M996.946,286.264c-15.087,1.341-9.931,46.605-35.767,56.523C895.052,368.168,760.65,110.3,701.343,131.326,651.365,149.047,730.47,337.954,669.7,494.288c1.326,1,2.7,1.955,4.127,2.851,33.24,20.862,81.548,19.767,107.069-13.6,25.185-32.988,26.812-73.35,37.912-111.046,3.7-12.565,8.5-25.228,20.266-34.3a24.618,24.618,0,0,1,18.823-4.451c36.879,7.6,58.414,38.235,91.41,56.321,26.824,15.13,54.811,22.464,85.185,19.1a194.746,194.746,0,0,0,34.314-6.7C1048.217,336.779,1013.5,284.792,996.946,286.264Z" transform="translate(-24.426 0)"/><g transform="translate(954.042 309.604)"><path class="c" d="M1150.923,412.722c1.155-.359,1.832-1.713,3.027-1.872,1.514,1.275,2.629,3.624,4.939,3.306a.954.954,0,0,0,.6-.518,8.118,8.118,0,0,0,.412-.762,5.94,5.94,0,0,0-5.726-4.926,5.729,5.729,0,0,0-4.6,2.364c.054.393.12.786.2,1.173C1149.848,412.006,1149.967,412.961,1150.923,412.722Z" transform="translate(-1148.324 -407.95)"/><path class="d" d="M1158.8,414.934a.954.954,0,0,1-.6.518c-2.31.318-3.425-2.031-4.939-3.306-1.195.159-1.872,1.513-3.027,1.872-.956.239-1.076-.716-1.155-1.235-.075-.388-.142-.78-.2-1.173a6.388,6.388,0,0,0-1.249,3.821,5.857,5.857,0,1,0,11.7,0,6.562,6.562,0,0,0-.122-1.259A8.122,8.122,0,0,1,1158.8,414.934Z" transform="translate(-1147.64 -409.245)"/></g><g transform="translate(989.416 352.764)"><path class="e" d="M1206.273,480.395c1.365-.424,2.165-2.023,3.577-2.212,1.788,1.506,3.106,4.283,5.834,3.906a1.127,1.127,0,0,0,.706-.612,9.442,9.442,0,0,0,.487-.9,7.018,7.018,0,0,0-6.765-5.82,6.769,6.769,0,0,0-5.434,2.794c.064.464.142.928.231,1.386C1205,479.548,1205.144,480.677,1206.273,480.395Z" transform="translate(-1203.202 -474.756)"/><path class="e" d="M1215.582,483.008a1.127,1.127,0,0,1-.706.612c-2.729.377-4.047-2.4-5.834-3.906-1.412.189-2.212,1.788-3.576,2.212-1.129.282-1.27-.847-1.365-1.459-.089-.458-.167-.921-.231-1.386a7.545,7.545,0,0,0-1.476,4.513,6.92,6.92,0,1,0,13.818,0,7.716,7.716,0,0,0-.143-1.487A9.5,9.5,0,0,1,1215.582,483.008Z" transform="translate(-1202.394 -476.287)"/></g><g transform="translate(725.086 409.709)"><path class="f" d="M798.36,570.342c1.8-.559,2.857-2.671,4.72-2.919,2.36,1.987,4.1,5.652,7.7,5.154a1.485,1.485,0,0,0,.932-.807,12.788,12.788,0,0,0,.643-1.189,9.263,9.263,0,0,0-8.93-7.681,8.934,8.934,0,0,0-7.172,3.687c.084.614.187,1.225.3,1.83C796.684,569.223,796.87,570.715,798.36,570.342Z" transform="translate(-794.308 -562.9)"/><path class="g" d="M810.646,573.79a1.485,1.485,0,0,1-.932.807c-3.6.5-5.341-3.167-7.7-5.154-1.863.248-2.919,2.36-4.72,2.919-1.49.373-1.676-1.118-1.8-1.925-.117-.6-.22-1.216-.3-1.83a9.959,9.959,0,0,0-1.947,5.958,9.133,9.133,0,1,0,18.238,0,10.211,10.211,0,0,0-.189-1.963A12.8,12.8,0,0,1,810.646,573.79Z" transform="translate(-793.241 -564.92)"/></g><path class="h" d="M806.386,870.953c-1.2-.067-2.8.269-2.9,1.47a2.114,2.114,0,0,0,.386,1.237c1.667,2.766,4.976,4.088,8.154,4.662s6.475.6,9.531,1.644c3.366,1.151,5.951,4.058,9.046,5.224C830.584,876.672,812.959,871.318,806.386,870.953Z" transform="translate(-71.779 -262.226)"/><g transform="translate(719.172 134.205)"><path class="i" d="M934.82,558.824c2.576-10.242,23.838-11.972,40.679-8.048,9.562,2.228,29.282,7.077,23.264,23.7A17.546,17.546,0,0,1,986.9,585.24c-5.055,1.386-10.365.669-15.427-.679a66.3,66.3,0,0,1-22.461-10.753c-4.176-3.112-13.386-2.191-15.141-8.7C933.305,563.014,934.532,559.97,934.82,558.824Z" transform="translate(-837.052 -282.419)"/><path class="h" d="M1061.135,746.243c1.632-6.29,4.218-11.954,12.491-8a6.363,6.363,0,0,1,2.733,2.195c2.147,3.4-.06,11.525-.677,15.162a166.52,166.52,0,0,1-3.943,16.734c-3.7,13.286-7.953,26.409-12.209,39.527-1.832,5.648-3.739,11.437-7.471,16.055-1.343,1.662-3.881,3.188-5.406,1.691-3.343-3.282-.071-14.548.777-18.621,1.337-6.422,2.217-12.887,3.253-19.363a255.985,255.985,0,0,1,8.536-37.749C1059.926,751.671,1060.445,748.9,1061.135,746.243Z" transform="translate(-876.503 -348.996)"/><path class="j" d="M1035.541,846.851c8.64-31.921,26.629-61.883,51.928-86.489a90.258,90.258,0,0,1,15.559-12.607,6.825,6.825,0,0,1,4.05-1.334,5.092,5.092,0,0,1,2.794,1.276c4.274,3.625,2.695,9.724-.072,14.192-6.84,11.05-18.676,19.109-28.62,28.3-19.55,18.068-31.955,40.747-44.065,63.043a8.349,8.349,0,0,1,1.689-12.251" transform="translate(-872.956 -352.35)"/><path class="h" d="M1066.388,844.215c4.908-4.8,11.557-9.753,20.4-10.018,1.474-.045,3.156.12,4,.908a1.9,1.9,0,0,1,.289,2.251c-1.315,3.137-5.852,5.135-9.8,7.12a67.848,67.848,0,0,0-18.784,13.56c-5.8,6.106-8.72,15.266-16.328,20.306C1037.6,871.021,1060.065,850.394,1066.388,844.215Z" transform="translate(-876.171 -383.422)"/><rect class="k" width="130.441" height="37.648" transform="translate(48.902 456.866)"/><path class="l" d="M1024.928,813.61a3.022,3.022,0,0,0-.334,2.549,17.593,17.593,0,0,1-2.523,11.8,5.546,5.546,0,0,0-1.036,2.208c-.229,1.966,1.906,3.336,3.8,3.914a21.343,21.343,0,0,0,11.339.292,4.894,4.894,0,0,0,2.95-1.647,5.522,5.522,0,0,0,.62-3.411l-.165-4.641a18.325,18.325,0,0,0-.913-6.106,9.387,9.387,0,0,0-9-5.774,4.737,4.737,0,0,0-3.958,2.014,5.72,5.72,0,0,0-.569,1.81,34.453,34.453,0,0,0-.469,3.516" transform="translate(-867.951 -375.843)"/><path class="m" d="M1008.89,726.3c-11.734-4.436-10.733-21.283-13.029-31.581-3.687-16.541-7.98-32.938-12.063-49.385-5.573-22.447-7.634-45.3-13.239-67.694-.8-3.2-3.289-8.711-2.356-12,.776-2.74,4.646-5.551,6.415-7.333,4.666-4.7,10.077-9.446,16.433-8.81,5.858.586,11.244,5.193,12.467,12.512,5.478,32.782,1.463,66.234,8.9,98.872,3.261,14.312,8.4,28.129,12.1,42.333,3.217,12.325,3.379,28.271-14.182,23.557Q1009.584,726.56,1008.89,726.3Z" transform="translate(-849.184 -282.63)"/><path class="m" d="M930.549,547.652c-2.526,8.683-4.61,17.52-7.172,26.251-11.1,37.82-7.008,79.756-23.881,115.376-1.229,2.6-2.591,5.239-2.733,8.107-.308,6.258,11.95,20.326,18.532,18.516,3.109-.856,4.8-4.135,5.995-7.133,6.9-17.386,11.86-36.678,15.186-55.109,3.036-16.826,4.369-34.021,9.08-50.513,2.007-7.027,6.466-10.567,9.065-17,2.646-6.546,2.644-13.938,1.72-20.833-.262-1.959-1.084-3.57-1.4-5.531-.444-2.727-.281-5.227-1.328-7.813-1.409-3.482-3.646-5.117-6.07-6.933-3.621-2.713-13.069-9.972-15.469-2.4Q931.279,545.133,930.549,547.652Z" transform="translate(-823.968 -279.04)"/><path class="l" d="M906.427,808.1a21.68,21.68,0,0,1-.853,5.384,6.61,6.61,0,0,1-3.269,4.17,8.932,8.932,0,0,1-5.619.271,31.071,31.071,0,0,1-7.247-2.413,32,32,0,0,1-3.447-1.9,31.478,31.478,0,0,1-7.485-6.621,7.3,7.3,0,0,1-1.786-3.51,3.277,3.277,0,0,1,.065-1.179c.589-2.425,3.693-3.19,6.174-2.953a17.448,17.448,0,0,1,3.71.768c1.2.388,2.494.913,3.685.491,1.56-.554,2.144-2.39,3-3.8,2.3-3.778,8.117-5.168,11.695-2.23C908.524,797.419,906.646,804.162,906.427,808.1Z" transform="translate(-816.868 -368.838)"/><path class="n" d="M881.795,817.057a31.881,31.881,0,0,1-2.848-2.719Q880.4,815.65,881.795,817.057Z" transform="translate(-817.664 -376.395)"/><path class="o" d="M905.741,816.079c-.053.548-.121,1.1-.213,1.647a6.609,6.609,0,0,1-3.269,4.17,8.927,8.927,0,0,1-5.619.271,31.06,31.06,0,0,1-7.247-2.413,31.818,31.818,0,0,1-3.447-1.9,31.472,31.472,0,0,1-7.486-6.62,7.307,7.307,0,0,1-1.785-3.511c1.1-1.613,3.629-2.122,5.717-1.923a17.489,17.489,0,0,1,3.707.766c1.49.483,2.945.864,4.394,1.324.852.269,1.7.569,2.556.928a75.063,75.063,0,0,1,6.82,3.446C901.1,812.935,905.921,814.219,905.741,816.079Z" transform="translate(-816.861 -373.357)"/><path class="p" d="M966.222,579.515a232.991,232.991,0,0,1,9.449,28.81" transform="translate(-848.556 -293.277)"/><path class="l" d="M908.247,265.49a5.4,5.4,0,0,0,3.222,1.412c1.867-.074,3.305-2.067,5.173-2.01a1.171,1.171,0,0,1,.578.143c.638.386.435,1.386.061,2.041-.751,1.315-1.879,2.452-2.222,3.934a5.84,5.84,0,0,0,.373,3.344c.4,1.062.979,2.045,1.459,3.073a1.393,1.393,0,0,1,.182.712,1.363,1.363,0,0,1-.746.9,15.611,15.611,0,0,1-2.827,1.412,6.194,6.194,0,0,1-2.343.489,6.577,6.577,0,0,1-2.641-.792,16.717,16.717,0,0,1-8.127-8.022.551.551,0,0,1-.06-.411c.052-.132.27-.181.324-.049" transform="translate(-825.225 -181.914)"/><path class="l" d="M913.211,297.451a95.273,95.273,0,0,1-3.87-12.179,14.277,14.277,0,0,1,5.215-2.092,4.444,4.444,0,0,1,2.43.079,4.767,4.767,0,0,1,2.155,2.2,18.764,18.764,0,0,1,2.048,5.152" transform="translate(-828.422 -188.342)"/><path class="l" d="M1070.571,292.695a95.221,95.221,0,0,0,3.87-12.178,14.282,14.282,0,0,0-5.215-2.093,3.9,3.9,0,0,0-4.547,2.138,160.922,160.922,0,0,0-7.568,14.814l.78.011" transform="translate(-880.727 -186.667)"/><path class="l" d="M1074.315,262.851a5.4,5.4,0,0,1-3.223,1.412c-1.867-.074-3.3-2.067-5.172-2.01a1.176,1.176,0,0,0-.578.143c-.639.386-.436,1.386-.062,2.042.75,1.316,1.88,2.452,2.222,3.934a5.844,5.844,0,0,1-.373,3.345c-.4,1.061-.979,2.045-1.459,3.073a1.379,1.379,0,0,0-.182.711,1.364,1.364,0,0,0,.746.9,15.658,15.658,0,0,0,2.827,1.412,6.191,6.191,0,0,0,2.342.488,6.563,6.563,0,0,0,2.642-.792,16.712,16.712,0,0,0,8.126-8.021.546.546,0,0,0,.06-.412c-.052-.132-.27-.181-.324-.049" transform="translate(-883.494 -180.979)"/><path class="q" d="M963.031,335.248c-.2-.258,1.943-2.864,5-4.536,2.587-1.414,4.8-1.783,8.275-1.861,4.805-.107,9.777-.183,14.208,1.726,5.581,2.405,5.7,5.532,7.435,10.741,1.854,5.574,4.918,10.668,8.139,15.545,4.57,6.921,9.6,13.69,12.369,21.508s2.916,17.109-1.922,23.846-13.489,9.521-21.687,10.806a95.254,95.254,0,0,1-27.06.34c-5.1-.667-10.231-1.782-14.719-4.294s-8.3-6.585-9.545-11.573c-1.373-5.487.474-11.308,3.254-16.234s6.477-9.286,9.275-14.2a26,26,0,0,0,3.807-12.31c.052-3.951-1.739-8.264-.892-12.1,1.639-7.42,7.491-11.855,8.717-12.7,2.737-1.883,6.066-3.164,6.287-2.778C974.4,327.931,963.442,335.768,963.031,335.248Z" transform="translate(-840.358 -203.936)"/><path class="r" d="M975.3,410.357a48.188,48.188,0,0,0,6.072.34c3.05-.023,7.112-1.821,9.817.377,3.735,3.035,2.721,9.685,2.69,19.352-.049,15.119,1.659,30.293,3.385,45.258.707,6.132,1.478,12.254,2.268,18.373.3,2.3.866,4.356-.063,6.436-1.641,3.675-6.73,5.97-9.99,6.865-4.041,1.109-8.256,1.031-12.409.808a66.389,66.389,0,0,1-14.693-2.1c-5.128-1.459-9.984-3.921-14.81-6.371a2.111,2.111,0,0,1-1.254-1.214c-.048-.187,1.234-3.416,1.319-4.125.529-4.414-.005-8.661,0-13.19.024-17.379,1.156-34.948,4.653-51.908,1.3-6.323,2.837-13.938,7.1-18.626,3.349-3.684,5.741-2.421,9.918-1.381A49.013,49.013,0,0,0,975.3,410.357Z" transform="translate(-841.507 -232.63)"/><path class="l" d="M954.956,371.125a17.023,17.023,0,0,1,2.281-4.355c.408-.533-6.469-9.8-7.151-10.848a42.6,42.6,0,0,1-4.79-11,113.227,113.227,0,0,0-4.748-11.982c-3.646-8.556-7.143-17.107-10.452-25.895-1.919-5.1-3.278-10.476-5.221-15.495a2.459,2.459,0,0,0-.966-1.416,1.485,1.485,0,0,0-1.085.045c-3.613,1.16-6.583,4.62-8.089,8.837-1.442,4.04,1.52,11.447,2.616,15.26,3.189,11.1,6.536,22.148,10.165,33.1q2.713,8.186,5.651,16.287c1.892,5.2,3.35,10.493,5.271,15.643a14.518,14.518,0,0,1,.828,2.664,12.947,12.947,0,0,1-.01,3.266c-1.388,15.766-4.7,31.256-6.765,46.956-1.718,13.043-5.765,26.625-5.71,39.858,1.441-.319,1.91-1.815,2.4-3.371,1.373-4.329,3.967-5.334,6.947-7.318,1.805-1.2,1.617-.267,2.517-2.744.777-2.141.623-5.23.9-7.539q.9-7.338,1.98-14.634c2.12-14.268,3.594-28.543,6.966-42.555,1.14-4.732,2.612-9.373,4-14.036C953.336,377.049,953.909,373.96,954.956,371.125Z" transform="translate(-830.195 -190.82)"/><path class="l" d="M1002.78,372.3a12.316,12.316,0,0,1,.745-3.992,29.076,29.076,0,0,1,5.661-9.268,22.621,22.621,0,0,0,1.752-2.024,16.107,16.107,0,0,0,1.108-1.892c4.263-8.092,8.814-16.013,12.7-24.37,2.054-4.416,4.158-8.7,5.8-13.332,1.7-4.783,3.281-9.631,5.305-14.246.708-1.614,1.315-4.227,2.49-5.447a8.438,8.438,0,0,1,4.666-1.961c1.219-.1,2.8-.6,3.924-.444,1.444.2,2.838,1.848,3.879,2.912,1.61,1.646-1.018,7.291-1.648,9.432-.9,3.059-2.041,6.054-3.046,9.07q-2.259,6.775-4.441,13.582c-1.013,3.17-2.494,7.862-4.916,14.111-2.85,7.353-4.515,10.441-7.279,16.971-2.37,5.6-5.3,11.021-6.518,17.171-1.283,6.461-.3,13.907-.053,20.481.529,14.028,1.032,28.1,2.708,41.937,1.694,13.986,4.953,27.473,6.993,41.374.47,3.206,1.478,4.275-.624,6.586-1.32,1.451-3.839,1.95-5.473,2.411-4.367,1.234-10.058,2.576-14.446,1.645-3.911-.83-4.608-4.358-5.644-8.645-4.007-16.585-3.345-32.917-3.342-50.137q.006-27.315.009-54.631C1003.094,377.1,1002.7,374.685,1002.78,372.3Z" transform="translate(-861.492 -192.675)"/><path class="l" d="M985.274,409.062c5.4,1.047,10.067-.121,9.216-7.079-.367-3,.826-7.627-1.3-10.124-2.425-2.839-8.067-1.333-10.267,1-1.9,2.016-1.49,5.2-1.7,7.814-.31,3.9-2.144,6.844,2.593,8.063C984.3,408.858,984.793,408.969,985.274,409.062Z" transform="translate(-853.65 -226.307)"/><path class="s" d="M989.2,397.382a18.694,18.694,0,0,0,4.919-2.009,3.739,3.739,0,0,0,1.864-2.113,3.1,3.1,0,0,0,.189-1.007c.014-2.283-2.031-1.684-3.395-1.15a15.267,15.267,0,0,1-5.5,1.328,11.833,11.833,0,0,0-1.808-.037,1.641,1.641,0,0,0-1.4,1.019,2,2,0,0,0-.063.6C984.05,397.48,986.272,398.1,989.2,397.382Z" transform="translate(-854.852 -226.413)"/><path class="t" d="M977.182,342.411c-1.28.916-1.881,1.846-2.365,4.1a75.146,75.146,0,0,0-1.453,8.735,34.876,34.876,0,0,0,2.137,16.274c2.007,4.935,5.547,5.675,10.664,5.143a17.731,17.731,0,0,0,10.608-5.121c4.095-4.193,4.776-9.254,5.4-13.931.723-5.378,1.233-9.165-.8-12.5-4.463-7.31-15.76-7.705-22.394-3.828C978.262,341.71,977.672,342.059,977.182,342.411Z" transform="translate(-851.022 -208.094)"/><path class="s" d="M998.2,355.676a29.983,29.983,0,0,1-13.775-11.5c-.97-1.546-1.8-3.3-1.475-5.062a6.092,6.092,0,0,1,3.771-4.138,16.527,16.527,0,0,1,5.966-1.075c2.943-.107,6.042.062,8.558,1.463,3.192,1.777,4.845,5.221,5.451,8.594a20.527,20.527,0,0,1-.149,7.993,7.072,7.072,0,0,1-1.448,3.27,3.755,3.755,0,0,1-3.361,1.259c-.113-.059.151-.115.061-.2A6.516,6.516,0,0,1,998.2,355.676Z" transform="translate(-854.451 -206.331)"/><path class="t" d="M1015.223,367.536c1.054-1.053,2.609-2.176,3.852-1.367a2.725,2.725,0,0,1,1.02,2,8.107,8.107,0,0,1-.386,3.451,5.591,5.591,0,0,1-1.653,2.691,2.764,2.764,0,0,1-2.95.441c-.772-.408-1.169-1.7-.414-2.136" transform="translate(-865.569 -217.664)"/><path class="q" d="M999.06,352.123a34.044,34.044,0,0,1-15.085-14.09c-1.062-1.894-1.97-4.048-1.615-6.2a7.226,7.226,0,0,1,4.13-5.069,16.406,16.406,0,0,1,6.533-1.317c3.223-.132,6.616.076,9.372,1.791,3.495,2.177,5.3,6.4,5.969,10.529a28.08,28.08,0,0,1-.163,9.793,9.189,9.189,0,0,1-1.585,4.006,3.889,3.889,0,0,1-3.681,1.543c-.123-.073.165-.141.067-.246A6.477,6.477,0,0,1,999.06,352.123Z" transform="translate(-854.24 -203.336)"/><path class="m" d="M1002.735,376.952c-.69.419-1.043,2.195-1.2,2.861-.938,3.847-1.334,7.63,1.251,10.89a2.136,2.136,0,0,0,1.968,1.03,2.429,2.429,0,0,0,1.072-.727c1.531-1.506,8.478-7.958,6.665-10.649-.751-1.113-3.033-.178-4.127-.263a5.255,5.255,0,0,1-3.905-1.912c-.445-.542-.833-1.629-1.642-1.272A.769.769,0,0,0,1002.735,376.952Z" transform="translate(-860.8 -221.539)"/><path class="q" d="M974.3,350.319a2.306,2.306,0,0,1-1.187-2.461c.171-2.209,6.363-10.4,8.224-6.631C982.248,343.081,976.227,350.957,974.3,350.319Z" transform="translate(-850.99 -208.587)"/><path class="q" d="M974.733,353.505a2.306,2.306,0,0,1-1.187-2.461c.171-2.209,6.363-10.4,8.224-6.631C982.685,346.268,976.664,354.144,974.733,353.505Z" transform="translate(-851.144 -209.715)"/><path class="q" d="M1015.761,365.431c.061.017.072-.1.013-.125s-.12.021-.169.061a15.67,15.67,0,0,0-2.586,2.9c-.244.334-.537.7-.944.724a1.225,1.225,0,0,1-.909-.538,5.762,5.762,0,0,1-1.028-1.775,2.707,2.707,0,0,1-.185-.848,2.372,2.372,0,0,1,.182-.912,3.444,3.444,0,0,1,2.753-2.135,3.4,3.4,0,0,1,3.138,1.477,1.075,1.075,0,0,1,.221.594,1,1,0,0,1-.165.488,6.584,6.584,0,0,1-1.759,1.632,9.177,9.177,0,0,0-1.9,2.05l.123-.289" transform="translate(-864.034 -216.556)"/><g transform="translate(77.168 0)"><path class="l" d="M1022.366,247.083H903.536l11.4-73.385,110.2-.091Z" transform="translate(-903.536 -149.603)"/><path class="u" d="M964.059,178.7l-9.069-6.63,20.728,41.1c103.7-58.759,125.336-74.069,124.188-76.386-1.409-2.843-37.673,12.771-59.416,23.351a482.347,482.347,0,0,0-63.477,37.125S977.013,190.637,964.059,178.7Z" transform="translate(-921.748 -136.452)"/></g><path class="l" d="M901.5,278.034a6.285,6.285,0,0,1-2.26-2.651c-.645-1.485.181-2.029,1.469-1.852a20.234,20.234,0,0,1,2.9.493c.941.275.8.946-.014,1.543a2.768,2.768,0,0,1-1.883.718" transform="translate(-824.766 -184.96)"/><path class="l" d="M904.4,272.254c.115-.073.24-.173.241-.312a.391.391,0,0,0-.063-.189c-.794-1.41-2.8-1.145-4.121-1.542-.747-.225-2.123-1.094-2.631-.119-.742,1.425,1.412,2.525,2.406,2.789A5.307,5.307,0,0,0,904.4,272.254Z" transform="translate(-824.292 -183.594)"/><path class="l" d="M899.729,268.65a6.665,6.665,0,0,0,5.3,1.392,1.219,1.219,0,0,0,.932-1.9c-.495-.879-2.1-1.294-2.948-1.749a7.443,7.443,0,0,0-1.483-.656c-.822-.227-2.127-.289-2.571.625A1.965,1.965,0,0,0,899.729,268.65Z" transform="translate(-824.697 -182.164)"/><path class="l" d="M907.212,263.238a2.038,2.038,0,0,1,.885,1.007,1.058,1.058,0,0,1-.181.811c-.623.966-1.614.788-2.495.46-1.567-.583-5.836-.393-5.252-3a2.308,2.308,0,0,1,.654-1.308,1.617,1.617,0,0,1,.841-.34,4.6,4.6,0,0,1,2.788.9A31.167,31.167,0,0,1,907.212,263.238Z" transform="translate(-825.156 -180.485)"/><path class="l" d="M1087.684,275.395a6.3,6.3,0,0,0,2.261-2.651c.644-1.485-.182-2.03-1.47-1.853a20.461,20.461,0,0,0-2.9.493c-.941.276-.8.946.014,1.543a2.77,2.77,0,0,0,1.883.718" transform="translate(-890.571 -184.026)"/><path class="l" d="M1083.836,269.615c-.115-.074-.24-.174-.241-.313a.392.392,0,0,1,.063-.189c.795-1.41,2.8-1.145,4.121-1.542.747-.225,2.123-1.094,2.631-.119.742,1.425-1.411,2.525-2.405,2.789A5.314,5.314,0,0,1,1083.836,269.615Z" transform="translate(-890.101 -182.66)"/><path class="l" d="M1088.3,266.011a6.665,6.665,0,0,1-5.3,1.392,1.219,1.219,0,0,1-.932-1.9c.5-.879,2.1-1.294,2.949-1.748a7.41,7.41,0,0,1,1.483-.656c.821-.227,2.126-.288,2.571.625A1.965,1.965,0,0,1,1088.3,266.011Z" transform="translate(-889.487 -181.23)"/><path class="l" d="M1080.455,260.6a2.04,2.04,0,0,0-.884,1.007,1.058,1.058,0,0,0,.181.811c.623.967,1.615.788,2.5.46,1.566-.583,5.836-.393,5.252-3a2.309,2.309,0,0,0-.655-1.308,1.632,1.632,0,0,0-.841-.34,4.6,4.6,0,0,0-2.788.9C1082.661,259.461,1081.35,259.977,1080.455,260.6Z" transform="translate(-888.668 -179.551)"/><path class="h" d="M821.895,813.218c-3.952-4.257-8.191-8.337-13.2-11.271-2.835-1.66-7.643-4.319-9.8-.383-1.152,2.1.026,5.7,1.311,7.473,3.567,4.932,8.171,9.339,12.151,13.947,7.959,9.217,15.713,18.685,21.987,29.153,3.141,5.241,5.961,10.846,10.289,15.243,1.811,1.841,4.173,4.63,6.637,2.518,1.678-1.437,2.248-5.588,2.018-7.683-.515-4.7-4.72-9.946-6.823-14.078a150.219,150.219,0,0,0-10.6-17.572A158.67,158.67,0,0,0,821.895,813.218Z" transform="translate(-789.161 -371.149)"/><path class="h" d="M819.63,846.968a88.016,88.016,0,0,0-16.006-12.641c-3.979-2.432-11.417-7.706-16.294-6.734-10.282,2.047,6.98,11.4,9.268,13A173.986,173.986,0,0,1,831,872.366c2.51,3.04,4.9,6.174,7.21,9.366,1.036,1.429,2.035,4.142,3.367,2.22,2.589-3.736-3.062-12.395-4.818-15.2A120.953,120.953,0,0,0,819.63,846.968Z" transform="translate(-784.088 -381.045)"/><rect class="k" width="157.902" height="37.648" transform="translate(35.172 487.871)"/><path class="v" d="M987.208,476.5a55.345,55.345,0,0,1-10.327-2.608,5.691,5.691,0,0,0-1.587-.409,5.455,5.455,0,0,0-3.024,1.106c-.16.1-.081.5.1.534l4.719.932" transform="translate(-850.666 -255.745)"/></g></g></svg>