<svg xmlns="http://www.w3.org/2000/svg" xmlns:xlink="http://www.w3.org/1999/xlink" width="590.233" height="447.296" viewBox="0 0 590.233 447.296"><defs><style>.a{fill:url(#a);}.b{fill:url(#b);}.c{fill:url(#c);}.d{fill:url(#d);}.e{fill:url(#e);}.f{fill:url(#f);}.g{fill:url(#g);}.h,.i,.p,.q{fill:#fff;}.i,.j,.l,.n{stroke:#100052;}.i,.j,.l,.n,.o{stroke-linecap:round;stroke-linejoin:round;stroke-width:1.7px;}.j{fill:#100052;}.k{fill:#8484a3;}.l{fill:#c6c6d4;}.m{opacity:0.58;}.n,.o{fill:none;}.o,.p,.q{stroke:#fff;}.p,.q{stroke-miterlimit:10;}.p{stroke-width:0.287px;}.q{stroke-width:0.286px;}</style><linearGradient id="a" y1="0.5" x2="1" y2="0.5" gradientUnits="objectBoundingBox"><stop offset="0" stop-color="#ff9077"/><stop offset="1" stop-color="#e9645a"/></linearGradient><linearGradient id="b" x1="0.713" y1="-0.573" x2="0.336" y2="1.476" xlink:href="#a"/><linearGradient id="c" x1="0.516" y1="0.293" x2="0.373" y2="1.104" xlink:href="#a"/><linearGradient id="d" x1="0.196" y1="3.139" x2="0.818" y2="-2.088" gradientUnits="objectBoundingBox"><stop offset="0" stop-color="#2a7195"/><stop offset="1" stop-color="#060c39"/></linearGradient><linearGradient id="e" x1="0.594" y1="-0.047" x2="0.272" y2="1.425" xlink:href="#d"/><linearGradient id="f" x1="0.538" y1="0.354" x2="0.334" y2="1.011" gradientUnits="objectBoundingBox"><stop offset="0" stop-color="#faebd8"/><stop offset="1" stop-color="#ffb83f"/></linearGradient><linearGradient id="g" x1="0.487" y1="0.494" x2="0.359" y2="1.008" xlink:href="#f"/></defs><g transform="translate(-506.52 -196.34)"><path class="a" d="M553.495,278.642c102.29-103.063,351.181-113.774,474.869-6.81,101.991,88.2,84.128,226.384-15.319,304.176-9.486,7.42-105.247,79.859-242.03,65.829C659.81,630.43,597.8,569.7,581.068,553.308,510.07,483.771,469.628,363.143,553.495,278.642Z" transform="translate(0 0)"/><g transform="translate(1020.699 212.112)"><path class="b" d="M1305.107,232.974c3-.931,4.76-4.449,7.864-4.863,3.932,3.311,6.829,9.416,12.831,8.588a2.474,2.474,0,0,0,1.552-1.345,20.856,20.856,0,0,0,1.072-1.98c-1.429-7.306-7.547-12.8-14.877-12.8a14.886,14.886,0,0,0-11.949,6.143c.141,1.022.312,2.04.507,3.048C1302.313,231.111,1302.623,233.594,1305.107,232.974Z" transform="translate(-1298.355 -220.575)"/><path class="c" d="M1325.613,238.65a2.474,2.474,0,0,1-1.552,1.345c-6,.828-8.9-5.277-12.831-8.588-3.1.414-4.863,3.932-7.864,4.863-2.483.621-2.794-1.863-3-3.208-.195-1.007-.367-2.025-.507-3.048a16.6,16.6,0,0,0-3.244,9.926c0,8.875,6.8,16.07,15.193,16.07S1327,248.816,1327,239.941a16.994,16.994,0,0,0-.316-3.271A20.8,20.8,0,0,1,1325.613,238.65Z" transform="translate(-1296.614 -223.872)"/></g><g transform="translate(643.073 241.882)"><path class="d" d="M721.994,274.56c1.994-.619,3.163-2.957,5.226-3.232,2.613,2.2,4.539,6.258,8.527,5.708a1.646,1.646,0,0,0,1.031-.894,14.03,14.03,0,0,0,.713-1.316,10.257,10.257,0,0,0-9.887-8.506,9.892,9.892,0,0,0-7.941,4.083c.094.679.208,1.356.337,2.025C720.137,273.322,720.343,274.973,721.994,274.56Z" transform="translate(-717.507 -266.32)"/><path class="e" d="M735.622,278.333a1.645,1.645,0,0,1-1.031.894c-3.988.55-5.914-3.507-8.527-5.708-2.063.275-3.232,2.614-5.226,3.232-1.65.413-1.857-1.238-1.995-2.132-.129-.67-.243-1.346-.337-2.025a11.026,11.026,0,0,0-2.155,6.6c0,5.9,4.52,10.679,10.1,10.679s10.1-4.781,10.1-10.679a11.307,11.307,0,0,0-.21-2.174A13.982,13.982,0,0,1,735.622,278.333Z" transform="translate(-716.35 -268.511)"/></g><g transform="translate(1004.31 475.28)"><path class="f" d="M1297.388,638.591a57.129,57.129,0,0,1,3.564,13.86c.99,6.93-2.376,13.067-2.574,19.8-.4,10.1,9.305,18.017,19.007,14.453,7.919-2.969,15.443-10.89,23.957-7.524,5.346,2.178,11.087,7.721,17.027,2.772a58.788,58.788,0,0,0,7.159-6.773,46.3,46.3,0,0,0,.351-5.705c0-24.582-19.282-44.51-43.068-44.51a42.065,42.065,0,0,0-27.582,10.327A9.373,9.373,0,0,1,1297.388,638.591Z" transform="translate(-1279.741 -624.963)"/><path class="g" d="M1350.058,687.493c-5.94,4.949-11.681-.594-17.027-2.772-8.514-3.366-16.037,4.554-23.957,7.524-9.7,3.564-19.4-4.356-19.007-14.453.2-6.732,3.564-12.869,2.574-19.8a57.13,57.13,0,0,0-3.564-13.86,9.375,9.375,0,0,0-2.16-3.3,45.016,45.016,0,0,0-15.487,34.183c0,24.582,19.283,44.51,43.069,44.51,21.916,0,40.007-16.916,42.717-38.8A58.771,58.771,0,0,1,1350.058,687.493Z" transform="translate(-1271.431 -630.504)"/></g><g transform="translate(659.782 228.181)"><path class="h" d="M1151.388,717.587" transform="translate(-884.982 -410.21)"/><g transform="translate(75.458 39.316)"><path class="i" d="M1049.617,701.7l-191.642-8.832s4.442,33.75,24.25,35.012l190.635,12.144Z" transform="translate(-857.975 -440.895)"/><path class="i" d="M890.1,558.73l-6.778-235.579,227.85-17.47L1103.3,565.1c1.721,22.345-6.531,38.333-17.548,39.973-4.6.684-11.319-.875-15.985-4.356-4.866-3.629-6.23-8.4-7.691-13.837a113.533,113.533,0,0,1-3.6-20.388Z" transform="translate(-866.827 -305.681)"/></g><g transform="translate(99.479)"><path class="j" d="M894.886,288.844l95.809,44.208,3.015-1.99-86.443-48.995Z" transform="translate(-894.886 -258.118)"/><path class="k" d="M913.911,269.216l86.443,48.995,2.563-12.513-83.085-60.431Z" transform="translate(-901.53 -245.267)"/><path class="l" d="M907.267,269.216c-3.849,1.819-8.532,4.958-12.381,6.777,2.372-7.337,5.222-14.816,7.88-22.307,3.186-2.824,7.235-5.593,10.422-8.418C911.479,253.609,908.975,260.874,907.267,269.216Z" transform="translate(-894.886 -245.267)"/></g><g class="m" transform="translate(116.011 80.729)"><line class="n" y1="7.748" x2="176.728" transform="translate(1.535 68.062)"/><line class="n" y1="7.116" x2="176.321" transform="translate(1.741 77.158)"/><line class="n" y1="6.594" x2="175.983" transform="translate(1.911 84.706)"/><line class="n" y1="5.973" x2="175.579" transform="translate(2.115 93.723)"/><line class="n" y1="10.882" x2="178.723" transform="translate(0.529 23.474)"/><line class="n" y1="11.437" x2="179.071" transform="translate(0.353 15.681)"/><line class="n" y1="11.996" x2="179.421" transform="translate(0.177 7.857)"/><line class="n" y1="12.559" x2="179.772"/><line class="n" y1="8.385" x2="177.137" transform="translate(1.329 58.922)"/><line class="n" y1="1.851" x2="172.751" transform="translate(2.798 154.585)"/><line class="n" y1="0.599" x2="171.906" transform="translate(3.229 173.453)"/><line class="n" x2="170.819" y2="0.994" transform="translate(3.783 196.717)"/><line class="n" y1="4.41" x2="174.453" transform="translate(1.931 116.575)"/><line class="n" y1="4.915" x2="174.785" transform="translate(1.761 109.156)"/><line class="n" y1="1.171" x2="172.293" transform="translate(3.031 164.814)"/></g><path class="o" d="M1284.265,334.773a142.672,142.672,0,0,1,42.764,55.591" transform="translate(-931.385 -276.524)"/><path class="o" d="M839.937,829.407a191.26,191.26,0,0,1-97.912-35.224" transform="translate(-742.025 -436.958)"/><path class="o" d="M840.282,804.352A71.8,71.8,0,0,1,799.7,790.2" transform="translate(-762.165 -435.566)"/></g><ellipse class="p" cx="44.526" cy="29.586" rx="44.526" ry="29.586" transform="translate(603.166 291.453)"/><path class="q" d="M755.359,395.083a40.72,40.72,0,0,0,26.671,19.853s-25.216,10.483-46.517-9.438" transform="translate(-79.969 -69.405)"/><ellipse class="p" cx="44.526" cy="29.586" rx="44.526" ry="29.586" transform="translate(559.214 352.335)"/><path class="q" d="M687.821,488.634a40.721,40.721,0,0,0,26.672,19.853s-25.216,10.483-46.518-9.437" transform="translate(-56.383 -102.075)"/><ellipse class="p" cx="44.526" cy="29.586" rx="44.526" ry="29.586" transform="translate(549.201 429.391)"/><path class="q" d="M672.436,607.04a40.722,40.722,0,0,0,26.672,19.854s-25.216,10.483-46.518-9.438" transform="translate(-51.01 -143.424)"/><ellipse class="p" cx="44.526" cy="29.586" rx="44.526" ry="29.586" transform="translate(609.892 500.296)"/><path class="q" d="M765.693,715.993a40.721,40.721,0,0,0,26.672,19.853s-25.216,10.483-46.517-9.438" transform="translate(-83.578 -181.473)"/></g></svg>