<svg xmlns="http://www.w3.org/2000/svg" xmlns:xlink="http://www.w3.org/1999/xlink" width="547.874" height="516.28" viewBox="0 0 547.874 516.28"><defs><style>.a{fill:url(#a);}.b{fill:url(#b);}.c{fill:url(#c);}.d{fill:url(#d);}.e{fill:url(#e);}.f{fill:url(#f);}.g{fill:url(#g);}.h,.t{fill:#fff;}.h,.i,.l{stroke:#100052;}.h,.i,.l,.m{stroke-miterlimit:10;}.h,.l{stroke-width:2.064px;}.i,.l,.m{fill:none;}.i{stroke-width:1.032px;}.j{fill:url(#i);}.k{opacity:0.39;}.m{stroke:#fff;stroke-width:1.949px;}.n{fill:url(#j);}.o{fill:url(#k);}.p{fill:url(#l);}.q{fill:url(#m);}.r{fill:url(#n);}.s{fill:url(#o);}</style><linearGradient id="a" y1="0.5" x2="1" y2="0.5" gradientUnits="objectBoundingBox"><stop offset="0" stop-color="#ff9077"/><stop offset="1" stop-color="#e9645a"/></linearGradient><linearGradient id="b" x1="4.036" y1="20.804" x2="3.586" y2="22.297" gradientUnits="objectBoundingBox"><stop offset="0" stop-color="#2a7195"/><stop offset="1" stop-color="#060c39"/></linearGradient><linearGradient id="c" x1="3.084" y1="15.886" x2="2.939" y2="16.577" xlink:href="#b"/><linearGradient id="d" x1="5.32" y1="-42.063" x2="6.306" y2="-42.063" xlink:href="#a"/><linearGradient id="e" x1="4.622" y1="-27.755" x2="5.612" y2="-27.755" xlink:href="#a"/><linearGradient id="f" x1="0.538" y1="0.354" x2="0.334" y2="1.011" gradientUnits="objectBoundingBox"><stop offset="0" stop-color="#faebd8"/><stop offset="1" stop-color="#ffb83f"/></linearGradient><linearGradient id="g" x1="0.487" y1="0.494" x2="0.359" y2="1.008" xlink:href="#f"/><linearGradient id="i" x1="0" y1="0.5" x2="1" y2="0.5" xlink:href="#b"/><linearGradient id="j" x1="0.632" y1="-2.956" x2="0.605" y2="-1.28" xlink:href="#f"/><linearGradient id="k" x1="0.076" y1="-1.476" x2="1.226" y2="-1.476" xlink:href="#f"/><linearGradient id="l" x1="0.225" y1="-18.122" x2="0.278" y2="-17.615" xlink:href="#f"/><linearGradient id="m" x1="-0.258" y1="-6.862" x2="0.324" y2="-6.125" xlink:href="#f"/><linearGradient id="n" x1="0.654" y1="-10.266" x2="-0.085" y2="0.247" xlink:href="#f"/><linearGradient id="o" x1="0.198" y1="-15.37" x2="1.017" y2="-15.37" xlink:href="#f"/></defs><g transform="translate(-585.417 -187.018)"><g transform="translate(585.417 187.018)"><path class="a" d="M822.6,188.052c111.47-12.657,199.8,93.741,235.233,160.792,8.8,16.647,71.554,135.411,20.844,232.256-80.219,153.2-396.015,159.176-473.444,35.732C557.8,541.212,607.66,429.526,629.055,381.6,653.6,326.6,709.735,200.867,822.6,188.052Z" transform="translate(-585.417 -187.018)"/><g transform="translate(78.418 13.519)"><g transform="translate(198.798 403.274)"><path class="b" d="M989.971,773.251c5.938,1.406,12.353-2.739,17.952-.366,3.3,9.419,2.121,22.488,12.973,27.031a4.808,4.808,0,0,0,3.923-.717,40.875,40.875,0,0,0,3.748-2.253c4.826-13.627.02-28.852-12.239-36.092a28.9,28.9,0,0,0-26.047-1.526c-.775,1.848-1.493,3.719-2.161,5.6C987.14,767.378,985.206,771.837,989.971,773.251Z" transform="translate(-970.505 -756.944)"/><path class="c" d="M1018.8,800.075a4.808,4.808,0,0,1-3.923.717c-10.853-4.542-9.669-17.612-12.973-27.031-5.6-2.373-12.015,1.772-17.952.366-4.765-1.414-2.832-5.873-1.85-8.327.669-1.877,1.387-3.749,2.161-5.6A32.219,32.219,0,0,0,969.037,773.6c-8.764,14.84-4.495,33.586,9.536,41.872s32.508,2.973,41.272-11.866a33.055,33.055,0,0,0,2.7-5.781A40.884,40.884,0,0,1,1018.8,800.075Z" transform="translate(-964.484 -757.82)"/></g><g transform="translate(434.678 202.525)"><path class="d" d="M1294.147,500.6c2.672-2.353,2.861-6.806,5.879-8.672,5.6,1.6,11.424,6.573,17.247,2.936a2.8,2.8,0,0,0,.982-2.11,23.775,23.775,0,0,0,.191-2.544c-4.863-6.893-13.733-9.739-21.314-6.342a16.864,16.864,0,0,0-9.509,11.888c.619.992,1.267,1.965,1.936,2.917C1290.4,499.972,1291.866,502.4,1294.147,500.6Z" transform="translate(-1287.187 -482.438)"/><path class="e" d="M1318.095,495.615a2.8,2.8,0,0,1-.982,2.11c-5.822,3.637-11.646-1.334-17.246-2.936-3.018,1.866-3.207,6.318-5.879,8.672-2.28,1.792-3.752-.632-4.589-1.926-.668-.952-1.317-1.925-1.936-2.917a18.8,18.8,0,0,0,1.243,11.767c4.112,9.177,14.479,13.466,23.155,9.579s12.378-14.479,8.266-23.656a19.289,19.289,0,0,0-1.842-3.236A23.806,23.806,0,0,1,1318.095,495.615Z" transform="translate(-1287.027 -485.295)"/></g><g transform="translate(4.385)"><path class="f" d="M717.5,216.518a46.14,46.14,0,0,1,2.88,11.2c.8,5.6-1.92,10.56-2.08,16-.32,8.16,7.52,14.56,15.36,11.68,6.4-2.4,12.48-8.8,19.36-6.08,4.32,1.76,8.96,6.24,13.76,2.24a47.571,47.571,0,0,0,5.785-5.474,37.6,37.6,0,0,0,.283-4.61c0-19.865-15.583-35.97-34.8-35.97a33.993,33.993,0,0,0-22.29,8.345A7.566,7.566,0,0,1,717.5,216.518Z" transform="translate(-703.24 -205.504)"/><path class="g" d="M762.183,254.624c-4.8,4-9.44-.48-13.76-2.24-6.88-2.72-12.96,3.68-19.36,6.08-7.84,2.88-15.681-3.52-15.36-11.68.16-5.44,2.88-10.4,2.08-16a46.145,46.145,0,0,0-2.88-11.2,7.566,7.566,0,0,0-1.745-2.669,36.38,36.38,0,0,0-12.516,27.625c0,19.865,15.583,35.97,34.805,35.97,17.711,0,32.331-13.671,34.522-31.359A47.577,47.577,0,0,1,762.183,254.624Z" transform="translate(-698.642 -208.57)"/></g><path class="h" d="M887.872,606.171,693.015,626.16l-.369-278.548,169.169,14.42Z" transform="translate(-692.646 -243.687)"/><path class="a" d="M825.08,425.446l-12.733,15-11.562-12.578L790.352,439.75l-15.118-16.432,10.67-11.645-11.589-12.607,13.48-14.23,11.361,12.374,9.963-10.873L823.488,402l-9.743,11.1Z" transform="translate(-714.589 -253.688)"/><g transform="translate(16.662 195.181)"><line class="i" y1="5.037" x2="139.343" transform="translate(3.124 53.083)"/><line class="i" y1="5.952" x2="139.042" transform="translate(2.951 59.919)"/><line class="i" y1="6.708" x2="138.793" transform="translate(2.807 65.592)"/><line class="i" y1="7.607" x2="138.494" transform="translate(2.635 72.371)"/><line class="i" y1="0.48" x2="140.816" transform="translate(3.976 19.589)"/><line class="i" x2="141.073" y2="0.328" transform="translate(4.125 13.409)"/><line class="i" x2="141.331" y2="1.143" transform="translate(4.275 6.719)"/><line class="i" x2="141.59" y2="1.965" transform="translate(4.425)"/><line class="i" y1="4.112" x2="139.646" transform="translate(3.299 46.215)"/><line class="i" y1="13.568" x2="136.622" transform="translate(0.811 118.199)"/><line class="i" y1="15.372" x2="135.992" transform="translate(0.456 132.413)"/><line class="i" y1="17.66" x2="135.183" transform="translate(0 150.694)"/><line class="i" y1="9.874" x2="137.887" transform="translate(1.527 89.578)"/><line class="i" y1="9.143" x2="138.134" transform="translate(1.667 83.994)"/><line class="i" y1="14.549" x2="136.281" transform="translate(0.618 125.905)"/></g><g transform="translate(134.848 68.953)"><path class="h" d="M1131.553,627.852l-254.515-43.9L926.979,299.79l208.662,6.388Z" transform="translate(-877.038 -299.79)"/><path class="j" d="M985.4,368.357l17.861,25.268c3.651-5.21,25.093-34.859,60.98-39.016a78.639,78.639,0,0,1,31.939,3.053l7.372-27.24h0c-2.8.442-28.231,3.281-43.721,7.535-13.029,3.577-30.342,11.247-49.448,29.47l-8.114-8.118Z" transform="translate(-906.152 -308.021)"/><g class="k" transform="translate(11.727 96.41)"><line class="l" x2="188.712" y2="17.535" transform="translate(29.452 46.563)"/><line class="l" x2="191.211" y2="18.595" transform="translate(27.85 53.588)"/><line class="l" x2="193.345" y2="19.518" transform="translate(26.484 59.579)"/><line class="l" x2="195.97" y2="20.676" transform="translate(24.806 66.942)"/><line class="l" x2="177.502" y2="13.053" transform="translate(36.657 14.963)"/><line class="l" x2="175.703" y2="12.375" transform="translate(37.816 9.878)"/><line class="l" x2="173.94" y2="11.723" transform="translate(38.953 4.891)"/><line class="l" x2="172.212" y2="11.094" transform="translate(40.068)"/><line class="l" x2="186.278" y2="16.523" transform="translate(31.014 39.714)"/><line class="l" x2="215.918" y2="30.374" transform="translate(11.14 123.161)"/><line class="l" x2="223.194" y2="34.247" transform="translate(6.501 143.387)"/><line class="l" x2="233.429" y2="40.024" transform="translate(0 171.732)"/><line class="l" x2="202.804" y2="23.878" transform="translate(19.536 86.551)"/><line class="l" x2="200.457" y2="22.782" transform="translate(21.044 79.978)"/><line class="l" x2="219.793" y2="32.413" transform="translate(8.667 133.941)"/></g></g></g><path class="m" d="M634.111,780.1c24.559,23.476,58.783,33.24,91.553,42.2" transform="translate(-598.5 -346.373)"/><path class="m" d="M813.482,865.3A446.682,446.682,0,0,1,676.6,821.755" transform="translate(-609.916 -357.565)"/></g><g transform="translate(810.854 480.113)"><g transform="translate(4.519 8.993)"><path class="n" d="M900.13,604.4c2.554-1.1,24.759-10.261,45.306,2.058,10,5.993,25.384,20.536,21.8,37-3.365,15.469-22.465,27.963-44.951,24.572.045,3.517.208,6.232-.551,9.666l-21.839-.9-.037-26.258c0-1.7.1-3.643,1.428-4.71,1.095-.882,2.649-.84,4.046-.679,3.868.448,7.678,1.483,11.572,1.508s8.071-1.169,10.41-4.283c3.27-4.351,1.591-11.027-2.466-14.655s-15.205-4.959-15.205-4.959l-1.962-.4S901.55,609.945,900.13,604.4Z" transform="translate(-899.861 -600.096)"/></g><path class="o" d="M894.5,592.106c2.555-1.1,24.759-10.261,45.307,2.058,10,5.993,25.384,20.537,21.8,37-3.365,15.469-22.466,27.963-44.951,24.573.045,3.516.208,6.232-.551,9.666l-21.839-.905c-.012-8.752,1.391-30.968,1.391-30.968s11.724.8,15.617.83,8.071-1.17,10.41-4.283c3.269-4.351,1.591-11.027-2.466-14.656s-15.205-4.958-15.205-4.958l-2.02-.367S895.923,597.648,894.5,592.106Z" transform="translate(-893.84 -587.799)"/><path class="p" d="M916.966,722.932l-18.993,6.614a12.629,12.629,0,0,1,18.993-6.614Z" transform="translate(-894.834 -623.541)"/><path class="q" d="M918.505,722.548l2.514,7.219a12.633,12.633,0,1,1-23.86,8.31l-2.514-7.219Z" transform="translate(-893.94 -624.004)"/><circle class="r" cx="12.633" cy="12.633" r="12.633" transform="translate(0 90.064)"/><path class="s" d="M898.4,701.666l-4.125-8.993,21.392.963,4.572,8.935Z" transform="translate(-893.84 -615.977)"/><path class="t" d="M930.528,692.99" transform="translate(-903.581 -616.063)"/><path class="t" d="M924.888,680.694" transform="translate(-902.066 -612.759)"/></g></g></svg>