<svg xmlns="http://www.w3.org/2000/svg" xmlns:xlink="http://www.w3.org/1999/xlink" width="411.238" height="429.764" viewBox="0 0 411.238 429.764"><defs><style>.a{fill:url(#a);}.b{fill:url(#b);}.c,.e,.o,.q,.r,.s{fill:#fff;}.d,.p,.t,.u{fill:#100052;}.d,.e,.o,.p,.q,.r,.s,.t,.u,.y{stroke:#100052;}.d,.e,.o,.p,.q,.r,.s,.t,.u,.v,.y{stroke-miterlimit:10;}.d{stroke-width:0.49px;}.e,.p,.v,.y{stroke-width:1.126px;}.f,.i{fill:#384783;}.f,.h{mix-blend-mode:soft-light;isolation:isolate;}.g{fill:url(#c);}.j{fill:url(#d);}.k{fill:url(#e);}.l{fill:url(#f);}.m{fill:url(#g);}.n{fill:url(#h);}.o{stroke-width:1.237px;}.q{stroke-width:1.278px;}.r{stroke-width:1.632px;}.s{stroke-width:1.065px;}.t{stroke-width:1.271px;}.u{stroke-width:1.693px;}.v,.y{fill:none;}.v{stroke:#fff;}.w{fill:url(#i);}.x{fill:url(#j);}</style><linearGradient id="a" x1="0.498" y1="0.35" x2="0.484" y2="0.885" gradientUnits="objectBoundingBox"><stop offset="0" stop-color="#ff9077"/><stop offset="1" stop-color="#e9645a"/></linearGradient><linearGradient id="b" x1="0" y1="0.5" x2="1" y2="0.5" xlink:href="#a"/><linearGradient id="c" x1="0.102" y1="0.07" x2="0.837" y2="1.223" gradientUnits="objectBoundingBox"><stop offset="0" stop-color="#ffefd1"/><stop offset="1" stop-color="#feca84"/></linearGradient><linearGradient id="d" x1="0.278" y1="-0.241" x2="0.644" y2="1.262" gradientUnits="objectBoundingBox"><stop offset="0" stop-color="#b9bdab"/><stop offset="1" stop-color="#769cae"/></linearGradient><linearGradient id="e" x1="0.211" y1="-0.215" x2="0.665" y2="1.094" gradientUnits="objectBoundingBox"><stop offset="0" stop-color="#6599b3"/><stop offset="1" stop-color="#45496b"/></linearGradient><linearGradient id="f" x1="0.5" y1="1.007" x2="0.5" y2="-0.761" xlink:href="#d"/><linearGradient id="g" x1="0" y1="0.5" x2="1" y2="0.5" xlink:href="#d"/><linearGradient id="h" x1="0.5" y1="1.695" x2="0.5" y2="-0.338" xlink:href="#d"/><linearGradient id="i" x1="0.538" y1="0.354" x2="0.334" y2="1.011" gradientUnits="objectBoundingBox"><stop offset="0" stop-color="#faebd8"/><stop offset="1" stop-color="#ffb83f"/></linearGradient><linearGradient id="j" x1="0.487" y1="0.494" x2="0.359" y2="1.008" xlink:href="#i"/></defs><g transform="translate(-587.363 -150.51)"><path class="a" d="M942.4,525.631c-15.534-1.243-29.515-7.767-45.36-11.185-3.107-.932-5.282-4.039-8.389-4.971-12.738-4.661-24.854-9.01-36.661-14.6-3.417-1.865-5.282-5.9-9.01-8.078-7.146-4.971-14.913-7.146-22.369-11.806-6.524-4.039-12.738-7.456-19.573-10.874-3.107-1.864-5.282-4.35-8.388-5.592-18.952-9.01-38.836-13.981-59.341-16.466-26.719-3.418-52.195,4.971-76.739,15.224-23.474,9.651-45.635,21.709-68.688,31.581,1.181,39.32,5.894,84.087,11.158,134.075,1.206,11.458,3.434,28.725,15.67,45.317,39.361,53.374,140.12,42.607,185.439,37.764,70.772-7.563,120.037-12.827,156.709-50.353,32.7-33.464,44.781-81.728,41.442-130.4q-2.6.437-5.259.679A306.289,306.289,0,0,1,942.4,525.631Z" transform="translate(-0.23 -130.007)"/><path class="b" d="M645.818,201.579C596.9,234.907,585.3,291.516,587.647,369.62c23.053-9.872,45.214-21.93,68.688-31.581,24.544-10.252,50.02-18.641,76.739-15.223,20.505,2.485,40.389,7.456,59.341,16.466,3.107,1.243,5.281,3.728,8.388,5.592,6.835,3.418,13.049,6.835,19.573,10.874,7.456,4.66,15.223,6.835,22.369,11.806,3.728,2.175,5.592,6.214,9.01,8.078,11.806,5.592,23.923,9.942,36.661,14.6,3.107.932,5.282,4.039,8.389,4.971,15.845,3.418,29.826,9.942,45.36,11.185a306.29,306.29,0,0,0,50.642.311q2.659-.238,5.259-.679c-2.842-41.436-16.856-83.17-38.83-116.325C891.708,187.811,732.732,142.369,645.818,201.579Z" transform="translate(0 -10.766)"/><path class="c" d="M1102.427,730.371v-1.306c0,.438.008.87.026,1.306Z" transform="translate(-230.854 -258.993)"/><path class="c" d="M1102.45,721.64v0Z" transform="translate(-230.864 -251.568)"/><path class="c" d="M1102.45,712.5v0Z" transform="translate(-230.864 -251.568)"/><path class="c" d="M1102.427,730.371c.017-.435.026-.867.026-1.306v1.306Z" transform="translate(-230.854 -258.993)"/><path class="c" d="M1102.46,713.047c-.037-.183-.072-.366-.11-.549" transform="translate(-230.819 -251.568)"/><path class="c" d="M1111.036,707.765q-.266,1.31-.522,2.612h-88.288q-.257-1.306-.525-2.612Z" transform="translate(-194.672 -249.446)"/><line class="c" x1="0.514" transform="translate(871.329 460.93)"/><g transform="translate(824.076 458.318)"><rect class="d" width="42.66" height="7.835" transform="translate(25.684 44.401)"/><g transform="translate(0)"><path class="d" d="M1109.882,731.431c-.546,13.77-9.713,25.677-23.045,31.916v-.574h-42.659v.574c-13.332-6.239-22.5-18.146-23.045-31.916Z" transform="translate(-1018.493 -718.372)"/><path class="d" d="M1101.768,730.371v-1.306c0,.438.009.87.026,1.306Z" transform="translate(-1054.635 -717.312)"/><path class="d" d="M1101.792,721.64v0Z" transform="translate(-1054.645 -709.886)"/><path class="d" d="M1101.792,712.5v0Z" transform="translate(-1054.645 -709.886)"/><path class="d" d="M1101.768,730.371c.017-.435.026-.867.026-1.306v1.306Z" transform="translate(-1054.635 -717.312)"/><path class="d" d="M1101.8,713.047c-.038-.183-.073-.366-.11-.549" transform="translate(-1054.601 -709.886)"/><path class="d" d="M1110.377,707.765q-.265,1.31-.522,2.612h-88.288q-.257-1.306-.525-2.612Z" transform="translate(-1018.453 -707.765)"/><line class="d" x1="0.514" transform="translate(46.889 2.612)"/><rect class="d" width="94.025" height="15.671"/></g></g><path class="e" d="M867.6,278.733c5.153,3.32,10.989,5.789,17.105,6.191a44.792,44.792,0,0,1,15.6,6.2c.859.55,9.341,5.989,8.372,8.372-.749,1.842-6.791,1-13.954,0-4.8-.669-8.59-1.469-19.963-4.242-5.448-1.328-10.495-1.934-16.534-4.482-4.451-1.878-8.761-4.353-13.137-6.433-4.721-2.245-1.932-10.211.424-13.5,2.537-3.536,6.139-5.25,9.611-2.257C859.211,272.109,863.023,275.786,867.6,278.733Z" transform="translate(-114.361 -51.915)"/><path class="f" d="M919.07,251.536a20.084,20.084,0,0,0,34.66,4.456l12.467,30.53-28.051,11.455a20.082,20.082,0,1,1-32.211,13.154l-26.53,10.834q-.245-.578-.482-1.159a94.132,94.132,0,0,1,51.211-122.594L940.7,224.091a20.084,20.084,0,0,0-21.633,27.445Z" transform="translate(-127.535 -21.063)"/><path class="g" d="M906.5,247.311a20.9,20.9,0,0,0,35.931,4.323L955.4,283.4l-29.185,11.918A20.895,20.895,0,1,1,892.7,309l-27.6,11.272q-.255-.6-.5-1.206a97.938,97.938,0,0,1,53.281-127.55l11,26.925A20.9,20.9,0,0,0,906.5,247.311Z" transform="translate(-120.987 -18.062)"/><path class="c" d="M1102.409,343.3v29.328c-.131-.081-.261-.163-.395-.241V343.3C1102.144,343.3,1102.278,343.3,1102.409,343.3Z" transform="translate(-230.668 -86.092)"/><path class="c" d="M1102.409,460.549v65.7c-.134.069-.264.142-.395.215V460.79C1102.147,460.712,1102.278,460.631,1102.409,460.549Z" transform="translate(-230.668 -138.643)"/><line class="c" x1="0.395" transform="translate(871.345 356.457)"/><line class="c" x1="0.395" transform="translate(871.345 356.457)"/><g class="h" transform="translate(773.797 249.666)"><path class="i" d="M1023.461,329.631v29.325c-.1-.061-.2-.122-.3-.18v.18c-.13-.081-.261-.163-.395-.241a20.895,20.895,0,1,0,0,35.852c.134-.078.264-.159.395-.241v.18c.1-.058.2-.119.3-.18v34.552H991.245a20.894,20.894,0,1,1-36.2,0H925.23a97.883,97.883,0,0,0,47.1,82.432h0l.528.32c2.682,5.92,4.214,12.377,5.528,18.82h-2.235v15.671H979c1.523,12.655,10.354,23.463,22.836,29.3v7.261h42.66v-7.261c12.481-5.841,21.313-16.649,22.836-29.3h2.847V530.448h-2.336a94.8,94.8,0,0,1,5.186-18.338c-4.614,2.71-1.985.94-.386,0a97.889,97.889,0,0,0,48.452-83.233q.009-.653.009-1.306A97.94,97.94,0,0,0,1023.461,329.631Zm-.142,214.166h-.026v-1.306c0,.3,0,.592.014.885.009-.293.012-.589.012-.885Z" transform="translate(-925.23 -329.631)"/></g><g transform="translate(773.151 257.208)"><path class="c" d="M1052.65,572.791a20.9,20.9,0,0,1-30.657,18.477c-.133-.069-.264-.142-.394-.215v19.67q-.144,7.152-.29,14.3H977.282c-1.329-6.538-2.867-13.1-5.589-19.11l-.529-.319h0a97.882,97.882,0,0,1-47.1-82.432h29.815a20.894,20.894,0,1,0,36.2,0H1021.6v31.362c.13-.072.261-.145.394-.215a20.9,20.9,0,0,1,30.657,18.477Z" transform="translate(-924.059 -423.917)"/><path class="j" d="M1173.471,441.243q0,.653-.009,1.306h-27.993a20.895,20.895,0,1,0-36.2,0h-33.741V408c-.131.082-.262.163-.395.241a20.895,20.895,0,1,1,0-35.852c.133.078.264.16.395.241V343.3A97.944,97.944,0,0,1,1173.471,441.243Z" transform="translate(-977.593 -343.3)"/><path class="k" d="M1150.854,580.941a96.052,96.052,0,0,0-5.244,18.628H1100.3q.143-7.152.29-14.3.2-9.729.395-19.455a20.895,20.895,0,1,0,0-36.954V497.708h33.742a20.894,20.894,0,1,1,36.2,0h27.993a97.89,97.89,0,0,1-48.452,83.233C1148.869,581.881,1146.24,583.651,1150.854,580.941Z" transform="translate(-1003.051 -398.459)"/></g><g transform="translate(635.379 445.259)"><rect class="l" width="87.395" height="36.9" rx="15.217" transform="translate(23.305)"/><rect class="m" width="116.527" height="38.842" rx="15.217" transform="translate(8.74 21.363)"/><rect class="n" width="134.006" height="33.016" rx="15.217" transform="translate(0 42.727)"/></g><path class="o" d="M811.87,679.208q-2.078-.234-4.122-.6a6.05,6.05,0,0,1-3.593-1.827,5.389,5.389,0,0,1-.988-2.185c-.607-2.415-.949-5.561,2.589-6.47a33.412,33.412,0,0,1,8.967-1.239c2.687.107,3.923,1.469,5.835,2.709,2.582,1.675,6.206,2.717,9.126,3.955a6.9,6.9,0,0,1,1.781.968,4.9,4.9,0,0,1,1.207,1.779,1.6,1.6,0,0,1,.194.666,1.26,1.26,0,0,1-.285.71c-.024.033-.05.066-.076.1a5.318,5.318,0,0,1-3.67,1.538A88.668,88.668,0,0,1,811.87,679.208Z" transform="translate(-96.551 -231.119)"/><path class="o" d="M768.836,678.317q-2.078-.234-4.122-.6a6.053,6.053,0,0,1-3.593-1.827,5.384,5.384,0,0,1-.988-2.186c-.608-2.414-.949-5.56,2.589-6.47A33.414,33.414,0,0,1,771.688,666c2.688.106,3.923,1.469,5.835,2.709,2.582,1.675,6.206,2.716,9.126,3.955a6.9,6.9,0,0,1,1.782.968,4.9,4.9,0,0,1,1.207,1.779,1.6,1.6,0,0,1,.194.666,1.256,1.256,0,0,1-.285.71c-.025.033-.05.066-.076.1a5.318,5.318,0,0,1-3.671,1.538A88.634,88.634,0,0,1,768.836,678.317Z" transform="translate(-77.263 -230.719)"/><path class="p" d="M752.808,526.557q-.12,2.39-.234,4.787c-.153,3.214-.27,6.617,1.115,9.446,2.16,4.413,7.558,5.971,11.883,4.458a4.971,4.971,0,0,0,2.682-1.881,7.3,7.3,0,0,0,.83-2.7c5.152-30.093,11.764-60.774,10.1-91.656-.351-6.533-.78-13.062-1.354-19.576a319.471,319.471,0,0,0-5.6-38.8c-.5-2.344-1.139-4.876-2.895-6.3a8.431,8.431,0,0,0-4.381-1.475c-4.023-.519-10.864-3.338-14.7-.931-2.885,1.811-3.139,7.813-4,11.28-1.89,7.6,1.019,16.97,2.327,24.515q2.356,13.6,5.278,27.068c1.434,6.609,3.109,12.987,3.2,19.836.094,7.111-1.146,14.141-1.687,21.2C754.325,499.405,753.493,512.919,752.808,526.557Z" transform="translate(-70.937 -102.978)"/><path class="p" d="M790.225,521.953q-.139,2.389-.273,4.784c-.179,3.212-.323,6.613,1.039,9.457,2.125,4.434,7.51,6.044,11.846,4.575a4.959,4.959,0,0,0,2.7-1.855,7.291,7.291,0,0,0,.852-2.687c5.392-30.041,12.249-60.656,10.836-91.553-.3-6.536-.676-13.068-1.2-19.588a319.8,319.8,0,0,0-5.292-38.854c-.482-2.349-1.1-4.887-2.845-6.327a8.443,8.443,0,0,0-4.369-1.518c-4.879-.678-11.129-2.954-15.865-.526-6.817,3.494-4.175,12.4-3.294,18.739q3.052,21.95,7.568,43.608c1.381,6.623,3.005,13.017,3.04,19.866.036,7.112-1.259,14.129-1.857,21.187C791.96,494.818,791.019,508.324,790.225,521.953Z" transform="translate(-87.737 -101.092)"/><path class="p" d="M847.815,189.949c-.2.466-.474.976-.965,1.1a1.51,1.51,0,0,1-1.208-.381,5.656,5.656,0,0,1-2.04-5.876,9.19,9.19,0,0,1,1.785-3.189c1.461-1.855,3.634-3.033,3.95-.307A18.139,18.139,0,0,1,847.815,189.949Z" transform="translate(-114.767 -12.759)"/><path class="p" d="M792,190.925c-.034-.158-.064-.319-.09-.485a3.941,3.941,0,0,1,.052-1.852,1.687,1.687,0,0,1,1.311-1.191c2.054-.235,4.829,4.071,5.831,5.46,1.967,2.725,3.108,5.84,1.925,9.152a1.492,1.492,0,0,1-.385.65,1.35,1.35,0,0,1-1.451,0c-1.671-.83-1.821-2.431-2.635-3.883-1.792-3.2-7.991-9.294-3.42-12.825.615-.476.619.233,1.124.826a32.541,32.541,0,0,1,3.257,4.566" transform="translate(-91.492 -15.499)"/><path class="c" d="M822.864,240.4c.681-1.229,2.049-3.228,3.557-3.533,1.919-.387,3.075,1.311,4.547,2.569,3.427,2.928,6.84,5.873,10.188,8.893,3.179,2.868,6.364,5.022,4.472,9.474-1.87,4.4-10.536,16.245-15.772,9.115-2.868-3.905-5.772-7.879-7.427-12.433S820.515,244.639,822.864,240.4Z" transform="translate(-104.782 -38.364)"/><path class="c" d="M751.062,259.3q-.082,1.033-.122,2.07c-.072,1.915.3,3.692.376,5.549.089,2.315-.653,4.9-.9,7.215-.519,4.853-.843,9.724-1.161,14.593-.507,7.764-2.492,13.623-3.832,18.786-.177.681-5.1,17.72-4.776,16.626a53.305,53.305,0,0,0,8.111,4.2,25.778,25.778,0,0,0,8.821,1.521c4.163.162,8.226-.681,12.32-1.431,6.935-1.269,14.18-3.092,20.166-7.28,3.408-2.385,1.7-6.1,1.071-9.813a102.363,102.363,0,0,1-1.483-25.739c0-7.909,2.311-16.012,3.162-23.869.86-7.944-.028-15.714.36-23.626a4.8,4.8,0,0,0-.5-2.976,4.379,4.379,0,0,0-2.154-1.426,49.7,49.7,0,0,0-9.888-2.221c-4.715-.743-10.49,2.128-14.922,3.524-4.239,1.335-8.862,2.967-11.078,6.82a17.984,17.984,0,0,0-1.757,5.681A109.084,109.084,0,0,0,751.062,259.3Z" transform="translate(-68.695 -35.917)"/><path class="q" d="M817.857,220.537a29.27,29.27,0,0,0-3.067,5.03c-.715,1.494-.8,3.172-1.45,4.592-.593,1.293-2.674,1.542-4.084,1.5a11.612,11.612,0,0,1-5.166-1.422,18.35,18.35,0,0,1-3.079-2.194c-1.246-1.078-1.819-2.028-1.145-3.314a24.671,24.671,0,0,0,2.032-4.378,16.784,16.784,0,0,0,.038-9.5" transform="translate(-95.116 -26.728)"/><path class="e" d="M831.344,183.808a10.215,10.215,0,0,1,.061,1.022c.046,4.2.62,8.667.012,12.842a24.5,24.5,0,0,1-1.611,6.789c-1.633,3.454-9.039,2.74-12.095,2.23-2.308-.385-5.8-.994-7.553-2.731-1.671-1.652-2.079-4.175-2.672-6.4-1.655-6.2-2.116-13.093,2.218-18.417,4.418-5.426,12.786-5.977,17.6-2.31A10.046,10.046,0,0,1,831.344,183.808Z" transform="translate(-98.128 -10.434)"/><path class="r" d="M806.4,199.108a4.639,4.639,0,0,0-3.1-2.017c-2.1,1.266-2.348,4.637-1.372,7.053a4.914,4.914,0,0,0,1.969,2.539,2.206,2.206,0,0,0,2.822-.474" transform="translate(-95.924 -20.56)"/><g transform="translate(677.011 201.48)"><g transform="translate(3.688 3.807)"><path class="s" d="M756.721,261.913c.051-.339.112-.672.187-1,1.1-4.79,3.633-10.428,8.956-11.533,4.481-.931,10.391,1.933,12.314,6.066,1.831,3.935-.295,7.35-.189,11.277a156.231,156.231,0,0,1-.912,18.341c-.278,3.054-.557,6.106-.793,9.164-.175,2.282-.653,4.116,1.149,5.921,2.337,2.34,6.437,3.9,9.268,5.62,6.313,3.842,12.568,8.894,19.289,11.923,2.384,1.074,4.813,2.274,5.452,5.168a3.95,3.95,0,0,1-3.4,4.969c-3.91.473-8.676-1.631-12.291-2.866l-15.914-5.437c-5.147-1.759-9.051-4.53-13.49-7.613a15.513,15.513,0,0,1-2.81-2.3c-2.079-2.329-2.277-5.935-2.958-8.856-.823-3.527-1.739-7.031-2.483-10.576a76.041,76.041,0,0,1-1.4-17.845C756.779,269.036,756.229,265.205,756.721,261.913Z" transform="translate(-756.514 -249.206)"/><path class="s" d="M838.047,382.1a69.284,69.284,0,0,0,10.208,2.532c2.134.317,5.941,1.486,7.4-.381a10.93,10.93,0,0,0,2.3-3.987c.206-.87-.138-1.223-.325-2.037a21.035,21.035,0,0,0-.429-2.381,5.8,5.8,0,0,0-1.613-2.187,2.831,2.831,0,0,0-2.193-.942,18.155,18.155,0,0,0-6.2.637,4.221,4.221,0,0,1-2.565.147,9.424,9.424,0,0,1-2.626-1.07" transform="translate(-793.057 -304.438)"/><path class="s" d="M865.36,391.572a19.459,19.459,0,0,0,6.044.141c.822-.145,3.3-.406,2.471,1.135-.288.536-1.068.721-1.6.9-1.946.644-4.261.252-6.277.289a11.074,11.074,0,0,1-3.355-.28" transform="translate(-804.083 -313.015)"/><path class="s" d="M868.324,386.4a23.79,23.79,0,0,0,8.327.805,7.008,7.008,0,0,0,2.249-.587c.546-.246,1.341-.461,1.352.347.012.881-.93,1.482-1.634,1.792-3.205,1.409-6.622,1.163-9.959.615a7.932,7.932,0,0,1-1.249-.274c-.039-.013-.083-.031-.1-.071s.041-.087.068-.056" transform="translate(-806.174 -310.695)"/><path class="s" d="M872.18,381.945l4.531.438a5.2,5.2,0,0,0,2.824-.32,11.552,11.552,0,0,1,3.369-.926,2.09,2.09,0,0,1,1.241.2.768.768,0,0,1,.192.872c-.26.688-1.207.9-1.876,1.184q-1.246.534-2.512,1.028a9.117,9.117,0,0,1-2.31.661,8.951,8.951,0,0,1-1.449.007c-.975-.054-1.931-.209-2.9-.28a11.913,11.913,0,0,1-2.262-.493.246.246,0,0,1-.13-.063.07.07,0,0,1,.03-.112" transform="translate(-807.773 -308.336)"/><path class="s" d="M870.858,379.07a12.836,12.836,0,0,0,4.473.453,16.5,16.5,0,0,0,3.539-.568c.555-.213,1.136-.366,1.691-.583.537-.21,2.649-.988,1.863-1.768-.716-.71-2.377-.156-3.248-.012a14.844,14.844,0,0,1-4.6.078,24.876,24.876,0,0,1-4.689-1.692c-.129-.049-.285-.174-.21-.289" transform="translate(-807.227 -305.448)"/><path class="s" d="M851.659,371.445c1.622-.653,3.113-1.608,4.751-2.219,1.085-.4,2.2-.518,3.3-.812a21.543,21.543,0,0,0,3.443-.957c.505-.224,2.081-.662,2.5-.1a.918.918,0,0,1,0,.864,4.123,4.123,0,0,1-2.516,2.348c-.4.132-1.175.024-1.253.5-.085.517.722.79,1.067.952,1.2.566,2.523.824,3.753,1.322" transform="translate(-799.158 -302.039)"/></g><path class="c" d="M778.819,276.479a5.5,5.5,0,0,1-.445,2.33,5.146,5.146,0,0,1-2.036,1.867,32.06,32.06,0,0,1-24.505,3.543,2.638,2.638,0,0,1-1.233-.582,2.591,2.591,0,0,1-.581-1.537,35.305,35.305,0,0,1,.375-9.611,119.05,119.05,0,0,1,4.034-17.938c1.234-4.009,2.913-8.252,6.482-10.457a13.059,13.059,0,0,1,5.315-1.7c5.87-.712,12.166,3.113,12.457,9.4C779.057,259.879,779.15,268.334,778.819,276.479Z" transform="translate(-749.829 -242.306)"/></g><path class="p" d="M804.1,191.321a1.336,1.336,0,0,1-.871.536c-.474.012-.807-.436-1.112-.8-1.494-1.775-4.168-2.442-5.2-4.518a7.456,7.456,0,0,1-.458-3.694,9.035,9.035,0,0,1,.61-3.434,5.949,5.949,0,0,1,9.491-1.046C809.921,182.435,807.148,188,804.1,191.321Z" transform="translate(-93.7 -11.316)"/><path class="t" d="M816.386,163.26a28.4,28.4,0,0,0,5,4.163,8.644,8.644,0,0,0,3.778,1.572,6.774,6.774,0,0,0,2.853-.435,11.878,11.878,0,0,0,4.817-3.2c2.459-2.676.659-7.15-1.479-9.528a14.286,14.286,0,0,0-7.463-4.153A18.992,18.992,0,0,0,808.37,155c-1.687,1.279-3.469,2.947-5.567,2.659" transform="translate(-96.561)"/><path class="t" d="M794.838,174.5c-2.313-.184-3.093-5.351-2.422-7.586,1.881-6.265,12.4-11.606,17.29-9.565,3.337,1.393-2.2,7.969-3.863,9.3-2.908,2.332-6.747,3.354-8.48,7.135a11.866,11.866,0,0,1-.919,1.927,1.308,1.308,0,0,1-1.585.642,2.169,2.169,0,0,1-.738-.863,13.961,13.961,0,0,1-1.89-8.765c.777-5.37,6.95-9.313,9.47-3.589,1.194,2.712-.294,5.042-1.826,6.628C798.42,171.268,797.028,174.67,794.838,174.5Z" transform="translate(-91.771 -2.548)"/><path class="u" d="M807.3,178.73a4.848,4.848,0,0,1-4.224-.088,6.452,6.452,0,0,1-2.154-2.658,10.8,10.8,0,0,1-1.132-5.193,9.572,9.572,0,0,1,2.628-6.047c2.693-2.831,6.214-3.437,9.574-3.886a9.9,9.9,0,0,1,5.029.216,4.818,4.818,0,0,1,2.59,2.362,4.915,4.915,0,0,1,.159,3.93C819.523,172.973,810.5,177.659,807.3,178.73Z" transform="translate(-95.204 -4.223)"/><path class="v" d="M806.32,443.492q2.512,14.958,3.8,30.125c.284,3.341.524,6.691.528,10.046a71.684,71.684,0,0,1-.667,11.78c-.589,3.475-1.6,6.977-2.258,10.492q-2.264,12.123-3.951,24.366" transform="translate(-96.997 -130.998)"/><path class="v" d="M811.981,423.723l.235,1.759c.187,1.4.375,2.8.511,4.209a58.7,58.7,0,0,1,.264,6.645,24.641,24.641,0,0,1-.433,4.627" transform="translate(-100.674 -122.138)"/><g transform="translate(887.964 155.153)"><path class="w" d="M1144.745,164.035a23.833,23.833,0,0,1,1.487,5.783c.413,2.892-.992,5.453-1.074,8.262a6,6,0,0,0,7.932,6.032c3.3-1.239,6.444-4.544,10-3.14,2.231.909,4.627,3.222,7.105,1.157a24.5,24.5,0,0,0,2.988-2.826,19.39,19.39,0,0,0,.147-2.381c0-10.258-8.047-18.574-17.973-18.574a17.553,17.553,0,0,0-11.51,4.31A3.907,3.907,0,0,1,1144.745,164.035Z" transform="translate(-1137.381 -158.348)"/><path class="x" d="M1164.943,185.63c-2.479,2.065-4.875-.248-7.105-1.157-3.552-1.4-6.692,1.9-10,3.14a6,6,0,0,1-7.932-6.032c.082-2.809,1.487-5.37,1.074-8.262a23.831,23.831,0,0,0-1.487-5.783,3.908,3.908,0,0,0-.9-1.378,18.786,18.786,0,0,0-6.463,14.265c0,10.258,8.047,18.574,17.972,18.574A18.189,18.189,0,0,0,1167.93,182.8,24.491,24.491,0,0,1,1164.943,185.63Z" transform="translate(-1132.132 -161.848)"/></g><path class="y" d="M778.892,279.568l-.45,12.718a7.715,7.715,0,0,1-.908,4.072c-1.184,1.772-3.544,2.233-5.653,2.541-5.634.824-11.992,2.932-17.579,1.92a5.157,5.157,0,0,1-2.154-.734,1.762,1.762,0,0,1-.724-2" transform="translate(-73.488 -57.527)"/><path class="y" d="M833.727,278.212a112.773,112.773,0,0,0-1.347-14.9" transform="translate(-109.817 -50.239)"/><path class="y" d="M856.571,271.265a31.644,31.644,0,0,1-11.949,13.16c-.124.075-.3.144-.4.038s.185-.249.156-.108" transform="translate(-115.117 -53.805)"/></g></svg>