<svg xmlns="http://www.w3.org/2000/svg" xmlns:xlink="http://www.w3.org/1999/xlink" width="590.472" height="403.8" viewBox="0 0 590.472 403.8"><defs><style>.a,.ae,.ak,.at,.k,.l,.m,.w{fill:none;}.b{clip-path:url(#a);}.c{fill:url(#b);}.d{fill:url(#c);}.e{fill:#45839b;}.e,.j{stroke:#4fa5ad;stroke-width:0.514px;}.aa,.ab,.ac,.ad,.ae,.af,.ag,.ah,.aj,.ak,.al,.am,.an,.ao,.aq,.ar,.as,.at,.e,.f,.g,.i,.j,.k,.l,.m,.o,.u,.w,.x,.z{stroke-miterlimit:10;}.ab,.ac,.ad,.ag,.ah,.aq,.ar,.f,.n{fill:#fff;}.aa,.ab,.ac,.ad,.ae,.af,.ag,.ah,.ak,.al,.am,.an,.ao,.aq,.ar,.as,.at,.f,.m,.u,.w,.x,.y,.z{stroke:#100052;}.f,.g,.i{stroke-width:0.171px;}.g{fill:#97bbd3;}.g,.i{stroke:#bbdbf9;}.h{fill:#ce71ad;}.af,.i{fill:#bbdbf9;}.aa,.al,.ao,.as,.j,.y{fill:#100052;}.k,.l{stroke:#fff;}.k{stroke-width:0.765px;}.l{stroke-width:0.647px;}.m{stroke-width:0.798px;}.aj,.o{fill:#f6aacb;stroke:#f6aacb;}.o{stroke-width:0.135px;}.p{fill:#feca84;}.q{fill:#ffeace;}.r{fill:url(#d);}.s{fill:url(#e);}.t{fill:url(#f);}.am,.an,.u,.v,.x{fill:#e7827e;}.u{stroke-width:0.875px;}.aa,.w,.x,.z{stroke-width:0.719px;}.y{stroke-linecap:round;stroke-linejoin:round;stroke-width:0.719px;}.z{fill:url(#g);}.ab{stroke-width:0.625px;}.ac{stroke-width:1.405px;}.ad,.ae{stroke-width:1.233px;}.af,.at{stroke-width:1.018px;}.ag{stroke-width:0.906px;}.ah{stroke-width:0.654px;}.ai{fill:#8ab1c5;}.aj{stroke-width:0.424px;}.ak{stroke-width:1.221px;}.al,.am,.aq{stroke-width:1.498px;}.an{stroke-width:1.34px;}.ao{stroke-width:1.705px;}.ap{fill:#2a7195;}.ar{stroke-width:1.376px;}.as{stroke-width:1.329px;}.au{fill:url(#h);}.av{fill:url(#i);}.aw{fill:url(#j);}.ax{fill:url(#k);}</style><clipPath id="a"><path class="a" d="M1153.863,414.19c2.895,14.735,2.159,26.334,1.511,36.55-3.092,48.745-24.843,84.29-35.912,99.927-6.751,9.537-22.894,31.891-51.4,50.175-34.686,22.245-69.238,26.638-94.5,28.886C812.086,644.1,738.082,596.837,667.2,645.886c-19.719,13.644-24.1,24.3-35.872,22.678-46.514-6.4-101.161-189.735-35.559-300.866,102.4-173.463,448.111-86.891,509.172-31.683C1145.753,372.918,1153.863,414.19,1153.863,414.19Z" transform="translate(-565.492 -264.927)"/></clipPath><linearGradient id="b" x1="0.481" y1="0.121" x2="0.594" y2="0.771" gradientUnits="objectBoundingBox"><stop offset="0" stop-color="#ffefd1"/><stop offset="1" stop-color="#feca84"/></linearGradient><linearGradient id="c" x1="0.405" y1="0.176" x2="0.509" y2="0.882" xlink:href="#b"/><linearGradient id="d" x1="-6460.449" y1="0.898" x2="-6451.658" y2="-1.06" gradientUnits="objectBoundingBox"><stop offset="0" stop-color="#ff9077"/><stop offset="1" stop-color="#e9645a"/></linearGradient><linearGradient id="e" x1="-926.15" y1="1.645" x2="-924.888" y2="0.057" xlink:href="#d"/><linearGradient id="f" x1="-336.029" y1="0.29" x2="-333.539" y2="0.804" gradientUnits="objectBoundingBox"><stop offset="0" stop-color="#fdcda4"/><stop offset="1" stop-color="#e9645a"/></linearGradient><linearGradient id="g" x1="0.663" y1="0.649" x2="0.271" y2="0.267" gradientUnits="objectBoundingBox"><stop offset="0" stop-color="#6599b3"/><stop offset="1" stop-color="#45496b"/></linearGradient><linearGradient id="h" x1="0.713" y1="-0.573" x2="0.336" y2="1.476" gradientUnits="objectBoundingBox"><stop offset="0" stop-color="#2a7195"/><stop offset="1" stop-color="#060c39"/></linearGradient><linearGradient id="i" x1="0.516" y1="0.293" x2="0.373" y2="1.104" xlink:href="#h"/><linearGradient id="j" x1="0.713" y1="-0.573" x2="0.336" y2="1.476" xlink:href="#d"/><linearGradient id="k" x1="0.516" y1="0.293" x2="0.373" y2="1.104" xlink:href="#d"/></defs><g transform="translate(-565.492 -264.927)"><g transform="translate(565.492 264.927)"><g class="b"><path class="c" d="M480.11,252.118c67.527,8.074,132.852,19.818,193.039,57.985C690.03,320.379,689.3,340.2,690.03,358.546c.734,16.148,11.01,30.093,25.69,36.7,103.492,44.773,214.324,55.783,325.156,64.591,145.329,11.01,285.521,26.424,431.584,47.709q25.388,3.72,50.46,8.137V22.511H378.321V249.588C412.1,247.152,445.7,248.543,480.11,252.118Z" transform="translate(-515.702 -200.441)"/><path class="d" d="M1472.46,589.4c-146.063-21.286-286.255-36.7-431.584-47.709-110.832-8.808-221.664-19.818-325.156-64.591-14.68-6.606-24.956-20.552-25.69-36.7-.734-18.35,0-38.167-16.882-48.443-60.187-38.167-125.512-49.911-193.039-57.985-34.414-3.575-68.013-4.966-101.789-2.53V748.2h1144.6V597.537Q1497.836,593.149,1472.46,589.4Z" transform="translate(-515.702 -282.296)"/><g transform="translate(67.177 -206.282)"><g transform="translate(190.872 347.274)"><path class="e" d="M917.063,589.487l218.993,54.635,37.524-146.947L984.645,485.93Z" transform="translate(-917.063 -464.709)"/><g transform="translate(3.849 19.489)"><path class="f" d="M1098.474,491.779l-55.6,115.5,1.056.253c1.473-3.073,26.057-.145,57.307,7.06,34.233,7.894,63.663,17.917,62.645,21.716l37.082-138.433c.622-2.322-23.869-5.545-52.671-7.109-26.782-1.455-47.928-.945-48.891,1.064Z" transform="translate(-954.38 -485.264)"/><path class="g" d="M986.769,485.346l-64.461,99.013c1.668-2.563,20.45-.6,43.484,4.708,24.9,5.742,45.436,13.209,43.957,16.269l1.052.253,55.6-115.5-.923-.055c.968-2-17.43-4.657-39.716-5.868C1004.861,483.027,987.918,483.58,986.769,485.346Z" transform="translate(-922.308 -483.57)"/></g><path class="h" d="M1242.721,531.353l1.3-6.119,22.046,5.082-1.025,6.884Z" transform="translate(-1003.693 -475.164)"/><g transform="translate(4.089 17.458)"><path class="f" d="M1097.508,488.655,1042.2,602.62l1.046.245c1.463-3.026,25.812-.242,56.737,6.72,33.849,7.62,62.913,17.34,61.894,21.074l37.181-136.276c.625-2.29-23.619-5.4-52.153-6.863-26.548-1.36-47.522-.8-48.482,1.188Z" transform="translate(-954.441 -482.391)"/><path class="i" d="M986.652,482.609l-64.018,97.862c1.655-2.529,20.3-.667,43.152,4.477,24.692,5.558,45.036,12.826,43.567,15.84l1.042.244L1065.7,487.067l-.915-.051c.965-1.98-17.286-4.548-39.406-5.682C1004.625,480.269,987.8,480.862,986.652,482.609Z" transform="translate(-922.634 -480.803)"/></g><path class="j" d="M1055.3,657.994" transform="translate(-953.837 -510.48)"/><path class="j" d="M1043.033,655.412l-.534,6.322-17.005-4.342,4.852-5.1" transform="translate(-945.908 -508.964)"/><g transform="translate(53.891 23.475)"><line class="k" x1="60.281" y1="5.396" transform="translate(10.775 16.177)"/><line class="k" x1="60.779" y1="6.18" transform="translate(6.179 23.341)"/><line class="k" x1="61.008" y1="6.555" transform="translate(4.025 26.699)"/><line class="k" x1="61.199" y1="6.875" transform="translate(2.207 29.532)"/><line class="k" x1="61.429" y1="7.268" transform="translate(0 32.972)"/><line class="k" x1="60.057" y1="5.055" transform="translate(12.819 12.992)"/><line class="k" x1="59.868" y1="4.773" transform="translate(14.521 10.338)"/><line class="k" x1="59.68" y1="4.498" transform="translate(16.206 7.713)"/><line class="k" x1="59.492" y1="4.229" transform="translate(17.872 5.115)"/><line class="k" x1="59.305" y1="3.965" transform="translate(19.522 2.544)"/><line class="k" x1="59.118" y1="3.706" transform="translate(21.154)"/><line class="k" x1="60.55" y1="5.814" transform="translate(8.305 20.027)"/></g><g transform="translate(19.806 72.302)"><line class="l" x1="55.314" y1="9.701" transform="translate(10.453 15.822)"/><line class="l" x1="55.661" y1="10.491" transform="translate(5.985 22.792)"/><line class="l" x1="55.82" y1="10.867" transform="translate(3.895 26.051)"/><line class="l" x1="55.953" y1="11.186" transform="translate(2.135 28.797)"/><line class="l" x1="56.111" y1="11.578" transform="translate(0 32.128)"/><line class="l" x1="55.156" y1="9.355" transform="translate(12.445 12.716)"/><line class="l" x1="55.023" y1="9.069" transform="translate(14.106 10.124)"/><line class="l" x1="54.89" y1="8.789" transform="translate(15.751 7.557)"/><line class="l" x1="54.757" y1="8.513" transform="translate(17.381 5.015)"/><line class="l" x1="54.623" y1="8.242" transform="translate(18.996 2.496)"/><line class="l" x1="54.49" y1="7.976" transform="translate(20.596)"/><line class="l" x1="55.502" y1="10.124" transform="translate(8.05 19.57)"/></g><g transform="translate(134.363 30.073)"><line class="m" x1="86.382" y1="7.936" transform="translate(9.146 18.629)"/><line class="m" x1="87.479" y1="9.11" transform="translate(5.255 26.932)"/><line class="m" x1="87.991" y1="9.675" transform="translate(3.426 30.835)"/><line class="m" x1="88.422" y1="10.159" transform="translate(1.88 34.132)"/><line class="m" x1="88.944" y1="10.755" transform="translate(0 38.145)"/><line class="m" x1="85.892" y1="7.428" transform="translate(10.871 14.949)"/><line class="m" x1="85.483" y1="7.01" transform="translate(12.306 11.887)"/><line class="m" x1="85.077" y1="6.603" transform="translate(13.724 8.861)"/><line class="m" x1="84.675" y1="6.205" transform="translate(15.125 5.872)"/><line class="m" x1="84.275" y1="5.817" transform="translate(16.51 2.919)"/><line class="m" x1="83.88" y1="5.438" transform="translate(17.877)"/><line class="m" x1="86.973" y1="8.562" transform="translate(7.057 23.087)"/></g><g transform="translate(108.964 106.485)"><line class="m" x1="95.73" y1="19.694" transform="translate(0 15.928)"/><line class="m" x1="95.238" y1="18.966" transform="translate(1.905 11.863)"/><line class="m" x1="94.75" y1="18.257" transform="translate(3.784 7.854)"/><line class="m" x1="94.266" y1="17.567" transform="translate(5.637 3.9)"/><line class="m" x1="93.786" y1="16.895" transform="translate(7.465)"/></g><path class="n" d="M1002.486,506.73a.851.851,0,0,0,.715,1.334,2.138,2.138,0,0,0,2.021-.951.851.851,0,0,0-.724-1.329A2.141,2.141,0,0,0,1002.486,506.73Z" transform="translate(-939.748 -469.986)"/><path class="n" d="M1007.161,498.572c-.351.614-.029,1.193.721,1.292a2.13,2.13,0,0,0,2-.937c.348-.615.021-1.19-.729-1.287A2.134,2.134,0,0,0,1007.161,498.572Z" transform="translate(-940.993 -467.82)"/><path class="n" d="M998.3,514.034a.872.872,0,0,0,.709,1.372,2.145,2.145,0,0,0,2.045-.962.872.872,0,0,0-.718-1.367A2.15,2.15,0,0,0,998.3,514.034Z" transform="translate(-938.633 -471.925)"/><path class="n" d="M992.784,523.663a.9.9,0,0,0,.7,1.422,2.155,2.155,0,0,0,2.074-.978.9.9,0,0,0-.711-1.417A2.158,2.158,0,0,0,992.784,523.663Z" transform="translate(-937.163 -474.481)"/><path class="n" d="M989.65,529.129a.917.917,0,0,0,.7,1.452,2.162,2.162,0,0,0,2.092-.988.917.917,0,0,0-.706-1.447A2.168,2.168,0,0,0,989.65,529.129Z" transform="translate(-936.329 -475.933)"/><path class="o" d="M1238.385,516.646l1.789-5.985,27.406,3.976-1,7.32Z" transform="translate(-1002.539 -471.287)"/><g transform="translate(122.217 75.06)"><path class="p" d="M1095.649,561.433l-12.074,20.777,29.054,4.461,5.323-26.331-11.268-1.06Z" transform="translate(-1083.575 -559.281)"/><path class="q" d="M1115.059,559.281l2.227,4.676,9.041-3.616Z" transform="translate(-1091.95 -559.281)"/></g><g transform="translate(131.464)"><g transform="translate(1.3)"><path class="r" d="M1116.537,476.98l1.548-.374a.091.091,0,0,1,.113.078,16.459,16.459,0,0,1-1.892,9.6.092.092,0,0,1-.17-.062,24.943,24.943,0,0,0,.333-9.14A.091.091,0,0,1,1116.537,476.98Z" transform="translate(-1102.782 -462.228)"/><path class="s" d="M1097.955,461.129c0,.021,0,.042.006.063a6.27,6.27,0,0,1,4.093-1.058,8.913,8.913,0,0,1,5.96,3.726,18.555,18.555,0,0,1,2.811,5.152c.727-.079,1.451-.2,2.17-.349a22.939,22.939,0,0,0-.92-3.4c-1.452-4.087-5.022-8.836-9.936-8.187-1.7.222-3.591,1.262-4.076,2.937A3.088,3.088,0,0,0,1097.955,461.129Z" transform="translate(-1097.944 -457.017)"/></g><path class="t" d="M1101.626,472.139c3.045,1.527,6.3,1.419,9.521.736.58-.123,1.157-.264,1.731-.418,1.966-.526,3.9-1.2,5.735-1.77,5.56-1.728,11.61-2.128,17.092.006l-2.028-2.7h4.051s-6.855-2.236-10.432-2.032c-3.54.2-6.858,1.452-10.2,2.543a42.5,42.5,0,0,1-4.574,1.251c-.719.15-1.443.27-2.17.349a12.432,12.432,0,0,1-8.445-1.632c-2-1.316-4.178-3.69-4.419-6.188,0-.021,0-.042-.006-.063a3.088,3.088,0,0,1,.108-1.115c-.056.1-.075.171-.135.267a11.429,11.429,0,0,0-.835,1.869.019.019,0,0,1,0,.012,2.657,2.657,0,0,0-.261.564C1095.3,467.027,1099.049,470.847,1101.626,472.139Z" transform="translate(-1096.173 -458.103)"/></g></g><g transform="translate(163.596 422.297)"><path class="u" d="M969.707,690.5a30.951,30.951,0,0,0,10.908-3.078c5.543-2.713,10.494-6.477,15.36-10.272q16.626-12.967,32.548-26.8,7.831-6.805,15.483-13.814c3.79-3.473,10.056-5.632,11.045-11.3a11.243,11.243,0,0,0-6.2-11.461c-4.024-1.733-8.419.253-9.882.9-2.845,1.26-5.728,2.432-8.609,3.607-13.028,5.309-26.14,10.411-39.242,15.536-7.522,2.943-14.321,7.716-22.12,9.976-14.808,4.291-28.193-14.62-37.127-23.386a62.048,62.048,0,0,0-9.716-8.3c-8.519-5.45-22.14-7.087-31.114-1.5-9.159,5.7-12.512,20.152-10.638,30.118,1.469,7.8,12.885,15.362,18.543,20.389,8.1,7.194,17.572,12.706,27.4,17.169C939.259,684.142,955.244,691.8,969.707,690.5Z" transform="translate(-879.903 -571.973)"/><g transform="translate(161.769)"><path class="v" d="M1138.372,585.954a9.335,9.335,0,0,0-6.7.124,2.332,2.332,0,0,0-.835.481,1.8,1.8,0,0,0-.4.847c-.459,1.736-.758,3.641.278,5.259a2.818,2.818,0,0,0,.679.755,3.767,3.767,0,0,0,1.171.543,7.831,7.831,0,0,0,4.643-.094,8.7,8.7,0,0,0,2.453-1.337,6.127,6.127,0,0,0,1.972-2.277c.313-.7.6-2.073-.181-2.672-.333-.255-.988-.489-1.381-.724A12.562,12.562,0,0,0,1138.372,585.954Z" transform="translate(-1108.205 -566.189)"/><path class="w" d="M1138.179,594.627a15.041,15.041,0,0,0-1.973-2.388,1.545,1.545,0,0,0-.42-.323,1.648,1.648,0,0,0-1.165.071l-5.324,1.679" transform="translate(-1108.014 -567.903)"/><path class="x" d="M1110.935,625.753a8.432,8.432,0,0,1,3.092-2.112,98.5,98.5,0,0,0,10.33-5.358,103.2,103.2,0,0,0,9.964-7.025,4.742,4.742,0,0,0,1.643-2.013,6.461,6.461,0,0,0-.193-3.79l-2.3-7.457-1.173-3.8c-.318-1.032-.523-2.821-1.194-3.643-1.695,1.345-3.255,2.463-5.583,1.976-1.827-.381-3.347-1.635-5.109-2.248-1.392-.484-2.929-.567-4.218-1.282-2.246-1.247-5.364,3.282-6.372,4.578-3.648,4.695-7.68,9.424-9.524,15.188l.377-.418" transform="translate(-1100.3 -567.091)"/><path class="x" d="M1146.778,614.03l2.583-4.763a5.949,5.949,0,0,0,.218-6.753c-.167-.387-.223-.962-.818-.782a1.423,1.423,0,0,0-.639.512,17.566,17.566,0,0,0-2.31,3.9,1.1,1.1,0,0,0-.142.739" transform="translate(-1112.363 -570.527)"/><path class="x" d="M1146.481,606.937l3.165-6.9a10.506,10.506,0,0,0,1.207-3.922,7.918,7.918,0,0,0-.453-2.672c-.4-1.26-1.011-2.965-2.264-1.29a25.993,25.993,0,0,0-3.5,7.805l.2-.153" transform="translate(-1112.095 -567.802)"/><path class="x" d="M1142.034,587.944a14.2,14.2,0,0,0-3.221-3.144,4.256,4.256,0,0,0-1.475-.868,4.105,4.105,0,0,0-2.3.272q-1.128.371-2.239.793a4.608,4.608,0,0,0-1.371.718,4.848,4.848,0,0,0-1.271,2.443" transform="translate(-1108.242 -565.78)"/><path class="x" d="M1138.392,587.5c1.519-1.317,2.84-3.315,2.234-5.232a8.172,8.172,0,0,0-1.864-2.648,15.977,15.977,0,0,1-3.468-5.675,3.721,3.721,0,0,1-.082-2.4c1.5-3.8,6.982,3.121,8.141,4.573.926,1.16,1.786,2.372,2.628,3.6a27.461,27.461,0,0,1,2.365,3.2c1.028,2.112-.716,4.215-1.659,6-1.685,3.182-3.3,6.533-5.708,9.242" transform="translate(-1109.542 -562.208)"/><g transform="translate(16.2)"><path class="y" d="M1122.809,561.279l.37-.12a1.848,1.848,0,0,0,.385-.158c.16-.1.526-.362.277-.635a4.362,4.362,0,0,0-.571-.444l-.9-.692s.2.9.457,2.064" transform="translate(-1122.372 -559.23)"/><path class="z" d="M1153.187,613.181l-28.657-45.115h0a.726.726,0,0,0,.674.054,15.977,15.977,0,0,0,1.737-.722c.346-.239,1.335-1.3,1.613-1.549a2.441,2.441,0,0,0,.291-.328l28.569,44.977c1.02,1.607.9,3.511-.265,4.253S1154.208,614.788,1153.187,613.181Z" transform="translate(-1122.946 -560.903)"/><path class="aa" d="M1124.13,566.837h0q-.526-2.374-1.051-4.747a1.332,1.332,0,0,1-.055-.248c.006-.124-.013-.07.087-.116a4.34,4.34,0,0,0,.446-.151,1.17,1.17,0,0,0,.193-.136,1.316,1.316,0,0,0,.349-.446.635.635,0,0,0,.041-.087l4.217,3.25.088.137a22.43,22.43,0,0,1-1.9,1.877A5.591,5.591,0,0,1,1124.13,566.837Z" transform="translate(-1122.545 -559.675)"/><path class="w" d="M1130.409,565.49l.06-.079" transform="translate(-1124.51 -560.874)"/><path class="w" d="M1124.483,568.954h0a.863.863,0,0,1-.129-.089" transform="translate(-1122.899 -561.793)"/><path class="aa" d="M1166.1,618.15a7.469,7.469,0,0,0-1.669-3.443l-5.222-7.233c-.378-.523-1.116-1.087-1.565-.625-.3.3-.159.806.012,1.193,1.66,3.779,4.778,6.884,5.836,10.874.28,1.061.3,2.3,1.571,1.77C1165.872,620.347,1166.175,618.9,1166.1,618.15Z" transform="translate(-1131.708 -571.852)"/></g><path class="x" d="M1123.439,588.629a21.434,21.434,0,0,1,2.927-8.116c1.458-2.131,4.435-4.3,4.279-7.181a2.327,2.327,0,0,0-1.664-2.028c-1.079-.318-2.3.785-3.049,1.417a29.038,29.038,0,0,1-3.279,2.433,12.35,12.35,0,0,0-3.961,4.326c-.893,1.48-1.927,2.871-2.824,4.349a55.314,55.314,0,0,0-2.627,5.092.284.284,0,0,1,.049-.432" transform="translate(-1103.722 -562.427)"/></g></g><g transform="translate(0 0)"><g transform="translate(1181.504 325.777)"><g transform="translate(0)"><rect class="ab" width="541.522" height="327.262" transform="translate(52.165) rotate(9.172)"/><rect class="ac" width="511.251" height="301.65" transform="translate(63.632 13.382) rotate(9.172)"/></g><g transform="translate(64.4 90.25)"><rect class="ad" width="113.993" height="61.068" transform="matrix(0.988, 0.154, -0.154, 0.988, 9.404, 0)"/><line class="ae" x2="92.386" y2="13.814" transform="translate(19.575 14.048)"/><line class="ae" x2="92.386" y2="13.814" transform="translate(17.227 29.755)"/><line class="ae" x2="92.386" y2="13.814" transform="translate(14.172 50.187)"/><line class="ae" x2="92.386" y2="13.814" transform="translate(18.305 22.544)"/></g><g transform="translate(69.614 30.853)"><rect class="af" width="484.343" height="30.271" transform="translate(4.825 0) rotate(9.172)"/><rect class="af" width="377.278" height="30.271" transform="translate(4.825 0) rotate(9.172)"/><rect class="ag" width="244.721" height="30.271" transform="translate(4.825 0) rotate(9.172)"/><rect class="ah" width="127.459" height="30.271" transform="translate(4.825 0) rotate(9.172)"/></g><path class="ai" d="M2683.52,655.3c5.6-14.213,6.156-32.96-.275-52.7l-42.51-.737c4.162,16.946,1.508,30.378-2.014,41.311l.059.5c10.576,4.719,22.591,7.7,35.015,9.916C2676.978,654.058,2680.219,654.647,2683.52,655.3Z" transform="translate(-2365.679 -474.051)"/><path class="aj" d="M2617.367,615.6q-.211-3.321-.522-6.719l-28.507,2.731a188.564,188.564,0,0,1-4.6,31.4l29.742,3.379C2615.431,637.155,2616.328,626.851,2617.367,615.6Z" transform="translate(-2351.051 -475.917)"/><path class="p" d="M2632.966,801.214q-.338-5.313-.837-10.751l-45.611,4.37c-1.342,18.887-3.792,35.7-7.369,50.241l47.586,5.406C2629.868,835.707,2631.3,819.222,2632.966,801.214Z" transform="translate(-2349.833 -524.221)"/><path class="p" d="M2531.55,631.522l22.814.359c0-.032.008-.065.012-.1h-.042l.065-.188a60.615,60.615,0,0,0-1.291-22.354l-17.039.512a35.671,35.671,0,0,1-2.6,16.671,25.251,25.251,0,0,1-1.552,4.449A6.975,6.975,0,0,1,2531.55,631.522Z" transform="translate(-2337.17 -476.013)"/><g transform="translate(314.889 166.129)"><rect class="af" width="139.527" height="155.03" transform="translate(26.981) rotate(10.023)"/><line class="ak" x2="122.491" y2="20.868" transform="translate(23.788 75.405)"/><line class="ak" x2="122.491" y2="20.868" transform="translate(22.565 82.58)"/><line class="ak" x2="122.491" y2="20.868" transform="translate(21.547 88.559)"/><line class="ak" x2="122.491" y2="20.868" transform="translate(20.324 95.734)"/><line class="ak" x2="122.491" y2="20.868" transform="translate(29.695 40.728)"/><line class="ak" x2="122.491" y2="20.868" transform="translate(30.714 34.749)"/><line class="ak" x2="122.491" y2="20.868" transform="translate(31.733 28.77)"/><line class="ak" x2="122.491" y2="20.868" transform="translate(32.751 22.791)"/><line class="ak" x2="122.491" y2="20.868" transform="translate(25.01 68.231)"/><line class="ak" x2="122.491" y2="20.868" transform="translate(16.676 113.964)"/><line class="ak" x2="122.491" y2="20.868" transform="translate(17.695 107.985)"/></g></g><path class="a" d="M863.587,605.415c3.144-17.122,6.764-34.138,10.628-51.111-.4.956-4.579,11.9-4.141,12.482-1.377-3.889,1.644-10.649,3.027-14.395-.011.03-.022.06-.032.09q-.135.383-.234.785c.175-.385,2.1-.9,2.276-1.285a82.383,82.383,0,0,0-7.344,17.514,11.749,11.749,0,0,0-.549,6.228" transform="translate(-711.966 -135.005)"/><path class="al" d="M804.48,416.114c5.108,9.4,16.175,14.326,26.859,14.929s21.2-2.41,31.481-5.393l-.114,29.324c8.356-6.1,12.387-17.059,11.5-27.365s-6.19-19.884-13.344-27.355c-15.721-16.417-40.987-22.947-62.695-16.2a62.2,62.2,0,0,0-30.642,21.786c-4.37,5.737-9.216,13.419-9.96,20.672-.771,7.512-1.406,12.52-6.059,19.109-8.57,12.133-21.187,22.543-35.1,27.883-13.6,5.22-25.345,8.95-35.2,20.513-14.161,16.609-24.084,40.959-24.192,62.895-.083,16.994,11.792,23.862,26.232,28.73,14.7,4.954,30.742,4.772,45.975,1.857a118.831,118.831,0,0,0,28.727-9.261c9.3-4.428,17.914-10.173,26.411-16,18.839-12.922,37.5-26.52,52.543-43.707s26.379-38.415,28.154-61.19c.33-4.242,1.406-9.768,5.631-10.267" transform="translate(-657.015 -89.634)"/><path class="am" d="M855.06,545.586c-.626,1.329-1.257,2.877-.64,4.209a4.754,4.754,0,0,0,1.746,1.772c5.938,4.1,13.482,6.411,20.47,4.621,3.289-.842,6.586-2.86,7.6-6.1a13.563,13.563,0,0,0,.4-4.224l-.082-7.344a7.241,7.241,0,0,0-.284-2.344c-.636-1.8-2.533-2.783-4.306-3.484-4-1.58-12.313-4.792-16.478-2.593S856.95,541.569,855.06,545.586Z" transform="translate(-709.46 -128.986)"/><path class="am" d="M911.4,442.567a83.9,83.9,0,0,1,.413,22.128,87.038,87.038,0,0,1-3.609,16.5c-3.2,9.993-5.106,15.93-9.386,20.043-10.739,10.316-34.921,7.687-48.385-4.41-7.129-6.4-9.9-13.981-13.772-26.306-4.068-12.953-6.508-20.728-5-30.9.574-3.877,4.627-27.736,25.893-35.9,18.184-6.981,34.434,3.088,35.487,3.765C911.584,419.417,911.433,441.337,911.4,442.567Z" transform="translate(-703.354 -94.915)"/><path class="al" d="M854.555,388.879a37.316,37.316,0,0,1-5.312,36.8c-14.118,17.565-41.986,19.677-55.056,38.035-7.678,10.787-7.932,27.047,1.23,36.605s27.466,8.886,34.27-2.472c6.191-10.335,1.616-23.419,1.184-35.459a50.008,50.008,0,0,1,7.479-28.038c1.006-1.614,3.69-3.07,4.369-1.294" transform="translate(-691.987 -91.618)"/><path class="al" d="M864.264,532.715c8.663,10.522,20.1,16.99,34.39,22.28a198.988,198.988,0,0,0,20.351,6.082c7.73,1.956,15.986,4,21.413,9.846,9.765,10.511,10.516,45.636-11.226,34.757-3.064-1.533-6.039-3.235-9.012-4.938-26.933-15.414-54-30.917-78.145-50.406-5.34-4.308-10.6-8.883-14.4-14.592a28.6,28.6,0,0,1-5.135-14.868c-.089-4.241,2.738-7.1,5.879-10.246,4.463-4.72,11.267-8.666,17.225-6.075,4.821,2.1,7.027,7.549,9.132,12.367A66.314,66.314,0,0,0,864.264,532.715Z" transform="translate(-701.036 -122.17)"/><path class="al" d="M839.049,465.855c-2.3,3.244-5.223,6.278-9.008,7.5s-8.538.088-10.477-3.383c-1.125-2.013-1.167-4.433-1.135-6.739.185-13.043,2.292-27.025,11.22-36.534,8.893-9.472,18.1.3,18.514,10.533C848.549,446.736,844.455,458.225,839.049,465.855Z" transform="translate(-699.952 -100.655)"/><path class="an" d="M858.11,487c-4.2-1.963-12.805-3.993-14.277,2.532-1.051,4.66,1.133,10.57,6.142,11.772a5.828,5.828,0,0,0,5.231-1.732,3.613,3.613,0,0,0,.73-.926,4.681,4.681,0,0,0,.253-2.559" transform="translate(-706.643 -117.209)"/><path class="ao" d="M834.448,462.336c-26.5-1.024-15.128-29.193-5.005-43.369,11.792-16.511,34.006-27.981,54.643-26.1,25.6,2.33,29.19,18.772,15.966,40.243C887.478,453.521,857.871,463.24,834.448,462.336Z" transform="translate(-699.869 -92.624)"/><path class="ap" d="M854.046,682.094c-1.754,2.879-4.241,5.271-5.873,8.221-2.7,4.88-2.794,10.727-2.819,16.3q-.064,13.672-.127,27.342c-.025,5.266-.209,11-3.569,15.052-3.694,4.461-10.039,5.48-15.812,5.954-36.854,3.031-71.319-4.755-105.062-18.57,11.747-19.516,11.524-41.594,9.6-63.642-1.083-12.424-2.3-25.421,2.457-36.95,5.276-12.793,17.324-21.823,30.3-26.639,22.949-8.52,45.341-9.41,64.549,7.109C843.211,629.624,867.349,660.268,854.046,682.094Z" transform="translate(-673.978 -148.625)"/><g transform="translate(1197.042)"><path class="aq" d="M2452.726,74.7c-.633-1.942-2.7-3.285-4.131-4.64-3.089-2.919-8.33-6.348-17.621-7.877q-8.323,12.927-17.29,26.09c-14.073,20.64-28.261,40.053-42.376,58.278,0,0-42.845-43.234-66.074-36.277-10.125,3.032-16.607,15.334-17.29,26.09-1.859,29.266,47.086,47.26,50.482,48.473,10.177,3.637,24.52,8.762,41.683,5.094,25.791-5.512,39.1-31.807,49.874-53.33,2.085-4.162,4.3-8.614,8.516-17.627q.272-.582.542-1.166c3.335-7.214,6.867-14.426,9.267-21.973q1.71-5.374,2.948-10.882C2452,81.621,2452.98,78.058,2452.726,74.7Z" transform="translate(-2287.893 -4.713)"/><path class="ar" d="M2501.11,69.791l-1.128,1.955a85.784,85.784,0,0,0,5.074-8.471,230.053,230.053,0,0,0,10.4-20.576c2.287-5.39,3.128-10.533-.661-15.433-2.857-3.694-6.7-9.719-11.526-10.775-9.012-1.972-13.646,6.124-16.007,13.132-3.6,10.7-9.289,21.032-13.592,31.494" transform="translate(-2337.311 7.523)"/><path class="ar" d="M2493.218,22.45a118.321,118.321,0,0,1,3.3-11.731,32.591,32.591,0,0,1,3.312-7.409c5.034-7.758,12.115-12.955,19.682-18.084,5.167-3.5,6.629.508,3.983,4.466-3.027,4.532-7.833,8.207-10.5,12.885-2.283,4-3.007,10.1-4.533,15.121l2.251-2.952" transform="translate(-2342.512 16.117)"/><path class="ar" d="M2505.248,29.12l.332-1.175a40.1,40.1,0,0,1,2.751-7.693,20.13,20.13,0,0,1,6.893-7.575,7.768,7.768,0,0,1,4.45-1.513,3.567,3.567,0,0,1,3.445,2.745,5.457,5.457,0,0,1-.694,2.91l-2.744,6.14,1.121,1.276" transform="translate(-2345.712 8.861)"/><path class="ar" d="M2516.329,30.613a16.081,16.081,0,0,1,3.948-6.135,8.044,8.044,0,0,1,3.8-2.256,4.081,4.081,0,0,1,4.047,1.273c1.259,1.634.677,3.97.04,5.931l-2.088,6.43" transform="translate(-2348.66 5.945)"/><path class="ar" d="M2522.368,37.667a14.2,14.2,0,0,1,9.357-5.876,2.931,2.931,0,0,1,1.836.15c.961.513,1.153,1.8,1.13,2.885a18.237,18.237,0,0,1-3.017,9.652c.416-.28-.431-1.145-.847-.867a25.316,25.316,0,0,0-4.083,3.4l1.86-.478" transform="translate(-2350.266 3.392)"/></g><path class="ap" d="M905.451,670.8c-2.258-.018-4.325-1.312-6.218-2.578a241.021,241.021,0,0,1-28.895-22.291c-10.165-9.3-19.149-21.45-23.3-34.705-5.3-16.921,9.208-26.92,24.611-27.2,10.106-.181,13.878,3.571,21.763,8.87,6.856,4.608,21.891,10.6,32.749,18.517,8.061,5.876,13.821,12.812,12.225,21.027-2.679,13.792-16.171,26.388-26.377,35.135a13,13,0,0,1-4.783,2.971c-1.572.427-3.715,1.1-5.324.7a10.8,10.8,0,0,1-3.331-1.662,68.126,68.126,0,0,1-13.427-11.766l.576.159" transform="translate(-707.266 -143.528)"/><path class="as" d="M756.8,669.109c-4.232,8.832-15.346,12.491-25.071,11.325-15.922-1.908-28.78-13.667-39.256-25.807-9.41-10.9-18.016-22.857-22.552-36.527-5.991-18.056-4.445-45.3,14.592-54.718,7.016-3.471,14.441-6.014,21.683-8.958a165.545,165.545,0,0,1,33.738-10.078c7.266-1.269,15.06-1.853,21.777,1,6.2,2.63,13.047,1.386,19.559,1.659,6.4.268,9.73,2.559,14.51,6.611a43.7,43.7,0,0,1-4.211,70.257c-5.248,3.4-11.15,5.638-16.8,8.322a114.013,114.013,0,0,0-20.181,12.3c-4.833,3.682-9.736,8.5-9.863,14.582C744.705,661.171,754.973,672.924,756.8,669.109Z" transform="translate(-659.621 -132.694)"/><path class="at" d="M914.153,689.739c-3,1.023-6.14-.905-8.619-2.872a86.87,86.87,0,0,1-24.375-30.651" transform="translate(-716.641 -162.733)"/><path class="at" d="M884.68,668.618a19.862,19.862,0,0,1-16.321-12.075" transform="translate(-713.236 -162.82)"/></g></g></g></g><g transform="translate(599.134 292.082)"><g transform="translate(454.026 317.502)"><path class="au" d="M1241.7,752.94c4.464-1.386,7.081-6.619,11.7-7.235,5.85,4.926,10.16,14.007,19.087,12.776a3.682,3.682,0,0,0,2.309-2,31.419,31.419,0,0,0,1.595-2.946c-2.125-10.869-11.227-19.039-22.133-19.039a22.142,22.142,0,0,0-17.776,9.14c.208,1.521.465,3.035.754,4.534C1237.54,750.169,1238,753.863,1241.7,752.94Z" transform="translate(-1231.651 -734.495)"/><path class="av" d="M1273.041,759.792a3.682,3.682,0,0,1-2.309,2c-8.927,1.231-13.237-7.851-19.087-12.776-4.618.616-7.234,5.849-11.7,7.235-3.694.923-4.156-2.771-4.464-4.772-.29-1.5-.546-3.013-.755-4.534a24.685,24.685,0,0,0-4.826,14.766c0,13.2,10.119,23.905,22.6,23.905s22.6-10.7,22.6-23.905a25.382,25.382,0,0,0-.469-4.866A31.419,31.419,0,0,1,1273.041,759.792Z" transform="translate(-1229.902 -737.807)"/></g><g transform="translate(0)"><path class="aw" d="M627.975,327.961c6.3-1.955,10-9.344,16.515-10.213,8.257,6.954,14.342,19.774,26.945,18.036a5.2,5.2,0,0,0,3.259-2.825,43.991,43.991,0,0,0,2.251-4.159c-3-15.344-15.848-26.877-31.244-26.877a31.258,31.258,0,0,0-25.093,12.9c.294,2.147.655,4.284,1.065,6.4C622.109,324.05,622.76,329.265,627.975,327.961Z" transform="translate(-613.796 -301.923)"/><path class="ax" d="M672.225,337.635a5.2,5.2,0,0,1-3.259,2.825c-12.6,1.739-18.688-11.082-26.945-18.036-6.519.869-10.213,8.257-16.515,10.213-5.215,1.3-5.867-3.911-6.3-6.736-.41-2.116-.771-4.253-1.065-6.4a34.844,34.844,0,0,0-6.813,20.844c0,18.637,14.285,33.746,31.906,33.746s31.906-15.108,31.906-33.746a35.771,35.771,0,0,0-.663-6.869A43.962,43.962,0,0,1,672.225,337.635Z" transform="translate(-611.327 -306.599)"/></g></g></g></svg>