<svg xmlns="http://www.w3.org/2000/svg" xmlns:xlink="http://www.w3.org/1999/xlink" width="615.573" height="548.994" viewBox="0 0 615.573 548.994"><defs><style>.a{fill:none;}.b{fill:url(#a);}.c{fill:url(#b);}.d{clip-path:url(#c);}.e{fill:url(#d);}.f{opacity:0.65;}.g{fill:url(#e);}.h{opacity:0.83;}.i{fill:url(#o);}.j{fill:url(#r);}.k{fill:url(#s);}.l{fill:url(#u);}.m{fill:url(#v);}.n{fill:url(#aa);}.o{fill:url(#ad);}.p{opacity:0.86;}.q{fill:#100052;stroke:#fff;}.q,.r{stroke-miterlimit:10;stroke-width:2.541px;}.r{fill:#b3adc8;stroke:#b3adc8;}.s{fill:url(#aj);}.t{fill:#fff;opacity:0.74;}.u{fill:url(#ak);}.v{fill:url(#am);}.w{fill:url(#an);}</style><linearGradient id="a" x1="0.471" y1="0.799" x2="0.644" y2="-0.475" gradientUnits="objectBoundingBox"><stop offset="0" stop-color="#ff9077"/><stop offset="1" stop-color="#e9645a"/></linearGradient><linearGradient id="b" x1="0.633" y1="1.385" x2="0.421" y2="-0.213" xlink:href="#a"/><clipPath id="c"><path class="a" d="M908.827,728.278c-31.254-.9-156.782-4.528-225.9-96.005-74.683-98.841-37.362-239.176,28.685-322.3,65.8-82.809,180.894-135.018,290.444-116.577,22.472,3.782,91.079,16.3,139.843,72,52.443,59.906,49.244,132.413,46.614,192.01-2.839,64.353-6.244,141.528-68.128,202.3C1046.5,732.254,942.391,729.248,908.827,728.278Z" transform="translate(-641.715 -189.69)"/></clipPath><linearGradient id="d" x1="0.528" y1="0.321" x2="0.414" y2="1.06" gradientUnits="objectBoundingBox"><stop offset="0" stop-color="#b9bdab"/><stop offset="1" stop-color="#769cae"/></linearGradient><linearGradient id="e" x1="0" y1="0.5" x2="1" y2="0.5" xlink:href="#d"/><linearGradient id="o" x1="0.001" y1="0.5" x2="1" y2="0.5" xlink:href="#d"/><radialGradient id="r" cx="0.5" cy="0.5" r="0.5" gradientTransform="translate(0)" gradientUnits="objectBoundingBox"><stop offset="0" stop-color="#4fa5ad"/><stop offset="0.321" stop-color="#55a8b0" stop-opacity="0"/><stop offset="0.679" stop-color="#f5fafa" stop-opacity="0"/><stop offset="1" stop-color="#fff"/></radialGradient><linearGradient id="s" x1="0" y1="0.5" x2="1" y2="0.5" xlink:href="#a"/><linearGradient id="u" x1="-0.088" y1="0.206" x2="0.811" y2="0.655" xlink:href="#a"/><linearGradient id="v" x1="0.009" y1="0.168" x2="0.581" y2="0.551" xlink:href="#a"/><linearGradient id="aa" x1="-0.001" y1="0.5" x2="1" y2="0.5" xlink:href="#d"/><linearGradient id="ad" x1="-0.002" y1="0.499" x2="1.001" y2="0.499" xlink:href="#d"/><linearGradient id="aj" x1="2.389" y1="4.419" x2="3.141" y2="2.244" gradientUnits="objectBoundingBox"><stop offset="0" stop-color="#fff"/><stop offset="0.321" stop-color="#fff" stop-opacity="0"/><stop offset="0.679" stop-color="#f5fafa" stop-opacity="0"/><stop offset="1" stop-color="#fff"/></linearGradient><linearGradient id="ak" y1="0.5" x2="1" y2="0.5" gradientUnits="objectBoundingBox"><stop offset="0" stop-color="#2a7195"/><stop offset="1" stop-color="#060c39"/></linearGradient><linearGradient id="am" x1="0.538" y1="0.354" x2="0.334" y2="1.011" gradientUnits="objectBoundingBox"><stop offset="0" stop-color="#faebd8"/><stop offset="1" stop-color="#ffb83f"/></linearGradient><linearGradient id="an" x1="0.487" y1="0.494" x2="0.359" y2="1.008" xlink:href="#am"/></defs><g transform="translate(-552.213 -176.319)"><g transform="translate(552.213 378.213)"><path class="b" d="M564.572,463.439c4.751-1.474,7.536-7.044,12.451-7.7,6.225,5.243,10.812,14.908,20.314,13.6a3.916,3.916,0,0,0,2.458-2.129,33.239,33.239,0,0,0,1.7-3.136c-2.262-11.568-11.948-20.263-23.555-20.263a23.565,23.565,0,0,0-18.918,9.727c.222,1.618.494,3.23.8,4.825C560.149,460.491,560.64,464.423,564.572,463.439Z" transform="translate(-553.882 -443.809)"/><path class="c" d="M598.125,470.368a3.916,3.916,0,0,1-2.458,2.129c-9.5,1.311-14.089-8.355-20.314-13.6-4.914.655-7.7,6.225-12.451,7.7-3.932.983-4.423-2.948-4.751-5.078-.309-1.6-.581-3.207-.8-4.825a26.272,26.272,0,0,0-5.136,15.714c0,14.052,10.77,25.442,24.055,25.442s24.054-11.39,24.054-25.442a26.982,26.982,0,0,0-.5-5.178A33.239,33.239,0,0,1,598.125,470.368Z" transform="translate(-552.213 -446.969)"/></g><g transform="translate(619.767 186.411)"><g class="d"><rect class="e" width="920.558" height="920.558" transform="translate(-208.564 -187.476)"/><g transform="translate(-4.315 80.888)"><g class="f" transform="translate(41.282 20.56)"><path class="g" d="M699.724,392.283a66.343,66.343,0,0,1,16.213-20.743Z" transform="translate(-692.908 -335.732)"/><path class="g" d="M771.261,370.769a68.273,68.273,0,0,1,17.2,21.323Z" transform="translate(-710.45 -335.543)"/><path class="g" d="M761.352,346.882A22.783,22.783,0,1,1,738.57,324.1,22.713,22.713,0,0,1,761.352,346.882Z" transform="translate(-696.846 -324.098)"/><path class="g" d="M775.259,435.176a11.52,11.52,0,0,1-3.727,6.858c-6.2,5.5-20.785,16.059-41.187,15.069a57.551,57.551,0,0,1-33.989-13.569,12.551,12.551,0,0,1-4.246-7.179,75.141,75.141,0,0,1-1.417-14.462,66.539,66.539,0,0,1,6.812-29.741l0-.009a66.294,66.294,0,0,1,15.953-20.519.311.311,0,0,1,.458.057,22.785,22.785,0,0,0,37.39-.572.313.313,0,0,1,.46-.068,68.222,68.222,0,0,1,16.931,21.1l0,.008C777.6,409.477,776.629,426.33,775.259,435.176Z" transform="translate(-690.693 -335.592)"/></g><g class="h" transform="translate(111.029 34.672)"><path class="g" d="M792.131,410.976a66.355,66.355,0,0,1,16.213-20.743Z" transform="translate(-785.315 -354.428)"/><path class="g" d="M863.668,389.462a68.265,68.265,0,0,1,17.2,21.323Z" transform="translate(-802.857 -354.239)"/><path class="g" d="M853.763,365.573c0,.115,0,.229-.005.345a22.694,22.694,0,0,1-3.695,12.1c-.063.094-.125.193-.193.288l-.031.047c-.115.168-.23.33-.345.5-.011.011-.016.021-.026.032-.125.177-.261.36-.4.538-.11.146-.225.288-.34.433s-.22.267-.334.4c-.131.162-.272.319-.413.475-.115.125-.225.251-.34.376l-.329.345c-.434.449-.888.873-1.353,1.285-.126.11-.251.22-.382.324-.4.335-.815.659-1.239.962-.136.1-.272.2-.413.3s-.272.183-.408.277c-.162.1-.329.209-.5.313-.189.12-.377.236-.57.345-.021.011-.037.021-.057.032-.183.109-.371.214-.559.319-.2.109-.408.214-.611.319-.674.339-1.374.648-2.09.925-.152.057-.3.115-.455.167-.277.1-.559.2-.846.288-.162.052-.325.1-.486.146-.193.057-.387.109-.591.162-.146.042-.292.078-.444.109-.313.078-.633.146-.956.209-.109.026-.22.042-.329.063-.366.068-.732.125-1.1.172-.016,0-.032.005-.047.005-.471.058-.941.1-1.417.136-.491.032-.987.048-1.484.048-.266,0-.528-.005-.789-.016-.35-.011-.7-.032-1.035-.057-.1-.005-.2-.016-.293-.026q-.306-.023-.611-.063c-.073-.011-.146-.016-.214-.026-.2-.026-.408-.057-.611-.088a22.6,22.6,0,0,1-2.722-.6c-.408-.121-.8-.246-1.2-.382-.638-.22-1.265-.47-1.876-.747l-.4-.188c-.115-.052-.235-.109-.345-.168-.162-.078-.329-.161-.491-.251-.183-.094-.365-.193-.548-.3s-.387-.219-.575-.334q-.855-.509-1.662-1.1c-.131-.094-.256-.183-.376-.277s-.23-.177-.34-.266c-.3-.235-.6-.481-.883-.731-.136-.115-.272-.235-.4-.361-.507-.46-.988-.94-1.448-1.448-.152-.162-.3-.329-.438-.5-.11-.12-.214-.251-.319-.377-.2-.24-.4-.485-.586-.737-.088-.115-.172-.229-.256-.345-.026-.031-.047-.068-.073-.1-.068-.094-.131-.189-.2-.282a22.788,22.788,0,1,1,41.481-13.027Z" transform="translate(-789.254 -342.795)"/><path class="g" d="M867.666,453.869a11.523,11.523,0,0,1-3.726,6.858c-6.2,5.5-20.786,16.059-41.188,15.069a57.551,57.551,0,0,1-33.989-13.569,12.551,12.551,0,0,1-4.245-7.178,75.073,75.073,0,0,1-1.418-14.463,66.551,66.551,0,0,1,6.812-29.741l0-.009a66.317,66.317,0,0,1,15.953-20.519.312.312,0,0,1,.459.057,22.785,22.785,0,0,0,37.39-.572.312.312,0,0,1,.46-.068,68.224,68.224,0,0,1,16.932,21.1l0,.008C870.005,428.17,869.037,445.023,867.666,453.869Z" transform="translate(-783.1 -354.288)"/></g><g transform="translate(148.653 23.792)"><path class="g" d="M845.459,417.619a91.909,91.909,0,0,1,22.458-28.734Z" transform="translate(-836.016 -343.217)"/><path class="g" d="M944.556,387.818a94.569,94.569,0,0,1,23.824,29.537Z" transform="translate(-860.317 -342.956)"/><path class="i" d="M867.716,365.843a22.544,22.544,0,0,1,.643,5.382c0,.115,0,.229-.005.345A31.842,31.842,0,0,1,867.716,365.843Z" transform="translate(-841.474 -337.567)"/><path class="g" d="M931.517,356.008a31.456,31.456,0,0,1-5.116,17.234v.005l-.266.392-.005.005c-.178.261-.355.522-.543.778s-.371.513-.565.763c-.172.22-.345.439-.522.658s-.345.423-.528.632c-.1.125-.209.251-.325.377-.125.146-.256.287-.392.433a.888.888,0,0,1-.12.131c-.183.2-.371.4-.565.6l-.068.067c-.209.214-.418.423-.632.627-.224.22-.454.434-.689.648s-.471.418-.711.627-.475.4-.716.6a.3.3,0,0,1-.026.021c-.24.193-.486.386-.732.569-.208.157-.413.314-.621.46-.162.121-.324.23-.486.34-.361.251-.722.5-1.092.727-.141.089-.282.177-.423.261-.152.1-.309.188-.465.282q-.353.212-.722.408c-.271.152-.549.3-.825.439s-.58.292-.873.433-.585.272-.883.4c-.272.12-.538.235-.815.345-.042.016-.078.032-.12.047-.225.089-.454.178-.685.262-.371.141-.747.277-1.123.4-.309.1-.612.2-.92.293a.224.224,0,0,1-.026.005c-.245.072-.491.14-.742.208-.386.1-.778.2-1.18.293-.319.073-.643.141-.967.2s-.658.125-.988.178c-.193.031-.386.063-.585.083a4.506,4.506,0,0,1-.476.068q-.972.126-1.959.188c-.282.021-.57.037-.857.042-.4.021-.8.026-1.2.026a31.512,31.512,0,0,1-5.79-.534c-.314-.057-.627-.12-.936-.188-.287-.063-.574-.125-.862-.2l-.063-.016c-.241-.057-.475-.12-.716-.188-.669-.183-1.332-.386-1.991-.617-.261-.089-.517-.183-.778-.282l-.125-.047c-.225-.084-.445-.173-.669-.266-.068-.026-.141-.052-.214-.084-.251-.109-.5-.214-.752-.329-.021-.011-.047-.021-.073-.032-.162-.073-.329-.152-.491-.229s-.324-.152-.486-.236c-.2-.094-.4-.193-.6-.3-.58-.3-1.155-.617-1.714-.956q-.313-.189-.627-.392c-.2-.12-.4-.251-.6-.386-.157-.1-.308-.2-.46-.309-.34-.235-.679-.48-1.009-.731-.192-.141-.386-.287-.574-.439-.235-.183-.47-.371-.7-.565l-.078-.063c-.2-.173-.4-.34-.591-.507-.057-.052-.109-.1-.167-.156-.188-.162-.376-.334-.559-.507a.61.61,0,0,0-.062-.057c-.194-.188-.387-.377-.575-.565-.052-.047-.1-.1-.152-.146-.156-.162-.318-.324-.47-.491-.073-.068-.136-.141-.2-.209-.146-.157-.288-.309-.434-.471-.047-.052-.094-.1-.136-.156-.188-.209-.371-.423-.553-.643s-.35-.423-.523-.637c-.151-.189-.3-.377-.439-.57-.121-.152-.241-.309-.35-.47a1.628,1.628,0,0,1-.116-.152c-.094-.131-.183-.261-.276-.392a31.2,31.2,0,0,1-3.548-6.653,147.75,147.75,0,0,1,44.71-39.014,31.635,31.635,0,0,1,12.625,12.85,31.157,31.157,0,0,1,2.508,6.265A31.551,31.551,0,0,1,931.517,356.008Z" transform="translate(-842.16 -328.38)"/><path class="g" d="M950.094,477.038a15.959,15.959,0,0,1-5.163,9.5c-8.585,7.622-28.792,22.246-57.055,20.876-22.833-1.108-39.087-12.08-47.084-18.8a17.383,17.383,0,0,1-5.88-9.943,103.993,103.993,0,0,1-1.965-20.035,92.178,92.178,0,0,1,9.437-41.2l.006-.013A91.847,91.847,0,0,1,864.489,389a.433.433,0,0,1,.635.078,31.564,31.564,0,0,0,51.795-.792.432.432,0,0,1,.637-.094,94.507,94.507,0,0,1,23.455,29.229l.006.011C953.334,441.438,951.992,464.784,950.094,477.038Z" transform="translate(-832.948 -343.023)"/></g><circle class="j" cx="143.589" cy="143.589" r="143.589" transform="translate(157.855 7.261)"/><g transform="translate(236.764 58.548)"><path class="k" d="M961.756,465.549a88.671,88.671,0,0,1,21.666-27.721Z" transform="translate(-952.647 -389.975)"/><path class="k" d="M1057.357,436.8a91.223,91.223,0,0,1,22.984,28.495Z" transform="translate(-976.091 -389.723)"/><path class="l" d="M1044.116,404.876a30.447,30.447,0,1,1-30.448-30.448A30.347,30.347,0,0,1,1044.116,404.876Z" transform="translate(-957.911 -374.428)"/><path class="m" d="M1062.7,522.872a15.391,15.391,0,0,1-4.98,9.164c-8.282,7.353-27.777,21.461-55.043,20.139-22.027-1.069-37.708-11.654-45.423-18.135a16.772,16.772,0,0,1-5.673-9.592,100.368,100.368,0,0,1-1.895-19.328,88.93,88.93,0,0,1,9.1-39.746l.006-.012a88.6,88.6,0,0,1,21.319-27.42.416.416,0,0,1,.613.075,30.45,30.45,0,0,0,49.968-.765.418.418,0,0,1,.614-.091,91.16,91.16,0,0,1,22.627,28.2l.006.011C1065.826,488.528,1064.532,511.05,1062.7,522.872Z" transform="translate(-949.687 -389.788)"/></g><g transform="translate(350.883 77.187)"><path class="g" d="M1113.394,493.578a91.9,91.9,0,0,1,22.458-28.734Z" transform="translate(-1103.951 -415.24)"/><path class="g" d="M1212.49,463.777a94.568,94.568,0,0,1,23.824,29.537Z" transform="translate(-1128.252 -414.978)"/><path class="g" d="M1198.763,430.686a31.426,31.426,0,0,1-1.8,10.519c-.2.57-.418,1.129-.653,1.683a31.155,31.155,0,0,1-2.665,5.032v.005l-.267.392,0,.005c-.178.261-.356.522-.544.779s-.371.512-.564.762-.371.475-.559.711a.573.573,0,0,0-.057.073c-.188.225-.377.449-.565.669a.192.192,0,0,0-.032.036c-.2.235-.407.46-.616.685-.167.189-.345.371-.523.554-.125.136-.256.272-.392.4-.168.172-.34.334-.507.5-.177.178-.36.345-.549.518l-.146.131c-.162.146-.334.3-.5.439-.225.193-.45.387-.674.57-.136.115-.272.22-.408.324-.146.12-.293.235-.445.35-.224.168-.449.334-.674.5-.162.115-.324.229-.486.34-.36.251-.721.491-1.092.726-.14.089-.282.178-.423.261-.152.1-.309.189-.466.282-.235.136-.475.277-.721.408a1.01,1.01,0,0,1-.131.068s.005,0,0,.005c-.23.125-.46.245-.7.366-.288.151-.58.292-.873.433s-.585.272-.883.4c-.272.121-.538.235-.815.346-.042.015-.078.031-.12.047-.225.088-.455.177-.685.261-.371.141-.747.277-1.124.4-.308.1-.611.2-.919.293a.259.259,0,0,1-.026.005L1176,461c-.193.057-.387.109-.58.162-.387.1-.779.2-1.181.292-.318.073-.642.141-.967.2s-.658.125-.987.178c-.193.031-.387.063-.586.084-.156.031-.313.052-.475.068q-.971.125-1.959.188c-.282.02-.569.036-.857.042-.4.021-.8.026-1.2.026a31.58,31.58,0,0,1-5.79-.533c-.313-.058-.627-.121-.935-.189s-.617-.136-.925-.214c-.24-.057-.475-.12-.715-.188-.669-.183-1.333-.386-1.991-.617-.261-.088-.517-.183-.778-.282l-.125-.048c-.225-.084-.445-.172-.669-.266-.068-.026-.141-.057-.214-.084-.251-.109-.5-.214-.752-.329a.677.677,0,0,0-.073-.031c-.161-.073-.329-.152-.491-.23s-.324-.152-.486-.235c-.789-.386-1.557-.8-2.31-1.259q-.313-.188-.626-.392c-.2-.121-.4-.251-.6-.387-.146-.094-.287-.193-.428-.287-.5-.346-.988-.706-1.469-1.082-.125-.094-.245-.188-.365-.292-.157-.121-.314-.246-.465-.377-.189-.152-.377-.313-.559-.476-.146-.125-.293-.256-.434-.392-.136-.115-.272-.241-.4-.366-.026-.026-.052-.047-.073-.068-.193-.183-.387-.371-.574-.565-.178-.172-.35-.344-.518-.522s-.35-.365-.517-.554c-.016-.016-.032-.026-.037-.042-.151-.162-.3-.324-.439-.491-.131-.141-.256-.288-.382-.439-.036-.048-.078-.094-.115-.141-.125-.146-.251-.3-.371-.45-.152-.188-.3-.376-.444-.569-.183-.236-.361-.476-.538-.722-.005-.005-.005-.011-.011-.016-.094-.125-.188-.256-.277-.386a31.571,31.571,0,0,1,16.184-48.081,30.845,30.845,0,0,1,6.161-1.328,31.9,31.9,0,0,1,3.553-.2,31.371,31.371,0,0,1,13.864,3.2,146.759,146.759,0,0,1,8.021,16.843,28.7,28.7,0,0,1,6.851-.82c.1,0,.214,0,.318,0A31.483,31.483,0,0,1,1198.763,430.686Z" transform="translate(-1109.407 -399.123)"/><path class="g" d="M1218.028,553a15.953,15.953,0,0,1-5.162,9.5c-8.586,7.622-28.793,22.246-57.056,20.876-22.832-1.108-39.087-12.08-47.083-18.8a17.387,17.387,0,0,1-5.88-9.943,104.062,104.062,0,0,1-1.964-20.035,92.175,92.175,0,0,1,9.436-41.2l.007-.013a91.845,91.845,0,0,1,22.1-28.423.433.433,0,0,1,.635.078,31.564,31.564,0,0,0,51.794-.793.432.432,0,0,1,.637-.094,94.484,94.484,0,0,1,23.455,29.229l.007.011C1221.27,517.4,1219.927,540.743,1218.028,553Z" transform="translate(-1100.883 -415.046)"/></g><g transform="translate(386.061 96.413)"><path class="n" d="M1183.762,484.92c.1-.094.208-.183.313-.272l-.157.2Z" transform="translate(-1156.385 -439.322)"/><path class="g" d="M1247.544,483.67a86.414,86.414,0,0,1,21.771,26.991Z" transform="translate(-1172.026 -439.082)"/><path class="g" d="M1236.451,453.435a28.726,28.726,0,0,1-4.677,15.75c-.078.125-.162.245-.246.365-.031.042-.057.089-.089.131-.12.173-.24.345-.36.512a.984.984,0,0,1-.084.115c-.125.183-.261.361-.4.538a1.184,1.184,0,0,0-.073.1c-.1.125-.2.256-.3.381-.109.141-.229.288-.345.429-.015.021-.036.042-.052.063-.1.12-.2.241-.3.361-.083.1-.172.2-.261.3-.125.146-.251.288-.386.429a.575.575,0,0,1-.078.084c-.168.188-.345.376-.528.559q-.807.831-1.678,1.593c-.151.131-.3.261-.454.387-.094.083-.188.161-.287.24-.177.146-.356.288-.538.429a.556.556,0,0,1-.125.094c-.068.053-.136.11-.2.157-.1.084-.209.162-.314.235-.161.12-.324.24-.5.355-.089.063-.177.126-.266.183-.1.073-.209.146-.319.22-.24.162-.48.319-.726.47s-.491.3-.742.449-.506.293-.763.429-.491.261-.737.386c-.157.078-.313.162-.475.236s-.318.156-.481.224c-.434.2-.873.392-1.322.575-.251.1-.506.2-.762.293l-.314.109c-.245.089-.491.173-.742.256-.308.1-.627.2-.94.288-.032.011-.057.016-.089.026-.068.02-.136.036-.2.057l-.47.125c-.256.068-.512.131-.773.188-.22.053-.439.1-.664.141-.674.136-1.353.251-2.043.34l-.12.016c-.282.036-.559.068-.842.094s-.59.052-.888.068c-.261.02-.528.031-.794.042-.078.005-.157.005-.235.005-.282.011-.565.016-.852.016-.272,0-.538-.005-.8-.016-.078,0-.157,0-.235-.005-.261-.005-.522-.021-.784-.036-.287-.016-.57-.037-.857-.063a.132.132,0,0,1-.041,0c-.266-.026-.534-.053-.8-.089-.33-.037-.654-.084-.977-.136-.293-.047-.586-.094-.873-.152q-.8-.148-1.583-.345c-.115-.026-.225-.052-.34-.084-.22-.057-.434-.115-.648-.177q-.839-.243-1.661-.533c-.266-.089-.528-.189-.79-.288s-.538-.214-.8-.329-.533-.23-.794-.35c-.528-.241-1.045-.5-1.557-.768l-.131-.068v-.005c-.146-.078-.293-.156-.445-.245-.1-.057-.209-.115-.308-.173s-.22-.131-.33-.193c-.031-.02-.068-.042-.1-.063-.2-.125-.4-.245-.6-.376-.036-.021-.067-.042-.1-.063a.217.217,0,0,1-.042-.032c-.214-.136-.429-.277-.632-.418-.152-.1-.3-.2-.449-.313-.13-.089-.261-.183-.387-.277-.177-.131-.35-.261-.522-.4-.13-.1-.261-.2-.392-.3-.042-.031-.084-.068-.125-.1-.078-.068-.152-.131-.23-.189-.172-.146-.345-.292-.513-.439-.235-.2-.465-.413-.694-.622-.136-.125-.266-.251-.4-.377.042-1.306.063-2.612.063-3.929,0-1.024-.016-2.043-.047-3.062v-.005a117.2,117.2,0,0,0-4.441-29.226,28.9,28.9,0,0,1,17.531-12.609,28.7,28.7,0,0,1,6.851-.82c.1,0,.214,0,.318,0A28.834,28.834,0,0,1,1236.451,453.435Z" transform="translate(-1156.254 -424.595)"/><path class="o" d="M1183.918,484.911a.425.425,0,0,0-.156.073" transform="translate(-1156.385 -439.386)"/><path class="g" d="M1253.078,565.2a14.559,14.559,0,0,1-4.719,8.68,78.032,78.032,0,0,1-28.38,16.079,68.951,68.951,0,0,1-23.756,2.994,70.18,70.18,0,0,1-26.07-6.417,75.9,75.9,0,0,1-16.952-10.759,15.719,15.719,0,0,1-2.812-3.078,15.923,15.923,0,0,1-2.566-6.01c-.11-.565-.225-1.155-.334-1.771a117.118,117.118,0,0,0,31.4-76.121c.131.126.262.251.4.377.229.209.46.418.694.622.168.146.34.292.513.439.078.057.152.121.23.189.042.031.083.068.125.1.131.1.261.2.392.3.172.136.345.266.522.4.126.094.257.188.387.277.146.109.3.214.449.313.2.141.418.282.632.418a.218.218,0,0,0,.042.032c.037.02.068.042.1.063.2.131.4.251.6.376.036.021.073.042.1.063.11.063.22.131.33.193s.2.115.308.173c.152.089.3.167.445.245.042.026.083.048.131.073.512.272,1.029.528,1.557.768.261.12.528.241.794.35s.533.225.8.329.523.2.789.288c.543.2,1.1.371,1.661.533.214.063.429.12.648.177.115.032.225.057.34.084q.783.2,1.583.345c.292.057.58.109.873.152.324.052.648.1.977.136.266.036.533.063.8.089a.132.132,0,0,0,.041,0c.288.026.57.048.857.063.261.015.522.031.784.036.078.005.157.005.235.005.266.011.533.016.8.016.287,0,.57-.005.852-.016.078,0,.156,0,.235-.005.266-.011.533-.021.794-.042.3-.016.6-.042.888-.068s.559-.058.842-.094l.12-.016c.69-.088,1.369-.2,2.043-.34.225-.042.444-.088.664-.141.261-.057.517-.12.773-.188l.47-.125c.068-.021.136-.037.2-.057.032-.011.057-.016.089-.026.313-.089.633-.188.94-.288.251-.083.5-.167.742-.256l.314-.109c.256-.094.512-.193.762-.293.45-.183.888-.371,1.322-.575.162-.068.324-.146.481-.224s.319-.157.476-.236c.245-.125.491-.256.737-.386s.512-.277.763-.429.5-.3.742-.449.486-.309.726-.47c.2-.131.392-.266.586-.4.172-.115.334-.235.5-.355.178-.125.351-.257.518-.392a.551.551,0,0,0,.125-.094c.183-.141.361-.282.538-.429.1-.078.194-.157.287-.24.152-.126.3-.257.454-.387q.871-.76,1.678-1.593c.183-.183.36-.371.528-.559a.576.576,0,0,0,.079-.084c.136-.141.261-.282.386-.429.089-.1.178-.2.261-.3.1-.12.2-.241.3-.361.016-.021.037-.042.052-.063.115-.141.236-.288.345-.429.1-.125.2-.256.3-.381.021-.032.047-.068.073-.1.136-.177.272-.355.4-.538a.984.984,0,0,0,.084-.115c.12-.168.24-.34.36-.512.032-.042.058-.088.089-.131a.405.405,0,0,1,.4-.172h.005a.41.41,0,0,1,.178.089c.585.491,1.191,1.014,1.818,1.562q.313.274.627.564c.214.189.423.387.642.586l.648.6c.22.2.439.413.658.622s.445.429.669.648.45.439.675.664.454.454.679.689.475.486.715.737.481.5.721.763c.214.224.423.454.638.689.236.257.465.512.7.774.47.533.946,1.076,1.421,1.636.235.277.475.559.711.847s.476.58.71.873c.12.141.235.288.355.433.1.136.209.277.319.413q.275.345.549.706c.152.2.3.4.46.6.131.173.261.35.392.528.235.313.47.632.7.956.9,1.248,1.793,2.555,2.665,3.924.23.361.46.721.685,1.087.021.032.042.068.063.1.267.433.534.872.795,1.316v.005c.141.236.277.47.418.711.063.1.12.209.183.319.177.313.361.638.538.956.162.288.318.58.476.873.272.5.538,1.008.8,1.526,0,.005.005.005.005.011C1256.041,532.665,1254.813,554,1253.078,565.2Z" transform="translate(-1147.49 -439.144)"/></g><g class="p" transform="translate(455.148 115.223)"><path class="g" d="M1250.456,535.826a83.994,83.994,0,0,1,20.521-26.257Z" transform="translate(-1241.828 -464.243)"/><path class="g" d="M1341.01,508.594a86.419,86.419,0,0,1,21.771,26.991Z" transform="translate(-1264.034 -464.004)"/><path class="g" d="M1328.468,478.357a28.84,28.84,0,1,1-28.84-28.84A28.752,28.752,0,0,1,1328.468,478.357Z" transform="translate(-1246.813 -449.517)"/><path class="g" d="M1346.071,590.123a14.579,14.579,0,0,1-4.717,8.68c-7.845,6.965-26.311,20.328-52.136,19.075a72.85,72.85,0,0,1-43.025-17.177,15.883,15.883,0,0,1-5.373-9.086,95.019,95.019,0,0,1-1.795-18.308,84.231,84.231,0,0,1,8.622-37.647l.006-.012a83.94,83.94,0,0,1,20.193-25.972.4.4,0,0,1,.581.071,28.842,28.842,0,0,0,47.33-.724.4.4,0,0,1,.583-.085,86.369,86.369,0,0,1,21.432,26.709l.005.009C1349.032,557.592,1347.806,578.925,1346.071,590.123Z" transform="translate(-1239.024 -464.066)"/></g><path class="q" d="M1129.845,434.271c-.091-.674-.193-1.348-.294-2.022.006-.005,0-.005,0-.005q-.722-4.816-1.733-9.525A159.406,159.406,0,0,0,893.659,317.426a160.1,160.1,0,0,0-48.452,42.279q-2.88,3.78-5.533,7.742c-.011.005-.011.005-.011.011a.334.334,0,0,0-.062.1l-.006.005a158.544,158.544,0,0,0-26.9,88.62c0,1.467.023,2.934.062,4.389a159.327,159.327,0,0,0,282.005,97.194c.527-.634,1.048-1.274,1.563-1.914a158.641,158.641,0,0,0,35.009-97.465c.006-.737.011-1.467.011-2.2A160.734,160.734,0,0,0,1129.845,434.271Zm-269.433,59.5a126.877,126.877,0,0,1-9.236-41.793q-.154-3.134-.153-6.3a127.411,127.411,0,0,1,254.783-3.325v.006c.034,1.1.051,2.208.051,3.319,0,1.427-.023,2.842-.068,4.258a127.441,127.441,0,0,1-245.377,43.837Z" transform="translate(-679.327 -296.858)"/><path class="r" d="M1122.26,444.345c.005-.005,0-.005,0-.005a133.8,133.8,0,0,0-6.6-34.952,135.387,135.387,0,0,0-11.343-25.28c-.742-1.279-1.5-2.548-2.271-3.794a135.248,135.248,0,0,0-182.473-45.705q-1.317.764-2.611,1.552a134.462,134.462,0,0,0-45.983,46.368q-2.71,4.545-5.034,9.27c-.006,0-.006,0-.006.006-.113.226-.226.458-.334.691a135.8,135.8,0,0,0-13.353,68.613,133.708,133.708,0,0,0,6.937,34.323v.005a135.324,135.324,0,0,0,214.5,60.277,133.362,133.362,0,0,0,10.833-10.046,135.421,135.421,0,0,0,37.687-85.958V459.7A135.036,135.036,0,0,0,1122.26,444.345Zm-40.876,92.89a128.179,128.179,0,0,1-15.862,14.424A127.367,127.367,0,0,1,860.8,456.787q-.154-3.134-.153-6.3a127.411,127.411,0,0,1,254.783-3.325v.006c.034,1.1.051,2.208.051,3.319,0,1.427-.023,2.842-.068,4.258A126.927,126.927,0,0,1,1081.384,537.235Z" transform="translate(-688.952 -301.667)"/><g transform="translate(0 255.385)"><path class="q" d="M848.123,651.851a10.621,10.621,0,0,1-2.251,6.812l-131.6,160.617-6.2,7.568q-2.007,2.453-4.218,4.792c-14.76,12.858-36.9,18.933-53.1,11.82-17.1-7.508-19.052-25.614-7.316-41.554q1.534-1.5,3.169-2.966l12.9-11.6,166.625-149.8c4.584-4.123,12.341-2.554,17.452,3.125A17.151,17.151,0,0,1,848.123,651.851Z" transform="translate(-635.998 -635.218)"/><path class="q" d="M707.56,869.933a41.428,41.428,0,0,1-3.218,4.72,49.142,49.142,0,0,1-6.311,6.61c-13.495,11.786-33.739,17.354-48.547,10.836-15.635-6.883-17.419-23.479-6.688-38.09a50,50,0,0,1,7.595-8.146,54.815,54.815,0,0,1,7.1-5.2c15.071-9.315,33.29-10.669,44.416-3.822C712.8,843.539,715.062,857.043,707.56,869.933Z" transform="translate(-635.998 -683.604)"/></g><path class="s" d="M1115.233,530.7c.526-10.042-2.544-14.243-3.632-15.567-3.184-3.874-8.854-7.081-13.541-5.354-4.158,1.531-6.728,5.776-9.115,9.672a212.915,212.915,0,0,1-21.5,29.2c-6.663,7.592-14,14.778-22.843,19.274-11.984,6.089-25.848,6.8-39.231,6-9.25-.548-20.216-1-25.681,6.787-5.014,7.145-2.1,18.167,4.369,24.1s15.366,7.817,23.849,8.4c36.259,2.481,63.32-16.965,64.851-18.054,14.825-10.552,22.463-21.967,31.066-34.826C1109.655,551.627,1114.619,542.419,1115.233,530.7Z" transform="translate(-719.658 -348.954)"/></g><path class="t" d="M1099.025,351.2c7.039,4.582,8.845,17.93,4.315,25.89-3.914,6.88-10.2,5.594-25.89,12.946-20.689,9.7-28.39,20.664-34.521,17.26-4.759-2.642-4.372-11.614-4.315-12.945C1039.76,367.737,1084.047,341.449,1099.025,351.2Z" transform="translate(-739.038 -228.787)"/></g></g><g transform="translate(1037.121 621.55)"><path class="u" d="M1202.708,771.037a20.244,20.244,0,0,1,1.263,4.914c.351,2.457-.842,4.634-.912,7.02a5.1,5.1,0,0,0,6.739,5.124c2.808-1.053,5.476-3.861,8.494-2.667,1.9.772,3.931,2.738,6.037.983a20.8,20.8,0,0,0,2.538-2.4,16.4,16.4,0,0,0,.125-2.023,15.532,15.532,0,0,0-15.27-15.781,14.915,14.915,0,0,0-9.78,3.661A3.325,3.325,0,0,1,1202.708,771.037Z" transform="translate(-1196.451 -766.205)"/><path class="u" d="M1222.545,787.6c-2.106,1.755-4.142-.211-6.037-.983-3.018-1.193-5.686,1.614-8.494,2.667a5.1,5.1,0,0,1-6.739-5.124c.07-2.387,1.264-4.563.912-7.02a20.244,20.244,0,0,0-1.263-4.914,3.323,3.323,0,0,0-.766-1.171,15.961,15.961,0,0,0-5.491,12.119,15.249,15.249,0,0,0,30.416,2.023A20.8,20.8,0,0,1,1222.545,787.6Z" transform="translate(-1194.667 -767.395)"/></g><g transform="translate(1038.467 176.319)"><path class="v" d="M1226.881,194.606a76.635,76.635,0,0,1,4.782,18.6c1.328,9.3-3.188,17.534-3.454,26.567-.531,13.549,12.486,24.176,25.5,19.394,10.627-3.985,20.722-14.612,32.146-10.1,7.173,2.922,14.877,10.361,22.848,3.719a78.859,78.859,0,0,0,9.606-9.088,62.317,62.317,0,0,0,.471-7.656c0-32.984-25.874-59.724-57.79-59.724a56.443,56.443,0,0,0-37.01,13.857A12.565,12.565,0,0,1,1226.881,194.606Z" transform="translate(-1203.203 -176.319)"/><path class="w" d="M1301.955,257.289c-7.97,6.642-15.674-.8-22.848-3.719-11.424-4.517-21.519,6.11-32.146,10.1-13.018,4.782-26.035-5.845-25.5-19.394.266-9.032,4.782-17.268,3.454-26.567a76.635,76.635,0,0,0-4.782-18.6,12.565,12.565,0,0,0-2.9-4.43,60.4,60.4,0,0,0-20.78,45.867c0,32.985,25.874,59.724,57.791,59.724,29.407,0,53.683-22.7,57.319-52.069A78.857,78.857,0,0,1,1301.955,257.289Z" transform="translate(-1196.451 -180.821)"/></g></g></svg>