<svg xmlns="http://www.w3.org/2000/svg" xmlns:xlink="http://www.w3.org/1999/xlink" width="495.161" height="490.184" viewBox="0 0 495.161 490.184"><defs><style>.a,.k,.r,.s,.u{fill:none;}.b{clip-path:url(#a);}.c{fill:url(#b);}.d{fill:url(#c);}.e{fill:url(#d);}.f{fill:url(#e);}.g{fill:url(#f);}.h{fill:url(#g);}.i,.j{fill:url(#h);}.j{opacity:0.72;}.k,.s{stroke:#fff;}.k,.u{stroke-linecap:round;stroke-linejoin:round;}.k{stroke-width:1.7px;}.l{fill:url(#t);}.m{fill:url(#u);}.n{fill:#434347;stroke-width:0.838px;}.n,.r,.t,.u{stroke:#100052;}.n,.r,.s,.t{stroke-miterlimit:10;}.o{fill:#ffefd1;}.p{fill:#12073c;}.q{fill:#feca84;}.r,.s{stroke-width:0.567px;}.t{fill:#100052;stroke-width:1.645px;}.u{stroke-width:1.134px;}</style><clipPath id="a"><path class="a" d="M748.745,658.7c-68.118-17.472-137.755-44.541-150.02-123.159-9.453-60.6,17.873-120.864,61.172-162.21,18.249-17.425,39.337-32.394,62.423-42.682,26.66-11.881,59.72-13.083,83.4-31.018,28.843-21.845,25.9-55.416,44.976-82.3,19.286-27.181,58.452-39.741,90.539-36.255,70,7.6,103.443,79.733,121.608,138.8,22.451,73,46.638,145.491,11.27,219.109C1014.472,663.123,871.117,690.084,748.745,658.7Z" transform="translate(-596.857 -180.507)"/></clipPath><linearGradient id="b" x1="0.536" y1="0.474" x2="0.613" y2="-0.131" gradientUnits="objectBoundingBox"><stop offset="0" stop-color="#ff9077"/><stop offset="1" stop-color="#e9645a"/></linearGradient><linearGradient id="c" x1="0.489" y1="0.438" x2="0.568" y2="-0.27" xlink:href="#b"/><linearGradient id="d" x1="0.713" y1="-0.573" x2="0.336" y2="1.476" gradientUnits="objectBoundingBox"><stop offset="0" stop-color="#faebd8"/><stop offset="1" stop-color="#ffb83f"/></linearGradient><linearGradient id="e" x1="0.516" y1="0.293" x2="0.373" y2="1.104" xlink:href="#d"/><linearGradient id="f" x1="0.79" y1="-0.367" x2="0.005" y2="1.914" gradientUnits="objectBoundingBox"><stop offset="0" stop-color="#2a7195"/><stop offset="1" stop-color="#060c39"/></linearGradient><linearGradient id="g" x1="0.487" y1="0.494" x2="0.359" y2="1.008" xlink:href="#f"/><linearGradient id="h" y1="0.5" x2="1" y2="0.5" gradientUnits="objectBoundingBox"><stop offset="0" stop-color="#b9bdab"/><stop offset="1" stop-color="#769cae"/></linearGradient><linearGradient id="t" x1="0.384" y1="-0.476" x2="0.54" y2="0.964" xlink:href="#b"/><linearGradient id="u" x1="0.451" y1="0.068" x2="0.609" y2="1.081" xlink:href="#b"/></defs><g transform="translate(-596.857 -180.507)"><g transform="translate(596.856 180.507)"><g class="b"><g transform="translate(-8.089)"><path class="c" d="M794.223,411.124c41.347,21.639,76.511,52.553,124.041,59.508,44.052,6.569,86.172.387,124.427-25.117,22.676-14.8,40.729-32.942,53.327-55.045-5.548-23.515-12.973-47.028-20.221-70.594-18.165-59.065-51.612-131.195-121.608-138.8-32.087-3.486-71.253,9.074-90.539,36.255-19.072,26.88-16.133,60.451-44.976,82.3-23.679,17.935-56.74,19.136-83.4,31.018C712.19,340.935,691.1,355.9,672.852,373.328a216.3,216.3,0,0,0-35.287,43.752,138.451,138.451,0,0,1,15.615-7.5C697.618,391.416,749.785,387.552,794.223,411.124Z" transform="translate(-601.722 -180.507)"/><path class="d" d="M1029.736,543.518c-38.255,25.5-80.375,31.686-124.427,25.117-47.53-6.955-82.694-37.869-124.041-59.508-44.438-23.572-96.6-19.708-141.043-1.546a138.446,138.446,0,0,0-15.615,7.5c-21.5,35.3-32.383,76.8-25.885,118.458,12.264,78.618,81.9,105.686,150.02,123.159,122.372,31.387,265.727,4.426,325.367-119.713,23.951-49.852,20.588-99.188,8.951-148.515C1070.464,510.576,1052.411,528.717,1029.736,543.518Z" transform="translate(-588.768 -278.511)"/><path class="e" d="M716.059,761.247c3.435-1.066,5.448-5.093,9-5.567,4.5,3.79,7.817,10.778,14.687,9.83a2.833,2.833,0,0,0,1.777-1.539,24.115,24.115,0,0,0,1.227-2.267c-1.635-8.364-8.638-14.651-17.03-14.651a17.04,17.04,0,0,0-13.678,7.033c.161,1.171.357,2.336.581,3.489C712.86,759.115,713.216,761.958,716.059,761.247Z" transform="translate(-625.423 -360.799)"/><path class="f" d="M739.79,767.254a2.833,2.833,0,0,1-1.777,1.539c-6.87.948-10.186-6.04-14.687-9.83-3.553.474-5.567,4.5-9,5.567-2.843.71-3.2-2.132-3.435-3.672-.224-1.153-.42-2.318-.581-3.489a19,19,0,0,0-3.713,11.362c0,10.159,7.786,18.394,17.391,18.394s17.391-8.235,17.391-18.394a19.525,19.525,0,0,0-.361-3.744A24.087,24.087,0,0,1,739.79,767.254Z" transform="translate(-623.69 -364.082)"/><path class="g" d="M1156.749,313.018c5.4-2.026,10.534-7.428,16.341-5.132,3.647,1.486,7.563,5.267,11.615,1.891a40.091,40.091,0,0,0,4.883-4.62,31.6,31.6,0,0,0,.24-3.892c0-16.768-13.153-30.361-29.378-30.361a28.69,28.69,0,0,0-18.814,7.044,6.387,6.387,0,0,1,1.473,2.252,38.954,38.954,0,0,1,2.431,9.453c.675,4.727-1.621,8.913-1.756,13.505C1143.514,310.046,1150.132,315.448,1156.749,313.018Z" transform="translate(-762.132 -209.274)"/><path class="h" d="M1140.609,292.941a38.948,38.948,0,0,0-2.431-9.453,6.389,6.389,0,0,0-1.473-2.252,30.7,30.7,0,0,0-10.564,23.317c0,16.767,13.153,30.361,29.378,30.361,14.949,0,27.29-11.539,29.138-26.469a40.1,40.1,0,0,1-4.883,4.62c-4.052,3.376-7.968-.406-11.615-1.891-5.807-2.3-10.939,3.106-16.341,5.132-6.617,2.431-13.235-2.971-12.965-9.859C1138.988,301.855,1141.284,297.668,1140.609,292.941Z" transform="translate(-757.201 -212.562)"/><path class="i" d="M1148.974,591.138l1.107,33.2h-31.4l.543,34.487h-32.011l-.066,35.847H1054.5l-.932,47.914h167.427l-10.382-151.451Z" transform="translate(-734.107 -311.182)"/><path class="i" d="M1066.961,602.8l-.376,23.9H1154.3l-1.186-35.557h-1.69C1124.609,602.357,1096.26,605.583,1066.961,602.8Z" transform="translate(-738.249 -311.182)"/><path class="i" d="M1067.137,602.8c29.3,2.786,57.648-.439,84.465-11.658h-84.281Z" transform="translate(-738.425 -311.182)"/><path class="i" d="M1019.886,643.292l-1.235,37.03h89.535l-.583-37.03Z" transform="translate(-722.995 -327.779)"/><path class="i" d="M968.687,736.2h91.429l.072-38.6H970.654Z" transform="translate(-707.095 -345.063)"/><path class="i" d="M1009.969,794.487H916.563l2.76-40.267h91.43Z" transform="translate(-690.508 -363.08)"/><path class="i" d="M584.992,620.049h104.92l-.584-30.026H668.873l-.042-22.464h-20.06l.34-21.612h-19.68l.694-20.808H623.8a146.6,146.6,0,0,0-34.007,24.877Z" transform="translate(-584.992 -290.179)"/><path class="i" d="M592.033,550.017A146.6,146.6,0,0,1,626.04,525.14h-32.3Z" transform="translate(-587.233 -290.179)"/><path class="j" d="M650.845,525.14l-.743,22.282h54.969l-.351-22.282Z" transform="translate(-605.712 -290.179)"/><path class="j" d="M678.836,557.823l-.365,23.206h56.108l-.774-23.206Z" transform="translate(-614.74 -300.58)"/><path class="j" d="M707.973,591.86l.045,24.188h57.3l-1.232-24.188Z" transform="translate(-624.128 -311.412)"/><path class="j" d="M738.166,627.338l.491,25.234h58.535l-1.73-25.234Z" transform="translate(-633.737 -322.702)"/><path class="k" d="M1243.951,348.1a397.21,397.21,0,0,1,33.27,155.346" transform="translate(-794.692 -233.841)"/><path class="k" d="M687.324,460.327A261.83,261.83,0,0,1,821.2,389.659" transform="translate(-617.557 -247.065)"/><path class="k" d="M661.475,717.021c-24.6-29.933-33.976-71.773-24.491-109.342" transform="translate(-600.38 -316.446)"/><path class="k" d="M676.088,675.191a126.691,126.691,0,0,1-4.135-98.949" transform="translate(-610.083 -306.442)"/></g></g></g><g transform="translate(638.01 331.989)"><path class="l" d="M663.224,411.7c2.18-.677,3.458-3.232,5.713-3.533,2.857,2.405,4.961,6.84,9.321,6.239a1.8,1.8,0,0,0,1.128-.977,15.3,15.3,0,0,0,.779-1.439,11.214,11.214,0,0,0-10.809-9.3,10.816,10.816,0,0,0-8.681,4.464c.1.743.227,1.482.369,2.214C661.195,410.351,661.421,412.155,663.224,411.7Z" transform="translate(-658.32 -402.696)"/><path class="m" d="M678.287,415.517a1.8,1.8,0,0,1-1.128.977c-4.36.6-6.465-3.834-9.321-6.239-2.255.3-3.533,2.856-5.713,3.533-1.8.451-2.03-1.353-2.18-2.33-.142-.732-.267-1.471-.369-2.214a12.056,12.056,0,0,0-2.356,7.211c0,6.448,4.942,11.674,11.037,11.674S679.3,422.9,679.3,416.454a12.379,12.379,0,0,0-.229-2.377A15.3,15.3,0,0,1,678.287,415.517Z" transform="translate(-657.22 -404.779)"/></g><g transform="translate(741.819 260.814)"><path class="n" d="M841.382,396.747c-3.4-1.6-9.328-.179-12.558,1.819-3.379,2.09-5.951,5.239-8.34,8.413a165.57,165.57,0,0,0-10.608,15.93c-1.79,3.06,2.989,8.665,5.4,10.5a23.066,23.066,0,0,0,7.579,3.583c6.27,1.828,12.205,3.125,17.333-1.289,4.672-4.022,9.907-9.155,5.164-15.435-2.659-3.52-5.422-1.5-9.115-1.351,2.041-5.563,6.437-10.2,7.562-16.153C844.413,399.507,843.3,397.648,841.382,396.747Z" transform="translate(-809.484 -329.408)"/><path class="o" d="M889.943,798.269c8.559-2.484-18.63-7.262-20.633-8.146-5.447-2.406-11.176-10.476-14.4-1.659C847.7,808.209,880.985,800.87,889.943,798.269Z" transform="translate(-823.618 -453.004)"/><path class="o" d="M996.726,723.152c-4.116-6.721-15.46-10.351-19.967-17.046-3.626-5.386-7.517-17.919-13.785-6.326-5.108,9.447-1.864,15.365,3.382,17.574C967.424,717.8,1000.254,728.916,996.726,723.152Z" transform="translate(-857.512 -424.546)"/><path class="p" d="M883.481,539.782c-3.256-2.629-6.536-5.708-7.47-9.787-1.506-6.574,3.544-12.729,8.545-17.253q4.171-3.774,8.647-7.192c4.918-3.754,35.731,20.026,49.034,54.613a138.941,138.941,0,0,1,6.55,23.447,218.353,218.353,0,0,1,3.7,34.628q.217,6.829.065,13.664c-.085,3.659.963,9.353-.819,12.589-4.878-4.316-10.936-4.745-17.353-3.178,0-9.959-2.518-20.566-4.523-30.326-2.21-10.756-4.961-21.537-9.3-31.651C909.418,553.4,889.087,544.309,883.481,539.782Z" transform="translate(-830.568 -364.128)"/><path class="p" d="M878.613,608.725c-.421,12.881-9.789,71.681-12.148,84.9-.219,1.229-13.1,5.006-16.1.872-2.859-3.934,3.043-80.2,3.261-86.288.9-25.181-9.672-51.835-9.789-77.027-.047-10.175-1.393-21.659,1.962-31.479,4.089-11.97,16.429-18.233,28.588-15.334,10.177,2.426,11.686,14.7,10.6,23.432-.667,5.355-2.868,9.771-3.229,15.323q-.645,9.937-1.212,19.878C879.129,567.589,879.416,584.112,878.613,608.725Z" transform="translate(-820.318 -357.289)"/><path class="n" d="M977.766,416.609a2.4,2.4,0,0,0,.948.288,3.868,3.868,0,0,0,1.569-.338c3.941-1.447,8.532-2.512,12.207-4.537,3.084-1.7,5.981-3.606,9.487-4.542a2.964,2.964,0,0,1,1.413-.2c.959.172,1.516,1.163,1.876,2.067.547,1.37,1.663,3.782,1.164,5.267-.483,1.436-2.814,2.994-3.919,3.96a82.921,82.921,0,0,1-18.2,11.879,19.174,19.174,0,0,1-6.189,2.173,14.968,14.968,0,0,1-4.357-.292c-8.261-1.552-14.319-6.87-21.25-11.259-5.281-3.344-7.937-5.624-7.877-12.07a22.331,22.331,0,0,1,2.529-10.135c1.049-1.995,3.525-5.143,6.228-4.155,2.319.847,5.033,4.88,6.883,6.63q7.937,7.505,16.364,14.469A6.743,6.743,0,0,0,977.766,416.609Z" transform="translate(-852.494 -328.922)"/><path class="q" d="M947.4,388.821a113.617,113.617,0,0,1,9.329,7.56c2.4,2.165,7.5,5.841,8.54,8.652.919,2.482-2.867,6.411-4.226,8.49-1.478,2.261-4.716,9.173-7.789,9.154-5.828-.035-9.758-6.033-15.636-5.87-5.511.153-9.462,1.619-11.962-4.635a53.166,53.166,0,0,1-2.009-5.634,29.012,29.012,0,0,1-.347-12.614c.618-3.793.09-7.636,3.187-10.621,2.089-2.013,4.519-1.3,7.405-.64A34.813,34.813,0,0,1,947.4,388.821Z" transform="translate(-845.538 -324.929)"/><path class="q" d="M852.666,386.182c1.34-2.754,2.623-5.536,3.92-8.31,1.12-2.393,3.585-5.008-.117-5.162a26.158,26.158,0,0,0-13.715,3.687c-5.838,3.389-10.1,8.744-14.2,13.981-2.088,2.669-4.151,5.365-6.433,7.874-1.713,1.884-5.329,4.194-5.526,6.974a3.556,3.556,0,0,0,1.679,2.885,77.364,77.364,0,0,0,12.42,8.877,2.784,2.784,0,0,0,2.564.421,4.4,4.4,0,0,0,1.309-1.147c2.291-2.613,4.646-5.327,5.95-8.564.4-.991.693-2.019,1.185-2.972a21.519,21.519,0,0,1,1.8-2.681A105.344,105.344,0,0,0,852.666,386.182Z" transform="translate(-811.744 -321.974)"/><g transform="translate(146.873 65.281)"><path class="n" d="M1026.227,408.319q1.475-4.9,3.236-9.7a2.369,2.369,0,0,1,.585-1.019.82.82,0,0,1,1.078-.05,1.091,1.091,0,0,1,.235.747,6.179,6.179,0,0,1-.469,2.6" transform="translate(-1025.33 -395.108)"/><path class="n" d="M1024.912,412.259a51.359,51.359,0,0,1,3.934-7.446,2.3,2.3,0,0,1,.7-.791,2.2,2.2,0,0,1,.976-.235c2.129-.151,4.241-.1,5.849,1.459a4.188,4.188,0,0,1,1.062,3.9c-.278,1.923-.27,3.711-1.4,5.4a11.109,11.109,0,0,1-1.735,1.929c-1.27,1.179-2.645,2.2-4.016,3.253" transform="translate(-1024.912 -397.132)"/><path class="n" d="M1030.919,401.639a20.253,20.253,0,0,1,4.674-4.556,23.265,23.265,0,0,1,2.984-1.788,8.738,8.738,0,0,1,3.11-1.242,1.036,1.036,0,0,1,.873.359.619.619,0,0,1,0,.656,2.026,2.026,0,0,1-.485.515,56.44,56.44,0,0,0-7.135,6.594" transform="translate(-1026.824 -394.052)"/><path class="n" d="M1034.437,403.069q2.166-2.292,4.565-4.417a12.948,12.948,0,0,1,5.874-3.407,2.577,2.577,0,0,1,1.228-.019c.4.116.761.451.716.791a1,1,0,0,1-.421.569c-1.67,1.4-3.489,2.672-5.087,4.127a12.286,12.286,0,0,0-3.618,5.057" transform="translate(-1027.943 -394.404)"/><path class="n" d="M1037.576,405.692c2.243-2.534,4.553-5.12,7.773-6.79a3.367,3.367,0,0,1,2.1-.487,1,1,0,0,1,.734.432c.194.388-.213.749-.573,1a34.241,34.241,0,0,0-7.182,7.624,1.175,1.175,0,0,0-.354.978" transform="translate(-1028.942 -395.43)"/><path class="n" d="M1039.854,408.476a23.354,23.354,0,0,1,5.931-6.149,2.626,2.626,0,0,1,1.363-.5c.52-.006,1.11.322,1.134.754a1.074,1.074,0,0,1-.41.736,42.628,42.628,0,0,0-6.278,8.271" transform="translate(-1029.667 -396.525)"/></g><path class="r" d="M868.046,384.138q-7.249,12.13-13.481,24.829" transform="translate(-823.83 -325.616)"/><path class="s" d="M877.3,548.728a184.243,184.243,0,0,0,18.841,13.245" transform="translate(-831.064 -377.993)"/><path class="a" d="M839.632,508.025c7.212-2.834,17.844-1.548,25-1.024,15.3,1.12,31.668,2.81,43.2,13.756" transform="translate(-819.078 -364.476)"/><path class="q" d="M856.541,373.439a18.558,18.558,0,0,0-7.017,7.224c-3.755,6.4-6.506,13.451-6.715,20.97-.249,8.927,1.66,17.783,1.164,26.712-.476,8.563-1.152,16.964-.776,25.576.059,1.329,1.382,15.547,1.415,15.539.015,0,34.373-8.635,59.789,8.785,0,0-11.271-30.3-2.615-52.513,3.771-9.678,7.074-19.943,7.863-30.362.523-6.911-.4-13.517-6.139-18.113-.112-.089-.226-.177-.343-.262-1.771-1.277-4.241-1.914-6.269-2.653-1.9-.693-3.727-1.694-5.676-2.239a67.82,67.82,0,0,0-7.143-1.227,66.382,66.382,0,0,0-14.967-.314C864.073,370.886,859.984,371.53,856.541,373.439Z" transform="translate(-820.081 -321.21)"/><path class="n" d="M916.628,328.858l-.008-.043c-.237-1.307-.385-2.634-.592-3.95a8.236,8.236,0,0,1-.138-1.391,9.958,9.958,0,0,1,.457-2.233,4.054,4.054,0,0,0-.05-1.9,9.929,9.929,0,0,0-.684-2.032c-2.045-4.344-5.88-7.167-10.315-8.772-5-1.81-9.668-3.921-15.09-1.974-4.816,1.729-7,5.859-7.67,9.768a22.792,22.792,0,0,0,2.758,14.818,24.775,24.775,0,0,0,4.99,6.612,37.177,37.177,0,0,0,13.35,7.082,4.169,4.169,0,0,0,1.919.393,20.371,20.371,0,0,1,3.062-.267l3.333-.228a3.451,3.451,0,0,0,1.874-.5,3.176,3.176,0,0,0,.922-1.394,22.479,22.479,0,0,0,1.044-3.232q.208-.848.359-1.706C916.229,337.47,917.084,331.406,916.628,328.858Z" transform="translate(-832.639 -300.682)"/><path class="n" d="M905.433,357.731c.276-2.073.556-5.835-1.173-7.549-3.688-3.654-8.487-1.024-12.961,2.544-1.11.885-1.637,1.118-1.511,2.27.267,2.446-7.12,11.669-7.12,11.669s-.359,2.094,5.121,2.668,16.415-3.04,16.415-3.04S905.11,360.157,905.433,357.731Z" transform="translate(-832.772 -314.251)"/><path class="t" d="M918.9,307.419c2.094,3.907.769,9.156-2.626,12.006a5.294,5.294,0,0,1,.687,6.8c-1.576,2.32-3.592,1.993-5.819,2.943-2.18.93-2.419,3.682-3.857,5.573-4.157,5.465-12.7,10.695-19.428,6.053-1.9-1.312-2.88-3.565-3.766-5.7-.724-1.744-1.143-3.495-1.947-5.236-1.02-2.208-1.4-4.864-2.023-7.216-.7-2.653-1.3-5.778.443-7.893a2.84,2.84,0,0,0,.85-1.354,2.434,2.434,0,0,0-.151-.914c-1.327-4.736,2.817-9.4,7.673-9.755,1.261-.091,1.661.081,2.761-.846a16.353,16.353,0,0,1,2.593-2.345,10.5,10.5,0,0,1,5.141-1.237,12.255,12.255,0,0,1,7.427,2.887c2.157,1.778,2.875,2.859,5.856,3C915.5,304.319,917.471,304.761,918.9,307.419Z" transform="translate(-831.74 -298.299)"/><path class="u" d="M851.044,393.528a68.87,68.87,0,0,0-3.827,13.556c-1.58,7.716-3.968,17.438-2.356,25.343" transform="translate(-820.571 -328.604)"/><path class="n" d="M922.5,343.1c.485-1.164.333-7.932-1.717-7.542-1.235.237-1.586,2.643-1.791,3.621-.458,2.184,1.115,4.1,1.1,6.321,0,.748-.316,1.483.631,1.144.764-.273,1.233-1.6,1.39-2.288" transform="translate(-844.306 -310.15)"/></g></g></svg>