<svg xmlns="http://www.w3.org/2000/svg" xmlns:xlink="http://www.w3.org/1999/xlink" width="583.573" height="447.41" viewBox="0 0 583.573 447.41"><defs><style>.a,.j{fill:none;}.b{clip-path:url(#a);}.c{fill:url(#b);}.d{fill:url(#c);}.e,.f,.h{fill:#434347;}.e,.f,.h,.i,.j{stroke:#100052;stroke-linecap:round;stroke-linejoin:round;}.e{stroke-width:0.939px;}.f{stroke-width:0.939px;}.g{fill:#feca84;}.h{stroke-width:0.997px;}.i{fill:#100052;stroke-width:1.01px;}.j{stroke-width:0.559px;}.k{fill:url(#d);}.l{fill:url(#e);}.m{fill:url(#f);}.n{fill:url(#g);}.o{fill:url(#h);}.p{fill:#e0858c;}.q{fill:url(#i);}.r{fill:url(#j);}.s{fill:url(#k);}.t{fill:url(#l);}.u{fill:#fff;}</style><clipPath id="a"><path class="a" d="M637.432,250.614c84.185-58.62,181.981-28.249,262.121-3.361,60.255,18.712,207.393,64.407,221.8,161.305,15.017,101.032-120.687,214.527-252.04,235.238-114,17.975-282.045-24.9-319.251-154.585C525.57,403.853,563.791,301.891,637.432,250.614Z" transform="translate(-542.669 -216.844)"/></clipPath><linearGradient id="b" x1="0.513" y1="0.879" x2="0.453" y2="-0.236" gradientUnits="objectBoundingBox"><stop offset="0" stop-color="#2a7195"/><stop offset="1" stop-color="#060c39"/></linearGradient><linearGradient id="c" x1="0.518" y1="0.779" x2="0.45" y2="-0.319" xlink:href="#b"/><linearGradient id="d" x1="0.713" y1="-0.573" x2="0.336" y2="1.476" gradientUnits="objectBoundingBox"><stop offset="0" stop-color="#ff9077"/><stop offset="1" stop-color="#e9645a"/></linearGradient><linearGradient id="e" x1="0.516" y1="0.293" x2="0.373" y2="1.104" xlink:href="#d"/><linearGradient id="f" x1="0.538" y1="0.354" x2="0.334" y2="1.011" gradientUnits="objectBoundingBox"><stop offset="0" stop-color="#faebd8"/><stop offset="1" stop-color="#ffb83f"/></linearGradient><linearGradient id="g" x1="0.487" y1="0.494" x2="0.359" y2="1.008" xlink:href="#f"/><linearGradient id="h" x1="0.525" y1="-1.013" x2="0.501" y2="0.688" gradientUnits="objectBoundingBox"><stop offset="0" stop-color="#e0858c"/><stop offset="1" stop-color="#d85b6b"/></linearGradient><linearGradient id="i" x1="0.444" y1="-0.002" x2="0.494" y2="0.885" xlink:href="#h"/><linearGradient id="j" x1="-0.086" y1="-0.513" x2="0.537" y2="0.359" xlink:href="#h"/><linearGradient id="k" x1="0.816" y1="-3.992" x2="0.077" y2="6.521" xlink:href="#h"/><linearGradient id="l" x1="0" y1="0.5" x2="1" y2="0.5" xlink:href="#h"/></defs><g transform="translate(-537.043 -192.011)"><g transform="translate(540.793 208.565)"><g class="b" transform="translate(0)"><path class="c" d="M1171.869,450.868c-23.714-32.183-41.5-64.367-70.719-90.622-11.857-11.01-25.408-20.327-41.5-22.444-36.418-5.505-69.025,7.2-99.939,23.714C874.594,406.4,806.839,467.808,734.426,531.751c-34.724,30.49-66.485,59.286-102.9,88.505-20.326,16.092-40.229,30.066-62.673,42.77-28.373,16.092-57.592,27.949-90.2,32.184a233.262,233.262,0,0,1-86.549-6.573V883.231h813.061V493.687q-1.422-1.689-2.8-3.435C1191.772,476.7,1182.033,465.267,1171.869,450.868Z" transform="translate(-492.475 -256.733)"/><path class="d" d="M392.1-63.013V555.454a233.262,233.262,0,0,0,86.549,6.573c32.607-4.234,61.826-16.092,90.2-32.184,22.444-12.7,42.347-26.678,62.673-42.77,36.418-29.219,68.179-58.015,102.9-88.505,72.413-63.944,140.168-125.347,225.286-170.235,30.913-16.515,63.52-29.219,99.939-23.714,16.092,2.117,29.643,11.434,41.5,22.444,29.219,26.255,47,58.439,70.719,90.622,10.164,14.4,19.9,25.832,30.49,39.383q1.381,1.749,2.8,3.435V-63.013Z" transform="translate(-492.475 -123.549)"/><g transform="translate(57.911 102.971)"><g transform="translate(273.655 124.07)"><path class="e" d="M1281.959,591.95c.093.175.186.347.279.523l-6.761-9.408.264-.051a9.1,9.1,0,0,1,2,.635,15.2,15.2,0,0,1,6.834,6.855Q1283.266,591.224,1281.959,591.95Z" transform="translate(-1118.526 -565.952)"/><path class="e" d="M1235.047,592.866c-.44.215-.863.439-1.266.674.387-.233.793-.458,1.224-.676Z" transform="translate(-1104.627 -569.236)"/><path class="f" d="M1194.709,573.905l-.086.4a11,11,0,0,1,2.632.173l-.264.051,6.761,9.408c-.093-.175-.186-.348-.279-.523q1.307-.723,2.618-1.447c3.715,6.858,4.131,16.484-.229,21.241-2.573,2.809-6.372,3.235-13.969,4.089-7.855.881-12.817,1.424-17.548-1.037-3.081,5.819-5.721,11.892-9.256,17.442-6.06,9.514-4.68,8.788-11.51,20.048-15.755,25.967-25.248,41.19-38.035,41.667-4.428.166-7.823-1.489-10.788-3.058-13.469-7.124-71.532-40.76-64.052-61.863,3.558-10.041,21.4-15.656,32.322-11.235,6.68,2.7,10.956,9.228,17.755,19.6,8.077,12.326,8.139,17.259,12.36,18.073,5.01.967,8.674-5.256,23.828-22.384,5.492-6.207,11.856-12.5,24.592-25.081,3.136-3.1,6.271-6.218,9.614-9.095,1.343-1.156,2.665-1.979,3.511-3.527,2.155-3.939,6.08-6.343,9.542-9.024a22.93,22.93,0,0,0,2.7-2.053c1.037-1.068,2.01-2.2,3.005-3.307,2.507-2.789,5.963-6.088,9.3-9.891a21.418,21.418,0,0,1,6.521-4.494c1.472-.763,3.031-1.121,4.23.327,1.038,1.253.748,3.012.605,3.876a9.753,9.753,0,0,1-1.729,3.972c-1.96,2.876-3.145,2.547-4.227,4.63-1.018,1.96-.051,2.41-.955,5.424a17.111,17.111,0,0,1-3.208,5.768,22.483,22.483,0,0,1-4.219,4.171" transform="translate(-1040.041 -557.421)"/><path class="e" d="M1306.386,565.119a42.656,42.656,0,0,1-6.593,7.624,51.605,51.605,0,0,1-6.914,6.05c-1.341.915-2.762,1.7-4.179,2.487l-4.123,2.279q-1.312.721-2.618,1.447c.093.175.186.347.279.523l-6.761-9.408.264-.051a87.216,87.216,0,0,0,9.855-2.559,13.006,13.006,0,0,0,4.044-1.6c.967-.762,1.837-1.649,2.755-2.463a57.738,57.738,0,0,1,6.495-5.132,13.83,13.83,0,0,1,3.626-1.919c1.155-.343,4.423-.514,4.375,1.412A2.693,2.693,0,0,1,1306.386,565.119Z" transform="translate(-1118.526 -559.008)"/><path class="e" d="M1286.325,593.456l-.165-.213q2.813-.924,5.571-2c1.647-.645,3.623-1.19,4.992-2.311,2.782-2.279,5.971-4.024,8.658-6.424a45.61,45.61,0,0,0,5.336-6.035,22.037,22.037,0,0,0,2.781-4.164,4.656,4.656,0,0,0,.535-2.219,2.051,2.051,0,0,0-2.525-1.933,8.169,8.169,0,0,0-3.779,2.172,44.186,44.186,0,0,1-4.408,3.177c-1.281.808-2.349,1.792-3.648,2.571-5.6,3.354-11.849,5.439-18.043,7.5a.4.4,0,0,0,.482.04" transform="translate(-1120.577 -560.988)"/><path class="f" d="M1285.894,594.326a12.825,12.825,0,0,1,4.926-1.442,33.773,33.773,0,0,0,14.271-6.2c1.8-1.346,3.519-2.754,5.354-4.053,1.552-1.1,3.734-2.049,4.866.1.654,1.243.014,2.761-.744,3.943a20.329,20.329,0,0,1-6.472,6.342l.318.209c-6.24,5.25-14,8.159-21.546,11.245l.4.188" transform="translate(-1121.999 -565.43)"/><path class="f" d="M1283.372,608.071l-.345-.1c2.807-.557,5.486-1.474,8.233-2.192s5.505-2.608,7.9-4.111c2.526-1.586,5-3.373,7.873-4.179a1.865,1.865,0,0,1,1.859.205,1.436,1.436,0,0,1,.322,1.089c-.081,1.282-1.08,2.291-2.016,3.171l-5.084,4.782a34.946,34.946,0,0,1-5.644,4.612c-2.649,1.607-4.973,3.558-7.782,4.979a25.718,25.718,0,0,1-9.207,3.134" transform="translate(-1119.86 -570.731)"/><path class="f" d="M1235.116,620.484a2.389,2.389,0,0,1,.726,1.072,14.805,14.805,0,0,0,3.288,4.617" transform="translate(-1105.072 -578.444)"/></g><g transform="translate(0 124.554)"><path class="e" d="M673.458,592.676c-.093.175-.187.347-.279.523l6.761-9.408-.264-.051a9.15,9.15,0,0,0-2,.635,15.208,15.208,0,0,0-6.834,6.855C671.714,591.71,672.587,592.195,673.458,592.676Z" transform="translate(-643.307 -566.678)"/><path class="e" d="M724.288,593.593c.44.215.863.439,1.266.674q-.58-.351-1.225-.676Z" transform="translate(-661.125 -569.962)"/><path class="f" d="M680.764,574.631l.086.4a10.966,10.966,0,0,0-2.632.173l.264.051-6.761,9.408c.093-.175.187-.347.279-.523-.871-.481-1.744-.966-2.618-1.447-3.716,6.858-4.13,16.485.229,21.242,2.574,2.809,6.372,3.234,13.97,4.089,7.855.882,12.816,1.425,17.548-1.037,3.081,5.819,5.722,11.892,9.257,17.443,6.06,9.513,4.679,8.788,11.51,20.048,15.755,25.967,25.247,41.19,38.034,41.667,4.428.166,7.824-1.489,10.789-3.058,13.469-7.124,71.532-40.759,64.052-61.863-3.559-10.041-21.4-15.656-32.322-11.235-6.68,2.7-10.956,9.228-17.755,19.6-8.078,12.325-8.14,17.258-12.36,18.072-5.01.967-8.674-5.256-23.828-22.384-5.492-6.207-11.856-12.5-24.592-25.081-3.136-3.1-6.27-6.218-9.614-9.095-1.344-1.156-2.665-1.979-3.512-3.526-2.154-3.939-6.08-6.343-9.542-9.024a23.007,23.007,0,0,1-2.7-2.053c-1.037-1.067-2.011-2.2-3.005-3.307-2.507-2.789-5.963-6.088-9.3-9.891a21.446,21.446,0,0,0-6.522-4.494c-1.473-.763-3.031-1.121-4.23.327-1.039,1.253-.748,3.012-.606,3.876a9.741,9.741,0,0,0,1.73,3.972c1.959,2.876,3.145,2.547,4.226,4.63,1.018,1.96.051,2.41.955,5.424a17.116,17.116,0,0,0,3.209,5.768,22.5,22.5,0,0,0,4.218,4.171" transform="translate(-641.85 -558.147)"/><path class="e" d="M637.872,565.845a42.65,42.65,0,0,0,6.593,7.624,51.646,51.646,0,0,0,6.914,6.05c1.341.915,2.763,1.7,4.179,2.487l4.123,2.279c.874.481,1.747.965,2.618,1.447-.093.175-.187.347-.279.523l6.761-9.408-.264-.051a87.262,87.262,0,0,1-9.855-2.559,13,13,0,0,1-4.044-1.6c-.967-.762-1.837-1.649-2.754-2.463a57.779,57.779,0,0,0-6.5-5.132,13.833,13.833,0,0,0-3.626-1.919c-1.156-.343-4.422-.514-4.375,1.412A2.683,2.683,0,0,0,637.872,565.845Z" transform="translate(-632.148 -559.734)"/><path class="e" d="M657.437,594.182l.165-.213q-2.813-.924-5.571-2c-1.648-.645-3.623-1.19-4.992-2.311-2.783-2.279-5.971-4.024-8.658-6.424a45.664,45.664,0,0,1-5.336-6.035,22.076,22.076,0,0,1-2.781-4.164,4.66,4.66,0,0,1-.534-2.22,2.05,2.05,0,0,1,2.524-1.933,8.171,8.171,0,0,1,3.779,2.172,44.249,44.249,0,0,0,4.408,3.177c1.281.808,2.348,1.792,3.648,2.571,5.6,3.354,11.849,5.439,18.043,7.5a.4.4,0,0,1-.482.039" transform="translate(-629.6 -561.714)"/><path class="f" d="M659.227,595.053a12.827,12.827,0,0,0-4.926-1.442,33.778,33.778,0,0,1-14.271-6.2c-1.8-1.346-3.518-2.754-5.354-4.053-1.553-1.1-3.734-2.048-4.867.1-.654,1.243-.013,2.761.744,3.943a20.341,20.341,0,0,0,6.472,6.343l-.318.209c6.24,5.25,14,8.159,21.547,11.245l-.4.189" transform="translate(-629.538 -566.156)"/><path class="f" d="M661.723,608.8l.346-.1c-2.807-.557-5.487-1.473-8.233-2.192s-5.505-2.608-7.9-4.111c-2.527-1.587-5-3.373-7.873-4.18a1.866,1.866,0,0,0-1.859.205,1.44,1.44,0,0,0-.322,1.089c.081,1.282,1.08,2.291,2.016,3.172l5.084,4.781a34.921,34.921,0,0,0,5.645,4.612c2.649,1.607,4.973,3.558,7.782,4.979a25.71,25.71,0,0,0,9.206,3.134" transform="translate(-631.652 -571.457)"/><path class="f" d="M722.844,621.21a2.393,2.393,0,0,0-.727,1.072,14.806,14.806,0,0,1-3.289,4.617" transform="translate(-659.305 -579.17)"/></g><path class="g" d="M816.818,666.444A67.422,67.422,0,0,0,829.2,680.952c5.619,4.961,8.944,8.128,15.7,3.643,8.058-5.346,14.879-12.413,23.55-16.879,17.852-9.2,43.013-10.893,62.49-9.249,12.117,1.023,23.956,3.978,34.662,9.829,4.605,2.517,9.7,4.534,14.128,7.338,6.08,3.854,10.207,11.289,16.765,14.169a9.122,9.122,0,0,0,5.25-.408,42.387,42.387,0,0,0,17.237-10.218c6.578-6.44,15.124-15.268,15.853-24.828.565-7.412-2.831-11.863-6.746-17.6-3.986-5.836-6.512-12.644-8.891-19.25-4.5-12.494-8.192-26.123-18.072-35.621a47.145,47.145,0,0,0-15.3-9.524,63.205,63.205,0,0,0-32.156-3.77c-10.056,1.427-18.827,6.3-29.162,6.361-13.042.072-26.442-4.083-39.513-5.19-13.054-1.105-27.112-.637-38.362,6.9a54.032,54.032,0,0,0-12.921,13c-7.014,9.443-12.368,19.992-17.686,30.484-2.983,5.884-6.006,11.888-7.063,18.4C807.274,648.993,811.441,657.841,816.818,666.444Z" transform="translate(-689.227 -436.863)"/><path class="g" d="M1003.193,714.008c-.038,4.42.021,8.843-.062,13.263-.027,1.419.846,12.811,1.022,13.8,2.354,13.183,4.519,25.044,2.4,33.355-2.089,8.176-8,12.481-16.783,18.88a78.352,78.352,0,0,1-46.989,15.1,73.036,73.036,0,0,1-36.92-11.328c-9.975-6.33-22.168-14.069-23.495-26.432-.924-8.608,3.079-22.635,5.028-29.464a130.628,130.628,0,0,0,1.685-19.624c-.031-2.517,0-5.035,0-7.552V672.472c-.077-24.082-.33-22.965,0-26.432.727-7.645,2.045-21.49,6.712-30.208,14.636-27.334,75.269-28.643,93.979,0,5.855,8.962,9.38,23.574,10.069,26.432,2.417,10.021,2.766,17.518,3.357,30.208C1003.487,678.8,1003.393,690.624,1003.193,714.008Z" transform="translate(-713.776 -445.824)"/><path class="h" d="M987.459,562.591a11.751,11.751,0,0,1-2.8,8.286c-1.449,1.686-9.594,3.189-12.641,3.7a36.7,36.7,0,0,1-17.149-1.694c-4.89-1.579-9.081-4.445-10.029-7.962-.691-2.561.36-5.164,1.084-7.721,2.174-7.682-4.36-18.1,9.949-21.274A62.306,62.306,0,0,1,967,534.855a51.086,51.086,0,0,1,11.494.445c9.866,1.92,8.477,9.164,7.911,14.47C985.962,553.968,987.4,558.357,987.459,562.591Z" transform="translate(-734.574 -425.791)"/><path class="e" d="M986.355,432.167c6.713,8.138,7.1,19.175,6.132,29.2-.96,9.981-1.487,22.155-5.393,31.337-4.73,11.119-15.547,22.065-28.253,22.7-15.722.789-24.273-15.719-29.645-28.049-2.73-6.267-2.461-12.032-3.514-18.7-1.953-12.355-2.266-26.293,6.146-36.492C943.787,417.669,974.393,417.669,986.355,432.167Z" transform="translate(-727.88 -387.97)"/><path class="i" d="M965.7,420.449a10.582,10.582,0,0,1-7.144,1.443,10.241,10.241,0,0,1-6-3.613,2.673,2.673,0,0,1,1.733,1.161,3.626,3.626,0,0,1,.629,2.075c-.037,1.725-1.529,2.934-3.238,4.32a12.11,12.11,0,0,1-6.059,3.029,9.19,9.19,0,0,1-3.029,0,9.628,9.628,0,0,1-5.363-3,10.324,10.324,0,0,1-5.633,5.065,9.711,9.711,0,0,1-7.571-.261,22.615,22.615,0,0,1-2.639,16.37c-4.79-8.121-6.107-11.458-6.04-12.673,0-.033.013-.223.021-.483a17.39,17.39,0,0,0-.331-3.878,19.789,19.789,0,0,0-1.4-3.768c-1.573-3.719-2.352-7.969-1.082-11.8s5-7.014,9.028-6.693c-1.151-5.977-.235-12.555,3.493-17.367s10.544-7.372,16.231-5.2c3.682-6.636,9.117-13.69,16.7-13.863,5.82-.133,11.129,4.258,13.214,9.694a6.944,6.944,0,0,0,1.483,2.779c1.277,1.173,3.239.973,4.962,1.167,6.89.777,10.784,8.289,16.835,11.675a23.984,23.984,0,0,1,3.84,2.216c2.163,1.809,2.965,4.769,3.274,7.572a31.989,31.989,0,0,1-1.35,13.29,30.433,30.433,0,0,1-.121,9.162c-.486,2.921-1.334,4.977-3.029,9.088-3.223,7.812-4.963,8.76-6.059,9.088a5.643,5.643,0,0,1-3.029,0,18.988,18.988,0,0,1-1.981-16.7c-1.849,1.206-4.438.635-6.133-.781a11.262,11.262,0,0,1-3.516-5.534c-2.906-8.786-3.11-14.393-4.25-14.488C970.826,409.431,970.992,417.033,965.7,420.449Z" transform="translate(-723.676 -371.307)"/><path class="j" d="M1000.974,797.708a67.7,67.7,0,0,1-47.46,30.695" transform="translate(-737.54 -513.454)"/><path class="j" d="M892.385,698.954a363.059,363.059,0,0,0-2.755-47.608" transform="translate(-716.244 -464.662)"/><path class="j" d="M1063.991,654.161l-.7,49.618a28.109,28.109,0,0,0,.331,5.884" transform="translate(-774.132 -465.6)"/><path class="e" d="M924.227,486.946a5.18,5.18,0,0,0-3.371-2.974,3.727,3.727,0,0,0-2.431.092c-2.085.893-2.386,3.711-2.11,5.963A30.229,30.229,0,0,0,919.879,501a6.061,6.061,0,0,0,2.324,2.629,2.4,2.4,0,0,0,3.143-.7" transform="translate(-725.11 -408.812)"/><path class="e" d="M1024.007,488.02a5.185,5.185,0,0,1,3.371-2.974,3.729,3.729,0,0,1,2.432.092c2.085.893,2.385,3.712,2.11,5.963a30.217,30.217,0,0,1-3.566,10.971,6.061,6.061,0,0,1-2.324,2.629,2.4,2.4,0,0,1-3.142-.7" transform="translate(-760.667 -409.171)"/></g></g></g><g transform="translate(670.705 192.011)"><path class="k" d="M750.007,210.465c4.466-1.386,7.084-6.622,11.7-7.238,5.852,4.928,10.164,14.014,19.1,12.781a3.683,3.683,0,0,0,2.31-2,31.348,31.348,0,0,0,1.6-2.947c-2.126-10.874-11.232-19.048-22.142-19.048a22.152,22.152,0,0,0-17.784,9.144c.209,1.521.465,3.036.755,4.536C745.85,207.693,746.312,211.389,750.007,210.465Z" transform="translate(-739.959 -192.011)"/><path class="l" d="M780.7,218.579a3.682,3.682,0,0,1-2.31,2c-8.932,1.233-13.244-7.854-19.1-12.781-4.62.616-7.238,5.852-11.7,7.238-3.7.924-4.158-2.772-4.466-4.774-.29-1.5-.546-3.015-.755-4.536a24.7,24.7,0,0,0-4.828,14.772c0,13.209,10.123,23.916,22.612,23.916s22.612-10.708,22.612-23.916a25.355,25.355,0,0,0-.469-4.868A31.352,31.352,0,0,1,780.7,218.579Z" transform="translate(-737.545 -196.584)"/></g><g transform="translate(537.043 521.232)"><path class="m" d="M568.023,702.495a69.705,69.705,0,0,1,4.349,16.911c1.208,8.455-2.9,15.944-3.141,24.158-.483,12.32,11.354,21.984,23.192,17.635,9.664-3.624,18.844-13.287,29.231-9.18,6.523,2.657,13.529,9.422,20.776,3.383a71.74,71.74,0,0,0,8.735-8.265,56.545,56.545,0,0,0,.429-6.961c0-29.995-23.528-54.309-52.551-54.309a51.326,51.326,0,0,0-33.655,12.6A11.427,11.427,0,0,1,568.023,702.495Z" transform="translate(-546.492 -685.866)"/><path class="n" d="M632.981,761.7c-7.248,6.039-14.253-.725-20.776-3.383-10.388-4.107-19.568,5.556-29.231,9.18-11.837,4.349-23.675-5.315-23.192-17.635.241-8.214,4.348-15.7,3.141-24.158a69.7,69.7,0,0,0-4.349-16.911,11.427,11.427,0,0,0-2.635-4.028,54.927,54.927,0,0,0-18.9,41.709c0,29.995,23.528,54.31,52.551,54.31,26.741,0,48.816-20.642,52.122-47.349A71.731,71.731,0,0,1,632.981,761.7Z" transform="translate(-537.043 -692.167)"/></g><g transform="translate(991.871 234.258)"><g transform="translate(15.298 14.215)"><path class="o" d="M1276.939,276.851c4.006-.291,38.616-2.234,60.775,24.31,10.781,12.914,24.849,40.039,12.155,60.775-11.929,19.486-43.893,27.449-72.93,12.155-1.608,4.814-2.675,8.592-5.338,12.913l-29.336-11.6,12.412-35.806c.8-2.319,1.872-4.916,4.183-5.742,1.911-.683,4.009.112,5.836,1,5.058,2.447,9.761,5.666,15.055,7.548s11.556,2.237,16.221-.9c6.522-4.378,7.4-14.275,3.6-21.146s-18.371-13.976-18.371-13.976l-2.484-1.476S1276.245,285.077,1276.939,276.851Z" transform="translate(-1242.265 -276.707)"/></g><path class="p" d="M1274.909,255.528c4.006-.291,38.616-2.233,60.775,24.31,10.781,12.914,24.849,40.039,12.155,60.775-11.929,19.487-43.893,27.449-72.93,12.155-1.608,4.814-2.675,8.592-5.339,12.912l-29.337-11.6c4.138-11.935,16.6-41.548,16.6-41.548s15.6,6.661,20.891,8.544,11.556,2.237,16.221-.9c6.522-4.379,7.4-14.275,3.6-21.146s-18.371-13.975-18.371-13.975l-2.578-1.459S1274.215,263.754,1274.909,255.528Z" transform="translate(-1226.29 -255.384)"/><path class="q" d="M1253.925,461.686H1224.9a18.226,18.226,0,0,1,29.025,0Z" transform="translate(-1221.178 -321.758)"/><path class="r" d="M1255.785,465.287V476.32a18.233,18.233,0,0,1-36.465,0V465.287Z" transform="translate(-1219.318 -325.358)"/><circle class="s" cx="18.232" cy="18.232" r="18.232" transform="translate(0 121.693)"/><path class="t" d="M1241.588,417.649l-1.353-14.215,28.7,11.467,1.991,14.348Z" transform="translate(-1226.29 -304.739)"/><path class="u" d="M1294.279,422.788" transform="translate(-1244.306 -311.191)"/><path class="u" d="M1292.249,401.466" transform="translate(-1243.63 -304.083)"/></g></g></svg>