<svg xmlns="http://www.w3.org/2000/svg" xmlns:xlink="http://www.w3.org/1999/xlink" width="632.751" height="438.822" viewBox="0 0 632.751 438.822"><defs><style>.a,.i,.j,.m{fill:none;}.b{clip-path:url(#a);}.c{fill:url(#b);}.d{fill:url(#c);}.e,.k,.l{fill:#fff;}.e,.j,.l,.m,.n,.o{stroke:#100052;}.e,.f,.g,.h,.i,.j,.l,.m,.n,.o,.q{stroke-miterlimit:10;}.f,.n{fill:#100052;}.f{stroke:#4fa5ad;}.g{fill:#97bbd3;}.g,.h{stroke:#bbdbf9;}.h{fill:#bbdbf9;}.i{stroke:#fff;}.l,.m,.n,.o{stroke-width:2px;}.o,.w{fill:#c6d9e2;}.p{fill:#ce71ad;}.q{fill:#f6aacb;stroke:#f6aacb;}.r{fill:#feca84;}.s{fill:#ffeace;}.t{fill:url(#d);}.u{fill:url(#e);}.v{fill:url(#f);}.x{fill:#8ab1c5;}.y{fill:url(#g);}.z{fill:url(#h);}.aa{fill:url(#i);}.ab{fill:url(#j);}.ac{fill:url(#k);}.ad{fill:url(#l);}</style><clipPath id="a"><path class="a" d="M-7589.184,2843.061c-19.644,15.679-42.425.317-90.066,6.546-30.374,3.971-54.126,16.068-80.377,31.62-46.987,27.837-86.733,65.889-134.015,93.049-65.494,37.624-167.349,72.482-236.558,26.411-64.328-42.823-84.272-138.585-69.836-209.811,31.1-153.437,251.077-217.863,388.664-205.533,69.286,6.209,114.769,31.774,132.414,42.761,21.9,13.637,86.53,53.879,102.537,126.661C-7574.3,2764.387-7561.808,2821.211-7589.184,2843.061Z" transform="translate(8204.493 -2583.864)"/></clipPath><linearGradient id="b" x1="0.505" y1="0.609" x2="0.458" y2="0.216" gradientUnits="objectBoundingBox"><stop offset="0" stop-color="#4fa5ad"/><stop offset="1" stop-color="#99cbcf"/></linearGradient><linearGradient id="c" x1="0.555" y1="1.01" x2="0.51" y2="0.594" xlink:href="#b"/><linearGradient id="d" x1="-6.972" y1="1.256" x2="2.105" y2="-0.672" gradientUnits="objectBoundingBox"><stop offset="0" stop-color="#ff9077"/><stop offset="1" stop-color="#e9645a"/></linearGradient><linearGradient id="e" x1="-1.201" y1="2.007" x2="-0.007" y2="0.28" xlink:href="#d"/><linearGradient id="f" x1="-0.479" y1="0.479" x2="2.006" y2="1.045" gradientUnits="objectBoundingBox"><stop offset="0" stop-color="#fdcda4"/><stop offset="1" stop-color="#e9645a"/></linearGradient><linearGradient id="g" x1="-0.201" y1="-2.245" x2="-0.413" y2="-1.586" gradientUnits="objectBoundingBox"><stop offset="0" stop-color="#faebd8"/><stop offset="1" stop-color="#ffb83f"/></linearGradient><linearGradient id="h" x1="-0.083" y1="-1.476" x2="-0.212" y2="-0.98" xlink:href="#g"/><linearGradient id="i" x1="1.363" y1="1.967" x2="1.151" y2="2.626" gradientUnits="objectBoundingBox"><stop offset="0" stop-color="#2a7195"/><stop offset="1" stop-color="#060c39"/></linearGradient><linearGradient id="j" x1="1.169" y1="1.747" x2="1.039" y2="2.243" xlink:href="#i"/><linearGradient id="k" x1="0.208" y1="0.374" x2="-0.183" y2="2.264" xlink:href="#d"/><linearGradient id="l" x1="0.105" y1="0.909" x2="-0.038" y2="1.68" xlink:href="#d"/></defs><g transform="translate(8204.493 -2583.864)"><g transform="translate(-8204.493 2583.864)"><g class="b"><g transform="translate(-229.502 -80.522)"><path class="c" d="M-8511.888,2468.664l-13.654,494.965c23.46,1.018,47.037,2.195,71.12-2.464,109.24-20.041,204.947-56.924,294.045-122.807,87.383-63.461,158.605-138.071,260.8-171.481,48.2-15.962,93.857-29.523,145.141-37.989,82.919-12.725,162.487-17.853,242.741-13.471l3.284-119.07Z" transform="translate(8530.639 -2468.664)"/><path class="d" d="M-7759.806,2641.633c-51.283,8.466-96.943,22.028-145.141,37.989-102.2,33.41-173.422,108.021-260.8,171.481-89.1,65.883-184.8,102.766-294.045,122.807-24.082,4.659-47.66,3.481-71.119,2.463l-1.918,69.494,1003.482,27.682,12.287-445.388C-7597.318,2623.78-7676.887,2628.908-7759.806,2641.633Z" transform="translate(8532.833 -2516.213)"/><path class="e" d="M-7840.22,2773.569" transform="translate(8324.342 -2560.447)"/><g transform="translate(352.605 145.155)"><rect class="f" width="308.106" height="204.891" transform="matrix(0.991, -0.131, 0.131, 0.991, 0, 47.787)"/><g transform="translate(7.629 4.985)"><path class="e" d="M-7869.309,2714.2l25.827,195.49-1.527.2c-.557-4.217-33.83-3.3-74.317,2.05s-72.857,13.1-72.3,17.321l-25.827-195.49c-.557-4.217,31.813-11.973,72.3-17.321s73.761-6.266,74.317-2.049Z" transform="translate(8017.46 -2691.979)"/><path class="g" d="M-7657.361,2686.112l25.827,195.49c-.557-4.217-33.83-3.3-74.317,2.049s-72.857,13.1-72.3,17.321l-1.527.2-25.827-195.49,1.527-.2c-.557-4.217,31.812-11.972,72.3-17.322S-7657.918,2681.9-7657.361,2686.112Z" transform="translate(7953.658 -2683.464)"/></g><g transform="translate(10.079)"><path class="e" d="M-7865.8,2707.068l25.828,195.489-1.527.2c-.558-4.217-33.83-3.3-74.318,2.049s-72.857,13.1-72.3,17.321l-25.826-195.49c-.557-4.217,31.812-11.972,72.3-17.322s73.76-6.266,74.317-2.049Z" transform="translate(8013.956 -2684.847)"/><path class="h" d="M-7653.857,2678.98l25.827,195.49c-.557-4.217-33.83-3.3-74.317,2.049s-72.857,13.1-72.3,17.321l-1.527.2L-7802,2698.552l1.527-.2c-.557-4.217,31.812-11.972,72.3-17.322S-7654.415,2674.763-7653.857,2678.98Z" transform="translate(7950.153 -2676.331)"/></g><path class="f" d="M-7789.54,3004.374" transform="translate(7956.48 -2775.079)"/><path class="f" d="M-7781.681,3002.177l-2.046,8.04,24.436-3.229-4.063-7.232" transform="translate(7954.73 -2773.689)"/><g transform="translate(183.877 13.427)"><line class="i" y1="14.729" x2="111.49" transform="translate(4.845 36.674)"/><line class="i" y1="14.729" x2="111.49" transform="translate(6.892 52.169)"/><line class="i" y1="14.729" x2="111.49" transform="translate(7.832 59.283)"/><line class="i" y1="14.729" x2="111.49" transform="translate(8.615 65.211)"/><line class="i" y1="14.729" x2="111.49" transform="translate(9.555 72.325)"/><line class="i" y1="14.729" x2="111.49" transform="translate(3.916 29.641)"/><line class="i" y1="14.729" x2="111.49" transform="translate(3.133 23.713)"/><line class="i" y1="14.729" x2="111.49" transform="translate(2.349 17.785)"/><line class="i" y1="14.729" x2="111.49" transform="translate(1.567 11.857)"/><line class="i" y1="14.729" x2="111.49" transform="translate(0.783 5.928)"/><line class="i" y1="14.729" x2="111.49"/><line class="i" y1="14.729" x2="111.49" transform="translate(5.952 45.055)"/></g><g transform="translate(210.247 117.342)"><line class="i" y1="12.996" x2="98.373" transform="translate(3.924 29.704)"/><line class="i" y1="12.996" x2="98.373" transform="translate(5.582 42.255)"/><line class="i" y1="12.996" x2="98.373" transform="translate(6.344 48.017)"/><line class="i" y1="12.996" x2="98.373" transform="translate(6.978 52.819)"/><line class="i" y1="12.996" x2="98.373" transform="translate(7.739 58.581)"/><line class="i" y1="12.996" x2="98.373" transform="translate(3.172 24.009)"/><line class="i" y1="12.996" x2="98.373" transform="translate(2.538 19.207)"/><line class="i" y1="12.996" x2="98.373" transform="translate(1.903 14.405)"/><line class="i" y1="12.996" x2="98.373" transform="translate(1.269 9.603)"/><line class="i" y1="12.996" x2="98.373" transform="translate(0.634 4.802)"/><line class="i" y1="12.996" x2="98.373"/><line class="i" y1="12.996" x2="98.373" transform="translate(4.821 36.493)"/></g><g transform="translate(25.445 36.149)"><line class="j" y1="16.046" x2="121.453" transform="translate(4.845 36.674)"/><line class="j" y1="16.046" x2="121.453" transform="translate(6.892 52.169)"/><line class="j" y1="16.046" x2="121.453" transform="translate(7.832 59.283)"/><line class="j" y1="16.046" x2="121.453" transform="translate(8.615 65.211)"/><line class="j" y1="16.046" x2="121.453" transform="translate(9.555 72.325)"/><line class="j" y1="16.046" x2="121.453" transform="translate(3.916 29.641)"/><line class="j" y1="16.046" x2="121.453" transform="translate(3.133 23.713)"/><line class="j" y1="16.046" x2="121.453" transform="translate(2.349 17.785)"/><line class="j" y1="16.046" x2="121.453" transform="translate(1.566 11.857)"/><line class="j" y1="16.046" x2="121.453" transform="translate(0.783 5.928)"/><line class="j" y1="16.046" x2="121.453"/><line class="j" y1="16.046" x2="121.453" transform="translate(5.952 45.055)"/></g><g transform="translate(43.297 171.271)"><line class="j" y1="16.046" x2="121.453" transform="translate(3.133 23.713)"/><line class="j" y1="16.046" x2="121.453" transform="translate(2.349 17.785)"/><line class="j" y1="16.046" x2="121.453" transform="translate(1.566 11.857)"/><line class="j" y1="16.046" x2="121.453" transform="translate(0.783 5.928)"/><line class="j" y1="16.046" x2="121.453"/></g><circle class="k" cx="2.311" cy="2.311" r="2.311" transform="translate(179.839 65.698)"/><circle class="k" cx="2.311" cy="2.311" r="2.311" transform="translate(178.224 53.48)"/><circle class="k" cx="2.311" cy="2.311" r="2.311" transform="translate(181.251 76.389)"/><circle class="k" cx="2.311" cy="2.311" r="2.311" transform="translate(183.067 90.135)"/><circle class="k" cx="2.311" cy="2.311" r="2.311" transform="translate(184.076 97.771)"/></g><path class="l" d="M-7465.193,2935.655a55.839,55.839,0,0,0-8.825-18.461c-6.528-9.028-14.745-16.68-22.991-24.172q-28.176-25.6-57.682-49.673-14.511-11.843-29.33-23.3c-7.344-5.676-13.109-16.162-23.5-16.18-8.076-.013-16.6,6.685-18.487,14.548-1.847,7.69,3.036,14.9,4.638,17.3,3.115,4.674,6.087,9.444,9.061,14.208,13.445,21.547,26.55,43.309,39.69,65.042q14.09,23.3,28.14,46.631c7.49,12.428,12.9,26.933,26.543,33.926a37.3,37.3,0,0,0,32.759.352c11.991-5.841,17-14.813,19.87-27.354C-7462.718,2957.232-7462.4,2946.138-7465.193,2935.655Z" transform="translate(8259.981 -2569.567)"/><g transform="translate(539.666 152.275)"><path class="k" d="M-7697.767,2746.369c-2.042,4.538-1.833,10.157-.233,14.723a5.151,5.151,0,0,0,.992,1.873,4,4,0,0,0,1.831.942c3.778,1.138,7.939,1.94,11.573-.215a6.187,6.187,0,0,0,1.708-1.433,8.257,8.257,0,0,0,1.282-2.531,17.2,17.2,0,0,0,.145-10.207,19.141,19.141,0,0,0-2.752-5.49,13.491,13.491,0,0,0-4.852-4.5c-1.522-.739-4.509-1.472-5.883.2-.586.712-1.148,2.133-1.7,2.979A27.7,27.7,0,0,0-7697.767,2746.369Z" transform="translate(7742.241 -2702.229)"/><path class="m" d="M-7678,2750.424a33.168,33.168,0,0,0-5.393,4.153,3.4,3.4,0,0,0-.741.9,3.618,3.618,0,0,0,.068,2.564l3.284,11.823" transform="translate(7737.753 -2705.755)"/><path class="l" d="M-7611.679,2790.8c-2.107-1.8-3.289-4.419-4.4-6.952-3.513-7.976-6.571-15.566-10.989-23.1a226.775,226.775,0,0,0-14.679-22.42c-1.106-1.46-2.521-3.129-4.3-3.763a14.22,14.22,0,0,0-8.341.138l-16.555,4.485-8.446,2.288c-2.29.621-6.234.934-8.092,2.348,2.828,3.823,5.163,7.337,3.919,12.412-.976,3.984-3.847,7.228-5.326,11.054-1.168,3.02-1.465,6.39-3.134,9.167-.409.682-.014,3.849.4,4.8a8.468,8.468,0,0,0,2.827,3.045l17.556,13.524c4.438,3.419,9.014,7.782,14.282,9.8,5.155,1.974,11.055,2.314,15.569,5.762" transform="translate(7740.117 -2700.809)"/><path class="l" d="M-7633.663,2735.077l-10.268-6.033a17.431,17.431,0,0,0-6.639-2.747c-2.8-.32-5.556.729-8.18,1.757-.863.338-2.132.417-1.781,1.737a3.128,3.128,0,0,0,1.075,1.441" transform="translate(7730.603 -2698.474)"/><path class="l" d="M-7650.36,2734l-14.915-7.474c-2.706-1.357-5.5-2.739-8.524-2.95a17.389,17.389,0,0,0-5.9.8c-2.8.788-6.59,2-3.006,4.875,4.909,3.943,10.955,6.139,16.882,8.267l-.322-.442" transform="translate(7737.702 -2697.665)"/><path class="m" d="M-7693.244,2738.533c-2.824,1.731-5.013,4.306-7.151,6.837a9.366,9.366,0,0,0-2.019,3.176,9.035,9.035,0,0,0,.425,5.077q.729,2.507,1.574,4.977a10.12,10.12,0,0,0,1.473,3.067c1.27,1.607,3.326,2.33,5.271,2.975" transform="translate(7743.259 -2702.175)"/><path class="l" d="M-7696.1,2744.584c-2.779-3.436-7.067-6.487-11.324-5.3-2.3.642-4.09,2.4-5.957,3.895-3.82,3.052-7.938,5.943-12.728,7.188a8.175,8.175,0,0,1-5.274,0c-8.235-3.58,7.384-15.1,10.66-17.536,2.62-1.947,5.348-3.745,8.1-5.5,2.405-1.536,4.616-3.8,7.215-4.954,4.72-2.1,9.207,1.893,13.045,4.1,6.862,3.941,14.1,7.733,19.871,13.238" transform="translate(7752.628 -2697.133)"/><path class="n" d="M-7756.221,2789.17l-.236-.821a3.99,3.99,0,0,0-.317-.858c-.2-.359-.756-1.183-1.374-.656a9.626,9.626,0,0,0-1.019,1.222l-1.588,1.919,4.567-.846-1.8-2.5c.143.242.458.365.653.576a1.889,1.889,0,0,1,.629,1.1" transform="translate(7760.755 -2716.653)"/><path class="l" d="M-7756.824,2786.507l.053.023-.05.06-.041-.056c-.013.016-.036-.007-.02-.022A.059.059,0,0,1-7756.824,2786.507Z" transform="translate(7759.591 -2716.615)"/><path class="o" d="M-7639.072,2697.365l-101.269,59.538h0a1.6,1.6,0,0,0,.169-1.476,2.024,2.024,0,0,0-1.353-1.021,3.046,3.046,0,0,0-.1-2.849,3.2,3.2,0,0,0-2.573-1.334,3.2,3.2,0,0,0-.705-2.325,5.469,5.469,0,0,0-.7-.664l100.96-59.355c3.607-2.12,7.78-1.72,9.321.9S-7635.466,2695.245-7639.072,2697.365Z" transform="translate(7756.195 -2686.518)"/><path class="l" d="M-7743.69,2783.051h0q-5.254.976-10.506,1.948a2.832,2.832,0,0,1-.549.1c-.272-.022-.155.022-.248-.2a9.907,9.907,0,0,0-.3-.989,2.664,2.664,0,0,0-.283-.435,2.922,2.922,0,0,0-.955-.8,1.566,1.566,0,0,0-.189-.1l7.46-9.016.308-.183a5.454,5.454,0,0,1,.7.664,3.2,3.2,0,0,1,.705,2.325,3.2,3.2,0,0,1,2.574,1.334,3.046,3.046,0,0,1,.1,2.849,2.023,2.023,0,0,1,1.353,1.021A1.594,1.594,0,0,1-7743.69,2783.051Z" transform="translate(7759.541 -2712.665)"/><path class="m" d="M-7745.683,2773.321l-.169-.139" transform="translate(7756.269 -2712.605)"/><path class="m" d="M-7738.167,2787.215h0a1.876,1.876,0,0,1-.2.277" transform="translate(7754.018 -2716.83)"/><path class="l" d="M-7693.372,2772.737a29.69,29.69,0,0,0-13.034-4,28.22,28.22,0,0,1-6.492-.689c-5.186-1.592-7.452-6.919-12.8-8.611a9.563,9.563,0,0,0-6.348-.044,5.6,5.6,0,0,0-3.663,4.88c-.019,2.271,1.626,4.177,3.209,5.8,7.8,8.012,16.15,15.146,26.333,19.883,2.729,1.27,5.672,2.5,7.421,4.952" transform="translate(7753.215 -2708.296)"/></g><g transform="translate(306.053 272.165)"><path class="l" d="M-8018.675,3188.894c16.651-55.173,32-111.142,51.469-165.417,3.519-9.81,7.479-20.631-2.249-28.527-11.591-9.407-23.5-3.143-30.223,7.985-9.689,16.039-19.773,31.832-29.869,47.618q-32.553,50.9-65.428,101.6Z" transform="translate(8094.975 -2897.872)"/><g transform="translate(86.04)"><path class="l" d="M-7971.882,2997.506a56.965,56.965,0,0,0,6.467-17.733c.549-2.94.9-5.914,1.262-8.884q1.828-14.941,4.11-29.821c.618-4.03.539-9.08,2.928-12.447a11.833,11.833,0,0,1,7.836-5.352c4.3-.837,8.715-.528,13.063-.451,6.346.112,12.95.418,18.952,2.68,2.545.959,4.919,1.855,5.895,4.417,1.252,3.288.677,7.188.494,10.6-.314,5.89,1.287,9.963,5.223,14.3,1.373,1.514,2.926,2.866,4.211,4.456a9.609,9.609,0,0,1,2.384,5.534,10.617,10.617,0,0,1-1.149,4.667c-1.724,3.815-4.754,6.144-6.991,9.626-2.859,4.45-5.29,9.2-8.742,13.247a34.288,34.288,0,0,1-7.639,6.641c-3.007,1.915-6.514,3.565-8.077,6.77" transform="translate(7971.882 -2877.503)"/><path class="l" d="M-7953.983,2921.962a102.357,102.357,0,0,1,9.435-24.078,105.7,105.7,0,0,1,6.414-11.111c1.368-1.979,5.176-6.648,7.981-6.2,2.176.352,2.355,4.022,2.2,5.678-.323,3.532-2.876,6.965-3.891,10.345-1.652,5.5-2.667,11.282-3.974,16.872" transform="translate(7966.494 -2864.814)"/><path class="l" d="M-7935.968,2914.394c2.967-8.533,5.981-17.14,10.445-25.02a131.289,131.289,0,0,1,11.319-16.808c1.35-1.7,2.953-4.69,5.407-4.729,3.47-.055,4.386,2.864,3.438,5.664-2.8,8.265-6.721,16.028-9.624,24.272-2.065,5.868-4.546,13.539-1.01,19.345" transform="translate(7961.071 -2860.988)"/><path class="l" d="M-7924.781,2913.712c3.34-11.344,9.628-21.473,16.522-30.976,3.469-4.782,7.1-9.439,10.663-14.153,1.773-2.349,3.529-4.71,5.235-7.107,1.268-1.782,2.3-3.833,4.878-3.37,2.644.475,3.014,3.74,2.731,5.948-.536,4.191-3,8.125-4.92,11.812-2.236,4.284-4.6,8.5-6.751,12.828-4.723,9.513-8.378,19.513-12.024,29.489-.075.2-.134.47.035.606s.425-.239.209-.263" transform="translate(7957.704 -2858.039)"/><path class="l" d="M-7878.331,2958.412c-.983-.574,6.249-5.684,7.443-6.686,3.182-2.671,4.622-5.343,7.019-8.537,2.5-3.332,10.7-8.585,12.981-2.405.914,2.483-1.493,7.389-2.283,9.89a31.152,31.152,0,0,1-5.651,10.771c-4.777,5.836-11.227,10.135-15.382,16.511" transform="translate(7943.749 -2882.085)"/><path class="l" d="M-7905.722,2923.3c4.358-11.66,9.788-24.3,17.563-34.136q5.15-6.515,10.3-13.033c2-2.529,8.469-8.681,9.685-2.432,1.722,8.86-5.8,17.34-9.967,24.323-2.565,4.3-4.025,9.162-5.454,13.966-1.286,4.324-2.789,8.59-3.817,12.987-1,4.264-1.969,8.486.115,12.561" transform="translate(7951.966 -2861.935)"/></g></g><g transform="translate(260.097 253.616)"><path class="p" d="M-8072.4,2892.965l-16.822-55.611-62.61,19.338L-8132.1,2916Z" transform="translate(8158.046 -2833.263)"/><path class="q" d="M-8081.288,2887.112l-16.822-55.611-62.612,19.338,19.732,59.308Z" transform="translate(8160.722 -2831.502)"/></g><g transform="translate(718 173.802)"><path class="r" d="M-7428.25,2729.467l-21.468,55.9-55.9-21.468,17.89-46.584,28.423.224Z" transform="translate(7505.619 -2717.316)"/><path class="s" d="M-7451.6,2717.54l-15.28,11.95-13.143-12.175Z" transform="translate(7497.914 -2717.316)"/></g><g transform="translate(475.449 137.143)"><g transform="translate(34.16)"><path class="t" d="M-7800.828,2692.7l-2.151-.8a.132.132,0,0,0-.176.091,23.737,23.737,0,0,0-.5,7.484,23.712,23.712,0,0,0,1.572,6.574.131.131,0,0,0,.253-.061,35.99,35.99,0,0,1-.178-4.477,36.118,36.118,0,0,1,1.262-8.658A.129.129,0,0,0-7800.828,2692.7Z" transform="translate(7803.756 -2673.005)"/><path class="u" d="M-7778.655,2671.687c-.009.03-.012.06-.02.09a9.039,9.039,0,0,0-5.677-2.212c-3.536-.116-6.751,1.9-9.164,4.316a26.71,26.71,0,0,0-4.9,6.892c-1.028-.236-2.043-.532-3.046-.87a33.012,33.012,0,0,1,1.9-4.707c2.775-5.6,8.694-11.787,15.614-10.02,2.4.609,4.924,2.419,5.331,4.9A4.462,4.462,0,0,1-7778.655,2671.687Z" transform="translate(7803.065 -2664.868)"/></g><path class="v" d="M-7801.677,2687.422c-4.617,1.666-9.264.954-13.75-.57-.809-.275-1.611-.576-2.406-.893-2.723-1.087-5.369-2.38-7.9-3.511-7.662-3.422-16.25-5.026-24.458-2.908l3.364-3.524-5.8-.691s10.191-2.03,15.274-1.127c5.031.893,9.566,3.248,14.158,5.378a60.921,60.921,0,0,0,6.332,2.569c1,.338,2.018.633,3.045.87,4.166.985,8.448,1.059,12.363-.895,3.089-1.542,6.607-4.569,7.378-8.1.007-.029.011-.06.02-.09a4.462,4.462,0,0,0,.035-1.614c.066.147.079.258.148.406a16.4,16.4,0,0,1,.876,2.817.025.025,0,0,0,0,.018,3.886,3.886,0,0,1,.278.853C-7791.748,2681.187-7797.771,2686.012-7801.677,2687.422Z" transform="translate(7852.627 -2667.11)"/></g><g transform="translate(769.621 256.763)"><path class="w" d="M-7431.767,2886.515l17.118-50.51,10.9,26.042,30.78,12.623-24.381,33.149Z" transform="translate(7431.767 -2836.005)"/><path class="x" d="M-7403.754,2862.046l-10.9-26.041-17.118,50.51h0Z" transform="translate(7431.767 -2836.005)"/></g><g transform="translate(788.336 239.193)"><path class="y" d="M-7399.713,2812.81a10.243,10.243,0,0,1,.34,2.547c.03,1.257-.7,2.279-.88,3.475a2.581,2.581,0,0,0,3.082,2.981c1.475-.361,2.985-1.613,4.431-.833.908.5,1.813,1.613,2.977.856a10.53,10.53,0,0,0,1.42-1.055,8.177,8.177,0,0,0,.184-1.01,7.865,7.865,0,0,0-6.732-8.851,7.553,7.553,0,0,0-5.137,1.255A1.694,1.694,0,0,1-7399.713,2812.81Z" transform="translate(7403.576 -2810.868)"/><path class="z" d="M-7391.18,2822.4c-1.163.756-2.069-.354-2.977-.856-1.446-.781-2.956.471-4.432.833a2.581,2.581,0,0,1-3.082-2.981c.18-1.2.91-2.219.88-3.475a10.223,10.223,0,0,0-.34-2.547,1.687,1.687,0,0,0-.315-.635,8.086,8.086,0,0,0-3.488,5.766,7.867,7.867,0,0,0,6.733,8.851,7.827,7.827,0,0,0,8.441-6.01A10.535,10.535,0,0,1-7391.18,2822.4Z" transform="translate(7404.992 -2811.431)"/></g></g></g></g><g transform="translate(-8188.315 2936.249)"><path class="aa" d="M-8171.757,3091.538a18.589,18.589,0,0,1,.619,4.628c.053,2.284-1.274,4.143-1.6,6.316a4.691,4.691,0,0,0,5.6,5.418c2.682-.656,5.425-2.932,8.053-1.513,1.648.912,3.294,2.93,5.41,1.556a19.133,19.133,0,0,0,2.581-1.918,15,15,0,0,0,.334-1.836,14.294,14.294,0,0,0-12.235-16.085,13.729,13.729,0,0,0-9.336,2.281A3.051,3.051,0,0,1-8171.757,3091.538Z" transform="translate(8178.774 -3088.007)"/><path class="ab" d="M-8156.247,3108.967c-2.116,1.374-3.762-.644-5.41-1.556-2.628-1.42-5.372.856-8.053,1.513a4.69,4.69,0,0,1-5.6-5.418c.324-2.173,1.651-4.032,1.6-6.316a18.59,18.59,0,0,0-.62-4.628,3.043,3.043,0,0,0-.572-1.153,14.687,14.687,0,0,0-6.338,10.478,14.294,14.294,0,0,0,12.235,16.086,14.224,14.224,0,0,0,15.34-10.923A19.107,19.107,0,0,1-8156.247,3108.967Z" transform="translate(8181.348 -3089.031)"/></g><g transform="translate(-8126.396 2593.523)"><path class="ac" d="M-8077.355,2616.789c5.172-.953,8.792-6.452,14.034-6.524,5.879,6.282,9.484,17,19.622,16.815a4.14,4.14,0,0,0,2.846-1.928,35.014,35.014,0,0,0,2.174-3.079c-.926-12.426-10.006-22.766-22.19-24.219a24.914,24.914,0,0,0-21.076,7.843c.031,1.727.115,3.453.239,5.166C-8081.629,2613.139-8081.605,2617.328-8077.355,2616.789Z" transform="translate(8089.507 -2597.683)"/><path class="ad" d="M-8044.11,2628.6a4.14,4.14,0,0,1-2.846,1.928c-10.138.187-13.743-10.534-19.622-16.815-5.241.073-8.862,5.571-14.034,6.524-4.25.54-4.274-3.649-4.351-5.926-.125-1.712-.208-3.438-.239-5.166a27.777,27.777,0,0,0-7.358,15.854c-1.758,14.75,8.121,28.054,22.066,29.717s26.676-8.947,28.435-23.7a28.556,28.556,0,0,0,.124-5.5A34.981,34.981,0,0,1-8044.11,2628.6Z" transform="translate(8092.763 -2601.134)"/></g></g></svg>