<svg xmlns="http://www.w3.org/2000/svg" xmlns:xlink="http://www.w3.org/1999/xlink" width="636.001" height="391.244" viewBox="0 0 636.001 391.244">
  <defs>
    <linearGradient id="linear-gradient" x1="0.505" y1="0.372" x2="0.453" y2="0.951" gradientUnits="objectBoundingBox">
      <stop offset="0" stop-color="#b9bdab"/>
      <stop offset="1" stop-color="#769cae"/>
    </linearGradient>
    <clipPath id="clip-path">
      <path id="Path_3" data-name="Path 3" d="M5375,529.046c2.156-33.085-42.465-58.573-65.991-72.625-42.539-25.407-89.041-44.462-135.527-61.293-88.679-32.107-184.213-53.743-279.007-51.948-51.242.971-174.17,10.2-152.968,86.861,28.457,102.894,172.007,167.5,264.873,190.27,67.62,16.582,149.316,22.984,217.228,7.148C5262.39,618.413,5371.58,581.425,5375,529.046Z" transform="translate(-4739.071 -343.076)" fill="url(#linear-gradient)"/>
    </clipPath>
    <linearGradient id="linear-gradient-3" x1="0.501" y1="0.491" x2="0.457" y2="0.895" xlink:href="#linear-gradient"/>
    <linearGradient id="linear-gradient-4" y1="0.5" x2="1" y2="0.5" gradientUnits="objectBoundingBox">
      <stop offset="0" stop-color="#4fa5ad"/>
      <stop offset="1" stop-color="#99cbcf"/>
    </linearGradient>
    <linearGradient id="linear-gradient-5" x1="0.574" y1="0.838" x2="0.596" y2="0.969" xlink:href="#linear-gradient-4"/>
    <linearGradient id="linear-gradient-6" x1="0.313" x2="0.96" xlink:href="#linear-gradient-4"/>
    <linearGradient id="linear-gradient-7" x1="0.172" x2="1.45" xlink:href="#linear-gradient-4"/>
    <linearGradient id="linear-gradient-8" x1="-1.244" x2="0.595" xlink:href="#linear-gradient-4"/>
    <linearGradient id="linear-gradient-9" x1="0.739" y1="-0.869" x2="-1.309" y2="12.402" xlink:href="#linear-gradient-4"/>
    <linearGradient id="linear-gradient-10" x1="0.304" y1="0.498" x2="0.101" y2="0.285" xlink:href="#linear-gradient-4"/>
    <linearGradient id="linear-gradient-11" x1="-1.261" y1="-0.251" x2="1.31" y2="0.816" xlink:href="#linear-gradient-4"/>
    <linearGradient id="linear-gradient-12" x1="0.001" x2="0.999" xlink:href="#linear-gradient-4"/>
    <linearGradient id="linear-gradient-19" x1="0.46" y1="0.551" x2="0.368" y2="1.18" xlink:href="#linear-gradient-4"/>
    <linearGradient id="linear-gradient-20" x1="-0.858" y1="-1.514" x2="1.499" y2="1.938" xlink:href="#linear-gradient-4"/>
    <linearGradient id="linear-gradient-22" x1="0.977" y1="0.133" x2="-1.321" y2="1.86" xlink:href="#linear-gradient-4"/>
    <linearGradient id="linear-gradient-23" x1="0.624" y1="-0.2" x2="0.512" y2="0.445" xlink:href="#linear-gradient-4"/>
    <linearGradient id="linear-gradient-24" y1="0.5" x2="1" y2="0.5" gradientUnits="objectBoundingBox">
      <stop offset="0" stop-color="#2a7195"/>
      <stop offset="0.333" stop-color="#296e92"/>
      <stop offset="0.513" stop-color="#26668b"/>
      <stop offset="0.657" stop-color="#21597f"/>
      <stop offset="0.781" stop-color="#1a456d"/>
      <stop offset="0.891" stop-color="#112c57"/>
      <stop offset="0.992" stop-color="#060e3b"/>
      <stop offset="1" stop-color="#060c39"/>
    </linearGradient>
    <linearGradient id="linear-gradient-25" y1="0.5" x2="1" y2="0.5" gradientUnits="objectBoundingBox">
      <stop offset="0" stop-color="#2a7195"/>
      <stop offset="1" stop-color="#060c39"/>
    </linearGradient>
    <linearGradient id="linear-gradient-26" x1="0.52" y1="1.229" x2="0.471" y2="-0.352" gradientUnits="objectBoundingBox">
      <stop offset="0" stop-color="#faebd8"/>
      <stop offset="0.137" stop-color="#fae6ca"/>
      <stop offset="0.393" stop-color="#fbdaa7"/>
      <stop offset="0.737" stop-color="#fdc76e"/>
      <stop offset="1" stop-color="#ffb83f"/>
    </linearGradient>
    <linearGradient id="linear-gradient-27" x1="0.455" y1="0.242" x2="0.827" y2="1.483" gradientUnits="objectBoundingBox">
      <stop offset="0" stop-color="#faebd8"/>
      <stop offset="1" stop-color="#ffb83f"/>
    </linearGradient>
    <linearGradient id="linear-gradient-28" x1="0.713" y1="-0.573" x2="0.336" y2="1.476" gradientUnits="objectBoundingBox">
      <stop offset="0" stop-color="#ff9077"/>
      <stop offset="1" stop-color="#e9645a"/>
    </linearGradient>
    <linearGradient id="linear-gradient-29" x1="0.516" y1="0.293" x2="0.373" y2="1.104" xlink:href="#linear-gradient-28"/>
  </defs>
  <g id="luke9" transform="translate(-4739.074 -210.647)">
    <g id="Group_2" data-name="Group 2" transform="translate(4739.071 292.212)">
      <path id="Path_2" data-name="Path 2" d="M5375,529.046c2.156-33.085-42.465-58.573-65.991-72.625-42.539-25.407-89.041-44.462-135.527-61.293-88.679-32.107-184.213-53.743-279.007-51.948-51.242.971-174.17,10.2-152.968,86.861,28.457,102.894,172.007,167.5,264.873,190.27,67.62,16.582,149.316,22.984,217.228,7.148C5262.39,618.413,5371.58,581.425,5375,529.046Z" transform="translate(-4739.071 -343.076)" fill="url(#linear-gradient)"/>
      <g id="Group_1" data-name="Group 1" clip-path="url(#clip-path)">
        <rect id="Rectangle_1" data-name="Rectangle 1" width="747.807" height="420.641" transform="translate(-73.322 -101.468)" fill="url(#linear-gradient-3)"/>
      </g>
    </g>
    <g id="Group_4" data-name="Group 4" transform="translate(4893.856 211.6)">
      <path id="Path_4" data-name="Path 4" d="M5156.21,467.979l-153.491,12.6-11.2-240.024,165.158,35.19Z" transform="translate(-4991.521 -222.8)" stroke="#fff" stroke-linecap="round" stroke-linejoin="round" stroke-width="1.906" fill="url(#linear-gradient-4)"/>
      <path id="Path_5" data-name="Path 5" d="M5183.38,439.778,5036.02,448.2l-9.481-236.6,158.123,38.132Z" transform="translate(-5005.068 -211.6)" stroke="#fff" stroke-linecap="round" stroke-linejoin="round" stroke-width="1.906" fill="url(#linear-gradient-5)"/>
      <path id="Path_6" data-name="Path 6" d="M5029.54,592.174l-19.753,21.173,153.491-12.6,13.624-17Z" transform="translate(-4998.587 -355.572)" stroke="#fff" stroke-linecap="round" stroke-linejoin="round" stroke-width="1.906" fill="url(#linear-gradient-6)"/>
      <path id="Path_7" data-name="Path 7" d="M5012.99,211.6l-21.472,17.75,11.2,240.024,19.753-21.173Z" transform="translate(-4991.521 -211.6)" stroke="#fff" stroke-linecap="round" stroke-linejoin="round" stroke-width="1.906" fill="url(#linear-gradient-7)"/>
      <g id="Group_3" data-name="Group 3" transform="translate(26.055 91.139)">
        <path id="Path_8" data-name="Path 8" d="M5186.9,394.684a35.3,35.3,0,0,0-2.413-3.23c-2.044-3.028-4.031-6.1-6.047-9.141a28.7,28.7,0,0,0-4.366-5.548c-5.569-5.076-9.191-.522-12.5,4.548a49.46,49.46,0,0,0-6.894,16.38,39.1,39.1,0,0,1-1.326,5.315c-3.086,8.274-12.037,15.742-19.43,19.972a11.533,11.533,0,0,1-4.2,1.165c-3.107.433-6.354.747-9.316-.291-6.686-2.342-10.155-9.956-14.761-14.766-5.5-5.739-12.622-11.869-19.883-15.179-2.873-1.31-6.565-2.946-9.8-2.747-3.649.223-3.644,2.527-5.6,5.367-1.342,1.944-3.82,3.537-5.991,2.608a6.723,6.723,0,0,1-2.462-2.254l-6.6-8.483c-2.944-3.784-6.426-7.144-9.312-11.234-2.987-4.236-6.568-8.187-9.427-12.476-.779-1.169-.779-2.727-1.558-3.9a2.668,2.668,0,0,0-.992-.551l5.807,144.908,147.362-8.424.644-95.713a10.79,10.79,0,0,0-.533-1.272c-.383-1.533.3-3.159-.23-4.671a3.142,3.142,0,0,0-.172-.383Z" transform="translate(-5034.016 -360.244)" stroke="#fff" stroke-linecap="round" stroke-linejoin="round" stroke-width="1.906" fill="url(#linear-gradient-8)"/>
      </g>
    </g>
    <g id="Group_7" data-name="Group 7" transform="translate(5082.452 298.88)">
      <path id="Path_9" data-name="Path 9" d="M5552.09,399.118a59.164,59.164,0,0,0-15.379,9.657,56.556,56.556,0,0,0-12.828,15.59l-.3,4.063,38.68-1.943,3.406-33.912C5561.23,394.267,5557.04,397.053,5552.09,399.118Z" transform="translate(-5385.953 -368.892)" stroke="#fff" stroke-linecap="round" stroke-linejoin="round" stroke-width="1.906" fill="url(#linear-gradient-9)"/>
      <path id="Path_10" data-name="Path 10" d="M5538.39,393.833a67.251,67.251,0,0,1,17.09-9.657c5.5-2.064,10.161-4.851,15.087-6.546l.027-.242a34.96,34.96,0,0,1-13.523-17.877l-28.359-5.561-4.58,55.472a58.325,58.325,0,0,1,14.258-15.589Z" transform="translate(-5386.164 -353.951)" stroke="#fff" stroke-linecap="round" stroke-linejoin="round" stroke-width="1.906" fill="url(#linear-gradient-10)"/>
      <g id="Group_5" data-name="Group 5" transform="translate(0 0.814)">
        <path id="Path_11" data-name="Path 11" d="M5551.82,510.113a13.8,13.8,0,0,0,1.133-4.239,5.239,5.239,0,0,1,.123-2,30.684,30.684,0,0,0-.214-3.764c-.712-6.347.159-12.536.137-18.978a20.582,20.582,0,0,0-1.388-4.422,43.68,43.68,0,0,1-1.936-8.164c-.574-5.755-.219-11.584-.329-17.419-.183-.5.205-2.05-.678-2.51-3.836,15.392-6.668,30.237-10.184,45.365-1.542,6.616-2.824,12.935-5.46,19.482-2.972,7.924,3.646,13.013,4.532,19.847,1,5.626-1.107,11.253-.576,17.059.817,5.085,2.361,9.462,1.854,14.511,8.89-15.5,10.933-32.924,12.758-50.416a15.046,15.046,0,0,1,1.521-3.66c.638-1.66.015-3.289-.16-4.933a13.785,13.785,0,0,1-1.133,4.241Z" transform="translate(-5389.31 -391.388)" stroke="#fff" stroke-linecap="round" stroke-linejoin="round" stroke-width="1.906" fill="url(#linear-gradient-11)"/>
        <path id="Path_12" data-name="Path 12" d="M5565.98,540.739a19.7,19.7,0,0,0,.123-2,5.25,5.25,0,0,0-.123,2Z" transform="translate(-5402.339 -426.254)" stroke="#fff" stroke-linecap="round" stroke-linejoin="round" stroke-width="1.906" fill="url(#linear-gradient-12)"/>
        <path id="Path_13" data-name="Path 13" d="M5351.29,403.954l-.1.008a50.165,50.165,0,0,0,1.83,7.716C5353.3,408.83,5351.95,406.483,5351.29,403.954Z" transform="translate(-5319.256 -374.109)" stroke="#fff" stroke-linecap="round" stroke-linejoin="round" stroke-width="1.906" fill="url(#linear-gradient-4)"/>
        <path id="Path_14" data-name="Path 14" d="M5519.12,403.708c5.745-2.718,9.887-7.677,14.928-11.957,1.768-1.441,4.056,1.53,6.516.3a4.926,4.926,0,0,0,.9-.515,18.558,18.558,0,0,1-2.062-2.021c-.191-.246-.381-.5-.57-.745l-7.526.572C5526.5,392.532,5523.59,400.044,5519.12,403.708Z" transform="translate(-5384.227 -368.235)" stroke="#fff" stroke-linecap="round" stroke-linejoin="round" stroke-width="1.906" fill="url(#linear-gradient-4)"/>
        <path id="Path_15" data-name="Path 15" d="M5472.27,397.614c-.158-.774-1.528-1.2-2.161-1.941-1.454-1.3-3.134-2.475-4.654-3.777a4.927,4.927,0,0,1-.9.515c-2.459,1.229-4.748-1.741-6.516-.3-5.042,4.28-9.184,9.239-14.929,11.957,4.465-3.663,7.377-11.176,12.186-14.366l-115.051,8.738c.664,2.529,2.018,4.876,1.724,7.724a50.161,50.161,0,0,1-1.829-7.716l-10.861.825-.4,12.049c1.142,3.7,1.5,8.369,4.511,10.688,3.158,2.682,7.454,2.418,10.183,5.855,4.3,5.022,7.327,11.067,10.983,16.59-4.9-5.218-10.016-10.184-14.253-16.634a3.712,3.712,0,0,0-1.971-1.8,18.042,18.042,0,0,1-9.736-6.119l-2.4,72.688a4.836,4.836,0,0,1,.354,1.1c1.173,5.776,4.354,9.715,6.134,14.563.7,2.2,1.814,3.73,2.318,5.929-.724-1.534-1.862-2.4-2.586-3.935-1.231-3.741-3.253-7.253-4.693-10.781-.368-.66-.533-1.548-.9-2.208-.218-.391-.469-.84-.738-1.289l-3.456,104.962,145.39,5.109,19.9-182a39.916,39.916,0,0,1-15.653-26.426Zm-.253,90.4a15.047,15.047,0,0,0-1.52,3.66c-1.827,17.492-3.869,34.919-12.759,50.416.508-5.049-1.036-9.426-1.853-14.511-.531-5.806,1.575-11.434.576-17.059-.887-6.834-7.5-11.924-4.532-19.847,2.637-6.548,3.919-12.867,5.461-19.482,3.516-15.127,6.348-29.973,10.184-45.365.883.46.5,2.01.678,2.51.11,5.835-.245,11.664.329,17.419a43.684,43.684,0,0,0,1.935,8.164,20.61,20.61,0,0,1,1.388,4.422c.022,6.442-.848,12.631-.136,18.978a30.59,30.59,0,0,1,.213,3.764c.034-.119.071-.239.117-.357-.046.119-.083.238-.117.357a19.98,19.98,0,0,1-.124,2c.172,1.642.792,3.271.152,4.931Z" transform="translate(-5308.213 -368.596)" stroke="#fff" stroke-linecap="round" stroke-linejoin="round" stroke-width="1.906" fill="url(#linear-gradient-4)"/>
        <path id="Path_16" data-name="Path 16" d="M5329.91,564.38c1.439,3.528,3.462,7.04,4.693,10.781.724,1.535,1.862,2.4,2.586,3.935-.5-2.2-1.618-3.729-2.318-5.929-1.779-4.847-4.961-8.787-6.134-14.563a4.887,4.887,0,0,0-.354-1.1l-.111,3.374c.269.449.52.9.738,1.289C5329.38,562.832,5329.54,563.72,5329.91,564.38Z" transform="translate(-5310.394 -433.514)" stroke="#fff" stroke-linecap="round" stroke-linejoin="round" stroke-width="1.906" fill="url(#linear-gradient-4)"/>
        <path id="Path_17" data-name="Path 17" d="M5341.48,384.316c.189.479,1.019.413,1.406,1.124.351,1.7,1.766,2.579,1.917,4.048.7,3.394,1.178,7.042,2.3,10.144.332-3.209-1.43-5.779-1.938-8.693-.16-1.22.3-2.489-.076-3.448a44.571,44.571,0,0,1-3.535-10.876,12.242,12.242,0,0,0-1.715-3.8q-1.882,2.3-3.936,4.392a29.189,29.189,0,0,1,5.578,7.109Z" transform="translate(-5313.343 -362.062)" stroke="#fff" stroke-linecap="round" stroke-linejoin="round" stroke-width="1.906" fill="url(#linear-gradient-4)"/>
        <path id="Path_18" data-name="Path 18" d="M5537.9,387.478c-9.386-1.9-12.6,10.578-18.781,15.654,5.745-2.718,9.887-7.677,14.928-11.957,1.768-1.441,4.056,1.53,6.516.3a4.932,4.932,0,0,0,.9-.515,18.593,18.593,0,0,1-2.061-2.021q-.556-.713-1.091-1.441a1.392,1.392,0,0,1-.412-.02Z" transform="translate(-5384.227 -367.66)" stroke="#fff" stroke-linecap="round" stroke-linejoin="round" stroke-width="1.906" fill="url(#linear-gradient-4)"/>
        <path id="Path_19" data-name="Path 19" d="M5448.29,457.873c3.516-15.127,6.348-29.973,10.184-45.365.883.46.5,2.01.678,2.51q.019,1.049.021,2.1l3.369-33.61a9.337,9.337,0,0,1-1.534-1.151c-1.455-1.3-3.134-2.475-4.654-3.777a4.941,4.941,0,0,1-.9.515c-2.459,1.229-4.748-1.741-6.516-.3-5.042,4.28-9.183,9.239-14.928,11.957,6.187-5.076,9.4-17.555,18.781-15.655a1.392,1.392,0,0,0,.41.02,69.948,69.948,0,0,1-10.2-19.839l-116.918,10.166c-.158.2-.319.391-.479.587a12.252,12.252,0,0,1,1.715,3.8,44.548,44.548,0,0,0,3.535,10.876c.378.959-.083,2.228.077,3.448.509,2.914,2.27,5.484,1.938,8.693-1.119-3.1-1.6-6.75-2.3-10.144-.151-1.469-1.566-2.346-1.917-4.048-.387-.711-1.217-.644-1.406-1.124a29.182,29.182,0,0,0-5.58-7.109,119.987,119.987,0,0,1-10.882,9.655,6.848,6.848,0,0,0-.767.724c.37,3.447.279,7.07,1.466,10.188,1.7,3.994,6.81,2.659,8.109,6.445s1.533,8.819,4.7,11.258c3.158,2.682,7.453,2.418,10.183,5.855,4.3,5.022,7.327,11.067,10.983,16.59-4.9-5.218-10.016-10.184-14.253-16.634a3.71,3.71,0,0,0-1.972-1.8c-6.44-1.76-12.16-6.189-12.71-14.332.015-.484-.368-1.182-.571-1.168a23.483,23.483,0,0,1-9.119-10.533,22.388,22.388,0,0,1-3.235,5.95l-1.21,48.1q.171.559.363,1.12c2.745,7.229,8.076,12.734,8.219,21.149.047,4.1-.379,8.2-.678,12.266a1.586,1.586,0,0,0,.311.137c2.887,1.043,6.185,1.63,6.856,4.973,1.173,5.776,4.354,9.715,6.134,14.563.7,2.2,1.814,3.73,2.318,5.929-.723-1.534-1.862-2.4-2.586-3.935-1.231-3.741-3.253-7.253-4.693-10.781-.368-.66-.533-1.548-.9-2.208-.737-1.322-1.841-3.306-2.8-3.73a17.731,17.731,0,0,1-4.8-2.374,41.229,41.229,0,0,0,.981,13.114c1.555,5.918-1.316,11.864-3.948,16.89-2.011,3.906-2.887,8.212-5.245,11.645-.542.714-1.066,1.464-1.562,2.242l-1.236,49.1,144.272,3.762,5.124-51.116c-.393-3.022-1.206-5.973-1.727-9.211-.531-5.806,1.575-11.434.576-17.059-.887-6.834-7.5-11.924-4.532-19.847C5445.46,470.808,5446.75,464.489,5448.29,457.873Z" transform="translate(-5299.113 -355.278)" stroke="#fff" stroke-linecap="round" stroke-linejoin="round" stroke-width="1.906" fill="url(#linear-gradient-19)"/>
        <path id="Path_20" data-name="Path 20" d="M5443.38,710.592l15.541,18.129-145.39-5.109-14.422-16.782Z" transform="translate(-5299.113 -491.281)" stroke="#fff" stroke-linecap="round" stroke-linejoin="round" stroke-width="1.906" fill="url(#linear-gradient-20)"/>
        <path id="Path_21" data-name="Path 21" d="M5565.98,540.739a19.7,19.7,0,0,0,.123-2,5.25,5.25,0,0,0-.123,2Z" transform="translate(-5402.339 -426.254)" stroke="#fff" stroke-linecap="round" stroke-linejoin="round" stroke-width="1.906" fill="url(#linear-gradient-12)"/>
        <path id="Path_22" data-name="Path 22" d="M5554.2,402.108a1.438,1.438,0,0,0-.627-.789l-3.37,33.61c.017,5.134-.2,10.255.308,15.32a43.724,43.724,0,0,0,1.935,8.164,20.58,20.58,0,0,1,1.388,4.422c.022,6.442-.848,12.631-.136,18.978a30.59,30.59,0,0,1,.213,3.764c.034-.119.071-.239.117-.357-.046.119-.083.238-.117.357a19.7,19.7,0,0,1-.123,2c.174,1.643.8,3.273.159,4.933a15.046,15.046,0,0,0-1.52,3.66c-1.827,17.492-3.869,34.919-12.759,50.416a22.885,22.885,0,0,0-.127-5.3l-5.124,51.116,15.541,18.129,19.9-182a39.919,39.919,0,0,1-15.658-26.423Z" transform="translate(-5390.143 -373.09)" stroke="#fff" stroke-linecap="round" stroke-linejoin="round" stroke-width="1.906" fill="url(#linear-gradient-22)"/>
      </g>
      <g id="Group_6" data-name="Group 6" transform="translate(0.085 78.667)">
        <path id="Path_23" data-name="Path 23" d="M5430.28,587.96c-1.947.779-5.842,1.169-6.231,0-4.284-7.011-9.737-14.021-12.463-21.032-2.093-5.383-4.542-10.61-6.728-15.954-2.289-5.595-3.549-10.757-7.213-15.619a149.517,149.517,0,0,0-24.572-25.6c-4.016-3.292-7.3-2.279-12.091-2.5-3.162-.145-5.685-1.643-8.689-2.467-6.416-1.758-12.758,1.055-19.173-.039-5.5-.938-8.418-5.853-11.915-9.65-2.594-2.817-5.568-5.408-7.847-8.494-1.564-2.117-2.022-3.574-4.839-4.142-6.712-1.354-5.88,4.033-6,8.662q.171.56.363,1.12c2.746,7.229,8.076,12.734,8.219,21.148.047,4.1-.378,8.2-.679,12.266a1.643,1.643,0,0,0,.312.136c2.886,1.044,6.185,1.63,6.856,4.974,1.173,5.775,4.354,9.715,6.133,14.562.7,2.2,1.815,3.73,2.319,5.929-.724-1.533-1.862-2.4-2.586-3.935-1.231-3.74-3.253-7.252-4.693-10.781-.368-.66-.533-1.548-.9-2.209-.736-1.322-1.842-3.3-2.8-3.729a17.715,17.715,0,0,1-4.8-2.375,41.214,41.214,0,0,0,.98,13.114c1.556,5.918-1.315,11.865-3.946,16.89-2.012,3.906-2.887,8.212-5.246,11.645-.542.714-1.066,1.465-1.563,2.242l-1.235,49.1,144.271,3.763,3.375-33.662a40.837,40.837,0,0,0-6.1-3.761C5438.07,586.013,5434.18,586.4,5430.28,587.96Z" transform="translate(-5299.252 -482.254)" stroke="#fff" stroke-linecap="round" stroke-linejoin="round" stroke-width="1.906" fill="url(#linear-gradient-23)"/>
      </g>
    </g>
    <g id="Group_8" data-name="Group 8" transform="translate(4783.609 218.114)">
      <path id="Path_24" data-name="Path 24" d="M4830.78,231.7a39.72,39.72,0,0,1,2.479,9.638c.688,4.819-1.652,9.087-1.79,13.768-.276,7.022,6.471,12.529,13.217,10.051,5.507-2.065,10.739-7.573,16.659-5.232,3.718,1.514,7.711,5.37,11.841,1.928a40.893,40.893,0,0,0,4.979-4.71,32.081,32.081,0,0,0,.245-3.968c0-17.1-13.41-30.952-29.95-30.952a29.252,29.252,0,0,0-19.182,7.181A6.5,6.5,0,0,1,4830.78,231.7Z" transform="translate(-4818.506 -222.225)" fill="url(#linear-gradient-24)"/>
      <path id="Path_25" data-name="Path 25" d="M4866.39,266.386c-4.13,3.442-8.124-.413-11.841-1.928-5.92-2.341-11.152,3.167-16.66,5.232-6.747,2.478-13.493-3.029-13.217-10.051.137-4.681,2.479-8.949,1.79-13.768a39.7,39.7,0,0,0-2.478-9.638,6.508,6.508,0,0,0-1.5-2.3,31.3,31.3,0,0,0-10.771,23.771c0,17.094,13.41,30.952,29.952,30.952,15.24,0,27.821-11.764,29.706-26.985a40.958,40.958,0,0,1-4.981,4.715Z" transform="translate(-4811.711 -226.756)" fill="url(#linear-gradient-25)"/>
    </g>
    <g id="Group_9" data-name="Group 9" transform="translate(5289.627 477.536)">
      <path id="Path_26" data-name="Path 26" d="M5647.65,660.33c3.629-1.127,5.757-5.382,9.512-5.883,4.756,4.006,8.261,11.39,15.521,10.389a2.993,2.993,0,0,0,1.877-1.627,25.584,25.584,0,0,0,1.3-2.4c-1.728-8.838-9.128-15.482-18-15.482a18.005,18.005,0,0,0-14.454,7.432c.17,1.237.378,2.468.614,3.686C5644.27,658.077,5644.65,661.082,5647.65,660.33Z" transform="translate(-5639.485 -645.332)" fill="url(#linear-gradient-26)"/>
      <path id="Path_27" data-name="Path 27" d="M5672.09,667.9a3,3,0,0,1-1.877,1.627c-7.26,1-10.764-6.383-15.52-10.389-3.755.5-5.883,4.756-9.513,5.883-3,.751-3.38-2.253-3.63-3.88-.236-1.218-.443-2.449-.613-3.686a20.072,20.072,0,0,0-3.924,12.006c0,10.735,8.228,19.438,18.378,19.438s18.377-8.7,18.377-19.438a20.619,20.619,0,0,0-.38-3.957A25.489,25.489,0,0,1,5672.09,667.9Z" transform="translate(-5637.01 -650.021)" fill="url(#linear-gradient-27)"/>
    </g>
    <g id="Group_10" data-name="Group 10" transform="translate(4914.904 567.705)">
      <path id="Path_28" data-name="Path 28" d="M5035.21,805.583c3.191-.99,5.063-4.733,8.364-5.173,4.183,3.522,7.265,10.016,13.648,9.136a2.635,2.635,0,0,0,1.651-1.431,22.383,22.383,0,0,0,1.139-2.107c-1.519-7.771-8.026-13.613-15.825-13.613a15.833,15.833,0,0,0-12.709,6.535c.148,1.088.333,2.17.54,3.242C5032.24,803.6,5032.57,806.244,5035.21,805.583Z" transform="translate(-5028.026 -792.395)" fill="url(#linear-gradient-28)"/>
      <path id="Path_29" data-name="Path 29" d="M5056.69,812.238a2.635,2.635,0,0,1-1.651,1.431c-6.383.88-9.465-5.613-13.648-9.136-3.3.44-5.173,4.183-8.364,5.173-2.642.66-2.972-1.981-3.192-3.411-.207-1.072-.391-2.154-.54-3.242a17.654,17.654,0,0,0-3.451,10.558c0,9.44,7.235,17.093,16.161,17.093s16.16-7.653,16.16-17.093a18.137,18.137,0,0,0-.335-3.48,22.371,22.371,0,0,1-1.14,2.107Z" transform="translate(-5025.849 -796.518)" fill="url(#linear-gradient-29)"/>
    </g>
    <path id="Path_30" data-name="Path 30" d="M4796.78,540.816A386.339,386.339,0,0,0,4944.319,643.7" transform="translate(-22.325 -127.363)" fill="none" stroke="#fff" stroke-miterlimit="10" stroke-width="1.906"/>
    <path id="Path_31" data-name="Path 31" d="M5710.16,597.584c-18.37-27.024-43.9-46.69-74.075-62.382" transform="translate(-347.024 -125.191)" fill="none" stroke="#fff" stroke-linecap="round" stroke-linejoin="round" stroke-width="1.906"/>
    <path id="Path_32" data-name="Path 32" d="M5697.75,601.261c-10.3-10.4-32.181-26.165-47.881-32.591" transform="translate(-352.356 -138.138)" fill="none" stroke="#fff" stroke-linecap="round" stroke-linejoin="round" stroke-width="1.906"/>
  </g>
</svg>
