<svg xmlns="http://www.w3.org/2000/svg" xmlns:xlink="http://www.w3.org/1999/xlink" width="484.264" height="540.568" viewBox="0 0 484.264 540.568">
  <defs>
    <clipPath id="clip-path">
      <path id="Path_4" data-name="Path 4" d="M980.678,209.693c-7.978-4.1-129.358-64.508-227.286-21.618-113.13,49.548-144.611,214.9-39.384,312.467,101.822,94.406,303.206,98.961,383.5,18.694C1183.57,433.2,1106.13,274.1,980.678,209.693Z" transform="translate(-649.688 -172.765)" fill="none"/>
    </clipPath>
    <linearGradient id="linear-gradient" x1="0.562" y1="1.024" x2="0.477" y2="0.532" gradientUnits="objectBoundingBox">
      <stop offset="0" stop-color="#2a7195"/>
      <stop offset="1" stop-color="#060c39"/>
    </linearGradient>
    <linearGradient id="linear-gradient-2" x1="0.498" y1="0.776" x2="0.391" y2="0.233" xlink:href="#linear-gradient"/>
    <linearGradient id="linear-gradient-3" x1="119.125" y1="0.354" x2="118.921" y2="1.011" gradientUnits="objectBoundingBox">
      <stop offset="0" stop-color="#faebd8"/>
      <stop offset="1" stop-color="#ffb83f"/>
    </linearGradient>
    <linearGradient id="linear-gradient-4" x1="97.967" y1="0.494" x2="97.839" y2="1.008" xlink:href="#linear-gradient-3"/>
    <linearGradient id="linear-gradient-5" x1="284.918" y1="-0.573" x2="284.542" y2="1.476" gradientUnits="objectBoundingBox">
      <stop offset="0" stop-color="#ff9077"/>
      <stop offset="1" stop-color="#e9645a"/>
    </linearGradient>
    <linearGradient id="linear-gradient-6" x1="251.337" y1="0.293" x2="251.195" y2="1.104" xlink:href="#linear-gradient-5"/>
    <linearGradient id="linear-gradient-7" y1="0.5" x2="1" y2="0.5" gradientUnits="objectBoundingBox">
      <stop offset="0" stop-color="#b9bdab"/>
      <stop offset="1" stop-color="#769cae"/>
    </linearGradient>
    <linearGradient id="linear-gradient-8" x1="0.98" y1="1.183" x2="0.657" y2="0.792" xlink:href="#linear-gradient-7"/>
    <linearGradient id="linear-gradient-10" x1="0.568" y1="0.509" x2="1.576" y2="0.746" xlink:href="#linear-gradient-7"/>
  </defs>
  <g id="luke1" transform="translate(-821.503 -565)">
    <g id="Group_2" data-name="Group 2" transform="translate(821.502 565.001)">
      <g id="Group_1" data-name="Group 1" clip-path="url(#clip-path)">
        <path id="Path_1" data-name="Path 1" d="M976.255,426.292c-42.705,37.075-86.76,69.6-139.888,88.681-90.274,32.6-185.306,6.411-268.281-32.852q-5.2-2.444-10.286-5.055L544.945,659.237l548.453,38.7,26.024-368.785c-13.153.435-25.621,6.489-38.177,13.79C1041.1,367.394,1011.17,397.019,976.255,426.292Z" transform="translate(-614.618 -225.127)" fill="url(#linear-gradient)"/>
        <path id="Path_2" data-name="Path 2" d="M590.118.866,564.271,367.149q5.09,2.609,10.286,5.055c82.975,39.263,178.008,65.456,268.281,32.852,53.128-19.079,97.182-51.605,139.888-88.681,34.916-29.273,64.846-58.9,104.99-83.348,12.556-7.3,25.025-13.355,38.177-13.79l12.678-179.668Z" transform="translate(-621.089 -115.21)" fill="url(#linear-gradient-2)"/>
        <path id="Path_3" data-name="Path 3" d="M1042.73,665.357q-.775.283-.968-.748" transform="translate(-780.962 -337.444)" fill="none" stroke="#100052" stroke-miterlimit="10" stroke-width="0.531"/>
      </g>
    </g>
    <g id="Group_3" data-name="Group 3" transform="translate(976.958 597.566)">
      <path id="Path_5" data-name="Path 5" d="M1007.4,252.846c19.944-7.091,35.06,20.484,33.9,36.544,13.12,3.6,20.07,17.356,16.935,30.249-3.551,14.61-16.772,21.434-30.388,24.5a68.228,68.228,0,0,1-27.45.874,24.892,24.892,0,0,1-3.639,3.537c-3.5,1.844-6.282,4.533-10.1,6.041a38.884,38.884,0,0,1-20,2.274c-3.386-.521-20.522-5.013-16-11.393-8.149,5.7-47.86,2.041-39.646-14.051-22.551,4.009-40.2-38.328-16.024-46.739-16.921-14.369,19.352-52.529,37.777-33.449C947.276,190.749,1010.79,239.871,1007.4,252.846Z" transform="translate(-883.393 -221.722)" fill="#fff"/>
      <path id="Path_6" data-name="Path 6" d="M1060.95,330.306c-.572-10.1-7.106-18.915-17-21.627.686-9.516-7.56-35.311-21.139-24.006-4.851,4.039-.257,13.071-5.4,14.166-2.155.459-9.814-5.572-11.626-6.509a84.157,84.157,0,0,0-13.818-6.054c-13.909-4.262-31.885-4-44.374,4.161-6.977,4.56-12.109,11.174-11.495,19.91.588,8.369,6.317,15.43,6.966,23.856h1.113c-3.855,0-26.57-10.36-22.833,3.341a29.309,29.309,0,0,1-2.506-2.506,46.144,46.144,0,0,0-6.961-3.172c-4.453-1.668-7.993-2.28-11.718,1.364-8.511,8.327,12.026,17.023,18.454,15.879-7.986,15.644,30.537,18.834,38.139,13.517-6.028,8.5,21.276,11.567,25.143,11.126a36.891,36.891,0,0,0,15.29-5.268c1.893-1.186,5.545-5.612,7.412-6.3,2.334-.861,7.709.887,10.241.925C1034.49,363.4,1062.32,354.578,1060.95,330.306Z" transform="translate(-888.327 -241.857)" fill="#d2e7f9" stroke="#bbdbf9" stroke-miterlimit="10" stroke-width="0.419"/>
    </g>
    <g id="Group_4" data-name="Group 4" transform="translate(859.707 664.001)">
      <path id="Path_7" data-name="Path 7" d="M759.18,331.954a43.385,43.385,0,0,0-2.709,10.534c-.753,5.267,1.8,9.932,1.956,15.048.3,7.675-7.073,13.694-14.446,10.985-6.019-2.257-11.738-8.277-18.209-5.719-4.063,1.656-8.427,5.869-12.941,2.107a44.662,44.662,0,0,1-5.441-5.148,35.3,35.3,0,0,1-.267-4.336c0-18.684,14.655-33.829,32.734-33.829a31.972,31.972,0,0,1,20.963,7.848A7.115,7.115,0,0,0,759.18,331.954Z" transform="translate(-707.124 -321.596)" fill="url(#linear-gradient-3)"/>
      <path id="Path_8" data-name="Path 8" d="M712.966,368.86c4.515,3.762,8.878-.451,12.941-2.107,6.471-2.558,12.189,3.462,18.209,5.719,7.374,2.709,14.747-3.311,14.446-10.985-.151-5.116-2.709-9.781-1.956-15.048a43.388,43.388,0,0,1,2.709-10.534,7.116,7.116,0,0,1,1.641-2.51,34.214,34.214,0,0,1,11.77,25.981c0,18.684-14.655,33.83-32.734,33.83-16.658,0-30.408-12.858-32.468-29.493A44.663,44.663,0,0,0,712.966,368.86Z" transform="translate(-707.258 -325.546)" fill="url(#linear-gradient-4)"/>
    </g>
    <g id="Group_5" data-name="Group 5" transform="translate(1228.031 862.662)">
      <path id="Path_9" data-name="Path 9" d="M1278.52,629.464c-2.23-.692-3.536-3.3-5.842-3.613-2.921,2.46-5.074,7-9.533,6.381a1.837,1.837,0,0,1-1.153-1,15.484,15.484,0,0,1-.8-1.471,11.467,11.467,0,0,1,11.053-9.508,11.058,11.058,0,0,1,8.878,4.565c-.1.759-.232,1.515-.377,2.264C1280.6,628.081,1280.37,629.926,1278.52,629.464Z" transform="translate(-1260.962 -620.253)" fill="url(#linear-gradient-5)"/>
      <path id="Path_10" data-name="Path 10" d="M1261.88,633.53a1.837,1.837,0,0,0,1.153,1c4.459.615,6.611-3.921,9.533-6.381,2.306.308,3.613,2.921,5.842,3.613,1.845.462,2.075-1.384,2.229-2.383.145-.749.273-1.505.377-2.264a12.329,12.329,0,0,1,2.41,7.374c0,6.594-5.053,11.939-11.287,11.939s-11.287-5.345-11.287-11.939a12.684,12.684,0,0,1,.234-2.43,15.549,15.549,0,0,0,.8,1.471Z" transform="translate(-1260.844 -622.55)" fill="url(#linear-gradient-6)"/>
    </g>
    <g id="Group_10" data-name="Group 10" transform="translate(892.441 789.109)">
      <ellipse id="Ellipse_1" data-name="Ellipse 1" cx="134.587" cy="12.133" rx="134.587" ry="12.133" transform="translate(0 292.193)" fill="#cbccce"/>
      <path id="Path_11" data-name="Path 11" d="M1121.65,815.636l10.793,97.139-5.4.273-12.592-97.412Z" transform="translate(-876.24 -612.118)" fill="#646f86"/>
      <path id="Path_12" data-name="Path 12" d="M1019.03,819.076l10.793,97.139-5.4.273-12.592-97.412Z" transform="translate(-841.882 -613.27)" fill="#646f86"/>
      <path id="Path_13" data-name="Path 13" d="M983.37,819.076l-10.793,97.139,5.4.273,12.592-97.412Z" transform="translate(-828.736 -613.27)" fill="#646f86"/>
      <g id="Group_6" data-name="Group 6" transform="translate(92.863 85.491)">
        <path id="Path_14" data-name="Path 14" d="M1071.91,647.09c-1.308-7.982-7.623-9.406-13.8-8.621a94.6,94.6,0,0,1-17.244.219q-12.483-.635-24.985-.44c-3.7.058-7.444.18-10.979,1.38-5.833,1.978-9.772,7.524-11.919,13.64-2.585,7.363-1.283,13.7-1.66,21.3-.468,9.456-.522,18.949-1.737,28.34-.948,7.324-1.663,12.814-2.86,17.221q-.919,2.54-1.846,5.076a20.711,20.711,0,0,1-3.555,5.232c-4.094,4.4-9.867,7.038-39.538,7.506-27.84.439-38.533-1.638-43.425,6.161-2.517,4.014-3.388,10.467-1.054,15.229,3.677,7.5,14.608,9.371,59.279,5.565,8.04,2.707,24.167,2.55,57.959-.489,17-1.529,31.059-3.119,40.778-4.3,0,0,.809-6.809,3.213-22.416,2.529-16.421,8.552-44.373,12.782-75.2C1071.83,658.723,1072.76,652.265,1071.91,647.09Z" transform="translate(-895.94 -638.201)" fill="url(#linear-gradient-7)"/>
        <path id="Path_15" data-name="Path 15" d="M977.821,792.208a73.412,73.412,0,0,0-10.4-3.03c-3.686-.865-30.953-1.014-34.141-1.009q-4.266,0-8.53-.017c-4.317-.012-8.647-.062-12.958.245-4.842.345-10.437,1.088-13.438,5.915-2.518,4.049-3.388,10.558-1.055,15.362,3.826,7.875,15.5,9.6,64.859,5.121q9.017-.818,18.024-1.758,4-.418,8-.859l3.611-.4c1.334-.151,2.838.2,4.053-.615a4.207,4.207,0,0,0,1.54-3.858,6.7,6.7,0,0,0-1.873-3.839,23.04,23.04,0,0,0-3.25-2.809c-1.566-1.131-3.147-2.237-4.758-3.285A55.386,55.386,0,0,0,977.821,792.208Z" transform="translate(-895.94 -688.404)" fill="url(#linear-gradient-8)"/>
        <path id="Path_16" data-name="Path 16" d="M1042.3,794.537a292.488,292.488,0,0,0-35.338-6.855,240.691,240.691,0,0,1,34.3,14.022Q1041.68,798.692,1042.3,794.537Z" transform="translate(-933.111 -688.25)" fill="url(#linear-gradient-7)"/>
        <path id="Path_17" data-name="Path 17" d="M1097.68,662.25c-4.23,31.1-10.253,59.3-12.782,75.863-2.4,15.744-3.213,22.613-3.213,22.613-9.719,1.186-23.774,2.79-40.778,4.333-49.362,4.476-61.033,2.754-64.859-5.121-2.333-4.8-1.463-11.313,1.054-15.362,4.892-7.867,15.585-5.772,43.425-6.215,29.671-.472,35.443-3.137,39.538-7.572,5.457-5.911,6.407-13.314,8.262-27.77,2.562-19.977.074-40.495,6.327-54.161a16.083,16.083,0,0,1,4.043-5.514c4.947-4.261,13.058-5.133,17.049-1.379C1099.77,645.752,1098.86,653.551,1097.68,662.25Z" transform="translate(-922.305 -638.665)" fill="url(#linear-gradient-10)"/>
      </g>
      <g id="Group_7" data-name="Group 7" transform="translate(75.399 90.896)">
        <path id="Path_18" data-name="Path 18" d="M897.716,720.121c-2.243-.221-5.244-1.347-6.392-3.406-1.388-2.488,1.523-4.79,3.285-5.877,3.794-2.339,7.867-3.294,11.792-5.064,4.5-2.03,9.15-3.911,13.646-5.786,3.355-1.4,6.217-2.353,9.138-4.694,4.441-3.561,3.1-12.644,3.613-17.718q1.165-11.606,3.095-23.12c2.091-12.475,27.959-9.318,25.315.855-3.273,12.593-13.712,46.848-19.253,54.833-1.507,2.172-7.1,4.151-10.492,5.1-5.144,1.443-11.064,3.259-16.647,4.058a71.157,71.157,0,0,1-17.1.819Z" transform="translate(-876.809 -646.326)" fill="#434347" stroke="#100052" stroke-miterlimit="10" stroke-width="0.472"/>
        <path id="Path_19" data-name="Path 19" d="M891.931,740.969c-1.745.949-3.535,1.81-5.3,2.726a21.147,21.147,0,0,0-4.542,2.62c-1.426,1.273-2.648,2.741-4.05,4.04a16.9,16.9,0,0,0-3.744,5.08,4.357,4.357,0,0,0,.052,2.9c.568,1.194,2.345,2.054,3.357,2.792,1.508,1.1,2.762,2.059,4.249,3.072a1.18,1.18,0,0,0,.857.343c2.488-.271,4.9-3.309,6.374-4.769,2.377-2.359,3.881-4.227,6.152-6.333,1.763-1.636,4-2.337,6.133-3.358" transform="translate(-871.156 -678.014)" fill="#434347" stroke="#100052" stroke-miterlimit="10" stroke-width="0.472"/>
        <path id="Path_20" data-name="Path 20" d="M876.265,755.277a24.872,24.872,0,0,0-3.471,3.972,26.6,26.6,0,0,0-1.921,3.846,27.481,27.481,0,0,0-.934,3.021c-.189.7-.588,1.8.317,2.4a.963.963,0,0,0,.824.066,2.559,2.559,0,0,0,1.553-1.406,10.236,10.236,0,0,0,.558-2.024,12.138,12.138,0,0,1,1.08-2.49,8.775,8.775,0,0,1,2.078-2.486" transform="translate(-869.686 -682.805)" fill="#434347" stroke="#100052" stroke-miterlimit="10" stroke-width="0.431"/>
        <path id="Path_21" data-name="Path 21" d="M877.469,762.44c-1.416,1.4-2.908,2.489-3.943,4.2a19.364,19.364,0,0,0-2.166,5.677,5.141,5.141,0,0,0-.064,2.284,1.292,1.292,0,0,0,2.137.765,2.541,2.541,0,0,0,.661-1.3,28.463,28.463,0,0,1,2.329-5.663,8.727,8.727,0,0,1,1.577-2.07" transform="translate(-870.191 -685.203)" fill="#434347" stroke="#100052" stroke-miterlimit="10" stroke-width="0.484"/>
        <path id="Path_22" data-name="Path 22" d="M880.421,764.422c-1.727,1.834-3.617,3.226-4.9,5.431a27.009,27.009,0,0,0-2.751,7.26A7.035,7.035,0,0,0,872.6,780a1.553,1.553,0,0,0,.625,1.089,1.492,1.492,0,0,0,1.841-.208,3.619,3.619,0,0,0,.82-1.662c.357-1.13.73-2.323,1.169-3.4a15.428,15.428,0,0,1,1.742-2.9,7.476,7.476,0,0,1,1.133-1.271" transform="translate(-870.634 -685.866)" fill="#434347" stroke="#100052" stroke-miterlimit="10" stroke-width="0.586"/>
        <path id="Path_23" data-name="Path 23" d="M887.684,771.632c-1.186,1.006-2.071,2.23-3.238,3.237a16.5,16.5,0,0,0-3.158,3.428,25.109,25.109,0,0,1-3,4.147,1.615,1.615,0,0,1-1.333.6.416.416,0,0,1-.265-.148.638.638,0,0,1-.149-.328,4.7,4.7,0,0,1,.517-2.635,31.434,31.434,0,0,1,6.129-9.624" transform="translate(-871.968 -687.837)" fill="#434347" stroke="#100052" stroke-miterlimit="10" stroke-width="0.545"/>
      </g>
      <path id="Path_24" data-name="Path 24" d="M940.293,947.269c1.173,2.639.611,7.821-2.063,9.822a9.719,9.719,0,0,1-3.778,1.454,61.672,61.672,0,0,1-22.735.193,8.061,8.061,0,0,1-2.983-.9c-4.346-2.7,3.381-6.372,5.878-7.043,2.291-.615,5.021-.707,7.183-1.616,1.674-.7,2.067-2.375,3.625-3.3a13.461,13.461,0,0,1,4.549-1.465,16.035,16.035,0,0,1,2.6-.286C935.294,944.094,939.233,944.884,940.293,947.269Z" transform="translate(-806.926 -655.138)" fill="#ffefd1"/>
      <path id="Path_25" data-name="Path 25" d="M891.373,943.606c1.173,2.639.611,7.82-2.064,9.822a9.72,9.72,0,0,1-3.777,1.454,61.66,61.66,0,0,1-22.735.193,8.056,8.056,0,0,1-2.983-.9c-4.347-2.7,3.381-6.372,5.878-7.043,2.29-.615,5.021-.707,7.183-1.616,1.674-.7,2.067-2.374,3.625-3.3a13.473,13.473,0,0,1,4.549-1.465,16.111,16.111,0,0,1,2.6-.285C886.374,940.431,890.313,941.22,891.373,943.606Z" transform="translate(-790.546 -653.912)" fill="#ffefd1"/>
      <path id="Path_26" data-name="Path 26" d="M879.51,874.345q-1.335-.406-2.639-.91a3.63,3.63,0,0,1-1.933-1.323,3.78,3.78,0,0,1-.394-1.309l-.051-.3c-1.757-10.2-2.414-20.651-3.422-30.95-1.029-10.509-2.051-21.02-3.274-31.508-1.23-10.558-3.766-20.5-2.787-31.186a64.522,64.522,0,0,1,1.256-9.013c1.738-7.333,6.628-15.5,13.371-19.309,7.4-4.176,18.692-4.908,27.051-6.777,13.375-3.044,26.84-6.1,40.6-6.825,6.7-.353,13.634-.107,19.779,2.454s11.365,7.864,11.927,14.128c.317,3.531-.213,10.37-1.4,13.56-3.93,10.563-13.506,11.52-23.813,11.8L896.4,778.466c-2.233.057,1.015,42.967,1.811,53.741.074,1,.126,1.722.152,2.109.154,1.23.159,2.5.231,3.736.6,10.4,1.139,21.057.212,31.454a12.162,12.162,0,0,1-.589,2.568,26.725,26.725,0,0,1-.422,2.736c-.684,1.471-5,1.207-6.694,1.218a39.017,39.017,0,0,1-11.591-1.683Z" transform="translate(-792.647 -585.057)" fill="#12073c"/>
      <path id="Path_27" data-name="Path 27" d="M942.76,868.47c-.031,3.435.428,6.917-.433,10.28-.312,1.218-2.677,1.291-3.727,1.39a46.344,46.344,0,0,1-16.245-1.357,4.981,4.981,0,0,1-2.135-.976c-1.133-1.035-1.129-2.822-1.361-4.219-.325-1.95-.669-3.9-1.012-5.842-.67-3.8-1.346-7.6-1.928-11.421q-1.2-7.862-2.34-15.734c-1.525-10.387-3.044-20.776-4.76-31.133-1.737-10.487-4.749-20.293-4.285-31.016a64.49,64.49,0,0,1,.822-9.063c1.383-7.409,5.873-15.8,12.426-19.93,7.192-4.527,18.435-5.8,26.693-8.071,13.213-3.684,26.516-7.385,40.223-8.771,6.672-.674,13.613-.764,19.874,1.5s11.73,7.308,12.592,13.539c.486,3.511.287,10.368-.745,13.611C1013,772,1003.48,773.412,993.2,774.193l-57.234,4.341c-2.228.164,3.081,42.868,4.4,53.592.122.994.209,1.714.253,2.1.861,7.546,1.564,15.115,1.915,22.7C942.708,860.773,942.8,864.621,942.76,868.47Z" transform="translate(-805.938 -584.179)" fill="#12073c"/>
      <path id="Path_28" data-name="Path 28" d="M961.476,657.937a27.029,27.029,0,0,0,3.331.005,2.933,2.933,0,0,0,1.831-.571,3.05,3.05,0,0,0,.737-1.419c2.03-6.645,3.241-13.312,1.946-20.192a41.6,41.6,0,0,0-8.687-18.692c-1.862-2.259-4.2-4.435-7.1-4.791a6.334,6.334,0,0,0-7.312,5.671c-.593,5.608-.811,11.284-1.215,16.91-.29,4.03-.58,8.062-1.018,12.079a34.208,34.208,0,0,1-1.2,6.585,1.621,1.621,0,0,0-.092,1.075c.2.485.8.634,1.314.719l10.587,1.736a67.568,67.568,0,0,0,6.878.885Z" transform="translate(-818.71 -544.011)" fill="#feca84"/>
      <path id="Path_29" data-name="Path 29" d="M991.9,697.44a53.847,53.847,0,0,1-14.97-3.593,8.937,8.937,0,0,0-3.166-.418c-1.68-.14-3.468-.325-4.854-1.543a2.164,2.164,0,0,1-.664-.914,2.9,2.9,0,0,1,.1-1.666,9.881,9.881,0,0,1,1.183-2.876c1.3-1.948,2.435-1.147,2.889-3.8a24.688,24.688,0,0,0,.376-4.844c-.063-1.565.193-3.019.186-4.559-.031-7.463-.787-15.821-3.142-22.908-1.241-3.734-2.15-7.274-3.961-10.814-3.984-7.785-9.29-14.46-13.8-21.809a33.967,33.967,0,0,1-3.8-7.629c-2.188-7.1.246-11.281,4.863-15.325,5.391-4.722,11.122-9.02,17.469-11.718a32.409,32.409,0,0,1,15.262-2.727c28.485,2.314,35.821,50.628,41.011,71.544,3.82,15.394,7.612,31.237,5.7,47.2a2.247,2.247,0,0,1-.639,1.574,2.285,2.285,0,0,1-1.809.185c-11.813-2.085-23.92-1.661-35.942-3.086Q993.051,697.583,991.9,697.44Z" transform="translate(-820.332 -533.293)" fill="#feca84"/>
      <path id="Path_30" data-name="Path 30" d="M969.829,565.822a3.218,3.218,0,0,0-2-.424,9.057,9.057,0,0,0-4.918,2.1c-2.646,2.069-4.179,5.514-4.842,8.734a6.6,6.6,0,0,0,.694,4.775l4.4,7.157a8.577,8.577,0,0,0,1.62,2.107c1.855,1.584,4.084,1,5.985-.132a19.279,19.279,0,0,0,4.993-4.284,19.717,19.717,0,0,0,3.19-4.384c.5-1.1,1.068-3.037.468-4.184-.79-1.511-2.834-2.942-4.029-4.163a28.039,28.039,0,0,1-2.562-2.868C971.812,568.888,971.307,566.783,969.829,565.822Z" transform="translate(-823.824 -528.331)" fill="#434347" stroke="#100052" stroke-miterlimit="10" stroke-width="0.479"/>
      <g id="Group_8" data-name="Group 8" transform="translate(103.148)">
        <path id="Path_31" data-name="Path 31" d="M946.922,532.6c3.736,1.328,5.717,4.39,9.084,9.591,3.141,4.853,5.9,9.235,5.639,15a18.766,18.766,0,0,1-.563,3.74,21.6,21.6,0,0,1-4.787,9.087,15.085,15.085,0,0,1-3.649,3.025,9.96,9.96,0,0,1-3.687,1.511c-3.163.257-6.235-1.3-8.854-2.9a25.891,25.891,0,0,1-7.231-6.412,40.69,40.69,0,0,1-2.956-5.267c-.94-1.745-1.991-3.4-2.906-5.165-1.439-2.78-2.7-5.76-2.218-8.955C926.124,537.058,938.545,529.62,946.922,532.6Z" transform="translate(-915.851 -517.128)" fill="#434347" stroke="#100052" stroke-miterlimit="10" stroke-width="0.479"/>
        <line id="Line_1" data-name="Line 1" transform="translate(38.428 10.286)" fill="none" stroke="#100052" stroke-miterlimit="10" stroke-width="0.479"/>
        <path id="Path_32" data-name="Path 32" d="M949.791,514.528q.473.673.9,1.351l4.25,6.676a15.8,15.8,0,0,1,1.528,2.8c.987,2.59.551,5.48.041,8.205a3.748,3.748,0,0,1-.43,1.334,2.562,2.562,0,0,1-2.133,1.054,4.015,4.015,0,0,1-2.063-.963c.357,1.757-5.782,1.056-7.217.784a15.519,15.519,0,0,1-8.816-5c.2.223.611-.213.375-.4.238.114-.343.3-.331.039a25.618,25.618,0,0,1-15.155,10.028,24.4,24.4,0,0,1,1.281,6.861c-.116-.906-1.133-1.341-1.951-1.75a8.334,8.334,0,0,1-4.47-6.447,6.443,6.443,0,0,1-2.857-9.987,4.072,4.072,0,0,1,1.676.3c-.145.093.192.072.047.164a39.365,39.365,0,0,1,3-4.549,32.328,32.328,0,0,1,4.409-4.766c1.527-1.332,3.258-2.566,4.119-4.4.106-.227.4-.544.158-.489a2.519,2.519,0,0,1,.618-2.132,6.655,6.655,0,0,1,1.821-1.388,12.57,12.57,0,0,1,1.927-.955c2.456-.908,4.965.083,6.956,1.783a3.479,3.479,0,0,0,1.077-1.166,5.367,5.367,0,0,1,4.189-1.833c3.3-.054,4.455,2.444,6.63,4.268,2.064,1.729,4.749,2.243,6.326,4.835a8.944,8.944,0,0,1,.851,7.309,1.77,1.77,0,0,1-.661-.856,10.562,10.562,0,0,1,1.654,2.693c2.637,6.7,2.392,12.569-.275,19.191-1.272-2.7-2.349-4.843-1.983-7.982a4.464,4.464,0,0,1,.438-1.633,1.894,1.894,0,0,1,1.3-1.01.719.719,0,0,1,.552.1.766.766,0,0,1,.194.248,1.963,1.963,0,0,1,.156,1.473" transform="translate(-911.402 -509.678)" fill="#100052" stroke="#100052" stroke-miterlimit="10" stroke-width="0.479"/>
        <path id="Path_33" data-name="Path 33" d="M923.826,525.433a5.7,5.7,0,0,0,3.8-5.436c-.078-2.439-1.845-2.689-3.869-3.1a8.31,8.31,0,0,0-3.957.065,6.1,6.1,0,0,0-3.992,3.378,7.909,7.909,0,0,0-.49,3.057,17.1,17.1,0,0,0,1.021,5.761c-1.149-.418-2.653.589-3.165,1.7a7.451,7.451,0,0,0-.368,3.608" transform="translate(-911.855 -512.024)" fill="#100052" stroke="#100052" stroke-miterlimit="10" stroke-width="0.479"/>
        <path id="Path_34" data-name="Path 34" d="M969.978,548a2.257,2.257,0,0,1,.531-1.69,3.858,3.858,0,0,1,3.106-1.992,3.492,3.492,0,0,1,2.709,2.238,8.246,8.246,0,0,1-.174,6.78,2.9,2.9,0,0,1-.816,1.15,1.221,1.221,0,0,1-1.333.144l.053-.251" transform="translate(-931.004 -521.274)" fill="#434347" stroke="#100052" stroke-miterlimit="10" stroke-width="0.479"/>
      </g>
      <g id="Group_9" data-name="Group 9" transform="translate(105.215 96.774)">
        <path id="Path_35" data-name="Path 35" d="M941.523,728.465c-2.078.674-5.442.748-7.261-.607-2.2-1.638-.072-5.572,1.178-7.3,2.691-3.72,6.666-6.3,10.11-9.318a150.8,150.8,0,0,1,12.373-9.74q4.806-3.392,9.867-6.4c1.516-.9,2.9-1.572,3.8-3.165.871-1.543.97-3.376,1.388-5.064.5-2.027,1.284-4,1.751-6.089L977.8,667.03c.611-2.734.742-7.493,2.83-9.585,6.138-6.146,21.36,1.156,19.117,9.95-3.416,13.391-9.1,30.013-18.312,40.484-2.506,2.849-5.873,4.686-9.165,6.464-5,2.7-9.8,5.4-15.015,7.709a166.407,166.407,0,0,1-15.733,6.413Z" transform="translate(-920.804 -655.163)" fill="#434347" stroke="#100052" stroke-miterlimit="10" stroke-width="0.472"/>
        <path id="Path_36" data-name="Path 36" d="M933.03,748.6c-2.56,1.957-5.251,3.757-7.656,5.909a19.827,19.827,0,0,1-2.074,1.929,7.326,7.326,0,0,0-1.719,1.743q-1.843,2.336-3.5,4.808a3.226,3.226,0,0,0-.446.833,3.312,3.312,0,0,0-.107.834,25.722,25.722,0,0,0-.005,3.13,4.82,4.82,0,0,0,.452,2.332c.639,1.025,2.923,1.693,3.971,2.217q2.341,1.17,4.724,2.254a1.551,1.551,0,0,0,.893.2c1.976-.354,4.249-4.646,5.25-6.188,1.615-2.49,3.06-5.091,4.8-7.5,1.35-1.873,3.622-3.126,5.627-4.245" transform="translate(-915.502 -686.446)" fill="#434347" stroke="#100052" stroke-miterlimit="10" stroke-width="0.472"/>
        <path id="Path_37" data-name="Path 37" d="M919.19,767.779a30.933,30.933,0,0,0-2.878,5.673,38.779,38.779,0,0,0-1.276,5.015q-.3,1.824-.447,3.668c-.063.8-.342,2.32.7,2.694a1.114,1.114,0,0,0,.863-.11,2.92,2.92,0,0,0,1.382-1.937,12.07,12.07,0,0,0,.225-2.438,17.594,17.594,0,0,1,.647-3.17,10.919,10.919,0,0,1,1.672-3.459" transform="translate(-914.509 -692.869)" fill="#434347" stroke="#100052" stroke-miterlimit="10" stroke-width="0.472"/>
        <path id="Path_38" data-name="Path 38" d="M921.868,775.018c-1.11,1.908-2.405,3.529-3.067,5.631a26.6,26.6,0,0,0-1.2,6.646,5.877,5.877,0,0,0,.264,2.451,1.463,1.463,0,0,0,.673.83,1.292,1.292,0,0,0,1.523-.453,3.131,3.131,0,0,0,.441-1.523,38.333,38.333,0,0,1,1.375-6.614,10.509,10.509,0,0,1,1.132-2.683" transform="translate(-915.539 -695.293)" fill="#434347" stroke="#100052" stroke-miterlimit="10" stroke-width="0.5"/>
        <path id="Path_39" data-name="Path 39" d="M926.366,776.377c-1.074,1.916-2.32,3.547-2.971,5.652a28.112,28.112,0,0,0-1.208,6.644,6.108,6.108,0,0,0,.224,2.443,1.4,1.4,0,0,0,.628.82,1.21,1.21,0,0,0,1.449-.469,3.3,3.3,0,0,0,.435-1.524q.188-1.528.49-3.037a17.978,17.978,0,0,1,.976-2.765,5.588,5.588,0,0,1,.673-1.3" transform="translate(-917.071 -695.748)" fill="#434347" stroke="#100052" stroke-miterlimit="10" stroke-width="0.486"/>
        <path id="Path_40" data-name="Path 40" d="M933.129,783.7c-.471.578-.889,1.2-1.367,1.769a12.869,12.869,0,0,0-2.175,3.325,14.969,14.969,0,0,1-1.949,3.756,1.435,1.435,0,0,1-1.11.649.519.519,0,0,1-.264-.085.625.625,0,0,1-.191-.243,3.133,3.133,0,0,1,.026-2.174,26,26,0,0,1,3.655-8.774" transform="translate(-918.318 -697.604)" fill="#434347" stroke="#100052" stroke-miterlimit="10" stroke-width="0.472"/>
      </g>
      <path id="Path_41" data-name="Path 41" d="M1025.06,649.988c-5.6-.678-11.216.182-16.783.772-1.2.126-14.5.352-14.519,1.024a75.124,75.124,0,0,0-2.7-21.89c-.983-3.553-2.574-6.883-3.621-10.391-.9-3.017-2.037-6.2-.774-9.3a14.126,14.126,0,0,1,7.81-8,15.6,15.6,0,0,1,11.079.079,30.7,30.7,0,0,1,11.587,8.093c5.734,6.318,6.744,16.2,7.066,24.328C1024.26,636.063,1024.79,649.956,1025.06,649.988Z" transform="translate(-833.264 -540.329)" fill="#feca84"/>
    </g>
  </g>
</svg>
