<svg xmlns="http://www.w3.org/2000/svg" xmlns:xlink="http://www.w3.org/1999/xlink" width="699.854" height="449.557" viewBox="0 0 699.854 449.557"><defs><style>.a,.h,.l{fill:none;}.b{clip-path:url(#a);}.c{fill:url(#b);}.d{fill:#fff;}.e,.m{fill:#d2e7f9;}.e{stroke:#bbdbf9;stroke-width:0.673px;}.e,.g,.h,.i,.j,.l,.p{stroke-miterlimit:10;}.f,.p{fill:#feca84;}.g,.k{fill:#434347;}.g,.h,.i,.j,.l{stroke:#100052;}.g,.h,.i,.j{stroke-width:0.939px;}.i{fill:#100052;}.j{fill:#babacc;}.l{stroke-width:0.784px;}.n{fill:#e6e7e8;}.o{fill:url(#c);}.p{stroke:#fff;stroke-width:1.597px;}.q{fill:url(#d);}.r{fill:url(#e);}.s{fill:url(#f);}.t{fill:url(#g);}</style><clipPath id="a"><path class="a" d="M5113.686-2653.067c-9.233-3.946-149.558-61.851-255.548-6.232-122.444,64.253-144.572,251.414-19.36,352.082,121.161,97.412,346.436,86.627,429.787-9.347C5357.9-2419.434,5258.875-2591.023,5113.686-2653.067Z" transform="translate(-4754.938 2683.307)"/></clipPath><linearGradient id="b" x1="0.512" y1="0.543" x2="0.344" y2="-0.079" gradientUnits="objectBoundingBox"><stop offset="0" stop-color="#2a7195"/><stop offset="1" stop-color="#060c39"/></linearGradient><linearGradient id="c" y1="0.5" x2="1" y2="0.5" gradientUnits="objectBoundingBox"><stop offset="0" stop-color="#ff9077"/><stop offset="1" stop-color="#e9645a"/></linearGradient><linearGradient id="d" x1="-28.611" y1="0.354" x2="-28.815" y2="1.011" gradientUnits="objectBoundingBox"><stop offset="0" stop-color="#faebd8"/><stop offset="1" stop-color="#ffb83f"/></linearGradient><linearGradient id="e" x1="-23.703" y1="0.494" x2="-23.831" y2="1.008" xlink:href="#d"/><linearGradient id="f" x1="-107.795" y1="-0.573" x2="-108.172" y2="1.476" xlink:href="#c"/><linearGradient id="g" x1="-95.378" y1="0.293" x2="-95.521" y2="1.104" xlink:href="#c"/></defs><g transform="translate(-4754.938 2691.316)"><g transform="translate(4754.938 -2685.892)"><g class="b" transform="translate(0 0)"><rect class="c" width="826.016" height="826.016" transform="translate(-77.062 -147.845)"/><g transform="translate(-0.923 137.819)"><g transform="translate(0 106.618)"><path class="d" d="M4956.531-2271.447c32.64-11.606,57.379,33.525,55.484,59.809,21.472,5.887,32.847,28.4,27.716,49.505-5.812,23.911-27.449,35.079-49.733,40.091a116.275,116.275,0,0,1-30.719,2.952,115.888,115.888,0,0,1-14.206-1.522,40.693,40.693,0,0,1-5.956,5.79c-5.729,3.018-10.28,7.417-16.537,9.887a63.637,63.637,0,0,1-32.726,3.722c-5.541-.853-33.585-8.205-26.177-18.646-13.337,9.329-78.329,3.34-64.885-23-36.907,6.562-65.787-62.726-26.225-76.492-27.693-23.516,31.671-85.97,61.827-54.743C4858.127-2373.076,4962.067-2292.683,4956.531-2271.447Z" transform="translate(-4753.577 2322.386)"/><path class="e" d="M5043.736-2146.432c-.937-16.536-11.629-30.957-27.82-35.4,1.124-15.573-12.374-57.79-34.6-39.287-7.939,6.61-.419,21.391-8.829,23.184-3.527.752-16.062-9.119-19.026-10.653-7.288-3.77-14.744-7.5-22.616-9.908-22.762-6.975-52.181-6.549-72.622,6.81-11.418,7.463-19.818,18.288-18.813,32.585.963,13.7,10.339,25.25,11.4,39.042h1.823c-6.31,0-43.485-16.956-37.369,5.469-.526-.105-3.764-3.853-4.1-4.1-2.063-1.518-9.12-4.341-11.393-5.191-7.288-2.729-13.082-3.73-19.176,2.232-13.931,13.628,19.681,27.858,30.2,25.988-13.069,25.6,49.979,30.824,62.419,22.122-9.866,13.9,34.821,18.931,41.148,18.209a60.375,60.375,0,0,0,25.024-8.621c3.1-1.94,9.074-9.185,12.13-10.312,3.82-1.41,12.617,1.453,16.76,1.514C5000.435-2092.268,5045.986-2106.708,5043.736-2146.432Z" transform="translate(-4761.222 2291.187)"/></g><g transform="translate(224.152)"><path class="f" d="M5146.313-2083.426q-2.744-.348-5.483-.753c-8.628-1.273-17.182-2.983-25.707-4.8-8.432-1.8-11.624-2.067-9.838-11.181,2.354-12.023,4.451-24.088,7.131-36.051,3.039-13.56,7.159-26.424,8.325-40.23,2.261-26.821,8.121-53.2,11.821-79.858,1.712-12.334,2-31.1,15.335-37.469,8.792-4.2,15.9,1.244,24.565-.84,10.042-2.413,19.014-8.727,28.952-11.091,5.054-1.2,10.29.773,14.959,3.052s9.364,4.956,14.549,5.262l-2-1.443c10.334,6.89,14.09,18.432,16.561,30.13,1.568,7.427,2.77,15.154,1.407,22.626-1.152,6.319-1.214,12.858-1.794,19.255-2.26,24.943-10.483,49.069-6.192,74.419,1.741,10.283,4.068,19.135.194,29.172a59.372,59.372,0,0,1-15,21.764C5202.406-2081.221,5174.228-2079.892,5146.313-2083.426Z" transform="translate(-5091.083 2423.738)"/><path class="g" d="M5230.573-2346.012c-4.533-4.475-16.982-2.669-22.512,4.183a17.033,17.033,0,0,0-3.809,8.952c-.009.1,0,.017,0,7.744v11.615c0,9.3.036,10.309.911,11.576a7.361,7.361,0,0,0,3.95,2.85,13.427,13.427,0,0,0,5,.029,38.332,38.332,0,0,0,14.4-5.179c3.2-1.94,8.583-5.337,10.625-8.539,1.621-2.538-.323-4.942-1.57-7.289a43.294,43.294,0,0,1-4.375-11.874C5231.475-2340.444,5233.3-2343.321,5230.573-2346.012Z" transform="translate(-5123.179 2437.42)"/><path class="g" d="M5201.231-2432.8c6.712,4.2,9.253,11.03,13.572,22.629,4.029,10.82,7.512,20.558,4.518,31.678a37.336,37.336,0,0,1-2.715,7.051,43.13,43.13,0,0,1-13.26,15.654,30.115,30.115,0,0,1-8.421,4.322,21.4,21.4,0,0,1-4.32.9,20.153,20.153,0,0,0-2.208.109c-.627.137-.742.641-1.586.368l-12.446-4.025a17.081,17.081,0,0,1-3.782-1.568c-2.649-1.639-4.18-4.565-5.5-7.387q-2.654-5.676-4.85-11.552-2.24-5.99-3.985-12.148c-1.08-3.808-2.415-7.484-3.437-11.328-1.607-6.044-2.781-12.4-.457-18.422C5158.745-2433.089,5186.181-2442.229,5201.231-2432.8Z" transform="translate(-5106.009 2465.866)"/><line class="h" transform="translate(111.808 26.132)"/><path class="i" d="M5213.348-2464.3c.42,1.012.809,2.028,1.171,3.023l5.405,14.856a31.538,31.538,0,0,1,1.768,6.12c.809,5.478-1.292,10.927-3.463,16.02a7.5,7.5,0,0,1-1.417,2.415,5.113,5.113,0,0,1-4.614,1.134c-1.338-.272-2.773-1.776-3.609-2.769-.061,3.58-11.732-.44-14.413-1.59a30.994,30.994,0,0,1-15.03-13.566c.3.523,1.282-.151.9-.62.414.326-.8.443-.66-.065a51.181,51.181,0,0,1-33.888,13.009,48.75,48.75,0,0,1-.464,13.933c.164-1.818-1.633-3.1-3.049-4.257a16.643,16.643,0,0,1-5.935-14.495,13.087,13.087,0,0,1-5.873-10.037,13.09,13.09,0,0,1,4.615-10.675,8.144,8.144,0,0,1,3.139,1.3c-.323.118.345.222.021.341a78.85,78.85,0,0,1,7.811-7.577,64.542,64.542,0,0,1,10.66-7.389c3.551-1.938,7.462-3.6,9.932-6.8.3-.4,1.019-.887.519-.885a5.037,5.037,0,0,1,2.127-3.89,13.27,13.27,0,0,1,4.151-1.92,25.094,25.094,0,0,1,4.17-1.03c5.183-.709,9.646,2.308,12.8,6.482a6.931,6.931,0,0,0,2.6-1.808c2.421-2.014,5.876-2.4,8.962-1.766,6.45,1.319,7.63,6.691,11.086,11.187,3.277,4.266,8.29,6.426,10.245,12.163a17.859,17.859,0,0,1-1.5,14.62,3.532,3.532,0,0,1-.92-1.956,21.233,21.233,0,0,1,2.064,5.967c2.25,14.2-.766,25.546-8.829,37.3a18.726,18.726,0,0,1,5.022-17.131" transform="translate(-5099.267 2479.812)"/><path class="i" d="M5159.361-2457.826a11.384,11.384,0,0,0,9.763-8.959c.9-4.79-2.435-6.041-6.2-7.727a16.59,16.59,0,0,0-7.743-1.584,12.182,12.182,0,0,0-9.247,4.863,15.815,15.815,0,0,0-2.275,5.75,34.163,34.163,0,0,0-.5,11.676c-2.06-1.31-5.427,0-6.9,1.945s-1.9,4.465-2.277,6.877" transform="translate(-5100.499 2478.621)"/><g transform="translate(0.439 158.75)"><path class="g" d="M5176.558-2144.207c.14-.387.269-.778.39-1.168.859-2.759,2.525-8.423.372-10.813-1.053-1.167-4.094-1.906-5.542-2.552q-2.783-1.242-5.594-2.413-11.023-4.6-22.437-8.181c-20.6-6.518-27.376-7.3-28.464-11.992-.915-3.957,3.322-5.9,10.868-17.6,6.35-9.849,10.346-16.043,10.118-22.847-.373-11.13-12.06-24.38-22.095-23.6-21.09,1.632-27.873,64.666-28.86,79.028-.218,3.16-.346,6.729,1.5,10.488,4.041,8.251,14.415,10.864,22.622,12.614,8.255,1.763,16.628,2.873,24.962,4.194,7.728,1.226,14.987,3.084,22.742,4.305,5.016.791,9.572-1.171,13.963-3.524a12.253,12.253,0,0,0,3.8-2.833A10.444,10.444,0,0,0,5176.558-2144.207Z" transform="translate(-5085.193 2245.411)"/></g><path class="f" d="M5138.058-2288.778c-5.377,4.563-12.508,6.491-18.319,10.486-7.518,5.169-12.28,13.372-16.8,21.3-9.4,16.5-15.942,33.433-18.253,52.4a7.1,7.1,0,0,0,.368,4.223c.762,1.423,2.355,2.159,3.857,2.75a80.62,80.62,0,0,0,39.326,4.987q5.643-20.95,11.283-41.9" transform="translate(-5084.546 2418.157)"/><path class="g" d="M5247.573-2210.616q.094-.284.181-.569a9.566,9.566,0,0,0,.4-5.645,9.3,9.3,0,0,0-2.717-3.807c-6.285-5.9-17.331-13.081-25.605-7.424-8.637,5.9-15.481,14.221-23.657,20.762-1.119,1.027-2.359,2.108-3.874,2.224-3.547.268-3.293-5.23-3.718-7.474-.838-4.409-1.674-8.819-2.578-13.214-1.578-7.67-3.831-15.819-8.339-32.123-.948-3.431-1.9-6.87-3.019-10.252-1.04.42-2.066.869-3.084,1.338-2.414,1.111-4.776,2.329-7.185,3.452-2.913,1.359-5.811,2.768-8.751,4.071a145.949,145.949,0,0,0-.449,14.873c.486,10.646-.3,9.4-.009,21.841.418,17.521-2.8,54.132,20.776,58.57,7.425,1.4,15.062-.5,22.221-2.912,3.862-1.3,7.781-1.917,11.284-3.954,3.547-2.062,7.116-3.95,10.476-6.331A91.118,91.118,0,0,0,5243.994-2203,34.751,34.751,0,0,0,5247.573-2210.616Z" transform="translate(-5107.316 2411.496)"/><path class="g" d="M5163.744-2311.6c2.093-2.108,5.125-2.917,8.006-3.642l14.584-3.669c1.547-.39,3.654-.685,4.945.521,1.527,1.426.69,4.039.067,5.729-.751,2.034-1.827,4.723-1.832,6.9,0,2.487,1.79-1.13,2.04-1.589a10.969,10.969,0,0,1,5.564-5.18c1.619-.686,4.433-1.407,4.875,1.041.5,2.761-2.861,5.031-4.217,7.025a27.74,27.74,0,0,0-2.639,6.149,36.716,36.716,0,0,1-10.126,14.739c-2.717,2.394-5.958,4.618-7.024,8.08-2.778,9.025-22.714,5.631-22.882-4.991-.07-4.452,2.477-9.336,3.444-13.637C5159.779-2299.613,5159.526-2307.355,5163.744-2311.6Z" transform="translate(-5107.317 2427.993)"/><path class="j" d="M5176.115-2313.024l-1.734.414a3.392,3.392,0,0,0-1.26.486,3.251,3.251,0,0,0-.842,1.11,42.414,42.414,0,0,0-3.055,7.06" transform="translate(-5111.875 2425.982)"/><path class="k" d="M5156.333-2253.082a7.753,7.753,0,0,0,1.067,3.108,7.146,7.146,0,0,0,4.282,2.526,19.347,19.347,0,0,0,8.744.182,8.879,8.879,0,0,0,4.165-1.871c1.786-1.6,2.386-4.14,2.572-6.532a4.7,4.7,0,0,0-.093-1.7c-.488-1.65-2.395-2.357-4.063-2.779a83.629,83.629,0,0,0-14.334-2.337c-2.148-.157-2.76.106-2.86,2.286A33.258,33.258,0,0,0,5156.333-2253.082Z" transform="translate(-5107.538 2409.684)"/><path class="f" d="M5290.991-2265.214c-.964-7.729-3.89-14.823-10.667-20.814-9.141-8.082-21.135-12.176-32.332-16.494-7.2-2.774-8.686,6.473-8.51,11.4a113.953,113.953,0,0,1-1.324,18.145,43.523,43.523,0,0,1-4.835,14.134c-1.753,3.451-3.234,6.425-6.372,8.764-2.937,2.19-3.3,4.7-5.224,7.631-1.753,2.671-3.556,5.308-5.372,7.936-3.048,4.417-6.568,8.523-9.085,13.29-1.749,3.315-5.146,11.092-1.3,14.063,1.284.992,2.857,1.644,4.217,2.521a55.507,55.507,0,0,1,4.7,3.451c1.614,1.3,3.448,2.279,5,3.655a79.17,79.17,0,0,1,8.769,8.752c1.88,2.28,3,5.157,5.308,7.064,2.453,2.025,5.413,2.441,8.3,3.444,3.656,1.271,7.04,1.422,10.54-.437,3.379-1.794,6.066-4.644,8.55-7.555a125.125,125.125,0,0,0,9.843-13.2,126.132,126.132,0,0,0,15.431-33.91c1.376-4.825,3.457-8.454,4.008-13.489A79.8,79.8,0,0,0,5290.991-2265.214Z" transform="translate(-5123.166 2422.757)"/><path class="g" d="M5207.053-2116.943c-.051.145.136.254.285.294,1.419.388,2.9.969,4.335,1.241a24.971,24.971,0,0,0,4.541-.008q4.219-.009,8.435.175,8.432.37,16.805,1.52a5.6,5.6,0,0,1,2.539.771,2.554,2.554,0,0,1,.866,1.474c1.41,5.2-1.187,10.519-4.319,15.333-2,3.075-4.556,6.29-8.945,7.648-3.766,1.166-7.83.707-11.635-.008-4.751-.892-9.481-1.893-14.241-2.736-2.415-.427-4.836-.815-7.269-1.126-2.1-.268-3.81-.933-5.993-.72" transform="translate(-5119.374 2362.699)"/><path class="g" d="M5256.073-2083.47l-.271.1a3.283,3.283,0,0,1,1.363-.6c1.917-.5,3.85-.928,5.786-1.337.422-.089,2.072-.728,2.421-.528.223.126.217.821.2,1.069-.087,1.185-1.216,2.026-2.077,2.6a25.586,25.586,0,0,1-6.08,3.2c-3.44,1.139-7.262.993-10.835,1.017" transform="translate(-5136.841 2352.669)"/><path class="g" d="M5256.62-2092.455a19.586,19.586,0,0,0,6.448-1.762,18.343,18.343,0,0,0,5.377-4.256,14.216,14.216,0,0,1,2-1.783,6.842,6.842,0,0,1,2.043-.953.906.906,0,0,1,.492-.036.906.906,0,0,1,.5.539c1.4,3.081-1.586,6.252-3.578,8.1-4.438,4.125-10.807,5.331-16.249,7.249" transform="translate(-5139.123 2357.64)"/><path class="g" d="M5258.906-2102.978a40.878,40.878,0,0,0,13.406-8.164c.793-.722,1.689-1.526,2.731-1.439A2.449,2.449,0,0,1,5277-2110.6a3.588,3.588,0,0,1-1.054,3.145,37.218,37.218,0,0,1-8.994,7.8,48.865,48.865,0,0,1-5.239,2.841,50.128,50.128,0,0,1-5.6,2.03.3.3,0,0,0,.128.2" transform="translate(-5139.917 2361.293)"/><path class="g" d="M5257.85-2117a9.167,9.167,0,0,0,4.386-.46,47.076,47.076,0,0,0,4.873-1.919,56.054,56.054,0,0,0,9.036-5.125c.78-.543,1.749-1.128,2.585-.69s1,1.645.854,2.627c-.5,3.338-3.044,6.086-5.608,7.816a75.554,75.554,0,0,1-9.956,5.672c-.687.324-1.377.638-2.067.952l-3.022,1.372.292.086" transform="translate(-5140.479 2365.412)"/><path class="g" d="M5218.51-2114.738c-.033,0-.013.071.014.053,5.147-3.345,10.91-5.211,16.4-7.679a7.021,7.021,0,0,1,4.19-.316c1.4.266,2.742.778,4.111,1.179a26.931,26.931,0,0,0,4.134.869,1.174,1.174,0,0,1,.94.437,1.128,1.128,0,0,1,.071.736,4.366,4.366,0,0,1-3.467,3.435c-1.755.336-3.586-.161-5.336.208" transform="translate(-5127.776 2364.605)"/><path class="g" d="M5162.672-2302.136c.765-3.5,1.461-6.242,3.721-9.114a10.042,10.042,0,0,1,5.6-3.442,1.489,1.489,0,0,1,.683-.048c1.476.355.028,2.744-.243,3.515a29.327,29.327,0,0,0-1.874,7.229" transform="translate(-5109.76 2426.544)"/><path class="g" d="M5173.874-2305.071c.267-3.71,1.065-9.762,5.044-11.365,1.735-.7,4.565-1.952,5.671.379a4.1,4.1,0,0,1,.241,2.131,14.663,14.663,0,0,1-1.1,4.4" transform="translate(-5113.375 2427.396)"/><path class="g" d="M5183.1-2305.64q1.6-5.115,3.283-10.207a7.17,7.17,0,0,1,1.2-2.491c1.194-1.391,6.375-2.922,7.216-.488a2.592,2.592,0,0,1,.007,1.251c-.274,1.725-.828,3.589-.583,5.332" transform="translate(-5116.352 2428.269)"/><path class="g" d="M5192.543-2306.8l4.693-11.8c.507-1.274,1.014-2.076,2.357-2.417a30.914,30.914,0,0,1,4.754-.686c2.081-.192,2.339,2.029,2.67,3.687q.226,1.131.418,2.268a3.023,3.023,0,0,1-.014,1.544,1.917,1.917,0,0,1-1.95,1.114,3.4,3.4,0,0,1-2.085-1.1,42.47,42.47,0,0,1-2.319,6.969.2.2,0,0,0,.271.037" transform="translate(-5119.401 2428.785)"/><path class="h" d="M5207.344-2312.717c.228.031.253.349.214.576-.549,3.128-2.119,5.809-2.643,8.944-.01.05-.014.113.029.144s.11-.045.064-.067" transform="translate(-5123.392 2425.883)"/><path class="g" d="M5240.722-2396.3a4.5,4.5,0,0,1,1.763-3.065c1.884-1.75,4.444-3.238,6.919-2.542,2.367.666,3.794,3.129,4.315,5.533a16.477,16.477,0,0,1-3.266,13.147,5.8,5.8,0,0,1-2.089,1.89,2.436,2.436,0,0,1-2.662-.294l.212-.467" transform="translate(-5134.951 2454.726)"/><path class="l" d="M5241.465-2229.455c-6.251,9.339-14.845,16.923-24.146,23.229-3.172,2.149-6.486,4.207-8.965,7.128a13.492,13.492,0,0,0-3.229,6.965c-.273,2.254-1.681,3.949-.59,6.338s4.2,4.037,6.227,5.439a113.975,113.975,0,0,1,16.675,14.282,34.122,34.122,0,0,1,4.977,6.287,9.769,9.769,0,0,0,9.091,4.663c2.519-.26,4.777-1.627,6.871-3.052,6.8-4.63,12.844-10.687,18.73-16.4,3.9-3.794,6.822-8.44,10.226-12.658a64.2,64.2,0,0,0,8.193-13.979" transform="translate(-5123.14 2399.011)"/><path class="l" d="M5142.822-2204.808l-8.959,38.622c-.079.339-.119.778.18.957s.6-.493.256-.46" transform="translate(-5100.444 2391.056)"/></g></g><path class="l" d="M5357.25-1969.187c-.754.337-1.266,0-1.528-1.02" transform="translate(-4948.837 2453.16)"/></g></g><g transform="translate(5124.542 -2691.316)"><path class="m" d="M5560.513-2411.73c-6.452-14.628-10.754-34.417-26.244-39.15-23.23-6.883-43.882,17.639-46.463,40.011-1.291-24.954-5.592-49.906-18.5-72.277a20.259,20.259,0,0,0-14.627-9.465c-10.324-1.72-16.778,8.174-20.65,15.918-4.732,9.035-4.3,19.36-.43,28.395-4.732-3.011-8.6-7.745-14.2-8.175-14.628-1.721-30.976,9.465-35.278,23.662-2.15,6.453-.43,13.336-.861,19.791-10.324-19.361-36.567-23.232-55.066-13.767a32.969,32.969,0,0,0-15.246,17.473c8.4,15.334,22.822,27.972,41.617,24.63-2.889,5.658-.654,12.869,3.72,17.476s10.451,7.143,16.413,9.333c17.68,6.492,38.786,10.623,54.362.2a5.159,5.159,0,0,0-.276,1.546c-.922,4.066,3.182,8.669,7.187,11.091,27.586,16.674,66.8,10.471,87.891-13.9a127.89,127.89,0,0,0,51.994-1.656c15.755-3.854,34.013-8.32,46.9-24.948,3.034-3.916,13.12-17.345,12.054-36.161-.25-4.429-1.209-17.787-11.7-29.342a45.9,45.9,0,0,0-21.768-13.242,74.52,74.52,0,0,0,.11-9.12C5576.182-2465.923,5559.826-2438.553,5560.513-2411.73Z" transform="translate(-5304.637 2627.249)"/><path class="n" d="M5559.191-2577.59c-8.463-4.308-18.561-6.462-27.749-3.194-2.049-7.632-11.317-38.876-39.945-54.692-6.816-3.765-25.462-14.067-42.892-8.309-.182-.55-18.707,1.586-32.235,11.282-18.075,12.955-22.595,36.08-23.871,48.711-10.274-10.639-27.7-12.065-41.212-6.056s-23.469,18.154-30.213,31.316c-6.088,11.883-9.085,28.373,1.093,37.016-11.549,4.018-19.433,15.641-21.084,27.757-1.067,7.841.029,14.739,2.4,22.259a72.216,72.216,0,0,0,5.507,12.907,32.978,32.978,0,0,1,15.247-17.474c18.5-9.465,44.741-5.593,55.067,13.768.43-6.454-1.291-13.337.86-19.79,4.3-14.2,20.651-25.383,35.278-23.662,5.593.43,9.465,5.163,14.2,8.174-3.873-9.034-4.3-19.36.43-28.394,3.871-7.744,10.325-17.639,20.65-15.918a20.261,20.261,0,0,1,14.626,9.465c12.907,22.371,17.208,47.323,18.5,72.276,2.581-22.371,23.232-46.894,46.463-40.011,15.488,4.733,19.791,24.522,26.243,39.149-.687-26.823,15.669-54.192,40.936-61.681-.756-15.009-6.337-27.891-16.791-39.68C5574.319-2569.565,5567.667-2573.275,5559.191-2577.59Z" transform="translate(-5300.673 2676.528)"/><path class="f" d="M5394.565-2649.253a73.777,73.777,0,0,0,19.538-9.7c6.944,28.224,25.652,83.067,25.652,83.067l-30.722-50.3a131.546,131.546,0,0,0-27.7,14.413c-2.534-5.694-42.643-52.8-47.564-48.405,11.938-10.653,24.168-22.02,37.335-31.131C5373.623-2687.832,5393.11-2648.783,5394.565-2649.253Z" transform="translate(-5311.358 2691.316)"/><path class="o" d="M5632.379-2316.656a63.568,63.568,0,0,0-15.673,10.375c-8.939-23.392-30.769-68.292-30.769-68.292l31.619,39.74A113.354,113.354,0,0,0,5639.7-2350.1c2.772,4.6,42.074,40.6,45.816,36.325-9.074,10.38-18.322,21.4-28.609,30.589C5654.388-2285.9,5633.573-2317.213,5632.379-2316.656Z" transform="translate(-5392.741 2589.09)"/><g transform="translate(103.699 125.98)"><path class="p" d="M5479.311-2449.62c-4.085-5.289-3.919-13.341-1.218-19.6s7.484-11.112,12.238-15.689c6.61-6.367,13.578-12.649,21.871-15.909,16.751-6.582,37.318,1.848,45.966,18.841,6.926,13.613,5.109,33.174-6.694,41.915-5.889,4.361-13.213,5.542-20.26,6.611l-22.948,3.481c-8.615,1.306-17.331,2.614-25.979,1.615s-17.358-4.554-23.192-11.6a21.723,21.723,0,0,1-5.3-13.134c-.149-7.068,3.928-13.308,7.822-18.955,5.9-8.552,11.89-17.212,19.655-23.745s17.655-10.783,27.346-9.174c4.726.784,9.5,3.184,12,7.634" transform="translate(-5453.791 2505.3)"/><path class="p" d="M5490.338-2424.463l4.729,4.236a3.865,3.865,0,0,0,1.316.89,2.948,2.948,0,0,0,2.863-1.1,31.2,31.2,0,0,1,2.2-2.505,1.959,1.959,0,0,1,1.332-.557c1.062.071,1.582,1.39,2.172,2.358a6.458,6.458,0,0,0,7.043,2.612c2.574-.62,4.771-2.435,6.663-4.439" transform="translate(-5465.586 2479.21)"/><path class="p" d="M5577.922-2488.959c.32-.383.968-.017,1.066.491a2.311,2.311,0,0,1-.382,1.463,22.716,22.716,0,0,1-3.941,5.932c-1.682,1.63-4.024,2.651-6.2,2.043a4.189,4.189,0,0,0-1.551-.315c-.75.083-1.329.723-1.97,1.155a4.031,4.031,0,0,1-4.932-.415c-.945-.879-1.54-2.216-2.65-2.822-1.338-.731-2.928-.163-4.377.248s-3.246.531-4.181-.744" transform="translate(-5484.455 2500.078)"/><path class="p" d="M5596.063-2435.2c-1.073-4.21-5.936-6.687-9.576-4.88-2.308,1.144-4.085,3.665-6.606,3.932-2.13.227-4.08-1.258-5.665-2.829s-3.13-3.368-5.188-4.014-4.772.518-4.989,2.844" transform="translate(-5489.372 2485.249)"/><path class="p" d="M5501.218-2479.648c-.717-1.527-1.646-3.232-3.2-3.512-2.571-.464-4.257,3.258-6.834,3.679a1.439,1.439,0,0,1-1.538-.579,1.9,1.9,0,0,1-.18-.937,5.872,5.872,0,0,1,3.835-5.515" transform="translate(-5465.305 2499.237)"/><path class="p" d="M5454.42-2423.635a10.015,10.015,0,0,0,5.8,6.963,8.77,8.77,0,0,0,8.544-1.268c.906-.705,1.827-1.638,2.936-1.551a3.626,3.626,0,0,1,1.4.521l8.417,4.54" transform="translate(-5453.994 2478.944)"/><path class="p" d="M5559.5-2402.258c-1.192,1.9-3.782,2.076-5.751,1.25s-3.6-2.4-5.472-3.46c-3.523-2-7.7-2.07-11.641-1.538s-7.818,1.625-11.784,1.807" transform="translate(-5476.726 2473.345)"/></g></g><g transform="translate(4813.715 -2616.908)"><path class="q" d="M4905.2-2568.818a52.882,52.882,0,0,0-3.3,12.845c-.917,6.422,2.2,12.11,2.386,18.35.367,9.357-8.625,16.7-17.616,13.395-7.339-2.752-14.312-10.093-22.2-6.973-4.954,2.019-10.275,7.156-15.781,2.569a54.515,54.515,0,0,1-6.634-6.277,43.139,43.139,0,0,1-.326-5.288c0-22.782,17.872-41.251,39.917-41.251a38.983,38.983,0,0,1,25.563,9.571A8.651,8.651,0,0,0,4905.2-2568.818Z" transform="translate(-4841.723 2581.449)"/><path class="r" d="M4848.838-2524.072c5.5,4.587,10.826-.55,15.78-2.569,7.891-3.12,14.864,4.221,22.2,6.973,8.99,3.3,17.982-4.037,17.616-13.395-.183-6.239-3.3-11.927-2.386-18.35a52.934,52.934,0,0,1,3.3-12.845,8.694,8.694,0,0,1,2-3.06,41.719,41.719,0,0,1,14.353,31.68c0,22.784-17.871,41.252-39.916,41.252-20.31,0-37.078-15.678-39.59-35.963A54.56,54.56,0,0,0,4848.838-2524.072Z" transform="translate(-4841.878 2576.888)"/></g><g transform="translate(5198.268 -2382.01)"><path class="s" d="M5431.081-2223.379c-2.718-.844-4.312-4.031-7.125-4.406-3.562,3-6.187,8.53-11.624,7.781a2.244,2.244,0,0,1-1.406-1.219,18.9,18.9,0,0,1-.971-1.794,13.982,13.982,0,0,1,13.479-11.6,13.486,13.486,0,0,1,10.825,5.566c-.127.926-.283,1.848-.46,2.761C5433.61-2225.067,5433.33-2222.817,5431.081-2223.379Z" transform="translate(-5409.67 2234.612)"/><path class="t" d="M5410.79-2218.572a2.242,2.242,0,0,0,1.407,1.219c5.436.75,8.061-4.781,11.623-7.78,2.812.375,4.406,3.562,7.125,4.406,2.249.562,2.531-1.688,2.718-2.906.177-.913.333-1.835.459-2.761a15.036,15.036,0,0,1,2.939,8.992c0,8.04-6.162,14.558-13.765,14.558s-13.764-6.518-13.764-14.558a15.434,15.434,0,0,1,.287-2.963A18.645,18.645,0,0,0,5410.79-2218.572Z" transform="translate(-5409.532 2231.96)"/></g></g></svg>