<svg xmlns="http://www.w3.org/2000/svg" xmlns:xlink="http://www.w3.org/1999/xlink" width="560.708" height="387.002" viewBox="0 0 560.708 387.002"><defs><style>.a{fill:url(#a);}.b{fill:url(#b);}.c{fill:#100052;}.d,.f,.l{fill:#fff;}.d,.f,.g,.k,.l,.n,.o,.p{stroke:#384783;}.d,.e,.f,.g,.h,.k,.l,.n,.o,.p{stroke-miterlimit:10;}.d,.e{stroke-width:1.337px;}.e,.h{fill:#bbdbf9;}.e{stroke:#384883;}.f,.g{stroke-width:0.446px;}.g{fill:none;}.h{stroke:#fff;stroke-width:0.891px;}.i,.j,.k,.n,.o,.p{fill:#384783;}.i{opacity:0.44;}.k{stroke-width:0.299px;}.l,.n{stroke-width:1.126px;}.m{fill:#4fa5ad;}.n,.o,.p{opacity:0.72;}.o{stroke-width:1.273px;}.p{stroke-width:1.391px;}.q{fill:url(#c);}.r{fill:url(#e);}.s{fill:url(#f);}.t{fill:url(#g);}.u{fill:url(#h);}</style><linearGradient id="a" x1="0.516" y1="0.775" x2="0.491" y2="0.17" gradientUnits="objectBoundingBox"><stop offset="0" stop-color="#ff9077"/><stop offset="1" stop-color="#e9645a"/></linearGradient><linearGradient id="b" x1="0.5" y1="0.837" x2="0.5" y2="0.082" xlink:href="#a"/><linearGradient id="c" y1="0.5" x2="1" y2="0.5" gradientUnits="objectBoundingBox"><stop offset="0" stop-color="#2a7195"/><stop offset="1" stop-color="#060c39"/></linearGradient><linearGradient id="e" x1="0.713" y1="-0.573" x2="0.336" y2="1.476" xlink:href="#a"/><linearGradient id="f" x1="0.516" y1="0.293" x2="0.373" y2="1.104" xlink:href="#a"/><linearGradient id="g" x1="0.713" y1="-0.573" x2="0.336" y2="1.476" gradientUnits="objectBoundingBox"><stop offset="0" stop-color="#faebd8"/><stop offset="1" stop-color="#ffb83f"/></linearGradient><linearGradient id="h" x1="0.516" y1="0.293" x2="0.373" y2="1.104" xlink:href="#g"/></defs><g transform="translate(-435.268 -229.589)"><path class="a" d="M834.3,600.821c-54.243-4.731-107.225-10.092-162.1-2.839-3.784.631-7.569-.315-11.353.631-15.768,3.469-30.591,3.154-45.729,7.569-10.722,2.838-21.13,4.415-29.96,11.353-9.776,7.253-18.922,12.615-25.86,22.706-.631.631-.315,2.208-1.577,4.415a8.082,8.082,0,0,0,0,6.623c2.208,3.784,5.361,6.623,5.677,11.669,0,.631.631.946,1.261,1.577a5.346,5.346,0,0,0-1.892,2.523c-1.261,1.577-3.469,3.469-5.361,3.785-5.046,1.261-9.461,2.523-14.192,3.784-20.633,5-38.476,12.177-55.374,25.511,4.489,28.335,15.5,51.625,33.568,65.4,35.919,27.4,72.621-3.481,276.023-6.61,113.391-1.745,136.862,7.315,167.133-13.22,34.535-23.428,53.007-68.477,54.447-117.221-.386-.062-.775-.133-1.17-.22C955.082,617.535,896.424,606.182,834.3,600.821Z" transform="translate(-23.125 -160.185)"/><path class="b" d="M955.13,323.421c-31.561-28.061-68.646-38.907-108.89-50.677-31.193-9.122-123.341-36.072-197.521-13.22C531.823,295.534,470.625,451.8,486,548.859c16.9-13.334,34.741-20.509,55.374-25.511,4.731-1.261,9.145-2.523,14.192-3.784,1.892-.315,4.1-2.208,5.361-3.785a5.346,5.346,0,0,1,1.892-2.523c-.631-.631-1.261-.946-1.261-1.577-.315-5.046-3.469-7.885-5.677-11.669a8.082,8.082,0,0,1,0-6.623c1.261-2.207.946-3.785,1.577-4.415,6.938-10.091,16.084-15.453,25.86-22.706,8.83-6.938,19.237-8.515,29.96-11.353,15.138-4.415,29.96-4.1,45.728-7.569,3.784-.946,7.569,0,11.353-.631,54.874-7.253,107.856-1.892,162.1,2.839,62.127,5.361,120.785,16.714,183.543,27.437.395.087.784.158,1.17.22C1018.8,422.007,998.593,362.066,955.13,323.421Z" transform="translate(-21.289 -8.916)"/><g transform="translate(556.039 230.286)"><g transform="translate(0 87.987)"><path class="c" d="M650.888,603.382h276.38l19.926-215.335-267.675.063Z" transform="translate(-650.888 -387.671)"/><g transform="translate(29.211)"><path class="d" d="M999.924,603.086H723.544l-20.5-215.711H972.679Z" transform="translate(-703.04 -387.376)"/><path class="e" d="M978.8,435.875H707.65l-4.61-48.5H972.679Z" transform="translate(-703.04 -387.376)"/><path class="f" d="M996.71,597.471H723.01l-2.655-27.929H993.183Z" transform="translate(-710.657 -467.508)"/><path class="f" d="M1002.161,645.876H727.611l-2.671-28.1H998.611Z" transform="translate(-712.674 -488.725)"/><path class="g" d="M1007.46,692.936H732.084L729.4,664.664h274.492Z" transform="translate(-714.634 -509.352)"/><path class="f" d="M985.281,495.974H713.363l-2.62-27.567H981.8Z" transform="translate(-706.428 -423.02)"/><path class="f" d="M990.843,545.368H718.058l-2.637-27.743H987.339Z" transform="translate(-708.486 -444.671)"/><g transform="translate(26.351 45.386)"><path class="h" d="M820.958,595.844h-26.7l-2.782-27.923h26.615Z" transform="translate(-768.294 -512.181)"/><path class="h" d="M995.5,595.844H968.8L965.7,567.92h26.615Z" transform="translate(-844.934 -512.181)"/><path class="h" d="M1074.914,495.974h-26.529l-3.216-27.567h26.445Z" transform="translate(-879.891 -468.406)"/><path class="h" d="M1150.2,595.844h-26.7l-3.371-27.923h26.615Z" transform="translate(-912.866 -512.181)"/><path class="h" d="M1122.175,692.936h-26.866l-3.341-28.272h26.78Z" transform="translate(-900.477 -554.738)"/><path class="h" d="M1015.792,495.974H989.263l-3.111-27.567H1012.6Z" transform="translate(-853.93 -468.406)"/><path class="h" d="M1038.354,692.936h-26.866l-3.19-28.272h26.78Z" transform="translate(-863.671 -554.738)"/><path class="h" d="M893.607,495.974H867.079l-2.893-27.567H890.63Z" transform="translate(-800.278 -468.406)"/><path class="h" d="M904.434,597.471h-26.7L874.8,569.541h26.617Z" transform="translate(-804.947 -512.895)"/><path class="h" d="M914.618,692.936H887.752l-2.967-28.272h26.78Z" transform="translate(-809.339 -554.738)"/><path class="h" d="M779.306,495.974H752.777l-2.69-27.567h26.445Z" transform="translate(-750.087 -468.406)"/><path class="h" d="M798.865,692.936H772l-2.759-28.272h26.78Z" transform="translate(-758.512 -554.738)"/></g></g><path class="i" d="M1188,712.323c-3.741,5.715-10.94,12.177-17.227,17.976-11.692,10.784-22.724,14.406-29.96,15.729a47.012,47.012,0,0,0,8.988-26.964c0-.03,0-.022,0,0C1149.868,720.444,1172.274,721.311,1188,712.323Z" transform="translate(-866.403 -530.317)"/><path class="j" d="M1189.768,712.323a96,96,0,0,1-14.98,17.976c-11.693,10.784-22.724,14.406-29.96,15.729a47.012,47.012,0,0,0,8.988-26.964c0-.03,0-.022,0,0C1153.88,720.444,1174.039,721.311,1189.768,712.323Z" transform="translate(-868.167 -530.317)"/></g><g transform="translate(269.638 34.06)"><circle class="k" cx="14.788" cy="14.788" r="14.788" transform="translate(26.855 75.789)"/><path class="l" d="M1201.174,329.382c6.609,14.412-1.107,31.7,7.394,38.819,1.069.9,4.291,3.216,5.546,7.394a14.49,14.49,0,0,1,0,7.394c-3.883,13.214-77.453,13.214-81.335,0a14.49,14.49,0,0,1,0-7.394c1.255-4.178,5.453-6.5,6.522-7.394,8.5-7.116-.191-24.407,6.418-38.819,4.564-9.951,15.938-18.485,27.728-18.485S1196.611,319.43,1201.174,329.382Z" transform="translate(-1132.291 -299.806)"/><circle class="m" cx="14.788" cy="14.788" r="14.788" transform="translate(49.038)"/></g><path class="n" d="M1284.76,294.922a27.606,27.606,0,0,1,4.771.388q4.135.232,8.27.463a2.136,2.136,0,0,1,1.555.52,1.973,1.973,0,0,1,.325,1.371,13.47,13.47,0,0,1-.911,4.466,1.318,1.318,0,0,1-.511.725,1.39,1.39,0,0,1-1.008,0l-12.772-3.273c-1.912-.49-1.758-2.157-1.32-3.784C1283.308,295.247,1283.941,295,1284.76,294.922Z" transform="translate(-928.895 -258.705)"/><path class="o" d="M1271.544,269.312a44.923,44.923,0,0,1,4.706-3.9q4.007-3.456,8.013-6.913a3.241,3.241,0,0,1,1.8-.986,1.65,1.65,0,0,1,1.242.712,10.991,10.991,0,0,1,2.215,4.05,1.379,1.379,0,0,1,.022.976,2.239,2.239,0,0,1-.938.883l-14.13,8.816c-2.114,1.319-3.114-.029-3.823-1.6C1270.416,270.821,1270.836,270.088,1271.544,269.312Z" transform="translate(-923.488 -242.262)"/><path class="p" d="M1248.355,253.244a63.68,63.68,0,0,1-.72-7.251q-.727-6.268-1.455-12.536a4.44,4.44,0,0,1,.155-2.424,1.482,1.482,0,0,1,1.279-.7,9.62,9.62,0,0,1,4.625.7,1.5,1.5,0,0,1,.835.66,3.175,3.175,0,0,1,.233,1.52q-.141,9.874-.282,19.749c-.042,2.955-1.726,2.976-3.434,2.564C1249.011,255.383,1248.623,254.467,1248.355,253.244Z" transform="translate(-912.713 -230.286)"/></g><g transform="translate(823.643 570.674)"><path class="q" d="M1138.647,851.319c3.224-1,5.113-4.779,8.447-5.223,4.223,3.556,7.335,10.113,13.781,9.224a2.658,2.658,0,0,0,1.667-1.445,22.566,22.566,0,0,0,1.152-2.127c-1.534-7.847-8.105-13.746-15.98-13.746a15.987,15.987,0,0,0-12.834,6.6c.151,1.1.335,2.191.544,3.273C1135.647,849.319,1135.98,851.986,1138.647,851.319Z" transform="translate(-1131.396 -838.002)"/><path class="q" d="M1159.806,859.058a2.658,2.658,0,0,1-1.667,1.445c-6.446.889-9.558-5.668-13.781-9.224-3.334.444-5.224,4.223-8.447,5.223-2.667.667-3-2-3.223-3.445-.209-1.082-.394-2.175-.544-3.273a17.821,17.821,0,0,0-3.484,10.661c0,9.532,7.306,17.26,16.318,17.26s16.319-7.728,16.319-17.26a18.3,18.3,0,0,0-.339-3.514A22.546,22.546,0,0,1,1159.806,859.058Z" transform="translate(-1128.659 -843.184)"/></g><g transform="translate(435.268 392.832)"><path class="r" d="M444.785,533.179c3.071-.953,4.871-4.554,8.048-4.977,4.024,3.389,6.989,9.637,13.131,8.79a2.535,2.535,0,0,0,1.588-1.377,21.553,21.553,0,0,0,1.1-2.027c-1.462-7.478-7.723-13.1-15.227-13.1a15.235,15.235,0,0,0-12.229,6.288c.143,1.046.319,2.088.519,3.119C441.926,531.273,442.244,533.815,444.785,533.179Z" transform="translate(-437.875 -520.489)"/><path class="s" d="M464.946,540.553a2.535,2.535,0,0,1-1.589,1.377c-6.142.847-9.107-5.4-13.131-8.79-3.177.423-4.977,4.024-8.048,4.977-2.542.636-2.859-1.906-3.071-3.283-.2-1.031-.376-2.073-.519-3.119a16.983,16.983,0,0,0-3.32,10.159c0,9.083,6.962,16.446,15.549,16.446s15.549-7.363,15.549-16.446a17.456,17.456,0,0,0-.323-3.348A21.547,21.547,0,0,1,464.946,540.553Z" transform="translate(-435.268 -525.427)"/></g><g transform="translate(514.061 231.828)"><path class="t" d="M598.853,263.584c7.392-2.294,11.725-10.961,19.373-11.981,9.687,8.157,16.824,23.2,31.609,21.158a6.1,6.1,0,0,0,3.823-3.314,51.576,51.576,0,0,0,2.641-4.879c-3.519-18-18.591-31.529-36.651-31.529a36.67,36.67,0,0,0-29.437,15.135c.346,2.519.769,5.026,1.25,7.508C591.97,259,592.735,265.114,598.853,263.584Z" transform="translate(-582.219 -233.039)"/><path class="u" d="M647.381,281.333a6.1,6.1,0,0,1-3.823,3.314c-14.785,2.039-21.922-13-31.609-21.158-7.647,1.02-11.98,9.687-19.373,11.981-6.118,1.53-6.883-4.588-7.392-7.9-.481-2.482-.9-4.989-1.25-7.508a40.879,40.879,0,0,0-7.992,24.452c0,21.863,16.757,39.587,37.428,39.587S650.8,306.375,650.8,284.512a41.973,41.973,0,0,0-.777-8.058A51.573,51.573,0,0,1,647.381,281.333Z" transform="translate(-575.943 -244.925)"/></g></g></svg>