<svg xmlns="http://www.w3.org/2000/svg" xmlns:xlink="http://www.w3.org/1999/xlink" width="595.816" height="578.75" viewBox="0 0 595.816 578.75"><defs><style>.a,.aa,.b,.r,.z{fill:none;}.b{stroke:#fff;stroke-width:3.176px;}.aa,.ab,.ac,.b,.k,.l,.n,.o,.r,.t,.u,.v,.x{stroke-miterlimit:10;}.c{fill:url(#a);}.d{fill:url(#b);}.e{fill:url(#c);}.f{fill:url(#d);}.g{fill:url(#e);}.h{clip-path:url(#g);}.i{fill:url(#h);}.j,.x,.y{fill:#fff;}.k{fill:#d2e7f9;}.k,.t{stroke:#bbdbf9;stroke-width:0.635px;}.l,.m{fill:#e7827e;}.aa,.ab,.ac,.l,.n,.o,.r,.u,.v,.x,.y,.z{stroke:#100052;}.l,.n,.o,.r{stroke-width:1.033px;}.ab,.ac,.n,.q,.u{fill:#100052;}.o,.p{fill:#2a7195;}.s{fill:#e6e7e8;}.t{fill:#bbdbf9;}.aa,.u,.v,.x,.y,.z{stroke-width:0.992px;}.v{fill:#53547f;}.w{fill:#ff9077;}.y,.z{stroke-linecap:round;stroke-linejoin:round;}.ab{stroke-width:1.248px;}.ac{stroke-width:1.159px;}</style><linearGradient id="a" y1="0.5" x2="1" y2="0.5" gradientUnits="objectBoundingBox"><stop offset="0" stop-color="#2a7195"/><stop offset="0.227" stop-color="#286d91"/><stop offset="0.42" stop-color="#256388"/><stop offset="0.601" stop-color="#1e5178"/><stop offset="0.774" stop-color="#153861"/><stop offset="0.941" stop-color="#0a1944"/><stop offset="1" stop-color="#060c39"/></linearGradient><linearGradient id="b" y1="0.5" x2="1" y2="0.5" gradientUnits="objectBoundingBox"><stop offset="0" stop-color="#2a7195"/><stop offset="1" stop-color="#060c39"/></linearGradient><linearGradient id="c" x1="0.713" y1="-0.573" x2="0.336" y2="1.476" gradientUnits="objectBoundingBox"><stop offset="0" stop-color="#ff9077"/><stop offset="1" stop-color="#e9645a"/></linearGradient><linearGradient id="d" x1="0.516" y1="0.293" x2="0.373" y2="1.104" xlink:href="#c"/><linearGradient id="e" y1="0.5" x2="1" y2="0.5" gradientUnits="objectBoundingBox"><stop offset="0" stop-color="#faebd8"/><stop offset="1" stop-color="#ffb83f"/></linearGradient><clipPath id="g"><path class="a" d="M691.408,655.337c-14.482-11.544-40.718-32.939-57.765-70.143-48.662-106.2,31.378-223.744,45.387-243.438,11.168-15.7,98.72-135.065,202.178-123.782,70.01,7.635,89.086,68.757,201.985,88.318,36.529,6.329,47.554,2.187,66.21,14.833,54.57,36.991,58.448,139.184,33.009,210.431-18.622,52.153-53.17,83.51-66.017,94.9-14.11,12.51-42.809,35.01-99.026,53.639C977.381,693.344,809.061,749.12,691.408,655.337Z" transform="translate(-618.122 -217.222)"/></clipPath><linearGradient id="h" x1="0.627" y1="0.175" x2="0.532" y2="0.418" gradientUnits="objectBoundingBox"><stop offset="0" stop-color="#4fa5ad"/><stop offset="1" stop-color="#99cbcf"/></linearGradient></defs><g transform="translate(-613.801 -203.02)"><path class="b" d="M1251.278,492.318c15.472,6.541,25.716,23.735,24.1,40.455" transform="translate(-90.372 -41.013)"/><path class="b" d="M1276.642,472.9a57.835,57.835,0,0,1,25.367,40.685" transform="translate(-93.968 -38.259)"/><path class="b" d="M690.7,714.07c.076.911,1.7-.113,1.147-.844s-1.689-.507-2.539-.171a28.157,28.157,0,0,0-16.371,17.878" transform="translate(-8.384 -72.261)"/><g transform="translate(1158.816 597.428)"><path class="c" d="M1259.369,669.678a29.764,29.764,0,0,1,1.857,7.22c.516,3.611-1.238,6.808-1.341,10.316-.206,5.26,4.849,9.386,9.9,7.53,4.127-1.547,8.046-5.674,12.482-3.92,2.786,1.135,5.777,4.023,8.871,1.444a30.567,30.567,0,0,0,3.73-3.529,24.282,24.282,0,0,0,.183-2.972c0-12.807-10.047-23.19-22.439-23.19a21.919,21.919,0,0,0-14.371,5.38A4.874,4.874,0,0,1,1259.369,669.678Z" transform="translate(-1250.176 -662.577)"/><path class="d" d="M1289.808,693.157c-3.095,2.579-6.086-.31-8.871-1.444-4.435-1.753-8.355,2.373-12.481,3.92-5.054,1.856-10.109-2.27-9.9-7.53.1-3.508,1.857-6.705,1.341-10.316a29.758,29.758,0,0,0-1.857-7.22,4.877,4.877,0,0,0-1.125-1.721,23.455,23.455,0,0,0-8.068,17.81c0,12.807,10.047,23.189,22.439,23.189,11.418,0,20.844-8.814,22.256-20.217A30.554,30.554,0,0,1,1289.808,693.157Z" transform="translate(-1248.843 -663.466)"/></g><g transform="translate(1022.28 708.239)"><path class="e" d="M1095.35,801.213c2.3-.716,3.654-3.417,6.039-3.735,3.019,2.543,5.244,7.231,9.852,6.595a1.9,1.9,0,0,0,1.192-1.032,16.084,16.084,0,0,0,.823-1.521,11.851,11.851,0,0,0-11.424-9.828,11.431,11.431,0,0,0-9.176,4.718q.162,1.178.39,2.34C1093.2,799.783,1093.443,801.69,1095.35,801.213Z" transform="translate(-1090.165 -791.692)"/><path class="f" d="M1112.021,803.82a1.9,1.9,0,0,1-1.192,1.032c-4.608.636-6.832-4.052-9.852-6.595-2.384.318-3.735,3.019-6.038,3.735-1.907.476-2.146-1.431-2.3-2.463q-.225-1.161-.39-2.34a12.742,12.742,0,0,0-2.491,7.621c0,6.815,5.223,12.34,11.666,12.34s11.666-5.524,11.666-12.34a13.063,13.063,0,0,0-.242-2.511A16.074,16.074,0,0,1,1112.021,803.82Z" transform="translate(-1089.754 -792.471)"/></g><g transform="translate(613.801 203.02)"><path class="g" d="M633.467,216.286a55.568,55.568,0,0,1,3.469,13.491c.964,6.745-2.312,12.72-2.505,19.272-.385,9.829,9.058,17.538,18.5,14.069,7.709-2.891,15.032-10.6,23.319-7.323,5.2,2.12,10.792,7.516,16.574,2.7a57.357,57.357,0,0,0,6.969-6.593,45.261,45.261,0,0,0,.342-5.554c0-23.928-18.77-43.325-41.923-43.325a40.946,40.946,0,0,0-26.848,10.052A9.117,9.117,0,0,1,633.467,216.286Z" transform="translate(-616.291 -203.02)"/><path class="g" d="M690.336,260.152c-5.782,4.818-11.371-.578-16.574-2.7-8.287-3.277-15.61,4.433-23.319,7.323-9.444,3.469-18.887-4.24-18.5-14.069.193-6.552,3.469-12.527,2.505-19.272a55.568,55.568,0,0,0-3.469-13.491,9.116,9.116,0,0,0-2.1-3.214A43.82,43.82,0,0,0,613.8,248.006c0,23.928,18.769,43.325,41.922,43.325,21.332,0,38.943-16.467,41.581-37.772A57.359,57.359,0,0,1,690.336,260.152Z" transform="translate(-613.801 -204.68)"/></g><g transform="translate(617.509 215.209)"><g class="h"><rect class="i" width="1046.743" height="1046.743" transform="translate(-255.797 -253.508)"/><g transform="translate(-6.939 77.084)"><path class="j" d="M970.506,477.871c14.919-3.936,14-14.445,29.439-19.627,17.929-6.018,34.835,2.9,36.715,3.926,6.77,3.7,10.711,7.909,17.4,16.182a183.458,183.458,0,0,1,21.165,32.767c5.824-13.546,24.748-17.431,37.991-10.945s21.413,20.227,26.408,34.1c18.082-4.574,38.741,5.734,45.96,22.931,1.495,3.563,2.585,7.524,5.481,10.082,1.722,1.522,3.914,2.377,5.92,3.5,10.914,6.112,15.512,20.2,13.472,32.54s-9.5,23.124-17.9,32.388c-17.681,19.483-44.683,34.877-69.639,26.543-11.732,15.12-29.9,24.105-48.474,28.723-27.349,6.8-60.179,3.283-77.723-18.771A137.257,137.257,0,0,1,894.8,676.951c-5.08-1.791-10.3-4.072-13.527-8.387s-3.569-11.21.614-14.6c-20.816,4.7-41.564-10.285-52.767-28.451-5.118-8.3-9.011-17.739-8.707-27.485s5.545-19.751,14.5-23.607c-7.89-13.041-4.693-30.158,2.433-43.633,7.572-14.319,19.707-26.681,34.956-32.143s33.647-3.115,45.547,7.874c7.146-19.725,16.144-26.343,23.22-28.647C951.981,474.315,957.284,481.359,970.506,477.871Z" transform="translate(-639.858 -328.181)"/><path class="k" d="M1106.349,600.343c-8.723,4.362-13.085,14.175-20.172,20.717-2.726-4.362-5.452-8.723-9.813-10.9-33.8-17.445-68.147-29.439-105.765-35.437-11.994-1.635-23.443.545-32.711,7.087-14.175,10.9-23.443,27.8-23.988,45.8,0,1.168-.832,2.061-1.11,3.268l.019,0v1.636a3.409,3.409,0,0,1-.019-1.638c-3.808-.541-7.075,0-11.43-1.087-4.907-1.091-10.358.545-15.265,0-24.693-3.527-33.547,18.564-36.9,37.858,10.242,7.44,22.409,11.448,34.6,8.692-4.184,3.393-3.839,10.289-.614,14.6s8.446,6.6,13.526,8.387a137.26,137.26,0,0,0,101.923-4.741c17.542,22.054,50.374,25.571,77.722,18.772,18.572-4.618,36.742-13.6,48.475-28.723,24.955,8.334,51.958-7.06,69.638-26.543,8.407-9.264,15.863-20.046,17.9-32.387a35.814,35.814,0,0,0-2.363-19.783C1176.769,592.214,1139.67,585.63,1106.349,600.343Z" transform="translate(-643.942 -344.913)"/><path class="j" d="M759.663,345.976c17.631-5.824,36.494,4.6,43.39,8.406,28.962,16,38.337,47.608,40.41,55.329,11.82-4.2,25.173.334,35.338,7.685a70.645,70.645,0,0,1,28.516,61.146,45.634,45.634,0,0,1,21.646,13.166c10.434,11.49,11.386,24.774,11.636,29.177,1.06,18.71-8.969,32.064-11.986,35.958-12.812,16.536-30.966,20.976-46.634,24.809a127.2,127.2,0,0,1-51.7,1.647c-20.975,24.237-59.966,30.4-87.4,13.824-4.633-2.8-9.409-8.543-6.276-12.958-15.543,10.872-36.846,6.732-54.651.193-5.93-2.177-11.972-4.7-16.321-9.28s-6.571-11.752-3.7-17.377c-17.268,3.07-33.871-9.546-42.907-24.578-6.374-10.6-10.272-23.115-8.6-35.372s9.646-24.016,21.33-28.081c-10.3-8.743-7.265-25.426-1.105-37.447,6.824-13.315,16.892-25.6,30.564-31.681s31.3-4.636,41.692,6.127c1.292-12.778,5.863-36.172,24.148-49.277,13.686-9.809,32.428-11.97,32.611-11.415.145.442-10.767,4.475-10.785,4.431S755.732,347.275,759.663,345.976Z" transform="translate(-610.037 -312.313)"/><path class="k" d="M940.4,533.449c-.25-4.4-1.2-17.687-11.636-29.176a45.627,45.627,0,0,0-21.646-13.168,70.613,70.613,0,0,0-13.788-46.478,34.962,34.962,0,0,0-16.355-4.406c-.545,0-1.09,1.636-1.636,1.636-7.632-.546-13.084,3.271-14.72,9.813s.545,13.63-1.09,20.172a10.836,10.836,0,0,1-4.362,0C839.9,463.12,825.183,454.4,808.828,448.4c-9.268-3.817-18.536-4.362-27.8-5.452-27.8-2.726-58.334,2.726-77.415,25.623-7.632,9.268-9.268,21.262-6.542,32.711,3.817,13.63,11.449,25.623,12.54,39.8h2.18c-1.09,0-2.726.545-3.816,0-2.726-1.09-4.362-2.726-8.178-3.817-1.635-.545-3.271-2.18-4.906-2.726a14.521,14.521,0,0,1-6.542-1.635,20.622,20.622,0,0,0-8.177,0c-2.181,1.09-4.362,1.09-6.542,2.181-4.362,2.18-8.177,6.542-6.542,12.539-2.726-.545-.545-4.362-3.271-4.907-1.09,0-2.181.545-3.271,0-9.268-5.452-20.717-11.449-31.621-8.723-2.181.545-5.451-.545-8.177.545v1.636c-1.636.545-3.272-.545-4.907,0v1.636a4.009,4.009,0,0,0-1.037.14,70.533,70.533,0,0,0,4.029,7.738c9.037,15.031,25.64,27.648,42.908,24.578-2.872,5.626-.65,12.8,3.7,17.378s10.392,7.1,16.321,9.28c17.8,6.539,39.108,10.679,54.651-.193-3.133,4.415,1.643,10.158,6.276,12.958,27.432,16.58,66.422,10.413,87.4-13.824a127.194,127.194,0,0,0,51.7-1.647c15.668-3.833,33.822-8.273,46.634-24.809C931.43,565.514,941.459,552.16,940.4,533.449Z" transform="translate(-610.711 -325.92)"/><g transform="translate(213.158)"><g transform="translate(102.721 44.97)"><path class="l" d="M1021.776,377.853a3.352,3.352,0,0,0-.006-1.573,8.141,8.141,0,0,0-2.02-4.449q-3.746,1.056-7.655,2.048c-6.13,1.554-12.076,2.856-17.81,3.945,0,0-.874-15.385-6.445-17.961-2.429-1.123-5.721.123-7.655,2.048-5.261,5.239,1,16.859,1.444,17.659,1.32,2.4,3.181,5.774,7.05,7.957,5.815,3.28,12.748.525,18.4-1.749,1.093-.439,2.26-.912,4.571-1.915l.3-.13a48.326,48.326,0,0,0,5.442-2.612q1.226-.733,2.384-1.569A9.165,9.165,0,0,0,1021.776,377.853Z" transform="translate(-978.093 -359.437)"/><g transform="translate(40.578 7.642)"><path class="l" d="M1029.351,370.949q.635-.722,1.2-1.5a2.788,2.788,0,0,1,.942-.958,2.632,2.632,0,0,1,1.964.13" transform="translate(-1025.937 -368.341)"/><path class="m" d="M1036.289,373.522c-.137.588-.712.953-1.245,1.235a1.915,1.915,0,0,1-.681.251,1.725,1.725,0,0,1-.917-.226,1.918,1.918,0,0,1-.758-.572c-.664-.942-.006-3.038,1.191-3.279A2.319,2.319,0,0,1,1036.289,373.522Z" transform="translate(-1026.373 -368.704)"/><path class="l" d="M1025.373,374.2a29.71,29.71,0,0,1,4.252-3.577c.44-.3,1.428-1.134,2.007-1.029,1.194.215.881,1.892.941,2.711a2.012,2.012,0,0,0,.567,1.527,3.606,3.606,0,0,0,.916.37,4.57,4.57,0,0,1,1.348,1.347c.449,1.465-2.694,2.529-3.584,3.01a11.657,11.657,0,0,1-2.193.995c-.555.166-1.132.247-1.679.438" transform="translate(-1025.373 -368.517)"/><path class="l" d="M1031.268,370.218a6.872,6.872,0,0,1,3.018-1.685c1.108-.276.941.094,3.351-.148a7.4,7.4,0,0,1,2.5.151c.66.158.831.3.855.445.07.4-.981.913-1.134.948-1.2.269-2.466.081-3.645.411-.814.227-1.94.845-2.994,3.081" transform="translate(-1026.209 -368.341)"/><path class="l" d="M1034.342,374.607a7.057,7.057,0,0,0,3.317-1.152,2.069,2.069,0,0,1,1.1-.487.934.934,0,0,1,.857,1.109,1.545,1.545,0,0,1-.177.4,8.456,8.456,0,0,1-4.9,3.55c-.055.017-.125.044-.123.1s.116,0,.059-.016" transform="translate(-1026.645 -368.997)"/><path class="l" d="M1035.708,371.189a.849.849,0,0,1,.693.3,1.462,1.462,0,0,1,.211.372,2.965,2.965,0,0,1,.271,1.783l.033-.1" transform="translate(-1026.838 -368.745)"/><path class="l" d="M1033.879,373.889l.5-.4a.97.97,0,0,1,.372-.215.994.994,0,0,1,.778.3" transform="translate(-1026.579 -369.039)"/></g></g><g transform="translate(54.649)"><path class="n" d="M974.344,314.833c-.116,2.571,1.553,4.96,3.678,6.411a22.83,22.83,0,0,0,7.155,2.8l-3.666,6.027a7.418,7.418,0,0,0,5.769-4.208,11.11,11.11,0,0,0,.649-7.292,14.8,14.8,0,0,0-25.724-6.335,10.535,10.535,0,0,1-2.376,2.431c-1.889,1.135-4.294.487-6.411-.124-5.478-1.58-11.3-2.7-16.857-1.406s-10.742,5.566-11.547,11.21a13.428,13.428,0,0,0,3.3,10.348,21.885,21.885,0,0,0,9.24,6.093,28.57,28.57,0,0,0,7.068,1.661,47.288,47.288,0,0,0,7.429-.016c5.486-.322,11.018-.8,16.252-2.477s10.206-4.637,13.4-9.108c.595-.833,1.5-1.837,2.436-1.416" transform="translate(-922.481 -307.039)"/><path class="l" d="M968.91,337.127c-.294.2-.616.436-.655.787a1.139,1.139,0,0,0,.14.582,6.18,6.18,0,0,0,3.642,3.495,2.459,2.459,0,0,0,2.323-.312,3.278,3.278,0,0,0,.607-.82l.9-1.523a1.732,1.732,0,0,0,.233-.518,1.638,1.638,0,0,0-.454-1.253c-.627-.821-1.941-2.516-3.073-2.581S969.8,336.534,968.91,337.127Z" transform="translate(-928.626 -311)"/><path class="l" d="M990.735,327.521a13.853,13.853,0,0,1-2.663,4.61,12.808,12.808,0,0,1-7.417,4.323,8.271,8.271,0,0,1-4.753-.288,8.356,8.356,0,0,1-4.466-5.04c-.754-2.255-.3-4.119.431-7.129.771-3.174,1.234-5.078,2.806-6.986.6-.728,4.4-5.138,9.793-4.179a10.106,10.106,0,0,1,6.843,5.184C993.648,322.775,990.895,327.271,990.735,327.521Z" transform="translate(-929.023 -307.841)"/><path class="n" d="M977.955,315.345a8.975,8.975,0,0,1-5.666,6.922c-5.09,1.865-11.093-1.162-16.065,1-2.922,1.268-4.994,4.586-4.294,7.694s4.554,5.242,7.366,3.747c2.559-1.359,3.242-4.623,4.648-7.157a12.037,12.037,0,0,1,5.023-4.847c.408-.208,1.142-.174,1.061.276" transform="translate(-926.293 -308.216)"/><path class="n" d="M930.154,329.4a15.432,15.432,0,0,0-5.391,2.52,6.665,6.665,0,0,0-2.681,5.123,7.606,7.606,0,0,0,2.526,5.039,14.483,14.483,0,0,0,10.929,4.133c4.422-.264,8.441-2.541,12.706-3.738a1.51,1.51,0,0,0,.875-.469c.382-.536-.083-1.253-.528-1.738-2.156-2.351-4.407-4.751-5.513-7.743-.9-2.44-.434-4.521.04-6.92-1.483-.632-4.163,1.288-5.662,1.777C935.053,328.169,932.576,328.691,930.154,329.4Z" transform="translate(-922.081 -309.654)"/><path class="n" d="M967.826,334.888a5.993,5.993,0,0,1-4.283-1.069,4.1,4.1,0,0,1-1.588-3.98c.7-3.179,6.735-6.091,9.288-3.53C974.417,329.492,971.887,334.453,967.826,334.888Z" transform="translate(-927.723 -309.632)"/><path class="n" d="M989.437,325.381c1.42.678,3.264,1.077,4.453.046,1.094-.948,1.086-2.646.763-4.058-1.1-4.8-5.173-8.948-10.06-9.5-1.68-.191-3.8.234-4.18,2.186-.275,1.408.968,2.19,1.556,3.333C983.756,320.854,985.794,323.641,989.437,325.381Z" transform="translate(-930.345 -307.717)"/><path class="n" d="M974.149,322.654a4.5,4.5,0,0,1-2.787.425,2.16,2.16,0,0,1-1.738-2,3.2,3.2,0,0,1,.6-1.529c1.658-2.664,3.829-5.282,6.85-6.132s3.69,2.31,2.505,4.469A12.17,12.17,0,0,1,974.149,322.654Z" transform="translate(-928.821 -307.923)"/><path class="l" d="M973.99,324.165c-1.062-.568-2.4-1.092-3.406-.422a1.881,1.881,0,0,0-.429,2.565,2.064,2.064,0,0,0,2.6.542l.111-.5" transform="translate(-928.85 -309.362)"/></g><g transform="translate(19.428 24.374)"><path class="l" d="M952.164,343.045a7.054,7.054,0,0,0-2.383-6.4c-3.693-2.842-10.285-.153-17.487,2.845-6.217,2.588-7.531,3.9-11.319,6.022-2.228,1.246-3.48,1.77-5.261,2.634a79.905,79.905,0,0,0-11.977,7.037,62.649,62.649,0,0,0-9.222,8.545c-1.532,1.67-5.762,5.608-3.454,8.238.829.944,2.971.319,3.945-.061,1.275-.5,2.38-1.345,3.612-1.931,2.1-1,4.537-1.529,6.724-2.382a22.9,22.9,0,0,0,4.162-1.684q1.948-1.226,3.784-2.618a52.957,52.957,0,0,0,6.749-6.1c2.11-.251,4.334-.606,6.651-1.1a76.444,76.444,0,0,0,17.519-6C948.525,349.353,951.683,346.442,952.164,343.045Z" transform="translate(-882.367 -335.439)"/><g transform="translate(0 31.83)"><path class="l" d="M894.513,376.966q-1.514,2.463-3.2,4.816a5.016,5.016,0,0,1-1.946,1.859,3.792,3.792,0,0,1-3.223-.378,5.581,5.581,0,0,1-2.419-2.455,4.056,4.056,0,0,1-.079-3.393,7.086,7.086,0,0,1,3.016-2.756l3.526-2.132a.355.355,0,0,1,.148.384" transform="translate(-881.364 -372.527)"/><path class="l" d="M884.12,377.132l-1.272,1.121a6.232,6.232,0,0,0-1.174,1.245,3.155,3.155,0,0,0-.333,2.667.665.665,0,0,0,.12.237c.2.229.633.166.79.429" transform="translate(-881.062 -373.18)"/><path class="l" d="M883.679,378.706l.057-.233a14.338,14.338,0,0,0-2.445,4.247,3.452,3.452,0,0,0-.247,1.027,3.248,3.248,0,0,0,.1.846,9.093,9.093,0,0,0,.464,1.454c.089.215.229.458.462.475a.551.551,0,0,0,.354-.133,1.652,1.652,0,0,0,.636-1.008" transform="translate(-881.042 -373.37)"/><path class="l" d="M884.764,379.914a21.549,21.549,0,0,0-1.633,2.637,8.172,8.172,0,0,0-.662,1.566,10.127,10.127,0,0,0-.283,2.116l-.132,2.1a1.23,1.23,0,0,0,.124.782c.28.409.93.324,1.323.023s.653-.748,1.048-1.046" transform="translate(-881.184 -373.574)"/><path class="l" d="M888.535,384.1a7.329,7.329,0,0,0-2.632,3.346c-.595,1.312-1.023,2.7-1.722,3.962a1.2,1.2,0,0,1-.4.483.442.442,0,0,1-.574-.082.647.647,0,0,1-.076-.372,15.19,15.19,0,0,1,.762-5.07,8.1,8.1,0,0,1,3.024-4.063" transform="translate(-881.338 -373.913)"/><path class="l" d="M894.931,377.078a9.062,9.062,0,0,1-.363,2.648c-.18.615-.425,1.208-.633,1.813a15.9,15.9,0,0,0-.723,3.076c-.08.607.124,1.867-.3,2.352a.78.78,0,0,1-.931.113,1.818,1.818,0,0,1-.678-.734,5.917,5.917,0,0,1-.808-3.061,1.521,1.521,0,0,1,.523-1.3" transform="translate(-882.382 -373.172)"/></g></g><g transform="translate(77.938 75.867)"><path class="o" d="M988.078,547.869l.053,0c4.895-.361-2.236-9.641-3.447-10.989-2.277-2.528-6.39-5.956-9.7-3.025-1.707,1.514-2.91,4.978-1.406,7.151,1.446,2.089,4.286,3.064,6.557,3.909C982.088,545.638,986.087,547.969,988.078,547.869Z" transform="translate(-952.573 -414.9)"/><path class="n" d="M949.834,408.589A18.888,18.888,0,0,1,960,396.307c2.126-.923,4.545-1.309,6.639-.159,4.817,2.647,4.52,7.3,5.951,12.324,2.8,9.857,2.058,20.449,3.555,30.506.818,5.5-.124,11.854-.185,17.45-.07,6.338-.034,12.677.222,19q.44,10.9,1.768,21.711c.431,3.474.674,7.279,1.66,10.6.693,2.331,1.9,4.7.266,7.122-1.54,2.277-7.955,2.058-10.132,2.112a2.871,2.871,0,0,1-1.338-.192c-1.044-.5-1.358-1.989-1.539-3.273-.989-6.994-1.208-15.167-3.173-21.811-1.892-6.4-3.814-12.01-4.631-18.841a29.94,29.94,0,0,1-.313-5.89c.159-2.031.726-4.005.894-6.036.456-5.5-1.982-9.409-3.285-14.344-1.567-5.929-3.106-11.868-4.659-17.8C949.988,422.229,948.262,415.254,949.834,408.589Z" transform="translate(-949.216 -395.438)"/></g><g transform="translate(0 70.261)"><path class="o" d="M869.241,519.06a59.125,59.125,0,0,1-8.451,4.96,2.085,2.085,0,0,1-1.614.271c-.932-.371-.856-1.7-.612-2.674,1.25-4.987,4.646-9.39,8.34-12.954,2.246-2.168,9.528-7.171,10.259-.752C877.617,511.9,873.622,515.93,869.241,519.06Z" transform="translate(-858.405 -405.329)"/><path class="n" d="M910.065,421.632c-4.389,12.52-8.353,25.738-16.557,35.519-5.786,6.9-11.839,13.033-17.115,20.522a54.174,54.174,0,0,0-4.094,6.438c-1.344,2.622-3.739,7.326-2.281,10.174,1.195,2.335,3.265,4.574,5.632,4.124a7.206,7.206,0,0,0,3.219-2.017c13.036-11.775,27.761-22.88,38.492-37.514,4.872-6.644,8.646-14.155,12.165-21.776,3.036-6.575,5.573-17.686,12.862-19.124a41.753,41.753,0,0,0,4.431-.678,4.392,4.392,0,0,0,3.157-3.255,6.313,6.313,0,0,0-.173-2.365,29.665,29.665,0,0,0-8.15-14.823c-3.132-3.112-7.367-9.4-12.292-7.648-2.8.994-5.809,5.6-7.607,8.055C916.509,404.43,913.07,413.061,910.065,421.632Z" transform="translate(-859.986 -388.906)"/></g><g transform="translate(56.115 24.103)"><path class="o" d="M982.947,350.878a34.154,34.154,0,0,1,3.583,13.654,2.885,2.885,0,0,1-.076,1.2,2.549,2.549,0,0,1-1.087,1.17c-5.2,3.486-11.771,3.948-17.76,2.662s-11.548-4.167-17.033-7.019a28.1,28.1,0,0,1-6.158-3.922c-3.348-3.055-5.183-7.615-6.22-12.2-.62-2.74-.8-6.125,1.27-7.9a7.431,7.431,0,0,1,3.306-1.351l6.33-1.442c4.044-.921,7.4-.978,11.1,1.092,2.334,1.3,4.43,3.09,6.889,4.138,2.719,1.159,5.732,1.195,8.4,2.48A17.415,17.415,0,0,1,982.947,350.878Z" transform="translate(-925.772 -335.123)"/><g transform="translate(0 18.994)"><path class="p" d="M949.444,361.811q9.109,2.106,18.079,4.82a6.539,6.539,0,0,1,3.757,2.188c1.5,2.2.268,5.245-.593,7.827-2.492,7.472-1.355,15.643-1.223,23.553.022,1.3-.057,2.787-.99,3.637a3.962,3.962,0,0,1-2.279.8,46.573,46.573,0,0,1-20.4-2.163c-3.534-1.195-6.591-3.212-9.941-4.774-.959-.448-1.5-1.512-2.232-2.314-1.427-1.569-3.6-2.244-4.918-3.938-1.48-1.9-2.279-4.77-3.108-7.044a20.169,20.169,0,0,1-1.361-5.17c-.241-2.874,1.2-7.25,4.634-6.478,1.833.413,3.442,2.534,5.187,1.781a3.737,3.737,0,0,0,1.414-1.347,35.38,35.38,0,0,0,6-14.009,2.686,2.686,0,0,1,.716-1.651,2.206,2.206,0,0,1,2.185.054q8.462,3.376,16.623,7.523a1.5,1.5,0,0,0-1.316-.2" transform="translate(-923.848 -357.255)"/><path class="q" d="M925.057,377.8a3.285,3.285,0,0,1,4.071-.237,6.425,6.425,0,0,1,2.417,3.757,31.431,31.431,0,0,1,.68,4.612,37.5,37.5,0,0,0,5.457,15.547,5.231,5.231,0,0,1-2.049-1.046,36.12,36.12,0,0,1-7.59-6.565,20.058,20.058,0,0,1-4.252-12.7,5.256,5.256,0,0,1,1.013-3.484c.816-.894,2.457-.967,2.991.134" transform="translate(-923.789 -360.05)"/></g><path class="r" d="M981.184,363.209a1.518,1.518,0,0,1,.334.919,16.692,16.692,0,0,1-.021,3.015,14.592,14.592,0,0,1-1.745,6.494A9.856,9.856,0,0,1,976.387,377v-.43" transform="translate(-931.245 -339.105)"/><path class="r" d="M969.971,375.883c-.051-.1.18-.043.122.053s-.195.063-.293.018c-4.382-2.016-8.618-4.646-13.347-5.377a33.689,33.689,0,0,1,7.206,5.806,54.3,54.3,0,0,0-5.782-1.748" transform="translate(-928.42 -340.149)"/><path class="r" d="M983.653,357.74a18.907,18.907,0,0,1-1.148,5.2c-.036.1-.088.208-.185.227s-.179-.152-.086-.187" transform="translate(-932.069 -338.329)"/><path class="r" d="M944.233,359.317a.469.469,0,0,0,.382.524,1.177,1.177,0,0,0,.678-.14,15.193,15.193,0,0,0,6.3-4.974c1.275-1.767,2.853-4.437,2.517-6.724" transform="translate(-926.686 -336.949)"/><path class="r" d="M957.176,351.015a14.082,14.082,0,0,1-1.216,1.414c-.311.317-.752.638-1.135.435" transform="translate(-928.189 -337.376)"/><path class="r" d="M934.836,377.333a4.584,4.584,0,0,1,2.023,2.515c.41,1.043.619,2.164.957,3.237a13.324,13.324,0,0,0,3.468,5.621" transform="translate(-925.355 -341.107)"/></g></g></g></g></g><path class="s" d="M992.165,819.326c3.3-3.129,8.758-3.129,12.675-.826s6.444,6.454,7.866,10.769c2.3-.818,4.9.065,6.879,1.5a13.751,13.751,0,0,1,5.55,11.9c1.742-.554,3.668.819,4.214,2.563a6.866,6.866,0,0,1-.884,5.259c-.887,1.6-2.1,2.989-3.06,4.547-1.638,2.667-2.614,5.94-5.2,7.7-2.874,1.956-6.746,1.358-10.064.32a13.8,13.8,0,0,1-17.012,2.69c-.9-.545-1.831-1.662-1.221-2.522-3.025,2.116-7.172,1.31-10.638.038a8.068,8.068,0,0,1-3.177-1.807,3.078,3.078,0,0,1-.72-3.382c-3.361.6-6.593-1.858-8.351-4.784a10.772,10.772,0,0,1-1.674-6.885,6.71,6.71,0,0,1,4.151-5.466c-2-1.7-1.414-4.949-.215-7.289a12.992,12.992,0,0,1,5.948-6.166c2.661-1.184,6.093-.9,8.115,1.192a9.416,9.416,0,0,1,5.836-10.111c1.366-.5,2.837-.672,4.2-1.183" transform="translate(-50.11 -87.022)"/><path class="t" d="M1015.557,844.9c-1.09-.545-2.181.546-3.271,0v-1.635c-1.636-.546-3.817-.546-4.362.545-1.091.545,0,2.726-.545,4.362h-1.636c-.545,1.09,0,2.181,0,3.271-2.181,0-3.271-1.636-5.451-2.726-3.272-1.636-8.723-1.636-13.085,0-1.09.545-2.726,3.271-3.816,3.817a137.5,137.5,0,0,1-14.134,6.068c1.829,2.6,4.8,4.616,7.881,4.068a3.076,3.076,0,0,0,.72,3.382,8.068,8.068,0,0,0,3.176,1.807c3.466,1.273,7.613,2.079,10.638-.038-.609.86.32,1.977,1.221,2.522a13.8,13.8,0,0,0,17.012-2.691c3.319,1.038,7.189,1.636,10.064-.321,2.587-1.761,3.564-5.034,5.2-7.7.956-1.558,2.174-2.949,3.061-4.547a8.744,8.744,0,0,0,1.019-2.846,17.721,17.721,0,0,0-3.879-1.885A21.813,21.813,0,0,1,1015.557,844.9Z" transform="translate(-50.391 -90.713)"/><path class="s" d="M852.321,668.7c15.11,3.081,29.45,13.939,32.69,29.016,22.259-.572,41.972,22.349,38.075,44.272,9.754.278,20.016,3.285,26.279,10.767s6.76,20.12-.8,26.288c-2.669,2.177-6.062,3.418-8.459,5.892-2.107,2.176-3.234,5.086-4.55,7.813a52.69,52.69,0,0,1-76.485,21.069,61.061,61.061,0,0,1-89.31-8.521c-12.753,8.308-30.065,4.4-43.2-3.292-4.4-2.573-8.777-5.775-10.776-10.463s-.615-11.132,4.065-13.147a44.039,44.039,0,0,1-22.2-17.822c-4.32-6.855-6.6-15.861-2.806-23.022,3.173-5.994,9.982-9.358,16.719-10.143s13.514.613,20.152,2c-11.006-2.306,9.044-23.972,12.128-25.567,10.21-5.282,21.177-4.886,30.976-11.67C797.309,676.6,823.71,662.869,852.321,668.7Z" transform="translate(-11.216 -65.824)"/><path class="t" d="M931.776,752.381c.088-.5.16-.991.224-1.487-14.766-5.261-29.977-6.746-45.03,1.518-10.9,6.542-17.445,20.717-9.268,33.8-.545-1.091-2.726-1.636-2.726-2.181-14.72-19.627-31.621-40.344-56.7-38.163-19.081,1.636-30.53,20.172-37.072,37.617-2.181,6-.545,13.63-.545,20.717-.546-3.816-3.817-6-7.087-8.177v-1.636a13.294,13.294,0,0,0-6.542,0c-2.181,1.091-4.362,1.091-6.542,2.181a10.594,10.594,0,0,0-6,4.906c-3.555,5.036-5.822,10.555-8.2,16.032,10.864,3.781,22.751,4.307,32.16-1.821a61.061,61.061,0,0,0,89.31,8.521,52.688,52.688,0,0,0,76.485-21.069c1.317-2.727,2.443-5.638,4.55-7.813,2.4-2.474,5.79-3.714,8.459-5.892,7.531-6.143,7.068-18.7.875-26.2a217.947,217.947,0,0,0-21.18-10.444A50.627,50.627,0,0,0,931.776,752.381Z" transform="translate(-18.782 -76.935)"/><g transform="translate(806.642 521.822)"><path class="u" d="M871.053,808.189c-2.061,1.151-2.41,3.338-3.523,5.2-1.074,1.8-2.3,3.652-3.48,5.4-1.121,1.665-7.435,6.759-5.73,8.773,2.034,2.4,8.752.088,10.868-1.078a23.543,23.543,0,0,0,6.44-4.834c1.654-2.074,2.1-4.917,2.408-7.471.263-2.169.273-4.78-1.514-6.034a4.926,4.926,0,0,0-3.549-.58A5.552,5.552,0,0,0,871.053,808.189Z" transform="translate(-841.265 -607.513)"/><path class="v" d="M905.573,667.537c-4.682,2-9.017,9.24-11.458,13.461-5.359,9.265-8.642,20.874-11.708,31.615-1.478,5.177-3.486,10.046-4.923,15.234-5,18.033-6.593,38.109-9.409,56.9-.348,2.316-.573,5.115.826,6.65a3.974,3.974,0,0,0,2.42,1.126c6.132,1,12.579-3.341,15.41-10.368,1.6-3.965,2.075-8.487,2.531-12.908q1.861-18.09,3.723-36.178c.605-5.889.715-8.541,4.207-12.763,2.6-3.144,5.589-5.718,8.317-8.67a64.915,64.915,0,0,0,10.7-15.912,30.345,30.345,0,0,0,3.393-11.676c.3-6.612-5.158-15.434-10.307-16.851A5.552,5.552,0,0,0,905.573,667.537Z" transform="translate(-842.652 -587.6)"/><path class="u" d="M883.881,779.562c-1.289,1.458-1.582,4.674-1.976,6.54-.62,2.938-.994,5.921-1.368,8.9l-.894,7.115a1.48,1.48,0,0,0,.2,1.211,1.3,1.3,0,0,0,.966.308c5.451.036,9.193-6.753,11.11-11a23.869,23.869,0,0,0,2.407-7.52C894.82,779.72,888.474,774.37,883.881,779.562Z" transform="translate(-844.324 -603.256)"/><path class="v" d="M907.573,707.986c-5.893,2.092-11.026,5.318-11.98,11.1a68.4,68.4,0,0,0-.087,18.5,199.452,199.452,0,0,1,1.134,23.592,9.37,9.37,0,0,1-.712,4.26,5.141,5.141,0,0,1-2.2,2.033,21.566,21.566,0,0,1-7.244,2.006,4.917,4.917,0,0,1-2.734-.1c-3.225-1.4-4.473-10.384-4.884-13.946-1.128-9.784-1.858-19.643-2.188-29.523-.258-7.747-1.409-17.4.333-24.9,1.51-6.493,7.28-11.341,11.862-14.109a96.391,96.391,0,0,1,34.083-12.777,21,21,0,0,1,8.618-.084c2.681.682,5.518-.7,7.606,1.3,6.772,6.475,1.491,16.385-3.65,21.451a28.038,28.038,0,0,1-6.151,4.961,29.694,29.694,0,0,1-6.385,2.27C918.942,705.116,912.942,706.081,907.573,707.986Z" transform="translate(-843.821 -588.537)"/><path class="w" d="M945.462,631.266a4.545,4.545,0,0,1,4.9,1.222,7.915,7.915,0,0,1,1.577,4.271l.845,5.439a25.039,25.039,0,0,1,.414,4.253,33.016,33.016,0,0,1-1.044,6.23c-.924,4.331-.939,8.77-1.266,13.168a18.317,18.317,0,0,1-.153,2.552,6.534,6.534,0,0,1-2.182,3.1,18.272,18.272,0,0,1-2.457,2.3,9.51,9.51,0,0,1-3.321,1.226c-2.964.564-5.368-.126-8.189-.881a57.7,57.7,0,0,1-8.332-2.784,39.841,39.841,0,0,1-5.02-2.764,13.3,13.3,0,0,1-3.539-4.028,4.123,4.123,0,0,1-.849-1.811,3.836,3.836,0,0,1,.315-1.686c1.423-3.943,4.185-6.051,7.575-8.376l5.129-3.517a36.108,36.108,0,0,0,7.212-5.9,14.309,14.309,0,0,0,2.888-5.282c.455-1.578.618-3.245,1.577-4.671a4.814,4.814,0,0,1,4.979-2.01" transform="translate(-849.602 -582.49)"/><g transform="translate(80.301 51.044)"><path class="x" d="M949.738,635.212a6.566,6.566,0,0,1,6.312-.751c3.924,1.849,4.5,8.45,5.084,15.688a52.654,52.654,0,0,1-.257,12.236c-.226,2.365-.2,3.629-.271,5.47a99.842,99.842,0,0,1-2.176,12.5c-1.041,4.816-4.634,16.724-6.542,16.657a3.709,3.709,0,0,1-4.1-2.629,7.865,7.865,0,0,1,.342-2.443c.568-4.094.846-8.194,1.1-12.338s1.321-10.01,1.629-15.135a49.125,49.125,0,0,0,.229-7.407,32.679,32.679,0,0,0-3.792-12.263C946.064,640.908,947.13,637.055,949.738,635.212Z" transform="translate(-934.147 -633.958)"/><g transform="translate(0 57.286)"><path class="j" d="M934.359,707.347a1.958,1.958,0,0,0-.548,1.114,1.619,1.619,0,0,0,.76,1.374,3.024,3.024,0,0,0,1.858.448,9,9,0,0,0,1.9-.378l7.51-2.062a10.7,10.7,0,0,0,2-.693,3.591,3.591,0,0,0,1.556-1.393,2.726,2.726,0,0,0,.024-2.571,4.559,4.559,0,0,0-1.753-1.855,1.362,1.362,0,0,0-.729-.251c-.575.032-.724.642-1.05,1.019a4.521,4.521,0,0,1-1.19.948,15.82,15.82,0,0,1-2.83,1.107,17.37,17.37,0,0,0-1.934.6,12.144,12.144,0,0,1-1.837.632A7.5,7.5,0,0,0,934.359,707.347Z" transform="translate(-932.308 -700.76)"/><path class="y" d="M934.436,710.415a8.737,8.737,0,0,1-.859.507.874.874,0,0,1-.63.094c-.606-.169-.266-.636-.055-.982-.138.117-.591.387-.768.226-.145-.133,0-.491.043-.642a4.538,4.538,0,0,1,.691-1.4,6.464,6.464,0,0,1,2.461-2,30.911,30.911,0,0,1,3.98-1.366c1.286-.455,4.5-1.258,5.784-2.142a2.8,2.8,0,0,0,1.062-2.006" transform="translate(-932.061 -700.707)"/><path class="y" d="M940.6,707.653a10.382,10.382,0,0,0-3.969,1.587,8.392,8.392,0,0,0-1.786,2.063.375.375,0,0,0-.093.229c.009.118.124.2.232.244a1.794,1.794,0,0,0,1.251,0,5.332,5.332,0,0,0,1.131-.588" transform="translate(-932.441 -701.692)"/><path class="y" d="M940.416,708.384a5.731,5.731,0,0,0-3.222,3.84,2.032,2.032,0,0,0,1.794-.523c.6-.447,1.105-1.008,1.732-1.413a11.193,11.193,0,0,1,3.871-1.141c.894-.19,1.8-.294,2.7-.473a6.516,6.516,0,0,0,2.4-.775,8.516,8.516,0,0,0,2.956-3.912" transform="translate(-932.788 -701.172)"/><path class="z" d="M934.108,709.76a7.745,7.745,0,0,1,5.3-2.934" transform="translate(-932.351 -701.574)"/></g></g><g transform="translate(0 43.667)"><path class="x" d="M904.023,625.693a6.569,6.569,0,0,1,4.319,4.664c.812,4.26-4.187,8.611-9.7,13.338-4.757,4.08-6.4,4.62-9.75,6.879-1.97,1.328-2.931,2.15-4.4,3.266a74.337,74.337,0,0,1-10.87,7,47.231,47.231,0,0,1-9.2,3.654c-3.185.871-8.459,2.314-9.634.487-1.019-1.583.959-4.323,2.092-5.279a10.066,10.066,0,0,1,3.32-1.591,14.248,14.248,0,0,0,2.763-1.687c2.511-1.586,5.043-3.139,7.557-4.722q4.166-2.622,8.266-5.247a48.8,48.8,0,0,0,16.031-17.108C897.255,626.07,901,624.668,904.023,625.693Z" transform="translate(-840.767 -625.363)"/><g transform="translate(0 31.588)"><path class="x" d="M848.613,662.831c-.054.172-.312.09-.453-.021a2.979,2.979,0,0,0-1.855-.606c-1.348-.186-1.822.36-2.828,1.19-1.427,1.177-2.6,2.4-3.9,3.69" transform="translate(-838.649 -662.168)"/><path class="x" d="M846.472,666.594a13.544,13.544,0,0,1,1.981,1.705,1.506,1.506,0,0,0,.442.364,1.443,1.443,0,0,0,.9,0,.773.773,0,0,0,.529-.276c.135-.218.07-.579.308-.673" transform="translate(-839.626 -662.796)"/><path class="x" d="M856.028,664.459a30.4,30.4,0,0,0-5.555-1.244c-.543-.07-1.833-.356-2.31.012-.984.76.093,2.137.425,2.909a2.058,2.058,0,0,1,.206,1.656,3.673,3.673,0,0,1-.657.769,4.668,4.668,0,0,0-.589,1.861c.283,1.544,3.643,1.027,4.679,1.043a12.046,12.046,0,0,0,2.463-.13c.583-.112,1.147-.311,1.734-.4" transform="translate(-839.778 -662.293)"/><path class="x" d="M847.148,663.081c-3.2.208-5.533,2.346-7.844,4.352a2.259,2.259,0,0,0-.652.769.793.793,0,0,0,.169.929c.537.413,2.01-.171,2.579-.451.893-.441,1.48-1.338,2.34-1.848.744-.441,2-.839,4.4-.038" transform="translate(-838.507 -662.298)"/><path class="x" d="M848.291,668.854c-.976.229-6.7.222-5.585,2.489.379.771,1.561.566,2.25.561a26.481,26.481,0,0,1,5.62.83,4.133,4.133,0,0,0,2.8-.13l1.743-.567a2.933,2.933,0,0,1,1.321-.214" transform="translate(-839.072 -663.116)"/><path class="x" d="M848.621,665.4a7.377,7.377,0,0,0-1.742-.326,3.932,3.932,0,0,0-1.2.08,5.365,5.365,0,0,0-1.316.6l-2.894,1.646a25.984,25.984,0,0,0-2.519,1.709.967.967,0,0,0-.443.529c-.071.366.3.664.642.8a2.213,2.213,0,0,0,1.135.154,6.476,6.476,0,0,0,2.259-1.259,14.011,14.011,0,0,1,2.9-1.407,2.093,2.093,0,0,1,1.145.021c.615.087,1.242.118,1.859.177a2.354,2.354,0,0,1,.554.1" transform="translate(-838.496 -662.579)"/></g></g><path class="w" d="M949.3,615.309a15.276,15.276,0,0,1,5.524,5.551c2.279,3.854,3.079,8.773,3.775,13.174.388,2.458-1.977,4.315-4,5.276a15.64,15.64,0,0,1-8.746,1.372,2.545,2.545,0,0,1-1.277-.437,2.782,2.782,0,0,1-.779-1.527q-1.424-5.305-2.847-10.611c-.82-3.056-1.242-5.946-2.657-8.863-.693-1.426-2.732-3.853-1.988-5.5a1.2,1.2,0,0,1,.951-.539,20.862,20.862,0,0,1,10.308,1.271A13.661,13.661,0,0,1,949.3,615.309Z" transform="translate(-852.337 -579.942)"/><path class="w" d="M915.842,638.656c.021.04.042.08.063.121.636,1.233.317,3.163.291,4.592-.059,3.275-.277,6.864-2.2,9.649a16.089,16.089,0,0,0-2.619,6.524,1.617,1.617,0,0,0,.007.769,22.393,22.393,0,0,0,3.536,3.662c2.734,1.972,6.291,2.96,9.486,3.878,3.746,1.076,7.692,1.117,11.559,1.157a6.385,6.385,0,0,0,2.891-.42A5.593,5.593,0,0,0,941.3,665.3a20.325,20.325,0,0,0,1.166-9.836c-.18-1.19-.688-2.195-.821-3.4-.2-1.809-.424-3.606-.729-5.4-.32-1.886-.645-3.805-.821-5.71a22.962,22.962,0,0,1,2-11.662c1.687-3.665,2.73-5.681.419-8.935a17.147,17.147,0,0,0-9.45-6.9,14.943,14.943,0,0,0-12.409,2.481,10.707,10.707,0,0,0-3.065,3.53c-.816,1.517-.716,3.181-1.013,4.816a18.387,18.387,0,0,1-1.664,4.379,10.512,10.512,0,0,0-.981,5.465C914.124,636,915.025,637.1,915.842,638.656Z" transform="translate(-848.821 -579.946)"/><path class="w" d="M919.006,613.6c.691-.076,1.384-.136,2.071-.194a.926.926,0,0,1,.533.061.8.8,0,0,1,.31.409,6,6,0,0,1-.275,4.048,52.451,52.451,0,0,1-1.707,5.515,29.1,29.1,0,0,1-2.972,4.3c-1.365,2.006-1.755,4.457-2.665,6.667a14.974,14.974,0,0,1-4.4,5.905,4.223,4.223,0,0,1-1.728.946,4.48,4.48,0,0,1-2.693-.523,18.875,18.875,0,0,1-5.8-4.139c-1.5-1.546-3.737-3.444-2.867-5.775a9.369,9.369,0,0,1,1.426-2.316l1.837-2.423c2.62-3.453,6.632-6.045,9.959-8.807a19.646,19.646,0,0,1,2.391-1.788A16,16,0,0,1,919.006,613.6Z" transform="translate(-846.735 -579.999)"/><path class="aa" d="M915.286,635.54a7.464,7.464,0,0,0,1.719,7.409,4.5,4.5,0,0,0,3.169,1.664" transform="translate(-849.328 -583.138)"/><path class="aa" d="M937.242,649.946a1.461,1.461,0,0,1,.632.358,34.649,34.649,0,0,0-5.443-1.983,7.69,7.69,0,0,0-3.1-.354c.024.515.51.868.947,1.143l3.853,2.419" transform="translate(-851.373 -584.894)"/><path class="aa" d="M946.137,643.089a.8.8,0,0,1-1.017-.366,2.385,2.385,0,0,1-.233-1.162c-.078-2.385.367-5.47-.384-7.752-.593-1.8-2.176-3.7-3.143-5.34" transform="translate(-853.078 -582.136)"/><path class="ab" d="M923.649,575.767a10.378,10.378,0,0,1,8.785-.132,13.882,13.882,0,0,1,6.24,6.609c1.372,2.716,2.22,5.641,3.463,8.413a32.894,32.894,0,0,0,2.031,3.829,10.8,10.8,0,0,1,1.681,3.451,6.662,6.662,0,0,1-1.923,5.469,13.306,13.306,0,0,1-11.447,4.192,6.087,6.087,0,0,0-1.505-.1,5.319,5.319,0,0,0-2.6,1.492,19.614,19.614,0,0,1-6.926,4.015c-.929.244-1.868.191-2.806.428a9.1,9.1,0,0,1-3.773.549c-2.315-.352-4.042-2.228-5.111-4.2a15.138,15.138,0,0,1-1.746-5.6,29.752,29.752,0,0,1,.012-4.837q.378-6.654.756-13.309c.2-3.544,1.284-6.872,4.559-8.969a16.008,16.008,0,0,1,5.7-2.058,30.748,30.748,0,0,1,11.546.038" transform="translate(-848.336 -574.483)"/><path class="x" d="M934.271,606.13a4.336,4.336,0,0,0-5.088,1.946c-.784,1.3-.27,1.871-.128,3.244.1.985-.442.925-.608,1.8a3.383,3.383,0,0,0-.044,1.592,2.679,2.679,0,0,0,.814,1.155c2.554,2.341,7.715,1.46,8-2.552a7.449,7.449,0,0,0-.408-2.539C936.361,609.17,936.18,606.745,934.271,606.13Z" transform="translate(-851.23 -578.939)"/><path class="x" d="M916.129,596.575a4.55,4.55,0,0,0,.394.607c1.08,1.395,1.084,3.036,1.691,4.622.95,2.486,3.095,4.54,4.929,6.388a4.368,4.368,0,0,0,1.792,1.275,3.912,3.912,0,0,0,2.573-.411c2.708-1.183,6.079-3.316,7.134-6.239a15.086,15.086,0,0,0,.719-4.442c.156-3.115.251-4.984-.671-7.158-.205-.484-2.473-5.563-7.829-6.488a9.534,9.534,0,0,0-11.442,8.481A6.015,6.015,0,0,0,916.129,596.575Z" transform="translate(-849.397 -575.912)"/><path class="ac" d="M920.216,588.243a15.855,15.855,0,0,1-7.552,5.274,4.472,4.472,0,0,1-2.115.2c-3.182-.633-2.956-4.618-2.429-7.047a9.137,9.137,0,0,1,1.692-4.059c1.38-1.633,2.346-3.443,4.147-4.713a8.032,8.032,0,0,1,7.6-.848c1.994.852,3.672,2.594,2.679,4.735A30.034,30.034,0,0,1,920.216,588.243Z" transform="translate(-848.322 -574.763)"/><path class="ac" d="M937.267,588.349a2.628,2.628,0,0,0,1.739-1.04,2.26,2.26,0,0,0-.153-2.113c-.956-1.843-2.957-2.876-4.9-3.614-2.122-.807-9.654-3.226-10.4.476-.674,3.353,4.914,5.7,7.367,6.287A13.346,13.346,0,0,0,937.267,588.349Z" transform="translate(-850.546 -575.273)"/><path class="ac" d="M938.09,590.44a3.274,3.274,0,0,1,1.447-1.053,1.129,1.129,0,0,1,1.423.748,9.965,9.965,0,0,0-.389-2.444,3.349,3.349,0,0,0-1.48-1.918c-2.007-1.088-5.052.4-4.984,2.8a6.458,6.458,0,0,0,.957,2.892C936.187,592.836,937.247,591.335,938.09,590.44Z" transform="translate(-852.05 -576.032)"/><path class="ac" d="M944.07,596.162c2.016,2.9,1.283,6.42.487,9.645-.609,2.464-2.885,7.541-6.3,6.394a3.23,3.23,0,0,1-1.741-1.6,12.7,12.7,0,0,1-.869-7.916,10.055,10.055,0,0,1,3.792-5.734C941.051,595.765,942.517,593.929,944.07,596.162Z" transform="translate(-852.23 -577.407)"/><path class="ac" d="M914.518,600.261c.355,1.912-1.59,1.586-2.716.933l-1.193-.693a5.735,5.735,0,0,1-1.686-1.282,3.552,3.552,0,0,1-.6-2.846c.394-2.084,1.552-3.031,3.673-2.751a3.268,3.268,0,0,1,2.344,1.415C913.733,596.006,914.277,598.968,914.518,600.261Z" transform="translate(-848.384 -577.189)"/><path class="x" d="M935.581,593.261c-.046-1.157.155-2.661,1.286-2.913a1.709,1.709,0,0,1,1.7.834,5,5,0,0,1,.608,1.91,8.136,8.136,0,0,1-.1,4.654c-.632,1.444-2.539,2.432-3.839,1.542" transform="translate(-852.211 -576.728)"/><path class="aa" d="M947.992,658.982a15.687,15.687,0,0,1-10.78,5.393,28.256,28.256,0,0,1-7.73-.868" transform="translate(-851.394 -586.462)"/><path class="aa" d="M914.945,635.277a.981.981,0,0,1,.081-.827,18.5,18.5,0,0,0,1.368-7.089" transform="translate(-849.324 -581.979)"/></g></g></svg>