<svg xmlns="http://www.w3.org/2000/svg" xmlns:xlink="http://www.w3.org/1999/xlink" width="568.286" height="486.831" viewBox="0 0 568.286 486.831"><defs><style>.a,.ai,.ap,.aq,.aw,.j,.v,.w{fill:none;}.b{clip-path:url(#a);}.c{fill:url(#b);}.d{fill:url(#c);}.e{fill:url(#e);}.f{fill:url(#f);}.g,.j{stroke:#707070;}.aw,.g,.j,.q,.r,.s,.u,.v,.w,.x{stroke-miterlimit:10;}.g{fill:url(#g);}.h{fill:url(#h);}.i{fill:url(#i);}.j{stroke-width:1.926px;}.k{fill:#4fa5ad;}.l{fill:#c6d9e2;}.m{fill:#e0858c;}.ar,.n,.q{fill:#100052;}.af,.ag,.ah,.ak,.al,.o,.r{fill:#fff;}.p{fill:#feca84;}.q{stroke:#4fa5ad;}.q,.r,.s,.u,.v,.w,.x{stroke-width:1.064px;}.ae,.af,.ag,.ah,.ai,.aj,.ak,.al,.ao,.ap,.aq,.ar,.as,.aw,.r,.w{stroke:#100052;}.s{fill:#97bbd3;}.s,.u{stroke:#bbdbf9;}.t{fill:#ce71ad;}.aj,.ao,.u{fill:#bbdbf9;}.v{stroke:#fff;}.an,.x{fill:#f6aacb;stroke:#f6aacb;}.y{fill:#ffeace;}.z{fill:url(#j);}.aa{fill:url(#k);}.ab{fill:url(#l);}.ac{fill:#81c6c9;}.ad{fill:#fcd9b1;}.ae,.at{fill:#434347;}.ae,.af,.ag,.ah,.ai,.aj,.ak,.al,.an,.ao,.ap,.aq,.ar,.as{stroke-linecap:round;stroke-linejoin:round;}.ae{stroke-width:1.41px;}.af{stroke-width:0.955px;}.ag{stroke-width:2.146px;}.ah,.ai{stroke-width:2.448px;}.aj{stroke-width:1.555px;}.ak{stroke-width:1.383px;}.al{stroke-width:0.998px;}.am{fill:#8ab1c5;}.an{stroke-width:0.647px;}.ao{stroke-width:1.769px;}.ap{stroke-width:2.122px;}.aq{stroke-width:0.778px;}.ar{stroke-width:1.344px;}.as{fill:#a5a5a5;stroke-width:1.3px;}.au{fill:url(#m);}.av{fill:url(#n);}.ax{fill:url(#o);}.ay{fill:url(#p);}.az{fill:url(#q);}.ba{fill:url(#r);}</style><clipPath id="a"><path class="a" d="M602,298.964C684.656,189.47,839.178,197.056,869.034,198.521c32.954,1.618,65.294,3.205,99.962,21.42,139.241,73.161,178.648,342.385,75.69,428.887-45.562,38.281-113.41,36.076-124.951,35.7-69.49-2.258-85.467-38.987-172.082-54.032-81.039-14.077-97.806,12.734-132.092-7.14C543.383,581.52,520.791,406.54,602,298.964Z" transform="translate(-550.472 -197.848)"/></clipPath><linearGradient id="b" x1="-0.134" y1="0.387" x2="1.12" y2="0.61" gradientUnits="objectBoundingBox"><stop offset="0" stop-color="#2a7195"/><stop offset="1" stop-color="#060c39"/></linearGradient><linearGradient id="c" y1="0.5" x2="1" y2="0.5" gradientUnits="objectBoundingBox"><stop offset="0" stop-color="#ff9077"/><stop offset="1" stop-color="#e9645a"/></linearGradient><linearGradient id="e" x1="0.464" y1="0.794" x2="0.498" y2="0.053" gradientUnits="objectBoundingBox"><stop offset="0" stop-color="#6599b3"/><stop offset="1" stop-color="#45496b"/></linearGradient><linearGradient id="f" x1="0.643" y1="1.02" x2="0.555" y2="0.608" xlink:href="#e"/><linearGradient id="g" x1="-0.003" y1="0.512" x2="1.001" y2="0.512" xlink:href="#e"/><linearGradient id="h" x1="-0.34" y1="0.5" x2="0.695" y2="0.5" xlink:href="#c"/><linearGradient id="i" x1="0.533" y1="0.567" x2="0.654" y2="1.131" xlink:href="#c"/><linearGradient id="j" x1="-2781.328" y1="1.056" x2="-2775.072" y2="-0.825" xlink:href="#c"/><linearGradient id="k" x1="-397.998" y1="2.006" x2="-396.826" y2="0.099" xlink:href="#c"/><linearGradient id="l" x1="-145.942" y1="0.437" x2="-143.47" y2="1.086" gradientUnits="objectBoundingBox"><stop offset="0" stop-color="#fdcda4"/><stop offset="1" stop-color="#e9645a"/></linearGradient><linearGradient id="m" x1="4.462" y1="-0.209" x2="-1.036" y2="0.665" gradientUnits="objectBoundingBox"><stop offset="0" stop-color="#b9bdab"/><stop offset="0.785" stop-color="#84a3ad"/><stop offset="1" stop-color="#769cae"/></linearGradient><linearGradient id="n" x1="2.289" y1="-0.237" x2="0.617" y2="0.731" xlink:href="#m"/><linearGradient id="o" x1="0.538" y1="0.354" x2="0.334" y2="1.011" gradientUnits="objectBoundingBox"><stop offset="0" stop-color="#faebd8"/><stop offset="1" stop-color="#ffb83f"/></linearGradient><linearGradient id="p" x1="0.487" y1="0.494" x2="0.359" y2="1.008" xlink:href="#o"/><linearGradient id="q" x1="0.713" y1="-0.573" x2="0.336" y2="1.476" xlink:href="#c"/><linearGradient id="r" x1="0.516" y1="0.293" x2="0.373" y2="1.104" xlink:href="#c"/></defs><g transform="translate(-527.126 -197.848)"><g transform="translate(543.161 197.848)"><g class="b"><g transform="translate(-587.908 -1055.963)"><rect class="c" width="828.175" height="828.175" transform="translate(405.918 877.76)"/><g transform="translate(600.416 1472.21)"><path class="d" d="M578.037,817.975c3.409-1.058,5.408-5.056,8.935-5.526,4.468,3.763,7.76,10.7,14.579,9.759a2.812,2.812,0,0,0,1.764-1.528,23.915,23.915,0,0,0,1.218-2.251c-1.623-8.3-8.574-14.541-16.9-14.541a16.912,16.912,0,0,0-13.577,6.98c.159,1.162.354,2.318.576,3.463C574.862,815.859,575.215,818.681,578.037,817.975Z" transform="translate(-570.365 -803.887)"/><path class="d" d="M601.633,823.862a2.812,2.812,0,0,1-1.764,1.528c-6.819.94-10.111-6-14.579-9.758-3.527.47-5.525,4.468-8.935,5.526-2.821.705-3.175-2.117-3.409-3.645-.222-1.145-.417-2.3-.576-3.463a18.852,18.852,0,0,0-3.686,11.278c0,10.084,7.729,18.259,17.263,18.259s17.263-8.175,17.263-18.259a19.343,19.343,0,0,0-.359-3.716A23.915,23.915,0,0,1,601.633,823.862Z" transform="translate(-568.684 -807.07)"/></g><path class="e" d="M1133.824,949.857H576.233l-28-259.107h613.585Z" transform="translate(38.136 703.753)"/><g transform="translate(522.082 1268.491)"><path class="f" d="M1139.217,713.95,454.633,640.7l171.507-124,568.9,10.5Z" transform="translate(-454.633 -510.231)"/><path class="g" d="M1148.216,694.81,473.31,627.846,640.234,507.28l562.049,8.065Z" transform="translate(-460.482 -507.28)"/></g><g transform="translate(1055.362 1330.861)"><path class="h" d="M1244.721,639.088c1.2-.151,2.452-.268,3.75-.337.955-.048,1.93-.076,2.926-.076.673,0,1.339.014,1.992.034a46.514,46.514,0,0,1,7.617.872,28.172,28.172,0,0,1,4.711,1.367c.261.1.515.206.756.316a9.4,9.4,0,0,1,4.155,3.056v.007a4,4,0,0,1,.378.714c.027.089.062.179.082.268a2.872,2.872,0,0,1,.124.831,2.942,2.942,0,0,1-.124.831c-.007.021-.007.034-.014.048a5.441,5.441,0,0,1-2.212,2.679,17.292,17.292,0,0,1-4.43,2.136c-.515.172-1.044.337-1.6.488-.309.089-.618.172-.941.247a42.949,42.949,0,0,1-5.474.948c-1.333.151-2.706.24-4.107.282-.336.007-.68.014-1.016.014-1.319.007-2.624-.027-3.894-.117-.206-.014-.405-.034-.611-.048a45.954,45.954,0,0,1-5.048-.687c-5.6-1.106-9.767-3.194-10.543-5.769,0-.007-.007-.014-.007-.021a3.079,3.079,0,0,1-.123-.852,2.776,2.776,0,0,1,.123-.817,2.314,2.314,0,0,1,.165-.46c.92-2.054,4.032-3.881,8.544-5.041Z" transform="translate(-1231.067 -610.8)"/><path class="i" d="M1271.089,649.9v38.16c-.007.021-.007.034-.014.055-.591,2.088-3.077,3.915-6.642,5.227a40.269,40.269,0,0,1-13.139,2.15c-9.932.082-18.922-2.94-20.1-7.184a3.5,3.5,0,0,1-.13-.948,3.3,3.3,0,0,1,.123-.893V650.109c0,.007.007.021.007.028,1.174,4.251,10.165,7.274,20.1,7.191a40.276,40.276,0,0,0,13.139-2.15c3.565-1.312,6.051-3.139,6.642-5.227C1271.082,649.93,1271.082,649.917,1271.089,649.9Z" transform="translate(-1231.067 -614.314)"/><path class="j" d="M1270.672,646.682a2.853,2.853,0,0,1-.119.8c-.007.019-.007.031-.014.049-.568,1.85-2.962,3.47-6.394,4.632a41.812,41.812,0,0,1-12.65,1.905c-9.562.073-18.218-2.605-19.349-6.373,0-.005-.006-.018-.006-.024a2.917,2.917,0,0,1-.12-.816,2.691,2.691,0,0,1,.12-.791,2.3,2.3,0,0,1,.159-.438c1.521-3.4,9.238-6.129,19.3-6.129s17.57,2.739,18.879,6.129c.027.085.06.17.08.255A2.755,2.755,0,0,1,1270.672,646.682Z" transform="translate(-1231.366 -611.058)"/><g transform="translate(6.274 0)"><g transform="translate(25.492 8.773)"><path class="k" d="M1291.926,614.924l-6.813,20.687v.007l-1.765,5.371a17.293,17.293,0,0,1-4.43,2.136c-.515.172-1.044.337-1.6.488l3.64-11.058,6.312-19.163c.577-1.772,2.095-2.864,3.379-2.438S1292.51,613.159,1291.926,614.924Z" transform="translate(-1277.317 -610.862)"/></g><g transform="translate(19.077 8.539)"><path class="l" d="M1283.053,614.584l-5.776,17.549-3.826,11.621a42.942,42.942,0,0,1-5.474.948l4.588-13.936,5.831-17.713c.584-1.772,2.095-2.864,3.386-2.438S1283.637,612.811,1283.053,614.584Z" transform="translate(-1267.977 -610.522)"/></g><g transform="translate(10.059)"><path class="m" d="M1262.581,601.638,1260.836,626l-1.078,15.09c-.337.007-.68.014-1.017.014-1.319.007-2.623-.027-3.894-.117l1.071-14.945,1.772-24.753c.137-1.861,1.339-3.29,2.692-3.194S1262.718,599.777,1262.581,601.638Z" transform="translate(-1254.847 -598.089)"/></g><g transform="translate(0 4.729)"><path class="n" d="M1241.832,606.981l.378.041a1.843,1.843,0,0,0,.407.015c.182-.021.616-.111.5-.455a4.266,4.266,0,0,0-.33-.627l-.522-.98s-.186.884-.425,2.025l1.335-.317c-.124.018-.228.127-.348.172a.837.837,0,0,1-.561.071" transform="translate(-1240.713 -604.975)"/><path class="o" d="M1243.827,607.469l-.019.018-.017-.031.03-.007c0-.008.009-.014.012,0A.025.025,0,0,1,1243.827,607.469Z" transform="translate(-1241.326 -605.747)"/><path class="p" d="M1249.686,646.058a45.948,45.948,0,0,1-5.048-.687L1242.8,632.41l-2.479-17.439a.724.724,0,0,0,.577.316.89.89,0,0,0,.653-.385,1.365,1.365,0,0,0,1.195.44,1.411,1.411,0,0,0,.982-.831,1.451,1.451,0,0,0,1.078.1,2.876,2.876,0,0,0,.391-.179l2.424,17.061Z" transform="translate(-1240.238 -607.938)"/><path class="o" d="M1240.317,612.8v0q.489-2.329.979-4.66a1.2,1.2,0,0,1,.051-.243c.055-.108.016-.067.124-.068a4.272,4.272,0,0,0,.458.045,1.237,1.237,0,0,0,.227-.043,1.3,1.3,0,0,0,.491-.258.646.646,0,0,0,.072-.062l2.451,4.6.023.158a2.429,2.429,0,0,1-.392.175,1.53,1.53,0,0,0-2.064.731,1.357,1.357,0,0,1-1.191-.44.9.9,0,0,1-.65.384A.709.709,0,0,1,1240.317,612.8Z" transform="translate(-1240.238 -605.768)"/><path class="a" d="M1247.418,614.417l.086-.046" transform="translate(-1242.462 -607.917)"/><path class="a" d="M1240.281,615.148h0a.831.831,0,0,1-.08-.131" transform="translate(-1240.202 -608.12)"/></g></g></g><g transform="translate(0)"><g transform="translate(801.042 1238.604)"><path class="q" d="M860.787,567.28l234.8,42.966,37.272-110.712L937.211,484.34Z" transform="translate(-860.787 -470.209)"/><g transform="translate(4.45 13.281)"><path class="r" d="M1070.979,493.715,1011.758,583.9l1.144.2c1.593-2.438,27.964-.065,60.8,5.6,35.122,6.061,64.619,13.611,63.6,16.5l36.938-104.474c.614-1.736-23.368-4.962-52.115-7.111-27.265-2.038-49.168-2.375-50.175-.834Z" transform="translate(-912.517 -486.149)"/><path class="s" d="M940.048,484.015l-72.781,79.2c1.923-2.092,23.516-.315,49.587,4.184,27.679,4.776,50.114,10.819,48.512,13.248l1.141.2,59.221-90.185-.965-.075c1.015-1.539-18.339-4.284-42.134-6.063C959.954,482.837,941.319,482.633,940.048,484.015Z" transform="translate(-867.267 -483.104)"/></g><path class="t" d="M1231.987,529.79l1.294-4.606,21.376,4.389-1.018,5.153Z" transform="translate(-977.035 -483)"/><path class="t" d="M1194.821,608.357l1.294-4.606,21.376,4.389-1.018,5.153Z" transform="translate(-965.396 -507.605)"/><path class="k" d="M1200.007,587.818l1.383-5.593,24.567,5.812L1224.9,594.3Z" transform="translate(-967.02 -500.864)"/><g transform="translate(4.715 11.654)"><path class="r" d="M1069.912,491.065l-58.934,88.964,1.134.2c1.583-2.4,27.716-.113,60.237,5.4,34.764,5.892,63.933,13.257,62.908,16.1l37.069-102.887c.617-1.714-23.151-4.863-51.66-6.947-27.05-1.976-48.79-2.28-49.795-.755Z" transform="translate(-912.538 -483.691)"/><path class="u" d="M939.94,481.65l-72.287,78.237c1.907-2.064,23.341-.349,49.21,4.036,27.451,4.653,49.69,10.561,48.1,12.953l1.131.2,58.934-88.964-.958-.073c1.012-1.52-18.2-4.206-41.826-5.932C959.721,480.46,941.2,480.282,939.94,481.65Z" transform="translate(-867.653 -480.735)"/></g><path class="q" d="M1026.115,632.378" transform="translate(-912.563 -516.57)"/><path class="q" d="M1010.606,630.009l-.574,5.015-18.493-3.444,5.3-4.062" transform="translate(-901.734 -515.048)"/><g transform="translate(61.24 16.229)"><line class="v" x1="65.453" y1="6.181" transform="translate(11.977 12.694)"/><line class="v" x1="66.19" y1="6.699" transform="translate(6.878 18.342)"/><line class="v" x1="66.533" y1="6.947" transform="translate(4.483 20.996)"/><line class="v" x1="66.821" y1="7.159" transform="translate(2.46 23.237)"/><line class="v" x1="67.168" y1="7.42" transform="translate(0 25.963)"/><line class="v" x1="65.123" y1="5.956" transform="translate(14.239 10.188)"/><line class="v" x1="64.847" y1="5.77" transform="translate(16.122 8.102)"/><line class="v" x1="64.573" y1="5.589" transform="translate(17.982 6.041)"/><line class="v" x1="64.301" y1="5.412" transform="translate(19.821 4.004)"/><line class="v" x1="64.03" y1="5.238" transform="translate(21.638 1.991)"/><line class="v" x1="63.762" y1="5.068" transform="translate(23.435)"/><line class="v" x1="65.85" y1="6.457" transform="translate(9.239 15.727)"/></g><g transform="translate(22.78 54.726)"><line class="v" x1="61.634" y1="8.752" transform="translate(11.883 12.684)"/><line class="v" x1="62.208" y1="9.285" transform="translate(6.813 18.298)"/><line class="v" x1="62.474" y1="9.539" transform="translate(4.437 20.929)"/><line class="v" x1="62.696" y1="9.755" transform="translate(2.434 23.149)"/><line class="v" x1="62.965" y1="10.02" transform="translate(0 25.844)"/><line class="v" x1="61.377" y1="8.519" transform="translate(14.137 10.187)"/><line class="v" x1="61.16" y1="8.327" transform="translate(16.016 8.107)"/><line class="v" x1="60.945" y1="8.139" transform="translate(17.874 6.048)"/><line class="v" x1="60.731" y1="7.954" transform="translate(19.714 4.011)"/><line class="v" x1="60.518" y1="7.772" transform="translate(21.534 1.995)"/><line class="v" x1="60.306" y1="7.594" transform="translate(23.336)"/><line class="v" x1="61.944" y1="9.037" transform="translate(9.158 15.701)"/></g><g transform="translate(148.618 24.181)"><line class="w" x1="87.732" y1="8.392" transform="translate(9.628 14.335)"/><line class="w" x1="89.034" y1="9.124" transform="translate(5.539 20.748)"/><line class="w" x1="89.644" y1="9.476" transform="translate(3.613 23.768)"/><line class="w" x1="90.158" y1="9.777" transform="translate(1.984 26.321)"/><line class="w" x1="90.783" y1="10.149" transform="translate(0 29.432)"/><line class="w" x1="87.154" y1="8.075" transform="translate(11.439 11.497)"/><line class="w" x1="86.671" y1="7.815" transform="translate(12.943 9.138)"/><line class="w" x1="86.194" y1="7.561" transform="translate(14.428 6.81)"/><line class="w" x1="85.722" y1="7.314" transform="translate(15.895 4.511)"/><line class="w" x1="85.254" y1="7.072" transform="translate(17.342 2.241)"/><line class="w" x1="84.792" y1="6.835" transform="translate(18.772)"/><line class="w" x1="88.432" y1="8.782" transform="translate(7.434 17.776)"/></g><g transform="translate(121.603 83.454)"><line class="w" x1="99.087" y1="15.735" transform="translate(0 12.515)"/><line class="w" x1="98.473" y1="15.279" transform="translate(2.041 9.316)"/><line class="w" x1="97.866" y1="14.835" transform="translate(4.051 6.164)"/><line class="w" x1="97.266" y1="14.403" transform="translate(6.031 3.059)"/><line class="w" x1="96.673" y1="13.983" transform="translate(7.982)"/></g><path class="o" d="M964.189,502.034c-.4.5-.043.991.8,1.1a2.692,2.692,0,0,0,2.243-.7c.4-.5.034-.989-.8-1.1A2.7,2.7,0,0,0,964.189,502.034Z" transform="translate(-893.118 -475.525)"/><path class="o" d="M969.724,495.158c-.389.484-.031.963.8,1.069a2.672,2.672,0,0,0,2.209-.687c.385-.484.021-.961-.809-1.065A2.678,2.678,0,0,0,969.724,495.158Z" transform="translate(-894.854 -473.377)"/><path class="o" d="M959.224,508.2c-.409.508-.055,1.016.793,1.133a2.712,2.712,0,0,0,2.273-.714c.4-.509.045-1.014-.8-1.128A2.717,2.717,0,0,0,959.224,508.2Z" transform="translate(-891.561 -477.453)"/><path class="o" d="M952.664,516.351c-.421.525-.07,1.05.786,1.173a2.738,2.738,0,0,0,2.313-.731c.418-.526.06-1.048-.795-1.17A2.745,2.745,0,0,0,952.664,516.351Z" transform="translate(-889.504 -479.999)"/><path class="o" d="M948.932,520.988c-.429.533-.08,1.069.782,1.2a2.755,2.755,0,0,0,2.337-.741c.424-.534.069-1.067-.791-1.192A2.756,2.756,0,0,0,948.932,520.988Z" transform="translate(-888.334 -481.447)"/><path class="x" d="M1227.506,517.756l1.777-4.495,26.591,3.771-1,5.477Z" transform="translate(-975.632 -479.267)"/><g transform="translate(134.18 62.273)"><path class="p" d="M1068.935,555.9l-12.786,16.146,30.536,3.894,5.564-20.445-11.73-1.058Z" transform="translate(-1056.148 -554.433)"/><path class="y" d="M1091.63,554.433l2.321,3.7,9.41-2.645Z" transform="translate(-1067.26 -554.433)"/></g><g transform="translate(145.6 0)"><g transform="translate(1.378)"><path class="z" d="M1095.632,481.076l1.619-.235a.1.1,0,0,1,.119.065,9.742,9.742,0,0,1-.288,4.07,10.734,10.734,0,0,1-1.7,3.4c-.054.072-.2.026-.178-.055a14.742,14.742,0,0,0,.358-7.165C1095.553,481.116,1095.584,481.083,1095.632,481.076Z" transform="translate(-1081.175 -469.113)"/><path class="aa" d="M1074.792,466.807c0,.017,0,.034.006.05a8.234,8.234,0,0,1,4.322-.666,10.591,10.591,0,0,1,6.265,3.178,14.75,14.75,0,0,1,2.94,4.162c.762-.034,1.52-.1,2.271-.19a15.122,15.122,0,0,0-.958-2.706c-1.515-3.271-5.256-7.155-10.427-6.85-1.8.1-3.792.845-4.3,2.148A1.829,1.829,0,0,0,1074.792,466.807Z" transform="translate(-1074.781 -463.767)"/></g><path class="ab" d="M1078.527,475.788a19.626,19.626,0,0,0,10,.94c.607-.075,1.211-.164,1.811-.262,2.053-.339,4.067-.793,5.983-1.171a35.2,35.2,0,0,1,17.683.652l-2.083-2.184,4.166.156s-7.053-2.008-10.749-1.989a52.774,52.774,0,0,0-10.592,1.593c-1.511.314-3.124.61-4.776.8-.751.09-1.51.157-2.271.19a17.073,17.073,0,0,1-8.869-1.613c-2.109-1.117-4.405-3.078-4.658-5.061,0-.016,0-.033-.006-.05a1.829,1.829,0,0,1,.115-.876c-.06.073-.08.132-.144.205a7.726,7.726,0,0,0-.885,1.442.011.011,0,0,1,0,.01,1.839,1.839,0,0,0-.277.435C1071.846,471.507,1075.812,474.67,1078.527,475.788Z" transform="translate(-1072.775 -464.753)"/></g><path class="k" d="M955.838,531.4l-10.591,15.371L933.8,549.356l-14.52-3.551,16.271-16.01Z" transform="translate(-879.105 -484.445)"/><path class="p" d="M1033.379,487.205c-5.653,7.006-7.308,14.114-16.951,21.01q-5.12-2.514-10.234-5.041l-8.737-7.5c.659-.254,1.277-.495,1.854-.735,9.959-4.08,8.187-6.044,13.771-9.334Z" transform="translate(-903.588 -470.606)"/><path class="ac" d="M951.868,553.557l-11.449,2.589,5.721-4.67Z" transform="translate(-885.725 -491.234)"/><path class="ad" d="M1005.863,506.024l-8.736-7.5-.728-3.819,2.583,3.084Z" transform="translate(-903.256 -473.456)"/></g><path class="ae" d="M527.955,751.894c-.2,7.264.315,14.825,3.8,21.2,3.469,6.355,9.524,10.875,15.753,14.562,11.618,6.878,24.935,11.647,38.409,10.8s27.007-8.1,32.933-20.231c2.8-5.727,3.8-12.138,4.76-18.439q4.655-30.407,9.308-60.814c1.052-6.869-70.2-15.526-79.96-9.628C533.042,701.38,528.549,730.363,527.955,751.894Z" transform="translate(44.499 704.806)"/><path class="af" d="M323.964-739.874-305.5-934.622l70.726-404.968,665.732,51.664Z" transform="translate(305.497 1339.59)"/><path class="ag" d="M308.957-764.2-284.126-941.565l65.765-375.751,624.454,53.367Z" transform="translate(298.805 1332.615)"/><path class="ah" d="M70.447-1008.937l-124.171-23.276,25.3-138.035L97.97-1155.7Z" transform="translate(226.65 1286.558)"/><line class="ai" x2="103.644" y2="12.011" transform="translate(205.873 145.899)"/><line class="ai" x2="103.179" y2="13.886" transform="translate(199.328 182.097)"/><line class="ai" x2="102.577" y2="16.311" transform="translate(190.836 229.062)"/><line class="ai" x2="103.392" y2="13.026" transform="translate(202.331 165.489)"/><path class="aj" d="M400.54-1180.159l-585.714-68.655,6.719-38.307,588.742,56.637Z" transform="translate(267.816 1323.159)"/><path class="aj" d="M241.278-1198.828l-426.451-49.987,6.719-38.307,428.613,41.233Z" transform="translate(267.816 1323.159)"/><path class="ak" d="M70.754-1218.816l-255.928-30,6.719-38.307,257.2,24.743Z" transform="translate(267.816 1323.159)"/><path class="al" d="M-60.15-1234.16l-125.024-14.655,6.719-38.307,125.634,12.086Z" transform="translate(267.816 1323.159)"/><path class="am" d="M589.733-769.468c6.576-18.6,8.5-43.231,3.583-69l-40.954-.163c2.7,21.652-.8,38.894-4.925,52.9l.019.644c9.675,6.17,20.969,10.173,32.86,13.238C583.395-771.2,586.531-770.376,589.733-769.468Z" transform="translate(38.386 1182.707)"/><path class="an" d="M563.574-983q.024-4.472-.052-9.046l-29.3,3.266a329.481,329.481,0,0,1-6.924,41.5l30,5.618C559.992-954.028,561.675-967.876,563.574-983Z" transform="translate(44.694 1230.752)"/><path class="p" d="M503.285-724.263q.036-4.408-.021-8.921l-28.047,2.594A330.974,330.974,0,0,1,468.46-689.8l28.684,6.171C499.766-695.765,501.42-709.386,503.285-724.263Z" transform="translate(63.119 1149.684)"/><path class="p" d="M595.239-1045.406l21.554-.144.019-.126h-.041c.026-.081.051-.162.076-.243a103.35,103.35,0,0,0,.4-28.663l-16.18,1.345a62.438,62.438,0,0,1-3.659,21.3,43.223,43.223,0,0,1-1.779,5.7C595.512-1045.971,595.385-1045.687,595.239-1045.406Z" transform="translate(23.416 1256.599)"/><path class="ao" d="M352.444-803.537,171.474-856.425,229.4-1147.454,417.581-1119.4Z" transform="translate(156.126 1279.419)"/><line class="ap" x2="165.175" y2="34.307" transform="translate(369.637 275.849)"/><line class="ap" x2="164.882" y2="35.351" transform="translate(366.951 289.599)"/><line class="ap" x2="164.637" y2="36.219" transform="translate(364.715 301.047)"/><line class="ap" x2="164.344" y2="37.259" transform="translate(362.034 314.772)"/><line class="ap" x2="166.602" y2="29.231" transform="translate(382.653 209.202)"/><line class="ap" x2="166.849" y2="28.35" transform="translate(384.904 197.68)"/><line class="ap" x2="167.097" y2="27.469" transform="translate(387.156 186.148)"/><line class="ap" x2="167.345" y2="26.585" transform="translate(389.41 174.607)"/><line class="ap" x2="165.47" y2="33.261" transform="translate(372.325 262.085)"/><line class="ap" x2="163.494" y2="39.88" transform="translate(354.547 349.599)"/><line class="ap" x2="163.737" y2="39.019" transform="translate(356.775 338.194)"/><path class="ae" d="M687.123,756.76c-22.678-2.828-42.337-4.056-58.258-4.526-11.792-.348-24.852-.379-38.409,6.935a57.984,57.984,0,0,0-8.555,5.647" transform="translate(27.593 684.535)"/><path class="p" d="M756.129,561.874c-14.279-16.353-33.2-21.311-42.5-23.617-49.9-12.384-89.285,18.391-95.4,24.853-2.515,2.658-7.375,7.8-7.874,14.165-.04.514-.047.975-.316,7.241-.175,4.094-.306,7.008-.317,7.243-.567,13.1,4.442,24.592,6.984,37.135,2.516,12.419,2.2,25.84,3.322,38.657,2.659,30.317,4.242,60.892.98,91.23-1.781,16.566-4.985,33.4-1.7,49.73,6.044,30.094,33.639,52.293,63.259,60.344,23.038,6.262,47.687,5.655,71.155,2.33,14.634-2.073,40.693-3.506,50.284-16.039,3.072-4.015,4.632-8.971,5.78-13.894,11.806-50.6-13.369-100.015-15.555-150.2C792.285,646.275,786.949,597.173,756.129,561.874Z" transform="translate(18.891 752.42)"/><path class="aq" d="M891.6,726.345q3.9-43.831,7.807-87.661" transform="translate(-69.394 720.059)"/><path class="aq" d="M912.139,635.823a84.761,84.761,0,0,1-6.717,26.683,2.96,2.96,0,0,1-1.271,1.648" transform="translate(-73.325 720.955)"/><path class="aq" d="M713.844,753.2A365.032,365.032,0,0,1,750.89,883.366" transform="translate(-13.727 684.198)"/><path class="ae" d="M1091.534,619.419l-.012.425c3.034-13.687,9.734-26.5,15.248-39.316a7.5,7.5,0,0,1,5.41-5.182,61.238,61.238,0,0,0,6.63-2.906,14.717,14.717,0,0,1,5.508-1.8,14.385,14.385,0,0,1,10.686,3.1c3.565,2.978,5.41,7.468,7.847,11.423a26.313,26.313,0,0,1,3.209,5.956,20.913,20.913,0,0,1,.752,9.469c-.484,2.922-1.862,4.361-3.872,6.214-2.541,2.344-4.612,5.517-6.782,8.206q-5.108,6.325-10.081,12.756c-1.283,1.659-2.973,3.1-4.153,4.758-1.356,1.9-1.749,4.6-2.621,6.747" transform="translate(-132.004 741.396)"/><g transform="translate(801.818 1279.845)"><path class="ae" d="M1048.328,644.3a29.876,29.876,0,0,0-3.231-2.922c-6.161-5.023-14.013-10.077-21.778-5.789-2.942,1.625-3.516,3.662-5.168,6.213-1.714,2.646-4.28,4.984-6.352,7.364q-5.525,6.347-11.011,12.728c-4.994,5.836-9.936,11.722-14.586,17.838-19.832,26.088-24.406,35.371-31.668,34.523-6.118-.715-6.732-7.756-19.586-24.511-10.819-14.1-17.624-22.97-27.457-26.122-16.085-5.155-40.978,4.767-45,19.494-8.444,30.952,78.109,72.842,98.115,81.588,4.4,1.926,9.433,3.931,15.742,3.222,18.224-2.043,30.168-24.807,49.92-63.591,8.563-16.819,6.667-15.634,14.315-29.874a169.956,169.956,0,0,0,7.247-15.992c1.615-3.934,4.452-7.869,2.05-12.07A11.841,11.841,0,0,0,1048.328,644.3Z" transform="translate(-861.917 -558.311)"/><path class="ae" d="M1162.659,615a168.708,168.708,0,0,0,15.969-19.47,5.77,5.77,0,0,0,1.008-1.93c.414-1.775-1.045-4-2.543-4.892-1.605-.957-3.335-.036-4.747.976a24.683,24.683,0,0,0-5.356,5.554" transform="translate(-956.1 -544.009)"/><path class="ae" d="M1161.61,581.826a29.444,29.444,0,0,1,6.267-6.914,13.4,13.4,0,0,1,3.888-2.438c1.6-.468,2.674.643,3.7,1.927a4.7,4.7,0,0,1,1.111,3.653,6.525,6.525,0,0,1-1.225,2.5,25.653,25.653,0,0,1-4.57,4.743c-1.674,1.483-2.515,3.745-4.664,4.69.027-.054.21-.4.3-.4" transform="translate(-955.772 -539.016)"/><path class="ae" d="M1146.352,572.392c4.234-3.93,8.39-14.469,15.742-13.3,1.816.29,3.12,1.849,4.249,3.3a6.359,6.359,0,0,1,1.124,1.845c1.032,3.129-1.795,3.9-3.688,5.208a32.08,32.08,0,0,0-7.364,7.722" transform="translate(-950.993 -534.833)"/><path class="ae" d="M1110.414,580.991a85.349,85.349,0,0,1,5.651-14.054c1.806-3.4,3.645-7.018,6.8-9.376,3.2-2.392,4.856-.573,4.792,3.091a17.714,17.714,0,0,1-1.54,5.978l-.788,2.035" transform="translate(-939.739 -534.042)"/><path class="k" d="M1130.977,541.075a1.969,1.969,0,0,0-3.119-.657,74.856,74.856,0,0,0-15.3,10.518q6.717,5.891,13.59,11.6a2.191,2.191,0,0,0,.973.557,2.131,2.131,0,0,0,1.334-.364c3.043-1.651,9.67-5.683,9.729-9.66C1138.24,549.555,1132.956,543.809,1130.977,541.075Z" transform="translate(-940.411 -528.861)"/><path class="p" d="M1122.684,536.566c-.4-1.128-.788-2.466-.1-3.451a4,4,0,0,1,1.768-1.188,41.33,41.33,0,0,0,11.2-7.373,1.966,1.966,0,0,1,1.482-.732c.644.093,1,.782,1.241,1.385a161.849,161.849,0,0,1,5.9,17.342,1.793,1.793,0,0,1-.488,2.192c-2.462,2.679-11.661,15.788-15.121,12.6-2.063-1.9-1.793-7.247-2.4-9.789A106.091,106.091,0,0,0,1122.684,536.566Z" transform="translate(-943.431 -523.811)"/><path class="ae" d="M1127.869,567.629c1.624-.958,1.935-1.935,2.967-3.513,4.422-6.76,8.484-13.853,15.2-18.612a4.263,4.263,0,0,1,1.549-.8,3.735,3.735,0,0,1,2.967,1.094c2.18,1.8,4.666,5.047,4.494,8.019.272.2.069.262-.131.538a2.1,2.1,0,0,1-.827.58,21.439,21.439,0,0,0-5.331,3.739,42.785,42.785,0,0,0-3.123,3.468l-5,5.973" transform="translate(-945.205 -530.339)"/></g><path class="ae" d="M706.313,383.387c-1.484,5.443,1.691,6.872,5.779,24.563,5.433,23.508,1.53,28.232,5.767,37.177,10.585,22.343,55.036,34.914,73.078,19.821,5.844-4.888,7.547-17.08,11.2-41.182,3.471-22.933,1.753-33.267-1.185-41.443-2.065-5.745-3.772-10.5-7.851-14.75C771.1,344.631,710.693,367.322,706.313,383.387Z" transform="translate(-11.252 808.012)"/><path class="ae" d="M763.032,502.114q.679,13.4.464,26.816c-.052,3.242.921,8.1-2.239,10.124-1.958,1.254-4.883.909-7.094,1.085-13.728,1.091-41.195,2.736-44.027-16.516-1.335-9.077,4.76-18.823,5.524-28,.725-8.712-1.2-16.171,5.078-23.3l1.12.307" transform="translate(-12.506 772.159)"/><path class="ar" d="M759.136,312.445c4.351,4.2,7.721,1.5,13.206,3.039,5.935,1.666,5.679,5.432,15.807,11.035,7.418,4.1,8.6,11.9,6.385,19.483-2.091,7.158-9.979,11.447-16.958,13.833a25.782,25.782,0,0,1-6.094,1.038c-5.1.452-14.1-2.072-18.348,1.7-2.144,1.907-2.284,6.412-3.4,9.294a20.258,20.258,0,0,1-5.724,8.583c-2.673,2.193-6.022,3.363-9.319,4.4-3.971,1.255-10.468.537-13.14,3.69-2.841,3.351-3.174,9.559-2.313,13.62.674,3.175,2.161,6.137,2.782,9.322a18.521,18.521,0,0,1-4.655,15.9c-5.962,6.377-18.423,9.653-25.341,3.481-5.6-5-8.3-13.337-14.31-17.72-6.255-4.561-11.542-3.957-14.2-13.174-2.41-8.374,1.255-14.895-1.508-22.812-3.408-9.766-6.414-17.84-3.547-28.4,1.449-5.337,7.036-8.731,8.388-13.724,1.088-4.015-1.207-8.234.148-12.651,2.968-9.67,10.853-17.461,20.2-21.316,10.362-4.271,18.575-1.556,29-1.593,9.993-.036,17.762-2.331,27.648,2.032a43.044,43.044,0,0,1,7.681,4.434c2.152,1.541,4.83,5.209,7.184,6.109,2.29.876,6.028-.639,8.7-.526a23.344,23.344,0,0,1,21.2,15.818l-1.016-2.056" transform="translate(3.98 826.543)"/><path class="ae" d="M761.009,425.722c-3.1-2.19-7.694-1.223-10.357,1.479s-3.649,6.689-3.6,10.483c.048,4.047,1.248,8.234,4.09,11.114s7.525,4.112,11.112,2.236a15.941,15.941,0,0,0,2.1-1.4" transform="translate(-24.125 787.13)"/><path class="p" d="M871.144,665.053c-1.173-7.774-6.642-14.57-10.046-22.779-12.408-29.925-22-59.033-49.294-79.116a159.336,159.336,0,0,0-81.055-30.064c-24.609-2.026-49.375-5.341-74.05-.919-22.59,4.049-44.529,13.222-60.525,30.124-7.3,7.712-11.912,17.5-16.917,26.867a298.191,298.191,0,0,1-28.99,44.276c-1.9,2.409-3.962,5.43-2.868,8.3a8.483,8.483,0,0,0,1.824,2.6,98.145,98.145,0,0,0,35.458,25.07c10.625,4.406,20.59,16.121,33.283,13.258,17.735-4,12.777-31.916,31.475-45.345,29.965-21.52,105.509,5.067,131.209,52.024,6.506,11.886,7.231,20.332,16.391,24.827,17.831,8.75,41.544-4.745,55-15.971,7.406-6.179,14.459-13.781,17.943-22.926A19.731,19.731,0,0,0,871.144,665.053Z" transform="translate(38.493 754.099)"/><path class="aq" d="M881.454,727.907a135.374,135.374,0,0,1-15.779-81.4c.149-1.212,1.718-2.675,2.146-1.532" transform="translate(-60.968 718.217)"/><path class="aq" d="M860.7,580.765a115.533,115.533,0,0,0-10.976,48.188" transform="translate(-56.282 738.197)"/><path class="as" d="M1132.907,657.184" transform="translate(-144.964 714.265)"/><path class="at" d="M1095.385,631.651a11.162,11.162,0,0,0-1.374,6.348,15.958,15.958,0,0,1,19.456,4.206c1.207,1.563,2.111,3.352,3.417,4.832a6.264,6.264,0,0,0,5.146,2.435,2.06,2.06,0,0,0,1.151-.446,2.716,2.716,0,0,0,.66-1.245l1.122-3.473a6.3,6.3,0,0,0,.448-3.092,6.093,6.093,0,0,0-1.975-2.966c-4.85-4.776-10.4-9.1-16.906-11.093a8.094,8.094,0,0,0-9.436,2.045c-1.963,1.851-3.719,4.2-3.852,6.891a2.12,2.12,0,0,0,.24,1.254,2.549,2.549,0,0,0,2.077.826Z" transform="translate(-132.541 723.872)"/></g><path class="au" d="M912.062,531.145a3.472,3.472,0,0,1-.124.907v-1.806A3.345,3.345,0,0,1,912.062,531.145Z" transform="translate(-75.764 754.018)"/><path class="av" d="M911.918,532.93c.007-.021.007-.034.014-.055v.055Z" transform="translate(-75.758 753.195)"/></g><path class="aw" d="M626.36,706.324c-1.862-28.369,1.654-67.058,12.9-93.167" transform="translate(-574.09 -327.91)"/></g></g><g transform="translate(967.818 200.861)"><path class="ax" d="M1190.638,214.3a50.591,50.591,0,0,1,3.157,12.274c.876,6.138-2.1,11.573-2.28,17.536-.351,8.943,8.241,15.957,16.834,12.8,7.015-2.631,13.678-9.645,21.218-6.664,4.735,1.929,9.82,6.839,15.081,2.455a52.031,52.031,0,0,0,6.34-6,41.024,41.024,0,0,0,.311-5.053c0-21.772-17.078-39.421-38.145-39.421a37.257,37.257,0,0,0-24.428,9.146A8.29,8.29,0,0,1,1190.638,214.3Z" transform="translate(-1175.01 -202.234)"/><path class="ay" d="M1238.393,256.877c-5.26,4.383-10.346-.526-15.081-2.455-7.54-2.981-14.2,4.033-21.218,6.664-8.592,3.157-17.184-3.858-16.834-12.8.175-5.962,3.156-11.4,2.28-17.536a50.586,50.586,0,0,0-3.157-12.274,8.288,8.288,0,0,0-1.913-2.925,39.869,39.869,0,0,0-13.715,30.275c0,21.771,17.078,39.421,38.144,39.421,19.41,0,35.434-14.983,37.834-34.368A52.031,52.031,0,0,1,1238.393,256.877Z" transform="translate(-1168.756 -206.404)"/></g><g transform="translate(527.126 424.304)"><path class="az" d="M535.813,540.645c3.167-.983,5.023-4.7,8.3-5.133,4.15,3.495,7.208,9.938,13.542,9.064a2.612,2.612,0,0,0,1.638-1.42,22.066,22.066,0,0,0,1.131-2.09c-1.508-7.711-7.964-13.507-15.7-13.507a15.711,15.711,0,0,0-12.611,6.484c.148,1.079.33,2.153.536,3.216C532.865,538.679,533.193,541.3,535.813,540.645Z" transform="translate(-528.687 -527.559)"/><path class="ba" d="M557.731,546.113a2.611,2.611,0,0,1-1.638,1.42c-6.334.874-9.392-5.57-13.542-9.064-3.276.437-5.133,4.15-8.3,5.133-2.62.655-2.948-1.966-3.166-3.385-.206-1.063-.387-2.137-.536-3.216a17.515,17.515,0,0,0-3.424,10.475c0,9.366,7.179,16.96,16.035,16.96s16.035-7.594,16.035-16.96a17.942,17.942,0,0,0-.333-3.452A22.054,22.054,0,0,1,557.731,546.113Z" transform="translate(-527.126 -530.515)"/></g></g></svg>