<svg xmlns="http://www.w3.org/2000/svg" xmlns:xlink="http://www.w3.org/1999/xlink" width="615.858" height="461.579" viewBox="0 0 615.858 461.579"><defs><style>.a,.b,.j,.k,.m,.p{fill:none;}.b,.c,.f,.g,.j,.k,.l,.m,.n,.o,.p{stroke:#100052;}.b,.c,.f,.g,.j,.l,.m,.n,.o,.p{stroke-miterlimit:10;}.b{stroke-width:0.635px;}.ab,.c,.g,.l,.o{fill:#fff;}.c{stroke-width:0.951px;}.d{clip-path:url(#a);}.e{fill:url(#b);}.f{fill:#100052;}.f,.g,.j,.k{stroke-width:1.27px;}.h{fill:#f68f78;}.i{fill:#ff9077;}.k{stroke-linecap:round;stroke-linejoin:round;}.l,.m,.n{stroke-width:2.495px;}.n{fill:url(#c);}.o,.p{stroke-width:2.212px;}.q{fill:url(#d);}.r{fill:url(#e);}.s{fill:url(#f);}.t{fill:url(#g);}.u{fill:url(#h);}.v{fill:url(#i);}.w{fill:url(#j);}.x{fill:url(#k);}.y{fill:url(#l);}.z{fill:url(#m);}.aa{fill:url(#n);}</style><clipPath id="a"><path class="a" d="M875.1,704.247c-8.269-6.021-4.271-12.991-10.8-25.2-31.146-58.244-183.023,8.453-273.577-57.6-26.948-19.655-59.176-58.878-57.6-100.792,4.119-109.208,236.512-203.3,428.365-183.585,39.1,4.02,139.494,11.175,161.987,68.395,15.316,38.963-8.229,93.658-14.4,107.991-10.13,23.53-22.9,41.556-39.6,61.2C1012.018,642.233,908.355,728.458,875.1,704.247Z" transform="translate(-533.071 -334.446)"/></clipPath><linearGradient id="b" x1="0.524" y1="0.94" x2="0.502" y2="0.541" gradientUnits="objectBoundingBox"><stop offset="0" stop-color="#4fa5ad"/><stop offset="1" stop-color="#99cbcf"/></linearGradient><linearGradient id="c" x1="0.986" y1="2.132" x2="2.001" y2="2.132" gradientUnits="objectBoundingBox"><stop offset="0" stop-color="#ff9077"/><stop offset="1" stop-color="#e9645a"/></linearGradient><linearGradient id="d" x1="-1.874" y1="-1.333" x2="-0.739" y2="-1.333" gradientUnits="objectBoundingBox"><stop offset="0" stop-color="#2a7195"/><stop offset="1" stop-color="#060c39"/></linearGradient><linearGradient id="e" x1="0.538" y1="0.354" x2="0.334" y2="1.011" xlink:href="#d"/><linearGradient id="f" x1="0.487" y1="0.494" x2="0.359" y2="1.008" xlink:href="#d"/><linearGradient id="g" x1="0.713" y1="-0.573" x2="0.336" y2="1.476" xlink:href="#c"/><linearGradient id="h" x1="0.516" y1="0.293" x2="0.373" y2="1.104" xlink:href="#c"/><linearGradient id="i" x1="-19.865" y1="8.92" x2="-19.892" y2="10.592" gradientUnits="objectBoundingBox"><stop offset="0" stop-color="#faebd8"/><stop offset="1" stop-color="#ffb83f"/></linearGradient><linearGradient id="j" x1="-20.404" y1="10.394" x2="-19.277" y2="10.394" xlink:href="#i"/><linearGradient id="k" x1="-76.102" y1="82.006" x2="-76.048" y2="82.481" xlink:href="#i"/><linearGradient id="l" x1="-52.555" y1="30.99" x2="-51.976" y2="31.713" xlink:href="#i"/><linearGradient id="m" x1="-55.668" y1="26.233" x2="-56.406" y2="36.746" xlink:href="#i"/><linearGradient id="n" x1="-53.62" y1="86.766" x2="-52.815" y2="86.766" xlink:href="#i"/></defs><g transform="translate(-533.071 -212.981)"><g transform="translate(533.071 255.33)"><path class="b" d="M1221.132,401.3a.525.525,0,0,1-.307.573" transform="translate(-724.772 -307.822)"/><path class="c" d="M902.929,655.854" transform="translate(-636.164 -378.774)"/><g transform="translate(0 45.259)"><g class="d"><rect class="e" width="767.937" height="431.965" transform="translate(-89.937 -37.366)"/><g transform="translate(213.033 66.737)"><path class="f" d="M964.971,498.907c-.2,5.052,4.681,3.49,7.332,1.393l2.813-2.225a14.859,14.859,0,0,0,3.859-3.925,9.227,9.227,0,0,0,.5-7.546c-1.785-5.214-5.117-7.224-10.471-5.712A8.491,8.491,0,0,0,963.5,485.4C965.41,487.668,965.109,495.491,964.971,498.907Z" transform="translate(-866.079 -441.865)"/><path class="f" d="M941.7,491.829q-.321-1.777-.686-3.543c-1.813-8.806-3-19.209-7.887-26.812a64.374,64.374,0,0,0-21.806-20.741c-9.966-5.772-21.091-10.555-31.721-3.326a38.129,38.129,0,0,0-9.2,9.709c-2.721,3.927-3.677,9.512-5.655,13.9-4.646,10.3-10.626,19.957-15,30.391-2.769,6.608-4.874,14.071-2.568,20.855,3.006,8.842,10.484,11.061,18.665,13.162,9.414,2.419,18.961,4.271,28.5,6.121,5.473,1.063,11.058.991,16.47,1.9,4.982.841,9.439,2.942,14.688,2.91,4.491-.028,9.156-1.386,12.279-4.614,3.008-3.11,4.228-7.522,4.887-11.8C944.117,510.6,943.379,501.1,941.7,491.829Z" transform="translate(-833.385 -428.864)"/><path class="g" d="M917.031,544.753c-.253,4.768.123,9.544.339,14.314.128,2.823-4.458,2.84-6.489,2.608a28.151,28.151,0,0,1-6.188-1.734c-7.631-2.722-16.49-7.045-21.551-13.627a2.225,2.225,0,0,1-.611-1.428,2.292,2.292,0,0,1,.688-1.267,71.418,71.418,0,0,0,5.725-7.044c1.687-2.522,1.953-5.2,2.341-8.242a85.7,85.7,0,0,0-.019-21.827c-.514-3.955-1.306-7.93-.926-11.9s2.166-8.057,5.621-10.049c4.518-2.6,8.568.425,12.213,2.951,4.61,3.194,7.4,8.4,9.274,13.548a57.814,57.814,0,0,1,3.427,21.794C920.6,530.458,917.431,537.2,917.031,544.753Z" transform="translate(-843.51 -442.746)"/><path class="g" d="M896.877,507.739c-5.693-10.532-8.251-23.7-6.015-35.566,1.59-8.432,10.771-15.856,18.576-18.394,17.023-5.536,33.589,3.408,38.1,20.546a18.289,18.289,0,0,1-.677,10.43,14,14,0,0,1-.923,2c-2.643,4.664-1.943,9.605-3.078,14.639-1.78,7.891-7.341,15-12.056,21.357a14.445,14.445,0,0,1-3.477,3.815c-2.773,1.731-8.32,1.251-11.361.387a26.971,26.971,0,0,1-11.218-6.407" transform="translate(-845.609 -433.99)"/><path class="f" d="M931.134,458.714c6.007,5.435,13.366,9.624,21.386,10.766a11.655,11.655,0,0,0,5.518-.264c7.479-2.641,4.139-14.454,2.224-19.811-2.051-5.736-5.282-11.187-10.427-14.71a44.867,44.867,0,0,0-31.324-7.278c-2.8.412-5.963,1.427-7,4.062-.918,2.339.255,4.942,1.528,7.109C917.8,446.692,924.267,452.5,931.134,458.714Z" transform="translate(-851.498 -426.973)"/><path class="f" d="M890.061,473.208c-1.8-.185-3.75-.607-4.861-2.031-1.179-1.51-1.022-3.684-.392-5.492,1.776-5.1,6.542-8.5,11.261-11.117,5.158-2.863,23.64-11.885,26.931-2.634,2.98,8.375-10.531,16.478-16.62,18.912A34.673,34.673,0,0,1,890.061,473.208Z" transform="translate(-844.011 -432.797)"/><path class="f" d="M888.7,489.823a8.514,8.514,0,0,0-4.112-2.173c-1.562-.177-3.373.881-3.384,2.454a25.855,25.855,0,0,1,.093-6.432,8.7,8.7,0,0,1,3.1-5.485c4.762-3.545,13.145-.849,13.862,5.349.227,1.968-.389,6.142-1.388,7.8C894.487,495.281,891.2,491.813,888.7,489.823Z" transform="translate(-843.099 -440.808)"/><path class="g" d="M863.908,753.789" transform="translate(-838.32 -518.068)"/><path class="g" d="M924.8,743.143h0" transform="translate(-855.294 -515.101)"/><path class="g" d="M924.8,743.143" transform="translate(-855.294 -515.101)"/><path class="g" d="M916.646,732.5" transform="translate(-853.02 -512.133)"/><path class="h" d="M885.144,572.831l-6.01-1.756c-5.433-1.588-11.682-4.545-17.277-5-7.562-.612-17.43,4.653-21.194,11.228-3.008,5.256-6.266,10.076-8.332,15.848a69.136,69.136,0,0,0-3.815,18.982c-.759,12.165,3.837,23.372,7.7,34.642,4.109,11.973,4.507,24.077,6.236,36.6a62.37,62.37,0,0,1,.855,10.7c-.228,6.472-2.451,12.678-4.056,18.952-.81,3.166-1.347,6.9.767,9.388,2.5,2.947,8.731,3.642,12.052,5.417,5.43,2.9,10.257,5.709,16.407,7.5a116.983,116.983,0,0,0,36.581,4.179c7.314-.252,15.763-.558,22.873-1.8,4.175-.731,9.032-1.991,10.587-5.935.795-2.017.488-4.277.193-6.425-3.744-27.2-3.593-54.394,2.327-81.249,1.616-7.332-1.135-14.844-3.841-21.847-1.443-3.735-3.111-7.379-4.62-11.087-1.265-3.11-1.685-6.915-3.8-9.595-2.635-3.344-6.524-6.2-9.653-9.092-3.815-3.521-7.7-6.99-11.358-10.67a19.786,19.786,0,0,0-9.1-5.028Z" transform="translate(-828.432 -465.733)"/><g transform="translate(8.936 77.907)"><path class="g" d="M901.173,670.8c.242-.085-.138.343-.213.1s.166-.48.165-.737a29.282,29.282,0,0,0-1.574-8.254q-.669-2.227-1.386-4.437c-2-6.146-4.854-12.006-6.851-18.121-1.1-3.382-1.411-7.011-2.346-10.512a120.972,120.972,0,0,0-7.006-20.169c-5.629-12.017-15.8-23.3-29.869-15.915-5.635,2.959-9.19,8.972-10.533,15.193-2.48,11.494,1.7,23.308,6.4,34.084a318.348,318.348,0,0,0,19.4,37.451c6.3,10.41,13.332,20.6,22.712,28.356a30.923,30.923,0,0,0,10.147,5.98,28.866,28.866,0,0,0,9.445,1.106,22.884,22.884,0,0,0,9.8-2.528c3.705-1.918,3.813-3.834,5.485-7.4,4.894-10.433,9.2-21.051,11.038-32.4,3.4-20.969,3.575-41.826,2.538-62.98-.189-3.852.035-9.935-1.818-13.382-1.912-3.557-7.366-2.462-10.31-1.279a18.244,18.244,0,0,0-7.5,5.935c-1.36,1.786-1.093,3.774-1.478,5.927-.485,2.719-1.318,5.365-1.981,8.042-1.624,6.558-2.333,13.309-3.769,19.911-2.244,10.313-6.241,20.163-8.879,30.383s-3.867,21.2-.55,31.22" transform="translate(-840.821 -550.432)"/><path class="g" d="M964.561,595.014c-.079-.181.548-3.914.832-5.534a12.478,12.478,0,0,0-.473-6.186c-1.129-3.309-3.231-6.794-3.593-10.291-.144-1.389.275-2.228-.84-3.327a12.257,12.257,0,0,0-3.206-2.117,21.266,21.266,0,0,0-17.02-.311c-5.045,2.214-6.294,7.215-4.446,12.059a127.9,127.9,0,0,0,6.419,13.839c1.346,2.56,1.827,3.249,1.352,6.106-.715,4.3-1.7,8.624-2.436,12.955" transform="translate(-867.073 -543.527)"/><path class="g" d="M936.29,573.6c-1.493-6.644-2.866-14.507-1.39-21.316.819-3.776,3.865-5.729,6.276-8.357a74.151,74.151,0,0,1,9.053-8.507c.928-.721,1.114-.478,2.044.241a2.692,2.692,0,0,1,.63,2.648c-.618,3.43-3.046,6.209-5.377,8.8a10.733,10.733,0,0,0-2.969,9.527" transform="translate(-866.868 -534.988)"/><path class="g" d="M942.508,576.215a34.79,34.79,0,0,1-1.29-11.369,6.365,6.365,0,0,1,1.041-3.677,5.419,5.419,0,0,1,3.3-1.725,11.909,11.909,0,0,1,8.755,1.751" transform="translate(-868.792 -541.746)"/><path class="g" d="M952.733,574.693a44.2,44.2,0,0,1-.258-10.326,3.9,3.9,0,0,1,.461-1.757c.664-1.044,2.1-1.259,3.332-1.174,2.107.144,4.392,1.062,5.2,3.013" transform="translate(-871.891 -542.355)"/><path class="g" d="M959.887,574.577l.989-6.224c.242-1.525.731-3.344,2.214-3.774a4.141,4.141,0,0,1,2.364.266c1.391.443,2.9.975,3.657,2.224a5.34,5.34,0,0,1,.618,2.119,9.314,9.314,0,0,1-.005,2.938c-.294,1.525-1.158,3.188-.346,4.512l.167-.64" transform="translate(-874.009 -543.211)"/></g><path class="i" d="M874.555,636.676" transform="translate(-841.288 -485.425)"/><path class="h" d="M849.865,650.48c8.036-4.62,14.151-12.766,23.2-15.636,5.184-1.644,13.118,1.331,17.694-1.351a7.874,7.874,0,0,0,2.708-2.286,7.256,7.256,0,0,0,.81-4.264,87.5,87.5,0,0,0-10.292-38.654,34.824,34.824,0,0,0-7.881-10.57,24.749,24.749,0,0,0-8.336-4.421c-3.337-1.1-5.635-.244-8.757,1.163a37.162,37.162,0,0,0-9.909,7.108A44.445,44.445,0,0,0,835.31,609a66.023,66.023,0,0,0-.052,8.523,25.807,25.807,0,0,0,1.33,8.691,52.436,52.436,0,0,0,3.224,5.864" transform="translate(-830.303 -467.619)"/><path class="j" d="M931.532,537.293a10.416,10.416,0,0,1,8.994-1.934" transform="translate(-857.17 -457.096)"/><path class="j" d="M895.412,609.345l10.786,35.75" transform="translate(-847.102 -477.807)"/><path class="k" d="M850.667,661.659c-7.732-8.06-17.468-33.535-15.486-46.652l.016.226" transform="translate(-830.24 -479.385)"/><path class="g" d="M892.75,495.7a46.087,46.087,0,0,0-4.509-4.9c-1.914-1.793-4.328-3.43-6.286-2.406-1.828.956-2.454,3.864-2.449,6.548A19.13,19.13,0,0,0,882.39,505.4c1.981,2.923,7.122,3.36,6.814,3.184" transform="translate(-842.668 -444.005)"/></g></g></g><g transform="translate(370.765 15.867)"><path class="l" d="M1186.7,503.509l-139.583.791L1066.756,293.7l141.719,6.728Z" transform="translate(-1047.12 -293.695)"/><g transform="translate(18.71 19.185)"><line class="m" x2="113.323" y2="2.787" transform="translate(8.905 48.191)"/><line class="m" x2="113.267" y2="2.598" transform="translate(8.329 54.727)"/><line class="m" x2="113.221" y2="2.441" transform="translate(7.849 60.166)"/><line class="m" x2="113.165" y2="2.254" transform="translate(7.275 66.686)"/><line class="m" x2="113.593" y2="3.704" transform="translate(11.701 16.481)"/><line class="m" x2="113.639" y2="3.864" transform="translate(12.185 10.993)"/><line class="m" x2="113.686" y2="4.024" transform="translate(12.67 5.5)"/><line class="m" x2="113.733" y2="4.184" transform="translate(13.154)"/><line class="m" x2="113.379" y2="2.976" transform="translate(9.482 41.647)"/><line class="m" x2="112.812" y2="0.977" transform="translate(2.843 111.278)"/><line class="m" x2="112.691" y2="0.577" transform="translate(1.605 125.325)"/><line class="m" x2="112.535" y2="0.061" transform="translate(0 143.537)"/><line class="m" x2="113.051" y2="1.778" transform="translate(5.309 83.288)"/><line class="m" x2="113.098" y2="1.933" transform="translate(5.786 77.873)"/><line class="m" x2="112.747" y2="0.761" transform="translate(2.173 118.881)"/></g><g transform="translate(59.154 174.391)"><path class="m" d="M1160.554,561.843l-31.42.1,2.622-26.466,31.482.11Z" transform="translate(-1129.133 -535.48)"/></g><path class="n" d="M1158.046,555.833l-4.206,4.11-3.092-4.064-3.435,3.248-4.043-5.31,3.5-3.17-3.1-4.074,4.407-3.861,3.038,4,3.267-2.959,3.842,5.061-3.208,3.033Z" transform="translate(-1073.92 -363.105)"/></g><g transform="translate(43.494)"><path class="o" d="M750.9,447.711,634.214,486.342,593.373,304.61,713.9,271.7Z" transform="translate(-593.373 -271.696)"/><g transform="translate(15.46 18.224)"><line class="p" y1="28.491" x2="95.67" transform="translate(9.55 40.459)"/><line class="p" y1="28.634" x2="95.572" transform="translate(10.845 45.947)"/><line class="p" y1="28.752" x2="95.491" transform="translate(11.923 50.515)"/><line class="p" y1="28.894" x2="95.393" transform="translate(13.215 55.99)"/><line class="p" y1="27.796" x2="96.146" transform="translate(3.266 13.835)"/><line class="p" y1="27.675" x2="96.228" transform="translate(2.178 9.229)"/><line class="p" y1="27.554" x2="96.311" transform="translate(1.09 4.617)"/><line class="p" y1="27.432" x2="96.394"/><line class="p" y1="28.348" x2="95.768" transform="translate(8.253 34.964)"/><line class="p" y1="29.867" x2="94.75" transform="translate(21.632 93.569)"/><line class="p" y1="30.169" x2="94.54" transform="translate(24.416 105.369)"/><line class="p" y1="30.56" x2="94.269" transform="translate(28.026 120.669)"/><line class="p" y1="29.262" x2="95.168" transform="translate(16.084 70.061)"/><line class="p" y1="29.145" x2="95.249" transform="translate(15.011 65.513)"/><line class="p" y1="30.031" x2="94.637" transform="translate(23.139 99.956)"/></g><g transform="translate(82.729 159.039)"><path class="q" d="M718.573,516.121l4.841,4.558c.232-1.347,1.671-9.14,7.211-11.992a9.32,9.32,0,0,1,5.2-.966l-.526-6.486h0a48.39,48.39,0,0,0-6.491,3.9c-1.886,1.5-4.21,4.17-6.087,9.351l-1.958-1.379Z" transform="translate(-711 -494.716)"/><path class="p" d="M739.364,514.915l-26.288,8.633-5-22.88,26.4-8.472Z" transform="translate(-708.073 -492.197)"/></g></g><g transform="translate(84.015 266.669)"><path class="r" d="M655.21,644.682a13.642,13.642,0,0,1,.853,3.317c.237,1.659-.569,3.128-.616,4.739A3.44,3.44,0,0,0,660,656.2c1.9-.71,3.7-2.607,5.735-1.8,1.279.521,2.654,1.849,4.075.664a14.01,14.01,0,0,0,1.714-1.621,11.069,11.069,0,0,0,.084-1.365A10.486,10.486,0,0,0,661.3,641.42a10.071,10.071,0,0,0-6.6,2.472A2.235,2.235,0,0,1,655.21,644.682Z" transform="translate(-650.986 -641.42)"/><path class="s" d="M668.374,656.016c-1.422,1.185-2.8-.142-4.075-.664-2.038-.806-3.839,1.091-5.735,1.8a3.44,3.44,0,0,1-4.549-3.459c.047-1.611.853-3.081.616-4.739a13.641,13.641,0,0,0-.853-3.317,2.233,2.233,0,0,0-.517-.791,10.776,10.776,0,0,0-3.707,8.182,10.295,10.295,0,0,0,20.534,1.365A14,14,0,0,1,668.374,656.016Z" transform="translate(-649.554 -642.375)"/></g><g transform="translate(547.709 80.761)"><path class="t" d="M1310.4,411.475c6.73-2.088,10.675-9.979,17.637-10.907,8.818,7.426,15.316,21.118,28.776,19.261a5.548,5.548,0,0,0,3.481-3.016,47.088,47.088,0,0,0,2.4-4.442c-3.2-16.387-16.925-28.7-33.367-28.7a33.387,33.387,0,0,0-26.8,13.779c.314,2.293.7,4.576,1.137,6.835C1304.133,407.3,1304.829,412.868,1310.4,411.475Z" transform="translate(-1295.256 -383.667)"/><path class="u" d="M1357.481,422.138a5.548,5.548,0,0,1-3.481,3.016c-13.46,1.857-19.958-11.835-28.776-19.261-6.962.928-10.907,8.819-17.637,10.907-5.57,1.393-6.266-4.177-6.73-7.194-.437-2.26-.823-4.543-1.137-6.835a37.218,37.218,0,0,0-7.275,22.261c0,19.9,15.255,36.04,34.074,36.04s34.075-16.135,34.075-36.04a38.212,38.212,0,0,0-.708-7.335A47.06,47.06,0,0,1,1357.481,422.138Z" transform="translate(-1292.444 -388.992)"/></g></g><g transform="translate(797.346 212.981)"><g transform="translate(4.499 8.659)"><path class="v" d="M905.713,230.339c2.463-1.211,23.892-11.309,44.73-.17,10.139,5.419,26,19,23.272,35.387-2.566,15.4-20.775,28.635-43.088,26.385.214,3.462.506,6.129-.074,9.548L909,301.657l-1.311-25.864c-.085-1.675-.074-3.594,1.179-4.709a5.322,5.322,0,0,1,3.952-.865c3.832.254,7.635,1.089,11.472.925s7.894-1.543,10.047-4.723c3.01-4.445,1.033-10.94-3.14-14.318s-15.219-4.147-15.219-4.147l-1.952-.3S907.381,235.729,905.713,230.339Z" transform="translate(-905.713 -224.986)"/></g><path class="w" d="M899.475,218.334c2.463-1.211,23.892-11.309,44.73-.17,10.139,5.42,26,19,23.272,35.388-2.565,15.4-20.775,28.635-43.088,26.385.214,3.461.506,6.129-.074,9.548l-21.557.167c-.437-8.621-.131-30.574-.131-30.574s11.587.224,15.424.061,7.894-1.543,10.047-4.724c3.01-4.445,1.033-10.94-3.14-14.318s-15.219-4.147-15.219-4.147l-2.007-.263S901.143,223.724,899.475,218.334Z" transform="translate(-899.475 -212.981)"/><path class="x" d="M928.082,348.142l-18.389,7.437a12.455,12.455,0,0,1,18.389-7.437Z" transform="translate(-902.323 -250.167)"/><path class="y" d="M929.527,347.5l2.827,6.989a12.46,12.46,0,0,1-23.1,9.343l-2.827-6.989Z" transform="translate(-901.412 -250.476)"/><circle class="z" cx="12.459" cy="12.459" r="12.459" transform="translate(4.102 89.233)"/><path class="aa" d="M908.525,327.907l-4.5-8.658,21.119-.088,4.937,8.579Z" transform="translate(-900.743 -242.577)"/><path class="ab" d="M940.254,317.817" transform="translate(-910.841 -242.203)"/><path class="ab" d="M934.016,305.813" transform="translate(-909.103 -238.857)"/></g></g></svg>